<svg width="178" height="35" viewBox="0 0 178 35" fill="none" xmlns="http://www.w3.org/2000/svg">
<path d="M10.6674 6.61H12.7254V5.644H10.6674V0.492H9.51937V13.036H10.6674V6.61ZM8.32937 2.494H5.23537V0.631999H4.08737V2.494H0.923366V3.418H8.32937V2.494ZM4.67537 4.454C2.91137 4.454 1.63737 5.672 1.63737 7.352C1.63737 9.074 2.91137 10.236 4.67537 10.236C6.46737 10.236 7.74137 9.074 7.74137 7.352C7.74137 5.672 6.46737 4.454 4.67537 4.454ZM4.67537 9.284C3.54137 9.284 2.71537 8.472 2.71537 7.352C2.71537 6.232 3.54137 5.406 4.67537 5.406C5.83737 5.406 6.64937 6.232 6.64937 7.352C6.64937 8.472 5.83737 9.284 4.67537 9.284ZM24.7783 5.154V4.202H22.9163V0.478H21.7683V9.564H22.9163V5.154H24.7783ZM20.5643 6.904L20.4383 5.98C18.8003 6.316 17.3723 6.4 14.8943 6.4V2.494H19.3043V1.57H13.7463V7.338H14.7263C17.3723 7.338 18.8423 7.24 20.5643 6.904ZM23.4763 11.818H16.2523V8.654H15.1043V12.756H23.4763V11.818ZM35.5852 13.064V0.478H34.4372V13.064H35.5852ZM29.4252 1.402C27.4792 1.402 26.0652 2.606 26.0652 4.356C26.0652 6.106 27.4792 7.31 29.4252 7.31C31.3852 7.31 32.7852 6.106 32.7852 4.356C32.7852 2.606 31.3852 1.402 29.4252 1.402ZM29.4252 2.382C30.7272 2.382 31.6652 3.18 31.6652 4.356C31.6652 5.518 30.7272 6.33 29.4252 6.33C28.1232 6.33 27.1852 5.518 27.1852 4.356C27.1852 3.18 28.1232 2.382 29.4252 2.382ZM25.4352 9.34L25.5752 10.306C27.8572 10.306 30.8672 10.278 33.7092 9.76L33.6112 8.906C30.8392 9.312 27.7452 9.34 25.4352 9.34ZM50.2369 13.064V0.478H49.0889V13.064H50.2369ZM44.4129 3.824V1.57H43.2789V3.824C43.2789 6.232 41.7389 8.598 39.9049 9.494L40.6049 10.432C42.0749 9.648 43.2789 8.136 43.8529 6.218C44.4549 8.024 45.6309 9.48 47.0869 10.194L47.7729 9.27C45.9249 8.444 44.4129 6.12 44.4129 3.824ZM61.8839 4.734H63.7459V3.782H61.8839V0.492H60.7359V8.052H61.8839V4.734ZM58.8459 7.52L59.4339 6.624C57.5859 5.98 56.3819 4.44 56.3819 2.774V2.284H59.1539V1.36H52.4199V2.284H55.2339V2.788C55.2339 4.594 53.9879 6.19 52.0839 6.862L52.6859 7.772C54.1559 7.226 55.2759 6.12 55.8219 4.72C56.3679 6.008 57.4459 7.03 58.8459 7.52ZM61.8839 8.724H53.7079V9.648H60.7359V13.05H61.8839V8.724ZM73.9928 6.61H76.0508V5.644H73.9928V0.492H72.8448V13.036H73.9928V6.61ZM71.6548 2.494H68.5608V0.631999H67.4128V2.494H64.2488V3.418H71.6548V2.494ZM68.0008 4.454C66.2368 4.454 64.9628 5.672 64.9628 7.352C64.9628 9.074 66.2368 10.236 68.0008 10.236C69.7928 10.236 71.0668 9.074 71.0668 7.352C71.0668 5.672 69.7928 4.454 68.0008 4.454ZM68.0008 9.284C66.8668 9.284 66.0408 8.472 66.0408 7.352C66.0408 6.232 66.8668 5.406 68.0008 5.406C69.1628 5.406 69.9748 6.232 69.9748 7.352C69.9748 8.472 69.1628 9.284 68.0008 9.284ZM86.8017 13.036V0.478H85.6537V13.036H86.8017ZM83.1197 1.836H77.2397V2.76H81.9577C81.7197 5.742 80.0397 8.15 76.6657 9.76L77.2817 10.698C81.4677 8.64 83.1197 5.462 83.1197 1.836ZM101.453 13.064V0.478H100.305V5.14H97.3654V1.472H96.2454V4.734H92.7454V1.472H91.6114V9.886H97.3654V6.064H100.305V13.064H101.453ZM92.7454 5.644H96.2454V8.948H92.7454V5.644ZM104.77 6.26H113.296V5.364H105.918V4.02H112.89V3.152H105.918V1.836H113.226V0.94H104.77V6.26ZM114.626 8.36V7.436H103.272V8.36H114.626ZM113.45 11.818H105.89V9.27H104.742V12.756H113.45V11.818ZM121.135 5.042C123.893 5.042 125.545 4.286 125.545 2.872C125.545 1.458 123.893 0.688 121.135 0.688C118.377 0.688 116.725 1.458 116.725 2.872C116.725 4.286 118.377 5.042 121.135 5.042ZM121.135 1.556C123.221 1.556 124.369 2.032 124.369 2.872C124.369 3.712 123.221 4.188 121.135 4.188C119.049 4.188 117.901 3.712 117.901 2.872C117.901 2.032 119.049 1.556 121.135 1.556ZM126.819 6.82V5.896H115.451V6.82H126.819ZM125.741 12H117.985V10.726H125.363V7.898H116.823V8.766H124.229V9.886H116.865V12.896H125.741V12ZM140.421 13.05V0.463999H139.273V5.21H136.683V6.162H139.273V13.05H140.421ZM131.797 9.088V6.078H135.913V5.154H131.797V2.564H136.459V1.612H130.649V10.026H131.615C134.009 10.026 135.535 9.97 137.355 9.634L137.229 8.696C135.507 8.99 134.079 9.088 131.797 9.088ZM152.544 13.022V0.463999H151.382V13.022H152.544ZM146.874 4.538V3.572H149.744V2.648H146.888V0.701999H145.726V2.648H142.828V3.572H145.74V4.538C145.74 6.75 144.354 8.836 142.492 9.732L143.136 10.6C144.592 9.886 145.768 8.472 146.328 6.722C146.902 8.388 148.078 9.732 149.534 10.39L150.178 9.494C148.302 8.668 146.874 6.652 146.874 4.538ZM164.107 6.61H166.165V5.644H164.107V0.492H162.959V13.036H164.107V6.61ZM161.769 2.494H158.675V0.631999H157.527V2.494H154.363V3.418H161.769V2.494ZM158.115 4.454C156.351 4.454 155.077 5.672 155.077 7.352C155.077 9.074 156.351 10.236 158.115 10.236C159.907 10.236 161.181 9.074 161.181 7.352C161.181 5.672 159.907 4.454 158.115 4.454ZM158.115 9.284C156.981 9.284 156.155 8.472 156.155 7.352C156.155 6.232 156.981 5.406 158.115 5.406C159.277 5.406 160.089 6.232 160.089 7.352C160.089 8.472 159.277 9.284 158.115 9.284ZM167.816 2.676H175.474V2.984C175.474 4.482 175.488 6.274 174.998 8.668L176.146 8.794C176.636 6.26 176.622 4.552 176.622 2.984V1.738H167.816V2.676ZM177.98 11.272V10.334H172.184V5.84H171.036V10.334H166.626V11.272H177.98ZM17.9583 27.386H20.0303V26.434H17.9583V21.478H16.8103V34.064H17.9583V27.386ZM9.97825 29.948V23.634H14.6683V22.682H8.83025V30.928H9.82425C12.1763 30.928 13.8563 30.858 15.7603 30.48L15.6343 29.528C13.8283 29.864 12.2183 29.948 9.97825 29.948ZM30.2212 26.028V24.292H32.0552V23.354H30.2212V21.492H29.0732V28.926H30.2212V26.98H32.0552V26.028H30.2212ZM27.2672 25.174C27.2672 23.438 25.8812 22.234 23.9912 22.234C22.0872 22.234 20.7152 23.438 20.7152 25.174C20.7152 26.924 22.0872 28.142 23.9912 28.142C25.8812 28.142 27.2672 26.924 27.2672 25.174ZM21.8352 25.174C21.8352 23.998 22.7312 23.186 23.9912 23.186C25.2372 23.186 26.1472 23.998 26.1472 25.174C26.1472 26.35 25.2372 27.176 23.9912 27.176C22.7312 27.176 21.8352 26.35 21.8352 25.174ZM26.2312 29.318C23.6832 29.318 22.0872 30.158 22.0872 31.67C22.0872 33.154 23.6832 34.022 26.2312 34.022C28.7652 34.022 30.3612 33.154 30.3612 31.67C30.3612 30.158 28.7652 29.318 26.2312 29.318ZM26.2312 33.112C24.3692 33.112 23.2352 32.566 23.2352 31.67C23.2352 30.76 24.3692 30.228 26.2312 30.228C28.0932 30.228 29.2132 30.76 29.2132 31.67C29.2132 32.566 28.0932 33.112 26.2312 33.112ZM32.6981 23.942H40.1041V23.018H36.9681V21.492H35.8201V23.018H32.6981V23.942ZM44.2621 26.588V25.622H42.4001V21.492H41.2521V30.9H42.4001V26.588H44.2621ZM39.4041 26.966C39.4041 25.566 38.1861 24.642 36.3941 24.642C34.6161 24.642 33.3981 25.566 33.3981 26.966C33.3981 28.38 34.6161 29.304 36.3941 29.304C38.1861 29.304 39.4041 28.38 39.4041 26.966ZM34.4901 26.966C34.4901 26.07 35.2181 25.538 36.3941 25.538C37.5281 25.538 38.3121 26.07 38.3121 26.966C38.3121 27.862 37.5281 28.408 36.3941 28.408C35.2181 28.408 34.4901 27.862 34.4901 26.966ZM42.9601 32.818H35.7361V30.158H34.5881V33.756H42.9601V32.818ZM58.6618 27.694V26.77H56.8558C57.1918 25.188 57.1918 24.068 57.1918 23.074V22.15H48.7078V23.074H56.0578C56.0578 24.068 56.0438 25.202 55.6938 26.77H47.2518V27.694H58.6618ZM57.2338 29.402H48.6658V33.868H57.2338V29.402ZM56.0998 32.944H49.7858V30.326H56.0998V32.944ZM65.1147 26.42C67.8447 26.42 69.5247 25.58 69.5247 24.082C69.5247 22.598 67.8447 21.73 65.1147 21.73C62.3987 21.73 60.7047 22.598 60.7047 24.082C60.7047 25.58 62.3987 26.42 65.1147 26.42ZM65.1147 22.626C67.1447 22.626 68.3487 23.13 68.3487 24.082C68.3487 24.992 67.1447 25.538 65.1147 25.538C63.0847 25.538 61.8807 24.992 61.8807 24.082C61.8807 23.13 63.0847 22.626 65.1147 22.626ZM67.9707 30.018V28.282H70.7987V27.358H59.4447V28.282H62.3007V30.004C61.3487 30.354 60.8167 30.956 60.8167 31.796C60.8167 33.238 62.4267 34.036 65.1147 34.036C67.8027 34.036 69.4127 33.238 69.4127 31.796C69.4127 30.998 68.9367 30.396 67.9707 30.018ZM63.4487 28.282H66.8227V29.71C66.3187 29.612 65.7447 29.57 65.1147 29.57C64.5127 29.57 63.9527 29.612 63.4487 29.696V28.282ZM68.2507 31.796C68.2507 32.692 67.0887 33.14 65.1147 33.14C63.1407 33.14 61.9787 32.692 61.9787 31.796C61.9787 30.956 63.1407 30.452 65.1147 30.452C67.0887 30.452 68.2507 30.956 68.2507 31.796ZM83.2296 25.678V24.726H81.3676V21.492H80.2196V29.094H81.3676V25.678H83.2296ZM78.2736 28.282L78.8756 27.386C77.0836 26.784 75.8376 25.188 75.8376 23.508V22.122H74.6896V23.41C74.6896 25.3 73.4716 27.05 71.5676 27.722L72.1696 28.632C73.6396 28.072 74.7596 26.924 75.2776 25.454C75.8376 26.742 76.9156 27.778 78.2736 28.282ZM77.3776 29.444C74.8156 29.444 73.2336 30.284 73.2336 31.74C73.2336 33.196 74.8156 34.022 77.3776 34.022C79.9116 34.022 81.5076 33.196 81.5076 31.74C81.5076 30.284 79.9116 29.444 77.3776 29.444ZM77.3776 33.126C75.5156 33.126 74.3816 32.636 74.3816 31.74C74.3816 30.844 75.5156 30.34 77.3776 30.34C79.2396 30.34 80.3596 30.844 80.3596 31.74C80.3596 32.636 79.2396 33.126 77.3776 33.126ZM84.8665 22.808H86.7565V25.44H84.9085V26.364H94.0225V25.44H92.1745V22.808H94.0785V21.884H84.8665V22.808ZM87.9045 22.808H91.0265V25.44H87.9045V22.808ZM90.0605 29.948V28.478H95.1565V27.554H83.8025V28.478H88.9125V29.948H85.2025V33.868H93.7705V29.948H90.0605ZM86.3225 30.858H92.6505V32.944H86.3225V30.858ZM101.651 26.042C104.409 26.042 106.061 25.286 106.061 23.872C106.061 22.458 104.409 21.688 101.651 21.688C98.8935 21.688 97.2415 22.458 97.2415 23.872C97.2415 25.286 98.8935 26.042 101.651 26.042ZM101.651 22.556C103.737 22.556 104.885 23.032 104.885 23.872C104.885 24.712 103.737 25.188 101.651 25.188C99.5655 25.188 98.4175 24.712 98.4175 23.872C98.4175 23.032 99.5655 22.556 101.651 22.556ZM107.335 27.82V26.896H95.9675V27.82H107.335ZM106.257 33H98.5015V31.726H105.879V28.898H97.3395V29.766H104.745V30.886H97.3815V33.896H106.257V33ZM122.197 26.266V25.3H120.335V21.464H119.187V30.662H120.335V26.266H122.197ZM111.109 28.408H116.877V22.598H111.109V28.408ZM112.229 23.522H115.757V27.498H112.229V23.522ZM120.895 32.818H113.671V29.808H112.523V33.756H120.895V32.818ZM132.43 27.442H134.446V26.49H132.43V21.478H131.282V34.036H132.43V27.442ZM124.408 29.892V22.696H123.274V30.858H124.268C126.186 30.858 128.104 30.718 130.246 30.284L130.106 29.332C128.076 29.738 126.214 29.892 124.408 29.892ZM146.331 32.426V31.488H141.207V28.786H144.959V22.374H143.839V24.614H137.427V22.374H136.293V28.786H140.045V31.488H134.949V32.426H146.331ZM143.839 27.862H137.427V25.552H143.839V27.862ZM157.796 34.036V21.478H156.704V34.036H157.796ZM155.234 21.758H154.156V25.986H152.084V26.938H154.156V33.42H155.234V21.758ZM150.852 25.02V22.668H149.746V25.062C149.746 27.232 148.71 29.472 146.988 30.48L147.702 31.348C148.948 30.564 149.858 29.178 150.306 27.484C150.754 29.01 151.594 30.34 152.784 31.068L153.442 30.172C151.804 29.164 150.852 27.036 150.852 25.02ZM170.703 32.426V31.474H167.889V28.072C168.953 27.526 169.541 26.63 169.541 25.496C169.541 23.55 167.651 22.276 164.977 22.276C162.317 22.276 160.413 23.55 160.413 25.496C160.413 26.63 161.029 27.54 162.093 28.086V31.474H159.293V32.426H170.703ZM164.977 23.172C166.993 23.172 168.449 24.096 168.449 25.496C168.449 26.896 166.993 27.82 164.977 27.82C162.961 27.82 161.519 26.896 161.519 25.496C161.519 24.096 162.961 23.172 164.977 23.172ZM166.741 31.474H163.241V28.52C163.787 28.646 164.361 28.716 164.977 28.716C165.551 28.716 166.139 28.646 166.741 28.52V31.474Z" fill="#666666"/>
</svg>
