<svg width="267" height="61" viewBox="0 0 267 61" fill="none" xmlns="http://www.w3.org/2000/svg">
<path d="M52.2959 7.44H48.9679V0.549999H46.2899V17.788H48.9679V9.65H52.2959V7.44ZM42.5199 13.992V2.214H39.8679V5.88H34.1219V2.214H31.4439V13.992H42.5199ZM39.8679 7.96V11.834H34.1219V7.96H39.8679ZM36.7999 21.376V16.124H34.0959V23.56H49.9039V21.376H36.7999ZM74.9139 8.064V5.854H71.5599V0.497999H68.8819V13.238H71.5599V8.064H74.9139ZM65.1899 1.824H54.3479V4.008H62.2259C62.0352 5.68933 61.1945 7.18 59.7039 8.48C58.2305 9.76267 56.0639 10.7247 53.2039 11.366L54.2179 13.524C57.7192 12.7093 60.4232 11.3227 62.3299 9.364C64.2365 7.388 65.1899 4.87467 65.1899 1.824ZM68.9079 14.226V16.878H59.2099V14.226H56.5579V23.716H71.5599V14.226H68.9079ZM68.9079 18.984V21.558H59.2099V18.984H68.9079ZM95.0099 9.624L95.9719 7.544C94.8105 7.388 93.7359 7.128 92.7479 6.764C91.7599 6.38267 90.9019 5.932 90.1739 5.412C89.4459 4.87467 88.8739 4.28533 88.4579 3.644C88.0592 3.00267 87.8599 2.344 87.8599 1.668V0.757999H85.1039V1.668C85.1039 2.344 84.8959 3.00267 84.4799 3.644C84.0812 4.28533 83.5179 4.87467 82.7899 5.412C82.0792 5.932 81.2299 6.38267 80.2419 6.764C79.2539 7.128 78.1705 7.388 76.9919 7.544L77.9799 9.624C79.9212 9.364 81.6285 8.82667 83.1019 8.012C84.5752 7.18 85.7019 6.14 86.4819 4.892C87.2619 6.14 88.3885 7.18 89.8619 8.012C91.3525 8.82667 93.0685 9.364 95.0099 9.624ZM97.1159 11.028H75.8479V13.16H97.1159V11.028ZM91.7079 14.616V17.008H81.1259V14.616H78.4739V23.716H94.3859V14.616H91.7079ZM91.7079 19.062V21.584H81.1259V19.062H91.7079ZM117.888 0.523999H115.21V24.002H117.888V0.523999ZM102.522 15.786V2.812H99.8698V18.074H101.872C103.709 18.074 105.564 17.996 107.436 17.84C109.325 17.6667 111.292 17.372 113.338 16.956L113.052 14.72C111.162 15.1013 109.351 15.37 107.618 15.526C105.902 15.682 104.203 15.7687 102.522 15.786ZM142.95 11.756V9.546H139.284V0.497999H136.606V24.028H139.284V11.756H142.95ZM124.724 16.02V4.918H132.966V2.734H122.046V18.256H123.97C125.027 18.256 126.024 18.2473 126.96 18.23C127.913 18.1953 128.832 18.152 129.716 18.1C130.6 18.048 131.466 17.97 132.316 17.866C133.182 17.762 134.058 17.632 134.942 17.476L134.656 15.266C133.841 15.4047 133.044 15.526 132.264 15.63C131.484 15.7167 130.686 15.7947 129.872 15.864C129.074 15.916 128.251 15.9593 127.402 15.994C126.552 16.0113 125.66 16.02 124.724 16.02ZM167.586 0.497999H164.908V13.706H167.586V0.497999ZM160.54 1.928H149.698V4.086H157.68C157.438 5.87133 156.545 7.44867 155.002 8.818C153.477 10.1873 151.284 11.236 148.424 11.964L149.438 14.07C151.189 13.6193 152.749 13.0213 154.118 12.276C155.488 11.5307 156.649 10.6467 157.602 9.624C158.556 8.60133 159.284 7.44867 159.786 6.166C160.289 4.866 160.54 3.45333 160.54 1.928ZM152.246 14.772V23.716H167.586V14.772H152.246ZM154.898 21.558V16.904H164.96V21.558H154.898ZM189.502 11.704V1.434H186.824V4.398H176.086V1.434H173.408V11.704H189.502ZM186.824 6.556V9.546H176.086V6.556H186.824ZM192.128 16.41V14.252H170.834V16.41H180.064V24.028H182.742V16.41H192.128ZM215.136 7.544H211.808V0.497999H209.13V17.814H211.808V9.754H215.136V7.544ZM205.958 14.148L207.31 12.016C206.426 11.704 205.637 11.2967 204.944 10.794C204.251 10.2913 203.661 9.71933 203.176 9.078C202.708 8.43667 202.344 7.74333 202.084 6.998C201.841 6.25267 201.72 5.49 201.72 4.71V1.954H199.016V4.684C199.016 5.53333 198.886 6.36533 198.626 7.18C198.383 7.99467 198.019 8.74867 197.534 9.442C197.049 10.1353 196.442 10.7507 195.714 11.288C195.003 11.8253 194.18 12.25 193.244 12.562L194.7 14.642C196.104 14.1393 197.283 13.4113 198.236 12.458C199.189 11.5047 199.917 10.378 200.42 9.078C200.94 10.222 201.668 11.2447 202.604 12.146C203.54 13.03 204.658 13.6973 205.958 14.148ZM199.666 21.376V16.15H196.988V23.56H212.744V21.376H199.666ZM235.44 0.523999H232.736V13.758H235.44V0.523999ZM230.812 11.21L230.5 9.052C228.784 9.39867 227.094 9.65 225.43 9.806C223.783 9.94467 222.033 10.0227 220.178 10.04V1.876H217.5V12.276H219.45C221.513 12.276 223.454 12.198 225.274 12.042C227.094 11.8687 228.94 11.5913 230.812 11.21ZM220.048 14.824V23.716H235.44V14.824H220.048ZM222.7 21.558V16.956H232.814V21.558H222.7ZM21.3447 42.374H18.0687V36.524H15.3387V50.304H18.0687V44.584H21.3447V42.374ZM13.4407 47.964L13.1547 45.78C12.4441 45.936 11.7334 46.066 11.0227 46.17C10.3294 46.274 9.59275 46.352 8.81275 46.404C8.05008 46.456 7.21808 46.4993 6.31675 46.534C5.41542 46.5513 4.40142 46.56 3.27475 46.56V40.398H11.0487V38.214H0.596748V48.744H2.49475C3.77742 48.744 4.92142 48.7353 5.92675 48.718C6.93208 48.6833 7.85942 48.64 8.70875 48.588C9.57542 48.536 10.3901 48.458 11.1527 48.354C11.9154 48.25 12.6781 48.12 13.4407 47.964ZM10.4507 50.772C9.25475 50.772 8.17142 50.876 7.20075 51.084C6.23008 51.292 5.40675 51.5953 4.73075 51.994C4.05475 52.3927 3.53475 52.878 3.17075 53.45C2.80675 54.022 2.62475 54.6633 2.62475 55.374C2.62475 56.102 2.80675 56.752 3.17075 57.324C3.53475 57.896 4.05475 58.3813 4.73075 58.78C5.40675 59.1787 6.23008 59.482 7.20075 59.69C8.17142 59.9153 9.25475 60.028 10.4507 60.028C11.6467 60.028 12.7301 59.9153 13.7007 59.69C14.6714 59.482 15.4947 59.1787 16.1707 58.78C16.8467 58.3813 17.3667 57.896 17.7307 57.324C18.0947 56.752 18.2767 56.102 18.2767 55.374C18.2767 54.6633 18.0947 54.022 17.7307 53.45C17.3667 52.878 16.8467 52.3927 16.1707 51.994C15.4947 51.5953 14.6714 51.292 13.7007 51.084C12.7301 50.876 11.6467 50.772 10.4507 50.772ZM10.4507 57.844C8.82142 57.844 7.54742 57.636 6.62875 57.22C5.72742 56.7867 5.27675 56.1713 5.27675 55.374C5.27675 54.5767 5.72742 53.97 6.62875 53.554C7.54742 53.138 8.82142 52.93 10.4507 52.93C12.0801 52.93 13.3454 53.138 14.2467 53.554C15.1654 53.97 15.6247 54.5767 15.6247 55.374C15.6247 56.1713 15.1654 56.7867 14.2467 57.22C13.3454 57.636 12.0801 57.844 10.4507 57.844ZM41.6487 53.71V36.55H38.9707V53.71H41.6487ZM35.1487 50.018L36.5267 47.886C35.6254 47.574 34.8194 47.158 34.1087 46.638C33.4154 46.1007 32.8261 45.494 32.3407 44.818C31.8554 44.1247 31.4827 43.388 31.2227 42.608C30.9801 41.8107 30.8587 40.996 30.8587 40.164V37.824H28.1287V40.164C28.1287 41.0307 27.9987 41.88 27.7387 42.712C27.4961 43.5267 27.1321 44.2893 26.6467 45C26.1614 45.7107 25.5547 46.352 24.8267 46.924C24.1161 47.496 23.3014 47.9553 22.3827 48.302L23.7607 50.46C25.1647 49.94 26.3434 49.1773 27.2967 48.172C28.2501 47.1493 28.9954 45.9793 29.5327 44.662C30.0354 45.91 30.7547 46.9933 31.6907 47.912C32.6441 48.8133 33.7967 49.5153 35.1487 50.018ZM42.3247 57.376H29.0127V52.098H26.3087V59.56H42.3247V57.376ZM64.2407 36.498H61.5367V60.028H64.2407V36.498ZM52.4887 38.162C51.57 38.162 50.7207 38.3007 49.9407 38.578C49.1607 38.8553 48.4847 39.2453 47.9127 39.748C47.358 40.2333 46.916 40.8227 46.5867 41.516C46.2747 42.2093 46.1187 42.972 46.1187 43.804C46.1187 44.636 46.2747 45.3987 46.5867 46.092C46.916 46.7853 47.358 47.3833 47.9127 47.886C48.4847 48.3713 49.1607 48.7527 49.9407 49.03C50.7207 49.3073 51.57 49.446 52.4887 49.446C53.4074 49.446 54.2567 49.3073 55.0367 49.03C55.8167 48.7527 56.4927 48.3713 57.0647 47.886C57.6367 47.3833 58.0787 46.7853 58.3907 46.092C58.72 45.3987 58.8847 44.636 58.8847 43.804C58.8847 42.972 58.72 42.2093 58.3907 41.516C58.0787 40.8227 57.6367 40.2333 57.0647 39.748C56.4927 39.2453 55.8167 38.8553 55.0367 38.578C54.2567 38.3007 53.4074 38.162 52.4887 38.162ZM52.4887 40.45C53.0434 40.45 53.546 40.528 53.9967 40.684C54.4647 40.84 54.8634 41.0653 55.1927 41.36C55.522 41.6547 55.782 42.01 55.9727 42.426C56.1634 42.8247 56.2587 43.284 56.2587 43.804C56.2587 44.3067 56.1634 44.766 55.9727 45.182C55.782 45.598 55.522 45.9533 55.1927 46.248C54.8634 46.5427 54.4647 46.768 53.9967 46.924C53.546 47.08 53.0434 47.158 52.4887 47.158C51.9514 47.158 51.4487 47.08 50.9807 46.924C50.53 46.768 50.14 46.5427 49.8107 46.248C49.4814 45.9533 49.2214 45.598 49.0307 45.182C48.84 44.766 48.7447 44.3067 48.7447 43.804C48.7447 42.764 49.0914 41.9493 49.7847 41.36C50.4954 40.7533 51.3967 40.45 52.4887 40.45ZM45.0267 52.852L45.3647 55.062C46.4047 55.062 47.5227 55.0533 48.7187 55.036C49.932 55.0187 51.18 54.9753 52.4627 54.906C53.7454 54.8367 55.0454 54.7327 56.3627 54.594C57.6974 54.4553 59.0147 54.2647 60.3147 54.022L60.1327 52.072C58.8674 52.2627 57.5674 52.41 56.2327 52.514C54.898 52.618 53.572 52.696 52.2547 52.748C50.9547 52.8 49.6894 52.8347 48.4587 52.852C47.228 52.852 46.084 52.852 45.0267 52.852ZM93.8951 47.912V45.702H90.2291V36.524H87.5511V60.028H90.2291V47.912H93.8951ZM83.0531 51.864V41.048H85.3411V38.89H72.3671V41.048H74.6551V52.176H71.7691L72.0551 54.386C73.0778 54.386 74.1698 54.3773 75.3311 54.36C76.5098 54.3427 77.7144 54.308 78.9451 54.256C80.1931 54.204 81.4498 54.1173 82.7151 53.996C83.9804 53.8747 85.2198 53.71 86.4331 53.502L86.2771 51.526C85.7571 51.5953 85.2284 51.656 84.6911 51.708C84.1538 51.76 83.6078 51.812 83.0531 51.864ZM77.2551 52.124V41.048H80.4531V51.994C79.9158 52.0287 79.3784 52.0547 78.8411 52.072C78.3038 52.0893 77.7751 52.1067 77.2551 52.124ZM113.575 51.084V48.926H100.029V45.702H112.873V43.596H100.029V40.58H113.393V38.422H97.2991V51.084H113.575ZM115.967 54.932H94.6731V57.116H115.967V54.932ZM136.791 36.524H134.113V44.064H127.301V46.248H134.113V60.054H136.791V36.524ZM121.191 52.202V39.098H118.539V54.438H120.411C122.231 54.438 124.008 54.3687 125.741 54.23C127.492 54.0913 129.312 53.84 131.201 53.476L130.889 51.266C129.208 51.5953 127.578 51.8293 126.001 51.968C124.424 52.1067 122.82 52.1847 121.191 52.202ZM145.619 38.864V58H152.015C153.09 58 154.069 57.8873 154.953 57.662C155.855 57.4367 156.626 57.09 157.267 56.622C157.926 56.154 158.437 55.5733 158.801 54.88C159.165 54.1693 159.347 53.3373 159.347 52.384C159.347 51.084 158.992 50.0613 158.281 49.316C157.571 48.5707 156.669 48.0767 155.577 47.834V47.704C156.444 47.4093 157.111 46.8807 157.579 46.118C158.065 45.338 158.307 44.4887 158.307 43.57C158.307 42.7033 158.134 41.9753 157.787 41.386C157.458 40.7793 156.99 40.294 156.383 39.93C155.794 39.5487 155.083 39.28 154.251 39.124C153.437 38.9507 152.535 38.864 151.547 38.864H145.619ZM151.209 46.846H148.635V41.204H151.287C152.639 41.204 153.653 41.412 154.329 41.828C155.005 42.244 155.343 42.9547 155.343 43.96C155.343 44.8613 155.014 45.572 154.355 46.092C153.714 46.5947 152.665 46.846 151.209 46.846ZM151.677 55.634H148.635V49.134H151.677C153.203 49.134 154.364 49.3767 155.161 49.862C155.976 50.3473 156.383 51.136 156.383 52.228C156.383 53.424 155.976 54.2907 155.161 54.828C154.364 55.3653 153.203 55.634 151.677 55.634ZM161.661 38.864V58H164.521V48.978C164.521 47.938 164.478 46.8807 164.391 45.806C164.305 44.7313 164.218 43.7 164.131 42.712H164.261L166.263 46.716L172.607 58H175.701V38.864H172.841V47.782C172.841 48.822 172.885 49.8967 172.971 51.006C173.058 52.1153 173.145 53.164 173.231 54.152H173.101L171.099 50.096L164.755 38.864H161.661ZM179.429 38.864V58H182.445V52.228L185.383 48.64L190.791 58H194.145L187.229 46.248L193.157 38.864H189.803L182.523 47.912H182.445V38.864H179.429ZM214.245 36.498H211.671V45.78H208.993V37.07H206.471V58.936H208.993V47.964H211.671V60.028H214.245V36.498ZM204.573 39.306H195.499V41.464H201.973C201.939 42.0187 201.878 42.5647 201.791 43.102C201.705 43.622 201.601 44.142 201.479 44.662L194.303 45.078L194.667 47.392L200.751 46.742C200.197 48.042 199.391 49.2467 198.333 50.356C197.293 51.448 195.933 52.4707 194.251 53.424L195.759 55.322C197.527 54.334 198.975 53.242 200.101 52.046C201.245 50.85 202.147 49.576 202.805 48.224C203.481 46.8547 203.941 45.4247 204.183 43.934C204.443 42.426 204.573 40.8833 204.573 39.306ZM236.187 36.524H233.509V60.028H236.187V36.524ZM228.283 51.838V41.048H230.623V38.89H217.389V41.048H219.729V52.15C219.209 52.1673 218.698 52.176 218.195 52.176H216.765L217.051 54.386C218.126 54.386 219.261 54.3773 220.457 54.36C221.671 54.3427 222.91 54.308 224.175 54.256C225.458 54.1867 226.749 54.0913 228.049 53.97C229.349 53.8487 230.623 53.684 231.871 53.476L231.715 51.5C231.161 51.5693 230.597 51.6387 230.025 51.708C229.453 51.76 228.873 51.8033 228.283 51.838ZM222.329 52.124V41.048H225.683V51.994C225.129 52.0287 224.565 52.0547 223.993 52.072C223.439 52.072 222.884 52.0893 222.329 52.124ZM261.067 41.412H257.765V36.524H255.087V48.692H257.765V43.622H261.067V41.412ZM253.007 47.496L252.773 45.39C252.028 45.5113 251.3 45.6153 250.589 45.702C249.896 45.7713 249.168 45.8233 248.405 45.858C247.643 45.8927 246.828 45.9187 245.961 45.936C245.095 45.9533 244.133 45.962 243.075 45.962V43.778H250.823V41.724H243.075V39.696H251.265V37.59H240.397V48.094H242.243C243.457 48.094 244.549 48.0853 245.519 48.068C246.49 48.0507 247.4 48.0247 248.249 47.99C249.099 47.938 249.905 47.8773 250.667 47.808C251.43 47.7213 252.21 47.6173 253.007 47.496ZM245.285 57.714V55.608H257.765V49.758H242.607V51.838H255.113V53.684H242.659V59.794H258.545V57.714H245.285ZM266.187 52.644L266.707 38.422H263.691L263.769 41.49L264.185 52.644H266.187ZM263.665 58.338H266.733V55.114H263.665V58.338Z" fill="black"/>
</svg>
