<svg width="199" height="70" viewBox="0 0 199 70" fill="none" xmlns="http://www.w3.org/2000/svg">
<rect width="42" height="17" rx="8.5" fill="#706258"/>
<path d="M8.56 7.76H14.62V4.27H8.56V7.76ZM9.36 4.93H13.81V7.11H9.36V4.93ZM11.98 9.65H15.66V8.98H7.52V9.65H11.16V12.73H11.98V9.65ZM25.0192 6.77V6.09H23.6892V3.78H22.8692V9.21H23.6892V6.77H25.0192ZM21.4792 8.63L21.9092 7.99C20.6292 7.56 19.7392 6.42 19.7392 5.22V4.23H18.9192V5.15C18.9192 6.5 18.0492 7.75 16.6892 8.23L17.1192 8.88C18.1692 8.48 18.9692 7.66 19.3392 6.61C19.7392 7.53 20.5092 8.27 21.4792 8.63ZM20.8392 9.46C19.0092 9.46 17.8792 10.06 17.8792 11.1C17.8792 12.14 19.0092 12.73 20.8392 12.73C22.6492 12.73 23.7892 12.14 23.7892 11.1C23.7892 10.06 22.6492 9.46 20.8392 9.46ZM20.8392 12.09C19.5092 12.09 18.6992 11.74 18.6992 11.1C18.6992 10.46 19.5092 10.1 20.8392 10.1C22.1692 10.1 22.9692 10.46 22.9692 11.1C22.9692 11.74 22.1692 12.09 20.8392 12.09ZM32.8884 6.64H34.2184V5.96H32.8884V3.76H32.0684V8.85H32.8884V6.64ZM31.2084 8.03L31.1184 7.37C29.9484 7.61 28.9284 7.67 27.1584 7.67V5.03H30.2884V4.37H26.3384V8.35H27.0384C28.9284 8.35 29.9784 8.27 31.2084 8.03ZM32.8884 9.33H27.2584V12.61H32.8884V9.33ZM32.0784 11.95H28.0584V9.98H32.0784V11.95Z" fill="white"/>
<rect x="46.5" y="0.5" width="41" height="16" rx="8" fill="white"/>
<path d="M54.56 7.76H60.62V4.27H54.56V7.76ZM55.36 4.93H59.81V7.11H55.36V4.93ZM57.98 9.65H61.66V8.98H53.52V9.65H57.16V12.73H57.98V9.65ZM70.1192 12.75V3.77H69.2992V6.81H67.2192V7.48H69.2992V12.75H70.1192ZM65.8692 6.15V4.54H65.0492V6.15C65.0492 7.8 64.0292 9.55 62.7292 10.19L63.2292 10.84C64.2392 10.31 65.0592 9.17 65.4592 7.84C65.8692 9.09 66.7092 10.17 67.7092 10.68L68.1892 10.03C66.8892 9.42 65.8692 7.77 65.8692 6.15ZM72.8884 4.78H78.2484V5.81H72.9184V8.19H79.2784V7.53H73.7384V6.43H79.0784V4.12H72.8884V4.78ZM77.9384 9.78H80.0584V9.12H71.9184V9.78H74.0384V12.75H74.8584V9.78H77.1184V12.75H77.9384V9.78Z" fill="#706258"/>
<rect x="46.5" y="0.5" width="41" height="16" rx="8" stroke="#706258"/>
<path d="M15.9 41.7V28.5H13.84V41.7H15.9ZM10.9 38.86L11.96 37.22C11.2667 36.98 10.6467 36.66 10.1 36.26C9.56667 35.8467 9.11333 35.38 8.74 34.86C8.36667 34.3267 8.08 33.76 7.88 33.16C7.69333 32.5467 7.6 31.92 7.6 31.28V29.48H5.5V31.28C5.5 31.9467 5.4 32.6 5.2 33.24C5.01333 33.8667 4.73333 34.4533 4.36 35C3.98667 35.5467 3.52 36.04 2.96 36.48C2.41333 36.92 1.78667 37.2733 1.08 37.54L2.14 39.2C3.22 38.8 4.12667 38.2133 4.86 37.44C5.59333 36.6533 6.16667 35.7533 6.58 34.74C6.96667 35.7 7.52 36.5333 8.24 37.24C8.97333 37.9333 9.86 38.4733 10.9 38.86ZM16.42 44.52H6.18V40.46H4.1V46.2H16.42V44.52ZM34.7384 37.26H30.8384V34.88C31.5318 34.5733 32.0651 34.2 32.4384 33.76C32.8251 33.3067 33.0184 32.78 33.0184 32.18C33.0184 31.6467 32.8651 31.1733 32.5584 30.76C32.2651 30.3333 31.8384 29.9733 31.2784 29.68C30.7184 29.3867 30.0384 29.1667 29.2384 29.02C28.4518 28.86 27.5651 28.78 26.5784 28.78C25.5918 28.78 24.6984 28.86 23.8984 29.02C23.1118 29.1667 22.4384 29.3867 21.8784 29.68C21.3184 29.9733 20.8851 30.3333 20.5784 30.76C20.2851 31.1733 20.1384 31.6467 20.1384 32.18C20.1384 32.78 20.3251 33.3067 20.6984 33.76C21.0718 34.2 21.5984 34.5667 22.2784 34.86V37.26H18.3984V38.9H34.7384V37.26ZM26.5784 30.38C27.9518 30.38 29.0118 30.5333 29.7584 30.84C30.5051 31.1333 30.8784 31.58 30.8784 32.18C30.8784 32.78 30.5051 33.2333 29.7584 33.54C29.0118 33.8467 27.9518 34 26.5784 34C25.2051 34 24.1384 33.8467 23.3784 33.54C22.6318 33.2333 22.2584 32.78 22.2584 32.18C22.2584 31.58 22.6318 31.1333 23.3784 30.84C24.1384 30.5333 25.2051 30.38 26.5784 30.38ZM24.3384 37.26V35.42C24.6718 35.4733 25.0251 35.5133 25.3984 35.54C25.7851 35.5667 26.1784 35.58 26.5784 35.58C26.9784 35.58 27.3584 35.5667 27.7184 35.54C28.0918 35.5133 28.4451 35.4733 28.7784 35.42V37.26H24.3384ZM26.5384 40.06C24.5384 40.06 22.9984 40.34 21.9184 40.9C20.8518 41.46 20.3184 42.26 20.3184 43.3C20.3184 43.82 20.4584 44.28 20.7384 44.68C21.0318 45.08 21.4451 45.42 21.9784 45.7C22.5118 45.98 23.1584 46.1867 23.9184 46.32C24.6918 46.4667 25.5651 46.54 26.5384 46.54C28.5518 46.54 30.0918 46.26 31.1584 45.7C32.2251 45.14 32.7584 44.34 32.7584 43.3C32.7584 42.26 32.2251 41.46 31.1584 40.9C30.0918 40.34 28.5518 40.06 26.5384 40.06ZM26.5384 44.96C25.2051 44.96 24.1851 44.8267 23.4784 44.56C22.7718 44.28 22.4184 43.86 22.4184 43.3C22.4184 42.74 22.7718 42.3267 23.4784 42.06C24.1851 41.78 25.2051 41.64 26.5384 41.64C27.8718 41.64 28.8918 41.78 29.5984 42.06C30.3184 42.3267 30.6784 42.74 30.6784 43.3C30.6784 43.86 30.3184 44.28 29.5984 44.56C28.8918 44.8267 27.8718 44.96 26.5384 44.96ZM51.2169 28.46H49.2569V35.6H47.1169V28.84H45.1769V45.64H47.1169V37.28H49.2569V46.52H51.2169V28.46ZM38.4369 40.54V32.3H43.0969V30.62H36.4169V42.24H37.6169C38.2569 42.24 38.8569 42.2333 39.4169 42.22C39.9769 42.2067 40.5169 42.1867 41.0369 42.16C41.5702 42.12 42.0902 42.0667 42.5969 42C43.1169 41.9333 43.6502 41.8467 44.1969 41.74L44.0169 40.04C43.0835 40.2267 42.1769 40.3533 41.2969 40.42C40.4302 40.4867 39.4769 40.5267 38.4369 40.54ZM53.9753 34.14L54.5753 35.68C56.1886 35.5733 57.5753 35.3 58.7353 34.86C59.9086 34.42 60.782 33.82 61.3553 33.06C61.9286 33.82 62.802 34.42 63.9753 34.86C65.162 35.3 66.562 35.5733 68.1753 35.68L68.7353 34.14C66.9086 34.0333 65.4753 33.7533 64.4353 33.3C63.3953 32.8333 62.7753 32.24 62.5753 31.52H67.9153V29.98H62.3953V28.4H60.3353V29.98H54.8353V31.52H60.1553C59.9553 32.24 59.3353 32.8333 58.2953 33.3C57.2553 33.7533 55.8153 34.0333 53.9753 34.14ZM62.3953 37.88H69.5353V36.34H53.2353V37.88H60.3353V39.28H55.1353V40.8H65.4753V42.06H55.1753V46.38H68.0153V44.84H57.2153V43.48H67.4953V39.28H62.3953V37.88Z" fill="black"/>
<path d="M10.308 63.352V62.812H5.82V61.324H9.036V57.412H8.4V58.792H2.616V57.412H1.98V61.324H5.184V62.812H0.672V63.352H10.308ZM8.4 60.784H2.616V59.308H8.4V60.784ZM9.108 64.588H1.752V65.116H8.472V67.84H9.108V64.588ZM19.3311 60.316H20.9991V59.764H19.3311V57.184H18.6951V63.016H19.3311V60.316ZM16.8951 62.896L17.2071 62.392C15.7311 61.876 14.5311 60.628 14.5311 59.14V58.492H17.0391V57.964H11.3631V58.492H13.8951V59.152C13.8951 60.748 12.6231 62.116 11.1351 62.62L11.4471 63.124C12.7431 62.656 13.7871 61.696 14.2311 60.4C14.6631 61.564 15.6471 62.476 16.8951 62.896ZM19.3311 63.556H18.6951V65.044H13.3791V63.556H12.7551V67.672H19.3311V63.556ZM13.3791 65.572H18.6951V67.132H13.3791V65.572ZM21.5981 59.128H27.9101V58.6H25.0781V57.196H24.4421V58.6H21.5981V59.128ZM31.4381 61.384V60.844H29.7701V57.196H29.1341V65.2H29.7701V61.384H31.4381ZM27.2621 61.792C27.2621 60.604 26.2541 59.836 24.7541 59.836C23.2421 59.836 22.2341 60.604 22.2341 61.792C22.2341 62.98 23.2421 63.736 24.7541 63.736C26.2541 63.736 27.2621 62.98 27.2621 61.792ZM22.8341 61.792C22.8341 60.928 23.6021 60.352 24.7541 60.352C25.9061 60.352 26.6621 60.928 26.6621 61.792C26.6621 62.62 25.8941 63.22 24.7541 63.22C23.6021 63.22 22.8341 62.62 22.8341 61.792ZM30.2981 67.036H23.9021V64.54H23.2661V67.576H30.2981V67.036ZM34.5773 62.932L34.8653 63.436C36.2813 63.112 38.2373 61.996 38.8853 60.412C39.5573 61.984 41.5013 63.088 42.9413 63.412L43.2173 62.896C41.6933 62.656 39.2093 61.144 39.2093 59.32V58.792H42.9173V58.252H34.8533V58.792H38.5613V59.32C38.5613 61.156 36.0893 62.644 34.5773 62.932ZM43.7213 66.388V65.848H39.2093V63.124H38.5733V65.848H34.0613V66.388H43.7213ZM52.5404 57.196V60.592H49.9484V61.132H52.5404V65.116H53.1764V57.196H52.5404ZM49.9604 58.024H45.1964V58.564H49.2764C49.1204 60.7 47.2364 62.392 44.6804 63.256L44.9684 63.772C47.9324 62.788 49.9604 60.712 49.9604 58.024ZM53.4524 67.576V67.036H47.2244V64.3H46.5884V67.576H53.4524ZM62.5676 60.364H65.0396V62.824H65.6756V57.184H65.0396V59.812H62.5676C62.3876 58.384 61.2356 57.7 59.8796 57.7C58.2956 57.7 57.1796 58.672 57.1796 60.112C57.1796 61.564 58.2956 62.524 59.8796 62.524C61.3676 62.524 62.4356 61.66 62.5676 60.364ZM59.8796 61.984C58.6676 61.984 57.7916 61.168 57.7916 60.112C57.7916 59.008 58.6676 58.228 59.8796 58.228C61.0916 58.228 61.9676 59.008 61.9676 60.112C61.9676 61.168 61.0916 61.984 59.8796 61.984ZM64.7516 64.324V63.376H64.1276V64.324C64.1276 65.464 63.3836 66.724 62.0996 67.264L62.4476 67.756C63.4556 67.288 64.1156 66.484 64.4396 65.524C64.7636 66.484 65.4236 67.312 66.4316 67.756L66.7796 67.264C65.4956 66.748 64.7516 65.464 64.7516 64.324ZM61.8116 63.436H61.2116V64.948H58.8476V63.436H58.2356V67.672H61.8116V63.436ZM58.8476 65.44H61.2116V67.144H58.8476V65.44ZM76.0787 67.84V57.184H75.4427V67.84H76.0787ZM70.5347 58.048C68.9627 58.048 67.8827 59.488 67.8827 61.708C67.8827 63.952 68.9627 65.368 70.5347 65.368C72.0827 65.368 73.1747 63.952 73.1747 61.708C73.1747 59.488 72.0827 58.048 70.5347 58.048ZM70.5347 58.612C71.7227 58.612 72.5627 59.884 72.5627 61.708C72.5627 63.532 71.7227 64.816 70.5347 64.816C69.3347 64.816 68.4947 63.532 68.4947 61.708C68.4947 59.884 69.3347 58.612 70.5347 58.612ZM87.9659 65.032H88.6019V57.196H87.9659V65.032ZM85.9379 63.22L86.2739 62.716C84.7979 62.14 83.5019 60.604 83.5019 58.888V57.784H82.8779V58.888C82.8779 60.676 81.6299 62.284 80.1299 62.92L80.4899 63.436C81.7379 62.872 82.7699 61.744 83.2019 60.292C83.6459 61.648 84.6899 62.704 85.9379 63.22ZM88.9619 67.576V67.036H82.5419V64.324H81.9059V67.576H88.9619ZM100.001 63.112V62.572H97.517V60.928C98.393 60.604 98.873 60.052 98.873 59.332C98.873 58.084 97.469 57.4 95.177 57.4C92.897 57.4 91.505 58.084 91.505 59.332C91.505 60.064 91.997 60.616 92.873 60.94V62.572H90.377V63.112H100.001ZM92.153 59.332C92.153 58.456 93.353 57.916 95.177 57.916C97.037 57.916 98.225 58.456 98.225 59.332C98.225 60.196 97.037 60.76 95.177 60.76C93.353 60.76 92.153 60.196 92.153 59.332ZM96.893 62.572H93.509V61.12C93.989 61.216 94.553 61.276 95.177 61.276C95.849 61.276 96.401 61.216 96.893 61.12V62.572ZM95.189 64.084C92.921 64.084 91.565 64.744 91.565 65.944C91.565 67.144 92.921 67.816 95.189 67.816C97.457 67.816 98.813 67.144 98.813 65.944C98.813 64.744 97.457 64.084 95.189 64.084ZM95.189 67.3C93.365 67.3 92.201 66.808 92.201 65.944C92.201 65.116 93.365 64.588 95.189 64.588C97.013 64.588 98.177 65.116 98.177 65.944C98.177 66.808 97.013 67.3 95.189 67.3ZM110.692 61.06V60.52H109.024V57.16H108.388V65.008H109.024V61.06H110.692ZM101.332 62.98H106.12V58.18H101.332V62.98ZM101.956 58.708H105.508V62.452H101.956V58.708ZM109.552 67.036H103.156V64.276H102.52V67.576H109.552V67.036ZM116.055 57.94C113.859 57.94 112.251 59.08 112.251 60.796C112.251 62.524 113.859 63.652 116.055 63.652C118.251 63.652 119.871 62.524 119.871 60.796C119.871 59.08 118.251 57.94 116.055 57.94ZM116.055 58.468C117.891 58.468 119.283 59.44 119.283 60.796C119.283 62.164 117.891 63.136 116.055 63.136C114.231 63.136 112.839 62.164 112.839 60.796C112.839 59.44 114.231 58.468 116.055 58.468ZM120.915 66.352V65.812H111.243V66.352H120.915ZM131.366 66.448V65.896H126.818V63.652H130.346V63.112H123.578V61.06H130.094V58.036H122.918V58.564H129.47V60.532H122.954V63.652H126.182V65.896H121.682V66.448H131.366ZM141.793 66.412V65.872H137.257V62.836H140.617V62.296H134.053V58.636H140.509V58.096H133.417V62.836H136.621V65.872H132.121V66.412H141.793ZM153.308 63.532V57.184H152.672V59.416H149.384V59.956H152.672V63.532H153.308ZM150.884 62.224L150.788 61.66C149.216 62.008 147.872 62.092 146.048 62.092H145.904V57.868H145.268V62.644H146.048C147.896 62.644 149.276 62.548 150.884 62.224ZM153.308 64.048H146.276V64.588H152.672V67.84H153.308V64.048ZM163.747 63.532V57.184H163.111V59.416H159.823V59.956H163.111V63.532H163.747ZM161.323 62.224L161.227 61.66C159.655 62.008 158.311 62.092 156.487 62.092H156.343V57.868H155.707V62.644H156.487C158.335 62.644 159.715 62.548 161.323 62.224ZM163.747 64.048H156.715V64.588H163.111V67.84H163.747V64.048ZM165.547 59.128H171.859V58.6H169.027V57.196H168.391V58.6H165.547V59.128ZM175.387 61.384V60.844H173.719V57.196H173.083V65.2H173.719V61.384H175.387ZM171.211 61.792C171.211 60.604 170.203 59.836 168.703 59.836C167.191 59.836 166.183 60.604 166.183 61.792C166.183 62.98 167.191 63.736 168.703 63.736C170.203 63.736 171.211 62.98 171.211 61.792ZM166.783 61.792C166.783 60.928 167.551 60.352 168.703 60.352C169.855 60.352 170.611 60.928 170.611 61.792C170.611 62.62 169.843 63.22 168.703 63.22C167.551 63.22 166.783 62.62 166.783 61.792ZM174.247 67.036H167.851V64.54H167.215V67.576H174.247V67.036ZM178.046 59.128H184.358V58.6H181.526V57.196H180.89V58.6H178.046V59.128ZM187.886 61.384V60.844H186.218V57.196H185.582V65.2H186.218V61.384H187.886ZM183.71 61.792C183.71 60.604 182.702 59.836 181.202 59.836C179.69 59.836 178.682 60.604 178.682 61.792C178.682 62.98 179.69 63.736 181.202 63.736C182.702 63.736 183.71 62.98 183.71 61.792ZM179.282 61.792C179.282 60.928 180.05 60.352 181.202 60.352C182.354 60.352 183.11 60.928 183.11 61.792C183.11 62.62 182.342 63.22 181.202 63.22C180.05 63.22 179.282 62.62 179.282 61.792ZM186.746 67.036H180.35V64.54H179.714V67.576H186.746V67.036ZM198.109 66.412V65.872H193.573V62.836H196.933V62.296H190.369V58.636H196.825V58.096H189.733V62.836H192.937V65.872H188.437V66.412H198.109Z" fill="black"/>
</svg>
