<svg width="242" height="70" viewBox="0 0 242 70" fill="none" xmlns="http://www.w3.org/2000/svg">
<path d="M3.684 58.252H1.272V67H3.864C5.832 67 7.128 66.136 7.128 64.444C7.128 63.244 6.408 62.536 5.256 62.344V62.284C6.132 62.008 6.6 61.288 6.6 60.376C6.6 58.9 5.448 58.252 3.684 58.252ZM3.456 62.068H1.992V58.84H3.528C5.076 58.84 5.88 59.272 5.88 60.46C5.88 61.456 5.184 62.068 3.456 62.068ZM3.696 66.4H1.992V62.644H3.696C5.436 62.644 6.42 63.196 6.42 64.444C6.42 65.8 5.388 66.4 3.696 66.4ZM9.11522 58.252H8.37122V67H9.05522V61.756C9.05522 60.88 8.99522 60.088 8.95922 59.224H9.01922L10.0032 60.976L13.5672 67H14.3112V58.252H13.6272V63.436C13.6272 64.3 13.6752 65.164 13.7232 66.028H13.6632L12.6912 64.264L9.11522 58.252ZM16.9756 58.252H16.2556V67H16.9756V64.048L18.6916 62.068L21.5236 67H22.3516L19.1716 61.504L21.9556 58.252H21.1036L16.9996 63.004H16.9756V58.252ZM29.4043 62.248C31.6003 62.248 33.0643 61.348 33.0643 59.932C33.0643 58.528 31.6003 57.64 29.4043 57.64C27.2323 57.64 25.7563 58.528 25.7563 59.932C25.7563 61.348 27.2323 62.248 29.4043 62.248ZM29.4043 58.168C31.1803 58.168 32.4163 58.876 32.4163 59.932C32.4163 60.988 31.1803 61.72 29.4043 61.72C27.6403 61.72 26.4043 60.988 26.4043 59.932C26.4043 58.876 27.6403 58.168 29.4043 58.168ZM29.7163 63.904H34.2643V63.364H24.5923V63.904H29.0803V67.828H29.7163V63.904ZM43.8394 61.924L44.1034 61.396C42.5074 61.144 40.1914 59.872 40.1914 58.252V57.592H39.5314V58.252C39.5314 59.92 37.2394 61.144 35.6074 61.396L35.8834 61.924C37.3714 61.636 39.2314 60.7 39.8674 59.296C40.5154 60.688 42.3634 61.636 43.8394 61.924ZM40.1554 63.844H44.6674L44.6794 63.304H35.0314V63.844H39.5194V67.828H40.1554V63.844ZM46.5264 58.888H53.1864V59.428C53.1864 60.712 53.1864 62.176 52.8024 64.156L53.4504 64.252C53.8344 62.164 53.8224 60.712 53.8224 59.428V58.36H46.5264V58.888ZM55.1184 66.208V65.668H50.0544V61.768H49.4304V65.668H45.4824V66.208H55.1184ZM64.8375 63.484V57.196H64.2255V59.992H62.5095V57.388H61.8975V63.412H62.5095V60.532H64.2255V63.484H64.8375ZM60.5655 58.012H56.4495V58.54H59.9175C59.7735 60.544 58.4055 62.14 56.0655 63.148L56.4135 63.616C59.0895 62.452 60.5655 60.496 60.5655 58.012ZM64.8375 64.036H57.8295V64.576H64.2015V67.84H64.8375V64.036ZM71.1726 61.108C73.5246 61.108 74.8566 60.448 74.8566 59.236C74.8566 58.036 73.4886 57.376 71.1726 57.376C68.8566 57.376 67.4886 58.036 67.4886 59.236C67.4886 60.448 68.8206 61.108 71.1726 61.108ZM71.1726 57.88C73.0446 57.88 74.2086 58.408 74.2086 59.236C74.2086 60.088 73.0446 60.604 71.1726 60.604C69.3006 60.604 68.1366 60.088 68.1366 59.236C68.1366 58.408 69.3006 57.88 71.1726 57.88ZM75.9846 62.488V61.948H66.3486V62.488H75.9846ZM75.0606 67.156H68.2086V65.788H74.7126V63.592H67.5606V64.108H74.0886V65.296H67.5846V67.684H75.0606V67.156ZM87.4758 67.852V57.196H86.8398V67.852H87.4758ZM82.3518 62.008C83.9238 62.008 85.0278 61.144 85.0278 59.86C85.0278 58.588 83.9238 57.724 82.3518 57.724C80.7798 57.724 79.6998 58.588 79.6998 59.86C79.6998 61.144 80.7798 62.008 82.3518 62.008ZM82.3518 58.264C83.5518 58.264 84.4158 58.948 84.4158 59.86C84.4158 60.784 83.5518 61.468 82.3518 61.468C81.1518 61.468 80.3118 60.784 80.3118 59.86C80.3118 58.948 81.1518 58.264 82.3518 58.264ZM86.0478 63.172L85.9998 62.668C83.5998 63.016 80.8398 63.064 78.7998 63.064L78.9078 63.628C79.8678 63.628 80.9478 63.616 82.0998 63.568V67.504H82.7358V63.532C83.8398 63.472 84.9438 63.352 86.0478 63.172ZM89.3348 59.128H95.6468V58.6H92.8148V57.196H92.1788V58.6H89.3348V59.128ZM99.1748 61.384V60.844H97.5068V57.196H96.8708V65.2H97.5068V61.384H99.1748ZM94.9988 61.792C94.9988 60.604 93.9908 59.836 92.4908 59.836C90.9788 59.836 89.9708 60.604 89.9708 61.792C89.9708 62.98 90.9788 63.736 92.4908 63.736C93.9908 63.736 94.9988 62.98 94.9988 61.792ZM90.5708 61.792C90.5708 60.928 91.3388 60.352 92.4908 60.352C93.6428 60.352 94.3988 60.928 94.3988 61.792C94.3988 62.62 93.6308 63.22 92.4908 63.22C91.3388 63.22 90.5708 62.62 90.5708 61.792ZM98.0348 67.036H91.6388V64.54H91.0028V67.576H98.0348V67.036ZM102.47 62.164L102.698 62.68C104.21 62.428 105.974 61.552 106.61 60.268C107.246 61.552 109.01 62.428 110.51 62.68L110.75 62.164C109.118 61.912 106.934 60.772 106.934 59.236V59.092H110.462V58.552H106.934V57.172H106.298V58.552H102.77V59.092H106.286V59.236C106.286 60.772 104.102 61.912 102.47 62.164ZM106.934 64.204H111.434V63.652H101.786V64.204H106.298V67.84H106.934V64.204ZM120.337 62.2H122.185V61.648H120.337V57.184H119.701V67.84H120.337V62.2ZM117.637 58.36H112.837V58.9H117.013C116.833 61.528 115.309 63.748 112.393 65.2L112.753 65.704C116.137 64.012 117.637 61.264 117.637 58.36ZM133.724 67.828V57.184H133.1V61.564H131.264V57.448H130.652V67.252H131.264V62.104H133.1V67.828H133.724ZM125.816 64.516H125.792V59.056H129.14V58.504H125.168V65.068H125.828C127.592 65.068 128.624 65.02 129.872 64.732L129.788 64.18C128.576 64.468 127.556 64.516 125.816 64.516ZM135.763 60.928L135.967 61.432C137.599 61.276 139.375 60.664 139.987 59.5C140.599 60.664 142.375 61.276 144.007 61.432L144.211 60.928C142.471 60.772 140.383 60.076 140.323 58.684H143.791V58.168H140.311V57.076H139.675V58.168H136.207V58.684H139.651C139.591 60.076 137.503 60.772 135.763 60.928ZM140.299 63.736V62.56H144.799V62.044H135.175V62.56H139.663V63.736H136.375V64.228H142.903V65.392H136.399V67.684H143.875V67.168H137.023V65.884H143.527V63.736H140.299Z" fill="black"/>
<path d="M1.94 30.28V45H6.86C7.68667 45 8.44 44.9133 9.12 44.74C9.81333 44.5667 10.4067 44.3 10.9 43.94C11.4067 43.58 11.8 43.1333 12.08 42.6C12.36 42.0533 12.5 41.4133 12.5 40.68C12.5 39.68 12.2267 38.8933 11.68 38.32C11.1333 37.7467 10.44 37.3667 9.6 37.18V37.08C10.2667 36.8533 10.78 36.4467 11.14 35.86C11.5133 35.26 11.7 34.6067 11.7 33.9C11.7 33.2333 11.5667 32.6733 11.3 32.22C11.0467 31.7533 10.6867 31.38 10.22 31.1C9.76667 30.8067 9.22 30.6 8.58 30.48C7.95333 30.3467 7.26 30.28 6.5 30.28H1.94ZM6.24 36.42H4.26V32.08H6.3C7.34 32.08 8.12 32.24 8.64 32.56C9.16 32.88 9.42 33.4267 9.42 34.2C9.42 34.8933 9.16667 35.44 8.66 35.84C8.16667 36.2267 7.36 36.42 6.24 36.42ZM6.6 43.18H4.26V38.18H6.6C7.77333 38.18 8.66667 38.3667 9.28 38.74C9.90667 39.1133 10.22 39.72 10.22 40.56C10.22 41.48 9.90667 42.1467 9.28 42.56C8.66667 42.9733 7.77333 43.18 6.6 43.18ZM14.2798 30.28V45H16.4798V38.06C16.4798 37.26 16.4465 36.4467 16.3798 35.62C16.3132 34.7933 16.2465 34 16.1798 33.24H16.2798L17.8198 36.32L22.6998 45H25.0798V30.28H22.8798V37.14C22.8798 37.94 22.9132 38.7667 22.9798 39.62C23.0465 40.4733 23.1132 41.28 23.1798 42.04H23.0798L21.5398 38.92L16.6598 30.28H14.2798ZM27.9473 30.28V45H30.2673V40.56L32.5273 37.8L36.6873 45H39.2673L33.9473 35.96L38.5073 30.28H35.9273L30.3273 37.24H30.2673V30.28H27.9473ZM59.5817 37.12V35.42H56.7617V28.46H54.7017V46.56H56.7617V37.12H59.5817ZM45.5617 40.4V31.86H51.9017V30.18H43.5017V42.12H44.9817C45.7951 42.12 46.5617 42.1133 47.2817 42.1C48.0151 42.0733 48.7217 42.04 49.4017 42C50.0817 41.96 50.7484 41.9 51.4017 41.82C52.0684 41.74 52.7417 41.64 53.4217 41.52L53.2017 39.82C52.5751 39.9267 51.9617 40.02 51.3617 40.1C50.7617 40.1667 50.1484 40.2267 49.5217 40.28C48.9084 40.32 48.2751 40.3533 47.6217 40.38C46.9684 40.3933 46.2817 40.4 45.5617 40.4ZM75.0402 28.46H72.9602V46.58H75.0402V28.46ZM65.4202 29.8C64.7535 29.8 64.1335 29.9533 63.5602 30.26C63.0002 30.5533 62.5135 30.98 62.1002 31.54C61.6868 32.0867 61.3602 32.7533 61.1202 33.54C60.8935 34.3133 60.7802 35.1867 60.7802 36.16C60.7802 37.1333 60.8935 38.02 61.1202 38.82C61.3602 39.6067 61.6868 40.2733 62.1002 40.82C62.5135 41.3667 63.0002 41.7933 63.5602 42.1C64.1335 42.3933 64.7535 42.54 65.4202 42.54C66.1002 42.54 66.7202 42.3933 67.2802 42.1C67.8535 41.7933 68.3468 41.3667 68.7602 40.82C69.1735 40.2733 69.4935 39.6067 69.7202 38.82C69.9602 38.02 70.0802 37.1333 70.0802 36.16C70.0802 35.1867 69.9602 34.3133 69.7202 33.54C69.4935 32.7533 69.1735 32.0867 68.7602 31.54C68.3468 30.98 67.8535 30.5533 67.2802 30.26C66.7202 29.9533 66.1002 29.8 65.4202 29.8ZM65.4202 31.66C66.2202 31.66 66.8668 32.06 67.3602 32.86C67.8535 33.6467 68.1002 34.7467 68.1002 36.16C68.1002 37.6133 67.8535 38.7333 67.3602 39.52C66.8668 40.3067 66.2202 40.7 65.4202 40.7C64.6202 40.7 63.9735 40.3067 63.4802 39.52C63.0002 38.7333 62.7602 37.6133 62.7602 36.16C62.7602 34.7467 63.0002 33.6467 63.4802 32.86C63.9735 32.06 64.6202 31.66 65.4202 31.66ZM92.8586 28.48H90.8986V39.74H92.8586V28.48ZM87.3386 34.62V39.62H89.2786V28.82H87.3386V32.94H85.3586V34.62H87.3386ZM86.1786 38.5L85.9786 36.86C85.0586 37.0467 84.1519 37.1733 83.2586 37.24C82.3653 37.2933 81.3919 37.32 80.3386 37.32V35.08H84.6986V29.84H78.2986V31.46H82.6986V33.54H78.3386V38.98H79.5586C80.2119 38.98 80.8186 38.9733 81.3786 38.96C81.9519 38.9467 82.4986 38.92 83.0186 38.88C83.5519 38.84 84.0719 38.7933 84.5786 38.74C85.0986 38.6733 85.6319 38.5933 86.1786 38.5ZM80.6986 40.56V42.22H90.7986V46.56H92.8586V40.56H80.6986ZM109.517 39.68V38.02H99.097V35.54H108.977V33.92H99.097V31.6H109.377V29.94H96.997V39.68H109.517ZM111.357 42.64H94.977V44.32H111.357V42.64ZM123.988 37.16C124.935 37.16 125.801 37.0667 126.588 36.88C127.375 36.6933 128.048 36.4267 128.608 36.08C129.168 35.72 129.601 35.2933 129.908 34.8C130.228 34.3067 130.388 33.7533 130.388 33.14C130.388 32.5267 130.228 31.9733 129.908 31.48C129.601 30.9867 129.168 30.5667 128.608 30.22C128.048 29.8733 127.375 29.6067 126.588 29.42C125.801 29.2333 124.935 29.14 123.988 29.14C123.028 29.14 122.155 29.2333 121.368 29.42C120.581 29.6067 119.908 29.8733 119.348 30.22C118.788 30.5667 118.348 30.9867 118.028 31.48C117.721 31.9733 117.568 32.5267 117.568 33.14C117.568 33.7533 117.721 34.3067 118.028 34.8C118.348 35.2933 118.788 35.72 119.348 36.08C119.908 36.4267 120.581 36.6933 121.368 36.88C122.155 37.0667 123.028 37.16 123.988 37.16ZM123.988 30.8C125.281 30.8 126.315 31.0067 127.088 31.42C127.875 31.8333 128.268 32.4067 128.268 33.14C128.268 33.9 127.875 34.4867 127.088 34.9C126.315 35.3 125.281 35.5 123.988 35.5C122.655 35.5 121.601 35.3 120.828 34.9C120.068 34.4867 119.688 33.9 119.688 33.14C119.688 32.4067 120.068 31.8333 120.828 31.42C121.601 31.0067 122.655 30.8 123.988 30.8ZM132.208 40.4V38.7H115.828V40.4H122.928V46.54H124.988V40.4H132.208ZM148.067 36.8L148.867 35.14C147.96 35.0067 147.113 34.78 146.327 34.46C145.553 34.1267 144.88 33.7333 144.307 33.28C143.747 32.8133 143.307 32.3 142.987 31.74C142.667 31.18 142.507 30.6067 142.507 30.02V29.06H140.327V30.02C140.327 30.62 140.167 31.2 139.847 31.76C139.527 32.3067 139.087 32.8133 138.527 33.28C137.967 33.7333 137.293 34.1267 136.507 34.46C135.733 34.78 134.887 35.0067 133.967 35.14L134.767 36.8C136.3 36.56 137.64 36.0867 138.787 35.38C139.947 34.66 140.827 33.7733 141.427 32.72C142.027 33.76 142.9 34.64 144.047 35.36C145.193 36.08 146.533 36.56 148.067 36.8ZM149.567 40.18V38.5H133.247V40.18H140.327V46.56H142.387V40.18H149.567ZM163.125 31.84V31.94C163.125 33.0067 163.092 34.2067 163.025 35.54C162.972 36.8733 162.772 38.4267 162.425 40.2L164.505 40.42C164.678 39.4867 164.812 38.6267 164.905 37.84C164.998 37.04 165.065 36.3 165.105 35.62C165.158 34.9267 165.185 34.28 165.185 33.68C165.198 33.08 165.205 32.5 165.205 31.94V30.16H152.345V31.84H163.125ZM166.965 42.48H158.805V36.12H156.725V42.48H150.645V44.18H166.965V42.48ZM183.323 28.48H181.363V32.86H179.363V28.82H177.423V39H179.363V34.54H181.363V39.08H183.323V28.48ZM175.883 29.78H168.803V31.44H173.763C173.59 32.8533 173.037 34.08 172.103 35.12C171.183 36.16 169.817 37.04 168.003 37.76L168.983 39.24C171.357 38.3067 173.097 37.0667 174.203 35.52C175.323 33.9733 175.883 32.06 175.883 29.78ZM171.043 39.9V41.56H181.263V46.56H183.323V39.9H171.043ZM189.855 36.54L190.575 38.16C192.068 37.96 193.368 37.5533 194.475 36.94C195.595 36.3267 196.455 35.56 197.055 34.64C197.655 35.56 198.508 36.3333 199.615 36.96C200.735 37.5733 202.041 37.9733 203.535 38.16L204.275 36.54C203.395 36.4333 202.588 36.2467 201.855 35.98C201.121 35.7 200.481 35.3667 199.935 34.98C199.401 34.5933 198.975 34.1667 198.655 33.7C198.335 33.2333 198.155 32.76 198.115 32.28H203.695V30.62H198.095V28.48H196.035V30.62H190.455V32.28H196.015C195.975 32.76 195.795 33.2333 195.475 33.7C195.155 34.1667 194.721 34.5933 194.175 34.98C193.641 35.3667 193.008 35.7 192.275 35.98C191.541 36.2467 190.735 36.4333 189.855 36.54ZM205.235 41.04V39.34H188.915V41.04H196.035V46.58H198.095V41.04H205.235ZM223.033 37.32V35.6H220.293V28.46H218.233V46.52H220.293V37.32H223.033ZM215.573 30.38H207.193V32.06H213.513C213.1 36.1933 210.693 39.3933 206.293 41.66L207.433 43.24C208.913 42.4933 210.166 41.6533 211.193 40.72C212.22 39.7733 213.06 38.7533 213.713 37.66C214.366 36.5667 214.84 35.4067 215.133 34.18C215.426 32.9533 215.573 31.6867 215.573 30.38ZM240.071 38.66H232.911V36.94H238.371V35.36H227.791V33.68H238.011V28.98H225.731V30.56H235.971V32.2H225.771V36.94H230.851V38.66H223.671V40.32H240.071V38.66ZM227.851 44.84V41.4H225.791V46.5H238.411V44.84H227.851Z" fill="black"/>
<rect width="42" height="17" rx="8.5" fill="#706258"/>
<path d="M8.56 7.76H14.62V4.27H8.56V7.76ZM9.36 4.93H13.81V7.11H9.36V4.93ZM11.98 9.65H15.66V8.98H7.52V9.65H11.16V12.73H11.98V9.65ZM25.0192 6.77V6.09H23.6892V3.78H22.8692V9.21H23.6892V6.77H25.0192ZM21.4792 8.63L21.9092 7.99C20.6292 7.56 19.7392 6.42 19.7392 5.22V4.23H18.9192V5.15C18.9192 6.5 18.0492 7.75 16.6892 8.23L17.1192 8.88C18.1692 8.48 18.9692 7.66 19.3392 6.61C19.7392 7.53 20.5092 8.27 21.4792 8.63ZM20.8392 9.46C19.0092 9.46 17.8792 10.06 17.8792 11.1C17.8792 12.14 19.0092 12.73 20.8392 12.73C22.6492 12.73 23.7892 12.14 23.7892 11.1C23.7892 10.06 22.6492 9.46 20.8392 9.46ZM20.8392 12.09C19.5092 12.09 18.6992 11.74 18.6992 11.1C18.6992 10.46 19.5092 10.1 20.8392 10.1C22.1692 10.1 22.9692 10.46 22.9692 11.1C22.9692 11.74 22.1692 12.09 20.8392 12.09ZM32.8884 6.64H34.2184V5.96H32.8884V3.76H32.0684V8.85H32.8884V6.64ZM31.2084 8.03L31.1184 7.37C29.9484 7.61 28.9284 7.67 27.1584 7.67V5.03H30.2884V4.37H26.3384V8.35H27.0384C28.9284 8.35 29.9784 8.27 31.2084 8.03ZM32.8884 9.33H27.2584V12.61H32.8884V9.33ZM32.0784 11.95H28.0584V9.98H32.0784V11.95Z" fill="white"/>
<rect x="46.5" y="0.5" width="41" height="16" rx="8" fill="white"/>
<path d="M54.56 7.76H60.62V4.27H54.56V7.76ZM55.36 4.93H59.81V7.11H55.36V4.93ZM57.98 9.65H61.66V8.98H53.52V9.65H57.16V12.73H57.98V9.65ZM70.1192 12.75V3.77H69.2992V6.81H67.2192V7.48H69.2992V12.75H70.1192ZM65.8692 6.15V4.54H65.0492V6.15C65.0492 7.8 64.0292 9.55 62.7292 10.19L63.2292 10.84C64.2392 10.31 65.0592 9.17 65.4592 7.84C65.8692 9.09 66.7092 10.17 67.7092 10.68L68.1892 10.03C66.8892 9.42 65.8692 7.77 65.8692 6.15ZM72.8884 4.78H78.2484V5.81H72.9184V8.19H79.2784V7.53H73.7384V6.43H79.0784V4.12H72.8884V4.78ZM77.9384 9.78H80.0584V9.12H71.9184V9.78H74.0384V12.75H74.8584V9.78H77.1184V12.75H77.9384V9.78Z" fill="#706258"/>
<rect x="46.5" y="0.5" width="41" height="16" rx="8" stroke="#706258"/>
</svg>
