<svg width="57" height="52" viewBox="0 0 57 52" fill="none" xmlns="http://www.w3.org/2000/svg">
<path d="M12.544 17.2V2.832H11.232V17.2H12.544ZM1.36 9.872L1.968 10.896C3.696 10.336 5.008 9.248 5.632 7.712C6.288 9.136 7.568 10.224 9.296 10.736L9.904 9.728C7.792 9.088 6.32 7.6 6.272 5.76H9.584V4.704H6.272V2.944H4.96V4.704H1.696V5.76H4.96C4.912 7.632 3.488 9.232 1.36 9.872ZM6.272 13.024V10.416H4.96V13.088C3.488 13.136 2.144 13.136 0.928 13.136L1.104 14.24C3.664 14.24 7.184 14.208 10.4 13.616L10.288 12.64C9.008 12.848 7.616 12.944 6.272 13.024ZM16.1428 5.344H24.8948V5.696C24.8948 7.408 24.9108 9.456 24.3507 12.192L25.6628 12.336C26.2228 9.44 26.2067 7.488 26.2067 5.696V4.272H16.1428V5.344ZM27.7588 15.168V14.096H21.1348V8.96H19.8228V14.096H14.7827V15.168H27.7588ZM28.7335 5.648H37.1975V4.592H33.6135V2.848H32.3015V4.592H28.7335V5.648ZM41.9495 8.672V7.568H39.8215V2.848H38.5095V13.6H39.8215V8.672H41.9495ZM36.3975 9.104C36.3975 7.504 35.0055 6.448 32.9575 6.448C30.9255 6.448 29.5335 7.504 29.5335 9.104C29.5335 10.72 30.9255 11.776 32.9575 11.776C35.0055 11.776 36.3975 10.72 36.3975 9.104ZM30.7815 9.104C30.7815 8.08 31.6135 7.472 32.9575 7.472C34.2535 7.472 35.1495 8.08 35.1495 9.104C35.1495 10.128 34.2535 10.752 32.9575 10.752C31.6135 10.752 30.7815 10.128 30.7815 9.104ZM40.4615 15.792H32.2055V12.752H30.8935V16.864H40.4615V15.792ZM55.6282 15.376V14.288H49.7562V10.608H54.1242V9.552H45.5642V5.056H53.9802V3.984H44.2522V10.608H48.4282V14.288H42.5882V15.376H55.6282Z" fill="black"/>
<path d="M12.544 49.2V34.832H11.232V49.2H12.544ZM1.36 41.872L1.968 42.896C3.696 42.336 5.008 41.248 5.632 39.712C6.288 41.136 7.568 42.224 9.296 42.736L9.904 41.728C7.792 41.088 6.32 39.6 6.272 37.76H9.584V36.704H6.272V34.944H4.96V36.704H1.696V37.76H4.96C4.912 39.632 3.488 41.232 1.36 41.872ZM6.272 45.024V42.416H4.96V45.088C3.488 45.136 2.144 45.136 0.928 45.136L1.104 46.24C3.664 46.24 7.184 46.208 10.4 45.616L10.288 44.64C9.008 44.848 7.616 44.944 6.272 45.024ZM26.5908 49.2V34.832H25.2788V40.048H22.1748V41.12H25.2788V49.2H26.5908ZM19.7267 39.04V37.376H22.9908V36.304H15.1667V37.376H18.4148V39.04C18.4148 41.584 16.7027 44.288 14.6547 45.312L15.4227 46.352C17.0547 45.488 18.4307 43.664 19.0708 41.536C19.7108 43.52 21.1188 45.232 22.7028 46.048L23.4868 45.024C21.4068 44.048 19.7267 41.392 19.7267 39.04ZM41.7095 41.936V40.88H39.6455C40.0295 39.072 40.0295 37.792 40.0295 36.656V35.6H30.3335V36.656H38.7335C38.7335 37.792 38.7175 39.088 38.3175 40.88H28.6695V41.936H41.7095ZM40.0775 43.888H30.2855V48.992H40.0775V43.888ZM38.7815 47.936H31.5655V44.944H38.7815V47.936ZM54.3802 49.2V34.816H53.0682V49.2H54.3802ZM44.7482 44.64V41.296H50.0442V36.16H43.3882V37.232H48.7162V40.224H43.4362V45.728H44.6202C47.1002 45.728 49.2442 45.632 51.8522 45.2L51.7242 44.128C49.2282 44.512 47.1002 44.64 44.7482 44.64Z" fill="black"/>
</svg>
