<svg width="155" height="70" viewBox="0 0 155 70" fill="none" xmlns="http://www.w3.org/2000/svg">
<rect width="42" height="17" rx="8.5" fill="#706258"/>
<path d="M8.56 7.76H14.62V4.27H8.56V7.76ZM9.36 4.93H13.81V7.11H9.36V4.93ZM11.98 9.65H15.66V8.98H7.52V9.65H11.16V12.73H11.98V9.65ZM25.0192 6.77V6.09H23.6892V3.78H22.8692V9.21H23.6892V6.77H25.0192ZM21.4792 8.63L21.9092 7.99C20.6292 7.56 19.7392 6.42 19.7392 5.22V4.23H18.9192V5.15C18.9192 6.5 18.0492 7.75 16.6892 8.23L17.1192 8.88C18.1692 8.48 18.9692 7.66 19.3392 6.61C19.7392 7.53 20.5092 8.27 21.4792 8.63ZM20.8392 9.46C19.0092 9.46 17.8792 10.06 17.8792 11.1C17.8792 12.14 19.0092 12.73 20.8392 12.73C22.6492 12.73 23.7892 12.14 23.7892 11.1C23.7892 10.06 22.6492 9.46 20.8392 9.46ZM20.8392 12.09C19.5092 12.09 18.6992 11.74 18.6992 11.1C18.6992 10.46 19.5092 10.1 20.8392 10.1C22.1692 10.1 22.9692 10.46 22.9692 11.1C22.9692 11.74 22.1692 12.09 20.8392 12.09ZM32.8884 6.64H34.2184V5.96H32.8884V3.76H32.0684V8.85H32.8884V6.64ZM31.2084 8.03L31.1184 7.37C29.9484 7.61 28.9284 7.67 27.1584 7.67V5.03H30.2884V4.37H26.3384V8.35H27.0384C28.9284 8.35 29.9784 8.27 31.2084 8.03ZM32.8884 9.33H27.2584V12.61H32.8884V9.33ZM32.0784 11.95H28.0584V9.98H32.0784V11.95Z" fill="white"/>
<rect x="46.5" y="0.5" width="41" height="16" rx="8" fill="white"/>
<path d="M54.56 7.76H60.62V4.27H54.56V7.76ZM55.36 4.93H59.81V7.11H55.36V4.93ZM57.98 9.65H61.66V8.98H53.52V9.65H57.16V12.73H57.98V9.65ZM70.1192 12.75V3.77H69.2992V6.81H67.2192V7.48H69.2992V12.75H70.1192ZM65.8692 6.15V4.54H65.0492V6.15C65.0492 7.8 64.0292 9.55 62.7292 10.19L63.2292 10.84C64.2392 10.31 65.0592 9.17 65.4592 7.84C65.8692 9.09 66.7092 10.17 67.7092 10.68L68.1892 10.03C66.8892 9.42 65.8692 7.77 65.8692 6.15ZM72.8884 4.78H78.2484V5.81H72.9184V8.19H79.2784V7.53H73.7384V6.43H79.0784V4.12H72.8884V4.78ZM77.9384 9.78H80.0584V9.12H71.9184V9.78H74.0384V12.75H74.8584V9.78H77.1184V12.75H77.9384V9.78Z" fill="#706258"/>
<rect x="46.5" y="0.5" width="41" height="16" rx="8" stroke="#706258"/>
<path d="M17.82 37.3V35.6H15V28.48H12.94V46.54H15V37.3H17.82ZM7.34 33.72V31.98H11.16V30.28H1.34V31.98H5.28V33.72C5.28 34.4667 5.16667 35.2267 4.94 36C4.72667 36.7733 4.42 37.5133 4.02 38.22C3.62 38.9133 3.13333 39.5467 2.56 40.12C2 40.68 1.37333 41.1267 0.68 41.46L1.86 43.1C2.38 42.8467 2.86667 42.5267 3.32 42.14C3.78667 41.74 4.20667 41.3 4.58 40.82C4.96667 40.3267 5.30667 39.7933 5.6 39.22C5.89333 38.6333 6.14 38.0267 6.34 37.4C6.75333 38.5733 7.33333 39.62 8.08 40.54C8.82667 41.46 9.70667 42.16 10.72 42.64L11.86 41.02C11.18 40.7 10.56 40.2733 10 39.74C9.44 39.1933 8.96 38.5933 8.56 37.94C8.17333 37.2733 7.87333 36.58 7.66 35.86C7.44667 35.1267 7.34 34.4133 7.34 33.72ZM34.7584 37.2H27.6184V35.4H32.8784V33.74H22.4984V30.92H32.7584V29.28H20.4584V35.4H25.5584V37.2H18.4384V38.88H34.7584V37.2ZM26.5384 39.98C25.5784 39.98 24.7118 40.0533 23.9384 40.2C23.1651 40.3467 22.5118 40.56 21.9784 40.84C21.4451 41.12 21.0318 41.4667 20.7384 41.88C20.4584 42.28 20.3184 42.74 20.3184 43.26C20.3184 43.78 20.4584 44.2467 20.7384 44.66C21.0318 45.0733 21.4451 45.42 21.9784 45.7C22.5118 45.98 23.1651 46.1933 23.9384 46.34C24.7118 46.4867 25.5784 46.56 26.5384 46.56C28.5384 46.56 30.0718 46.2733 31.1384 45.7C32.2184 45.1267 32.7584 44.3133 32.7584 43.26C32.7584 42.74 32.6118 42.28 32.3184 41.88C32.0384 41.4667 31.6318 41.12 31.0984 40.84C30.5651 40.56 29.9118 40.3467 29.1384 40.2C28.3784 40.0533 27.5118 39.98 26.5384 39.98ZM26.5384 44.96C25.2051 44.96 24.1851 44.82 23.4784 44.54C22.7718 44.2467 22.4184 43.82 22.4184 43.26C22.4184 42.7 22.7718 42.28 23.4784 42C24.1851 41.7067 25.2051 41.56 26.5384 41.56C27.8718 41.56 28.8918 41.7067 29.5984 42C30.3184 42.28 30.6784 42.7 30.6784 43.26C30.6784 43.82 30.3184 44.2467 29.5984 44.54C28.8918 44.82 27.8718 44.96 26.5384 44.96ZM52.6169 37.42V35.72H49.7969V28.46H47.7369V46.54H49.7969V37.42H52.6169ZM42.0569 34.22V33.18H45.8769V31.52H42.0569V28.84H39.9969V31.52H36.1169V33.18H39.9969V34.22C39.9969 34.9533 39.8902 35.6867 39.6769 36.42C39.4769 37.1533 39.1835 37.8467 38.7969 38.5C38.4235 39.14 37.9635 39.7267 37.4169 40.26C36.8702 40.78 36.2502 41.2067 35.5569 41.54L36.6969 43.12C37.7369 42.64 38.6235 41.9333 39.3569 41C40.0902 40.0667 40.6569 39.0133 41.0569 37.84C41.4302 38.9333 41.9635 39.92 42.6569 40.8C43.3635 41.6667 44.2035 42.3333 45.1769 42.8L46.3169 41.22C45.6502 40.9 45.0502 40.4867 44.5169 39.98C43.9969 39.46 43.5502 38.8933 43.1769 38.28C42.8169 37.6533 42.5369 36.9933 42.3369 36.3C42.1502 35.6067 42.0569 34.9133 42.0569 34.22ZM73.348 34.44V32.74H70.788V28.46H68.728V38.66H70.788V34.44H73.348ZM67.228 37.22L67.028 35.56C66.4813 35.68 65.9413 35.78 65.408 35.86C64.8746 35.9267 64.308 35.9867 63.708 36.04C63.1213 36.08 62.4813 36.1067 61.788 36.12C61.108 36.1333 60.3413 36.14 59.488 36.14V31.3H65.428V29.64H57.428V37.82H58.888C59.8613 37.82 60.728 37.8133 61.488 37.8C62.2613 37.7733 62.9746 37.74 63.628 37.7C64.2813 37.66 64.8946 37.6 65.468 37.52C66.0546 37.44 66.6413 37.34 67.228 37.22ZM59.248 39.56V46.32H70.788V39.56H59.248ZM61.288 44.66V41.18H68.768V44.66H61.288ZM90.4464 42.64H83.2664V39H88.5664V29.68H86.5264V32.72H77.9664V29.68H75.9264V39H81.2064V42.64H74.0864V44.34H90.4464V42.64ZM77.9664 37.34V34.38H86.5264V37.34H77.9664ZM106.885 28.46H104.925V35.6H102.785V28.84H100.845V45.64H102.785V37.28H104.925V46.52H106.885V28.46ZM94.1048 40.54V32.3H98.7648V30.62H92.0848V42.24H93.2848C93.9248 42.24 94.5248 42.2333 95.0848 42.22C95.6448 42.2067 96.1848 42.1867 96.7048 42.16C97.2382 42.12 97.7582 42.0667 98.2648 42C98.7848 41.9333 99.3182 41.8467 99.8648 41.74L99.6848 40.04C98.7515 40.2267 97.8448 40.3533 96.9648 40.42C96.0982 40.4867 95.1448 40.5267 94.1048 40.54ZM109.643 34.14L110.243 35.68C111.857 35.5733 113.243 35.3 114.403 34.86C115.577 34.42 116.45 33.82 117.023 33.06C117.597 33.82 118.47 34.42 119.643 34.86C120.83 35.3 122.23 35.5733 123.843 35.68L124.403 34.14C122.577 34.0333 121.143 33.7533 120.103 33.3C119.063 32.8333 118.443 32.24 118.243 31.52H123.583V29.98H118.063V28.4H116.003V29.98H110.503V31.52H115.823C115.623 32.24 115.003 32.8333 113.963 33.3C112.923 33.7533 111.483 34.0333 109.643 34.14ZM118.063 37.88H125.203V36.34H108.903V37.88H116.003V39.28H110.803V40.8H121.143V42.06H110.843V46.38H123.683V44.84H112.883V43.48H123.163V39.28H118.063V37.88Z" fill="black"/>
<path d="M10.56 61.12V60.568H8.88V57.184H8.244V65.08H8.88V61.12H10.56ZM6.036 58.024H1.164V58.564H5.352C5.196 60.688 3.348 62.344 0.756 63.208L1.032 63.736C4.008 62.74 6.036 60.7 6.036 58.024ZM9.42 67.036H3.024V64.264H2.388V67.576H9.42V67.036ZM17.0871 61.804H19.1631V65.164H19.7991V57.172H19.1631V59.284H17.0871V59.824H19.1631V61.276H17.0871V61.804ZM17.5551 62.992L17.5191 62.5C16.9911 62.584 16.4391 62.62 15.8751 62.656V58.636H17.0751V58.096H11.4711V58.636H12.6471V62.764C12.1191 62.776 11.6271 62.776 11.1591 62.776L11.2551 63.34C13.0311 63.34 15.4431 63.316 17.5551 62.992ZM13.2711 62.752V58.636H15.2511V62.68C14.5791 62.728 13.9431 62.74 13.2711 62.752ZM20.1111 67.576V67.036H13.7511V64.468H13.1151V67.576H20.1111ZM21.5981 59.128H27.9101V58.6H25.0781V57.196H24.4421V58.6H21.5981V59.128ZM31.4381 61.384V60.844H29.7701V57.196H29.1341V65.2H29.7701V61.384H31.4381ZM27.2621 61.792C27.2621 60.604 26.2541 59.836 24.7541 59.836C23.2421 59.836 22.2341 60.604 22.2341 61.792C22.2341 62.98 23.2421 63.736 24.7541 63.736C26.2541 63.736 27.2621 62.98 27.2621 61.792ZM22.8341 61.792C22.8341 60.928 23.6021 60.352 24.7541 60.352C25.9061 60.352 26.6621 60.928 26.6621 61.792C26.6621 62.62 25.8941 63.22 24.7541 63.22C23.6021 63.22 22.8341 62.62 22.8341 61.792ZM30.2981 67.036H23.9021V64.54H23.2661V67.576H30.2981V67.036ZM39.5573 59.884H42.1013V62.728H42.7373V57.172H42.1013V59.332H39.5573V59.884ZM39.8693 62.44L40.2053 61.948C38.7653 61.432 37.4573 60.112 37.4573 58.636V57.496H36.8573V58.636C36.8573 60.304 35.5973 61.672 34.1093 62.212L34.4453 62.716C35.6933 62.236 36.7373 61.24 37.1813 59.944C37.6493 61.096 38.6813 62.008 39.8693 62.44ZM43.1933 67.672V67.144H36.6413V65.704H42.7373V63.34H35.9813V63.868H42.1133V65.188H36.0173V67.672H43.1933ZM52.5404 57.184V60.064H50.1404V60.604H52.5404V63.532H53.1764V57.184H52.5404ZM50.3684 63.064L50.6924 62.56C49.2404 62.044 48.0044 60.676 48.0044 59.236V58.576H50.5004V58.036H44.8364V58.576H47.3804V59.248C47.3804 60.88 46.0844 62.296 44.6084 62.872L44.9324 63.388C46.1924 62.872 47.2844 61.828 47.7164 60.472C48.1484 61.66 49.1684 62.596 50.3684 63.064ZM49.7324 63.928C47.5604 63.928 46.2404 64.624 46.2404 65.872C46.2404 67.12 47.5604 67.816 49.7324 67.816C51.8924 67.816 53.2244 67.12 53.2244 65.872C53.2244 64.624 51.8924 63.928 49.7324 63.928ZM49.7324 67.3C47.9924 67.3 46.8764 66.784 46.8764 65.872C46.8764 64.96 47.9924 64.444 49.7324 64.444C51.4724 64.444 52.6004 64.972 52.6004 65.872C52.6004 66.772 51.4724 67.3 49.7324 67.3ZM64.8155 61.06V60.52H63.1475V57.16H62.5115V65.008H63.1475V61.06H64.8155ZM55.4555 62.98H60.2435V58.18H55.4555V62.98ZM56.0795 58.708H59.6315V62.452H56.0795V58.708ZM63.6755 67.036H57.2795V64.276H56.6435V67.576H63.6755V67.036ZM70.1785 57.94C67.9825 57.94 66.3745 59.08 66.3745 60.796C66.3745 62.524 67.9825 63.652 70.1785 63.652C72.3745 63.652 73.9945 62.524 73.9945 60.796C73.9945 59.08 72.3745 57.94 70.1785 57.94ZM70.1785 58.468C72.0145 58.468 73.4065 59.44 73.4065 60.796C73.4065 62.164 72.0145 63.136 70.1785 63.136C68.3545 63.136 66.9625 62.164 66.9625 60.796C66.9625 59.44 68.3545 58.468 70.1785 58.468ZM75.0385 66.352V65.812H65.3665V66.352H75.0385ZM85.4896 66.448V65.896H80.9416V63.652H84.4696V63.112H77.7016V61.06H84.2176V58.036H77.0416V58.564H83.5936V60.532H77.0776V63.652H80.3056V65.896H75.8056V66.448H85.4896ZM97.3048 67.828V57.184H96.6808V61.564H94.8448V57.448H94.2328V67.252H94.8448V62.104H96.6808V67.828H97.3048ZM89.3968 64.516H89.3728V59.056H92.7208V58.504H88.7488V65.068H89.4088C91.1728 65.068 92.2048 65.02 93.4528 64.732L93.3688 64.18C92.1568 64.468 91.1368 64.516 89.3968 64.516ZM99.3439 60.928L99.5479 61.432C101.18 61.276 102.956 60.664 103.568 59.5C104.18 60.664 105.956 61.276 107.588 61.432L107.792 60.928C106.052 60.772 103.964 60.076 103.904 58.684H107.372V58.168H103.892V57.076H103.256V58.168H99.7879V58.684H103.232C103.172 60.076 101.084 60.772 99.3439 60.928ZM103.88 63.736V62.56H108.38V62.044H98.7559V62.56H103.244V63.736H99.9559V64.228H106.484V65.392H99.9799V67.684H107.456V67.168H100.604V65.884H107.108V63.736H103.88ZM119.271 62.764H119.907V57.172H119.271V62.764ZM117.315 62.368L117.639 61.864C116.139 61.324 114.819 59.968 114.819 58.336V57.52H114.195V58.336C114.195 60.028 112.887 61.492 111.399 62.068L111.735 62.584C112.995 62.068 114.075 61 114.519 59.656C114.987 60.916 116.067 61.9 117.315 62.368ZM120.339 67.684V67.156H113.811V65.716H119.919V63.352H113.151V63.88H119.295V65.212H113.187V67.684H120.339ZM127.67 63.568H128.282V60.772H129.998V63.964H130.61V57.184H129.998V60.232H128.282V57.388H127.67V63.568ZM121.634 59.092H127.178V58.564H124.73V57.256H124.094V58.564H121.634V59.092ZM126.674 61.564C126.674 60.472 125.762 59.776 124.406 59.776C123.074 59.776 122.162 60.472 122.162 61.576C122.162 62.68 123.074 63.376 124.406 63.376C125.762 63.376 126.674 62.68 126.674 61.564ZM122.738 61.564C122.738 60.796 123.398 60.28 124.406 60.28C125.414 60.28 126.086 60.808 126.086 61.576C126.086 62.344 125.414 62.872 124.406 62.872C123.398 62.872 122.738 62.344 122.738 61.564ZM127.178 64.204C124.97 64.204 123.686 64.852 123.686 66.004C123.686 67.156 124.97 67.804 127.178 67.804C129.398 67.804 130.67 67.156 130.67 66.004C130.67 64.852 129.398 64.204 127.178 64.204ZM127.178 67.3C125.402 67.3 124.31 66.82 124.31 66.004C124.31 65.188 125.426 64.708 127.178 64.708C128.966 64.708 130.046 65.188 130.046 66.004C130.046 66.82 128.966 67.3 127.178 67.3ZM142.293 62.2H144.141V61.648H142.293V57.184H141.657V67.84H142.293V62.2ZM139.593 58.36H134.793V58.9H138.969C138.789 61.528 137.265 63.748 134.349 65.2L134.709 65.704C138.093 64.012 139.593 61.264 139.593 58.36ZM146 60.868H153.152V60.328H146.636V57.424H146V60.868ZM154.268 62.848V62.308H144.644V62.848H154.268ZM149.444 63.952C147.176 63.952 145.82 64.636 145.82 65.872C145.82 67.108 147.188 67.792 149.444 67.792C151.7 67.792 153.068 67.108 153.068 65.872C153.068 64.636 151.712 63.952 149.444 63.952ZM149.444 67.264C147.62 67.264 146.456 66.736 146.456 65.872C146.456 65.008 147.62 64.48 149.444 64.48C151.268 64.48 152.432 65.008 152.432 65.872C152.432 66.736 151.268 67.264 149.444 67.264Z" fill="black"/>
</svg>
