<svg width="55" height="16" viewBox="0 0 55 16" fill="none" xmlns="http://www.w3.org/2000/svg">
<path d="M12.544 15.2V0.832H11.232V15.2H12.544ZM1.36 7.872L1.968 8.896C3.696 8.336 5.008 7.248 5.632 5.712C6.288 7.136 7.568 8.224 9.296 8.736L9.904 7.728C7.792 7.088 6.32 5.6 6.272 3.76H9.584V2.704H6.272V0.943999H4.96V2.704H1.696V3.76H4.96C4.912 5.632 3.488 7.232 1.36 7.872ZM6.272 11.024V8.416H4.96V11.088C3.488 11.136 2.144 11.136 0.928 11.136L1.104 12.24C3.664 12.24 7.184 12.208 10.4 11.616L10.288 10.64C9.008 10.848 7.616 10.944 6.272 11.024ZM26.5908 15.2V0.832H25.2788V6.048H22.1748V7.12H25.2788V15.2H26.5908ZM19.7267 5.04V3.376H22.9908V2.304H15.1667V3.376H18.4148V5.04C18.4148 7.584 16.7027 10.288 14.6547 11.312L15.4227 12.352C17.0547 11.488 18.4307 9.664 19.0708 7.536C19.7108 9.52 21.1188 11.232 22.7028 12.048L23.4868 11.024C21.4068 10.048 19.7267 7.392 19.7267 5.04ZM41.7095 7.936V6.88H39.6455C40.0295 5.072 40.0295 3.792 40.0295 2.656V1.6H30.3335V2.656H38.7335C38.7335 3.792 38.7175 5.088 38.3175 6.88H28.6695V7.936H41.7095ZM40.0775 9.888H30.2855V14.992H40.0775V9.888ZM38.7815 13.936H31.5655V10.944H38.7815V13.936ZM54.3802 15.2V0.815999H53.0682V15.2H54.3802ZM44.7482 10.64V7.296H50.0442V2.16H43.3882V3.232H48.7162V6.224H43.4362V11.728H44.6202C47.1002 11.728 49.2442 11.632 51.8522 11.2L51.7242 10.128C49.2282 10.512 47.1002 10.64 44.7482 10.64Z" fill="black"/>
</svg>
