<svg width="182" height="70" viewBox="0 0 182 70" fill="none" xmlns="http://www.w3.org/2000/svg">
<rect width="42" height="17" rx="8.5" fill="#706258"/>
<path d="M8.56 7.76H14.62V4.27H8.56V7.76ZM9.36 4.93H13.81V7.11H9.36V4.93ZM11.98 9.65H15.66V8.98H7.52V9.65H11.16V12.73H11.98V9.65ZM25.0192 6.77V6.09H23.6892V3.78H22.8692V9.21H23.6892V6.77H25.0192ZM21.4792 8.63L21.9092 7.99C20.6292 7.56 19.7392 6.42 19.7392 5.22V4.23H18.9192V5.15C18.9192 6.5 18.0492 7.75 16.6892 8.23L17.1192 8.88C18.1692 8.48 18.9692 7.66 19.3392 6.61C19.7392 7.53 20.5092 8.27 21.4792 8.63ZM20.8392 9.46C19.0092 9.46 17.8792 10.06 17.8792 11.1C17.8792 12.14 19.0092 12.73 20.8392 12.73C22.6492 12.73 23.7892 12.14 23.7892 11.1C23.7892 10.06 22.6492 9.46 20.8392 9.46ZM20.8392 12.09C19.5092 12.09 18.6992 11.74 18.6992 11.1C18.6992 10.46 19.5092 10.1 20.8392 10.1C22.1692 10.1 22.9692 10.46 22.9692 11.1C22.9692 11.74 22.1692 12.09 20.8392 12.09ZM32.8884 6.64H34.2184V5.96H32.8884V3.76H32.0684V8.85H32.8884V6.64ZM31.2084 8.03L31.1184 7.37C29.9484 7.61 28.9284 7.67 27.1584 7.67V5.03H30.2884V4.37H26.3384V8.35H27.0384C28.9284 8.35 29.9784 8.27 31.2084 8.03ZM32.8884 9.33H27.2584V12.61H32.8884V9.33ZM32.0784 11.95H28.0584V9.98H32.0784V11.95Z" fill="white"/>
<rect x="46.5" y="0.5" width="41" height="16" rx="8" fill="white"/>
<path d="M54.56 7.76H60.62V4.27H54.56V7.76ZM55.36 4.93H59.81V7.11H55.36V4.93ZM57.98 9.65H61.66V8.98H53.52V9.65H57.16V12.73H57.98V9.65ZM70.1192 12.75V3.77H69.2992V6.81H67.2192V7.48H69.2992V12.75H70.1192ZM65.8692 6.15V4.54H65.0492V6.15C65.0492 7.8 64.0292 9.55 62.7292 10.19L63.2292 10.84C64.2392 10.31 65.0592 9.17 65.4592 7.84C65.8692 9.09 66.7092 10.17 67.7092 10.68L68.1892 10.03C66.8892 9.42 65.8692 7.77 65.8692 6.15ZM72.8884 4.78H78.2484V5.81H72.9184V8.19H79.2784V7.53H73.7384V6.43H79.0784V4.12H72.8884V4.78ZM77.9384 9.78H80.0584V9.12H71.9184V9.78H74.0384V12.75H74.8584V9.78H77.1184V12.75H77.9384V9.78Z" fill="#706258"/>
<rect x="46.5" y="0.5" width="41" height="16" rx="8" stroke="#706258"/>
<path d="M15.9 41.7V28.5H13.84V41.7H15.9ZM10.9 38.86L11.96 37.22C11.2667 36.98 10.6467 36.66 10.1 36.26C9.56667 35.8467 9.11333 35.38 8.74 34.86C8.36667 34.3267 8.08 33.76 7.88 33.16C7.69333 32.5467 7.6 31.92 7.6 31.28V29.48H5.5V31.28C5.5 31.9467 5.4 32.6 5.2 33.24C5.01333 33.8667 4.73333 34.4533 4.36 35C3.98667 35.5467 3.52 36.04 2.96 36.48C2.41333 36.92 1.78667 37.2733 1.08 37.54L2.14 39.2C3.22 38.8 4.12667 38.2133 4.86 37.44C5.59333 36.6533 6.16667 35.7533 6.58 34.74C6.96667 35.7 7.52 36.5333 8.24 37.24C8.97333 37.9333 9.86 38.4733 10.9 38.86ZM16.42 44.52H6.18V40.46H4.1V46.2H16.42V44.52ZM34.7384 37.26H30.8384V34.88C31.5318 34.5733 32.0651 34.2 32.4384 33.76C32.8251 33.3067 33.0184 32.78 33.0184 32.18C33.0184 31.6467 32.8651 31.1733 32.5584 30.76C32.2651 30.3333 31.8384 29.9733 31.2784 29.68C30.7184 29.3867 30.0384 29.1667 29.2384 29.02C28.4518 28.86 27.5651 28.78 26.5784 28.78C25.5918 28.78 24.6984 28.86 23.8984 29.02C23.1118 29.1667 22.4384 29.3867 21.8784 29.68C21.3184 29.9733 20.8851 30.3333 20.5784 30.76C20.2851 31.1733 20.1384 31.6467 20.1384 32.18C20.1384 32.78 20.3251 33.3067 20.6984 33.76C21.0718 34.2 21.5984 34.5667 22.2784 34.86V37.26H18.3984V38.9H34.7384V37.26ZM26.5784 30.38C27.9518 30.38 29.0118 30.5333 29.7584 30.84C30.5051 31.1333 30.8784 31.58 30.8784 32.18C30.8784 32.78 30.5051 33.2333 29.7584 33.54C29.0118 33.8467 27.9518 34 26.5784 34C25.2051 34 24.1384 33.8467 23.3784 33.54C22.6318 33.2333 22.2584 32.78 22.2584 32.18C22.2584 31.58 22.6318 31.1333 23.3784 30.84C24.1384 30.5333 25.2051 30.38 26.5784 30.38ZM24.3384 37.26V35.42C24.6718 35.4733 25.0251 35.5133 25.3984 35.54C25.7851 35.5667 26.1784 35.58 26.5784 35.58C26.9784 35.58 27.3584 35.5667 27.7184 35.54C28.0918 35.5133 28.4451 35.4733 28.7784 35.42V37.26H24.3384ZM26.5384 40.06C24.5384 40.06 22.9984 40.34 21.9184 40.9C20.8518 41.46 20.3184 42.26 20.3184 43.3C20.3184 43.82 20.4584 44.28 20.7384 44.68C21.0318 45.08 21.4451 45.42 21.9784 45.7C22.5118 45.98 23.1584 46.1867 23.9184 46.32C24.6918 46.4667 25.5651 46.54 26.5384 46.54C28.5518 46.54 30.0918 46.26 31.1584 45.7C32.2251 45.14 32.7584 44.34 32.7584 43.3C32.7584 42.26 32.2251 41.46 31.1584 40.9C30.0918 40.34 28.5518 40.06 26.5384 40.06ZM26.5384 44.96C25.2051 44.96 24.1851 44.8267 23.4784 44.56C22.7718 44.28 22.4184 43.86 22.4184 43.3C22.4184 42.74 22.7718 42.3267 23.4784 42.06C24.1851 41.78 25.2051 41.64 26.5384 41.64C27.8718 41.64 28.8918 41.78 29.5984 42.06C30.3184 42.3267 30.6784 42.74 30.6784 43.3C30.6784 43.86 30.3184 44.28 29.5984 44.56C28.8918 44.8267 27.8718 44.96 26.5384 44.96ZM51.2169 28.46H49.2569V35.6H47.1169V28.84H45.1769V45.64H47.1169V37.28H49.2569V46.52H51.2169V28.46ZM38.4369 40.54V32.3H43.0969V30.62H36.4169V42.24H37.6169C38.2569 42.24 38.8569 42.2333 39.4169 42.22C39.9769 42.2067 40.5169 42.1867 41.0369 42.16C41.5702 42.12 42.0902 42.0667 42.5969 42C43.1169 41.9333 43.6502 41.8467 44.1969 41.74L44.0169 40.04C43.0835 40.2267 42.1769 40.3533 41.2969 40.42C40.4302 40.4867 39.4769 40.5267 38.4369 40.54ZM53.9753 34.14L54.5753 35.68C56.1886 35.5733 57.5753 35.3 58.7353 34.86C59.9086 34.42 60.782 33.82 61.3553 33.06C61.9286 33.82 62.802 34.42 63.9753 34.86C65.162 35.3 66.562 35.5733 68.1753 35.68L68.7353 34.14C66.9086 34.0333 65.4753 33.7533 64.4353 33.3C63.3953 32.8333 62.7753 32.24 62.5753 31.52H67.9153V29.98H62.3953V28.4H60.3353V29.98H54.8353V31.52H60.1553C59.9553 32.24 59.3353 32.8333 58.2953 33.3C57.2553 33.7533 55.8153 34.0333 53.9753 34.14ZM62.3953 37.88H69.5353V36.34H53.2353V37.88H60.3353V39.28H55.1353V40.8H65.4753V42.06H55.1753V46.38H68.0153V44.84H57.2153V43.48H67.4953V39.28H62.3953V37.88ZM71.5138 30.28V45H73.8338V39.42H76.0538C76.8538 39.42 77.5938 39.3267 78.2738 39.14C78.9538 38.9533 79.5338 38.6667 80.0138 38.28C80.5071 37.8933 80.8938 37.4067 81.1738 36.82C81.4538 36.22 81.5938 35.52 81.5938 34.72C81.5938 33.8933 81.4538 33.2 81.1738 32.64C80.8938 32.0667 80.5071 31.6067 80.0138 31.26C79.5204 30.9133 78.9271 30.6667 78.2338 30.52C77.5538 30.36 76.8004 30.28 75.9738 30.28H71.5138ZM75.8338 37.56H73.8338V32.14H75.7538C76.9271 32.14 77.8138 32.3267 78.4138 32.7C79.0138 33.0733 79.3138 33.7467 79.3138 34.72C79.3138 35.6933 79.0338 36.4133 78.4738 36.88C77.9271 37.3333 77.0471 37.56 75.8338 37.56ZM83.463 30.28V45H92.003V43.04H85.783V30.28H83.463ZM98.3127 45.26C99.1393 45.26 99.886 45.1467 100.553 44.92C101.219 44.68 101.793 44.3 102.273 43.78C102.753 43.2467 103.119 42.5667 103.373 41.74C103.639 40.9 103.773 39.88 103.773 38.68V30.28H101.533V38.84C101.533 39.6667 101.453 40.3667 101.293 40.94C101.133 41.5 100.906 41.9533 100.613 42.3C100.333 42.6333 99.9927 42.8733 99.5927 43.02C99.206 43.1667 98.7793 43.24 98.3127 43.24C97.8593 43.24 97.4393 43.1667 97.0527 43.02C96.666 42.8733 96.3327 42.6333 96.0527 42.3C95.7727 41.9533 95.5527 41.5 95.3927 40.94C95.2327 40.3667 95.1527 39.6667 95.1527 38.84V30.28H92.8327V38.68C92.8327 39.88 92.966 40.9 93.2327 41.74C93.4993 42.5667 93.8727 43.2467 94.3527 43.78C94.8327 44.3 95.406 44.68 96.0727 44.92C96.7527 45.1467 97.4993 45.26 98.3127 45.26ZM110.546 45.26C111.346 45.26 112.066 45.1467 112.706 44.92C113.346 44.6933 113.886 44.3867 114.326 44C114.779 43.6133 115.126 43.16 115.366 42.64C115.606 42.12 115.726 41.5667 115.726 40.98C115.726 40.4333 115.652 39.96 115.506 39.56C115.359 39.1467 115.152 38.78 114.886 38.46C114.619 38.14 114.299 37.8667 113.926 37.64C113.566 37.4 113.166 37.1867 112.726 37L110.706 36.14C110.412 36.02 110.119 35.9 109.826 35.78C109.546 35.6467 109.292 35.4933 109.066 35.32C108.852 35.1467 108.672 34.9533 108.526 34.74C108.392 34.5133 108.326 34.24 108.326 33.92C108.326 33.32 108.546 32.8533 108.986 32.52C109.439 32.1867 110.046 32.02 110.806 32.02C111.459 32.02 112.046 32.14 112.566 32.38C113.086 32.6067 113.579 32.9267 114.046 33.34L115.266 31.86C114.706 31.2867 114.039 30.8333 113.266 30.5C112.506 30.1667 111.686 30 110.806 30C110.112 30 109.466 30.1067 108.866 30.32C108.279 30.52 107.766 30.8 107.326 31.16C106.899 31.52 106.566 31.9467 106.326 32.44C106.086 32.9333 105.966 33.4733 105.966 34.06C105.966 34.5933 106.052 35.0667 106.226 35.48C106.412 35.8933 106.646 36.26 106.926 36.58C107.219 36.8867 107.539 37.1533 107.886 37.38C108.246 37.5933 108.606 37.7733 108.966 37.92L111.006 38.8C111.352 38.9467 111.666 39.0933 111.946 39.24C112.239 39.3733 112.492 39.5267 112.706 39.7C112.919 39.8733 113.079 40.08 113.186 40.32C113.306 40.5467 113.366 40.8267 113.366 41.16C113.366 41.8 113.126 42.3067 112.646 42.68C112.166 43.0533 111.479 43.24 110.586 43.24C109.866 43.24 109.166 43.0867 108.486 42.78C107.806 42.46 107.199 42.0333 106.666 41.5L105.306 43.1C105.986 43.78 106.772 44.3133 107.666 44.7C108.572 45.0733 109.532 45.26 110.546 45.26ZM120.314 47.9L121.754 47.26C120.874 45.8067 120.234 44.28 119.834 42.68C119.434 41.08 119.234 39.4067 119.234 37.66C119.234 35.9267 119.434 34.26 119.834 32.66C120.234 31.0467 120.874 29.5133 121.754 28.06L120.314 27.44C119.38 28.9467 118.654 30.5333 118.134 32.2C117.614 33.8667 117.354 35.6867 117.354 37.66C117.354 39.6467 117.614 41.4733 118.134 43.14C118.654 44.7933 119.38 46.38 120.314 47.9ZM139.523 37.3V35.6H136.703V28.48H134.643V46.54H136.703V37.3H139.523ZM129.043 33.72V31.98H132.863V30.28H123.043V31.98H126.983V33.72C126.983 34.4667 126.87 35.2267 126.643 36C126.43 36.7733 126.123 37.5133 125.723 38.22C125.323 38.9133 124.836 39.5467 124.263 40.12C123.703 40.68 123.076 41.1267 122.383 41.46L123.563 43.1C124.083 42.8467 124.57 42.5267 125.023 42.14C125.49 41.74 125.91 41.3 126.283 40.82C126.67 40.3267 127.01 39.7933 127.303 39.22C127.596 38.6333 127.843 38.0267 128.043 37.4C128.456 38.5733 129.036 39.62 129.783 40.54C130.53 41.46 131.41 42.16 132.423 42.64L133.563 41.02C132.883 40.7 132.263 40.2733 131.703 39.74C131.143 39.1933 130.663 38.5933 130.263 37.94C129.876 37.2733 129.576 36.58 129.363 35.86C129.15 35.1267 129.043 34.4133 129.043 33.72ZM156.462 37.2H149.322V35.4H154.582V33.74H144.202V30.92H154.462V29.28H142.162V35.4H147.262V37.2H140.142V38.88H156.462V37.2ZM148.242 39.98C147.282 39.98 146.415 40.0533 145.642 40.2C144.868 40.3467 144.215 40.56 143.682 40.84C143.148 41.12 142.735 41.4667 142.442 41.88C142.162 42.28 142.022 42.74 142.022 43.26C142.022 43.78 142.162 44.2467 142.442 44.66C142.735 45.0733 143.148 45.42 143.682 45.7C144.215 45.98 144.868 46.1933 145.642 46.34C146.415 46.4867 147.282 46.56 148.242 46.56C150.242 46.56 151.775 46.2733 152.842 45.7C153.922 45.1267 154.462 44.3133 154.462 43.26C154.462 42.74 154.315 42.28 154.022 41.88C153.742 41.4667 153.335 41.12 152.802 40.84C152.268 40.56 151.615 40.3467 150.842 40.2C150.082 40.0533 149.215 39.98 148.242 39.98ZM148.242 44.96C146.908 44.96 145.888 44.82 145.182 44.54C144.475 44.2467 144.122 43.82 144.122 43.26C144.122 42.7 144.475 42.28 145.182 42C145.888 41.7067 146.908 41.56 148.242 41.56C149.575 41.56 150.595 41.7067 151.302 42C152.022 42.28 152.382 42.7 152.382 43.26C152.382 43.82 152.022 44.2467 151.302 44.54C150.595 44.82 149.575 44.96 148.242 44.96ZM174.32 37.42V35.72H171.5V28.46H169.44V46.54H171.5V37.42H174.32ZM163.76 34.22V33.18H167.58V31.52H163.76V28.84H161.7V31.52H157.82V33.18H161.7V34.22C161.7 34.9533 161.593 35.6867 161.38 36.42C161.18 37.1533 160.887 37.8467 160.5 38.5C160.127 39.14 159.667 39.7267 159.12 40.26C158.573 40.78 157.953 41.2067 157.26 41.54L158.4 43.12C159.44 42.64 160.327 41.9333 161.06 41C161.793 40.0667 162.36 39.0133 162.76 37.84C163.133 38.9333 163.667 39.92 164.36 40.8C165.067 41.6667 165.907 42.3333 166.88 42.8L168.02 41.22C167.353 40.9 166.753 40.4867 166.22 39.98C165.7 39.46 165.253 38.8933 164.88 38.28C164.52 37.6533 164.24 36.9933 164.04 36.3C163.853 35.6067 163.76 34.9133 163.76 34.22ZM174.798 47.26L176.238 47.9C177.185 46.38 177.918 44.7933 178.438 43.14C178.958 41.4733 179.218 39.6467 179.218 37.66C179.218 35.6867 178.958 33.8667 178.438 32.2C177.918 30.5333 177.185 28.9467 176.238 27.44L174.798 28.06C175.678 29.5133 176.318 31.0467 176.718 32.66C177.118 34.26 177.318 35.9267 177.318 37.66C177.318 39.4067 177.118 41.08 176.718 42.68C176.318 44.28 175.678 45.8067 174.798 47.26Z" fill="black"/>
<path d="M10.56 61.12V60.568H8.88V57.184H8.244V65.08H8.88V61.12H10.56ZM6.036 58.024H1.164V58.564H5.352C5.196 60.688 3.348 62.344 0.756 63.208L1.032 63.736C4.008 62.74 6.036 60.7 6.036 58.024ZM9.42 67.036H3.024V64.264H2.388V67.576H9.42V67.036ZM17.0871 61.804H19.1631V65.164H19.7991V57.172H19.1631V59.284H17.0871V59.824H19.1631V61.276H17.0871V61.804ZM17.5551 62.992L17.5191 62.5C16.9911 62.584 16.4391 62.62 15.8751 62.656V58.636H17.0751V58.096H11.4711V58.636H12.6471V62.764C12.1191 62.776 11.6271 62.776 11.1591 62.776L11.2551 63.34C13.0311 63.34 15.4431 63.316 17.5551 62.992ZM13.2711 62.752V58.636H15.2511V62.68C14.5791 62.728 13.9431 62.74 13.2711 62.752ZM20.1111 67.576V67.036H13.7511V64.468H13.1151V67.576H20.1111ZM27.0581 59.884H29.6021V62.728H30.2381V57.172H29.6021V59.332H27.0581V59.884ZM27.3701 62.44L27.7061 61.948C26.2661 61.432 24.9581 60.112 24.9581 58.636V57.496H24.3581V58.636C24.3581 60.304 23.0981 61.672 21.6101 62.212L21.9461 62.716C23.1941 62.236 24.2381 61.24 24.6821 59.944C25.1501 61.096 26.1821 62.008 27.3701 62.44ZM30.6941 67.672V67.144H24.1421V65.704H30.2381V63.34H23.4821V63.868H29.6141V65.188H23.5181V67.672H30.6941ZM40.0412 57.184V60.064H37.6412V60.604H40.0412V63.532H40.6772V57.184H40.0412ZM37.8692 63.064L38.1932 62.56C36.7412 62.044 35.5052 60.676 35.5052 59.236V58.576H38.0012V58.036H32.3372V58.576H34.8812V59.248C34.8812 60.88 33.5852 62.296 32.1092 62.872L32.4332 63.388C33.6932 62.872 34.7852 61.828 35.2172 60.472C35.6492 61.66 36.6692 62.596 37.8692 63.064ZM37.2332 63.928C35.0612 63.928 33.7412 64.624 33.7412 65.872C33.7412 67.12 35.0612 67.816 37.2332 67.816C39.3932 67.816 40.7252 67.12 40.7252 65.872C40.7252 64.624 39.3932 63.928 37.2332 63.928ZM37.2332 67.3C35.4932 67.3 34.3772 66.784 34.3772 65.872C34.3772 64.96 35.4932 64.444 37.2332 64.444C38.9732 64.444 40.1012 64.972 40.1012 65.872C40.1012 66.772 38.9732 67.3 37.2332 67.3ZM52.5284 65.056H53.1644V57.184H52.5284V65.056ZM50.6204 63.388L50.9324 62.896C49.4564 62.38 48.1244 61.084 48.1244 59.536V58.672H50.7284V58.132H44.8724V58.672H47.4884V59.536C47.4884 61.168 46.2044 62.56 44.7044 63.1L45.0404 63.604C46.3364 63.112 47.3924 62.128 47.8244 60.772C48.2684 61.984 49.3724 62.968 50.6204 63.388ZM53.5244 67.576V67.036H47.1044V64.3H46.4684V67.576H53.5244ZM60.9155 63.568H61.5275V60.772H63.2435V63.964H63.8555V57.184H63.2435V60.232H61.5275V57.388H60.9155V63.568ZM54.8795 59.092H60.4235V58.564H57.9755V57.256H57.3395V58.564H54.8795V59.092ZM59.9195 61.564C59.9195 60.472 59.0075 59.776 57.6515 59.776C56.3195 59.776 55.4075 60.472 55.4075 61.576C55.4075 62.68 56.3195 63.376 57.6515 63.376C59.0075 63.376 59.9195 62.68 59.9195 61.564ZM55.9835 61.564C55.9835 60.796 56.6435 60.28 57.6515 60.28C58.6595 60.28 59.3315 60.808 59.3315 61.576C59.3315 62.344 58.6595 62.872 57.6515 62.872C56.6435 62.872 55.9835 62.344 55.9835 61.564ZM60.4235 64.204C58.2155 64.204 56.9315 64.852 56.9315 66.004C56.9315 67.156 58.2155 67.804 60.4235 67.804C62.6435 67.804 63.9155 67.156 63.9155 66.004C63.9155 64.852 62.6435 64.204 60.4235 64.204ZM60.4235 67.3C58.6475 67.3 57.5555 66.82 57.5555 66.004C57.5555 65.188 58.6715 64.708 60.4235 64.708C62.2115 64.708 63.2915 65.188 63.2915 66.004C63.2915 66.82 62.2115 67.3 60.4235 67.3ZM70.1785 57.94C67.9825 57.94 66.3745 59.08 66.3745 60.796C66.3745 62.524 67.9825 63.652 70.1785 63.652C72.3745 63.652 73.9945 62.524 73.9945 60.796C73.9945 59.08 72.3745 57.94 70.1785 57.94ZM70.1785 58.468C72.0145 58.468 73.4065 59.44 73.4065 60.796C73.4065 62.164 72.0145 63.136 70.1785 63.136C68.3545 63.136 66.9625 62.164 66.9625 60.796C66.9625 59.44 68.3545 58.468 70.1785 58.468ZM75.0385 66.352V65.812H65.3665V66.352H75.0385ZM85.4896 66.448V65.896H80.9416V63.652H84.4696V63.112H77.7016V61.06H84.2176V58.036H77.0416V58.564H83.5936V60.532H77.0776V63.652H80.3056V65.896H75.8056V66.448H85.4896ZM98.1928 60.652V60.1H96.5248V57.184H95.8888V63.64H96.5248V60.652H98.1928ZM94.6648 62.224L94.5808 61.696C93.0688 61.984 91.7728 62.068 89.6488 62.068H89.4928V58.6H93.5248V58.06H88.8568V62.608H89.6488C91.7968 62.608 93.1048 62.512 94.6648 62.224ZM93.1648 63.88C91.0408 63.88 89.7328 64.588 89.7328 65.836C89.7328 67.084 91.0528 67.804 93.1648 67.804C95.3008 67.804 96.6088 67.084 96.6088 65.836C96.6088 64.588 95.3008 63.88 93.1648 63.88ZM93.1648 67.276C91.4728 67.276 90.3448 66.712 90.3448 65.836C90.3448 64.972 91.4728 64.408 93.1648 64.408C94.8808 64.408 95.9848 64.972 95.9848 65.836C95.9848 66.712 94.8808 67.276 93.1648 67.276ZM106.784 62.728H107.42V57.172H106.784V62.728ZM104.432 59.932C104.432 58.54 103.316 57.604 101.744 57.604C100.172 57.604 99.0559 58.54 99.0559 59.932C99.0559 61.312 100.172 62.248 101.744 62.248C103.316 62.248 104.432 61.312 104.432 59.932ZM99.6799 59.932C99.6799 58.924 100.556 58.144 101.744 58.144C102.932 58.144 103.808 58.924 103.808 59.932C103.808 60.964 102.932 61.72 101.744 61.72C100.556 61.72 99.6799 60.964 99.6799 59.932ZM107.84 67.672V67.144H101.312V65.668H107.42V63.304H100.652V63.832H106.796V65.164H100.688V67.672H107.84ZM120.243 67.828V57.184H119.619V61.564H117.783V57.448H117.171V67.252H117.783V62.104H119.619V67.828H120.243ZM112.335 64.516H112.311V59.056H115.659V58.504H111.687V65.068H112.347C114.111 65.068 115.143 65.02 116.391 64.732L116.307 64.18C115.095 64.468 114.075 64.516 112.335 64.516ZM122.282 60.928L122.486 61.432C124.118 61.276 125.894 60.664 126.506 59.5C127.118 60.664 128.894 61.276 130.526 61.432L130.73 60.928C128.99 60.772 126.902 60.076 126.842 58.684H130.31V58.168H126.83V57.076H126.194V58.168H122.726V58.684H126.17C126.11 60.076 124.022 60.772 122.282 60.928ZM126.818 63.736V62.56H131.318V62.044H121.694V62.56H126.182V63.736H122.894V64.228H129.422V65.392H122.918V67.684H130.394V67.168H123.542V65.884H130.046V63.736H126.818ZM142.293 62.2H144.141V61.648H142.293V57.184H141.657V67.84H142.293V62.2ZM139.593 58.36H134.793V58.9H138.969C138.789 61.528 137.265 63.748 134.349 65.2L134.709 65.704C138.093 64.012 139.593 61.264 139.593 58.36ZM146 60.868H153.152V60.328H146.636V57.424H146V60.868ZM154.268 62.848V62.308H144.644V62.848H154.268ZM149.444 63.952C147.176 63.952 145.82 64.636 145.82 65.872C145.82 67.108 147.188 67.792 149.444 67.792C151.7 67.792 153.068 67.108 153.068 65.872C153.068 64.636 151.712 63.952 149.444 63.952ZM149.444 67.264C147.62 67.264 146.456 66.736 146.456 65.872C146.456 65.008 147.62 64.48 149.444 64.48C151.268 64.48 152.432 65.008 152.432 65.872C152.432 66.736 151.268 67.264 149.444 67.264Z" fill="black"/>
</svg>
