<svg width="69" height="19" viewBox="0 0 69 19" fill="none" xmlns="http://www.w3.org/2000/svg">
<path d="M14.9 13.7V0.499999H12.84V13.7H14.9ZM9.9 10.86L10.96 9.22C10.2667 8.98 9.64667 8.66 9.1 8.26C8.56667 7.84667 8.11333 7.38 7.74 6.86C7.36667 6.32667 7.08 5.76 6.88 5.16C6.69333 4.54667 6.6 3.92 6.6 3.28V1.48H4.5V3.28C4.5 3.94667 4.4 4.6 4.2 5.24C4.01333 5.86667 3.73333 6.45333 3.36 7C2.98667 7.54667 2.52 8.04 1.96 8.48C1.41333 8.92 0.786667 9.27333 0.08 9.54L1.14 11.2C2.22 10.8 3.12667 10.2133 3.86 9.44C4.59333 8.65333 5.16667 7.75333 5.58 6.74C5.96667 7.7 6.52 8.53333 7.24 9.24C7.97333 9.93333 8.86 10.4733 9.9 10.86ZM15.42 16.52H5.18V12.46H3.1V18.2H15.42V16.52ZM33.7384 9.26H29.8384V6.88C30.5318 6.57333 31.0651 6.2 31.4384 5.76C31.8251 5.30667 32.0184 4.78 32.0184 4.18C32.0184 3.64667 31.8651 3.17333 31.5584 2.76C31.2651 2.33333 30.8384 1.97333 30.2784 1.68C29.7184 1.38667 29.0384 1.16667 28.2384 1.02C27.4518 0.859999 26.5651 0.779999 25.5784 0.779999C24.5918 0.779999 23.6984 0.859999 22.8984 1.02C22.1118 1.16667 21.4384 1.38667 20.8784 1.68C20.3184 1.97333 19.8851 2.33333 19.5784 2.76C19.2851 3.17333 19.1384 3.64667 19.1384 4.18C19.1384 4.78 19.3251 5.30667 19.6984 5.76C20.0718 6.2 20.5984 6.56667 21.2784 6.86V9.26H17.3984V10.9H33.7384V9.26ZM25.5784 2.38C26.9518 2.38 28.0118 2.53333 28.7584 2.84C29.5051 3.13333 29.8784 3.58 29.8784 4.18C29.8784 4.78 29.5051 5.23333 28.7584 5.54C28.0118 5.84667 26.9518 6 25.5784 6C24.2051 6 23.1384 5.84667 22.3784 5.54C21.6318 5.23333 21.2584 4.78 21.2584 4.18C21.2584 3.58 21.6318 3.13333 22.3784 2.84C23.1384 2.53333 24.2051 2.38 25.5784 2.38ZM23.3384 9.26V7.42C23.6718 7.47333 24.0251 7.51333 24.3984 7.54C24.7851 7.56667 25.1784 7.58 25.5784 7.58C25.9784 7.58 26.3584 7.56667 26.7184 7.54C27.0918 7.51333 27.4451 7.47333 27.7784 7.42V9.26H23.3384ZM25.5384 12.06C23.5384 12.06 21.9984 12.34 20.9184 12.9C19.8518 13.46 19.3184 14.26 19.3184 15.3C19.3184 15.82 19.4584 16.28 19.7384 16.68C20.0318 17.08 20.4451 17.42 20.9784 17.7C21.5118 17.98 22.1584 18.1867 22.9184 18.32C23.6918 18.4667 24.5651 18.54 25.5384 18.54C27.5518 18.54 29.0918 18.26 30.1584 17.7C31.2251 17.14 31.7584 16.34 31.7584 15.3C31.7584 14.26 31.2251 13.46 30.1584 12.9C29.0918 12.34 27.5518 12.06 25.5384 12.06ZM25.5384 16.96C24.2051 16.96 23.1851 16.8267 22.4784 16.56C21.7718 16.28 21.4184 15.86 21.4184 15.3C21.4184 14.74 21.7718 14.3267 22.4784 14.06C23.1851 13.78 24.2051 13.64 25.5384 13.64C26.8718 13.64 27.8918 13.78 28.5984 14.06C29.3184 14.3267 29.6784 14.74 29.6784 15.3C29.6784 15.86 29.3184 16.28 28.5984 16.56C27.8918 16.8267 26.8718 16.96 25.5384 16.96ZM50.2169 0.46H48.2569V7.6H46.1169V0.839999H44.1769V17.64H46.1169V9.28H48.2569V18.52H50.2169V0.46ZM37.4369 12.54V4.3H42.0969V2.62H35.4169V14.24H36.6169C37.2569 14.24 37.8569 14.2333 38.4169 14.22C38.9769 14.2067 39.5169 14.1867 40.0369 14.16C40.5702 14.12 41.0902 14.0667 41.5969 14C42.1169 13.9333 42.6502 13.8467 43.1969 13.74L43.0169 12.04C42.0835 12.2267 41.1769 12.3533 40.2969 12.42C39.4302 12.4867 38.4769 12.5267 37.4369 12.54ZM52.9753 6.14L53.5753 7.68C55.1886 7.57333 56.5753 7.3 57.7353 6.86C58.9086 6.42 59.782 5.82 60.3553 5.06C60.9286 5.82 61.802 6.42 62.9753 6.86C64.162 7.3 65.562 7.57333 67.1753 7.68L67.7353 6.14C65.9086 6.03333 64.4753 5.75333 63.4353 5.3C62.3953 4.83333 61.7753 4.24 61.5753 3.52H66.9153V1.98H61.3953V0.399999H59.3353V1.98H53.8353V3.52H59.1553C58.9553 4.24 58.3353 4.83333 57.2953 5.3C56.2553 5.75333 54.8153 6.03333 52.9753 6.14ZM61.3953 9.88H68.5353V8.34H52.2353V9.88H59.3353V11.28H54.1353V12.8H64.4753V14.06H54.1753V18.38H67.0153V16.84H56.2153V15.48H66.4953V11.28H61.3953V9.88Z" fill="black"/>
</svg>
