<svg width="87" height="19" viewBox="0 0 87 19" fill="none" xmlns="http://www.w3.org/2000/svg">
<path d="M17.82 9.3V7.6H15V0.479999H12.94V18.54H15V9.3H17.82ZM7.34 5.72V3.98H11.16V2.28H1.34V3.98H5.28V5.72C5.28 6.46667 5.16667 7.22667 4.94 8C4.72667 8.77333 4.42 9.51333 4.02 10.22C3.62 10.9133 3.13333 11.5467 2.56 12.12C2 12.68 1.37333 13.1267 0.68 13.46L1.86 15.1C2.38 14.8467 2.86667 14.5267 3.32 14.14C3.78667 13.74 4.20667 13.3 4.58 12.82C4.96667 12.3267 5.30667 11.7933 5.6 11.22C5.89333 10.6333 6.14 10.0267 6.34 9.4C6.75333 10.5733 7.33333 11.62 8.08 12.54C8.82667 13.46 9.70667 14.16 10.72 14.64L11.86 13.02C11.18 12.7 10.56 12.2733 10 11.74C9.44 11.1933 8.96 10.5933 8.56 9.94C8.17333 9.27333 7.87333 8.58 7.66 7.86C7.44667 7.12667 7.34 6.41333 7.34 5.72ZM34.7584 9.2H27.6184V7.4H32.8784V5.74H22.4984V2.92H32.7584V1.28H20.4584V7.4H25.5584V9.2H18.4384V10.88H34.7584V9.2ZM26.5384 11.98C25.5784 11.98 24.7118 12.0533 23.9384 12.2C23.1651 12.3467 22.5118 12.56 21.9784 12.84C21.4451 13.12 21.0318 13.4667 20.7384 13.88C20.4584 14.28 20.3184 14.74 20.3184 15.26C20.3184 15.78 20.4584 16.2467 20.7384 16.66C21.0318 17.0733 21.4451 17.42 21.9784 17.7C22.5118 17.98 23.1651 18.1933 23.9384 18.34C24.7118 18.4867 25.5784 18.56 26.5384 18.56C28.5384 18.56 30.0718 18.2733 31.1384 17.7C32.2184 17.1267 32.7584 16.3133 32.7584 15.26C32.7584 14.74 32.6118 14.28 32.3184 13.88C32.0384 13.4667 31.6318 13.12 31.0984 12.84C30.5651 12.56 29.9118 12.3467 29.1384 12.2C28.3784 12.0533 27.5118 11.98 26.5384 11.98ZM26.5384 16.96C25.2051 16.96 24.1851 16.82 23.4784 16.54C22.7718 16.2467 22.4184 15.82 22.4184 15.26C22.4184 14.7 22.7718 14.28 23.4784 14C24.1851 13.7067 25.2051 13.56 26.5384 13.56C27.8718 13.56 28.8918 13.7067 29.5984 14C30.3184 14.28 30.6784 14.7 30.6784 15.26C30.6784 15.82 30.3184 16.2467 29.5984 16.54C28.8918 16.82 27.8718 16.96 26.5384 16.96ZM52.6169 9.42V7.72H49.7969V0.46H47.7369V18.54H49.7969V9.42H52.6169ZM42.0569 6.22V5.18H45.8769V3.52H42.0569V0.839999H39.9969V3.52H36.1169V5.18H39.9969V6.22C39.9969 6.95333 39.8902 7.68667 39.6769 8.42C39.4769 9.15333 39.1835 9.84667 38.7969 10.5C38.4235 11.14 37.9635 11.7267 37.4169 12.26C36.8702 12.78 36.2502 13.2067 35.5569 13.54L36.6969 15.12C37.7369 14.64 38.6235 13.9333 39.3569 13C40.0902 12.0667 40.6569 11.0133 41.0569 9.84C41.4302 10.9333 41.9635 11.92 42.6569 12.8C43.3635 13.6667 44.2035 14.3333 45.1769 14.8L46.3169 13.22C45.6502 12.9 45.0502 12.4867 44.5169 11.98C43.9969 11.46 43.5502 10.8933 43.1769 10.28C42.8169 9.65333 42.5369 8.99333 42.3369 8.3C42.1502 7.60667 42.0569 6.91333 42.0569 6.22ZM68.6153 0.46H66.6553V7.6H64.5153V0.839999H62.5753V17.64H64.5153V9.28H66.6553V18.52H68.6153V0.46ZM55.8353 12.54V4.3H60.4953V2.62H53.8153V14.24H55.0153C55.6553 14.24 56.2553 14.2333 56.8153 14.22C57.3753 14.2067 57.9153 14.1867 58.4353 14.16C58.9686 14.12 59.4886 14.0667 59.9953 14C60.5153 13.9333 61.0486 13.8467 61.5953 13.74L61.4153 12.04C60.482 12.2267 59.5753 12.3533 58.6953 12.42C57.8286 12.4867 56.8753 12.5267 55.8353 12.54ZM71.3738 6.14L71.9738 7.68C73.5871 7.57333 74.9738 7.3 76.1338 6.86C77.3071 6.42 78.1804 5.82 78.7538 5.06C79.3271 5.82 80.2004 6.42 81.3738 6.86C82.5604 7.3 83.9604 7.57333 85.5738 7.68L86.1338 6.14C84.3071 6.03333 82.8738 5.75333 81.8338 5.3C80.7938 4.83333 80.1738 4.24 79.9738 3.52H85.3138V1.98H79.7938V0.399999H77.7338V1.98H72.2337V3.52H77.5538C77.3538 4.24 76.7338 4.83333 75.6938 5.3C74.6538 5.75333 73.2138 6.03333 71.3738 6.14ZM79.7938 9.88H86.9338V8.34H70.6338V9.88H77.7338V11.28H72.5337V12.8H82.8738V14.06H72.5738V18.38H85.4138V16.84H74.6138V15.48H84.8938V11.28H79.7938V9.88Z" fill="black"/>
</svg>
