<svg width="69" height="19" viewBox="0 0 69 19" fill="none" xmlns="http://www.w3.org/2000/svg">
<path d="M16.68 6.44V4.74H14.12V0.46H12.06V10.66H14.12V6.44H16.68ZM10.56 9.22L10.36 7.56C9.81333 7.68 9.27333 7.78 8.74 7.86C8.20667 7.92667 7.64 7.98667 7.04 8.04C6.45333 8.08 5.81333 8.10667 5.12 8.12C4.44 8.13333 3.67333 8.14 2.82 8.14V3.3H8.76V1.64H0.76V9.82H2.22C3.19333 9.82 4.06 9.81333 4.82 9.8C5.59333 9.77333 6.30667 9.74 6.96 9.7C7.61333 9.66 8.22667 9.6 8.8 9.52C9.38667 9.44 9.97333 9.34 10.56 9.22ZM2.58 11.56V18.32H14.12V11.56H2.58ZM4.62 16.66V13.18H12.1V16.66H4.62ZM33.7784 14.64H26.5984V11H31.8984V1.68H29.8584V4.72H21.2984V1.68H19.2584V11H24.5384V14.64H17.4184V16.34H33.7784V14.64ZM21.2984 9.34V6.38H29.8584V9.34H21.2984ZM50.2169 0.46H48.2569V7.6H46.1169V0.839999H44.1769V17.64H46.1169V9.28H48.2569V18.52H50.2169V0.46ZM37.4369 12.54V4.3H42.0969V2.62H35.4169V14.24H36.6169C37.2569 14.24 37.8569 14.2333 38.4169 14.22C38.9769 14.2067 39.5169 14.1867 40.0369 14.16C40.5702 14.12 41.0902 14.0667 41.5969 14C42.1169 13.9333 42.6502 13.8467 43.1969 13.74L43.0169 12.04C42.0835 12.2267 41.1769 12.3533 40.2969 12.42C39.4302 12.4867 38.4769 12.5267 37.4369 12.54ZM52.9753 6.14L53.5753 7.68C55.1886 7.57333 56.5753 7.3 57.7353 6.86C58.9086 6.42 59.782 5.82 60.3553 5.06C60.9286 5.82 61.802 6.42 62.9753 6.86C64.162 7.3 65.562 7.57333 67.1753 7.68L67.7353 6.14C65.9086 6.03333 64.4753 5.75333 63.4353 5.3C62.3953 4.83333 61.7753 4.24 61.5753 3.52H66.9153V1.98H61.3953V0.399999H59.3353V1.98H53.8353V3.52H59.1553C58.9553 4.24 58.3353 4.83333 57.2953 5.3C56.2553 5.75333 54.8153 6.03333 52.9753 6.14ZM61.3953 9.88H68.5353V8.34H52.2353V9.88H59.3353V11.28H54.1353V12.8H64.4753V14.06H54.1753V18.38H67.0153V16.84H56.2153V15.48H66.4953V11.28H61.3953V9.88Z" fill="black"/>
</svg>
