<svg width="71" height="16" viewBox="0 0 71 16" fill="none" xmlns="http://www.w3.org/2000/svg">
<path d="M11.388 7.584H13.756V6.496H11.388V0.832H10.076V15.216H11.388V7.584ZM2.268 10.512V3.296H7.628V2.208H0.956V11.632H2.092C4.78 11.632 6.7 11.552 8.876 11.12L8.732 10.032C6.668 10.416 4.828 10.512 2.268 10.512ZM26.3108 15.216V0.832H24.9988V15.216H26.3108ZM18.7428 1.936C16.6148 1.936 15.0948 3.888 15.0948 6.944C15.0948 10 16.6148 11.952 18.7428 11.952C20.8708 11.952 22.3908 10 22.3908 6.944C22.3908 3.888 20.8708 1.936 18.7428 1.936ZM18.7428 3.12C20.1348 3.12 21.1268 4.624 21.1268 6.944C21.1268 9.28 20.1348 10.784 18.7428 10.784C17.3348 10.784 16.3428 9.28 16.3428 6.944C16.3428 4.624 17.3348 3.12 18.7428 3.12ZM40.8975 9.776V0.848H39.6335V9.776H40.8975ZM35.0575 5.584H36.8175V9.68H38.0655V1.104H36.8175V4.512H35.0575V5.584ZM35.7295 8.672L35.5855 7.632C33.9375 7.968 32.5455 8.032 30.7055 8.048V5.92H34.4975V1.92H29.4095V2.976H33.2335V4.928H29.4415V9.104H30.3695C32.4175 9.104 33.9215 9.024 35.7295 8.672ZM40.8975 10.496H31.2975V11.552H39.5855V15.2H40.8975V10.496ZM44.6683 9.632H54.5243V8.576H45.9963V6.304H54.0603V5.264H45.9963V3.136H54.3803V2.08H44.6683V9.632ZM56.0123 13.328V12.256H42.9883V13.328H56.0123ZM70.231 10.096V9.024H64.391V7.456H68.871V6.432H60.183V4.864H68.567V1.296H58.855V2.32H67.271V3.888H58.887V7.456H63.063V9.024H57.207V10.096H70.231ZM68.871 13.968H60.231V11.072H58.919V15.04H68.871V13.968Z" fill="#AAAAAA"/>
</svg>
