<svg width="59" height="25" viewBox="0 0 59 25" fill="none" xmlns="http://www.w3.org/2000/svg">
<path d="M11.636 4.656H9.012V6.016H11.636V11.36H13.284V0.799999H11.636V4.656ZM9.092 9.312L9.908 8.032C9.364 7.84 8.87867 7.58933 8.452 7.28C8.036 6.97067 7.684 6.624 7.396 6.24C7.108 5.856 6.88933 5.45067 6.74 5.024C6.59067 4.58667 6.516 4.144 6.516 3.696V3.2H9.524V1.872H1.796V3.2H4.852V3.696C4.852 4.176 4.772 4.656 4.612 5.136C4.452 5.60533 4.21733 6.048 3.908 6.464C3.60933 6.86933 3.24133 7.23733 2.804 7.568C2.36667 7.888 1.86533 8.144 1.3 8.336L2.148 9.632C3.012 9.33333 3.74267 8.89067 4.34 8.304C4.93733 7.70667 5.396 7.008 5.716 6.208C6.02533 6.92267 6.46267 7.552 7.028 8.096C7.604 8.62933 8.292 9.03467 9.092 9.312ZM13.652 13.616H5.572V10.448H3.924V14.96H13.652V13.616ZM27.8548 0.783999H26.2868V15.232H27.8548V0.783999ZM23.3748 1.072V6.384H21.4228V7.728H23.3748V14.528H24.9268V1.072H23.3748ZM19.8708 5.2V4.688H22.3508V3.328H19.8708V1.28H18.3028V3.328H15.8068V4.688H18.3028V5.2C18.3028 5.776 18.2441 6.35733 18.1268 6.944C18.0094 7.52 17.8281 8.07467 17.5828 8.608C17.3374 9.13067 17.0281 9.61067 16.6548 10.048C16.2921 10.4853 15.8601 10.848 15.3588 11.136L16.3028 12.384C17.0068 11.9787 17.5828 11.4347 18.0308 10.752C18.4894 10.0693 18.8468 9.296 19.1028 8.432C19.3694 9.232 19.7321 9.94667 20.1908 10.576C20.6601 11.1947 21.2361 11.6907 21.9188 12.064L22.8308 10.832C22.3401 10.5653 21.9081 10.2293 21.5348 9.824C21.1614 9.408 20.8521 8.95467 20.6068 8.464C20.3614 7.96267 20.1748 7.43467 20.0468 6.88C19.9294 6.32533 19.8708 5.76533 19.8708 5.2ZM43.0815 4.352H41.0335V0.768H39.3855V9.456H41.0335V5.712H43.0815V4.352ZM37.2895 8.688L38.1535 7.392C37.6202 7.21067 37.1402 6.97067 36.7135 6.672C36.2975 6.37333 35.9455 6.03733 35.6575 5.664C35.3695 5.28 35.1508 4.86933 35.0015 4.432C34.8522 3.99467 34.7775 3.54133 34.7775 3.072V1.52H33.1135V2.944C33.1135 3.46667 33.0388 3.97867 32.8895 4.48C32.7402 4.97067 32.5162 5.42933 32.2175 5.856C31.9188 6.28267 31.5508 6.66133 31.1135 6.992C30.6762 7.32267 30.1748 7.584 29.6095 7.776L30.4895 9.088C31.3215 8.77867 32.0308 8.33067 32.6175 7.744C33.2042 7.15733 33.6575 6.464 33.9775 5.664C34.2868 6.34667 34.7188 6.95467 35.2735 7.488C35.8388 8.01067 36.5108 8.41067 37.2895 8.688ZM36.3775 9.808C35.6308 9.808 34.9588 9.872 34.3615 10C33.7748 10.1173 33.2735 10.2933 32.8575 10.528C32.4415 10.752 32.1215 11.0347 31.8975 11.376C31.6735 11.7067 31.5615 12.0853 31.5615 12.512C31.5615 12.9387 31.6735 13.3227 31.8975 13.664C32.1215 13.9947 32.4415 14.2773 32.8575 14.512C33.2735 14.7467 33.7748 14.9227 34.3615 15.04C34.9588 15.168 35.6308 15.232 36.3775 15.232C37.1348 15.232 37.8068 15.168 38.3935 15.04C38.9908 14.9227 39.4975 14.7467 39.9135 14.512C40.3295 14.2773 40.6442 13.9947 40.8575 13.664C41.0815 13.3227 41.1935 12.9387 41.1935 12.512C41.1935 11.6587 40.7668 10.9973 39.9135 10.528C39.0602 10.048 37.8815 9.808 36.3775 9.808ZM36.3775 13.936C35.3428 13.936 34.5535 13.8187 34.0095 13.584C33.4655 13.3493 33.1935 12.992 33.1935 12.512C33.1935 12.064 33.4655 11.7173 34.0095 11.472C34.5535 11.2267 35.3428 11.104 36.3775 11.104C37.4122 11.104 38.2015 11.2267 38.7455 11.472C39.2895 11.7173 39.5615 12.064 39.5615 12.512C39.5615 12.992 39.2895 13.3493 38.7455 13.584C38.2015 13.8187 37.4122 13.936 36.3775 13.936ZM47.1723 2.528V5.184H45.2043V6.512H55.7483V5.184H53.7963V2.528H55.8283V1.2H45.1243V2.528H47.1723ZM52.1483 2.528V5.184H48.8203V2.528H52.1483ZM51.3163 8.992H57.0283V7.664H43.9563V8.992H49.6683V10.464H45.5243V15.056H55.4443V10.464H51.3163V8.992ZM53.8283 11.776V13.744H47.1562V11.776H53.8283Z" fill="black"/>
<rect x="1" y="22" width="57" height="3" fill="#ED030D"/>
</svg>
