<svg width="71" height="16" viewBox="0 0 71 16" fill="none" xmlns="http://www.w3.org/2000/svg">
<path d="M11.388 7.728H13.756V6.624H11.388V0.848H10.076V15.184H11.388V7.728ZM5.18 5.216V3.392H8.364V2.304H0.604V3.392H3.884V5.216C3.884 7.648 2.156 10.368 0.108 11.392L0.876 12.432C2.476 11.632 3.9 9.76 4.54 7.68C5.18 9.6 6.54 11.264 8.14 12.08L8.892 11.024C6.812 10.048 5.18 7.504 5.18 5.216ZM27.5588 8.976V7.92H21.7188V6.256H26.0388V5.2H17.5108V2.544H25.9428V1.488H16.1988V6.256H20.4068V7.92H14.5668V8.976H27.5588ZM21.0628 10C17.9908 10 16.1348 10.928 16.1348 12.592C16.1348 14.256 17.9908 15.184 21.0628 15.184C24.1028 15.184 25.9588 14.256 25.9588 12.592C25.9588 10.928 24.1028 10 21.0628 10ZM21.0628 14.16C18.7428 14.16 17.4628 13.616 17.4628 12.592C17.4628 11.568 18.7428 11.024 21.0628 11.024C23.3188 11.024 24.6308 11.568 24.6308 12.592C24.6308 13.616 23.3188 14.16 21.0628 14.16ZM39.8255 7.824H42.1935V6.736H39.8255V0.832H38.5135V15.184H39.8255V7.824ZM33.5855 5.488V4.368H36.7695V3.312H33.5855V1.088H32.2735V3.312H29.0415V4.368H32.2895V5.488C32.2895 7.984 30.7535 10.4 28.6575 11.424L29.3935 12.416C31.0575 11.6 32.3215 9.984 32.9455 7.984C33.5695 9.856 34.7375 11.392 36.3375 12.16L37.0735 11.136C35.0095 10.144 33.5855 7.776 33.5855 5.488ZM55.1963 15.184V0.832H53.9323V6.592H51.9003V1.152H50.6683V14.464H51.9003V7.664H53.9323V15.184H55.1963ZM44.8123 10.56V3.648H48.8603V2.576H43.5163V11.648H44.4603C46.5883 11.648 48.0763 11.6 49.7723 11.216L49.6603 10.128C48.1083 10.464 46.7163 10.56 44.8123 10.56ZM57.911 5.568L58.295 6.56C60.727 6.384 62.823 5.632 63.719 4.304C64.615 5.632 66.711 6.384 69.111 6.56L69.511 5.568C66.839 5.392 64.663 4.496 64.455 3.088H68.871V2.096H64.375V0.735999H63.063V2.096H58.551V3.088H62.983C62.775 4.496 60.551 5.392 57.911 5.568ZM64.375 9.536V8.208H70.183V7.2H57.239V8.208H63.047V9.536H58.775V10.512H67.239V11.728H58.823V15.024H68.967V14.032H60.103V12.672H68.535V9.536H64.375Z" fill="#AAAAAA"/>
</svg>
