<svg width="45" height="25" viewBox="0 0 45 25" fill="none" xmlns="http://www.w3.org/2000/svg">
<path d="M21.984 6.322H18.656V0.497999H15.978V14.616H18.656V8.532H21.984V6.322ZM12.572 13.368L13.976 11.262C13.1093 10.9673 12.3293 10.5773 11.636 10.092C10.96 9.60667 10.388 9.06067 9.92 8.454C9.452 7.83 9.09667 7.16267 8.854 6.452C8.61133 5.74133 8.49 5.00467 8.49 4.242V1.72H5.786V4.034C5.786 4.88333 5.66467 5.71533 5.422 6.53C5.17933 7.32733 4.81533 8.07267 4.33 8.766C3.84467 9.45933 3.24667 10.0747 2.536 10.612C1.82533 11.1493 1.01067 11.574 0.0920001 11.886L1.522 14.018C2.874 13.5153 4.02667 12.7873 4.98 11.834C5.93333 10.8807 6.67 9.754 7.19 8.454C7.69267 9.56333 8.39467 10.5513 9.296 11.418C10.2147 12.2673 11.3067 12.9173 12.572 13.368ZM11.09 15.188C9.87667 15.188 8.78467 15.292 7.814 15.5C6.86067 15.6907 6.046 15.9767 5.37 16.358C4.694 16.722 4.174 17.1813 3.81 17.736C3.446 18.2733 3.264 18.8887 3.264 19.582C3.264 20.2753 3.446 20.8993 3.81 21.454C4.174 21.9913 4.694 22.4507 5.37 22.832C6.046 23.2133 6.86067 23.4993 7.814 23.69C8.78467 23.898 9.87667 24.002 11.09 24.002C12.3207 24.002 13.4127 23.898 14.366 23.69C15.3367 23.4993 16.16 23.2133 16.836 22.832C17.512 22.4507 18.0233 21.9913 18.37 21.454C18.734 20.8993 18.916 20.2753 18.916 19.582C18.916 18.1953 18.2227 17.1207 16.836 16.358C15.4493 15.578 13.534 15.188 11.09 15.188ZM11.09 21.896C9.40867 21.896 8.126 21.7053 7.242 21.324C6.358 20.9427 5.916 20.362 5.916 19.582C5.916 18.854 6.358 18.2907 7.242 17.892C8.126 17.4933 9.40867 17.294 11.09 17.294C12.7713 17.294 14.054 17.4933 14.938 17.892C15.822 18.2907 16.264 18.854 16.264 19.582C16.264 20.362 15.822 20.9427 14.938 21.324C14.054 21.7053 12.7713 21.896 11.09 21.896ZM28.944 3.358V7.674H25.746V9.832H42.88V7.674H39.708V3.358H43.01V1.2H25.616V3.358H28.944ZM37.03 3.358V7.674H31.622V3.358H37.03ZM35.678 13.862H44.96V11.704H23.718V13.862H33V16.254H26.266V23.716H42.386V16.254H35.678V13.862ZM39.76 18.386V21.584H28.918V18.386H39.76Z" fill="black"/>
</svg>
