<svg width="30" height="18" viewBox="0 0 30 18" fill="none" xmlns="http://www.w3.org/2000/svg">
<path d="M9.86741 3.85V2.5H6.17741V0.987999H4.30541V2.5H0.579407V3.85H9.86741ZM15.2674 7.468V5.938H13.0354V1.15H11.1814V12.13H13.0354V7.468H15.2674ZM10.4614 11.068L10.3174 9.772C9.65741 9.868 8.97941 9.946 8.28341 10.006C7.59941 10.054 6.89741 10.096 6.17741 10.132V9.124C7.07741 9.016 7.78541 8.764 8.30141 8.368C8.82941 7.96 9.09341 7.432 9.09341 6.784C9.09341 6.4 8.99741 6.058 8.80541 5.758C8.62541 5.458 8.36741 5.206 8.03141 5.002C7.69541 4.798 7.28741 4.642 6.80741 4.534C6.33941 4.414 5.81141 4.354 5.22341 4.354C4.63541 4.354 4.10141 4.414 3.62141 4.534C3.15341 4.642 2.75141 4.798 2.41541 5.002C2.07941 5.206 1.81541 5.458 1.62341 5.758C1.44341 6.058 1.35341 6.4 1.35341 6.784C1.35341 7.432 1.61141 7.96 2.12741 8.368C2.64341 8.776 3.36941 9.028 4.30541 9.124V10.204C3.54941 10.228 2.82341 10.24 2.12741 10.24H0.165407L0.381407 11.716C1.08941 11.716 1.85141 11.71 2.66741 11.698C3.48341 11.686 4.32341 11.662 5.18741 11.626C6.06341 11.578 6.94541 11.512 7.83341 11.428C8.72141 11.344 9.59741 11.224 10.4614 11.068ZM3.09941 6.784C3.09941 6.412 3.29141 6.124 3.67541 5.92C4.05941 5.704 4.57541 5.596 5.22341 5.596C5.87141 5.596 6.38741 5.704 6.77141 5.92C7.15541 6.124 7.34741 6.412 7.34741 6.784C7.34741 7.144 7.15541 7.426 6.77141 7.63C6.38741 7.834 5.87141 7.936 5.22341 7.936C4.57541 7.936 4.05941 7.834 3.67541 7.63C3.29141 7.426 3.09941 7.144 3.09941 6.784ZM2.18141 12.85V14.326H11.1814V17.404H13.0354V12.85H2.18141ZM29.36 12.94V1.132H27.506V12.94H29.36ZM24.896 6.28C24.896 5.68 24.788 5.134 24.572 4.642C24.356 4.138 24.05 3.706 23.654 3.346C23.27 2.986 22.814 2.71 22.286 2.518C21.77 2.314 21.206 2.212 20.594 2.212C19.982 2.212 19.412 2.314 18.884 2.518C18.356 2.71 17.9 2.986 17.516 3.346C17.132 3.706 16.826 4.138 16.598 4.642C16.382 5.134 16.274 5.68 16.274 6.28C16.274 6.868 16.382 7.414 16.598 7.918C16.826 8.41 17.132 8.836 17.516 9.196C17.9 9.556 18.356 9.838 18.884 10.042C19.412 10.246 19.982 10.348 20.594 10.348C21.206 10.348 21.77 10.246 22.286 10.042C22.814 9.838 23.27 9.556 23.654 9.196C24.05 8.836 24.356 8.41 24.572 7.918C24.788 7.414 24.896 6.868 24.896 6.28ZM18.092 6.28C18.092 5.524 18.326 4.924 18.794 4.48C19.274 4.036 19.874 3.814 20.594 3.814C20.954 3.814 21.284 3.874 21.584 3.994C21.884 4.102 22.148 4.264 22.376 4.48C22.604 4.696 22.778 4.954 22.898 5.254C23.03 5.554 23.096 5.896 23.096 6.28C23.096 6.652 23.03 6.988 22.898 7.288C22.778 7.588 22.604 7.846 22.376 8.062C22.148 8.278 21.884 8.446 21.584 8.566C21.284 8.686 20.954 8.746 20.594 8.746C20.234 8.746 19.898 8.686 19.586 8.566C19.286 8.446 19.022 8.278 18.794 8.062C18.578 7.846 18.404 7.588 18.272 7.288C18.152 6.988 18.092 6.652 18.092 6.28ZM29.828 15.568H20.612V11.752H18.74V17.08H29.828V15.568Z" fill="white"/>
</svg>
