<svg width="280" height="35" viewBox="0 0 280 35" fill="none" xmlns="http://www.w3.org/2000/svg">
<path d="M11.4529 4.692V3.74H9.60489V0.478H8.44289V7.954H9.60489V4.692H11.4529ZM7.25289 6.512L7.12689 5.574C5.47489 5.91 4.03289 6.008 1.54089 6.008V2.368H5.95089V1.444H0.406889V6.946H1.38689C4.03289 6.946 5.54489 6.848 7.25289 6.512ZM5.60089 8.206C3.05289 8.206 1.45689 9.102 1.45689 10.614C1.45689 12.126 3.05289 13.022 5.60089 13.022C8.13489 13.022 9.73089 12.126 9.73089 10.614C9.73089 9.102 8.13489 8.206 5.60089 8.206ZM5.60089 12.098C3.73889 12.098 2.59089 11.566 2.59089 10.614C2.59089 9.662 3.73889 9.13 5.60089 9.13C7.46289 9.13 8.59689 9.662 8.59689 10.614C8.59689 11.566 7.46289 12.098 5.60089 12.098ZM21.6858 6.526H23.7578V5.574H21.6858V0.492H20.5378V13.036H21.6858V6.526ZM16.2398 3.824V1.57H15.1058V3.824C15.1058 6.106 13.6778 8.5 11.8718 9.438L12.5578 10.362C13.9718 9.578 15.1338 8.066 15.6798 6.204C16.2398 7.94 17.3738 9.396 18.7178 10.11L19.4318 9.2C17.6818 8.304 16.2398 6.022 16.2398 3.824ZM37.2896 13.022V0.478H36.1836V5.588H34.4056V0.758H33.3276V12.392H34.4056V6.54H36.1836V13.022H37.2896ZM28.3996 8.78V2.004H27.2516V9.774H28.0496C29.4076 9.774 30.8496 9.704 32.5436 9.382L32.4316 8.388C30.9196 8.682 29.6316 8.766 28.3996 8.78ZM40.2425 6.414H48.7545V0.981999H47.6065V2.704H41.3765V0.981999H40.2425V6.414ZM41.3765 3.628H47.6065V5.476H41.3765V3.628ZM45.0445 8.85H50.1965V7.926H38.8005V8.85H43.8965V13.05H45.0445V8.85ZM61.2974 13.036V0.478H60.1494V13.036H61.2974ZM57.6154 1.836H51.7354V2.76H56.4534C56.2154 5.742 54.5354 8.15 51.1614 9.76L51.7774 10.698C55.9634 8.64 57.6154 5.462 57.6154 1.836ZM63.8583 5.112L64.2923 6.036C66.3083 5.742 68.1843 4.706 68.8563 3.264C69.5283 4.706 71.3763 5.742 73.4203 6.036L73.8403 5.112C71.6283 4.818 69.5983 3.586 69.5983 2.046V2.032H73.5043V1.108H64.2083V2.032H68.1143V2.046C68.1143 3.572 66.0983 4.818 63.8583 5.112ZM74.5403 7.87V6.946H63.1443V7.87H68.3663V10.418H69.5143V7.87H74.5403ZM73.2803 11.818H65.7483V9.2H64.6003V12.756H73.2803V11.818ZM81.0212 1.262C78.4172 1.262 76.4572 2.662 76.4572 4.734C76.4572 6.834 78.4172 8.206 81.0212 8.206C83.6252 8.206 85.5852 6.834 85.5852 4.734C85.5852 2.662 83.6252 1.262 81.0212 1.262ZM81.0212 2.2C82.9952 2.2 84.4932 3.222 84.4932 4.734C84.4932 6.26 82.9952 7.268 81.0212 7.268C79.0472 7.268 77.5492 6.26 77.5492 4.734C77.5492 3.222 79.0472 2.2 81.0212 2.2ZM86.7472 11.37V10.418H75.3372V11.37H86.7472ZM98.9261 11.482V10.544H93.7881V8.178H97.8061V7.254H90.0781V5.224H97.5121V1.402H88.9161V2.34H96.3921V4.3H88.9441V8.178H92.6261V10.544H87.5161V11.482H98.9261ZM111.296 9.662H112.444V0.492H111.296V9.662ZM108.986 4.44C108.986 2.634 107.558 1.36 105.696 1.36C103.834 1.36 102.434 2.634 102.434 4.44C102.434 6.26 103.834 7.548 105.696 7.548C107.558 7.548 108.986 6.26 108.986 4.44ZM103.554 4.44C103.554 3.222 104.464 2.354 105.696 2.354C106.942 2.354 107.866 3.222 107.866 4.44C107.866 5.686 106.942 6.554 105.696 6.554C104.464 6.554 103.554 5.686 103.554 4.44ZM112.822 12.756V11.818H105.514V8.724H104.366V12.756H112.822ZM124.959 13.022V0.463999H123.853V5.77H122.243V0.758H121.165V12.42H122.243V6.708H123.853V13.022H124.959ZM120.535 2.62H117.987V0.841999H116.853V2.62H114.305V3.558H120.535V2.62ZM117.427 4.398C115.873 4.398 114.739 5.574 114.739 7.254C114.739 8.962 115.873 10.124 117.427 10.124C118.981 10.124 120.115 8.962 120.115 7.254C120.115 5.574 118.981 4.398 117.427 4.398ZM117.427 9.172C116.461 9.172 115.761 8.374 115.761 7.254C115.761 6.134 116.419 5.364 117.427 5.364C118.393 5.364 119.093 6.162 119.093 7.254C119.093 8.374 118.393 9.172 117.427 9.172ZM134.585 6.484C137.203 6.484 138.981 5.406 138.981 3.726C138.981 2.06 137.203 0.981999 134.585 0.981999C131.967 0.981999 130.203 2.06 130.203 3.726C130.203 5.406 131.967 6.484 134.585 6.484ZM134.585 1.906C136.503 1.906 137.805 2.606 137.805 3.726C137.805 4.846 136.503 5.56 134.585 5.56C132.681 5.56 131.379 4.846 131.379 3.726C131.379 2.606 132.681 1.906 134.585 1.906ZM135.159 8.626H140.297V7.674H128.929V8.626H134.011V13.05H135.159V8.626ZM151.439 6.19L151.915 5.266C149.633 4.93 147.393 3.376 147.393 1.626V0.926H146.189V1.626C146.189 3.432 143.991 4.93 141.695 5.266L142.157 6.19C144.103 5.854 146.007 4.776 146.791 3.25C147.617 4.776 149.479 5.854 151.439 6.19ZM147.337 8.5H152.475L152.461 7.548H141.121V8.5H146.189V13.05H147.337V8.5ZM154.49 2.676H162.148V2.984C162.148 4.482 162.162 6.274 161.672 8.668L162.82 8.794C163.31 6.26 163.296 4.552 163.296 2.984V1.738H154.49V2.676ZM164.654 11.272V10.334H158.858V5.84H157.71V10.334H153.3V11.272H164.654ZM176.063 7.87V0.492H174.957V3.642H173.305V0.715999H172.213V7.814H173.305V4.58H174.957V7.87H176.063ZM170.925 1.416H166.025V2.34H169.749C169.539 4.426 168.153 6.106 165.535 7.17L166.095 8.01C169.315 6.652 170.925 4.454 170.925 1.416ZM176.063 8.472H167.621V9.41H174.915V13.036H176.063V8.472ZM190.743 13.036V0.478H189.637V5.518H187.859V0.758H186.781V12.406H187.859V6.456H189.637V13.036H190.743ZM181.657 8.99V2.942H185.199V2.004H180.523V9.942H181.349C183.211 9.942 184.513 9.9 185.997 9.564L185.899 8.612C184.541 8.906 183.323 8.99 181.657 8.99ZM192.856 4.622L193.192 5.49C195.32 5.336 197.154 4.678 197.938 3.516C198.722 4.678 200.556 5.336 202.656 5.49L203.006 4.622C200.668 4.468 198.764 3.684 198.582 2.452H202.446V1.584H198.512V0.393999H197.364V1.584H193.416V2.452H197.294C197.112 3.684 195.166 4.468 192.856 4.622ZM198.512 8.094V6.932H203.594V6.05H192.268V6.932H197.35V8.094H193.612V8.948H201.018V10.012H193.654V12.896H202.53V12.028H194.774V10.838H202.152V8.094H198.512ZM214.709 13.064V0.478H213.561V13.064H214.709ZM208.087 1.444C206.225 1.444 204.895 3.152 204.895 5.826C204.895 8.5 206.225 10.208 208.087 10.208C209.949 10.208 211.279 8.5 211.279 5.826C211.279 3.152 209.949 1.444 208.087 1.444ZM208.087 2.48C209.305 2.48 210.173 3.796 210.173 5.826C210.173 7.87 209.305 9.186 208.087 9.186C206.855 9.186 205.987 7.87 205.987 5.826C205.987 3.796 206.855 2.48 208.087 2.48ZM220.541 4.818H228.913V0.674H227.779V1.864H221.675V0.674H220.541V4.818ZM221.675 2.732H227.779V3.936H221.675V2.732ZM225.287 7.996V6.764H230.397V5.84H219.029V6.764H224.139V7.996H220.401V8.864H227.807V9.956H220.443V12.896H229.319V12.014H221.563V10.796H228.941V7.996H225.287ZM240.881 6.526H242.897V5.574H240.881V0.478H239.733V13.036H240.881V6.526ZM237.633 1.822H231.893V2.774H236.499C236.233 5.798 234.567 8.122 231.305 9.76L231.935 10.656C235.995 8.64 237.633 5.392 237.633 1.822ZM243.442 2.69H250.848V1.766H247.712V0.352H246.564V1.766H243.442V2.69ZM253.144 4.636H255.006V3.67H253.144V0.478H251.996V7.772H253.144V4.636ZM250.148 5.476C250.148 4.146 248.93 3.292 247.138 3.292C245.346 3.292 244.142 4.146 244.142 5.476C244.142 6.82 245.346 7.674 247.138 7.674C248.93 7.674 250.148 6.82 250.148 5.476ZM245.234 5.476C245.234 4.636 245.962 4.146 247.138 4.146C248.314 4.146 249.056 4.636 249.056 5.476C249.056 6.316 248.314 6.806 247.138 6.806C245.962 6.806 245.234 6.316 245.234 5.476ZM253.144 8.332H252.01V9.662H246.382V8.332H245.248V12.868H253.144V8.332ZM246.382 10.558H252.01V11.944H246.382V10.558ZM265.869 13.022V0.478H264.721V13.022H265.869ZM257.511 8.808V1.696H256.363V9.788H257.399C259.415 9.788 261.361 9.648 263.559 9.2L263.433 8.22C261.347 8.654 259.429 8.808 257.511 8.808ZM277.418 6.386H279.49V5.434H277.418V0.478H276.27V13.064H277.418V6.386ZM269.438 8.948V2.634H274.128V1.682H268.29V9.928H269.284C271.636 9.928 273.316 9.858 275.22 9.48L275.094 8.528C273.288 8.864 271.678 8.948 269.438 8.948ZM25.5887 29.402V27.428H30.7127V26.504H28.9347C29.2567 24.992 29.2567 23.872 29.2567 22.92V22.01H20.7867V22.948H28.1227C28.1227 23.9 28.1227 24.992 27.7727 26.504H19.3307V27.428H24.4267V29.402C22.0047 29.514 20.6467 30.298 20.6467 31.698C20.6467 33.21 22.2287 34.022 25.0147 34.022C27.7027 34.022 29.3407 33.196 29.3407 31.698C29.3407 30.298 27.9827 29.514 25.5887 29.402ZM28.1927 31.698C28.1927 32.594 26.9887 33.098 25.0147 33.098C22.9847 33.098 21.7947 32.594 21.7947 31.698C21.7947 30.802 22.9847 30.312 25.0147 30.312C26.9887 30.312 28.1927 30.802 28.1927 31.698ZM42.9056 27.694V26.77H41.0996C41.4356 25.188 41.4356 24.068 41.4356 23.074V22.15H32.9516V23.074H40.3016C40.3016 24.068 40.2876 25.202 39.9376 26.77H31.4956V27.694H42.9056ZM41.4776 29.402H32.9096V33.868H41.4776V29.402ZM40.3436 32.944H34.0296V30.326H40.3436V32.944ZM43.7305 23.942H51.1365V23.018H48.0005V21.492H46.8525V23.018H43.7305V23.942ZM55.2945 26.588V25.622H53.4325V21.492H52.2845V30.9H53.4325V26.588H55.2945ZM50.4365 26.966C50.4365 25.566 49.2185 24.642 47.4265 24.642C45.6485 24.642 44.4305 25.566 44.4305 26.966C44.4305 28.38 45.6485 29.304 47.4265 29.304C49.2185 29.304 50.4365 28.38 50.4365 26.966ZM45.5225 26.966C45.5225 26.07 46.2505 25.538 47.4265 25.538C48.5605 25.538 49.3445 26.07 49.3445 26.966C49.3445 27.862 48.5605 28.408 47.4265 28.408C46.2505 28.408 45.5225 27.862 45.5225 26.966ZM53.9925 32.818H46.7685V30.158H45.6205V33.756H53.9925V32.818ZM67.9582 27.526H70.0302V26.574H67.9582V21.492H66.8102V34.036H67.9582V27.526ZM62.5122 24.824V22.57H61.3782V24.824C61.3782 27.106 59.9502 29.5 58.1442 30.438L58.8302 31.362C60.2442 30.578 61.4062 29.066 61.9522 27.204C62.5122 28.94 63.6462 30.396 64.9902 31.11L65.7042 30.2C63.9542 29.304 62.5122 27.022 62.5122 24.824ZM70.5192 23.816H77.9252V22.892H74.7892V21.366H73.6412V22.892H70.5192V23.816ZM82.0832 25.916V24.964H80.2212V21.478H79.0732V29.556H80.2212V25.916H82.0832ZM77.2252 26.658C77.2252 25.314 76.0072 24.446 74.2152 24.446C72.4232 24.446 71.2192 25.314 71.2192 26.658C71.2192 28.016 72.4232 28.884 74.2152 28.884C76.0072 28.884 77.2252 28.016 77.2252 26.658ZM72.3112 26.658C72.3112 25.818 73.0812 25.314 74.2152 25.314C75.3912 25.314 76.1332 25.818 76.1332 26.658C76.1332 27.498 75.3912 28.016 74.2152 28.016C73.0812 28.016 72.3112 27.498 72.3112 26.658ZM76.2872 29.682C73.7532 29.682 72.1992 30.466 72.1992 31.852C72.1992 33.238 73.7532 34.022 76.2872 34.022C78.8072 34.022 80.3752 33.224 80.3752 31.852C80.3752 30.466 78.8072 29.682 76.2872 29.682ZM76.2872 33.14C74.4252 33.14 73.3332 32.692 73.3332 31.852C73.3332 31.012 74.4252 30.564 76.2872 30.564C78.1492 30.564 79.2412 31.012 79.2412 31.852C79.2412 32.692 78.1492 33.14 76.2872 33.14ZM92.9321 34.064V21.478H91.7841V34.064H92.9321ZM86.3101 22.444C84.4481 22.444 83.1181 24.152 83.1181 26.826C83.1181 29.5 84.4481 31.208 86.3101 31.208C88.1721 31.208 89.5021 29.5 89.5021 26.826C89.5021 24.152 88.1721 22.444 86.3101 22.444ZM86.3101 23.48C87.5281 23.48 88.3961 24.796 88.3961 26.826C88.3961 28.87 87.5281 30.186 86.3101 30.186C85.0781 30.186 84.2101 28.87 84.2101 26.826C84.2101 24.796 85.0781 23.48 86.3101 23.48ZM106.422 28.66H107.57V21.492H106.422V28.66ZM100.822 28.072C102.726 28.072 104.112 26.882 104.112 25.146C104.112 23.41 102.726 22.22 100.822 22.22C98.9318 22.22 97.5598 23.41 97.5598 25.146C97.5598 26.882 98.9318 28.072 100.822 28.072ZM100.822 23.172C102.068 23.172 102.992 23.984 102.992 25.146C102.992 26.308 102.068 27.12 100.822 27.12C99.5758 27.12 98.6798 26.308 98.6798 25.146C98.6798 23.984 99.5758 23.172 100.822 23.172ZM106.17 29.878V29.206H105.05V29.878C105.05 30.858 104.448 32.104 103.244 32.86C102.068 32.174 101.508 30.998 101.508 29.878V29.206H100.402V29.878C100.402 31.096 99.4638 32.44 97.8818 33L98.4558 33.868C99.6318 33.42 100.486 32.552 100.934 31.544C101.312 32.608 102.04 33.49 103.272 33.98C104.448 33.476 105.204 32.524 105.596 31.502C106.03 32.566 106.884 33.42 108.116 33.868L108.69 33C107.08 32.482 106.17 31.18 106.17 29.878ZM115.115 22.262C112.511 22.262 110.551 23.662 110.551 25.734C110.551 27.834 112.511 29.206 115.115 29.206C117.719 29.206 119.679 27.834 119.679 25.734C119.679 23.662 117.719 22.262 115.115 22.262ZM115.115 23.2C117.089 23.2 118.587 24.222 118.587 25.734C118.587 27.26 117.089 28.268 115.115 28.268C113.141 28.268 111.643 27.26 111.643 25.734C111.643 24.222 113.141 23.2 115.115 23.2ZM120.841 32.37V31.418H109.431V32.37H120.841ZM131.9 34.064V21.478H130.752V34.064H131.9ZM126.076 24.824V22.57H124.942V24.824C124.942 27.232 123.402 29.598 121.568 30.494L122.268 31.432C123.738 30.648 124.942 29.136 125.516 27.218C126.118 29.024 127.294 30.48 128.75 31.194L129.436 30.27C127.588 29.444 126.076 27.12 126.076 24.824ZM134.377 28.436H140.103V27.316H142.987V30.648H144.149V21.492H142.987V23.69H140.103V22.584H134.377V28.436ZM135.511 23.494H138.983V27.526H135.511V23.494ZM140.103 26.378V24.628H142.987V26.378H140.103ZM144.443 33.756V32.818H137.219V29.836H136.071V33.756H144.443ZM160.018 25.678V24.726H158.156V21.492H157.008V29.094H158.156V25.678H160.018ZM155.062 28.282L155.664 27.386C153.872 26.784 152.626 25.188 152.626 23.508V22.122H151.478V23.41C151.478 25.3 150.26 27.05 148.356 27.722L148.958 28.632C150.428 28.072 151.548 26.924 152.066 25.454C152.626 26.742 153.704 27.778 155.062 28.282ZM154.166 29.444C151.604 29.444 150.022 30.284 150.022 31.74C150.022 33.196 151.604 34.022 154.166 34.022C156.7 34.022 158.296 33.196 158.296 31.74C158.296 30.284 156.7 29.444 154.166 29.444ZM154.166 33.126C152.304 33.126 151.17 32.636 151.17 31.74C151.17 30.844 152.304 30.34 154.166 30.34C156.028 30.34 157.148 30.844 157.148 31.74C157.148 32.636 156.028 33.126 154.166 33.126ZM170.335 25.496H172.197V24.544H170.335V21.464H169.187V28.59H170.335V25.496ZM167.983 27.442L167.857 26.518C166.219 26.854 164.791 26.938 162.313 26.938V23.242H166.695V22.318H161.165V27.89H162.145C164.791 27.89 166.261 27.778 167.983 27.442ZM170.335 29.262H162.453V33.854H170.335V29.262ZM169.201 32.93H163.573V30.172H169.201V32.93ZM178.44 26.042C181.198 26.042 182.85 25.286 182.85 23.872C182.85 22.458 181.198 21.688 178.44 21.688C175.682 21.688 174.03 22.458 174.03 23.872C174.03 25.286 175.682 26.042 178.44 26.042ZM178.44 22.556C180.526 22.556 181.674 23.032 181.674 23.872C181.674 24.712 180.526 25.188 178.44 25.188C176.354 25.188 175.206 24.712 175.206 23.872C175.206 23.032 176.354 22.556 178.44 22.556ZM184.124 27.82V26.896H172.756V27.82H184.124ZM183.046 33H175.29V31.726H182.668V28.898H174.128V29.766H181.534V30.886H174.17V33.896H183.046V33ZM196.536 30.676H197.684V21.492H196.536V30.676ZM194.492 28.884L195.052 27.974C193.204 27.372 191.902 25.818 191.902 24.138V23.452H194.744V22.528H187.856V23.452H190.726V24.138C190.726 25.944 189.452 27.554 187.548 28.226L188.15 29.122C189.662 28.576 190.782 27.484 191.328 26.028C191.902 27.372 193.036 28.38 194.492 28.884ZM198.062 33.756V32.818H190.754V29.808H189.606V33.756H198.062ZM206.363 28.982H207.455V25.832H209.051V29.43H210.157V21.478H209.051V24.894H207.455V21.73H206.363V28.982ZM199.489 23.886H205.873V22.976H203.255V21.576H202.121V22.976H199.489V23.886ZM205.369 26.686C205.369 25.398 204.277 24.544 202.695 24.544C201.113 24.544 200.007 25.398 200.007 26.686C200.007 27.988 201.113 28.842 202.695 28.842C204.277 28.842 205.369 27.988 205.369 26.686ZM201.043 26.686C201.043 25.902 201.687 25.398 202.695 25.398C203.703 25.398 204.347 25.902 204.347 26.686C204.347 27.47 203.703 27.988 202.695 27.988C201.687 27.988 201.043 27.47 201.043 26.686ZM206.027 29.64C203.409 29.64 201.827 30.438 201.827 31.838C201.827 33.238 203.409 34.022 206.027 34.022C208.645 34.022 210.227 33.238 210.227 31.838C210.227 30.438 208.645 29.64 206.027 29.64ZM206.027 33.14C204.109 33.14 202.961 32.678 202.961 31.838C202.961 30.998 204.109 30.522 206.027 30.522C207.945 30.522 209.079 30.998 209.079 31.838C209.079 32.678 207.945 33.14 206.027 33.14ZM222.378 34.022V21.464H221.272V26.77H219.662V21.758H218.584V33.42H219.662V27.708H221.272V34.022H222.378ZM217.954 23.62H215.406V21.842H214.272V23.62H211.724V24.558H217.954V23.62ZM214.846 25.398C213.292 25.398 212.158 26.574 212.158 28.254C212.158 29.962 213.292 31.124 214.846 31.124C216.4 31.124 217.534 29.962 217.534 28.254C217.534 26.574 216.4 25.398 214.846 25.398ZM214.846 30.172C213.88 30.172 213.18 29.374 213.18 28.254C213.18 27.134 213.838 26.364 214.846 26.364C215.812 26.364 216.512 27.162 216.512 28.254C216.512 29.374 215.812 30.172 214.846 30.172ZM224.603 26.672L225.037 27.582C226.997 27.246 228.817 26.21 229.601 24.712C230.343 26.21 232.219 27.246 234.165 27.582L234.613 26.672C232.401 26.336 230.231 24.908 230.231 23.256V23.186H234.165V22.262H224.995V23.186H228.957V23.256C228.957 24.908 226.787 26.336 224.603 26.672ZM230.147 29.57H235.285L235.271 28.632H223.931V29.57H228.999V34.036H230.147V29.57ZM246.764 34.036V21.478H245.672V34.036H246.764ZM244.202 21.758H243.124V25.986H241.052V26.938H243.124V33.42H244.202V21.758ZM239.82 25.02V22.668H238.714V25.062C238.714 27.232 237.678 29.472 235.956 30.48L236.67 31.348C237.916 30.564 238.826 29.178 239.274 27.484C239.722 29.01 240.562 30.34 241.752 31.068L242.41 30.172C240.772 29.164 239.82 27.036 239.82 25.02ZM259.67 32.426V31.474H256.856V28.072C257.92 27.526 258.508 26.63 258.508 25.496C258.508 23.55 256.618 22.276 253.944 22.276C251.284 22.276 249.38 23.55 249.38 25.496C249.38 26.63 249.996 27.54 251.06 28.086V31.474H248.26V32.426H259.67ZM253.944 23.172C255.96 23.172 257.416 24.096 257.416 25.496C257.416 26.896 255.96 27.82 253.944 27.82C251.928 27.82 250.486 26.896 250.486 25.496C250.486 24.096 251.928 23.172 253.944 23.172ZM255.708 31.474H252.208V28.52C252.754 28.646 253.328 28.716 253.944 28.716C254.518 28.716 255.106 28.646 255.708 28.52V31.474Z" fill="#666666"/>
</svg>
