<svg width="314" height="11" viewBox="0 0 314 11" fill="none" xmlns="http://www.w3.org/2000/svg">
<path d="M2.25296 2.716L1.49696 3.964L2.02496 4.348L2.97296 3.208L3.92096 4.348L4.44896 3.964L3.68096 2.716L4.98896 2.176L4.78496 1.564L3.41696 1.888L3.29696 0.447999H2.64896L2.52896 1.9L1.16096 1.564L0.944956 2.176L2.25296 2.716ZM14.9585 10.888V0.124H14.0105V4.444H12.4865V0.364H11.5625V10.348H12.4865V5.248H14.0105V10.888H14.9585ZM7.17052 7.42V2.236H10.2065V1.432H6.19852V8.236H6.90652C8.50252 8.236 9.61852 8.2 10.8905 7.912L10.8065 7.096C9.64252 7.348 8.59852 7.42 7.17052 7.42ZM16.7696 3.676L17.0576 4.42C18.8816 4.288 20.4536 3.724 21.1256 2.728C21.7976 3.724 23.3696 4.288 25.1696 4.42L25.4696 3.676C23.4656 3.544 21.8336 2.872 21.6776 1.816H24.9896V1.072H21.6176V0.0519993H20.6336V1.072H17.2496V1.816H20.5736C20.4176 2.872 18.7496 3.544 16.7696 3.676ZM21.6176 6.652V5.656H25.9736V4.9H16.2656V5.656H20.6216V6.652H17.4176V7.384H23.7656V8.296H17.4536V10.768H25.0616V10.024H18.4136V9.004H24.7376V6.652H21.6176ZM36.6406 3.724V2.908H35.0446V0.136H34.0606V6.652H35.0446V3.724H36.6406ZM32.3926 5.956L32.9086 5.188C31.3726 4.672 30.3046 3.304 30.3046 1.864V0.676H29.3206V1.78C29.3206 3.4 28.2766 4.9 26.6446 5.476L27.1606 6.256C28.4206 5.776 29.3806 4.792 29.8246 3.532C30.3046 4.636 31.2286 5.524 32.3926 5.956ZM31.6246 6.952C29.4286 6.952 28.0726 7.672 28.0726 8.92C28.0726 10.168 29.4286 10.876 31.6246 10.876C33.7966 10.876 35.1646 10.168 35.1646 8.92C35.1646 7.672 33.7966 6.952 31.6246 6.952ZM31.6246 10.108C30.0286 10.108 29.0566 9.688 29.0566 8.92C29.0566 8.152 30.0286 7.72 31.6246 7.72C33.2206 7.72 34.1806 8.152 34.1806 8.92C34.1806 9.688 33.2206 10.108 31.6246 10.108ZM45.4837 3.568H47.0797V2.752H45.4837V0.111999H44.4997V6.22H45.4837V3.568ZM43.4677 5.236L43.3597 4.444C41.9557 4.732 40.7317 4.804 38.6077 4.804V1.636H42.3637V0.844H37.6237V5.62H38.4637C40.7317 5.62 41.9917 5.524 43.4677 5.236ZM45.4837 6.796H38.7277V10.732H45.4837V6.796ZM44.5117 9.94H39.6877V7.576H44.5117V9.94ZM52.4308 4.036C54.7948 4.036 56.2108 3.388 56.2108 2.176C56.2108 0.964 54.7948 0.304 52.4308 0.304C50.0668 0.304 48.6508 0.964 48.6508 2.176C48.6508 3.388 50.0668 4.036 52.4308 4.036ZM52.4308 1.048C54.2188 1.048 55.2028 1.456 55.2028 2.176C55.2028 2.896 54.2188 3.304 52.4308 3.304C50.6428 3.304 49.6588 2.896 49.6588 2.176C49.6588 1.456 50.6428 1.048 52.4308 1.048ZM57.3028 5.56V4.768H47.5588V5.56H57.3028ZM56.3788 10H49.7308V8.908H56.0548V6.484H48.7348V7.228H55.0828V8.188H48.7708V10.768H56.3788V10ZM68.9254 10.9V0.136H67.9414V10.9H68.9254ZM63.6214 5.056C65.2174 5.056 66.3574 4.156 66.3574 2.848C66.3574 1.54 65.2174 0.628 63.6214 0.628C62.0254 0.628 60.8734 1.54 60.8734 2.848C60.8734 4.156 62.0254 5.056 63.6214 5.056ZM63.6214 1.444C64.6774 1.444 65.4094 1.984 65.4094 2.848C65.4094 3.712 64.6774 4.252 63.6214 4.252C62.5654 4.252 61.8214 3.676 61.8214 2.848C61.8214 2.02 62.5654 1.444 63.6214 1.444ZM67.2454 6.316L67.1614 5.584C64.7974 5.932 62.0854 5.968 60.0694 5.968L60.2014 6.796C61.1134 6.796 62.1094 6.784 63.1774 6.736V10.552H64.1614V6.676C65.2054 6.616 66.2254 6.496 67.2454 6.316ZM70.5685 2.236H76.9165V1.444H74.2285V0.136H73.2445V1.444H70.5685V2.236ZM80.4805 4.504V3.676H78.8845V0.136H77.9005V8.2H78.8845V4.504H80.4805ZM76.3165 4.828C76.3165 3.628 75.2725 2.836 73.7365 2.836C72.2125 2.836 71.1685 3.628 71.1685 4.828C71.1685 6.04 72.2125 6.832 73.7365 6.832C75.2725 6.832 76.3165 6.04 76.3165 4.828ZM72.1045 4.828C72.1045 4.06 72.7285 3.604 73.7365 3.604C74.7085 3.604 75.3805 4.06 75.3805 4.828C75.3805 5.596 74.7085 6.064 73.7365 6.064C72.7285 6.064 72.1045 5.596 72.1045 4.828ZM79.3645 9.844H73.1725V7.564H72.1885V10.648H79.3645V9.844ZM90.9031 8.02H91.8871V0.124H90.9031V8.02ZM89.0191 6.268L89.5351 5.488C87.9511 4.912 86.8471 3.436 86.8471 1.816V0.723999H85.8631V1.816C85.8631 3.496 84.7951 5.068 83.1631 5.68L83.6791 6.484C84.9391 5.956 85.8991 4.912 86.3671 3.604C86.8471 4.852 87.7711 5.8 89.0191 6.268ZM92.2111 10.648V9.844H85.9471V7.288H84.9631V10.648H92.2111ZM103.226 6.244V5.452H100.826V3.928C101.654 3.592 102.134 3.04 102.134 2.32C102.134 1.072 100.694 0.316 98.3542 0.316C96.0262 0.316 94.5742 1.072 94.5742 2.32C94.5742 3.052 95.0182 3.592 95.8942 3.94V5.452H93.4822V6.244H103.226ZM95.5822 2.32C95.5822 1.54 96.6142 1.084 98.3542 1.084C100.094 1.084 101.126 1.54 101.126 2.32C101.126 3.088 100.094 3.556 98.3542 3.556C96.6142 3.556 95.5822 3.088 95.5822 2.32ZM99.8542 5.452H96.8662V4.192C97.3102 4.276 97.8142 4.312 98.3542 4.312C98.9302 4.312 99.4342 4.276 99.8542 4.192V5.452ZM98.3542 7.048C96.0502 7.048 94.6702 7.732 94.6702 8.968C94.6702 10.204 96.0502 10.876 98.3542 10.876C100.67 10.876 102.038 10.204 102.038 8.968C102.038 7.732 100.67 7.048 98.3542 7.048ZM98.3542 10.12C96.6622 10.12 95.6662 9.7 95.6662 8.968C95.6662 8.236 96.6622 7.816 98.3542 7.816C100.046 7.816 101.042 8.236 101.042 8.968C101.042 9.7 100.046 10.12 98.3542 10.12ZM104.401 5.668L104.821 6.472C106.417 6.124 108.145 5.068 108.817 3.568C109.489 5.032 111.217 6.1 112.849 6.424L113.245 5.632C111.373 5.344 109.321 3.856 109.321 2.14V1.912H112.885V1.108H104.737V1.912H108.301V2.14C108.301 3.868 106.261 5.344 104.401 5.668ZM113.701 9.508V8.692H109.309V6.088H108.325V8.692H103.933V9.508H113.701ZM114.66 2.236H121.2V1.444H118.428V0.136H117.444V1.444H114.66V2.236ZM123.144 10.888V0.136H122.16V10.888H123.144ZM118.428 7.936V6.808C119.724 6.652 120.516 5.908 120.516 4.84C120.516 3.628 119.472 2.848 117.936 2.848C116.388 2.848 115.344 3.628 115.344 4.84C115.344 5.944 116.148 6.664 117.444 6.82V7.972C116.376 8.008 115.344 8.02 114.432 8.02L114.576 8.848C116.568 8.848 119.148 8.8 121.548 8.416L121.476 7.684C120.468 7.816 119.448 7.888 118.428 7.936ZM116.28 4.84C116.28 4.072 116.928 3.604 117.936 3.604C118.908 3.604 119.58 4.072 119.58 4.84C119.58 5.608 118.908 6.064 117.936 6.064C116.928 6.064 116.28 5.608 116.28 4.84ZM127.927 2.008H134.491V2.272C134.491 3.556 134.503 5.092 134.083 7.144L135.067 7.252C135.487 5.08 135.475 3.616 135.475 2.272V1.204H127.927V2.008ZM136.639 9.376V8.572H131.671V4.72H130.687V8.572H126.907V9.376H136.639ZM146.418 6.46V0.136H145.47V2.836H144.054V0.327999H143.118V6.412H144.054V3.64H145.47V6.46H146.418ZM142.014 0.927999H137.814V1.72H141.006C140.826 3.508 139.638 4.948 137.394 5.86L137.874 6.58C140.634 5.416 142.014 3.532 142.014 0.927999ZM146.418 6.976H139.182V7.78H145.434V10.888H146.418V6.976ZM156.593 6.22V0.111999H155.609V6.22H156.593ZM154.577 4.912L154.445 4.096C152.753 4.444 151.193 4.576 149.417 4.576V0.748H148.433V5.404H149.309C151.169 5.404 152.789 5.26 154.577 4.912ZM156.593 6.736H149.633V10.732H156.593V6.736ZM155.633 9.94H150.593V7.516H155.633V9.94ZM166.984 10.912V0.124H166V10.912H166.984ZM161.704 0.916C160.036 0.916 158.824 1.948 158.824 3.448C158.824 4.948 160.036 5.98 161.704 5.98C163.384 5.98 164.584 4.948 164.584 3.448C164.584 1.948 163.384 0.916 161.704 0.916ZM161.704 1.756C162.82 1.756 163.624 2.44 163.624 3.448C163.624 4.444 162.82 5.14 161.704 5.14C160.588 5.14 159.784 4.444 159.784 3.448C159.784 2.44 160.588 1.756 161.704 1.756ZM158.284 7.72L158.404 8.548C160.36 8.548 162.94 8.524 165.376 8.08L165.292 7.348C162.916 7.696 160.264 7.72 158.284 7.72ZM178.583 8.02H179.567V0.124H178.583V8.02ZM176.699 6.268L177.215 5.488C175.631 4.912 174.527 3.436 174.527 1.816V0.723999H173.543V1.816C173.543 3.496 172.475 5.068 170.843 5.68L171.359 6.484C172.619 5.956 173.579 4.912 174.047 3.604C174.527 4.852 175.451 5.8 176.699 6.268ZM179.891 10.648V9.844H173.627V7.288H172.643V10.648H179.891ZM190.906 6.244V5.452H188.506V3.928C189.334 3.592 189.814 3.04 189.814 2.32C189.814 1.072 188.374 0.316 186.034 0.316C183.706 0.316 182.254 1.072 182.254 2.32C182.254 3.052 182.698 3.592 183.574 3.94V5.452H181.162V6.244H190.906ZM183.262 2.32C183.262 1.54 184.294 1.084 186.034 1.084C187.774 1.084 188.806 1.54 188.806 2.32C188.806 3.088 187.774 3.556 186.034 3.556C184.294 3.556 183.262 3.088 183.262 2.32ZM187.534 5.452H184.546V4.192C184.99 4.276 185.494 4.312 186.034 4.312C186.61 4.312 187.114 4.276 187.534 4.192V5.452ZM186.034 7.048C183.73 7.048 182.35 7.732 182.35 8.968C182.35 10.204 183.73 10.876 186.034 10.876C188.35 10.876 189.718 10.204 189.718 8.968C189.718 7.732 188.35 7.048 186.034 7.048ZM186.034 10.12C184.342 10.12 183.346 9.7 183.346 8.968C183.346 8.236 184.342 7.816 186.034 7.816C187.726 7.816 188.722 8.236 188.722 8.968C188.722 9.7 187.726 10.12 186.034 10.12ZM201.381 9.532V8.716H196.977V5.956H200.253V5.164H193.833V1.792H200.145V0.987999H192.849V5.956H195.981V8.716H191.601V9.532H201.381ZM211.196 10.888V0.124H210.26V10.888H211.196ZM209.06 0.364H208.124V4.312H206.768C206.636 2.284 205.784 1.024 204.488 1.024C203.084 1.024 202.184 2.452 202.184 4.756C202.184 7.084 203.084 8.524 204.488 8.524C205.808 8.524 206.672 7.228 206.768 5.116H208.124V10.36H209.06V0.364ZM204.488 7.612C203.624 7.612 203.084 6.544 203.084 4.756C203.084 3.028 203.624 1.936 204.488 1.936C205.316 1.936 205.88 3.028 205.88 4.756C205.88 6.544 205.352 7.612 204.488 7.612ZM219.687 4.96H222.447V6.496H223.443V0.124H222.447V1.672H219.687C219.195 1.108 218.427 0.771999 217.515 0.771999C215.919 0.771999 214.743 1.816 214.743 3.316C214.743 4.828 215.919 5.884 217.515 5.884C218.427 5.884 219.195 5.536 219.687 4.96ZM215.679 3.316C215.679 2.308 216.459 1.6 217.515 1.6C218.571 1.6 219.339 2.308 219.339 3.316C219.339 4.324 218.571 5.044 217.515 5.044C216.459 5.044 215.679 4.324 215.679 3.316ZM220.143 2.476H222.447V4.156H220.131C220.227 3.892 220.275 3.616 220.275 3.316C220.275 3.04 220.227 2.764 220.143 2.476ZM219.879 6.748C217.671 6.748 216.303 7.504 216.303 8.812C216.303 10.12 217.671 10.876 219.879 10.876C222.087 10.876 223.479 10.12 223.479 8.812C223.479 7.504 222.087 6.748 219.879 6.748ZM219.879 10.096C218.235 10.096 217.275 9.628 217.275 8.812C217.275 7.996 218.235 7.516 219.879 7.516C221.523 7.516 222.507 7.996 222.507 8.812C222.507 9.628 221.523 10.096 219.879 10.096ZM225.05 2.128H231.398V1.336H228.71V0.0279996H227.726V1.336H225.05V2.128ZM233.366 4.276V2.788H234.938V1.984H233.366V0.124H232.382V7.048H233.366V5.092H234.938V4.276H233.366ZM230.798 4.564C230.798 3.412 229.754 2.668 228.218 2.668C226.682 2.668 225.65 3.412 225.65 4.564C225.65 5.728 226.682 6.472 228.218 6.472C229.754 6.472 230.798 5.728 230.798 4.564ZM226.586 4.564C226.586 3.844 227.21 3.412 228.218 3.412C229.226 3.412 229.862 3.844 229.862 4.564C229.862 5.284 229.226 5.728 228.218 5.728C227.21 5.728 226.586 5.284 226.586 4.564ZM229.994 7.156C227.822 7.156 226.49 7.828 226.49 9.016C226.49 10.204 227.822 10.876 229.994 10.876C232.154 10.876 233.498 10.192 233.498 9.016C233.498 7.828 232.154 7.156 229.994 7.156ZM229.994 10.12C228.398 10.12 227.462 9.736 227.462 9.016C227.462 8.296 228.398 7.912 229.994 7.912C231.59 7.912 232.526 8.296 232.526 9.016C232.526 9.736 231.59 10.12 229.994 10.12ZM240.313 4.036C242.677 4.036 244.093 3.388 244.093 2.176C244.093 0.964 242.677 0.304 240.313 0.304C237.949 0.304 236.533 0.964 236.533 2.176C236.533 3.388 237.949 4.036 240.313 4.036ZM240.313 1.048C242.101 1.048 243.085 1.456 243.085 2.176C243.085 2.896 242.101 3.304 240.313 3.304C238.525 3.304 237.541 2.896 237.541 2.176C237.541 1.456 238.525 1.048 240.313 1.048ZM245.185 5.56V4.768H235.441V5.56H245.185ZM244.261 10H237.613V8.908H243.937V6.484H236.617V7.228H242.965V8.188H236.653V10.768H244.261V10ZM248.563 4.576L248.935 5.356C250.615 5.068 252.175 4.18 252.847 2.896C253.483 4.18 255.091 5.068 256.759 5.356L257.143 4.576C255.247 4.288 253.387 3.064 253.387 1.648V1.588H256.759V0.796H248.899V1.588H252.295V1.648C252.295 3.064 250.435 4.288 248.563 4.576ZM253.315 7.06H257.719L257.707 6.256H247.987V7.06H252.331V10.888H253.315V7.06ZM267.223 10.888V0.136H266.239V10.888H267.223ZM262.255 3.412V2.044H264.787V1.228H258.775V2.044H261.271V3.412C261.271 5.272 259.963 7.288 258.415 8.032L258.991 8.824C260.191 8.224 261.283 6.832 261.763 5.272C262.279 6.748 263.335 7.984 264.583 8.56L265.135 7.768C263.551 7.096 262.255 5.236 262.255 3.412ZM280.885 3.352V2.536H279.289V0.124H278.305V5.488H279.289V3.352H280.885ZM276.697 3.22C276.697 1.744 275.521 0.736 273.925 0.736C272.329 0.736 271.141 1.744 271.141 3.22C271.141 4.696 272.329 5.704 273.925 5.704C275.521 5.704 276.697 4.696 276.697 3.22ZM272.101 3.22C272.101 2.236 272.881 1.54 273.925 1.54C274.945 1.54 275.737 2.236 275.737 3.22C275.737 4.204 274.945 4.9 273.925 4.9C272.881 4.9 272.101 4.204 272.101 3.22ZM280.357 6.724H278.137V5.752H277.177V6.724H274.945V7.456H280.357V6.724ZM273.025 9.796V6.652H272.065V10.612H272.581C273.313 10.612 274.321 10.552 275.341 10.216L275.185 9.436C274.417 9.676 273.649 9.76 273.025 9.796ZM277.657 7.84C276.505 7.84 275.665 8.44 275.665 9.352C275.665 10.312 276.493 10.876 277.657 10.876C278.821 10.876 279.649 10.312 279.649 9.352C279.649 8.44 278.809 7.84 277.657 7.84ZM277.657 10.18C276.985 10.18 276.541 9.844 276.541 9.352C276.541 8.86 276.985 8.536 277.657 8.536C278.329 8.536 278.773 8.86 278.773 9.352C278.773 9.844 278.329 10.18 277.657 10.18ZM290.196 4.276L290.556 3.484C288.636 3.256 286.752 2.032 286.752 0.723999V0.244H285.744V0.723999C285.744 2.092 283.86 3.256 281.928 3.484L282.288 4.276C283.98 4.024 285.564 3.172 286.248 1.972C286.932 3.172 288.528 4.024 290.196 4.276ZM291.108 5.824V5.032H281.364V5.824H291.108ZM289.836 6.568H288.864V7.828H283.572V6.568H282.6V10.744H289.836V6.568ZM283.572 8.584H288.864V9.952H283.572V8.584ZM300.635 10.876V0.124H299.651V10.876H300.635ZM293.471 7.264V1.168H292.487V8.104H293.375C295.103 8.104 296.771 7.984 298.655 7.6L298.547 6.76C296.759 7.132 295.115 7.264 293.471 7.264ZM310.534 5.188H312.31V4.372H310.534V0.124H309.55V10.912H310.534V5.188ZM303.694 7.384V1.972H307.714V1.156H302.71V8.224H303.562C305.578 8.224 307.018 8.164 308.65 7.84L308.542 7.024C306.994 7.312 305.614 7.384 303.694 7.384ZM313.653 9.04H312.561V10.168H313.653V9.04Z" fill="#B09887"/>
</svg>
