<svg width="37" height="14" viewBox="0 0 37 14" fill="none" xmlns="http://www.w3.org/2000/svg">
<path d="M11.046 7.576V0.478H9.898V7.576H11.046ZM7.322 1.276H1.54V2.214H6.09C5.866 4.328 3.934 6.008 0.882 6.792L1.344 7.702C4.998 6.736 7.322 4.468 7.322 1.276ZM11.046 8.178H2.926V12.854H11.046V8.178ZM9.912 11.93H4.046V9.088H9.912V11.93ZM14.3489 6.414H22.8609V0.981999H21.7129V2.704H15.4829V0.981999H14.3489V6.414ZM15.4829 3.628H21.7129V5.476H15.4829V3.628ZM19.1509 8.85H24.3029V7.926H12.9069V8.85H18.0029V13.05H19.1509V8.85ZM36.7058 5.28V4.328H34.8438V0.463999H33.6958V9.746H34.8438V5.28H36.7058ZM31.8478 7.702L32.4218 6.792C30.5738 6.12 29.3278 4.538 29.3278 2.816V1.234H28.1798V2.788C28.1798 4.734 26.9618 6.428 25.0438 7.1L25.6458 8.01C27.1578 7.45 28.2638 6.33 28.7818 4.818C29.3418 6.162 30.4338 7.184 31.8478 7.702ZM35.3898 11.818H28.2078V8.864H27.0598V12.756H35.3898V11.818Z" fill="black"/>
</svg>
