<svg width="210" height="70" viewBox="0 0 210 70" fill="none" xmlns="http://www.w3.org/2000/svg">
<path d="M21.294 3.524H18.746V12.702H16.068V4.148H13.546V25.91H16.068V14.886H18.746V27.002H21.294V3.524ZM11.414 6.488H2.184V8.672H8.762C8.67533 9.83333 8.46733 10.9513 8.138 12.026C7.826 13.0833 7.36667 14.0973 6.76 15.068C6.17067 16.0387 5.41667 16.9573 4.498 17.824C3.57933 18.6733 2.47867 19.462 1.196 20.19L2.756 22.088C4.40267 21.1347 5.78067 20.0773 6.89 18.916C7.99933 17.7547 8.88333 16.5153 9.542 15.198C10.218 13.8807 10.6947 12.494 10.972 11.038C11.2667 9.56467 11.414 8.048 11.414 6.488ZM43.288 20.58V3.524H40.61V20.58H43.288ZM36.84 10.96C36.84 10.0933 36.684 9.30467 36.372 8.594C36.06 7.866 35.618 7.242 35.046 6.722C34.4913 6.202 33.8326 5.80333 33.07 5.526C32.3246 5.23133 31.51 5.084 30.626 5.084C29.742 5.084 28.9186 5.23133 28.156 5.526C27.3933 5.80333 26.7346 6.202 26.18 6.722C25.6253 7.242 25.1833 7.866 24.854 8.594C24.542 9.30467 24.386 10.0933 24.386 10.96C24.386 11.8093 24.542 12.598 24.854 13.326C25.1833 14.0367 25.6253 14.652 26.18 15.172C26.7346 15.692 27.3933 16.0993 28.156 16.394C28.9186 16.6887 29.742 16.836 30.626 16.836C31.51 16.836 32.3246 16.6887 33.07 16.394C33.8326 16.0993 34.4913 15.692 35.046 15.172C35.618 14.652 36.06 14.0367 36.372 13.326C36.684 12.598 36.84 11.8093 36.84 10.96ZM27.012 10.96C27.012 9.868 27.35 9.00133 28.026 8.36C28.7193 7.71867 29.586 7.398 30.626 7.398C31.146 7.398 31.6226 7.48467 32.056 7.658C32.4893 7.814 32.8706 8.048 33.2 8.36C33.5293 8.672 33.7806 9.04467 33.954 9.478C34.1446 9.91133 34.24 10.4053 34.24 10.96C34.24 11.4973 34.1446 11.9827 33.954 12.416C33.7806 12.8493 33.5293 13.222 33.2 13.534C32.8706 13.846 32.4893 14.0887 32.056 14.262C31.6226 14.4353 31.146 14.522 30.626 14.522C30.106 14.522 29.6206 14.4353 29.17 14.262C28.7366 14.0887 28.3553 13.846 28.026 13.534C27.714 13.222 27.4626 12.8493 27.272 12.416C27.0986 11.9827 27.012 11.4973 27.012 10.96ZM43.964 24.376H30.652V18.864H27.948V26.56H43.964V24.376ZM63.3319 9.426H59.1719V11.61H63.3319V17.512H66.0099V3.524H63.3319V9.426ZM59.1979 16.758L60.5239 14.652C59.6399 14.34 58.8513 13.9413 58.1579 13.456C57.4819 12.9533 56.9099 12.39 56.4419 11.766C55.9739 11.142 55.6186 10.4747 55.3759 9.764C55.1333 9.05333 55.0119 8.32533 55.0119 7.58V7.268H59.8999V5.11H47.3419V7.268H52.3079V7.606C52.3079 8.40333 52.1779 9.192 51.9179 9.972C51.6579 10.752 51.2853 11.48 50.7999 12.156C50.3146 12.832 49.7166 13.4387 49.0059 13.976C48.2953 14.496 47.4806 14.9207 46.5619 15.25L47.9399 17.382C49.3439 16.8793 50.5313 16.1427 51.5019 15.172C52.4726 14.184 53.2179 13.04 53.7379 11.74C54.2406 12.884 54.9513 13.898 55.8699 14.782C56.7886 15.6487 57.8979 16.3073 59.1979 16.758ZM58.2099 18.136C56.9793 18.136 55.8699 18.24 54.8819 18.448C53.9113 18.6387 53.0793 18.9247 52.3859 19.306C51.7099 19.6873 51.1899 20.1553 50.8259 20.71C50.4619 21.2473 50.2799 21.8713 50.2799 22.582C50.2799 23.2753 50.4619 23.8993 50.8259 24.454C51.1899 25.0087 51.7099 25.4767 52.3859 25.858C53.0793 26.2393 53.9113 26.5253 54.8819 26.716C55.8699 26.924 56.9793 27.028 58.2099 27.028C59.4406 27.028 60.5413 26.924 61.5119 26.716C62.4826 26.5253 63.3059 26.2393 63.9819 25.858C64.6753 25.4767 65.2039 25.0087 65.5679 24.454C65.9319 23.8993 66.1139 23.2753 66.1139 22.582C66.1139 21.8713 65.9319 21.2473 65.5679 20.71C65.2039 20.1553 64.6753 19.6873 63.9819 19.306C63.3059 18.9247 62.4826 18.6387 61.5119 18.448C60.5413 18.24 59.4406 18.136 58.2099 18.136ZM58.2099 24.948C56.5286 24.948 55.2286 24.7487 54.3099 24.35C53.4086 23.9513 52.9579 23.362 52.9579 22.582C52.9579 21.802 53.4086 21.2127 54.3099 20.814C55.2286 20.4153 56.5286 20.216 58.2099 20.216C59.8913 20.216 61.1826 20.4153 62.0839 20.814C62.9853 21.2127 63.4359 21.802 63.4359 22.582C63.4359 23.362 62.9853 23.9513 62.0839 24.35C61.1826 24.7487 59.8913 24.948 58.2099 24.948ZM90.4479 21.932H81.1139V17.2H88.0039V5.084H85.3519V9.036H74.2239V5.084H71.5719V17.2H78.4359V21.932H69.1799V24.142H90.4479V21.932ZM74.2239 15.042V11.194H85.3519V15.042H74.2239ZM107.736 5.942V7.528H94.5019V12.806H110.804V10.934H97.1279V9.27H110.388V4.096H94.4499V5.942H107.736ZM113.066 14.288H91.7719V16.264H113.066V14.288ZM96.9459 24.896V23.102H110.466V17.85H94.2419V19.696H107.814V21.36H94.2939V26.742H111.168V24.896H96.9459ZM132.736 7.45V5.5H127.406V3.316H124.702V5.5H119.32V7.45H132.736ZM140.536 12.676V10.466H137.312V3.55H134.634V19.41H137.312V12.676H140.536ZM133.594 17.876L133.386 16.004C132.433 16.1427 131.454 16.2553 130.448 16.342C129.46 16.4113 128.446 16.472 127.406 16.524V15.068C128.706 14.912 129.729 14.548 130.474 13.976C131.237 13.3867 131.618 12.624 131.618 11.688C131.618 11.1333 131.48 10.6393 131.202 10.206C130.942 9.77267 130.57 9.40867 130.084 9.114C129.599 8.81933 129.01 8.594 128.316 8.438C127.64 8.26467 126.878 8.178 126.028 8.178C125.179 8.178 124.408 8.26467 123.714 8.438C123.038 8.594 122.458 8.81933 121.972 9.114C121.487 9.40867 121.106 9.77267 120.828 10.206C120.568 10.6393 120.438 11.1333 120.438 11.688C120.438 12.624 120.811 13.3867 121.556 13.976C122.302 14.5653 123.35 14.9293 124.702 15.068V16.628C123.61 16.6627 122.562 16.68 121.556 16.68H118.722L119.034 18.812C120.057 18.812 121.158 18.8033 122.336 18.786C123.515 18.7687 124.728 18.734 125.976 18.682C127.242 18.6127 128.516 18.5173 129.798 18.396C131.081 18.2747 132.346 18.1013 133.594 17.876ZM122.96 11.688C122.96 11.1507 123.238 10.7347 123.792 10.44C124.347 10.128 125.092 9.972 126.028 9.972C126.964 9.972 127.71 10.128 128.264 10.44C128.819 10.7347 129.096 11.1507 129.096 11.688C129.096 12.208 128.819 12.6153 128.264 12.91C127.71 13.2047 126.964 13.352 126.028 13.352C125.092 13.352 124.347 13.2047 123.792 12.91C123.238 12.6153 122.96 12.208 122.96 11.688ZM121.634 20.45V22.582H134.634V27.028H137.312V20.45H121.634ZM160.892 20.58V3.524H158.214V20.58H160.892ZM154.444 10.96C154.444 10.0933 154.288 9.30467 153.976 8.594C153.664 7.866 153.222 7.242 152.65 6.722C152.096 6.202 151.437 5.80333 150.674 5.526C149.929 5.23133 149.114 5.084 148.23 5.084C147.346 5.084 146.523 5.23133 145.76 5.526C144.998 5.80333 144.339 6.202 143.784 6.722C143.23 7.242 142.788 7.866 142.458 8.594C142.146 9.30467 141.99 10.0933 141.99 10.96C141.99 11.8093 142.146 12.598 142.458 13.326C142.788 14.0367 143.23 14.652 143.784 15.172C144.339 15.692 144.998 16.0993 145.76 16.394C146.523 16.6887 147.346 16.836 148.23 16.836C149.114 16.836 149.929 16.6887 150.674 16.394C151.437 16.0993 152.096 15.692 152.65 15.172C153.222 14.652 153.664 14.0367 153.976 13.326C154.288 12.598 154.444 11.8093 154.444 10.96ZM144.616 10.96C144.616 9.868 144.954 9.00133 145.63 8.36C146.324 7.71867 147.19 7.398 148.23 7.398C148.75 7.398 149.227 7.48467 149.66 7.658C150.094 7.814 150.475 8.048 150.804 8.36C151.134 8.672 151.385 9.04467 151.558 9.478C151.749 9.91133 151.844 10.4053 151.844 10.96C151.844 11.4973 151.749 11.9827 151.558 12.416C151.385 12.8493 151.134 13.222 150.804 13.534C150.475 13.846 150.094 14.0887 149.66 14.262C149.227 14.4353 148.75 14.522 148.23 14.522C147.71 14.522 147.225 14.4353 146.774 14.262C146.341 14.0887 145.96 13.846 145.63 13.534C145.318 13.222 145.067 12.8493 144.876 12.416C144.703 11.9827 144.616 11.4973 144.616 10.96ZM161.568 24.376H148.256V18.864H145.552V26.56H161.568V24.376ZM188.727 8.23V6.098H180.615V3.446H177.937V6.098H169.721V8.23H188.727ZM171.463 13.352C171.463 14.6173 172.156 15.5967 173.543 16.29C174.929 16.9833 176.845 17.33 179.289 17.33C181.733 17.33 183.648 16.9833 185.035 16.29C186.421 15.5967 187.115 14.6173 187.115 13.352C187.115 12.0693 186.421 11.09 185.035 10.414C183.648 9.72067 181.733 9.374 179.289 9.374C176.845 9.374 174.929 9.72067 173.543 10.414C172.156 11.09 171.463 12.0693 171.463 13.352ZM184.307 13.352C184.307 14.6693 182.634 15.328 179.289 15.328C175.926 15.328 174.245 14.6693 174.245 13.352C174.245 12.052 175.926 11.402 179.289 11.402C182.634 11.402 184.307 12.052 184.307 13.352ZM189.949 20.892V18.734H168.655V20.892H177.937V27.028H180.615V20.892H189.949Z" fill="black"/>
<path d="M19.266 49.468V45.724H22.854V44.528H19.266V40.706H17.888V54.486H19.266V50.638H22.854V49.468H19.266ZM13.806 47.518C13.806 44.294 11.336 42.136 7.93 42.136C4.498 42.136 2.08 44.294 2.08 47.518C2.08 50.742 4.498 52.848 7.93 52.848C11.336 52.848 13.806 50.742 13.806 47.518ZM3.406 47.518C3.406 45.1 5.33 43.332 7.93 43.332C10.556 43.332 12.454 45.1 12.454 47.518C12.454 49.91 10.556 51.678 7.93 51.678C5.33 51.678 3.406 49.91 3.406 47.518ZM19.266 55.682H4.498V56.852H17.888V63.82H19.266V55.682ZM45.42 49.702V48.506H41.78V40.732H40.402V58.178H41.78V49.702H45.42ZM34.682 50.404L36.06 50.534C36.71 47.388 36.71 45.126 36.71 43.67V42.604H25.478V43.748H35.358C35.358 45.204 35.384 47.284 34.682 50.404ZM38.79 53.238L38.686 52.172C36.164 52.562 33.408 52.718 30.704 52.822V47.596H29.326V52.874C27.428 52.952 25.634 52.926 24.048 52.926L24.23 54.148C28.312 54.148 33.954 53.992 38.79 53.238ZM42.534 62.078H29.066V56.54H27.688V63.248H42.534V62.078ZM66.2179 63.82V40.706H64.8919V63.82H66.2179ZM61.6939 41.278H60.3679V49.988H56.8059C56.5979 45.62 54.7519 42.812 51.9179 42.812C49.0059 42.812 47.0559 45.854 47.0559 50.638C47.0559 55.422 49.0059 58.464 51.9179 58.464C54.7779 58.464 56.6759 55.656 56.8059 51.158H60.3679V62.572H61.6939V41.278ZM51.9179 57.216C49.7599 57.216 48.3299 54.512 48.3299 50.638C48.3299 46.79 49.7599 44.06 51.9179 44.06C54.0759 44.06 55.5059 46.79 55.5059 50.638C55.5059 54.512 54.0759 57.216 51.9179 57.216ZM94.6776 53.576V52.406H84.8756V49.312H92.1816V48.142H77.8296V42.968H91.9996V41.798H76.4776V49.312H83.5236V52.406H73.7996V53.576H94.6776ZM84.2256 55.552C79.3376 55.552 76.3736 57.034 76.3736 59.66C76.3736 62.338 79.3376 63.768 84.2256 63.768C89.1136 63.768 92.0776 62.338 92.0776 59.66C92.0776 57.034 89.1136 55.552 84.2256 55.552ZM84.2256 62.65C80.2736 62.65 77.7516 61.532 77.7516 59.66C77.7516 57.788 80.2736 56.67 84.2256 56.67C88.1776 56.67 90.6996 57.788 90.6996 59.66C90.6996 61.532 88.1776 62.65 84.2256 62.65ZM114.93 63.846V40.732H113.552V63.846H114.93ZM103.932 42.5C100.318 42.5 97.8475 44.632 97.8475 47.778C97.8475 50.924 100.318 53.056 103.932 53.056C107.546 53.056 110.016 50.924 110.016 47.778C110.016 44.632 107.546 42.5 103.932 42.5ZM103.932 43.696C106.714 43.696 108.69 45.386 108.69 47.778C108.69 50.17 106.714 51.86 103.932 51.86C101.15 51.86 99.1735 50.17 99.1735 47.778C99.1735 45.386 101.15 43.696 103.932 43.696ZM96.5475 57.32L96.7815 58.516C101.02 58.516 106.714 58.516 112.044 57.554L111.914 56.488C106.766 57.32 100.864 57.32 96.5475 57.32ZM138.406 63.82V40.732H137.054V50.664H133.388V41.304H132.036V62.598H133.388V51.834H137.054V63.82H138.406ZM130.684 44.97H125.51V41.434H124.132V44.97H118.984V46.14H130.684V44.97ZM124.808 47.986C122 47.986 119.92 50.092 119.92 53.108C119.92 56.15 122 58.256 124.808 58.256C127.668 58.256 129.722 56.15 129.722 53.108C129.722 50.092 127.668 47.986 124.808 47.986ZM124.808 57.06C122.702 57.06 121.168 55.344 121.168 53.108C121.168 50.924 122.702 49.156 124.808 49.156C126.966 49.156 128.474 50.924 128.474 53.108C128.474 55.344 126.966 57.06 124.808 57.06ZM143.005 50.664L143.551 51.808C146.801 51.184 150.701 49.078 152.079 46.114C153.379 49.078 157.383 51.184 160.581 51.808L161.127 50.664C157.695 50.118 152.807 47.414 152.807 43.982V43.462H160.451V42.292H143.655V43.462H151.325V43.982C151.325 47.388 146.437 50.118 143.005 50.664ZM152.729 55.266H162.505L162.531 54.122H141.627V55.266H151.351V63.768H152.729V55.266ZM183.771 63.82V40.732H182.445V63.82H183.771ZM179.039 41.304H177.713V49.312H173.371V50.482H177.713V62.598H179.039V41.304ZM170.745 47.7V42.994H169.445V47.726C169.445 51.678 167.131 55.838 164.089 57.58L164.999 58.62C167.391 57.164 169.289 54.382 170.121 51.054C170.953 54.096 172.773 56.748 175.061 58.126L175.945 57.06C172.955 55.318 170.745 51.314 170.745 47.7ZM207.819 60.7V59.53H202.333V52.874C204.335 51.86 205.557 50.248 205.557 48.168C205.557 44.632 202.151 42.396 197.289 42.396C192.479 42.396 189.047 44.632 189.047 48.168C189.047 50.248 190.243 51.886 192.323 52.9V59.53H186.863V60.7H207.819ZM190.347 48.168C190.347 45.386 193.311 43.514 197.289 43.514C201.319 43.514 204.257 45.386 204.257 48.168C204.257 50.898 201.319 52.796 197.289 52.796C193.311 52.796 190.347 50.898 190.347 48.168ZM200.955 59.53H193.701V53.42C194.767 53.732 195.963 53.914 197.289 53.914C198.641 53.914 199.889 53.732 200.955 53.42V59.53Z" fill="black"/>
</svg>
