<svg width="161" height="16" viewBox="0 0 161 16" fill="none" xmlns="http://www.w3.org/2000/svg">
<path d="M13.888 8.56H8.16V7.168H12.192V1.328H10.56V2.976H4.128V1.328H2.496V7.168H6.496V8.56H0.784V9.888H13.888V8.56ZM4.128 5.856V4.256H10.56V5.856H4.128ZM4.112 13.616V10.912H2.448V14.96H12.416V13.616H4.112ZM26.6388 11.28V0.783999H24.9908V11.28H26.6388ZM22.6708 5.36C22.6708 4.82667 22.5748 4.34133 22.3828 3.904C22.1908 3.456 21.9188 3.072 21.5668 2.752C21.2254 2.432 20.8201 2.18667 20.3507 2.016C19.8921 1.83467 19.3908 1.744 18.8468 1.744C18.3027 1.744 17.7961 1.83467 17.3268 2.016C16.8574 2.18667 16.4521 2.432 16.1107 2.752C15.7694 3.072 15.4974 3.456 15.2947 3.904C15.1027 4.34133 15.0067 4.82667 15.0067 5.36C15.0067 5.88267 15.1027 6.368 15.2947 6.816C15.4974 7.25333 15.7694 7.632 16.1107 7.952C16.4521 8.272 16.8574 8.52267 17.3268 8.704C17.7961 8.88533 18.3027 8.976 18.8468 8.976C19.3908 8.976 19.8921 8.88533 20.3507 8.704C20.8201 8.52267 21.2254 8.272 21.5668 7.952C21.9188 7.632 22.1908 7.25333 22.3828 6.816C22.5748 6.368 22.6708 5.88267 22.6708 5.36ZM16.6228 5.36C16.6228 4.688 16.8307 4.15467 17.2467 3.76C17.6734 3.36533 18.2068 3.168 18.8468 3.168C19.1668 3.168 19.4601 3.22133 19.7267 3.328C19.9934 3.424 20.2281 3.568 20.4307 3.76C20.6334 3.952 20.7881 4.18133 20.8948 4.448C21.0121 4.71467 21.0708 5.01867 21.0708 5.36C21.0708 5.69067 21.0121 5.98933 20.8948 6.256C20.7881 6.52267 20.6334 6.752 20.4307 6.944C20.2281 7.136 19.9934 7.28533 19.7267 7.392C19.4601 7.49867 19.1668 7.552 18.8468 7.552C18.5268 7.552 18.2281 7.49867 17.9507 7.392C17.6841 7.28533 17.4494 7.136 17.2467 6.944C17.0547 6.752 16.9001 6.52267 16.7827 6.256C16.6761 5.98933 16.6228 5.69067 16.6228 5.36ZM27.0548 13.616H18.8628V10.224H17.1988V14.96H27.0548V13.616ZM37.1495 3.2V2H33.8695V0.655999H32.2055V2H28.8935V3.2H37.1495ZM41.9495 6.416V5.056H39.9655V0.799999H38.3175V10.56H39.9655V6.416H41.9495ZM37.6775 9.616L37.5495 8.464C36.9628 8.54933 36.3602 8.61867 35.7415 8.672C35.1335 8.71467 34.5095 8.752 33.8695 8.784V7.888C34.6695 7.792 35.2988 7.568 35.7575 7.216C36.2268 6.85333 36.4615 6.384 36.4615 5.808C36.4615 5.46667 36.3762 5.16267 36.2055 4.896C36.0455 4.62933 35.8162 4.40533 35.5175 4.224C35.2188 4.04267 34.8562 3.904 34.4295 3.808C34.0135 3.70133 33.5442 3.648 33.0215 3.648C32.4988 3.648 32.0242 3.70133 31.5975 3.808C31.1815 3.904 30.8242 4.04267 30.5255 4.224C30.2268 4.40533 29.9922 4.62933 29.8215 4.896C29.6615 5.16267 29.5815 5.46667 29.5815 5.808C29.5815 6.384 29.8108 6.85333 30.2695 7.216C30.7282 7.57867 31.3735 7.80267 32.2055 7.888V8.848C31.5335 8.86933 30.8882 8.88 30.2695 8.88H28.5255L28.7175 10.192C29.3468 10.192 30.0242 10.1867 30.7495 10.176C31.4748 10.1653 32.2215 10.144 32.9895 10.112C33.7682 10.0693 34.5522 10.0107 35.3415 9.936C36.1308 9.86133 36.9095 9.75467 37.6775 9.616ZM31.1335 5.808C31.1335 5.47733 31.3042 5.22133 31.6455 5.04C31.9868 4.848 32.4455 4.752 33.0215 4.752C33.5975 4.752 34.0562 4.848 34.3975 5.04C34.7388 5.22133 34.9095 5.47733 34.9095 5.808C34.9095 6.128 34.7388 6.37867 34.3975 6.56C34.0562 6.74133 33.5975 6.832 33.0215 6.832C32.4455 6.832 31.9868 6.74133 31.6455 6.56C31.3042 6.37867 31.1335 6.128 31.1335 5.808ZM30.3175 11.2V12.512H38.3175V15.248H39.9655V11.2H30.3175ZM54.4762 11.28V0.783999H52.8282V11.28H54.4762ZM50.5082 5.36C50.5082 4.82667 50.4122 4.34133 50.2202 3.904C50.0282 3.456 49.7562 3.072 49.4042 2.752C49.0629 2.432 48.6576 2.18667 48.1882 2.016C47.7296 1.83467 47.2282 1.744 46.6842 1.744C46.1402 1.744 45.6336 1.83467 45.1642 2.016C44.6949 2.18667 44.2896 2.432 43.9482 2.752C43.6069 3.072 43.3349 3.456 43.1322 3.904C42.9402 4.34133 42.8442 4.82667 42.8442 5.36C42.8442 5.88267 42.9402 6.368 43.1322 6.816C43.3349 7.25333 43.6069 7.632 43.9482 7.952C44.2896 8.272 44.6949 8.52267 45.1642 8.704C45.6336 8.88533 46.1402 8.976 46.6842 8.976C47.2282 8.976 47.7296 8.88533 48.1882 8.704C48.6576 8.52267 49.0629 8.272 49.4042 7.952C49.7562 7.632 50.0282 7.25333 50.2202 6.816C50.4122 6.368 50.5082 5.88267 50.5082 5.36ZM44.4602 5.36C44.4602 4.688 44.6682 4.15467 45.0842 3.76C45.5109 3.36533 46.0442 3.168 46.6842 3.168C47.0042 3.168 47.2976 3.22133 47.5642 3.328C47.8309 3.424 48.0656 3.568 48.2682 3.76C48.4709 3.952 48.6256 4.18133 48.7322 4.448C48.8496 4.71467 48.9082 5.01867 48.9082 5.36C48.9082 5.69067 48.8496 5.98933 48.7322 6.256C48.6256 6.52267 48.4709 6.752 48.2682 6.944C48.0656 7.136 47.8309 7.28533 47.5642 7.392C47.2976 7.49867 47.0042 7.552 46.6842 7.552C46.3642 7.552 46.0656 7.49867 45.7882 7.392C45.5216 7.28533 45.2869 7.136 45.0842 6.944C44.8922 6.752 44.7376 6.52267 44.6202 6.256C44.5136 5.98933 44.4602 5.69067 44.4602 5.36ZM54.8922 13.616H46.7002V10.224H45.0362V14.96H54.8922V13.616ZM63.019 5.984C64.683 5.984 65.9577 5.77067 66.843 5.344C67.7283 4.91733 68.171 4.304 68.171 3.504C68.171 2.69333 67.7283 2.07467 66.843 1.648C65.9577 1.22133 64.683 1.008 63.019 1.008C61.3443 1.008 60.0643 1.22133 59.179 1.648C58.3043 2.07467 57.867 2.69333 57.867 3.504C57.867 4.304 58.3043 4.91733 59.179 5.344C60.0643 5.77067 61.3443 5.984 63.019 5.984ZM63.019 2.24C64.1497 2.24 65.003 2.34667 65.579 2.56C66.1657 2.77333 66.459 3.088 66.459 3.504C66.459 3.90933 66.1657 4.21867 65.579 4.432C65.003 4.64533 64.1497 4.752 63.019 4.752C61.8883 4.752 61.0297 4.64533 60.443 4.432C59.867 4.21867 59.579 3.90933 59.579 3.504C59.579 3.088 59.867 2.77333 60.443 2.56C61.0297 2.34667 61.8883 2.24 63.019 2.24ZM69.563 6.832H56.475V8.144H69.563V6.832ZM59.691 13.84V12.64H67.915V9.184H58.027V10.432H66.299V11.472H58.059V15.104H68.331V13.84H59.691ZM85.1399 0.783999H83.4919V15.248H85.1399V0.783999ZM77.8919 7.472C78.4359 7.472 78.9319 7.39733 79.3799 7.248C79.8385 7.09867 80.2332 6.89067 80.5639 6.624C80.8945 6.35733 81.1505 6.03733 81.3319 5.664C81.5239 5.29067 81.6199 4.88 81.6199 4.432C81.6199 3.984 81.5239 3.57867 81.3319 3.216C81.1505 2.84267 80.8945 2.52267 80.5639 2.256C80.2332 1.98933 79.8385 1.78133 79.3799 1.632C78.9319 1.48267 78.4359 1.408 77.8919 1.408C77.3479 1.408 76.8465 1.48267 76.3879 1.632C75.9399 1.78133 75.5505 1.98933 75.2199 2.256C74.8892 2.52267 74.6279 2.84267 74.4359 3.216C74.2545 3.57867 74.1639 3.984 74.1639 4.432C74.1639 4.88 74.2545 5.29067 74.4359 5.664C74.6279 6.03733 74.8892 6.35733 75.2199 6.624C75.5505 6.89067 75.9399 7.09867 76.3879 7.248C76.8465 7.39733 77.3479 7.472 77.8919 7.472ZM77.8919 2.768C78.5319 2.768 79.0492 2.91733 79.4439 3.216C79.8385 3.51467 80.0359 3.92 80.0359 4.432C80.0359 4.944 79.8385 5.35467 79.4439 5.664C79.0492 5.96267 78.5319 6.112 77.8919 6.112C77.2519 6.112 76.7345 5.96267 76.3399 5.664C75.9452 5.35467 75.7479 4.944 75.7479 4.432C75.7479 3.92 75.9452 3.51467 76.3399 3.216C76.7345 2.91733 77.2519 2.768 77.8919 2.768ZM82.6599 9.232L82.5479 8.016C81.7692 8.13333 80.9639 8.22933 80.1319 8.304C79.3105 8.368 78.4892 8.416 77.6679 8.448C76.8572 8.48 76.0679 8.50133 75.2999 8.512C74.5425 8.52267 73.8385 8.528 73.1879 8.528L73.3799 9.888C73.9559 9.888 74.5532 9.88267 75.1719 9.872C75.8012 9.86133 76.4572 9.84533 77.1399 9.824V14.8H78.7879V9.728C79.4279 9.67467 80.0732 9.61067 80.7239 9.536C81.3745 9.46133 82.0199 9.36 82.6599 9.232ZM95.6506 3.744V2.432H92.2106V0.768H90.5626V2.432H87.1226V3.744H95.6506ZM100.435 5.392H98.3866V0.783999H96.7386V11.616H98.3866V6.752H100.435V5.392ZM94.8826 7.152C94.8826 6.74667 94.7973 6.37867 94.6266 6.048C94.456 5.70667 94.216 5.41867 93.9066 5.184C93.5973 4.93867 93.2293 4.752 92.8026 4.624C92.376 4.48533 91.9013 4.416 91.3786 4.416C90.8666 4.416 90.392 4.48533 89.9546 4.624C89.528 4.752 89.16 4.93867 88.8506 5.184C88.5413 5.41867 88.3013 5.70667 88.1306 6.048C87.96 6.37867 87.8746 6.74667 87.8746 7.152C87.8746 7.568 87.96 7.94667 88.1306 8.288C88.3013 8.61867 88.5413 8.90667 88.8506 9.152C89.16 9.38667 89.528 9.568 89.9546 9.696C90.392 9.824 90.8666 9.888 91.3786 9.888C91.9013 9.888 92.376 9.824 92.8026 9.696C93.2293 9.568 93.5973 9.38667 93.9066 9.152C94.216 8.90667 94.456 8.61867 94.6266 8.288C94.7973 7.94667 94.8826 7.568 94.8826 7.152ZM89.4586 7.152C89.4586 6.69333 89.6346 6.336 89.9866 6.08C90.3386 5.824 90.8026 5.696 91.3786 5.696C91.9546 5.696 92.4186 5.824 92.7706 6.08C93.1333 6.336 93.3146 6.69333 93.3146 7.152C93.3146 7.61067 93.1333 7.968 92.7706 8.224C92.4186 8.48 91.9546 8.608 91.3786 8.608C90.8026 8.608 90.3386 8.48 89.9866 8.224C89.6346 7.968 89.4586 7.61067 89.4586 7.152ZM90.8986 13.616V10.784H89.2346V14.96H98.9626V13.616H90.8986ZM115.084 4.208H117.084V2.848H115.084V0.783999H113.436V9.344H115.084V7.312H117.084V5.952H115.084V4.208ZM111.676 5.088C111.676 4.576 111.58 4.10667 111.388 3.68C111.196 3.25333 110.924 2.89067 110.572 2.592C110.23 2.28267 109.825 2.04267 109.356 1.872C108.886 1.70133 108.374 1.616 107.82 1.616C107.276 1.616 106.769 1.70133 106.3 1.872C105.83 2.04267 105.42 2.28267 105.068 2.592C104.726 2.89067 104.46 3.25333 104.268 3.68C104.076 4.10667 103.98 4.576 103.98 5.088C103.98 5.6 104.076 6.06933 104.268 6.496C104.46 6.92267 104.726 7.29067 105.068 7.6C105.42 7.89867 105.83 8.13333 106.3 8.304C106.769 8.47467 107.276 8.56 107.82 8.56C108.374 8.56 108.886 8.47467 109.356 8.304C109.825 8.13333 110.23 7.89867 110.572 7.6C110.924 7.29067 111.196 6.92267 111.388 6.496C111.58 6.06933 111.676 5.6 111.676 5.088ZM105.596 5.088C105.596 4.448 105.804 3.94133 106.22 3.568C106.646 3.19467 107.18 3.008 107.82 3.008C108.47 3.008 109.004 3.19467 109.42 3.568C109.846 3.94133 110.06 4.448 110.06 5.088C110.06 5.728 109.846 6.23467 109.42 6.608C109.004 6.98133 108.47 7.168 107.82 7.168C107.18 7.168 106.646 6.98133 106.22 6.608C105.804 6.23467 105.596 5.728 105.596 5.088ZM105.58 9.984V11.312H113.436V15.248H115.084V9.984H105.58ZM131.018 5.36H129.098V0.783999H127.434V11.632H129.098V6.72H131.018V5.36ZM123.738 6.8L125.354 6.976C125.536 6.03733 125.637 5.216 125.658 4.512C125.69 3.79733 125.706 3.19467 125.706 2.704V1.872H118.442V3.216H124.09C124.08 3.664 124.053 4.18133 124.01 4.768C123.978 5.344 123.888 6.02133 123.738 6.8ZM126.666 8.896L126.554 7.696C125.84 7.81333 125.104 7.89867 124.346 7.952C123.6 8.00533 122.842 8.048 122.074 8.08V5.168H120.442V8.128C119.93 8.14933 119.434 8.16 118.954 8.16H117.562L117.738 9.504C118.368 9.504 119.045 9.49867 119.77 9.488C120.496 9.46667 121.242 9.43467 122.01 9.392C122.789 9.34933 123.573 9.29067 124.362 9.216C125.152 9.13067 125.92 9.024 126.666 8.896ZM121.402 13.616V10.672H119.738V14.96H129.562V13.616H121.402ZM147.491 7.76H141.779V6.32H145.987V4.992H137.683V2.736H145.891V1.424H136.051V6.32H140.131V7.76H134.435V9.104H147.491V7.76ZM140.915 9.984C140.147 9.984 139.454 10.0427 138.835 10.16C138.216 10.2773 137.694 10.448 137.267 10.672C136.84 10.896 136.51 11.1733 136.275 11.504C136.051 11.824 135.939 12.192 135.939 12.608C135.939 13.024 136.051 13.3973 136.275 13.728C136.51 14.0587 136.84 14.336 137.267 14.56C137.694 14.784 138.216 14.9547 138.835 15.072C139.454 15.1893 140.147 15.248 140.915 15.248C142.515 15.248 143.742 15.0187 144.595 14.56C145.459 14.1013 145.891 13.4507 145.891 12.608C145.891 12.192 145.774 11.824 145.539 11.504C145.315 11.1733 144.99 10.896 144.563 10.672C144.136 10.448 143.614 10.2773 142.995 10.16C142.387 10.0427 141.694 9.984 140.915 9.984ZM140.915 13.968C139.848 13.968 139.032 13.856 138.467 13.632C137.902 13.3973 137.619 13.056 137.619 12.608C137.619 12.16 137.902 11.824 138.467 11.6C139.032 11.3653 139.848 11.248 140.915 11.248C141.982 11.248 142.798 11.3653 143.363 11.6C143.939 11.824 144.227 12.16 144.227 12.608C144.227 13.056 143.939 13.3973 143.363 13.632C142.798 13.856 141.982 13.968 140.915 13.968ZM160.226 0.768H158.562V15.248H160.226V0.768ZM152.994 1.792C152.429 1.792 151.906 1.87733 151.426 2.048C150.946 2.21867 150.53 2.45867 150.178 2.768C149.837 3.06667 149.565 3.42933 149.362 3.856C149.17 4.28267 149.074 4.752 149.074 5.264C149.074 5.776 149.17 6.24533 149.362 6.672C149.565 7.09867 149.837 7.46667 150.178 7.776C150.53 8.07467 150.946 8.30933 151.426 8.48C151.906 8.65067 152.429 8.736 152.994 8.736C153.559 8.736 154.082 8.65067 154.562 8.48C155.042 8.30933 155.458 8.07467 155.81 7.776C156.162 7.46667 156.434 7.09867 156.626 6.672C156.829 6.24533 156.93 5.776 156.93 5.264C156.93 4.752 156.829 4.28267 156.626 3.856C156.434 3.42933 156.162 3.06667 155.81 2.768C155.458 2.45867 155.042 2.21867 154.562 2.048C154.082 1.87733 153.559 1.792 152.994 1.792ZM152.994 3.2C153.335 3.2 153.645 3.248 153.922 3.344C154.21 3.44 154.455 3.57867 154.658 3.76C154.861 3.94133 155.021 4.16 155.138 4.416C155.255 4.66133 155.314 4.944 155.314 5.264C155.314 5.57333 155.255 5.856 155.138 6.112C155.021 6.368 154.861 6.58667 154.658 6.768C154.455 6.94933 154.21 7.088 153.922 7.184C153.645 7.28 153.335 7.328 152.994 7.328C152.663 7.328 152.354 7.28 152.066 7.184C151.789 7.088 151.549 6.94933 151.346 6.768C151.143 6.58667 150.983 6.368 150.866 6.112C150.749 5.856 150.69 5.57333 150.69 5.264C150.69 4.624 150.903 4.12267 151.33 3.76C151.767 3.38667 152.322 3.2 152.994 3.2ZM148.402 10.832L148.61 12.192C149.25 12.192 149.938 12.1867 150.674 12.176C151.421 12.1653 152.189 12.1387 152.978 12.096C153.767 12.0533 154.567 11.9893 155.378 11.904C156.199 11.8187 157.01 11.7013 157.81 11.552L157.698 10.352C156.919 10.4693 156.119 10.56 155.298 10.624C154.477 10.688 153.661 10.736 152.85 10.768C152.05 10.8 151.271 10.8213 150.514 10.832C149.757 10.832 149.053 10.832 148.402 10.832Z" fill="black"/>
</svg>
