<svg width="31" height="17" viewBox="0 0 31 17" fill="none" xmlns="http://www.w3.org/2000/svg">
<path d="M15.4294 7.908V6.378H12.8914V0.114H11.0374V16.404H12.8914V7.908H15.4294ZM2.81141 10.86V3.174H8.51741V1.662H0.957407V12.408H2.28941C3.02141 12.408 3.71141 12.402 4.35941 12.39C5.01941 12.366 5.65541 12.336 6.26741 12.3C6.87941 12.264 7.47941 12.21 8.06741 12.138C8.66741 12.066 9.27341 11.976 9.88541 11.868L9.68741 10.338C9.12341 10.434 8.57141 10.518 8.03141 10.59C7.49141 10.65 6.93941 10.704 6.37541 10.752C5.82341 10.788 5.25341 10.818 4.66541 10.842C4.07741 10.854 3.45941 10.86 2.81141 10.86ZM23.312 0.473999C22.424 0.473999 21.62 0.545999 20.9 0.69C20.192 0.833999 19.586 1.038 19.082 1.302C18.578 1.566 18.188 1.89 17.912 2.274C17.648 2.658 17.516 3.096 17.516 3.588C17.516 4.068 17.648 4.5 17.912 4.884C18.188 5.268 18.578 5.598 19.082 5.874C19.586 6.138 20.192 6.342 20.9 6.486C21.62 6.63 22.424 6.702 23.312 6.702C24.2 6.702 24.998 6.63 25.706 6.486C26.426 6.342 27.038 6.138 27.542 5.874C28.046 5.598 28.43 5.268 28.694 4.884C28.97 4.5 29.108 4.068 29.108 3.588C29.108 3.096 28.97 2.658 28.694 2.274C28.43 1.89 28.046 1.566 27.542 1.302C27.038 1.038 26.426 0.833999 25.706 0.69C24.998 0.545999 24.2 0.473999 23.312 0.473999ZM23.312 1.914C24.548 1.914 25.502 2.058 26.174 2.346C26.846 2.634 27.182 3.048 27.182 3.588C27.182 4.128 26.846 4.542 26.174 4.83C25.502 5.106 24.548 5.244 23.312 5.244C22.076 5.244 21.116 5.106 20.432 4.83C19.76 4.542 19.424 4.128 19.424 3.588C19.424 3.048 19.76 2.634 20.432 2.346C21.116 2.058 22.076 1.914 23.312 1.914ZM30.656 7.89H15.95V9.366H30.656V7.89ZM28.874 10.752H17.714V16.188H28.874V10.752ZM19.55 12.228H27.056V14.712H19.55V12.228Z" fill="white"/>
</svg>
