<svg width="24" height="14" viewBox="0 0 24 14" fill="none" xmlns="http://www.w3.org/2000/svg">
<path d="M10.116 0.422H8.66V13.106H10.116V0.422ZM3.382 1.36C2.91533 1.36 2.48133 1.46733 2.08 1.682C1.688 1.88733 1.34733 2.186 1.058 2.578C0.768667 2.96067 0.54 3.42733 0.372 3.978C0.213333 4.51933 0.134 5.13067 0.134 5.812C0.134 6.49333 0.213333 7.114 0.372 7.674C0.54 8.22467 0.768667 8.69133 1.058 9.074C1.34733 9.45667 1.688 9.75533 2.08 9.97C2.48133 10.1753 2.91533 10.278 3.382 10.278C3.858 10.278 4.292 10.1753 4.684 9.97C5.08533 9.75533 5.43067 9.45667 5.72 9.074C6.00933 8.69133 6.23333 8.22467 6.392 7.674C6.56 7.114 6.644 6.49333 6.644 5.812C6.644 5.13067 6.56 4.51933 6.392 3.978C6.23333 3.42733 6.00933 2.96067 5.72 2.578C5.43067 2.186 5.08533 1.88733 4.684 1.682C4.292 1.46733 3.858 1.36 3.382 1.36ZM3.382 2.662C3.942 2.662 4.39467 2.942 4.74 3.502C5.08533 4.05267 5.258 4.82267 5.258 5.812C5.258 6.82933 5.08533 7.61333 4.74 8.164C4.39467 8.71467 3.942 8.99 3.382 8.99C2.822 8.99 2.36933 8.71467 2.024 8.164C1.688 7.61333 1.52 6.82933 1.52 5.812C1.52 4.82267 1.688 4.05267 2.024 3.502C2.36933 2.942 2.822 2.662 3.382 2.662ZM20.4749 1.836V2.844H13.3489V5.994H22.1549V4.888H14.7629V3.88H21.9029V0.715999H13.3209V1.836H20.4749ZM23.3449 6.904H11.8649V8.052H23.3449V6.904ZM13.3769 9.018V12.924H21.9309V9.018H13.3769ZM14.7909 11.776V10.166H20.5169V11.776H14.7909Z" fill="black"/>
</svg>
