<svg width="111" height="14" viewBox="0 0 111 14" fill="none" xmlns="http://www.w3.org/2000/svg">
<path d="M9.878 12.98V0.548H9.136V12.98H9.878ZM3.41 1.556C1.576 1.556 0.316 3.236 0.316 5.826C0.316 8.444 1.576 10.096 3.41 10.096C5.216 10.096 6.49 8.444 6.49 5.826C6.49 3.236 5.216 1.556 3.41 1.556ZM3.41 2.214C4.796 2.214 5.776 3.698 5.776 5.826C5.776 7.954 4.796 9.452 3.41 9.452C2.01 9.452 1.03 7.954 1.03 5.826C1.03 3.698 2.01 2.214 3.41 2.214ZM13.4189 1.514H21.0209V3.012H13.4469V5.742H22.0289V5.126H14.1749V3.586H21.7489V0.897999H13.4189V1.514ZM23.2469 7.66V7.044H11.9629V7.66H23.2469ZM21.7209 9.046H13.5309V12.784H21.7209V9.046ZM21.0069 12.154H14.2589V9.662H21.0069V12.154ZM29.7698 5.126C32.5138 5.126 34.0678 4.356 34.0678 2.942C34.0678 1.542 32.4718 0.771999 29.7698 0.771999C27.0678 0.771999 25.4718 1.542 25.4718 2.942C25.4718 4.356 27.0258 5.126 29.7698 5.126ZM29.7698 1.36C31.9538 1.36 33.3118 1.976 33.3118 2.942C33.3118 3.936 31.9538 4.538 29.7698 4.538C27.5858 4.538 26.2278 3.936 26.2278 2.942C26.2278 1.976 27.5858 1.36 29.7698 1.36ZM35.3838 6.736V6.106H24.1418V6.736H35.3838ZM34.3058 12.182H26.3118V10.586H33.8998V8.024H25.5558V8.626H33.1718V10.012H25.5838V12.798H34.3058V12.182ZM48.8462 7.212V0.548H48.1042V7.212H48.8462ZM42.2242 1.192C40.3902 1.192 39.0882 2.326 39.0882 4.006C39.0882 5.686 40.3902 6.82 42.2242 6.82C44.0862 6.82 45.3882 5.686 45.3882 4.006C45.3882 2.326 44.0862 1.192 42.2242 1.192ZM42.2242 1.822C43.6382 1.822 44.6742 2.732 44.6742 4.006C44.6742 5.28 43.6382 6.19 42.2242 6.19C40.8242 6.19 39.8022 5.28 39.8022 4.006C39.8022 2.732 40.8242 1.822 42.2242 1.822ZM41.7342 9.606V7.87H40.9922V12.784H48.8462V7.87H48.1182V9.606H41.7342ZM48.1182 12.168H41.7342V10.222H48.1182V12.168ZM61.0391 8.178V0.548H60.2971V2.466H57.6091V3.096H60.2971V4.986H57.6091V5.616H60.2971V8.178H61.0391ZM57.6791 7.17L57.5951 6.54C56.0691 6.806 54.8371 6.848 52.3311 6.848H52.1911V4.58H56.7271V1.304H51.4211V1.934H55.9991V3.978H51.4631V7.478H52.3311C54.8791 7.478 56.1111 7.436 57.6791 7.17ZM61.0391 8.906H52.8351V9.536H60.2971V13.008H61.0391V8.906ZM73.526 12.98V0.548H72.798V5.896H70.824V0.855999H70.096V12.322H70.824V6.526H72.798V12.98H73.526ZM69.368 2.83H66.582V0.926H65.84V2.83H63.068V3.46H69.368V2.83ZM66.204 4.454C64.692 4.454 63.572 5.588 63.572 7.212C63.572 8.85 64.692 9.984 66.204 9.984C67.744 9.984 68.85 8.85 68.85 7.212C68.85 5.588 67.744 4.454 66.204 4.454ZM66.204 9.34C65.07 9.34 64.244 8.416 64.244 7.212C64.244 6.036 65.07 5.084 66.204 5.084C67.366 5.084 68.178 6.036 68.178 7.212C68.178 8.416 67.366 9.34 66.204 9.34ZM76.003 5.896L76.297 6.512C78.047 6.176 80.147 5.042 80.889 3.446C81.589 5.042 83.745 6.176 85.467 6.512L85.761 5.896C83.913 5.602 81.281 4.146 81.281 2.298V2.018H85.397V1.388H76.353V2.018H80.483V2.298C80.483 4.132 77.851 5.602 76.003 5.896ZM81.239 8.374H86.503L86.517 7.758H75.261V8.374H80.497V12.952H81.239V8.374ZM97.9539 12.98V0.548H97.2399V12.98H97.9539ZM95.4059 0.855999H94.6919V5.168H92.3539V5.798H94.6919V12.322H95.4059V0.855999ZM90.9399 4.3V1.766H90.2399V4.314C90.2399 6.442 88.9939 8.682 87.3559 9.62L87.8459 10.18C89.1339 9.396 90.1559 7.898 90.6039 6.106C91.0519 7.744 92.0319 9.172 93.2639 9.914L93.7399 9.34C92.1299 8.402 90.9399 6.246 90.9399 4.3ZM110.903 11.3V10.67H107.949V7.086C109.027 6.54 109.685 5.672 109.685 4.552C109.685 2.648 107.851 1.444 105.233 1.444C102.643 1.444 100.795 2.648 100.795 4.552C100.795 5.672 101.439 6.554 102.559 7.1V10.67H99.6188V11.3H110.903ZM101.495 4.552C101.495 3.054 103.091 2.046 105.233 2.046C107.403 2.046 108.985 3.054 108.985 4.552C108.985 6.022 107.403 7.044 105.233 7.044C103.091 7.044 101.495 6.022 101.495 4.552ZM107.207 10.67H103.301V7.38C103.875 7.548 104.519 7.646 105.233 7.646C105.961 7.646 106.633 7.548 107.207 7.38V10.67Z" fill="#999999"/>
</svg>
