<svg width="203" height="14" viewBox="0 0 203 14" fill="none" xmlns="http://www.w3.org/2000/svg">
<path d="M1.526 5.896L1.82 6.512C3.57 6.176 5.67 5.042 6.412 3.446C7.112 5.042 9.268 6.176 10.99 6.512L11.284 5.896C9.436 5.602 6.804 4.146 6.804 2.298V2.018H10.92V1.388H1.876V2.018H6.006V2.298C6.006 4.132 3.374 5.602 1.526 5.896ZM6.762 8.374H12.026L12.04 7.758H0.784V8.374H6.02V12.952H6.762V8.374ZM22.3429 9.536H23.0849V0.548H22.3429V9.536ZM13.6349 7.31H19.2909V1.668H13.6349V7.31ZM14.3629 2.284H18.5769V6.708H14.3629V2.284ZM23.5049 12.476V11.846H16.0149V8.668H15.2729V12.476H23.5049ZM26.5978 5.224H35.0538V4.594H27.3258V1.766H34.9558V1.136H26.5978V5.224ZM36.3978 7.24V6.61H25.1558V7.24H36.3978ZM30.7698 8.514C28.1378 8.514 26.5418 9.312 26.5418 10.726C26.5418 12.168 28.1378 12.938 30.7698 12.938C33.4018 12.938 34.9978 12.168 34.9978 10.726C34.9978 9.312 33.4018 8.514 30.7698 8.514ZM30.7698 12.336C28.6418 12.336 27.2838 11.734 27.2838 10.726C27.2838 9.718 28.6418 9.116 30.7698 9.116C32.8978 9.116 34.2558 9.718 34.2558 10.726C34.2558 11.734 32.8978 12.336 30.7698 12.336ZM48.6047 8.122V7.492H43.3267V5.924H47.3867V5.308H39.5327V3.698H47.1067V0.911999H38.7767V1.514H46.3787V3.11H38.8047V5.924H42.5847V7.492H37.3067V8.122H48.6047ZM47.1767 9.228H38.5807V9.858H46.4347V12.812H47.1767V9.228ZM50.1856 7.548H55.6316V4.804H58.8936V9.774H59.6356V0.562H58.8936V4.174H55.6316V1.374H54.9036V3.754H50.9276V1.374H50.1856V7.548ZM50.9276 4.37H54.9036V6.918H50.9276V4.37ZM59.9436 12.672V12.042H52.5376V8.878H51.7956V12.672H59.9436ZM62.2945 3.166H72.2765V2.536H67.6845V0.785999H66.9425V2.536H62.2945V3.166ZM72.9625 11.398V10.768H67.6845V8.822C69.9245 8.752 71.2825 7.898 71.2825 6.498C71.2825 5.028 69.7565 4.174 67.3065 4.174C64.8565 4.174 63.3305 5.028 63.3305 6.498C63.3305 7.898 64.7025 8.738 66.9425 8.836V10.768H61.6925V11.398H72.9625ZM64.0725 6.498C64.0725 5.448 65.3465 4.79 67.3065 4.79C69.2665 4.79 70.5405 5.448 70.5405 6.498C70.5405 7.562 69.2665 8.234 67.3065 8.234C65.3465 8.234 64.0725 7.562 64.0725 6.498ZM82.673 12V11.328H80.503V1.738H79.901L77.269 4.062L77.703 4.566L79.775 2.704C79.761 2.886 79.747 3.068 79.747 3.222V11.328H77.423V12H82.673ZM83.9171 4.412L84.6591 4.51L84.7151 4.202C84.9391 3.082 85.8491 2.214 87.1231 2.214C88.2991 2.214 89.3351 2.83 89.3351 4.286C89.3351 5.574 88.2851 6.372 86.5351 6.428V7.016C88.6771 7.058 89.5871 7.996 89.5871 9.214C89.5871 10.278 88.7191 11.524 86.9831 11.524C85.0091 11.524 84.5331 10.068 84.3511 9.354L84.3231 9.214C84.0991 9.312 83.8051 9.368 83.5811 9.466C83.9591 10.698 84.6731 12.182 86.9831 12.182C88.8731 12.182 90.3431 10.922 90.3431 9.2C90.3431 7.898 89.6431 6.974 88.1871 6.652V6.624C89.2651 6.302 90.0771 5.49 90.0771 4.202C90.0771 2.466 88.7191 1.556 87.1511 1.556C85.4571 1.556 84.2531 2.704 83.9171 4.412ZM100.813 6.358H102.997V5.728H100.813V0.548H100.071V12.98H100.813V6.358ZM95.3252 4.594V2.508H98.2512V1.864H91.6152V2.508H94.5972V4.594C94.5972 6.764 92.8052 9.116 91.1952 9.942L91.6572 10.558C93.0152 9.802 94.4012 8.108 94.9612 6.218C95.5212 7.954 96.8512 9.536 98.1952 10.25L98.6292 9.648C96.9772 8.864 95.3252 6.61 95.3252 4.594ZM113.636 12.994V0.548H112.894V12.994H113.636ZM105.278 9.284H105.026V5.966H109.926V1.752H104.242V2.396H109.198V5.336H104.284V9.914H105.278C107.322 9.914 109.24 9.83 111.62 9.452L111.55 8.822C109.184 9.2 107.294 9.284 105.278 9.284ZM117.163 1.556H124.765V2.816H117.191V5.28H125.717V4.706H117.919V3.362H125.493V0.981999H117.163V1.556ZM126.991 7.03V6.442H115.693V7.03H126.991ZM125.969 12.182H117.849V10.74H125.535V8.29H117.093V8.864H124.821V10.18H117.135V12.77H125.969V12.182ZM140.411 7.212V0.548H139.669V7.212H140.411ZM133.789 1.192C131.955 1.192 130.653 2.326 130.653 4.006C130.653 5.686 131.955 6.82 133.789 6.82C135.651 6.82 136.953 5.686 136.953 4.006C136.953 2.326 135.651 1.192 133.789 1.192ZM133.789 1.822C135.203 1.822 136.239 2.732 136.239 4.006C136.239 5.28 135.203 6.19 133.789 6.19C132.389 6.19 131.367 5.28 131.367 4.006C131.367 2.732 132.389 1.822 133.789 1.822ZM133.299 9.606V7.87H132.557V12.784H140.411V7.87H139.683V9.606H133.299ZM139.683 12.168H133.299V10.222H139.683V12.168ZM152.604 8.178V0.548H151.862V2.466H149.174V3.096H151.862V4.986H149.174V5.616H151.862V8.178H152.604ZM149.244 7.17L149.16 6.54C147.634 6.806 146.402 6.848 143.896 6.848H143.756V4.58H148.292V1.304H142.986V1.934H147.564V3.978H143.028V7.478H143.896C146.444 7.478 147.676 7.436 149.244 7.17ZM152.604 8.906H144.4V9.536H151.862V13.008H152.604V8.906ZM165.091 12.98V0.548H164.363V5.896H162.389V0.855999H161.661V12.322H162.389V6.526H164.363V12.98H165.091ZM160.933 2.83H158.147V0.926H157.405V2.83H154.633V3.46H160.933V2.83ZM157.769 4.454C156.257 4.454 155.137 5.588 155.137 7.212C155.137 8.85 156.257 9.984 157.769 9.984C159.309 9.984 160.415 8.85 160.415 7.212C160.415 5.588 159.309 4.454 157.769 4.454ZM157.769 9.34C156.635 9.34 155.809 8.416 155.809 7.212C155.809 6.036 156.635 5.084 157.769 5.084C158.931 5.084 159.743 6.036 159.743 7.212C159.743 8.416 158.931 9.34 157.769 9.34ZM167.568 5.896L167.862 6.512C169.612 6.176 171.712 5.042 172.454 3.446C173.154 5.042 175.31 6.176 177.032 6.512L177.326 5.896C175.478 5.602 172.846 4.146 172.846 2.298V2.018H176.962V1.388H167.918V2.018H172.048V2.298C172.048 4.132 169.416 5.602 167.568 5.896ZM172.804 8.374H178.068L178.082 7.758H166.826V8.374H172.062V12.952H172.804V8.374ZM189.519 12.98V0.548H188.805V12.98H189.519ZM186.971 0.855999H186.257V5.168H183.919V5.798H186.257V12.322H186.971V0.855999ZM182.505 4.3V1.766H181.805V4.314C181.805 6.442 180.559 8.682 178.921 9.62L179.411 10.18C180.699 9.396 181.721 7.898 182.169 6.106C182.617 7.744 183.597 9.172 184.829 9.914L185.305 9.34C183.695 8.402 182.505 6.246 182.505 4.3ZM202.468 11.3V10.67H199.514V7.086C200.592 6.54 201.25 5.672 201.25 4.552C201.25 2.648 199.416 1.444 196.798 1.444C194.208 1.444 192.36 2.648 192.36 4.552C192.36 5.672 193.004 6.554 194.124 7.1V10.67H191.184V11.3H202.468ZM193.06 4.552C193.06 3.054 194.656 2.046 196.798 2.046C198.968 2.046 200.55 3.054 200.55 4.552C200.55 6.022 198.968 7.044 196.798 7.044C194.656 7.044 193.06 6.022 193.06 4.552ZM198.772 10.67H194.866V7.38C195.44 7.548 196.084 7.646 196.798 7.646C197.526 7.646 198.198 7.548 198.772 7.38V10.67Z" fill="#999999"/>
</svg>
