<svg width="64" height="14" viewBox="0 0 64 14" fill="none" xmlns="http://www.w3.org/2000/svg">
<path d="M11.522 2.928V1.78H7.14V0.393999H5.698V1.78H1.274V2.928H11.522ZM2.212 5.658C2.212 6.33933 2.58533 6.86667 3.332 7.24C4.07867 7.604 5.11 7.786 6.426 7.786C7.742 7.786 8.77333 7.604 9.52 7.24C10.2667 6.86667 10.64 6.33933 10.64 5.658C10.64 4.97667 10.2667 4.454 9.52 4.09C8.77333 3.726 7.742 3.544 6.426 3.544C5.11 3.544 4.07867 3.726 3.332 4.09C2.58533 4.454 2.212 4.97667 2.212 5.658ZM9.128 5.658C9.128 6.34867 8.22733 6.694 6.426 6.694C4.61533 6.694 3.71 6.34867 3.71 5.658C3.71 4.96733 4.61533 4.622 6.426 4.622C8.22733 4.622 9.128 4.96733 9.128 5.658ZM12.18 9.69L12.166 8.528H0.7V9.69H3.528V13.12H4.97V9.69H7.896V13.12H9.338V9.69H12.18ZM23.6729 0.422H22.3009V5.42H20.8029V0.688H19.4449V12.448H20.8029V6.596H22.3009V13.064H23.6729V0.422ZM14.7269 8.878V3.11H17.9889V1.934H13.3129V10.068H14.1529C14.6009 10.068 15.0209 10.0633 15.4129 10.054C15.8049 10.0447 16.1829 10.0307 16.5469 10.012C16.9202 9.984 17.2842 9.94667 17.6389 9.9C18.0029 9.85333 18.3762 9.79267 18.7589 9.718L18.6329 8.528C17.9796 8.65867 17.3449 8.74733 16.7289 8.794C16.1222 8.84067 15.4549 8.86867 14.7269 8.878ZM36.5098 7.17H31.4978V5.826H35.3758V4.664H33.6678V2.13H35.4458V0.967999H26.0798V2.13H27.8718V4.664H26.1498V5.826H30.0418V7.17H25.0438V8.346H36.5098V7.17ZM29.3138 4.664V2.13H32.2258V4.664H29.3138ZM27.9558 11.664V9.312H26.4998V12.84H35.2218V11.664H27.9558ZM46.0796 7.73V5.084H48.7116V9.802H50.1536V0.436H48.7116V3.908H46.0796V1.276H44.6656V3.362H41.6836V1.276H40.2556V7.73H46.0796ZM44.6656 4.496V6.554H41.6836V4.496H44.6656ZM50.4476 11.664H43.3776V8.878H41.9216V12.84H50.4476V11.664ZM62.7245 3.32V2.158H58.2865V0.604H56.8445V2.158H52.3785V3.32H62.7245ZM63.3125 10.516H58.2865V8.892C59.3878 8.808 60.2418 8.56067 60.8485 8.15C61.4552 7.73 61.7585 7.17 61.7585 6.47C61.7585 6.08733 61.6605 5.74667 61.4645 5.448C61.2685 5.14933 60.9885 4.89733 60.6245 4.692C60.2605 4.47733 59.8172 4.31867 59.2945 4.216C58.7718 4.104 58.1885 4.048 57.5445 4.048C56.9005 4.048 56.3172 4.104 55.7945 4.216C55.2812 4.31867 54.8425 4.47733 54.4785 4.692C54.1145 4.89733 53.8345 5.14933 53.6385 5.448C53.4425 5.74667 53.3445 6.08733 53.3445 6.47C53.3445 7.17 53.6525 7.73 54.2685 8.15C54.8845 8.57 55.7432 8.81733 56.8445 8.892V10.516H51.8465V11.706H63.3125V10.516ZM54.8145 6.47C54.8145 6.05 55.0478 5.728 55.5145 5.504C55.9905 5.28 56.6672 5.168 57.5445 5.168C58.4218 5.168 59.0985 5.28 59.5745 5.504C60.0505 5.728 60.2885 6.05 60.2885 6.47C60.2885 6.89 60.0505 7.21667 59.5745 7.45C59.0985 7.674 58.4218 7.786 57.5445 7.786C56.6672 7.786 55.9905 7.674 55.5145 7.45C55.0478 7.21667 54.8145 6.89 54.8145 6.47Z" fill="black"/>
</svg>
