<svg width="210" height="70" viewBox="0 0 210 70" fill="none" xmlns="http://www.w3.org/2000/svg">
<path d="M17.55 7.892V8.022C17.55 9.40867 17.5067 10.9687 17.42 12.702C17.3507 14.4353 17.0907 16.4547 16.64 18.76L19.344 19.046C19.5693 17.8327 19.7427 16.7147 19.864 15.692C19.9853 14.652 20.072 13.69 20.124 12.806C20.1933 11.9047 20.228 11.064 20.228 10.284C20.2453 9.504 20.254 8.75 20.254 8.022V5.708H3.536V7.892H17.55ZM22.542 21.724H11.934V13.456H9.23V21.724H1.326V23.934H22.542V21.724ZM43.808 3.524H41.26V9.218H38.66V3.966H36.138V17.2H38.66V11.402H41.26V17.304H43.808V3.524ZM34.136 5.214H24.932V7.372H31.38C31.1546 9.20933 30.4353 10.804 29.222 12.156C28.026 13.508 26.2493 14.652 23.892 15.588L25.166 17.512C28.2513 16.2987 30.5133 14.6867 31.952 12.676C33.408 10.6653 34.136 8.178 34.136 5.214ZM27.844 18.37V20.528H41.13V27.028H43.808V18.37H27.844ZM65.9059 3.524H63.2019V16.758H65.9059V3.524ZM61.2779 14.21L60.9659 12.052C59.2499 12.3987 57.5599 12.65 55.8959 12.806C54.2493 12.9447 52.4986 13.0227 50.6439 13.04V4.876H47.9659V15.276H49.9159C51.9786 15.276 53.9199 15.198 55.7399 15.042C57.5599 14.8687 59.4059 14.5913 61.2779 14.21ZM50.5139 17.824V26.716H65.9059V17.824H50.5139ZM53.1659 24.558V19.956H63.2799V24.558H53.1659ZM88.4979 3.498H85.7939V27.028H88.4979V3.498ZM76.7459 5.162C75.8272 5.162 74.9779 5.30067 74.1979 5.578C73.4179 5.85533 72.7419 6.24533 72.1699 6.748C71.6152 7.23333 71.1732 7.82267 70.8439 8.516C70.5319 9.20933 70.3759 9.972 70.3759 10.804C70.3759 11.636 70.5319 12.3987 70.8439 13.092C71.1732 13.7853 71.6152 14.3833 72.1699 14.886C72.7419 15.3713 73.4179 15.7527 74.1979 16.03C74.9779 16.3073 75.8272 16.446 76.7459 16.446C77.6646 16.446 78.5139 16.3073 79.2939 16.03C80.0739 15.7527 80.7499 15.3713 81.3219 14.886C81.8939 14.3833 82.3359 13.7853 82.6479 13.092C82.9772 12.3987 83.1419 11.636 83.1419 10.804C83.1419 9.972 82.9772 9.20933 82.6479 8.516C82.3359 7.82267 81.8939 7.23333 81.3219 6.748C80.7499 6.24533 80.0739 5.85533 79.2939 5.578C78.5139 5.30067 77.6646 5.162 76.7459 5.162ZM76.7459 7.45C77.3006 7.45 77.8032 7.528 78.2539 7.684C78.7219 7.84 79.1206 8.06533 79.4499 8.36C79.7792 8.65467 80.0392 9.01 80.2299 9.426C80.4206 9.82467 80.5159 10.284 80.5159 10.804C80.5159 11.3067 80.4206 11.766 80.2299 12.182C80.0392 12.598 79.7792 12.9533 79.4499 13.248C79.1206 13.5427 78.7219 13.768 78.2539 13.924C77.8032 14.08 77.3006 14.158 76.7459 14.158C76.2086 14.158 75.7059 14.08 75.2379 13.924C74.7872 13.768 74.3972 13.5427 74.0679 13.248C73.7386 12.9533 73.4786 12.598 73.2879 12.182C73.0972 11.766 73.0019 11.3067 73.0019 10.804C73.0019 9.764 73.3486 8.94933 74.0419 8.36C74.7526 7.75333 75.6539 7.45 76.7459 7.45ZM69.2839 19.852L69.6219 22.062C70.6619 22.062 71.7799 22.0533 72.9759 22.036C74.1892 22.0187 75.4372 21.9753 76.7199 21.906C78.0026 21.8367 79.3026 21.7327 80.6199 21.594C81.9546 21.4553 83.2719 21.2647 84.5719 21.022L84.3899 19.072C83.1246 19.2627 81.8246 19.41 80.4899 19.514C79.1552 19.618 77.8292 19.696 76.5119 19.748C75.2119 19.8 73.9466 19.8347 72.7159 19.852C71.4852 19.852 70.3412 19.852 69.2839 19.852ZM116.28 3.524H113.732V12.702H111.054V4.148H108.532V25.91H111.054V14.886H113.732V27.002H116.28V3.524ZM106.4 6.488H97.1703V8.672H103.748C103.662 9.83333 103.454 10.9513 103.124 12.026C102.812 13.0833 102.353 14.0973 101.746 15.068C101.157 16.0387 100.403 16.9573 99.4843 17.824C98.5657 18.6733 97.465 19.462 96.1823 20.19L97.7423 22.088C99.389 21.1347 100.767 20.0773 101.876 18.916C102.986 17.7547 103.87 16.5153 104.528 15.198C105.204 13.8807 105.681 12.494 105.958 11.038C106.253 9.56467 106.4 8.048 106.4 6.488ZM138.274 20.58V3.524H135.596V20.58H138.274ZM131.826 10.96C131.826 10.0933 131.67 9.30467 131.358 8.594C131.046 7.866 130.604 7.242 130.032 6.722C129.478 6.202 128.819 5.80333 128.056 5.526C127.311 5.23133 126.496 5.084 125.612 5.084C124.728 5.084 123.905 5.23133 123.142 5.526C122.38 5.80333 121.721 6.202 121.166 6.722C120.612 7.242 120.17 7.866 119.84 8.594C119.528 9.30467 119.372 10.0933 119.372 10.96C119.372 11.8093 119.528 12.598 119.84 13.326C120.17 14.0367 120.612 14.652 121.166 15.172C121.721 15.692 122.38 16.0993 123.142 16.394C123.905 16.6887 124.728 16.836 125.612 16.836C126.496 16.836 127.311 16.6887 128.056 16.394C128.819 16.0993 129.478 15.692 130.032 15.172C130.604 14.652 131.046 14.0367 131.358 13.326C131.67 12.598 131.826 11.8093 131.826 10.96ZM121.998 10.96C121.998 9.868 122.336 9.00133 123.012 8.36C123.706 7.71867 124.572 7.398 125.612 7.398C126.132 7.398 126.609 7.48467 127.042 7.658C127.476 7.814 127.857 8.048 128.186 8.36C128.516 8.672 128.767 9.04467 128.94 9.478C129.131 9.91133 129.226 10.4053 129.226 10.96C129.226 11.4973 129.131 11.9827 128.94 12.416C128.767 12.8493 128.516 13.222 128.186 13.534C127.857 13.846 127.476 14.0887 127.042 14.262C126.609 14.4353 126.132 14.522 125.612 14.522C125.092 14.522 124.607 14.4353 124.156 14.262C123.723 14.0887 123.342 13.846 123.012 13.534C122.7 13.222 122.449 12.8493 122.258 12.416C122.085 11.9827 121.998 11.4973 121.998 10.96ZM138.95 24.376H125.638V18.864H122.934V26.56H138.95V24.376ZM158.318 9.426H154.158V11.61H158.318V17.512H160.996V3.524H158.318V9.426ZM154.184 16.758L155.51 14.652C154.626 14.34 153.838 13.9413 153.144 13.456C152.468 12.9533 151.896 12.39 151.428 11.766C150.96 11.142 150.605 10.4747 150.362 9.764C150.12 9.05333 149.998 8.32533 149.998 7.58V7.268H154.886V5.11H142.328V7.268H147.294V7.606C147.294 8.40333 147.164 9.192 146.904 9.972C146.644 10.752 146.272 11.48 145.786 12.156C145.301 12.832 144.703 13.4387 143.992 13.976C143.282 14.496 142.467 14.9207 141.548 15.25L142.926 17.382C144.33 16.8793 145.518 16.1427 146.488 15.172C147.459 14.184 148.204 13.04 148.724 11.74C149.227 12.884 149.938 13.898 150.856 14.782C151.775 15.6487 152.884 16.3073 154.184 16.758ZM153.196 18.136C151.966 18.136 150.856 18.24 149.868 18.448C148.898 18.6387 148.066 18.9247 147.372 19.306C146.696 19.6873 146.176 20.1553 145.812 20.71C145.448 21.2473 145.266 21.8713 145.266 22.582C145.266 23.2753 145.448 23.8993 145.812 24.454C146.176 25.0087 146.696 25.4767 147.372 25.858C148.066 26.2393 148.898 26.5253 149.868 26.716C150.856 26.924 151.966 27.028 153.196 27.028C154.427 27.028 155.528 26.924 156.498 26.716C157.469 26.5253 158.292 26.2393 158.968 25.858C159.662 25.4767 160.19 25.0087 160.554 24.454C160.918 23.8993 161.1 23.2753 161.1 22.582C161.1 21.8713 160.918 21.2473 160.554 20.71C160.19 20.1553 159.662 19.6873 158.968 19.306C158.292 18.9247 157.469 18.6387 156.498 18.448C155.528 18.24 154.427 18.136 153.196 18.136ZM153.196 24.948C151.515 24.948 150.215 24.7487 149.296 24.35C148.395 23.9513 147.944 23.362 147.944 22.582C147.944 21.802 148.395 21.2127 149.296 20.814C150.215 20.4153 151.515 20.216 153.196 20.216C154.878 20.216 156.169 20.4153 157.07 20.814C157.972 21.2127 158.422 21.802 158.422 22.582C158.422 23.362 157.972 23.9513 157.07 24.35C156.169 24.7487 154.878 24.948 153.196 24.948ZM185.434 21.932H176.1V17.2H182.99V5.084H180.338V9.036H169.21V5.084H166.558V17.2H173.422V21.932H164.166V24.142H185.434V21.932ZM169.21 15.042V11.194H180.338V15.042H169.21ZM202.722 5.942V7.528H189.488V12.806H205.79V10.934H192.114V9.27H205.374V4.096H189.436V5.942H202.722ZM208.052 14.288H186.758V16.264H208.052V14.288ZM191.932 24.896V23.102H205.452V17.85H189.228V19.696H202.8V21.36H189.28V26.742H206.154V24.896H191.932Z" fill="black"/>
<path d="M20.254 53.108V40.732H18.876V53.108H20.254ZM7.956 41.928C4.55 41.928 2.132 44.034 2.132 47.154C2.132 50.274 4.55 52.38 7.956 52.38C11.414 52.38 13.832 50.274 13.832 47.154C13.832 44.034 11.414 41.928 7.956 41.928ZM7.956 43.098C10.582 43.098 12.506 44.788 12.506 47.154C12.506 49.52 10.582 51.21 7.956 51.21C5.356 51.21 3.458 49.52 3.458 47.154C3.458 44.788 5.356 43.098 7.956 43.098ZM7.046 57.554V54.33H5.668V63.456H20.254V54.33H18.902V57.554H7.046ZM18.902 62.312H7.046V58.698H18.902V62.312ZM42.898 54.902V40.732H41.52V44.294H36.528V45.464H41.52V48.974H36.528V50.144H41.52V54.902H42.898ZM36.658 53.03L36.502 51.86C33.668 52.354 31.38 52.432 26.726 52.432H26.466V48.22H34.89V42.136H25.036V43.306H33.538V47.102H25.114V53.602H26.726C31.458 53.602 33.746 53.524 36.658 53.03ZM42.898 56.254H27.662V57.424H41.52V63.872H42.898V56.254ZM66.0879 63.82V40.732H64.7359V50.664H61.0699V41.304H59.7179V62.598H61.0699V51.834H64.7359V63.82H66.0879ZM58.3659 44.97H53.1919V41.434H51.8139V44.97H46.6659V46.14H58.3659V44.97ZM52.4899 47.986C49.6819 47.986 47.6019 50.092 47.6019 53.108C47.6019 56.15 49.6819 58.256 52.4899 58.256C55.3499 58.256 57.4039 56.15 57.4039 53.108C57.4039 50.092 55.3499 47.986 52.4899 47.986ZM52.4899 57.06C50.3839 57.06 48.8499 55.344 48.8499 53.108C48.8499 50.924 50.3839 49.156 52.4899 49.156C54.6479 49.156 56.1559 50.924 56.1559 53.108C56.1559 55.344 54.6479 57.06 52.4899 57.06ZM70.6879 50.664L71.2339 51.808C74.4839 51.184 78.3839 49.078 79.7619 46.114C81.0619 49.078 85.0659 51.184 88.2639 51.808L88.8099 50.664C85.3779 50.118 80.4899 47.414 80.4899 43.982V43.462H88.1339V42.292H71.3379V43.462H79.0079V43.982C79.0079 47.388 74.1199 50.118 70.6879 50.664ZM80.4119 55.266H90.1879L90.2139 54.122H69.3099V55.266H79.0339V63.768H80.4119V55.266ZM111.454 63.82V40.732H110.128V63.82H111.454ZM106.722 41.304H105.396V49.312H101.054V50.482H105.396V62.598H106.722V41.304ZM98.4279 47.7V42.994H97.1279V47.726C97.1279 51.678 94.8139 55.838 91.7719 57.58L92.6819 58.62C95.0739 57.164 96.9719 54.382 97.8039 51.054C98.6359 54.096 100.456 56.748 102.744 58.126L103.628 57.06C100.638 55.318 98.4279 51.314 98.4279 47.7ZM135.502 60.7V59.53H130.016V52.874C132.018 51.86 133.24 50.248 133.24 48.168C133.24 44.632 129.834 42.396 124.972 42.396C120.162 42.396 116.73 44.632 116.73 48.168C116.73 50.248 117.926 51.886 120.006 52.9V59.53H114.546V60.7H135.502ZM118.03 48.168C118.03 45.386 120.994 43.514 124.972 43.514C129.002 43.514 131.94 45.386 131.94 48.168C131.94 50.898 129.002 52.796 124.972 52.796C120.994 52.796 118.03 50.898 118.03 48.168ZM128.638 59.53H121.384V53.42C122.45 53.732 123.646 53.914 124.972 53.914C126.324 53.914 127.572 53.732 128.638 53.42V59.53Z" fill="black"/>
</svg>
