<svg width="157" height="165" viewBox="0 0 157 165" fill="none" xmlns="http://www.w3.org/2000/svg">
<g filter="url(#filter0_f_295_12)">
<ellipse cx="77.6438" cy="148.643" rx="47" ry="10" fill="#EDEDED"/>
</g>
<path d="M58.2734 11.5404C57.0034 13.9368 53.3746 18.7296 49.0201 18.7296C48.4547 17.5089 47.7186 15.6951 47.1077 13.7525C46.7057 12.4738 46.3579 11.1393 46.1489 9.88136C45.8602 8.14451 45.8361 6.55364 46.2986 5.45723C46.7218 5.02725 48.0581 4.91069 50.653 6.20421C51.5769 6.66475 52.6603 7.30404 53.9189 8.17157C55.1872 9.04584 56.6334 10.1519 58.2734 11.5404Z" fill="#D1121A"/>
<path fill-rule="evenodd" clip-rule="evenodd" d="M47.0267 6.07275C46.8207 6.7478 46.7841 7.67659 46.9022 8.7907C46.9022 8.7907 47.1878 7.75571 48.0606 7.28504C48.8146 6.78088 49.6774 6.72922 49.6774 6.72922C48.7341 6.30683 48.0404 6.12364 47.5626 6.07071C47.2923 6.04077 47.1239 6.05464 47.0267 6.07275ZM51.0537 5.40678C52.0224 5.88967 53.1423 6.55183 54.4283 7.43831C55.7248 8.33199 57.1945 9.45663 58.8532 10.861L59.4003 11.3242L59.0651 11.9568C58.3913 13.2281 57.1091 15.1092 55.4144 16.6855C53.7324 18.25 51.5265 19.6214 49.0202 19.6214H48.4474L48.2074 19.1033C47.6272 17.8507 46.8768 16.0011 46.2536 14.0191C45.8434 12.7146 45.4837 11.338 45.2658 10.027C44.9723 8.26098 44.907 6.45443 45.4734 5.11181L45.5397 4.95467L45.6595 4.83296C46.1598 4.32459 46.95 4.20839 47.7604 4.29817C48.613 4.39261 49.7009 4.73246 51.0537 5.40678ZM51.2817 7.55465C51.2817 7.55465 50.2388 7.55465 48.8146 8.58926C47.6808 9.41296 47.1878 10.565 47.1878 10.565C47.3283 11.2401 47.5039 11.9328 47.702 12.6223C48.5911 12.2984 49.6686 11.8021 50.6301 11.1507C51.7483 10.3931 52.58 9.51567 52.9069 8.56434C52.321 8.17461 51.7799 7.84025 51.2817 7.55465ZM54.4104 9.61694C53.8246 10.8811 52.735 11.8815 51.6369 12.6255C50.5077 13.3905 49.2605 13.9597 48.2366 14.3262C48.681 15.638 49.1652 16.8527 49.585 17.8064C51.231 17.6241 52.8114 16.6666 54.1926 15.3819C55.4585 14.2045 56.4775 12.8246 57.1284 11.7461C56.1473 10.9323 55.2426 10.2268 54.4104 9.61694Z" fill="black"/>
<path d="M98.0142 11.5404C99.2842 13.9368 102.913 18.7296 107.267 18.7296C107.833 17.5089 108.569 15.6951 109.18 13.7525C109.582 12.4738 109.93 11.1393 110.139 9.88136C110.427 8.14451 110.452 6.55364 109.989 5.45723C109.566 5.02725 108.229 4.91069 105.635 6.20421C104.711 6.66475 103.627 7.30404 102.369 8.17157C101.1 9.04584 99.6542 10.1519 98.0142 11.5404Z" fill="#D1121A"/>
<path fill-rule="evenodd" clip-rule="evenodd" d="M109.261 6.07275C109.467 6.7478 109.504 7.67659 109.385 8.7907C109.385 8.7907 109.261 7.793 108.376 7.23297C107.49 6.67295 106.61 6.72922 106.61 6.72922C107.554 6.30683 108.247 6.12364 108.725 6.07071C108.995 6.04077 109.164 6.05464 109.261 6.07275ZM105.234 5.40678C104.265 5.88967 103.145 6.55183 101.859 7.43831C100.563 8.33199 99.0932 9.45663 97.4345 10.861L96.8874 11.3242L97.2226 11.9568C97.8964 13.2281 99.1786 15.1092 100.873 16.6855C102.555 18.25 104.761 19.6214 107.268 19.6214H107.84L108.08 19.1033C108.661 17.8507 109.411 16.0011 110.034 14.0191C110.444 12.7146 110.804 11.338 111.022 10.027C111.315 8.26098 111.381 6.45443 110.814 5.11181L110.748 4.95467L110.628 4.83296C110.128 4.32459 109.338 4.20839 108.527 4.29817C107.675 4.39261 106.587 4.73246 105.234 5.40678ZM105.006 7.55465C105.006 7.55465 106.15 7.30022 107.473 8.13716C108.931 9.05904 109.1 10.565 109.1 10.565C108.959 11.2401 108.784 11.9328 108.586 12.6223C107.697 12.2984 106.619 11.8021 105.658 11.1507C104.539 10.3931 103.708 9.51567 103.381 8.56434C103.967 8.17461 104.508 7.84025 105.006 7.55465ZM101.877 9.61694C102.463 10.8811 103.553 11.8815 104.651 12.6255C105.78 13.3905 107.027 13.9597 108.051 14.3262C107.607 15.638 107.123 16.8527 106.703 17.8064C105.057 17.6241 103.476 16.6666 102.095 15.3819C100.829 14.2045 99.8103 12.8246 99.1593 11.7461C100.14 10.9323 101.045 10.2268 101.877 9.61694Z" fill="black"/>
<path fill-rule="evenodd" clip-rule="evenodd" d="M29.1078 26.7788C29.0022 26.8493 28.8386 27.0039 28.6428 27.3349C28.3774 27.7835 28.1385 28.4148 27.9408 29.1844C27.5891 30.5536 27.4202 32.1489 27.3667 33.422L29.8327 37.0309C29.8279 36.8763 29.8241 36.7222 29.821 36.569C29.7686 33.9205 29.964 31.2356 30.1793 29.447L30.1858 29.3925L30.1966 29.3387C30.5174 27.7397 30.1165 27.2158 29.9526 27.0613C29.7527 26.873 29.4258 26.7767 29.1078 26.7788ZM31.1109 43.8987C31.3404 44.3494 31.6277 44.7819 31.9935 45.1466L34.1574 43.3597L33.5592 42.4843C32.9782 41.2235 32.6922 39.0213 32.6425 36.5134C32.5936 34.044 32.7748 31.5183 32.975 29.8342C33.3889 27.7088 33.0028 26.0642 31.891 25.0164C30.8421 24.0281 29.47 23.8876 28.5832 23.9981L28.4445 24.0154L28.312 24.0594C27.3236 24.3879 26.6569 25.1537 26.2122 25.9052C25.7594 26.6704 25.4391 27.5827 25.207 28.4864C24.7414 30.2993 24.5637 32.3477 24.5309 33.8035C24.527 33.9778 24.5251 34.1451 24.5251 34.304C24.5251 34.9143 24.9149 35.4339 25.4598 35.6287L31.1109 43.8987Z" fill="black" stroke="black" stroke-linecap="round"/>
<path d="M50.0409 67.6769C50.0409 67.6769 27.3472 66.1711 7.84723 35.7014C7.84723 35.7014 2.44427 28.2562 9.31202 22.4833C9.31202 22.4833 16.8931 15.6775 25.5346 27.753L50.0409 67.6769Z" fill="url(#paint0_linear_295_12)"/>
<path fill-rule="evenodd" clip-rule="evenodd" d="M127.833 26.7788C127.939 26.8493 128.103 27.0039 128.298 27.3349C128.564 27.7835 128.803 28.4148 129 29.1844C129.352 30.5536 129.521 32.1489 129.574 33.422L127.108 37.0309C127.113 36.8763 127.117 36.7222 127.12 36.569C127.173 33.9205 126.977 31.2356 126.762 29.447L126.755 29.3925L126.745 29.3387C126.424 27.7397 126.825 27.2158 126.989 27.0613C127.188 26.873 127.515 26.7767 127.833 26.7788ZM125.83 43.8987C125.601 44.3494 125.313 44.7819 124.948 45.1466L122.784 43.3597L123.382 42.4843C123.963 41.2235 124.249 39.0213 124.299 36.5134C124.348 34.044 124.166 31.5183 123.966 29.8342C123.552 27.7088 123.938 26.0642 125.05 25.0164C126.099 24.0281 127.471 23.8876 128.358 23.9981L128.497 24.0154L128.629 24.0594C129.618 24.3879 130.284 25.1537 130.729 25.9052C131.182 26.6704 131.502 27.5827 131.734 28.4864C132.2 30.2993 132.377 32.3477 132.41 33.8035C132.414 33.9778 132.416 34.1451 132.416 34.304C132.416 34.9143 132.026 35.4339 131.481 35.6287L125.83 43.8987Z" fill="black" stroke="black" stroke-linecap="round"/>
<path d="M106.9 67.6769C106.9 67.6769 129.594 66.1711 149.094 35.7014C149.094 35.7014 154.497 28.2562 147.629 22.4833C147.629 22.4833 140.048 15.6775 131.407 27.753L106.9 67.6769Z" fill="url(#paint1_linear_295_12)"/>
<path d="M148.213 22.0268C148.288 22.0874 148.329 22.121 148.345 22.1345C154.393 27.2141 152.229 33.7688 150.244 36.5165C141.38 49.9869 130.064 59.6059 122.539 64.2954C114.265 68.8435 108.429 71.1085 108.18 71.1605L105.646 71.7002L130.794 27.1694C134.293 22.266 138.086 19.8162 142.103 19.8531C145.349 19.8721 147.651 21.5692 148.213 22.0268ZM110.036 68.5524C116.82 66.3674 135.108 55.6224 148.515 35.2637C148.727 34.9709 153.251 28.5102 147.187 23.4171C147.085 23.323 145.247 21.7489 142.427 21.7457C139.046 21.7393 135.62 24.0442 132.512 28.4021L110.036 68.5524Z" fill="black"/>
<path d="M114.436 52.4837L119.502 45.5387C120.191 44.5948 121.663 45.396 121.244 46.4866L121.174 46.6674C121.144 46.7476 121.103 46.8228 121.053 46.8922C119.401 49.1577 116.968 51.5888 115.107 53.1787C114.375 53.8037 113.869 53.2611 114.436 52.4837Z" fill="black"/>
<path d="M128.183 25.3941C126.929 25.2378 124.608 25.863 125.361 29.6146C125.779 33.087 126.123 40.0893 124.61 43.1859L123.95 44.1518C124.201 43.901 124.42 43.5742 124.61 43.1859L131 33.8351C130.937 31.0488 130.315 26.1026 128.183 25.3941Z" fill="url(#paint2_linear_295_12)"/>
<path d="M139.001 48.8203C134.768 53.0408 121.128 72.7365 120.187 80.7085" stroke="black" stroke-width="2.2" stroke-linecap="round"/>
<path d="M8.72802 22.0268C8.65364 22.0874 8.61232 22.121 8.59579 22.1345C2.54787 27.2141 4.71253 33.7688 6.69707 36.5165C15.5612 49.9869 26.8769 59.6059 34.4023 64.2954C42.6766 68.8435 48.5126 71.1085 48.7615 71.1605L51.2951 71.7002L26.1469 27.1694C22.6478 22.266 18.8557 19.8162 14.8388 19.8531C11.5919 19.8721 9.29001 21.5692 8.72802 22.0268ZM46.9048 68.5524C40.1217 66.3674 21.8337 55.6224 8.42607 35.2637C8.21431 34.9709 3.68998 28.5102 9.75443 23.4171C9.85643 23.323 11.6944 21.7489 14.5138 21.7457C17.8949 21.7393 21.3208 24.0442 24.4289 28.4021L46.9048 68.5524Z" fill="black"/>
<path d="M119.135 88.5196V88.5014C119.135 88.4923 119.135 88.4741 119.145 88.465C119.155 88.4377 119.155 88.4013 119.155 88.374C124.001 59.6534 119.617 37.7784 119.617 37.7784V36.8681C118.407 16.8228 100.468 0.9104 78.5076 0.9104C56.5474 0.9104 38.6077 16.8228 37.3888 36.8772V37.7875C37.3888 37.7875 33.0047 59.6625 37.8508 88.3831C37.8508 88.4104 37.8607 88.4468 37.8607 88.4741C37.8607 88.4832 37.8607 88.5014 37.8705 88.5105C37.8705 88.5105 37.8705 88.5197 37.8705 88.5288C38.2834 90.9684 40.5737 104.032 41.4584 106.298C45.5182 120.9 52.9497 137.345 54.2964 138.128C54.2964 138.128 51.023 148.624 61.2658 148.624C61.2658 148.624 74.3397 149.734 74.3397 139.748C74.3397 139.748 71.3022 123.758 78.4879 123.758C85.6736 123.758 82.6362 139.748 82.6362 139.748C82.8524 150.645 95.71 148.624 95.71 148.624C105.737 148.824 102.679 138.128 102.679 138.128C104.026 137.345 112.549 116.457 116.609 101.856C117.523 99.58 118.722 90.9593 119.135 88.5196Z" fill="url(#paint3_linear_295_12)"/>
<path d="M37.8607 88.4742C37.8607 88.4469 37.8508 88.4104 37.8508 88.3831C41.6892 97.3641 54.8476 115.326 76.7735 115.326C86.7428 114.867 109.172 108.863 119.135 88.5197C118.722 90.9593 117.523 99.5801 116.609 101.856C112.549 116.457 104.026 137.345 102.679 138.128C102.679 138.128 105.737 148.824 95.71 148.624C95.71 148.624 82.8524 150.645 82.6362 139.748C82.6362 139.748 85.6736 123.758 78.4879 123.758C71.3022 123.758 74.3397 139.748 74.3397 139.748C74.3397 149.734 61.2658 148.624 61.2658 148.624C51.023 148.624 54.2964 138.128 54.2964 138.128C52.9497 137.345 45.5182 120.9 41.4584 106.298C40.5737 104.032 38.2833 90.9684 37.8705 88.5288V88.5106C37.8607 88.5015 37.8607 88.4833 37.8607 88.4742Z" fill="url(#paint4_linear_295_12)"/>
<path d="M93.4097 149.643C91.1194 149.643 87.7182 149.252 85.1329 147.276C82.9015 145.565 81.7416 143.025 81.6728 139.721V139.648L81.6826 139.575C82.2921 135.324 83.2161 128.628 80.159 125.388C79.6773 124.878 79.1563 124.641 78.5075 124.641C77.8587 124.641 77.3378 124.878 76.8561 125.388C73.799 128.619 74.723 135.324 75.3324 139.575L75.3423 139.693C75.3423 142.57 74.3298 144.891 72.3441 146.566C68.245 150.035 61.482 149.498 61.1969 149.479C61.1871 149.479 61.1871 149.479 61.1773 149.479C58.1791 149.479 55.8789 148.587 54.4438 146.821C52.0747 143.908 52.9103 139.584 53.2543 138.237C50.5511 134.068 43.2376 116.266 40.5245 106.508C39.5612 104.041 37.084 89.6848 36.9169 88.7017L36.9071 88.6288L36.8659 88.4013L36.8874 88.5287C32.2084 60.864 36.1109 39.2257 36.4058 37.7055V36.8771C37.664 16.1764 56.1542 0 78.5075 0C100.861 0 119.351 16.1764 120.609 36.8316V37.7146C120.894 39.2348 124.797 60.8732 120.128 88.5287L120.098 88.6652C120.019 89.1386 119.911 89.8487 119.774 90.7044C119.027 95.5382 118.24 100.399 117.552 102.156C115.085 111.05 106.562 133.549 103.741 138.219C104.046 139.539 104.871 144.09 102.375 147.022C100.949 148.706 98.6884 149.525 95.7886 149.488C95.5035 149.534 94.609 149.643 93.4097 149.643ZM83.6388 139.757C83.7076 142.47 84.6316 144.518 86.3813 145.865C89.8415 148.533 95.5134 147.695 95.5723 147.686L95.6608 147.668H95.7493C98.0888 147.704 99.7992 147.122 100.831 145.893C103.112 143.216 101.765 138.364 101.746 138.319L101.65 137.826L102.07 137.372C103.554 135.388 111.487 116.676 115.675 101.619C116.382 99.7985 117.326 93.7175 117.827 90.4404C117.965 89.5756 118.073 88.8564 118.152 88.3739L118.171 88.292C122.949 60.0083 118.692 38.1606 118.653 37.9422L118.633 37.7783V36.868C117.444 17.2324 99.8091 1.80244 78.4977 1.80244C57.1863 1.80244 39.5612 17.2233 38.3619 36.9135L38.3423 37.9422C38.303 38.1606 34.0466 60.0083 38.8141 88.2283L38.8338 88.3284C39.4826 92.1973 41.6058 103.959 42.3824 105.961C46.5011 120.754 53.4903 135.633 54.9058 137.345L55.2909 137.826L55.24 138.319C55.2302 138.364 53.8245 143.034 56.0067 145.72C57.0487 147.003 58.8279 147.659 61.2658 147.659C61.4132 147.668 67.5569 148.141 71.0073 145.219C72.5604 143.908 73.3468 142.069 73.3566 139.748C73.0814 137.827 71.2039 128.574 75.3521 124.186C76.2073 123.276 77.2591 122.82 78.4879 122.82C79.7166 122.82 80.7684 123.276 81.6236 124.186C85.7817 128.583 83.914 137.8 83.6388 139.757Z" fill="black"/>
<path d="M74.3437 56.7922C90.5841 56.7922 108.741 54.1389 97.7653 32.4071C101.607 12.206 90.5841 8.02197 74.3437 8.02197C60.9974 8.02197 53.7779 16.2748 51.8048 32.4071C51.8048 45.8746 58.1032 56.7922 74.3437 56.7922Z" fill="url(#paint5_radial_295_12)"/>
<path d="M45.3707 100.189C47.5726 102.348 49.9417 104.312 52.4876 106.014C55.0041 107.744 57.6582 109.281 60.4204 110.535C65.9449 113.054 71.9608 114.474 77.9964 114.318C81.0044 114.26 84.0222 113.919 86.9515 113.132C89.8808 112.402 92.761 111.381 95.5036 110.069C101.018 107.492 106.159 104.059 110.966 100.179C106.69 104.613 101.765 108.542 96.1917 111.43C90.6672 114.367 84.3957 116.156 78.0357 116.263C74.8606 116.302 71.6757 115.961 68.5989 115.222C65.5222 114.444 62.5437 113.346 59.752 111.897C54.1685 109.009 49.2142 105.012 45.3707 100.189Z" fill="black"/>
<path d="M103.599 85.8799C103.599 99.5552 91.7205 104.593 77.0681 104.593C62.4156 104.593 51.0198 97.3959 51.0198 86.6633C51.0198 72.2683 62.4156 67.8862 77.0681 67.8862C91.7205 67.8862 103.599 72.2047 103.599 85.8799Z" fill="url(#paint6_linear_295_12)"/>
<path d="M82.5949 86.2545C83.9486 85.7342 85.0634 84.5516 85.0634 82.6044C85.0634 79.7032 82.3879 77.9373 79.163 77.9373H69.2097C69.1142 77.9373 69.0345 78.0082 69.0345 78.1028V80.7438C69.0345 80.8306 69.1142 80.9094 69.2097 80.9094H78.4782C79.9752 80.9094 80.9865 81.7608 80.9865 82.8094C80.9865 83.8579 79.9752 84.7093 78.4782 84.7093H72.9681V82.7463C72.9681 82.6517 72.8885 82.5807 72.7929 82.5807H69.2097C69.1142 82.5807 69.0345 82.6517 69.0345 82.7463V94.3983C69.0345 94.4929 69.1142 94.5639 69.2097 94.5639H79.0277C82.6984 94.5639 85.3261 92.9714 85.3261 89.7154C85.3261 88.1151 84.3149 86.7985 82.6029 86.2466L82.5949 86.2545ZM78.6693 91.6706H72.9681V87.7682H78.6693C80.2061 87.7682 81.2413 88.6433 81.2413 89.7154C81.2413 90.7876 80.2061 91.6627 78.6693 91.6627V91.6706Z" fill="#D71921"/>
<path d="M122.71 61.7649C120.316 62.9503 119.247 64.6515 119.247 65.3101L117.365 51.165C119.076 49.1894 121.128 47.4135 125.361 41.7861L122.71 61.7649Z" fill="url(#paint7_linear_295_12)"/>
<path d="M125.361 66.3586C131.005 57.9176 134.297 52.1027 139.471 46.9443L119.247 63.7914L115.014 70.2956L118.776 83.522C119.717 78.3636 120.658 74.3307 125.361 66.3586Z" fill="url(#paint8_linear_295_12)"/>
<ellipse cx="63.093" cy="30.2501" rx="2.82203" ry="1.40683" fill="#FF9D9D"/>
<ellipse cx="87.5506" cy="30.2501" rx="2.82203" ry="1.40683" fill="#FF9D9D"/>
<path d="M42.5048 52.4837L37.4388 45.5387C36.7503 44.5948 35.2785 45.396 35.6974 46.4866L35.7669 46.6674C35.7977 46.7476 35.838 46.8228 35.8886 46.8922C37.5404 49.1577 39.9735 51.5888 41.8343 53.1787C42.5658 53.8037 43.0718 53.2611 42.5048 52.4837Z" fill="black"/>
<path d="M114.662 52.4837L119.728 45.5387C120.417 44.5948 121.889 45.396 121.47 46.4866L121.4 46.6674C121.369 46.7476 121.329 46.8228 121.278 46.8922C119.627 49.1577 117.193 51.5888 115.333 53.1787C114.601 53.8037 114.095 53.2611 114.662 52.4837Z" fill="black"/>
<path d="M34.2313 61.7649C36.6258 62.9503 37.6947 64.6515 37.6947 65.3101L39.5761 51.165C37.8658 49.1894 35.8134 47.4135 31.5803 41.7861L34.2313 61.7649Z" fill="url(#paint9_linear_295_12)"/>
<path d="M28.7582 25.3941C30.0124 25.2378 32.3328 25.863 31.5802 29.6146C31.1623 33.087 30.8186 40.0893 32.3312 43.1859L32.9912 44.1518C32.7397 43.901 32.5208 43.5742 32.3312 43.1859L25.9416 33.8351C26.0042 31.0488 26.6262 26.1026 28.7582 25.3941Z" fill="url(#paint10_linear_295_12)"/>
<path d="M25.9362 27.7178L25.4658 31.4693" stroke="black" stroke-width="2" stroke-linecap="round"/>
<path d="M130.937 27.7178L131.407 31.4693" stroke="black" stroke-width="2" stroke-linecap="round"/>
<path d="M17.9404 48.8203C22.1735 53.0408 35.8133 72.7365 36.754 80.7085" stroke="black" stroke-width="2.2" stroke-linecap="round"/>
<path d="M31.5803 66.3586C25.9362 57.9176 22.6438 52.1027 17.4701 46.9443L37.6947 63.7914L41.9277 70.2956L38.165 83.522C37.2243 78.3636 36.2837 74.3307 31.5803 66.3586Z" fill="url(#paint11_linear_295_12)"/>
<ellipse cx="75.3218" cy="33.814" rx="1.88136" ry="2.34472" fill="black"/>
<defs>
<filter id="filter0_f_295_12" x="24.6438" y="132.643" width="106" height="32" filterUnits="userSpaceOnUse" color-interpolation-filters="sRGB">
<feFlood flood-opacity="0" result="BackgroundImageFix"/>
<feBlend mode="normal" in="SourceGraphic" in2="BackgroundImageFix" result="shape"/>
<feGaussianBlur stdDeviation="3" result="effect1_foregroundBlur_295_12"/>
</filter>
<linearGradient id="paint0_linear_295_12" x1="47.5221" y1="69.7279" x2="9.15522" y2="22.6086" gradientUnits="userSpaceOnUse">
<stop offset="0.427083" stop-color="#D71921"/>
<stop offset="1" stop-color="#FD6D21"/>
</linearGradient>
<linearGradient id="paint1_linear_295_12" x1="109.419" y1="69.7279" x2="147.786" y2="22.6086" gradientUnits="userSpaceOnUse">
<stop offset="0.427083" stop-color="#D71921"/>
<stop offset="1" stop-color="#FD6D21"/>
</linearGradient>
<linearGradient id="paint2_linear_295_12" x1="127.713" y1="24.9042" x2="127.713" y2="39.9104" gradientUnits="userSpaceOnUse">
<stop stop-color="#F76022"/>
<stop offset="1" stop-color="#DE2921"/>
</linearGradient>
<linearGradient id="paint3_linear_295_12" x1="78.5027" y1="0.9104" x2="78.5027" y2="148.772" gradientUnits="userSpaceOnUse">
<stop offset="0.473958" stop-color="#D71921"/>
<stop offset="0.796875" stop-color="#FF7222"/>
</linearGradient>
<linearGradient id="paint4_linear_295_12" x1="78.5027" y1="88.374" x2="78.5027" y2="148.772" gradientUnits="userSpaceOnUse">
<stop stop-color="#EA4A16"/>
<stop offset="1" stop-color="#FC6A20"/>
</linearGradient>
<radialGradient id="paint5_radial_295_12" cx="0" cy="0" r="1" gradientUnits="userSpaceOnUse" gradientTransform="translate(76.7328 32.4071) rotate(89.2023) scale(32.5543 29.5009)">
<stop offset="0.630208" stop-color="#FFD7CB"/>
<stop offset="1" stop-color="#FFB8A2"/>
</radialGradient>
<linearGradient id="paint6_linear_295_12" x1="77.3092" y1="67.8862" x2="77.3092" y2="109.632" gradientUnits="userSpaceOnUse">
<stop stop-color="white"/>
<stop offset="1" stop-color="white"/>
</linearGradient>
<linearGradient id="paint7_linear_295_12" x1="122.496" y1="53.2856" x2="116.446" y2="56.9113" gradientUnits="userSpaceOnUse">
<stop stop-color="#D81A22"/>
<stop offset="0.4085" stop-color="#D81A22"/>
<stop offset="1" stop-color="#D71921"/>
</linearGradient>
<linearGradient id="paint8_linear_295_12" x1="125.831" y1="59.6058" x2="115.77" y2="85.042" gradientUnits="userSpaceOnUse">
<stop stop-color="#D81A22"/>
<stop offset="1" stop-color="#DD2622"/>
</linearGradient>
<linearGradient id="paint9_linear_295_12" x1="34.4451" y1="53.2856" x2="40.4948" y2="56.9113" gradientUnits="userSpaceOnUse">
<stop stop-color="#D81A22"/>
<stop offset="0.4085" stop-color="#D81A22"/>
<stop offset="1" stop-color="#D71921"/>
</linearGradient>
<linearGradient id="paint10_linear_295_12" x1="29.2285" y1="24.9042" x2="29.2285" y2="39.9104" gradientUnits="userSpaceOnUse">
<stop stop-color="#F76022"/>
<stop offset="1" stop-color="#DE2921"/>
</linearGradient>
<linearGradient id="paint11_linear_295_12" x1="31.1099" y1="59.6058" x2="41.1712" y2="85.042" gradientUnits="userSpaceOnUse">
<stop stop-color="#D81A22"/>
<stop offset="1" stop-color="#DD2622"/>
</linearGradient>
</defs>
</svg>
