<svg width="264" height="61" viewBox="0 0 264 61" fill="none" xmlns="http://www.w3.org/2000/svg">
<path d="M58.7909 0.497999H56.1129V13.706H58.7909V0.497999ZM51.7449 1.928H40.9029V4.086H48.8849C48.6422 5.87133 47.7496 7.44867 46.2069 8.818C44.6816 10.1873 42.4889 11.236 39.6289 11.964L40.6429 14.07C42.3936 13.6193 43.9536 13.0213 45.3229 12.276C46.6922 11.5307 47.8536 10.6467 48.8069 9.624C49.7602 8.60133 50.4882 7.44867 50.9909 6.166C51.4936 4.866 51.7449 3.45333 51.7449 1.928ZM43.4509 14.772V23.716H58.7909V14.772H43.4509ZM46.1029 21.558V16.904H56.1649V21.558H46.1029ZM80.7069 11.704V1.434H78.0289V4.398H67.2909V1.434H64.6129V11.704H80.7069ZM78.0289 6.556V9.546H67.2909V6.556H78.0289ZM83.3329 16.41V14.252H62.0389V16.41H71.2689V24.028H73.9469V16.41H83.3329ZM106.341 7.544H103.013V0.497999H100.335V17.814H103.013V9.754H106.341V7.544ZM97.1628 14.148L98.5148 12.016C97.6308 11.704 96.8422 11.2967 96.1488 10.794C95.4555 10.2913 94.8662 9.71933 94.3808 9.078C93.9128 8.43667 93.5488 7.74333 93.2888 6.998C93.0462 6.25267 92.9248 5.49 92.9248 4.71V1.954H90.2208V4.684C90.2208 5.53333 90.0908 6.36533 89.8308 7.18C89.5882 7.99467 89.2242 8.74867 88.7388 9.442C88.2535 10.1353 87.6468 10.7507 86.9188 11.288C86.2082 11.8253 85.3848 12.25 84.4488 12.562L85.9048 14.642C87.3088 14.1393 88.4875 13.4113 89.4408 12.458C90.3942 11.5047 91.1222 10.378 91.6248 9.078C92.1448 10.222 92.8728 11.2447 93.8088 12.146C94.7448 13.03 95.8628 13.6973 97.1628 14.148ZM90.8708 21.376V16.15H88.1928V23.56H103.949V21.376H90.8708ZM122.397 11.808C123.628 11.808 124.755 11.6867 125.777 11.444C126.8 11.2013 127.675 10.8547 128.403 10.404C129.131 9.936 129.695 9.38133 130.093 8.74C130.509 8.09867 130.717 7.37933 130.717 6.582C130.717 5.78467 130.509 5.06533 130.093 4.424C129.695 3.78267 129.131 3.23667 128.403 2.786C127.675 2.33533 126.8 1.98867 125.777 1.746C124.755 1.50333 123.628 1.382 122.397 1.382C121.149 1.382 120.014 1.50333 118.991 1.746C117.969 1.98867 117.093 2.33533 116.365 2.786C115.637 3.23667 115.065 3.78267 114.649 4.424C114.251 5.06533 114.051 5.78467 114.051 6.582C114.051 7.37933 114.251 8.09867 114.649 8.74C115.065 9.38133 115.637 9.936 116.365 10.404C117.093 10.8547 117.969 11.2013 118.991 11.444C120.014 11.6867 121.149 11.808 122.397 11.808ZM122.397 3.54C124.079 3.54 125.422 3.80867 126.427 4.346C127.45 4.88333 127.961 5.62867 127.961 6.582C127.961 7.57 127.45 8.33267 126.427 8.87C125.422 9.39 124.079 9.65 122.397 9.65C120.664 9.65 119.295 9.39 118.289 8.87C117.301 8.33267 116.807 7.57 116.807 6.582C116.807 5.62867 117.301 4.88333 118.289 4.346C119.295 3.80867 120.664 3.54 122.397 3.54ZM133.083 16.02V13.81H111.789V16.02H121.019V24.002H123.697V16.02H133.083ZM153.699 11.34L154.739 9.182C153.561 9.00867 152.46 8.714 151.437 8.298C150.432 7.86467 149.557 7.35333 148.811 6.764C148.083 6.15733 147.511 5.49 147.095 4.762C146.679 4.034 146.471 3.28867 146.471 2.526V1.278H143.637V2.526C143.637 3.306 143.429 4.06 143.013 4.788C142.597 5.49867 142.025 6.15733 141.297 6.764C140.569 7.35333 139.694 7.86467 138.671 8.298C137.666 8.714 136.565 9.00867 135.369 9.182L136.409 11.34C138.403 11.028 140.145 10.4127 141.635 9.494C143.143 8.558 144.287 7.40533 145.067 6.036C145.847 7.388 146.983 8.532 148.473 9.468C149.964 10.404 151.706 11.028 153.699 11.34ZM155.649 15.734V13.55H134.433V15.734H143.637V24.028H146.315V15.734H155.649ZM173.275 4.892V5.022C173.275 6.40867 173.232 7.96867 173.145 9.702C173.076 11.4353 172.816 13.4547 172.365 15.76L175.069 16.046C175.295 14.8327 175.468 13.7147 175.589 12.692C175.711 11.652 175.797 10.69 175.849 9.806C175.919 8.90467 175.953 8.064 175.953 7.284C175.971 6.504 175.979 5.75 175.979 5.022V2.708H159.261V4.892H173.275ZM178.267 18.724H167.659V10.456H164.955V18.724H157.051V20.934H178.267V18.724ZM199.533 0.523999H196.985V6.218H194.385V0.966H191.863V14.2H194.385V8.402H196.985V14.304H199.533V0.523999ZM189.861 2.214H180.657V4.372H187.105C186.88 6.20933 186.16 7.804 184.947 9.156C183.751 10.508 181.974 11.652 179.617 12.588L180.891 14.512C183.976 13.2987 186.238 11.6867 187.677 9.676C189.133 7.66533 189.861 5.178 189.861 2.214ZM183.569 15.37V17.528H196.855V24.028H199.533V15.37H183.569ZM221.631 0.523999H218.927V13.758H221.631V0.523999ZM217.003 11.21L216.691 9.052C214.975 9.39867 213.285 9.65 211.621 9.806C209.974 9.94467 208.224 10.0227 206.369 10.04V1.876H203.691V12.276H205.641C207.704 12.276 209.645 12.198 211.465 12.042C213.285 11.8687 215.131 11.5913 217.003 11.21ZM206.239 14.824V23.716H221.631V14.824H206.239ZM208.891 21.558V16.956H219.005V21.558H208.891ZM19.7788 36.498H17.2308V45.78H14.4488V36.992H11.9268V58.832H14.4488V47.964H17.2308V59.976H19.7788V36.498ZM3.16482 52.202V41.49H9.22282V39.306H0.538816V54.412H2.09882C2.93082 54.412 3.71082 54.4033 4.43882 54.386C5.16682 54.3687 5.86882 54.3427 6.54482 54.308C7.23815 54.256 7.91415 54.1867 8.57282 54.1C9.24882 54.0133 9.94215 53.9007 10.6528 53.762L10.4188 51.552C9.20548 51.7947 8.02682 51.9593 6.88282 52.046C5.75615 52.1327 4.51682 52.1847 3.16482 52.202ZM23.3648 43.882L24.1448 45.884C26.2421 45.7453 28.0448 45.39 29.5528 44.818C31.0781 44.246 32.2135 43.466 32.9588 42.478C33.7041 43.466 34.8395 44.246 36.3648 44.818C37.9075 45.39 39.7275 45.7453 41.8248 45.884L42.5528 43.882C40.1781 43.7433 38.3148 43.3793 36.9628 42.79C35.6108 42.1833 34.8048 41.412 34.5448 40.476H41.4868V38.474H34.3108V36.42H31.6328V38.474H24.4828V40.476H31.3988C31.1388 41.412 30.3328 42.1833 28.9808 42.79C27.6288 43.3793 25.7568 43.7433 23.3648 43.882ZM34.3108 48.744H43.5928V46.742H22.4028V48.744H31.6328V50.564H24.8728V52.54H38.3148V54.178H24.9248V59.794H41.6168V57.792H27.5768V56.024H40.9408V50.564H34.3108V48.744ZM64.4428 36.524H61.7388V42.01H57.6048V44.22H61.7388V49.342H64.4428V36.524ZM57.6308 49.238L58.9568 47.132C58.0728 46.82 57.2841 46.4213 56.5908 45.936C55.9148 45.4333 55.3428 44.87 54.8748 44.246C54.4068 43.622 54.0514 42.9547 53.8088 42.244C53.5661 41.5333 53.4448 40.814 53.4448 40.086V39.956H58.3328V37.772H45.7748V39.956H50.7408V40.112C50.7408 40.892 50.6108 41.672 50.3508 42.452C50.0908 43.2147 49.7094 43.9253 49.2068 44.584C48.7214 45.2427 48.1234 45.8407 47.4128 46.378C46.7021 46.898 45.8874 47.314 44.9688 47.626L46.3468 49.732C47.7508 49.2467 48.9381 48.5187 49.9088 47.548C50.8794 46.5773 51.6248 45.4593 52.1448 44.194C52.6474 45.338 53.3581 46.352 54.2768 47.236C55.2128 48.1027 56.3308 48.77 57.6308 49.238ZM61.7648 50.382V52.93H51.8328V50.382H49.1808V59.716H64.4428V50.382H61.7648ZM61.7648 55.036V57.558H51.8328V55.036H61.7648ZM86.8787 47.34L87.9187 45.182C86.7401 45.0087 85.6394 44.714 84.6167 44.298C83.6114 43.8647 82.7361 43.3533 81.9907 42.764C81.2627 42.1573 80.6907 41.49 80.2747 40.762C79.8587 40.034 79.6507 39.2887 79.6507 38.526V37.278H76.8167V38.526C76.8167 39.306 76.6087 40.06 76.1927 40.788C75.7767 41.4987 75.2047 42.1573 74.4767 42.764C73.7487 43.3533 72.8734 43.8647 71.8507 44.298C70.8454 44.714 69.7447 45.0087 68.5487 45.182L69.5887 47.34C71.5821 47.028 73.3241 46.4127 74.8147 45.494C76.3227 44.558 77.4667 43.4053 78.2467 42.036C79.0267 43.388 80.1621 44.532 81.6527 45.468C83.1434 46.404 84.8854 47.028 86.8787 47.34ZM88.8287 51.734V49.55H67.6127V51.734H76.8167V60.028H79.4947V51.734H88.8287ZM106.169 38.942V40.528H92.9347V45.806H109.237V43.934H95.5607V42.27H108.821V37.096H92.8827V38.942H106.169ZM111.499 47.288H90.2047V49.264H111.499V47.288ZM95.3787 57.896V56.102H108.899V50.85H92.6747V52.696H106.247V54.36H92.7267V59.742H109.601V57.896H95.3787ZM136.681 36.498H133.977V60.054H136.681V36.498ZM126.021 42.322V38.474H123.343V42.322C123.343 43.4487 123.196 44.5667 122.901 45.676C122.606 46.768 122.19 47.7907 121.653 48.744C121.116 49.6973 120.466 50.5467 119.703 51.292C118.94 52.0373 118.091 52.618 117.155 53.034L118.741 55.27C120.162 54.5767 121.376 53.58 122.381 52.28C123.404 50.9627 124.184 49.4373 124.721 47.704C125.258 49.3333 126.021 50.7547 127.009 51.968C128.014 53.1813 129.193 54.1087 130.545 54.75L132.105 52.618C131.186 52.202 130.346 51.6387 129.583 50.928C128.838 50.2 128.196 49.3853 127.659 48.484C127.139 47.5653 126.732 46.586 126.437 45.546C126.16 44.4887 126.021 43.414 126.021 42.322ZM161.639 44.714V42.504H158.311V36.498H155.633V50.668H158.311V44.714H161.639ZM152.409 49.732L153.787 47.678C152.886 47.3833 152.088 46.9933 151.395 46.508C150.702 46.0053 150.121 45.442 149.653 44.818C149.185 44.194 148.83 43.5267 148.587 42.816C148.344 42.1053 148.223 41.3773 148.223 40.632V40.216H153.137V38.032H140.527V40.216H145.519V40.632C145.519 41.4293 145.389 42.2093 145.129 42.972C144.886 43.7347 144.514 44.4453 144.011 45.104C143.526 45.7453 142.928 46.326 142.217 46.846C141.506 47.366 140.683 47.782 139.747 48.094L141.151 50.2C142.555 49.7147 143.734 49.0127 144.687 48.094C145.64 47.1753 146.377 46.092 146.897 44.844C147.4 45.988 148.11 46.9847 149.029 47.834C149.965 48.666 151.092 49.2987 152.409 49.732ZM142.867 51.812V53.97H155.633V60.002H158.311V51.812H142.867ZM182.593 36.524H180.045V46.248H177.549V37.018H175.053V58.91H177.549V48.458H180.045V60.002H182.593V36.524ZM169.645 40.346V37.2H166.993V40.346H162.547V42.504H174.039V40.346H169.645ZM168.319 43.83C167.574 43.83 166.889 43.96 166.265 44.22C165.641 44.48 165.104 44.8527 164.653 45.338C164.202 45.8233 163.847 46.404 163.587 47.08C163.344 47.7387 163.223 48.4753 163.223 49.29C163.223 50.0873 163.344 50.824 163.587 51.5C163.847 52.176 164.202 52.7567 164.653 53.242C165.104 53.71 165.641 54.0827 166.265 54.36C166.889 54.62 167.574 54.75 168.319 54.75C169.064 54.75 169.749 54.62 170.373 54.36C170.997 54.0827 171.534 53.71 171.985 53.242C172.436 52.7567 172.782 52.176 173.025 51.5C173.285 50.824 173.415 50.0873 173.415 49.29C173.415 48.4753 173.285 47.7387 173.025 47.08C172.782 46.404 172.436 45.8233 171.985 45.338C171.534 44.8527 170.997 44.48 170.373 44.22C169.749 43.96 169.064 43.83 168.319 43.83ZM168.319 52.514C167.522 52.514 166.872 52.228 166.369 51.656C165.866 51.0667 165.615 50.278 165.615 49.29C165.615 48.302 165.866 47.5133 166.369 46.924C166.872 46.3347 167.522 46.04 168.319 46.04C169.116 46.04 169.766 46.3347 170.269 46.924C170.772 47.5133 171.023 48.302 171.023 49.29C171.023 50.278 170.772 51.0667 170.269 51.656C169.766 52.228 169.116 52.514 168.319 52.514ZM206.459 46.612H197.125V44.688H203.703V36.862H201.051V38.812H190.599V36.862H187.947V44.688H194.447V46.612H185.165V48.77H206.459V46.612ZM190.599 42.66V40.788H201.051V42.66H190.599ZM190.417 57.74V55.894H203.781V50.356H187.713V52.358H201.155V54.022H187.765V59.794H204.457V57.74H190.417ZM229.701 48.198V45.988H226.373V36.524H223.695V59.976H226.373V48.198H229.701ZM214.803 38.994H208.459V41.204H212.281C212.229 42.3827 212.108 43.518 211.917 44.61C211.744 45.6847 211.466 46.7247 211.085 47.73C210.721 48.718 210.244 49.6887 209.655 50.642C209.083 51.578 208.381 52.488 207.549 53.372L209.681 54.854C210.721 53.71 211.57 52.5227 212.229 51.292C212.905 50.0613 213.425 48.7873 213.789 47.47C214.17 46.1527 214.43 44.792 214.569 43.388C214.725 41.9667 214.803 40.502 214.803 38.994ZM221.251 38.994H215.609V41.204H218.729C218.677 42.4693 218.564 43.7087 218.391 44.922C218.235 46.118 217.984 47.288 217.637 48.432C217.308 49.576 216.866 50.6853 216.311 51.76C215.756 52.8347 215.054 53.8833 214.205 54.906L216.363 56.414C217.403 55.1313 218.244 53.7967 218.885 52.41C219.526 51.006 220.02 49.5673 220.367 48.094C220.714 46.6207 220.948 45.1213 221.069 43.596C221.19 42.0707 221.251 40.5367 221.251 38.994ZM251.721 54.932H246.703V48.822C247.639 48.2847 248.367 47.6087 248.887 46.794C249.424 45.9793 249.693 45.052 249.693 44.012C249.693 43.076 249.476 42.2353 249.043 41.49C248.61 40.7273 248.012 40.0773 247.249 39.54C246.486 39.0027 245.576 38.5953 244.519 38.318C243.462 38.0233 242.309 37.876 241.061 37.876C239.813 37.876 238.66 38.0233 237.603 38.318C236.546 38.5953 235.627 39.0027 234.847 39.54C234.084 40.0773 233.486 40.7273 233.053 41.49C232.637 42.2353 232.429 43.076 232.429 44.012C232.429 45.052 232.689 45.988 233.209 46.82C233.746 47.6347 234.483 48.302 235.419 48.822V54.932H230.453V57.116H251.721V54.932ZM241.061 39.982C241.945 39.982 242.751 40.0773 243.479 40.268C244.224 40.4587 244.857 40.7273 245.377 41.074C245.914 41.4207 246.33 41.8453 246.625 42.348C246.92 42.8333 247.067 43.388 247.067 44.012C247.067 44.636 246.92 45.1993 246.625 45.702C246.33 46.2047 245.914 46.6293 245.377 46.976C244.857 47.3227 244.224 47.5913 243.479 47.782C242.751 47.9727 241.945 48.068 241.061 48.068C240.177 48.068 239.362 47.9727 238.617 47.782C237.872 47.5913 237.23 47.3227 236.693 46.976C236.173 46.6293 235.766 46.2047 235.471 45.702C235.176 45.1993 235.029 44.636 235.029 44.012C235.029 43.388 235.176 42.8333 235.471 42.348C235.766 41.8453 236.173 41.4207 236.693 41.074C237.23 40.7273 237.872 40.4587 238.617 40.268C239.362 40.0773 240.177 39.982 241.061 39.982ZM238.097 54.932V49.836C239.016 50.044 240.004 50.148 241.061 50.148C241.581 50.148 242.092 50.122 242.595 50.07C243.098 50.018 243.574 49.9313 244.025 49.81V54.932H238.097ZM256.789 52.748H259.441C259.372 51.8467 259.424 51.1187 259.597 50.564C259.77 49.992 260.004 49.5067 260.299 49.108C260.594 48.7093 260.923 48.354 261.287 48.042C261.651 47.7127 261.989 47.3573 262.301 46.976C262.63 46.5773 262.899 46.1093 263.107 45.572C263.332 45.0173 263.445 44.3067 263.445 43.44C263.445 42.7813 263.332 42.1313 263.107 41.49C262.882 40.8313 262.552 40.242 262.119 39.722C261.686 39.202 261.157 38.786 260.533 38.474C259.909 38.1447 259.198 37.98 258.401 37.98C258.176 37.98 257.89 38.006 257.543 38.058C257.196 38.11 256.824 38.214 256.425 38.37C256.026 38.5087 255.619 38.7167 255.203 38.994C254.787 39.254 254.406 39.618 254.059 40.086C253.73 40.5367 253.444 41.0913 253.201 41.75C252.976 42.4087 252.837 43.1973 252.785 44.116H255.359C255.446 42.816 255.732 41.9233 256.217 41.438C256.702 40.9353 257.344 40.684 258.141 40.684C258.453 40.684 258.756 40.7273 259.051 40.814C259.346 40.8833 259.606 41.0307 259.831 41.256C260.074 41.464 260.264 41.7587 260.403 42.14C260.542 42.5213 260.611 43.0067 260.611 43.596C260.611 44.22 260.498 44.7313 260.273 45.13C260.065 45.5113 259.805 45.858 259.493 46.17C259.181 46.482 258.843 46.794 258.479 47.106C258.132 47.418 257.812 47.808 257.517 48.276C257.24 48.744 257.023 49.3333 256.867 50.044C256.728 50.7547 256.702 51.656 256.789 52.748ZM259.597 55.114H256.529V58.338H259.597V55.114Z" fill="black"/>
</svg>
