<svg width="75" height="16" viewBox="0 0 75 16" fill="none" xmlns="http://www.w3.org/2000/svg">
<path d="M13.4444 11.5H15V6.83322M15 6.83322L13.4444 2.94427H6.44432L3.33316 6.83322M15 6.83322H3.33316M3.33316 6.83322H2.55537C2.14281 6.83322 1.74714 6.99711 1.45541 7.28884C1.16368 7.58057 0.999792 7.97624 0.999792 8.3888V11.5H2.55537M5.66653 11.5H10.3333M7.9999 6.83322V2.94427" stroke="#666666" stroke-linecap="round" stroke-linejoin="round"/>
<path d="M13.4438 11.4999C13.4438 11.9124 13.28 12.3081 12.9882 12.5998C12.6965 12.8915 12.3008 13.0554 11.8883 13.0554C11.4757 13.0554 11.08 12.8915 10.7883 12.5998C10.4966 12.3081 10.3327 11.9124 10.3327 11.4999C10.3327 11.0873 10.4966 10.6916 10.7883 10.3999C11.08 10.1082 11.4757 9.94427 11.8883 9.94427C12.3008 9.94427 12.6965 10.1082 12.9882 10.3999C13.28 10.6916 13.4438 11.0873 13.4438 11.4999ZM5.66595 11.4999C5.66595 11.9124 5.50206 12.3081 5.21034 12.5998C4.91861 12.8915 4.52294 13.0554 4.11038 13.0554C3.69781 13.0554 3.30214 12.8915 3.01042 12.5998C2.71869 12.3081 2.5548 11.9124 2.5548 11.4999C2.5548 11.0873 2.71869 10.6916 3.01042 10.3999C3.30214 10.1082 3.69781 9.94427 4.11038 9.94427C4.52294 9.94427 4.91861 10.1082 5.21034 10.3999C5.50206 10.6916 5.66595 11.0873 5.66595 11.4999Z" stroke="#666666" stroke-linecap="round" stroke-linejoin="round"/>
<path d="M33.27 14.078V7.344H35.048V5.72H33.27V1.534H31.394V14.078H33.27ZM23.078 2.038V11.88L30.834 11.446V9.878L24.954 10.144V3.606H29.854V2.038H23.078ZM44.0547 6.378C44.0547 3.858 42.3047 2.094 39.9947 2.094C37.6847 2.094 35.9347 3.858 35.9347 6.378C35.9347 8.898 37.6847 10.662 39.9947 10.662C42.3047 10.662 44.0547 8.898 44.0547 6.378ZM42.1787 6.378C42.1787 8.002 41.2827 9.066 39.9947 9.066C38.7067 9.066 37.8107 8.002 37.8107 6.378C37.8107 4.754 38.7067 3.69 39.9947 3.69C41.2827 3.69 42.1787 4.754 42.1787 6.378ZM47.3307 14.078V1.534H45.4547V14.078H47.3307ZM55.5394 8.506V6.966L51.3394 7.148V6.042H54.5174V1.884H49.4914V3.452H52.6694V4.502H49.4914V8.856L55.5394 8.506ZM60.6774 14.134V9.696H50.5134V11.292H58.8014V14.134H60.6774ZM56.2394 9.136H58.0594V1.66H56.2394V4.292H54.9234V5.916H56.2394V9.136ZM60.7054 9.136V1.534H58.8574V9.136H60.7054ZM74.4301 13.014V11.418H62.1101V13.014H74.4301ZM73.3661 9.612V8.002H65.3161V6.574H72.9461V4.978H65.3021V3.606H73.0861V2.01H63.4401V9.612H73.3661Z" fill="#666666"/>
</svg>
