<svg width="89" height="16" viewBox="0 0 89 16" fill="none" xmlns="http://www.w3.org/2000/svg">
<path d="M7.99844 9.19988C9.98666 9.19988 11.5984 7.5881 11.5984 5.59988C11.5984 3.61165 9.98666 1.99988 7.99844 1.99988C6.01021 1.99988 4.39844 3.61165 4.39844 5.59988C4.39844 7.5881 6.01021 9.19988 7.99844 9.19988Z" stroke="#666666" stroke-linecap="round" stroke-linejoin="round"/>
<path d="M14 14.0001C14 11.3481 11.3132 9.20007 8 9.20007C4.6868 9.20007 2 11.3481 2 14.0001" stroke="#666666" stroke-linecap="round" stroke-linejoin="round"/>
<path d="M33.27 14.078V7.344H35.048V5.72H33.27V1.534H31.394V14.078H33.27ZM29.798 11.726V2.038H23.008V11.726H29.798ZM24.884 3.634H27.922V10.13H24.884V3.634ZM44.0547 6.378C44.0547 3.858 42.3047 2.094 39.9947 2.094C37.6847 2.094 35.9347 3.858 35.9347 6.378C35.9347 8.898 37.6847 10.662 39.9947 10.662C42.3047 10.662 44.0547 8.898 44.0547 6.378ZM42.1787 6.378C42.1787 8.002 41.2827 9.066 39.9947 9.066C38.7067 9.066 37.8107 8.002 37.8107 6.378C37.8107 4.754 38.7067 3.69 39.9947 3.69C41.2827 3.69 42.1787 4.754 42.1787 6.378ZM47.3307 14.078V1.534H45.4547V14.078H47.3307ZM48.9174 11.908L55.8894 11.502V9.934L54.6994 9.99L54.8114 4.418H52.9914L52.8934 10.074L51.8294 10.13L51.7314 4.418H49.9114L50.0234 10.214L48.9174 10.256V11.908ZM55.2314 7.54H56.4494V13.756H58.2694V1.674H56.4494V5.916H55.2314V7.54ZM60.7194 14.064V1.534H58.8714V14.064H60.7194ZM55.5534 2.122H49.1694V3.718H55.5534V2.122ZM70.4961 6.378C70.4961 3.858 68.7461 2.094 66.4361 2.094C64.1261 2.094 62.3761 3.858 62.3761 6.378C62.3761 8.898 64.1261 10.662 66.4361 10.662C68.7461 10.662 70.4961 8.898 70.4961 6.378ZM68.6201 6.378C68.6201 8.002 67.7241 9.066 66.4361 9.066C65.1481 9.066 64.2521 8.002 64.2521 6.378C64.2521 4.754 65.1481 3.69 66.4361 3.69C67.7241 3.69 68.6201 4.754 68.6201 6.378ZM73.7721 14.078V1.534H71.8961V14.078H73.7721ZM76.2548 12.356C77.0108 11.782 77.6828 11.138 78.2848 10.41C78.8028 9.78 79.2648 9.108 79.6428 8.38L79.7268 8.534C80.6228 9.948 81.8688 11.25 83.1288 12.062L84.2628 10.69C82.5128 9.696 81.2248 8.31 80.4268 6.532C80.5528 6.126 80.6648 5.72 80.7628 5.286C80.8888 4.754 80.9728 4.208 81.0288 3.634H83.8568V2.038H75.8348V3.634H79.1108C79.0688 4.068 78.9988 4.502 78.9148 4.922C78.4108 7.512 77.1368 9.654 74.9948 11.054L76.2548 12.356ZM87.1328 14.078V1.534H85.2568V14.078H87.1328Z" fill="#666666"/>
</svg>
