<svg width="78" height="12" viewBox="0 0 78 12" fill="none" xmlns="http://www.w3.org/2000/svg">
<path d="M5.444 11.648H7.004V6.344H7.94V11.912H9.524V1.172H7.94V4.952H7.004V1.292H5.444V11.648ZM0.032 1.676V10.028L4.964 9.74V8.396L1.616 8.54V3.044H4.52V1.676H0.032ZM21.276 7.1V5.948H10.716V7.1H15.18V7.652H11.796V8.804H18.564V9.212H11.796V11.852H20.424V10.688H13.404V10.268H20.172V7.652H16.812V7.1H21.276ZM11.724 5.684C12.924 5.636 14.256 5.432 15.336 4.976C15.552 4.88 15.756 4.772 15.948 4.664C16.152 4.796 16.368 4.916 16.608 5.024C17.64 5.468 18.96 5.648 20.208 5.6L20.904 4.424C19.464 4.4 18.228 4.328 17.292 3.944L16.92 3.764C16.932 3.728 16.956 3.704 16.98 3.668H20.208V2.468H11.736V3.668H15.012C14.796 3.824 14.532 3.944 14.22 4.04C13.416 4.292 12.324 4.412 11.076 4.472L11.724 5.684ZM18.324 0.931999H13.62V2.132H18.324V0.931999ZM22.8401 10.448C23.4881 9.956 24.0641 9.404 24.5801 8.78C25.0241 8.24 25.4201 7.664 25.7441 7.04L25.8161 7.172C26.5841 8.384 27.6521 9.5 28.7321 10.196L29.7041 9.02C28.2041 8.168 27.1001 6.98 26.4161 5.456C26.5241 5.108 26.6201 4.76 26.7041 4.388C26.8121 3.932 26.8841 3.464 26.9321 2.972H29.3561V1.604H22.4801V2.972H25.2881C25.2521 3.344 25.1921 3.716 25.1201 4.076C24.6881 6.296 23.5961 8.132 21.7601 9.332L22.8401 10.448ZM32.1641 11.924V1.172H30.5561V11.924H32.1641ZM37.4001 0.883999C35.6241 0.883999 34.3041 1.832 34.3041 3.248C34.3041 4.664 35.6241 5.612 37.4001 5.612C39.1761 5.612 40.4961 4.664 40.4961 3.248C40.4961 1.832 39.1761 0.883999 37.4001 0.883999ZM39.5121 8.9H41.9121V9.512H43.5201V1.172H41.9121V7.676H39.5121V8.9ZM35.0841 8.9V11.72H43.7361V10.352H36.6921V8.9H35.0841ZM38.1441 8.648V7.268L41.4201 7.22V5.948L33.5601 6.044V7.34L36.5121 7.292V8.648H38.1441ZM37.4001 4.316C36.5001 4.316 35.9121 3.884 35.9121 3.248C35.9121 2.612 36.5001 2.18 37.4001 2.18C38.2761 2.18 38.8881 2.612 38.8881 3.248C38.8881 3.884 38.2761 4.316 37.4001 4.316ZM52.3201 8.996C51.4921 8.432 50.7841 7.808 50.2201 7.124C49.7761 6.584 49.3801 5.972 49.0441 5.3C49.4161 4.112 49.5961 2.84 49.5961 1.484H47.9641C47.9641 4.724 46.9441 7.388 44.3761 9.284L45.4561 10.4C46.7401 9.404 47.7121 8.24 48.3961 6.92C48.6601 7.352 48.9601 7.772 49.2841 8.18C49.8961 8.936 50.5681 9.584 51.3241 10.148L52.3201 8.996ZM50.8441 5.9H53.2201V11.924H54.8281V1.172H53.2201V4.532H50.8441V5.9ZM60.9762 1.484V4.34H58.3722V1.484H56.7642V9.956H62.5842V1.484H60.9762ZM65.9202 11.924V1.172H64.3122V11.924H65.9202ZM58.3722 8.588V5.684H60.9762V8.588H58.3722ZM68.3602 7.832C69.7042 7.364 71.0602 6.572 72.0802 5.504C72.2602 5.3 72.4402 5.096 72.5962 4.892C72.6802 5 72.7762 5.12 72.8842 5.228C73.9522 6.392 75.4162 7.328 76.9162 7.784L77.7802 6.56C76.1122 6.032 74.7682 5.3 73.7602 4.22C73.6042 4.052 73.4602 3.872 73.3162 3.692L73.3282 3.668C73.6522 2.984 73.8202 2.24 73.8442 1.424H72.1882C72.0562 4.04 70.1842 5.78 67.4362 6.644L68.3602 7.832ZM77.9362 11.012V9.644H67.3762V11.012H77.9362Z" fill="#242D3C"/>
</svg>
