<svg width="45" height="13" viewBox="0 0 45 13" fill="none" xmlns="http://www.w3.org/2000/svg">
<path d="M7.92 6.152C7.14 5.852 6.456 5.444 5.844 4.94C5.424 4.592 5.088 4.172 4.812 3.68C4.848 3.596 4.872 3.5 4.908 3.404C5.136 2.744 5.256 2.06 5.268 1.34H3.636C3.54 3.608 2.412 5.552 0.12 6.536L1.128 7.688C2.268 7.148 3.288 6.284 4.02 5.192L4.14 5.024C4.908 6.08 5.94 6.92 7.02 7.376L7.92 6.152ZM2.172 8.132V11.804H10.716V10.436H3.78V8.132H2.172ZM10.416 9.056V1.172H8.808V9.056H10.416ZM22.276 7.436V6.164H19.84V4.7C20.044 4.532 20.224 4.34 20.356 4.124C20.548 3.824 20.644 3.488 20.644 3.128C20.644 1.676 19.048 0.715999 16.996 0.715999C15.976 0.715999 15.064 0.956 14.404 1.376C13.408 1.952 13.048 3.2 13.624 4.124C13.756 4.34 13.936 4.532 14.152 4.712V6.164H11.716V7.436H22.276ZM17.044 7.796C14.944 7.796 13.456 8.732 13.456 10.136C13.456 11.54 14.944 12.476 17.044 12.476C19.144 12.476 20.632 11.54 20.632 10.136C20.632 8.732 19.144 7.796 17.044 7.796ZM16.996 1.988C18.112 1.988 19.036 2.456 19.036 3.128C19.036 3.8 18.112 4.268 16.996 4.268C15.88 4.268 14.956 3.8 14.956 3.128C14.956 2.456 15.88 1.988 16.996 1.988ZM17.044 11.204C15.748 11.204 15.064 10.772 15.064 10.136C15.064 9.5 15.748 9.068 17.044 9.068C18.34 9.068 19.024 9.5 19.024 10.136C19.024 10.772 18.34 11.204 17.044 11.204ZM16.996 5.54C17.428 5.54 17.836 5.504 18.232 5.42V6.164H15.76V5.42C16.144 5.504 16.552 5.54 16.996 5.54ZM29.1081 11.648H30.6681V6.344H31.6041V11.912H33.1881V1.172H31.6041V4.952H30.6681V1.292H29.1081V11.648ZM23.6961 1.676V10.028L28.6281 9.74V8.396L25.2801 8.54V3.044H28.1841V1.676H23.6961ZM44.9401 7.1V5.948H34.3801V7.1H38.8441V7.652H35.4601V8.804H42.2281V9.212H35.4601V11.852H44.0881V10.688H37.0681V10.268H43.8361V7.652H40.4761V7.1H44.9401ZM35.3881 5.684C36.5881 5.636 37.9201 5.432 39.0001 4.976C39.2161 4.88 39.4201 4.772 39.6121 4.664C39.8161 4.796 40.0321 4.916 40.2721 5.024C41.3041 5.468 42.6241 5.648 43.8721 5.6L44.5681 4.424C43.1281 4.4 41.8921 4.328 40.9561 3.944L40.5841 3.764C40.5961 3.728 40.6201 3.704 40.6441 3.668H43.8721V2.468H35.4001V3.668H38.6761C38.4601 3.824 38.1961 3.944 37.8841 4.04C37.0801 4.292 35.9881 4.412 34.7401 4.472L35.3881 5.684ZM41.9881 0.931999H37.2841V2.132H41.9881V0.931999Z" fill="#242D3C"/>
</svg>
