<svg width="79" height="13" viewBox="0 0 79 13" fill="none" xmlns="http://www.w3.org/2000/svg">
<path d="M10.944 8.132V6.812H6.48V6.092C6.684 6.056 6.888 6.008 7.092 5.948C8.412 5.576 9.312 4.676 9.312 3.464C9.312 1.868 7.716 0.788 5.664 0.788C4.116 0.788 2.868 1.4 2.292 2.372C1.92 3.032 1.92 3.896 2.292 4.568C2.676 5.228 3.348 5.696 4.224 5.948C4.428 6.008 4.632 6.056 4.848 6.092V6.812H0.384V8.132H10.944ZM1.584 8.612V11.804H10.212V10.436H3.192V8.612H1.584ZM5.664 2.132C6.78 2.132 7.704 2.684 7.704 3.464C7.704 4.244 6.78 4.796 5.664 4.796C4.548 4.796 3.624 4.244 3.624 3.464C3.624 2.684 4.548 2.132 5.664 2.132ZM18.904 9.848V8.504L13.804 8.732V6.416H17.836V1.52H12.196V2.888H16.228V5.06H12.196V10.22L18.904 9.848ZM20.992 11.924V6.392H22.516V5H20.992V1.172H19.384V11.924H20.992ZM26.5401 1.064C24.7521 1.064 23.3241 2.348 23.3241 4.148C23.3241 5.948 24.7521 7.232 26.5401 7.232C28.3281 7.232 29.7561 5.948 29.7561 4.148C29.7561 2.348 28.3281 1.064 26.5401 1.064ZM26.5401 5.864C25.5441 5.864 24.9321 5.168 24.9321 4.148C24.9321 3.128 25.5441 2.432 26.5401 2.432C27.5361 2.432 28.1481 3.128 28.1481 4.148C28.1481 5.168 27.5361 5.864 26.5401 5.864ZM32.9601 9.056V1.172H31.3521V9.056H32.9601ZM24.7161 8.132V11.804H33.2601V10.436H26.3241V8.132H24.7161ZM40.4401 11.648H42.0001V6.344H42.9361V11.912H44.5201V1.172H42.9361V4.952H42.0001V1.292H40.4401V11.648ZM35.0281 1.676V10.028L39.9601 9.74V8.396L36.6121 8.54V3.044H39.5161V1.676H35.0281ZM56.2721 7.1V5.948H45.7121V7.1H50.1761V7.652H46.7921V8.804H53.5601V9.212H46.7921V11.852H55.4201V10.688H48.4001V10.268H55.1681V7.652H51.8081V7.1H56.2721ZM46.7201 5.684C47.9201 5.636 49.2521 5.432 50.3321 4.976C50.5481 4.88 50.7521 4.772 50.9441 4.664C51.1481 4.796 51.3641 4.916 51.6041 5.024C52.6361 5.468 53.9561 5.648 55.2041 5.6L55.9001 4.424C54.4601 4.4 53.2241 4.328 52.2881 3.944L51.9161 3.764C51.9281 3.728 51.9521 3.704 51.9761 3.668H55.2041V2.468H46.7321V3.668H50.0081C49.7921 3.824 49.5281 3.944 49.2161 4.04C48.4121 4.292 47.3201 4.412 46.0721 4.472L46.7201 5.684ZM53.3201 0.931999H48.6161V2.132H53.3201V0.931999ZM66.5482 11.972V7.928H58.0762V9.296H64.9402V11.972H66.5482ZM66.5722 7.448V6.128H67.8442V4.76H66.5722V3.608H67.8442V2.24H66.5722V1.172H64.9642V7.448H66.5722ZM60.3442 1.064C58.5562 1.064 57.1282 2.312 57.1282 4.088C57.1282 5.864 58.5562 7.112 60.3442 7.112C62.1322 7.112 63.5602 5.864 63.5602 4.088C63.5602 2.312 62.1322 1.064 60.3442 1.064ZM60.3442 5.744C59.3482 5.744 58.7362 5.084 58.7362 4.088C58.7362 3.092 59.3482 2.432 60.3442 2.432C61.3402 2.432 61.9522 3.092 61.9522 4.088C61.9522 5.084 61.3402 5.744 60.3442 5.744ZM74.7362 6.932C72.7202 6.932 71.2682 8.024 71.2682 9.584C71.2682 11.156 72.7202 12.236 74.7362 12.236C76.7522 12.236 78.2042 11.156 78.2042 9.584C78.2042 8.024 76.7522 6.932 74.7362 6.932ZM75.9362 5.264C74.7362 5.048 73.7762 4.688 73.0682 4.004C72.9962 3.932 72.9242 3.848 72.8642 3.764C72.9602 3.56 73.0442 3.332 73.1162 3.104C73.1522 3.008 73.1762 2.912 73.2002 2.816H75.5042V1.52H68.7962V2.816H71.5202C71.3402 3.38 71.0522 3.884 70.6322 4.328C69.9962 5 69.1562 5.492 68.1122 5.792L69.0482 6.992C70.0082 6.68 71.0762 6.032 71.8922 5.168L72.1082 4.928C72.3842 5.228 72.7082 5.492 73.0562 5.72C73.6922 6.128 74.3762 6.404 75.1082 6.536L75.9362 5.264ZM74.9282 4.592H76.8002V7.04H78.4082V1.172H76.8002V3.296H74.9282V4.592ZM74.7362 10.916C73.5362 10.916 72.8762 10.388 72.8762 9.584C72.8762 8.78 73.5362 8.252 74.7362 8.252C75.9362 8.252 76.5962 8.78 76.5962 9.584C76.5962 10.388 75.9362 10.916 74.7362 10.916Z" fill="#242D3C"/>
</svg>
