<svg width="150" height="14" viewBox="0 0 150 14" fill="none" xmlns="http://www.w3.org/2000/svg">
<path d="M9.534 10.656V9.088L3.164 9.354V6.652H7.868V0.94H1.288V2.536H5.992V5.07H1.288V11.09L9.534 10.656ZM11.97 13.078V0.533999H10.094V13.078H11.97ZM14.8167 8.304C16.3847 7.758 17.9667 6.834 19.1567 5.588C19.3667 5.35 19.5767 5.112 19.7587 4.874C19.8567 5 19.9687 5.14 20.0947 5.266C21.3407 6.624 23.0487 7.716 24.7987 8.248L25.8067 6.82C23.8607 6.204 22.2927 5.35 21.1167 4.09C20.9347 3.894 20.7667 3.684 20.5987 3.474L20.6127 3.446C20.9907 2.648 21.1867 1.78 21.2147 0.827999H19.2827C19.1287 3.88 16.9447 5.91 13.7387 6.918L14.8167 8.304ZM25.9887 12.014V10.418H13.6687V12.014H25.9887ZM38.1454 7.548V4.972H39.6294V3.376H38.1454V0.533999H36.2694V7.548H38.1454ZM38.3974 12.994V11.608H30.5294V11.09H38.1174V7.968H28.6534V9.34H36.2414V9.83H28.6534V12.994H38.3974ZM33.6654 1.612V0.24H28.7654V1.612H33.6654ZM35.4854 3.32V1.948H26.9454V3.32H35.4854ZM31.3274 3.572C29.1294 3.572 27.7714 4.37 27.7714 5.56C27.7714 6.75 29.1294 7.548 31.3274 7.548C33.5254 7.548 34.8834 6.75 34.8834 5.56C34.8834 4.37 33.5254 3.572 31.3274 3.572ZM31.3274 6.232C30.1654 6.232 29.6194 5.994 29.6194 5.56C29.6194 5.126 30.1654 4.888 31.3274 4.888C32.4894 4.888 33.0354 5.126 33.0354 5.56C33.0354 5.994 32.4894 6.232 31.3274 6.232ZM49.2101 0.758V2.256H43.3301V0.758H41.4541V6.75H51.0861V0.758H49.2101ZM47.2221 13.078V9.354H52.4301V7.758H40.1101V9.354H45.3181V13.078H47.2221ZM43.3301 5.14V3.824H49.2101V5.14H43.3301Z" fill="#242D3C"/>
</svg>
