<svg width="151" height="128" viewBox="0 0 151 128" fill="none" xmlns="http://www.w3.org/2000/svg">
<path d="M2.218 8.122H12.984V6.512H11.08L11.206 3.194H9.33L9.204 6.512H5.984L5.872 3.194H3.996L4.108 6.512H2.218V8.122ZM13.768 12.014V10.418H1.448V12.014H13.768ZM2.638 2.634H12.564V1.038H2.638V2.634ZM21.7387 9.788H23.5587V5.196H24.6367V10.096H26.4847V0.533999H24.6367V3.572H23.5587V0.659999H21.7387V9.788ZM21.1787 7.926V6.386L17.1187 6.568V5.252H20.7167V0.884H15.2707V2.452H18.8687V3.712H15.2707V8.276L21.1787 7.926ZM16.6987 8.906V12.938H26.8067V11.342H18.5747V8.906H16.6987ZM28.6174 11.496C29.9474 10.67 31.1514 9.592 32.0054 8.234L32.0334 8.192C32.3274 8.626 32.6494 9.046 33.0134 9.424C33.7414 10.194 34.5954 10.81 35.4354 11.202L36.5414 9.802C35.5474 9.368 34.7214 8.822 34.0354 8.15C33.5734 7.688 33.1674 7.142 32.8454 6.512C32.9154 6.33 32.9714 6.162 33.0134 5.98C33.1394 5.56 33.2374 5.126 33.2934 4.664H36.0374V3.068H28.3094V4.664H31.3754C31.3334 4.958 31.2634 5.252 31.1934 5.518C30.6334 7.576 29.3174 9.074 27.3854 10.166L28.6174 11.496ZM38.8514 13.078V6.904H40.6294V5.28H38.8514V0.533999H36.9754V13.078H38.8514ZM34.4554 2.102V0.505999H29.9614V2.102H34.4554ZM49.4961 5.378C49.4961 2.858 47.7461 1.094 45.4361 1.094C43.1261 1.094 41.3761 2.858 41.3761 5.378C41.3761 7.898 43.1261 9.662 45.4361 9.662C47.7461 9.662 49.4961 7.898 49.4961 5.378ZM47.6201 5.378C47.6201 7.002 46.7241 8.066 45.4361 8.066C44.1481 8.066 43.2521 7.002 43.2521 5.378C43.2521 3.754 44.1481 2.69 45.4361 2.69C46.7241 2.69 47.6201 3.754 47.6201 5.378ZM52.7721 13.078V0.533999H50.8961V13.078H52.7721ZM66.4128 6.848C64.5228 6.428 63.0388 5.868 61.8908 4.776C61.6528 4.552 61.4428 4.3 61.2468 4.034L61.2748 3.978C61.4848 3.558 61.6528 3.11 61.7508 2.634H65.4748V1.038H55.5068V2.634H59.7628C59.6928 2.9 59.5948 3.166 59.4688 3.418C58.5728 5.21 56.7388 6.358 54.4568 6.946L55.5068 8.36C56.9768 7.954 58.5448 7.156 59.7628 5.994C59.9728 5.798 60.1688 5.588 60.3508 5.378C60.5048 5.574 60.6868 5.756 60.8688 5.938C62.1288 7.17 63.7528 7.968 65.4328 8.304L66.4128 6.848ZM66.6508 12.014V10.418H54.3308V12.014H66.6508ZM79.8715 8.962V7.45H74.7335V6.61H78.7375V5.084H70.7575V4.342H78.5275V0.674H68.8815V2.186H76.6515V2.914H68.8815V6.61H72.8295V7.45H67.5515V8.962H79.8715ZM68.9515 9.494V12.938H79.0175V11.342H70.8275V9.494H68.9515ZM91.8602 13.134V8.416H81.9762V10.012H89.9842V13.134H91.8602ZM91.8882 7.856V6.316H93.3722V4.72H91.8882V3.376H93.3722V1.78H91.8882V0.533999H90.0122V7.856H91.8882ZM84.6222 0.407999C82.5362 0.407999 80.8702 1.864 80.8702 3.936C80.8702 6.008 82.5362 7.464 84.6222 7.464C86.7082 7.464 88.3742 6.008 88.3742 3.936C88.3742 1.864 86.7082 0.407999 84.6222 0.407999ZM84.6222 5.868C83.4602 5.868 82.7462 5.098 82.7462 3.936C82.7462 2.774 83.4602 2.004 84.6222 2.004C85.7842 2.004 86.4982 2.774 86.4982 3.936C86.4982 5.098 85.7842 5.868 84.6222 5.868ZM101.413 7.254C99.0609 7.254 97.3669 8.528 97.3669 10.348C97.3669 12.182 99.0609 13.442 101.413 13.442C103.765 13.442 105.459 12.182 105.459 10.348C105.459 8.528 103.765 7.254 101.413 7.254ZM102.813 5.308C101.413 5.056 100.293 4.636 99.4669 3.838C99.3829 3.754 99.2989 3.656 99.2289 3.558C99.3409 3.32 99.4389 3.054 99.5229 2.788C99.5649 2.676 99.5929 2.564 99.6209 2.452H102.309V0.94H94.4829V2.452H97.6609C97.4509 3.11 97.1149 3.698 96.6249 4.216C95.8829 5 94.9029 5.574 93.6849 5.924L94.7769 7.324C95.8969 6.96 97.1429 6.204 98.0949 5.196L98.3469 4.916C98.6689 5.266 99.0469 5.574 99.4529 5.84C100.195 6.316 100.993 6.638 101.847 6.792L102.813 5.308ZM101.637 4.524H103.821V7.38H105.697V0.533999H103.821V3.012H101.637V4.524ZM101.413 11.902C100.013 11.902 99.2429 11.286 99.2429 10.348C99.2429 9.41 100.013 8.794 101.413 8.794C102.813 8.794 103.583 9.41 103.583 10.348C103.583 11.286 102.813 11.902 101.413 11.902Z" fill="#242D3C"/>
<path d="M12.564 47.732V43.35H14.048V41.726H12.564V38.534H10.688V47.732H12.564ZM3.142 46.654V50.938H12.97V49.342H5.018V46.654H3.142ZM2.12 40.508H6.88C6.474 42.468 4.444 44.148 1.294 44.778L2.176 46.234C5.662 45.478 8.966 43.042 8.924 38.94H2.12V40.508ZM22.7327 41.53H24.3567V42.132H22.7327V43.672H24.3567V47.844H26.2327V38.534H24.3567V39.99H22.9847V38.968H15.1587V40.536H16.3067L16.4187 44.302L14.7807 44.344V45.968L23.5167 45.618V44.078L21.8087 44.134L21.9067 40.536H22.7327V41.53ZM16.6707 46.766V50.938H26.6387V49.342H18.5467V46.766H16.6707ZM18.1827 40.536H20.0307L19.9327 44.19L18.2807 44.246L18.1827 40.536ZM36.7654 47.662C35.7994 47.004 34.9734 46.276 34.3154 45.478C33.7974 44.848 33.3354 44.134 32.9434 43.35C33.3774 41.964 33.5874 40.48 33.5874 38.898H31.6834C31.6834 42.678 30.4934 45.786 27.4974 47.998L28.7574 49.3C30.2554 48.138 31.3894 46.78 32.1874 45.24C32.4954 45.744 32.8454 46.234 33.2234 46.71C33.9374 47.592 34.7214 48.348 35.6034 49.006L36.7654 47.662ZM35.0434 44.05H37.8154V51.078H39.6914V38.534H37.8154V42.454H35.0434V44.05ZM52.2961 45.198V43.616H44.3161V42.748H52.0861V38.87H42.4401V40.438H50.2241V41.236H42.4401V45.198H52.2961ZM45.8281 50.938V47.634H48.7121V51.078H50.5881V47.634H53.4301V46.066H41.1101V47.634H43.9521V50.938H45.8281ZM61.5268 47.746C60.7568 47.088 60.0988 46.374 59.5668 45.59C59.1608 44.974 58.8248 44.288 58.5448 43.546C58.6288 43.252 58.6988 42.958 58.7688 42.664C58.9228 42.034 59.0208 41.376 59.0908 40.69H61.1768V39.094H54.6948V40.69H57.2288C57.1868 41.222 57.1028 41.74 57.0048 42.23C56.5008 44.778 55.3668 46.836 53.8688 48.222L55.2268 49.328C55.7448 48.796 56.2348 48.194 56.6968 47.536C57.1028 46.948 57.4808 46.304 57.8028 45.604C57.9708 45.954 58.1528 46.29 58.3628 46.612C58.9088 47.508 59.5668 48.306 60.3228 49.006L61.5268 47.746ZM60.2248 44.274H62.0308V50.756H63.8508V38.674H62.0308V42.678H60.2248V44.274ZM66.4408 51.064V38.534H64.5928V51.064H66.4408ZM79.8715 45.45V44.106H67.5515V45.45H72.7595V46.094H68.8115V47.438H76.7075V47.914H68.8115V50.994H78.8775V49.636H70.6875V49.146H78.5835V46.094H74.6635V45.45H79.8715ZM68.7275 43.798C70.1275 43.742 71.6815 43.504 72.9415 42.972C73.1935 42.86 73.4315 42.734 73.6555 42.608C73.8935 42.762 74.1455 42.902 74.4255 43.028C75.6295 43.546 77.1695 43.756 78.6255 43.7L79.4375 42.328C77.7575 42.3 76.3155 42.216 75.2235 41.768L74.7895 41.558C74.8035 41.516 74.8315 41.488 74.8595 41.446H78.6255V40.046H68.7415V41.446H72.5635C72.3115 41.628 72.0035 41.768 71.6395 41.88C70.7015 42.174 69.4275 42.314 67.9715 42.384L68.7275 43.798ZM76.4275 38.254H70.9395V39.654H76.4275V38.254Z" fill="#242D3C"/>
<path d="M9.134 88H11.038L6.572 77.36H5.312L0.846 88H2.75L3.842 85.326H8.042L9.134 88ZM5.942 80.202L7.398 83.758H4.486L5.942 80.202ZM13.8528 83.002V78.928H15.9108C17.1988 78.928 18.0668 79.852 18.0668 80.958C18.0668 82.078 17.1988 83.002 15.9108 83.002H13.8528ZM15.9108 84.57C18.3188 84.57 19.9148 82.918 19.9148 80.958C19.9148 78.998 18.3188 77.36 15.9108 77.36H12.0048V88H13.8528V84.57H15.9108ZM23.2317 83.002V78.928H25.2897C26.5777 78.928 27.4457 79.852 27.4457 80.958C27.4457 82.078 26.5777 83.002 25.2897 83.002H23.2317ZM25.2897 84.57C27.6977 84.57 29.2937 82.918 29.2937 80.958C29.2937 78.998 27.6977 77.36 25.2897 77.36H21.3837V88H23.2317V84.57H25.2897ZM38.4766 81.378C38.4766 78.858 36.7266 77.094 34.4166 77.094C32.1066 77.094 30.3566 78.858 30.3566 81.378C30.3566 83.898 32.1066 85.662 34.4166 85.662C36.7266 85.662 38.4766 83.898 38.4766 81.378ZM36.6006 81.378C36.6006 83.002 35.7046 84.066 34.4166 84.066C33.1286 84.066 32.2326 83.002 32.2326 81.378C32.2326 79.754 33.1286 78.69 34.4166 78.69C35.7046 78.69 36.6006 79.754 36.6006 81.378ZM41.7526 89.078V76.534H39.8766V89.078H41.7526ZM54.8333 89.078V76.534H52.9573V89.078H54.8333ZM50.9413 86.726V77.038H44.1513V86.726H50.9413ZM46.0273 78.634H49.0653V85.13H46.0273V78.634ZM57.456 87.356C58.212 86.782 58.884 86.138 59.486 85.41C60.004 84.78 60.466 84.108 60.844 83.38L60.928 83.534C61.824 84.948 63.07 86.25 64.33 87.062L65.464 85.69C63.714 84.696 62.426 83.31 61.628 81.532C61.754 81.126 61.866 80.72 61.964 80.286C62.09 79.754 62.174 79.208 62.23 78.634H65.058V77.038H57.036V78.634H60.312C60.27 79.068 60.2 79.502 60.116 79.922C59.612 82.512 58.338 84.654 56.196 86.054L57.456 87.356ZM68.334 89.078V76.534H66.458V89.078H68.334Z" fill="#242D3C"/>
<path d="M10.1 123.662C9.134 123.004 8.308 122.276 7.65 121.478C7.132 120.848 6.67 120.134 6.278 119.35C6.712 117.964 6.922 116.48 6.922 114.898H5.018C5.018 118.678 3.828 121.786 0.832 123.998L2.092 125.3C3.59 124.138 4.724 122.78 5.522 121.24C5.83 121.744 6.18 122.234 6.558 122.71C7.272 123.592 8.056 124.348 8.938 125.006L10.1 123.662ZM12.41 127.078V120.624H14.188V119H12.41V114.534H10.534V127.078H12.41ZM26.2327 121.03V114.534H24.3567V116.942H22.2987C22.2567 116.746 22.1867 116.55 22.1027 116.368C21.5567 115.136 20.2547 114.352 18.7147 114.352C16.6427 114.352 15.0467 115.752 15.0467 117.712C15.0467 119.672 16.6427 121.072 18.7147 121.072C20.2547 121.072 21.5567 120.274 22.1027 119.07C22.1727 118.902 22.2427 118.72 22.2847 118.538H24.3567V121.03H26.2327ZM26.2047 126.994V121.59H24.3287V122.836H18.4767V121.59H16.6007V126.994H26.2047ZM18.7147 119.532C17.5947 119.532 16.9227 118.79 16.9227 117.712C16.9227 116.634 17.5947 115.892 18.7147 115.892C19.8347 115.892 20.5067 116.634 20.5067 117.712C20.5067 118.79 19.8347 119.532 18.7147 119.532ZM24.3287 125.426H18.4767V124.32H24.3287V125.426ZM28.5334 125.356C29.2894 124.782 29.9614 124.138 30.5634 123.41C31.0814 122.78 31.5434 122.108 31.9214 121.38L32.0054 121.534C32.9014 122.948 34.1474 124.25 35.4074 125.062L36.5414 123.69C34.7914 122.696 33.5034 121.31 32.7054 119.532C32.8314 119.126 32.9434 118.72 33.0414 118.286C33.1674 117.754 33.2514 117.208 33.3074 116.634H36.1354V115.038H28.1134V116.634H31.3894C31.3474 117.068 31.2774 117.502 31.1934 117.922C30.6894 120.512 29.4154 122.654 27.2734 124.054L28.5334 125.356ZM38.8514 127.078V120.624H40.6294V119H38.8514V114.534H36.9754V127.078H38.8514ZM52.1421 126.994V122.066H42.3701V126.994H52.1421ZM53.4301 120.918V119.35H51.7361C51.8481 118.832 51.9601 118.23 52.0581 117.544C52.1841 116.704 52.2541 115.766 52.2821 114.73H42.2441V116.298H50.3501C50.3221 116.97 50.2101 117.88 50.0141 118.804L49.8881 119.35H41.1101V120.918H53.4301ZM44.2461 123.606H50.2661V125.426H44.2461V123.606ZM61.4008 126.756H63.2208V120.568H64.3128V127.064H66.1608V114.534H64.3128V118.944H63.2208V114.674H61.4008V126.756ZM55.0868 115.122V124.866L60.8408 124.53V122.962L56.9348 123.13V116.718H60.3228V115.122H55.0868ZM79.8715 121.45V120.106H67.5515V121.45H72.7595V122.094H68.8115V123.438H76.7075V123.914H68.8115V126.994H78.8775V125.636H70.6875V125.146H78.5835V122.094H74.6635V121.45H79.8715ZM68.7275 119.798C70.1275 119.742 71.6815 119.504 72.9415 118.972C73.1935 118.86 73.4315 118.734 73.6555 118.608C73.8935 118.762 74.1455 118.902 74.4255 119.028C75.6295 119.546 77.1695 119.756 78.6255 119.7L79.4375 118.328C77.7575 118.3 76.3155 118.216 75.2235 117.768L74.7895 117.558C74.8035 117.516 74.8315 117.488 74.8595 117.446H78.6255V116.046H68.7415V117.446H72.5635C72.3115 117.628 72.0035 117.768 71.6395 117.88C70.7015 118.174 69.4275 118.314 67.9715 118.384L68.7275 119.798ZM76.4275 114.254H70.9395V115.654H76.4275V114.254ZM91.8882 123.732V119.07H93.3722V117.446H91.8882V114.534H90.0122V123.732H91.8882ZM88.2762 121.478V114.94H81.2622V121.478H88.2762ZM83.1382 116.508H86.4002V119.91H83.1382V116.508ZM82.4662 122.654V126.938H92.2942V125.342H84.3422V122.654H82.4662ZM105.515 127.078V114.534H103.639V127.078H105.515ZM94.8889 116.634H99.7889C99.5229 119.504 97.5769 122.388 94.3149 123.956L95.5189 125.286C99.0189 123.41 101.819 119.91 101.777 115.038H94.8889V116.634Z" fill="#242D3C"/>
</svg>
