<svg width="129" height="90" viewBox="0 0 129 90" fill="none" xmlns="http://www.w3.org/2000/svg">
<path d="M7.518 12.756H9.338V6.568H10.43V13.064H12.278V0.533999H10.43V4.944H9.338V0.674H7.518V12.756ZM1.204 1.122V10.866L6.958 10.53V8.962L3.052 9.13V2.718H6.44V1.122H1.204ZM25.9887 7.45V6.106H13.6687V7.45H18.8767V8.094H14.9287V9.438H22.8247V9.914H14.9287V12.994H24.9947V11.636H16.8047V11.146H24.7007V8.094H20.7807V7.45H25.9887ZM14.8447 5.798C16.2447 5.742 17.7987 5.504 19.0587 4.972C19.3107 4.86 19.5487 4.734 19.7727 4.608C20.0107 4.762 20.2627 4.902 20.5427 5.028C21.7467 5.546 23.2867 5.756 24.7427 5.7L25.5547 4.328C23.8747 4.3 22.4327 4.216 21.3407 3.768L20.9067 3.558C20.9207 3.516 20.9487 3.488 20.9767 3.446H24.7427V2.046H14.8587V3.446H18.6807C18.4287 3.628 18.1207 3.768 17.7567 3.88C16.8187 4.174 15.5447 4.314 14.0887 4.384L14.8447 5.798ZM22.5447 0.253999H17.0567V1.654H22.5447V0.253999ZM34.0574 7.254C31.7054 7.254 30.0114 8.528 30.0114 10.348C30.0114 12.182 31.7054 13.442 34.0574 13.442C36.4094 13.442 38.1034 12.182 38.1034 10.348C38.1034 8.528 36.4094 7.254 34.0574 7.254ZM35.5414 5.336C34.2254 4.972 33.0494 4.384 32.2094 3.404L31.9574 3.068C31.9714 3.054 31.9714 3.026 31.9854 2.998C32.2794 2.298 32.4334 1.542 32.4474 0.729999H30.5434C30.4174 3.292 28.8914 5.042 26.4414 5.882L27.5894 7.254C28.7514 6.82 29.9554 6.008 30.8654 4.888C30.9634 4.776 31.0474 4.65 31.1454 4.524L31.1594 4.552C32.0834 5.644 33.3014 6.428 34.5194 6.792L35.5414 5.336ZM38.1454 7.38V4.552H39.6294V2.956H38.1454V0.533999H36.2694V7.38H38.1454ZM34.0574 11.902C32.6574 11.902 31.8874 11.286 31.8874 10.348C31.8874 9.41 32.6574 8.794 34.0574 8.794C35.4574 8.794 36.2274 9.41 36.2274 10.348C36.2274 11.286 35.4574 11.902 34.0574 11.902ZM47.6141 2.508V0.94H40.6701V6.974L48.7901 6.596V5.028L42.5461 5.238V2.508H47.6141ZM51.2261 7.436V4.58H52.7101V2.956H51.2261V0.533999H49.3501V7.436H51.2261ZM41.7341 7.996V12.994H51.1981V7.996H41.7341ZM43.6101 9.564H49.3221V11.398H43.6101V9.564ZM62.1228 6.344C61.2128 5.994 60.4148 5.518 59.7008 4.93C59.2108 4.524 58.8188 4.034 58.4968 3.46C58.5388 3.362 58.5668 3.25 58.6088 3.138C58.8748 2.368 59.0148 1.57 59.0288 0.729999H57.1248C57.0128 3.376 55.6968 5.644 53.0228 6.792L54.1988 8.136C55.5288 7.506 56.7188 6.498 57.5728 5.224L57.7128 5.028C58.6088 6.26 59.8128 7.24 61.0728 7.772L62.1228 6.344ZM55.4168 8.654V12.938H65.3848V11.342H57.2928V8.654H55.4168ZM65.0348 9.732V0.533999H63.1588V9.732H65.0348ZM67.4055 7.716C68.5815 7.422 69.8135 6.764 70.7515 5.868L70.9895 5.616L71.1015 5.714C72.0675 6.568 73.3975 7.1 74.5595 7.24L75.4835 5.742C74.1675 5.546 72.9635 5.196 72.0955 4.468L71.8995 4.272C71.9975 4.09 72.0675 3.894 72.1375 3.684H74.6715V5.14H76.3795V7.66H78.2555V0.533999H76.3795V3.6H75.0075V2.2H67.1955V3.684H70.1215C69.9255 4.16 69.6315 4.566 69.2395 4.916C68.5255 5.532 67.5735 5.98 66.3555 6.274L67.4055 7.716ZM73.9715 7.534C71.6195 7.534 69.9255 8.738 69.9255 10.488C69.9255 12.238 71.6195 13.442 73.9715 13.442C76.3235 13.442 78.0175 12.238 78.0175 10.488C78.0175 8.738 76.3235 7.534 73.9715 7.534ZM73.9715 11.93C72.5715 11.93 71.8015 11.37 71.8015 10.488C71.8015 9.606 72.5715 9.046 73.9715 9.046C75.3715 9.046 76.1415 9.606 76.1415 10.488C76.1415 11.37 75.3715 11.93 73.9715 11.93ZM73.5235 1.724V0.24H68.8195V1.724H73.5235Z" fill="#242D3C"/>
<path d="M7.518 50.756H9.338V44.568H10.43V51.064H12.278V38.534H10.43V42.944H9.338V38.674H7.518V50.756ZM1.204 39.122V48.866L6.958 48.53V46.962L3.052 47.13V40.718H6.44V39.122H1.204ZM25.9887 45.45V44.106H13.6687V45.45H18.8767V46.094H14.9287V47.438H22.8247V47.914H14.9287V50.994H24.9947V49.636H16.8047V49.146H24.7007V46.094H20.7807V45.45H25.9887ZM14.8447 43.798C16.2447 43.742 17.7987 43.504 19.0587 42.972C19.3107 42.86 19.5487 42.734 19.7727 42.608C20.0107 42.762 20.2627 42.902 20.5427 43.028C21.7467 43.546 23.2867 43.756 24.7427 43.7L25.5547 42.328C23.8747 42.3 22.4327 42.216 21.3407 41.768L20.9067 41.558C20.9207 41.516 20.9487 41.488 20.9767 41.446H24.7427V40.046H14.8587V41.446H18.6807C18.4287 41.628 18.1207 41.768 17.7567 41.88C16.8187 42.174 15.5447 42.314 14.0887 42.384L14.8447 43.798ZM22.5447 38.254H17.0567V39.654H22.5447V38.254ZM27.4494 40.704H30.9914C30.8374 43.35 29.3114 46.178 26.7074 48.096L28.0374 49.314C29.3954 48.208 30.6414 46.808 31.5234 45.114C31.9014 44.372 32.2234 43.588 32.4614 42.748H34.2674V45.072H32.3214V46.668H34.2674V50.756H36.0874V38.674H34.2674V41.152H32.8114C32.9094 40.494 32.9514 39.822 32.9514 39.108H27.4494V40.704ZM38.7194 51.064V38.534H36.8714V51.064H38.7194ZM48.7621 44.344C47.8521 43.994 47.0541 43.518 46.3401 42.93C45.8501 42.524 45.4581 42.034 45.1361 41.46C45.1781 41.362 45.2061 41.25 45.2481 41.138C45.5141 40.368 45.6541 39.57 45.6681 38.73H43.7641C43.6521 41.376 42.3361 43.644 39.6621 44.792L40.8381 46.136C42.1681 45.506 43.3581 44.498 44.2121 43.224L44.3521 43.028C45.2481 44.26 46.4521 45.24 47.7121 45.772L48.7621 44.344ZM41.9441 46.654V50.938H51.7721V49.342H43.8201V46.654H41.9441ZM51.3661 47.732V43.07H52.8501V41.446H51.3661V38.534H49.4901V47.732H51.3661ZM64.8528 51.078V38.534H62.9768V51.078H64.8528ZM54.2268 40.634H59.1268C58.8608 43.504 56.9148 46.388 53.6528 47.956L54.8568 49.286C58.3568 47.41 61.1568 43.91 61.1148 39.038H54.2268V40.634Z" fill="#242D3C"/>
<path d="M12.768 84.654V83.114H7.56V82.274C7.798 82.232 8.036 82.176 8.274 82.106C9.814 81.672 10.864 80.622 10.864 79.208C10.864 77.346 9.002 76.086 6.608 76.086C4.802 76.086 3.346 76.8 2.674 77.934C2.24 78.704 2.24 79.712 2.674 80.496C3.122 81.266 3.906 81.812 4.928 82.106C5.166 82.176 5.404 82.232 5.656 82.274V83.114H0.448V84.654H12.768ZM1.848 85.214V88.938H11.914V87.342H3.724V85.214H1.848ZM6.608 77.654C7.91 77.654 8.988 78.298 8.988 79.208C8.988 80.118 7.91 80.762 6.608 80.762C5.306 80.762 4.228 80.118 4.228 79.208C4.228 78.298 5.306 77.654 6.608 77.654ZM22.0547 86.656V85.088L16.1047 85.354V82.652H20.8087V76.94H14.2287V78.536H18.9327V81.07H14.2287V87.09L22.0547 86.656ZM24.4907 89.078V82.624H26.2687V81H24.4907V76.534H22.6147V89.078H24.4907ZM30.9634 76.408C28.8774 76.408 27.2114 77.906 27.2114 80.006C27.2114 82.106 28.8774 83.604 30.9634 83.604C33.0494 83.604 34.7154 82.106 34.7154 80.006C34.7154 77.906 33.0494 76.408 30.9634 76.408ZM30.9634 82.008C29.8014 82.008 29.0874 81.196 29.0874 80.006C29.0874 78.816 29.8014 78.004 30.9634 78.004C32.1254 78.004 32.8394 78.816 32.8394 80.006C32.8394 81.196 32.1254 82.008 30.9634 82.008ZM38.4534 85.732V76.534H36.5774V85.732H38.4534ZM28.8354 84.654V88.938H38.8034V87.342H30.7114V84.654H28.8354ZM48.9021 82.344C47.9921 81.994 47.1941 81.518 46.4801 80.93C45.9901 80.524 45.5981 80.034 45.2761 79.46C45.3181 79.362 45.3461 79.25 45.3881 79.138C45.6541 78.368 45.7941 77.57 45.8081 76.73H43.9041C43.7921 79.376 42.4761 81.644 39.8021 82.792L40.9781 84.136C42.3081 83.506 43.4981 82.498 44.3521 81.224L44.4921 81.028C45.3881 82.26 46.5921 83.24 47.8521 83.772L48.9021 82.344ZM42.1961 84.654V88.938H52.1641V87.342H44.0721V84.654H42.1961ZM51.8141 85.732V76.534H49.9381V85.732H51.8141ZM65.6508 83.842V82.358H62.8088V80.65C63.0468 80.454 63.2568 80.23 63.4108 79.978C63.6348 79.628 63.7468 79.236 63.7468 78.816C63.7468 77.122 61.8848 76.002 59.4908 76.002C58.3008 76.002 57.2368 76.282 56.4668 76.772C55.3048 77.444 54.8848 78.9 55.5568 79.978C55.7108 80.23 55.9208 80.454 56.1728 80.664V82.358H53.3308V83.842H65.6508ZM59.5468 84.262C57.0968 84.262 55.3608 85.354 55.3608 86.992C55.3608 88.63 57.0968 89.722 59.5468 89.722C61.9968 89.722 63.7328 88.63 63.7328 86.992C63.7328 85.354 61.9968 84.262 59.5468 84.262ZM59.4908 77.486C60.7928 77.486 61.8708 78.032 61.8708 78.816C61.8708 79.6 60.7928 80.146 59.4908 80.146C58.1888 80.146 57.1108 79.6 57.1108 78.816C57.1108 78.032 58.1888 77.486 59.4908 77.486ZM59.5468 88.238C58.0348 88.238 57.2368 87.734 57.2368 86.992C57.2368 86.25 58.0348 85.746 59.5468 85.746C61.0588 85.746 61.8568 86.25 61.8568 86.992C61.8568 87.734 61.0588 88.238 59.5468 88.238ZM59.4908 81.63C59.9948 81.63 60.4708 81.588 60.9328 81.49V82.358H58.0488V81.49C58.4968 81.588 58.9728 81.63 59.4908 81.63ZM77.6675 79.6H69.7715V78.27H77.5275V76.73H67.8955V81.154H71.8295V82.022H66.5515V83.562H78.8715V82.022H73.7335V81.154H77.6675V79.6ZM72.7675 83.982C70.3175 83.982 68.5815 85.116 68.5815 86.852C68.5815 88.588 70.3175 89.722 72.7675 89.722C75.2175 89.722 76.9535 88.588 76.9535 86.852C76.9535 85.116 75.2175 83.982 72.7675 83.982ZM72.7675 88.21C71.2555 88.21 70.4575 87.678 70.4575 86.852C70.4575 86.026 71.2555 85.494 72.7675 85.494C74.2795 85.494 75.0775 86.026 75.0775 86.852C75.0775 87.678 74.2795 88.21 72.7675 88.21ZM91.5182 89.078V76.534H89.6422V89.078H91.5182ZM89.2222 87.174V85.606L79.9822 85.718V87.314L89.2222 87.174ZM84.5042 76.814C82.1942 76.814 80.6122 78.578 80.6122 80.482C80.6122 82.386 82.1942 84.15 84.5042 84.15C86.8142 84.15 88.3962 82.386 88.3962 80.482C88.3962 78.578 86.8142 76.814 84.5042 76.814ZM84.5042 82.554C83.2722 82.554 82.4882 81.546 82.4882 80.482C82.4882 79.418 83.2722 78.41 84.5042 78.41C85.7362 78.41 86.5202 79.418 86.5202 80.482C86.5202 81.546 85.7362 82.554 84.5042 82.554ZM94.9669 82.61C94.9669 79.992 95.9469 77.752 97.3609 76.45L96.5209 75.26C94.4769 76.758 93.1469 79.53 93.1469 82.61C93.1469 85.69 94.4629 88.462 96.5209 89.96L97.3609 88.77C95.9329 87.496 94.9669 85.214 94.9669 82.61ZM104.019 76.478C101.261 76.478 99.3855 78.34 99.3855 80.44C99.3855 82.022 100.435 83.45 102.129 84.08C102.423 84.206 102.745 84.29 103.095 84.332V86.558H97.8875V88.154H110.207V86.558H104.999V84.332C105.321 84.276 105.629 84.192 105.923 84.08C107.631 83.45 108.681 82.022 108.681 80.44C108.681 78.34 106.819 76.478 104.019 76.478ZM104.033 82.806C102.297 82.806 101.261 81.714 101.261 80.44C101.261 79.18 102.297 78.074 104.033 78.074C105.769 78.074 106.805 79.18 106.805 80.44C106.805 81.714 105.769 82.806 104.033 82.806ZM121.944 79.978H114.3V78.606H122.084V77.01H112.438V84.612H116.386V86.558H111.108V88.154H123.428V86.558H118.29V84.612H122.364V83.002H114.314V81.574H121.944V79.978ZM126.247 82.61C126.247 85.214 125.281 87.496 123.853 88.77L124.693 89.96C126.751 88.462 128.067 85.69 128.067 82.61C128.067 79.53 126.737 76.758 124.693 75.26L123.853 76.45C125.267 77.752 126.247 79.992 126.247 82.61Z" fill="#242D3C"/>
</svg>
