<svg width="151" height="52" viewBox="0 0 151 52" fill="none" xmlns="http://www.w3.org/2000/svg">
<path d="M10.24 6.344C9.33 5.994 8.532 5.518 7.818 4.93C7.328 4.524 6.936 4.034 6.614 3.46C6.656 3.362 6.684 3.25 6.726 3.138C6.992 2.368 7.132 1.57 7.146 0.729999H5.242C5.13 3.376 3.814 5.644 1.14 6.792L2.316 8.136C3.646 7.506 4.836 6.498 5.69 5.224L5.83 5.028C6.726 6.26 7.93 7.24 9.19 7.772L10.24 6.344ZM3.534 8.654V12.938H13.502V11.342H5.41V8.654H3.534ZM13.152 9.732V0.533999H11.276V9.732H13.152ZM15.3967 11.496C16.7267 10.67 17.9307 9.592 18.7847 8.234L18.8127 8.192C19.1067 8.626 19.4287 9.046 19.7927 9.424C20.5207 10.194 21.3747 10.81 22.2147 11.202L23.3207 9.802C22.3267 9.368 21.5007 8.822 20.8147 8.15C20.3527 7.688 19.9467 7.142 19.6247 6.512C19.6947 6.33 19.7507 6.162 19.7927 5.98C19.9187 5.56 20.0167 5.126 20.0727 4.664H22.8167V3.068H15.0887V4.664H18.1547C18.1127 4.958 18.0427 5.252 17.9727 5.518C17.4127 7.576 16.0967 9.074 14.1647 10.166L15.3967 11.496ZM25.6307 13.078V6.904H27.4087V5.28H25.6307V0.533999H23.7547V13.078H25.6307ZM21.2347 2.102V0.505999H16.7407V2.102H21.2347ZM34.8614 13.078V8.066H40.2094V6.47H38.3894C38.5154 5.868 38.6414 5.196 38.7394 4.426C38.8934 3.348 38.9774 2.172 39.0054 0.897999H29.0234V2.466H37.0734C37.0174 3.39 36.8914 4.664 36.6394 5.924C36.6114 6.106 36.5694 6.288 36.5274 6.47H27.8894V8.066H32.9574V13.078H34.8614ZM47.3261 10.726V1.122H41.8101V10.726H47.3261ZM48.2501 12.756H50.0701V6.568H51.0921V13.064H52.9401V0.533999H51.0921V4.944H50.0701V0.674H48.2501V12.756ZM43.6581 2.718H45.4781V9.13H43.6581V2.718Z" fill="#242D3C"/>
<path d="M2.092 49.356C2.848 48.782 3.52 48.138 4.122 47.41C4.64 46.78 5.102 46.108 5.48 45.38L5.564 45.534C6.46 46.948 7.706 48.25 8.966 49.062L10.1 47.69C8.35 46.696 7.062 45.31 6.264 43.532C6.39 43.126 6.502 42.72 6.6 42.286C6.726 41.754 6.81 41.208 6.866 40.634H9.694V39.038H1.672V40.634H4.948C4.906 41.068 4.836 41.502 4.752 41.922C4.248 44.512 2.974 46.654 0.832 48.054L2.092 49.356ZM12.41 51.078V44.624H14.188V43H12.41V38.534H10.534V51.078H12.41ZM25.7847 41.6H17.8887V40.27H25.6447V38.73H16.0127V43.154H19.9467V44.022H14.6687V45.562H26.9887V44.022H21.8507V43.154H25.7847V41.6ZM20.8847 45.982C18.4347 45.982 16.6987 47.116 16.6987 48.852C16.6987 50.588 18.4347 51.722 20.8847 51.722C23.3347 51.722 25.0707 50.588 25.0707 48.852C25.0707 47.116 23.3347 45.982 20.8847 45.982ZM20.8847 50.21C19.3727 50.21 18.5747 49.678 18.5747 48.852C18.5747 48.026 19.3727 47.494 20.8847 47.494C22.3967 47.494 23.1947 48.026 23.1947 48.852C23.1947 49.678 22.3967 50.21 20.8847 50.21ZM28.6174 49.496C29.9474 48.67 31.1514 47.592 32.0054 46.234L32.0334 46.192C32.3274 46.626 32.6494 47.046 33.0134 47.424C33.7414 48.194 34.5954 48.81 35.4354 49.202L36.5414 47.802C35.5474 47.368 34.7214 46.822 34.0354 46.15C33.5734 45.688 33.1674 45.142 32.8454 44.512C32.9154 44.33 32.9714 44.162 33.0134 43.98C33.1394 43.56 33.2374 43.126 33.2934 42.664H36.0374V41.068H28.3094V42.664H31.3754C31.3334 42.958 31.2634 43.252 31.1934 43.518C30.6334 45.576 29.3174 47.074 27.3854 48.166L28.6174 49.496ZM38.8514 51.078V44.904H40.6294V43.28H38.8514V38.534H36.9754V51.078H38.8514ZM34.4554 40.102V38.506H29.9614V40.102H34.4554ZM50.1961 48.656V47.088L43.8261 47.354V44.652H48.5301V38.94H41.9501V40.536H46.6541V43.07H41.9501V49.09L50.1961 48.656ZM52.6321 51.078V38.534H50.7561V51.078H52.6321ZM55.4788 46.304C57.0468 45.758 58.6288 44.834 59.8188 43.588C60.0288 43.35 60.2388 43.112 60.4208 42.874C60.5188 43 60.6308 43.14 60.7568 43.266C62.0028 44.624 63.7108 45.716 65.4608 46.248L66.4688 44.82C64.5228 44.204 62.9548 43.35 61.7788 42.09C61.5968 41.894 61.4288 41.684 61.2608 41.474L61.2748 41.446C61.6528 40.648 61.8488 39.78 61.8768 38.828H59.9448C59.7908 41.88 57.6068 43.91 54.4008 44.918L55.4788 46.304ZM66.6508 50.014V48.418H54.3308V50.014H66.6508Z" fill="#242D3C"/>
</svg>
