<svg width="67" height="52" viewBox="0 0 67 52" fill="none" xmlns="http://www.w3.org/2000/svg">
<path d="M12.768 7.324V5.784H0.448V7.324H5.656V8.052C5.418 8.094 5.194 8.136 4.97 8.192C3.458 8.584 2.478 9.564 2.478 10.852C2.478 12.588 4.214 13.722 6.664 13.722C9.114 13.722 10.85 12.588 10.85 10.852C10.85 9.564 9.87 8.584 8.344 8.192C8.092 8.122 7.826 8.08 7.56 8.038V7.324H12.768ZM12.39 3.88C10.682 3.824 9.156 3.572 8.036 2.928C7.868 2.83 7.7 2.704 7.546 2.578L7.63 2.424L7.7 2.27H11.494V0.729999H1.722V2.27H5.614L5.558 2.354C4.69 3.362 2.912 3.768 0.812 3.936L1.596 5.378C2.94 5.294 4.48 4.958 5.726 4.286C6.048 4.118 6.328 3.922 6.594 3.712C6.804 3.88 7.014 4.034 7.252 4.174C8.498 4.916 10.038 5.28 11.55 5.28L12.39 3.88ZM6.664 12.21C5.152 12.21 4.354 11.678 4.354 10.852C4.354 10.026 5.152 9.494 6.664 9.494C8.176 9.494 8.974 10.026 8.974 10.852C8.974 11.678 8.176 12.21 6.664 12.21ZM25.9887 12.154V10.558H19.8987V5.84H17.9947V10.558H13.6687V12.154H25.9887ZM24.0707 9.27C24.5887 6.974 24.8407 4.16 24.8407 1.094H14.8027V2.69H22.9367C22.9367 4.146 22.7407 7.016 22.2507 9.27H24.0707ZM27.6174 11.496C28.9474 10.67 30.1514 9.592 31.0054 8.234L31.0334 8.192C31.3274 8.626 31.6494 9.046 32.0134 9.424C32.7414 10.194 33.5954 10.81 34.4354 11.202L35.5414 9.802C34.5474 9.368 33.7214 8.822 33.0354 8.15C32.5734 7.688 32.1674 7.142 31.8454 6.512C31.9154 6.33 31.9714 6.162 32.0134 5.98C32.1394 5.56 32.2374 5.126 32.2934 4.664H35.0374V3.068H27.3094V4.664H30.3754C30.3334 4.958 30.2634 5.252 30.1934 5.518C29.6334 7.576 28.3174 9.074 26.3854 10.166L27.6174 11.496ZM37.8514 13.078V6.904H39.6294V5.28H37.8514V0.533999H35.9754V13.078H37.8514ZM33.4554 2.102V0.505999H28.9614V2.102H33.4554ZM47.0821 13.078V8.066H52.4301V6.47H50.6101C50.7361 5.868 50.8621 5.196 50.9601 4.426C51.1141 3.348 51.1981 2.172 51.2261 0.897999H41.2441V2.466H49.2941C49.2381 3.39 49.1121 4.664 48.8601 5.924C48.8321 6.106 48.7901 6.288 48.7481 6.47H40.1101V8.066H45.1781V13.078H47.0821ZM59.5468 10.726V1.122H54.0308V10.726H59.5468ZM60.4708 12.756H62.2908V6.568H63.3128V13.064H65.1608V0.533999H63.3128V4.944H62.2908V0.674H60.4708V12.756ZM55.8788 2.718H57.6988V9.13H55.8788V2.718Z" fill="#242D3C"/>
<path d="M7.616 45.254C5.264 45.254 3.57 46.528 3.57 48.348C3.57 50.182 5.264 51.442 7.616 51.442C9.968 51.442 11.662 50.182 11.662 48.348C11.662 46.528 9.968 45.254 7.616 45.254ZM9.24 43.308C7.84 43.056 6.678 42.636 5.852 41.838C5.754 41.74 5.67 41.656 5.6 41.558L5.642 41.474C5.796 41.152 5.908 40.802 5.992 40.452H8.764V38.94H0.798V40.452H4.032C3.976 40.62 3.92 40.788 3.85 40.942C3.206 42.384 1.862 43.392 0 43.924L1.092 45.324C2.226 44.974 3.486 44.232 4.452 43.21C4.55 43.112 4.634 43 4.718 42.902L4.844 43.028C5.768 43.924 7.014 44.568 8.274 44.792L9.24 43.308ZM11.704 45.38V42.552H13.188V40.956H11.704V38.534H9.828V45.38H11.704ZM7.616 49.902C6.216 49.902 5.446 49.286 5.446 48.348C5.446 47.41 6.216 46.794 7.616 46.794C9.016 46.794 9.786 47.41 9.786 48.348C9.786 49.286 9.016 49.902 7.616 49.902ZM25.1907 51.078V38.534H23.3147V51.078H25.1907ZM14.5647 40.634H19.4647C19.1987 43.504 17.2527 46.388 13.9907 47.956L15.1947 49.286C18.6947 47.41 21.4947 43.91 21.4527 39.038H14.5647V40.634ZM33.5394 45.926V44.386L29.3394 44.568V43.238H32.5174V38.884H27.4914V40.452H30.6694V41.698H27.4914V46.276L33.5394 45.926ZM28.9194 46.906V50.938H39.0274V49.342H30.7954V46.906H28.9194ZM34.2394 47.788H36.0594V38.66H34.2394V41.418H32.9234V43.042H34.2394V47.788ZM38.7054 48.096V38.534H36.8574V48.096H38.7054ZM47.1101 43.07H42.8261V40.536H47.7261V38.94H40.9501V49.09L48.7761 48.656V47.088L42.8261 47.354V44.652H47.1101V43.07ZM47.8241 44.47H49.7561V51.078H51.6321V38.534H49.7561V42.846H47.8241V44.47ZM54.0588 40.634H58.8468C58.8048 41.292 58.6788 41.964 58.4548 42.622L53.8348 42.748V44.344L57.6988 44.218C57.5868 44.4 57.4608 44.568 57.3348 44.75C56.4248 46.038 55.0948 47.186 53.3728 47.984L54.6048 49.286C58.0768 47.494 60.9888 44.008 60.8348 39.038H54.0588V40.634ZM64.1528 51.078V44.764H65.9308V43.14H64.1528V38.534H62.2768V51.078H64.1528Z" fill="#242D3C"/>
</svg>
