<svg width="89" height="14" viewBox="0 0 89 14" fill="none" xmlns="http://www.w3.org/2000/svg">
<path d="M9.24 6.344C8.33 5.994 7.532 5.518 6.818 4.93C6.328 4.524 5.936 4.034 5.614 3.46C5.656 3.362 5.684 3.25 5.726 3.138C5.992 2.368 6.132 1.57 6.146 0.729999H4.242C4.13 3.376 2.814 5.644 0.14 6.792L1.316 8.136C2.646 7.506 3.836 6.498 4.69 5.224L4.83 5.028C5.726 6.26 6.93 7.24 8.19 7.772L9.24 6.344ZM2.534 8.654V12.938H12.502V11.342H4.41V8.654H2.534ZM12.152 9.732V0.533999H10.276V9.732H12.152ZM25.9887 7.842V6.358H23.1467V4.65C23.3847 4.454 23.5947 4.23 23.7487 3.978C23.9727 3.628 24.0847 3.236 24.0847 2.816C24.0847 1.122 22.2227 0.00199926 19.8287 0.00199926C18.6387 0.00199926 17.5747 0.282 16.8047 0.771999C15.6427 1.444 15.2227 2.9 15.8947 3.978C16.0487 4.23 16.2587 4.454 16.5107 4.664V6.358H13.6687V7.842H25.9887ZM19.8847 8.262C17.4347 8.262 15.6987 9.354 15.6987 10.992C15.6987 12.63 17.4347 13.722 19.8847 13.722C22.3347 13.722 24.0707 12.63 24.0707 10.992C24.0707 9.354 22.3347 8.262 19.8847 8.262ZM19.8287 1.486C21.1307 1.486 22.2087 2.032 22.2087 2.816C22.2087 3.6 21.1307 4.146 19.8287 4.146C18.5267 4.146 17.4487 3.6 17.4487 2.816C17.4487 2.032 18.5267 1.486 19.8287 1.486ZM19.8847 12.238C18.3727 12.238 17.5747 11.734 17.5747 10.992C17.5747 10.25 18.3727 9.746 19.8847 9.746C21.3967 9.746 22.1947 10.25 22.1947 10.992C22.1947 11.734 21.3967 12.238 19.8847 12.238ZM19.8287 5.63C20.3327 5.63 20.8087 5.588 21.2707 5.49V6.358H18.3867V5.49C18.8347 5.588 19.3107 5.63 19.8287 5.63ZM33.9594 12.756H35.7794V6.568H36.8714V13.064H38.7194V0.533999H36.8714V4.944H35.7794V0.674H33.9594V12.756ZM27.6454 1.122V10.866L33.3994 10.53V8.962L29.4934 9.13V2.718H32.8814V1.122H27.6454ZM52.4301 7.45V6.106H40.1101V7.45H45.3181V8.094H41.3701V9.438H49.2661V9.914H41.3701V12.994H51.4361V11.636H43.2461V11.146H51.1421V8.094H47.2221V7.45H52.4301ZM41.2861 5.798C42.6861 5.742 44.2401 5.504 45.5001 4.972C45.7521 4.86 45.9901 4.734 46.2141 4.608C46.4521 4.762 46.7041 4.902 46.9841 5.028C48.1881 5.546 49.7281 5.756 51.1841 5.7L51.9961 4.328C50.3161 4.3 48.8741 4.216 47.7821 3.768L47.3481 3.558C47.3621 3.516 47.3901 3.488 47.4181 3.446H51.1841V2.046H41.3001V3.446H45.1221C44.8701 3.628 44.5621 3.768 44.1981 3.88C43.2601 4.174 41.9861 4.314 40.5301 4.384L41.2861 5.798ZM48.9861 0.253999H43.4981V1.654H48.9861V0.253999ZM55.8508 7.002V2.928H57.9088C59.1968 2.928 60.0648 3.852 60.0648 4.958C60.0648 6.078 59.1968 7.002 57.9088 7.002H55.8508ZM57.9088 8.57C60.3168 8.57 61.9128 6.918 61.9128 4.958C61.9128 2.998 60.3168 1.36 57.9088 1.36H54.0028V12H55.8508V8.57H57.9088ZM65.2297 1.36H63.3817V12H70.7317V10.432H65.2297V1.36ZM75.4977 12.266C77.9617 12.266 79.6977 10.544 79.6977 7.898V1.374H77.8497V7.898C77.8497 9.62 76.8557 10.698 75.4977 10.698C74.1397 10.698 73.1457 9.62 73.1457 7.898V1.374H71.2977V7.898C71.2977 10.544 73.0337 12.266 75.4977 12.266ZM88.2765 2.704C87.4785 1.71 86.3305 1.094 84.8885 1.094C82.8445 1.094 81.5285 2.326 81.5285 3.936C81.5285 5.168 82.1585 6.176 83.9645 6.932L85.3645 7.52C86.6525 8.052 86.7505 8.626 86.7505 9.102C86.7505 10.054 86.0365 10.698 84.9025 10.698C83.7265 10.698 82.6905 9.872 82.1445 8.696L80.9685 9.83C81.5285 10.894 82.9845 12.266 84.9025 12.266C87.1145 12.266 88.5985 10.824 88.5985 9.102C88.5985 7.324 87.3525 6.624 85.9105 5.994L84.5385 5.392C83.6425 5 83.3765 4.566 83.3765 3.936C83.3765 3.25 83.8665 2.662 84.8885 2.662C85.6865 2.662 86.4985 3.068 87.1285 3.796L88.2765 2.704Z" fill="#242D3C"/>
</svg>
