<svg width="79" height="14" viewBox="0 0 79 14" fill="none" xmlns="http://www.w3.org/2000/svg">
<path d="M9.38 6.428C8.022 6.036 6.846 5.42 6.006 4.496C5.88 4.356 5.754 4.202 5.656 4.048L5.768 3.754C5.922 3.376 6.034 2.956 6.104 2.522H8.904V0.954H0.938V2.522H4.158C3.976 3.376 3.64 4.104 3.15 4.706C2.464 5.588 1.456 6.288 0.14 6.82L1.288 8.192C2.534 7.674 3.752 6.834 4.662 5.7C4.718 5.63 4.774 5.56 4.816 5.49L4.984 5.686C5.908 6.722 7.126 7.52 8.358 7.884L9.38 6.428ZM2.534 8.654V12.938H12.502V11.342H4.41V8.654H2.534ZM12.152 9.732V0.533999H10.276V9.732H12.152ZM21.2287 7.87C18.8767 7.87 17.1827 9.018 17.1827 10.656C17.1827 12.308 18.8767 13.442 21.2287 13.442C23.5807 13.442 25.2747 12.308 25.2747 10.656C25.2747 9.018 23.5807 7.87 21.2287 7.87ZM21.0887 7.478H22.9087V5.168H23.7767V8.038H25.6247V0.533999H23.7767V3.572H22.9087V0.659999H21.0887V7.478ZM17.2527 3.544C15.4047 3.544 14.2427 4.412 14.2427 5.686C14.2427 6.96 15.4047 7.828 17.2527 7.828C19.1007 7.828 20.2627 6.96 20.2627 5.686C20.2627 4.412 19.1007 3.544 17.2527 3.544ZM20.6127 3.32V1.948H13.7527V3.32H20.6127ZM21.2287 11.958C19.8287 11.958 19.0587 11.44 19.0587 10.656C19.0587 9.872 19.8287 9.354 21.2287 9.354C22.6287 9.354 23.3987 9.872 23.3987 10.656C23.3987 11.44 22.6287 11.958 21.2287 11.958ZM19.1427 1.668V0.296H15.3627V1.668H19.1427ZM17.2527 6.512C16.4547 6.512 16.0347 6.19 16.0347 5.686C16.0347 5.182 16.4547 4.86 17.2527 4.86C18.0507 4.86 18.4707 5.182 18.4707 5.686C18.4707 6.19 18.0507 6.512 17.2527 6.512ZM39.2094 7.324V5.784H26.8894V7.324H32.0974V8.052C31.8594 8.094 31.6354 8.136 31.4114 8.192C29.8994 8.584 28.9194 9.564 28.9194 10.852C28.9194 12.588 30.6554 13.722 33.1054 13.722C35.5554 13.722 37.2914 12.588 37.2914 10.852C37.2914 9.564 36.3114 8.584 34.7854 8.192C34.5334 8.122 34.2674 8.08 34.0014 8.038V7.324H39.2094ZM38.8314 3.88C37.1234 3.824 35.5974 3.572 34.4774 2.928C34.3094 2.83 34.1414 2.704 33.9874 2.578L34.0714 2.424L34.1414 2.27H37.9354V0.729999H28.1634V2.27H32.0554L31.9994 2.354C31.1314 3.362 29.3534 3.768 27.2534 3.936L28.0374 5.378C29.3814 5.294 30.9214 4.958 32.1674 4.286C32.4894 4.118 32.7694 3.922 33.0354 3.712C33.2454 3.88 33.4554 4.034 33.6934 4.174C34.9394 4.916 36.4794 5.28 37.9914 5.28L38.8314 3.88ZM33.1054 12.21C31.5934 12.21 30.7954 11.678 30.7954 10.852C30.7954 10.026 31.5934 9.494 33.1054 9.494C34.6174 9.494 35.4154 10.026 35.4154 10.852C35.4154 11.678 34.6174 12.21 33.1054 12.21ZM44.1841 0.407999C42.0981 0.407999 40.4321 1.906 40.4321 4.006C40.4321 6.106 42.0981 7.604 44.1841 7.604C46.2701 7.604 47.9361 6.106 47.9361 4.006C47.9361 1.906 46.2701 0.407999 44.1841 0.407999ZM44.1841 6.008C43.0221 6.008 42.3081 5.196 42.3081 4.006C42.3081 2.816 43.0221 2.004 44.1841 2.004C45.3461 2.004 46.0601 2.816 46.0601 4.006C46.0601 5.196 45.3461 6.008 44.1841 6.008ZM51.6741 9.732V0.533999H49.7981V9.732H51.6741ZM42.0561 8.654V12.938H52.0241V11.342H43.9321V8.654H42.0561ZM60.4988 7.254C58.1468 7.254 56.4528 8.528 56.4528 10.348C56.4528 12.182 58.1468 13.442 60.4988 13.442C62.8508 13.442 64.5448 12.182 64.5448 10.348C64.5448 8.528 62.8508 7.254 60.4988 7.254ZM61.9828 5.336C60.6668 4.972 59.4908 4.384 58.6508 3.404L58.3988 3.068C58.4128 3.054 58.4128 3.026 58.4268 2.998C58.7208 2.298 58.8748 1.542 58.8888 0.729999H56.9848C56.8588 3.292 55.3328 5.042 52.8828 5.882L54.0308 7.254C55.1928 6.82 56.3968 6.008 57.3068 4.888C57.4048 4.776 57.4888 4.65 57.5868 4.524L57.6008 4.552C58.5248 5.644 59.7428 6.428 60.9608 6.792L61.9828 5.336ZM64.5868 7.38V4.552H66.0708V2.956H64.5868V0.533999H62.7108V7.38H64.5868ZM60.4988 11.902C59.0988 11.902 58.3288 11.286 58.3288 10.348C58.3288 9.41 59.0988 8.794 60.4988 8.794C61.8988 8.794 62.6688 9.41 62.6688 10.348C62.6688 11.286 61.8988 11.902 60.4988 11.902ZM77.5835 12.994V8.766H73.6635V7.954H78.8715V6.414H66.5515V7.954H71.7595V8.766H67.8115V12.994H77.5835ZM67.7415 2.27H69.0715L69.1555 4.16H67.3215V5.714H78.0875V4.16H76.2395L76.3235 2.27H77.6675V0.729999H67.7415V2.27ZM69.6875 10.306H75.7075V11.426H69.6875V10.306ZM70.9475 2.27H74.4475L74.3635 4.16H71.0315L70.9475 2.27Z" fill="#242D3C"/>
</svg>
