<svg width="79" height="14" viewBox="0 0 79 14" fill="none" xmlns="http://www.w3.org/2000/svg">
<path d="M1.344 2.508H6.104C5.698 4.468 3.668 6.148 0.518 6.778L1.4 8.234C4.886 7.478 8.19 5.042 8.148 0.94H1.344V2.508ZM8.4 3.964H10.136V5.196H7.994V6.764H10.136V9.732H12.012V0.533999H10.136V2.396H8.4V3.964ZM2.394 8.654V12.938H12.362V11.342H4.27V8.654H2.394ZM22.4887 6.092C21.1587 5.7 19.9967 5.126 19.1567 4.258C19.0447 4.132 18.9327 3.992 18.8347 3.852C18.8627 3.782 18.8907 3.698 18.9327 3.628C19.0727 3.278 19.1847 2.9 19.2547 2.522H21.9847V0.954H14.1587V2.522H17.2947C17.1127 3.292 16.7907 3.964 16.3147 4.538C15.6287 5.378 14.6347 6.05 13.3607 6.54L14.5087 7.912C15.7267 7.422 16.9307 6.61 17.8267 5.504L17.9947 5.28L18.1347 5.434C19.0587 6.442 20.2487 7.184 21.4667 7.548L22.4887 6.092ZM25.3447 13.134V8.416H15.3207V10.012H23.4687V13.134H25.3447ZM21.3127 4.846H23.4967V7.856H25.3727V0.533999H23.4967V3.278H21.3127V4.846ZM38.9714 6.596C37.0814 6.148 35.5554 5.504 34.4354 4.412C34.2254 4.202 34.0434 3.992 33.8614 3.768C34.0434 3.404 34.1974 3.026 34.2954 2.634H38.0334V1.038H28.0654V2.634H32.3074C32.2374 2.872 32.1394 3.096 32.0274 3.306C31.1314 4.986 29.2974 6.05 27.0154 6.666L28.0654 8.08C29.5354 7.632 31.1034 6.862 32.3214 5.756C32.5594 5.546 32.7694 5.322 32.9794 5.084C33.1194 5.252 33.2734 5.42 33.4274 5.574C34.6454 6.792 36.3114 7.66 37.9914 8.052L38.9714 6.596ZM39.2094 12.154V10.558H34.0014V7.464H32.0974V10.558H26.8894V12.154H39.2094ZM45.0241 4.482C43.0501 4.482 41.5801 5.336 41.5801 6.764C41.5801 7.828 42.4061 8.584 43.6521 8.892C43.7921 8.934 43.9321 8.962 44.0861 8.99V9.816L40.3201 9.858V11.454L49.5601 11.314V9.746L45.9901 9.788V8.976C46.1161 8.962 46.2561 8.934 46.3821 8.892C47.6281 8.584 48.4681 7.828 48.4681 6.764C48.4681 5.336 46.9701 4.482 45.0241 4.482ZM51.8561 13.078V0.533999H49.9801V13.078H51.8561ZM49.3081 4.146V2.578H40.7401V4.146H49.3081ZM42.6021 0.589999V2.158H47.4461V0.589999H42.6021ZM45.0241 7.646C44.1141 7.646 43.4281 7.366 43.4281 6.764C43.4281 6.162 44.1141 5.882 45.0241 5.882C45.9341 5.882 46.6201 6.162 46.6201 6.764C46.6201 7.366 45.9341 7.646 45.0241 7.646ZM60.2608 12.756H62.0808V6.568H63.3128V13.064H65.1608V0.533999H63.3128V4.944H62.0808V0.674H60.2608V12.756ZM54.0868 0.981999V10.796L59.7008 10.46V8.892L55.9348 9.06V0.981999H54.0868ZM70.5695 0.407999C68.4695 0.407999 66.8735 1.864 66.8735 3.936C66.8735 6.008 68.4695 7.464 70.5695 7.464C71.6195 7.464 72.5715 7.1 73.2435 6.484L73.3695 6.358H76.2395V7.856H78.1155V0.533999H76.2395V1.626H73.4815L73.2435 1.402C72.5715 0.771999 71.6195 0.407999 70.5695 0.407999ZM78.0875 13.134V8.416H68.0635V10.012H76.2115V13.134H78.0875ZM70.5695 5.868C69.4075 5.868 68.7495 5.098 68.7495 3.936C68.7495 2.774 69.4075 2.004 70.5695 2.004C71.7315 2.004 72.4735 2.774 72.4735 3.936C72.4735 5.098 71.7315 5.868 70.5695 5.868ZM74.3495 3.936C74.3495 3.698 74.3215 3.46 74.2795 3.222H76.2395V4.762H74.2515C74.3215 4.496 74.3495 4.23 74.3495 3.936Z" fill="#242D3C"/>
</svg>
