<svg width="151" height="128" viewBox="0 0 151 128" fill="none" xmlns="http://www.w3.org/2000/svg">
<path d="M12.564 9.732V5.35H14.048V3.726H12.564V0.533999H10.688V9.732H12.564ZM3.142 8.654V12.938H12.97V11.342H5.018V8.654H3.142ZM2.12 2.508H6.88C6.474 4.468 4.444 6.148 1.294 6.778L2.176 8.234C5.662 7.478 8.966 5.042 8.924 0.94H2.12V2.508ZM22.7327 3.53H24.3567V4.132H22.7327V5.672H24.3567V9.844H26.2327V0.533999H24.3567V1.99H22.9847V0.967999H15.1587V2.536H16.3067L16.4187 6.302L14.7807 6.344V7.968L23.5167 7.618V6.078L21.8087 6.134L21.9067 2.536H22.7327V3.53ZM16.6707 8.766V12.938H26.6387V11.342H18.5467V8.766H16.6707ZM18.1827 2.536H20.0307L19.9327 6.19L18.2807 6.246L18.1827 2.536ZM34.6654 1.668V0.24H29.7654V1.668H34.6654ZM36.4854 3.572V2.144H27.9454V3.572H36.4854ZM32.3274 3.866C30.1294 3.866 28.7714 4.804 28.7714 6.19C28.7714 7.576 30.1294 8.514 32.3274 8.514C34.5254 8.514 35.8834 7.576 35.8834 6.19C35.8834 4.804 34.5254 3.866 32.3274 3.866ZM32.3274 7.142C31.1654 7.142 30.6194 6.764 30.6194 6.19C30.6194 5.616 31.1654 5.238 32.3274 5.238C33.4894 5.238 34.0354 5.616 34.0354 6.19C34.0354 6.764 33.4894 7.142 32.3274 7.142ZM39.1454 9.984V5.77H40.6294V4.146H39.1454V0.533999H37.2694V9.984H39.1454ZM29.7234 9.186V12.938H39.5514V11.342H31.5994V9.186H29.7234ZM52.3661 6.4H44.3301V2.634H52.0861V1.038H42.4541V8.01H46.3881V10.558H41.1101V12.154H53.4301V10.558H48.2921V8.01H52.3661V6.4ZM66.4128 6.596C64.5228 6.148 62.9968 5.504 61.8768 4.412C61.6668 4.202 61.4848 3.992 61.3028 3.768C61.4848 3.404 61.6388 3.026 61.7368 2.634H65.4748V1.038H55.5068V2.634H59.7488C59.6788 2.872 59.5808 3.096 59.4688 3.306C58.5728 4.986 56.7388 6.05 54.4568 6.666L55.5068 8.08C56.9768 7.632 58.5448 6.862 59.7628 5.756C60.0008 5.546 60.2108 5.322 60.4208 5.084C60.5608 5.252 60.7148 5.42 60.8688 5.574C62.0868 6.792 63.7528 7.66 65.4328 8.052L66.4128 6.596ZM66.6508 12.154V10.558H61.4428V7.464H59.5388V10.558H54.3308V12.154H66.6508ZM72.4655 4.482C70.4915 4.482 69.0215 5.336 69.0215 6.764C69.0215 7.828 69.8475 8.584 71.0935 8.892C71.2335 8.934 71.3735 8.962 71.5275 8.99V9.816L67.7615 9.858V11.454L77.0015 11.314V9.746L73.4315 9.788V8.976C73.5575 8.962 73.6975 8.934 73.8235 8.892C75.0695 8.584 75.9095 7.828 75.9095 6.764C75.9095 5.336 74.4115 4.482 72.4655 4.482ZM79.2975 13.078V0.533999H77.4215V13.078H79.2975ZM76.7495 4.146V2.578H68.1815V4.146H76.7495ZM70.0435 0.589999V2.158H74.8875V0.589999H70.0435ZM72.4655 7.646C71.5555 7.646 70.8695 7.366 70.8695 6.764C70.8695 6.162 71.5555 5.882 72.4655 5.882C73.3755 5.882 74.0615 6.162 74.0615 6.764C74.0615 7.366 73.3755 7.646 72.4655 7.646Z" fill="#242D3C"/>
<path d="M12.27 51.078V44.764H14.048V43.14H12.27V38.534H10.394V51.078H12.27ZM2.064 40.634H6.964C6.698 43.504 4.752 46.388 1.49 47.956L2.694 49.286C6.194 47.41 8.994 43.91 8.952 39.038H2.064V40.634ZM26.7507 44.596C24.8607 44.148 23.3347 43.504 22.2147 42.412C22.0047 42.202 21.8227 41.992 21.6407 41.768C21.8227 41.404 21.9767 41.026 22.0747 40.634H25.8127V39.038H15.8447V40.634H20.0867C20.0167 40.872 19.9187 41.096 19.8067 41.306C18.9107 42.986 17.0767 44.05 14.7947 44.666L15.8447 46.08C17.3147 45.632 18.8827 44.862 20.1007 43.756C20.3387 43.546 20.5487 43.322 20.7587 43.084C20.8987 43.252 21.0527 43.42 21.2067 43.574C22.4247 44.792 24.0907 45.66 25.7707 46.052L26.7507 44.596ZM26.9887 50.154V48.558H21.7807V45.464H19.8767V48.558H14.6687V50.154H26.9887ZM32.8034 42.482C30.8294 42.482 29.3594 43.336 29.3594 44.764C29.3594 45.828 30.1854 46.584 31.4314 46.892C31.5714 46.934 31.7114 46.962 31.8654 46.99V47.816L28.0994 47.858V49.454L37.3394 49.314V47.746L33.7694 47.788V46.976C33.8954 46.962 34.0354 46.934 34.1614 46.892C35.4074 46.584 36.2474 45.828 36.2474 44.764C36.2474 43.336 34.7494 42.482 32.8034 42.482ZM39.6354 51.078V38.534H37.7594V51.078H39.6354ZM37.0874 42.146V40.578H28.5194V42.146H37.0874ZM30.3814 38.59V40.158H35.2254V38.59H30.3814ZM32.8034 45.646C31.8934 45.646 31.2074 45.366 31.2074 44.764C31.2074 44.162 31.8934 43.882 32.8034 43.882C33.7134 43.882 34.3994 44.162 34.3994 44.764C34.3994 45.366 33.7134 45.646 32.8034 45.646ZM49.9021 44.344C48.9921 43.994 48.1941 43.518 47.4801 42.93C46.9901 42.524 46.5981 42.034 46.2761 41.46C46.3181 41.362 46.3461 41.25 46.3881 41.138C46.6541 40.368 46.7941 39.57 46.8081 38.73H44.9041C44.7921 41.376 43.4761 43.644 40.8021 44.792L41.9781 46.136C43.3081 45.506 44.4981 44.498 45.3521 43.224L45.4921 43.028C46.3881 44.26 47.5921 45.24 48.8521 45.772L49.9021 44.344ZM43.1961 46.654V50.938H53.1641V49.342H45.0721V46.654H43.1961ZM52.8141 47.732V38.534H50.9381V47.732H52.8141ZM55.1848 45.716C56.3608 45.422 57.5928 44.764 58.5308 43.868L58.7688 43.616L58.8808 43.714C59.8468 44.568 61.1768 45.1 62.3388 45.24L63.2628 43.742C61.9468 43.546 60.7428 43.196 59.8748 42.468L59.6788 42.272C59.7768 42.09 59.8468 41.894 59.9168 41.684H62.4508V43.14H64.1588V45.66H66.0348V38.534H64.1588V41.6H62.7868V40.2H54.9748V41.684H57.9008C57.7048 42.16 57.4108 42.566 57.0188 42.916C56.3048 43.532 55.3528 43.98 54.1348 44.274L55.1848 45.716ZM61.7508 45.534C59.3988 45.534 57.7048 46.738 57.7048 48.488C57.7048 50.238 59.3988 51.442 61.7508 51.442C64.1028 51.442 65.7968 50.238 65.7968 48.488C65.7968 46.738 64.1028 45.534 61.7508 45.534ZM61.7508 49.93C60.3508 49.93 59.5808 49.37 59.5808 48.488C59.5808 47.606 60.3508 47.046 61.7508 47.046C63.1508 47.046 63.9208 47.606 63.9208 48.488C63.9208 49.37 63.1508 49.93 61.7508 49.93ZM61.3028 39.724V38.24H56.5988V39.724H61.3028Z" fill="#242D3C"/>
<path d="M13.768 84.654V83.114H8.56V82.274C8.798 82.232 9.036 82.176 9.274 82.106C10.814 81.672 11.864 80.622 11.864 79.208C11.864 77.346 10.002 76.086 7.608 76.086C5.802 76.086 4.346 76.8 3.674 77.934C3.24 78.704 3.24 79.712 3.674 80.496C4.122 81.266 4.906 81.812 5.928 82.106C6.166 82.176 6.404 82.232 6.656 82.274V83.114H1.448V84.654H13.768ZM2.848 85.214V88.938H12.914V87.342H4.724V85.214H2.848ZM7.608 77.654C8.91 77.654 9.988 78.298 9.988 79.208C9.988 80.118 8.91 80.762 7.608 80.762C6.306 80.762 5.228 80.118 5.228 79.208C5.228 78.298 6.306 77.654 7.608 77.654ZM23.0547 86.656V85.088L17.1047 85.354V82.652H21.8087V76.94H15.2287V78.536H19.9327V81.07H15.2287V87.09L23.0547 86.656ZM25.4907 89.078V82.624H27.2687V81H25.4907V76.534H23.6147V89.078H25.4907ZM31.9634 76.408C29.8774 76.408 28.2114 77.906 28.2114 80.006C28.2114 82.106 29.8774 83.604 31.9634 83.604C34.0494 83.604 35.7154 82.106 35.7154 80.006C35.7154 77.906 34.0494 76.408 31.9634 76.408ZM31.9634 82.008C30.8014 82.008 30.0874 81.196 30.0874 80.006C30.0874 78.816 30.8014 78.004 31.9634 78.004C33.1254 78.004 33.8394 78.816 33.8394 80.006C33.8394 81.196 33.1254 82.008 31.9634 82.008ZM39.4534 85.732V76.534H37.5774V85.732H39.4534ZM29.8354 84.654V88.938H39.8034V87.342H31.7114V84.654H29.8354ZM49.9021 82.344C48.9921 81.994 48.1941 81.518 47.4801 80.93C46.9901 80.524 46.5981 80.034 46.2761 79.46C46.3181 79.362 46.3461 79.25 46.3881 79.138C46.6541 78.368 46.7941 77.57 46.8081 76.73H44.9041C44.7921 79.376 43.4761 81.644 40.8021 82.792L41.9781 84.136C43.3081 83.506 44.4981 82.498 45.3521 81.224L45.4921 81.028C46.3881 82.26 47.5921 83.24 48.8521 83.772L49.9021 82.344ZM43.1961 84.654V88.938H53.1641V87.342H45.0721V84.654H43.1961ZM52.8141 85.732V76.534H50.9381V85.732H52.8141ZM66.6508 83.842V82.358H63.8088V80.65C64.0468 80.454 64.2568 80.23 64.4108 79.978C64.6348 79.628 64.7468 79.236 64.7468 78.816C64.7468 77.122 62.8848 76.002 60.4908 76.002C59.3008 76.002 58.2368 76.282 57.4668 76.772C56.3048 77.444 55.8848 78.9 56.5568 79.978C56.7108 80.23 56.9208 80.454 57.1728 80.664V82.358H54.3308V83.842H66.6508ZM60.5468 84.262C58.0968 84.262 56.3608 85.354 56.3608 86.992C56.3608 88.63 58.0968 89.722 60.5468 89.722C62.9968 89.722 64.7328 88.63 64.7328 86.992C64.7328 85.354 62.9968 84.262 60.5468 84.262ZM60.4908 77.486C61.7928 77.486 62.8708 78.032 62.8708 78.816C62.8708 79.6 61.7928 80.146 60.4908 80.146C59.1888 80.146 58.1108 79.6 58.1108 78.816C58.1108 78.032 59.1888 77.486 60.4908 77.486ZM60.5468 88.238C59.0348 88.238 58.2368 87.734 58.2368 86.992C58.2368 86.25 59.0348 85.746 60.5468 85.746C62.0588 85.746 62.8568 86.25 62.8568 86.992C62.8568 87.734 62.0588 88.238 60.5468 88.238ZM60.4908 81.63C60.9948 81.63 61.4708 81.588 61.9328 81.49V82.358H59.0488V81.49C59.4968 81.588 59.9728 81.63 60.4908 81.63ZM78.6675 79.6H70.7715V78.27H78.5275V76.73H68.8955V81.154H72.8295V82.022H67.5515V83.562H79.8715V82.022H74.7335V81.154H78.6675V79.6ZM73.7675 83.982C71.3175 83.982 69.5815 85.116 69.5815 86.852C69.5815 88.588 71.3175 89.722 73.7675 89.722C76.2175 89.722 77.9535 88.588 77.9535 86.852C77.9535 85.116 76.2175 83.982 73.7675 83.982ZM73.7675 88.21C72.2555 88.21 71.4575 87.678 71.4575 86.852C71.4575 86.026 72.2555 85.494 73.7675 85.494C75.2795 85.494 76.0775 86.026 76.0775 86.852C76.0775 87.678 75.2795 88.21 73.7675 88.21ZM92.5182 89.078V76.534H90.6422V89.078H92.5182ZM90.2222 87.174V85.606L80.9822 85.718V87.314L90.2222 87.174ZM85.5042 76.814C83.1942 76.814 81.6122 78.578 81.6122 80.482C81.6122 82.386 83.1942 84.15 85.5042 84.15C87.8142 84.15 89.3962 82.386 89.3962 80.482C89.3962 78.578 87.8142 76.814 85.5042 76.814ZM85.5042 82.554C84.2722 82.554 83.4882 81.546 83.4882 80.482C83.4882 79.418 84.2722 78.41 85.5042 78.41C86.7362 78.41 87.5202 79.418 87.5202 80.482C87.5202 81.546 86.7362 82.554 85.5042 82.554Z" fill="#242D3C"/>
<path d="M9.134 126H11.038L6.572 115.36H5.312L0.846 126H2.75L3.842 123.326H8.042L9.134 126ZM5.942 118.202L7.398 121.758H4.486L5.942 118.202ZM13.8528 121.002V116.928H15.9108C17.1988 116.928 18.0668 117.852 18.0668 118.958C18.0668 120.078 17.1988 121.002 15.9108 121.002H13.8528ZM15.9108 122.57C18.3188 122.57 19.9148 120.918 19.9148 118.958C19.9148 116.998 18.3188 115.36 15.9108 115.36H12.0048V126H13.8528V122.57H15.9108ZM23.2317 121.002V116.928H25.2897C26.5777 116.928 27.4457 117.852 27.4457 118.958C27.4457 120.078 26.5777 121.002 25.2897 121.002H23.2317ZM25.2897 122.57C27.6977 122.57 29.2937 120.918 29.2937 118.958C29.2937 116.998 27.6977 115.36 25.2897 115.36H21.3837V126H23.2317V122.57H25.2897ZM38.4766 119.378C38.4766 116.858 36.7266 115.094 34.4166 115.094C32.1066 115.094 30.3566 116.858 30.3566 119.378C30.3566 121.898 32.1066 123.662 34.4166 123.662C36.7266 123.662 38.4766 121.898 38.4766 119.378ZM36.6006 119.378C36.6006 121.002 35.7046 122.066 34.4166 122.066C33.1286 122.066 32.2326 121.002 32.2326 119.378C32.2326 117.754 33.1286 116.69 34.4166 116.69C35.7046 116.69 36.6006 117.754 36.6006 119.378ZM41.7526 127.078V114.534H39.8766V127.078H41.7526ZM54.8333 127.078V114.534H52.9573V127.078H54.8333ZM50.9413 124.726V115.038H44.1513V124.726H50.9413ZM46.0273 116.634H49.0653V123.13H46.0273V116.634ZM57.456 125.356C58.212 124.782 58.884 124.138 59.486 123.41C60.004 122.78 60.466 122.108 60.844 121.38L60.928 121.534C61.824 122.948 63.07 124.25 64.33 125.062L65.464 123.69C63.714 122.696 62.426 121.31 61.628 119.532C61.754 119.126 61.866 118.72 61.964 118.286C62.09 117.754 62.174 117.208 62.23 116.634H65.058V115.038H57.036V116.634H60.312C60.27 117.068 60.2 117.502 60.116 117.922C59.612 120.512 58.338 122.654 56.196 124.054L57.456 125.356ZM68.334 127.078V114.534H66.458V127.078H68.334Z" fill="#242D3C"/>
</svg>
