<svg width="45" height="11" viewBox="0 0 45 11" fill="none" xmlns="http://www.w3.org/2000/svg">
<path d="M7.992 5.224C6.84 4.888 5.796 4.36 5.052 3.568C4.944 3.448 4.848 3.316 4.752 3.184L4.86 2.92C4.98 2.596 5.076 2.248 5.136 1.876H7.512V0.532H0.804V1.876H3.468C3.312 2.584 3.048 3.208 2.652 3.736C2.088 4.492 1.236 5.104 0.12 5.56L1.104 6.736C2.16 6.292 3.18 5.56 3.936 4.588L4.056 4.444L4.176 4.588C4.992 5.476 6.06 6.16 7.116 6.472L7.992 5.224ZM2.172 7.132V10.804H10.716V9.436H3.78V7.132H2.172ZM6.936 3.988H8.808V8.056H10.416V0.171999H8.808V2.644H6.936V3.988ZM17.932 8.176C17.284 7.744 16.732 7.228 16.276 6.616C15.952 6.172 15.688 5.68 15.46 5.14L15.568 4.792C15.664 4.42 15.748 4.024 15.808 3.616H17.764V2.248H12.004V3.616H14.212C14.176 3.892 14.128 4.168 14.068 4.42C13.636 6.232 12.688 7.6 11.416 8.56L12.52 9.544C12.964 9.16 13.372 8.74 13.768 8.272C14.164 7.816 14.5 7.312 14.8 6.748C14.944 7.012 15.1 7.276 15.268 7.528C15.736 8.212 16.288 8.788 16.936 9.268L17.932 8.176ZM18.376 10.648H19.936V0.292H18.376V4.552H16.972V5.944H18.376V10.648ZM22.096 10.912V0.171999H20.512V10.912H22.096ZM16.624 1.564V0.196H13.264V1.564H16.624ZM28.3761 8.908V5.14H29.4081V10.648H30.9681V0.292H29.4081V3.748H28.3761V0.603999H23.6481V8.908H28.3761ZM33.1881 10.912V0.171999H31.6041V10.912H33.1881ZM25.2321 1.972H26.7921V7.54H25.2321V1.972ZM38.4241 10.804V7.396H40.8961V10.924H42.5041V7.396H44.9401V6.028H34.3801V7.396H36.8161V10.804H38.4241ZM44.0281 3.628H37.1401V0.364H35.5321V4.996H44.0281V3.628Z" fill="#242D3C"/>
</svg>
