<svg width="53" height="14" viewBox="0 0 53 14" fill="none" xmlns="http://www.w3.org/2000/svg">
<path d="M9.24 6.344C8.33 5.994 7.532 5.518 6.818 4.93C6.328 4.524 5.936 4.034 5.614 3.46C5.656 3.362 5.684 3.25 5.726 3.138C5.992 2.368 6.132 1.57 6.146 0.729999H4.242C4.13 3.376 2.814 5.644 0.14 6.792L1.316 8.136C2.646 7.506 3.836 6.498 4.69 5.224L4.83 5.028C5.726 6.26 6.93 7.24 8.19 7.772L9.24 6.344ZM2.534 8.654V12.938H12.502V11.342H4.41V8.654H2.534ZM12.152 9.732V0.533999H10.276V9.732H12.152ZM14.3967 11.496C15.7267 10.67 16.9307 9.592 17.7847 8.234L17.8127 8.192C18.1067 8.626 18.4287 9.046 18.7927 9.424C19.5207 10.194 20.3747 10.81 21.2147 11.202L22.3207 9.802C21.3267 9.368 20.5007 8.822 19.8147 8.15C19.3527 7.688 18.9467 7.142 18.6247 6.512C18.6947 6.33 18.7507 6.162 18.7927 5.98C18.9187 5.56 19.0167 5.126 19.0727 4.664H21.8167V3.068H14.0887V4.664H17.1547C17.1127 4.958 17.0427 5.252 16.9727 5.518C16.4127 7.576 15.0967 9.074 13.1647 10.166L14.3967 11.496ZM24.6307 13.078V6.904H26.4087V5.28H24.6307V0.533999H22.7547V13.078H24.6307ZM20.2347 2.102V0.505999H15.7407V2.102H20.2347ZM38.1454 7.548V4.972H39.6294V3.376H38.1454V0.533999H36.2694V7.548H38.1454ZM38.3974 12.994V11.608H30.5294V11.09H38.1174V7.968H28.6534V9.34H36.2414V9.83H28.6534V12.994H38.3974ZM33.6654 1.612V0.24H28.7654V1.612H33.6654ZM35.4854 3.32V1.948H26.9454V3.32H35.4854ZM31.3274 3.572C29.1294 3.572 27.7714 4.37 27.7714 5.56C27.7714 6.75 29.1294 7.548 31.3274 7.548C33.5254 7.548 34.8834 6.75 34.8834 5.56C34.8834 4.37 33.5254 3.572 31.3274 3.572ZM31.3274 6.232C30.1654 6.232 29.6194 5.994 29.6194 5.56C29.6194 5.126 30.1654 4.888 31.3274 4.888C32.4894 4.888 33.0354 5.126 33.0354 5.56C33.0354 5.994 32.4894 6.232 31.3274 6.232ZM49.2101 0.758V2.256H43.3301V0.758H41.4541V6.75H51.0861V0.758H49.2101ZM47.2221 13.078V9.354H52.4301V7.758H40.1101V9.354H45.3181V13.078H47.2221ZM43.3301 5.14V3.824H49.2101V5.14H43.3301Z" fill="#242D3C"/>
</svg>
