<svg width="67" height="14" viewBox="0 0 67 14" fill="none" xmlns="http://www.w3.org/2000/svg">
<path d="M2.092 11.356C2.848 10.782 3.52 10.138 4.122 9.41C4.64 8.78 5.102 8.108 5.48 7.38L5.564 7.534C6.46 8.948 7.706 10.25 8.966 11.062L10.1 9.69C8.35 8.696 7.062 7.31 6.264 5.532C6.39 5.126 6.502 4.72 6.6 4.286C6.726 3.754 6.81 3.208 6.866 2.634H9.694V1.038H1.672V2.634H4.948C4.906 3.068 4.836 3.502 4.752 3.922C4.248 6.512 2.974 8.654 0.832 10.054L2.092 11.356ZM12.41 13.078V6.624H14.188V5H12.41V0.533999H10.534V13.078H12.41ZM25.7847 3.6H17.8887V2.27H25.6447V0.729999H16.0127V5.154H19.9467V6.022H14.6687V7.562H26.9887V6.022H21.8507V5.154H25.7847V3.6ZM20.8847 7.982C18.4347 7.982 16.6987 9.116 16.6987 10.852C16.6987 12.588 18.4347 13.722 20.8847 13.722C23.3347 13.722 25.0707 12.588 25.0707 10.852C25.0707 9.116 23.3347 7.982 20.8847 7.982ZM20.8847 12.21C19.3727 12.21 18.5747 11.678 18.5747 10.852C18.5747 10.026 19.3727 9.494 20.8847 9.494C22.3967 9.494 23.1947 10.026 23.1947 10.852C23.1947 11.678 22.3967 12.21 20.8847 12.21ZM28.6174 11.496C29.9474 10.67 31.1514 9.592 32.0054 8.234L32.0334 8.192C32.3274 8.626 32.6494 9.046 33.0134 9.424C33.7414 10.194 34.5954 10.81 35.4354 11.202L36.5414 9.802C35.5474 9.368 34.7214 8.822 34.0354 8.15C33.5734 7.688 33.1674 7.142 32.8454 6.512C32.9154 6.33 32.9714 6.162 33.0134 5.98C33.1394 5.56 33.2374 5.126 33.2934 4.664H36.0374V3.068H28.3094V4.664H31.3754C31.3334 4.958 31.2634 5.252 31.1934 5.518C30.6334 7.576 29.3174 9.074 27.3854 10.166L28.6174 11.496ZM38.8514 13.078V6.904H40.6294V5.28H38.8514V0.533999H36.9754V13.078H38.8514ZM34.4554 2.102V0.505999H29.9614V2.102H34.4554ZM50.1961 10.656V9.088L43.8261 9.354V6.652H48.5301V0.94H41.9501V2.536H46.6541V5.07H41.9501V11.09L50.1961 10.656ZM52.6321 13.078V0.533999H50.7561V13.078H52.6321ZM55.4788 8.304C57.0468 7.758 58.6288 6.834 59.8188 5.588C60.0288 5.35 60.2388 5.112 60.4208 4.874C60.5188 5 60.6308 5.14 60.7568 5.266C62.0028 6.624 63.7108 7.716 65.4608 8.248L66.4688 6.82C64.5228 6.204 62.9548 5.35 61.7788 4.09C61.5968 3.894 61.4288 3.684 61.2608 3.474L61.2748 3.446C61.6528 2.648 61.8488 1.78 61.8768 0.827999H59.9448C59.7908 3.88 57.6068 5.91 54.4008 6.918L55.4788 8.304ZM66.6508 12.014V10.418H54.3308V12.014H66.6508Z" fill="#242D3C"/>
</svg>
