<svg width="46" height="16" viewBox="0 0 46 16" fill="none" xmlns="http://www.w3.org/2000/svg">
<path d="M0.408 10.1V10.892H10.92V10.1H6.192V7.916H9.9V7.112H2.508V5.144H9.72V1.652H1.596V2.444H8.808V4.352H1.596V7.916H5.256V10.1H0.408ZM11.74 9.92V10.712H22.252V9.92H20.2C20.332 9.44 20.464 8.9 20.572 8.3C20.956 6.38 21.196 3.98 21.22 1.808H12.76V2.6H20.284C20.26 4.064 20.032 6.38 19.66 8.3C19.552 8.9 19.42 9.44 19.288 9.92H11.74ZM26.5041 1.7C24.5841 1.7 23.1081 3.164 23.1081 5.324C23.1081 7.496 24.5841 8.96 26.5041 8.96C28.4241 8.96 29.9001 7.496 29.9001 5.324C29.9001 3.164 28.4241 1.7 26.5041 1.7ZM26.5041 2.516C27.9321 2.516 28.9641 3.584 28.9641 5.312C28.9641 7.004 28.0041 8.144 26.5041 8.144C25.0041 8.144 24.0441 7.004 24.0441 5.312C24.0441 3.584 25.0761 2.516 26.5041 2.516ZM32.2041 11.9V5.852H33.9441V5.036H32.2041V1.196H31.2921V11.9H32.2041ZM39.6601 0.763999C37.6681 0.763999 36.1321 1.7 36.1321 3.116C36.1321 4.532 37.6681 5.468 39.6601 5.468C41.6521 5.468 43.1881 4.532 43.1881 3.116C43.1881 1.7 41.6521 0.763999 39.6601 0.763999ZM39.6601 4.724C38.1961 4.724 37.0441 4.088 37.0441 3.116C37.0441 2.144 38.1961 1.508 39.6601 1.508C41.1241 1.508 42.2761 2.144 42.2761 3.116C42.2761 4.088 41.1241 4.724 39.6601 4.724ZM40.2601 8.216V7.028H44.9161V6.236H34.4041V7.028H39.3001V8.216H40.2601ZM44.3881 11.096C43.4881 11 42.6361 10.808 41.8441 10.532C41.1721 10.28 40.6081 9.956 40.1401 9.548C40.3321 9.248 40.4401 8.912 40.4641 8.564H39.4801C39.3481 9.968 37.1041 11 34.8601 11.192L35.2921 11.96C36.3961 11.852 37.6681 11.456 38.6761 10.868C39.0481 10.652 39.3721 10.412 39.6481 10.136C39.8761 10.34 40.1281 10.52 40.3921 10.688C41.4721 11.36 42.7561 11.756 43.9321 11.876L44.3881 11.096Z" fill="#242D3C"/>
<rect y="15" width="46" height="1" fill="#242D3C"/>
</svg>
