<svg width="96" height="24" viewBox="0 0 96 24" fill="none" xmlns="http://www.w3.org/2000/svg">
<path d="M9 17V18C9 18.7956 9.31607 19.5587 9.87868 20.1213C10.4413 20.6839 11.2044 21 12 21C12.7956 21 13.5587 20.6839 14.1213 20.1213C14.6839 19.5587 15 18.7956 15 18V17M10 5C10 4.46957 10.2107 3.96086 10.5858 3.58579C10.9609 3.21071 11.4696 3 12 3C12.5304 3 13.0391 3.21071 13.4142 3.58579C13.7893 3.96086 14 4.46957 14 5C15.1484 5.54303 16.1274 6.38833 16.8321 7.4453C17.5367 8.50227 17.9404 9.73107 18 11V14C18.0753 14.6217 18.2954 15.2171 18.6428 15.7381C18.9902 16.2592 19.4551 16.6914 20 17H4C4.54494 16.6914 5.00981 16.2592 5.35719 15.7381C5.70457 15.2171 5.92474 14.6217 6 14V11C6.05956 9.73107 6.4633 8.50227 7.16795 7.4453C7.8726 6.38833 8.85159 5.54303 10 5Z" stroke="#242D3C" stroke-width="1.5" stroke-linecap="round" stroke-linejoin="round"/>
<path d="M50 3.269C50 2.568 49.432 2 48.731 2H47.27C46.568 2 46 2.568 46 3.269C46 3.847 45.604 4.343 45.065 4.555C44.98 4.589 44.895 4.625 44.812 4.661C44.281 4.891 43.65 4.821 43.24 4.412C43.002 4.17421 42.6794 4.04064 42.343 4.04064C42.0066 4.04064 41.684 4.17421 41.446 4.412L40.412 5.446C40.1742 5.68396 40.0406 6.0066 40.0406 6.343C40.0406 6.6794 40.1742 7.00204 40.412 7.24C40.822 7.65 40.892 8.28 40.66 8.812C40.6235 8.89572 40.5885 8.98007 40.555 9.065C40.343 9.604 39.847 10 39.269 10C38.568 10 38 10.568 38 11.269V12.731C38 13.432 38.568 14 39.269 14C39.847 14 40.343 14.396 40.555 14.935C40.589 15.02 40.625 15.105 40.66 15.188C40.891 15.719 40.821 16.35 40.412 16.76C40.1742 16.998 40.0406 17.3206 40.0406 17.657C40.0406 17.9934 40.1742 18.316 40.412 18.554L41.446 19.588C41.684 19.8258 42.0066 19.9594 42.343 19.9594C42.6794 19.9594 43.002 19.8258 43.24 19.588C43.65 19.178 44.28 19.108 44.812 19.339C44.895 19.376 44.98 19.411 45.065 19.445C45.604 19.657 46 20.153 46 20.731C46 21.432 46.568 22 47.269 22H48.731C49.432 22 50 21.432 50 20.731C50 20.153 50.396 19.657 50.935 19.444C51.02 19.411 51.105 19.376 51.188 19.34C51.719 19.108 52.35 19.179 52.759 19.588C52.8768 19.7059 53.0168 19.7994 53.1708 19.8632C53.3248 19.927 53.4898 19.9599 53.6565 19.9599C53.8232 19.9599 53.9882 19.927 54.1422 19.8632C54.2962 19.7994 54.4362 19.7059 54.554 19.588L55.588 18.554C55.8258 18.316 55.9594 17.9934 55.9594 17.657C55.9594 17.3206 55.8258 16.998 55.588 16.76C55.178 16.35 55.108 15.72 55.339 15.188C55.376 15.105 55.411 15.02 55.445 14.935C55.657 14.396 56.153 14 56.731 14C57.432 14 58 13.432 58 12.731V11.27C58 10.569 57.432 10.001 56.731 10.001C56.153 10.001 55.657 9.605 55.444 9.066C55.4105 8.98106 55.3755 8.89671 55.339 8.813C55.109 8.282 55.179 7.651 55.588 7.241C55.8258 7.00304 55.9594 6.6804 55.9594 6.344C55.9594 6.0076 55.8258 5.68496 55.588 5.447L54.554 4.413C54.316 4.17521 53.9934 4.04164 53.657 4.04164C53.3206 4.04164 52.998 4.17521 52.76 4.413C52.35 4.823 51.72 4.893 51.188 4.662C51.1043 4.62521 51.0199 4.58987 50.935 4.556C50.396 4.343 50 3.846 50 3.269Z" stroke="#242D3C" stroke-width="1.5"/>
<path d="M52 12C52 13.0609 51.5786 14.0783 50.8284 14.8284C50.0783 15.5786 49.0609 16 48 16C46.9391 16 45.9217 15.5786 45.1716 14.8284C44.4214 14.0783 44 13.0609 44 12C44 10.9391 44.4214 9.92172 45.1716 9.17157C45.9217 8.42143 46.9391 8 48 8C49.0609 8 50.0783 8.42143 50.8284 9.17157C51.5786 9.92172 52 10.9391 52 12Z" stroke="#242D3C" stroke-width="1.5"/>
<path d="M83 3C81.4178 3 79.871 3.46919 78.5554 4.34824C77.2398 5.22729 76.2145 6.47672 75.609 7.93853C75.0035 9.40034 74.845 11.0089 75.1537 12.5607C75.4624 14.1126 76.2243 15.538 77.3431 16.6569C78.462 17.7757 79.8874 18.5376 81.4393 18.8463C82.9911 19.155 84.5997 18.9965 86.0615 18.391C87.5233 17.7855 88.7727 16.7602 89.6518 15.4446C90.5308 14.129 91 12.5822 91 11C90.9999 8.87831 90.157 6.84356 88.6567 5.34329C87.1564 3.84303 85.1217 3.00014 83 3Z" stroke="#242D3C" stroke-width="1.5" stroke-miterlimit="10"/>
<path d="M89 17L93 21" stroke="#242D3C" stroke-width="1.5" stroke-miterlimit="10" stroke-linecap="round"/>
</svg>
