<svg width="72" height="12" viewBox="0 0 72 12" fill="none" xmlns="http://www.w3.org/2000/svg">
<path d="M10.092 11.852V10.64H3.072V10.148H9.84V7.364H1.464V8.564H8.232V9.044H1.464V11.852H10.092ZM10.62 3.92C9.144 3.872 7.86 3.656 6.9 3.128C6.768 3.044 6.636 2.96 6.504 2.864L6.54 2.78L6.612 2.636H9.852V1.34H1.476V2.636H4.824L4.764 2.708C4.02 3.548 2.496 3.824 0.696 3.968L1.368 5.204C2.52 5.132 3.84 4.856 4.908 4.328C5.184 4.184 5.448 4.028 5.676 3.848C5.844 3.98 6.024 4.112 6.216 4.22C7.296 4.82 8.604 5.12 9.9 5.12L10.62 3.92ZM10.944 6.8V5.528H0.384V6.8H10.944ZM18.508 4.868H19.984V6.74H18.076V8.108H19.984V11.924H21.592V1.172H19.984V3.5H18.508V4.868ZM12.484 2.972H16.684C16.456 5.432 14.788 7.904 11.992 9.248L13.024 10.388C16.024 8.78 18.424 5.78 18.388 1.604H12.484V2.972ZM24.6441 11.972C25.7601 11.876 26.9961 11.552 28.0161 10.976C28.2441 10.844 28.4601 10.7 28.6641 10.544C28.7721 10.628 28.8801 10.7 29.0001 10.772C30.0441 11.432 31.3401 11.84 32.5761 11.936L33.3681 10.724C32.0121 10.58 30.7161 10.328 29.6961 9.716L29.4921 9.572L29.5761 9.416C29.6241 9.32 29.6601 9.224 29.6961 9.128H32.7921V7.808H24.4401V9.128H27.9441L27.7641 9.38C27.0201 10.244 25.5201 10.64 23.7561 10.76L24.6441 11.972ZM23.7081 7.616C24.7281 7.28 25.7961 6.704 26.5761 5.9L26.7561 5.708L26.9121 5.864C27.7281 6.632 28.7601 7.16 29.7921 7.304L30.6321 6.044C29.5041 5.828 28.5081 5.504 27.7881 4.832C27.7041 4.748 27.6201 4.664 27.5361 4.556C27.5361 4.544 27.5361 4.544 27.5481 4.532C27.6321 4.352 27.7041 4.172 27.7641 3.98H30.2961V2.684H23.4801V3.98H26.0361C26.0121 4.028 25.9881 4.076 25.9761 4.124C25.4481 5.24 24.3441 5.948 22.7601 6.428L23.7081 7.616ZM32.6961 7.328V5H33.9681V3.608H32.6961V1.172H31.0881V7.328H32.6961ZM28.9041 2.216V0.92H24.8721V2.216H28.9041ZM43.9081 3.944H37.1401V1.22H35.5321V5.3H43.9081V3.944ZM44.9401 7.772V6.428H34.3801V7.772H44.9401ZM35.5801 8.372V11.804H44.2081V10.436H37.1881V8.372H35.5801ZM54.9776 9.908V6.14H56.0096V11.648H57.5696V1.292H56.0096V4.748H54.9776V1.604H50.2496V9.908H54.9776ZM59.7896 11.912V1.172H58.2056V11.912H59.7896ZM51.8336 2.972H53.3936V8.54H51.8336V2.972ZM65.0257 11.804V8.396H67.4977V11.924H69.1057V8.396H71.5417V7.028H60.9817V8.396H63.4177V11.804H65.0257ZM70.6297 4.628H63.7417V1.364H62.1337V5.996H70.6297V4.628Z" fill="#242D3C"/>
</svg>
