<svg width="25" height="11" viewBox="0 0 25 11" fill="none" xmlns="http://www.w3.org/2000/svg">
<path d="M3.78888 8.68974C2.82888 8.68974 2.01288 8.02974 1.52088 7.03374L0.392875 7.86174C1.02888 9.10974 2.31288 10.0097 3.78888 10.0097C5.94888 10.0097 7.23288 8.66574 7.23288 6.97374C7.23288 5.54574 6.29688 4.24974 4.52088 4.05774L6.93288 1.70574V0.673738H0.908875V1.99374H4.67688L2.03688 4.64574L2.62488 5.70174C2.81688 5.55774 3.28488 5.30574 3.75288 5.30574C4.94088 5.30574 5.67288 6.02574 5.67288 6.97374C5.67288 7.93374 5.01288 8.68974 3.78888 8.68974ZM11.1053 10.0097C13.0733 10.0097 14.4053 8.58174 14.4053 6.81774C14.4053 5.05374 13.0733 3.61374 11.1053 3.61374C10.9613 3.61374 10.8293 3.63774 10.6733 3.67374L12.3293 0.673738H10.6493L8.38131 4.76574C8.09331 5.29374 7.80531 6.03774 7.80531 6.69774C7.80531 8.50974 8.98131 10.0097 11.1053 10.0097ZM9.36531 6.81774C9.36531 5.71374 10.0373 4.93374 11.1053 4.93374C12.1733 4.93374 12.8453 5.74974 12.8453 6.81774C12.8453 7.87374 12.1733 8.68974 11.1053 8.68974C10.0733 8.68974 9.36531 7.82574 9.36531 6.81774ZM19.6458 8.53374H20.6537L22.8978 4.40574L23.1858 3.79374L23.1618 4.40574V9.78174H24.7458V0.661738H23.2458L20.3898 5.94174L20.1498 6.46974L19.9098 5.94174L17.0538 0.661738H15.5538V9.78174H17.1378V4.40574L17.1138 3.79374L17.4018 4.40574L19.6458 8.53374Z" fill="#242D3C"/>
</svg>
