<svg width="25" height="10" viewBox="0 0 25 10" fill="none" xmlns="http://www.w3.org/2000/svg">
<path d="M0.716875 1.98174H5.26488L1.77288 9.78174H3.41688L7.07687 1.56174V0.661738H0.716875V1.98174ZM14.1293 3.24174C14.1293 1.68174 12.8693 0.433738 10.8653 0.433738C9.42531 0.433738 8.27331 1.38174 7.63731 2.66574L8.80131 3.43374C9.28131 2.48574 10.0493 1.75374 10.8653 1.75374C11.8973 1.75374 12.5693 2.41374 12.5693 3.24174C12.5693 4.15374 11.9453 4.77774 11.3333 5.35374L7.67331 8.76174V9.78174H14.3453V8.46174H10.0013L12.3053 6.37374C13.1693 5.60574 14.1293 4.63374 14.1293 3.24174ZM19.6458 8.53374H20.6537L22.8978 4.40574L23.1858 3.79374L23.1618 4.40574V9.78174H24.7458V0.661738H23.2458L20.3898 5.94174L20.1498 6.46974L19.9098 5.94174L17.0538 0.661738H15.5538V9.78174H17.1378V4.40574L17.1138 3.79374L17.4018 4.40574L19.6458 8.53374Z" fill="#242D3C"/>
</svg>
