<svg width="45" height="13" viewBox="0 0 45 13" fill="none" xmlns="http://www.w3.org/2000/svg">
<path d="M7.92 6.152C7.14 5.852 6.456 5.444 5.844 4.94C5.424 4.592 5.088 4.172 4.812 3.68C4.848 3.596 4.872 3.5 4.908 3.404C5.136 2.744 5.256 2.06 5.268 1.34H3.636C3.54 3.608 2.412 5.552 0.12 6.536L1.128 7.688C2.268 7.148 3.288 6.284 4.02 5.192L4.14 5.024C4.908 6.08 5.94 6.92 7.02 7.376L7.92 6.152ZM2.172 8.132V11.804H10.716V10.436H3.78V8.132H2.172ZM10.416 9.056V1.172H8.808V9.056H10.416ZM12.448 7.328C13.456 7.076 14.512 6.512 15.316 5.744L15.52 5.528L15.616 5.612C16.444 6.344 17.584 6.8 18.58 6.92L19.372 5.636C18.244 5.468 17.212 5.168 16.468 4.544L16.3 4.376C16.384 4.22 16.444 4.052 16.504 3.872H18.676V5.12H20.14V7.28H21.748V1.172H20.14V3.8H18.964V2.6H12.268V3.872H14.776C14.608 4.28 14.356 4.628 14.02 4.928C13.408 5.456 12.592 5.84 11.548 6.092L12.448 7.328ZM18.076 7.172C16.06 7.172 14.608 8.204 14.608 9.704C14.608 11.204 16.06 12.236 18.076 12.236C20.092 12.236 21.544 11.204 21.544 9.704C21.544 8.204 20.092 7.172 18.076 7.172ZM18.076 10.94C16.876 10.94 16.216 10.46 16.216 9.704C16.216 8.948 16.876 8.468 18.076 8.468C19.276 8.468 19.936 8.948 19.936 9.704C19.936 10.46 19.276 10.94 18.076 10.94ZM17.692 2.192V0.92H13.66V2.192H17.692ZM28.5441 2.516V1.148H24.8241V2.516H28.5441ZM30.1041 4.448V3.08H23.2161V4.448H30.1041ZM26.6601 4.748C24.7521 4.748 23.6121 6.02 23.6121 7.616C23.6121 9.212 24.7521 10.484 26.6601 10.484C28.5681 10.484 29.7081 9.212 29.7081 7.616C29.7081 6.02 28.5681 4.748 26.6601 4.748ZM26.6601 9.14C25.6881 9.14 25.2201 8.516 25.2201 7.616C25.2201 6.716 25.6881 6.092 26.6601 6.092C27.6321 6.092 28.1001 6.716 28.1001 7.616C28.1001 8.516 27.6321 9.14 26.6601 9.14ZM32.4441 11.924V6.872H33.9681V5.48H32.4441V1.172H30.8361V11.924H32.4441ZM44.2561 11.924V1.172H42.6481V11.924H44.2561ZM35.1481 2.972H39.3481C39.1201 5.432 37.4521 7.904 34.6561 9.248L35.6881 10.388C38.6881 8.78 41.0881 5.78 41.0521 1.604H35.1481V2.972Z" fill="white"/>
</svg>
