<svg width="62" height="17" viewBox="0 0 62 17" fill="none" xmlns="http://www.w3.org/2000/svg">
<path d="M16.1448 4.146H13.8408V0.114H11.9868V9.888H13.8408V5.676H16.1448V4.146ZM9.62881 9.024L10.6008 7.566C10.0008 7.362 9.46081 7.092 8.98081 6.756C8.51281 6.42 8.11681 6.042 7.79281 5.622C7.46881 5.19 7.22281 4.728 7.05481 4.236C6.88681 3.744 6.80281 3.234 6.80281 2.706V0.959999H4.93081V2.562C4.93081 3.15 4.84681 3.726 4.67881 4.29C4.51081 4.842 4.25881 5.358 3.92281 5.838C3.58681 6.318 3.17281 6.744 2.68081 7.116C2.18881 7.488 1.62481 7.782 0.988813 7.998L1.97881 9.474C2.91481 9.126 3.71281 8.622 4.37281 7.962C5.03281 7.302 5.54281 6.522 5.90281 5.622C6.25081 6.39 6.73681 7.074 7.36081 7.674C7.99681 8.262 8.75281 8.712 9.62881 9.024ZM8.60281 10.284C7.76281 10.284 7.00681 10.356 6.33481 10.5C5.67481 10.632 5.11081 10.83 4.64281 11.094C4.17481 11.346 3.81481 11.664 3.56281 12.048C3.31081 12.42 3.18481 12.846 3.18481 13.326C3.18481 13.806 3.31081 14.238 3.56281 14.622C3.81481 14.994 4.17481 15.312 4.64281 15.576C5.11081 15.84 5.67481 16.038 6.33481 16.17C7.00681 16.314 7.76281 16.386 8.60281 16.386C9.45481 16.386 10.2108 16.314 10.8708 16.17C11.5428 16.038 12.1128 15.84 12.5808 15.576C13.0488 15.312 13.4028 14.994 13.6428 14.622C13.8948 14.238 14.0208 13.806 14.0208 13.326C14.0208 12.366 13.5408 11.622 12.5808 11.094C11.6208 10.554 10.2948 10.284 8.60281 10.284ZM8.60281 14.928C7.43881 14.928 6.55081 14.796 5.93881 14.532C5.32681 14.268 5.02081 13.866 5.02081 13.326C5.02081 12.822 5.32681 12.432 5.93881 12.156C6.55081 11.88 7.43881 11.742 8.60281 11.742C9.76681 11.742 10.6548 11.88 11.2668 12.156C11.8788 12.432 12.1848 12.822 12.1848 13.326C12.1848 13.866 11.8788 14.268 11.2668 14.532C10.6548 14.796 9.76681 14.928 8.60281 14.928ZM31.8034 5.496V3.966H29.4994V0.114H27.6454V9.294H29.4994V5.496H31.8034ZM26.2954 7.998L26.1154 6.504C25.6234 6.612 25.1374 6.702 24.6574 6.774C24.1774 6.834 23.6674 6.888 23.1274 6.936C22.5994 6.972 22.0234 6.996 21.3994 7.008C20.7874 7.02 20.0974 7.026 19.3294 7.026V2.67H24.6754V1.176H17.4754V8.538H18.7894C19.6654 8.538 20.4454 8.532 21.1294 8.52C21.8254 8.496 22.4674 8.466 23.0554 8.43C23.6434 8.394 24.1954 8.34 24.7114 8.268C25.2394 8.196 25.7674 8.106 26.2954 7.998ZM19.1134 10.104V16.188H29.4994V10.104H19.1134ZM20.9494 14.694V11.562H27.6814V14.694H20.9494ZM45.86 12.03V0.149999H44.006V12.03H45.86ZM41.36 9.474L42.314 7.998C41.69 7.782 41.132 7.494 40.64 7.134C40.16 6.762 39.752 6.342 39.416 5.874C39.08 5.394 38.822 4.884 38.642 4.344C38.474 3.792 38.39 3.228 38.39 2.652V1.032H36.5V2.652C36.5 3.252 36.41 3.84 36.23 4.416C36.062 4.98 35.81 5.508 35.474 6C35.138 6.492 34.718 6.936 34.214 7.332C33.722 7.728 33.158 8.046 32.522 8.286L33.476 9.78C34.448 9.42 35.264 8.892 35.924 8.196C36.584 7.488 37.1 6.678 37.472 5.766C37.82 6.63 38.318 7.38 38.966 8.016C39.626 8.64 40.424 9.126 41.36 9.474ZM46.328 14.568H37.112V10.914H35.24V16.08H46.328V14.568ZM56.9466 9.348L57.8106 7.926C57.1866 7.746 56.6286 7.506 56.1366 7.206C55.6566 6.906 55.2426 6.564 54.8946 6.18C54.5586 5.796 54.3006 5.388 54.1206 4.956C53.9406 4.512 53.8506 4.056 53.8506 3.588V3.444H57.2706V1.968H53.8686V0.0419995H51.9966V1.968H48.5766V3.444H51.9966V3.588C51.9966 4.092 51.9066 4.59 51.7266 5.082C51.5586 5.562 51.3066 6.012 50.9706 6.432C50.6466 6.84 50.2386 7.212 49.7466 7.548C49.2666 7.872 48.7146 8.13 48.0906 8.322L48.9906 9.762C49.9626 9.462 50.7786 9.012 51.4386 8.412C52.1106 7.812 52.6266 7.098 52.9866 6.27C53.3586 6.99 53.8746 7.62 54.5346 8.16C55.2066 8.688 56.0106 9.084 56.9466 9.348ZM59.7366 4.614H56.8026V6.144H59.7366V9.96H61.5906V0.114H59.7366V4.614ZM56.1726 10.32C54.4686 10.32 53.1306 10.584 52.1586 11.112C51.1866 11.628 50.7006 12.372 50.7006 13.344C50.7006 13.824 50.8266 14.256 51.0786 14.64C51.3306 15.012 51.6906 15.324 52.1586 15.576C52.6266 15.84 53.1966 16.038 53.8686 16.17C54.5526 16.314 55.3206 16.386 56.1726 16.386C57.0246 16.386 57.7866 16.314 58.4586 16.17C59.1426 16.038 59.7186 15.84 60.1866 15.576C60.6666 15.324 61.0326 15.012 61.2846 14.64C61.5366 14.256 61.6626 13.824 61.6626 13.344C61.6626 12.864 61.5366 12.438 61.2846 12.066C61.0326 11.694 60.6666 11.382 60.1866 11.13C59.7186 10.866 59.1426 10.668 58.4586 10.536C57.7866 10.392 57.0246 10.32 56.1726 10.32ZM56.1726 14.946C55.0086 14.946 54.1146 14.808 53.4906 14.532C52.8666 14.256 52.5546 13.86 52.5546 13.344C52.5546 12.828 52.8666 12.438 53.4906 12.174C54.1146 11.898 55.0086 11.76 56.1726 11.76C57.3366 11.76 58.2306 11.898 58.8546 12.174C59.4906 12.438 59.8086 12.828 59.8086 13.344C59.8086 13.86 59.4906 14.256 58.8546 14.532C58.2306 14.808 57.3366 14.946 56.1726 14.946Z" fill="white"/>
</svg>
