<svg width="235" height="142" viewBox="0 0 235 142" fill="none" xmlns="http://www.w3.org/2000/svg">
<path d="M8.292 111.98C7.56 111.752 6.9 111.452 6.312 111.056C5.772 110.696 5.34 110.276 5.04 109.808C5.184 109.52 5.28 109.22 5.328 108.908H7.956V108.116H1.428V108.908H4.356C4.296 109.208 4.2 109.484 4.068 109.748C3.468 110.9 2.304 111.8 0.852 112.184L1.368 112.844C2.292 112.556 3.264 111.992 4.02 111.236C4.248 111.008 4.44 110.78 4.62 110.528C4.752 110.684 4.896 110.84 5.052 110.996C5.796 111.716 6.768 112.352 7.788 112.688L8.292 111.98ZM10.212 116.9V106.196H9.3V116.9H10.212ZM8.82 115.172V114.38L5.1 114.428V112.388H4.164V114.44L0.636 114.476V115.292L8.82 115.172ZM2.88 106.34V107.132H6.504V106.34H2.88ZM17.86 112.052C15.832 112.052 14.452 113.12 14.452 114.584C14.452 116.048 15.832 117.116 17.86 117.116C19.864 117.116 21.268 116.048 21.268 114.584C21.268 113.12 19.864 112.052 17.86 112.052ZM17.86 116.324C16.276 116.324 15.364 115.592 15.364 114.584C15.364 113.576 16.276 112.844 17.86 112.844C19.444 112.844 20.356 113.576 20.356 114.584C20.356 115.592 19.444 116.324 17.86 116.324ZM18.844 106.568H12.136V107.36H15.208C15.148 107.648 15.064 107.924 14.956 108.188C14.356 109.604 13.072 110.732 11.452 111.308L11.98 111.992C13.024 111.596 14.08 110.876 14.884 109.964C15.076 109.748 15.244 109.52 15.4 109.28C15.556 109.46 15.736 109.628 15.916 109.784C16.78 110.528 17.836 111.104 18.772 111.416L19.252 110.66C18.196 110.372 17.14 109.82 16.36 109.16C16.144 108.98 15.952 108.788 15.784 108.596L15.856 108.452C16.012 108.104 16.12 107.732 16.18 107.36H18.844V106.568ZM21.124 112.16V109.352H22.6V108.536H21.124V106.196H20.212V112.16H21.124ZM27.1296 107.684H32.2776L28.4736 115.94H29.3856L33.2496 107.516V106.94H27.1296V107.684ZM40.278 109.352C40.278 107.864 39.078 106.7 37.158 106.7C35.79 106.7 34.782 107.54 34.17 108.644L34.818 109.064C35.334 108.152 36.066 107.444 37.158 107.444C38.514 107.444 39.414 108.296 39.414 109.352C39.414 110.42 38.658 111.176 37.938 111.824L34.122 115.304V115.94H40.518V115.196H35.31L38.442 112.424C39.318 111.644 40.278 110.732 40.278 109.352ZM48.5424 116.6V111.152H50.2704V116.888H51.1824V106.196H50.2704V110.336H48.5424V106.316H47.6424V116.6H48.5424ZM41.8344 107.504H45.2784C45.1824 110.048 43.7304 113.024 41.3664 114.656L42.0264 115.268C44.4624 113.444 46.2744 110.456 46.2384 106.712H41.8344V107.504ZM62.7305 116.828V116.072H55.2545V115.244H62.4905V113.012H54.3425V113.756H61.5785V114.524H54.3425V116.828H62.7305ZM56.7305 105.932C55.0145 105.932 53.7305 106.712 53.7305 107.876C53.7305 109.04 55.0145 109.82 56.7305 109.82C58.4465 109.82 59.7305 109.04 59.7305 107.876C59.7305 106.712 58.4465 105.932 56.7305 105.932ZM56.7305 109.064C55.4825 109.064 54.6425 108.56 54.6425 107.876C54.6425 107.18 55.4825 106.676 56.7305 106.676C57.9785 106.676 58.8185 107.18 58.8185 107.876C58.8185 108.56 57.9785 109.064 56.7305 109.064ZM62.5145 112.58V106.196H61.6025V111.512H58.7465V112.232H61.6025V112.58H62.5145ZM60.9065 110.996V110.276L52.8545 110.372V111.116L56.0945 111.068V112.58H57.0305V111.056L60.9065 110.996ZM77.28 116.9V111.332H78.78V110.516H77.28V106.196H76.392V116.9H77.28ZM68.364 107.444H70.692C70.608 110.048 69.672 112.364 67.8 114.236L68.496 114.74C70.428 112.772 71.664 110.228 71.628 106.652H68.364V107.444ZM72.012 107.444H74.22C74.16 110.144 73.416 112.976 71.364 115.004L72.06 115.508C74.208 113.312 75.204 110.36 75.156 106.652H72.012V107.444ZM86.908 114.332C86.116 113.816 85.396 113.204 84.76 112.496C84.136 111.8 83.644 111.056 83.296 110.264C83.344 110.108 83.392 109.952 83.428 109.784C83.62 109.064 83.74 108.284 83.788 107.444H86.404V106.652H79.768V107.444H82.828C82.768 108.2 82.66 108.908 82.492 109.568C81.916 111.884 80.704 113.612 79.108 114.728L79.72 115.364C80.86 114.512 81.844 113.432 82.564 112.052C82.696 111.8 82.828 111.536 82.936 111.26C83.068 111.512 83.224 111.752 83.38 111.992C84.196 113.192 85.252 114.296 86.296 115.04L86.908 114.332ZM89.092 116.9V106.196H88.18V116.9H89.092ZM99.9576 106.448V108.128H96.0816V106.448H95.1696V111.44H100.87V106.448H99.9576ZM104.398 116.828V116.036H97.1256V114.932H104.158V112.352H96.2136V113.12H103.246V114.188H96.2136V116.828H104.398ZM96.0816 110.672V108.872H99.9576V110.672H96.0816ZM104.158 111.8V106.196H103.246V111.8H104.158ZM112.202 109.268V106.472H106.562V107.216H111.29V108.548H106.562V111.476L113.906 111.164V110.432L107.474 110.66V109.268H112.202ZM115.49 111.872V106.196H114.578V111.872H115.49ZM115.73 116.828V116.06H108.458V114.956H115.49V112.424H107.546V113.168H114.578V114.236H107.546V116.828H115.73ZM126.835 116.9V113.06H131.623V112.268H121.111V113.06H125.899V116.9H126.835ZM131.191 110.36C130.147 110.156 129.235 109.82 128.479 109.352C127.807 108.932 127.255 108.392 126.823 107.732C127.003 107.312 127.111 106.856 127.135 106.376H126.175C126.019 108.548 123.835 109.988 121.399 110.372L121.891 111.092C123.103 110.9 124.399 110.348 125.395 109.532C125.779 109.208 126.115 108.86 126.391 108.464C126.883 109.124 127.447 109.652 128.107 110.06C128.899 110.552 129.763 110.9 130.711 111.104L131.191 110.36ZM139.825 106.16C138.061 106.16 136.705 107.336 136.705 109.016C136.705 110.696 138.061 111.872 139.825 111.872C141.589 111.872 142.945 110.696 142.945 109.016C142.945 107.336 141.589 106.16 139.825 106.16ZM139.825 111.08C138.481 111.08 137.617 110.216 137.617 109.016C137.617 107.816 138.481 106.952 139.825 106.952C141.169 106.952 142.033 107.816 142.033 109.016C142.033 110.216 141.169 111.08 139.825 111.08ZM141.745 117.116C142.417 116.696 143.173 116.132 143.761 115.412C143.893 115.268 144.001 115.112 144.109 114.956C144.421 115.304 144.745 115.628 145.093 115.928C145.585 116.336 146.101 116.66 146.629 116.888L147.205 116.204C146.665 116 146.125 115.7 145.597 115.328C145.177 115.028 144.805 114.68 144.493 114.296L144.529 114.212C144.745 113.768 144.877 113.3 144.925 112.784H143.965C143.905 113.564 143.617 114.284 143.101 114.944C142.945 115.148 142.765 115.352 142.585 115.532C142.237 115.364 141.913 115.16 141.613 114.92C141.289 114.644 141.001 114.32 140.761 113.972C140.941 113.6 141.061 113.204 141.097 112.784H140.137C139.945 114.356 138.637 115.616 137.113 116.204L137.689 116.816C138.361 116.528 139.153 116 139.813 115.316C140.017 115.1 140.197 114.872 140.365 114.632C140.569 114.908 140.797 115.172 141.037 115.4C141.313 115.664 141.613 115.892 141.913 116.084C141.661 116.264 141.397 116.42 141.121 116.576L141.745 117.116ZM146.029 112.208V106.196H145.117V112.208H146.029ZM151.385 106.7C149.465 106.7 147.989 108.164 147.989 110.324C147.989 112.496 149.465 113.96 151.385 113.96C152.813 113.96 154.025 113.132 154.517 111.812C154.649 111.476 154.733 111.104 154.769 110.708H156.533V116.9H157.445V106.196H156.533V109.892H154.757C154.721 109.52 154.649 109.172 154.517 108.848C154.025 107.528 152.813 106.7 151.385 106.7ZM151.385 107.516C152.813 107.516 153.845 108.584 153.845 110.312C153.845 112.004 152.885 113.144 151.385 113.144C149.885 113.144 148.925 112.004 148.925 110.312C148.925 108.584 149.957 107.516 151.385 107.516ZM166.617 114.296C165.813 113.78 165.105 113.144 164.481 112.4C163.893 111.692 163.413 110.96 163.053 110.192C163.125 109.94 163.197 109.676 163.257 109.412C163.449 108.536 163.545 107.576 163.545 106.532H162.609C162.573 110.336 161.205 113.084 158.865 114.68L159.477 115.316C160.689 114.416 161.721 113.252 162.429 111.812C162.525 111.608 162.621 111.416 162.705 111.212C162.825 111.44 162.957 111.656 163.113 111.884C163.893 113.084 164.961 114.248 165.993 114.992L166.617 114.296ZM168.897 116.9V106.196H167.985V109.796H165.225V110.612H167.985V116.9H168.897ZM174.53 111.44L182.378 111.14V110.384L180.47 110.456L180.566 107.336H181.634V106.568H174.854V107.336H176.03L176.138 110.6L174.53 110.648V111.44ZM184.202 116.828V116.036H176.93V114.932H183.962V112.352H176.018V113.12H183.05V114.188H176.018V116.828H184.202ZM176.954 107.336H179.642L179.558 110.48L177.05 110.564L176.954 107.336ZM183.962 111.8V106.196H183.05V111.8H183.962ZM190.89 106.172C188.55 106.172 186.978 107.696 186.978 109.424C186.978 111.152 188.55 112.676 190.89 112.676C193.23 112.676 194.802 111.152 194.802 109.424C194.802 107.696 193.23 106.172 190.89 106.172ZM190.89 111.884C189.042 111.884 187.89 110.744 187.89 109.424C187.89 108.104 189.042 106.964 190.89 106.964C192.738 106.964 193.89 108.104 193.89 109.424C193.89 110.744 192.738 111.884 190.89 111.884ZM185.646 115.1V115.892H196.158V115.1H193.794V112.832H192.87V115.1H188.97V112.832H188.046V115.1H185.646ZM206.362 114.212V110.372H207.838V109.556H206.362V106.196H205.45V114.212H206.362ZM206.71 116.78V115.988H199.51V113.708H198.598V116.78H206.71ZM202.642 106.808V106.04H198.634V106.808H202.642ZM204.202 108.284V107.516H197.074V108.284H204.202ZM200.734 113.012C202.474 113.012 203.686 112.1 203.686 110.9C203.686 109.7 202.474 108.788 200.734 108.788C198.994 108.788 197.782 109.7 197.782 110.9C197.782 112.1 198.994 113.012 200.734 113.012ZM200.734 112.268C199.498 112.268 198.694 111.776 198.694 110.9C198.694 110.024 199.498 109.532 200.734 109.532C201.97 109.532 202.774 110.024 202.774 110.9C202.774 111.776 201.97 112.268 200.734 112.268ZM217.504 111.212H213.628V107.36H217.504V111.212ZM212.716 106.568V112.004H218.416V106.568H212.716ZM221.512 114.092V109.772H222.988V108.956H221.512V106.196H220.6V114.092H221.512ZM221.86 116.78V115.988H214.66V113.252H213.748V116.78H221.86ZM224.708 113.132V116.828H232.94V113.132H224.708ZM223.58 110.948V111.74H234.092V110.948H232.544C232.664 110.36 232.772 109.724 232.856 109.016C232.964 108.164 233.048 107.288 233.084 106.388H224.648V107.156H232.148L232.028 108.476L224.528 108.572V109.34L231.944 109.232C231.86 109.808 231.764 110.384 231.644 110.948H223.58ZM232.028 113.9V116.036H225.62V113.9H232.028ZM0.408 131.464V132.232H5.256V133.048C4.932 133.072 4.62 133.12 4.32 133.18C3.036 133.468 2.184 134.188 2.184 135.196C2.184 136.552 3.72 137.356 5.712 137.356C7.704 137.356 9.24 136.552 9.24 135.196C9.24 134.188 8.388 133.468 7.104 133.18C6.816 133.12 6.516 133.072 6.192 133.048V132.232H10.92V131.464H0.408ZM10.452 129.94C9.072 129.844 7.764 129.604 6.78 129.124C6.504 128.992 6.276 128.836 6.072 128.656C6.156 128.512 6.228 128.368 6.276 128.212H9.804V127.468H1.476V128.212H5.244C5.16 128.404 5.028 128.584 4.848 128.74C4.02 129.496 2.484 129.94 0.852 130.012L1.248 130.732C2.556 130.672 4.296 130.252 5.364 129.412C5.448 129.352 5.52 129.292 5.58 129.232C5.832 129.436 6.12 129.628 6.444 129.784C7.524 130.324 8.892 130.624 10.044 130.672L10.452 129.94ZM5.712 136.612C4.248 136.612 3.096 136.096 3.096 135.196C3.096 134.296 4.248 133.78 5.712 133.78C7.176 133.78 8.328 134.296 8.328 135.196C8.328 136.096 7.176 136.612 5.712 136.612ZM7.92 126.052H3.36V126.796H7.92V126.052ZM20.14 126.268V127.756H13.84V126.268H12.928V130.828H21.052V126.268H20.14ZM17.584 134.98V132.832H22.252V132.04H11.74V132.832H16.648V134.98H17.584ZM13.84 130.06V128.5H20.14V130.06H13.84ZM21.472 136.78V135.988H13.828V133.732H12.916V136.78H21.472ZM33.0441 136.9V126.196H32.1321V136.9H33.0441ZM28.7361 127.084V126.292H25.1361V127.084H28.7361ZM30.2961 128.896V128.104H23.5281V128.896H30.2961ZM26.9121 129.664C25.0521 129.664 23.9241 130.996 23.9241 132.568C23.9241 134.14 25.0521 135.472 26.9121 135.472C28.7721 135.472 29.9001 134.14 29.9001 132.568C29.9001 130.996 28.7721 129.664 26.9121 129.664ZM26.9121 134.692C25.5081 134.692 24.8361 133.696 24.8361 132.58C24.8361 131.428 25.5081 130.444 26.9121 130.444C28.3161 130.444 28.9881 131.428 28.9881 132.58C28.9881 133.696 28.3161 134.692 26.9121 134.692ZM42.6136 132.988C43.4896 132.328 44.3176 131.404 44.9056 130.3C45.0256 130.072 45.1336 129.856 45.2296 129.628C45.5296 130.12 45.8656 130.588 46.2376 131.02C46.7776 131.644 47.3776 132.172 48.0136 132.616L48.6136 131.884C47.5576 131.284 46.6696 130.432 46.0456 129.472C45.8656 129.196 45.7216 128.92 45.5896 128.644L45.6256 128.5C45.8056 127.864 45.9016 127.18 45.9136 126.472H45.0016C44.9896 127.708 44.6896 128.884 44.1736 129.904C44.0416 130.168 43.8976 130.42 43.7416 130.672C43.3936 130.444 43.0816 130.192 42.7936 129.916C42.3976 129.52 42.0736 129.064 41.8456 128.572L41.9176 128.344C42.0736 127.756 42.1576 127.132 42.1696 126.472H41.2576C41.2216 128.704 40.2256 130.756 38.3296 131.92L38.9056 132.508C39.8656 131.848 40.6696 130.996 41.2456 129.988C41.3416 129.82 41.4256 129.652 41.5096 129.472L41.7136 129.772C42.0976 130.288 42.5296 130.768 43.0096 131.188L43.2136 131.356C42.8656 131.764 42.4816 132.112 42.0616 132.412L42.6136 132.988ZM38.3416 134.98V135.772H48.8536V134.98H38.3416ZM49.6256 135.1V135.892H60.1376V135.1H54.7016V130.72H53.7656V135.1H49.6256ZM58.4696 133.468C58.9376 131.5 59.1536 129.088 59.1536 126.7H50.6936V127.492H58.2176C58.2176 129.064 58.0016 131.548 57.5816 133.468H58.4696ZM75.0352 136.828V136.072H67.5592V135.244H74.7952V133.012H66.6472V133.756H73.8832V134.524H66.6472V136.828H75.0352ZM69.0352 125.932C67.3192 125.932 66.0352 126.712 66.0352 127.876C66.0352 129.04 67.3192 129.82 69.0352 129.82C70.7512 129.82 72.0352 129.04 72.0352 127.876C72.0352 126.712 70.7512 125.932 69.0352 125.932ZM69.0352 129.064C67.7872 129.064 66.9472 128.56 66.9472 127.876C66.9472 127.18 67.7872 126.676 69.0352 126.676C70.2832 126.676 71.1232 127.18 71.1232 127.876C71.1232 128.56 70.2832 129.064 69.0352 129.064ZM74.8192 132.58V126.196H73.9072V131.512H71.0512V132.232H73.9072V132.58H74.8192ZM73.2112 130.996V130.276L65.1592 130.372V131.116L68.3992 131.068V132.58H69.3352V131.056L73.2112 130.996ZM89.9447 136.9V126.196H89.0327V136.9H89.9447ZM83.8847 126.7C81.9647 126.7 80.4887 128.164 80.4887 130.324C80.4887 132.496 81.9647 133.96 83.8847 133.96C85.8047 133.96 87.2807 132.496 87.2807 130.324C87.2807 128.164 85.8047 126.7 83.8847 126.7ZM83.8847 127.516C85.3127 127.516 86.3447 128.584 86.3447 130.312C86.3447 132.004 85.3847 133.144 83.8847 133.144C82.3847 133.144 81.4247 132.004 81.4247 130.312C81.4247 128.584 82.4567 127.516 83.8847 127.516ZM98.9727 134.332C98.1807 133.816 97.4607 133.204 96.8247 132.496C96.2007 131.8 95.7087 131.056 95.3607 130.264C95.4087 130.108 95.4567 129.952 95.4927 129.784C95.6847 129.064 95.8047 128.284 95.8527 127.444H98.4687V126.652H91.8327V127.444H94.8927C94.8327 128.2 94.7247 128.908 94.5567 129.568C93.9807 131.884 92.7687 133.612 91.1727 134.728L91.7847 135.364C92.9247 134.512 93.9087 133.432 94.6287 132.052C94.7607 131.8 94.8927 131.536 95.0007 131.26C95.1327 131.512 95.2887 131.752 95.4447 131.992C96.2607 133.192 97.3167 134.296 98.3607 135.04L98.9727 134.332ZM100.677 136.9V131.092H102.417V130.276H100.677V126.196H99.7647V136.9H100.677ZM115.214 126.412V128.02H108.914V126.412H108.002V131.308H116.126V126.412H115.214ZM112.538 136.9V133.396H117.326V132.604H106.814V133.396H111.602V136.9H112.538ZM108.914 130.516V128.812H115.214V130.516H108.914ZM127.41 132.208V129.352H128.886V128.536H127.41V126.196H126.498V132.208H127.41ZM119.586 132.808V136.828H127.386V132.808H119.586ZM120.498 133.576H126.474V136.036H120.498V133.576ZM118.674 126.568V131.572L125.778 131.236V130.456L119.586 130.708V127.36H124.314V126.568H118.674ZM129.478 135.1V135.892H139.99V135.1H135.262V132.388H139.03V131.584H131.578V127.444H138.79V126.652H130.666V132.388H134.326V135.1H129.478ZM154.72 136.156C153.424 135.94 152.152 135.436 151.204 134.8C150.952 134.62 150.736 134.44 150.544 134.26C150.676 134.044 150.784 133.816 150.868 133.576H154.108V132.808H146.068V133.576H149.836C149.752 133.828 149.596 134.08 149.392 134.308C148.576 135.244 147.052 135.988 145.48 136.252L146.044 136.96C147.004 136.756 148.132 136.312 149.056 135.688C149.44 135.436 149.776 135.148 150.076 134.836C150.304 135.064 150.568 135.268 150.844 135.472C151.84 136.192 153.064 136.684 154.228 136.9L154.72 136.156ZM145.276 126.448V131.512L152.38 131.176V130.396L146.188 130.648V126.448H145.276ZM154.012 132.208V129.232H155.488V128.416H154.012V126.196H153.1V132.208H154.012ZM165.692 136.828V136.072H158.12V135.16H165.44V132.82H161.864V131.92H166.592V131.176H156.08V131.92H160.928V132.82H157.208V133.564H164.528V134.428H157.208V136.828H165.692ZM166.124 129.772C164.744 129.7 163.436 129.448 162.452 128.944C162.212 128.824 161.996 128.68 161.804 128.524C161.864 128.416 161.912 128.32 161.948 128.212H165.476V127.468H157.148V128.212H160.916C160.82 128.392 160.688 128.548 160.52 128.692C159.656 129.412 158.096 129.796 156.524 129.868L156.92 130.588C158.18 130.528 159.932 130.156 161.024 129.352L161.324 129.112C161.564 129.292 161.828 129.46 162.116 129.604C163.208 130.144 164.552 130.456 165.716 130.504L166.124 129.772ZM163.592 126.052H159.032V126.796H163.592V126.052ZM177.073 136.9V133.06H181.861V132.268H171.349V133.06H176.137V136.9H177.073ZM181.429 130.36C180.385 130.156 179.473 129.82 178.717 129.352C178.045 128.932 177.493 128.392 177.061 127.732C177.241 127.312 177.349 126.856 177.373 126.376H176.413C176.257 128.548 174.073 129.988 171.637 130.372L172.129 131.092C173.341 130.9 174.637 130.348 175.633 129.532C176.017 129.208 176.353 128.86 176.629 128.464C177.121 129.124 177.685 129.652 178.345 130.06C179.137 130.552 180.001 130.9 180.949 131.104L181.429 130.36ZM190.063 126.16C188.299 126.16 186.943 127.336 186.943 129.016C186.943 130.696 188.299 131.872 190.063 131.872C191.827 131.872 193.183 130.696 193.183 129.016C193.183 127.336 191.827 126.16 190.063 126.16ZM190.063 131.08C188.719 131.08 187.855 130.216 187.855 129.016C187.855 127.816 188.719 126.952 190.063 126.952C191.407 126.952 192.271 127.816 192.271 129.016C192.271 130.216 191.407 131.08 190.063 131.08ZM191.983 137.116C192.655 136.696 193.411 136.132 193.999 135.412C194.131 135.268 194.239 135.112 194.347 134.956C194.659 135.304 194.983 135.628 195.331 135.928C195.823 136.336 196.339 136.66 196.867 136.888L197.443 136.204C196.903 136 196.363 135.7 195.835 135.328C195.415 135.028 195.043 134.68 194.731 134.296L194.767 134.212C194.983 133.768 195.115 133.3 195.163 132.784H194.203C194.143 133.564 193.855 134.284 193.339 134.944C193.183 135.148 193.003 135.352 192.823 135.532C192.475 135.364 192.151 135.16 191.851 134.92C191.527 134.644 191.239 134.32 190.999 133.972C191.179 133.6 191.299 133.204 191.335 132.784H190.375C190.183 134.356 188.875 135.616 187.351 136.204L187.927 136.816C188.599 136.528 189.391 136 190.051 135.316C190.255 135.1 190.435 134.872 190.603 134.632C190.807 134.908 191.035 135.172 191.275 135.4C191.551 135.664 191.851 135.892 192.151 136.084C191.899 136.264 191.635 136.42 191.359 136.576L191.983 137.116ZM196.267 132.208V126.196H195.355V132.208H196.267ZM201.623 126.7C199.703 126.7 198.227 128.164 198.227 130.324C198.227 132.496 199.703 133.96 201.623 133.96C203.051 133.96 204.263 133.132 204.755 131.812C204.887 131.476 204.971 131.104 205.007 130.708H206.771V136.9H207.683V126.196H206.771V129.892H204.995C204.959 129.52 204.887 129.172 204.755 128.848C204.263 127.528 203.051 126.7 201.623 126.7ZM201.623 127.516C203.051 127.516 204.083 128.584 204.083 130.312C204.083 132.004 203.123 133.144 201.623 133.144C200.123 133.144 199.163 132.004 199.163 130.312C199.163 128.584 200.195 127.516 201.623 127.516ZM214.527 126.172C212.187 126.172 210.615 127.696 210.615 129.424C210.615 131.152 212.187 132.676 214.527 132.676C216.867 132.676 218.439 131.152 218.439 129.424C218.439 127.696 216.867 126.172 214.527 126.172ZM214.527 131.884C212.679 131.884 211.527 130.744 211.527 129.424C211.527 128.104 212.679 126.964 214.527 126.964C216.375 126.964 217.527 128.104 217.527 129.424C217.527 130.744 216.375 131.884 214.527 131.884ZM209.283 135.1V135.892H219.795V135.1H217.431V132.832H216.507V135.1H212.607V132.832H211.683V135.1H209.283ZM220.819 136.6H221.971V135.448H220.819V136.6Z" fill="#999999"/>
<path d="M2.7 51.96C4.3 51.4 5.98 50.42 7.28 49.08L7.68 48.66L7.98 49.02C9.22 50.34 10.88 51.22 12.62 51.54L14.02 49.52C12.12 49.16 10.56 48.6 9.42 47.38C9.24 47.2 9.08 46.98 8.94 46.76C9.06 46.5 9.16 46.24 9.26 45.98H13.26V43.74H2.18V45.98H6.46L6.38 46.14C5.46 47.98 3.58 49.3 1.16 50.02L2.7 51.96ZM17.42 58.54V40.62H14.74V58.54H17.42ZM14.14 56.02V53.78L9.04 53.84V50.96H6.32V53.88L0.94 53.94V56.22L14.14 56.02ZM4.6 40.7V42.94H10.84V40.7H4.6ZM29.6267 58.08H32.2267V49.24H33.7867V58.52H36.4267V40.62H33.7867V46.92H32.2267V40.82H29.6267V58.08ZM20.6067 41.46V55.38L28.8267 54.9V52.66L23.2467 52.9V43.74H28.0867V41.46H20.6067ZM45.0359 44H52.6159L46.7959 57H49.5359L55.6359 43.3V41.8H45.0359V44ZM67.39 46.1C67.39 43.5 65.29 41.42 61.95 41.42C59.55 41.42 57.63 43 56.57 45.14L58.51 46.42C59.31 44.84 60.59 43.62 61.95 43.62C63.67 43.62 64.79 44.72 64.79 46.1C64.79 47.62 63.75 48.66 62.73 49.62L56.63 55.3V57H67.75V54.8H60.51L64.35 51.32C65.79 50.04 67.39 48.42 67.39 46.1ZM78.9041 58.08H81.5041V49.44H83.0641V58.52H85.7041V40.62H83.0641V47.12H81.5041V40.82H78.9041V58.08ZM69.6041 43.72H74.6641C74.4441 47.5 72.2641 51.54 68.5441 54.28L70.4441 56.02C74.3641 52.86 77.4641 48.02 77.4641 41.44H69.6041V43.72ZM104.971 58.42V56.56H93.1308V55.92H104.551V51.86H90.4508V53.7H101.871V54.32H90.4508V58.42H104.971ZM94.3908 40.14C91.4308 40.14 89.2308 41.42 89.2308 43.42C89.2308 45.42 91.4308 46.7 94.3908 46.7C97.3508 46.7 99.5508 45.42 99.5508 43.42C99.5508 41.42 97.3508 40.14 94.3908 40.14ZM97.9108 51.26H104.591V40.62H101.911V49.54H97.9108V51.26ZM95.6308 51.26V49.12L101.091 49.04V47.08L87.9908 47.24V49.24L92.9108 49.16V51.26H95.6308ZM94.3908 44.66C92.8908 44.66 91.9108 44.2 91.9108 43.42C91.9108 42.64 92.8908 42.18 94.3908 42.18C95.8508 42.18 96.8708 42.64 96.8708 43.42C96.8708 44.2 95.8508 44.66 94.3908 44.66ZM125.12 47.54C125.12 43.94 122.62 41.42 119.32 41.42C116.02 41.42 113.52 43.94 113.52 47.54C113.52 51.14 116.02 53.66 119.32 53.66C122.62 53.66 125.12 51.14 125.12 47.54ZM122.44 47.54C122.44 49.86 121.16 51.38 119.32 51.38C117.48 51.38 116.2 49.86 116.2 47.54C116.2 45.22 117.48 43.7 119.32 43.7C121.16 43.7 122.44 45.22 122.44 47.54ZM129.8 58.54V40.62H127.12V58.54H129.8ZM141.927 58.08H144.527V49.24H146.287V58.52H148.927V40.62H146.287V46.92H144.527V40.82H141.927V58.08ZM133.107 41.26V55.28L141.127 54.8V52.56L135.747 52.8V41.26H133.107Z" fill="#999999"/>
<path d="M13.64 68.94V71.08H5.24V68.94H2.56V77.5H16.32V68.94H13.64ZM10.8 86.54V81.22H18.24V78.94H0.64V81.22H8.08V86.54H10.8ZM5.24 75.2V73.32H13.64V75.2H5.24ZM30.2467 71.44V69.2H20.3267V77.82L31.9267 77.28V75.04L23.0067 75.34V71.44H30.2467ZM35.4067 78.48V74.4H37.5267V72.08H35.4067V68.62H32.7267V78.48H35.4067ZM21.8467 79.28V86.42H35.3667V79.28H21.8467ZM24.5267 81.52H32.6867V84.14H24.5267V81.52ZM54.9334 77.9V68.62H52.2534V72.06H49.3134C49.2534 71.78 49.1534 71.5 49.0334 71.24C48.2534 69.48 46.3934 68.36 44.1934 68.36C41.2334 68.36 38.9534 70.36 38.9534 73.16C38.9534 75.96 41.2334 77.96 44.1934 77.96C46.3934 77.96 48.2534 76.82 49.0334 75.1C49.1334 74.86 49.2334 74.6 49.2934 74.34H52.2534V77.9H54.9334ZM48.1734 86.42V85.42L49.4534 86.78C49.9534 86.44 50.4734 86.02 50.9734 85.48C51.4734 84.96 51.9534 84.36 52.3734 83.68L52.5334 83.92C53.3734 85.18 54.5334 86.18 55.6134 86.7L57.0534 84.8C56.1934 84.42 55.4134 83.94 54.7334 83.36C54.1734 82.88 53.7134 82.28 53.3334 81.58L53.4134 81.36C53.6734 80.52 53.8334 79.62 53.8534 78.66H51.2134C51.1534 80.24 50.8134 81.54 50.1934 82.56C49.6534 83.46 48.9934 84.18 48.1734 84.76V78.7H45.5734V80.48H43.4934V78.7H40.8934V86.42H48.1734ZM44.1934 75.76C42.5934 75.76 41.6334 74.7 41.6334 73.16C41.6334 71.62 42.5934 70.56 44.1934 70.56C45.7934 70.56 46.7534 71.62 46.7534 73.16C46.7534 74.7 45.7934 75.76 44.1934 75.76ZM45.5734 84.18H43.4934V82.6H45.5734V84.18ZM73.1802 73.24H61.9002V68.7H59.2202V75.5H73.1802V73.24ZM74.9002 79.62V77.38H57.3002V79.62H74.9002ZM59.3002 80.62V86.34H73.6802V84.06H61.9802V80.62H59.3002ZM99.2094 86.54V68.62H96.5294V86.54H99.2094ZM84.0294 71.62H91.0294C90.6494 75.72 87.8694 79.84 83.2094 82.08L84.9294 83.98C89.9294 81.3 93.9294 76.3 93.8694 69.34H84.0294V71.62ZM117.516 81.76V75.5H119.636V73.18H117.516V68.62H114.836V81.76H117.516ZM104.056 80.22V86.34H118.096V84.06H106.736V80.22H104.056ZM102.596 71.44H109.396C108.816 74.24 105.916 76.64 101.416 77.54L102.676 79.62C107.656 78.54 112.376 75.06 112.316 69.2H102.596V71.44ZM144.165 86.42V84.24H132.725V83.32H143.765V78.24H130.045V80.4H141.085V81.28H130.045V86.42H144.165ZM139.645 75.28C137.805 74.76 136.085 73.88 134.885 72.48C134.765 72.34 134.645 72.18 134.545 72.02C134.965 71.04 135.205 70 135.225 68.9H132.505C132.325 72.32 130.105 74.8 126.645 75.92L128.285 77.88C129.905 77.3 131.645 76.16 132.945 74.62L133.365 74.1C133.365 74.12 133.365 74.12 133.385 74.14C134.745 75.7 136.485 76.84 138.185 77.36L139.645 75.28ZM137.405 73.34H141.125V77.64H143.805V68.62H141.125V71.18H137.405V73.34ZM156.572 78.22C153.212 78.22 150.792 80.04 150.792 82.64C150.792 85.26 153.212 87.06 156.572 87.06C159.932 87.06 162.352 85.26 162.352 82.64C162.352 80.04 159.932 78.22 156.572 78.22ZM158.572 75.44C156.572 75.08 154.972 74.48 153.792 73.34C153.672 73.22 153.552 73.08 153.452 72.94C153.612 72.6 153.752 72.22 153.872 71.84C153.932 71.68 153.972 71.52 154.012 71.36H157.852V69.2H146.672V71.36H151.212C150.912 72.3 150.432 73.14 149.732 73.88C148.672 75 147.272 75.82 145.532 76.32L147.092 78.32C148.692 77.8 150.472 76.72 151.832 75.28L152.192 74.88C152.652 75.38 153.192 75.82 153.772 76.2C154.832 76.88 155.972 77.34 157.192 77.56L158.572 75.44ZM156.892 74.32H160.012V78.4H162.692V68.62H160.012V72.16H156.892V74.32ZM156.572 84.86C154.572 84.86 153.472 83.98 153.472 82.64C153.472 81.3 154.572 80.42 156.572 80.42C158.572 80.42 159.672 81.3 159.672 82.64C159.672 83.98 158.572 84.86 156.572 84.86Z" fill="#242D3C"/>
<path d="M0.528 6.92C0.528 10.888 3.008 13.304 5.76 13.304C8.512 13.304 10.992 10.888 10.992 6.92C10.992 2.952 8.512 0.535999 5.76 0.535999C3.008 0.535999 0.528 2.952 0.528 6.92ZM8.912 6.92C8.912 9.8 7.376 11.544 5.76 11.544C4.144 11.544 2.608 9.8 2.608 6.92C2.608 4.04 4.144 2.296 5.76 2.296C7.376 2.296 8.912 4.04 8.912 6.92ZM20.4276 4.28C20.4276 2.2 18.7476 0.535999 16.0756 0.535999C14.1556 0.535999 12.6196 1.8 11.7716 3.512L13.3236 4.536C13.9636 3.272 14.9876 2.296 16.0756 2.296C17.4516 2.296 18.3476 3.176 18.3476 4.28C18.3476 5.496 17.5156 6.328 16.6996 7.096L11.8196 11.64V13H20.7156V11.24H14.9236L17.9956 8.456C19.1476 7.432 20.4276 6.136 20.4276 4.28Z" fill="#D7191F"/>
</svg>
