<svg width="230" height="142" viewBox="0 0 230 142" fill="none" xmlns="http://www.w3.org/2000/svg">
<path d="M16.4 58.42V51.38H2.44V58.42H16.4ZM18.24 49.74V47.5H15.82C15.98 46.76 16.14 45.9 16.28 44.92C16.46 43.72 16.56 42.38 16.6 40.9H2.26V43.14H13.84C13.8 44.1 13.64 45.4 13.36 46.72L13.18 47.5H0.64V49.74H18.24ZM5.12 53.58H13.72V56.18H5.12V53.58ZM32.5067 55.08V52.84L23.4067 53.22V49.36H30.1267V41.2H20.7267V43.48H27.4467V47.1H20.7267V55.7L32.5067 55.08ZM35.9867 58.54V40.62H33.3067V58.54H35.9867ZM57.9759 40.94V43.08H49.5759V40.94H46.8959V49.5H60.6559V40.94H57.9759ZM55.1359 58.54V53.22H62.5759V50.94H44.9759V53.22H52.4159V58.54H55.1359ZM49.5759 47.2V45.32H57.9759V47.2H49.5759ZM74.5827 43.44V41.2H64.6627V49.82L76.2627 49.28V47.04L67.3427 47.34V43.44H74.5827ZM79.7427 50.48V46.4H81.8627V44.08H79.7427V40.62H77.0627V50.48H79.7427ZM66.1827 51.28V58.42H79.7027V51.28H66.1827ZM68.8627 53.52H77.0227V56.14H68.8627V53.52ZM99.2694 49.9V40.62H96.5894V44.06H93.6494C93.5894 43.78 93.4894 43.5 93.3694 43.24C92.5894 41.48 90.7294 40.36 88.5294 40.36C85.5694 40.36 83.2894 42.36 83.2894 45.16C83.2894 47.96 85.5694 49.96 88.5294 49.96C90.7294 49.96 92.5894 48.82 93.3694 47.1C93.4694 46.86 93.5694 46.6 93.6294 46.34H96.5894V49.9H99.2694ZM92.5094 58.42V57.42L93.7894 58.78C94.2894 58.44 94.8094 58.02 95.3094 57.48C95.8094 56.96 96.2894 56.36 96.7094 55.68L96.8694 55.92C97.7094 57.18 98.8694 58.18 99.9494 58.7L101.389 56.8C100.529 56.42 99.7494 55.94 99.0694 55.36C98.5094 54.88 98.0494 54.28 97.6694 53.58L97.7494 53.36C98.0094 52.52 98.1694 51.62 98.1894 50.66H95.5494C95.4894 52.24 95.1494 53.54 94.5294 54.56C93.9894 55.46 93.3294 56.18 92.5094 56.76V50.7H89.9094V52.48H87.8294V50.7H85.2294V58.42H92.5094ZM88.5294 47.76C86.9294 47.76 85.9694 46.7 85.9694 45.16C85.9694 43.62 86.9294 42.56 88.5294 42.56C90.1294 42.56 91.0894 43.62 91.0894 45.16C91.0894 46.7 90.1294 47.76 88.5294 47.76ZM89.9094 56.18H87.8294V54.6H89.9094V56.18ZM117.516 45.24H106.236V40.7H103.556V47.5H117.516V45.24ZM119.236 51.62V49.38H101.636V51.62H119.236ZM103.636 52.62V58.34H118.016V56.06H106.316V52.62H103.636Z" fill="#999999"/>
<path d="M1.74 79.76C3.44 79.14 5.22 78.14 6.52 76.78L6.82 76.46L7.08 76.74C8.42 78.04 10.18 78.96 11.88 79.24L13.28 77.14C11.38 76.74 9.74 76.16 8.54 75.04C8.38 74.88 8.24 74.72 8.1 74.54L8.14 74.44C8.28 74.14 8.4 73.82 8.5 73.48H12.72V71.28H1.36V73.48H5.64L5.52 73.78C4.62 75.7 2.8 76.88 0.16 77.78L1.74 79.76ZM16.68 86.62V80.28H2.56V82.48H14V86.62H16.68ZM16.72 79.48V75.3H18.84V72.98H16.72V68.62H14.04V79.48H16.72ZM10.4 70.4V68.2H3.68V70.4H10.4ZM29.2067 70.24V68.2H22.2067V70.24H29.2067ZM31.8067 72.96V70.92H19.6067V72.96H31.8067ZM25.8667 73.38C22.7267 73.38 20.7867 74.72 20.7867 76.7C20.7867 78.68 22.7267 80.02 25.8667 80.02C29.0067 80.02 30.9467 78.68 30.9467 76.7C30.9467 74.72 29.0067 73.38 25.8667 73.38ZM25.8667 78.06C24.2067 78.06 23.4267 77.52 23.4267 76.7C23.4267 75.88 24.2067 75.34 25.8667 75.34C27.5267 75.34 28.3067 75.88 28.3067 76.7C28.3067 77.52 27.5267 78.06 25.8667 78.06ZM35.6067 82.12V76.1H37.7267V73.78H35.6067V68.62H32.9267V82.12H35.6067ZM22.1467 80.98V86.34H36.1867V84.06H24.8267V80.98H22.1467ZM55.0759 86.08H57.6759V77.24H59.2359V86.52H61.8759V68.62H59.2359V74.92H57.6759V68.82H55.0759V86.08ZM46.0559 69.46V83.38L54.2759 82.9V80.66L48.6959 80.9V71.74H53.5359V69.46H46.0559ZM81.4627 78.5V76.58H63.8627V78.5H71.3027V79.42H65.6627V81.34H76.9427V82.02H65.6627V86.42H80.0427V84.48H68.3427V83.78H79.6227V79.42H74.0227V78.5H81.4627ZM65.5427 76.14C67.5427 76.06 69.7627 75.72 71.5627 74.96C71.9227 74.8 72.2627 74.62 72.5827 74.44C72.9227 74.66 73.2827 74.86 73.6827 75.04C75.4027 75.78 77.6027 76.08 79.6827 76L80.8427 74.04C78.4427 74 76.3827 73.88 74.8227 73.24L74.2027 72.94C74.2227 72.88 74.2627 72.84 74.3027 72.78H79.6827V70.78H65.5627V72.78H71.0227C70.6627 73.04 70.2227 73.24 69.7027 73.4C68.3627 73.82 66.5427 74.02 64.4627 74.12L65.5427 76.14ZM76.5427 68.22H68.7027V70.22H76.5427V68.22Z" fill="#242D3C"/>
<path d="M0.528 6.92C0.528 10.888 3.008 13.304 5.76 13.304C8.512 13.304 10.992 10.888 10.992 6.92C10.992 2.952 8.512 0.535999 5.76 0.535999C3.008 0.535999 0.528 2.952 0.528 6.92ZM8.912 6.92C8.912 9.8 7.376 11.544 5.76 11.544C4.144 11.544 2.608 9.8 2.608 6.92C2.608 4.04 4.144 2.296 5.76 2.296C7.376 2.296 8.912 4.04 8.912 6.92ZM17.9476 8.184H14.5876L17.9476 4.2V8.184ZM11.7556 9.944H17.9476V13H20.0276V9.944H21.7876V8.184H20.0276V0.839999H18.3476L11.7556 8.6V9.944Z" fill="#D7191F"/>
<path d="M9.42 116.9V111.092H11.16V110.276H9.42V106.196H8.508V116.9H9.42ZM6.444 110.324H1.908V107.372H6.612V106.58H0.996V115.124L7.86 114.74V113.96L1.908 114.26V111.116H6.444V110.324ZM19.12 114.296C18.316 113.78 17.608 113.144 16.984 112.4C16.396 111.692 15.916 110.96 15.556 110.192C15.628 109.94 15.7 109.676 15.76 109.412C15.952 108.536 16.048 107.576 16.048 106.532H15.112C15.076 110.336 13.708 113.084 11.368 114.68L11.98 115.316C13.192 114.416 14.224 113.252 14.932 111.812C15.028 111.608 15.124 111.416 15.208 111.212C15.328 111.44 15.46 111.656 15.616 111.884C16.396 113.084 17.464 114.248 18.496 114.992L19.12 114.296ZM20.872 116.9V111.092H22.612V110.276H20.872V106.196H19.96V116.9H20.872ZM34.4376 114.332C33.6456 113.816 32.9256 113.204 32.2896 112.496C31.6656 111.8 31.1736 111.056 30.8256 110.264C30.8736 110.108 30.9216 109.952 30.9576 109.784C31.1496 109.064 31.2696 108.284 31.3176 107.444H33.9336V106.652H27.2976V107.444H30.3576C30.2976 108.2 30.1896 108.908 30.0216 109.568C29.4456 111.884 28.2336 113.612 26.6376 114.728L27.2496 115.364C28.3896 114.512 29.3736 113.432 30.0936 112.052C30.2256 111.8 30.3576 111.536 30.4656 111.26C30.5976 111.512 30.7536 111.752 30.9096 111.992C31.7256 113.192 32.7816 114.296 33.8256 115.04L34.4376 114.332ZM36.1416 116.9V111.092H37.8816V110.276H36.1416V106.196H35.2296V116.9H36.1416ZM43.6456 112.556C41.6536 112.556 40.1176 113.48 40.1176 114.956C40.1176 116.432 41.6536 117.356 43.6456 117.356C45.6376 117.356 47.1736 116.432 47.1736 114.956C47.1736 113.48 45.6376 112.556 43.6456 112.556ZM47.7736 109.232H40.4416V107.132H47.6296V106.388H39.5296V109.988H43.1896V111.14H38.3416V111.908H48.8536V111.14H44.1256V109.988H47.7736V109.232ZM43.6456 116.588C42.1816 116.588 41.0296 115.964 41.0296 114.956C41.0296 113.948 42.1816 113.324 43.6456 113.324C45.1096 113.324 46.2616 113.948 46.2616 114.956C46.2616 115.964 45.1096 116.588 43.6456 116.588ZM57.1376 114.572C56.3096 114.116 55.5896 113.552 54.9536 112.868C54.3896 112.268 53.9456 111.62 53.6216 110.924C53.8016 110.36 53.9216 109.772 53.9816 109.136H56.5856V108.344H50.0816V109.136H53.0096C52.9616 109.712 52.8656 110.252 52.7096 110.744C52.1096 112.652 50.8736 114.02 49.3496 114.896L49.9256 115.532C50.9336 114.92 51.9296 114.032 52.6856 112.88C52.8896 112.556 53.0816 112.22 53.2496 111.848C53.3696 112.052 53.5016 112.244 53.6336 112.448C54.4256 113.564 55.4456 114.596 56.5376 115.292L57.1376 114.572ZM58.8056 116.9V111.272H60.5456V110.456H58.8056V106.196H57.8936V116.9H58.8056ZM55.2176 107.084V106.292H51.4976V107.084H55.2176ZM66.6097 116.9V112.34H71.5177V111.548H69.8377C69.9697 110.876 70.0897 110.168 70.1977 109.412C70.3177 108.548 70.4017 107.588 70.4377 106.532H62.0257V107.324H69.5017C69.4657 108.056 69.3817 108.8 69.2737 109.58C69.1657 110.252 69.0577 110.912 68.9257 111.548H61.0057V112.34H65.6737V116.9H66.6097ZM72.9737 106.724V114.836H77.4017V106.724H72.9737ZM79.6337 116.6V111.032H81.3017V116.888H82.2137V106.196H81.3017V110.216H79.6337V106.316H78.7337V116.6H79.6337ZM76.5017 114.044H73.8737V107.516H76.5017V114.044ZM91.0977 114.332C90.3057 113.816 89.5857 113.204 88.9497 112.496C88.3257 111.8 87.8337 111.056 87.4857 110.264C87.5337 110.108 87.5817 109.952 87.6177 109.784C87.8097 109.064 87.9297 108.284 87.9777 107.444H90.5937V106.652H83.9577V107.444H87.0177C86.9577 108.2 86.8497 108.908 86.6817 109.568C86.1057 111.884 84.8937 113.612 83.2977 114.728L83.9097 115.364C85.0497 114.512 86.0337 113.432 86.7537 112.052C86.8857 111.8 87.0177 111.536 87.1257 111.26C87.2577 111.512 87.4137 111.752 87.5697 111.992C88.3857 113.192 89.4417 114.296 90.4857 115.04L91.0977 114.332ZM92.8017 116.9V111.092H94.5417V110.276H92.8017V106.196H91.8897V116.9H92.8017ZM96.1298 112.868V116.828H104.362V112.868H96.1298ZM95.0018 110.576V111.368H105.514V110.576H103.966C104.074 110.048 104.17 109.484 104.242 108.872C104.326 108.14 104.398 107.312 104.434 106.388H96.0218V107.156H103.498C103.462 107.78 103.402 108.404 103.33 109.016C103.27 109.532 103.186 110.048 103.066 110.576H95.0018ZM103.45 113.636V116.036H97.0418V113.636H103.45ZM113.57 116.6V111.032H115.298V116.888H116.21V106.196H115.298V110.216H113.57V106.316H112.67V116.6H113.57ZM107.03 106.724V114.956L112.07 114.668V113.888L107.93 114.068V107.516H111.326V106.724H107.03ZM127.278 116.828V116.072H119.706V115.16H127.026V112.82H123.45V111.92H128.178V111.176H117.666V111.92H122.514V112.82H118.794V113.564H126.114V114.428H118.794V116.828H127.278ZM127.71 109.772C126.33 109.7 125.022 109.448 124.038 108.944C123.798 108.824 123.582 108.68 123.39 108.524C123.45 108.416 123.498 108.32 123.534 108.212H127.062V107.468H118.734V108.212H122.502C122.406 108.392 122.274 108.548 122.106 108.692C121.242 109.412 119.682 109.796 118.11 109.868L118.506 110.588C119.766 110.528 121.518 110.156 122.61 109.352L122.91 109.112C123.15 109.292 123.414 109.46 123.702 109.604C124.794 110.144 126.138 110.456 127.302 110.504L127.71 109.772ZM125.178 106.052H120.618V106.796H125.178V106.052ZM139.055 112.052C137.027 112.052 135.647 113.12 135.647 114.584C135.647 116.048 137.027 117.116 139.055 117.116C141.059 117.116 142.463 116.048 142.463 114.584C142.463 113.12 141.059 112.052 139.055 112.052ZM139.055 116.324C137.471 116.324 136.559 115.592 136.559 114.584C136.559 113.576 137.471 112.844 139.055 112.844C140.639 112.844 141.551 113.576 141.551 114.584C141.551 115.592 140.639 116.324 139.055 116.324ZM140.255 110.684C139.499 110.432 138.791 110.06 138.143 109.58C137.627 109.196 137.195 108.752 136.871 108.248L136.907 108.14C137.147 107.576 137.279 107 137.315 106.388H136.379C136.187 108.5 134.783 110.324 132.647 111.188L133.175 111.848C134.231 111.404 135.227 110.636 135.983 109.688C136.163 109.46 136.331 109.22 136.487 108.968C136.595 109.1 136.703 109.244 136.823 109.376C137.603 110.252 138.683 111.032 139.727 111.416L140.255 110.684ZM142.319 112.16V109.352H143.795V108.536H142.319V106.196H141.407V112.16H142.319ZM145.395 113.42V116.828H153.627V113.42H149.991V112.268H154.779V111.476H144.267V112.268H149.055V113.42H145.395ZM145.311 106.388V107.156H146.679L146.763 109.688H144.975V110.468H154.059V109.688H152.259L152.343 107.156H153.723V106.388H145.311ZM152.715 114.188V116.036H146.307V114.188H152.715ZM147.591 107.156H151.431L151.347 109.688H147.675L147.591 107.156ZM166.773 116.6V111.032H168.501V116.888H169.413V106.196H168.501V110.216H166.773V106.316H165.873V116.6H166.773ZM160.233 106.724V114.956L165.273 114.668V113.888L161.133 114.068V107.516H164.529V106.724H160.233ZM176.233 106.532V109.652H172.549V106.532H171.637V114.884H177.145V106.532H176.233ZM172.549 114.092V110.444H176.233V114.092H172.549ZM180.481 116.9V106.196H179.569V116.9H180.481ZM8.808 126.412V128.02H2.508V126.412H1.596V131.308H9.72V126.412H8.808ZM6.132 136.9V133.396H10.92V132.604H0.408V133.396H5.196V136.9H6.132ZM2.508 130.516V128.812H8.808V130.516H2.508ZM21.004 132.208V129.352H22.48V128.536H21.004V126.196H20.092V132.208H21.004ZM13.18 132.808V136.828H20.98V132.808H13.18ZM14.092 133.576H20.068V136.036H14.092V133.576ZM12.268 126.568V131.572L19.372 131.236V130.456L13.18 130.708V127.36H17.908V126.568H12.268ZM26.4921 126.112C24.8121 126.112 23.4441 127.276 23.4441 128.908C23.4441 130.54 24.8121 131.704 26.4921 131.704C27.7641 131.704 28.8321 131.044 29.3001 130.036C29.4081 129.808 29.4801 129.556 29.5161 129.292H31.8081V131.86H32.7201V126.196H31.8081V128.5H29.5041C29.4681 128.248 29.4081 128.008 29.3001 127.78C28.8321 126.772 27.7641 126.112 26.4921 126.112ZM29.3241 136.96C30.0081 136.564 30.6681 135.928 31.1361 135.16L31.2441 134.968C31.4961 135.292 31.7601 135.604 32.0481 135.904C32.4681 136.312 32.9001 136.648 33.3561 136.9L33.9441 136.204C33.4401 135.952 32.9841 135.64 32.5641 135.268C32.1801 134.932 31.8681 134.548 31.6161 134.128L31.6881 133.888C31.8321 133.42 31.9041 132.928 31.9041 132.412H30.9681C30.9321 133.288 30.7281 134.068 30.3441 134.752C29.9721 135.412 29.4441 135.928 28.7841 136.276V132.412H27.8961V133.78H25.5201V132.412H24.6081V136.828H28.7841V136.372L29.3241 136.96ZM26.4921 130.936C25.2081 130.936 24.3561 130.096 24.3561 128.908C24.3561 127.72 25.2081 126.88 26.4921 126.88C27.7761 126.88 28.6281 127.72 28.6281 128.908C28.6281 130.096 27.7761 130.936 26.4921 130.936ZM25.5201 136.036V134.548H27.8961V136.036H25.5201ZM34.4041 131.68V132.472H44.9161V131.68H34.4041ZM44.1361 136.78V135.988H36.4921V133.372H35.5801V136.78H44.1361ZM35.5921 126.268V130.156H43.8361V129.376H36.5041V126.268H35.5921ZM55.3976 136.9V133.06H60.1856V132.268H49.6736V133.06H54.4616V136.9H55.3976ZM59.7536 130.36C58.7096 130.156 57.7976 129.82 57.0416 129.352C56.3696 128.932 55.8176 128.392 55.3856 127.732C55.5656 127.312 55.6736 126.856 55.6976 126.376H54.7376C54.5816 128.548 52.3976 129.988 49.9616 130.372L50.4536 131.092C51.6656 130.9 52.9616 130.348 53.9576 129.532C54.3416 129.208 54.6776 128.86 54.9536 128.464C55.4456 129.124 56.0096 129.652 56.6696 130.06C57.4616 130.552 58.3256 130.9 59.2736 131.104L59.7536 130.36ZM71.0257 130.084C70.0897 129.928 69.2377 129.688 68.4697 129.352C67.7257 129.028 67.1137 128.608 66.6337 128.092C66.7777 127.804 66.8857 127.492 66.9457 127.156H70.3297V126.388H62.1937V127.156H65.9497C65.8537 127.564 65.6857 127.924 65.4577 128.248C64.6657 129.328 63.2257 129.964 61.4737 130.18L61.8697 130.9C62.9857 130.756 64.1857 130.348 65.1457 129.712C65.5537 129.436 65.9017 129.112 66.2017 128.752C66.4537 129.004 66.7297 129.232 67.0297 129.436C68.0977 130.168 69.3937 130.648 70.6177 130.816L71.0257 130.084ZM66.8497 134.98V132.592H71.5177V131.8H61.0057V132.592H65.9137V134.98H66.8497ZM70.7377 136.78V135.988H63.0937V133.612H62.1817V136.78H70.7377ZM82.1417 136.9V126.196H81.2297V136.9H82.1417ZM80.7497 135.052V134.26L72.5657 134.356V135.172L80.7497 135.052ZM76.4657 126.46C74.5457 126.46 73.2257 127.912 73.2257 129.484C73.2257 131.056 74.5457 132.508 76.4657 132.508C78.3857 132.508 79.7057 131.056 79.7057 129.484C79.7057 127.912 78.3857 126.46 76.4657 126.46ZM76.4657 131.716C75.0497 131.716 74.1377 130.636 74.1377 129.484C74.1377 128.332 75.0497 127.252 76.4657 127.252C77.8817 127.252 78.7937 128.332 78.7937 129.484C78.7937 130.636 77.8817 131.716 76.4657 131.716ZM95.4912 131.98C94.7592 131.752 94.0992 131.452 93.5112 131.056C92.9712 130.696 92.5392 130.276 92.2392 129.808C92.3832 129.52 92.4792 129.22 92.5272 128.908H95.1552V128.116H88.6272V128.908H91.5552C91.4952 129.208 91.3992 129.484 91.2672 129.748C90.6672 130.9 89.5032 131.8 88.0512 132.184L88.5672 132.844C89.4912 132.556 90.4632 131.992 91.2192 131.236C91.4472 131.008 91.6392 130.78 91.8192 130.528C91.9512 130.684 92.0952 130.84 92.2512 130.996C92.9952 131.716 93.9672 132.352 94.9872 132.688L95.4912 131.98ZM97.4112 136.9V126.196H96.4992V136.9H97.4112ZM96.0192 135.172V134.38L92.2992 134.428V132.388H91.3632V134.44L87.8352 134.476V135.292L96.0192 135.172ZM90.0792 126.34V127.132H93.7032V126.34H90.0792ZM106.607 134.332C105.815 133.816 105.095 133.204 104.459 132.496C103.835 131.8 103.343 131.056 102.995 130.264C103.043 130.108 103.091 129.952 103.127 129.784C103.319 129.064 103.439 128.284 103.487 127.444H106.103V126.652H99.4673V127.444H102.527C102.467 128.2 102.359 128.908 102.191 129.568C101.615 131.884 100.403 133.612 98.8073 134.728L99.4193 135.364C100.559 134.512 101.543 133.432 102.263 132.052C102.395 131.8 102.527 131.536 102.635 131.26C102.767 131.512 102.923 131.752 103.079 131.992C103.895 133.192 104.951 134.296 105.995 135.04L106.607 134.332ZM108.791 136.9V126.196H107.879V129.796H105.323V130.612H107.879V136.9H108.791ZM115.337 132.868V136.828H123.569V132.868H115.337ZM114.209 130.576V131.368H124.721V130.576H123.173C123.281 130.048 123.377 129.484 123.449 128.872C123.533 128.14 123.605 127.312 123.641 126.388H115.229V127.156H122.705C122.669 127.78 122.609 128.404 122.537 129.016C122.477 129.532 122.393 130.048 122.273 130.576H114.209ZM122.657 133.636V136.036H116.249V133.636H122.657ZM135.153 136.9V126.196H134.241V136.9H135.153ZM133.413 134.74V133.96L127.221 134.26V131.116H131.637V126.58H126.309V127.372H130.725V130.324H126.309V135.124L133.413 134.74ZM136.873 135.1V135.892H147.385V135.1H142.657V132.916H146.365V132.112H138.973V130.144H146.185V126.652H138.061V127.444H145.273V129.352H138.061V132.916H141.721V135.1H136.873ZM157.59 126.448V128.128H153.714V126.448H152.802V131.44H158.502V126.448H157.59ZM162.03 136.828V136.036H154.758V134.932H161.79V132.352H153.846V133.12H160.878V134.188H153.846V136.828H162.03ZM153.714 130.672V128.872H157.59V130.672H153.714ZM161.79 131.8V126.196H160.878V131.8H161.79ZM169.834 129.268V126.472H164.194V127.216H168.922V128.548H164.194V131.476L171.538 131.164V130.432L165.106 130.66V129.268H169.834ZM173.122 131.872V126.196H172.21V131.872H173.122ZM173.362 136.828V136.06H166.09V134.956H173.122V132.424H165.178V133.168H172.21V134.236H165.178V136.828H173.362ZM184.468 136.9V133.06H189.256V132.268H178.744V133.06H183.532V136.9H184.468ZM188.824 130.36C187.78 130.156 186.868 129.82 186.112 129.352C185.44 128.932 184.888 128.392 184.456 127.732C184.636 127.312 184.744 126.856 184.768 126.376H183.808C183.652 128.548 181.468 129.988 179.032 130.372L179.524 131.092C180.736 130.9 182.032 130.348 183.028 129.532C183.412 129.208 183.748 128.86 184.024 128.464C184.516 129.124 185.08 129.652 185.74 130.06C186.532 130.552 187.396 130.9 188.344 131.104L188.824 130.36ZM197.457 126.16C195.693 126.16 194.337 127.336 194.337 129.016C194.337 130.696 195.693 131.872 197.457 131.872C199.221 131.872 200.577 130.696 200.577 129.016C200.577 127.336 199.221 126.16 197.457 126.16ZM197.457 131.08C196.113 131.08 195.249 130.216 195.249 129.016C195.249 127.816 196.113 126.952 197.457 126.952C198.801 126.952 199.665 127.816 199.665 129.016C199.665 130.216 198.801 131.08 197.457 131.08ZM199.377 137.116C200.049 136.696 200.805 136.132 201.393 135.412C201.525 135.268 201.633 135.112 201.741 134.956C202.053 135.304 202.377 135.628 202.725 135.928C203.217 136.336 203.733 136.66 204.261 136.888L204.837 136.204C204.297 136 203.757 135.7 203.229 135.328C202.809 135.028 202.437 134.68 202.125 134.296L202.161 134.212C202.377 133.768 202.509 133.3 202.557 132.784H201.597C201.537 133.564 201.249 134.284 200.733 134.944C200.577 135.148 200.397 135.352 200.217 135.532C199.869 135.364 199.545 135.16 199.245 134.92C198.921 134.644 198.633 134.32 198.393 133.972C198.573 133.6 198.693 133.204 198.729 132.784H197.769C197.577 134.356 196.269 135.616 194.745 136.204L195.321 136.816C195.993 136.528 196.785 136 197.445 135.316C197.649 135.1 197.829 134.872 197.997 134.632C198.201 134.908 198.429 135.172 198.669 135.4C198.945 135.664 199.245 135.892 199.545 136.084C199.293 136.264 199.029 136.42 198.753 136.576L199.377 137.116ZM203.661 132.208V126.196H202.749V132.208H203.661ZM209.018 126.7C207.098 126.7 205.622 128.164 205.622 130.324C205.622 132.496 207.098 133.96 209.018 133.96C210.446 133.96 211.658 133.132 212.15 131.812C212.282 131.476 212.366 131.104 212.402 130.708H214.166V136.9H215.078V126.196H214.166V129.892H212.39C212.354 129.52 212.282 129.172 212.15 128.848C211.658 127.528 210.446 126.7 209.018 126.7ZM209.018 127.516C210.446 127.516 211.478 128.584 211.478 130.312C211.478 132.004 210.518 133.144 209.018 133.144C207.518 133.144 206.558 132.004 206.558 130.312C206.558 128.584 207.59 127.516 209.018 127.516ZM221.922 126.172C219.582 126.172 218.01 127.696 218.01 129.424C218.01 131.152 219.582 132.676 221.922 132.676C224.262 132.676 225.834 131.152 225.834 129.424C225.834 127.696 224.262 126.172 221.922 126.172ZM221.922 131.884C220.074 131.884 218.922 130.744 218.922 129.424C218.922 128.104 220.074 126.964 221.922 126.964C223.77 126.964 224.922 128.104 224.922 129.424C224.922 130.744 223.77 131.884 221.922 131.884ZM216.678 135.1V135.892H227.19V135.1H224.826V132.832H223.902V135.1H220.002V132.832H219.078V135.1H216.678ZM228.214 136.6H229.366V135.448H228.214V136.6Z" fill="#999999"/>
</svg>
