<svg width="202" height="150" viewBox="0 0 202 150" fill="none" xmlns="http://www.w3.org/2000/svg">
<rect y="94" width="59" height="19" rx="9.5" fill="#ED030D"/>
<path d="M17.528 98.076H16.28V108.948H17.528V98.076ZM8.948 103.272L9.512 104.232C10.16 104.04 10.712 103.752 11.168 103.368C11.624 102.984 11.968 102.528 12.2 102C12.44 102.504 12.784 102.94 13.232 103.308C13.688 103.668 14.24 103.94 14.888 104.124L15.44 103.164C14.64 102.94 14.008 102.584 13.544 102.096C13.088 101.608 12.844 101.052 12.812 100.428H15.176V99.432H12.812V98.172H11.576V99.432H9.224V100.428H11.564C11.532 101.076 11.292 101.656 10.844 102.168C10.404 102.68 9.772 103.048 8.948 103.272ZM12.812 105.684V103.884H11.576V105.744C11.048 105.76 10.536 105.772 10.04 105.78C9.552 105.78 9.092 105.78 8.66 105.78L8.816 106.8C9.296 106.8 9.812 106.796 10.364 106.788C10.924 106.78 11.5 106.764 12.092 106.74C12.684 106.708 13.284 106.66 13.892 106.596C14.508 106.524 15.116 106.428 15.716 106.308L15.62 105.408C15.164 105.48 14.7 105.54 14.228 105.588C13.764 105.628 13.292 105.66 12.812 105.684ZM26.5391 100.104V100.164C26.5391 100.804 26.5191 101.524 26.4791 102.324C26.4471 103.124 26.3271 104.056 26.1191 105.12L27.3671 105.252C27.4711 104.692 27.5511 104.176 27.6071 103.704C27.6631 103.224 27.7031 102.78 27.7271 102.372C27.7591 101.956 27.7751 101.568 27.7751 101.208C27.7831 100.848 27.7871 100.5 27.7871 100.164V99.096H20.0711V100.104H26.5391ZM28.8431 106.488H23.9471V102.672H22.6991V106.488H19.0511V107.508H28.8431V106.488ZM35.8981 100.308V99.324H33.3181V98.076H32.0821V99.324H29.5021V100.308H35.8981ZM39.4861 101.544H37.9501V98.088H36.7141V106.212H37.9501V102.564H39.4861V101.544ZM35.3221 102.864C35.3221 102.56 35.2581 102.284 35.1301 102.036C35.0021 101.78 34.8221 101.564 34.5901 101.388C34.3581 101.204 34.0821 101.064 33.7621 100.968C33.4421 100.864 33.0861 100.812 32.6941 100.812C32.3101 100.812 31.9541 100.864 31.6261 100.968C31.3061 101.064 31.0301 101.204 30.7981 101.388C30.5661 101.564 30.3861 101.78 30.2581 102.036C30.1301 102.284 30.0661 102.56 30.0661 102.864C30.0661 103.176 30.1301 103.46 30.2581 103.716C30.3861 103.964 30.5661 104.18 30.7981 104.364C31.0301 104.54 31.3061 104.676 31.6261 104.772C31.9541 104.868 32.3101 104.916 32.6941 104.916C33.0861 104.916 33.4421 104.868 33.7621 104.772C34.0821 104.676 34.3581 104.54 34.5901 104.364C34.8221 104.18 35.0021 103.964 35.1301 103.716C35.2581 103.46 35.3221 103.176 35.3221 102.864ZM31.2541 102.864C31.2541 102.52 31.3861 102.252 31.6501 102.06C31.9141 101.868 32.2621 101.772 32.6941 101.772C33.1261 101.772 33.4741 101.868 33.7381 102.06C34.0101 102.252 34.1461 102.52 34.1461 102.864C34.1461 103.208 34.0101 103.476 33.7381 103.668C33.4741 103.86 33.1261 103.956 32.6941 103.956C32.2621 103.956 31.9141 103.86 31.6501 103.668C31.3861 103.476 31.2541 103.208 31.2541 102.864ZM32.3341 107.712V105.588H31.0861V108.72H38.3821V107.712H32.3341ZM49.7452 106.608H45.4372V104.052H48.6412V103.056H42.3652V99.9H48.5452V98.904H41.1292V104.052H44.2012V106.608H39.9292V107.628H49.7452V106.608Z" fill="white"/>
<path d="M10.608 139.114V122.552H7.54L1.924 127.388L3.978 129.728L7.15 126.842L7.046 128.532V139.114H3.25V142H13.962V139.114H10.608ZM35.3263 134.486V120.29H31.8943V126.088H28.0983C27.9423 125.412 27.6736 124.797 27.2923 124.242C26.9109 123.687 26.4429 123.211 25.8883 122.812C25.3509 122.413 24.7443 122.101 24.0683 121.876C23.3923 121.651 22.6729 121.538 21.9103 121.538C21.0263 121.538 20.2029 121.685 19.4403 121.98C18.6776 122.275 18.0103 122.691 17.4383 123.228C16.8663 123.748 16.4156 124.372 16.0863 125.1C15.7743 125.811 15.6183 126.599 15.6183 127.466C15.6183 128.333 15.7743 129.13 16.0863 129.858C16.4156 130.586 16.8663 131.219 17.4383 131.756C18.0103 132.276 18.6776 132.683 19.4403 132.978C20.2029 133.273 21.0263 133.42 21.9103 133.42C22.6729 133.42 23.3923 133.316 24.0683 133.108C24.7616 132.883 25.3769 132.571 25.9143 132.172C26.4689 131.756 26.9283 131.271 27.2923 130.716C27.6736 130.144 27.9423 129.52 28.0983 128.844H31.8943V134.486H35.3263ZM21.9103 130.482C21.0263 130.482 20.2983 130.222 19.7263 129.702C19.1716 129.165 18.8943 128.419 18.8943 127.466C18.8943 126.513 19.1716 125.776 19.7263 125.256C20.2983 124.736 21.0263 124.476 21.9103 124.476C22.7943 124.476 23.5223 124.736 24.0943 125.256C24.6836 125.776 24.9783 126.513 24.9783 127.466C24.9783 128.419 24.6836 129.165 24.0943 129.702C23.5223 130.222 22.7943 130.482 21.9103 130.482ZM35.3263 135.552H19.0243V138.256H31.8943V144.262H35.3263V135.552ZM47.7929 125.75H55.0989V122.552H45.2709C45.1322 123.384 44.9242 124.589 44.6469 126.166C44.3869 127.726 44.0575 129.763 43.6589 132.276L45.8429 132.926C46.3109 132.753 46.7789 132.623 47.2469 132.536C47.7149 132.432 48.1915 132.363 48.6769 132.328C49.8729 132.293 50.7742 132.571 51.3809 133.16C51.9875 133.749 52.2909 134.564 52.2909 135.604C52.2909 136.748 51.9789 137.667 51.3549 138.36C50.7309 139.036 49.8209 139.374 48.6249 139.374C47.7929 139.374 47.0302 139.183 46.3369 138.802C45.6435 138.421 44.9935 137.979 44.3869 137.476L42.5669 140.128C43.2255 140.752 44.0662 141.298 45.0889 141.766C46.1115 142.234 47.2209 142.468 48.4169 142.468C49.4569 142.468 50.4275 142.303 51.3289 141.974C52.2302 141.627 53.0102 141.151 53.6689 140.544C54.3275 139.92 54.8389 139.175 55.2029 138.308C55.5842 137.441 55.7749 136.488 55.7749 135.448C55.7749 134.581 55.6362 133.784 55.3589 133.056C55.0815 132.311 54.6742 131.669 54.1369 131.132C53.5995 130.577 52.9322 130.144 52.1349 129.832C51.3375 129.52 50.4189 129.364 49.3789 129.364C49.0322 129.364 48.6682 129.381 48.2869 129.416C47.9229 129.433 47.5415 129.477 47.1429 129.546L47.7929 125.75ZM73.2912 120.29V127.284H69.4692V130.04H73.2912V138.022H76.7232V120.29H73.2912ZM69.4432 135.214L71.0812 132.536C70.1105 132.241 69.2698 131.86 68.5592 131.392C67.8658 130.907 67.2852 130.378 66.8172 129.806C66.3665 129.217 66.0285 128.593 65.8032 127.934C65.5952 127.258 65.4912 126.582 65.4912 125.906V125.802H70.2232V123.124H65.4912V120.472H62.0592V123.124H57.3792V125.802H62.0592V125.906C62.0592 126.634 61.9465 127.353 61.7212 128.064C61.5132 128.757 61.1838 129.416 60.7332 130.04C60.2998 130.664 59.7365 131.227 59.0432 131.73C58.3498 132.215 57.5178 132.614 56.5472 132.926L58.2112 135.604C59.5632 135.171 60.7072 134.547 61.6432 133.732C62.5792 132.9 63.3072 131.912 63.8272 130.768C64.3818 131.808 65.1185 132.709 66.0372 133.472C66.9558 134.235 68.0912 134.815 69.4432 135.214ZM77.2692 143.82V141.09H64.3732V136.54H60.9412V143.82H77.2692Z" fill="black"/>
<rect x="96" y="94" width="59" height="19" rx="9.5" fill="#706258"/>
<path d="M113.528 98.076H112.28V108.948H113.528V98.076ZM104.948 103.272L105.512 104.232C106.16 104.04 106.712 103.752 107.168 103.368C107.624 102.984 107.968 102.528 108.2 102C108.44 102.504 108.784 102.94 109.232 103.308C109.688 103.668 110.24 103.94 110.888 104.124L111.44 103.164C110.64 102.94 110.008 102.584 109.544 102.096C109.088 101.608 108.844 101.052 108.812 100.428H111.176V99.432H108.812V98.172H107.576V99.432H105.224V100.428H107.564C107.532 101.076 107.292 101.656 106.844 102.168C106.404 102.68 105.772 103.048 104.948 103.272ZM108.812 105.684V103.884H107.576V105.744C107.048 105.76 106.536 105.772 106.04 105.78C105.552 105.78 105.092 105.78 104.66 105.78L104.816 106.8C105.296 106.8 105.812 106.796 106.364 106.788C106.924 106.78 107.5 106.764 108.092 106.74C108.684 106.708 109.284 106.66 109.892 106.596C110.508 106.524 111.116 106.428 111.716 106.308L111.62 105.408C111.164 105.48 110.7 105.54 110.228 105.588C109.764 105.628 109.292 105.66 108.812 105.684ZM124.039 98.076H122.803V101.952H120.667V102.972H122.803V108.936H124.039V98.076ZM118.939 101.052V100.176H121.291V99.168H115.351V100.176H117.691V101.052C117.691 101.54 117.623 102.028 117.487 102.516C117.359 103.004 117.175 103.464 116.935 103.896C116.695 104.328 116.403 104.716 116.059 105.06C115.723 105.404 115.347 105.676 114.931 105.876L115.663 106.86C116.295 106.524 116.839 106.052 117.295 105.444C117.751 104.828 118.099 104.132 118.339 103.356C118.579 104.084 118.923 104.736 119.371 105.312C119.819 105.888 120.355 106.328 120.979 106.632L121.699 105.66C121.283 105.468 120.903 105.208 120.559 104.88C120.223 104.544 119.935 104.168 119.695 103.752C119.455 103.336 119.267 102.896 119.131 102.432C119.003 101.968 118.939 101.508 118.939 101.052ZM135.306 102.564H133.806C133.942 101.916 134.022 101.344 134.046 100.848C134.07 100.352 134.082 99.888 134.082 99.456V98.616H126.726V99.624H132.87C132.87 100.032 132.854 100.472 132.822 100.944C132.79 101.416 132.706 101.956 132.57 102.564H125.49V103.572H135.306V102.564ZM126.678 104.88V108.792H134.082V104.88H126.678ZM127.89 107.808V105.864H132.87V107.808H127.89ZM144.869 98.064H143.621V108.948H144.869V98.064ZM137.789 105.348V103.068H141.569V99.048H136.517V100.056H140.321V102.072H136.541V106.368H137.465C138.417 106.368 139.321 106.344 140.177 106.296C141.033 106.248 141.925 106.144 142.853 105.984L142.721 104.976C141.865 105.112 141.041 105.208 140.249 105.264C139.465 105.312 138.645 105.34 137.789 105.348Z" fill="white"/>
<path d="M108.428 132.172H113.706V137.814H117.138V120.29H113.706V123.618H108.376C107.787 123.011 107.093 122.543 106.296 122.214C105.516 121.885 104.658 121.72 103.722 121.72C102.838 121.72 102.015 121.876 101.252 122.188C100.489 122.5 99.822 122.933 99.25 123.488C98.678 124.025 98.2273 124.675 97.898 125.438C97.586 126.201 97.43 127.024 97.43 127.908C97.43 128.809 97.586 129.641 97.898 130.404C98.2273 131.149 98.678 131.799 99.25 132.354C99.822 132.909 100.489 133.342 101.252 133.654C102.015 133.966 102.838 134.122 103.722 134.122C104.658 134.122 105.525 133.949 106.322 133.602C107.137 133.255 107.839 132.779 108.428 132.172ZM100.68 127.908C100.68 126.92 100.966 126.14 101.538 125.568C102.11 124.996 102.838 124.71 103.722 124.71C104.606 124.71 105.334 124.996 105.906 125.568C106.495 126.14 106.79 126.92 106.79 127.908C106.79 128.913 106.495 129.702 105.906 130.274C105.334 130.846 104.606 131.132 103.722 131.132C102.838 131.132 102.11 130.846 101.538 130.274C100.966 129.702 100.68 128.913 100.68 127.908ZM109.858 126.348H113.706V129.442H109.858C109.979 129.095 110.04 128.584 110.04 127.908C110.04 127.631 110.023 127.362 109.988 127.102C109.953 126.842 109.91 126.591 109.858 126.348ZM117.684 143.82V141.09H104.788V136.098H101.356V143.82H117.684ZM131.009 142.494C132.031 142.494 132.967 142.355 133.817 142.078C134.666 141.818 135.394 141.445 136.001 140.96C136.607 140.457 137.075 139.851 137.405 139.14C137.751 138.412 137.925 137.597 137.925 136.696C137.925 135.587 137.665 134.616 137.145 133.784C136.625 132.952 135.793 132.311 134.649 131.86C135.498 131.427 136.148 130.837 136.599 130.092C137.067 129.347 137.301 128.506 137.301 127.57C137.301 126.773 137.145 126.045 136.833 125.386C136.521 124.727 136.087 124.164 135.533 123.696C134.978 123.228 134.311 122.864 133.531 122.604C132.768 122.344 131.927 122.214 131.009 122.214C130.107 122.214 129.275 122.344 128.513 122.604C127.75 122.864 127.091 123.228 126.537 123.696C125.999 124.164 125.575 124.727 125.263 125.386C124.951 126.045 124.795 126.773 124.795 127.57C124.795 128.506 125.02 129.347 125.471 130.092C125.921 130.82 126.563 131.409 127.395 131.86C126.251 132.311 125.419 132.952 124.899 133.784C124.379 134.616 124.119 135.587 124.119 136.696C124.119 137.597 124.283 138.412 124.613 139.14C124.959 139.851 125.436 140.457 126.043 140.96C126.649 141.445 127.377 141.818 128.227 142.078C129.076 142.355 130.003 142.494 131.009 142.494ZM131.009 130.586C130.506 130.586 130.073 130.499 129.709 130.326C129.362 130.135 129.076 129.901 128.851 129.624C128.643 129.329 128.487 129.009 128.383 128.662C128.279 128.298 128.227 127.951 128.227 127.622C128.227 126.877 128.452 126.253 128.903 125.75C129.371 125.23 130.073 124.97 131.009 124.97C131.945 124.97 132.647 125.23 133.115 125.75C133.6 126.253 133.843 126.877 133.843 127.622C133.843 127.951 133.791 128.298 133.687 128.662C133.583 129.009 133.418 129.329 133.193 129.624C132.967 129.901 132.673 130.135 132.309 130.326C131.945 130.499 131.511 130.586 131.009 130.586ZM131.009 139.634C129.969 139.634 129.163 139.365 128.591 138.828C128.019 138.273 127.733 137.545 127.733 136.644C127.733 135.604 128.027 134.807 128.617 134.252C129.206 133.68 130.003 133.394 131.009 133.394C132.014 133.394 132.82 133.68 133.427 134.252C134.051 134.807 134.363 135.604 134.363 136.644C134.363 137.545 134.059 138.273 133.453 138.828C132.863 139.365 132.049 139.634 131.009 139.634ZM139.087 142.364H142.883V138.672H139.087V142.364ZM150.017 134.226C150.485 134.226 150.927 134.191 151.343 134.122C151.776 134.053 152.184 133.905 152.565 133.68L153.111 133.368L152.825 133.654C152.669 133.81 152.47 134.018 152.227 134.278L146.611 142H150.771L155.061 135.474C155.373 134.989 155.685 134.477 155.997 133.94C156.326 133.403 156.621 132.848 156.881 132.276C157.158 131.687 157.375 131.097 157.531 130.508C157.704 129.901 157.791 129.295 157.791 128.688C157.791 127.735 157.635 126.859 157.323 126.062C157.028 125.265 156.595 124.58 156.023 124.008C155.468 123.436 154.784 122.994 153.969 122.682C153.172 122.353 152.27 122.188 151.265 122.188C150.277 122.188 149.367 122.361 148.535 122.708C147.72 123.037 147.018 123.488 146.429 124.06C145.84 124.632 145.38 125.308 145.051 126.088C144.722 126.868 144.557 127.7 144.557 128.584C144.557 129.52 144.713 130.343 145.025 131.054C145.337 131.747 145.744 132.337 146.247 132.822C146.767 133.29 147.348 133.645 147.989 133.888C148.648 134.113 149.324 134.226 150.017 134.226ZM154.437 128.35C154.437 129.286 154.16 130.04 153.605 130.612C153.05 131.167 152.244 131.444 151.187 131.444C150.182 131.444 149.41 131.193 148.873 130.69C148.336 130.17 148.067 129.381 148.067 128.324C148.067 127.371 148.344 126.599 148.899 126.01C149.454 125.403 150.225 125.1 151.213 125.1C152.166 125.1 152.938 125.386 153.527 125.958C154.134 126.513 154.437 127.31 154.437 128.35ZM158.433 127.206V127.44C158.433 128.185 158.546 128.853 158.771 129.442C158.997 130.014 159.317 130.491 159.733 130.872C160.149 131.253 160.643 131.548 161.215 131.756C161.787 131.947 162.411 132.042 163.087 132.042C163.763 132.042 164.387 131.947 164.959 131.756C165.549 131.548 166.051 131.245 166.467 130.846C166.901 130.447 167.239 129.962 167.481 129.39C167.724 128.801 167.845 128.125 167.845 127.362V127.024C167.845 126.279 167.724 125.629 167.481 125.074C167.239 124.502 166.901 124.025 166.467 123.644C166.051 123.263 165.549 122.977 164.959 122.786C164.387 122.595 163.763 122.5 163.087 122.5C162.411 122.5 161.787 122.604 161.215 122.812C160.643 123.02 160.149 123.323 159.733 123.722C159.317 124.121 158.997 124.615 158.771 125.204C158.546 125.776 158.433 126.443 158.433 127.206ZM176.737 122.63H173.669L161.059 142H164.257L176.737 122.63ZM164.959 127.076L164.933 127.414C164.933 128.35 164.786 129.017 164.491 129.416C164.214 129.797 163.746 129.988 163.087 129.988C162.429 129.988 161.943 129.797 161.631 129.416C161.337 129.017 161.189 128.35 161.189 127.414L161.215 126.972C161.215 126.088 161.38 125.455 161.709 125.074C162.039 124.693 162.524 124.502 163.165 124.502C163.755 124.502 164.197 124.701 164.491 125.1C164.803 125.481 164.959 126.14 164.959 127.076ZM170.497 136.8V137.034C170.497 138.542 170.922 139.686 171.771 140.466C172.638 141.229 173.756 141.61 175.125 141.61C175.801 141.61 176.425 141.515 176.997 141.324C177.569 141.116 178.063 140.813 178.479 140.414C178.913 140.015 179.251 139.53 179.493 138.958C179.736 138.369 179.857 137.701 179.857 136.956V136.618C179.857 135.873 179.736 135.223 179.493 134.668C179.251 134.096 178.913 133.628 178.479 133.264C178.063 132.883 177.569 132.597 176.997 132.406C176.425 132.215 175.801 132.12 175.125 132.12C173.756 132.12 172.638 132.519 171.771 133.316C170.922 134.113 170.497 135.275 170.497 136.8ZM176.997 136.67L176.971 137.008C176.971 137.944 176.824 138.603 176.529 138.984C176.252 139.365 175.784 139.556 175.125 139.556C174.467 139.556 173.981 139.365 173.669 138.984C173.375 138.603 173.227 137.944 173.227 137.008L173.253 136.566C173.253 135.682 173.418 135.058 173.747 134.694C174.077 134.313 174.562 134.122 175.203 134.122C175.793 134.122 176.235 134.313 176.529 134.694C176.841 135.075 176.997 135.734 176.997 136.67Z" fill="black"/>
<path d="M22.26 22.38V3.9H19.376V22.38H22.26ZM15.26 18.404L16.744 16.108C15.7733 15.772 14.9053 15.324 14.14 14.764C13.3933 14.1853 12.7587 13.532 12.236 12.804C11.7133 12.0573 11.312 11.264 11.032 10.424C10.7707 9.56533 10.64 8.688 10.64 7.792V5.272H7.7V7.792C7.7 8.72533 7.56 9.64 7.28 10.536C7.01867 11.4133 6.62667 12.2347 6.104 13C5.58133 13.7653 4.928 14.456 4.144 15.072C3.37867 15.688 2.50133 16.1827 1.512 16.556L2.996 18.88C4.508 18.32 5.77733 17.4987 6.804 16.416C7.83067 15.3147 8.63333 14.0547 9.212 12.636C9.75333 13.98 10.528 15.1467 11.536 16.136C12.5627 17.1067 13.804 17.8627 15.26 18.404ZM22.988 26.328H8.652V20.644H5.74V28.68H22.988V26.328ZM39.5058 18.208L40.8498 15.996C39.8791 15.716 39.0111 15.3427 38.2458 14.876C37.4991 14.4093 36.8551 13.8773 36.3138 13.28C35.7911 12.6827 35.3898 12.048 35.1098 11.376C34.8298 10.6853 34.6898 9.976 34.6898 9.248V9.024H40.0098V6.728H34.7178V3.732H31.8058V6.728H26.4858V9.024H31.8058V9.248C31.8058 10.032 31.6658 10.8067 31.3858 11.572C31.1245 12.3187 30.7325 13.0187 30.2098 13.672C29.7058 14.3067 29.0711 14.8853 28.3058 15.408C27.5591 15.912 26.7005 16.3133 25.7298 16.612L27.1298 18.852C28.6418 18.3853 29.9111 17.6853 30.9378 16.752C31.9831 15.8187 32.7858 14.708 33.3458 13.42C33.9245 14.54 34.7271 15.52 35.7538 16.36C36.7991 17.1813 38.0498 17.7973 39.5058 18.208ZM43.8458 10.844H39.2818V13.224H43.8458V19.16H46.7298V3.844H43.8458V10.844ZM38.3018 19.72C35.6511 19.72 33.5698 20.1307 32.0578 20.952C30.5458 21.7547 29.7898 22.912 29.7898 24.424C29.7898 25.1707 29.9858 25.8427 30.3778 26.44C30.7698 27.0187 31.3298 27.504 32.0578 27.896C32.7858 28.3067 33.6725 28.6147 34.7178 28.82C35.7818 29.044 36.9765 29.156 38.3018 29.156C39.6271 29.156 40.8125 29.044 41.8578 28.82C42.9218 28.6147 43.8178 28.3067 44.5458 27.896C45.2925 27.504 45.8618 27.0187 46.2538 26.44C46.6458 25.8427 46.8418 25.1707 46.8418 24.424C46.8418 23.6773 46.6458 23.0147 46.2538 22.436C45.8618 21.8573 45.2925 21.372 44.5458 20.98C43.8178 20.5693 42.9218 20.2613 41.8578 20.056C40.8125 19.832 39.6271 19.72 38.3018 19.72ZM38.3018 26.916C36.4911 26.916 35.1005 26.7013 34.1298 26.272C33.1591 25.8427 32.6738 25.2267 32.6738 24.424C32.6738 23.6213 33.1591 23.0147 34.1298 22.604C35.1005 22.1747 36.4911 21.96 38.3018 21.96C40.1125 21.96 41.5031 22.1747 42.4738 22.604C43.4631 23.0147 43.9578 23.6213 43.9578 24.424C43.9578 25.2267 43.4631 25.8427 42.4738 26.272C41.5031 26.7013 40.1125 26.916 38.3018 26.916ZM70.2196 15.912V4.852H67.3356V8.044H55.7716V4.852H52.8876V15.912H70.2196ZM67.3356 10.368V13.588H55.7716V10.368H67.3356ZM73.0476 20.98V18.656H50.1156V20.98H60.0556V29.184H62.9396V20.98H73.0476ZM95.5014 3.816H92.5894V13.112H87.7454V15.492H92.5894V29.184H95.5014V3.816ZM78.5054 20.924V15.464H86.3174V13.168H78.5054V8.436H87.3534V6.056H75.6214V23.276H77.6094C78.7481 23.276 79.8121 23.2667 80.8014 23.248C81.7908 23.2293 82.7428 23.2013 83.6574 23.164C84.5721 23.108 85.4588 23.0333 86.3174 22.94C87.1948 22.828 88.0814 22.688 88.9774 22.52L88.7254 20.196C87.9041 20.3267 87.0921 20.4387 86.2894 20.532C85.5054 20.6253 84.7028 20.7 83.8814 20.756C83.0601 20.812 82.2108 20.8587 81.3334 20.896C80.4561 20.9147 79.5134 20.924 78.5054 20.924ZM124.161 14.148L125.253 11.88C124.002 11.712 122.845 11.4227 121.781 11.012C120.717 10.5827 119.802 10.0787 119.037 9.5C118.272 8.90267 117.674 8.24 117.245 7.512C116.816 6.784 116.601 6.028 116.601 5.244V4.292H113.633V5.244C113.633 6.028 113.418 6.784 112.989 7.512C112.56 8.24 111.953 8.90267 111.169 9.5C110.404 10.0787 109.489 10.5827 108.425 11.012C107.38 11.4227 106.232 11.712 104.981 11.88L106.045 14.148C108.136 13.8307 109.965 13.2147 111.533 12.3C113.101 11.3853 114.286 10.256 115.089 8.912C115.929 10.2747 117.142 11.4133 118.729 12.328C120.316 13.224 122.126 13.8307 124.161 14.148ZM126.569 16.192H116.545V12.748H113.661V16.192H103.693V18.516H126.569V16.192ZM115.089 20.308C112.289 20.308 110.133 20.6907 108.621 21.456C107.128 22.2213 106.381 23.3133 106.381 24.732C106.381 26.1507 107.128 27.2427 108.621 28.008C110.133 28.7733 112.289 29.156 115.089 29.156C117.908 29.156 120.064 28.7733 121.557 28.008C123.05 27.2427 123.797 26.1507 123.797 24.732C123.797 23.3133 123.05 22.2213 121.557 21.456C120.064 20.6907 117.908 20.308 115.089 20.308ZM115.089 26.944C113.222 26.944 111.794 26.7573 110.805 26.384C109.816 26.0107 109.321 25.46 109.321 24.732C109.321 24.004 109.816 23.4533 110.805 23.08C111.794 22.688 113.222 22.492 115.089 22.492C116.956 22.492 118.384 22.688 119.373 23.08C120.381 23.4533 120.885 24.004 120.885 24.732C120.885 25.46 120.381 26.0107 119.373 26.384C118.384 26.7573 116.956 26.944 115.089 26.944ZM150.983 14.316H147.483C147.8 12.804 147.987 11.4693 148.043 10.312C148.099 9.15467 148.127 8.072 148.127 7.064V5.104H130.963V7.456H145.299C145.299 8.408 145.261 9.43467 145.187 10.536C145.112 11.6373 144.916 12.8973 144.599 14.316H128.079V16.668H150.983V14.316ZM130.851 19.72V28.848H148.127V19.72H130.851ZM133.679 26.552V22.016H145.299V26.552H133.679ZM175.985 16.444V14.064H172.401V3.872H169.517V29.128H172.401V16.444H175.985ZM159.941 6.532H153.109V8.912H157.225C157.169 10.1813 157.038 11.404 156.833 12.58C156.646 13.7373 156.347 14.8573 155.937 15.94C155.545 17.004 155.031 18.0493 154.397 19.076C153.781 20.084 153.025 21.064 152.129 22.016L154.425 23.612C155.545 22.38 156.459 21.1013 157.169 19.776C157.897 18.4507 158.457 17.0787 158.849 15.66C159.259 14.2413 159.539 12.776 159.689 11.264C159.857 9.73333 159.941 8.156 159.941 6.532ZM166.885 6.532H160.809V8.912H164.169C164.113 10.2747 163.991 11.6093 163.805 12.916C163.637 14.204 163.366 15.464 162.993 16.696C162.638 17.928 162.162 19.1227 161.565 20.28C160.967 21.4373 160.211 22.5667 159.297 23.668L161.621 25.292C162.741 23.9107 163.646 22.4733 164.337 20.98C165.027 19.468 165.559 17.9187 165.933 16.332C166.306 14.7453 166.558 13.1307 166.689 11.488C166.819 9.84533 166.885 8.19333 166.885 6.532ZM197.598 3.872H194.686V29.156H197.598V3.872ZM186.118 11.18V8.772H191.746V6.392H177.578V8.772H183.206V11.18C183.206 12.244 183.048 13.3267 182.73 14.428C182.432 15.5293 181.993 16.5747 181.414 17.564C180.836 18.5347 180.145 19.412 179.342 20.196C178.558 20.98 177.672 21.596 176.682 22.044L178.334 24.34C179.081 23.9853 179.772 23.5373 180.406 22.996C181.06 22.4547 181.657 21.8387 182.198 21.148C182.74 20.4573 183.216 19.7107 183.626 18.908C184.056 18.1053 184.41 17.2653 184.69 16.388C185.288 18.0307 186.128 19.496 187.21 20.784C188.312 22.072 189.6 23.0427 191.074 23.696L192.67 21.428C191.681 20.9987 190.785 20.42 189.982 19.692C189.18 18.964 188.489 18.152 187.91 17.256C187.332 16.3413 186.884 15.3707 186.566 14.344C186.268 13.2987 186.118 12.244 186.118 11.18Z" fill="black"/>
<path d="M1.68 47.632H16.408V46.4H9.8V43.124H8.316V46.4H1.68V47.632ZM24.64 52.896V51.636H20.748V43.124H19.264V61.8H20.748V52.896H24.64ZM14.896 53.848C14.896 51.076 12.544 49.284 9.044 49.284C5.516 49.284 3.164 51.076 3.164 53.848C3.164 56.62 5.516 58.384 9.044 58.384C12.544 58.384 14.896 56.62 14.896 53.848ZM4.564 53.848C4.564 51.832 6.356 50.488 9.044 50.488C11.732 50.488 13.496 51.832 13.496 53.848C13.496 55.78 11.704 57.18 9.044 57.18C6.356 57.18 4.564 55.78 4.564 53.848ZM21.98 66.084H7.056V60.26H5.572V67.344H21.98V66.084ZM27.2978 57.096H38.1898V51.608H44.7138V61.548H46.1978V43.124H44.7138V50.348H38.1898V44.748H36.7338V49.508H28.7818V44.748H27.2978V57.096ZM28.7818 50.74H36.7338V55.836H28.7818V50.74ZM46.8138 67.344V66.084H32.0018V59.756H30.5178V67.344H46.8138ZM71.3116 67.96V43.068H69.8836V67.96H71.3116ZM66.4396 43.684H65.0116V53.064H61.1756C60.9516 48.36 58.9636 45.336 55.9116 45.336C52.7756 45.336 50.6756 48.612 50.6756 53.764C50.6756 58.916 52.7756 62.192 55.9116 62.192C58.9916 62.192 61.0356 59.168 61.1756 54.324H65.0116V66.616H66.4396V43.684ZM55.9116 60.848C53.5876 60.848 52.0476 57.936 52.0476 53.764C52.0476 49.62 53.5876 46.68 55.9116 46.68C58.2356 46.68 59.7756 49.62 59.7756 53.764C59.7756 57.936 58.2356 60.848 55.9116 60.848ZM76.4334 62.444H74.8094L73.6334 67.96H74.8094L76.4334 62.444ZM106.206 52.28V50.992H102.286V43.096H100.802V61.52H102.286V52.28H106.206ZM95.6504 45.056H84.2824V46.316H94.0544C93.6904 51.272 89.3784 55.136 83.3304 57.152L83.9744 58.384C90.9184 56.06 95.6504 51.3 95.6504 45.056ZM103.546 66.084H88.6224V59.616H87.1384V67.344H103.546V66.084ZM121.436 53.876H126.28V61.716H127.764V43.068H126.28V47.996H121.436V49.256H126.28V52.644H121.436V53.876ZM122.528 56.648L122.444 55.5C121.212 55.696 119.924 55.78 118.608 55.864V46.484H121.408V45.224H108.332V46.484H111.076V56.116C109.844 56.144 108.696 56.144 107.604 56.144L107.828 57.46C111.972 57.46 117.6 57.404 122.528 56.648ZM112.532 56.088V46.484H117.152V55.92C115.584 56.032 114.1 56.06 112.532 56.088ZM128.492 67.344V66.084H113.652V60.092H112.168V67.344H128.492ZM150.778 54.884H155.146V53.624H150.778V43.068H149.294V67.932H150.778V54.884ZM146.494 47.212H139.97V43.32H138.486V47.212H131.71V48.472H146.494V47.212ZM139.27 50.936C135.798 50.936 133.362 53.288 133.362 56.536C133.362 59.812 135.798 62.108 139.27 62.108C142.742 62.108 145.178 59.812 145.178 56.536C145.178 53.288 142.742 50.936 139.27 50.936ZM139.27 60.848C136.666 60.848 134.762 58.972 134.762 56.536C134.762 54.072 136.666 52.224 139.27 52.224C141.874 52.224 143.778 54.072 143.778 56.536C143.778 58.972 141.874 60.848 139.27 60.848ZM177.208 67.96V43.096H175.78V67.96H177.208ZM172.028 43.796H170.6V53.624H165.308C166.288 51.3 166.792 48.892 166.792 46.372H157.3V47.632H165.336C165 53.036 162.088 57.964 156.404 61.352L157.356 62.472C160.828 60.344 163.152 57.768 164.72 54.856H170.6V66.588H172.028V43.796ZM183.674 45.224H181.994L182.246 61.296H183.45L183.674 45.224ZM183.646 64.572H182.022V66.364H183.646V64.572Z" fill="black"/>
</svg>
