<svg width="248" height="346" viewBox="0 0 248 346" fill="none" xmlns="http://www.w3.org/2000/svg">
<path d="M61.6257 275.9C67.9434 272.596 71.9038 267.697 70.4715 264.959C69.0393 262.22 62.7567 262.678 56.4391 265.982C50.1215 269.286 46.1611 274.184 47.5933 276.923C49.0256 279.662 55.3081 279.204 61.6257 275.9Z" fill="white" stroke="#242D3C" stroke-linecap="round" stroke-linejoin="round"/>
<path d="M70.472 264.959L72.2346 268.329C73.6678 271.07 69.7069 275.971 63.3908 279.274C57.0747 282.577 50.7896 283.034 49.3564 280.294L47.5938 276.923C49.0269 279.664 55.3101 279.203 61.6262 275.9C67.9423 272.597 71.9051 267.699 70.472 264.959Z" fill="white" stroke="#242D3C" stroke-linecap="round" stroke-linejoin="round"/>
<path d="M49.3105 275.204C49.3105 275.204 50.869 269.731 62.1828 265.552" stroke="#242D3C" stroke-width="0.5" stroke-linecap="round" stroke-linejoin="round"/>
<path d="M132.049 188.036C137.118 183.023 139.466 177.178 137.293 174.98C135.12 172.782 129.249 175.064 124.179 180.077C119.11 185.09 116.762 190.935 118.935 193.133C121.108 195.331 126.979 193.048 132.049 188.036Z" fill="white" stroke="#242D3C" stroke-linecap="round" stroke-linejoin="round"/>
<path d="M137.295 174.98L139.969 177.685C142.144 179.884 139.796 185.732 134.728 190.744C129.66 195.755 123.785 198.037 121.611 195.838L118.937 193.133C121.111 195.332 126.982 193.048 132.05 188.036C137.119 183.024 139.469 177.179 137.295 174.98Z" fill="white" stroke="#242D3C" stroke-linecap="round" stroke-linejoin="round"/>
<path d="M120.072 190.986C120.072 190.986 119.955 185.296 129.544 177.981" stroke="#242D3C" stroke-width="0.5" stroke-linecap="round" stroke-linejoin="round"/>
<rect x="71" y="194.999" width="68.9999" height="110" rx="34.5" stroke="#D7191F" stroke-width="28"/>
<path d="M182.337 200.871C187.797 205.455 193.835 207.251 195.822 204.884C197.809 202.517 194.993 196.882 189.532 192.299C184.071 187.715 178.034 185.918 176.047 188.286C174.06 190.653 176.876 196.288 182.337 200.871Z" fill="white" stroke="#242D3C" stroke-linecap="round" stroke-linejoin="round"/>
<path d="M195.822 204.885L193.377 207.798C191.389 210.167 185.349 208.371 179.889 203.788C174.43 199.206 171.614 193.568 173.602 191.2L176.047 188.286C174.059 190.655 176.878 196.289 182.337 200.872C187.797 205.454 193.834 207.253 195.822 204.885Z" fill="white" stroke="#242D3C" stroke-linecap="round" stroke-linejoin="round"/>
<path d="M178.29 189.219C178.29 189.219 183.945 188.576 192.117 197.446" stroke="#242D3C" stroke-width="0.5" stroke-linecap="round" stroke-linejoin="round"/>
<path d="M39.0833 212.147C45.2576 215.711 51.5155 216.431 53.0608 213.755C54.6061 211.078 50.8537 206.019 44.6794 202.454C38.5052 198.889 32.2473 198.169 30.702 200.846C29.1566 203.522 32.9091 208.582 39.0833 212.147Z" fill="white" stroke="#242D3C" stroke-linecap="round" stroke-linejoin="round"/>
<path d="M53.0613 213.755L51.1594 217.049C49.6131 219.727 43.3526 219.008 37.1798 215.444C31.0071 211.88 27.2543 206.818 28.8006 204.14L30.7024 200.846C29.1561 203.524 32.911 208.583 39.0838 212.147C45.2565 215.71 51.515 216.433 53.0613 213.755Z" fill="white" stroke="#242D3C" stroke-linecap="round" stroke-linejoin="round"/>
<path d="M33.0736 201.375C33.0736 201.375 38.5299 199.759 48.1195 207.073" stroke="#242D3C" stroke-width="0.5" stroke-linecap="round" stroke-linejoin="round"/>
<path d="M130.118 265.837C137.06 264.213 142.117 260.458 141.414 257.448C140.71 254.439 134.512 253.315 127.57 254.938C120.628 256.561 115.57 260.317 116.274 263.326C116.978 266.336 123.176 267.46 130.118 265.837Z" fill="white" stroke="#242D3C" stroke-linecap="round" stroke-linejoin="round"/>
<path d="M141.415 257.448L142.281 261.152C142.985 264.164 137.926 267.922 130.986 269.544C124.045 271.167 117.845 270.041 117.141 267.03L116.275 263.326C116.979 266.338 123.178 267.459 130.119 265.836C137.059 264.214 142.119 260.46 141.415 257.448Z" fill="white" stroke="#242D3C" stroke-linecap="round" stroke-linejoin="round"/>
<path d="M118.366 262.09C118.366 262.09 121.24 257.179 133.239 255.955" stroke="#242D3C" stroke-width="0.5" stroke-linecap="round" stroke-linejoin="round"/>
<path d="M78.8504 297.47C78.8504 298.282 78.505 299.061 77.8726 299.776C77.1039 300.652 75.9072 301.44 74.3894 302.087C71.6991 303.235 68.0019 303.945 63.9252 303.945C59.8485 303.945 56.1512 303.235 53.461 302.087C51.9432 301.44 50.7465 300.652 49.9778 299.776C49.3454 299.061 49 298.282 49 297.47C49 293.899 55.6842 291 63.9252 291C72.1662 291 78.8504 293.899 78.8504 297.47Z" fill="white" stroke="#242D3C" stroke-linecap="round" stroke-linejoin="round"/>
<path d="M78.8504 297.47V302.081C78.8504 302.894 78.505 303.672 77.8726 304.387C77.1039 305.263 75.9072 306.046 74.3942 306.693C71.704 307.841 68.0068 308.552 63.9252 308.552C59.8436 308.552 56.1464 307.841 53.4562 306.693C51.9432 306.046 50.7465 305.263 49.9778 304.387C49.3454 303.672 49 302.894 49 302.081V297.47C49 298.282 49.3454 299.06 49.9778 299.776C50.7465 300.651 51.9432 301.439 53.461 302.086C56.1512 303.234 59.8485 303.945 63.9252 303.945C68.0019 303.945 71.6991 303.234 74.3894 302.086C75.9072 301.439 77.1039 300.651 77.8726 299.776C78.505 299.06 78.8504 298.282 78.8504 297.47Z" fill="white" stroke="#242D3C" stroke-linecap="round" stroke-linejoin="round"/>
<path d="M78.8504 302.081V306.693C78.8504 307.505 78.505 308.284 77.8726 308.999C77.1039 309.875 75.9072 310.658 74.3942 311.305C71.704 312.453 68.0068 313.163 63.9252 313.163C59.8436 313.163 56.1464 312.453 53.4562 311.305C51.9432 310.658 50.7465 309.875 49.9778 308.999C49.3454 308.284 49 307.505 49 306.693V302.081C49 302.894 49.3454 303.672 49.9778 304.387C50.7465 305.263 51.9432 306.046 53.4562 306.693C56.1464 307.841 59.8436 308.551 63.9252 308.551C68.0068 308.551 71.704 307.841 74.3942 306.693C75.9072 306.046 77.1039 305.263 77.8726 304.387C78.505 303.672 78.8504 302.894 78.8504 302.081Z" fill="white" stroke="#242D3C" stroke-linecap="round" stroke-linejoin="round"/>
<path d="M78.8504 306.693V311.305C78.8504 312.118 78.505 312.896 77.8726 313.611C77.1039 314.487 75.9072 315.27 74.3942 315.917C71.704 317.065 68.0068 317.775 63.9252 317.775C59.8436 317.775 56.1464 317.065 53.4562 315.917C51.9432 315.27 50.7465 314.487 49.9778 313.611C49.3454 312.896 49 312.118 49 311.305V306.693C49 307.506 49.3454 308.284 49.9778 308.999C50.7465 309.875 51.9432 310.658 53.4562 311.305C56.1464 312.453 59.8436 313.164 63.9252 313.164C68.0068 313.164 71.704 312.453 74.3942 311.305C75.9072 310.658 77.1039 309.875 77.8726 308.999C78.505 308.284 78.8504 307.506 78.8504 306.693Z" fill="white" stroke="#242D3C" stroke-linecap="round" stroke-linejoin="round"/>
<path d="M78.8504 311.305V315.917C78.8504 316.73 78.505 317.508 77.8726 318.223C77.0991 319.099 75.9023 319.882 74.3894 320.529C71.6991 321.677 68.0019 322.387 63.9252 322.387C59.8485 322.387 56.1512 321.677 53.461 320.529C51.9481 319.882 50.7513 319.099 49.9778 318.223C49.3454 317.508 49 316.73 49 315.917V311.305C49 312.118 49.3454 312.896 49.9778 313.611C50.7465 314.487 51.9432 315.27 53.4562 315.917C56.1464 317.065 59.8436 317.776 63.9252 317.776C68.0068 317.776 71.704 317.065 74.3942 315.917C75.9072 315.27 77.1039 314.487 77.8726 313.611C78.505 312.896 78.8504 312.118 78.8504 311.305Z" fill="white" stroke="#242D3C" stroke-linecap="round" stroke-linejoin="round"/>
<path d="M78.8504 315.918V320.53C78.8504 321.342 78.505 322.12 77.8726 322.835C77.0991 323.711 75.9023 324.494 74.3894 325.141C71.6991 326.289 68.0019 327 63.9252 327C59.8485 327 56.1512 326.289 53.461 325.141C51.9481 324.494 50.7513 323.711 49.9778 322.835C49.3454 322.12 49 321.342 49 320.53V315.918C49 316.73 49.3454 317.509 49.9778 318.224C50.7513 319.099 51.9481 319.883 53.461 320.53C56.1512 321.678 59.8485 322.388 63.9252 322.388C68.0019 322.388 71.6991 321.678 74.3894 320.53C75.9023 319.883 77.0991 319.099 77.8726 318.224C78.505 317.509 78.8504 316.73 78.8504 315.918Z" fill="white" stroke="#242D3C" stroke-linecap="round" stroke-linejoin="round"/>
<path d="M52.502 295.499C55.6686 293.832 64.2019 291.299 73.0019 294.499" stroke="#242D3C" stroke-width="0.5" stroke-linecap="round" stroke-linejoin="round"/>
<path d="M99.8504 309.469C99.8504 310.282 99.505 311.06 98.8726 311.775C98.1039 312.651 96.9072 313.439 95.3894 314.086C92.6991 315.234 89.0019 315.944 84.9252 315.944C80.8485 315.944 77.1512 315.234 74.461 314.086C72.9432 313.439 71.7465 312.651 70.9778 311.775C70.3454 311.06 70 310.282 70 309.469C70 305.899 76.6842 302.999 84.9252 302.999C93.1662 302.999 99.8504 305.899 99.8504 309.469Z" fill="white" stroke="#242D3C" stroke-linecap="round" stroke-linejoin="round"/>
<path d="M99.8504 309.468V314.08C99.8504 314.893 99.505 315.671 98.8726 316.386C98.1039 317.262 96.9072 318.045 95.3942 318.692C92.704 319.84 89.0068 320.55 84.9252 320.55C80.8436 320.55 77.1464 319.84 74.4562 318.692C72.9432 318.045 71.7465 317.262 70.9778 316.386C70.3454 315.671 70 314.893 70 314.08V309.468C70 310.281 70.3454 311.059 70.9778 311.774C71.7465 312.65 72.9432 313.438 74.461 314.085C77.1512 315.233 80.8485 315.943 84.9252 315.943C89.0019 315.943 92.6991 315.233 95.3894 314.085C96.9072 313.438 98.1039 312.65 98.8726 311.774C99.505 311.059 99.8504 310.281 99.8504 309.468Z" fill="white" stroke="#242D3C" stroke-linecap="round" stroke-linejoin="round"/>
<path d="M99.8504 314.081V318.693C99.8504 319.505 99.505 320.283 98.8726 320.999C98.1039 321.874 96.9072 322.657 95.3942 323.304C92.704 324.453 89.0068 325.163 84.9252 325.163C80.8436 325.163 77.1464 324.453 74.4562 323.304C72.9432 322.657 71.7465 321.874 70.9778 320.999C70.3454 320.283 70 319.505 70 318.693V314.081C70 314.893 70.3454 315.672 70.9778 316.387C71.7465 317.262 72.9432 318.046 74.4562 318.693C77.1464 319.841 80.8436 320.551 84.9252 320.551C89.0068 320.551 92.704 319.841 95.3942 318.693C96.9072 318.046 98.1039 317.262 98.8726 316.387C99.505 315.672 99.8504 314.893 99.8504 314.081Z" fill="white" stroke="#242D3C" stroke-linecap="round" stroke-linejoin="round"/>
<path d="M99.8504 318.693V323.305C99.8504 324.117 99.505 324.896 98.8726 325.611C98.1039 326.487 96.9072 327.27 95.3942 327.917C92.704 329.065 89.0068 329.775 84.9252 329.775C80.8436 329.775 77.1464 329.065 74.4562 327.917C72.9432 327.27 71.7465 326.487 70.9778 325.611C70.3454 324.896 70 324.117 70 323.305V318.693C70 319.506 70.3454 320.284 70.9778 320.999C71.7465 321.875 72.9432 322.658 74.4562 323.305C77.1464 324.453 80.8436 325.163 84.9252 325.163C89.0068 325.163 92.704 324.453 95.3942 323.305C96.9072 322.658 98.1039 321.875 98.8726 320.999C99.505 320.284 99.8504 319.506 99.8504 318.693Z" fill="white" stroke="#242D3C" stroke-linecap="round" stroke-linejoin="round"/>
<path d="M99.8504 323.305V327.917C99.8504 328.729 99.505 329.508 98.8726 330.223C98.0991 331.098 96.9023 331.882 95.3894 332.529C92.6991 333.677 89.0019 334.387 84.9252 334.387C80.8485 334.387 77.1512 333.677 74.461 332.529C72.9481 331.882 71.7513 331.098 70.9778 330.223C70.3454 329.508 70 328.729 70 327.917V323.305C70 324.117 70.3454 324.896 70.9778 325.611C71.7465 326.487 72.9432 327.27 74.4562 327.917C77.1464 329.065 80.8436 329.775 84.9252 329.775C89.0068 329.775 92.704 329.065 95.3942 327.917C96.9072 327.27 98.1039 326.487 98.8726 325.611C99.505 324.896 99.8504 324.117 99.8504 323.305Z" fill="white" stroke="#242D3C" stroke-linecap="round" stroke-linejoin="round"/>
<path d="M99.8504 327.917V332.529C99.8504 333.342 99.505 334.12 98.8726 334.835C98.0991 335.711 96.9023 336.494 95.3894 337.141C92.6991 338.289 89.0019 338.999 84.9252 338.999C80.8485 338.999 77.1512 338.289 74.461 337.141C72.9481 336.494 71.7513 335.711 70.9778 334.835C70.3454 334.12 70 333.342 70 332.529V327.917C70 328.73 70.3454 329.508 70.9778 330.223C71.7513 331.099 72.9481 331.882 74.461 332.529C77.1512 333.677 80.8485 334.388 84.9252 334.388C89.0019 334.388 92.6991 333.677 95.3894 332.529C96.9023 331.882 98.0991 331.099 98.8726 330.223C99.505 329.508 99.8504 328.73 99.8504 327.917Z" fill="white" stroke="#242D3C" stroke-linecap="round" stroke-linejoin="round"/>
<path d="M75.4998 306.499C79.4998 304.999 89.4997 302.499 97.4997 308.499" stroke="#242D3C" stroke-width="0.5" stroke-linecap="round" stroke-linejoin="round"/>
<path d="M166 212.499L163.5 214.499L161.5 215.999L159 217.499L160 256.499V263.499L161 268.499L165 275.499L168.5 277.499L179 275.999C180.333 274.166 183.3 270.299 184.5 269.499C185.7 268.699 187.667 265.499 188.5 263.999L200 227.999L202 223.499L203.5 220.999L201.5 218.999L200.5 217.499L200 215.999L198 212.499L198.5 211.999H199.5L200.5 212.999L201.5 213.999L202.5 214.999V211.999L203 209.499L203.5 204.999L204 203.999H204.5L205 204.999V207.499V209.499L205.5 209.999L206 208.999L207 205.999L208 203.999L209 203.499V204.999L208.5 208.499L208 210.499V210.999L209 209.499L210.5 206.999L211.5 205.999H212V206.999L211.5 208.999L210.5 211.499L210 212.499L210.5 211.999L212 209.999L213.5 208.499H214L213.5 210.499L212.5 211.999L211.5 213.499L211 215.499L210.5 216.999L210 218.499L209 219.999L208 221.999L207.5 224.999L206 231.999L203.5 242.499L201.5 251.499L199 261.499L197 267.499L196 271.999L195 277.499L194 289.499V298.999L197.5 306.999L187 317.499L162 320.999L152.5 298.499L152 289.499L151 269.999V258.499L151.5 250.999V247.999L154 218.999V217.499V216.499L153.5 213.999V211.999V208.999V207.999L152.5 206.499L152 204.999V203.999L152.5 203.499L153 203.999L153.5 204.999L154 205.499L154.5 206.999L155.5 207.499L155 205.999V204.999L154.5 203.999V202.999V201.999L155 201.499H155.5L156 202.499L156.5 203.499V204.499L157 205.999L157.5 206.499L158 204.499V202.999V201.999L158.5 200.499L159 199.999H159.5L160 200.999V202.499V205.499L160.5 206.999L161 205.999L162 201.999L162.5 200.999H163V202.499V204.999V206.999L162.5 208.999L162 210.499V211.999L164 211.499L165.5 210.999L167 210.499V211.499L166 212.499Z" fill="white"/>
<path d="M187.028 266.451C173.028 286.451 160.586 274.262 160.088 263.421C160.104 251.351 160.336 224.532 159.173 217.558C160.393 216.996 161.881 216.174 163.008 214.767C164.605 213.736 167.321 211.825 167.018 210.872C166.748 210.019 163.104 211.764 161.775 212.535C162.507 209.33 163.594 202.127 162.886 201.158C161.959 199.887 161.302 204.983 160.586 207.133L159.961 206.816C160.2 204.817 160.154 199.821 159.27 199.682C158.387 199.543 157.984 204.996 157.903 206.945L157.427 207.096C157.081 205.457 155.744 200.801 154.981 201.043C154.219 201.285 155.016 206.112 155.52 207.701L155.044 207.852C154.691 206.74 152.861 203.29 152.099 203.532C151.336 203.774 153.052 207.085 153.614 208.306C153.266 210.514 153.22 213.676 154.276 217.004C153.279 227.637 151.103 252.633 151.078 263.132C151.078 276.344 151.968 304.067 155.52 309.267L195.028 309.267C193.861 302.556 192.242 285.909 197.042 267.762" stroke="#242D3C" stroke-linecap="round" stroke-linejoin="round"/>
<path d="M188.646 263.807C192.267 252.373 200.129 226.909 203.333 220.656C202.346 219.756 201.185 218.529 200.542 216.858C199.341 215.4 197.807 212.71 198.381 211.898C198.894 211.173 201.356 213.985 202.382 215.116C202.655 211.861 202.919 204.603 203.881 203.898C205.143 202.975 205.106 208.107 205.136 210.36L205.823 210.248C206.199 208.282 207.748 203.566 208.627 203.701C209.505 203.835 208.244 209.12 207.733 210.989L208.139 211.276C208.959 209.829 211.232 205.439 211.881 205.898C212.531 206.357 210.717 211.071 209.761 212.424L210.167 212.71C210.836 211.764 213.241 207.929 213.89 208.388C214.539 208.847 212.284 212.585 211.384 213.571C211.048 215.767 210.139 218.775 208.136 221.608C205.876 231.976 200.5 255.999 197.5 265.999" stroke="#242D3C" stroke-linecap="round" stroke-linejoin="round"/>
<path d="M170.3 277.265L184.543 268.999C185.126 273.774 180.043 281.999 170.3 277.265Z" fill="white" stroke="#242D3C" stroke-linecap="round" stroke-linejoin="round"/>
<path d="M170.542 276.999L161.742 267C160.518 271.22 161.742 281.499 170.542 276.999Z" fill="white" stroke="#242D3C" stroke-linecap="round" stroke-linejoin="round"/>
<path d="M208.5 230.499C207.333 230.833 203.9 230.699 199.5 227.499" stroke="#242D3C" stroke-linecap="round" stroke-linejoin="round"/>
<path d="M171.185 270.509C163.285 270.509 158.788 254.063 156.764 245.461L160.938 235.594L185.606 237.112L187.124 248.877C188.642 246.726 191.982 243.716 193.196 248.877C194.411 254.038 188.895 255.834 185.986 256.087C184.341 260.768 181.811 270.509 171.185 270.509Z" fill="white" stroke="#242D3C" stroke-linecap="round" stroke-linejoin="round"/>
<path d="M160.559 245.461C167.01 240.527 174.6 245.082 167.01 257.985" stroke="#242D3C" stroke-linecap="round" stroke-linejoin="round"/>
<circle cx="165.113" cy="250.015" r="1.13852" fill="#242D3C"/>
<circle cx="176.498" cy="250.015" r="1.13852" fill="#242D3C"/>
<path d="M173.082 245.197C174.6 243.679 178.471 241.857 181.811 246.715" stroke="#242D3C" stroke-linecap="round" stroke-linejoin="round"/>
<path d="M167.797 260.363C170.694 260.069 176.029 260.006 174.189 262.115C170.839 265.955 168.1 262.159 167.797 260.363Z" stroke="#242D3C" stroke-linecap="round" stroke-linejoin="round"/>
<path d="M138.074 232.897C138.061 244.331 148.182 247.03 154.952 247.03C162.857 247.03 171.935 237.112 171.935 237.112C171.935 237.112 182.857 234.835 184.754 242.425C185.506 250.482 184.754 251.533 185.893 251.533C187.903 251.533 187.273 246.979 190.911 246.979C192.808 246.979 193.567 248.877 193.567 251.154C194.169 251.005 203.35 245.277 201.924 232.897C200.788 223.03 189.401 222.691 189.401 222.691C189.401 222.691 189.473 214.654 180.2 213.203C169.026 211.453 163.122 221.552 163.122 221.552C149.445 214.431 138.088 221.598 138.074 232.897Z" fill="#242D3C" stroke="#242D3C" stroke-width="1.2" stroke-linecap="round" stroke-linejoin="round"/>
<path d="M161.043 253.499V254.999" stroke="#242D3C" stroke-linecap="round" stroke-linejoin="round"/>
<path d="M162.543 253.499V254.999" stroke="#242D3C" stroke-linecap="round" stroke-linejoin="round"/>
<path d="M178.543 253.499V254.999" stroke="#242D3C" stroke-linecap="round" stroke-linejoin="round"/>
<path d="M180.543 253.499V254.999" stroke="#242D3C" stroke-linecap="round" stroke-linejoin="round"/>
<path d="M161.85 291.47C161.85 292.282 161.505 293.06 160.873 293.775C160.104 294.651 158.907 295.439 157.389 296.086C154.699 297.234 151.002 297.945 146.925 297.945C142.848 297.945 139.151 297.234 136.461 296.086C134.943 295.439 133.746 294.651 132.978 293.775C132.345 293.06 132 292.282 132 291.47C132 287.899 138.684 284.999 146.925 284.999C155.166 284.999 161.85 287.899 161.85 291.47Z" fill="white" stroke="#242D3C" stroke-linecap="round" stroke-linejoin="round"/>
<path d="M161.85 291.469V296.081C161.85 296.893 161.505 297.672 160.873 298.387C160.104 299.263 158.907 300.046 157.394 300.693C154.704 301.841 151.007 302.551 146.925 302.551C142.844 302.551 139.146 301.841 136.456 300.693C134.943 300.046 133.746 299.263 132.978 298.387C132.345 297.672 132 296.893 132 296.081V291.469C132 292.282 132.345 293.06 132.978 293.775C133.746 294.651 134.943 295.439 136.461 296.086C139.151 297.234 142.848 297.944 146.925 297.944C151.002 297.944 154.699 297.234 157.389 296.086C158.907 295.439 160.104 294.651 160.873 293.775C161.505 293.06 161.85 292.282 161.85 291.469Z" fill="white" stroke="#242D3C" stroke-linecap="round" stroke-linejoin="round"/>
<path d="M161.85 296.081V300.693C161.85 301.505 161.505 302.283 160.873 302.999C160.104 303.874 158.907 304.657 157.394 305.304C154.704 306.453 151.007 307.163 146.925 307.163C142.844 307.163 139.146 306.453 136.456 305.304C134.943 304.657 133.746 303.874 132.978 302.999C132.345 302.283 132 301.505 132 300.693V296.081C132 296.893 132.345 297.672 132.978 298.387C133.746 299.262 134.943 300.046 136.456 300.693C139.146 301.841 142.844 302.551 146.925 302.551C151.007 302.551 154.704 301.841 157.394 300.693C158.907 300.046 160.104 299.262 160.873 298.387C161.505 297.672 161.85 296.893 161.85 296.081Z" fill="white" stroke="#242D3C" stroke-linecap="round" stroke-linejoin="round"/>
<path d="M161.85 300.693V305.305C161.85 306.117 161.505 306.896 160.873 307.611C160.104 308.487 158.907 309.27 157.394 309.917C154.704 311.065 151.007 311.775 146.925 311.775C142.844 311.775 139.146 311.065 136.456 309.917C134.943 309.27 133.746 308.487 132.978 307.611C132.345 306.896 132 306.117 132 305.305V300.693C132 301.506 132.345 302.284 132.978 302.999C133.746 303.875 134.943 304.658 136.456 305.305C139.146 306.453 142.844 307.163 146.925 307.163C151.007 307.163 154.704 306.453 157.394 305.305C158.907 304.658 160.104 303.875 160.873 302.999C161.505 302.284 161.85 301.506 161.85 300.693Z" fill="white" stroke="#242D3C" stroke-linecap="round" stroke-linejoin="round"/>
<path d="M161.85 305.305V309.917C161.85 310.729 161.505 311.508 160.873 312.223C160.099 313.098 158.902 313.882 157.389 314.529C154.699 315.677 151.002 316.387 146.925 316.387C142.848 316.387 139.151 315.677 136.461 314.529C134.948 313.882 133.751 313.098 132.978 312.223C132.345 311.508 132 310.729 132 309.917V305.305C132 306.117 132.345 306.896 132.978 307.611C133.746 308.487 134.943 309.27 136.456 309.917C139.146 311.065 142.844 311.775 146.925 311.775C151.007 311.775 154.704 311.065 157.394 309.917C158.907 309.27 160.104 308.487 160.873 307.611C161.505 306.896 161.85 306.117 161.85 305.305Z" fill="white" stroke="#242D3C" stroke-linecap="round" stroke-linejoin="round"/>
<path d="M161.85 309.917V314.529C161.85 315.342 161.505 316.12 160.873 316.835C160.099 317.711 158.902 318.494 157.389 319.141C154.699 320.289 151.002 320.999 146.925 320.999C142.848 320.999 139.151 320.289 136.461 319.141C134.948 318.494 133.751 317.711 132.978 316.835C132.345 316.12 132 315.342 132 314.529V309.917C132 310.73 132.345 311.508 132.978 312.223C133.751 313.099 134.948 313.882 136.461 314.529C139.151 315.677 142.848 316.388 146.925 316.388C151.002 316.388 154.699 315.677 157.389 314.529C158.902 313.882 160.099 313.099 160.873 312.223C161.505 311.508 161.85 310.73 161.85 309.917Z" fill="white" stroke="#242D3C" stroke-linecap="round" stroke-linejoin="round"/>
<path d="M138.003 287.999C140.669 286.999 149.503 285.499 157.003 288.499" stroke="#242D3C" stroke-width="0.5" stroke-linecap="round" stroke-linejoin="round"/>
<path d="M206.85 299.47C206.85 300.282 206.505 301.06 205.873 301.775C205.104 302.651 203.907 303.439 202.389 304.086C199.699 305.234 196.002 305.945 191.925 305.945C187.848 305.945 184.151 305.234 181.461 304.086C179.943 303.439 178.746 302.651 177.978 301.775C177.345 301.06 177 300.282 177 299.47C177 295.899 183.684 292.999 191.925 292.999C200.166 292.999 206.85 295.899 206.85 299.47Z" fill="white" stroke="#242D3C" stroke-linecap="round" stroke-linejoin="round"/>
<path d="M206.85 299.469V304.081C206.85 304.893 206.505 305.672 205.873 306.387C205.104 307.263 203.907 308.046 202.394 308.693C199.704 309.841 196.007 310.551 191.925 310.551C187.844 310.551 184.146 309.841 181.456 308.693C179.943 308.046 178.746 307.263 177.978 306.387C177.345 305.672 177 304.893 177 304.081V299.469C177 300.282 177.345 301.06 177.978 301.775C178.746 302.651 179.943 303.439 181.461 304.086C184.151 305.234 187.848 305.944 191.925 305.944C196.002 305.944 199.699 305.234 202.389 304.086C203.907 303.439 205.104 302.651 205.873 301.775C206.505 301.06 206.85 300.282 206.85 299.469Z" fill="white" stroke="#242D3C" stroke-linecap="round" stroke-linejoin="round"/>
<path d="M206.85 304.081V308.693C206.85 309.505 206.505 310.283 205.873 310.999C205.104 311.874 203.907 312.657 202.394 313.304C199.704 314.453 196.007 315.163 191.925 315.163C187.844 315.163 184.146 314.453 181.456 313.304C179.943 312.657 178.746 311.874 177.978 310.999C177.345 310.283 177 309.505 177 308.693V304.081C177 304.893 177.345 305.672 177.978 306.387C178.746 307.262 179.943 308.046 181.456 308.693C184.146 309.841 187.844 310.551 191.925 310.551C196.007 310.551 199.704 309.841 202.394 308.693C203.907 308.046 205.104 307.262 205.873 306.387C206.505 305.672 206.85 304.893 206.85 304.081Z" fill="white" stroke="#242D3C" stroke-linecap="round" stroke-linejoin="round"/>
<path d="M206.85 308.693V313.305C206.85 314.117 206.505 314.896 205.873 315.611C205.104 316.487 203.907 317.27 202.394 317.917C199.704 319.065 196.007 319.775 191.925 319.775C187.844 319.775 184.146 319.065 181.456 317.917C179.943 317.27 178.746 316.487 177.978 315.611C177.345 314.896 177 314.117 177 313.305V308.693C177 309.506 177.345 310.284 177.978 310.999C178.746 311.875 179.943 312.658 181.456 313.305C184.146 314.453 187.844 315.163 191.925 315.163C196.007 315.163 199.704 314.453 202.394 313.305C203.907 312.658 205.104 311.875 205.873 310.999C206.505 310.284 206.85 309.506 206.85 308.693Z" fill="white" stroke="#242D3C" stroke-linecap="round" stroke-linejoin="round"/>
<path d="M206.85 313.305V317.917C206.85 318.729 206.505 319.508 205.873 320.223C205.099 321.098 203.902 321.882 202.389 322.529C199.699 323.677 196.002 324.387 191.925 324.387C187.848 324.387 184.151 323.677 181.461 322.529C179.948 321.882 178.751 321.098 177.978 320.223C177.345 319.508 177 318.729 177 317.917V313.305C177 314.117 177.345 314.896 177.978 315.611C178.746 316.487 179.943 317.27 181.456 317.917C184.146 319.065 187.844 319.775 191.925 319.775C196.007 319.775 199.704 319.065 202.394 317.917C203.907 317.27 205.104 316.487 205.873 315.611C206.505 314.896 206.85 314.117 206.85 313.305Z" fill="white" stroke="#242D3C" stroke-linecap="round" stroke-linejoin="round"/>
<path d="M206.85 317.917V322.529C206.85 323.342 206.505 324.12 205.873 324.835C205.099 325.711 203.902 326.494 202.389 327.141C199.699 328.289 196.002 328.999 191.925 328.999C187.848 328.999 184.151 328.289 181.461 327.141C179.948 326.494 178.751 325.711 177.978 324.835C177.345 324.12 177 323.342 177 322.529V317.917C177 318.73 177.345 319.508 177.978 320.223C178.751 321.099 179.948 321.882 181.461 322.529C184.151 323.677 187.848 324.388 191.925 324.388C196.002 324.388 199.699 323.677 202.389 322.529C203.902 321.882 205.099 321.099 205.873 320.223C206.505 319.508 206.85 318.73 206.85 317.917Z" fill="white" stroke="#242D3C" stroke-linecap="round" stroke-linejoin="round"/>
<path d="M183.003 295.999C185.669 294.999 194.503 293.499 202.003 296.499" stroke="#242D3C" stroke-width="0.5" stroke-linecap="round" stroke-linejoin="round"/>
<path d="M180.85 312.47C180.85 313.282 180.505 314.06 179.873 314.775C179.104 315.651 177.907 316.439 176.389 317.086C173.699 318.234 170.002 318.945 165.925 318.945C161.848 318.945 158.151 318.234 155.461 317.086C153.943 316.439 152.746 315.651 151.978 314.775C151.345 314.06 151 313.282 151 312.47C151 308.899 157.684 305.999 165.925 305.999C174.166 305.999 180.85 308.899 180.85 312.47Z" fill="white" stroke="#242D3C" stroke-linecap="round" stroke-linejoin="round"/>
<path d="M180.85 312.469V317.081C180.85 317.893 180.505 318.672 179.873 319.387C179.104 320.263 177.907 321.046 176.394 321.693C173.704 322.841 170.007 323.551 165.925 323.551C161.844 323.551 158.146 322.841 155.456 321.693C153.943 321.046 152.746 320.263 151.978 319.387C151.345 318.672 151 317.893 151 317.081V312.469C151 313.282 151.345 314.06 151.978 314.775C152.746 315.651 153.943 316.439 155.461 317.086C158.151 318.234 161.848 318.944 165.925 318.944C170.002 318.944 173.699 318.234 176.389 317.086C177.907 316.439 179.104 315.651 179.873 314.775C180.505 314.06 180.85 313.282 180.85 312.469Z" fill="white" stroke="#242D3C" stroke-linecap="round" stroke-linejoin="round"/>
<path d="M180.85 317.081V321.693C180.85 322.505 180.505 323.283 179.873 323.999C179.104 324.874 177.907 325.657 176.394 326.304C173.704 327.453 170.007 328.163 165.925 328.163C161.844 328.163 158.146 327.453 155.456 326.304C153.943 325.657 152.746 324.874 151.978 323.999C151.345 323.283 151 322.505 151 321.693V317.081C151 317.893 151.345 318.672 151.978 319.387C152.746 320.262 153.943 321.046 155.456 321.693C158.146 322.841 161.844 323.551 165.925 323.551C170.007 323.551 173.704 322.841 176.394 321.693C177.907 321.046 179.104 320.262 179.873 319.387C180.505 318.672 180.85 317.893 180.85 317.081Z" fill="white" stroke="#242D3C" stroke-linecap="round" stroke-linejoin="round"/>
<path d="M180.85 321.693V326.305C180.85 327.117 180.505 327.896 179.873 328.611C179.104 329.487 177.907 330.27 176.394 330.917C173.704 332.065 170.007 332.775 165.925 332.775C161.844 332.775 158.146 332.065 155.456 330.917C153.943 330.27 152.746 329.487 151.978 328.611C151.345 327.896 151 327.117 151 326.305V321.693C151 322.506 151.345 323.284 151.978 323.999C152.746 324.875 153.943 325.658 155.456 326.305C158.146 327.453 161.844 328.163 165.925 328.163C170.007 328.163 173.704 327.453 176.394 326.305C177.907 325.658 179.104 324.875 179.873 323.999C180.505 323.284 180.85 322.506 180.85 321.693Z" fill="white" stroke="#242D3C" stroke-linecap="round" stroke-linejoin="round"/>
<path d="M180.85 326.305V330.917C180.85 331.729 180.505 332.508 179.873 333.223C179.099 334.098 177.902 334.882 176.389 335.529C173.699 336.677 170.002 337.387 165.925 337.387C161.848 337.387 158.151 336.677 155.461 335.529C153.948 334.882 152.751 334.098 151.978 333.223C151.345 332.508 151 331.729 151 330.917V326.305C151 327.117 151.345 327.896 151.978 328.611C152.746 329.487 153.943 330.27 155.456 330.917C158.146 332.065 161.844 332.775 165.925 332.775C170.007 332.775 173.704 332.065 176.394 330.917C177.907 330.27 179.104 329.487 179.873 328.611C180.505 327.896 180.85 327.117 180.85 326.305Z" fill="white" stroke="#242D3C" stroke-linecap="round" stroke-linejoin="round"/>
<path d="M180.85 330.917V335.529C180.85 336.342 180.505 337.12 179.873 337.835C179.099 338.711 177.902 339.494 176.389 340.141C173.699 341.289 170.002 341.999 165.925 341.999C161.848 341.999 158.151 341.289 155.461 340.141C153.948 339.494 152.751 338.711 151.978 337.835C151.345 337.12 151 336.342 151 335.529V330.917C151 331.73 151.345 332.508 151.978 333.223C152.751 334.099 153.948 334.882 155.461 335.529C158.151 336.677 161.848 337.388 165.925 337.388C170.002 337.388 173.699 336.677 176.389 335.529C177.902 334.882 179.099 334.099 179.873 333.223C180.505 332.508 180.85 331.73 180.85 330.917Z" fill="white" stroke="#242D3C" stroke-linecap="round" stroke-linejoin="round"/>
<path d="M157.003 308.999C159.669 307.999 168.503 306.499 176.003 309.499" stroke="#242D3C" stroke-width="0.5" stroke-linecap="round" stroke-linejoin="round"/>
<path d="M11.36 43.44V41.2H1.44V50.62L13.04 50.08V47.84L4.12 48.14V43.44H11.36ZM16.52 53.76V46.9H18.64V44.58H16.52V40.62H13.84V53.76H16.52ZM3.06 52.22V58.34H17.1V56.06H5.74V52.22H3.06ZM35.2492 42.86V40.58H29.0492V42.86H35.2492ZM37.8492 46.08V43.8H26.3692V46.08H37.8492ZM32.1092 46.58C28.9292 46.58 27.0292 48.7 27.0292 51.36C27.0292 54.02 28.9292 56.14 32.1092 56.14C35.2892 56.14 37.1892 54.02 37.1892 51.36C37.1892 48.7 35.2892 46.58 32.1092 46.58ZM32.1092 53.9C30.4892 53.9 29.7092 52.86 29.7092 51.36C29.7092 49.86 30.4892 48.82 32.1092 48.82C33.7292 48.82 34.5092 49.86 34.5092 51.36C34.5092 52.86 33.7292 53.9 32.1092 53.9ZM41.7492 58.54V50.12H44.2892V47.8H41.7492V40.62H39.0692V58.54H41.7492ZM60.9559 50.14V47.88H49.5559V46.64H60.6559V41.1H46.8759V43.34H57.9959V44.48H46.8759V50.14H60.9559ZM55.1359 58.54V53.62H62.5759V51.38H44.9759V53.62H52.4159V58.54H55.1359ZM80.0427 58.42V56.48H68.3427V55.78H79.6227V51.42H65.6627V53.34H76.9427V54.02H65.6627V58.42H80.0427ZM79.8427 47.86V45.92H68.4427V45.2H79.5427V40.82H65.7627V42.74H76.8627V43.44H65.7627V47.86H79.8427ZM81.4627 50.56V48.64H63.8627V50.56H81.4627ZM105.832 49.84V40.62H103.152V49.84H105.832ZM97.6719 41V43.16H93.0119V41H90.3319V49.52H100.352V41H97.6719ZM93.0119 47.32V45.32H97.6719V47.32H93.0119ZM106.192 58.42V56.28H94.7519V55.4H105.792V50.44H92.0719V52.56H103.112V53.4H92.0719V58.42H106.192ZM120.579 55.08V52.84L112.079 53.22V49.36H118.399V41.2H109.399V43.48H115.719V47.1H109.399V55.7L120.579 55.08ZM119.339 45.88H121.979V48.8H119.339V51.08H121.979V58.54H124.659V40.62H121.979V43.6H119.339V45.88ZM143.165 49H131.685V43.62H142.765V41.34H129.005V51.3H134.625V54.94H127.085V57.22H144.685V54.94H137.345V51.3H143.165V49Z" fill="#999999"/>
<path d="M18.24 78.32V76.12H0.64V78.32H8.08V79.36C7.74 79.42 7.42 79.48 7.1 79.56C4.94 80.12 3.54 81.52 3.54 83.36C3.54 85.84 6.02 87.46 9.52 87.46C13.02 87.46 15.5 85.84 15.5 83.36C15.5 81.52 14.1 80.12 11.92 79.56C11.56 79.46 11.18 79.4 10.8 79.34V78.32H18.24ZM17.7 73.4C15.26 73.32 13.08 72.96 11.48 72.04C11.24 71.9 11 71.72 10.78 71.54L10.9 71.32L11 71.1H16.42V68.9H2.46V71.1H8.02L7.94 71.22C6.7 72.66 4.16 73.24 1.16 73.48L2.28 75.54C4.2 75.42 6.4 74.94 8.18 73.98C8.64 73.74 9.04 73.46 9.42 73.16C9.72 73.4 10.02 73.62 10.36 73.82C12.14 74.88 14.34 75.4 16.5 75.4L17.7 73.4ZM9.52 85.3C7.36 85.3 6.22 84.54 6.22 83.36C6.22 82.18 7.36 81.42 9.52 81.42C11.68 81.42 12.82 82.18 12.82 83.36C12.82 84.54 11.68 85.3 9.52 85.3ZM35.6067 77H24.1267V71.62H35.2067V69.34H21.4467V79.3H27.0667V82.94H19.5267V85.22H37.1267V82.94H29.7867V79.3H35.6067V77ZM48.6534 78.22C45.2934 78.22 42.8734 80.04 42.8734 82.64C42.8734 85.26 45.2934 87.06 48.6534 87.06C52.0134 87.06 54.4334 85.26 54.4334 82.64C54.4334 80.04 52.0134 78.22 48.6534 78.22ZM50.7734 75.48C48.8934 74.96 47.2134 74.12 46.0134 72.72L45.6534 72.24C45.6734 72.22 45.6734 72.18 45.6934 72.14C46.1134 71.14 46.3334 70.06 46.3534 68.9H43.6334C43.4534 72.56 41.2734 75.06 37.7734 76.26L39.4134 78.22C41.0734 77.6 42.7934 76.44 44.0934 74.84C44.2334 74.68 44.3534 74.5 44.4934 74.32L44.5134 74.36C45.8334 75.92 47.5734 77.04 49.3134 77.56L50.7734 75.48ZM54.4934 78.4V74.36H56.6134V72.08H54.4934V68.62H51.8134V78.4H54.4934ZM48.6534 84.86C46.6534 84.86 45.5534 83.98 45.5534 82.64C45.5534 81.3 46.6534 80.42 48.6534 80.42C50.6534 80.42 51.7534 81.3 51.7534 82.64C51.7534 83.98 50.6534 84.86 48.6534 84.86ZM69.8802 80.7V78.66L64.9202 78.72V77.9C65.0602 77.88 65.2002 77.84 65.3402 77.8C67.0802 77.36 68.3002 76.32 68.3002 74.8C68.3002 74.02 67.9202 73.32 67.2602 73.02H69.5802V70.98H57.4202V73.02H59.7402C59.0802 73.32 58.7002 74.02 58.7002 74.8C58.7002 76.34 59.9402 77.36 61.6402 77.8C61.8202 77.86 62.0202 77.9 62.2002 77.92V78.76L57.0802 78.82V80.9L69.8802 80.7ZM73.2802 82.56V76.32H75.2802V74H73.2802V68.62H70.6002V82.56H73.2802ZM59.4202 81.5V86.2H73.8402V83.92H62.1002V81.5H59.4202ZM60.0402 68.22V70.26H66.9602V68.22H60.0402ZM63.5002 73.02C64.8602 73.02 65.6202 73.62 65.6202 74.5C65.6202 75.38 64.8602 75.98 63.5002 75.98C62.1402 75.98 61.3802 75.38 61.3802 74.5C61.3802 73.62 62.1402 73.02 63.5002 73.02ZM86.8869 86.08H89.4869V77.84H90.8469V86.52H93.4869V68.62H90.8469V75.52H89.4869V68.82H86.8869V86.08ZM81.3669 84.14C84.1069 84.14 85.8069 82.08 85.8069 79.36C85.8069 76.64 84.1069 74.58 81.3669 74.58C78.6269 74.58 76.9269 76.64 76.9269 79.36C76.9269 82.08 78.6269 84.14 81.3669 84.14ZM86.2669 74.12V71.84H76.2669V74.12H86.2669ZM81.3669 81.9C80.1669 81.9 79.5269 80.9 79.5269 79.36C79.5269 77.82 80.1669 76.82 81.3669 76.82C82.5669 76.82 83.2069 77.82 83.2069 79.36C83.2069 80.9 82.5669 81.9 81.3669 81.9ZM84.1669 70.94V68.66H78.5669V70.94H84.1669ZM110.914 86.62V79.88H96.7936V82.16H108.234V86.62H110.914ZM110.954 79.08V76.88H113.074V74.6H110.954V72.68H113.074V70.4H110.954V68.62H108.274V79.08H110.954ZM100.574 68.44C97.5936 68.44 95.2136 70.52 95.2136 73.48C95.2136 76.44 97.5936 78.52 100.574 78.52C103.554 78.52 105.934 76.44 105.934 73.48C105.934 70.52 103.554 68.44 100.574 68.44ZM100.574 76.24C98.9136 76.24 97.8936 75.14 97.8936 73.48C97.8936 71.82 98.9136 70.72 100.574 70.72C102.234 70.72 103.254 71.82 103.254 73.48C103.254 75.14 102.234 76.24 100.574 76.24ZM129.72 86.42V79.38H115.76V86.42H129.72ZM131.56 77.74V75.5H129.14C129.3 74.76 129.46 73.9 129.6 72.92C129.78 71.72 129.88 70.38 129.92 68.9H115.58V71.14H127.16C127.12 72.1 126.96 73.4 126.68 74.72L126.5 75.5H113.96V77.74H131.56ZM118.44 81.58H127.04V84.18H118.44V81.58ZM139.43 77.4C139.43 82.36 142.53 85.38 145.97 85.38C149.41 85.38 152.51 82.36 152.51 77.4C152.51 72.44 149.41 69.42 145.97 69.42C142.53 69.42 139.43 72.44 139.43 77.4ZM149.91 77.4C149.91 81 147.99 83.18 145.97 83.18C143.95 83.18 142.03 81 142.03 77.4C142.03 73.8 143.95 71.62 145.97 71.62C147.99 71.62 149.91 73.8 149.91 77.4ZM160.504 68.14C157.544 68.14 155.344 69.72 155.344 72.08C155.344 74.44 157.544 76.02 160.504 76.02C163.464 76.02 165.664 74.44 165.664 72.08C165.664 69.72 163.464 68.14 160.504 68.14ZM164.024 81.5H168.024V82.52H170.704V68.62H168.024V79.46H164.024V81.5ZM156.644 81.5V86.2H171.064V83.92H159.324V81.5H156.644ZM161.744 81.08V78.78L167.204 78.7V76.58L154.104 76.74V78.9L159.024 78.82V81.08H161.744ZM160.504 73.86C159.004 73.86 158.024 73.14 158.024 72.08C158.024 71.02 159.004 70.3 160.504 70.3C161.964 70.3 162.984 71.02 162.984 72.08C162.984 73.14 161.964 73.86 160.504 73.86Z" fill="#242D3C"/>
<path d="M0.528 6.92C0.528 10.888 3.008 13.304 5.76 13.304C8.512 13.304 10.992 10.888 10.992 6.92C10.992 2.952 8.512 0.535999 5.76 0.535999C3.008 0.535999 0.528 2.952 0.528 6.92ZM8.912 6.92C8.912 9.8 7.376 11.544 5.76 11.544C4.144 11.544 2.608 9.8 2.608 6.92C2.608 4.04 4.144 2.296 5.76 2.296C7.376 2.296 8.912 4.04 8.912 6.92ZM13.5796 0.855999L12.5396 6.92L13.9316 7.512C14.3156 7.016 15.1796 6.536 16.3156 6.536C17.9156 6.536 18.6836 7.592 18.6836 9.064C18.6836 10.536 17.7076 11.544 16.1716 11.544C14.8436 11.544 13.9156 10.616 13.2276 9.352L11.6916 10.456C12.5876 12.152 14.2516 13.304 16.1716 13.304C19.0676 13.304 20.7636 11.544 20.7636 9.064C20.7636 6.68 19.2596 4.776 16.3156 4.776C15.7876 4.776 15.3076 4.872 14.8756 5.048L15.2916 2.616H20.2996V0.855999H13.5796Z" fill="#D7191F"/>
<path d="M7.632 106.568H0.924V107.36H4.008C3.948 107.72 3.864 108.068 3.756 108.404C3.18 110.036 1.92 111.332 0.24 112.052L0.792 112.712C1.884 112.22 2.94 111.392 3.72 110.372C3.852 110.204 3.972 110.024 4.08 109.844C4.248 110.06 4.428 110.276 4.632 110.48C5.46 111.308 6.516 112.016 7.524 112.424L8.04 111.68C7.284 111.404 6.588 111.044 5.952 110.6C5.34 110.168 4.848 109.664 4.476 109.088L4.656 108.656C4.812 108.236 4.92 107.804 4.98 107.36H7.632V106.568ZM6.936 109.58H9.264V114.092H10.176V106.196H9.264V108.788H6.936V109.58ZM10.476 116.78V115.988H3.156V113.252H2.244V116.78H10.476ZM14.512 106.256C12.976 106.256 11.752 107.48 11.752 109.148C11.752 110.816 12.976 112.04 14.512 112.04C16.048 112.04 17.272 110.816 17.272 109.148C17.272 107.48 16.048 106.256 14.512 106.256ZM19.156 112.568V109.508H20.692V112.568H21.604V106.196H20.692V108.716H19.156V106.292H18.256V112.568H19.156ZM14.512 111.248C13.396 111.248 12.652 110.384 12.652 109.148C12.652 107.912 13.396 107.048 14.512 107.048C15.628 107.048 16.372 107.912 16.372 109.148C16.372 110.384 15.628 111.248 14.512 111.248ZM21.58 116.96V113.168H13.18V113.96H20.668V116.96H21.58ZM33.1296 112.052C31.1016 112.052 29.7216 113.12 29.7216 114.584C29.7216 116.048 31.1016 117.116 33.1296 117.116C35.1336 117.116 36.5376 116.048 36.5376 114.584C36.5376 113.12 35.1336 112.052 33.1296 112.052ZM33.1296 116.324C31.5456 116.324 30.6336 115.592 30.6336 114.584C30.6336 113.576 31.5456 112.844 33.1296 112.844C34.7136 112.844 35.6256 113.576 35.6256 114.584C35.6256 115.592 34.7136 116.324 33.1296 116.324ZM34.3296 110.684C33.5736 110.432 32.8656 110.06 32.2176 109.58C31.7016 109.196 31.2696 108.752 30.9456 108.248L30.9816 108.14C31.2216 107.576 31.3536 107 31.3896 106.388H30.4536C30.2616 108.5 28.8576 110.324 26.7216 111.188L27.2496 111.848C28.3056 111.404 29.3016 110.636 30.0576 109.688C30.2376 109.46 30.4056 109.22 30.5616 108.968C30.6696 109.1 30.7776 109.244 30.8976 109.376C31.6776 110.252 32.7576 111.032 33.8016 111.416L34.3296 110.684ZM36.3936 112.16V109.352H37.8696V108.536H36.3936V106.196H35.4816V112.16H36.3936ZM46.1776 113.264V112.52L42.6016 112.568V111.716C42.8176 111.692 43.0216 111.656 43.2136 111.596C44.2096 111.284 44.8696 110.612 44.8696 109.676C44.8696 108.992 44.4616 108.44 43.9336 108.236H45.6376V107.492H38.6296V108.236H40.3336C39.8056 108.44 39.3976 108.992 39.3976 109.676C39.3976 110.612 40.0696 111.284 41.0416 111.596C41.2456 111.656 41.4496 111.692 41.6656 111.716V112.58L38.2456 112.616V113.384L46.1776 113.264ZM47.6656 114.536V110.492H49.0816V109.676H47.6656V106.196H46.7536V114.536H47.6656ZM42.1336 110.996C40.9456 110.996 40.2856 110.444 40.2856 109.676C40.2856 108.92 40.9336 108.236 42.1336 108.236C43.3336 108.236 43.9816 108.92 43.9816 109.676C43.9816 110.444 43.3216 110.996 42.1336 110.996ZM48.0016 116.696V115.928H40.5736V114.02H39.6616V116.696H48.0016ZM40.2016 106.052V106.796H44.0656V106.052H40.2016ZM49.6736 115.1V115.892H60.1856V115.1H55.4576V112.388H59.2256V111.584H51.7736V107.444H58.9856V106.652H50.8616V112.388H54.5216V115.1H49.6736ZM62.2177 115.364H61.0657V116.516H61.5817C61.5817 116.936 61.4017 117.38 61.0297 117.668L61.3297 117.932C61.8097 117.584 62.2177 116.948 62.2177 116.372V115.364ZM76.9466 111.8V106.196H76.0346V111.8H76.9466ZM77.1866 116.828V116.036H69.9146V114.932H76.9466V112.352H69.0026V113.12H76.0346V114.188H69.0026V116.828H77.1866ZM70.7426 106.112C69.0506 106.112 67.6706 107.252 67.6706 108.848C67.6706 110.444 69.0506 111.584 70.7426 111.584C72.4346 111.584 73.8146 110.444 73.8146 108.848C73.8146 107.252 72.4346 106.112 70.7426 106.112ZM70.7426 110.816C69.4586 110.816 68.5826 109.988 68.5826 108.848C68.5826 107.708 69.4586 106.88 70.7426 106.88C72.0266 106.88 72.9026 107.708 72.9026 108.848C72.9026 109.988 72.0266 110.816 70.7426 110.816ZM87.0307 106.412V108.02H80.7307V106.412H79.8187V111.308H87.9427V106.412H87.0307ZM84.3547 116.9V113.396H89.1427V112.604H78.6307V113.396H83.4187V116.9H84.3547ZM80.7307 110.516V108.812H87.0307V110.516H80.7307ZM100.02 112.052C97.9922 112.052 96.6122 113.12 96.6122 114.584C96.6122 116.048 97.9922 117.116 100.02 117.116C102.024 117.116 103.428 116.048 103.428 114.584C103.428 113.12 102.024 112.052 100.02 112.052ZM100.02 116.324C98.4362 116.324 97.5242 115.592 97.5242 114.584C97.5242 113.576 98.4362 112.844 100.02 112.844C101.604 112.844 102.516 113.576 102.516 114.584C102.516 115.592 101.604 116.324 100.02 116.324ZM101.22 110.684C100.464 110.432 99.7562 110.06 99.1082 109.58C98.5922 109.196 98.1602 108.752 97.8362 108.248L97.8722 108.14C98.1122 107.576 98.2442 107 98.2802 106.388H97.3442C97.1522 108.5 95.7482 110.324 93.6122 111.188L94.1402 111.848C95.1962 111.404 96.1922 110.636 96.9482 109.688C97.1282 109.46 97.2962 109.22 97.4522 108.968C97.5602 109.1 97.6682 109.244 97.7882 109.376C98.5682 110.252 99.6482 111.032 100.692 111.416L101.22 110.684ZM103.284 112.16V109.352H104.76V108.536H103.284V106.196H102.372V112.16H103.284ZM113.068 113.264V112.52L109.492 112.568V111.716C109.708 111.692 109.912 111.656 110.104 111.596C111.1 111.284 111.76 110.612 111.76 109.676C111.76 108.992 111.352 108.44 110.824 108.236H112.528V107.492H105.52V108.236H107.224C106.696 108.44 106.288 108.992 106.288 109.676C106.288 110.612 106.96 111.284 107.932 111.596C108.136 111.656 108.34 111.692 108.556 111.716V112.58L105.136 112.616V113.384L113.068 113.264ZM114.556 114.536V110.492H115.972V109.676H114.556V106.196H113.644V114.536H114.556ZM109.024 110.996C107.836 110.996 107.176 110.444 107.176 109.676C107.176 108.92 107.824 108.236 109.024 108.236C110.224 108.236 110.872 108.92 110.872 109.676C110.872 110.444 110.212 110.996 109.024 110.996ZM114.892 116.696V115.928H107.464V114.02H106.552V116.696H114.892ZM107.092 106.052V106.796H110.956V106.052H107.092ZM116.564 115.1V115.892H127.076V115.1H122.348V112.388H126.116V111.584H118.664V107.444H125.876V106.652H117.752V112.388H121.412V115.1H116.564ZM137.954 112.052C135.926 112.052 134.546 113.12 134.546 114.584C134.546 116.048 135.926 117.116 137.954 117.116C139.958 117.116 141.362 116.048 141.362 114.584C141.362 113.12 139.958 112.052 137.954 112.052ZM137.954 116.324C136.37 116.324 135.458 115.592 135.458 114.584C135.458 113.576 136.37 112.844 137.954 112.844C139.538 112.844 140.45 113.576 140.45 114.584C140.45 115.592 139.538 116.324 137.954 116.324ZM139.154 110.684C138.398 110.432 137.69 110.06 137.042 109.58C136.526 109.196 136.094 108.752 135.77 108.248L135.806 108.14C136.046 107.576 136.178 107 136.214 106.388H135.278C135.086 108.5 133.682 110.324 131.546 111.188L132.074 111.848C133.13 111.404 134.126 110.636 134.882 109.688C135.062 109.46 135.23 109.22 135.386 108.968C135.494 109.1 135.602 109.244 135.722 109.376C136.502 110.252 137.582 111.032 138.626 111.416L139.154 110.684ZM141.218 112.16V109.352H142.694V108.536H141.218V106.196H140.306V112.16H141.218ZM151.002 113.264V112.52L147.426 112.568V111.716C147.642 111.692 147.846 111.656 148.038 111.596C149.034 111.284 149.694 110.612 149.694 109.676C149.694 108.992 149.286 108.44 148.758 108.236H150.462V107.492H143.454V108.236H145.158C144.63 108.44 144.222 108.992 144.222 109.676C144.222 110.612 144.894 111.284 145.866 111.596C146.07 111.656 146.274 111.692 146.49 111.716V112.58L143.07 112.616V113.384L151.002 113.264ZM152.49 114.536V110.492H153.906V109.676H152.49V106.196H151.578V114.536H152.49ZM146.958 110.996C145.77 110.996 145.11 110.444 145.11 109.676C145.11 108.92 145.758 108.236 146.958 108.236C148.158 108.236 148.806 108.92 148.806 109.676C148.806 110.444 148.146 110.996 146.958 110.996ZM152.826 116.696V115.928H145.398V114.02H144.486V116.696H152.826ZM145.026 106.052V106.796H148.89V106.052H145.026ZM160.246 112.568C160.246 110.996 159.214 109.664 157.618 109.664C156.022 109.664 154.99 110.996 154.99 112.568C154.99 114.14 156.022 115.472 157.618 115.472C159.214 115.472 160.246 114.14 160.246 112.568ZM162.154 116.6V111.392H163.702V116.888H164.614V106.196H163.702V110.576H162.154V106.316H161.254V116.6H162.154ZM159.346 112.568C159.346 113.72 158.734 114.692 157.618 114.692C156.502 114.692 155.89 113.72 155.89 112.568C155.89 111.416 156.502 110.444 157.618 110.444C158.734 110.444 159.346 111.416 159.346 112.568ZM160.522 108.92V108.128H154.594V108.92H160.522ZM159.262 107.132V106.34H155.974V107.132H159.262ZM175.07 116.948V113.168H166.91V113.96H174.158V116.948H175.07ZM169.082 106.16C167.318 106.16 165.962 107.384 165.962 109.076C165.962 110.78 167.318 111.992 169.082 111.992C170.846 111.992 172.202 110.78 172.202 109.076C172.202 107.384 170.846 106.16 169.082 106.16ZM169.082 111.2C167.702 111.2 166.874 110.336 166.874 109.076C166.874 107.816 167.702 106.952 169.082 106.952C170.462 106.952 171.29 107.816 171.29 109.076C171.29 110.336 170.462 111.2 169.082 111.2ZM175.094 112.568V110.84H176.57V110.036H175.094V108.32H176.57V107.516H175.094V106.196H174.182V112.568H175.094ZM178.29 112.868V116.828H186.522V112.868H178.29ZM177.162 110.576V111.368H187.674V110.576H186.126C186.234 110.048 186.33 109.484 186.402 108.872C186.486 108.14 186.558 107.312 186.594 106.388H178.182V107.156H185.658C185.622 107.78 185.562 108.404 185.49 109.016C185.43 109.532 185.346 110.048 185.226 110.576H177.162ZM185.61 113.636V116.036H179.202V113.636H185.61ZM192.503 111.44C192.503 114.392 194.327 116.18 196.343 116.18C198.359 116.18 200.183 114.392 200.183 111.44C200.183 108.488 198.359 106.7 196.343 106.7C194.327 106.7 192.503 108.488 192.503 111.44ZM199.319 111.44C199.319 113.936 197.855 115.436 196.343 115.436C194.831 115.436 193.367 113.936 193.367 111.44C193.367 108.944 194.831 107.444 196.343 107.444C197.855 107.444 199.319 108.944 199.319 111.44ZM205.16 105.932C203.444 105.932 202.16 106.856 202.16 108.236C202.16 109.616 203.444 110.54 205.16 110.54C206.876 110.54 208.16 109.616 208.16 108.236C208.16 106.856 206.876 105.932 205.16 105.932ZM205.16 109.772C203.912 109.772 203.072 109.136 203.072 108.236C203.072 107.336 203.912 106.7 205.16 106.7C206.408 106.7 207.248 107.336 207.248 108.236C207.248 109.136 206.408 109.772 205.16 109.772ZM210.944 114.536V106.196H210.032V112.796H207.176V113.552H210.032V114.536H210.944ZM211.16 116.696V115.904H203.732V114.02H202.82V116.696H211.16ZM209.336 111.908V111.164L201.284 111.26V112.028L204.524 111.98V113.972H205.46V111.968L209.336 111.908ZM213.036 115.208H214.188V116.36H213.036V115.208ZM214.104 106.46H213.12L213.276 114.236H213.948L214.104 106.46ZM0.624 131.44L8.472 131.14V130.384L6.564 130.456L6.66 127.336H7.728V126.568H0.948V127.336H2.124L2.232 130.6L0.624 130.648V131.44ZM10.296 136.828V136.036H3.024V134.932H10.056V132.352H2.112V133.12H9.144V134.188H2.112V136.828H10.296ZM3.048 127.336H5.736L5.652 130.48L3.144 130.564L3.048 127.336ZM10.056 131.8V126.196H9.144V131.8H10.056ZM16.984 126.172C14.644 126.172 13.072 127.696 13.072 129.424C13.072 131.152 14.644 132.676 16.984 132.676C19.324 132.676 20.896 131.152 20.896 129.424C20.896 127.696 19.324 126.172 16.984 126.172ZM16.984 131.884C15.136 131.884 13.984 130.744 13.984 129.424C13.984 128.104 15.136 126.964 16.984 126.964C18.832 126.964 19.984 128.104 19.984 129.424C19.984 130.744 18.832 131.884 16.984 131.884ZM11.74 135.1V135.892H22.252V135.1H19.888V132.832H18.964V135.1H15.064V132.832H14.14V135.1H11.74ZM32.4561 134.212V130.372H33.9321V129.556H32.4561V126.196H31.5441V134.212H32.4561ZM32.8041 136.78V135.988H25.6041V133.708H24.6921V136.78H32.8041ZM28.7361 126.808V126.04H24.7281V126.808H28.7361ZM30.2961 128.284V127.516H23.1681V128.284H30.2961ZM26.8281 133.012C28.5681 133.012 29.7801 132.1 29.7801 130.9C29.7801 129.7 28.5681 128.788 26.8281 128.788C25.0881 128.788 23.8761 129.7 23.8761 130.9C23.8761 132.1 25.0881 133.012 26.8281 133.012ZM26.8281 132.268C25.5921 132.268 24.7881 131.776 24.7881 130.9C24.7881 130.024 25.5921 129.532 26.8281 129.532C28.0641 129.532 28.8681 130.024 28.8681 130.9C28.8681 131.776 28.0641 132.268 26.8281 132.268ZM43.5976 131.212H39.7216V127.36H43.5976V131.212ZM38.8096 126.568V132.004H44.5096V126.568H38.8096ZM47.6056 134.092V129.772H49.0816V128.956H47.6056V126.196H46.6936V134.092H47.6056ZM47.9536 136.78V135.988H40.7536V133.252H39.8416V136.78H47.9536ZM50.8016 133.132V136.828H59.0336V133.132H50.8016ZM49.6736 130.948V131.74H60.1856V130.948H58.6376C58.7576 130.36 58.8656 129.724 58.9496 129.016C59.0576 128.164 59.1416 127.288 59.1776 126.388H50.7416V127.156H58.2416L58.1216 128.476L50.6216 128.572V129.34L58.0376 129.232C57.9536 129.808 57.8576 130.384 57.7376 130.948H49.6736ZM58.1216 133.9V136.036H51.7136V133.9H58.1216ZM69.2152 132.988C70.0912 132.328 70.9192 131.404 71.5072 130.3C71.6272 130.072 71.7352 129.856 71.8312 129.628C72.1312 130.12 72.4672 130.588 72.8392 131.02C73.3792 131.644 73.9792 132.172 74.6152 132.616L75.2152 131.884C74.1592 131.284 73.2712 130.432 72.6472 129.472C72.4672 129.196 72.3232 128.92 72.1912 128.644L72.2272 128.5C72.4072 127.864 72.5032 127.18 72.5152 126.472H71.6032C71.5912 127.708 71.2912 128.884 70.7752 129.904C70.6432 130.168 70.4992 130.42 70.3432 130.672C69.9952 130.444 69.6832 130.192 69.3952 129.916C68.9992 129.52 68.6752 129.064 68.4472 128.572L68.5192 128.344C68.6752 127.756 68.7592 127.132 68.7712 126.472H67.8592C67.8232 128.704 66.8272 130.756 64.9312 131.92L65.5072 132.508C66.4672 131.848 67.2712 130.996 67.8472 129.988C67.9432 129.82 68.0272 129.652 68.1112 129.472L68.3152 129.772C68.6992 130.288 69.1312 130.768 69.6112 131.188L69.8152 131.356C69.4672 131.764 69.0832 132.112 68.6632 132.412L69.2152 132.988ZM64.9432 134.98V135.772H75.4552V134.98H64.9432ZM76.2272 135.1V135.892H86.7392V135.1H81.3032V130.72H80.3672V135.1H76.2272ZM85.0712 133.468C85.5392 131.5 85.7552 129.088 85.7552 126.7H77.2952V127.492H84.8192C84.8192 129.064 84.6032 131.548 84.1832 133.468H85.0712ZM94.9647 126.16C93.2127 126.16 91.8687 127.408 91.8687 129.136C91.8687 130.864 93.2127 132.112 94.9647 132.112C96.2967 132.112 97.3407 131.404 97.8207 130.336C97.9287 130.084 98.0007 129.808 98.0367 129.52H100.281V134.092H101.193V126.196H100.281V128.728H98.0367C98.0007 128.452 97.9287 128.188 97.8207 127.948C97.3527 126.856 96.2967 126.16 94.9647 126.16ZM94.9647 131.32C93.6207 131.32 92.7807 130.42 92.7807 129.136C92.7807 127.852 93.6207 126.952 94.9647 126.952C96.3087 126.952 97.1487 127.852 97.1487 129.136C97.1487 130.42 96.3087 131.32 94.9647 131.32ZM101.493 136.78V135.988H94.1727V133.252H93.2607V136.78H101.493ZM108.721 127.444V126.652H103.285V127.444H105.805C105.757 128.128 105.661 128.776 105.517 129.412C105.013 131.644 103.957 133.576 102.661 134.824L103.333 135.364C104.209 134.416 105.025 133.276 105.637 131.896C105.709 131.74 105.781 131.572 105.841 131.404C106.093 131.968 106.381 132.508 106.717 133.048C107.221 133.852 107.809 134.536 108.469 135.112L109.081 134.476C108.409 133.924 107.821 133.264 107.317 132.484C106.861 131.788 106.501 131.068 106.225 130.312L106.405 129.664C106.573 128.968 106.681 128.224 106.741 127.444H108.721ZM110.713 136.612V126.304H109.813V129.868H107.929V130.684H109.813V136.612H110.713ZM112.993 136.888V126.196H112.081V136.888H112.993ZM114.209 131.86V132.652H124.721V131.86H114.209ZM123.941 136.78V135.988H116.297V133.492H115.385V136.78H123.941ZM123.641 129.736H116.309V127.156H123.497V126.388H115.397V130.516H123.641V129.736ZM133.209 134.332C132.417 133.816 131.697 133.204 131.061 132.496C130.437 131.8 129.945 131.056 129.597 130.264C129.645 130.108 129.693 129.952 129.729 129.784C129.921 129.064 130.041 128.284 130.089 127.444H132.705V126.652H126.069V127.444H129.129C129.069 128.2 128.961 128.908 128.793 129.568C128.217 131.884 127.005 133.612 125.409 134.728L126.021 135.364C127.161 134.512 128.145 133.432 128.865 132.052C128.997 131.8 129.129 131.536 129.237 131.26C129.369 131.512 129.525 131.752 129.681 131.992C130.497 133.192 131.553 134.296 132.597 135.04L133.209 134.332ZM135.393 136.9V126.196H134.481V136.9H135.393ZM146.93 132.052C144.902 132.052 143.522 133.12 143.522 134.584C143.522 136.048 144.902 137.116 146.93 137.116C148.934 137.116 150.338 136.048 150.338 134.584C150.338 133.12 148.934 132.052 146.93 132.052ZM146.93 136.324C145.346 136.324 144.434 135.592 144.434 134.584C144.434 133.576 145.346 132.844 146.93 132.844C148.514 132.844 149.426 133.576 149.426 134.584C149.426 135.592 148.514 136.324 146.93 136.324ZM148.13 130.684C147.374 130.432 146.666 130.06 146.018 129.58C145.502 129.196 145.07 128.752 144.746 128.248L144.782 128.14C145.022 127.576 145.154 127 145.19 126.388H144.254C144.062 128.5 142.658 130.324 140.522 131.188L141.05 131.848C142.106 131.404 143.102 130.636 143.858 129.688C144.038 129.46 144.206 129.22 144.362 128.968C144.47 129.1 144.578 129.244 144.698 129.376C145.478 130.252 146.558 131.032 147.602 131.416L148.13 130.684ZM150.194 132.16V129.352H151.67V128.536H150.194V126.196H149.282V132.16H150.194ZM159.978 133.264V132.52L156.402 132.568V131.716C156.618 131.692 156.822 131.656 157.014 131.596C158.01 131.284 158.67 130.612 158.67 129.676C158.67 128.992 158.262 128.44 157.734 128.236H159.438V127.492H152.43V128.236H154.134C153.606 128.44 153.198 128.992 153.198 129.676C153.198 130.612 153.87 131.284 154.842 131.596C155.046 131.656 155.25 131.692 155.466 131.716V132.58L152.046 132.616V133.384L159.978 133.264ZM161.466 134.536V130.492H162.882V129.676H161.466V126.196H160.554V134.536H161.466ZM155.934 130.996C154.746 130.996 154.086 130.444 154.086 129.676C154.086 128.92 154.734 128.236 155.934 128.236C157.134 128.236 157.782 128.92 157.782 129.676C157.782 130.444 157.122 130.996 155.934 130.996ZM161.802 136.696V135.928H154.374V134.02H153.462V136.696H161.802ZM154.002 126.052V126.796H157.866V126.052H154.002ZM168.898 127.084V126.292H165.298V127.084H168.898ZM170.458 128.896V128.104H163.69V128.896H170.458ZM167.074 129.664C165.214 129.664 164.086 130.996 164.086 132.568C164.086 134.14 165.214 135.472 167.074 135.472C168.934 135.472 170.062 134.14 170.062 132.568C170.062 130.996 168.934 129.664 167.074 129.664ZM167.074 134.692C165.67 134.692 164.998 133.696 164.998 132.58C164.998 131.428 165.67 130.444 167.074 130.444C168.478 130.444 169.15 131.428 169.15 132.58C169.15 133.696 168.478 134.692 167.074 134.692ZM172.606 136.9V131.572H174.346V130.756H172.606V126.196H171.694V136.9H172.606ZM182.642 136.612V126.304H181.742V129.868H179.786V130.684H181.742V136.612H182.642ZM184.922 136.888V126.196H184.01V136.888H184.922ZM175.262 135.316C176.282 134.224 177.158 132.928 177.77 131.296C178.394 132.748 179.354 134.104 180.458 135.064L181.058 134.428C179.762 133.36 178.694 131.8 178.13 130.132C178.406 129.028 178.562 127.852 178.598 126.568H177.686C177.626 130.012 176.462 132.928 174.59 134.776L175.262 135.316ZM191.382 126.172C189.042 126.172 187.47 127.696 187.47 129.424C187.47 131.152 189.042 132.676 191.382 132.676C193.722 132.676 195.294 131.152 195.294 129.424C195.294 127.696 193.722 126.172 191.382 126.172ZM191.382 131.884C189.534 131.884 188.382 130.744 188.382 129.424C188.382 128.104 189.534 126.964 191.382 126.964C193.23 126.964 194.382 128.104 194.382 129.424C194.382 130.744 193.23 131.884 191.382 131.884ZM186.138 135.1V135.892H196.65V135.1H194.286V132.832H193.362V135.1H189.462V132.832H188.538V135.1H186.138ZM197.675 136.6H198.826V135.448H197.675V136.6Z" fill="#999999"/>
</svg>
