<svg width="152" height="16" viewBox="0 0 152 16" fill="none" xmlns="http://www.w3.org/2000/svg">
<path d="M8.16 8.415C5.64 8.415 3.825 9.78 3.825 11.73C3.825 13.695 5.64 15.045 8.16 15.045C10.68 15.045 12.495 13.695 12.495 11.73C12.495 9.78 10.68 8.415 8.16 8.415ZM9.75 6.36C8.34 5.97 7.08 5.34 6.18 4.29L5.91 3.93C5.925 3.915 5.925 3.885 5.94 3.855C6.255 3.105 6.42 2.295 6.435 1.425H4.395C4.26 4.17 2.625 6.045 0 6.945L1.23 8.415C2.475 7.95 3.765 7.08 4.74 5.88C4.845 5.76 4.935 5.625 5.04 5.49L5.055 5.52C6.045 6.69 7.35 7.53 8.655 7.92L9.75 6.36ZM12.54 8.55V5.52H14.13V3.81H12.54V1.215H10.53V8.55H12.54ZM8.16 13.395C6.66 13.395 5.835 12.735 5.835 11.73C5.835 10.725 6.66 10.065 8.16 10.065C9.66 10.065 10.485 10.725 10.485 11.73C10.485 12.735 9.66 13.395 8.16 13.395ZM26.465 14.565V10.035H22.265V9.165H27.845V7.515H14.645V9.165H20.225V10.035H15.995V14.565H26.465ZM15.92 3.075H17.345L17.435 5.1H15.47V6.765H27.005V5.1H25.025L25.115 3.075H26.555V1.425H15.92V3.075ZM18.005 11.685H24.455V12.885H18.005V11.685ZM19.355 3.075H23.105L23.015 5.1H19.445L19.355 3.075ZM41.6201 14.565V12.93H33.0401V12.24H41.3201V8.43H31.0301V10.05H39.3101V10.71H31.0301V14.565H41.6201ZM38.2301 6.21C36.8501 5.82 35.5601 5.16 34.6601 4.11C34.5701 4.005 34.4801 3.885 34.4051 3.765C34.7201 3.03 34.9001 2.25 34.9151 1.425H32.8751C32.7401 3.99 31.0751 5.85 28.4801 6.69L29.7101 8.16C30.9251 7.725 32.2301 6.87 33.2051 5.715L33.5201 5.325C33.5201 5.34 33.5201 5.34 33.5351 5.355C34.5551 6.525 35.8601 7.38 37.1351 7.77L38.2301 6.21ZM36.5501 4.755H39.3401V7.98H41.3501V1.215H39.3401V3.135H36.5501V4.755ZM51.2551 7.845V6.93H53.3551V8.55H55.3651V1.215H53.3551V2.595H51.2551V1.65H43.7401V7.845H51.2551ZM50.7751 8.415C48.2551 8.415 46.4401 9.78 46.4401 11.73C46.4401 13.695 48.2551 15.045 50.7751 15.045C53.2951 15.045 55.1101 13.695 55.1101 11.73C55.1101 9.78 53.2951 8.415 50.7751 8.415ZM50.7751 13.395C49.2751 13.395 48.4501 12.735 48.4501 11.73C48.4501 10.725 49.2751 10.065 50.7751 10.065C52.2751 10.065 53.1001 10.725 53.1001 11.73C53.1001 12.735 52.2751 13.395 50.7751 13.395ZM45.7501 3.3H49.2451V6.195H45.7501V3.3ZM51.2551 4.275H53.3551V5.25H51.2551V4.275ZM66.6502 10.995C65.6152 10.29 64.7302 9.51 64.0252 8.655C63.4702 7.98 62.9752 7.215 62.5552 6.375C63.0202 4.89 63.2452 3.3 63.2452 1.605H61.2052C61.2052 5.655 59.9302 8.985 56.7202 11.355L58.0702 12.75C59.6752 11.505 60.8902 10.05 61.7452 8.4C62.0752 8.94 62.4502 9.465 62.8552 9.975C63.6202 10.92 64.4602 11.73 65.4052 12.435L66.6502 10.995ZM64.8052 7.125H67.7752V14.655H69.7852V1.215H67.7752V5.415H64.8052V7.125ZM84.5071 7.605V1.65H76.9921V7.605H84.5071ZM78.3421 14.745C79.7071 14.655 81.3871 14.28 82.7071 13.665C82.9471 13.56 83.1721 13.44 83.3971 13.305C83.6521 13.47 83.9221 13.605 84.2071 13.74C85.5421 14.34 87.1321 14.67 88.6771 14.7L89.6071 13.245C87.9271 13.155 86.3371 12.93 85.0621 12.39L84.6871 12.21L84.7921 12.075L84.8821 11.955H88.8871V10.365H78.1471V11.955H82.4371C82.0921 12.21 81.6721 12.42 81.1621 12.585C80.1271 12.93 78.7921 13.155 77.2921 13.29L78.3421 14.745ZM88.6171 8.58V1.215H86.6071V8.58H88.6171ZM86.3071 8.295H80.4271V9.885H86.3071V8.295ZM79.0021 3.3H82.4971V5.955H79.0021V3.3ZM104.299 6.405C104.299 3.705 102.424 1.815 99.949 1.815C97.474 1.815 95.599 3.705 95.599 6.405C95.599 9.105 97.474 10.995 99.949 10.995C102.424 10.995 104.299 9.105 104.299 6.405ZM102.289 6.405C102.289 8.145 101.329 9.285 99.949 9.285C98.569 9.285 97.609 8.145 97.609 6.405C97.609 4.665 98.569 3.525 99.949 3.525C101.329 3.525 102.289 4.665 102.289 6.405ZM107.809 14.655V1.215H105.799V14.655H107.809ZM122.679 9.045V7.455H119.634V5.625C119.889 5.415 120.114 5.175 120.279 4.905C120.519 4.53 120.639 4.11 120.639 3.66C120.639 1.845 118.644 0.644999 116.079 0.644999C114.804 0.644999 113.664 0.945 112.839 1.47C111.594 2.19 111.144 3.75 111.864 4.905C112.029 5.175 112.254 5.415 112.524 5.64V7.455H109.479V9.045H122.679ZM116.139 9.495C113.514 9.495 111.654 10.665 111.654 12.42C111.654 14.175 113.514 15.345 116.139 15.345C118.764 15.345 120.624 14.175 120.624 12.42C120.624 10.665 118.764 9.495 116.139 9.495ZM116.079 2.235C117.474 2.235 118.629 2.82 118.629 3.66C118.629 4.5 117.474 5.085 116.079 5.085C114.684 5.085 113.529 4.5 113.529 3.66C113.529 2.82 114.684 2.235 116.079 2.235ZM116.139 13.755C114.519 13.755 113.664 13.215 113.664 12.42C113.664 11.625 114.519 11.085 116.139 11.085C117.759 11.085 118.614 11.625 118.614 12.42C118.614 13.215 117.759 13.755 116.139 13.755ZM116.079 6.675C116.619 6.675 117.129 6.63 117.624 6.525V7.455H114.534V6.525C115.014 6.63 115.524 6.675 116.079 6.675ZM135.524 14.715V9.66H124.934V11.37H133.514V14.715H135.524ZM135.554 9.06V7.41H137.144V5.7H135.554V4.26H137.144V2.55H135.554V1.215H133.544V9.06H135.554ZM127.769 1.08C125.534 1.08 123.749 2.64 123.749 4.86C123.749 7.08 125.534 8.64 127.769 8.64C130.004 8.64 131.789 7.08 131.789 4.86C131.789 2.64 130.004 1.08 127.769 1.08ZM127.769 6.93C126.524 6.93 125.759 6.105 125.759 4.86C125.759 3.615 126.524 2.79 127.769 2.79C129.014 2.79 129.779 3.615 129.779 4.86C129.779 6.105 129.014 6.93 127.769 6.93ZM139.399 10.275V14.4H150.214V12.69H141.409V10.275H139.399ZM149.794 11.22V6.69H151.294V4.95H149.794V1.215H147.784V11.22H149.794ZM147.244 9.405V7.755L142.549 7.815V4.95H140.509V7.845L137.644 7.875V9.555L147.244 9.405ZM146.029 7.005C146.374 5.565 146.509 3.81 146.509 1.515H138.229V3.195H144.439C144.439 4.17 144.334 5.565 144.049 7.005H146.029Z" fill="#242D3C"/>
</svg>
