<svg width="294" height="405" viewBox="0 0 294 405" fill="none" xmlns="http://www.w3.org/2000/svg">
<path d="M222.393 199.983C227.489 197.86 226.993 188.129 226.109 183.529L230.354 182.467L231.947 201.044C226.639 201.575 217.298 202.106 222.393 199.983Z" fill="#242D3C" stroke="#242D3C" stroke-linecap="round" stroke-linejoin="round"/>
<path d="M271.552 208.508C284.153 212.84 288.091 196.3 272.733 195.907C269.583 195.513 265.418 192.329 269.582 180.942C273.877 169.198 262.275 166.013 256.893 166.013L255.8 185.274V191.969L249.105 201.026L228.628 199.451C225.084 196.694 217.759 193.859 216.814 204.57C215.869 215.282 227.446 214.021 233.353 212.052C239.339 218.983 250.812 214.94 255.8 212.052C267.456 218.983 270.764 211.79 271.552 208.508Z" fill="#242D3C" stroke="#242D3C" stroke-linecap="round" stroke-linejoin="round"/>
<path d="M237.236 209.689C229.675 209.059 228.31 190.525 227.785 182.124L240.387 179.367L248.263 178.579L259.289 186.849L256.139 193.15C258.633 192.756 263.227 192.992 261.652 197.088C260.077 201.183 256.007 200.37 254.17 199.451C251.807 203.52 244.797 210.32 237.236 209.689Z" fill="white"/>
<path d="M211.492 176.946C209.601 166.864 218.997 168.297 223.985 170.791C226.61 162.784 245.746 147.967 259.016 168.136L264.803 181.278L265.985 188.424L260.865 200.238C261.18 196.143 258.109 193.543 256.533 192.756C255.746 194.462 253.934 198.19 252.989 199.45C252.044 200.711 253.383 194.462 254.171 191.181C252.28 190.236 249.69 184.297 249.296 181.278C237.482 184.034 213.382 187.027 211.492 176.946Z" fill="#242D3C" stroke="#242D3C" stroke-linecap="round" stroke-linejoin="round"/>
<path d="M228.179 184.486C228.704 192.887 229.676 209.059 237.237 209.689C244.798 210.319 251.807 203.52 254.17 199.451C256.008 200.37 260.077 201.183 261.652 197.088C263.227 192.992 258.633 192.756 256.139 193.15L259.289 186.849" stroke="#242D3C" stroke-linecap="round" stroke-linejoin="round"/>
<path d="M230.543 185.668C236.844 183.699 240.624 183.856 239.994 189.212C239.623 192.363 237.631 195.513 236.056 197.482" stroke="#242D3C" stroke-linecap="round" stroke-linejoin="round"/>
<path d="M232.551 189.606C232.42 190.787 232.551 193.15 234.126 193.15C235.701 193.15 236.62 191.312 236.883 190.393" stroke="#242D3C" stroke-linecap="round" stroke-linejoin="round"/>
<path d="M244.365 191.181C244.233 192.362 244.365 194.725 245.94 194.725C247.515 194.725 248.434 192.887 248.696 191.969" stroke="#242D3C" stroke-linecap="round" stroke-linejoin="round"/>
<path d="M235.741 199.844C235.348 202.47 236.214 206.618 242.83 202.207" stroke="#242D3C" stroke-linecap="round" stroke-linejoin="round"/>
<path d="M243.538 187.243C245.77 186.455 250.469 185.904 251.414 190" stroke="#242D3C" stroke-linecap="round" stroke-linejoin="round"/>
<path d="M221.46 201.753C221.246 201.383 220.771 201.255 220.401 201.47C220.03 201.684 219.903 202.158 220.117 202.529L232.364 223.741C232.578 224.112 233.052 224.239 233.423 224.025C233.794 223.811 233.921 223.337 233.707 222.966L221.46 201.753Z" fill="#242D3C" stroke="white" stroke-linecap="round"/>
<path d="M219.365 195.839L218.18 194.772C217.1 193.799 215.407 194.777 215.709 196.198L216.041 197.758C216.086 197.97 215.989 198.187 215.802 198.295L214.421 199.092C213.162 199.819 213.569 201.731 215.014 201.883L216.6 202.05C216.815 202.072 216.991 202.231 217.037 202.443L217.368 204.003C217.67 205.424 219.615 205.629 220.206 204.301L220.854 202.844C220.942 202.646 221.148 202.528 221.363 202.55L222.949 202.717C224.394 202.869 225.189 201.083 224.11 200.111L222.925 199.044C222.764 198.899 222.714 198.667 222.802 198.469L223.451 197.012C224.042 195.685 222.589 194.376 221.331 195.103L219.95 195.9C219.762 196.008 219.526 195.984 219.365 195.839Z" fill="white" stroke="white"/>
<path d="M220.788 202.141L233.035 223.353" stroke="#242D3C" stroke-linecap="round"/>
<path d="M217.511 195.515L218.696 196.582C219.179 197.017 219.887 197.091 220.45 196.766L221.831 195.969C222.25 195.727 222.734 196.163 222.537 196.605L221.889 198.062C221.624 198.656 221.772 199.352 222.255 199.787L223.44 200.854C223.8 201.178 223.535 201.773 223.054 201.723L221.468 201.556C220.821 201.488 220.205 201.844 219.941 202.438L219.292 203.894C219.095 204.337 218.447 204.269 218.346 203.795L218.015 202.235C217.88 201.6 217.351 201.123 216.704 201.055L215.118 200.889C214.637 200.838 214.501 200.2 214.921 199.958L216.302 199.161C216.864 198.836 217.154 198.186 217.019 197.55L216.687 195.99C216.587 195.517 217.151 195.191 217.511 195.515Z" fill="white" stroke="#242D3C"/>
<path d="M254.771 213.416C258.495 201.608 268.394 187.247 285.816 194.274C301.844 200.739 285.405 201.689 275.211 200.473C287.043 204.506 284.089 208.123 267.574 207.086C275.848 207.849 285.814 213.935 254.771 213.416Z" fill="white"/>
<path d="M254.771 213.416C258.495 201.608 268.394 187.247 285.816 194.274C301.844 200.739 285.405 201.689 275.211 200.473C287.268 204.583 283.971 208.26 266.617 207.022C275.008 207.364 287.025 213.955 254.771 213.416Z" stroke="#242D3C" stroke-linecap="round" stroke-linejoin="round"/>
<path d="M249.711 237.646C245.674 213.127 229.923 201.069 272.68 215.525C270.93 226.914 269.1 237.646 249.711 237.646Z" fill="white" stroke="#242D3C" stroke-linecap="round" stroke-linejoin="round"/>
<path d="M269.824 204.269C270.094 203.856 269.978 203.302 269.565 203.031M269.824 204.269L269.565 203.031M269.824 204.269C265.863 210.326 258.571 213.325 255.663 214.522M269.824 204.269L255.663 214.522M269.565 203.031C269.152 202.761 268.598 202.877 268.328 203.29C264.691 208.852 257.875 211.679 254.938 212.887C254.481 213.075 254.263 213.597 254.451 214.054C254.639 214.51 255.161 214.728 255.618 214.54L255.638 214.532L255.663 214.522M269.565 203.031L255.663 214.522" fill="#242D3C" stroke="white" stroke-linecap="round" stroke-linejoin="round"/>
<path d="M255.278 213.714C258.185 212.518 265.267 209.605 269.076 203.78" stroke="#242D3C" stroke-linecap="round" stroke-linejoin="round"/>
<path d="M244.326 216.382C241.465 216.976 234.782 217.808 230.937 216.382" stroke="#242D3C" stroke-linecap="round" stroke-linejoin="round"/>
<circle cx="228.575" cy="215.594" r="1.8628" fill="white" stroke="#242D3C"/>
<path d="M271.894 221.107C274.215 221.737 279.455 222.997 281.842 222.997L284.495 225.833" stroke="#242D3C" stroke-linecap="round" stroke-linejoin="round"/>
<path d="M269.53 228.195C272.028 229.114 277.636 230.952 280.088 230.952L282.132 233.709" stroke="#242D3C" stroke-linecap="round" stroke-linejoin="round"/>
<path d="M257.423 167.075C257.6 165.837 258.379 163.253 260.077 162.829" stroke="#242D3C" stroke-linecap="round"/>
<path d="M207 196.267L211.246 197.86" stroke="#242D3C" stroke-linecap="round" stroke-linejoin="round"/>
<path d="M210.715 190.429L213.369 193.083" stroke="#242D3C" stroke-linecap="round" stroke-linejoin="round"/>
<path d="M216.023 187.775L217.085 190.96" stroke="#242D3C" stroke-linecap="round" stroke-linejoin="round"/>
<mask id="mask0_245_16" style="mask-type:alpha" maskUnits="userSpaceOnUse" x="0" y="163" width="280" height="242">
<rect y="163" width="280" height="242" fill="#D9D9D9"/>
</mask>
<g mask="url(#mask0_245_16)">
<path d="M240.5 316.671C250.5 316.671 254.281 321.627 257.161 326C258.121 321.627 258 312.939 265.801 312.006" stroke="#242D3C" stroke-linecap="round" stroke-linejoin="round"/>
<path d="M0 176.401C64.2927 166.108 108.242 180.107 111.313 205.909C115.151 238.162 96.9188 233.358 96.9188 225.81C96.9188 218.261 109.394 190.126 145.858 190.812C182.323 191.498 233.181 239.535 257.171 325.313" stroke="#242D3C" stroke-linecap="round" stroke-linejoin="round"/>
<path d="M257.959 339C257.959 341.653 256.368 347.043 250 347.378C252.932 347.099 258.797 348.132 258.797 354.5C258.658 351.707 259.635 346.54 266.338 346.54C263.111 346.1 257.959 345.703 257.959 339Z" stroke="#242D3C" stroke-linejoin="round"/>
</g>
<path d="M48.4 58.42V51.38H34.44V58.42H48.4ZM50.24 49.74V47.5H47.82C47.98 46.76 48.14 45.9 48.28 44.92C48.46 43.72 48.56 42.38 48.6 40.9H34.26V43.14H45.84C45.8 44.1 45.64 45.4 45.36 46.72L45.18 47.5H32.64V49.74H50.24ZM37.12 53.58H45.72V56.18H37.12V53.58ZM64.5067 55.08V52.84L55.4067 53.22V49.36H62.1267V41.2H52.7267V43.48H59.4467V47.1H52.7267V55.7L64.5067 55.08ZM67.9867 58.54V40.62H65.3067V58.54H67.9867ZM89.9759 40.94V43.08H81.5759V40.94H78.8959V49.5H92.6559V40.94H89.9759ZM87.1359 58.54V53.22H94.5759V50.94H76.9759V53.22H84.4159V58.54H87.1359ZM81.5759 47.2V45.32H89.9759V47.2H81.5759ZM106.583 43.44V41.2H96.6627V49.82L108.263 49.28V47.04L99.3427 47.34V43.44H106.583ZM111.743 50.48V46.4H113.863V44.08H111.743V40.62H109.063V50.48H111.743ZM98.1827 51.28V58.42H111.703V51.28H98.1827ZM100.863 53.52H109.023V56.14H100.863V53.52ZM131.269 49.9V40.62H128.589V44.06H125.649C125.589 43.78 125.489 43.5 125.369 43.24C124.589 41.48 122.729 40.36 120.529 40.36C117.569 40.36 115.289 42.36 115.289 45.16C115.289 47.96 117.569 49.96 120.529 49.96C122.729 49.96 124.589 48.82 125.369 47.1C125.469 46.86 125.569 46.6 125.629 46.34H128.589V49.9H131.269ZM124.509 58.42V57.42L125.789 58.78C126.289 58.44 126.809 58.02 127.309 57.48C127.809 56.96 128.289 56.36 128.709 55.68L128.869 55.92C129.709 57.18 130.869 58.18 131.949 58.7L133.389 56.8C132.529 56.42 131.749 55.94 131.069 55.36C130.509 54.88 130.049 54.28 129.669 53.58L129.749 53.36C130.009 52.52 130.169 51.62 130.189 50.66H127.549C127.489 52.24 127.149 53.54 126.529 54.56C125.989 55.46 125.329 56.18 124.509 56.76V50.7H121.909V52.48H119.829V50.7H117.229V58.42H124.509ZM120.529 47.76C118.929 47.76 117.969 46.7 117.969 45.16C117.969 43.62 118.929 42.56 120.529 42.56C122.129 42.56 123.089 43.62 123.089 45.16C123.089 46.7 122.129 47.76 120.529 47.76ZM121.909 56.18H119.829V54.6H121.909V56.18ZM149.516 45.24H138.236V40.7H135.556V47.5H149.516V45.24ZM151.236 51.62V49.38H133.636V51.62H151.236ZM135.636 52.62V58.34H150.016V56.06H138.316V52.62H135.636Z" fill="#999999"/>
<path d="M33.74 79.76C35.44 79.14 37.22 78.14 38.52 76.78L38.82 76.46L39.08 76.74C40.42 78.04 42.18 78.96 43.88 79.24L45.28 77.14C43.38 76.74 41.74 76.16 40.54 75.04C40.38 74.88 40.24 74.72 40.1 74.54L40.14 74.44C40.28 74.14 40.4 73.82 40.5 73.48H44.72V71.28H33.36V73.48H37.64L37.52 73.78C36.62 75.7 34.8 76.88 32.16 77.78L33.74 79.76ZM48.68 86.62V80.28H34.56V82.48H46V86.62H48.68ZM48.72 79.48V75.3H50.84V72.98H48.72V68.62H46.04V79.48H48.72ZM42.4 70.4V68.2H35.68V70.4H42.4ZM61.2067 70.24V68.2H54.2067V70.24H61.2067ZM63.8067 72.96V70.92H51.6067V72.96H63.8067ZM57.8667 73.38C54.7267 73.38 52.7867 74.72 52.7867 76.7C52.7867 78.68 54.7267 80.02 57.8667 80.02C61.0067 80.02 62.9467 78.68 62.9467 76.7C62.9467 74.72 61.0067 73.38 57.8667 73.38ZM57.8667 78.06C56.2067 78.06 55.4267 77.52 55.4267 76.7C55.4267 75.88 56.2067 75.34 57.8667 75.34C59.5267 75.34 60.3067 75.88 60.3067 76.7C60.3067 77.52 59.5267 78.06 57.8667 78.06ZM67.6067 82.12V76.1H69.7267V73.78H67.6067V68.62H64.9267V82.12H67.6067ZM54.1467 80.98V86.34H68.1867V84.06H56.8267V80.98H54.1467ZM87.0759 86.08H89.6759V77.24H91.2359V86.52H93.8759V68.62H91.2359V74.92H89.6759V68.82H87.0759V86.08ZM78.0559 69.46V83.38L86.2759 82.9V80.66L80.6959 80.9V71.74H85.5359V69.46H78.0559ZM113.463 78.5V76.58H95.8627V78.5H103.303V79.42H97.6627V81.34H108.943V82.02H97.6627V86.42H112.043V84.48H100.343V83.78H111.623V79.42H106.023V78.5H113.463ZM97.5427 76.14C99.5427 76.06 101.763 75.72 103.563 74.96C103.923 74.8 104.263 74.62 104.583 74.44C104.923 74.66 105.283 74.86 105.683 75.04C107.403 75.78 109.603 76.08 111.683 76L112.843 74.04C110.443 74 108.383 73.88 106.823 73.24L106.203 72.94C106.223 72.88 106.263 72.84 106.303 72.78H111.683V70.78H97.5627V72.78H103.023C102.663 73.04 102.223 73.24 101.703 73.4C100.363 73.82 98.5427 74.02 96.4627 74.12L97.5427 76.14ZM108.543 68.22H100.703V70.22H108.543V68.22Z" fill="#242D3C"/>
<path d="M32.528 6.92C32.528 10.888 35.008 13.304 37.76 13.304C40.512 13.304 42.992 10.888 42.992 6.92C42.992 2.952 40.512 0.535999 37.76 0.535999C35.008 0.535999 32.528 2.952 32.528 6.92ZM40.912 6.92C40.912 9.8 39.376 11.544 37.76 11.544C36.144 11.544 34.608 9.8 34.608 6.92C34.608 4.04 36.144 2.296 37.76 2.296C39.376 2.296 40.912 4.04 40.912 6.92ZM49.9476 8.184H46.5876L49.9476 4.2V8.184ZM43.7556 9.944H49.9476V13H52.0276V9.944H53.7876V8.184H52.0276V0.839999H50.3476L43.7556 8.6V9.944Z" fill="#D7191F"/>
<path d="M41.42 116.9V111.092H43.16V110.276H41.42V106.196H40.508V116.9H41.42ZM38.444 110.324H33.908V107.372H38.612V106.58H32.996V115.124L39.86 114.74V113.96L33.908 114.26V111.116H38.444V110.324ZM51.12 114.296C50.316 113.78 49.608 113.144 48.984 112.4C48.396 111.692 47.916 110.96 47.556 110.192C47.628 109.94 47.7 109.676 47.76 109.412C47.952 108.536 48.048 107.576 48.048 106.532H47.112C47.076 110.336 45.708 113.084 43.368 114.68L43.98 115.316C45.192 114.416 46.224 113.252 46.932 111.812C47.028 111.608 47.124 111.416 47.208 111.212C47.328 111.44 47.46 111.656 47.616 111.884C48.396 113.084 49.464 114.248 50.496 114.992L51.12 114.296ZM52.872 116.9V111.092H54.612V110.276H52.872V106.196H51.96V116.9H52.872ZM66.4376 114.332C65.6456 113.816 64.9256 113.204 64.2896 112.496C63.6656 111.8 63.1736 111.056 62.8256 110.264C62.8736 110.108 62.9216 109.952 62.9576 109.784C63.1496 109.064 63.2696 108.284 63.3176 107.444H65.9336V106.652H59.2976V107.444H62.3576C62.2976 108.2 62.1896 108.908 62.0216 109.568C61.4456 111.884 60.2336 113.612 58.6376 114.728L59.2496 115.364C60.3896 114.512 61.3736 113.432 62.0936 112.052C62.2256 111.8 62.3576 111.536 62.4656 111.26C62.5976 111.512 62.7536 111.752 62.9096 111.992C63.7256 113.192 64.7816 114.296 65.8256 115.04L66.4376 114.332ZM68.1416 116.9V111.092H69.8816V110.276H68.1416V106.196H67.2296V116.9H68.1416ZM75.6456 112.556C73.6536 112.556 72.1176 113.48 72.1176 114.956C72.1176 116.432 73.6536 117.356 75.6456 117.356C77.6376 117.356 79.1736 116.432 79.1736 114.956C79.1736 113.48 77.6376 112.556 75.6456 112.556ZM79.7736 109.232H72.4416V107.132H79.6296V106.388H71.5296V109.988H75.1896V111.14H70.3416V111.908H80.8536V111.14H76.1256V109.988H79.7736V109.232ZM75.6456 116.588C74.1816 116.588 73.0296 115.964 73.0296 114.956C73.0296 113.948 74.1816 113.324 75.6456 113.324C77.1096 113.324 78.2616 113.948 78.2616 114.956C78.2616 115.964 77.1096 116.588 75.6456 116.588ZM89.1376 114.572C88.3096 114.116 87.5896 113.552 86.9536 112.868C86.3896 112.268 85.9456 111.62 85.6216 110.924C85.8016 110.36 85.9216 109.772 85.9816 109.136H88.5856V108.344H82.0816V109.136H85.0096C84.9616 109.712 84.8656 110.252 84.7096 110.744C84.1096 112.652 82.8736 114.02 81.3496 114.896L81.9256 115.532C82.9336 114.92 83.9296 114.032 84.6856 112.88C84.8896 112.556 85.0816 112.22 85.2496 111.848C85.3696 112.052 85.5016 112.244 85.6336 112.448C86.4256 113.564 87.4456 114.596 88.5376 115.292L89.1376 114.572ZM90.8056 116.9V111.272H92.5456V110.456H90.8056V106.196H89.8936V116.9H90.8056ZM87.2176 107.084V106.292H83.4976V107.084H87.2176ZM98.6097 116.9V112.34H103.518V111.548H101.838C101.97 110.876 102.09 110.168 102.198 109.412C102.318 108.548 102.402 107.588 102.438 106.532H94.0257V107.324H101.502C101.466 108.056 101.382 108.8 101.274 109.58C101.166 110.252 101.058 110.912 100.926 111.548H93.0057V112.34H97.6737V116.9H98.6097ZM104.974 106.724V114.836H109.402V106.724H104.974ZM111.634 116.6V111.032H113.302V116.888H114.214V106.196H113.302V110.216H111.634V106.316H110.734V116.6H111.634ZM108.502 114.044H105.874V107.516H108.502V114.044ZM123.098 114.332C122.306 113.816 121.586 113.204 120.95 112.496C120.326 111.8 119.834 111.056 119.486 110.264C119.534 110.108 119.582 109.952 119.618 109.784C119.81 109.064 119.93 108.284 119.978 107.444H122.594V106.652H115.958V107.444H119.018C118.958 108.2 118.85 108.908 118.682 109.568C118.106 111.884 116.894 113.612 115.298 114.728L115.91 115.364C117.05 114.512 118.034 113.432 118.754 112.052C118.886 111.8 119.018 111.536 119.126 111.26C119.258 111.512 119.414 111.752 119.57 111.992C120.386 113.192 121.442 114.296 122.486 115.04L123.098 114.332ZM124.802 116.9V111.092H126.542V110.276H124.802V106.196H123.89V116.9H124.802ZM128.13 112.868V116.828H136.362V112.868H128.13ZM127.002 110.576V111.368H137.514V110.576H135.966C136.074 110.048 136.17 109.484 136.242 108.872C136.326 108.14 136.398 107.312 136.434 106.388H128.022V107.156H135.498C135.462 107.78 135.402 108.404 135.33 109.016C135.27 109.532 135.186 110.048 135.066 110.576H127.002ZM135.45 113.636V116.036H129.042V113.636H135.45ZM145.57 116.6V111.032H147.298V116.888H148.21V106.196H147.298V110.216H145.57V106.316H144.67V116.6H145.57ZM139.03 106.724V114.956L144.07 114.668V113.888L139.93 114.068V107.516H143.326V106.724H139.03ZM159.278 116.828V116.072H151.706V115.16H159.026V112.82H155.45V111.92H160.178V111.176H149.666V111.92H154.514V112.82H150.794V113.564H158.114V114.428H150.794V116.828H159.278ZM159.71 109.772C158.33 109.7 157.022 109.448 156.038 108.944C155.798 108.824 155.582 108.68 155.39 108.524C155.45 108.416 155.498 108.32 155.534 108.212H159.062V107.468H150.734V108.212H154.502C154.406 108.392 154.274 108.548 154.106 108.692C153.242 109.412 151.682 109.796 150.11 109.868L150.506 110.588C151.766 110.528 153.518 110.156 154.61 109.352L154.91 109.112C155.15 109.292 155.414 109.46 155.702 109.604C156.794 110.144 158.138 110.456 159.302 110.504L159.71 109.772ZM157.178 106.052H152.618V106.796H157.178V106.052ZM171.055 112.052C169.027 112.052 167.647 113.12 167.647 114.584C167.647 116.048 169.027 117.116 171.055 117.116C173.059 117.116 174.463 116.048 174.463 114.584C174.463 113.12 173.059 112.052 171.055 112.052ZM171.055 116.324C169.471 116.324 168.559 115.592 168.559 114.584C168.559 113.576 169.471 112.844 171.055 112.844C172.639 112.844 173.551 113.576 173.551 114.584C173.551 115.592 172.639 116.324 171.055 116.324ZM172.255 110.684C171.499 110.432 170.791 110.06 170.143 109.58C169.627 109.196 169.195 108.752 168.871 108.248L168.907 108.14C169.147 107.576 169.279 107 169.315 106.388H168.379C168.187 108.5 166.783 110.324 164.647 111.188L165.175 111.848C166.231 111.404 167.227 110.636 167.983 109.688C168.163 109.46 168.331 109.22 168.487 108.968C168.595 109.1 168.703 109.244 168.823 109.376C169.603 110.252 170.683 111.032 171.727 111.416L172.255 110.684ZM174.319 112.16V109.352H175.795V108.536H174.319V106.196H173.407V112.16H174.319ZM177.395 113.42V116.828H185.627V113.42H181.991V112.268H186.779V111.476H176.267V112.268H181.055V113.42H177.395ZM177.311 106.388V107.156H178.679L178.763 109.688H176.975V110.468H186.059V109.688H184.259L184.343 107.156H185.723V106.388H177.311ZM184.715 114.188V116.036H178.307V114.188H184.715ZM179.591 107.156H183.431L183.347 109.688H179.675L179.591 107.156ZM198.773 116.6V111.032H200.501V116.888H201.413V106.196H200.501V110.216H198.773V106.316H197.873V116.6H198.773ZM192.233 106.724V114.956L197.273 114.668V113.888L193.133 114.068V107.516H196.529V106.724H192.233ZM208.233 106.532V109.652H204.549V106.532H203.637V114.884H209.145V106.532H208.233ZM204.549 114.092V110.444H208.233V114.092H204.549ZM212.481 116.9V106.196H211.569V116.9H212.481ZM40.808 126.412V128.02H34.508V126.412H33.596V131.308H41.72V126.412H40.808ZM38.132 136.9V133.396H42.92V132.604H32.408V133.396H37.196V136.9H38.132ZM34.508 130.516V128.812H40.808V130.516H34.508ZM53.004 132.208V129.352H54.48V128.536H53.004V126.196H52.092V132.208H53.004ZM45.18 132.808V136.828H52.98V132.808H45.18ZM46.092 133.576H52.068V136.036H46.092V133.576ZM44.268 126.568V131.572L51.372 131.236V130.456L45.18 130.708V127.36H49.908V126.568H44.268ZM58.4921 126.112C56.8121 126.112 55.4441 127.276 55.4441 128.908C55.4441 130.54 56.8121 131.704 58.4921 131.704C59.7641 131.704 60.8321 131.044 61.3001 130.036C61.4081 129.808 61.4801 129.556 61.5161 129.292H63.8081V131.86H64.7201V126.196H63.8081V128.5H61.5041C61.4681 128.248 61.4081 128.008 61.3001 127.78C60.8321 126.772 59.7641 126.112 58.4921 126.112ZM61.3241 136.96C62.0081 136.564 62.6681 135.928 63.1361 135.16L63.2441 134.968C63.4961 135.292 63.7601 135.604 64.0481 135.904C64.4681 136.312 64.9001 136.648 65.3561 136.9L65.9441 136.204C65.4401 135.952 64.9841 135.64 64.5641 135.268C64.1801 134.932 63.8681 134.548 63.6161 134.128L63.6881 133.888C63.8321 133.42 63.9041 132.928 63.9041 132.412H62.9681C62.9321 133.288 62.7281 134.068 62.3441 134.752C61.9721 135.412 61.4441 135.928 60.7841 136.276V132.412H59.8961V133.78H57.5201V132.412H56.6081V136.828H60.7841V136.372L61.3241 136.96ZM58.4921 130.936C57.2081 130.936 56.3561 130.096 56.3561 128.908C56.3561 127.72 57.2081 126.88 58.4921 126.88C59.7761 126.88 60.6281 127.72 60.6281 128.908C60.6281 130.096 59.7761 130.936 58.4921 130.936ZM57.5201 136.036V134.548H59.8961V136.036H57.5201ZM66.4041 131.68V132.472H76.9161V131.68H66.4041ZM76.1361 136.78V135.988H68.4921V133.372H67.5801V136.78H76.1361ZM67.5921 126.268V130.156H75.8361V129.376H68.5041V126.268H67.5921ZM87.3976 136.9V133.06H92.1856V132.268H81.6736V133.06H86.4616V136.9H87.3976ZM91.7536 130.36C90.7096 130.156 89.7976 129.82 89.0416 129.352C88.3696 128.932 87.8176 128.392 87.3856 127.732C87.5656 127.312 87.6736 126.856 87.6976 126.376H86.7376C86.5816 128.548 84.3976 129.988 81.9616 130.372L82.4536 131.092C83.6656 130.9 84.9616 130.348 85.9576 129.532C86.3416 129.208 86.6776 128.86 86.9536 128.464C87.4456 129.124 88.0096 129.652 88.6696 130.06C89.4616 130.552 90.3256 130.9 91.2736 131.104L91.7536 130.36ZM103.026 130.084C102.09 129.928 101.238 129.688 100.47 129.352C99.7257 129.028 99.1137 128.608 98.6337 128.092C98.7777 127.804 98.8857 127.492 98.9457 127.156H102.33V126.388H94.1937V127.156H97.9497C97.8537 127.564 97.6857 127.924 97.4577 128.248C96.6657 129.328 95.2257 129.964 93.4737 130.18L93.8697 130.9C94.9857 130.756 96.1857 130.348 97.1457 129.712C97.5537 129.436 97.9017 129.112 98.2017 128.752C98.4537 129.004 98.7297 129.232 99.0297 129.436C100.098 130.168 101.394 130.648 102.618 130.816L103.026 130.084ZM98.8497 134.98V132.592H103.518V131.8H93.0057V132.592H97.9137V134.98H98.8497ZM102.738 136.78V135.988H95.0937V133.612H94.1817V136.78H102.738ZM114.142 136.9V126.196H113.23V136.9H114.142ZM112.75 135.052V134.26L104.566 134.356V135.172L112.75 135.052ZM108.466 126.46C106.546 126.46 105.226 127.912 105.226 129.484C105.226 131.056 106.546 132.508 108.466 132.508C110.386 132.508 111.706 131.056 111.706 129.484C111.706 127.912 110.386 126.46 108.466 126.46ZM108.466 131.716C107.05 131.716 106.138 130.636 106.138 129.484C106.138 128.332 107.05 127.252 108.466 127.252C109.882 127.252 110.794 128.332 110.794 129.484C110.794 130.636 109.882 131.716 108.466 131.716ZM127.491 131.98C126.759 131.752 126.099 131.452 125.511 131.056C124.971 130.696 124.539 130.276 124.239 129.808C124.383 129.52 124.479 129.22 124.527 128.908H127.155V128.116H120.627V128.908H123.555C123.495 129.208 123.399 129.484 123.267 129.748C122.667 130.9 121.503 131.8 120.051 132.184L120.567 132.844C121.491 132.556 122.463 131.992 123.219 131.236C123.447 131.008 123.639 130.78 123.819 130.528C123.951 130.684 124.095 130.84 124.251 130.996C124.995 131.716 125.967 132.352 126.987 132.688L127.491 131.98ZM129.411 136.9V126.196H128.499V136.9H129.411ZM128.019 135.172V134.38L124.299 134.428V132.388H123.363V134.44L119.835 134.476V135.292L128.019 135.172ZM122.079 126.34V127.132H125.703V126.34H122.079ZM138.607 134.332C137.815 133.816 137.095 133.204 136.459 132.496C135.835 131.8 135.343 131.056 134.995 130.264C135.043 130.108 135.091 129.952 135.127 129.784C135.319 129.064 135.439 128.284 135.487 127.444H138.103V126.652H131.467V127.444H134.527C134.467 128.2 134.359 128.908 134.191 129.568C133.615 131.884 132.403 133.612 130.807 134.728L131.419 135.364C132.559 134.512 133.543 133.432 134.263 132.052C134.395 131.8 134.527 131.536 134.635 131.26C134.767 131.512 134.923 131.752 135.079 131.992C135.895 133.192 136.951 134.296 137.995 135.04L138.607 134.332ZM140.791 136.9V126.196H139.879V129.796H137.323V130.612H139.879V136.9H140.791ZM147.337 132.868V136.828H155.569V132.868H147.337ZM146.209 130.576V131.368H156.721V130.576H155.173C155.281 130.048 155.377 129.484 155.449 128.872C155.533 128.14 155.605 127.312 155.641 126.388H147.229V127.156H154.705C154.669 127.78 154.609 128.404 154.537 129.016C154.477 129.532 154.393 130.048 154.273 130.576H146.209ZM154.657 133.636V136.036H148.249V133.636H154.657ZM167.153 136.9V126.196H166.241V136.9H167.153ZM165.413 134.74V133.96L159.221 134.26V131.116H163.637V126.58H158.309V127.372H162.725V130.324H158.309V135.124L165.413 134.74ZM168.873 135.1V135.892H179.385V135.1H174.657V132.916H178.365V132.112H170.973V130.144H178.185V126.652H170.061V127.444H177.273V129.352H170.061V132.916H173.721V135.1H168.873ZM189.59 126.448V128.128H185.714V126.448H184.802V131.44H190.502V126.448H189.59ZM194.03 136.828V136.036H186.758V134.932H193.79V132.352H185.846V133.12H192.878V134.188H185.846V136.828H194.03ZM185.714 130.672V128.872H189.59V130.672H185.714ZM193.79 131.8V126.196H192.878V131.8H193.79ZM201.834 129.268V126.472H196.194V127.216H200.922V128.548H196.194V131.476L203.538 131.164V130.432L197.106 130.66V129.268H201.834ZM205.122 131.872V126.196H204.21V131.872H205.122ZM205.362 136.828V136.06H198.09V134.956H205.122V132.424H197.178V133.168H204.21V134.236H197.178V136.828H205.362ZM216.468 136.9V133.06H221.256V132.268H210.744V133.06H215.532V136.9H216.468ZM220.824 130.36C219.78 130.156 218.868 129.82 218.112 129.352C217.44 128.932 216.888 128.392 216.456 127.732C216.636 127.312 216.744 126.856 216.768 126.376H215.808C215.652 128.548 213.468 129.988 211.032 130.372L211.524 131.092C212.736 130.9 214.032 130.348 215.028 129.532C215.412 129.208 215.748 128.86 216.024 128.464C216.516 129.124 217.08 129.652 217.74 130.06C218.532 130.552 219.396 130.9 220.344 131.104L220.824 130.36ZM229.457 126.16C227.693 126.16 226.337 127.336 226.337 129.016C226.337 130.696 227.693 131.872 229.457 131.872C231.221 131.872 232.577 130.696 232.577 129.016C232.577 127.336 231.221 126.16 229.457 126.16ZM229.457 131.08C228.113 131.08 227.249 130.216 227.249 129.016C227.249 127.816 228.113 126.952 229.457 126.952C230.801 126.952 231.665 127.816 231.665 129.016C231.665 130.216 230.801 131.08 229.457 131.08ZM231.377 137.116C232.049 136.696 232.805 136.132 233.393 135.412C233.525 135.268 233.633 135.112 233.741 134.956C234.053 135.304 234.377 135.628 234.725 135.928C235.217 136.336 235.733 136.66 236.261 136.888L236.837 136.204C236.297 136 235.757 135.7 235.229 135.328C234.809 135.028 234.437 134.68 234.125 134.296L234.161 134.212C234.377 133.768 234.509 133.3 234.557 132.784H233.597C233.537 133.564 233.249 134.284 232.733 134.944C232.577 135.148 232.397 135.352 232.217 135.532C231.869 135.364 231.545 135.16 231.245 134.92C230.921 134.644 230.633 134.32 230.393 133.972C230.573 133.6 230.693 133.204 230.729 132.784H229.769C229.577 134.356 228.269 135.616 226.745 136.204L227.321 136.816C227.993 136.528 228.785 136 229.445 135.316C229.649 135.1 229.829 134.872 229.997 134.632C230.201 134.908 230.429 135.172 230.669 135.4C230.945 135.664 231.245 135.892 231.545 136.084C231.293 136.264 231.029 136.42 230.753 136.576L231.377 137.116ZM235.661 132.208V126.196H234.749V132.208H235.661ZM241.018 126.7C239.098 126.7 237.622 128.164 237.622 130.324C237.622 132.496 239.098 133.96 241.018 133.96C242.446 133.96 243.658 133.132 244.15 131.812C244.282 131.476 244.366 131.104 244.402 130.708H246.166V136.9H247.078V126.196H246.166V129.892H244.39C244.354 129.52 244.282 129.172 244.15 128.848C243.658 127.528 242.446 126.7 241.018 126.7ZM241.018 127.516C242.446 127.516 243.478 128.584 243.478 130.312C243.478 132.004 242.518 133.144 241.018 133.144C239.518 133.144 238.558 132.004 238.558 130.312C238.558 128.584 239.59 127.516 241.018 127.516ZM253.922 126.172C251.582 126.172 250.01 127.696 250.01 129.424C250.01 131.152 251.582 132.676 253.922 132.676C256.262 132.676 257.834 131.152 257.834 129.424C257.834 127.696 256.262 126.172 253.922 126.172ZM253.922 131.884C252.074 131.884 250.922 130.744 250.922 129.424C250.922 128.104 252.074 126.964 253.922 126.964C255.77 126.964 256.922 128.104 256.922 129.424C256.922 130.744 255.77 131.884 253.922 131.884ZM248.678 135.1V135.892H259.19V135.1H256.826V132.832H255.902V135.1H252.002V132.832H251.078V135.1H248.678ZM260.214 136.6H261.366V135.448H260.214V136.6Z" fill="#999999"/>
<path d="M141.5 354H145.476L158.076 332.72H154.212L141.5 354ZM149.116 337.592C149.116 334.372 146.876 332.188 143.824 332.188C140.772 332.188 138.532 334.372 138.532 337.592C138.532 340.812 140.772 342.996 143.824 342.996C146.876 342.996 149.116 340.812 149.116 337.592ZM145.532 337.592C145.532 339.076 144.832 339.916 143.824 339.916C142.816 339.916 142.116 339.076 142.116 337.592C142.116 336.108 142.816 335.268 143.824 335.268C144.832 335.268 145.532 336.108 145.532 337.592ZM161.324 349.128C161.324 345.908 159.084 343.724 156.032 343.724C152.98 343.724 150.74 345.908 150.74 349.128C150.74 352.348 152.98 354.532 156.032 354.532C159.084 354.532 161.324 352.348 161.324 349.128ZM157.74 349.128C157.74 350.612 157.04 351.452 156.032 351.452C155.024 351.452 154.324 350.612 154.324 349.128C154.324 347.644 155.024 346.804 156.032 346.804C157.04 346.804 157.74 347.644 157.74 349.128Z" fill="#D7191F"/>
<path d="M34.52 305.2H61.808L40.856 352H50.72L72.68 302.68V297.28H34.52V305.2ZM74.0986 357.184H84.1786V347.104H74.0986V357.184ZM85.6394 324.64C85.6394 342.496 96.7994 353.368 109.183 353.368C121.567 353.368 132.727 342.496 132.727 324.64C132.727 306.784 121.567 295.912 109.183 295.912C96.7994 295.912 85.6394 306.784 85.6394 324.64ZM123.367 324.64C123.367 337.6 116.455 345.448 109.183 345.448C101.911 345.448 94.9994 337.6 94.9994 324.64C94.9994 311.68 101.911 303.832 109.183 303.832C116.455 303.832 123.367 311.68 123.367 324.64Z" fill="#D7191F"/>
<path d="M35.7 278.96C37.3 278.4 38.98 277.42 40.28 276.08L40.68 275.66L40.98 276.02C42.22 277.34 43.88 278.22 45.62 278.54L47.02 276.52C45.12 276.16 43.56 275.6 42.42 274.38C42.24 274.2 42.08 273.98 41.94 273.76C42.06 273.5 42.16 273.24 42.26 272.98H46.26V270.74H35.18V272.98H39.46L39.38 273.14C38.46 274.98 36.58 276.3 34.16 277.02L35.7 278.96ZM50.42 285.54V267.62H47.74V285.54H50.42ZM47.14 283.02V280.78L42.04 280.84V277.96H39.32V280.88L33.94 280.94V283.22L47.14 283.02ZM37.6 267.7V269.94H43.84V267.7H37.6ZM53.8467 283.08C54.9267 282.26 55.8867 281.34 56.7467 280.3C57.4867 279.4 58.1467 278.44 58.6867 277.4L58.8067 277.62C60.0867 279.64 61.8667 281.5 63.6667 282.66L65.2867 280.7C62.7867 279.28 60.9467 277.3 59.8067 274.76C59.9867 274.18 60.1467 273.6 60.2867 272.98C60.4667 272.22 60.5867 271.44 60.6667 270.62H64.7067V268.34H53.2467V270.62H57.9267C57.8667 271.24 57.7667 271.86 57.6467 272.46C56.9267 276.16 55.1067 279.22 52.0467 281.22L53.8467 283.08ZM63.0067 275.62H66.7067V285.54H69.3867V267.62H66.7067V273.34H63.0067V275.62Z" fill="#242D3C"/>
</svg>
