<svg width="294" height="248" viewBox="0 0 294 248" fill="none" xmlns="http://www.w3.org/2000/svg">
<path d="M222.393 42.9829C227.489 40.8598 226.993 31.129 226.109 26.529L230.354 25.4674L231.947 44.0445C226.639 44.5752 217.298 45.106 222.393 42.9829Z" fill="#242D3C" stroke="#242D3C" stroke-linecap="round" stroke-linejoin="round"/>
<path d="M271.552 51.5082C284.153 55.84 288.091 39.3004 272.733 38.9066C269.583 38.5128 265.418 35.3285 269.582 23.9423C273.877 12.1981 262.275 9.01343 256.893 9.01343L255.8 28.2741V34.9687L249.105 44.026L228.628 42.4508C225.084 39.6942 217.759 36.8589 216.814 47.5702C215.869 58.2816 227.446 57.0214 233.353 55.0524C239.339 61.9833 250.812 57.9403 255.8 55.0524C267.456 61.9833 270.764 54.7899 271.552 51.5082Z" fill="#242D3C" stroke="#242D3C" stroke-linecap="round" stroke-linejoin="round"/>
<path d="M237.236 52.6895C229.675 52.0594 228.31 33.5246 227.785 25.1235L240.387 22.3669L248.263 21.5793L259.289 29.8491L256.139 36.1499C258.633 35.7561 263.227 35.9924 261.652 40.0879C260.077 44.1834 256.007 43.3696 254.17 42.4507C251.807 46.52 244.797 53.3196 237.236 52.6895Z" fill="white"/>
<path d="M211.492 19.9458C209.601 9.8645 218.997 11.2969 223.985 13.7909C226.61 5.7837 245.746 -9.03285 259.016 11.1361L264.803 24.2776L265.985 31.4241L260.865 43.2381C261.18 39.1426 258.109 36.5435 256.533 35.7559C255.746 37.4624 253.934 41.1903 252.989 42.4505C252.044 43.7106 253.383 37.4624 254.171 34.1807C252.28 33.2356 249.69 27.2967 249.296 24.2776C237.482 27.0342 213.382 30.027 211.492 19.9458Z" fill="#242D3C" stroke="#242D3C" stroke-linecap="round" stroke-linejoin="round"/>
<path d="M228.179 27.4863C228.704 35.8873 229.676 52.0593 237.237 52.6894C244.798 53.3195 251.807 46.5199 254.17 42.4506C256.008 43.3695 260.077 44.1834 261.652 40.0878C263.227 35.9923 258.633 35.756 256.139 36.1498L259.289 29.8491" stroke="#242D3C" stroke-linecap="round" stroke-linejoin="round"/>
<path d="M230.543 28.6678C236.844 26.6991 240.624 26.8565 239.994 32.2121C239.623 35.3625 237.631 38.5129 236.056 40.4819" stroke="#242D3C" stroke-linecap="round" stroke-linejoin="round"/>
<path d="M232.551 32.6058C232.42 33.7872 232.551 36.15 234.126 36.15C235.701 36.15 236.62 34.3123 236.883 33.3934" stroke="#242D3C" stroke-linecap="round" stroke-linejoin="round"/>
<path d="M244.365 34.181C244.233 35.3624 244.365 37.7252 245.94 37.7252C247.515 37.7252 248.434 35.8875 248.696 34.9686" stroke="#242D3C" stroke-linecap="round" stroke-linejoin="round"/>
<path d="M235.741 42.8445C235.348 45.4698 236.214 49.6178 242.83 45.2073" stroke="#242D3C" stroke-linecap="round" stroke-linejoin="round"/>
<path d="M243.538 30.243C245.77 29.4554 250.469 28.9041 251.414 32.9996" stroke="#242D3C" stroke-linecap="round" stroke-linejoin="round"/>
<path d="M221.46 44.7533C221.246 44.3825 220.771 44.2555 220.401 44.4695C220.03 44.6836 219.903 45.1577 220.117 45.5285L232.364 66.7411C232.578 67.1119 233.052 67.2389 233.423 67.0248C233.794 66.8108 233.921 66.3367 233.707 65.9659L221.46 44.7533Z" fill="#242D3C" stroke="white" stroke-linecap="round"/>
<path d="M219.365 38.8387L218.18 37.7717C217.1 36.7994 215.407 37.777 215.709 39.1983L216.041 40.758C216.086 40.9699 215.989 41.1867 215.802 41.295L214.421 42.0923C213.162 42.8188 213.569 44.7312 215.014 44.8831L216.6 45.0498C216.815 45.0724 216.991 45.2312 217.037 45.4431L217.368 47.0028C217.67 48.4242 219.615 48.6285 220.206 47.3011L220.854 45.8443C220.942 45.6465 221.148 45.5278 221.363 45.5504L222.949 45.7171C224.394 45.869 225.189 44.0829 224.11 43.1106L222.925 42.0436C222.764 41.8987 222.714 41.6666 222.802 41.4687L223.451 40.012C224.042 38.6845 222.589 37.3763 221.331 38.1028L219.95 38.9001C219.762 39.0084 219.526 38.9836 219.365 38.8387Z" fill="white" stroke="white"/>
<path d="M220.788 45.1407L233.035 66.3533" stroke="#242D3C" stroke-linecap="round"/>
<path d="M217.511 38.5149L218.696 39.5818C219.179 40.0167 219.887 40.0911 220.45 39.7662L221.831 38.9689C222.25 38.7267 222.734 39.1628 222.537 39.6052L221.889 41.062C221.624 41.6556 221.772 42.352 222.255 42.7868L223.44 43.8538C223.8 44.1779 223.535 44.7732 223.054 44.7226L221.468 44.5559C220.821 44.488 220.205 44.8439 219.941 45.4376L219.292 46.8943C219.095 47.3368 218.447 47.2687 218.346 46.7949L218.015 45.2352C217.88 44.5995 217.351 44.1232 216.704 44.0553L215.118 43.8886C214.637 43.838 214.501 43.2005 214.921 42.9583L216.302 42.161C216.864 41.8361 217.154 41.1858 217.019 40.5501L216.687 38.9904C216.587 38.5166 217.151 38.1908 217.511 38.5149Z" fill="white" stroke="#242D3C"/>
<path d="M254.771 56.4161C258.495 44.6079 268.394 30.2466 285.816 37.2742C301.844 43.7391 285.405 44.6888 275.211 43.4732C287.043 47.5061 284.089 51.1226 267.574 50.086C275.848 50.8489 285.814 56.9351 254.771 56.4161Z" fill="white"/>
<path d="M254.771 56.4161C258.495 44.6079 268.394 30.2466 285.816 37.2742C301.844 43.7391 285.405 44.6888 275.211 43.4732C287.268 47.5829 283.971 51.2601 266.617 50.0217C275.008 50.3644 287.025 56.9554 254.771 56.4161Z" stroke="#242D3C" stroke-linecap="round" stroke-linejoin="round"/>
<path d="M249.711 80.6464C245.674 56.1275 229.923 44.0687 272.68 58.5254C270.93 69.914 269.1 80.6464 249.711 80.6464Z" fill="white" stroke="#242D3C" stroke-linecap="round" stroke-linejoin="round"/>
<path d="M269.824 47.2687C270.094 46.8555 269.978 46.3016 269.565 46.0314M269.824 47.2687L269.565 46.0314M269.824 47.2687C265.863 53.3258 258.571 56.3252 255.663 57.5216M269.824 47.2687L255.663 57.5216M269.565 46.0314C269.152 45.7613 268.598 45.8772 268.328 46.2904C264.691 51.8516 257.875 54.6788 254.938 55.8869C254.481 56.0747 254.263 56.597 254.451 57.0535C254.639 57.51 255.161 57.7279 255.618 57.5401L255.638 57.5318L255.663 57.5216M269.565 46.0314L255.663 57.5216" fill="#242D3C" stroke="white" stroke-linecap="round" stroke-linejoin="round"/>
<path d="M255.278 56.7136C258.185 55.5176 265.267 52.6045 269.076 46.7796" stroke="#242D3C" stroke-linecap="round" stroke-linejoin="round"/>
<path d="M244.326 59.3816C241.465 59.9759 234.782 60.808 230.937 59.3816" stroke="#242D3C" stroke-linecap="round" stroke-linejoin="round"/>
<circle cx="228.575" cy="58.5939" r="1.8628" fill="white" stroke="#242D3C"/>
<path d="M271.894 64.1072C274.215 64.7373 279.455 65.9975 281.842 65.9975L284.495 68.8328" stroke="#242D3C" stroke-linecap="round" stroke-linejoin="round"/>
<path d="M269.53 71.1954C272.028 72.1143 277.636 73.952 280.088 73.952L282.132 76.7086" stroke="#242D3C" stroke-linecap="round" stroke-linejoin="round"/>
<path d="M257.423 10.075C257.6 8.83651 258.379 6.25341 260.077 5.8288" stroke="#242D3C" stroke-linecap="round"/>
<path d="M207 39.2675L211.246 40.8598" stroke="#242D3C" stroke-linecap="round" stroke-linejoin="round"/>
<path d="M210.715 33.429L213.369 36.0828" stroke="#242D3C" stroke-linecap="round" stroke-linejoin="round"/>
<path d="M216.023 30.7751L217.085 33.9597" stroke="#242D3C" stroke-linecap="round" stroke-linejoin="round"/>
<mask id="mask0_250_22" style="mask-type:alpha" maskUnits="userSpaceOnUse" x="0" y="6" width="280" height="242">
<rect y="6" width="280" height="242" fill="#D9D9D9"/>
</mask>
<g mask="url(#mask0_250_22)">
<path d="M240.5 159.671C250.5 159.671 254.281 164.627 257.161 169C258.121 164.627 258 155.939 265.801 155.006" stroke="#242D3C" stroke-linecap="round" stroke-linejoin="round"/>
<path d="M0 19.4011C64.2927 9.10776 108.242 23.1067 111.313 48.909C115.151 81.1619 96.9188 76.3583 96.9188 68.8097C96.9188 61.2612 109.394 33.1259 145.858 33.8121C182.323 34.4983 233.181 82.5345 257.171 168.313" stroke="#242D3C" stroke-linecap="round" stroke-linejoin="round"/>
<path d="M257.959 182C257.959 184.653 256.368 190.043 250 190.378C252.932 190.099 258.797 191.132 258.797 197.5C258.658 194.707 259.635 189.54 266.338 189.54C263.111 189.1 257.959 188.703 257.959 182Z" stroke="#242D3C" stroke-linejoin="round"/>
</g>
<path d="M141.5 197H145.476L158.076 175.72H154.212L141.5 197ZM149.116 180.592C149.116 177.372 146.876 175.188 143.824 175.188C140.772 175.188 138.532 177.372 138.532 180.592C138.532 183.812 140.772 185.996 143.824 185.996C146.876 185.996 149.116 183.812 149.116 180.592ZM145.532 180.592C145.532 182.076 144.832 182.916 143.824 182.916C142.816 182.916 142.116 182.076 142.116 180.592C142.116 179.108 142.816 178.268 143.824 178.268C144.832 178.268 145.532 179.108 145.532 180.592ZM161.324 192.128C161.324 188.908 159.084 186.724 156.032 186.724C152.98 186.724 150.74 188.908 150.74 192.128C150.74 195.348 152.98 197.532 156.032 197.532C159.084 197.532 161.324 195.348 161.324 192.128ZM157.74 192.128C157.74 193.612 157.04 194.452 156.032 194.452C155.024 194.452 154.324 193.612 154.324 192.128C154.324 190.644 155.024 189.804 156.032 189.804C157.04 189.804 157.74 190.644 157.74 192.128Z" fill="#D7191F"/>
<path d="M34.52 148.2H61.808L40.856 195H50.72L72.68 145.68V140.28H34.52V148.2ZM74.0986 200.184H84.1786V190.104H74.0986V200.184ZM85.6394 167.64C85.6394 185.496 96.7994 196.368 109.183 196.368C121.567 196.368 132.727 185.496 132.727 167.64C132.727 149.784 121.567 138.912 109.183 138.912C96.7994 138.912 85.6394 149.784 85.6394 167.64ZM123.367 167.64C123.367 180.6 116.455 188.448 109.183 188.448C101.911 188.448 94.9994 180.6 94.9994 167.64C94.9994 154.68 101.911 146.832 109.183 146.832C116.455 146.832 123.367 154.68 123.367 167.64Z" fill="#D7191F"/>
<path d="M35.7 121.96C37.3 121.4 38.98 120.42 40.28 119.08L40.68 118.66L40.98 119.02C42.22 120.34 43.88 121.22 45.62 121.54L47.02 119.52C45.12 119.16 43.56 118.6 42.42 117.38C42.24 117.2 42.08 116.98 41.94 116.76C42.06 116.5 42.16 116.24 42.26 115.98H46.26V113.74H35.18V115.98H39.46L39.38 116.14C38.46 117.98 36.58 119.3 34.16 120.02L35.7 121.96ZM50.42 128.54V110.62H47.74V128.54H50.42ZM47.14 126.02V123.78L42.04 123.84V120.96H39.32V123.88L33.94 123.94V126.22L47.14 126.02ZM37.6 110.7V112.94H43.84V110.7H37.6ZM53.8467 126.08C54.9267 125.26 55.8867 124.34 56.7467 123.3C57.4867 122.4 58.1467 121.44 58.6867 120.4L58.8067 120.62C60.0867 122.64 61.8667 124.5 63.6667 125.66L65.2867 123.7C62.7867 122.28 60.9467 120.3 59.8067 117.76C59.9867 117.18 60.1467 116.6 60.2867 115.98C60.4667 115.22 60.5867 114.44 60.6667 113.62H64.7067V111.34H53.2467V113.62H57.9267C57.8667 114.24 57.7667 114.86 57.6467 115.46C56.9267 119.16 55.1067 122.22 52.0467 124.22L53.8467 126.08ZM63.0067 118.62H66.7067V128.54H69.3867V110.62H66.7067V116.34H63.0067V118.62Z" fill="#242D3C"/>
</svg>
