<svg width="181" height="142" viewBox="0 0 181 142" fill="none" xmlns="http://www.w3.org/2000/svg">
<path d="M2.68 56.28C4.58 55.1 6.3 53.56 7.52 51.62L7.56 51.56C7.98 52.18 8.44 52.78 8.96 53.32C10 54.42 11.22 55.3 12.42 55.86L14 53.86C12.58 53.24 11.4 52.46 10.42 51.5C9.76 50.84 9.18 50.06 8.72 49.16C8.82 48.9 8.9 48.66 8.96 48.4C9.14 47.8 9.28 47.18 9.36 46.52H13.28V44.24H2.24V46.52H6.62C6.56 46.94 6.46 47.36 6.36 47.74C5.56 50.68 3.68 52.82 0.92 54.38L2.68 56.28ZM17.3 58.54V49.72H19.84V47.4H17.3V40.62H14.62V58.54H17.3ZM11.02 42.86V40.58H4.6V42.86H11.02ZM30.5667 50.62C27.2067 50.62 24.7867 52.34 24.7867 54.84C24.7867 57.34 27.2067 59.06 30.5667 59.06C33.9267 59.06 36.3467 57.34 36.3467 54.84C36.3467 52.34 33.9267 50.62 30.5667 50.62ZM32.9267 49.7V47.58L24.0067 47.88V46.52H31.2467V41.08H21.3267V43.24H28.5667V44.44H21.3267V50.24L32.9267 49.7ZM36.4067 40.62H33.7267V50.8H36.4067V48.48H38.5267V46.24H36.4067V44.68H38.5267V42.44H36.4067V40.62ZM30.5667 56.9C28.5667 56.9 27.4667 56.1 27.4667 54.84C27.4667 53.58 28.5667 52.78 30.5667 52.78C32.5667 52.78 33.6667 53.58 33.6667 54.84C33.6667 56.1 32.5667 56.9 30.5667 56.9ZM54.8734 58.54V49.52H57.4134V47.2H54.8734V40.62H52.1934V58.54H54.8734ZM40.2934 43.62H47.2934C46.9134 47.72 44.1334 51.84 39.4734 54.08L41.1934 55.98C46.1934 53.3 50.1934 48.3 50.1334 41.34H40.2934V43.62ZM59.5802 43.44H66.3802C65.7402 46.08 62.8002 48.24 58.4002 49.14L59.6602 51.22C64.5802 50.2 69.3602 46.84 69.3002 41.2H59.5802V43.44ZM74.7802 58.62V51.88H60.4602V54.16H72.1002V58.62H74.7802ZM69.6602 45.32H72.1402V46.88H69.0802V49.12H72.1402V51.08H74.8202V40.62H72.1402V43.08H69.6602V45.32ZM92.1094 41V43.42H87.4494V41H84.7694V50.04H94.7894V46.6H97.5894V50.68H100.269V40.62H97.5894V44.28H94.7894V41H92.1094ZM86.5094 51.48V58.42H100.229V51.48H86.5094ZM89.1894 53.72H97.5494V56.14H89.1894V53.72ZM87.4494 47.8V45.62H92.1094V47.8H87.4494ZM109.196 40.62C106.156 40.62 104.036 42.84 104.036 45.26C104.036 47.68 106.156 49.9 109.196 49.9C112.236 49.9 114.356 47.68 114.356 45.26C114.356 42.84 112.236 40.62 109.196 40.62ZM119.416 58.54V40.62H116.736V58.54H119.416ZM110.716 58.12V52.78L116.036 52.7V50.5L102.936 50.66V52.9L107.996 52.82V58.12H110.716ZM109.196 47.66C107.676 47.66 106.716 46.5 106.716 45.26C106.716 44.02 107.676 42.86 109.196 42.86C110.716 42.86 111.676 44.02 111.676 45.26C111.676 46.5 110.716 47.66 109.196 47.66ZM140.065 47.54C140.065 43.94 137.565 41.42 134.265 41.42C130.965 41.42 128.465 43.94 128.465 47.54C128.465 51.14 130.965 53.66 134.265 53.66C137.565 53.66 140.065 51.14 140.065 47.54ZM137.385 47.54C137.385 49.86 136.105 51.38 134.265 51.38C132.425 51.38 131.145 49.86 131.145 47.54C131.145 45.22 132.425 43.7 134.265 43.7C136.105 43.7 137.385 45.22 137.385 47.54ZM144.745 58.54V40.62H142.065V58.54H144.745ZM156.872 58.08H159.472V49.24H161.232V58.52H163.872V40.62H161.232V46.92H159.472V40.82H156.872V58.08ZM148.052 41.26V55.28L156.072 54.8V52.56L150.692 52.8V41.26H148.052Z" fill="#999999"/>
<path d="M3.7 79.96C5.3 79.4 6.98 78.42 8.28 77.08L8.68 76.66L8.98 77.02C10.22 78.34 11.88 79.22 13.62 79.54L15.02 77.52C13.12 77.16 11.56 76.6 10.42 75.38C10.24 75.2 10.08 74.98 9.94 74.76C10.06 74.5 10.16 74.24 10.26 73.98H14.26V71.74H3.18V73.98H7.46L7.38 74.14C6.46 75.98 4.58 77.3 2.16 78.02L3.7 79.96ZM18.42 86.54V68.62H15.74V86.54H18.42ZM15.14 84.02V81.78L10.04 81.84V78.96H7.32V81.88L1.94 81.94V84.22L15.14 84.02ZM5.6 68.7V70.94H11.84V68.7H5.6ZM30.6267 86.08H33.2267V77.24H34.7867V86.52H37.4267V68.62H34.7867V74.92H33.2267V68.82H30.6267V86.08ZM21.6067 69.46V83.38L29.8267 82.9V80.66L24.2467 80.9V71.74H29.0867V69.46H21.6067ZM51.4359 85.38C54.7159 85.38 56.9359 83 56.9359 80.06C56.9359 77.12 54.7159 74.72 51.4359 74.72C51.1959 74.72 50.9759 74.76 50.7159 74.82L53.4759 69.82H50.6759L46.8959 76.64C46.4159 77.52 45.9359 78.76 45.9359 79.86C45.9359 82.88 47.8959 85.38 51.4359 85.38ZM48.5359 80.06C48.5359 78.22 49.6559 76.92 51.4359 76.92C53.2159 76.92 54.3359 78.28 54.3359 80.06C54.3359 81.82 53.2159 83.18 51.4359 83.18C49.7159 83.18 48.5359 81.74 48.5359 80.06ZM70.57 77.54C68.65 77.14 67.05 76.5 65.89 75.3C65.73 75.14 65.57 74.96 65.43 74.76C65.45 74.68 65.49 74.6 65.53 74.54C65.67 74.2 65.79 73.84 65.89 73.48H69.97V71.28H58.81V73.48H63.05C62.77 74.32 62.33 75.06 61.75 75.68C60.77 76.74 59.39 77.58 57.61 78.18L59.19 80.16C60.93 79.54 62.67 78.44 63.95 77L64.19 76.74L64.43 77C65.75 78.38 67.45 79.36 69.17 79.64L70.57 77.54ZM69.17 76.3H71.93V82.12H74.61V68.62H71.93V74.1H69.17V76.3ZM60.95 80.78V86.34H75.19V84.06H63.63V80.78H60.95ZM67.85 70.4V68.2H61.13V70.4H67.85ZM92.6567 81.76V75.1H94.7767V72.78H92.6567V68.62H89.9767V81.76H92.6567ZM87.4967 78.54V69.2H77.4767V78.54H87.4967ZM80.1567 71.44H84.8167V76.3H80.1567V71.44ZM79.1967 80.22V86.34H93.2367V84.06H81.8767V80.22H79.1967ZM102.363 68.14C99.4034 68.14 97.2034 69.72 97.2034 72.08C97.2034 74.44 99.4034 76.02 102.363 76.02C105.323 76.02 107.523 74.44 107.523 72.08C107.523 69.72 105.323 68.14 102.363 68.14ZM105.883 81.5H109.883V82.52H112.563V68.62H109.883V79.46H105.883V81.5ZM98.5034 81.5V86.2H112.923V83.92H101.183V81.5H98.5034ZM103.603 81.08V78.78L109.063 78.7V76.58L95.9634 76.74V78.9L100.883 78.82V81.08H103.603ZM102.363 73.86C100.863 73.86 99.8834 73.14 99.8834 72.08C99.8834 71.02 100.863 70.3 102.363 70.3C103.823 70.3 104.843 71.02 104.843 72.08C104.843 73.14 103.823 73.86 102.363 73.86ZM115.23 71.62H118.19C118.09 75.06 117.01 78.64 114.13 81.56L116.07 83C119.29 79.52 120.93 75.38 120.87 69.34H115.23V71.62ZM121.43 71.62H124.19C124.09 75.44 123.07 79.52 119.99 82.76L121.97 84.24C125.33 80.44 126.93 75.88 126.87 69.34H121.43V71.62ZM130.61 86.54V77.72H132.75V75.4H130.61V68.62H128.01V86.54H130.61ZM134.757 84.08C135.837 83.26 136.797 82.34 137.657 81.3C138.397 80.4 139.057 79.44 139.597 78.4L139.717 78.62C140.997 80.64 142.777 82.5 144.577 83.66L146.197 81.7C143.697 80.28 141.857 78.3 140.717 75.76C140.897 75.18 141.057 74.6 141.197 73.98C141.377 73.22 141.497 72.44 141.577 71.62H145.617V69.34H134.157V71.62H138.837C138.777 72.24 138.677 72.86 138.557 73.46C137.837 77.16 136.017 80.22 132.957 82.22L134.757 84.08ZM150.297 86.54V68.62H147.617V86.54H150.297Z" fill="#242D3C"/>
<path d="M8.644 116.6V111.152H10.372V116.888H11.284V106.196H10.372V110.336H8.644V106.316H7.744V116.6H8.644ZM1.936 107.504H5.38C5.284 110.048 3.832 113.024 1.468 114.656L2.128 115.268C4.564 113.444 6.376 110.456 6.34 106.712H1.936V107.504ZM22.388 114.092V106.196H21.476V114.092H22.388ZM22.688 116.78V115.988H15.368V113.252H14.456V116.78H22.688ZM16.184 106.16C14.42 106.16 13.064 107.408 13.064 109.136C13.064 110.864 14.42 112.112 16.184 112.112C17.948 112.112 19.304 110.864 19.304 109.136C19.304 107.408 17.948 106.16 16.184 106.16ZM16.184 111.32C14.84 111.32 13.976 110.42 13.976 109.136C13.976 107.852 14.84 106.952 16.184 106.952C17.528 106.952 18.392 107.852 18.392 109.136C18.392 110.42 17.528 111.32 16.184 111.32ZM33.8761 116.9V106.196H32.9641V116.9H33.8761ZM32.4841 115.052V114.26L24.3001 114.356V115.172L32.4841 115.052ZM28.2001 106.46C26.2801 106.46 24.9601 107.912 24.9601 109.484C24.9601 111.056 26.2801 112.508 28.2001 112.508C30.1201 112.508 31.4401 111.056 31.4401 109.484C31.4401 107.912 30.1201 106.46 28.2001 106.46ZM28.2001 111.716C26.7841 111.716 25.8721 110.636 25.8721 109.484C25.8721 108.332 26.7841 107.252 28.2001 107.252C29.6161 107.252 30.5281 108.332 30.5281 109.484C30.5281 110.636 29.6161 111.716 28.2001 111.716ZM49.5776 111.8C48.5096 111.44 47.5736 110.948 46.7696 110.336C46.0136 109.76 45.4136 109.112 44.9456 108.38C45.2096 107.792 45.3536 107.156 45.3776 106.472H44.4176C44.2856 109.028 42.2336 110.984 39.5456 111.848L40.0616 112.508C41.3936 112.04 42.7136 111.26 43.6856 110.24C44.0096 109.904 44.2856 109.544 44.5376 109.148C44.7296 109.436 44.9456 109.712 45.1976 109.988C46.2536 111.116 47.6456 112.016 49.0616 112.52L49.5776 111.8ZM39.3416 115.1V115.892H49.8536V115.1H45.0656V111.992H44.1296V115.1H39.3416ZM50.6736 111.452V112.244H61.1856V111.452H50.6736ZM60.1056 109.496H52.7736V107.156H59.9616V106.388H51.8616V110.276H60.1056V109.496ZM60.0336 116.948V113.492H51.5616V114.284H59.1216V116.948H60.0336ZM71.2577 116.9V111.452H72.8057V110.636H71.2577V106.196H70.3457V116.9H71.2577ZM68.3057 112.868C68.6777 111.032 68.8577 108.848 68.8577 106.7H62.4737V107.492H67.9217C67.9217 108.908 67.7537 111.044 67.4057 112.868H68.3057ZM69.8657 115.052V114.26L65.6777 114.308V110.552H64.7417V114.32L61.9217 114.356V115.172L69.8657 115.052ZM84.7152 111.572C83.5272 111.092 82.4712 110.312 81.7272 109.328C81.5712 109.124 81.4392 108.908 81.3192 108.68L81.4392 108.356C81.6432 107.732 81.7632 107.072 81.7752 106.388H80.8392C80.7072 108.788 79.4112 110.924 77.1072 111.98L77.6832 112.616C78.8472 112.04 79.8552 111.164 80.5752 110.096C80.7072 109.904 80.8392 109.7 80.9472 109.496C81.0312 109.64 81.1392 109.784 81.2472 109.916C82.0272 110.936 83.0952 111.8 84.1632 112.28L84.7152 111.572ZM87.3432 116.78V115.988H80.0232V113.252H79.1112V116.78H87.3432ZM87.0432 114.092V106.196H86.1312V114.092H87.0432ZM93.8632 105.764C91.8712 105.764 90.3352 106.7 90.3352 108.092C90.3352 108.44 90.4192 108.764 90.5992 109.052C90.7792 109.328 91.0072 109.556 91.3072 109.76V111.428H88.6072V112.196H99.1192V111.428H96.4072V109.76C96.7072 109.556 96.9352 109.328 97.1152 109.052C97.2952 108.764 97.3912 108.44 97.3912 108.092C97.3912 106.7 95.8552 105.764 93.8632 105.764ZM93.9112 112.784C91.9192 112.784 90.3832 113.672 90.3832 115.076C90.3832 116.48 91.9192 117.356 93.9112 117.356C95.9032 117.356 97.4392 116.48 97.4392 115.076C97.4392 113.672 95.9032 112.784 93.9112 112.784ZM93.8632 109.676C92.3992 109.676 91.2472 109.052 91.2472 108.092C91.2472 107.132 92.3992 106.508 93.8632 106.508C95.3272 106.508 96.4792 107.132 96.4792 108.092C96.4792 109.052 95.3272 109.676 93.8632 109.676ZM93.9112 116.588C92.4472 116.588 91.2952 116.024 91.2952 115.076C91.2952 114.128 92.4472 113.564 93.9112 113.564C95.3752 113.564 96.5272 114.128 96.5272 115.076C96.5272 116.024 95.3752 116.588 93.9112 116.588ZM92.4712 110.252C92.9032 110.36 93.3712 110.42 93.8632 110.42C94.3552 110.42 94.8232 110.36 95.2552 110.252L95.4832 110.192V111.428H92.2312V110.192C92.3032 110.216 92.3872 110.24 92.4712 110.252ZM99.9393 115.1V115.892H110.451V115.1H105.723V112.388H109.491V111.584H102.039V107.444H109.251V106.652H101.127V112.388H104.787V115.1H99.9393ZM114.103 106.772C112.495 106.772 111.139 108.176 111.139 110.324C111.139 112.484 112.495 113.888 114.103 113.888C115.327 113.888 116.347 113.096 116.827 111.8C116.947 111.464 117.019 111.092 117.055 110.696H118.291V116.612H119.191V106.304H118.291V109.88H117.043C117.007 109.52 116.935 109.184 116.827 108.872C116.347 107.564 115.327 106.772 114.103 106.772ZM114.103 113.084C112.915 113.084 112.039 112.04 112.039 110.324C112.039 108.608 112.915 107.564 114.103 107.564C115.291 107.564 116.167 108.608 116.167 110.324C116.167 112.04 115.291 113.084 114.103 113.084ZM121.267 116.888V106.196H120.355V116.888H121.267ZM135.793 116.9V110.852H137.413V110.036H135.793V106.196H134.905V116.9H135.793ZM127.009 106.652V114.932L130.417 114.584V113.792L127.909 114.044V107.444H130.249V106.652H127.009ZM130.801 106.652V114.98L134.353 114.656V113.864L131.701 114.092V107.444H133.945V106.652H130.801ZM145.325 114.74V113.96L139.313 114.26V111.116H143.729V106.58H138.401V107.372H142.817V110.324H138.401V115.124L145.325 114.74ZM146.885 116.9V111.092H148.625V110.276H146.885V106.196H145.973V116.9H146.885ZM9.292 131.98C8.56 131.752 7.9 131.452 7.312 131.056C6.772 130.696 6.34 130.276 6.04 129.808C6.184 129.52 6.28 129.22 6.328 128.908H8.956V128.116H2.428V128.908H5.356C5.296 129.208 5.2 129.484 5.068 129.748C4.468 130.9 3.304 131.8 1.852 132.184L2.368 132.844C3.292 132.556 4.264 131.992 5.02 131.236C5.248 131.008 5.44 130.78 5.62 130.528C5.752 130.684 5.896 130.84 6.052 130.996C6.796 131.716 7.768 132.352 8.788 132.688L9.292 131.98ZM11.212 136.9V126.196H10.3V136.9H11.212ZM9.82 135.172V134.38L6.1 134.428V132.388H5.164V134.44L1.636 134.476V135.292L9.82 135.172ZM3.88 126.34V127.132H7.504V126.34H3.88ZM19.976 136.6V131.032H21.704V136.888H22.616V126.196H21.704V130.216H19.976V126.316H19.076V136.6H19.976ZM13.436 126.724V134.956L18.476 134.668V133.888L14.336 134.068V127.516H17.732V126.724H13.436ZM31.2616 136.18C33.1576 136.18 34.4416 134.812 34.4416 133.12C34.4416 131.44 33.1576 130.06 31.2616 130.06C30.7936 130.06 30.2296 130.252 29.9776 130.444L31.9336 126.94H31.0096L28.6456 131.116C28.3576 131.632 28.0816 132.34 28.0816 133C28.0816 134.728 29.2336 136.18 31.2616 136.18ZM28.9456 133.12C28.9456 131.776 29.8696 130.804 31.2616 130.804C32.6536 130.804 33.5776 131.824 33.5776 133.12C33.5776 134.416 32.6536 135.436 31.2616 135.436C29.9176 135.436 28.9456 134.368 28.9456 133.12ZM42.454 128.524V127.756H35.806V128.524H38.818C38.758 128.8 38.674 129.064 38.566 129.316C37.966 130.648 36.67 131.752 35.038 132.352L35.566 133.024C36.61 132.604 37.678 131.908 38.482 131.032C38.674 130.816 38.854 130.588 39.01 130.36C39.166 130.552 39.334 130.744 39.514 130.924C40.354 131.74 41.41 132.376 42.466 132.688L42.958 131.932C42.178 131.728 41.482 131.416 40.846 131.008C40.27 130.624 39.802 130.168 39.43 129.652L39.466 129.568C39.622 129.232 39.742 128.884 39.802 128.524H42.454ZM44.926 134.212V126.196H44.014V129.508H41.89V130.3H44.014V134.212H44.926ZM45.226 136.78V135.988H37.906V133.588H36.994V136.78H45.226ZM41.062 126.808V126.04H37.198V126.808H41.062ZM51.746 131.212H47.87V127.36H51.746V131.212ZM46.958 126.568V132.004H52.658V126.568H46.958ZM55.754 134.092V129.772H57.23V128.956H55.754V126.196H54.842V134.092H55.754ZM56.102 136.78V135.988H48.902V133.252H47.99V136.78H56.102ZM61.9141 125.932C60.1981 125.932 58.9141 126.856 58.9141 128.236C58.9141 129.616 60.1981 130.54 61.9141 130.54C63.6301 130.54 64.9141 129.616 64.9141 128.236C64.9141 126.856 63.6301 125.932 61.9141 125.932ZM61.9141 129.772C60.6661 129.772 59.8261 129.136 59.8261 128.236C59.8261 127.336 60.6661 126.7 61.9141 126.7C63.1621 126.7 64.0021 127.336 64.0021 128.236C64.0021 129.136 63.1621 129.772 61.9141 129.772ZM67.6981 134.536V126.196H66.7861V132.796H63.9301V133.552H66.7861V134.536H67.6981ZM67.9141 136.696V135.904H60.4861V134.02H59.5741V136.696H67.9141ZM66.0901 131.908V131.164L58.0381 131.26V132.028L61.2781 131.98V133.972H62.2141V131.968L66.0901 131.908ZM78.5261 136.9V131.332H80.0261V130.516H78.5261V126.196H77.6381V136.9H78.5261ZM69.6101 127.444H71.9381C71.8541 130.048 70.9181 132.364 69.0461 134.236L69.7421 134.74C71.6741 132.772 72.9101 130.228 72.8741 126.652H69.6101V127.444ZM73.2581 127.444H75.4661C75.4061 130.144 74.6621 132.976 72.6101 135.004L73.3061 135.508C75.4541 133.312 76.4501 130.36 76.4021 126.652H73.2581V127.444ZM88.1541 134.332C87.3621 133.816 86.6421 133.204 86.0061 132.496C85.3821 131.8 84.8901 131.056 84.5421 130.264C84.5901 130.108 84.6381 129.952 84.6741 129.784C84.8661 129.064 84.9861 128.284 85.0341 127.444H87.6501V126.652H81.0141V127.444H84.0741C84.0141 128.2 83.9061 128.908 83.7381 129.568C83.1621 131.884 81.9501 133.612 80.3541 134.728L80.9661 135.364C82.1061 134.512 83.0901 133.432 83.8101 132.052C83.9421 131.8 84.0741 131.536 84.1821 131.26C84.3141 131.512 84.4701 131.752 84.6261 131.992C85.4421 133.192 86.4981 134.296 87.5421 135.04L88.1541 134.332ZM90.3381 136.9V126.196H89.4261V136.9H90.3381ZM102.992 136.6V131.032H104.72V136.888H105.632V126.196H104.72V130.216H102.992V126.316H102.092V136.6H102.992ZM96.4517 126.724V134.956L101.492 134.668V133.888L97.3517 134.068V127.516H100.748V126.724H96.4517ZM116.7 136.828V136.072H109.128V135.16H116.448V132.82H112.872V131.92H117.6V131.176H107.088V131.92H111.936V132.82H108.216V133.564H115.536V134.428H108.216V136.828H116.7ZM117.132 129.772C115.752 129.7 114.444 129.448 113.46 128.944C113.22 128.824 113.004 128.68 112.812 128.524C112.872 128.416 112.92 128.32 112.956 128.212H116.484V127.468H108.156V128.212H111.924C111.828 128.392 111.696 128.548 111.528 128.692C110.664 129.412 109.104 129.796 107.532 129.868L107.928 130.588C109.188 130.528 110.94 130.156 112.032 129.352L112.332 129.112C112.572 129.292 112.836 129.46 113.124 129.604C114.216 130.144 115.56 130.456 116.724 130.504L117.132 129.772ZM114.6 126.052H110.04V126.796H114.6V126.052ZM128.152 136.9V126.196H127.24V136.9H128.152ZM122.092 126.7C120.172 126.7 118.696 128.164 118.696 130.324C118.696 132.496 120.172 133.96 122.092 133.96C124.012 133.96 125.488 132.496 125.488 130.324C125.488 128.164 124.012 126.7 122.092 126.7ZM122.092 127.516C123.52 127.516 124.552 128.584 124.552 130.312C124.552 132.004 123.592 133.144 122.092 133.144C120.592 133.144 119.632 132.004 119.632 130.312C119.632 128.584 120.664 127.516 122.092 127.516ZM142.701 136.9V131.2H144.441V130.384H142.701V126.196H141.789V136.9H142.701ZM134.265 127.444H138.873C138.741 130.3 136.905 133.156 133.929 134.596L134.529 135.268C137.637 133.636 139.893 130.588 139.857 126.652H134.265V127.444ZM145.021 130.852V131.62H155.533V130.852H145.021ZM146.209 126.268V129.676H154.453V128.92H147.121V126.268H146.209ZM150.325 132.436C148.333 132.436 146.797 133.396 146.797 134.896C146.797 136.396 148.333 137.356 150.325 137.356C152.317 137.356 153.853 136.396 153.853 134.896C153.853 133.396 152.317 132.436 150.325 132.436ZM150.325 136.588C148.861 136.588 147.709 135.952 147.709 134.896C147.709 133.84 148.861 133.204 150.325 133.204C151.789 133.204 152.941 133.84 152.941 134.896C152.941 135.952 151.789 136.588 150.325 136.588ZM162.101 132.568C162.101 130.996 161.069 129.664 159.473 129.664C157.877 129.664 156.845 130.996 156.845 132.568C156.845 134.14 157.877 135.472 159.473 135.472C161.069 135.472 162.101 134.14 162.101 132.568ZM164.009 136.6V131.392H165.557V136.888H166.469V126.196H165.557V130.576H164.009V126.316H163.109V136.6H164.009ZM161.201 132.568C161.201 133.72 160.589 134.692 159.473 134.692C158.357 134.692 157.745 133.72 157.745 132.568C157.745 131.416 158.357 130.444 159.473 130.444C160.589 130.444 161.201 131.416 161.201 132.568ZM162.377 128.92V128.128H156.449V128.92H162.377ZM161.117 127.132V126.34H157.829V127.132H161.117ZM172.929 126.172C170.589 126.172 169.017 127.696 169.017 129.424C169.017 131.152 170.589 132.676 172.929 132.676C175.269 132.676 176.841 131.152 176.841 129.424C176.841 127.696 175.269 126.172 172.929 126.172ZM172.929 131.884C171.081 131.884 169.929 130.744 169.929 129.424C169.929 128.104 171.081 126.964 172.929 126.964C174.777 126.964 175.929 128.104 175.929 129.424C175.929 130.744 174.777 131.884 172.929 131.884ZM167.685 135.1V135.892H178.197V135.1H175.833V132.832H174.909V135.1H171.009V132.832H170.085V135.1H167.685ZM179.221 136.6H180.373V135.448H179.221V136.6Z" fill="#999999"/>
<path d="M1.528 6.92C1.528 10.888 4.008 13.304 6.76 13.304C9.512 13.304 11.992 10.888 11.992 6.92C11.992 2.952 9.512 0.535999 6.76 0.535999C4.008 0.535999 1.528 2.952 1.528 6.92ZM9.912 6.92C9.912 9.8 8.376 11.544 6.76 11.544C5.144 11.544 3.608 9.8 3.608 6.92C3.608 4.04 5.144 2.296 6.76 2.296C8.376 2.296 9.912 4.04 9.912 6.92ZM13.9236 3.752L15.0276 5.256L16.8676 3.688V13H18.9476V0.839999H17.3156L13.9236 3.752Z" fill="#D7191F"/>
</svg>
