<svg width="240" height="180" viewBox="0 0 240 180" fill="none" xmlns="http://www.w3.org/2000/svg">
<path d="M53.6257 109.9C59.9434 106.596 63.9038 101.697 62.4715 98.9587C61.0393 96.2199 54.7567 96.6781 48.4391 99.9819C42.1215 103.286 38.1611 108.184 39.5933 110.923C41.0256 113.662 47.3081 113.204 53.6257 109.9Z" fill="white" stroke="#242D3C" stroke-linecap="round" stroke-linejoin="round"/>
<path d="M62.472 98.9589L64.2346 102.329C65.6678 105.07 61.7069 109.971 55.3908 113.274C49.0747 116.577 42.7896 117.034 41.3564 114.294L39.5938 110.923C41.0269 113.664 47.3101 113.203 53.6262 109.9C59.9423 106.597 63.9051 101.699 62.472 98.9589Z" fill="white" stroke="#242D3C" stroke-linecap="round" stroke-linejoin="round"/>
<path d="M41.3105 109.204C41.3105 109.204 42.869 103.731 54.1828 99.5522" stroke="#242D3C" stroke-width="0.5" stroke-linecap="round" stroke-linejoin="round"/>
<path d="M124.049 22.0356C129.118 17.0228 131.466 11.1775 129.293 8.97989C127.12 6.78222 121.249 9.06436 116.179 14.0772C111.11 19.09 108.762 24.9352 110.935 27.1329C113.108 29.3306 118.979 27.0484 124.049 22.0356Z" fill="white" stroke="#242D3C" stroke-linecap="round" stroke-linejoin="round"/>
<path d="M129.295 8.98028L131.969 11.685C134.144 13.884 131.796 19.7321 126.728 24.7437C121.66 29.7553 115.785 32.037 113.611 29.838L110.937 27.1333C113.111 29.3323 118.982 27.0476 124.05 22.036C129.119 17.0244 131.469 11.1793 129.295 8.98028Z" fill="white" stroke="#242D3C" stroke-linecap="round" stroke-linejoin="round"/>
<path d="M112.072 24.9858C112.072 24.9858 111.955 19.2965 121.544 11.9807" stroke="#242D3C" stroke-width="0.5" stroke-linecap="round" stroke-linejoin="round"/>
<rect x="63" y="28.9993" width="68.9999" height="110" rx="34.5" stroke="#D7191F" stroke-width="28"/>
<path d="M174.337 34.8712C179.797 39.4547 185.835 41.2513 187.822 38.884C189.809 36.5167 186.993 30.882 181.532 26.2985C176.071 21.715 170.034 19.9184 168.047 22.2857C166.06 24.653 168.876 30.2877 174.337 34.8712Z" fill="white" stroke="#242D3C" stroke-linecap="round" stroke-linejoin="round"/>
<path d="M187.822 38.8846L185.377 41.798C183.389 44.1667 177.349 42.3708 171.889 37.7884C166.43 33.206 163.614 27.5684 165.602 25.1997L168.047 22.2863C166.059 24.655 168.878 30.2893 174.337 34.8717C179.797 39.4541 185.834 41.2533 187.822 38.8846Z" fill="white" stroke="#242D3C" stroke-linecap="round" stroke-linejoin="round"/>
<path d="M170.29 23.2188C170.29 23.2188 175.945 22.5756 184.117 31.4457" stroke="#242D3C" stroke-width="0.5" stroke-linecap="round" stroke-linejoin="round"/>
<path d="M31.0833 46.1466C37.2576 49.7113 43.5155 50.4312 45.0608 47.7546C46.6061 45.0781 42.8537 40.0185 36.6794 36.4538C30.5052 32.8891 24.2473 32.1692 22.702 34.8458C21.1566 37.5223 24.9091 42.5819 31.0833 46.1466Z" fill="white" stroke="#242D3C" stroke-linecap="round" stroke-linejoin="round"/>
<path d="M45.0613 47.7546L43.1594 51.0487C41.6131 53.7269 35.3526 53.0081 29.1798 49.4442C23.0071 45.8804 19.2543 40.818 20.8006 38.1398L22.7024 34.8457C21.1561 37.524 24.911 42.5827 31.0838 46.1465C37.2565 49.7103 43.515 50.4329 45.0613 47.7546Z" fill="white" stroke="#242D3C" stroke-linecap="round" stroke-linejoin="round"/>
<path d="M25.0736 35.3747C25.0736 35.3747 30.5299 33.7587 40.1195 41.0734" stroke="#242D3C" stroke-width="0.5" stroke-linecap="round" stroke-linejoin="round"/>
<path d="M122.118 99.8365C129.06 98.2134 134.117 94.4579 133.414 91.4484C132.71 88.4389 126.512 87.3151 119.57 88.9382C112.628 90.5614 107.57 94.3169 108.274 97.3263C108.978 100.336 115.176 101.46 122.118 99.8365Z" fill="white" stroke="#242D3C" stroke-linecap="round" stroke-linejoin="round"/>
<path d="M133.415 91.4484L134.281 95.1522C134.985 98.1635 129.926 101.922 122.986 103.544C116.045 105.167 109.845 104.041 109.141 101.03L108.275 97.3263C108.979 100.338 115.178 101.459 122.119 99.8365C129.059 98.2137 134.119 94.4597 133.415 91.4484Z" fill="white" stroke="#242D3C" stroke-linecap="round" stroke-linejoin="round"/>
<path d="M110.366 96.0899C110.366 96.0899 113.24 91.1788 125.239 89.9549" stroke="#242D3C" stroke-width="0.5" stroke-linecap="round" stroke-linejoin="round"/>
<path d="M70.8504 131.47C70.8504 132.282 70.505 133.061 69.8726 133.776C69.1039 134.652 67.9072 135.44 66.3894 136.087C63.6991 137.235 60.0019 137.945 55.9252 137.945C51.8485 137.945 48.1512 137.235 45.461 136.087C43.9432 135.44 42.7465 134.652 41.9778 133.776C41.3454 133.061 41 132.282 41 131.47C41 127.899 47.6842 125 55.9252 125C64.1662 125 70.8504 127.899 70.8504 131.47Z" fill="white" stroke="#242D3C" stroke-linecap="round" stroke-linejoin="round"/>
<path d="M70.8504 131.47V136.081C70.8504 136.894 70.505 137.672 69.8726 138.387C69.1039 139.263 67.9072 140.046 66.3942 140.693C63.704 141.841 60.0068 142.552 55.9252 142.552C51.8436 142.552 48.1464 141.841 45.4562 140.693C43.9432 140.046 42.7465 139.263 41.9778 138.387C41.3454 137.672 41 136.894 41 136.081V131.47C41 132.282 41.3454 133.06 41.9778 133.776C42.7465 134.651 43.9432 135.439 45.461 136.086C48.1512 137.234 51.8485 137.945 55.9252 137.945C60.0019 137.945 63.6991 137.234 66.3894 136.086C67.9072 135.439 69.1039 134.651 69.8726 133.776C70.505 133.06 70.8504 132.282 70.8504 131.47Z" fill="white" stroke="#242D3C" stroke-linecap="round" stroke-linejoin="round"/>
<path d="M70.8504 136.081V140.693C70.8504 141.505 70.505 142.284 69.8726 142.999C69.1039 143.875 67.9072 144.658 66.3942 145.305C63.704 146.453 60.0068 147.163 55.9252 147.163C51.8436 147.163 48.1464 146.453 45.4562 145.305C43.9432 144.658 42.7465 143.875 41.9778 142.999C41.3454 142.284 41 141.505 41 140.693V136.081C41 136.894 41.3454 137.672 41.9778 138.387C42.7465 139.263 43.9432 140.046 45.4562 140.693C48.1464 141.841 51.8436 142.551 55.9252 142.551C60.0068 142.551 63.704 141.841 66.3942 140.693C67.9072 140.046 69.1039 139.263 69.8726 138.387C70.505 137.672 70.8504 136.894 70.8504 136.081Z" fill="white" stroke="#242D3C" stroke-linecap="round" stroke-linejoin="round"/>
<path d="M70.8504 140.693V145.305C70.8504 146.118 70.505 146.896 69.8726 147.611C69.1039 148.487 67.9072 149.27 66.3942 149.917C63.704 151.065 60.0068 151.775 55.9252 151.775C51.8436 151.775 48.1464 151.065 45.4562 149.917C43.9432 149.27 42.7465 148.487 41.9778 147.611C41.3454 146.896 41 146.118 41 145.305V140.693C41 141.506 41.3454 142.284 41.9778 142.999C42.7465 143.875 43.9432 144.658 45.4562 145.305C48.1464 146.453 51.8436 147.164 55.9252 147.164C60.0068 147.164 63.704 146.453 66.3942 145.305C67.9072 144.658 69.1039 143.875 69.8726 142.999C70.505 142.284 70.8504 141.506 70.8504 140.693Z" fill="white" stroke="#242D3C" stroke-linecap="round" stroke-linejoin="round"/>
<path d="M70.8504 145.305V149.917C70.8504 150.73 70.505 151.508 69.8726 152.223C69.0991 153.099 67.9023 153.882 66.3894 154.529C63.6991 155.677 60.0019 156.387 55.9252 156.387C51.8485 156.387 48.1512 155.677 45.461 154.529C43.9481 153.882 42.7513 153.099 41.9778 152.223C41.3454 151.508 41 150.73 41 149.917V145.305C41 146.118 41.3454 146.896 41.9778 147.611C42.7465 148.487 43.9432 149.27 45.4562 149.917C48.1464 151.065 51.8436 151.776 55.9252 151.776C60.0068 151.776 63.704 151.065 66.3942 149.917C67.9072 149.27 69.1039 148.487 69.8726 147.611C70.505 146.896 70.8504 146.118 70.8504 145.305Z" fill="white" stroke="#242D3C" stroke-linecap="round" stroke-linejoin="round"/>
<path d="M70.8504 149.918V154.53C70.8504 155.342 70.505 156.12 69.8726 156.835C69.0991 157.711 67.9023 158.494 66.3894 159.141C63.6991 160.289 60.0019 161 55.9252 161C51.8485 161 48.1512 160.289 45.461 159.141C43.9481 158.494 42.7513 157.711 41.9778 156.835C41.3454 156.12 41 155.342 41 154.53V149.918C41 150.73 41.3454 151.509 41.9778 152.224C42.7513 153.099 43.9481 153.883 45.461 154.53C48.1512 155.678 51.8485 156.388 55.9252 156.388C60.0019 156.388 63.6991 155.678 66.3894 154.53C67.9023 153.883 69.0991 153.099 69.8726 152.224C70.505 151.509 70.8504 150.73 70.8504 149.918Z" fill="white" stroke="#242D3C" stroke-linecap="round" stroke-linejoin="round"/>
<path d="M44.502 129.499C47.6686 127.832 56.2019 125.299 65.0019 128.499" stroke="#242D3C" stroke-width="0.5" stroke-linecap="round" stroke-linejoin="round"/>
<path d="M91.8504 143.469C91.8504 144.282 91.505 145.06 90.8726 145.775C90.1039 146.651 88.9072 147.439 87.3894 148.086C84.6991 149.234 81.0019 149.944 76.9252 149.944C72.8485 149.944 69.1512 149.234 66.461 148.086C64.9432 147.439 63.7465 146.651 62.9778 145.775C62.3454 145.06 62 144.282 62 143.469C62 139.899 68.6842 136.999 76.9252 136.999C85.1662 136.999 91.8504 139.899 91.8504 143.469Z" fill="white" stroke="#242D3C" stroke-linecap="round" stroke-linejoin="round"/>
<path d="M91.8504 143.468V148.08C91.8504 148.893 91.505 149.671 90.8726 150.386C90.1039 151.262 88.9072 152.045 87.3942 152.692C84.704 153.84 81.0068 154.55 76.9252 154.55C72.8436 154.55 69.1464 153.84 66.4562 152.692C64.9432 152.045 63.7465 151.262 62.9778 150.386C62.3454 149.671 62 148.893 62 148.08V143.468C62 144.281 62.3454 145.059 62.9778 145.774C63.7465 146.65 64.9432 147.438 66.461 148.085C69.1512 149.233 72.8485 149.943 76.9252 149.943C81.0019 149.943 84.6991 149.233 87.3894 148.085C88.9072 147.438 90.1039 146.65 90.8726 145.774C91.505 145.059 91.8504 144.281 91.8504 143.468Z" fill="white" stroke="#242D3C" stroke-linecap="round" stroke-linejoin="round"/>
<path d="M91.8504 148.081V152.693C91.8504 153.505 91.505 154.283 90.8726 154.999C90.1039 155.874 88.9072 156.657 87.3942 157.304C84.704 158.453 81.0068 159.163 76.9252 159.163C72.8436 159.163 69.1464 158.453 66.4562 157.304C64.9432 156.657 63.7465 155.874 62.9778 154.999C62.3454 154.283 62 153.505 62 152.693V148.081C62 148.893 62.3454 149.672 62.9778 150.387C63.7465 151.262 64.9432 152.046 66.4562 152.693C69.1464 153.841 72.8436 154.551 76.9252 154.551C81.0068 154.551 84.704 153.841 87.3942 152.693C88.9072 152.046 90.1039 151.262 90.8726 150.387C91.505 149.672 91.8504 148.893 91.8504 148.081Z" fill="white" stroke="#242D3C" stroke-linecap="round" stroke-linejoin="round"/>
<path d="M91.8504 152.693V157.305C91.8504 158.117 91.505 158.896 90.8726 159.611C90.1039 160.487 88.9072 161.27 87.3942 161.917C84.704 163.065 81.0068 163.775 76.9252 163.775C72.8436 163.775 69.1464 163.065 66.4562 161.917C64.9432 161.27 63.7465 160.487 62.9778 159.611C62.3454 158.896 62 158.117 62 157.305V152.693C62 153.506 62.3454 154.284 62.9778 154.999C63.7465 155.875 64.9432 156.658 66.4562 157.305C69.1464 158.453 72.8436 159.163 76.9252 159.163C81.0068 159.163 84.704 158.453 87.3942 157.305C88.9072 156.658 90.1039 155.875 90.8726 154.999C91.505 154.284 91.8504 153.506 91.8504 152.693Z" fill="white" stroke="#242D3C" stroke-linecap="round" stroke-linejoin="round"/>
<path d="M91.8504 157.305V161.917C91.8504 162.729 91.505 163.508 90.8726 164.223C90.0991 165.098 88.9023 165.882 87.3894 166.529C84.6991 167.677 81.0019 168.387 76.9252 168.387C72.8485 168.387 69.1512 167.677 66.461 166.529C64.9481 165.882 63.7513 165.098 62.9778 164.223C62.3454 163.508 62 162.729 62 161.917V157.305C62 158.117 62.3454 158.896 62.9778 159.611C63.7465 160.487 64.9432 161.27 66.4562 161.917C69.1464 163.065 72.8436 163.775 76.9252 163.775C81.0068 163.775 84.704 163.065 87.3942 161.917C88.9072 161.27 90.1039 160.487 90.8726 159.611C91.505 158.896 91.8504 158.117 91.8504 157.305Z" fill="white" stroke="#242D3C" stroke-linecap="round" stroke-linejoin="round"/>
<path d="M91.8504 161.917V166.529C91.8504 167.342 91.505 168.12 90.8726 168.835C90.0991 169.711 88.9023 170.494 87.3894 171.141C84.6991 172.289 81.0019 172.999 76.9252 172.999C72.8485 172.999 69.1512 172.289 66.461 171.141C64.9481 170.494 63.7513 169.711 62.9778 168.835C62.3454 168.12 62 167.342 62 166.529V161.917C62 162.73 62.3454 163.508 62.9778 164.223C63.7513 165.099 64.9481 165.882 66.461 166.529C69.1512 167.677 72.8485 168.388 76.9252 168.388C81.0019 168.388 84.6991 167.677 87.3894 166.529C88.9023 165.882 90.0991 165.099 90.8726 164.223C91.505 163.508 91.8504 162.73 91.8504 161.917Z" fill="white" stroke="#242D3C" stroke-linecap="round" stroke-linejoin="round"/>
<path d="M67.4998 140.499C71.4998 138.999 81.4997 136.499 89.4997 142.499" stroke="#242D3C" stroke-width="0.5" stroke-linecap="round" stroke-linejoin="round"/>
<path d="M158 46.4994L155.5 48.4994L153.5 49.9994L151 51.4994L152 90.4994V97.4994L153 102.499L157 109.499L160.5 111.499L171 109.999C172.333 108.166 175.3 104.299 176.5 103.499C177.7 102.699 179.667 99.4994 180.5 97.9994L192 61.9994L194 57.4994L195.5 54.9994L193.5 52.9994L192.5 51.4994L192 49.9994L190 46.4994L190.5 45.9994H191.5L192.5 46.9994L193.5 47.9994L194.5 48.9994V45.9994L195 43.4994L195.5 38.9994L196 37.9994H196.5L197 38.9994V41.4994V43.4994L197.5 43.9994L198 42.9994L199 39.9994L200 37.9994L201 37.4994V38.9994L200.5 42.4994L200 44.4994V44.9994L201 43.4994L202.5 40.9994L203.5 39.9994H204V40.9994L203.5 42.9994L202.5 45.4994L202 46.4994L202.5 45.9994L204 43.9994L205.5 42.4994H206L205.5 44.4994L204.5 45.9994L203.5 47.4994L203 49.4994L202.5 50.9994L202 52.4994L201 53.9994L200 55.9994L199.5 58.9994L198 65.9994L195.5 76.4994L193.5 85.4994L191 95.4994L189 101.499L188 105.999L187 111.499L186 123.499V132.999L189.5 140.999L179 151.499L154 154.999L144.5 132.499L144 123.499L143 103.999V92.4994L143.5 84.9994V81.9994L146 52.9994V51.4994V50.4994L145.5 47.9994V45.9994V42.9994V41.9994L144.5 40.4994L144 38.9994V37.9994L144.5 37.4994L145 37.9994L145.5 38.9994L146 39.4994L146.5 40.9994L147.5 41.4994L147 39.9994V38.9994L146.5 37.9994V36.9994V35.9994L147 35.4994H147.5L148 36.4994L148.5 37.4994V38.4994L149 39.9994L149.5 40.4994L150 38.4994V36.9994V35.9994L150.5 34.4994L151 33.9994H151.5L152 34.9994V36.4994V39.4994L152.5 40.9994L153 39.9994L154 35.9994L154.5 34.9994H155V36.4994V38.9994V40.9994L154.5 42.9994L154 44.4994V45.9994L156 45.4994L157.5 44.9994L159 44.4994V45.4994L158 46.4994Z" fill="white"/>
<path d="M179.028 100.451C165.028 120.451 152.586 108.262 152.088 97.4212C152.104 85.3508 152.336 58.5324 151.173 51.5577C152.393 50.9956 153.881 50.1737 155.008 48.7669C156.605 47.7358 159.321 45.8248 159.018 44.8716C158.748 44.0191 155.104 45.7639 153.775 46.5353C154.507 43.3304 155.594 36.1271 154.886 35.158C153.959 33.8875 153.302 38.9826 152.586 41.1334L151.961 40.8163C152.2 38.8168 152.154 33.8213 151.27 33.682C150.387 33.5427 149.984 38.9955 149.903 40.9446L149.427 41.0959C149.081 39.457 147.744 34.8015 146.981 35.0433C146.219 35.2851 147.016 40.1122 147.52 41.7008L147.044 41.852C146.691 40.7401 144.861 37.2897 144.099 37.5316C143.336 37.7736 145.052 41.0852 145.614 42.3057C145.266 44.5145 145.22 47.6764 146.276 51.0042C145.279 61.6373 143.103 86.6326 143.078 97.132C143.078 110.344 143.968 138.067 147.52 143.267L187.028 143.267C185.861 136.556 184.242 119.909 189.042 101.762" stroke="#242D3C" stroke-linecap="round" stroke-linejoin="round"/>
<path d="M180.646 97.8065C184.267 86.3726 192.129 60.9094 195.333 54.6561C194.346 53.756 193.185 52.5293 192.542 50.8576C191.341 49.4003 189.807 46.7097 190.381 45.8983C190.894 45.1726 193.356 47.9853 194.382 49.1161C194.655 45.8612 194.919 38.6025 195.881 37.8983C197.143 36.9749 197.106 42.1074 197.136 44.3598L197.823 44.2479C198.199 42.2824 199.748 37.5664 200.627 37.7007C201.505 37.8351 200.244 43.1196 199.733 44.9895L200.139 45.2763C200.959 43.8285 203.232 39.4391 203.881 39.8978C204.531 40.3566 202.717 45.0713 201.761 46.4235L202.167 46.7103C202.836 45.7638 205.241 41.929 205.89 42.3879C206.539 42.8468 204.284 46.5845 203.384 47.5708C203.048 49.7671 202.139 52.7748 200.136 55.6076C197.876 65.9761 192.5 89.9994 189.5 99.9994" stroke="#242D3C" stroke-linecap="round" stroke-linejoin="round"/>
<path d="M162.3 111.265L176.543 102.999C177.126 107.774 172.043 115.999 162.3 111.265Z" fill="white" stroke="#242D3C" stroke-linecap="round" stroke-linejoin="round"/>
<path d="M162.542 110.999L153.742 101C152.518 105.22 153.742 115.499 162.542 110.999Z" fill="white" stroke="#242D3C" stroke-linecap="round" stroke-linejoin="round"/>
<path d="M200.5 64.4994C199.333 64.8327 195.9 64.6994 191.5 61.4994" stroke="#242D3C" stroke-linecap="round" stroke-linejoin="round"/>
<path d="M163.185 104.509C155.285 104.509 150.788 88.0634 148.764 79.4613L152.938 69.5941L177.606 71.1121L179.124 82.8769C180.642 80.7263 183.982 77.7156 185.196 82.8769C186.411 88.0381 180.895 89.8345 177.986 90.0875C176.341 94.7681 173.811 104.509 163.185 104.509Z" fill="white" stroke="#242D3C" stroke-linecap="round" stroke-linejoin="round"/>
<path d="M152.559 79.4611C159.01 74.5273 166.6 79.0817 159.01 91.9845" stroke="#242D3C" stroke-linecap="round" stroke-linejoin="round"/>
<circle cx="157.113" cy="84.0154" r="1.13852" fill="#242D3C"/>
<circle cx="168.498" cy="84.0154" r="1.13852" fill="#242D3C"/>
<path d="M165.082 79.1971C166.6 77.679 170.471 75.8574 173.811 80.7151" stroke="#242D3C" stroke-linecap="round" stroke-linejoin="round"/>
<path d="M159.797 94.3635C162.694 94.0685 168.029 94.0064 166.189 96.1153C162.839 99.9545 160.1 96.1594 159.797 94.3635Z" stroke="#242D3C" stroke-linecap="round" stroke-linejoin="round"/>
<path d="M130.074 66.8967C130.061 78.3309 140.182 81.03 146.952 81.03C154.857 81.03 163.935 71.1122 163.935 71.1122C163.935 71.1122 174.857 68.8346 176.754 76.4247C177.506 84.4816 176.754 85.5329 177.893 85.5329C179.903 85.5329 179.273 80.9793 182.911 80.9793C184.808 80.9793 185.567 82.877 185.567 85.1539C186.169 85.0047 195.35 79.277 193.924 66.8967C192.788 57.0295 181.401 56.6909 181.401 56.6909C181.401 56.6909 181.473 48.6544 172.2 47.2031C161.026 45.4534 155.122 55.552 155.122 55.552C141.445 48.4311 130.088 55.5982 130.074 66.8967Z" fill="#242D3C" stroke="#242D3C" stroke-width="1.2" stroke-linecap="round" stroke-linejoin="round"/>
<path d="M153.043 87.4994V88.9994" stroke="#242D3C" stroke-linecap="round" stroke-linejoin="round"/>
<path d="M154.543 87.4994V88.9994" stroke="#242D3C" stroke-linecap="round" stroke-linejoin="round"/>
<path d="M170.543 87.4994V88.9994" stroke="#242D3C" stroke-linecap="round" stroke-linejoin="round"/>
<path d="M172.543 87.4994V88.9994" stroke="#242D3C" stroke-linecap="round" stroke-linejoin="round"/>
<path d="M153.85 125.47C153.85 126.282 153.505 127.06 152.873 127.775C152.104 128.651 150.907 129.439 149.389 130.086C146.699 131.234 143.002 131.945 138.925 131.945C134.848 131.945 131.151 131.234 128.461 130.086C126.943 129.439 125.746 128.651 124.978 127.775C124.345 127.06 124 126.282 124 125.47C124 121.899 130.684 118.999 138.925 118.999C147.166 118.999 153.85 121.899 153.85 125.47Z" fill="white" stroke="#242D3C" stroke-linecap="round" stroke-linejoin="round"/>
<path d="M153.85 125.469V130.081C153.85 130.893 153.505 131.672 152.873 132.387C152.104 133.263 150.907 134.046 149.394 134.693C146.704 135.841 143.007 136.551 138.925 136.551C134.844 136.551 131.146 135.841 128.456 134.693C126.943 134.046 125.746 133.263 124.978 132.387C124.345 131.672 124 130.893 124 130.081V125.469C124 126.282 124.345 127.06 124.978 127.775C125.746 128.651 126.943 129.439 128.461 130.086C131.151 131.234 134.848 131.944 138.925 131.944C143.002 131.944 146.699 131.234 149.389 130.086C150.907 129.439 152.104 128.651 152.873 127.775C153.505 127.06 153.85 126.282 153.85 125.469Z" fill="white" stroke="#242D3C" stroke-linecap="round" stroke-linejoin="round"/>
<path d="M153.85 130.081V134.693C153.85 135.505 153.505 136.283 152.873 136.999C152.104 137.874 150.907 138.657 149.394 139.304C146.704 140.453 143.007 141.163 138.925 141.163C134.844 141.163 131.146 140.453 128.456 139.304C126.943 138.657 125.746 137.874 124.978 136.999C124.345 136.283 124 135.505 124 134.693V130.081C124 130.893 124.345 131.672 124.978 132.387C125.746 133.262 126.943 134.046 128.456 134.693C131.146 135.841 134.844 136.551 138.925 136.551C143.007 136.551 146.704 135.841 149.394 134.693C150.907 134.046 152.104 133.262 152.873 132.387C153.505 131.672 153.85 130.893 153.85 130.081Z" fill="white" stroke="#242D3C" stroke-linecap="round" stroke-linejoin="round"/>
<path d="M153.85 134.693V139.305C153.85 140.117 153.505 140.896 152.873 141.611C152.104 142.487 150.907 143.27 149.394 143.917C146.704 145.065 143.007 145.775 138.925 145.775C134.844 145.775 131.146 145.065 128.456 143.917C126.943 143.27 125.746 142.487 124.978 141.611C124.345 140.896 124 140.117 124 139.305V134.693C124 135.506 124.345 136.284 124.978 136.999C125.746 137.875 126.943 138.658 128.456 139.305C131.146 140.453 134.844 141.163 138.925 141.163C143.007 141.163 146.704 140.453 149.394 139.305C150.907 138.658 152.104 137.875 152.873 136.999C153.505 136.284 153.85 135.506 153.85 134.693Z" fill="white" stroke="#242D3C" stroke-linecap="round" stroke-linejoin="round"/>
<path d="M153.85 139.305V143.917C153.85 144.729 153.505 145.508 152.873 146.223C152.099 147.098 150.902 147.882 149.389 148.529C146.699 149.677 143.002 150.387 138.925 150.387C134.848 150.387 131.151 149.677 128.461 148.529C126.948 147.882 125.751 147.098 124.978 146.223C124.345 145.508 124 144.729 124 143.917V139.305C124 140.117 124.345 140.896 124.978 141.611C125.746 142.487 126.943 143.27 128.456 143.917C131.146 145.065 134.844 145.775 138.925 145.775C143.007 145.775 146.704 145.065 149.394 143.917C150.907 143.27 152.104 142.487 152.873 141.611C153.505 140.896 153.85 140.117 153.85 139.305Z" fill="white" stroke="#242D3C" stroke-linecap="round" stroke-linejoin="round"/>
<path d="M153.85 143.917V148.529C153.85 149.342 153.505 150.12 152.873 150.835C152.099 151.711 150.902 152.494 149.389 153.141C146.699 154.289 143.002 154.999 138.925 154.999C134.848 154.999 131.151 154.289 128.461 153.141C126.948 152.494 125.751 151.711 124.978 150.835C124.345 150.12 124 149.342 124 148.529V143.917C124 144.73 124.345 145.508 124.978 146.223C125.751 147.099 126.948 147.882 128.461 148.529C131.151 149.677 134.848 150.388 138.925 150.388C143.002 150.388 146.699 149.677 149.389 148.529C150.902 147.882 152.099 147.099 152.873 146.223C153.505 145.508 153.85 144.73 153.85 143.917Z" fill="white" stroke="#242D3C" stroke-linecap="round" stroke-linejoin="round"/>
<path d="M130.003 121.999C132.669 120.999 141.503 119.499 149.003 122.499" stroke="#242D3C" stroke-width="0.5" stroke-linecap="round" stroke-linejoin="round"/>
<path d="M198.85 133.47C198.85 134.282 198.505 135.06 197.873 135.775C197.104 136.651 195.907 137.439 194.389 138.086C191.699 139.234 188.002 139.945 183.925 139.945C179.848 139.945 176.151 139.234 173.461 138.086C171.943 137.439 170.746 136.651 169.978 135.775C169.345 135.06 169 134.282 169 133.47C169 129.899 175.684 126.999 183.925 126.999C192.166 126.999 198.85 129.899 198.85 133.47Z" fill="white" stroke="#242D3C" stroke-linecap="round" stroke-linejoin="round"/>
<path d="M198.85 133.469V138.081C198.85 138.893 198.505 139.672 197.873 140.387C197.104 141.263 195.907 142.046 194.394 142.693C191.704 143.841 188.007 144.551 183.925 144.551C179.844 144.551 176.146 143.841 173.456 142.693C171.943 142.046 170.746 141.263 169.978 140.387C169.345 139.672 169 138.893 169 138.081V133.469C169 134.282 169.345 135.06 169.978 135.775C170.746 136.651 171.943 137.439 173.461 138.086C176.151 139.234 179.848 139.944 183.925 139.944C188.002 139.944 191.699 139.234 194.389 138.086C195.907 137.439 197.104 136.651 197.873 135.775C198.505 135.06 198.85 134.282 198.85 133.469Z" fill="white" stroke="#242D3C" stroke-linecap="round" stroke-linejoin="round"/>
<path d="M198.85 138.081V142.693C198.85 143.505 198.505 144.283 197.873 144.999C197.104 145.874 195.907 146.657 194.394 147.304C191.704 148.453 188.007 149.163 183.925 149.163C179.844 149.163 176.146 148.453 173.456 147.304C171.943 146.657 170.746 145.874 169.978 144.999C169.345 144.283 169 143.505 169 142.693V138.081C169 138.893 169.345 139.672 169.978 140.387C170.746 141.262 171.943 142.046 173.456 142.693C176.146 143.841 179.844 144.551 183.925 144.551C188.007 144.551 191.704 143.841 194.394 142.693C195.907 142.046 197.104 141.262 197.873 140.387C198.505 139.672 198.85 138.893 198.85 138.081Z" fill="white" stroke="#242D3C" stroke-linecap="round" stroke-linejoin="round"/>
<path d="M198.85 142.693V147.305C198.85 148.117 198.505 148.896 197.873 149.611C197.104 150.487 195.907 151.27 194.394 151.917C191.704 153.065 188.007 153.775 183.925 153.775C179.844 153.775 176.146 153.065 173.456 151.917C171.943 151.27 170.746 150.487 169.978 149.611C169.345 148.896 169 148.117 169 147.305V142.693C169 143.506 169.345 144.284 169.978 144.999C170.746 145.875 171.943 146.658 173.456 147.305C176.146 148.453 179.844 149.163 183.925 149.163C188.007 149.163 191.704 148.453 194.394 147.305C195.907 146.658 197.104 145.875 197.873 144.999C198.505 144.284 198.85 143.506 198.85 142.693Z" fill="white" stroke="#242D3C" stroke-linecap="round" stroke-linejoin="round"/>
<path d="M198.85 147.305V151.917C198.85 152.729 198.505 153.508 197.873 154.223C197.099 155.098 195.902 155.882 194.389 156.529C191.699 157.677 188.002 158.387 183.925 158.387C179.848 158.387 176.151 157.677 173.461 156.529C171.948 155.882 170.751 155.098 169.978 154.223C169.345 153.508 169 152.729 169 151.917V147.305C169 148.117 169.345 148.896 169.978 149.611C170.746 150.487 171.943 151.27 173.456 151.917C176.146 153.065 179.844 153.775 183.925 153.775C188.007 153.775 191.704 153.065 194.394 151.917C195.907 151.27 197.104 150.487 197.873 149.611C198.505 148.896 198.85 148.117 198.85 147.305Z" fill="white" stroke="#242D3C" stroke-linecap="round" stroke-linejoin="round"/>
<path d="M198.85 151.917V156.529C198.85 157.342 198.505 158.12 197.873 158.835C197.099 159.711 195.902 160.494 194.389 161.141C191.699 162.289 188.002 162.999 183.925 162.999C179.848 162.999 176.151 162.289 173.461 161.141C171.948 160.494 170.751 159.711 169.978 158.835C169.345 158.12 169 157.342 169 156.529V151.917C169 152.73 169.345 153.508 169.978 154.223C170.751 155.099 171.948 155.882 173.461 156.529C176.151 157.677 179.848 158.388 183.925 158.388C188.002 158.388 191.699 157.677 194.389 156.529C195.902 155.882 197.099 155.099 197.873 154.223C198.505 153.508 198.85 152.73 198.85 151.917Z" fill="white" stroke="#242D3C" stroke-linecap="round" stroke-linejoin="round"/>
<path d="M175.003 129.999C177.669 128.999 186.503 127.499 194.003 130.499" stroke="#242D3C" stroke-width="0.5" stroke-linecap="round" stroke-linejoin="round"/>
<path d="M172.85 146.47C172.85 147.282 172.505 148.06 171.873 148.775C171.104 149.651 169.907 150.439 168.389 151.086C165.699 152.234 162.002 152.945 157.925 152.945C153.848 152.945 150.151 152.234 147.461 151.086C145.943 150.439 144.746 149.651 143.978 148.775C143.345 148.06 143 147.282 143 146.47C143 142.899 149.684 139.999 157.925 139.999C166.166 139.999 172.85 142.899 172.85 146.47Z" fill="white" stroke="#242D3C" stroke-linecap="round" stroke-linejoin="round"/>
<path d="M172.85 146.469V151.081C172.85 151.893 172.505 152.672 171.873 153.387C171.104 154.263 169.907 155.046 168.394 155.693C165.704 156.841 162.007 157.551 157.925 157.551C153.844 157.551 150.146 156.841 147.456 155.693C145.943 155.046 144.746 154.263 143.978 153.387C143.345 152.672 143 151.893 143 151.081V146.469C143 147.282 143.345 148.06 143.978 148.775C144.746 149.651 145.943 150.439 147.461 151.086C150.151 152.234 153.848 152.944 157.925 152.944C162.002 152.944 165.699 152.234 168.389 151.086C169.907 150.439 171.104 149.651 171.873 148.775C172.505 148.06 172.85 147.282 172.85 146.469Z" fill="white" stroke="#242D3C" stroke-linecap="round" stroke-linejoin="round"/>
<path d="M172.85 151.081V155.693C172.85 156.505 172.505 157.283 171.873 157.999C171.104 158.874 169.907 159.657 168.394 160.304C165.704 161.453 162.007 162.163 157.925 162.163C153.844 162.163 150.146 161.453 147.456 160.304C145.943 159.657 144.746 158.874 143.978 157.999C143.345 157.283 143 156.505 143 155.693V151.081C143 151.893 143.345 152.672 143.978 153.387C144.746 154.262 145.943 155.046 147.456 155.693C150.146 156.841 153.844 157.551 157.925 157.551C162.007 157.551 165.704 156.841 168.394 155.693C169.907 155.046 171.104 154.262 171.873 153.387C172.505 152.672 172.85 151.893 172.85 151.081Z" fill="white" stroke="#242D3C" stroke-linecap="round" stroke-linejoin="round"/>
<path d="M172.85 155.693V160.305C172.85 161.117 172.505 161.896 171.873 162.611C171.104 163.487 169.907 164.27 168.394 164.917C165.704 166.065 162.007 166.775 157.925 166.775C153.844 166.775 150.146 166.065 147.456 164.917C145.943 164.27 144.746 163.487 143.978 162.611C143.345 161.896 143 161.117 143 160.305V155.693C143 156.506 143.345 157.284 143.978 157.999C144.746 158.875 145.943 159.658 147.456 160.305C150.146 161.453 153.844 162.163 157.925 162.163C162.007 162.163 165.704 161.453 168.394 160.305C169.907 159.658 171.104 158.875 171.873 157.999C172.505 157.284 172.85 156.506 172.85 155.693Z" fill="white" stroke="#242D3C" stroke-linecap="round" stroke-linejoin="round"/>
<path d="M172.85 160.305V164.917C172.85 165.729 172.505 166.508 171.873 167.223C171.099 168.098 169.902 168.882 168.389 169.529C165.699 170.677 162.002 171.387 157.925 171.387C153.848 171.387 150.151 170.677 147.461 169.529C145.948 168.882 144.751 168.098 143.978 167.223C143.345 166.508 143 165.729 143 164.917V160.305C143 161.117 143.345 161.896 143.978 162.611C144.746 163.487 145.943 164.27 147.456 164.917C150.146 166.065 153.844 166.775 157.925 166.775C162.007 166.775 165.704 166.065 168.394 164.917C169.907 164.27 171.104 163.487 171.873 162.611C172.505 161.896 172.85 161.117 172.85 160.305Z" fill="white" stroke="#242D3C" stroke-linecap="round" stroke-linejoin="round"/>
<path d="M172.85 164.917V169.529C172.85 170.342 172.505 171.12 171.873 171.835C171.099 172.711 169.902 173.494 168.389 174.141C165.699 175.289 162.002 175.999 157.925 175.999C153.848 175.999 150.151 175.289 147.461 174.141C145.948 173.494 144.751 172.711 143.978 171.835C143.345 171.12 143 170.342 143 169.529V164.917C143 165.73 143.345 166.508 143.978 167.223C144.751 168.099 145.948 168.882 147.461 169.529C150.151 170.677 153.848 171.388 157.925 171.388C162.002 171.388 165.699 170.677 168.389 169.529C169.902 168.882 171.099 168.099 171.873 167.223C172.505 166.508 172.85 165.73 172.85 164.917Z" fill="white" stroke="#242D3C" stroke-linecap="round" stroke-linejoin="round"/>
<path d="M149.003 142.999C151.669 141.999 160.503 140.499 168.003 143.499" stroke="#242D3C" stroke-width="0.5" stroke-linecap="round" stroke-linejoin="round"/>
</svg>
