<svg width="234" height="142" viewBox="0 0 234 142" fill="none" xmlns="http://www.w3.org/2000/svg">
<path d="M13.64 40.7V42.42H5.24V40.7H2.56V48.22H8.08V49.58H0.64V51.78H18.24V49.58H10.8V48.22H16.32V40.7H13.64ZM16.4 58.62V52.78H2.04V55.06H13.72V58.62H16.4ZM5.24 46.02V44.5H13.64V46.02H5.24ZM35.5667 58.42V50.7H32.8867V52.48H24.7267V50.7H22.0467V58.42H35.5667ZM32.0867 47.52C30.0867 47.16 28.4267 46.56 27.2467 45.42C27.1067 45.28 26.9667 45.12 26.8467 44.96L26.9467 44.76C27.1667 44.32 27.3267 43.86 27.4467 43.36H31.4067V41.2H20.0267V43.36H24.6467C24.3467 44.3 23.8467 45.1 23.1467 45.8C22.0867 46.86 20.6667 47.66 18.8867 48.16L20.4467 50.16C22.0667 49.66 23.8667 48.62 25.2467 47.2L25.5467 46.86C25.6267 46.96 25.7067 47.04 25.8067 47.12C27.1267 48.4 28.9067 49.32 30.7067 49.64L32.0867 47.52ZM35.6067 49.9V46.36H37.7267V44.08H35.6067V40.62H32.9267V49.9H35.6067ZM32.8867 56.18H24.7267V54.6H32.8867V56.18ZM48.0934 42.24V40.2H41.0934V42.24H48.0934ZM50.6934 44.96V42.92H38.4934V44.96H50.6934ZM44.7534 45.38C41.6134 45.38 39.6734 46.72 39.6734 48.7C39.6734 50.68 41.6134 52.02 44.7534 52.02C47.8934 52.02 49.8334 50.68 49.8334 48.7C49.8334 46.72 47.8934 45.38 44.7534 45.38ZM44.7534 50.06C43.0934 50.06 42.3134 49.52 42.3134 48.7C42.3134 47.88 43.0934 47.34 44.7534 47.34C46.4134 47.34 47.1934 47.88 47.1934 48.7C47.1934 49.52 46.4134 50.06 44.7534 50.06ZM54.4934 54.12V48.1H56.6134V45.78H54.4934V40.62H51.8134V54.12H54.4934ZM41.0334 52.98V58.34H55.0734V56.06H43.7134V52.98H41.0334ZM76.5427 53.66C75.1627 52.72 73.9827 51.68 73.0427 50.54C72.3027 49.64 71.6427 48.62 71.0827 47.5C71.7027 45.52 72.0027 43.4 72.0027 41.14H69.2827C69.2827 46.54 67.5827 50.98 63.3027 54.14L65.1027 56C67.2427 54.34 68.8627 52.4 70.0027 50.2C70.4427 50.92 70.9427 51.62 71.4827 52.3C72.5027 53.56 73.6227 54.64 74.8827 55.58L76.5427 53.66ZM74.0827 48.5H78.0427V58.54H80.7227V40.62H78.0427V46.22H74.0827V48.5ZM98.7294 50.14V47.88H87.3294V46.64H98.4294V41.1H84.6494V43.34H95.7694V44.48H84.6494V50.14H98.7294ZM89.4894 58.34V53.62H93.6094V58.54H96.2894V53.62H100.349V51.38H82.7494V53.62H86.8094V58.34H89.4894ZM118.479 53.78C117.379 52.84 116.439 51.82 115.679 50.7C115.099 49.82 114.619 48.84 114.219 47.78C114.339 47.36 114.439 46.94 114.539 46.52C114.759 45.62 114.899 44.68 114.999 43.7H117.979V41.42H108.719V43.7H112.339C112.279 44.46 112.159 45.2 112.019 45.9C111.299 49.54 109.679 52.48 107.539 54.46L109.479 56.04C110.219 55.28 110.919 54.42 111.579 53.48C112.159 52.64 112.699 51.72 113.159 50.72C113.399 51.22 113.659 51.7 113.959 52.16C114.739 53.44 115.679 54.58 116.759 55.58L118.479 53.78ZM116.619 48.82H119.199V58.08H121.799V40.82H119.199V46.54H116.619V48.82ZM125.499 58.52V40.62H122.859V58.52H125.499ZM144.685 50.5V48.58H127.085V50.5H134.525V51.42H128.885V53.34H140.165V54.02H128.885V58.42H143.265V56.48H131.565V55.78H142.845V51.42H137.245V50.5H144.685ZM128.765 48.14C130.765 48.06 132.985 47.72 134.785 46.96C135.145 46.8 135.485 46.62 135.805 46.44C136.145 46.66 136.505 46.86 136.905 47.04C138.625 47.78 140.825 48.08 142.905 48L144.065 46.04C141.665 46 139.605 45.88 138.045 45.24L137.425 44.94C137.445 44.88 137.485 44.84 137.525 44.78H142.905V42.78H128.785V44.78H134.245C133.885 45.04 133.445 45.24 132.925 45.4C131.585 45.82 129.765 46.02 127.685 46.12L128.765 48.14ZM139.765 40.22H131.925V42.22H139.765V40.22ZM169.055 49.9V40.62H166.375V44.06H163.435C163.375 43.78 163.275 43.5 163.155 43.24C162.375 41.48 160.515 40.36 158.315 40.36C155.355 40.36 153.075 42.36 153.075 45.16C153.075 47.96 155.355 49.96 158.315 49.96C160.515 49.96 162.375 48.82 163.155 47.1C163.255 46.86 163.355 46.6 163.415 46.34H166.375V49.9H169.055ZM162.295 58.42V57.42L163.575 58.78C164.075 58.44 164.595 58.02 165.095 57.48C165.595 56.96 166.075 56.36 166.495 55.68L166.655 55.92C167.495 57.18 168.655 58.18 169.735 58.7L171.175 56.8C170.315 56.42 169.535 55.94 168.855 55.36C168.295 54.88 167.835 54.28 167.455 53.58L167.535 53.36C167.795 52.52 167.955 51.62 167.975 50.66H165.335C165.275 52.24 164.935 53.54 164.315 54.56C163.775 55.46 163.115 56.18 162.295 56.76V50.7H159.695V52.48H157.615V50.7H155.015V58.42H162.295ZM158.315 47.76C156.715 47.76 155.755 46.7 155.755 45.16C155.755 43.62 156.715 42.56 158.315 42.56C159.915 42.56 160.875 43.62 160.875 45.16C160.875 46.7 159.915 47.76 158.315 47.76ZM159.695 56.18H157.615V54.6H159.695V56.18ZM183.401 47.54C183.401 43.94 180.901 41.42 177.601 41.42C174.301 41.42 171.801 43.94 171.801 47.54C171.801 51.14 174.301 53.66 177.601 53.66C180.901 53.66 183.401 51.14 183.401 47.54ZM180.721 47.54C180.721 49.86 179.441 51.38 177.601 51.38C175.761 51.38 174.481 49.86 174.481 47.54C174.481 45.22 175.761 43.7 177.601 43.7C179.441 43.7 180.721 45.22 180.721 47.54ZM188.081 58.54V40.62H185.401V58.54H188.081Z" fill="#999999"/>
<path d="M17.48 86.42V78.7H14.8V80.48H6.24V78.7H3.56V86.42H17.48ZM5.34 68.64C2.7 68.64 0.58 70.56 0.58 73.22C0.58 75.88 2.7 77.8 5.34 77.8C7.98 77.8 10.1 75.88 10.1 73.22C10.1 70.56 7.98 68.64 5.34 68.64ZM11.04 77.98H13.64V74.44H14.88V77.98H17.52V68.62H14.88V72.16H13.64V68.8H11.04V77.98ZM5.34 75.6C4.06 75.6 3.22 74.64 3.22 73.22C3.22 71.8 4.06 70.84 5.34 70.84C6.62 70.84 7.46 71.8 7.46 73.22C7.46 74.64 6.62 75.6 5.34 75.6ZM14.8 84.18H6.24V82.6H14.8V84.18ZM37.1267 85.02V82.74H19.5267V85.02H37.1267ZM28.2867 68.54C24.3467 68.54 21.6667 71.2 21.6667 74.2C21.6667 77.2 24.3467 79.86 28.2867 79.86C32.2867 79.86 34.9467 77.2 34.9467 74.2C34.9467 71.2 32.2867 68.54 28.2867 68.54ZM28.3067 77.58C25.8267 77.58 24.3467 76.02 24.3467 74.2C24.3467 72.4 25.8267 70.82 28.3067 70.82C30.7867 70.82 32.2667 72.4 32.2667 74.2C32.2667 76.02 30.7867 77.58 28.3067 77.58ZM56.0134 85.22V82.94H48.6734V80.16H54.3934V77.86H42.9934V75.82H54.0934V69.3H40.3134V71.58H51.4334V73.54H40.3134V80.16H45.9534V82.94H38.4134V85.22H56.0134ZM79.7427 81.76V75.5H81.8627V73.18H79.7427V68.62H77.0627V81.76H79.7427ZM66.2827 80.22V86.34H80.3227V84.06H68.9627V80.22H66.2827ZM64.8227 71.44H71.6227C71.0427 74.24 68.1427 76.64 63.6427 77.54L64.9027 79.62C69.8827 78.54 74.6027 75.06 74.5427 69.2H64.8227V71.44ZM94.2694 72.9H96.5894V73.76H94.2694V75.96H96.5894V81.92H99.2694V68.62H96.5894V70.7H94.6294V69.24H83.4494V71.48H85.0894L85.2494 76.86L82.9094 76.92V79.24L95.3894 78.74V76.54L92.9494 76.62L93.0894 71.48H94.2694V72.9ZM85.6094 80.38V86.34H99.8494V84.06H88.2894V80.38H85.6094ZM87.7694 71.48H90.4094L90.2694 76.7L87.9094 76.78L87.7694 71.48ZM110.796 70.86V68.58H104.596V70.86H110.796ZM113.396 74.08V71.8H101.916V74.08H113.396ZM107.656 74.58C104.476 74.58 102.576 76.7 102.576 79.36C102.576 82.02 104.476 84.14 107.656 84.14C110.836 84.14 112.736 82.02 112.736 79.36C112.736 76.7 110.836 74.58 107.656 74.58ZM107.656 81.9C106.036 81.9 105.256 80.86 105.256 79.36C105.256 77.86 106.036 76.82 107.656 76.82C109.276 76.82 110.056 77.86 110.056 79.36C110.056 80.86 109.276 81.9 107.656 81.9ZM117.296 86.54V78.12H119.836V75.8H117.296V68.62H114.616V86.54H117.296ZM121.323 71.72H126.383C126.163 75.5 123.983 79.54 120.263 82.28L122.163 84.02C126.083 80.86 129.183 76.02 129.183 69.44H121.323V71.72ZM128.683 77.88H131.023V86.08H133.623V68.82H131.023V75.56H128.683V77.88ZM137.423 86.52V68.62H134.783V86.52H137.423ZM158.532 76.92C157.232 76.42 156.092 75.74 155.072 74.9C154.372 74.32 153.812 73.62 153.352 72.8C153.412 72.66 153.452 72.5 153.512 72.34C153.892 71.24 154.092 70.1 154.112 68.9H151.392C151.232 72.68 149.352 75.92 145.532 77.56L147.212 79.48C149.112 78.58 150.812 77.14 152.032 75.32L152.232 75.04C153.512 76.8 155.232 78.2 157.032 78.96L158.532 76.92ZM148.952 80.22V86.34H163.192V84.06H151.632V80.22H148.952ZM162.692 81.76V68.62H160.012V81.76H162.692ZM166.079 78.88C167.759 78.46 169.519 77.52 170.859 76.24L171.199 75.88L171.359 76.02C172.739 77.24 174.639 78 176.299 78.2L177.619 76.06C175.739 75.78 174.019 75.28 172.779 74.24L172.499 73.96C172.639 73.7 172.739 73.42 172.839 73.12H176.459V75.2H178.899V78.8H181.579V68.62H178.899V73H176.939V71H165.779V73.12H169.959C169.679 73.8 169.259 74.38 168.699 74.88C167.679 75.76 166.319 76.4 164.579 76.82L166.079 78.88ZM175.459 78.62C172.099 78.62 169.679 80.34 169.679 82.84C169.679 85.34 172.099 87.06 175.459 87.06C178.819 87.06 181.239 85.34 181.239 82.84C181.239 80.34 178.819 78.62 175.459 78.62ZM175.459 84.9C173.459 84.9 172.359 84.1 172.359 82.84C172.359 81.58 173.459 80.78 175.459 80.78C177.459 80.78 178.559 81.58 178.559 82.84C178.559 84.1 177.459 84.9 175.459 84.9ZM174.819 70.32V68.2H168.099V70.32H174.819Z" fill="#242D3C"/>
<path d="M0.528 6.92C0.528 10.888 3.008 13.304 5.76 13.304C8.512 13.304 10.992 10.888 10.992 6.92C10.992 2.952 8.512 0.535999 5.76 0.535999C3.008 0.535999 0.528 2.952 0.528 6.92ZM8.912 6.92C8.912 9.8 7.376 11.544 5.76 11.544C4.144 11.544 2.608 9.8 2.608 6.92C2.608 4.04 4.144 2.296 5.76 2.296C7.376 2.296 8.912 4.04 8.912 6.92ZM16.1716 11.544C14.8916 11.544 13.8036 10.664 13.1476 9.336L11.6436 10.44C12.4916 12.104 14.2036 13.304 16.1716 13.304C19.0516 13.304 20.7636 11.512 20.7636 9.256C20.7636 7.352 19.5156 5.624 17.1476 5.368L20.3636 2.232V0.855999H12.3316V2.616H17.3556L13.8356 6.152L14.6196 7.56C14.8756 7.368 15.4996 7.032 16.1236 7.032C17.7076 7.032 18.6836 7.992 18.6836 9.256C18.6836 10.536 17.8036 11.544 16.1716 11.544Z" fill="#D7191F"/>
<path d="M9.72 110.924V106.556H1.596V110.924H9.72ZM2.508 107.348H8.808V110.132H2.508V107.348ZM6.132 116.9V113.18H10.92V112.388H0.408V113.18H5.196V116.9H6.132ZM19.312 114.296C18.508 113.78 17.8 113.144 17.176 112.4C16.588 111.692 16.108 110.96 15.748 110.192C15.82 109.94 15.892 109.676 15.952 109.412C16.144 108.536 16.24 107.576 16.24 106.532H15.304C15.268 110.336 13.9 113.084 11.56 114.68L12.172 115.316C13.384 114.416 14.416 113.252 15.124 111.812C15.22 111.608 15.316 111.416 15.4 111.212C15.52 111.44 15.652 111.656 15.808 111.884C16.588 113.084 17.656 114.248 18.688 114.992L19.312 114.296ZM21.592 116.9V106.196H20.68V109.796H17.92V110.612H20.68V116.9H21.592ZM32.5641 111.692V110.888H25.1721V109.52H32.3841V106.508H24.2601V107.3H31.4721V108.728H24.2601V111.692H32.5641ZM26.7561 116.78V113.66H29.9361V116.9H30.8601V113.66H33.5841V112.868H23.0721V113.66H25.8321V116.78H26.7561ZM45.7696 114.332C44.9776 113.816 44.2576 113.204 43.6216 112.496C42.9976 111.8 42.5056 111.056 42.1576 110.264C42.2056 110.108 42.2536 109.952 42.2896 109.784C42.4816 109.064 42.6016 108.284 42.6496 107.444H45.2656V106.652H38.6296V107.444H41.6896C41.6296 108.2 41.5216 108.908 41.3536 109.568C40.7776 111.884 39.5656 113.612 37.9696 114.728L38.5816 115.364C39.7216 114.512 40.7056 113.432 41.4256 112.052C41.5576 111.8 41.6896 111.536 41.7976 111.26C41.9296 111.512 42.0856 111.752 42.2416 111.992C43.0576 113.192 44.1136 114.296 45.1576 115.04L45.7696 114.332ZM47.4736 116.9V111.092H49.2136V110.276H47.4736V106.196H46.5616V116.9H47.4736ZM54.9776 112.556C52.9856 112.556 51.4496 113.48 51.4496 114.956C51.4496 116.432 52.9856 117.356 54.9776 117.356C56.9696 117.356 58.5056 116.432 58.5056 114.956C58.5056 113.48 56.9696 112.556 54.9776 112.556ZM59.1056 109.232H51.7736V107.132H58.9616V106.388H50.8616V109.988H54.5216V111.14H49.6736V111.908H60.1856V111.14H55.4576V109.988H59.1056V109.232ZM54.9776 116.588C53.5136 116.588 52.3616 115.964 52.3616 114.956C52.3616 113.948 53.5136 113.324 54.9776 113.324C56.4416 113.324 57.5936 113.948 57.5936 114.956C57.5936 115.964 56.4416 116.588 54.9776 116.588ZM62.8297 112.808V116.828H70.7497V112.808H62.8297ZM63.7417 113.576H69.8377V116.036H63.7417V113.576ZM68.4457 111.092C67.2697 110.66 66.2137 109.904 65.4697 108.968C65.3257 108.788 65.1937 108.608 65.0857 108.416C65.0977 108.356 65.1217 108.296 65.1457 108.236C65.3737 107.648 65.4937 107.036 65.5057 106.388H64.5697C64.4737 108.572 63.0817 110.54 60.8377 111.5L61.4137 112.136C62.5297 111.62 63.5377 110.816 64.2697 109.844C64.4257 109.64 64.5577 109.424 64.6897 109.196C64.7737 109.316 64.8697 109.436 64.9657 109.556C65.7577 110.54 66.8497 111.344 67.8937 111.8L68.4457 111.092ZM70.7737 112.208V106.196H69.8617V112.208H70.7737ZM79.7177 114.296C78.9137 113.78 78.2057 113.144 77.5817 112.4C76.9937 111.692 76.5137 110.96 76.1537 110.192C76.2257 109.94 76.2977 109.676 76.3577 109.412C76.5497 108.536 76.6457 107.576 76.6457 106.532H75.7097C75.6737 110.336 74.3057 113.084 71.9657 114.68L72.5777 115.316C73.7897 114.416 74.8217 113.252 75.5297 111.812C75.6257 111.608 75.7217 111.416 75.8057 111.212C75.9257 111.44 76.0577 111.656 76.2137 111.884C76.9937 113.084 78.0617 114.248 79.0937 114.992L79.7177 114.296ZM81.4697 116.9V111.092H83.2097V110.276H81.4697V106.196H80.5577V116.9H81.4697ZM83.6697 115.1V115.892H94.1817V115.1H89.4537V112.916H93.1617V112.112H85.7697V110.144H92.9817V106.652H84.8577V107.444H92.0697V109.352H84.8577V112.916H88.5177V115.1H83.6697ZM108.203 114.092V110.012H109.679V109.196H108.203V106.196H107.291V114.092H108.203ZM108.551 116.78V115.988H101.351V113.252H100.439V116.78H108.551ZM99.5633 107.36H104.075C103.823 109.424 101.891 111.344 98.9993 111.956L99.4553 112.676C102.383 112.004 105.119 109.844 105.083 106.568H99.5633V107.36ZM110.415 112.424L118.023 112.124V111.344L116.067 111.416L116.163 107.36H117.255V106.568H110.739V107.36H111.915L112.023 111.56L110.415 111.608V112.424ZM117.159 108.776H119.007V109.796H117.159V110.576H119.007V114.188H119.919V106.196H119.007V107.996H117.159V108.776ZM112.839 107.36H115.239L115.155 111.452L112.935 111.524L112.839 107.36ZM120.219 116.78V115.988H112.899V113.348H111.987V116.78H120.219ZM127.027 107.084V106.292H123.427V107.084H127.027ZM128.587 108.896V108.104H121.819V108.896H128.587ZM125.203 109.664C123.343 109.664 122.215 110.996 122.215 112.568C122.215 114.14 123.343 115.472 125.203 115.472C127.063 115.472 128.191 114.14 128.191 112.568C128.191 110.996 127.063 109.664 125.203 109.664ZM125.203 114.692C123.799 114.692 123.127 113.696 123.127 112.58C123.127 111.428 123.799 110.444 125.203 110.444C126.607 110.444 127.279 111.428 127.279 112.58C127.279 113.696 126.607 114.692 125.203 114.692ZM130.735 116.9V111.572H132.475V110.756H130.735V106.196H129.823V116.9H130.735ZM133.463 107.504H136.907C136.811 110.048 135.359 113.024 132.995 114.656L133.655 115.268C136.091 113.444 137.903 110.456 137.867 106.712H133.463V107.504ZM140.411 116.6V106.316H139.511V110.336H137.687V111.152H139.511V116.6H140.411ZM142.811 116.888V106.196H141.899V116.888H142.811ZM155.645 111.572C154.457 111.092 153.401 110.312 152.657 109.328C152.501 109.124 152.369 108.908 152.249 108.68L152.369 108.356C152.573 107.732 152.693 107.072 152.705 106.388H151.769C151.637 108.788 150.341 110.924 148.037 111.98L148.613 112.616C149.777 112.04 150.785 111.164 151.505 110.096C151.637 109.904 151.769 109.7 151.877 109.496C151.961 109.64 152.069 109.784 152.177 109.916C152.957 110.936 154.025 111.8 155.093 112.28L155.645 111.572ZM158.273 116.78V115.988H150.953V113.252H150.041V116.78H158.273ZM157.973 114.092V106.196H157.061V114.092H157.973ZM165.873 112.292C163.845 112.292 162.465 113.312 162.465 114.704C162.465 116.096 163.845 117.116 165.873 117.116C167.877 117.116 169.281 116.096 169.281 114.704C169.281 113.312 167.877 112.292 165.873 112.292ZM165.873 116.348C164.277 116.348 163.377 115.664 163.377 114.704C163.377 113.744 164.277 113.06 165.873 113.06C167.469 113.06 168.369 113.744 168.369 114.704C168.369 115.664 167.469 116.348 165.873 116.348ZM166.833 108.356V107.612H160.185V108.356H163.197C163.137 108.584 163.053 108.812 162.945 109.016C162.333 110.228 161.049 111.14 159.441 111.572L159.957 112.256C160.953 111.968 162.021 111.38 162.837 110.6C163.089 110.36 163.305 110.108 163.485 109.844L163.869 110.24C164.733 111.008 165.825 111.56 166.869 111.752L167.337 110.984C166.197 110.816 165.105 110.324 164.349 109.64C164.181 109.484 164.037 109.328 163.905 109.16C164.037 108.908 164.121 108.632 164.181 108.356H166.833ZM169.305 112.4V106.196H168.393V109.088H166.317V109.856H168.393V112.4H169.305ZM165.441 106.784V106.04H161.577V106.784H165.441ZM180.601 116.9V106.196H179.689V116.9H180.601ZM174.541 106.7C172.621 106.7 171.145 108.164 171.145 110.324C171.145 112.496 172.621 113.96 174.541 113.96C176.461 113.96 177.937 112.496 177.937 110.324C177.937 108.164 176.461 106.7 174.541 106.7ZM174.541 107.516C175.969 107.516 177.001 108.584 177.001 110.312C177.001 112.004 176.041 113.144 174.541 113.144C173.041 113.144 172.081 112.004 172.081 110.312C172.081 108.584 173.113 107.516 174.541 107.516ZM195.15 116.9V111.2H196.89V110.384H195.15V106.196H194.238V116.9H195.15ZM186.714 107.444H191.322C191.19 110.3 189.354 113.156 186.378 114.596L186.978 115.268C190.086 113.636 192.342 110.588 192.306 106.652H186.714V107.444ZM197.471 110.852V111.62H207.983V110.852H197.471ZM198.659 106.268V109.676H206.903V108.92H199.571V106.268H198.659ZM202.775 112.436C200.783 112.436 199.247 113.396 199.247 114.896C199.247 116.396 200.783 117.356 202.775 117.356C204.767 117.356 206.303 116.396 206.303 114.896C206.303 113.396 204.767 112.436 202.775 112.436ZM202.775 116.588C201.311 116.588 200.159 115.952 200.159 114.896C200.159 113.84 201.311 113.204 202.775 113.204C204.239 113.204 205.391 113.84 205.391 114.896C205.391 115.952 204.239 116.588 202.775 116.588ZM214.227 107.084V106.292H210.627V107.084H214.227ZM215.787 108.896V108.104H209.019V108.896H215.787ZM212.403 109.664C210.543 109.664 209.415 110.996 209.415 112.568C209.415 114.14 210.543 115.472 212.403 115.472C214.263 115.472 215.391 114.14 215.391 112.568C215.391 110.996 214.263 109.664 212.403 109.664ZM212.403 114.692C210.999 114.692 210.327 113.696 210.327 112.58C210.327 111.428 210.999 110.444 212.403 110.444C213.807 110.444 214.479 111.428 214.479 112.58C214.479 113.696 213.807 114.692 212.403 114.692ZM217.935 116.9V111.572H219.675V110.756H217.935V106.196H217.023V116.9H217.935ZM220.087 115.1V115.892H230.599V115.1H225.163V110.72H224.227V115.1H220.087ZM228.931 113.468C229.399 111.5 229.615 109.088 229.615 106.7H221.155V107.492H228.679C228.679 109.064 228.463 111.548 228.043 113.468H228.931ZM232.679 115.364H231.527V116.516H232.043C232.043 116.936 231.863 117.38 231.491 117.668L231.791 117.932C232.271 117.584 232.679 116.948 232.679 116.372V115.364ZM6.528 129.352C6.528 127.864 5.328 126.7 3.408 126.7C2.04 126.7 1.032 127.54 0.42 128.644L1.068 129.064C1.584 128.152 2.316 127.444 3.408 127.444C4.764 127.444 5.664 128.296 5.664 129.352C5.664 130.42 4.908 131.176 4.188 131.824L0.372 135.304V135.94H6.768V135.196H1.56L4.692 132.424C5.568 131.644 6.528 130.732 6.528 129.352ZM12.4644 132.772H8.54044L12.4644 128.26V132.772ZM7.44844 133.516H12.4644V135.94H13.3284V133.516H14.7324V132.772H13.3284V126.94H12.5844L7.44844 132.88V133.516ZM22.8277 134.296C22.0237 133.78 21.3157 133.144 20.6917 132.4C20.1037 131.692 19.6237 130.96 19.2637 130.192C19.3357 129.94 19.4077 129.676 19.4677 129.412C19.6597 128.536 19.7557 127.576 19.7557 126.532H18.8197C18.7837 130.336 17.4157 133.084 15.0757 134.68L15.6877 135.316C16.8997 134.416 17.9317 133.252 18.6397 131.812C18.7357 131.608 18.8317 131.416 18.9157 131.212C19.0357 131.44 19.1677 131.656 19.3237 131.884C20.1037 133.084 21.1717 134.248 22.2037 134.992L22.8277 134.296ZM25.1077 136.9V126.196H24.1957V136.9H25.1077ZM35.8517 134.092V130.012H37.3277V129.196H35.8517V126.196H34.9397V134.092H35.8517ZM36.1997 136.78V135.988H28.9997V133.252H28.0877V136.78H36.1997ZM27.2117 127.36H31.7237C31.4717 129.424 29.5397 131.344 26.6477 131.956L27.1037 132.676C30.0317 132.004 32.7677 129.844 32.7317 126.568H27.2117V127.36ZM44.9652 135.436C43.9932 135.436 42.9732 134.752 42.4572 133.864L41.7852 134.308C42.3612 135.412 43.5972 136.18 44.9652 136.18C47.0412 136.18 48.2892 134.884 48.2892 133.288C48.2892 131.74 47.1972 130.504 45.0612 130.468L47.9892 127.6V126.94H42.2052V127.684H46.8252L43.5492 130.876L43.8852 131.476C43.9812 131.44 44.5092 131.2 44.9292 131.2C46.4652 131.2 47.4252 132.1 47.4252 133.288C47.4252 134.476 46.5492 135.436 44.9652 135.436ZM52.2577 136.18C54.1537 136.18 55.4377 134.812 55.4377 133.12C55.4377 131.44 54.1537 130.06 52.2577 130.06C51.7897 130.06 51.2257 130.252 50.9737 130.444L52.9297 126.94H52.0057L49.6417 131.116C49.3537 131.632 49.0777 132.34 49.0777 133C49.0777 134.728 50.2297 136.18 52.2577 136.18ZM49.9417 133.12C49.9417 131.776 50.8657 130.804 52.2577 130.804C53.6497 130.804 54.5737 131.824 54.5737 133.12C54.5737 134.416 53.6497 135.436 52.2577 135.436C50.9137 135.436 49.9417 134.368 49.9417 133.12ZM57.4261 126.94L56.7061 131.248L57.3301 131.512C57.4861 131.392 58.3261 130.804 59.3701 130.804C61.0021 130.804 61.7221 131.824 61.7221 133.132C61.7221 134.44 60.7501 135.436 59.2621 135.436C58.2901 135.436 57.2341 134.764 56.7301 133.876L56.0821 134.32C56.6941 135.376 57.8701 136.18 59.2621 136.18C61.3261 136.18 62.5861 134.908 62.5861 133.132C62.5861 131.416 61.4701 130.06 59.3701 130.06C58.6861 130.06 58.0861 130.288 57.7021 130.516L58.1461 127.684H62.2021V126.94H57.4261ZM72.9505 131.8V126.196H72.0385V131.8H72.9505ZM73.1905 136.828V136.036H65.9185V134.932H72.9505V132.352H65.0065V133.12H72.0385V134.188H65.0065V136.828H73.1905ZM66.7465 126.112C65.0545 126.112 63.6745 127.252 63.6745 128.848C63.6745 130.444 65.0545 131.584 66.7465 131.584C68.4385 131.584 69.8185 130.444 69.8185 128.848C69.8185 127.252 68.4385 126.112 66.7465 126.112ZM66.7465 130.816C65.4625 130.816 64.5865 129.988 64.5865 128.848C64.5865 127.708 65.4625 126.88 66.7465 126.88C68.0305 126.88 68.9065 127.708 68.9065 128.848C68.9065 129.988 68.0305 130.816 66.7465 130.816ZM85.8081 136.6V131.032H87.5361V136.888H88.4481V126.196H87.5361V130.216H85.8081V126.316H84.9081V136.6H85.8081ZM79.2681 126.724V134.956L84.3081 134.668V133.888L80.1681 134.068V127.516H83.5641V126.724H79.2681ZM99.5161 136.828V136.072H91.9441V135.16H99.2641V132.82H95.6881V131.92H100.416V131.176H89.9041V131.92H94.7521V132.82H91.0321V133.564H98.3521V134.428H91.0321V136.828H99.5161ZM99.9481 129.772C98.5681 129.7 97.2601 129.448 96.2761 128.944C96.0361 128.824 95.8201 128.68 95.6281 128.524C95.6881 128.416 95.7361 128.32 95.7721 128.212H99.3001V127.468H90.9721V128.212H94.7401C94.6441 128.392 94.5121 128.548 94.3441 128.692C93.4801 129.412 91.9201 129.796 90.3481 129.868L90.7441 130.588C92.0041 130.528 93.7561 130.156 94.8481 129.352L95.1481 129.112C95.3881 129.292 95.6521 129.46 95.9401 129.604C97.0321 130.144 98.3761 130.456 99.5401 130.504L99.9481 129.772ZM97.4161 126.052H92.8561V126.796H97.4161V126.052ZM102.364 132.868V136.828H110.596V132.868H102.364ZM101.236 130.576V131.368H111.748V130.576H110.2C110.308 130.048 110.404 129.484 110.476 128.872C110.56 128.14 110.632 127.312 110.668 126.388H102.256V127.156H109.732C109.696 127.78 109.636 128.404 109.564 129.016C109.504 129.532 109.42 130.048 109.3 130.576H101.236ZM109.684 133.636V136.036H103.276V133.636H109.684ZM112.568 130.996V131.764H123.08V130.996H112.568ZM117.824 125.764C115.832 125.764 114.296 126.676 114.296 128.02C114.296 129.364 115.832 130.276 117.824 130.276C119.816 130.276 121.352 129.364 121.352 128.02C121.352 126.676 119.816 125.764 117.824 125.764ZM117.824 129.532C116.36 129.532 115.208 128.932 115.208 128.02C115.208 127.108 116.36 126.508 117.824 126.508C119.288 126.508 120.44 127.108 120.44 128.02C120.44 128.932 119.288 129.532 117.824 129.532ZM122.18 136.828V136.072H114.608V135.1H121.928V132.724H113.696V133.468H121.016V134.38H113.696V136.828H122.18ZM133.094 126.448V128.32H129.218V126.448H128.306V131.824H134.006V126.448H133.094ZM129.278 132.988V136.828H137.342V136.036H130.19V133.756H137.078V132.988H129.278ZM129.218 131.032V129.112H133.094V131.032H129.218ZM137.102 132.388V129.592H138.578V128.776H137.102V126.196H136.19V132.388H137.102ZM139.17 130.996V131.764H149.682V130.996H139.17ZM144.426 125.764C142.434 125.764 140.898 126.676 140.898 128.02C140.898 129.364 142.434 130.276 144.426 130.276C146.418 130.276 147.954 129.364 147.954 128.02C147.954 126.676 146.418 125.764 144.426 125.764ZM144.426 129.532C142.962 129.532 141.81 128.932 141.81 128.02C141.81 127.108 142.962 126.508 144.426 126.508C145.89 126.508 147.042 127.108 147.042 128.02C147.042 128.932 145.89 129.532 144.426 129.532ZM148.782 136.828V136.072H141.21V135.1H148.53V132.724H140.298V133.468H147.618V134.38H140.298V136.828H148.782ZM160.163 136.9V133.06H164.951V132.268H154.439V133.06H159.227V136.9H160.163ZM164.519 130.36C163.475 130.156 162.563 129.82 161.807 129.352C161.135 128.932 160.583 128.392 160.151 127.732C160.331 127.312 160.439 126.856 160.463 126.376H159.503C159.347 128.548 157.163 129.988 154.727 130.372L155.219 131.092C156.431 130.9 157.727 130.348 158.723 129.532C159.107 129.208 159.443 128.86 159.719 128.464C160.211 129.124 160.775 129.652 161.435 130.06C162.227 130.552 163.091 130.9 164.039 131.104L164.519 130.36ZM173.153 126.16C171.389 126.16 170.033 127.336 170.033 129.016C170.033 130.696 171.389 131.872 173.153 131.872C174.917 131.872 176.273 130.696 176.273 129.016C176.273 127.336 174.917 126.16 173.153 126.16ZM173.153 131.08C171.809 131.08 170.945 130.216 170.945 129.016C170.945 127.816 171.809 126.952 173.153 126.952C174.497 126.952 175.361 127.816 175.361 129.016C175.361 130.216 174.497 131.08 173.153 131.08ZM175.073 137.116C175.745 136.696 176.501 136.132 177.089 135.412C177.221 135.268 177.329 135.112 177.437 134.956C177.749 135.304 178.073 135.628 178.421 135.928C178.913 136.336 179.429 136.66 179.957 136.888L180.533 136.204C179.993 136 179.453 135.7 178.925 135.328C178.505 135.028 178.133 134.68 177.821 134.296L177.857 134.212C178.073 133.768 178.205 133.3 178.253 132.784H177.293C177.233 133.564 176.945 134.284 176.429 134.944C176.273 135.148 176.093 135.352 175.913 135.532C175.565 135.364 175.241 135.16 174.941 134.92C174.617 134.644 174.329 134.32 174.089 133.972C174.269 133.6 174.389 133.204 174.425 132.784H173.465C173.273 134.356 171.965 135.616 170.441 136.204L171.017 136.816C171.689 136.528 172.481 136 173.141 135.316C173.345 135.1 173.525 134.872 173.693 134.632C173.897 134.908 174.125 135.172 174.365 135.4C174.641 135.664 174.941 135.892 175.241 136.084C174.989 136.264 174.725 136.42 174.449 136.576L175.073 137.116ZM179.357 132.208V126.196H178.445V132.208H179.357ZM184.713 126.7C182.793 126.7 181.317 128.164 181.317 130.324C181.317 132.496 182.793 133.96 184.713 133.96C186.141 133.96 187.353 133.132 187.845 131.812C187.977 131.476 188.061 131.104 188.097 130.708H189.861V136.9H190.773V126.196H189.861V129.892H188.085C188.049 129.52 187.977 129.172 187.845 128.848C187.353 127.528 186.141 126.7 184.713 126.7ZM184.713 127.516C186.141 127.516 187.173 128.584 187.173 130.312C187.173 132.004 186.213 133.144 184.713 133.144C183.213 133.144 182.253 132.004 182.253 130.312C182.253 128.584 183.285 127.516 184.713 127.516ZM197.617 126.172C195.277 126.172 193.705 127.696 193.705 129.424C193.705 131.152 195.277 132.676 197.617 132.676C199.957 132.676 201.529 131.152 201.529 129.424C201.529 127.696 199.957 126.172 197.617 126.172ZM197.617 131.884C195.769 131.884 194.617 130.744 194.617 129.424C194.617 128.104 195.769 126.964 197.617 126.964C199.465 126.964 200.617 128.104 200.617 129.424C200.617 130.744 199.465 131.884 197.617 131.884ZM192.373 135.1V135.892H202.885V135.1H200.521V132.832H199.597V135.1H195.697V132.832H194.773V135.1H192.373ZM203.909 136.6H205.061V135.448H203.909V136.6Z" fill="#999999"/>
</svg>
