<svg width="58" height="16" viewBox="0 0 58 16" fill="none" xmlns="http://www.w3.org/2000/svg">
<path d="M14.144 4.352H12.096V0.768H10.448V9.456H12.096V5.712H14.144V4.352ZM8.352 8.688L9.216 7.392C8.68267 7.21067 8.20267 6.97067 7.776 6.672C7.36 6.37333 7.008 6.03733 6.72 5.664C6.432 5.28 6.21333 4.86933 6.064 4.432C5.91467 3.99467 5.84 3.54133 5.84 3.072V1.52H4.176V2.944C4.176 3.46667 4.10133 3.97867 3.952 4.48C3.80267 4.97067 3.57867 5.42933 3.28 5.856C2.98133 6.28267 2.61333 6.66133 2.176 6.992C1.73867 7.32267 1.23733 7.584 0.672 7.776L1.552 9.088C2.384 8.77867 3.09333 8.33067 3.68 7.744C4.26667 7.15733 4.72 6.464 5.04 5.664C5.34933 6.34667 5.78133 6.95467 6.336 7.488C6.90133 8.01067 7.57333 8.41067 8.352 8.688ZM7.44 9.808C6.69333 9.808 6.02133 9.872 5.424 10C4.83733 10.1173 4.336 10.2933 3.92 10.528C3.504 10.752 3.184 11.0347 2.96 11.376C2.736 11.7067 2.624 12.0853 2.624 12.512C2.624 12.9387 2.736 13.3227 2.96 13.664C3.184 13.9947 3.504 14.2773 3.92 14.512C4.336 14.7467 4.83733 14.9227 5.424 15.04C6.02133 15.168 6.69333 15.232 7.44 15.232C8.19733 15.232 8.86933 15.168 9.456 15.04C10.0533 14.9227 10.56 14.7467 10.976 14.512C11.392 14.2773 11.7067 13.9947 11.92 13.664C12.144 13.3227 12.256 12.9387 12.256 12.512C12.256 11.6587 11.8293 10.9973 10.976 10.528C10.1227 10.048 8.944 9.808 7.44 9.808ZM7.44 13.936C6.40533 13.936 5.616 13.8187 5.072 13.584C4.528 13.3493 4.256 12.992 4.256 12.512C4.256 12.064 4.528 11.7173 5.072 11.472C5.616 11.2267 6.40533 11.104 7.44 11.104C8.47467 11.104 9.264 11.2267 9.808 11.472C10.352 11.7173 10.624 12.064 10.624 12.512C10.624 12.992 10.352 13.3493 9.808 13.584C9.264 13.8187 8.47467 13.936 7.44 13.936ZM18.7348 2.528V5.184H16.7668V6.512H27.3108V5.184H25.3588V2.528H27.3908V1.2H16.6868V2.528H18.7348ZM23.7108 2.528V5.184H20.3828V2.528H23.7108ZM22.8788 8.992H28.5908V7.664H15.5188V8.992H21.2308V10.464H17.0868V15.056H27.0068V10.464H22.8788V8.992ZM25.3908 11.776V13.744H18.7188V11.776H25.3908ZM43.5815 5.072H41.5335V0.783999H39.8855V11.376H41.5335V6.432H43.5815V5.072ZM38.1255 5.36C38.1255 4.82667 38.0242 4.34133 37.8215 3.904C37.6295 3.46667 37.3628 3.088 37.0215 2.768C36.6802 2.448 36.2695 2.20267 35.7895 2.032C35.3202 1.85067 34.8135 1.76 34.2695 1.76C33.7255 1.76 33.2188 1.85067 32.7495 2.032C32.2802 2.20267 31.8748 2.448 31.5335 2.768C31.1922 3.088 30.9202 3.46667 30.7175 3.904C30.5255 4.34133 30.4295 4.82667 30.4295 5.36C30.4295 5.88267 30.5255 6.368 30.7175 6.816C30.9202 7.25333 31.1922 7.632 31.5335 7.952C31.8748 8.272 32.2802 8.52267 32.7495 8.704C33.2188 8.88533 33.7255 8.976 34.2695 8.976C34.8135 8.976 35.3202 8.88533 35.7895 8.704C36.2695 8.52267 36.6802 8.272 37.0215 7.952C37.3628 7.632 37.6295 7.25333 37.8215 6.816C38.0242 6.368 38.1255 5.88267 38.1255 5.36ZM32.0455 5.36C32.0455 5.02933 32.0988 4.73067 32.2055 4.464C32.3228 4.19733 32.4828 3.968 32.6855 3.776C32.8882 3.584 33.1228 3.44 33.3895 3.344C33.6562 3.23733 33.9495 3.184 34.2695 3.184C34.5895 3.184 34.8828 3.23733 35.1495 3.344C35.4268 3.44 35.6615 3.584 35.8535 3.776C36.0562 3.968 36.2162 4.19733 36.3335 4.464C36.4508 4.73067 36.5095 5.02933 36.5095 5.36C36.5095 5.69067 36.4508 5.99467 36.3335 6.272C36.2162 6.53867 36.0562 6.768 35.8535 6.96C35.6615 7.152 35.4268 7.30133 35.1495 7.408C34.8828 7.504 34.5895 7.552 34.2695 7.552C33.9495 7.552 33.6562 7.504 33.3895 7.408C33.1228 7.30133 32.8882 7.152 32.6855 6.96C32.4828 6.768 32.3228 6.53867 32.2055 6.272C32.0988 5.99467 32.0455 5.69067 32.0455 5.36ZM34.0455 13.616V10.288H32.3815V14.96H42.1095V13.616H34.0455ZM57.2603 0.783999H55.6923V6.528H53.9803V1.072H52.4283V14.512H53.9803V7.888H55.6923V15.232H57.2603V0.783999ZM47.2603 10.176V2.448H45.6123V11.584H46.5723C47.3403 11.584 48.1403 11.5573 48.9723 11.504C49.8043 11.4507 50.7056 11.3333 51.6763 11.152L51.5003 9.744C50.7003 9.89333 49.9536 10 49.2603 10.064C48.5669 10.1173 47.9003 10.1547 47.2603 10.176Z" fill="black"/>
</svg>
