<svg width="294" height="256" viewBox="0 0 294 256" fill="none" xmlns="http://www.w3.org/2000/svg">
<path d="M265.999 36.6759C268.985 25.2527 276.428 11.4585 288.608 18.6757C299.806 25.3121 288.1 25.8954 280.89 24.4985C289.178 28.6785 286.979 32.1367 275.276 30.7866C281.134 31.7057 288.038 37.8431 265.997 36.6858L265.999 36.6759Z" fill="white" stroke="#242D3C" stroke-linecap="round" stroke-linejoin="round"/>
<path d="M232.913 51.5737C224.753 42.6237 216.743 29.1937 228.643 25.2237C239.583 21.5637 234.463 29.9337 229.833 34.0237C237.313 30.8737 239.163 34.4737 232.413 41.6637C235.993 38.2137 244.463 37.1937 232.913 51.5837V51.5737Z" fill="white" stroke="#242D3C" stroke-linecap="round" stroke-linejoin="round"/>
<path d="M228.923 59.2337C218.193 61.7137 214.443 59.3137 212.533 58.7237C208.293 57.4037 209.763 50.1837 215.523 53.5037C221.283 56.8237 227.843 55.0837 227.843 55.0837L231.083 56.2837L228.913 59.2337H228.923Z" fill="#F6B637" stroke="#242D3C" stroke-linecap="round" stroke-linejoin="round"/>
<path d="M236.272 23.8134C220.472 16.3534 225.162 25.7034 229.492 31.3034C229.492 31.3034 233.502 32.9934 235.462 30.1534C237.422 27.3134 236.272 23.8134 236.272 23.8134Z" fill="#D7191F" stroke="#242D3C" stroke-linecap="round" stroke-linejoin="round"/>
<path d="M275.541 44.9534C280.621 62.8634 272.061 72.6734 259.101 76.3534C246.141 80.0334 233.701 76.1834 228.621 58.2734C223.541 40.3634 229.921 22.8534 242.871 19.1834C255.821 15.5134 270.451 27.0434 275.531 44.9634L275.541 44.9534Z" fill="white"/>
<path d="M226.57 26.7333C227.06 25.0833 227.97 22.5833 230.69 21.8833" stroke="#242D3C" stroke-linecap="round" stroke-linejoin="round"/>
<path d="M227.953 30.1335C228.673 27.7135 229.993 24.0635 233.973 23.0435" stroke="#242D3C" stroke-linecap="round" stroke-linejoin="round"/>
<path d="M227.2 24.9629L226.57 26.7729L228.6 29.1029L228.91 28.2029L229.59 26.8229L230.64 24.9629L232.17 23.4729L233.81 22.8329L230.62 21.5229L229.46 22.5329L228.67 23.0629L227.19 24.9829L227.2 24.9629Z" fill="#242D3C"/>
<path d="M257.633 76.7332C257.633 76.7332 262.533 85.6032 264.743 84.7732C266.953 83.9432 263.293 74.8732 263.293 74.8732L258.983 72.8032L257.643 76.7332H257.633Z" fill="#F6B637" stroke="#242D3C" stroke-linecap="round" stroke-linejoin="round"/>
<path d="M269.781 69.5137C269.781 69.5137 278.571 74.5637 280.031 72.7037C281.491 70.8437 273.651 64.9937 273.651 64.9937L268.891 65.4637L269.781 69.5237V69.5137Z" fill="#F6B637" stroke="#242D3C" stroke-linecap="round" stroke-linejoin="round"/>
<path d="M275.541 44.953C280.621 62.863 272.681 72.493 260.491 75.953C248.301 79.413 236.481 75.393 231.401 57.473C226.321 39.563 232.081 22.233 244.271 18.773C256.461 15.313 270.461 27.033 275.551 44.943L275.541 44.953Z" fill="#D7191F"/>
<path d="M275.541 44.9534C280.621 62.8634 272.061 72.6734 259.101 76.3534C246.141 80.0334 233.701 76.1834 228.621 58.2734C223.541 40.3634 229.921 22.8534 242.871 19.1834C255.821 15.5134 270.451 27.0434 275.531 44.9634L275.541 44.9534Z" stroke="#242D3C" stroke-miterlimit="10"/>
<path d="M206.669 42.1931L218.919 63.4031" stroke="#242D3C" stroke-linecap="round"/>
<path d="M201.263 34.25C201.129 33.6199 201.88 33.1775 202.363 33.6065L203.945 35.041C204.588 35.6175 205.54 35.7248 206.291 35.2824L208.141 34.2098C208.704 33.888 209.348 34.4645 209.093 35.0679L208.222 37.0253C207.873 37.8163 208.061 38.7548 208.718 39.3313L210.313 40.7658C210.796 41.1949 210.434 41.9993 209.79 41.9323L207.659 41.7043C206.787 41.6105 205.969 42.0931 205.607 42.8842L204.736 44.8416C204.468 45.4315 203.596 45.3376 203.462 44.7075L203.02 42.616C202.832 41.758 202.135 41.1278 201.263 41.034L199.132 40.8061C198.488 40.739 198.301 39.881 198.864 39.5592L200.714 38.4866C201.465 38.0576 201.853 37.1728 201.679 36.3281L201.237 34.2366L201.263 34.25Z" fill="#FFE600" stroke="#242D3C" stroke-linejoin="round"/>
<path d="M191 33.5435L195.25 35.1335" stroke="#242D3C" stroke-linecap="round" stroke-linejoin="round"/>
<path d="M194.719 27.7036L197.369 30.3536" stroke="#242D3C" stroke-linecap="round" stroke-linejoin="round"/>
<path d="M200.023 25.0435L201.083 28.2235" stroke="#242D3C" stroke-linecap="round" stroke-linejoin="round"/>
<path d="M231.902 39.3932C231.902 39.3932 241.442 37.6132 250.942 33.0532C257.822 29.7532 262.432 37.9632 256.662 42.8732C256.662 42.8732 261.882 39.9232 264.092 45.0032C266.302 50.0832 262.622 53.8232 256.492 56.8732C250.362 59.9132 240.972 61.0032 237.912 60.1132C237.912 60.1132 231.782 55.2632 231.892 39.3832L231.902 39.3932Z" fill="white" stroke="#242D3C" stroke-miterlimit="10" stroke-linejoin="round"/>
<path d="M235.156 43.8437C235.456 44.9937 236.426 47.1537 237.896 46.5937C239.366 46.0337 239.566 43.9837 239.486 43.0337" stroke="#242D3C" stroke-linecap="round" stroke-linejoin="round"/>
<path d="M245.773 41.083C246.073 42.233 247.043 44.393 248.513 43.833C249.983 43.273 250.183 41.2229 250.103 40.2729" stroke="#242D3C" stroke-linecap="round" stroke-linejoin="round"/>
<path d="M245.602 50.7128C245.902 51.8628 246.872 54.0228 248.342 53.4628C249.812 52.9028 250.012 50.8528 249.932 49.9028" stroke="#242D3C" stroke-linecap="round" stroke-linejoin="round"/>
<path d="M240.304 51.9928C241.939 51.9928 243.264 50.6675 243.264 49.0328C243.264 47.398 241.939 46.0728 240.304 46.0728C238.669 46.0728 237.344 47.398 237.344 49.0328C237.344 50.6675 238.669 51.9928 240.304 51.9928Z" fill="#D7191F" stroke="#242D3C" stroke-linecap="round" stroke-linejoin="round"/>
<path d="M269.673 47.1027C280.693 47.3027 283.843 44.1227 285.583 43.1327C289.443 40.9327 286.463 34.0727 281.533 38.5827C276.603 43.0927 269.833 42.7527 269.833 42.7527C269.833 42.7527 267.453 42.6727 267.453 44.8527C267.453 47.0327 269.673 47.1027 269.673 47.1027Z" fill="#F6B637" stroke="#242D3C" stroke-linecap="round" stroke-linejoin="round"/>
<path d="M262.25 26.543C268.43 10.203 259.49 15.633 254.25 20.393C254.25 20.393 252.88 24.533 255.88 26.243C258.88 27.953 262.26 26.543 262.26 26.543H262.25Z" fill="#D7191F" stroke="#242D3C" stroke-linecap="round" stroke-linejoin="round"/>
<path d="M256.258 18.6431C258.218 18.9631 262.488 20.8331 263.448 23.6831" stroke="#242D3C" stroke-linecap="round" stroke-linejoin="round"/>
<path d="M260.362 17.333L258.512 16.853L256.352 19.063L257.282 19.303L258.712 19.873L260.652 20.773L262.262 22.183L263.032 23.773L264.082 20.483L262.982 19.403L262.382 18.653L260.352 17.333H260.362Z" fill="#242D3C"/>
<path d="M280.8 12.9589C282.225 12.52 285.601 12.1355 287.705 14.1076" stroke="#242D3C" stroke-linecap="round"/>
<path d="M218.314 29.8659C218.649 28.4132 220.007 25.2994 222.769 24.4663" stroke="#242D3C" stroke-linecap="round"/>
<path d="M281.152 10.8705C282.577 10.4317 285.952 10.0471 288.057 12.0192" stroke="#242D3C" stroke-linecap="round"/>
<path d="M216.681 28.5148C217.016 27.0621 218.375 23.9483 221.136 23.1152" stroke="#242D3C" stroke-linecap="round"/>
<path d="M256.166 5.8836C256.296 6.48143 256.096 7.19086 255.474 7.99819C254.855 8.80306 253.858 9.64645 252.535 10.4707C249.891 12.1168 246.039 13.6271 241.607 14.5919C237.175 15.5567 233.044 15.784 229.955 15.3856C228.409 15.1862 227.152 14.8333 226.254 14.3587C225.353 13.8827 224.876 13.3206 224.746 12.7227C224.616 12.1249 224.816 11.4155 225.437 10.6081C226.057 9.80327 227.053 8.95988 228.377 8.13562C231.021 6.48956 234.872 4.97919 239.305 4.01441C243.737 3.04963 247.868 2.82233 250.957 3.22069C252.503 3.42016 253.76 3.773 254.658 4.2476C255.559 4.72364 256.035 5.28578 256.166 5.8836Z" stroke="#242D3C"/>
<path d="M252.622 6.03139C252.656 6.186 252.58 6.50624 252.035 7.00646C251.521 7.47923 250.707 7.99889 249.632 8.5273C247.489 9.58061 244.41 10.619 240.907 11.3815C237.404 12.144 234.173 12.4792 231.785 12.412C230.588 12.3783 229.631 12.244 228.967 12.0277C228.265 11.7989 228.062 11.5394 228.028 11.3847C227.995 11.2301 228.071 10.9099 228.615 10.4097C229.129 9.93691 229.943 9.41725 231.018 8.88884C233.162 7.83553 236.24 6.79714 239.743 6.03464C243.246 5.27214 246.478 4.93697 248.865 5.00411C250.063 5.0378 251.019 5.17213 251.683 5.38839C252.386 5.61722 252.588 5.87678 252.622 6.03139Z" stroke="#242D3C"/>
<mask id="mask0_393_10" style="mask-type:alpha" maskUnits="userSpaceOnUse" x="0" y="14" width="280" height="242">
<rect y="14" width="280" height="242" fill="#D9D9D9"/>
</mask>
<g mask="url(#mask0_393_10)">
<path d="M240.5 167.671C250.5 167.671 254.281 172.627 257.161 177C258.121 172.627 258 163.939 265.801 163.006" stroke="#242D3C" stroke-linecap="round" stroke-linejoin="round"/>
<path d="M0 27.401C64.2927 17.1077 108.242 31.1067 111.313 56.909C115.151 89.1618 96.9188 84.3582 96.9188 76.8097C96.9188 69.2611 109.394 41.1258 145.858 41.812C182.323 42.4983 233.181 90.5344 257.171 176.313" stroke="#242D3C" stroke-linecap="round" stroke-linejoin="round"/>
<path d="M257.959 190C257.959 192.653 256.368 198.043 250 198.378C252.932 198.099 258.797 199.132 258.797 205.5C258.658 202.707 259.635 197.54 266.338 197.54C263.111 197.1 257.959 196.703 257.959 190Z" stroke="#242D3C" stroke-linejoin="round"/>
</g>
<path d="M141.5 205H145.476L158.076 183.72H154.212L141.5 205ZM149.116 188.592C149.116 185.372 146.876 183.188 143.824 183.188C140.772 183.188 138.532 185.372 138.532 188.592C138.532 191.812 140.772 193.996 143.824 193.996C146.876 193.996 149.116 191.812 149.116 188.592ZM145.532 188.592C145.532 190.076 144.832 190.916 143.824 190.916C142.816 190.916 142.116 190.076 142.116 188.592C142.116 187.108 142.816 186.268 143.824 186.268C144.832 186.268 145.532 187.108 145.532 188.592ZM161.324 200.128C161.324 196.908 159.084 194.724 156.032 194.724C152.98 194.724 150.74 196.908 150.74 200.128C150.74 203.348 152.98 205.532 156.032 205.532C159.084 205.532 161.324 203.348 161.324 200.128ZM157.74 200.128C157.74 201.612 157.04 202.452 156.032 202.452C155.024 202.452 154.324 201.612 154.324 200.128C154.324 198.644 155.024 197.804 156.032 197.804C157.04 197.804 157.74 198.644 157.74 200.128Z" fill="#D7191F"/>
<path d="M34.52 156.2H61.808L40.856 203H50.72L72.68 153.68V148.28H34.52V156.2ZM74.0986 208.184H84.1786V198.104H74.0986V208.184ZM85.6394 175.64C85.6394 193.496 96.7994 204.368 109.183 204.368C121.567 204.368 132.727 193.496 132.727 175.64C132.727 157.784 121.567 146.912 109.183 146.912C96.7994 146.912 85.6394 157.784 85.6394 175.64ZM123.367 175.64C123.367 188.6 116.455 196.448 109.183 196.448C101.911 196.448 94.9994 188.6 94.9994 175.64C94.9994 162.68 101.911 154.832 109.183 154.832C116.455 154.832 123.367 162.68 123.367 175.64Z" fill="#D7191F"/>
<path d="M35.7 129.96C37.3 129.4 38.98 128.42 40.28 127.08L40.68 126.66L40.98 127.02C42.22 128.34 43.88 129.22 45.62 129.54L47.02 127.52C45.12 127.16 43.56 126.6 42.42 125.38C42.24 125.2 42.08 124.98 41.94 124.76C42.06 124.5 42.16 124.24 42.26 123.98H46.26V121.74H35.18V123.98H39.46L39.38 124.14C38.46 125.98 36.58 127.3 34.16 128.02L35.7 129.96ZM50.42 136.54V118.62H47.74V136.54H50.42ZM47.14 134.02V131.78L42.04 131.84V128.96H39.32V131.88L33.94 131.94V134.22L47.14 134.02ZM37.6 118.7V120.94H43.84V118.7H37.6ZM53.8467 134.08C54.9267 133.26 55.8867 132.34 56.7467 131.3C57.4867 130.4 58.1467 129.44 58.6867 128.4L58.8067 128.62C60.0867 130.64 61.8667 132.5 63.6667 133.66L65.2867 131.7C62.7867 130.28 60.9467 128.3 59.8067 125.76C59.9867 125.18 60.1467 124.6 60.2867 123.98C60.4667 123.22 60.5867 122.44 60.6667 121.62H64.7067V119.34H53.2467V121.62H57.9267C57.8667 122.24 57.7667 122.86 57.6467 123.46C56.9267 127.16 55.1067 130.22 52.0467 132.22L53.8467 134.08ZM63.0067 126.62H66.7067V136.54H69.3867V118.62H66.7067V124.34H63.0067V126.62Z" fill="#242D3C"/>
</svg>
