<svg width="251" height="394" viewBox="0 0 251 394" fill="none" xmlns="http://www.w3.org/2000/svg">
<path d="M13.64 40.7V42.42H5.24V40.7H2.56V48.22H8.08V49.58H0.64V51.78H18.24V49.58H10.8V48.22H16.32V40.7H13.64ZM16.4 58.62V52.78H2.04V55.06H13.72V58.62H16.4ZM5.24 46.02V44.5H13.64V46.02H5.24ZM35.5667 58.42V50.7H32.8867V52.48H24.7267V50.7H22.0467V58.42H35.5667ZM32.0867 47.52C30.0867 47.16 28.4267 46.56 27.2467 45.42C27.1067 45.28 26.9667 45.12 26.8467 44.96L26.9467 44.76C27.1667 44.32 27.3267 43.86 27.4467 43.36H31.4067V41.2H20.0267V43.36H24.6467C24.3467 44.3 23.8467 45.1 23.1467 45.8C22.0867 46.86 20.6667 47.66 18.8867 48.16L20.4467 50.16C22.0667 49.66 23.8667 48.62 25.2467 47.2L25.5467 46.86C25.6267 46.96 25.7067 47.04 25.8067 47.12C27.1267 48.4 28.9067 49.32 30.7067 49.64L32.0867 47.52ZM35.6067 49.9V46.36H37.7267V44.08H35.6067V40.62H32.9267V49.9H35.6067ZM32.8867 56.18H24.7267V54.6H32.8867V56.18ZM48.0934 42.24V40.2H41.0934V42.24H48.0934ZM50.6934 44.96V42.92H38.4934V44.96H50.6934ZM44.7534 45.38C41.6134 45.38 39.6734 46.72 39.6734 48.7C39.6734 50.68 41.6134 52.02 44.7534 52.02C47.8934 52.02 49.8334 50.68 49.8334 48.7C49.8334 46.72 47.8934 45.38 44.7534 45.38ZM44.7534 50.06C43.0934 50.06 42.3134 49.52 42.3134 48.7C42.3134 47.88 43.0934 47.34 44.7534 47.34C46.4134 47.34 47.1934 47.88 47.1934 48.7C47.1934 49.52 46.4134 50.06 44.7534 50.06ZM54.4934 54.12V48.1H56.6134V45.78H54.4934V40.62H51.8134V54.12H54.4934ZM41.0334 52.98V58.34H55.0734V56.06H43.7134V52.98H41.0334ZM76.5427 53.66C75.1627 52.72 73.9827 51.68 73.0427 50.54C72.3027 49.64 71.6427 48.62 71.0827 47.5C71.7027 45.52 72.0027 43.4 72.0027 41.14H69.2827C69.2827 46.54 67.5827 50.98 63.3027 54.14L65.1027 56C67.2427 54.34 68.8627 52.4 70.0027 50.2C70.4427 50.92 70.9427 51.62 71.4827 52.3C72.5027 53.56 73.6227 54.64 74.8827 55.58L76.5427 53.66ZM74.0827 48.5H78.0427V58.54H80.7227V40.62H78.0427V46.22H74.0827V48.5ZM98.7294 50.14V47.88H87.3294V46.64H98.4294V41.1H84.6494V43.34H95.7694V44.48H84.6494V50.14H98.7294ZM89.4894 58.34V53.62H93.6094V58.54H96.2894V53.62H100.349V51.38H82.7494V53.62H86.8094V58.34H89.4894ZM118.479 53.78C117.379 52.84 116.439 51.82 115.679 50.7C115.099 49.82 114.619 48.84 114.219 47.78C114.339 47.36 114.439 46.94 114.539 46.52C114.759 45.62 114.899 44.68 114.999 43.7H117.979V41.42H108.719V43.7H112.339C112.279 44.46 112.159 45.2 112.019 45.9C111.299 49.54 109.679 52.48 107.539 54.46L109.479 56.04C110.219 55.28 110.919 54.42 111.579 53.48C112.159 52.64 112.699 51.72 113.159 50.72C113.399 51.22 113.659 51.7 113.959 52.16C114.739 53.44 115.679 54.58 116.759 55.58L118.479 53.78ZM116.619 48.82H119.199V58.08H121.799V40.82H119.199V46.54H116.619V48.82ZM125.499 58.52V40.62H122.859V58.52H125.499ZM144.685 50.5V48.58H127.085V50.5H134.525V51.42H128.885V53.34H140.165V54.02H128.885V58.42H143.265V56.48H131.565V55.78H142.845V51.42H137.245V50.5H144.685ZM128.765 48.14C130.765 48.06 132.985 47.72 134.785 46.96C135.145 46.8 135.485 46.62 135.805 46.44C136.145 46.66 136.505 46.86 136.905 47.04C138.625 47.78 140.825 48.08 142.905 48L144.065 46.04C141.665 46 139.605 45.88 138.045 45.24L137.425 44.94C137.445 44.88 137.485 44.84 137.525 44.78H142.905V42.78H128.785V44.78H134.245C133.885 45.04 133.445 45.24 132.925 45.4C131.585 45.82 129.765 46.02 127.685 46.12L128.765 48.14ZM139.765 40.22H131.925V42.22H139.765V40.22ZM169.055 49.9V40.62H166.375V44.06H163.435C163.375 43.78 163.275 43.5 163.155 43.24C162.375 41.48 160.515 40.36 158.315 40.36C155.355 40.36 153.075 42.36 153.075 45.16C153.075 47.96 155.355 49.96 158.315 49.96C160.515 49.96 162.375 48.82 163.155 47.1C163.255 46.86 163.355 46.6 163.415 46.34H166.375V49.9H169.055ZM162.295 58.42V57.42L163.575 58.78C164.075 58.44 164.595 58.02 165.095 57.48C165.595 56.96 166.075 56.36 166.495 55.68L166.655 55.92C167.495 57.18 168.655 58.18 169.735 58.7L171.175 56.8C170.315 56.42 169.535 55.94 168.855 55.36C168.295 54.88 167.835 54.28 167.455 53.58L167.535 53.36C167.795 52.52 167.955 51.62 167.975 50.66H165.335C165.275 52.24 164.935 53.54 164.315 54.56C163.775 55.46 163.115 56.18 162.295 56.76V50.7H159.695V52.48H157.615V50.7H155.015V58.42H162.295ZM158.315 47.76C156.715 47.76 155.755 46.7 155.755 45.16C155.755 43.62 156.715 42.56 158.315 42.56C159.915 42.56 160.875 43.62 160.875 45.16C160.875 46.7 159.915 47.76 158.315 47.76ZM159.695 56.18H157.615V54.6H159.695V56.18ZM183.401 47.54C183.401 43.94 180.901 41.42 177.601 41.42C174.301 41.42 171.801 43.94 171.801 47.54C171.801 51.14 174.301 53.66 177.601 53.66C180.901 53.66 183.401 51.14 183.401 47.54ZM180.721 47.54C180.721 49.86 179.441 51.38 177.601 51.38C175.761 51.38 174.481 49.86 174.481 47.54C174.481 45.22 175.761 43.7 177.601 43.7C179.441 43.7 180.721 45.22 180.721 47.54ZM188.081 58.54V40.62H185.401V58.54H188.081Z" fill="#999999"/>
<path d="M17.48 86.42V78.7H14.8V80.48H6.24V78.7H3.56V86.42H17.48ZM5.34 68.64C2.7 68.64 0.58 70.56 0.58 73.22C0.58 75.88 2.7 77.8 5.34 77.8C7.98 77.8 10.1 75.88 10.1 73.22C10.1 70.56 7.98 68.64 5.34 68.64ZM11.04 77.98H13.64V74.44H14.88V77.98H17.52V68.62H14.88V72.16H13.64V68.8H11.04V77.98ZM5.34 75.6C4.06 75.6 3.22 74.64 3.22 73.22C3.22 71.8 4.06 70.84 5.34 70.84C6.62 70.84 7.46 71.8 7.46 73.22C7.46 74.64 6.62 75.6 5.34 75.6ZM14.8 84.18H6.24V82.6H14.8V84.18ZM37.1267 85.02V82.74H19.5267V85.02H37.1267ZM28.2867 68.54C24.3467 68.54 21.6667 71.2 21.6667 74.2C21.6667 77.2 24.3467 79.86 28.2867 79.86C32.2867 79.86 34.9467 77.2 34.9467 74.2C34.9467 71.2 32.2867 68.54 28.2867 68.54ZM28.3067 77.58C25.8267 77.58 24.3467 76.02 24.3467 74.2C24.3467 72.4 25.8267 70.82 28.3067 70.82C30.7867 70.82 32.2667 72.4 32.2667 74.2C32.2667 76.02 30.7867 77.58 28.3067 77.58ZM56.0134 85.22V82.94H48.6734V80.16H54.3934V77.86H42.9934V75.82H54.0934V69.3H40.3134V71.58H51.4334V73.54H40.3134V80.16H45.9534V82.94H38.4134V85.22H56.0134ZM79.7427 81.76V75.5H81.8627V73.18H79.7427V68.62H77.0627V81.76H79.7427ZM66.2827 80.22V86.34H80.3227V84.06H68.9627V80.22H66.2827ZM64.8227 71.44H71.6227C71.0427 74.24 68.1427 76.64 63.6427 77.54L64.9027 79.62C69.8827 78.54 74.6027 75.06 74.5427 69.2H64.8227V71.44ZM94.2694 72.9H96.5894V73.76H94.2694V75.96H96.5894V81.92H99.2694V68.62H96.5894V70.7H94.6294V69.24H83.4494V71.48H85.0894L85.2494 76.86L82.9094 76.92V79.24L95.3894 78.74V76.54L92.9494 76.62L93.0894 71.48H94.2694V72.9ZM85.6094 80.38V86.34H99.8494V84.06H88.2894V80.38H85.6094ZM87.7694 71.48H90.4094L90.2694 76.7L87.9094 76.78L87.7694 71.48ZM110.796 70.86V68.58H104.596V70.86H110.796ZM113.396 74.08V71.8H101.916V74.08H113.396ZM107.656 74.58C104.476 74.58 102.576 76.7 102.576 79.36C102.576 82.02 104.476 84.14 107.656 84.14C110.836 84.14 112.736 82.02 112.736 79.36C112.736 76.7 110.836 74.58 107.656 74.58ZM107.656 81.9C106.036 81.9 105.256 80.86 105.256 79.36C105.256 77.86 106.036 76.82 107.656 76.82C109.276 76.82 110.056 77.86 110.056 79.36C110.056 80.86 109.276 81.9 107.656 81.9ZM117.296 86.54V78.12H119.836V75.8H117.296V68.62H114.616V86.54H117.296ZM121.323 71.72H126.383C126.163 75.5 123.983 79.54 120.263 82.28L122.163 84.02C126.083 80.86 129.183 76.02 129.183 69.44H121.323V71.72ZM128.683 77.88H131.023V86.08H133.623V68.82H131.023V75.56H128.683V77.88ZM137.423 86.52V68.62H134.783V86.52H137.423ZM158.532 76.92C157.232 76.42 156.092 75.74 155.072 74.9C154.372 74.32 153.812 73.62 153.352 72.8C153.412 72.66 153.452 72.5 153.512 72.34C153.892 71.24 154.092 70.1 154.112 68.9H151.392C151.232 72.68 149.352 75.92 145.532 77.56L147.212 79.48C149.112 78.58 150.812 77.14 152.032 75.32L152.232 75.04C153.512 76.8 155.232 78.2 157.032 78.96L158.532 76.92ZM148.952 80.22V86.34H163.192V84.06H151.632V80.22H148.952ZM162.692 81.76V68.62H160.012V81.76H162.692ZM166.079 78.88C167.759 78.46 169.519 77.52 170.859 76.24L171.199 75.88L171.359 76.02C172.739 77.24 174.639 78 176.299 78.2L177.619 76.06C175.739 75.78 174.019 75.28 172.779 74.24L172.499 73.96C172.639 73.7 172.739 73.42 172.839 73.12H176.459V75.2H178.899V78.8H181.579V68.62H178.899V73H176.939V71H165.779V73.12H169.959C169.679 73.8 169.259 74.38 168.699 74.88C167.679 75.76 166.319 76.4 164.579 76.82L166.079 78.88ZM175.459 78.62C172.099 78.62 169.679 80.34 169.679 82.84C169.679 85.34 172.099 87.06 175.459 87.06C178.819 87.06 181.239 85.34 181.239 82.84C181.239 80.34 178.819 78.62 175.459 78.62ZM175.459 84.9C173.459 84.9 172.359 84.1 172.359 82.84C172.359 81.58 173.459 80.78 175.459 80.78C177.459 80.78 178.559 81.58 178.559 82.84C178.559 84.1 177.459 84.9 175.459 84.9ZM174.819 70.32V68.2H168.099V70.32H174.819Z" fill="#242D3C"/>
<path d="M0.528 6.92C0.528 10.888 3.008 13.304 5.76 13.304C8.512 13.304 10.992 10.888 10.992 6.92C10.992 2.952 8.512 0.535999 5.76 0.535999C3.008 0.535999 0.528 2.952 0.528 6.92ZM8.912 6.92C8.912 9.8 7.376 11.544 5.76 11.544C4.144 11.544 2.608 9.8 2.608 6.92C2.608 4.04 4.144 2.296 5.76 2.296C7.376 2.296 8.912 4.04 8.912 6.92ZM16.1716 11.544C14.8916 11.544 13.8036 10.664 13.1476 9.336L11.6436 10.44C12.4916 12.104 14.2036 13.304 16.1716 13.304C19.0516 13.304 20.7636 11.512 20.7636 9.256C20.7636 7.352 19.5156 5.624 17.1476 5.368L20.3636 2.232V0.855999H12.3316V2.616H17.3556L13.8356 6.152L14.6196 7.56C14.8756 7.368 15.4996 7.032 16.1236 7.032C17.7076 7.032 18.6836 7.992 18.6836 9.256C18.6836 10.536 17.8036 11.544 16.1716 11.544Z" fill="#D7191F"/>
<mask id="mask0_245_13" style="mask-type:alpha" maskUnits="userSpaceOnUse" x="4" y="162" width="247" height="232">
<rect x="4" y="162" width="247" height="232" fill="#D9D9D9"/>
</mask>
<g mask="url(#mask0_245_13)">
<g filter="url(#filter0_d_245_13)">
<path d="M190.71 187H65.2918C58.3652 187 52.75 192.615 52.75 199.542V508.906C52.75 515.833 58.3652 521.448 65.2918 521.448H190.71C197.637 521.448 203.252 515.833 203.252 508.906V199.542C203.252 192.615 197.637 187 190.71 187Z" fill="white"/>
</g>
<path d="M116.694 248.092V244.382H115.685V248.092H116.694ZM111.516 248.393V251.079H116.679V248.393H111.516ZM112.525 249.236H115.67V250.222H112.525V249.236ZM110.959 245.443H113.518C113.277 246.376 112.141 247.114 110.515 247.437L110.99 248.22C112.803 247.836 114.639 246.707 114.617 244.6H110.959V245.443ZM123.559 246.03H119.315V245.315H123.484V244.487H118.306V246.865H120.421V247.332H117.584V248.16H124.206V247.332H121.444V246.865H123.559V246.03ZM120.925 248.385C119.608 248.385 118.675 248.995 118.675 249.928C118.675 250.861 119.608 251.471 120.925 251.471C122.242 251.471 123.175 250.861 123.175 249.928C123.175 248.995 122.242 248.385 120.925 248.385ZM120.925 250.658C120.112 250.658 119.684 250.372 119.684 249.928C119.684 249.484 120.112 249.198 120.925 249.198C121.738 249.198 122.167 249.484 122.167 249.928C122.167 250.372 121.738 250.658 120.925 250.658ZM127.083 246.173C125.917 246.173 125.209 246.677 125.209 247.422C125.209 248.167 125.917 248.671 127.083 248.671C128.242 248.671 128.957 248.167 128.957 247.422C128.957 246.677 128.242 246.173 127.083 246.173ZM129.145 247.031H130.048V247.49H129.145V248.318H130.048V249.462H131.056V244.382H130.048V246.203H129.145V247.031ZM125.887 249.033V251.049H131.245V250.191H126.895V249.033H125.887ZM129.311 246.015V245.247H124.796V246.015H129.311ZM128.332 244.992V244.224H125.774V244.992H128.332ZM127.083 247.934C126.481 247.934 126.203 247.731 126.203 247.422C126.203 247.114 126.481 246.911 127.083 246.911C127.685 246.911 127.964 247.114 127.964 247.422C127.964 247.731 127.685 247.934 127.083 247.934ZM132.218 244.525V247.806L136.703 247.603V246.76L133.226 246.873V244.525H132.218ZM138.012 248.092V244.382H137.004V248.092H138.012ZM132.835 248.393V251.079H137.997V248.393H132.835ZM133.843 249.236H136.989V250.222H133.843V249.236ZM145.216 251.125V244.382H144.208V251.125H145.216ZM143.982 250.101V249.258L139.015 249.319V250.176L143.982 250.101ZM141.446 244.533C140.204 244.533 139.354 245.481 139.354 246.504C139.354 247.528 140.204 248.476 141.446 248.476C142.688 248.476 143.538 247.528 143.538 246.504C143.538 245.481 142.688 244.533 141.446 244.533ZM141.446 247.618C140.784 247.618 140.362 247.076 140.362 246.504C140.362 245.932 140.784 245.39 141.446 245.39C142.108 245.39 142.53 245.932 142.53 246.504C142.53 247.076 142.108 247.618 141.446 247.618ZM88.1716 262.657H89.1499V259.331H89.7369V262.823H90.7302V256.088H89.7369V258.458H89.1499V256.163H88.1716V262.657ZM84.7778 256.404V261.641L87.8706 261.461V260.618L85.7711 260.708V257.262H87.5922V256.404H84.7778ZM98.0999 259.805V259.083H91.4777V259.805H94.277V260.151H92.1549V260.874H96.3992V261.13H92.1549V262.785H97.5656V262.055H93.1633V261.792H97.4076V260.151H95.3006V259.805H98.0999ZM92.1098 258.917C92.8623 258.887 93.6976 258.759 94.3748 258.473C94.5103 258.413 94.6384 258.345 94.7588 258.278C94.8867 258.36 95.0221 258.436 95.1727 258.503C95.8198 258.782 96.6476 258.895 97.4302 258.865L97.8666 258.127C96.9636 258.112 96.1885 258.067 95.6016 257.826L95.3683 257.713C95.3758 257.691 95.3909 257.676 95.4059 257.653H97.4302V256.9H92.1173V257.653H94.1716C94.0362 257.751 93.8706 257.826 93.675 257.886C93.1708 258.044 92.486 258.12 91.7034 258.157L92.1098 258.917ZM96.2487 255.937H93.2987V256.69H96.2487V255.937ZM103.31 259.211C102.821 259.023 102.392 258.767 102.008 258.451C101.745 258.232 101.534 257.969 101.361 257.661C101.383 257.608 101.398 257.548 101.421 257.487C101.564 257.074 101.639 256.645 101.647 256.193H100.623C100.563 257.615 99.8558 258.834 98.4185 259.451L99.0506 260.174C99.7655 259.835 100.405 259.293 100.864 258.609L100.939 258.503C101.421 259.166 102.068 259.692 102.745 259.978L103.31 259.211ZM99.7053 260.452V262.755H105.063V261.897H100.714V260.452H99.7053ZM104.875 261.032V256.088H103.867V261.032H104.875ZM106.149 259.948C106.781 259.79 107.444 259.436 107.948 258.955L108.076 258.819L108.136 258.872C108.655 259.331 109.37 259.617 109.995 259.692L110.491 258.887C109.784 258.782 109.137 258.594 108.67 258.202L108.565 258.097C108.617 257.999 108.655 257.894 108.693 257.781H110.055V258.564H110.973V259.918H111.981V256.088H110.973V257.736H110.235V256.983H106.036V257.781H107.609C107.504 258.037 107.346 258.255 107.135 258.443C106.751 258.774 106.24 259.015 105.585 259.173L106.149 259.948ZM109.679 259.85C108.414 259.85 107.504 260.497 107.504 261.438C107.504 262.379 108.414 263.026 109.679 263.026C110.943 263.026 111.853 262.379 111.853 261.438C111.853 260.497 110.943 259.85 109.679 259.85ZM109.679 262.213C108.926 262.213 108.512 261.912 108.512 261.438C108.512 260.964 108.926 260.663 109.679 260.663C110.431 260.663 110.845 260.964 110.845 261.438C110.845 261.912 110.431 262.213 109.679 262.213ZM109.438 256.727V255.93H106.909V256.727H109.438ZM117.304 258.691C117.304 257.337 116.363 256.389 115.122 256.389C113.88 256.389 112.939 257.337 112.939 258.691C112.939 260.046 113.88 260.994 115.122 260.994C116.363 260.994 117.304 260.046 117.304 258.691ZM116.296 258.691C116.296 259.564 115.814 260.136 115.122 260.136C114.429 260.136 113.948 259.564 113.948 258.691C113.948 257.819 114.429 257.247 115.122 257.247C115.814 257.247 116.296 257.819 116.296 258.691ZM119.065 262.83V256.088H118.056V262.83H119.065ZM127.105 260.43V259.602L125.239 259.625V259.173L125.495 259.105C126.209 258.865 126.691 258.323 126.691 257.585C126.691 256.599 125.841 255.952 124.704 255.952C123.568 255.952 122.718 256.599 122.718 257.585C122.718 258.323 123.199 258.865 123.914 259.105C124.012 259.135 124.11 259.158 124.215 259.181V259.64L122.289 259.662V260.505L127.105 260.43ZM128.384 261.257V258.91H129.137V258.037H128.384V256.088H127.376V261.257H128.384ZM123.169 260.783V262.702H128.595V261.844H124.178V260.783H123.169ZM124.704 258.39C124.11 258.39 123.726 258.067 123.726 257.585C123.726 257.104 124.11 256.78 124.704 256.78C125.284 256.78 125.683 257.104 125.683 257.585C125.683 258.067 125.284 258.39 124.704 258.39ZM136.1 262.334V261.476H134.572V260.43H135.49V259.564H131.201V258.797H135.378V256.344H130.193V257.201H134.377V257.939H130.193V260.43H131.156V261.476H129.478V262.334H136.1ZM132.164 260.43H133.564V261.476H132.164V260.43ZM141.663 261.807V260.964L139.827 260.987V259.805H141.393V258.94H138.157V257.217H141.242V256.359H137.148V259.805H138.804V261.002L136.697 261.024V261.882L141.663 261.807ZM142.898 262.83V256.088H141.889V262.83H142.898ZM149.906 259.873V256.088H148.898V257.427H147.814C147.791 257.329 147.754 257.232 147.709 257.134C147.415 256.456 146.708 256.02 145.865 256.02C144.744 256.02 143.863 256.795 143.863 257.879C143.863 258.962 144.744 259.737 145.865 259.737C146.708 259.737 147.415 259.293 147.709 258.631C147.761 258.526 147.799 258.413 147.821 258.3H148.898V259.873H149.906ZM150.568 262.168C149.974 261.957 149.462 261.671 149.078 261.242L148.988 261.13C149.116 260.836 149.199 260.52 149.221 260.174H148.213C148.19 260.445 148.13 260.693 148.032 260.919C147.942 261.137 147.829 261.34 147.686 261.513C147.679 261.506 147.663 261.506 147.656 261.506C147.362 261.385 147.092 261.22 146.873 261.017L146.76 260.896C146.858 260.671 146.918 260.43 146.941 260.174H145.933C145.805 261.069 145.24 261.784 144.149 262.145L144.751 262.793C145.233 262.604 145.745 262.273 146.158 261.822C146.226 261.747 146.294 261.671 146.354 261.589C146.467 261.701 146.587 261.814 146.715 261.912C146.813 261.987 146.911 262.055 147.016 262.123C146.851 262.228 146.67 262.326 146.474 262.416L147.129 263.003C147.603 262.785 148.1 262.416 148.491 261.942C148.514 261.905 148.544 261.875 148.566 261.844L148.574 261.852C148.98 262.334 149.492 262.71 150.019 262.921L150.568 262.168ZM145.865 258.88C145.24 258.88 144.872 258.481 144.872 257.879C144.872 257.277 145.24 256.878 145.865 256.878C146.49 256.878 146.858 257.277 146.858 257.879C146.858 258.481 146.49 258.88 145.865 258.88ZM156.726 262.785V260.106H155.718V260.708H152.482V260.106H151.474V262.785H156.726ZM151.429 258.661C152.143 258.601 152.971 258.345 153.641 257.931C153.799 257.826 153.949 257.713 154.092 257.585C154.198 257.683 154.318 257.773 154.446 257.856C155.116 258.3 155.959 258.564 156.764 258.609L157.215 257.856C156.275 257.781 155.469 257.563 154.867 257.171C154.77 257.104 154.679 257.028 154.597 256.953C154.619 256.908 154.634 256.863 154.657 256.825C154.77 256.592 154.83 256.344 154.837 256.08H153.799C153.739 257.171 152.474 257.758 150.992 257.901L151.429 258.661ZM157.418 259.805V258.977H150.796V259.805H157.418ZM155.718 261.942H152.482V261.506H155.718V261.942ZM164.096 262.83V256.088H163.087V262.83H164.096ZM158.392 256.283V261.604L162.786 261.37V260.528L159.4 260.671V256.283H158.392ZM170.826 262.83V259.211H171.781V258.338H170.826V256.088H169.817V262.83H170.826ZM165.347 256.359V261.649L169.516 261.416V260.573L166.356 260.716V257.201H168.99V256.359H165.347Z" fill="#242D3C"/>
<path d="M104.353 357.299L99.5728 374.279" stroke="#242D3C"/>
<path d="M125.163 300.61C125.163 300.61 130.706 298.985 130.401 291.152C130.097 283.315 115.135 280.546 108.366 289.883C108.366 289.883 102.445 285.54 97.0133 288.194C91.2428 291.015 90.2654 294.582 89.4808 299.945C88.6963 305.308 89.3565 307.542 83.6375 311.092C77.9185 314.642 80.0878 321.878 86.7113 322.658C86.7113 322.658 88.1604 333.749 96.1128 328.986C96.1128 328.986 100.636 333.205 107.68 329.646C107.68 329.646 114.951 334.954 120.712 329.95C120.712 329.95 126.359 330.735 130.941 325.856C135.525 320.978 132.686 317.779 130.941 315.366C129.192 312.952 126.123 309.162 125.158 300.601V300.61H125.163Z" fill="#242D3C" stroke="#242D3C" stroke-miterlimit="10"/>
<path d="M120.725 301.219C120.725 301.219 117.832 301.219 111.847 297.232C111.847 297.232 109.6 297.108 107.684 298.321C105.772 299.53 102.48 301.45 103.444 305.39C104.409 309.326 104.486 311.821 101.914 306.754C99.3416 301.686 94.4412 312.139 103.003 312.018C103.003 312.018 106.857 320.978 113.493 320.978C120.13 320.978 119.718 314.389 119.641 313.3C119.559 312.211 119.075 303.268 120.73 301.215V301.223L120.725 301.219Z" fill="white" stroke="#242D3C" stroke-miterlimit="10"/>
<path d="M105.777 302.942C105.777 302.942 108.066 300.528 110.313 301.411" stroke="#242D3C" stroke-miterlimit="10" stroke-linecap="round"/>
<path d="M117.79 299.564C117.79 299.564 106.683 297.017 116.084 309.313" stroke="#242D3C" stroke-miterlimit="10" stroke-linecap="round"/>
<path d="M108.373 306.758C108.75 306.758 109.055 306.453 109.055 306.076C109.055 305.699 108.75 305.394 108.373 305.394C107.996 305.394 107.691 305.699 107.691 306.076C107.691 306.453 107.996 306.758 108.373 306.758Z" fill="#242D3C"/>
<path d="M114.72 305.385C115.098 305.385 115.402 305.081 115.402 304.704C115.402 304.326 115.098 304.022 114.72 304.022C114.343 304.022 114.039 304.326 114.039 304.704C114.039 305.081 114.343 305.385 114.72 305.385Z" fill="#242D3C"/>
<path d="M111.564 311.902C111.564 311.902 113.613 314.839 115.581 314.114C117.545 313.39 116.546 311.345 116.546 311.345" stroke="#242D3C" stroke-miterlimit="10" stroke-linecap="round"/>
<path d="M105.777 286.793C105.777 286.793 108.023 287.436 108.367 289.888" stroke="#242D3C" stroke-miterlimit="10" stroke-linecap="round"/>
<path d="M85.4062 306.076C85.4062 306.076 87.7685 307.28 88.836 304.712" stroke="#242D3C" stroke-miterlimit="10" stroke-linecap="round"/>
<path d="M120.869 324.288C120.869 324.288 121.624 327.46 118.07 329.66C118.07 329.66 125.422 334.26 120.869 324.288Z" fill="white" stroke="#242D3C" stroke-linecap="round" stroke-linejoin="round"/>
<path d="M166.025 358.263C166.025 358.263 166.643 358.502 166.025 360.024C166.025 360.024 167.148 362.305 165.519 363.287C163.89 364.264 163.106 365.551 160.503 364.796" stroke="#242D3C" stroke-miterlimit="10"/>
<path d="M106.495 326.003L108.21 325.36L108.424 324.716C108.424 324.716 114.855 328.716 116.141 329.003L115.712 330.29L113.355 335.863L108.424 340.15L109.925 342.508L110.997 343.58L112.926 341.865V347.438L114.212 352.154L117.213 358.371L113.355 358.799L107.138 357.942L103.28 357.084L104.137 352.797L104.566 350.011L101.994 352.154L98.1351 354.083L95.3487 354.726L93.6338 354.083L93.2051 352.797V350.439L94.2769 346.795L96.3562 341.865L98.2475 337.965L99.9499 334.56L101.994 331.156L104.566 328.146L106.495 326.003Z" fill="#D7191F"/>
<path d="M102.571 356.887C102.571 356.887 116.556 362.353 131.333 353.993" stroke="#242D3C" stroke-miterlimit="10" stroke-linecap="round"/>
<path d="M104.429 349.993C104.429 349.993 103.85 353.633 103.361 355.322" stroke="#242D3C" stroke-miterlimit="10" stroke-linecap="round"/>
<path d="M141.43 371.995C157.383 371.995 170.317 359.061 170.317 343.108C170.317 327.156 157.383 314.222 141.43 314.222C125.478 314.222 112.543 327.156 112.543 343.108C112.543 359.061 125.478 371.995 141.43 371.995Z" fill="#F7B637" stroke="#242D3C" stroke-miterlimit="10"/>
<mask id="path-22-inside-1_245_13" fill="white">
<path fill-rule="evenodd" clip-rule="evenodd" d="M128.02 339.354C124.718 339.816 122.688 340.445 122.688 341.138C122.688 341.87 124.958 342.531 128.601 342.999C129.748 349.166 131.754 355.285 134.311 355.285C137.378 355.285 139.98 349.575 141.507 343.71C141.593 343.71 141.679 343.71 141.766 343.71C141.819 343.71 141.871 343.71 141.924 343.71C142.64 349.849 144.196 355.954 146.679 355.954C149.218 355.954 152.023 349.415 153.703 343.144C158.057 342.673 160.844 341.949 160.844 341.138C160.844 340.384 158.441 339.706 154.611 339.236C155.347 335.452 155.487 332.388 154.654 331.89C154.035 331.52 152.696 335.082 151.284 338.908C149.338 338.756 147.176 338.65 144.875 338.599C144.027 334.94 143.11 331.506 142.348 331.264C142.328 331.248 142.307 331.234 142.286 331.221C141.647 330.839 140.157 334.64 138.653 338.599C136.2 338.654 133.905 338.771 131.861 338.939C130.43 334.538 128.875 330.04 128.005 330.445C127.346 330.752 127.4 334.695 128.02 339.354ZM136.712 343.619C135.535 343.575 134.404 343.517 133.33 343.445C134.018 345.488 134.576 346.94 134.867 346.94C135.246 346.94 135.917 345.561 136.712 343.619ZM146.014 343.646C146.537 345.929 146.971 347.609 147.235 347.609C147.779 347.609 148.624 345.839 149.559 343.486C148.431 343.554 147.245 343.608 146.014 343.646Z"/>
</mask>
<path fill-rule="evenodd" clip-rule="evenodd" d="M128.02 339.354C124.718 339.816 122.688 340.445 122.688 341.138C122.688 341.87 124.958 342.531 128.601 342.999C129.748 349.166 131.754 355.285 134.311 355.285C137.378 355.285 139.98 349.575 141.507 343.71C141.593 343.71 141.679 343.71 141.766 343.71C141.819 343.71 141.871 343.71 141.924 343.71C142.64 349.849 144.196 355.954 146.679 355.954C149.218 355.954 152.023 349.415 153.703 343.144C158.057 342.673 160.844 341.949 160.844 341.138C160.844 340.384 158.441 339.706 154.611 339.236C155.347 335.452 155.487 332.388 154.654 331.89C154.035 331.52 152.696 335.082 151.284 338.908C149.338 338.756 147.176 338.65 144.875 338.599C144.027 334.94 143.11 331.506 142.348 331.264C142.328 331.248 142.307 331.234 142.286 331.221C141.647 330.839 140.157 334.64 138.653 338.599C136.2 338.654 133.905 338.771 131.861 338.939C130.43 334.538 128.875 330.04 128.005 330.445C127.346 330.752 127.4 334.695 128.02 339.354ZM136.712 343.619C135.535 343.575 134.404 343.517 133.33 343.445C134.018 345.488 134.576 346.94 134.867 346.94C135.246 346.94 135.917 345.561 136.712 343.619ZM146.014 343.646C146.537 345.929 146.971 347.609 147.235 347.609C147.779 347.609 148.624 345.839 149.559 343.486C148.431 343.554 147.245 343.608 146.014 343.646Z" fill="#F6B637"/>
<path d="M128.02 339.354L128.159 340.344C128.703 340.268 129.084 339.767 129.012 339.222L128.02 339.354ZM128.601 342.999L129.584 342.817C129.505 342.39 129.159 342.063 128.729 342.007L128.601 342.999ZM141.507 343.71L141.508 342.71C141.052 342.709 140.654 343.017 140.539 343.458L141.507 343.71ZM141.924 343.71L142.917 343.594C142.858 343.089 142.431 342.709 141.923 342.71L141.924 343.71ZM153.703 343.144L153.595 342.15C153.185 342.195 152.844 342.487 152.737 342.885L153.703 343.144ZM154.611 339.236L153.629 339.045C153.576 339.317 153.639 339.599 153.802 339.823C153.965 340.048 154.214 340.194 154.489 340.228L154.611 339.236ZM154.654 331.89L154.141 332.749V332.749L154.654 331.89ZM151.284 338.908L151.207 339.905C151.653 339.939 152.067 339.674 152.222 339.254L151.284 338.908ZM144.875 338.599L143.901 338.825C144.004 339.27 144.396 339.589 144.853 339.599L144.875 338.599ZM142.348 331.264L141.726 332.048C141.822 332.123 141.93 332.181 142.046 332.218L142.348 331.264ZM142.286 331.221L142.799 330.363L142.799 330.363L142.286 331.221ZM138.653 338.599L138.675 339.599C139.082 339.59 139.443 339.335 139.588 338.954L138.653 338.599ZM131.861 338.939L130.91 339.248C131.054 339.689 131.481 339.973 131.943 339.935L131.861 338.939ZM128.005 330.445L128.427 331.352L128.427 331.352L128.005 330.445ZM136.712 343.619L137.637 343.997C137.761 343.695 137.729 343.351 137.552 343.077C137.375 342.802 137.075 342.631 136.749 342.619L136.712 343.619ZM133.33 343.445L133.397 342.448C133.064 342.425 132.742 342.571 132.538 342.835C132.334 343.1 132.276 343.448 132.382 343.764L133.33 343.445ZM147.235 347.609V346.609H147.235L147.235 347.609ZM146.014 343.646L145.983 342.646C145.684 342.656 145.405 342.798 145.222 343.035C145.04 343.271 144.972 343.578 145.039 343.869L146.014 343.646ZM149.559 343.486L150.488 343.856C150.615 343.538 150.57 343.177 150.369 342.9C150.169 342.623 149.84 342.467 149.499 342.488L149.559 343.486ZM123.688 341.138C123.688 341.485 123.444 341.577 123.617 341.46C123.746 341.373 124.002 341.249 124.427 341.11C125.264 340.835 126.529 340.572 128.159 340.344L127.882 338.363C126.209 338.598 124.808 338.88 123.804 339.209C123.309 339.371 122.851 339.564 122.497 339.803C122.185 340.014 121.688 340.444 121.688 341.138H123.688ZM128.729 342.007C126.928 341.776 125.515 341.502 124.573 341.212C124.094 341.064 123.796 340.93 123.638 340.829C123.423 340.692 123.688 340.773 123.688 341.138H121.688C121.688 341.868 122.236 342.307 122.561 342.514C122.942 342.758 123.439 342.955 123.984 343.123C125.087 343.463 126.631 343.754 128.474 343.991L128.729 342.007ZM127.618 343.182C128.197 346.296 129.001 349.446 130.005 351.841C130.505 353.034 131.078 354.096 131.737 354.877C132.386 355.646 133.244 356.285 134.311 356.285V354.285C134.098 354.285 133.747 354.158 133.265 353.587C132.793 353.028 132.314 352.176 131.849 351.068C130.924 348.862 130.152 345.869 129.584 342.817L127.618 343.182ZM134.311 356.285C135.405 356.285 136.371 355.773 137.182 355.045C137.991 354.319 138.715 353.322 139.356 352.19C140.641 349.924 141.7 346.937 142.474 343.962L140.539 343.458C139.787 346.347 138.781 349.149 137.616 351.204C137.033 352.232 136.435 353.029 135.847 353.556C135.26 354.083 134.75 354.285 134.311 354.285V356.285ZM141.766 342.71C141.68 342.71 141.594 342.71 141.508 342.71L141.505 344.71C141.592 344.71 141.679 344.71 141.766 344.71V342.71ZM141.923 342.71C141.871 342.71 141.818 342.71 141.766 342.71V344.71C141.819 344.71 141.872 344.71 141.925 344.71L141.923 342.71ZM140.931 343.826C141.292 346.925 141.871 350.068 142.693 352.459C143.103 353.65 143.594 354.718 144.192 355.508C144.784 356.289 145.606 356.954 146.679 356.954V354.954C146.511 354.954 146.208 354.856 145.787 354.3C145.373 353.754 144.964 352.913 144.585 351.809C143.83 349.614 143.272 346.634 142.917 343.594L140.931 343.826ZM146.679 356.954C147.744 356.954 148.646 356.283 149.351 355.507C150.083 354.702 150.771 353.6 151.405 352.354C152.676 349.852 153.819 346.577 154.669 343.403L152.737 342.885C151.908 345.982 150.808 349.113 149.622 351.448C149.026 352.62 148.432 353.545 147.871 354.162C147.284 354.808 146.884 354.954 146.679 354.954V356.954ZM159.844 341.138C159.844 340.933 159.937 340.81 159.958 340.785C159.974 340.766 159.953 340.797 159.842 340.86C159.622 340.987 159.232 341.142 158.641 341.304C157.476 341.625 155.752 341.917 153.595 342.15L153.811 344.138C156.008 343.901 157.855 343.595 159.172 343.233C159.822 343.054 160.401 342.846 160.839 342.594C161.058 342.468 161.288 342.305 161.474 342.09C161.665 341.868 161.844 341.545 161.844 341.138H159.844ZM154.489 340.228C156.383 340.461 157.877 340.74 158.878 341.039C159.385 341.19 159.707 341.33 159.882 341.438C160.12 341.586 159.844 341.51 159.844 341.138H161.844C161.844 340.388 161.268 339.945 160.936 339.739C160.54 339.493 160.022 339.293 159.45 339.122C158.291 338.776 156.669 338.481 154.733 338.243L154.489 340.228ZM155.593 339.426C155.966 337.506 156.196 335.731 156.221 334.348C156.233 333.662 156.195 333.025 156.078 332.499C155.974 332.032 155.751 331.381 155.167 331.032L154.141 332.749C153.973 332.649 154.045 332.568 154.126 332.933C154.194 333.239 154.232 333.699 154.221 334.313C154.199 335.533 153.992 337.181 153.629 339.045L155.593 339.426ZM155.167 331.032C154.611 330.699 154.076 330.926 153.814 331.111C153.568 331.284 153.378 331.526 153.24 331.726C152.951 332.148 152.651 332.749 152.353 333.419C151.748 334.777 151.048 336.658 150.346 338.562L152.222 339.254C152.931 337.332 153.607 335.519 154.18 334.232C154.47 333.58 154.709 333.121 154.889 332.859C154.986 332.718 155.014 332.712 154.965 332.746C154.9 332.792 154.543 332.989 154.141 332.749L155.167 331.032ZM144.853 339.599C147.138 339.649 149.281 339.755 151.207 339.905L151.362 337.911C149.396 337.758 147.215 337.651 144.897 337.599L144.853 339.599ZM145.85 338.373C145.425 336.542 144.976 334.734 144.532 333.346C144.311 332.655 144.08 332.032 143.84 331.551C143.72 331.311 143.582 331.074 143.42 330.873C143.274 330.69 143.023 330.429 142.65 330.311L142.046 332.218C141.863 332.16 141.808 332.059 141.861 332.125C141.899 332.172 141.964 332.271 142.051 332.445C142.223 332.789 142.417 333.299 142.627 333.955C143.044 335.259 143.477 336.998 143.901 338.825L145.85 338.373ZM142.97 330.481C142.917 330.439 142.86 330.399 142.799 330.363L141.772 332.079C141.754 332.068 141.739 332.058 141.726 332.048L142.97 330.481ZM142.799 330.363C142.222 330.018 141.676 330.274 141.425 330.453C141.179 330.629 140.985 330.875 140.838 331.086C140.532 331.527 140.209 332.158 139.885 332.866C139.228 334.299 138.468 336.271 137.718 338.244L139.588 338.954C140.343 336.968 141.079 335.06 141.703 333.699C142.019 333.009 142.282 332.514 142.481 332.226C142.588 332.072 142.627 332.053 142.59 332.079C142.549 332.108 142.189 332.329 141.772 332.079L142.799 330.363ZM131.943 339.935C133.964 339.769 136.24 339.653 138.675 339.599L138.631 337.6C136.16 337.654 133.845 337.772 131.779 337.942L131.943 339.935ZM132.812 338.629C132.098 336.434 131.34 334.172 130.646 332.505C130.303 331.682 129.952 330.945 129.604 330.426C129.436 330.175 129.219 329.899 128.947 329.703C128.662 329.496 128.149 329.275 127.583 329.538L128.427 331.352C128.079 331.514 127.805 331.344 127.776 331.324C127.761 331.313 127.82 331.357 127.943 331.539C128.176 331.888 128.466 332.474 128.799 333.274C129.458 334.856 130.193 337.043 130.91 339.248L132.812 338.629ZM127.583 329.538C127.148 329.74 126.952 330.136 126.867 330.343C126.764 330.591 126.699 330.874 126.655 331.153C126.564 331.718 126.528 332.448 126.533 333.273C126.542 334.935 126.715 337.13 127.029 339.486L129.012 339.222C128.705 336.919 128.541 334.813 128.533 333.262C128.529 332.481 128.564 331.876 128.629 331.47C128.663 331.263 128.697 331.151 128.715 331.106C128.75 331.021 128.697 331.226 128.427 331.352L127.583 329.538ZM136.749 342.619C135.582 342.576 134.46 342.518 133.397 342.448L133.264 344.443C134.348 344.515 135.489 344.574 136.675 344.618L136.749 342.619ZM134.867 345.94C135.235 345.94 135.438 346.152 135.447 346.161C135.484 346.198 135.485 346.209 135.451 346.155C135.388 346.053 135.293 345.864 135.168 345.569C134.922 344.988 134.621 344.146 134.278 343.126L132.382 343.764C132.727 344.788 133.049 345.693 133.327 346.349C133.463 346.672 133.605 346.973 133.75 347.207C133.821 347.321 133.918 347.462 134.044 347.587C134.142 347.682 134.426 347.94 134.867 347.94V345.94ZM135.786 343.24C135.391 344.205 135.041 344.996 134.752 345.536C134.605 345.81 134.495 345.979 134.425 346.067C134.389 346.111 134.389 346.101 134.428 346.073C134.458 346.051 134.613 345.94 134.867 345.94V347.94C135.215 347.94 135.474 347.786 135.616 347.681C135.768 347.57 135.889 347.437 135.982 347.322C136.169 347.09 136.347 346.793 136.515 346.48C136.855 345.844 137.238 344.974 137.637 343.997L135.786 343.24ZM147.235 346.609C147.492 346.609 147.676 346.712 147.769 346.779C147.86 346.845 147.91 346.908 147.925 346.929C147.955 346.969 147.951 346.975 147.92 346.904C147.862 346.774 147.781 346.545 147.681 346.202C147.484 345.529 147.25 344.565 146.989 343.423L145.039 343.869C145.3 345.01 145.546 346.028 145.762 346.765C145.868 347.129 145.979 347.462 146.093 347.718C146.147 347.841 146.225 347.996 146.331 348.137C146.388 348.211 146.687 348.609 147.235 348.609L147.235 346.609ZM148.63 343.117C148.165 344.287 147.737 345.274 147.37 345.957C147.184 346.303 147.036 346.528 146.931 346.653C146.878 346.715 146.863 346.721 146.886 346.705C146.906 346.691 147.03 346.609 147.235 346.609V348.609C147.576 348.609 147.846 348.472 148.02 348.353C148.197 348.23 148.344 348.08 148.462 347.939C148.698 347.659 148.921 347.294 149.131 346.904C149.556 346.114 150.018 345.038 150.488 343.856L148.63 343.117ZM149.499 342.488C148.381 342.556 147.205 342.609 145.983 342.646L146.045 344.645C147.285 344.607 148.481 344.553 149.619 344.484L149.499 342.488Z" fill="#242D3C" mask="url(#path-22-inside-1_245_13)"/>
<path d="M109.067 341.865L108.209 339.936L109.281 339.078L113.14 335.863L114.64 335.005H116.569L117.427 335.434C118.113 336.12 117.997 338.864 117.855 340.15H115.712L113.569 340.793L111.854 342.294L110.567 343.794L109.067 341.865Z" fill="white"/>
<path d="M98.2692 345.059C100.923 342.405 108.112 339.949 108.112 339.949C109.716 342.979 110.62 343.528 110.766 343.713C110.766 343.713 101.87 354.375 95.3537 354.645C89.562 354.885 95.0794 344.193 99.6752 335.16C104.713 325.257 108.592 325.518 108.592 325.518C108.592 325.518 112.117 328.322 115.812 328.322" stroke="#242D3C" stroke-miterlimit="10" stroke-linecap="round"/>
<path d="M117.432 335.807C117.637 335.923 117.899 335.849 118.015 335.644C118.131 335.438 118.058 335.176 117.852 335.061L117.432 335.807ZM108.112 339.948C108.283 340.177 108.369 340.291 108.369 340.291C108.369 340.291 108.369 340.291 108.373 340.291C108.373 340.291 108.382 340.283 108.39 340.278C108.408 340.265 108.433 340.248 108.463 340.227C108.528 340.18 108.617 340.111 108.729 340.03C108.952 339.862 109.265 339.631 109.608 339.369C110.29 338.851 111.113 338.212 111.644 337.762L111.091 337.106C110.577 337.539 109.775 338.165 109.089 338.683C108.75 338.941 108.442 339.172 108.219 339.339C108.107 339.425 108.018 339.489 107.953 339.537C107.923 339.558 107.898 339.579 107.88 339.588C107.872 339.592 107.867 339.596 107.863 339.601C107.863 339.601 107.863 339.601 107.859 339.601C107.859 339.601 107.859 339.601 108.116 339.944L108.112 339.948ZM111.644 337.753C112.184 337.294 113.063 336.476 114.127 335.936C115.177 335.4 116.321 335.181 117.432 335.807L117.852 335.061C116.39 334.238 114.92 334.572 113.737 335.172C112.562 335.768 111.593 336.673 111.091 337.097L111.644 337.753Z" fill="#242D3C"/>
<path d="M114.643 336.579C114.643 336.579 116.543 335.936 118.107 336.579" stroke="#242D3C" stroke-miterlimit="10" stroke-linecap="round"/>
<path d="M114.643 337.865C114.643 337.865 116.543 337.221 118.107 337.865" stroke="#242D3C" stroke-miterlimit="10" stroke-linecap="round"/>
<path d="M114.643 339.152C114.643 339.152 116.543 338.504 118.107 339.152" stroke="#242D3C" stroke-miterlimit="10" stroke-linecap="round"/>
<path d="M112.65 341.492L112.363 341.174L112.341 341.196L112.32 341.222L112.65 341.492ZM117.572 340.574C117.803 340.617 118.026 340.459 118.069 340.227C118.112 339.995 117.953 339.773 117.722 339.73L117.576 340.574H117.572ZM110.768 343.712C110.982 343.901 111.089 343.995 111.089 343.995C111.089 343.995 111.094 343.991 111.098 343.982C111.107 343.974 111.119 343.961 111.137 343.939C111.167 343.901 111.214 343.85 111.274 343.781C111.389 343.648 111.553 343.459 111.741 343.241C112.114 342.804 112.59 342.246 112.984 341.766L112.32 341.222C111.93 341.697 111.463 342.246 111.089 342.684C110.905 342.902 110.742 343.087 110.627 343.22C110.571 343.288 110.524 343.339 110.494 343.374C110.476 343.391 110.463 343.404 110.459 343.416C110.459 343.421 110.451 343.425 110.451 343.429L110.772 343.712H110.768ZM112.654 341.496C112.846 341.707 112.942 341.813 112.942 341.813C112.942 341.813 112.95 341.809 112.954 341.8C112.967 341.792 112.989 341.771 113.014 341.749C113.07 341.706 113.152 341.642 113.263 341.564C113.482 341.41 113.808 341.209 114.219 341.02C115.042 340.647 116.2 340.334 117.576 340.574L117.722 339.73C116.135 339.455 114.802 339.815 113.863 340.24C113.396 340.454 113.027 340.681 112.77 340.862C112.642 340.952 112.543 341.028 112.474 341.084C112.44 341.11 112.414 341.136 112.393 341.149C112.384 341.157 112.376 341.161 112.371 341.17C112.371 341.17 112.367 341.174 112.363 341.174C112.363 341.174 112.458 341.28 112.65 341.492L112.654 341.496Z" fill="#242D3C"/>
<path d="M114.849 331.79C114.185 331.996 113.46 332.077 112.714 331.923C109.893 331.331 107.355 323.001 107.355 323.001H107.364C110.446 326.83 113.97 328.497 116.109 329.205H116.114" fill="white"/>
<path d="M114.849 331.79C114.185 331.996 113.46 332.077 112.714 331.923C109.893 331.331 107.355 323.001 107.355 323.001H107.364C110.446 326.83 113.97 328.497 116.109 329.205H116.114" stroke="#242D3C" stroke-linecap="round" stroke-linejoin="round"/>
<path d="M147.32 305.069C146.824 305.963 145.51 307.801 144.221 307.996C145.502 308.036 148.56 307.508 150.544 305.069C155.296 305.638 164.802 304.752 164.802 296.654C164.802 286.531 137.249 280.859 134.922 295.19C133.682 302.828 141.617 306.614 144.964 305.069" stroke="#242D3C" stroke-linecap="round" stroke-linejoin="round"/>
<path d="M143.828 295.565C144.156 295.243 146.608 297.627 147.382 298.254C149.523 296.641 155.087 291.732 155.743 292.163C156.563 292.7 147.929 301.139 147.382 301.139C146.835 301.139 143.418 295.969 143.828 295.565Z" fill="#242D3C" stroke="#242D3C" stroke-linecap="round" stroke-linejoin="round"/>
<path d="M125.573 321.931C134.576 315.715 153.225 311.642 165.229 331.792" stroke="#242D3C" stroke-width="0.5" stroke-linecap="round" stroke-linejoin="round"/>
<path d="M155.046 365.934C145.408 371.111 126.422 373.086 116.732 351.727" stroke="#242D3C" stroke-width="0.5" stroke-linecap="round" stroke-linejoin="round"/>
<path d="M162.984 312.361L160.919 315.636" stroke="#242D3C" stroke-linecap="round" stroke-linejoin="round"/>
<path d="M168.72 316.723L165.908 319.386" stroke="#242D3C" stroke-linecap="round" stroke-linejoin="round"/>
<path d="M173.149 322.605L169.697 324.359" stroke="#242D3C" stroke-linecap="round" stroke-linejoin="round"/>
<path d="M175.762 329.357L171.955 330.062" stroke="#242D3C" stroke-linecap="round" stroke-linejoin="round"/>
<path d="M135.51 371.443L135.941 374.291" stroke="#242D3C" stroke-linecap="round" stroke-linejoin="round"/>
</g>
<path d="M9.72 110.924V106.556H1.596V110.924H9.72ZM2.508 107.348H8.808V110.132H2.508V107.348ZM6.132 116.9V113.18H10.92V112.388H0.408V113.18H5.196V116.9H6.132ZM19.312 114.296C18.508 113.78 17.8 113.144 17.176 112.4C16.588 111.692 16.108 110.96 15.748 110.192C15.82 109.94 15.892 109.676 15.952 109.412C16.144 108.536 16.24 107.576 16.24 106.532H15.304C15.268 110.336 13.9 113.084 11.56 114.68L12.172 115.316C13.384 114.416 14.416 113.252 15.124 111.812C15.22 111.608 15.316 111.416 15.4 111.212C15.52 111.44 15.652 111.656 15.808 111.884C16.588 113.084 17.656 114.248 18.688 114.992L19.312 114.296ZM21.592 116.9V106.196H20.68V109.796H17.92V110.612H20.68V116.9H21.592ZM32.5641 111.692V110.888H25.1721V109.52H32.3841V106.508H24.2601V107.3H31.4721V108.728H24.2601V111.692H32.5641ZM26.7561 116.78V113.66H29.9361V116.9H30.8601V113.66H33.5841V112.868H23.0721V113.66H25.8321V116.78H26.7561ZM45.7696 114.332C44.9776 113.816 44.2576 113.204 43.6216 112.496C42.9976 111.8 42.5056 111.056 42.1576 110.264C42.2056 110.108 42.2536 109.952 42.2896 109.784C42.4816 109.064 42.6016 108.284 42.6496 107.444H45.2656V106.652H38.6296V107.444H41.6896C41.6296 108.2 41.5216 108.908 41.3536 109.568C40.7776 111.884 39.5656 113.612 37.9696 114.728L38.5816 115.364C39.7216 114.512 40.7056 113.432 41.4256 112.052C41.5576 111.8 41.6896 111.536 41.7976 111.26C41.9296 111.512 42.0856 111.752 42.2416 111.992C43.0576 113.192 44.1136 114.296 45.1576 115.04L45.7696 114.332ZM47.4736 116.9V111.092H49.2136V110.276H47.4736V106.196H46.5616V116.9H47.4736ZM54.9776 112.556C52.9856 112.556 51.4496 113.48 51.4496 114.956C51.4496 116.432 52.9856 117.356 54.9776 117.356C56.9696 117.356 58.5056 116.432 58.5056 114.956C58.5056 113.48 56.9696 112.556 54.9776 112.556ZM59.1056 109.232H51.7736V107.132H58.9616V106.388H50.8616V109.988H54.5216V111.14H49.6736V111.908H60.1856V111.14H55.4576V109.988H59.1056V109.232ZM54.9776 116.588C53.5136 116.588 52.3616 115.964 52.3616 114.956C52.3616 113.948 53.5136 113.324 54.9776 113.324C56.4416 113.324 57.5936 113.948 57.5936 114.956C57.5936 115.964 56.4416 116.588 54.9776 116.588ZM62.8297 112.808V116.828H70.7497V112.808H62.8297ZM63.7417 113.576H69.8377V116.036H63.7417V113.576ZM68.4457 111.092C67.2697 110.66 66.2137 109.904 65.4697 108.968C65.3257 108.788 65.1937 108.608 65.0857 108.416C65.0977 108.356 65.1217 108.296 65.1457 108.236C65.3737 107.648 65.4937 107.036 65.5057 106.388H64.5697C64.4737 108.572 63.0817 110.54 60.8377 111.5L61.4137 112.136C62.5297 111.62 63.5377 110.816 64.2697 109.844C64.4257 109.64 64.5577 109.424 64.6897 109.196C64.7737 109.316 64.8697 109.436 64.9657 109.556C65.7577 110.54 66.8497 111.344 67.8937 111.8L68.4457 111.092ZM70.7737 112.208V106.196H69.8617V112.208H70.7737ZM79.7177 114.296C78.9137 113.78 78.2057 113.144 77.5817 112.4C76.9937 111.692 76.5137 110.96 76.1537 110.192C76.2257 109.94 76.2977 109.676 76.3577 109.412C76.5497 108.536 76.6457 107.576 76.6457 106.532H75.7097C75.6737 110.336 74.3057 113.084 71.9657 114.68L72.5777 115.316C73.7897 114.416 74.8217 113.252 75.5297 111.812C75.6257 111.608 75.7217 111.416 75.8057 111.212C75.9257 111.44 76.0577 111.656 76.2137 111.884C76.9937 113.084 78.0617 114.248 79.0937 114.992L79.7177 114.296ZM81.4697 116.9V111.092H83.2097V110.276H81.4697V106.196H80.5577V116.9H81.4697ZM83.6697 115.1V115.892H94.1817V115.1H89.4537V112.916H93.1617V112.112H85.7697V110.144H92.9817V106.652H84.8577V107.444H92.0697V109.352H84.8577V112.916H88.5177V115.1H83.6697ZM108.203 114.092V110.012H109.679V109.196H108.203V106.196H107.291V114.092H108.203ZM108.551 116.78V115.988H101.351V113.252H100.439V116.78H108.551ZM99.5633 107.36H104.075C103.823 109.424 101.891 111.344 98.9993 111.956L99.4553 112.676C102.383 112.004 105.119 109.844 105.083 106.568H99.5633V107.36ZM110.415 112.424L118.023 112.124V111.344L116.067 111.416L116.163 107.36H117.255V106.568H110.739V107.36H111.915L112.023 111.56L110.415 111.608V112.424ZM117.159 108.776H119.007V109.796H117.159V110.576H119.007V114.188H119.919V106.196H119.007V107.996H117.159V108.776ZM112.839 107.36H115.239L115.155 111.452L112.935 111.524L112.839 107.36ZM120.219 116.78V115.988H112.899V113.348H111.987V116.78H120.219ZM127.027 107.084V106.292H123.427V107.084H127.027ZM128.587 108.896V108.104H121.819V108.896H128.587ZM125.203 109.664C123.343 109.664 122.215 110.996 122.215 112.568C122.215 114.14 123.343 115.472 125.203 115.472C127.063 115.472 128.191 114.14 128.191 112.568C128.191 110.996 127.063 109.664 125.203 109.664ZM125.203 114.692C123.799 114.692 123.127 113.696 123.127 112.58C123.127 111.428 123.799 110.444 125.203 110.444C126.607 110.444 127.279 111.428 127.279 112.58C127.279 113.696 126.607 114.692 125.203 114.692ZM130.735 116.9V111.572H132.475V110.756H130.735V106.196H129.823V116.9H130.735ZM133.463 107.504H136.907C136.811 110.048 135.359 113.024 132.995 114.656L133.655 115.268C136.091 113.444 137.903 110.456 137.867 106.712H133.463V107.504ZM140.411 116.6V106.316H139.511V110.336H137.687V111.152H139.511V116.6H140.411ZM142.811 116.888V106.196H141.899V116.888H142.811ZM155.645 111.572C154.457 111.092 153.401 110.312 152.657 109.328C152.501 109.124 152.369 108.908 152.249 108.68L152.369 108.356C152.573 107.732 152.693 107.072 152.705 106.388H151.769C151.637 108.788 150.341 110.924 148.037 111.98L148.613 112.616C149.777 112.04 150.785 111.164 151.505 110.096C151.637 109.904 151.769 109.7 151.877 109.496C151.961 109.64 152.069 109.784 152.177 109.916C152.957 110.936 154.025 111.8 155.093 112.28L155.645 111.572ZM158.273 116.78V115.988H150.953V113.252H150.041V116.78H158.273ZM157.973 114.092V106.196H157.061V114.092H157.973ZM165.873 112.292C163.845 112.292 162.465 113.312 162.465 114.704C162.465 116.096 163.845 117.116 165.873 117.116C167.877 117.116 169.281 116.096 169.281 114.704C169.281 113.312 167.877 112.292 165.873 112.292ZM165.873 116.348C164.277 116.348 163.377 115.664 163.377 114.704C163.377 113.744 164.277 113.06 165.873 113.06C167.469 113.06 168.369 113.744 168.369 114.704C168.369 115.664 167.469 116.348 165.873 116.348ZM166.833 108.356V107.612H160.185V108.356H163.197C163.137 108.584 163.053 108.812 162.945 109.016C162.333 110.228 161.049 111.14 159.441 111.572L159.957 112.256C160.953 111.968 162.021 111.38 162.837 110.6C163.089 110.36 163.305 110.108 163.485 109.844L163.869 110.24C164.733 111.008 165.825 111.56 166.869 111.752L167.337 110.984C166.197 110.816 165.105 110.324 164.349 109.64C164.181 109.484 164.037 109.328 163.905 109.16C164.037 108.908 164.121 108.632 164.181 108.356H166.833ZM169.305 112.4V106.196H168.393V109.088H166.317V109.856H168.393V112.4H169.305ZM165.441 106.784V106.04H161.577V106.784H165.441ZM180.601 116.9V106.196H179.689V116.9H180.601ZM174.541 106.7C172.621 106.7 171.145 108.164 171.145 110.324C171.145 112.496 172.621 113.96 174.541 113.96C176.461 113.96 177.937 112.496 177.937 110.324C177.937 108.164 176.461 106.7 174.541 106.7ZM174.541 107.516C175.969 107.516 177.001 108.584 177.001 110.312C177.001 112.004 176.041 113.144 174.541 113.144C173.041 113.144 172.081 112.004 172.081 110.312C172.081 108.584 173.113 107.516 174.541 107.516ZM195.15 116.9V111.2H196.89V110.384H195.15V106.196H194.238V116.9H195.15ZM186.714 107.444H191.322C191.19 110.3 189.354 113.156 186.378 114.596L186.978 115.268C190.086 113.636 192.342 110.588 192.306 106.652H186.714V107.444ZM197.471 110.852V111.62H207.983V110.852H197.471ZM198.659 106.268V109.676H206.903V108.92H199.571V106.268H198.659ZM202.775 112.436C200.783 112.436 199.247 113.396 199.247 114.896C199.247 116.396 200.783 117.356 202.775 117.356C204.767 117.356 206.303 116.396 206.303 114.896C206.303 113.396 204.767 112.436 202.775 112.436ZM202.775 116.588C201.311 116.588 200.159 115.952 200.159 114.896C200.159 113.84 201.311 113.204 202.775 113.204C204.239 113.204 205.391 113.84 205.391 114.896C205.391 115.952 204.239 116.588 202.775 116.588ZM214.227 107.084V106.292H210.627V107.084H214.227ZM215.787 108.896V108.104H209.019V108.896H215.787ZM212.403 109.664C210.543 109.664 209.415 110.996 209.415 112.568C209.415 114.14 210.543 115.472 212.403 115.472C214.263 115.472 215.391 114.14 215.391 112.568C215.391 110.996 214.263 109.664 212.403 109.664ZM212.403 114.692C210.999 114.692 210.327 113.696 210.327 112.58C210.327 111.428 210.999 110.444 212.403 110.444C213.807 110.444 214.479 111.428 214.479 112.58C214.479 113.696 213.807 114.692 212.403 114.692ZM217.935 116.9V111.572H219.675V110.756H217.935V106.196H217.023V116.9H217.935ZM220.087 115.1V115.892H230.599V115.1H225.163V110.72H224.227V115.1H220.087ZM228.931 113.468C229.399 111.5 229.615 109.088 229.615 106.7H221.155V107.492H228.679C228.679 109.064 228.463 111.548 228.043 113.468H228.931ZM232.679 115.364H231.527V116.516H232.043C232.043 116.936 231.863 117.38 231.491 117.668L231.791 117.932C232.271 117.584 232.679 116.948 232.679 116.372V115.364ZM6.528 129.352C6.528 127.864 5.328 126.7 3.408 126.7C2.04 126.7 1.032 127.54 0.42 128.644L1.068 129.064C1.584 128.152 2.316 127.444 3.408 127.444C4.764 127.444 5.664 128.296 5.664 129.352C5.664 130.42 4.908 131.176 4.188 131.824L0.372 135.304V135.94H6.768V135.196H1.56L4.692 132.424C5.568 131.644 6.528 130.732 6.528 129.352ZM12.4644 132.772H8.54044L12.4644 128.26V132.772ZM7.44844 133.516H12.4644V135.94H13.3284V133.516H14.7324V132.772H13.3284V126.94H12.5844L7.44844 132.88V133.516ZM22.8277 134.296C22.0237 133.78 21.3157 133.144 20.6917 132.4C20.1037 131.692 19.6237 130.96 19.2637 130.192C19.3357 129.94 19.4077 129.676 19.4677 129.412C19.6597 128.536 19.7557 127.576 19.7557 126.532H18.8197C18.7837 130.336 17.4157 133.084 15.0757 134.68L15.6877 135.316C16.8997 134.416 17.9317 133.252 18.6397 131.812C18.7357 131.608 18.8317 131.416 18.9157 131.212C19.0357 131.44 19.1677 131.656 19.3237 131.884C20.1037 133.084 21.1717 134.248 22.2037 134.992L22.8277 134.296ZM25.1077 136.9V126.196H24.1957V136.9H25.1077ZM35.8517 134.092V130.012H37.3277V129.196H35.8517V126.196H34.9397V134.092H35.8517ZM36.1997 136.78V135.988H28.9997V133.252H28.0877V136.78H36.1997ZM27.2117 127.36H31.7237C31.4717 129.424 29.5397 131.344 26.6477 131.956L27.1037 132.676C30.0317 132.004 32.7677 129.844 32.7317 126.568H27.2117V127.36ZM44.9652 135.436C43.9932 135.436 42.9732 134.752 42.4572 133.864L41.7852 134.308C42.3612 135.412 43.5972 136.18 44.9652 136.18C47.0412 136.18 48.2892 134.884 48.2892 133.288C48.2892 131.74 47.1972 130.504 45.0612 130.468L47.9892 127.6V126.94H42.2052V127.684H46.8252L43.5492 130.876L43.8852 131.476C43.9812 131.44 44.5092 131.2 44.9292 131.2C46.4652 131.2 47.4252 132.1 47.4252 133.288C47.4252 134.476 46.5492 135.436 44.9652 135.436ZM52.2577 136.18C54.1537 136.18 55.4377 134.812 55.4377 133.12C55.4377 131.44 54.1537 130.06 52.2577 130.06C51.7897 130.06 51.2257 130.252 50.9737 130.444L52.9297 126.94H52.0057L49.6417 131.116C49.3537 131.632 49.0777 132.34 49.0777 133C49.0777 134.728 50.2297 136.18 52.2577 136.18ZM49.9417 133.12C49.9417 131.776 50.8657 130.804 52.2577 130.804C53.6497 130.804 54.5737 131.824 54.5737 133.12C54.5737 134.416 53.6497 135.436 52.2577 135.436C50.9137 135.436 49.9417 134.368 49.9417 133.12ZM57.4261 126.94L56.7061 131.248L57.3301 131.512C57.4861 131.392 58.3261 130.804 59.3701 130.804C61.0021 130.804 61.7221 131.824 61.7221 133.132C61.7221 134.44 60.7501 135.436 59.2621 135.436C58.2901 135.436 57.2341 134.764 56.7301 133.876L56.0821 134.32C56.6941 135.376 57.8701 136.18 59.2621 136.18C61.3261 136.18 62.5861 134.908 62.5861 133.132C62.5861 131.416 61.4701 130.06 59.3701 130.06C58.6861 130.06 58.0861 130.288 57.7021 130.516L58.1461 127.684H62.2021V126.94H57.4261ZM72.9505 131.8V126.196H72.0385V131.8H72.9505ZM73.1905 136.828V136.036H65.9185V134.932H72.9505V132.352H65.0065V133.12H72.0385V134.188H65.0065V136.828H73.1905ZM66.7465 126.112C65.0545 126.112 63.6745 127.252 63.6745 128.848C63.6745 130.444 65.0545 131.584 66.7465 131.584C68.4385 131.584 69.8185 130.444 69.8185 128.848C69.8185 127.252 68.4385 126.112 66.7465 126.112ZM66.7465 130.816C65.4625 130.816 64.5865 129.988 64.5865 128.848C64.5865 127.708 65.4625 126.88 66.7465 126.88C68.0305 126.88 68.9065 127.708 68.9065 128.848C68.9065 129.988 68.0305 130.816 66.7465 130.816ZM85.8081 136.6V131.032H87.5361V136.888H88.4481V126.196H87.5361V130.216H85.8081V126.316H84.9081V136.6H85.8081ZM79.2681 126.724V134.956L84.3081 134.668V133.888L80.1681 134.068V127.516H83.5641V126.724H79.2681ZM99.5161 136.828V136.072H91.9441V135.16H99.2641V132.82H95.6881V131.92H100.416V131.176H89.9041V131.92H94.7521V132.82H91.0321V133.564H98.3521V134.428H91.0321V136.828H99.5161ZM99.9481 129.772C98.5681 129.7 97.2601 129.448 96.2761 128.944C96.0361 128.824 95.8201 128.68 95.6281 128.524C95.6881 128.416 95.7361 128.32 95.7721 128.212H99.3001V127.468H90.9721V128.212H94.7401C94.6441 128.392 94.5121 128.548 94.3441 128.692C93.4801 129.412 91.9201 129.796 90.3481 129.868L90.7441 130.588C92.0041 130.528 93.7561 130.156 94.8481 129.352L95.1481 129.112C95.3881 129.292 95.6521 129.46 95.9401 129.604C97.0321 130.144 98.3761 130.456 99.5401 130.504L99.9481 129.772ZM97.4161 126.052H92.8561V126.796H97.4161V126.052ZM102.364 132.868V136.828H110.596V132.868H102.364ZM101.236 130.576V131.368H111.748V130.576H110.2C110.308 130.048 110.404 129.484 110.476 128.872C110.56 128.14 110.632 127.312 110.668 126.388H102.256V127.156H109.732C109.696 127.78 109.636 128.404 109.564 129.016C109.504 129.532 109.42 130.048 109.3 130.576H101.236ZM109.684 133.636V136.036H103.276V133.636H109.684ZM112.568 130.996V131.764H123.08V130.996H112.568ZM117.824 125.764C115.832 125.764 114.296 126.676 114.296 128.02C114.296 129.364 115.832 130.276 117.824 130.276C119.816 130.276 121.352 129.364 121.352 128.02C121.352 126.676 119.816 125.764 117.824 125.764ZM117.824 129.532C116.36 129.532 115.208 128.932 115.208 128.02C115.208 127.108 116.36 126.508 117.824 126.508C119.288 126.508 120.44 127.108 120.44 128.02C120.44 128.932 119.288 129.532 117.824 129.532ZM122.18 136.828V136.072H114.608V135.1H121.928V132.724H113.696V133.468H121.016V134.38H113.696V136.828H122.18ZM133.094 126.448V128.32H129.218V126.448H128.306V131.824H134.006V126.448H133.094ZM129.278 132.988V136.828H137.342V136.036H130.19V133.756H137.078V132.988H129.278ZM129.218 131.032V129.112H133.094V131.032H129.218ZM137.102 132.388V129.592H138.578V128.776H137.102V126.196H136.19V132.388H137.102ZM139.17 130.996V131.764H149.682V130.996H139.17ZM144.426 125.764C142.434 125.764 140.898 126.676 140.898 128.02C140.898 129.364 142.434 130.276 144.426 130.276C146.418 130.276 147.954 129.364 147.954 128.02C147.954 126.676 146.418 125.764 144.426 125.764ZM144.426 129.532C142.962 129.532 141.81 128.932 141.81 128.02C141.81 127.108 142.962 126.508 144.426 126.508C145.89 126.508 147.042 127.108 147.042 128.02C147.042 128.932 145.89 129.532 144.426 129.532ZM148.782 136.828V136.072H141.21V135.1H148.53V132.724H140.298V133.468H147.618V134.38H140.298V136.828H148.782ZM160.163 136.9V133.06H164.951V132.268H154.439V133.06H159.227V136.9H160.163ZM164.519 130.36C163.475 130.156 162.563 129.82 161.807 129.352C161.135 128.932 160.583 128.392 160.151 127.732C160.331 127.312 160.439 126.856 160.463 126.376H159.503C159.347 128.548 157.163 129.988 154.727 130.372L155.219 131.092C156.431 130.9 157.727 130.348 158.723 129.532C159.107 129.208 159.443 128.86 159.719 128.464C160.211 129.124 160.775 129.652 161.435 130.06C162.227 130.552 163.091 130.9 164.039 131.104L164.519 130.36ZM173.153 126.16C171.389 126.16 170.033 127.336 170.033 129.016C170.033 130.696 171.389 131.872 173.153 131.872C174.917 131.872 176.273 130.696 176.273 129.016C176.273 127.336 174.917 126.16 173.153 126.16ZM173.153 131.08C171.809 131.08 170.945 130.216 170.945 129.016C170.945 127.816 171.809 126.952 173.153 126.952C174.497 126.952 175.361 127.816 175.361 129.016C175.361 130.216 174.497 131.08 173.153 131.08ZM175.073 137.116C175.745 136.696 176.501 136.132 177.089 135.412C177.221 135.268 177.329 135.112 177.437 134.956C177.749 135.304 178.073 135.628 178.421 135.928C178.913 136.336 179.429 136.66 179.957 136.888L180.533 136.204C179.993 136 179.453 135.7 178.925 135.328C178.505 135.028 178.133 134.68 177.821 134.296L177.857 134.212C178.073 133.768 178.205 133.3 178.253 132.784H177.293C177.233 133.564 176.945 134.284 176.429 134.944C176.273 135.148 176.093 135.352 175.913 135.532C175.565 135.364 175.241 135.16 174.941 134.92C174.617 134.644 174.329 134.32 174.089 133.972C174.269 133.6 174.389 133.204 174.425 132.784H173.465C173.273 134.356 171.965 135.616 170.441 136.204L171.017 136.816C171.689 136.528 172.481 136 173.141 135.316C173.345 135.1 173.525 134.872 173.693 134.632C173.897 134.908 174.125 135.172 174.365 135.4C174.641 135.664 174.941 135.892 175.241 136.084C174.989 136.264 174.725 136.42 174.449 136.576L175.073 137.116ZM179.357 132.208V126.196H178.445V132.208H179.357ZM184.713 126.7C182.793 126.7 181.317 128.164 181.317 130.324C181.317 132.496 182.793 133.96 184.713 133.96C186.141 133.96 187.353 133.132 187.845 131.812C187.977 131.476 188.061 131.104 188.097 130.708H189.861V136.9H190.773V126.196H189.861V129.892H188.085C188.049 129.52 187.977 129.172 187.845 128.848C187.353 127.528 186.141 126.7 184.713 126.7ZM184.713 127.516C186.141 127.516 187.173 128.584 187.173 130.312C187.173 132.004 186.213 133.144 184.713 133.144C183.213 133.144 182.253 132.004 182.253 130.312C182.253 128.584 183.285 127.516 184.713 127.516ZM197.617 126.172C195.277 126.172 193.705 127.696 193.705 129.424C193.705 131.152 195.277 132.676 197.617 132.676C199.957 132.676 201.529 131.152 201.529 129.424C201.529 127.696 199.957 126.172 197.617 126.172ZM197.617 131.884C195.769 131.884 194.617 130.744 194.617 129.424C194.617 128.104 195.769 126.964 197.617 126.964C199.465 126.964 200.617 128.104 200.617 129.424C200.617 130.744 199.465 131.884 197.617 131.884ZM192.373 135.1V135.892H202.885V135.1H200.521V132.832H199.597V135.1H195.697V132.832H194.773V135.1H192.373ZM203.909 136.6H205.061V135.448H203.909V136.6Z" fill="#999999"/>
<defs>
<filter id="filter0_d_245_13" x="36.75" y="171" width="182.502" height="366.448" filterUnits="userSpaceOnUse" color-interpolation-filters="sRGB">
<feFlood flood-opacity="0" result="BackgroundImageFix"/>
<feColorMatrix in="SourceAlpha" type="matrix" values="0 0 0 0 0 0 0 0 0 0 0 0 0 0 0 0 0 0 127 0" result="hardAlpha"/>
<feOffset/>
<feGaussianBlur stdDeviation="8"/>
<feComposite in2="hardAlpha" operator="out"/>
<feColorMatrix type="matrix" values="0 0 0 0 0.141176 0 0 0 0 0.176471 0 0 0 0 0.235294 0 0 0 0.08 0"/>
<feBlend mode="normal" in2="BackgroundImageFix" result="effect1_dropShadow_245_13"/>
<feBlend mode="normal" in="SourceGraphic" in2="effect1_dropShadow_245_13" result="shape"/>
</filter>
</defs>
</svg>
