<svg width="57" height="16" viewBox="0 0 57 16" fill="none" xmlns="http://www.w3.org/2000/svg">
<path d="M7.05 1.005C4.335 1.005 2.4 2.565 2.4 4.62C2.4 6.675 4.335 8.235 7.05 8.235C9.81 8.235 11.73 6.675 11.73 4.62C11.73 2.565 9.81 1.005 7.05 1.005ZM5.535 14.505V10.635H8.625V14.655H10.635V10.635H13.68V8.925H0.48V10.635H3.525V14.505H5.535ZM7.05 6.555C5.415 6.555 4.41 5.655 4.41 4.62C4.41 3.585 5.415 2.685 7.05 2.685C8.73 2.685 9.72 3.585 9.72 4.62C9.72 5.655 8.73 6.555 7.05 6.555ZM27.23 14.655V1.215H25.22V14.655H27.23ZM24.77 12.615V10.935L14.87 11.055V12.765L24.77 12.615ZM19.715 1.515C17.24 1.515 15.545 3.405 15.545 5.445C15.545 7.485 17.24 9.375 19.715 9.375C22.19 9.375 23.885 7.485 23.885 5.445C23.885 3.405 22.19 1.515 19.715 1.515ZM19.715 7.665C18.395 7.665 17.555 6.585 17.555 5.445C17.555 4.305 18.395 3.225 19.715 3.225C21.035 3.225 21.875 4.305 21.875 5.445C21.875 6.585 21.035 7.665 19.715 7.665ZM38.0801 10.995C37.0451 10.29 36.1601 9.51 35.4551 8.655C34.9001 7.98 34.4051 7.215 33.9851 6.375C34.4501 4.89 34.6751 3.3 34.6751 1.605H32.6351C32.6351 5.655 31.3601 8.985 28.1501 11.355L29.5001 12.75C31.1051 11.505 32.3201 10.05 33.1751 8.4C33.5051 8.94 33.8801 9.465 34.2851 9.975C35.0501 10.92 35.8901 11.73 36.8351 12.435L38.0801 10.995ZM40.5551 14.655V7.74H42.4601V6H40.5551V1.215H38.5451V14.655H40.5551ZM50.6551 9.165C48.1351 9.165 46.3201 10.365 46.3201 12.105C46.3201 13.845 48.1351 15.045 50.6551 15.045C53.1751 15.045 54.9901 13.845 54.9901 12.105C54.9901 10.365 53.1751 9.165 50.6551 9.165ZM50.6551 13.455C49.1551 13.455 48.3301 12.93 48.3301 12.105C48.3301 11.28 49.1551 10.755 50.6551 10.755C52.1551 10.755 52.9801 11.28 52.9801 12.105C52.9801 12.93 52.1551 13.455 50.6551 13.455ZM55.0351 9.3V5.97H56.6251V4.26H55.0351V1.215H53.0251V9.3H55.0351ZM50.2351 2.37V0.899999H44.9851V2.37H50.2351ZM52.1851 4.2V2.73H43.0351V4.2H52.1851ZM47.7301 4.47C45.3751 4.47 43.9201 5.355 43.9201 6.675C43.9201 7.995 45.3751 8.88 47.7301 8.88C50.0851 8.88 51.5401 7.995 51.5401 6.675C51.5401 5.355 50.0851 4.47 47.7301 4.47ZM47.7301 7.47C46.4851 7.47 45.9001 7.17 45.9001 6.675C45.9001 6.18 46.4851 5.88 47.7301 5.88C48.9751 5.88 49.5601 6.18 49.5601 6.675C49.5601 7.17 48.9751 7.47 47.7301 7.47Z" fill="#242D3C"/>
</svg>
