<svg width="92" height="17" viewBox="0 0 92 17" fill="none" xmlns="http://www.w3.org/2000/svg">
<path d="M9.60422 3.462V1.986H5.73422V0.114H3.88022V1.986H0.0102188V3.462H9.60422ZM14.9862 5.316H12.6822V0.131999H10.8282V12.318H12.6822V6.846H14.9862V5.316ZM8.74022 7.296C8.74022 6.84 8.64422 6.426 8.45222 6.054C8.26022 5.67 7.99022 5.346 7.64222 5.082C7.29422 4.806 6.88022 4.596 6.40022 4.452C5.92022 4.296 5.38622 4.218 4.79822 4.218C4.22222 4.218 3.68822 4.296 3.19622 4.452C2.71622 4.596 2.30222 4.806 1.95422 5.082C1.60622 5.346 1.33622 5.67 1.14422 6.054C0.952219 6.426 0.856219 6.84 0.856219 7.296C0.856219 7.764 0.952219 8.19 1.14422 8.574C1.33622 8.946 1.60622 9.27 1.95422 9.546C2.30222 9.81 2.71622 10.014 3.19622 10.158C3.68822 10.302 4.22222 10.374 4.79822 10.374C5.38622 10.374 5.92022 10.302 6.40022 10.158C6.88022 10.014 7.29422 9.81 7.64222 9.546C7.99022 9.27 8.26022 8.946 8.45222 8.574C8.64422 8.19 8.74022 7.764 8.74022 7.296ZM2.63822 7.296C2.63822 6.78 2.83622 6.378 3.23222 6.09C3.62822 5.802 4.15022 5.658 4.79822 5.658C5.44622 5.658 5.96822 5.802 6.36422 6.09C6.77222 6.378 6.97622 6.78 6.97622 7.296C6.97622 7.812 6.77222 8.214 6.36422 8.502C5.96822 8.79 5.44622 8.934 4.79822 8.934C4.15022 8.934 3.62822 8.79 3.23222 8.502C2.83622 8.214 2.63822 7.812 2.63822 7.296ZM4.25822 14.568V11.382H2.38622V16.08H13.3302V14.568H4.25822ZM30.3748 12.912H23.9128V9.078H28.7188V7.584H19.3048V2.85H28.5748V1.356H17.4508V9.078H22.0588V12.912H15.6508V14.442H30.3748V12.912ZM31.9394 8.232L32.7134 9.708C34.0454 9.444 35.2334 8.952 36.2774 8.232C37.3214 7.512 38.1134 6.624 38.6534 5.568C39.1934 6.624 39.9854 7.506 41.0294 8.214C42.0854 8.91 43.3034 9.39 44.6834 9.654L45.4394 8.178C44.6354 8.046 43.8794 7.824 43.1714 7.512C42.4634 7.188 41.8454 6.798 41.3174 6.342C40.8014 5.874 40.3874 5.358 40.0754 4.794C39.7754 4.23 39.6254 3.642 39.6254 3.03V2.994H44.7914V1.5H32.5154V2.994H37.6814V3.03C37.6814 3.642 37.5314 4.236 37.2314 4.812C36.9314 5.376 36.5174 5.892 35.9894 6.36C35.4734 6.828 34.8674 7.224 34.1714 7.548C33.4754 7.872 32.7314 8.1 31.9394 8.232ZM46.0334 12.876H39.6074V9.078H37.7354V12.876H31.3094V14.388H46.0334V12.876ZM60.342 0.114H58.47V16.386H60.342V0.114ZM57.21 3.516V2.022H53.232V0.149999H51.378V2.022H47.382V3.516H57.21ZM53.232 11.832V10.302C54.168 10.158 54.906 9.828 55.446 9.312C55.998 8.784 56.274 8.124 56.274 7.332C56.274 6.876 56.178 6.462 55.986 6.09C55.794 5.718 55.524 5.4 55.176 5.136C54.828 4.872 54.408 4.668 53.916 4.524C53.436 4.38 52.902 4.308 52.314 4.308C51.726 4.308 51.186 4.38 50.694 4.524C50.214 4.668 49.794 4.872 49.434 5.136C49.086 5.4 48.816 5.718 48.624 6.09C48.432 6.462 48.336 6.876 48.336 7.332C48.336 8.124 48.606 8.784 49.146 9.312C49.698 9.828 50.442 10.158 51.378 10.302V11.886C50.61 11.91 49.86 11.928 49.128 11.94C48.396 11.94 47.706 11.94 47.058 11.94L47.292 13.47C48.036 13.47 48.822 13.464 49.65 13.452C50.49 13.44 51.354 13.41 52.242 13.362C53.142 13.314 54.048 13.248 54.96 13.164C55.872 13.08 56.778 12.96 57.678 12.804L57.552 11.454C56.856 11.55 56.142 11.628 55.41 11.688C54.69 11.736 53.964 11.784 53.232 11.832ZM50.1 7.332C50.1 6.828 50.304 6.438 50.712 6.162C51.12 5.874 51.654 5.73 52.314 5.73C52.962 5.73 53.49 5.874 53.898 6.162C54.306 6.438 54.51 6.828 54.51 7.332C54.51 7.836 54.306 8.232 53.898 8.52C53.49 8.808 52.962 8.952 52.314 8.952C51.654 8.952 51.12 8.808 50.712 8.52C50.304 8.232 50.1 7.836 50.1 7.332ZM77.7466 8.214V6.666H75.2446V0.131999H73.3726V16.404H75.2446V8.214H77.7466ZM68.2606 2.634V0.366H66.4066V2.634H62.5366V4.146H72.0586V2.634H68.2606ZM67.3606 5.298C66.7726 5.298 66.2326 5.394 65.7406 5.586C65.2486 5.766 64.8226 6.024 64.4626 6.36C64.1026 6.696 63.8206 7.098 63.6166 7.566C63.4246 8.022 63.3286 8.532 63.3286 9.096C63.3286 9.648 63.4246 10.158 63.6166 10.626C63.8206 11.094 64.1026 11.496 64.4626 11.832C64.8226 12.168 65.2486 12.432 65.7406 12.624C66.2326 12.804 66.7726 12.894 67.3606 12.894C67.9366 12.894 68.4706 12.804 68.9626 12.624C69.4546 12.432 69.8806 12.168 70.2406 11.832C70.6006 11.496 70.8826 11.094 71.0866 10.626C71.2906 10.158 71.3926 9.648 71.3926 9.096C71.3926 8.532 71.2906 8.022 71.0866 7.566C70.8826 7.098 70.6006 6.696 70.2406 6.36C69.8806 6.024 69.4546 5.766 68.9626 5.586C68.4706 5.394 67.9366 5.298 67.3606 5.298ZM67.3606 11.364C66.7006 11.364 66.1546 11.16 65.7226 10.752C65.3026 10.332 65.0926 9.78 65.0926 9.096C65.0926 8.412 65.3026 7.866 65.7226 7.458C66.1546 7.038 66.7006 6.828 67.3606 6.828C68.0206 6.828 68.5606 7.038 68.9806 7.458C69.4126 7.866 69.6286 8.412 69.6286 9.096C69.6286 9.78 69.4126 10.332 68.9806 10.752C68.5606 11.16 68.0206 11.364 67.3606 11.364ZM91.6952 0.131999H89.8412V16.386H91.6952V0.131999ZM86.9072 1.842H79.2032V3.354H84.9992C84.8432 5.226 84.2372 6.882 83.1812 8.322C82.1252 9.75 80.5292 10.98 78.3932 12.012L79.3832 13.488C80.7752 12.816 81.9512 12.06 82.9112 11.22C83.8712 10.368 84.6452 9.45 85.2332 8.466C85.8332 7.482 86.2592 6.438 86.5112 5.334C86.7752 4.218 86.9072 3.054 86.9072 1.842Z" fill="white"/>
</svg>
