<svg width="61" height="17" viewBox="0 0 61 17" fill="none" xmlns="http://www.w3.org/2000/svg">
<path d="M13.5248 0.114H11.6528V16.422H13.5248V0.114ZM6.14481 4.146V1.482H4.29081V4.146C4.29081 4.926 4.18881 5.7 3.98481 6.468C3.78081 7.224 3.49281 7.932 3.12081 8.592C2.74881 9.252 2.29881 9.84 1.77081 10.356C1.24281 10.872 0.654813 11.274 0.00681291 11.562L1.10481 13.11C2.08881 12.63 2.92881 11.94 3.62481 11.04C4.33281 10.128 4.87281 9.072 5.24481 7.872C5.61681 9 6.14481 9.984 6.82881 10.824C7.52481 11.664 8.34081 12.306 9.27681 12.75L10.3568 11.274C9.72081 10.986 9.13881 10.596 8.61081 10.104C8.09481 9.6 7.65081 9.036 7.27881 8.412C6.91881 7.776 6.63681 7.098 6.43281 6.378C6.24081 5.646 6.14481 4.902 6.14481 4.146ZM30.8034 5.802V4.272H28.4994V0.114H26.6454V9.924H28.4994V5.802H30.8034ZM24.4134 9.276L25.3674 7.854C24.7434 7.65 24.1914 7.38 23.7114 7.044C23.2314 6.696 22.8294 6.306 22.5054 5.874C22.1814 5.442 21.9354 4.98 21.7674 4.488C21.5994 3.996 21.5154 3.492 21.5154 2.976V2.688H24.9174V1.176H16.1874V2.688H19.6434V2.976C19.6434 3.528 19.5534 4.068 19.3734 4.596C19.2054 5.124 18.9474 5.616 18.5994 6.072C18.2634 6.516 17.8494 6.918 17.3574 7.278C16.8654 7.638 16.2954 7.926 15.6474 8.142L16.6194 9.6C17.5914 9.264 18.4074 8.778 19.0674 8.142C19.7274 7.506 20.2374 6.756 20.5974 5.892C20.9454 6.684 21.4374 7.374 22.0734 7.962C22.7214 8.538 23.5014 8.976 24.4134 9.276ZM17.8074 10.716V12.21H26.6454V16.386H28.4994V10.716H17.8074ZM46.588 8.214V6.666H44.086V0.131999H42.214V16.404H44.086V8.214H46.588ZM37.102 2.634V0.366H35.248V2.634H31.378V4.146H40.9V2.634H37.102ZM36.202 5.298C35.614 5.298 35.074 5.394 34.582 5.586C34.09 5.766 33.664 6.024 33.304 6.36C32.944 6.696 32.662 7.098 32.458 7.566C32.266 8.022 32.17 8.532 32.17 9.096C32.17 9.648 32.266 10.158 32.458 10.626C32.662 11.094 32.944 11.496 33.304 11.832C33.664 12.168 34.09 12.432 34.582 12.624C35.074 12.804 35.614 12.894 36.202 12.894C36.778 12.894 37.312 12.804 37.804 12.624C38.296 12.432 38.722 12.168 39.082 11.832C39.442 11.496 39.724 11.094 39.928 10.626C40.132 10.158 40.234 9.648 40.234 9.096C40.234 8.532 40.132 8.022 39.928 7.566C39.724 7.098 39.442 6.696 39.082 6.36C38.722 6.024 38.296 5.766 37.804 5.586C37.312 5.394 36.778 5.298 36.202 5.298ZM36.202 11.364C35.542 11.364 34.996 11.16 34.564 10.752C34.144 10.332 33.934 9.78 33.934 9.096C33.934 8.412 34.144 7.866 34.564 7.458C34.996 7.038 35.542 6.828 36.202 6.828C36.862 6.828 37.402 7.038 37.822 7.458C38.254 7.866 38.47 8.412 38.47 9.096C38.47 9.78 38.254 10.332 37.822 10.752C37.402 11.16 36.862 11.364 36.202 11.364ZM60.5366 0.131999H58.6826V16.386H60.5366V0.131999ZM55.7486 1.842H48.0446V3.354H53.8406C53.6846 5.226 53.0786 6.882 52.0226 8.322C50.9666 9.75 49.3706 10.98 47.2346 12.012L48.2246 13.488C49.6166 12.816 50.7926 12.06 51.7526 11.22C52.7126 10.368 53.4866 9.45 54.0746 8.466C54.6746 7.482 55.1006 6.438 55.3526 5.334C55.6166 4.218 55.7486 3.054 55.7486 1.842Z" fill="white"/>
</svg>
