<svg width="109" height="13" viewBox="0 0 109 13" fill="none" xmlns="http://www.w3.org/2000/svg">
<path d="M5.11 7.926L1.918 12H3.528L6.342 8.122C7.126 7.044 7.574 6.106 7.574 4.888C7.574 2.886 6.244 1.486 4.228 1.486C2.184 1.486 0.742 2.956 0.742 4.79C0.742 6.736 2.086 7.8 3.696 7.8C4.466 7.8 5.124 7.576 5.67 7.142C5.572 7.268 5.404 7.534 5.11 7.926ZM2.044 4.692C2.044 3.446 2.912 2.592 4.214 2.592C5.418 2.592 6.328 3.39 6.328 4.734C6.328 5.812 5.516 6.792 4.116 6.792C2.828 6.792 2.044 6.05 2.044 4.692ZM16.3058 6.89C16.3058 3.236 14.6538 1.57 12.5398 1.57C10.4118 1.57 8.77384 3.236 8.77384 6.89C8.77384 10.53 10.4118 12.196 12.5398 12.196C14.6538 12.196 16.3058 10.53 16.3058 6.89ZM15.0178 6.89C15.0178 10.082 13.8418 11.16 12.5398 11.16C11.2378 11.16 10.0758 10.082 10.0758 6.89C10.0758 3.684 11.2378 2.62 12.5398 2.62C13.8418 2.62 15.0178 3.684 15.0178 6.89ZM24.6457 6.89C24.6457 3.236 22.9937 1.57 20.8797 1.57C18.7517 1.57 17.1137 3.236 17.1137 6.89C17.1137 10.53 18.7517 12.196 20.8797 12.196C22.9937 12.196 24.6457 10.53 24.6457 6.89ZM23.3577 6.89C23.3577 10.082 22.1817 11.16 20.8797 11.16C19.5777 11.16 18.4157 10.082 18.4157 6.89C18.4157 3.684 19.5777 2.62 20.8797 2.62C22.1817 2.62 23.3577 3.684 23.3577 6.89ZM32.3835 12V10.964H30.3675V1.682H29.3455L26.5875 4.062L27.2735 4.888L29.1355 3.222C29.1215 3.32 29.1215 3.446 29.1215 3.572V10.964H26.8395V12H32.3835ZM41.3254 6.89C41.3254 3.236 39.6734 1.57 37.5594 1.57C35.4314 1.57 33.7934 3.236 33.7934 6.89C33.7934 10.53 35.4314 12.196 37.5594 12.196C39.6734 12.196 41.3254 10.53 41.3254 6.89ZM40.0374 6.89C40.0374 10.082 38.8614 11.16 37.5594 11.16C36.2574 11.16 35.0954 10.082 35.0954 6.89C35.0954 3.684 36.2574 2.62 37.5594 2.62C38.8614 2.62 40.0374 3.684 40.0374 6.89ZM49.3292 12V10.866H45.2832C44.9332 10.866 44.5132 10.922 44.1212 11.034L46.9912 8.192C48.1532 7.03 49.1332 5.966 49.1332 4.44C49.1332 2.62 47.7752 1.556 46.0252 1.556C44.2752 1.556 42.9172 2.578 42.6512 4.468L43.9112 4.678C43.9112 3.502 44.7792 2.662 45.9552 2.662C47.0192 2.662 47.8032 3.236 47.8452 4.468C47.8452 5.672 47.0612 6.554 45.9832 7.702L42.4412 11.104V12H49.3292ZM58.4899 6.358H53.8699V7.338H58.4899V6.358ZM69.6804 12V10.964H67.6644V1.682H66.6424L63.8844 4.062L64.5704 4.888L66.4324 3.222C66.4184 3.32 66.4184 3.446 66.4184 3.572V10.964H64.1364V12H69.6804ZM73.0783 3.502L72.1963 4.958L72.8123 5.406L73.9183 4.076L75.0243 5.406L75.6403 4.958L74.7443 3.502L76.2703 2.872L76.0323 2.158L74.4363 2.536L74.2963 0.855999H73.5403L73.4003 2.55L71.8043 2.158L71.5523 2.872L73.0783 3.502ZM79.6134 3.502L78.7314 4.958L79.3474 5.406L80.4534 4.076L81.5594 5.406L82.1754 4.958L81.2794 3.502L82.8054 2.872L82.5674 2.158L80.9714 2.536L80.8314 0.855999H80.0754L79.9354 2.55L78.3394 2.158L78.0874 2.872L79.6134 3.502ZM86.1486 3.502L85.2666 4.958L85.8826 5.406L86.9886 4.076L88.0946 5.406L88.7106 4.958L87.8146 3.502L89.3406 2.872L89.1026 2.158L87.5066 2.536L87.3666 0.855999H86.6106L86.4706 2.55L84.8746 2.158L84.6226 2.872L86.1486 3.502ZM92.6837 3.502L91.8017 4.958L92.4177 5.406L93.5237 4.076L94.6297 5.406L95.2457 4.958L94.3497 3.502L95.8757 2.872L95.6377 2.158L94.0417 2.536L93.9017 0.855999H93.1457L93.0057 2.55L91.4097 2.158L91.1577 2.872L92.6837 3.502ZM99.2189 3.502L98.3369 4.958L98.9529 5.406L100.059 4.076L101.165 5.406L101.781 4.958L100.885 3.502L102.411 2.872L102.173 2.158L100.577 2.536L100.437 0.855999H99.6809L99.5409 2.55L97.9449 2.158L97.6929 2.872L99.2189 3.502ZM105.754 3.502L104.872 4.958L105.488 5.406L106.594 4.076L107.7 5.406L108.316 4.958L107.42 3.502L108.946 2.872L108.708 2.158L107.112 2.536L106.972 0.855999H106.216L106.076 2.55L104.48 2.158L104.228 2.872L105.754 3.502Z" fill="black"/>
</svg>
