<svg width="92" height="12" viewBox="0 0 92 12" fill="none" xmlns="http://www.w3.org/2000/svg">
<path d="M7.966 5.89C7.966 2.236 6.314 0.569999 4.2 0.569999C2.072 0.569999 0.434 2.236 0.434 5.89C0.434 9.53 2.072 11.196 4.2 11.196C6.314 11.196 7.966 9.53 7.966 5.89ZM6.678 5.89C6.678 9.082 5.502 10.16 4.2 10.16C2.898 10.16 1.736 9.082 1.736 5.89C1.736 2.684 2.898 1.62 4.2 1.62C5.502 1.62 6.678 2.684 6.678 5.89ZM15.7038 11V9.964H13.6878V0.681999H12.6658L9.90784 3.062L10.5938 3.888L12.4558 2.222C12.4418 2.32 12.4418 2.446 12.4418 2.572V9.964H10.1598V11H15.7038ZM24.6457 5.89C24.6457 2.236 22.9937 0.569999 20.8797 0.569999C18.7517 0.569999 17.1137 2.236 17.1137 5.89C17.1137 9.53 18.7517 11.196 20.8797 11.196C22.9937 11.196 24.6457 9.53 24.6457 5.89ZM23.3577 5.89C23.3577 9.082 22.1817 10.16 20.8797 10.16C19.5777 10.16 18.4157 9.082 18.4157 5.89C18.4157 2.684 19.5777 1.62 20.8797 1.62C22.1817 1.62 23.3577 2.684 23.3577 5.89ZM32.3835 11V9.964H30.3675V0.681999H29.3455L26.5875 3.062L27.2735 3.888L29.1355 2.222C29.1215 2.32 29.1215 2.446 29.1215 2.572V9.964H26.8395V11H32.3835ZM40.9894 11V9.866H36.9434C36.5934 9.866 36.1734 9.922 35.7814 10.034L38.6514 7.192C39.8134 6.03 40.7934 4.966 40.7934 3.44C40.7934 1.62 39.4354 0.555999 37.6854 0.555999C35.9354 0.555999 34.5774 1.578 34.3114 3.468L35.5714 3.678C35.5714 2.502 36.4394 1.662 37.6154 1.662C38.6794 1.662 39.4634 2.236 39.5054 3.468C39.5054 4.672 38.7214 5.554 37.6434 6.702L34.1014 10.104V11H40.9894ZM42.6932 3.496L43.9672 3.706C43.9672 2.558 44.8212 1.69 45.9972 1.69C47.0752 1.69 47.8312 2.264 47.8312 3.44C47.8312 4.504 47.1872 5.246 45.3812 5.288V6.212C47.5792 6.212 48.0412 7.024 48.0412 8.13C48.0412 9.04 47.3272 10.076 45.8572 10.076C44.7932 10.076 44.1632 9.53 43.7292 8.634C43.6172 8.368 43.5472 8.158 43.5192 8.004L42.3712 8.48C42.8612 9.992 43.6592 11.182 45.8712 11.182C47.7892 11.182 49.3432 9.978 49.3432 8.102C49.3432 6.814 48.6432 5.96 47.2992 5.624C48.4192 5.246 49.1052 4.574 49.1052 3.23C49.1052 1.662 47.8452 0.569999 46.0672 0.569999C44.3172 0.569999 42.9592 1.634 42.6932 3.496ZM58.1591 8.27V7.262H56.6051V0.625999H55.4011L50.3471 7.318V8.27H55.4711V11H56.6051V8.27H58.1591ZM55.4711 2.978V7.262H51.7471L55.5271 2.11C55.4851 2.404 55.4711 2.74 55.4711 2.978ZM61.0529 4.56L61.5149 1.872H65.5329V0.695999H60.6189L59.7789 5.554L60.6049 5.792C61.2069 5.582 61.7389 5.456 62.2849 5.456C63.7549 5.456 64.6229 6.24 64.6229 7.584C64.6229 9.096 63.6009 9.978 62.1869 9.978C61.3469 9.978 60.5349 9.6 59.9189 9.082L59.2329 10.02C59.8629 10.622 60.8989 11.126 62.1309 11.126C64.2169 11.126 65.8549 9.698 65.8549 7.514C65.8549 5.722 64.6929 4.378 62.5229 4.378C62.0189 4.378 61.5289 4.434 61.0529 4.56ZM70.0928 4.56L73.1868 0.681999H71.5768L68.7208 4.532C67.8248 5.708 67.4468 6.744 67.4468 7.654C67.4468 9.782 68.8048 11.182 70.8908 11.182C72.9908 11.182 74.4468 9.698 74.4468 7.794C74.4468 5.82 73.0468 4.7 71.3668 4.7C70.6808 4.7 70.1068 4.896 69.6028 5.232C69.7008 5.12 69.8548 4.896 70.0928 4.56ZM70.8628 10.104C69.4628 10.104 68.6928 9.208 68.6928 7.864C68.6928 6.702 69.5748 5.694 70.9468 5.694C72.2208 5.694 73.1588 6.534 73.1588 7.892C73.1588 9.166 72.2208 10.104 70.8628 10.104ZM82.7726 1.564V0.737999H76.0246V1.83H81.3866L80.9106 2.614L76.7246 11H78.1386L82.7726 1.564ZM89.0684 5.652C90.1884 5.246 90.7484 4.434 90.7484 3.244C90.7484 1.732 89.4464 0.485999 87.5704 0.485999C85.6244 0.485999 84.3924 1.732 84.3924 3.244C84.3924 4.42 84.9804 5.246 86.0444 5.652C84.7564 6.002 84.0144 6.898 84.0144 8.242C84.0144 10.076 85.4704 11.238 87.5704 11.238C89.6424 11.238 91.0984 10.076 91.0984 8.242C91.0984 6.898 90.3704 6.002 89.0684 5.652ZM87.5704 1.508C88.8304 1.508 89.4464 2.306 89.4464 3.286C89.4464 4.224 88.9564 5.162 87.5704 5.162C86.1564 5.162 85.6664 4.224 85.6664 3.286C85.6664 2.306 86.2824 1.508 87.5704 1.508ZM87.5704 10.188C86.1704 10.188 85.3724 9.404 85.3724 8.228C85.3724 6.786 86.3944 6.184 87.5704 6.184C88.7324 6.184 89.7404 6.786 89.7404 8.228C89.7404 9.404 88.9704 10.188 87.5704 10.188Z" fill="black"/>
</svg>
