<svg width="37" height="14" viewBox="0 0 37 14" fill="none" xmlns="http://www.w3.org/2000/svg">
<path d="M12.124 7.044H7.14V6.008H10.85V4.902H3.598V3.922H10.458V2.844H3.598V1.892H10.766V0.785999H2.156V6.008H5.684V7.044H0.686V8.206H12.124V7.044ZM6.398 8.99C4.97933 8.99 3.89667 9.16267 3.15 9.508C2.41267 9.844 2.044 10.348 2.044 11.02C2.044 11.692 2.41267 12.2007 3.15 12.546C3.89667 12.9007 4.97933 13.078 6.398 13.078C7.826 13.078 8.90867 12.9007 9.646 12.546C10.3833 12.2007 10.752 11.692 10.752 11.02C10.752 10.348 10.3833 9.844 9.646 9.508C8.90867 9.16267 7.826 8.99 6.398 8.99ZM6.398 12C4.466 12 3.5 11.6733 3.5 11.02C3.5 10.376 4.466 10.054 6.398 10.054C8.33933 10.054 9.31 10.376 9.31 11.02C9.31 11.6733 8.33933 12 6.398 12ZM23.3089 9.69V0.449999H21.8669V9.69H23.3089ZM19.8089 7.702L20.5509 6.554C20.0656 6.386 19.6316 6.162 19.2489 5.882C18.8756 5.59267 18.5582 5.266 18.2969 4.902C18.0356 4.52867 17.8349 4.132 17.6949 3.712C17.5642 3.28267 17.4989 2.844 17.4989 2.396V1.136H16.0289V2.396C16.0289 2.86267 15.9589 3.32 15.8189 3.768C15.6882 4.20667 15.4922 4.61733 15.2309 5C14.9696 5.38267 14.6429 5.728 14.2509 6.036C13.8682 6.344 13.4296 6.59133 12.9349 6.778L13.6769 7.94C14.4329 7.66 15.0676 7.24933 15.5809 6.708C16.0942 6.15733 16.4956 5.52733 16.7849 4.818C17.0556 5.49 17.4429 6.07333 17.9469 6.568C18.4602 7.05333 19.0809 7.43133 19.8089 7.702ZM23.6729 11.664H16.5049V8.822H15.0489V12.84H23.6729V11.664ZM36.8318 6.638V5.448H34.8578V0.436H33.4158V13.078H34.8578V6.638H36.8318ZM29.4958 3.558V1.486H28.0538V3.558C28.0538 4.146 27.9791 4.72933 27.8298 5.308C27.6805 5.87733 27.4658 6.414 27.1858 6.918C26.9151 7.422 26.5791 7.87933 26.1778 8.29C25.7858 8.69133 25.3425 9.01333 24.8478 9.256L25.7298 10.418C26.4578 10.0447 27.0785 9.51267 27.5918 8.822C28.1145 8.122 28.5111 7.33333 28.7818 6.456C29.0525 7.30533 29.4351 8.052 29.9298 8.696C30.4245 9.33067 31.0125 9.82533 31.6938 10.18L32.5758 9.032C32.0998 8.79867 31.6705 8.49067 31.2878 8.108C30.9145 7.716 30.5925 7.27733 30.3218 6.792C30.0605 6.30667 29.8551 5.78867 29.7058 5.238C29.5658 4.678 29.4958 4.118 29.4958 3.558Z" fill="black"/>
</svg>
