<svg width="26" height="12" viewBox="0 0 26 12" fill="none" xmlns="http://www.w3.org/2000/svg">
<path d="M4.256 11.182C6.398 11.182 7.742 9.894 7.742 8.27C7.742 6.744 6.818 6.044 5.628 5.526L4.158 4.896C3.36 4.56 2.464 4.196 2.464 3.188C2.464 2.236 3.206 1.676 4.382 1.676C5.334 1.676 6.09 2.04 6.72 2.642L7.406 1.816C6.678 1.032 5.614 0.541999 4.382 0.541999C2.52 0.541999 1.148 1.69 1.148 3.272C1.148 4.784 2.296 5.498 3.234 5.904L4.718 6.548C5.684 6.996 6.426 7.318 6.426 8.368C6.426 9.376 5.614 10.048 4.27 10.048C3.206 10.048 2.17 9.558 1.428 8.774L0.658 9.656C1.554 10.608 2.8 11.182 4.256 11.182ZM11.0555 0.737999H9.75352V11H11.0555V7.752L12.8195 5.652L15.8855 11H17.3415L13.6315 4.644L16.8375 0.737999H15.3815L11.0975 5.89H11.0555V0.737999ZM17.5785 1.83H20.6865V11H21.9885V1.83H25.0965V0.737999H17.5785V1.83Z" fill="black"/>
</svg>
