<svg width="23" height="13" viewBox="0 0 23 13" fill="none" xmlns="http://www.w3.org/2000/svg">
<path d="M11.2902 5.266V4.3H9.42819V0.463999H8.28019V9.662H9.42819V5.266H11.2902ZM0.202188 7.408H5.97019V1.598H0.202188V7.408ZM1.32219 2.522H4.85019V6.498H1.32219V2.522ZM9.98819 11.818H2.76419V8.808H1.61619V12.756H9.98819V11.818ZM20.9911 0.478V7.898H18.4431V8.752H20.9911V10.04H22.1391V0.478H20.9911ZM15.8811 5.364C17.7151 5.364 18.9751 4.51 18.9751 3.166C18.9751 1.85 17.7151 0.981999 15.8811 0.981999C14.0471 0.981999 12.7871 1.85 12.7871 3.166C12.7871 4.51 14.0471 5.364 15.8811 5.364ZM15.8811 1.836C17.0711 1.836 17.8831 2.368 17.8831 3.166C17.8831 4.006 17.0711 4.51 15.8811 4.51C14.6911 4.51 13.8791 4.006 13.8791 3.166C13.8791 2.368 14.6911 1.836 15.8811 1.836ZM15.4331 7.17V9.592H16.5811V7.114C17.7151 7.044 18.8631 6.918 19.9831 6.75L19.8851 5.924C17.2251 6.26 14.1171 6.288 11.7931 6.288L11.9471 7.24C13.0111 7.24 14.1871 7.226 15.4331 7.17ZM22.4611 12.756V11.818H14.7331V9.102H13.5851V12.756H22.4611Z" fill="black"/>
</svg>
