<svg width="30" height="17" viewBox="0 0 30 17" fill="none" xmlns="http://www.w3.org/2000/svg">
<path d="M13.6834 0.114H11.8114V16.422H13.6834V0.114ZM5.02541 1.32C4.42541 1.32 3.86741 1.458 3.35141 1.734C2.84741 1.998 2.40941 2.382 2.03741 2.886C1.66541 3.378 1.37141 3.978 1.15541 4.686C0.951407 5.382 0.849407 6.168 0.849407 7.044C0.849407 7.92 0.951407 8.718 1.15541 9.438C1.37141 10.146 1.66541 10.746 2.03741 11.238C2.40941 11.73 2.84741 12.114 3.35141 12.39C3.86741 12.654 4.42541 12.786 5.02541 12.786C5.63741 12.786 6.19541 12.654 6.69941 12.39C7.21541 12.114 7.65941 11.73 8.03141 11.238C8.40341 10.746 8.69141 10.146 8.89541 9.438C9.11141 8.718 9.21941 7.92 9.21941 7.044C9.21941 6.168 9.11141 5.382 8.89541 4.686C8.69141 3.978 8.40341 3.378 8.03141 2.886C7.65941 2.382 7.21541 1.998 6.69941 1.734C6.19541 1.458 5.63741 1.32 5.02541 1.32ZM5.02541 2.994C5.74541 2.994 6.32741 3.354 6.77141 4.074C7.21541 4.782 7.43741 5.772 7.43741 7.044C7.43741 8.352 7.21541 9.36 6.77141 10.068C6.32741 10.776 5.74541 11.13 5.02541 11.13C4.30541 11.13 3.72341 10.776 3.27941 10.068C2.84741 9.36 2.63141 8.352 2.63141 7.044C2.63141 5.772 2.84741 4.782 3.27941 4.074C3.72341 3.354 4.30541 2.994 5.02541 2.994ZM27.578 4.488H24.626V6.018H27.578V12.03H29.432V0.149999H27.578V4.488ZM24.716 9.726L25.634 8.286C25.022 8.07 24.476 7.788 23.996 7.44C23.528 7.092 23.132 6.702 22.808 6.27C22.484 5.838 22.238 5.382 22.07 4.902C21.902 4.41 21.818 3.912 21.818 3.408V2.85H25.202V1.356H16.508V2.85H19.946V3.408C19.946 3.948 19.856 4.488 19.676 5.028C19.496 5.556 19.232 6.054 18.884 6.522C18.548 6.978 18.134 7.392 17.642 7.764C17.15 8.124 16.586 8.412 15.95 8.628L16.904 10.086C17.876 9.75 18.698 9.252 19.37 8.592C20.042 7.92 20.558 7.134 20.918 6.234C21.266 7.038 21.758 7.746 22.394 8.358C23.042 8.958 23.816 9.414 24.716 9.726ZM29.846 14.568H20.756V11.004H18.902V16.08H29.846V14.568Z" fill="white"/>
</svg>
