<svg width="55" height="16" viewBox="0 0 55 16" fill="none" xmlns="http://www.w3.org/2000/svg">
<path d="M12.04 15.184V0.832H10.776V6.592H8.744V1.152H7.512V14.464H8.744V7.664H10.776V15.184H12.04ZM1.656 10.56V3.648H5.704V2.576H0.36V11.648H1.304C3.432 11.648 4.92 11.6 6.616 11.216L6.504 10.128C4.952 10.464 3.56 10.56 1.656 10.56ZM14.4547 5.568L14.8387 6.56C17.2708 6.384 19.3668 5.632 20.2628 4.304C21.1588 5.632 23.2548 6.384 25.6548 6.56L26.0548 5.568C23.3828 5.392 21.2067 4.496 20.9987 3.088H25.4148V2.096H20.9187V0.735999H19.6068V2.096H15.0947V3.088H19.5268C19.3187 4.496 17.0947 5.392 14.4547 5.568ZM20.9187 9.536V8.208H26.7268V7.2H13.7827V8.208H19.5908V9.536H15.3187V10.512H23.7828V11.728H15.3668V15.024H25.5108V14.032H16.6467V12.672H25.0788V9.536H20.9187ZM27.7335 3.648H36.1975V2.592H32.6135V0.848H31.3015V2.592H27.7335V3.648ZM40.9495 6.672V5.568H38.8215V0.848H37.5095V11.6H38.8215V6.672H40.9495ZM35.3975 7.104C35.3975 5.504 34.0055 4.448 31.9575 4.448C29.9255 4.448 28.5335 5.504 28.5335 7.104C28.5335 8.72 29.9255 9.776 31.9575 9.776C34.0055 9.776 35.3975 8.72 35.3975 7.104ZM29.7815 7.104C29.7815 6.08 30.6135 5.472 31.9575 5.472C33.2535 5.472 34.1495 6.08 34.1495 7.104C34.1495 8.128 33.2535 8.752 31.9575 8.752C30.6135 8.752 29.7815 8.128 29.7815 7.104ZM39.4615 13.792H31.2055V10.752H29.8935V14.864H39.4615V13.792ZM54.6282 13.376V12.288H48.7562V8.608H53.1242V7.552H44.5642V3.056H52.9802V1.984H43.2522V8.608H47.4282V12.288H41.5882V13.376H54.6282Z" fill="black"/>
</svg>
