<svg width="113" height="16" viewBox="0 0 113 16" fill="none" xmlns="http://www.w3.org/2000/svg">
<path d="M12.1259 0.768H10.4619V15.264H12.1259V0.768ZM0.685875 7.696L1.43788 8.976C2.30188 8.72 3.03788 8.336 3.64587 7.824C4.25388 7.312 4.71254 6.704 5.02188 6C5.34188 6.672 5.80054 7.25333 6.39788 7.744C7.00588 8.224 7.74188 8.58667 8.60588 8.832L9.34188 7.552C8.27521 7.25333 7.43254 6.77867 6.81388 6.128C6.20588 5.47733 5.88054 4.736 5.83788 3.904H8.98988V2.576H5.83788V0.895999H4.18988V2.576H1.05388V3.904H4.17388C4.13121 4.768 3.81121 5.54133 3.21388 6.224C2.62721 6.90667 1.78454 7.39733 0.685875 7.696ZM5.83788 10.912V8.512H4.18988V10.992C3.48588 11.0133 2.80321 11.0293 2.14188 11.04C1.49121 11.04 0.877875 11.04 0.301875 11.04L0.509875 12.4C1.14988 12.4 1.83788 12.3947 2.57388 12.384C3.32054 12.3733 4.08854 12.352 4.87788 12.32C5.66721 12.2773 6.46721 12.2133 7.27788 12.128C8.09921 12.032 8.90988 11.904 9.70988 11.744L9.58188 10.544C8.97388 10.64 8.35521 10.72 7.72588 10.784C7.10721 10.8373 6.47788 10.88 5.83788 10.912ZM27.2766 0.768H25.7086V6.48H23.9966V1.072H22.4446V14.512H23.9966V7.824H25.7086V15.216H27.2766V0.768ZM17.0526 10.432V3.84H20.7806V2.496H15.4366V11.792H16.3966C16.9086 11.792 17.3886 11.7867 17.8366 11.776C18.2846 11.7653 18.7166 11.7493 19.1326 11.728C19.5593 11.696 19.9753 11.6533 20.3806 11.6C20.7966 11.5467 21.2233 11.4773 21.6606 11.392L21.5166 10.032C20.77 10.1813 20.0446 10.2827 19.3406 10.336C18.6473 10.3893 17.8846 10.4213 17.0526 10.432Z" fill="black"/>
<path d="M38.9655 12.224V2.032H37.0775L33.6215 5.008L34.8855 6.448L36.8375 4.672L36.7735 5.712V12.224H34.4375V14H41.0295V12.224H38.9655ZM54.9768 9.376V0.639999H52.8648V4.208H50.5288C50.4328 3.792 50.2674 3.41333 50.0328 3.072C49.7981 2.73067 49.5101 2.43733 49.1688 2.192C48.8381 1.94667 48.4648 1.75467 48.0488 1.616C47.6328 1.47733 47.1901 1.408 46.7208 1.408C46.1768 1.408 45.6701 1.49867 45.2008 1.68C44.7314 1.86133 44.3208 2.11733 43.9688 2.448C43.6168 2.768 43.3394 3.152 43.1368 3.6C42.9448 4.03733 42.8488 4.52267 42.8488 5.056C42.8488 5.58933 42.9448 6.08 43.1368 6.528C43.3394 6.976 43.6168 7.36533 43.9688 7.696C44.3208 8.016 44.7314 8.26667 45.2008 8.448C45.6701 8.62933 46.1768 8.72 46.7208 8.72C47.1901 8.72 47.6328 8.656 48.0488 8.528C48.4754 8.38933 48.8541 8.19733 49.1848 7.952C49.5261 7.696 49.8088 7.39733 50.0328 7.056C50.2674 6.704 50.4328 6.32 50.5288 5.904H52.8648V9.376H54.9768ZM46.7208 6.912C46.1768 6.912 45.7288 6.752 45.3768 6.432C45.0354 6.10133 44.8648 5.64267 44.8648 5.056C44.8648 4.46933 45.0354 4.016 45.3768 3.696C45.7288 3.376 46.1768 3.216 46.7208 3.216C47.2648 3.216 47.7128 3.376 48.0648 3.696C48.4274 4.016 48.6088 4.46933 48.6088 5.056C48.6088 5.64267 48.4274 6.10133 48.0648 6.432C47.7128 6.752 47.2648 6.912 46.7208 6.912ZM54.9768 10.032H44.9448V11.696H52.8648V15.392H54.9768V10.032ZM64.2485 4H68.7445V2.032H62.6965C62.6112 2.544 62.4832 3.28533 62.3125 4.256C62.1525 5.216 61.9498 6.46933 61.7045 8.016L63.0485 8.416C63.3365 8.30933 63.6245 8.22933 63.9125 8.176C64.2005 8.112 64.4938 8.06933 64.7925 8.048C65.5285 8.02667 66.0832 8.19733 66.4565 8.56C66.8298 8.92267 67.0165 9.424 67.0165 10.064C67.0165 10.768 66.8245 11.3333 66.4405 11.76C66.0565 12.176 65.4965 12.384 64.7605 12.384C64.2485 12.384 63.7792 12.2667 63.3525 12.032C62.9258 11.7973 62.5258 11.5253 62.1525 11.216L61.0325 12.848C61.4378 13.232 61.9552 13.568 62.5845 13.856C63.2138 14.144 63.8965 14.288 64.6325 14.288C65.2725 14.288 65.8698 14.1867 66.4245 13.984C66.9792 13.7707 67.4592 13.4773 67.8645 13.104C68.2698 12.72 68.5845 12.2613 68.8085 11.728C69.0432 11.1947 69.1605 10.608 69.1605 9.968C69.1605 9.43467 69.0752 8.944 68.9045 8.496C68.7338 8.03733 68.4832 7.64267 68.1525 7.312C67.8218 6.97067 67.4112 6.704 66.9205 6.512C66.4298 6.32 65.8645 6.224 65.2245 6.224C65.0112 6.224 64.7872 6.23467 64.5525 6.256C64.3285 6.26667 64.0938 6.29333 63.8485 6.336L64.2485 4ZM80.7398 0.639999V4.944H78.3878V6.64H80.7398V11.552H82.8518V0.639999H80.7398ZM78.3718 9.824L79.3798 8.176C78.7824 7.99467 78.2651 7.76 77.8278 7.472C77.4011 7.17333 77.0438 6.848 76.7558 6.496C76.4784 6.13333 76.2704 5.74933 76.1318 5.344C76.0038 4.928 75.9398 4.512 75.9398 4.096V4.032H78.8518V2.384H75.9398V0.751999H73.8278V2.384H70.9478V4.032H73.8278V4.096C73.8278 4.544 73.7584 4.98667 73.6198 5.424C73.4918 5.85067 73.2891 6.256 73.0118 6.64C72.7451 7.024 72.3984 7.37067 71.9718 7.68C71.5451 7.97867 71.0331 8.224 70.4358 8.416L71.4598 10.064C72.2918 9.79733 72.9958 9.41333 73.5718 8.912C74.1478 8.4 74.5958 7.792 74.9158 7.088C75.2571 7.728 75.7104 8.28267 76.2758 8.752C76.8411 9.22133 77.5398 9.57867 78.3718 9.824ZM83.1878 15.12V13.44H75.2518V10.64H73.1398V15.12H83.1878ZM98.8025 6.624V4.896H96.8505V0.639999H94.7385V11.392H96.8505V6.624H98.8025ZM85.6825 8.96H92.7065V1.856H85.6825V8.96ZM87.7465 3.52H90.6265V7.296H87.7465V3.52ZM97.3785 13.44H89.4585V10.336H87.3465V15.12H97.3785V13.44ZM110.257 0.639999V9.2H107.489V10.64H110.257V11.808H112.369V0.639999H110.257ZM104.657 6.4C105.191 6.4 105.681 6.336 106.129 6.208C106.577 6.08 106.961 5.904 107.281 5.68C107.612 5.44533 107.868 5.168 108.049 4.848C108.231 4.528 108.321 4.17067 108.321 3.776C108.321 3.38133 108.231 3.024 108.049 2.704C107.868 2.37333 107.612 2.096 107.281 1.872C106.961 1.63733 106.577 1.456 106.129 1.328C105.681 1.2 105.191 1.136 104.657 1.136C104.113 1.136 103.617 1.2 103.169 1.328C102.721 1.456 102.332 1.63733 102.001 1.872C101.681 2.096 101.431 2.37333 101.249 2.704C101.068 3.024 100.977 3.38133 100.977 3.776C100.977 4.17067 101.068 4.528 101.249 4.848C101.431 5.168 101.681 5.44533 102.001 5.68C102.332 5.904 102.721 6.08 103.169 6.208C103.617 6.336 104.113 6.4 104.657 6.4ZM104.657 2.672C105.148 2.672 105.548 2.768 105.857 2.96C106.167 3.14133 106.321 3.41333 106.321 3.776C106.321 4.13867 106.167 4.41067 105.857 4.592C105.548 4.77333 105.148 4.864 104.657 4.864C104.145 4.864 103.735 4.77333 103.425 4.592C103.127 4.41067 102.977 4.13867 102.977 3.776C102.977 3.41333 103.127 3.14133 103.425 2.96C103.735 2.768 104.145 2.672 104.657 2.672ZM112.689 15.12V13.44H103.873V11.424H105.905V8.64C106.513 8.59733 107.105 8.544 107.681 8.48C108.268 8.416 108.849 8.33067 109.425 8.224L109.281 6.72C108.503 6.816 107.703 6.896 106.881 6.96C106.06 7.01333 105.244 7.056 104.433 7.088C103.623 7.12 102.833 7.14133 102.065 7.152C101.297 7.16267 100.577 7.168 99.9053 7.168L100.177 8.848C100.732 8.848 101.313 8.84267 101.921 8.832C102.529 8.82133 103.159 8.8 103.809 8.768V10.736H101.761V15.12H112.689Z" fill="#D71921"/>
</svg>
