<svg width="143" height="14" viewBox="0 0 143 14" fill="none" xmlns="http://www.w3.org/2000/svg">
<path d="M9.87 0.478V7.898H7.322V8.752H9.87V10.04H11.018V0.478H9.87ZM4.76 5.364C6.594 5.364 7.854 4.51 7.854 3.166C7.854 1.85 6.594 0.981999 4.76 0.981999C2.926 0.981999 1.666 1.85 1.666 3.166C1.666 4.51 2.926 5.364 4.76 5.364ZM4.76 1.836C5.95 1.836 6.762 2.368 6.762 3.166C6.762 4.006 5.95 4.51 4.76 4.51C3.57 4.51 2.758 4.006 2.758 3.166C2.758 2.368 3.57 1.836 4.76 1.836ZM4.312 7.17V9.592H5.46V7.114C6.594 7.044 7.742 6.918 8.862 6.75L8.764 5.924C6.104 6.26 2.996 6.288 0.672 6.288L0.826 7.24C1.89 7.24 3.066 7.226 4.312 7.17ZM11.34 12.756V11.818H3.612V9.102H2.464V12.756H11.34ZM23.2249 13.05V0.463999H22.0769V13.05H23.2249ZM14.7969 9.06V6.134H19.4309V1.64H13.6069V2.578H18.2689V5.196H13.6489V10.012H14.6849C16.8549 10.012 18.7309 9.928 21.0129 9.55L20.9009 8.612C18.7169 8.948 16.8549 9.06 14.7969 9.06ZM36.4958 6.694V5.77H34.6898C35.0258 4.188 35.0258 3.068 35.0258 2.074V1.15H26.5418V2.074H33.8918C33.8918 3.068 33.8778 4.202 33.5278 5.77H25.0858V6.694H36.4958ZM35.0678 8.402H26.4998V12.868H35.0678V8.402ZM33.9338 11.944H27.6198V9.326H33.9338V11.944ZM51.1056 6.806V5.868H49.3416C49.6356 4.3 49.6356 3.124 49.6356 2.102V1.15H41.1376V2.088H48.5016V2.102C48.5016 3.124 48.5156 4.286 48.1936 5.868H39.7096V6.806H43.4896V9.83H44.6096V6.806H46.8216V9.83H47.9416V6.806H51.1056ZM49.9716 11.818H42.2296V8.822H41.0956V12.756H49.9716V11.818ZM53.3165 5.252H61.9265V4.328H54.4645V1.906H61.8425V0.981999H53.3165V5.252ZM63.2565 7.408V6.456H51.8885V7.408H63.2565ZM57.5585 8.486C54.8845 8.486 53.2605 9.298 53.2605 10.754C53.2605 12.21 54.8845 13.022 57.5585 13.022C60.2325 13.022 61.8565 12.21 61.8565 10.754C61.8565 9.298 60.2325 8.486 57.5585 8.486ZM57.5585 12.126C55.5845 12.126 54.4225 11.65 54.4225 10.754C54.4225 9.858 55.5845 9.382 57.5585 9.382C59.5325 9.382 60.6945 9.858 60.6945 10.754C60.6945 11.65 59.5325 12.126 57.5585 12.126ZM67.9962 5.896H76.3682V0.884H75.2342V2.48H69.1302V0.884H67.9962V5.896ZM69.1302 3.362H75.2342V4.986H69.1302V3.362ZM77.8802 8.038V7.114H66.4702V8.038H71.6922V10.474H72.8402V8.038H77.8802ZM76.6062 11.818H69.0602V9.34H67.9262V12.756H76.6062V11.818ZM78.7192 2.508H86.1252V1.626H82.9892V0.352H81.8412V1.626H78.7192V2.508ZM90.2832 4.412V3.46H88.4212V0.436H87.2732V7.38H88.4212V4.412H90.2832ZM85.4252 5.126C85.4252 3.838 84.2632 3.068 82.4152 3.068C80.6232 3.068 79.4192 3.838 79.4192 5.126C79.4192 6.414 80.6232 7.184 82.4152 7.184C84.2632 7.184 85.4252 6.414 85.4252 5.126ZM80.5112 5.126C80.5112 4.342 81.2392 3.922 82.4152 3.922C83.5912 3.922 84.3332 4.342 84.3332 5.126C84.3332 5.91 83.5912 6.33 82.4152 6.33C81.2392 6.33 80.5112 5.91 80.5112 5.126ZM88.8832 12.014H81.6032V10.81H88.4212V8.024H80.4412V8.878H87.2872V9.97H80.4832V12.896H88.8832V12.014ZM104.893 4.678V3.726H103.031V0.492H101.883V8.094H103.031V4.678H104.893ZM99.9369 7.282L100.539 6.386C98.7469 5.784 97.5009 4.188 97.5009 2.508V1.122H96.3529V2.41C96.3529 4.3 95.1349 6.05 93.2309 6.722L93.8329 7.632C95.3029 7.072 96.4229 5.924 96.9409 4.454C97.5009 5.742 98.5789 6.778 99.9369 7.282ZM99.0409 8.444C96.4789 8.444 94.8969 9.284 94.8969 10.74C94.8969 12.196 96.4789 13.022 99.0409 13.022C101.575 13.022 103.171 12.196 103.171 10.74C103.171 9.284 101.575 8.444 99.0409 8.444ZM99.0409 12.126C97.1789 12.126 96.0449 11.636 96.0449 10.74C96.0449 9.844 97.1789 9.34 99.0409 9.34C100.903 9.34 102.023 9.844 102.023 10.74C102.023 11.636 100.903 12.126 99.0409 12.126ZM105.718 2.564H112.928V1.71H109.904V0.436H108.756V1.71H105.718V2.564ZM117.044 5.812V4.86H115.196V0.478H114.048V10.306H115.196V5.812H117.044ZM113.39 8.318L113.306 7.492C112.228 7.674 111.08 7.772 109.904 7.828V6.932C111.36 6.778 112.256 6.092 112.256 5.014C112.256 3.824 111.08 3.096 109.33 3.096C107.566 3.096 106.39 3.824 106.39 5.014C106.39 6.092 107.3 6.778 108.756 6.932V7.884C107.524 7.926 106.418 7.94 105.41 7.94L105.536 8.864C107.734 8.864 110.73 8.808 113.39 8.318ZM107.482 5.014C107.482 4.342 108.196 3.908 109.33 3.908C110.45 3.908 111.164 4.342 111.164 5.014C111.164 5.728 110.45 6.134 109.33 6.134C108.196 6.134 107.482 5.728 107.482 5.014ZM115.644 11.818H108.406V9.662H107.258V12.756H115.644V11.818ZM131.682 4.594V3.642H129.82V0.478H128.672V8.038H129.82V4.594H131.682ZM120.594 7.058H126.404V1.276H125.284V3.166H121.728V1.276H120.594V7.058ZM121.728 4.062H125.284V6.134H121.728V4.062ZM125.83 8.36C123.268 8.36 121.686 9.2 121.686 10.698C121.686 12.196 123.268 13.036 125.83 13.036C128.364 13.036 129.96 12.196 129.96 10.698C129.96 9.2 128.364 8.36 125.83 8.36ZM125.83 12.126C123.912 12.126 122.834 11.594 122.834 10.698C122.834 9.802 123.912 9.284 125.83 9.284C127.692 9.284 128.812 9.802 128.812 10.698C128.812 11.594 127.692 12.126 125.83 12.126ZM142.6 7.352V0.492H141.438V3.572H138.54V1.136H137.406V3.054H134.018V1.136H132.884V6.876H138.54V4.51H141.438V7.352H142.6ZM134.018 3.95H137.406V5.938H134.018V3.95ZM142.586 7.954H141.452V9.466H135.684V7.954H134.55V12.854H142.586V7.954ZM135.684 10.362H141.452V11.93H135.684V10.362Z" fill="#111111"/>
</svg>
