<svg width="103" height="16" viewBox="0 0 103 16" fill="none" xmlns="http://www.w3.org/2000/svg">
<path d="M0.748877 2.224V14H4.68488C5.34621 14 5.94888 13.9307 6.49288 13.792C7.04754 13.6533 7.52221 13.44 7.91688 13.152C8.32221 12.864 8.63688 12.5067 8.86088 12.08C9.08488 11.6427 9.19688 11.1307 9.19688 10.544C9.19688 9.744 8.97821 9.11467 8.54088 8.656C8.10354 8.19733 7.54888 7.89333 6.87688 7.744V7.664C7.41021 7.48267 7.82088 7.15733 8.10888 6.688C8.40754 6.208 8.55688 5.68533 8.55688 5.12C8.55688 4.58667 8.45021 4.13867 8.23688 3.776C8.03421 3.40267 7.74621 3.104 7.37288 2.88C7.01021 2.64533 6.57288 2.48 6.06088 2.384C5.55954 2.27733 5.00488 2.224 4.39688 2.224H0.748877ZM4.18888 7.136H2.60488V3.664H4.23688C5.06888 3.664 5.69288 3.792 6.10888 4.048C6.52488 4.304 6.73288 4.74133 6.73288 5.36C6.73288 5.91467 6.53021 6.352 6.12488 6.672C5.73021 6.98133 5.08488 7.136 4.18888 7.136ZM4.47688 12.544H2.60488V8.544H4.47688C5.41554 8.544 6.13021 8.69333 6.62088 8.992C7.12221 9.29067 7.37288 9.776 7.37288 10.448C7.37288 11.184 7.12221 11.7173 6.62088 12.048C6.13021 12.3787 5.41554 12.544 4.47688 12.544ZM10.6208 2.224V14H12.3808V8.448C12.3808 7.808 12.3541 7.15733 12.3008 6.496C12.2474 5.83467 12.1941 5.2 12.1408 4.592H12.2208L13.4528 7.056L17.3568 14H19.2608V2.224H17.5008V7.712C17.5008 8.352 17.5274 9.01333 17.5808 9.696C17.6341 10.3787 17.6874 11.024 17.7408 11.632H17.6608L16.4288 9.136L12.5248 2.224H10.6208ZM21.5548 2.224V14H23.4108V10.448L25.2188 8.24L28.5468 14H30.6108L26.3548 6.768L30.0028 2.224H27.9388L23.4588 7.792H23.4108V2.224H21.5548ZM46.8623 7.696V6.336H44.6063V0.768H42.9583V15.248H44.6063V7.696H46.8623ZM35.6463 10.32V3.488H40.7183V2.144H33.9983V11.696H35.1823C35.8329 11.696 36.4463 11.6907 37.0223 11.68C37.6089 11.6587 38.1743 11.632 38.7183 11.6C39.2623 11.568 39.7956 11.52 40.3183 11.456C40.8516 11.392 41.3903 11.312 41.9343 11.216L41.7583 9.856C41.2569 9.94133 40.7663 10.016 40.2863 10.08C39.8063 10.1333 39.3156 10.1813 38.8143 10.224C38.3236 10.256 37.8169 10.2827 37.2943 10.304C36.7716 10.3147 36.2223 10.32 35.6463 10.32ZM59.229 0.768H57.565V15.264H59.229V0.768ZM51.533 1.84C50.9997 1.84 50.5037 1.96267 50.045 2.208C49.597 2.44267 49.2077 2.784 48.877 3.232C48.5463 3.66933 48.285 4.20267 48.093 4.832C47.9117 5.45067 47.821 6.14933 47.821 6.928C47.821 7.70667 47.9117 8.416 48.093 9.056C48.285 9.68533 48.5463 10.2187 48.877 10.656C49.2077 11.0933 49.597 11.4347 50.045 11.68C50.5037 11.9147 50.9997 12.032 51.533 12.032C52.077 12.032 52.573 11.9147 53.021 11.68C53.4797 11.4347 53.8743 11.0933 54.205 10.656C54.5357 10.2187 54.7917 9.68533 54.973 9.056C55.165 8.416 55.261 7.70667 55.261 6.928C55.261 6.14933 55.165 5.45067 54.973 4.832C54.7917 4.20267 54.5357 3.66933 54.205 3.232C53.8743 2.784 53.4797 2.44267 53.021 2.208C52.573 1.96267 52.077 1.84 51.533 1.84ZM51.533 3.328C52.173 3.328 52.6903 3.648 53.085 4.288C53.4797 4.91733 53.677 5.79733 53.677 6.928C53.677 8.09067 53.4797 8.98667 53.085 9.616C52.6903 10.2453 52.173 10.56 51.533 10.56C50.893 10.56 50.3757 10.2453 49.981 9.616C49.597 8.98667 49.405 8.09067 49.405 6.928C49.405 5.79733 49.597 4.91733 49.981 4.288C50.3757 3.648 50.893 3.328 51.533 3.328ZM73.4838 0.783999H71.9158V9.792H73.4838V0.783999ZM69.0678 5.696V9.696H70.6198V1.056H69.0678V4.352H67.4838V5.696H69.0678ZM68.1398 8.8L67.9798 7.488C67.2438 7.63733 66.5184 7.73867 65.8038 7.792C65.0891 7.83467 64.3104 7.856 63.4678 7.856V6.064H66.9558V1.872H61.8358V3.168H65.3558V4.832H61.8678V9.184H62.8438C63.3664 9.184 63.8518 9.17867 64.2998 9.168C64.7584 9.15733 65.1958 9.136 65.6118 9.104C66.0384 9.072 66.4544 9.03467 66.8598 8.992C67.2758 8.93867 67.7024 8.87467 68.1398 8.8ZM63.7558 10.448V11.776H71.8358V15.248H73.4838V10.448H63.7558ZM86.8105 9.744V8.416H78.4745V6.432H86.3785V5.136H78.4745V3.28H86.6985V1.952H76.7945V9.744H86.8105ZM88.2825 12.112H75.1785V13.456H88.2825V12.112ZM102.185 8.928H96.4573V7.552H100.825V6.288H92.3613V4.944H100.537V1.184H90.7133V2.448H98.9053V3.76H90.7453V7.552H94.8093V8.928H89.0653V10.256H102.185V8.928ZM92.4093 13.872V11.12H90.7613V15.2H100.857V13.872H92.4093Z" fill="black"/>
</svg>
