<svg width="48" height="14" viewBox="0 0 48 14" fill="none" xmlns="http://www.w3.org/2000/svg">
<path d="M10.494 0.422H9.122V5.42H7.624V0.688H6.266V12.448H7.624V6.596H9.122V13.064H10.494V0.422ZM1.548 8.878V3.11H4.81V1.934H0.134V10.068H0.974C1.422 10.068 1.842 10.0633 2.234 10.054C2.626 10.0447 3.004 10.0307 3.368 10.012C3.74133 9.984 4.10533 9.94667 4.46 9.9C4.824 9.85333 5.19733 9.79267 5.58 9.718L5.454 8.528C4.80067 8.65867 4.166 8.74733 3.55 8.794C2.94333 8.84067 2.276 8.86867 1.548 8.878ZM12.4249 4.398L12.8449 5.476C13.9742 5.40133 14.9449 5.21 15.7569 4.902C16.5782 4.594 17.1896 4.174 17.5909 3.642C17.9922 4.174 18.6036 4.594 19.4249 4.902C20.2556 5.21 21.2356 5.40133 22.3649 5.476L22.7569 4.398C21.4782 4.32333 20.4749 4.12733 19.7469 3.81C19.0189 3.48333 18.5849 3.068 18.4449 2.564H22.1829V1.486H18.3189V0.379999H16.8769V1.486H13.0269V2.564H16.7509C16.6109 3.068 16.1769 3.48333 15.4489 3.81C14.7209 4.12733 13.7129 4.32333 12.4249 4.398ZM18.3189 7.016H23.3169V5.938H11.9069V7.016H16.8769V7.996H13.2369V9.06H20.4749V9.942H13.2649V12.966H22.2529V11.888H14.6929V10.936H21.8889V7.996H18.3189V7.016ZM34.5018 0.436H33.0598V13.078H34.5018V0.436ZM30.7778 1.766H24.7858V2.942H29.2938C29.1725 4.398 28.7011 5.686 27.8798 6.806C27.0585 7.91667 25.8171 8.87333 24.1558 9.676L24.9258 10.824C26.0085 10.3013 26.9231 9.71333 27.6698 9.06C28.4165 8.39733 29.0185 7.68333 29.4758 6.918C29.9425 6.15267 30.2738 5.34067 30.4698 4.482C30.6751 3.614 30.7778 2.70867 30.7778 1.766ZM47.9127 4.132H46.1067V0.436H44.6647V9.592H46.1067V5.322H47.9127V4.132ZM42.7187 1.402H36.7407V2.578H41.1507C41.0201 3.59533 40.5347 4.49133 39.6947 5.266C38.8641 6.04067 37.7021 6.652 36.2087 7.1L36.8107 8.248C37.7347 7.968 38.5607 7.61333 39.2887 7.184C40.0167 6.74533 40.6327 6.23667 41.1367 5.658C41.6501 5.07933 42.0421 4.43533 42.3127 3.726C42.5834 3.01667 42.7187 2.242 42.7187 1.402ZM39.5547 11.664V8.668H38.0987V12.84H46.6107V11.664H39.5547Z" fill="black"/>
</svg>
