<svg width="84" height="32" viewBox="0 0 84 32" fill="none" xmlns="http://www.w3.org/2000/svg">
<path d="M11.284 3.236H3.64V2.438H11.424V0.87H1.778V7.198H11.634V5.616H3.654V4.748H11.284V3.236ZM7.56 13.078V9.634H12.768V8.066H0.448V9.634H5.656V13.078H7.56ZM14.3127 11.356C15.0687 10.782 15.7407 10.138 16.3427 9.41C16.8607 8.78 17.3227 8.108 17.7007 7.38L17.7847 7.534C18.6807 8.948 19.9267 10.25 21.1867 11.062L22.3207 9.69C20.5707 8.696 19.2827 7.31 18.4847 5.532C18.6107 5.126 18.7227 4.72 18.8207 4.286C18.9467 3.754 19.0307 3.208 19.0867 2.634H21.9147V1.038H13.8927V2.634H17.1687C17.1267 3.068 17.0567 3.502 16.9727 3.922C16.4687 6.512 15.1947 8.654 13.0527 10.054L14.3127 11.356ZM24.6307 13.078V6.624H26.4087V5H24.6307V0.533999H22.7547V13.078H24.6307ZM42.4592 8.01V1.038H32.8272V8.01H36.6912V10.558H31.4832V12.154H43.8032V10.558H38.5952V8.01H42.4592ZM34.7032 2.634H40.5832V6.414H34.7032V2.634ZM55.6659 13.078V6.344H57.4439V4.72H55.6659V0.533999H53.7899V13.078H55.6659ZM52.8099 5.378C52.8099 2.858 51.0599 1.094 48.7499 1.094C46.4399 1.094 44.6899 2.858 44.6899 5.378C44.6899 7.898 46.4399 9.662 48.7499 9.662C51.0599 9.662 52.8099 7.898 52.8099 5.378ZM50.9339 5.378C50.9339 7.002 50.0379 8.066 48.7499 8.066C47.4619 8.066 46.5659 7.002 46.5659 5.378C46.5659 3.754 47.4619 2.69 48.7499 2.69C50.0379 2.69 50.9339 3.754 50.9339 5.378ZM67.0246 0.897999V3.096H61.1446V0.897999H59.2686V8.43H63.1326V10.558H57.9246V12.154H70.2446V10.558H65.0366V8.43H68.9006V0.897999H67.0246ZM61.1446 6.82V4.664H67.0246V6.82H61.1446ZM82.6673 13.078V0.533999H80.7913V13.078H82.6673ZM72.0413 2.634H76.9413C76.6753 5.504 74.7293 8.388 71.4673 9.956L72.6713 11.286C76.1713 9.41 78.9713 5.91 78.9293 1.038H72.0413V2.634Z" fill="#242D3C"/>
<path d="M6.32 30.5V25.86H7.81V30.74H8.57V21.83H7.81V25.18H6.32V21.93H5.57V30.5H6.32ZM0.92 22.17V29.08L5.07 28.84V28.19L1.67 28.34V22.17H0.92ZM20.7246 23.94H14.8146V22.75H20.8246V22.09H14.0546V26.41H20.9746V25.74H14.8146V24.6H20.7246V23.94ZM17.8346 30.75V28.05H21.8246V27.39H13.0646V28.05H17.0546V30.75H17.8346ZM28.698 28.61C28.038 28.18 27.438 27.67 26.908 27.08C26.388 26.5 25.978 25.88 25.688 25.22C25.728 25.09 25.768 24.96 25.798 24.82C25.958 24.22 26.058 23.57 26.098 22.87H28.278V22.21H22.748V22.87H25.298C25.248 23.5 25.158 24.09 25.018 24.64C24.538 26.57 23.528 28.01 22.198 28.94L22.708 29.47C23.658 28.76 24.478 27.86 25.078 26.71C25.188 26.5 25.298 26.28 25.388 26.05C25.498 26.26 25.628 26.46 25.758 26.66C26.438 27.66 27.318 28.58 28.188 29.2L28.698 28.61ZM30.118 30.75V25.91H31.568V25.23H30.118V21.83H29.358V30.75H30.118ZM31.9513 26V26.62H40.7113V26H31.9513ZM39.9613 30.69V30.06H33.6513V29.3H39.7513V27.35H32.8913V27.97H38.9913V28.69H32.8913V30.69H39.9613ZM39.8613 25.31V24.68H33.7013V23.89H39.7113V21.93H32.9413V22.55H38.9513V23.29H32.9413V25.31H39.8613ZM52.4959 28.51V25.31H53.7259V24.63H52.4959V21.83H51.7359V28.51H52.4959ZM52.7859 30.65V29.99H46.7859V28.09H46.0259V30.65H52.7859ZM49.3959 22.34V21.7H46.0559V22.34H49.3959ZM50.6959 23.57V22.93H44.7559V23.57H50.6959ZM47.8059 27.51C49.2559 27.51 50.2659 26.75 50.2659 25.75C50.2659 24.75 49.2559 23.99 47.8059 23.99C46.3559 23.99 45.3459 24.75 45.3459 25.75C45.3459 26.75 46.3559 27.51 47.8059 27.51ZM47.8059 26.89C46.7759 26.89 46.1059 26.48 46.1059 25.75C46.1059 25.02 46.7759 24.61 47.8059 24.61C48.8359 24.61 49.5059 25.02 49.5059 25.75C49.5059 26.48 48.8359 26.89 47.8059 26.89ZM61.9405 22.04V23.75H58.7105V22.04H57.9505V26.82H62.7005V24.71H64.6805V28.49H65.4405V21.83H64.6805V24.03H62.7005V22.04H61.9405ZM65.6905 30.65V29.99H59.5905V27.79H58.8305V30.65H65.6905ZM58.7105 26.16V24.41H61.9405V26.16H58.7105ZM69.2039 22.31C67.8639 22.31 66.7339 23.48 66.7339 25.27C66.7339 27.07 67.8639 28.24 69.2039 28.24C70.2239 28.24 71.0739 27.58 71.4739 26.5C71.5739 26.22 71.6339 25.91 71.6639 25.58H72.6939V30.51H73.4439V21.92H72.6939V24.9H71.6539C71.6239 24.6 71.5639 24.32 71.4739 24.06C71.0739 22.97 70.2239 22.31 69.2039 22.31ZM69.2039 27.57C68.2139 27.57 67.4839 26.7 67.4839 25.27C67.4839 23.84 68.2139 22.97 69.2039 22.97C70.1939 22.97 70.9239 23.84 70.9239 25.27C70.9239 26.7 70.1939 27.57 69.2039 27.57ZM75.1739 30.74V21.83H74.4139V30.74H75.1739Z" fill="#666666"/>
</svg>
