<svg width="79" height="32" viewBox="0 0 79 32" fill="none" xmlns="http://www.w3.org/2000/svg">
<path d="M12.586 6.568C10.71 5.952 9.086 5.112 7.91 3.908C7.728 3.726 7.56 3.53 7.406 3.32C7.77 2.564 7.966 1.738 7.994 0.827999H6.062C5.908 3.74 3.654 5.672 0.518 6.638L1.596 8.024C3.122 7.506 4.718 6.61 5.908 5.42C6.132 5.196 6.342 4.958 6.538 4.706L6.888 5.07C8.162 6.4 9.898 7.464 11.578 7.996L12.586 6.568ZM12.768 12.154V10.558H7.56V7.324H5.656V10.558H0.448V12.154H12.768ZM19.4227 0.897999V4.23H16.3847V0.897999H14.5087V10.782H21.2987V0.897999H19.4227ZM25.1907 13.078V0.533999H23.3147V13.078H25.1907ZM16.3847 9.186V5.798H19.4227V9.186H16.3847ZM40.5832 0.589999V1.934H34.7032V0.589999H32.8272V6.134H42.4592V0.589999H40.5832ZM38.7352 10.558V8.626H43.8032V7.058H31.4832V8.626H36.8312V10.558H38.7352ZM32.8832 9.214V12.938H42.9492V11.342H34.7592V9.214H32.8832ZM34.7032 4.58V3.39H40.5832V4.58H34.7032ZM53.4959 6.064C52.1799 5.532 50.9899 4.804 50.1639 3.698C50.0659 3.572 49.9819 3.432 49.8979 3.292L49.9819 3.04C50.2479 2.312 50.3879 1.542 50.4019 0.729999H48.4979C48.3719 3.25 47.0699 5.35 44.3959 6.512L45.5719 7.856C46.8739 7.226 48.0919 6.26 48.9459 5.042L49.0859 4.832C49.3939 5.238 49.7299 5.602 50.0799 5.924C50.8079 6.596 51.6199 7.142 52.4459 7.492L53.4959 6.064ZM56.3799 13.134V8.416H46.3559V10.012H54.5039V13.134H56.3799ZM51.9279 4.216H54.5319V7.856H56.4079V0.533999H54.5319V2.648H51.9279V4.216Z" fill="#242D3C"/>
<path d="M7.85 30.75V25.71H9.3V25.03H7.85V21.83H7.09V30.75H7.85ZM0.83 22.11V29.08L6.55 28.77V28.11L1.59 28.34V22.11H0.83ZM17.9534 30.75V21.83H17.1934V30.75H17.9534ZM16.7934 29.21V28.55L9.97336 28.63V29.31L16.7934 29.21ZM13.2234 22.05C11.6234 22.05 10.5234 23.26 10.5234 24.57C10.5234 25.88 11.6234 27.09 13.2234 27.09C14.8234 27.09 15.9234 25.88 15.9234 24.57C15.9234 23.26 14.8234 22.05 13.2234 22.05ZM13.2234 26.43C12.0434 26.43 11.2834 25.53 11.2834 24.57C11.2834 23.61 12.0434 22.71 13.2234 22.71C14.4034 22.71 15.1634 23.61 15.1634 24.57C15.1634 25.53 14.4034 26.43 13.2234 26.43ZM31.038 26.5C30.148 26.2 29.368 25.79 28.698 25.28C28.068 24.8 27.568 24.26 27.178 23.65C27.398 23.16 27.518 22.63 27.538 22.06H26.738C26.628 24.19 24.918 25.82 22.678 26.54L23.108 27.09C24.218 26.7 25.318 26.05 26.128 25.2C26.398 24.92 26.628 24.62 26.838 24.29C26.998 24.53 27.178 24.76 27.388 24.99C28.268 25.93 29.428 26.68 30.608 27.1L31.038 26.5ZM22.508 29.25V29.91H31.268V29.25H27.278V26.66H26.498V29.25H22.508ZM36.4213 22.11V24.71H33.3513V22.11H32.5913V29.07H37.1813V22.11H36.4213ZM33.3513 28.41V25.37H36.4213V28.41H33.3513ZM39.9613 30.75V21.83H39.2013V30.75H39.9613ZM50.8559 30.5V25.86H52.1459V30.74H52.9059V21.83H52.1459V25.18H50.8559V21.93H50.1059V30.5H50.8559ZM44.7359 29.16L49.7059 28.9V28.25L48.7359 28.29L48.8259 23.53H48.0659L47.9859 28.33L46.5559 28.39L46.4859 23.53H45.7259L45.8059 28.42L44.7359 28.46V29.16ZM49.4859 22.93V22.27H44.9159V22.93H49.4859ZM59.0193 24.27H55.4793V22.72H59.2193V22.06H54.7193V27.23L60.4893 26.97V26.32L55.4793 26.51V24.91H59.0193V24.27ZM62.1593 28.51V21.83H61.3993V24.05H59.5693V24.69H61.3993V28.51H62.1593ZM62.4093 30.65V29.99H56.3093V27.99H55.5493V30.65H62.4093ZM63.5627 26.71V27.37H72.3227V26.71H63.5627ZM71.6727 30.65V29.99H65.3027V28.11H64.5427V30.65H71.6727ZM67.9427 21.53C66.2827 21.53 65.0027 22.42 65.0027 23.71C65.0027 25 66.2827 25.89 67.9427 25.89C69.6027 25.89 70.8827 25 70.8827 23.71C70.8827 22.42 69.6027 21.53 67.9427 21.53ZM67.9427 25.25C66.7227 25.25 65.7627 24.63 65.7627 23.71C65.7627 22.79 66.7227 22.17 67.9427 22.17C69.1627 22.17 70.1227 22.79 70.1227 23.71C70.1227 24.63 69.1627 25.25 67.9427 25.25ZM77.756 24.16C77.756 22.95 76.856 21.85 75.166 21.85C74.156 21.85 73.256 22.58 72.886 23.38L73.426 23.73C73.776 23.03 74.456 22.47 75.166 22.47C76.296 22.47 77.016 23.2 77.016 24.16C77.016 25.23 76.156 26.06 74.726 26.47V28.53H75.466V26.87C76.626 26.47 77.756 25.56 77.756 24.16ZM74.636 29.34H75.596V30.3H74.636V29.34Z" fill="#666666"/>
</svg>
