<svg width="112" height="15" viewBox="0 0 112 15" fill="none" xmlns="http://www.w3.org/2000/svg">
<path d="M7.94448 4.37C7.94448 2.55 6.47448 1.094 4.13648 1.094C2.45648 1.094 1.11248 2.2 0.370484 3.698L1.72848 4.594C2.28848 3.488 3.18448 2.634 4.13648 2.634C5.34048 2.634 6.12448 3.404 6.12448 4.37C6.12448 5.434 5.39648 6.162 4.68248 6.834L0.412484 10.81V12H8.19649V10.46H3.12848L5.81648 8.024C6.82448 7.128 7.94448 5.994 7.94448 4.37ZM10.2923 1.374L9.38233 6.68L10.6003 7.198C10.9363 6.764 11.6923 6.344 12.6863 6.344C14.0863 6.344 14.7583 7.268 14.7583 8.556C14.7583 9.844 13.9043 10.726 12.5603 10.726C11.3983 10.726 10.5863 9.914 9.98433 8.808L8.64033 9.774C9.42433 11.258 10.8803 12.266 12.5603 12.266C15.0943 12.266 16.5783 10.726 16.5783 8.556C16.5783 6.47 15.2623 4.804 12.6863 4.804C12.2243 4.804 11.8043 4.888 11.4263 5.042L11.7903 2.914H16.1723V1.374H10.2923ZM19.0242 10.95H17.0642V12.91H17.8482C17.8062 13.344 17.6662 13.736 17.2182 14.03L17.8342 14.632C18.5622 14.086 19.0242 13.372 19.0242 12.574V10.95ZM20.0362 6.68C20.0362 10.152 22.2062 12.266 24.6142 12.266C27.0222 12.266 29.1922 10.152 29.1922 6.68C29.1922 3.208 27.0222 1.094 24.6142 1.094C22.2062 1.094 20.0362 3.208 20.0362 6.68ZM27.3722 6.68C27.3722 9.2 26.0282 10.726 24.6142 10.726C23.2002 10.726 21.8562 9.2 21.8562 6.68C21.8562 4.16 23.2002 2.634 24.6142 2.634C26.0282 2.634 27.3722 4.16 27.3722 6.68ZM30.1124 6.68C30.1124 10.152 32.2824 12.266 34.6904 12.266C37.0984 12.266 39.2684 10.152 39.2684 6.68C39.2684 3.208 37.0984 1.094 34.6904 1.094C32.2824 1.094 30.1124 3.208 30.1124 6.68ZM37.4484 6.68C37.4484 9.2 36.1044 10.726 34.6904 10.726C33.2764 10.726 31.9324 9.2 31.9324 6.68C31.9324 4.16 33.2764 2.634 34.6904 2.634C36.1044 2.634 37.4484 4.16 37.4484 6.68ZM40.1886 6.68C40.1886 10.152 42.3586 12.266 44.7666 12.266C47.1746 12.266 49.3446 10.152 49.3446 6.68C49.3446 3.208 47.1746 1.094 44.7666 1.094C42.3586 1.094 40.1886 3.208 40.1886 6.68ZM47.5246 6.68C47.5246 9.2 46.1806 10.726 44.7666 10.726C43.3526 10.726 42.0086 9.2 42.0086 6.68C42.0086 4.16 43.3526 2.634 44.7666 2.634C46.1806 2.634 47.5246 4.16 47.5246 6.68ZM52.0007 10.95H50.0407V12.91H50.8247C50.7827 13.344 50.6427 13.736 50.1947 14.03L50.8107 14.632C51.5387 14.086 52.0007 13.372 52.0007 12.574V10.95ZM53.0128 6.68C53.0128 10.152 55.1828 12.266 57.5908 12.266C59.9988 12.266 62.1688 10.152 62.1688 6.68C62.1688 3.208 59.9988 1.094 57.5908 1.094C55.1828 1.094 53.0128 3.208 53.0128 6.68ZM60.3488 6.68C60.3488 9.2 59.0048 10.726 57.5908 10.726C56.1768 10.726 54.8328 9.2 54.8328 6.68C54.8328 4.16 56.1768 2.634 57.5908 2.634C59.0048 2.634 60.3488 4.16 60.3488 6.68ZM63.089 6.68C63.089 10.152 65.259 12.266 67.667 12.266C70.075 12.266 72.245 10.152 72.245 6.68C72.245 3.208 70.075 1.094 67.667 1.094C65.259 1.094 63.089 3.208 63.089 6.68ZM70.425 6.68C70.425 9.2 69.081 10.726 67.667 10.726C66.253 10.726 64.909 9.2 64.909 6.68C64.909 4.16 66.253 2.634 67.667 2.634C69.081 2.634 70.425 4.16 70.425 6.68ZM73.1651 6.68C73.1651 10.152 75.3351 12.266 77.7431 12.266C80.1511 12.266 82.3211 10.152 82.3211 6.68C82.3211 3.208 80.1511 1.094 77.7431 1.094C75.3351 1.094 73.1651 3.208 73.1651 6.68ZM80.5011 6.68C80.5011 9.2 79.1571 10.726 77.7431 10.726C76.3291 10.726 74.9851 9.2 74.9851 6.68C74.9851 4.16 76.3291 2.634 77.7431 2.634C79.1571 2.634 80.5011 4.16 80.5011 6.68ZM87.9173 0.197999C85.8453 0.197999 84.3053 1.304 84.3053 2.956C84.3053 4.608 85.8453 5.714 87.9173 5.714C89.9893 5.714 91.5293 4.608 91.5293 2.956C91.5293 1.304 89.9893 0.197999 87.9173 0.197999ZM90.3813 9.55H93.1813V10.264H95.0573V0.533999H93.1813V8.122H90.3813V9.55ZM85.2153 9.55V12.84H95.3093V11.244H87.0913V9.55H85.2153ZM88.7853 9.256V7.646L92.6073 7.59V6.106L83.4373 6.218V7.73L86.8813 7.674V9.256H88.7853ZM87.9173 4.202C86.8673 4.202 86.1813 3.698 86.1813 2.956C86.1813 2.214 86.8673 1.71 87.9173 1.71C88.9393 1.71 89.6533 2.214 89.6533 2.956C89.6533 3.698 88.9393 4.202 87.9173 4.202Z" fill="#242D3C"/>
<path d="M106 2L111 7L106 12" stroke="#242D3C" stroke-width="1.5" stroke-linecap="round" stroke-linejoin="round"/>
</svg>
