<svg width="115" height="14" viewBox="0 0 115 14" fill="none" xmlns="http://www.w3.org/2000/svg">
<path d="M12.012 7.436V0.533999H10.136V7.436H12.012ZM2.38 7.996V12.994H11.984V7.996H2.38ZM4.256 9.564H10.108V11.398H4.256V9.564ZM1.344 2.508H6.104C5.656 4.244 3.542 5.616 0.518 6.218L1.4 7.674C4.774 6.96 8.19 4.86 8.148 0.94H1.344V2.508ZM24.7847 3.6H16.8887V2.27H24.6447V0.729999H15.0127V5.154H18.9467V6.022H13.6687V7.562H25.9887V6.022H20.8507V5.154H24.7847V3.6ZM19.8847 7.982C17.4347 7.982 15.6987 9.116 15.6987 10.852C15.6987 12.588 17.4347 13.722 19.8847 13.722C22.3347 13.722 24.0707 12.588 24.0707 10.852C24.0707 9.116 22.3347 7.982 19.8847 7.982ZM19.8847 12.21C18.3727 12.21 17.5747 11.678 17.5747 10.852C17.5747 10.026 18.3727 9.494 19.8847 9.494C21.3967 9.494 22.1947 10.026 22.1947 10.852C22.1947 11.678 21.3967 12.21 19.8847 12.21ZM31.3414 3.866C29.1714 3.866 27.8554 4.804 27.8554 6.19C27.8554 7.576 29.1714 8.514 31.3414 8.514C33.4974 8.514 34.8274 7.576 34.8274 6.19C34.8274 4.804 33.4974 3.866 31.3414 3.866ZM35.1774 5.462H36.8574V6.316H35.1774V7.856H36.8574V9.984H38.7334V0.533999H36.8574V3.922H35.1774V5.462ZM29.1154 9.186V12.938H39.0834V11.342H30.9914V9.186H29.1154ZM35.4854 3.572V2.144H27.0854V3.572H35.4854ZM33.6654 1.668V0.24H28.9054V1.668H33.6654ZM31.3414 7.142C30.2214 7.142 29.7034 6.764 29.7034 6.19C29.7034 5.616 30.2214 5.238 31.3414 5.238C32.4614 5.238 32.9794 5.616 32.9794 6.19C32.9794 6.764 32.4614 7.142 31.3414 7.142ZM45.4879 0.8V6.904L53.8319 6.526V4.958L47.3639 5.168V0.8H45.4879ZM56.2679 7.436V0.533999H54.3919V7.436H56.2679ZM46.6359 7.996V12.994H56.2399V7.996H46.6359ZM48.5119 9.564H54.3639V11.398H48.5119V9.564ZM69.6706 13.078V0.533999H67.7946V13.078H69.6706ZM67.3746 11.174V9.606L58.1346 9.718V11.314L67.3746 11.174ZM62.6566 0.814C60.3466 0.814 58.7646 2.578 58.7646 4.482C58.7646 6.386 60.3466 8.15 62.6566 8.15C64.9666 8.15 66.5486 6.386 66.5486 4.482C66.5486 2.578 64.9666 0.814 62.6566 0.814ZM62.6566 6.554C61.4246 6.554 60.6406 5.546 60.6406 4.482C60.6406 3.418 61.4246 2.41 62.6566 2.41C63.8886 2.41 64.6726 3.418 64.6726 4.482C64.6726 5.546 63.8886 6.554 62.6566 6.554ZM82.991 10.53V8.346H88.059V6.778H75.739V8.346H81.087V10.53H82.991ZM87.681 4.44C85.917 4.16 84.433 3.74 83.327 2.914C83.117 2.76 82.935 2.606 82.767 2.424C83.061 1.85 83.229 1.22 83.257 0.519999H81.325C81.213 2.802 79.071 4.034 76.103 4.524L76.943 5.966C78.385 5.742 79.939 5.196 81.129 4.3C81.395 4.09 81.647 3.88 81.871 3.642C82.067 3.838 82.277 4.02 82.515 4.202C83.733 5.126 85.287 5.7 86.813 5.868L87.681 4.44ZM77.139 9.074V12.938H87.205V11.342H79.015V9.074H77.139ZM89.6037 11.356C90.3597 10.782 91.0317 10.138 91.6337 9.41C92.1517 8.78 92.6137 8.108 92.9917 7.38L93.0757 7.534C93.9717 8.948 95.2177 10.25 96.4777 11.062L97.6117 9.69C95.8617 8.696 94.5737 7.31 93.7757 5.532C93.9017 5.126 94.0137 4.72 94.1117 4.286C94.2377 3.754 94.3217 3.208 94.3777 2.634H97.2057V1.038H89.1837V2.634H92.4597C92.4177 3.068 92.3477 3.502 92.2637 3.922C91.7597 6.512 90.4857 8.654 88.3437 10.054L89.6037 11.356ZM99.9217 13.078V6.624H101.7V5H99.9217V0.533999H98.0457V13.078H99.9217ZM110.832 6.344C109.922 5.994 109.124 5.518 108.41 4.93C107.92 4.524 107.528 4.034 107.206 3.46C107.248 3.362 107.276 3.25 107.318 3.138C107.584 2.368 107.724 1.57 107.738 0.729999H105.834C105.722 3.376 104.406 5.644 101.732 6.792L102.908 8.136C104.238 7.506 105.428 6.498 106.282 5.224L106.422 5.028C107.318 6.26 108.522 7.24 109.782 7.772L110.832 6.344ZM104.014 8.654V12.938H113.842V11.342H105.89V8.654H104.014ZM113.436 9.732V5.07H114.92V3.446H113.436V0.533999H111.56V9.732H113.436Z" fill="#999999"/>
</svg>
