<svg width="100" height="24" viewBox="0 0 100 24" fill="none" xmlns="http://www.w3.org/2000/svg">
<path d="M36.88 19.232V11.536H38.912V9.68H36.88V4.896H34.736V19.232H36.88ZM32.912 16.544V5.472H25.152V16.544H32.912ZM27.296 7.296H30.768V14.72H27.296V7.296ZM49.2054 10.432C49.2054 7.552 47.2054 5.536 44.5654 5.536C41.9254 5.536 39.9254 7.552 39.9254 10.432C39.9254 13.312 41.9254 15.328 44.5654 15.328C47.2054 15.328 49.2054 13.312 49.2054 10.432ZM47.0614 10.432C47.0614 12.288 46.0374 13.504 44.5654 13.504C43.0934 13.504 42.0694 12.288 42.0694 10.432C42.0694 8.576 43.0934 7.36 44.5654 7.36C46.0374 7.36 47.0614 8.576 47.0614 10.432ZM52.9494 19.232V4.896H50.8054V19.232H52.9494ZM55.5948 5.568V16.704L62.4108 16.32V14.528L57.7068 14.72V7.392H61.7388V5.568H55.5948ZM60.0588 11.696H63.1308V18.864H65.2108V5.056H63.1308V9.84H60.0588V11.696ZM68.2508 19.216V4.896H66.1388V19.216H68.2508ZM79.4241 10.432C79.4241 7.552 77.4241 5.536 74.7841 5.536C72.1441 5.536 70.1441 7.552 70.1441 10.432C70.1441 13.312 72.1441 15.328 74.7841 15.328C77.4241 15.328 79.4241 13.312 79.4241 10.432ZM77.2801 10.432C77.2801 12.288 76.2561 13.504 74.7841 13.504C73.3121 13.504 72.2881 12.288 72.2881 10.432C72.2881 8.576 73.3121 7.36 74.7841 7.36C76.2561 7.36 77.2801 8.576 77.2801 10.432ZM83.1681 19.232V4.896H81.0241V19.232H83.1681ZM92.9495 10.08H88.0535V7.184H93.6535V5.36H85.9095V16.96L94.8535 16.464V14.672L88.0535 14.976V11.888H92.9495V10.08ZM93.7655 11.68H95.9735V19.232H98.1175V4.896H95.9735V9.824H93.7655V11.68Z" fill="#242D3C"/>
<path d="M7 18L1 12L7 6" stroke="#242D3C" stroke-width="1.5" stroke-linecap="round" stroke-linejoin="round"/>
</svg>
