<svg width="43" height="14" viewBox="0 0 43 14" fill="none" xmlns="http://www.w3.org/2000/svg">
<path d="M2.092 11.356C2.848 10.782 3.52 10.138 4.122 9.41C4.64 8.78 5.102 8.108 5.48 7.38L5.564 7.534C6.46 8.948 7.706 10.25 8.966 11.062L10.1 9.69C8.35 8.696 7.062 7.31 6.264 5.532C6.39 5.126 6.502 4.72 6.6 4.286C6.726 3.754 6.81 3.208 6.866 2.634H9.694V1.038H1.672V2.634H4.948C4.906 3.068 4.836 3.502 4.752 3.922C4.248 6.512 2.974 8.654 0.832 10.054L2.092 11.356ZM12.41 13.078V6.624H14.188V5H12.41V0.533999H10.534V13.078H12.41ZM23.3207 6.344C22.4107 5.994 21.6127 5.518 20.8987 4.93C20.4087 4.524 20.0167 4.034 19.6947 3.46C19.7367 3.362 19.7647 3.25 19.8067 3.138C20.0727 2.368 20.2127 1.57 20.2267 0.729999H18.3227C18.2107 3.376 16.8947 5.644 14.2207 6.792L15.3967 8.136C16.7267 7.506 17.9167 6.498 18.7707 5.224L18.9107 5.028C19.8067 6.26 21.0107 7.24 22.2707 7.772L23.3207 6.344ZM16.5027 8.654V12.938H26.3307V11.342H18.3787V8.654H16.5027ZM25.9247 9.732V5.07H27.4087V3.446H25.9247V0.533999H24.0487V9.732H25.9247Z" fill="#242D3C"/>
<path d="M35.806 1.374L34.896 6.68L36.114 7.198C36.45 6.764 37.206 6.344 38.2 6.344C39.6 6.344 40.272 7.268 40.272 8.556C40.272 9.844 39.418 10.726 38.074 10.726C36.912 10.726 36.1 9.914 35.498 8.808L34.154 9.774C34.938 11.258 36.394 12.266 38.074 12.266C40.608 12.266 42.092 10.726 42.092 8.556C42.092 6.47 40.776 4.804 38.2 4.804C37.738 4.804 37.318 4.888 36.94 5.042L37.304 2.914H41.686V1.374H35.806Z" fill="#D7191F"/>
</svg>
