<svg width="56" height="16" viewBox="0 0 56 16" fill="none" xmlns="http://www.w3.org/2000/svg">
<path d="M12.544 15.2V0.832H11.232V15.2H12.544ZM1.36 7.872L1.968 8.896C3.696 8.336 5.008 7.248 5.632 5.712C6.288 7.136 7.568 8.224 9.296 8.736L9.904 7.728C7.792 7.088 6.32 5.6 6.272 3.76H9.584V2.704H6.272V0.943999H4.96V2.704H1.696V3.76H4.96C4.912 5.632 3.488 7.232 1.36 7.872ZM6.272 11.024V8.416H4.96V11.088C3.488 11.136 2.144 11.136 0.928 11.136L1.104 12.24C3.664 12.24 7.184 12.208 10.4 11.616L10.288 10.64C9.008 10.848 7.616 10.944 6.272 11.024ZM16.1428 3.344H24.8948V3.696C24.8948 5.408 24.9108 7.456 24.3507 10.192L25.6628 10.336C26.2228 7.44 26.2067 5.488 26.2067 3.696V2.272H16.1428V3.344ZM27.7588 13.168V12.096H21.1348V6.96H19.8228V12.096H14.7827V13.168H27.7588ZM28.7335 3.648H37.1975V2.592H33.6135V0.848H32.3015V2.592H28.7335V3.648ZM41.9495 6.672V5.568H39.8215V0.848H38.5095V11.6H39.8215V6.672H41.9495ZM36.3975 7.104C36.3975 5.504 35.0055 4.448 32.9575 4.448C30.9255 4.448 29.5335 5.504 29.5335 7.104C29.5335 8.72 30.9255 9.776 32.9575 9.776C35.0055 9.776 36.3975 8.72 36.3975 7.104ZM30.7815 7.104C30.7815 6.08 31.6135 5.472 32.9575 5.472C34.2535 5.472 35.1495 6.08 35.1495 7.104C35.1495 8.128 34.2535 8.752 32.9575 8.752C31.6135 8.752 30.7815 8.128 30.7815 7.104ZM40.4615 13.792H32.2055V10.752H30.8935V14.864H40.4615V13.792ZM55.6282 13.376V12.288H49.7562V8.608H54.1242V7.552H45.5642V3.056H53.9802V1.984H44.2522V8.608H48.4282V12.288H42.5882V13.376H55.6282Z" fill="black"/>
</svg>
