<svg width="232" height="70" viewBox="0 0 232 70" fill="none" xmlns="http://www.w3.org/2000/svg">
<path d="M21.346 3.498H18.798V12.78H16.016V3.992H13.494V25.832H16.016V14.964H18.798V26.976H21.346V3.498ZM4.732 19.202V8.49H10.79V6.306H2.106V21.412H3.666C4.498 21.412 5.278 21.4033 6.006 21.386C6.734 21.3687 7.436 21.3427 8.112 21.308C8.80533 21.256 9.48133 21.1867 10.14 21.1C10.816 21.0133 11.5093 20.9007 12.22 20.762L11.986 18.552C10.7727 18.7947 9.594 18.9593 8.45 19.046C7.32333 19.1327 6.084 19.1847 4.732 19.202ZM24.932 10.882L25.712 12.884C27.8093 12.7453 29.612 12.39 31.12 11.818C32.6453 11.246 33.7806 10.466 34.526 9.478C35.2713 10.466 36.4066 11.246 37.932 11.818C39.4746 12.39 41.2946 12.7453 43.392 12.884L44.12 10.882C41.7453 10.7433 39.882 10.3793 38.53 9.79C37.178 9.18333 36.372 8.412 36.112 7.476H43.054V5.474H35.878V3.42H33.2V5.474H26.05V7.476H32.966C32.706 8.412 31.9 9.18333 30.548 9.79C29.196 10.3793 27.324 10.7433 24.932 10.882ZM35.878 15.744H45.16V13.742H23.97V15.744H33.2V17.564H26.44V19.54H39.882V21.178H26.492V26.794H43.184V24.792H29.144V23.024H42.508V17.564H35.878V15.744ZM68.2199 9.322H64.8919V3.498H62.2139V17.616H64.8919V11.532H68.2199V9.322ZM58.8079 16.368L60.2119 14.262C59.3453 13.9673 58.5653 13.5773 57.8719 13.092C57.1959 12.6067 56.6239 12.0607 56.1559 11.454C55.6879 10.83 55.3326 10.1627 55.0899 9.452C54.8473 8.74133 54.7259 8.00467 54.7259 7.242V4.72H52.0219V7.034C52.0219 7.88333 51.9006 8.71533 51.6579 9.53C51.4153 10.3273 51.0513 11.0727 50.5659 11.766C50.0806 12.4593 49.4826 13.0747 48.7719 13.612C48.0613 14.1493 47.2466 14.574 46.3279 14.886L47.7579 17.018C49.1099 16.5153 50.2626 15.7873 51.2159 14.834C52.1693 13.8807 52.9059 12.754 53.4259 11.454C53.9286 12.5633 54.6306 13.5513 55.5319 14.418C56.4506 15.2673 57.5426 15.9173 58.8079 16.368ZM57.3259 18.188C56.1126 18.188 55.0206 18.292 54.0499 18.5C53.0966 18.6907 52.2819 18.9767 51.6059 19.358C50.9299 19.722 50.4099 20.1813 50.0459 20.736C49.6819 21.2733 49.4999 21.8887 49.4999 22.582C49.4999 23.2753 49.6819 23.8993 50.0459 24.454C50.4099 24.9913 50.9299 25.4507 51.6059 25.832C52.2819 26.2133 53.0966 26.4993 54.0499 26.69C55.0206 26.898 56.1126 27.002 57.3259 27.002C58.5566 27.002 59.6486 26.898 60.6019 26.69C61.5726 26.4993 62.3959 26.2133 63.0719 25.832C63.7479 25.4507 64.2593 24.9913 64.6059 24.454C64.9699 23.8993 65.1519 23.2753 65.1519 22.582C65.1519 21.1953 64.4586 20.1207 63.0719 19.358C61.6853 18.578 59.7699 18.188 57.3259 18.188ZM57.3259 24.896C55.6446 24.896 54.3619 24.7053 53.4779 24.324C52.5939 23.9427 52.1519 23.362 52.1519 22.582C52.1519 21.854 52.5939 21.2907 53.4779 20.892C54.3619 20.4933 55.6446 20.294 57.3259 20.294C59.0073 20.294 60.2899 20.4933 61.1739 20.892C62.0579 21.2907 62.4999 21.854 62.4999 22.582C62.4999 23.362 62.0579 23.9427 61.1739 24.324C60.2899 24.7053 59.0073 24.896 57.3259 24.896ZM74.3799 6.358V10.674H71.1819V12.832H88.3159V10.674H85.1439V6.358H88.4459V4.2H71.0519V6.358H74.3799ZM82.4659 6.358V10.674H77.0579V6.358H82.4659ZM81.1139 16.862H90.3959V14.704H69.1539V16.862H78.4359V19.254H71.7019V26.716H87.8219V19.254H81.1139V16.862ZM85.1959 21.386V24.584H74.3539V21.386H85.1959ZM102.406 11.974C105.11 11.974 107.181 11.6273 108.62 10.934C110.059 10.2407 110.778 9.244 110.778 7.944C110.778 6.62667 110.059 5.62133 108.62 4.928C107.181 4.23467 105.11 3.888 102.406 3.888C99.6845 3.888 97.6045 4.23467 96.1659 4.928C94.7445 5.62133 94.0339 6.62667 94.0339 7.944C94.0339 9.244 94.7445 10.2407 96.1659 10.934C97.6045 11.6273 99.6845 11.974 102.406 11.974ZM102.406 5.89C104.243 5.89 105.63 6.06333 106.566 6.41C107.519 6.75667 107.996 7.268 107.996 7.944C107.996 8.60267 107.519 9.10533 106.566 9.452C105.63 9.79867 104.243 9.972 102.406 9.972C100.569 9.972 99.1732 9.79867 98.2199 9.452C97.2839 9.10533 96.8159 8.60267 96.8159 7.944C96.8159 7.268 97.2839 6.75667 98.2199 6.41C99.1732 6.06333 100.569 5.89 102.406 5.89ZM113.04 13.352H91.7719V15.484H113.04V13.352ZM96.9979 24.74V22.79H110.362V17.174H94.2939V19.202H107.736V20.892H94.3459V26.794H111.038V24.74H96.9979ZM138.248 3.498H135.544V27.054H138.248V3.498ZM122.83 5.448H120.178V21.464H131.462V5.448H128.784V11.428H122.83V5.448ZM122.83 19.306V13.56H128.784V19.306H122.83ZM157.876 7.892V8.178C157.876 9.59933 157.842 11.142 157.772 12.806C157.703 14.47 157.46 16.368 157.044 18.5L159.722 18.812C159.93 17.668 160.086 16.6107 160.19 15.64C160.312 14.6693 160.398 13.7593 160.45 12.91C160.502 12.0433 160.528 11.22 160.528 10.44C160.546 9.66 160.554 8.906 160.554 8.178V5.708H143.654V7.892H157.876ZM162.764 21.724H154.886V14.132H152.234V21.724H149.088V14.132H146.436V21.724H141.548V23.934H162.764V21.724ZM184.16 3.524H181.612V13.248H179.116V4.018H176.62V25.91H179.116V15.458H181.612V27.002H184.16V3.524ZM171.212 7.346V4.2H168.56V7.346H164.114V9.504H175.606V7.346H171.212ZM169.886 10.83C169.141 10.83 168.456 10.96 167.832 11.22C167.208 11.48 166.671 11.8527 166.22 12.338C165.77 12.8233 165.414 13.404 165.154 14.08C164.912 14.7387 164.79 15.4753 164.79 16.29C164.79 17.0873 164.912 17.824 165.154 18.5C165.414 19.176 165.77 19.7567 166.22 20.242C166.671 20.71 167.208 21.0827 167.832 21.36C168.456 21.62 169.141 21.75 169.886 21.75C170.632 21.75 171.316 21.62 171.94 21.36C172.564 21.0827 173.102 20.71 173.552 20.242C174.003 19.7567 174.35 19.176 174.592 18.5C174.852 17.824 174.982 17.0873 174.982 16.29C174.982 15.4753 174.852 14.7387 174.592 14.08C174.35 13.404 174.003 12.8233 173.552 12.338C173.102 11.8527 172.564 11.48 171.94 11.22C171.316 10.96 170.632 10.83 169.886 10.83ZM169.886 19.514C169.089 19.514 168.439 19.228 167.936 18.656C167.434 18.0667 167.182 17.278 167.182 16.29C167.182 15.302 167.434 14.5133 167.936 13.924C168.439 13.3347 169.089 13.04 169.886 13.04C170.684 13.04 171.334 13.3347 171.836 13.924C172.339 14.5133 172.59 15.302 172.59 16.29C172.59 17.278 172.339 18.0667 171.836 18.656C171.334 19.228 170.684 19.514 169.886 19.514ZM208.052 21.932H198.718V17.2H205.608V5.084H202.956V9.036H191.828V5.084H189.176V17.2H196.04V21.932H186.784V24.142H208.052V21.932ZM191.828 15.042V11.194H202.956V15.042H191.828ZM225.626 7.892V8.022C225.626 9.40867 225.583 10.9687 225.496 12.702C225.427 14.4353 225.167 16.4547 224.716 18.76L227.42 19.046C227.646 17.8327 227.819 16.7147 227.94 15.692C228.062 14.652 228.148 13.69 228.2 12.806C228.27 11.9047 228.304 11.064 228.304 10.284C228.322 9.504 228.33 8.75 228.33 8.022V5.708H211.612V7.892H225.626ZM230.618 21.724H220.01V13.456H217.306V21.724H209.402V23.934H230.618V21.724Z" fill="black"/>
<path d="M13.364 47.648H18.902V58.152H20.28V40.732H18.902V46.452H13.364V47.648ZM14.04 53.992L14.794 52.926C11.674 51.678 8.918 48.662 8.918 45.256V42.11H7.566V45.126C7.566 48.844 4.81 52.172 1.612 53.42L2.34 54.538C5.07 53.42 7.306 51.028 8.268 48.038C9.23 50.742 11.44 52.952 14.04 53.992ZM20.852 63.248V62.078H7.098V56.098H5.72V63.248H20.852ZM43.418 54.668V40.758H42.092V46.972H38.218V41.174H36.892V54.538H38.218V48.142H42.092V54.668H43.418ZM35.332 52.588L35.15 51.418C32.576 51.99 30.444 52.094 26.622 52.094H26.57V48.272H33.772V47.128H26.57V43.67H34.032V42.5H25.218V53.264H26.622C30.522 53.264 32.628 53.134 35.332 52.588ZM43.418 56.02H28.182V57.19H42.04V63.82H43.418V56.02ZM66.0879 63.82V40.732H64.7359V50.664H61.0699V41.304H59.7179V62.598H61.0699V51.834H64.7359V63.82H66.0879ZM58.3659 44.97H53.1919V41.434H51.8139V44.97H46.6659V46.14H58.3659V44.97ZM52.4899 47.986C49.6819 47.986 47.6019 50.092 47.6019 53.108C47.6019 56.15 49.6819 58.256 52.4899 58.256C55.3499 58.256 57.4039 56.15 57.4039 53.108C57.4039 50.092 55.3499 47.986 52.4899 47.986ZM52.4899 57.06C50.3839 57.06 48.8499 55.344 48.8499 53.108C48.8499 50.924 50.3839 49.156 52.4899 49.156C54.6479 49.156 56.1559 50.924 56.1559 53.108C56.1559 55.344 54.6479 57.06 52.4899 57.06ZM70.6879 50.664L71.2339 51.808C74.4839 51.184 78.3839 49.078 79.7619 46.114C81.0619 49.078 85.0659 51.184 88.2639 51.808L88.8099 50.664C85.3779 50.118 80.4899 47.414 80.4899 43.982V43.462H88.1339V42.292H71.3379V43.462H79.0079V43.982C79.0079 47.388 74.1199 50.118 70.6879 50.664ZM80.4119 55.266H90.1879L90.2139 54.122H69.3099V55.266H79.0339V63.768H80.4119V55.266ZM111.454 63.82V40.732H110.128V63.82H111.454ZM106.722 41.304H105.396V49.312H101.054V50.482H105.396V62.598H106.722V41.304ZM98.4279 47.7V42.994H97.1279V47.726C97.1279 51.678 94.8139 55.838 91.7719 57.58L92.6819 58.62C95.0739 57.164 96.9719 54.382 97.8039 51.054C98.6359 54.096 100.456 56.748 102.744 58.126L103.628 57.06C100.638 55.318 98.4279 51.314 98.4279 47.7ZM135.502 60.7V59.53H130.016V52.874C132.018 51.86 133.24 50.248 133.24 48.168C133.24 44.632 129.834 42.396 124.972 42.396C120.162 42.396 116.73 44.632 116.73 48.168C116.73 50.248 117.926 51.886 120.006 52.9V59.53H114.546V60.7H135.502ZM118.03 48.168C118.03 45.386 120.994 43.514 124.972 43.514C129.002 43.514 131.94 45.386 131.94 48.168C131.94 50.898 129.002 52.796 124.972 52.796C120.994 52.796 118.03 50.898 118.03 48.168ZM128.638 59.53H121.384V53.42C122.45 53.732 123.646 53.914 124.972 53.914C126.324 53.914 127.572 53.732 128.638 53.42V59.53Z" fill="black"/>
</svg>
