<svg width="25" height="11" viewBox="0 0 25 11" fill="none" xmlns="http://www.w3.org/2000/svg">
<path d="M0.0599063 2.84574L0.887906 3.97374L2.26791 2.79774V9.78174H3.82791V0.661738H2.60391L0.0599063 2.84574ZM9.94772 10.0097C12.0957 10.0097 13.5237 8.78574 13.5237 7.17774C13.5237 6.03774 12.7437 5.24574 11.9757 4.86174C12.5877 4.48974 12.9837 3.85374 12.9837 2.98974C12.9837 1.63374 11.9157 0.433738 9.94772 0.433738C7.97972 0.433738 6.91172 1.63374 6.91172 2.98974C6.91172 3.85374 7.30772 4.48974 7.91972 4.86174C7.15172 5.24574 6.37172 6.03774 6.37172 7.17774C6.37172 8.78574 7.79972 10.0097 9.94772 10.0097ZM9.94772 8.68974C8.60372 8.68974 7.93172 8.04174 7.93172 7.17774C7.93172 6.31374 8.69972 5.59374 9.94772 5.59374C11.1957 5.59374 11.9637 6.31374 11.9637 7.17774C11.9637 8.04174 11.2917 8.68974 9.94772 8.68974ZM8.47172 2.98974C8.47172 2.25774 8.98772 1.75374 9.94772 1.75374C10.9077 1.75374 11.4237 2.25774 11.4237 2.98974C11.4237 3.66174 10.8597 4.28574 9.94772 4.28574C9.03572 4.28574 8.47172 3.66174 8.47172 2.98974ZM18.9387 8.53374H19.9467L22.1907 4.40574L22.4787 3.79374L22.4547 4.40574V9.78174H24.0387V0.661738H22.5387L19.6827 5.94174L19.4427 6.46974L19.2027 5.94174L16.3467 0.661738H14.8467V9.78174H16.4307V4.40574L16.4067 3.79374L16.6947 4.40574L18.9387 8.53374Z" fill="#242D3C"/>
</svg>
