<svg width="26" height="11" viewBox="0 0 26 11" fill="none" xmlns="http://www.w3.org/2000/svg">
<path d="M4.9822 6.16974H2.4622L4.9822 3.18174V6.16974ZM0.338203 7.48974H4.9822V9.78174H6.5422V7.48974H7.8622V6.16974H6.5422V0.661738H5.2822L0.338203 6.48174V7.48974ZM11.7934 10.0097C13.9414 10.0097 15.3694 8.78574 15.3694 7.17774C15.3694 6.03774 14.5894 5.24574 13.8214 4.86174C14.4334 4.48974 14.8294 3.85374 14.8294 2.98974C14.8294 1.63374 13.7614 0.433738 11.7934 0.433738C9.82542 0.433738 8.75742 1.63374 8.75742 2.98974C8.75742 3.85374 9.15342 4.48974 9.76542 4.86174C8.99742 5.24574 8.21742 6.03774 8.21742 7.17774C8.21742 8.78574 9.64542 10.0097 11.7934 10.0097ZM11.7934 8.68974C10.4494 8.68974 9.77742 8.04174 9.77742 7.17774C9.77742 6.31374 10.5454 5.59374 11.7934 5.59374C13.0414 5.59374 13.8094 6.31374 13.8094 7.17774C13.8094 8.04174 13.1374 8.68974 11.7934 8.68974ZM10.3174 2.98974C10.3174 2.25774 10.8334 1.75374 11.7934 1.75374C12.7534 1.75374 13.2694 2.25774 13.2694 2.98974C13.2694 3.66174 12.7054 4.28574 11.7934 4.28574C10.8814 4.28574 10.3174 3.66174 10.3174 2.98974ZM20.7844 8.53374H21.7924L24.0364 4.40574L24.3244 3.79374L24.3004 4.40574V9.78174H25.8844V0.661738H24.3844L21.5284 5.94174L21.2884 6.46974L21.0484 5.94174L18.1924 0.661738H16.6924V9.78174H18.2764V4.40574L18.2524 3.79374L18.5404 4.40574L20.7844 8.53374Z" fill="#242D3C"/>
</svg>
