<svg width="59" height="16" viewBox="0 0 59 16" fill="none" xmlns="http://www.w3.org/2000/svg">
<path d="M12.72 11.312V0.799999H11.072V11.312H12.72ZM8.896 9.376L9.728 8.08C9.17333 7.89867 8.67733 7.65867 8.24 7.36C7.80267 7.06133 7.42933 6.72533 7.12 6.352C6.82133 5.968 6.592 5.55733 6.432 5.12C6.272 4.672 6.192 4.21867 6.192 3.76V3.232H9.28V1.904H1.376V3.232H4.512V3.76C4.512 4.24 4.432 4.71467 4.272 5.184C4.112 5.65333 3.87733 6.09067 3.568 6.496C3.26933 6.90133 2.896 7.264 2.448 7.584C2.01067 7.904 1.504 8.16 0.928 8.352L1.792 9.632C2.656 9.344 3.38667 8.90667 3.984 8.32C4.592 7.73333 5.056 7.056 5.376 6.288C5.696 7.00267 6.15467 7.62667 6.752 8.16C7.34933 8.69333 8.064 9.09867 8.896 9.376ZM13.136 13.616H4.944V10.352H3.28V14.96H13.136V13.616ZM24.6868 9.408V5.904H26.1908V9.888H27.7588V0.768H26.1908V4.544H24.6868V1.04H23.1508V9.408H24.6868ZM22.6548 3.696V2.4H19.8708V0.912H18.2548V2.4H15.4548V3.696H22.6548ZM22.1748 6.816C22.1748 6.44267 22.0948 6.10667 21.9348 5.808C21.7854 5.49867 21.5721 5.23733 21.2948 5.024C21.0281 4.8 20.7028 4.62933 20.3188 4.512C19.9454 4.384 19.5294 4.32 19.0708 4.32C18.6228 4.32 18.2068 4.384 17.8228 4.512C17.4494 4.62933 17.1241 4.8 16.8468 5.024C16.5801 5.23733 16.3668 5.49867 16.2068 5.808C16.0574 6.10667 15.9828 6.44267 15.9828 6.816C15.9828 7.18933 16.0574 7.53067 16.2068 7.84C16.3668 8.14933 16.5801 8.416 16.8468 8.64C17.1241 8.85333 17.4494 9.01867 17.8228 9.136C18.2068 9.25333 18.6228 9.312 19.0708 9.312C19.5294 9.312 19.9454 9.25333 20.3188 9.136C20.7028 9.01867 21.0281 8.85333 21.2948 8.64C21.5721 8.416 21.7854 8.14933 21.9348 7.84C22.0948 7.53067 22.1748 7.18933 22.1748 6.816ZM17.4548 6.816C17.4548 6.42133 17.5988 6.10667 17.8868 5.872C18.1854 5.63733 18.5801 5.52 19.0708 5.52C19.5508 5.52 19.9401 5.63733 20.2388 5.872C20.5481 6.10667 20.7028 6.42133 20.7028 6.816C20.7028 7.21067 20.5481 7.52533 20.2388 7.76C19.9401 7.99467 19.5508 8.112 19.0708 8.112C18.5801 8.112 18.1854 7.99467 17.8868 7.76C17.5988 7.52533 17.4548 7.21067 17.4548 6.816ZM22.9588 10.096C21.3801 10.096 20.1694 10.3147 19.3268 10.752C18.4841 11.1893 18.0628 11.824 18.0628 12.656C18.0628 13.488 18.4841 14.1227 19.3268 14.56C20.1694 15.008 21.3801 15.232 22.9588 15.232C24.5374 15.232 25.7428 15.008 26.5748 14.56C27.4174 14.1227 27.8388 13.488 27.8388 12.656C27.8388 11.824 27.4174 11.1893 26.5748 10.752C25.7428 10.3147 24.5374 10.096 22.9588 10.096ZM22.9588 13.984C21.9241 13.984 21.1241 13.8773 20.5588 13.664C19.9934 13.44 19.7108 13.104 19.7108 12.656C19.7108 12.208 19.9934 11.8773 20.5588 11.664C21.1241 11.4507 21.9241 11.344 22.9588 11.344C25.1134 11.344 26.1908 11.7813 26.1908 12.656C26.1908 13.5413 25.1134 13.984 22.9588 13.984ZM40.5575 3.888H38.0135V5.232H40.5575V8.192H42.2215V0.783999H40.5575V3.888ZM38.0135 8.112L38.7815 6.832C38.2588 6.66133 37.7842 6.43733 37.3575 6.16C36.9415 5.88267 36.5895 5.57333 36.3015 5.232C36.0135 4.89067 35.7895 4.52267 35.6295 4.128C35.4802 3.73333 35.4055 3.33333 35.4055 2.928V2.768H38.4295V1.44H30.7015V2.768H33.7415V2.912C33.7415 3.33867 33.6615 3.76533 33.5015 4.192C33.3415 4.61867 33.1068 5.024 32.7975 5.408C32.4988 5.78133 32.1308 6.12267 31.6935 6.432C31.2668 6.73067 30.7762 6.97067 30.2215 7.152L31.0215 8.432C31.8855 8.15467 32.6162 7.744 33.2135 7.2C33.8108 6.64533 34.2695 6 34.5895 5.264C34.8988 5.91467 35.3415 6.49067 35.9175 6.992C36.5042 7.48267 37.2028 7.856 38.0135 8.112ZM42.7015 13.792H34.4615V12.512H42.2215V8.848H32.8135V10.144H40.5895V11.296H32.8295V15.088H42.7015V13.792ZM58.4123 7.936V6.576H56.1563V0.768H54.5083V15.232H56.1563V7.936H58.4123ZM49.9643 5.376V4.544H53.0203V3.216H49.9643V1.072H48.3163V3.216H45.2122V4.544H48.3163V5.376C48.3163 5.96267 48.2309 6.54933 48.0603 7.136C47.9003 7.72267 47.6656 8.27733 47.3563 8.8C47.0576 9.312 46.6896 9.78133 46.2523 10.208C45.8149 10.624 45.3189 10.9653 44.7643 11.232L45.6763 12.496C46.5083 12.112 47.2176 11.5467 47.8043 10.8C48.3909 10.0533 48.8443 9.21067 49.1643 8.272C49.4629 9.14667 49.8896 9.936 50.4443 10.64C51.0096 11.3333 51.6816 11.8667 52.4603 12.24L53.3723 10.976C52.8389 10.72 52.3589 10.3893 51.9323 9.984C51.5163 9.568 51.1589 9.11467 50.8603 8.624C50.5723 8.12267 50.3483 7.59467 50.1883 7.04C50.0389 6.48533 49.9643 5.93067 49.9643 5.376Z" fill="black"/>
</svg>
