<svg width="29" height="16" viewBox="0 0 29 16" fill="none" xmlns="http://www.w3.org/2000/svg">
<path d="M0.552 1.224V13H2.408V7.928H6.76V6.376H2.408V2.776H7.528V1.224H0.552ZM14.351 9.64L15.343 13H17.311L13.407 1.224H11.263L7.359 13H9.247L10.255 9.64H14.351ZM13.903 8.184H10.687L11.167 6.6C11.359 5.96 11.5457 5.31467 11.727 4.664C11.9083 4.01333 12.0843 3.352 12.255 2.68H12.319C12.5003 3.352 12.6817 4.01333 12.863 4.664C13.0443 5.31467 13.2363 5.96 13.439 6.6L13.903 8.184ZM28.4043 15.08L26.0363 12.312C26.3563 12.088 26.6549 11.8107 26.9323 11.48C27.2203 11.1493 27.4656 10.7707 27.6683 10.344C27.8709 9.90667 28.0309 9.416 28.1483 8.872C28.2656 8.328 28.3243 7.72533 28.3243 7.064C28.3243 6.11467 28.1963 5.26667 27.9403 4.52C27.6949 3.76267 27.3429 3.12267 26.8843 2.6C26.4363 2.07733 25.8976 1.67733 25.2683 1.4C24.6389 1.12267 23.9456 0.983999 23.1883 0.983999C22.4309 0.983999 21.7376 1.12267 21.1083 1.4C20.4789 1.67733 19.9403 2.07733 19.4923 2.6C19.0443 3.112 18.6923 3.74667 18.4363 4.504C18.1909 5.25067 18.0683 6.09867 18.0683 7.048C18.0683 8.104 18.2123 9.02133 18.5003 9.8C18.7883 10.5787 19.1723 11.224 19.6523 11.736C20.1323 12.2373 20.6816 12.6107 21.3003 12.856C21.9189 13.1013 22.5536 13.224 23.2043 13.224C23.4176 13.224 23.6363 13.208 23.8603 13.176C24.0843 13.1547 24.3083 13.112 24.5323 13.048L26.1643 15.08H28.4043ZM23.1883 11.672C22.6976 11.672 22.2549 11.5653 21.8602 11.352C21.4656 11.1387 21.1296 10.8347 20.8523 10.44C20.5749 10.0347 20.3563 9.54933 20.1963 8.984C20.0469 8.408 19.9723 7.76267 19.9723 7.048C19.9723 6.35467 20.0469 5.736 20.1963 5.192C20.3563 4.63733 20.5749 4.168 20.8523 3.784C21.1296 3.4 21.4656 3.10667 21.8602 2.904C22.2549 2.70133 22.6976 2.6 23.1883 2.6C23.6789 2.6 24.1216 2.70133 24.5163 2.904C24.9109 3.10667 25.2469 3.4 25.5243 3.784C25.8123 4.168 26.0309 4.63733 26.1803 5.192C26.3403 5.736 26.4203 6.35467 26.4203 7.048C26.4203 7.76267 26.3403 8.408 26.1803 8.984C26.0309 9.54933 25.8123 10.0347 25.5243 10.44C25.2469 10.8347 24.9109 11.1387 24.5163 11.352C24.1216 11.5653 23.6789 11.672 23.1883 11.672Z" fill="black"/>
</svg>
