<svg width="206" height="108" viewBox="0 0 206 108" fill="none" xmlns="http://www.w3.org/2000/svg">
<path d="M35.9724 12.1V10.274H24.5104V4.752H22.2444V12.1H35.9724ZM37.9744 16.632V14.762H19.9564V16.632H27.7444V23.716H30.0324V16.632H37.9744ZM57.0907 15.4V13.53H54.3187C54.5681 12.122 54.7147 10.8827 54.7587 9.812C54.8027 8.72667 54.8247 7.71467 54.8247 6.776V5.038H41.2727V6.864H52.6027C52.6027 7.77333 52.5807 8.77067 52.5367 9.856C52.4927 10.9267 52.3241 12.1513 52.0307 13.53H39.1167V15.4H46.8827V23.694H49.1707V15.4H57.0907ZM76.647 13.442V11.572H73.633V3.828H71.367V23.694H73.633V13.442H76.647ZM61.203 16.852V5.764H58.937V18.744H60.587C62.0977 18.744 63.623 18.6853 65.163 18.568C66.7177 18.436 68.3383 18.2013 70.025 17.864L69.761 15.994C68.2503 16.302 66.791 16.522 65.383 16.654C63.975 16.7713 62.5817 16.8373 61.203 16.852ZM97.5372 3.828H95.2492V15.268H97.5372V3.828ZM92.7412 11.044L93.6872 9.328C92.2205 9.02 91.0765 8.492 90.2552 7.744C89.4485 6.996 89.0452 6.15267 89.0452 5.214V4.334H86.6912V5.214C86.6912 6.21133 86.2879 7.11333 85.4812 7.92C84.6892 8.712 83.5379 9.27667 82.0272 9.614L82.9952 11.352C84.1832 11.0733 85.1879 10.6333 86.0092 10.032C86.8452 9.416 87.4759 8.69 87.9012 7.854C88.3265 8.646 88.9499 9.31333 89.7712 9.856C90.5925 10.384 91.5825 10.78 92.7412 11.044ZM86.9332 14.146V16.676H89.1992V14.014C90.0352 13.97 90.8712 13.904 91.7072 13.816C92.5432 13.7133 93.3792 13.5887 94.2152 13.442L94.0392 11.814C92.9832 11.946 91.8905 12.0487 90.7612 12.122C89.6465 12.1953 88.5392 12.254 87.4392 12.298C86.3392 12.342 85.2612 12.3713 84.2052 12.386C83.1639 12.386 82.1812 12.386 81.2572 12.386L81.5212 14.234C82.3572 14.234 83.2225 14.234 84.1172 14.234C85.0265 14.2193 85.9652 14.19 86.9332 14.146ZM95.2712 16.192V18.084H86.4932V16.192H84.2492V23.452H97.5372V16.192H95.2712ZM95.2712 19.844V21.648H86.4932V19.844H95.2712ZM114.079 7.524V7.634C114.079 8.80733 114.043 10.1273 113.969 11.594C113.911 13.0607 113.691 14.7693 113.309 16.72L115.597 16.962C115.788 15.9353 115.935 14.9893 116.037 14.124C116.14 13.244 116.213 12.43 116.257 11.682C116.316 10.9193 116.345 10.208 116.345 9.548C116.36 8.888 116.367 8.25 116.367 7.634V5.676H102.221V7.524H114.079ZM118.303 19.228H109.327V12.232H107.039V19.228H100.351V21.098H118.303V19.228ZM141.724 13.288V11.418H139.348V3.828H137.126V23.716H139.348V13.288H141.724ZM127.314 5.654V10.516H125.466V5.654H123.574V18.986H129.184V5.654H127.314ZM133.826 5.654V10.516H132V5.654H130.13V18.986H135.696V5.654H133.826ZM127.314 12.32V17.16H125.466V12.32H127.314ZM133.826 12.32V17.16H132V12.32H133.826ZM156.066 7.106V9.746H144.626V16.17H158.75V14.322H146.848V11.55H158.31V5.258H144.582V7.106H156.066ZM160.444 19.448H142.448V21.318H160.444V19.448ZM178.57 3.828H176.392V23.694H178.57V3.828ZM172.234 4.312V11.726H169.308C169.602 10.8753 169.814 9.99533 169.946 9.086C170.078 8.17667 170.144 7.238 170.144 6.27H162.422V8.096H167.9C167.739 10.1347 167.145 11.968 166.118 13.596C165.092 15.224 163.544 16.654 161.476 17.886L162.774 19.492C164.153 18.656 165.319 17.7467 166.272 16.764C167.226 15.7667 167.996 14.696 168.582 13.552H172.234V22.748H174.368V4.312H172.234ZM184.223 17.468L184.663 5.434H182.111L182.177 8.03L182.529 17.468H184.223ZM182.089 22.286H184.685V19.558H182.089V22.286ZM27.5395 31.806H25.2515V51.738H27.5395V31.806ZM11.8095 41.332L12.8435 43.092C14.0315 42.74 15.0435 42.212 15.8795 41.508C16.7155 40.804 17.3462 39.968 17.7715 39C18.2115 39.924 18.8422 40.7233 19.6635 41.398C20.4995 42.058 21.5115 42.5567 22.6995 42.894L23.7115 41.134C22.2448 40.7233 21.0862 40.0707 20.2355 39.176C19.3995 38.2813 18.9522 37.262 18.8935 36.118H23.2275V34.292H18.8935V31.982H16.6275V34.292H12.3155V36.118H16.6055C16.5468 37.306 16.1068 38.3693 15.2855 39.308C14.4788 40.2467 13.3202 40.9213 11.8095 41.332ZM18.8935 45.754V42.454H16.6275V45.864C15.6595 45.8933 14.7208 45.9153 13.8115 45.93C12.9168 45.93 12.0735 45.93 11.2815 45.93L11.5675 47.8C12.4475 47.8 13.3935 47.7927 14.4055 47.778C15.4322 47.7633 16.4882 47.734 17.5735 47.69C18.6588 47.6313 19.7588 47.5433 20.8735 47.426C22.0028 47.294 23.1175 47.118 24.2175 46.898L24.0415 45.248C23.2055 45.38 22.3548 45.49 21.4895 45.578C20.6388 45.6513 19.7735 45.71 18.8935 45.754ZM47.2718 31.806H45.1158V39.66H42.7618V32.224H40.6278V50.704H42.7618V41.508H45.1158V51.672H47.2718V31.806ZM33.2138 45.094V36.03H38.3398V34.182H30.9918V46.964H32.3118C33.0158 46.964 33.6758 46.9567 34.2918 46.942C34.9078 46.9273 35.5018 46.9053 36.0738 46.876C36.6604 46.832 37.2324 46.7733 37.7898 46.7C38.3618 46.6267 38.9484 46.5313 39.5498 46.414L39.3518 44.544C38.3251 44.7493 37.3278 44.8887 36.3598 44.962C35.4064 45.0353 34.3578 45.0793 33.2138 45.094ZM55.644 39.088L58.284 36.866C58.2693 37.0567 58.262 37.24 58.262 37.416V47.888H54.874V50H63.74V47.888H60.682V33.698H58.702L54.302 37.46L55.644 39.088ZM81.7514 31.828H79.4854V36.8H75.8114C75.7088 36.228 75.5034 35.7 75.1954 35.216C74.9021 34.732 74.5354 34.3213 74.0954 33.984C73.6554 33.6467 73.1494 33.3827 72.5774 33.192C72.0054 33.0013 71.3894 32.906 70.7294 32.906C69.9961 32.906 69.3141 33.0233 68.6834 33.258C68.0528 33.4927 67.5028 33.83 67.0334 34.27C66.5788 34.6953 66.2194 35.2013 65.9554 35.788C65.6914 36.3747 65.5594 37.02 65.5594 37.724C65.5594 38.428 65.6914 39.0807 65.9554 39.682C66.2194 40.2833 66.5788 40.7967 67.0334 41.222C67.5028 41.6473 68.0528 41.9847 68.6834 42.234C69.3141 42.4687 69.9961 42.586 70.7294 42.586C71.3894 42.586 72.0054 42.4907 72.5774 42.3C73.1494 42.1093 73.6554 41.8453 74.0954 41.508C74.5354 41.156 74.9021 40.738 75.1954 40.254C75.5034 39.77 75.7088 39.2347 75.8114 38.648H79.4854V43.576H81.7514V31.828ZM70.7294 40.65C70.3041 40.65 69.9081 40.584 69.5414 40.452C69.1748 40.3053 68.8594 40.1073 68.5954 39.858C68.3314 39.594 68.1188 39.286 67.9574 38.934C67.8108 38.5673 67.7374 38.164 67.7374 37.724C67.7374 37.2987 67.8108 36.91 67.9574 36.558C68.1188 36.1913 68.3314 35.8833 68.5954 35.634C68.8594 35.37 69.1748 35.172 69.5414 35.04C69.9081 34.8933 70.3041 34.82 70.7294 34.82C71.1548 34.82 71.5508 34.8933 71.9174 35.04C72.2841 35.172 72.5994 35.37 72.8634 35.634C73.1421 35.8833 73.3548 36.1913 73.5014 36.558C73.6628 36.91 73.7434 37.2987 73.7434 37.724C73.7434 38.164 73.6628 38.5673 73.5014 38.934C73.3548 39.286 73.1421 39.594 72.8634 39.858C72.5994 40.1073 72.2841 40.3053 71.9174 40.452C71.5508 40.584 71.1548 40.65 70.7294 40.65ZM68.3534 44.588V46.414H79.4854V51.738H81.7514V44.588H68.3534ZM89.6396 46.59L88.3856 48.35C88.6496 48.5993 88.9503 48.8267 89.2876 49.032C89.801 49.4133 90.395 49.6993 91.0696 49.89C91.7443 50.0807 92.397 50.176 93.0276 50.176C93.893 50.176 94.6923 50.0367 95.4256 49.758C96.159 49.4793 96.7896 49.0907 97.3176 48.592C97.8456 48.0933 98.2563 47.492 98.5496 46.788C98.843 46.0693 98.9896 45.2847 98.9896 44.434C98.9896 43.6273 98.8576 42.9233 98.5936 42.322C98.3296 41.706 97.963 41.1927 97.4936 40.782C97.0243 40.3567 96.4743 40.0413 95.8436 39.836C95.213 39.616 94.5236 39.506 93.7756 39.506C93.0716 39.506 92.353 39.5867 91.6196 39.748L92.2796 35.964H98.4616V33.742H90.5856L89.2656 41.508L90.7616 41.926C91.1723 41.8087 91.583 41.7133 91.9936 41.64C92.419 41.552 92.8443 41.508 93.2696 41.508C94.2816 41.508 95.081 41.7647 95.6676 42.278C96.269 42.7913 96.5696 43.554 96.5696 44.566C96.5696 45.0647 96.489 45.534 96.3276 45.974C96.181 46.3993 95.961 46.7733 95.6676 47.096C95.389 47.404 95.037 47.6533 94.6116 47.844C94.1863 48.02 93.7096 48.108 93.1816 48.108C92.5216 48.108 91.8836 47.9687 91.2676 47.69C90.6516 47.3967 90.109 47.03 89.6396 46.59ZM114.449 37.79H110.797V39.66H114.449V46.612H116.715V31.85H114.449V37.79ZM110.973 44.016L112.073 42.234C111.31 41.9993 110.628 41.684 110.027 41.288C109.426 40.892 108.92 40.4447 108.509 39.946C108.098 39.4473 107.783 38.912 107.563 38.34C107.358 37.7533 107.255 37.152 107.255 36.536V36.162H111.435V34.336H107.277V31.938H104.989V34.336H100.809V36.162H104.989V36.536C104.989 37.196 104.879 37.834 104.659 38.45C104.454 39.066 104.146 39.638 103.735 40.166C103.339 40.694 102.84 41.1707 102.239 41.596C101.652 42.0067 100.978 42.344 100.215 42.608L101.337 44.368C102.496 43.9867 103.478 43.4147 104.285 42.652C105.106 41.8893 105.737 41.002 106.177 39.99C106.617 40.9287 107.24 41.75 108.047 42.454C108.854 43.1433 109.829 43.664 110.973 44.016ZM117.221 49.472H106.111V45.336H103.845V51.32H117.221V49.472ZM137.723 37.724H134.907V31.806H132.641V46.37H134.907V39.594H137.723V37.724ZM129.385 42.916V33.522H120.079V42.916H129.385ZM127.163 35.348V41.09H122.323V35.348H127.163ZM124.611 49.472V44.962H122.323V51.32H135.699V49.472H124.611ZM152.726 43.488H148.832V45.072H152.726V46.92H154.992V31.806H152.726V43.488ZM144.872 39.572C145.605 39.572 146.272 39.4913 146.874 39.33C147.475 39.154 147.988 38.9193 148.414 38.626C148.839 38.318 149.169 37.9513 149.404 37.526C149.653 37.086 149.778 36.602 149.778 36.074C149.778 35.546 149.653 35.0693 149.404 34.644C149.169 34.204 148.839 33.8373 148.414 33.544C147.988 33.236 147.475 33.0013 146.874 32.84C146.272 32.664 145.605 32.576 144.872 32.576C144.153 32.576 143.486 32.664 142.87 32.84C142.268 33.0013 141.748 33.236 141.308 33.544C140.882 33.8373 140.545 34.204 140.296 34.644C140.061 35.0693 139.944 35.546 139.944 36.074C139.944 36.602 140.061 37.086 140.296 37.526C140.545 37.9513 140.882 38.318 141.308 38.626C141.748 38.9193 142.268 39.154 142.87 39.33C143.486 39.4913 144.153 39.572 144.872 39.572ZM144.872 34.248C145.708 34.248 146.375 34.4167 146.874 34.754C147.372 35.0767 147.622 35.5167 147.622 36.074C147.622 36.6313 147.372 37.0787 146.874 37.416C146.375 37.7387 145.708 37.9 144.872 37.9C144.036 37.9 143.361 37.7387 142.848 37.416C142.349 37.0787 142.1 36.6313 142.1 36.074C142.1 35.5167 142.349 35.0767 142.848 34.754C143.361 34.4167 144.036 34.248 144.872 34.248ZM143.97 42.586V46.282H146.236V42.454C147.086 42.41 147.937 42.344 148.788 42.256C149.653 42.1533 150.504 42.0287 151.34 41.882L151.164 40.254C150.108 40.386 149.022 40.496 147.908 40.584C146.793 40.6573 145.686 40.716 144.586 40.76C143.486 40.7893 142.408 40.8113 141.352 40.826C140.31 40.8407 139.335 40.848 138.426 40.848L138.712 42.696C139.504 42.696 140.332 42.6887 141.198 42.674C142.078 42.6593 143.002 42.63 143.97 42.586ZM155.454 49.472H143.376V45.446H141.11V51.32H155.454V49.472ZM176.176 41.706V39.836H173.36V31.828H171.094V51.672H173.36V41.706H176.176ZM163.57 33.918H158.202V35.788H161.436C161.392 36.7853 161.289 37.746 161.128 38.67C160.981 39.5793 160.747 40.4593 160.424 41.31C160.116 42.146 159.713 42.9673 159.214 43.774C158.73 44.566 158.136 45.336 157.432 46.084L159.236 47.338C160.116 46.37 160.835 45.3653 161.392 44.324C161.964 43.2827 162.404 42.2047 162.712 41.09C163.035 39.9753 163.255 38.824 163.372 37.636C163.504 36.4333 163.57 35.194 163.57 33.918ZM169.026 33.918H164.252V35.788H166.892C166.848 36.8587 166.753 37.9073 166.606 38.934C166.474 39.946 166.261 40.936 165.968 41.904C165.689 42.872 165.315 43.8107 164.846 44.72C164.377 45.6293 163.783 46.5167 163.064 47.382L164.89 48.658C165.77 47.5727 166.481 46.4433 167.024 45.27C167.567 44.082 167.985 42.8647 168.278 41.618C168.571 40.3713 168.769 39.1027 168.872 37.812C168.975 36.5213 169.026 35.2233 169.026 33.918ZM193.158 31.828H190.87V51.694H193.158V31.828ZM184.138 37.57V35.678H188.56V33.808H177.428V35.678H181.85V37.57C181.85 38.406 181.726 39.2567 181.476 40.122C181.242 40.9873 180.897 41.8087 180.442 42.586C179.988 43.3487 179.445 44.038 178.814 44.654C178.198 45.27 177.502 45.754 176.724 46.106L178.022 47.91C178.609 47.6313 179.152 47.2793 179.65 46.854C180.164 46.4287 180.633 45.9447 181.058 45.402C181.484 44.8593 181.858 44.2727 182.18 43.642C182.518 43.0113 182.796 42.3513 183.016 41.662C183.486 42.9527 184.146 44.104 184.996 45.116C185.862 46.128 186.874 46.8907 188.032 47.404L189.286 45.622C188.509 45.2847 187.805 44.83 187.174 44.258C186.544 43.686 186.001 43.048 185.546 42.344C185.092 41.6253 184.74 40.8627 184.49 40.056C184.256 39.2347 184.138 38.406 184.138 37.57Z" fill="black"/>
<path d="M1.88172 77.498H7.32772V76.294H10.5757V78.086H11.3177V71.548H10.5757V73.424H7.32772V72.15H6.59972V74.138H2.62372V72.15H1.88172V77.498ZM7.32772 75.692V74.04H10.5757V75.692H7.32772ZM2.62372 74.74H6.59972V76.882H2.62372V74.74ZM11.8497 83.784V83.168H4.20572V81.488H11.3177V78.772H3.44972V79.388H10.5897V80.9H3.47772V83.784H11.8497ZM24.6586 82.314V81.684H19.3666V78.142H23.2866V77.512H15.6286V73.242H23.1606V72.612H14.8866V78.142H18.6246V81.684H13.3746V82.314H24.6586ZM35.5355 83.994V71.548H34.7935V83.994H35.5355ZM29.6135 72.5C27.6675 72.5 26.3375 73.648 26.3375 75.342C26.3375 77.036 27.6675 78.184 29.6135 78.184C31.5595 78.184 32.8895 77.036 32.8895 75.342C32.8895 73.648 31.5595 72.5 29.6135 72.5ZM29.6135 73.144C31.1115 73.144 32.1755 74.054 32.1755 75.342C32.1755 76.63 31.1115 77.54 29.6135 77.54C28.1155 77.54 27.0515 76.63 27.0515 75.342C27.0515 74.054 28.1155 73.144 29.6135 73.144ZM25.6375 80.48L25.7635 81.124C28.0455 81.124 31.1115 81.124 33.9815 80.606L33.9115 80.032C31.1395 80.48 27.9615 80.48 25.6375 80.48ZM50.272 83.994V71.548H49.53V75.972H46.324V76.588H49.53V83.994H50.272ZM44.294 75.174V72.696H43.552V75.174C43.552 77.442 41.858 79.794 40.22 80.69L40.696 81.278C42.082 80.494 43.398 78.786 43.93 76.826C44.448 78.688 45.834 80.312 47.22 81.054L47.654 80.452C46.016 79.626 44.294 77.372 44.294 75.174ZM53.6869 72.71H61.4569V74.418H53.7289V77.512H62.4509V76.896H54.4709V75.006H62.1849V72.08H53.6869V72.71ZM60.4489 79.654H63.5989V79.024H52.3009V79.654H55.4369V83.98H56.1789V79.654H59.7069V83.98H60.4489V79.654ZM77.3973 83.98V71.548H76.6693V83.98H77.3973ZM74.8913 71.884H74.1773V76.126H71.8673V76.77H74.1773V83.294H74.8913V71.884ZM70.3693 75.188V73.746H72.8473V73.116H67.0793V73.746H69.6553V75.188C69.6553 77.554 68.4793 79.822 66.7993 80.83L67.2893 81.39C68.5773 80.592 69.5853 79.024 70.0193 77.162C70.4533 78.898 71.3913 80.312 72.6793 81.096L73.1553 80.536C71.5173 79.598 70.3693 77.372 70.3693 75.188ZM79.7762 75.916L80.0142 76.504C81.9182 76.322 83.9902 75.608 84.7042 74.25C85.4182 75.608 87.4902 76.322 89.3942 76.504L89.6322 75.916C87.6022 75.734 85.1662 74.922 85.0962 73.298H89.1422V72.696H85.0822V71.422H84.3402V72.696H80.2942V73.298H84.3122C84.2422 74.922 81.8062 75.734 79.7762 75.916ZM85.0682 79.192V77.82H90.3182V77.218H79.0902V77.82H84.3262V79.192H80.4902V79.766H88.1062V81.124H80.5182V83.798H89.2402V83.196H81.2462V81.698H88.8342V79.192H85.0682ZM97.7651 75.258H100.649V78.128H101.391V71.548H100.649V74.614H97.7651C97.5551 72.948 96.2111 72.15 94.6291 72.15C92.7811 72.15 91.4791 73.284 91.4791 74.964C91.4791 76.658 92.7811 77.778 94.6291 77.778C96.3651 77.778 97.6111 76.77 97.7651 75.258ZM94.6291 77.148C93.2151 77.148 92.1931 76.196 92.1931 74.964C92.1931 73.676 93.2151 72.766 94.6291 72.766C96.0431 72.766 97.0651 73.676 97.0651 74.964C97.0651 76.196 96.0431 77.148 94.6291 77.148ZM100.313 79.878V78.772H99.5851V79.878C99.5851 81.208 98.7171 82.678 97.2191 83.308L97.6251 83.882C98.8011 83.336 99.5711 82.398 99.9491 81.278C100.327 82.398 101.097 83.364 102.273 83.882L102.679 83.308C101.181 82.706 100.313 81.208 100.313 79.878ZM96.8831 78.842H96.1831V80.606H93.4251V78.842H92.7111V83.784H96.8831V78.842ZM93.4251 81.18H96.1831V83.168H93.4251V81.18ZM113.528 83.98V71.548H112.786V83.98H113.528ZM107.06 72.556C105.226 72.556 103.966 74.236 103.966 76.826C103.966 79.444 105.226 81.096 107.06 81.096C108.866 81.096 110.14 79.444 110.14 76.826C110.14 74.236 108.866 72.556 107.06 72.556ZM107.06 73.214C108.446 73.214 109.426 74.698 109.426 76.826C109.426 78.954 108.446 80.452 107.06 80.452C105.66 80.452 104.68 78.954 104.68 76.826C104.68 74.698 105.66 73.214 107.06 73.214ZM129.258 78.618V77.988H124.022V76.196H127.802V72.066H119.5V76.196H123.28V77.988H118.016V78.618H129.258ZM127.088 75.566H120.228V72.682H127.088V75.566ZM127.858 80.13H119.276V80.746H127.116V83.966H127.858V80.13ZM141.451 78.842V78.212H136.187V76.336H140.107V75.706H132.393V72.822H140.009V72.192H131.651V76.336H135.445V78.212H130.209V78.842H141.451ZM140.233 83.042H132.449V80.13H131.707V83.672H140.233V83.042ZM148.002 76.126C150.746 76.126 152.3 75.356 152.3 73.942C152.3 72.542 150.704 71.772 148.002 71.772C145.3 71.772 143.704 72.542 143.704 73.942C143.704 75.356 145.258 76.126 148.002 76.126ZM148.002 72.36C150.186 72.36 151.544 72.976 151.544 73.942C151.544 74.936 150.186 75.538 148.002 75.538C145.818 75.538 144.46 74.936 144.46 73.942C144.46 72.976 145.818 72.36 148.002 72.36ZM153.616 77.736V77.106H142.374V77.736H153.616ZM152.538 83.182H144.544V81.586H152.132V79.024H143.788V79.626H151.404V81.012H143.816V83.798H152.538V83.182ZM168.493 76.14V75.496H166.533V71.548H165.791V80.76H166.533V76.14H168.493ZM163.215 72.528H157.531V73.158H162.417C162.235 75.636 160.079 77.568 157.055 78.576L157.377 79.192C160.849 78.03 163.215 75.65 163.215 72.528ZM167.163 83.042H159.701V79.808H158.959V83.672H167.163V83.042ZM176.108 76.938H178.53V80.858H179.272V71.534H178.53V73.998H176.108V74.628H178.53V76.322H176.108V76.938ZM176.654 78.324L176.612 77.75C175.996 77.848 175.352 77.89 174.694 77.932V73.242H176.094V72.612H169.556V73.242H170.928V78.058C170.312 78.072 169.738 78.072 169.192 78.072L169.304 78.73C171.376 78.73 174.19 78.702 176.654 78.324ZM171.656 78.044V73.242H173.966V77.96C173.182 78.016 172.44 78.03 171.656 78.044ZM179.636 83.672V83.042H172.216V80.046H171.474V83.672H179.636ZM190.778 77.442H192.962V76.812H190.778V71.534H190.036V83.966H190.778V77.442ZM188.636 73.606H185.374V71.66H184.632V73.606H181.244V74.236H188.636V73.606ZM185.024 75.468C183.288 75.468 182.07 76.644 182.07 78.268C182.07 79.906 183.288 81.054 185.024 81.054C186.76 81.054 187.978 79.906 187.978 78.268C187.978 76.644 186.76 75.468 185.024 75.468ZM185.024 80.424C183.722 80.424 182.77 79.486 182.77 78.268C182.77 77.036 183.722 76.112 185.024 76.112C186.326 76.112 187.278 77.036 187.278 78.268C187.278 79.486 186.326 80.424 185.024 80.424ZM203.993 83.98V71.548H203.279V83.98H203.993ZM201.403 71.898H200.689V76.812H198.043C198.533 75.65 198.785 74.446 198.785 73.186H194.039V73.816H198.057C197.889 76.518 196.433 78.982 193.591 80.676L194.067 81.236C195.803 80.172 196.965 78.884 197.749 77.428H200.689V83.294H201.403V71.898ZM56.7254 103.966V91.548H55.9974V96.658H53.8554V91.856H53.1414V103.294H53.8554V97.288H55.9974V103.966H56.7254ZM47.4994 100.102H47.4714V93.732H51.3774V93.088H46.7434V100.746H47.5134C49.5714 100.746 50.7754 100.69 52.2314 100.354L52.1334 99.71C50.7194 100.046 49.5294 100.102 47.4994 100.102ZM59.1043 95.916L59.3423 96.504C61.2463 96.322 63.3183 95.608 64.0323 94.25C64.7463 95.608 66.8183 96.322 68.7223 96.504L68.9603 95.916C66.9303 95.734 64.4943 94.922 64.4243 93.298H68.4703V92.696H64.4103V91.422H63.6683V92.696H59.6223V93.298H63.6403C63.5703 94.922 61.1343 95.734 59.1043 95.916ZM64.3963 99.192V97.82H69.6463V97.218H58.4183V97.82H63.6543V99.192H59.8183V99.766H67.4343V101.124H59.8463V103.798H68.5683V103.196H60.5743V101.698H68.1623V99.192H64.3963ZM82.1192 95.272V94.628H80.1732V91.534H79.4312V98.828H80.1732V95.272H82.1192ZM71.1992 97.946H76.8272V92.206H76.0992V94.306H71.9412V92.206H71.1992V97.946ZM71.9412 94.922H76.0992V97.316H71.9412V94.922ZM80.5232 103.154H73.3272V100.214H80.2992V99.584H72.5852V103.784H80.5232V103.154ZM88.3901 96.126C91.1341 96.126 92.6881 95.356 92.6881 93.942C92.6881 92.542 91.0921 91.772 88.3901 91.772C85.6881 91.772 84.0921 92.542 84.0921 93.942C84.0921 95.356 85.6461 96.126 88.3901 96.126ZM88.3901 92.36C90.5741 92.36 91.9321 92.976 91.9321 93.942C91.9321 94.936 90.5741 95.538 88.3901 95.538C86.2061 95.538 84.8481 94.936 84.8481 93.942C84.8481 92.976 86.2061 92.36 88.3901 92.36ZM94.0041 97.736V97.106H82.7621V97.736H94.0041ZM92.9261 103.182H84.9321V101.586H92.5201V99.024H84.1761V99.626H91.7921V101.012H84.2041V103.798H92.9261V103.182ZM107.621 97.078L107.929 96.462C106.067 96.168 103.365 94.684 103.365 92.794V92.024H102.595V92.794C102.595 94.74 99.9205 96.168 98.0165 96.462L98.3385 97.078C100.075 96.742 102.245 95.65 102.987 94.012C103.743 95.636 105.899 96.742 107.621 97.078ZM103.323 99.318H108.587L108.601 98.688H97.3445V99.318H102.581V103.966H103.323V99.318ZM121.307 98.688H122.049V91.548H121.307V98.688ZM115.427 98.016C117.289 98.016 118.591 96.868 118.591 95.174C118.591 93.452 117.289 92.318 115.427 92.318C113.593 92.318 112.291 93.452 112.291 95.174C112.291 96.868 113.593 98.016 115.427 98.016ZM115.427 92.948C116.841 92.948 117.877 93.886 117.877 95.174C117.877 96.448 116.841 97.386 115.427 97.386C114.027 97.386 113.005 96.448 113.005 95.174C113.005 93.886 114.027 92.948 115.427 92.948ZM120.579 100.074V99.248H119.865V100.074C119.865 101.054 119.151 102.426 117.891 103.168C116.617 102.496 115.945 101.25 115.945 100.074V99.248H115.231V100.074C115.231 101.264 114.153 102.636 112.627 103.238L113.005 103.812C114.237 103.322 115.119 102.426 115.567 101.362C115.903 102.44 116.673 103.42 117.905 103.91C119.081 103.364 119.837 102.356 120.215 101.334C120.649 102.412 121.531 103.322 122.819 103.812L123.197 103.238C121.643 102.678 120.579 101.376 120.579 100.074ZM134.368 96.266L134.662 95.664C132.814 95.384 130.112 94.068 130.112 92.346V91.674H129.356V92.346C129.356 94.082 126.696 95.398 124.806 95.664L125.1 96.266C126.864 95.972 128.978 94.978 129.734 93.438C130.49 94.95 132.604 95.972 134.368 96.266ZM135.348 97.974V97.344H124.106V97.974H135.348ZM133.85 98.982H133.122V100.69H126.332V98.982H125.604V103.784H133.85V98.982ZM126.332 101.292H133.122V103.168H126.332V101.292ZM146.351 103.98V91.548H145.609V103.98H146.351ZM138.133 100.032H137.895V92.766H137.167V100.69H138.133C140.163 100.69 142.039 100.522 144.237 100.074L144.125 99.43C141.983 99.878 140.107 100.032 138.133 100.032ZM157.928 97.274H160.112V96.644H157.928V91.548H157.186V103.994H157.928V97.274ZM149.976 100.172H149.78V93.41H154.792V92.78H149.038V100.816H149.976C152.412 100.816 153.994 100.746 155.94 100.368L155.842 99.724C153.98 100.06 152.384 100.172 149.976 100.172Z" fill="black"/>
</svg>
