<svg width="247" height="232" viewBox="0 0 247 232" fill="none" xmlns="http://www.w3.org/2000/svg">
<mask id="mask0_211_254" style="mask-type:alpha" maskUnits="userSpaceOnUse" x="0" y="0" width="247" height="232">
<rect width="247" height="232" fill="#D9D9D9"/>
</mask>
<g mask="url(#mask0_211_254)">
<g filter="url(#filter0_d_211_254)">
<path d="M186.71 25H61.2918C54.3652 25 48.75 30.6152 48.75 37.5418V346.906C48.75 353.833 54.3652 359.448 61.2918 359.448H186.71C193.637 359.448 199.252 353.833 199.252 346.906V37.5418C199.252 30.6152 193.637 25 186.71 25Z" fill="white"/>
</g>
<path d="M112.694 86.092V82.3821H111.685V86.092H112.694ZM107.516 86.393V89.0794H112.679V86.393H107.516ZM108.525 87.2358H111.67V88.2215H108.525V87.2358ZM106.959 83.4431H109.518C109.277 84.3762 108.141 85.1137 106.515 85.4373L106.99 86.2199C108.803 85.8361 110.639 84.7073 110.617 82.6003H106.959V83.4431ZM119.559 84.0301H115.315V83.3152H119.484V82.4874H114.306V84.8654H116.421V85.3319H113.584V86.1597H120.206V85.3319H117.444V84.8654H119.559V84.0301ZM116.925 86.3854C115.608 86.3854 114.675 86.995 114.675 87.9281C114.675 88.8612 115.608 89.4707 116.925 89.4707C118.242 89.4707 119.175 88.8612 119.175 87.9281C119.175 86.995 118.242 86.3854 116.925 86.3854ZM116.925 88.658C116.112 88.658 115.684 88.372 115.684 87.9281C115.684 87.4841 116.112 87.1981 116.925 87.1981C117.738 87.1981 118.167 87.4841 118.167 87.9281C118.167 88.372 117.738 88.658 116.925 88.658ZM123.083 84.1731C121.917 84.1731 121.209 84.6772 121.209 85.4222C121.209 86.1672 121.917 86.6714 123.083 86.6714C124.242 86.6714 124.957 86.1672 124.957 85.4222C124.957 84.6772 124.242 84.1731 123.083 84.1731ZM125.145 85.0309H126.048V85.4899H125.145V86.3177H126.048V87.4615H127.056V82.3821H126.048V84.2032H125.145V85.0309ZM121.887 87.0326V89.0493H127.245V88.1914H122.895V87.0326H121.887ZM125.311 84.015V83.2475H120.796V84.015H125.311ZM124.332 82.9916V82.2241H121.774V82.9916H124.332ZM123.083 85.9339C122.481 85.9339 122.203 85.7307 122.203 85.4222C122.203 85.1137 122.481 84.9105 123.083 84.9105C123.685 84.9105 123.964 85.1137 123.964 85.4222C123.964 85.7307 123.685 85.9339 123.083 85.9339ZM128.218 82.5251V85.806L132.703 85.6028V84.76L129.226 84.8729V82.5251H128.218ZM134.012 86.092V82.3821H133.004V86.092H134.012ZM128.835 86.393V89.0794H133.997V86.393H128.835ZM129.843 87.2358H132.989V88.2215H129.843V87.2358ZM141.216 89.1246V82.3821H140.208V89.1246H141.216ZM139.982 88.1011V87.2583L135.015 87.3185V88.1764L139.982 88.1011ZM137.446 82.5326C136.204 82.5326 135.354 83.4807 135.354 84.5042C135.354 85.5276 136.204 86.4757 137.446 86.4757C138.688 86.4757 139.538 85.5276 139.538 84.5042C139.538 83.4807 138.688 82.5326 137.446 82.5326ZM137.446 85.6179C136.784 85.6179 136.362 85.0761 136.362 84.5042C136.362 83.9323 136.784 83.3904 137.446 83.3904C138.108 83.3904 138.53 83.9323 138.53 84.5042C138.53 85.0761 138.108 85.6179 137.446 85.6179ZM84.1716 100.657H85.1499V97.3311H85.7369V100.823H86.7302V94.0878H85.7369V96.4582H85.1499V94.163H84.1716V100.657ZM80.7778 94.4038V99.6413L83.8706 99.4607V98.6179L81.7711 98.7082V95.2617H83.5922V94.4038H80.7778ZM94.0999 97.8052V97.0827H87.4777V97.8052H90.277V98.1513H88.1549V98.8737H92.3992V99.1296H88.1549V100.785H93.5656V100.055H89.1633V99.7918H93.4076V98.1513H91.3006V97.8052H94.0999ZM88.1098 96.9172C88.8623 96.8871 89.6976 96.7592 90.3748 96.4732C90.5103 96.413 90.6384 96.3453 90.7588 96.2776C90.8867 96.3603 91.0221 96.4356 91.1727 96.5033C91.8198 96.7817 92.6476 96.8946 93.4302 96.8645L93.8666 96.1271C92.9636 96.112 92.1885 96.0669 91.6016 95.8261L91.3683 95.7132C91.3758 95.6906 91.3909 95.6756 91.4059 95.653H93.4302V94.9005H88.1173V95.653H90.1716C90.0362 95.7508 89.8706 95.8261 89.675 95.8863C89.1708 96.0443 88.486 96.1195 87.7034 96.1572L88.1098 96.9172ZM92.2487 93.9373H89.2987V94.6898H92.2487V93.9373ZM99.3098 97.2107C98.8206 97.0225 98.3917 96.7667 98.0079 96.4506C97.7446 96.2324 97.5339 95.969 97.3608 95.6605C97.3834 95.6078 97.3984 95.5476 97.421 95.4874C97.564 95.0736 97.6392 94.6446 97.6467 94.1931H96.6233C96.5631 95.6154 95.8558 96.8344 94.4185 97.4515L95.0506 98.1739C95.7655 97.8353 96.4051 97.2934 96.8641 96.6087L96.9394 96.5033C97.421 97.1655 98.0681 97.6923 98.7454 97.9782L99.3098 97.2107ZM95.7053 98.4523V100.755H101.063V99.8971H96.7136V98.4523H95.7053ZM100.875 99.0317V94.0878H99.8666V99.0317H100.875ZM102.149 97.9481C102.781 97.7901 103.444 97.4364 103.948 96.9548L104.076 96.8194L104.136 96.872C104.655 97.3311 105.37 97.617 105.995 97.6923L106.491 96.8871C105.784 96.7817 105.137 96.5936 104.67 96.2023L104.565 96.097C104.617 95.9991 104.655 95.8938 104.693 95.7809H106.055V96.5635H106.973V97.918H107.981V94.0878H106.973V95.7358H106.235V94.9832H102.036V95.7809H103.609C103.504 96.0368 103.346 96.255 103.135 96.4431C102.751 96.7742 102.24 97.015 101.585 97.173L102.149 97.9481ZM105.679 97.8503C104.414 97.8503 103.504 98.4975 103.504 99.4381C103.504 100.379 104.414 101.026 105.679 101.026C106.943 101.026 107.853 100.379 107.853 99.4381C107.853 98.4975 106.943 97.8503 105.679 97.8503ZM105.679 100.213C104.926 100.213 104.512 99.9122 104.512 99.4381C104.512 98.964 104.926 98.663 105.679 98.663C106.431 98.663 106.845 98.964 106.845 99.4381C106.845 99.9122 106.431 100.213 105.679 100.213ZM105.438 94.7274V93.9297H102.909V94.7274H105.438ZM113.304 96.6914C113.304 95.3369 112.363 94.3888 111.122 94.3888C109.88 94.3888 108.939 95.3369 108.939 96.6914C108.939 98.046 109.88 98.9941 111.122 98.9941C112.363 98.9941 113.304 98.046 113.304 96.6914ZM112.296 96.6914C112.296 97.5643 111.814 98.1363 111.122 98.1363C110.429 98.1363 109.948 97.5643 109.948 96.6914C109.948 95.8185 110.429 95.2466 111.122 95.2466C111.814 95.2466 112.296 95.8185 112.296 96.6914ZM115.065 100.83V94.0878H114.056V100.83H115.065ZM123.105 98.4297V97.602L121.239 97.6246V97.173L121.495 97.1053C122.209 96.8645 122.691 96.3227 122.691 95.5853C122.691 94.5995 121.841 93.9523 120.704 93.9523C119.568 93.9523 118.718 94.5995 118.718 95.5853C118.718 96.3227 119.199 96.8645 119.914 97.1053C120.012 97.1354 120.11 97.158 120.215 97.1806V97.6396L118.289 97.6622V98.505L123.105 98.4297ZM124.384 99.2575V96.9097H125.137V96.0368H124.384V94.0878H123.376V99.2575H124.384ZM119.169 98.7834V100.702H124.595V99.8445H120.178V98.7834H119.169ZM120.704 96.3904C120.11 96.3904 119.726 96.0669 119.726 95.5853C119.726 95.1036 120.11 94.7801 120.704 94.7801C121.284 94.7801 121.683 95.1036 121.683 95.5853C121.683 96.0669 121.284 96.3904 120.704 96.3904ZM132.1 100.334V99.4757H130.572V98.4297H131.49V97.5644H127.201V96.7968H131.378V94.3436H126.193V95.2015H130.377V95.9389H126.193V98.4297H127.156V99.4757H125.478V100.334H132.1ZM128.164 98.4297H129.564V99.4757H128.164V98.4297ZM137.663 99.8068V98.964L135.827 98.9866V97.8052H137.393V96.9398H134.157V95.2165H137.242V94.3587H133.148V97.8052H134.804V99.0016L132.697 99.0242V99.8821L137.663 99.8068ZM138.898 100.83V94.0878H137.889V100.83H138.898ZM145.906 97.8729V94.0878H144.898V95.4272H143.814C143.791 95.3294 143.754 95.2316 143.709 95.1337C143.415 94.4565 142.708 94.02 141.865 94.02C140.744 94.02 139.863 94.7951 139.863 95.8787C139.863 96.9623 140.744 97.7374 141.865 97.7374C142.708 97.7374 143.415 97.2934 143.709 96.6312C143.761 96.5259 143.799 96.413 143.821 96.3001H144.898V97.8729H145.906ZM146.568 100.168C145.974 99.9573 145.462 99.6714 145.078 99.2424L144.988 99.1296C145.116 98.8361 145.199 98.52 145.221 98.1739H144.213C144.19 98.4448 144.13 98.6931 144.032 98.9189C143.942 99.1371 143.829 99.3403 143.686 99.5133C143.679 99.5058 143.663 99.5058 143.656 99.5058C143.362 99.3854 143.092 99.2199 142.873 99.0167L142.76 98.8963C142.858 98.6705 142.918 98.4297 142.941 98.1739H141.933C141.805 99.0694 141.24 99.7843 140.149 100.145L140.751 100.793C141.233 100.604 141.745 100.273 142.158 99.8219C142.226 99.7466 142.294 99.6714 142.354 99.5886C142.467 99.7015 142.587 99.8144 142.715 99.9122C142.813 99.9874 142.911 100.055 143.016 100.123C142.851 100.228 142.67 100.326 142.474 100.416L143.129 101.003C143.603 100.785 144.1 100.416 144.491 99.9423C144.514 99.9046 144.544 99.8746 144.566 99.8445L144.574 99.852C144.98 100.334 145.492 100.71 146.019 100.921L146.568 100.168ZM141.865 96.8796C141.24 96.8796 140.872 96.4807 140.872 95.8787C140.872 95.2767 141.24 94.8779 141.865 94.8779C142.49 94.8779 142.858 95.2767 142.858 95.8787C142.858 96.4807 142.49 96.8796 141.865 96.8796ZM152.726 100.785V98.1062H151.718V98.7082H148.482V98.1062H147.474V100.785H152.726ZM147.429 96.6613C148.143 96.6011 148.971 96.3453 149.641 95.9314C149.799 95.8261 149.949 95.7132 150.092 95.5853C150.198 95.6831 150.318 95.7734 150.446 95.8562C151.116 96.3001 151.959 96.5635 152.764 96.6087L153.215 95.8562C152.275 95.7809 151.469 95.5627 150.867 95.1714C150.77 95.1037 150.679 95.0284 150.597 94.9531C150.619 94.908 150.634 94.8628 150.657 94.8252C150.77 94.5919 150.83 94.3436 150.837 94.0802H149.799C149.739 95.1714 148.474 95.7583 146.992 95.9013L147.429 96.6613ZM153.418 97.8052V96.9774H146.796V97.8052H153.418ZM151.718 99.9423H148.482V99.5058H151.718V99.9423ZM160.096 100.83V94.0878H159.087V100.83H160.096ZM154.392 94.2834V99.6036L158.786 99.3704V98.5276L155.4 98.6705V94.2834H154.392ZM166.826 100.83V97.2107H167.781V96.3378H166.826V94.0878H165.817V100.83H166.826ZM161.347 94.3587V99.6488L165.516 99.4155V98.5727L162.356 98.7157V95.2015H164.99V94.3587H161.347Z" fill="#242D3C"/>
<path d="M100.353 195.299L95.5728 212.279" stroke="#242D3C"/>
<path d="M121.163 138.61C121.163 138.61 126.706 136.985 126.401 129.152C126.097 121.315 111.135 118.546 104.366 127.883C104.366 127.883 98.4452 123.54 93.0133 126.194C87.2428 129.015 86.2654 132.582 85.4808 137.945C84.6963 143.308 85.3565 145.542 79.6375 149.092C73.9185 152.642 76.0878 159.878 82.7113 160.658C82.7113 160.658 84.1604 171.749 92.1128 166.986C92.1128 166.986 96.6358 171.205 103.68 167.646C103.68 167.646 110.951 172.954 116.712 167.95C116.712 167.95 122.359 168.735 126.941 163.856C131.525 158.978 128.686 155.779 126.941 153.366C125.192 150.952 122.123 147.162 121.158 138.601V138.61H121.163Z" fill="#242D3C" stroke="#242D3C" stroke-miterlimit="10"/>
<path d="M116.725 139.219C116.725 139.219 113.832 139.219 107.847 135.232C107.847 135.232 105.6 135.108 103.684 136.321C101.772 137.53 98.4796 139.45 99.444 143.39C100.409 147.326 100.486 149.821 97.9135 144.754C95.3416 139.686 90.4412 150.139 99.0026 150.018C99.0026 150.018 102.857 158.978 109.493 158.978C116.13 158.978 115.718 152.389 115.641 151.3C115.559 150.211 115.075 141.268 116.73 139.215V139.223L116.725 139.219Z" fill="white" stroke="#242D3C" stroke-miterlimit="10"/>
<path d="M101.777 140.942C101.777 140.942 104.066 138.528 106.313 139.411" stroke="#242D3C" stroke-miterlimit="10" stroke-linecap="round"/>
<path d="M113.79 137.564C113.79 137.564 102.683 135.017 112.084 147.313" stroke="#242D3C" stroke-miterlimit="10" stroke-linecap="round"/>
<path d="M104.373 144.758C104.75 144.758 105.055 144.453 105.055 144.076C105.055 143.699 104.75 143.394 104.373 143.394C103.996 143.394 103.691 143.699 103.691 144.076C103.691 144.453 103.996 144.758 104.373 144.758Z" fill="#242D3C"/>
<path d="M110.72 143.385C111.098 143.385 111.402 143.081 111.402 142.704C111.402 142.326 111.098 142.022 110.72 142.022C110.343 142.022 110.039 142.326 110.039 142.704C110.039 143.081 110.343 143.385 110.72 143.385Z" fill="#242D3C"/>
<path d="M107.564 149.902C107.564 149.902 109.613 152.839 111.581 152.114C113.545 151.39 112.546 149.345 112.546 149.345" stroke="#242D3C" stroke-miterlimit="10" stroke-linecap="round"/>
<path d="M101.777 124.793C101.777 124.793 104.023 125.436 104.367 127.888" stroke="#242D3C" stroke-miterlimit="10" stroke-linecap="round"/>
<path d="M81.4062 144.076C81.4062 144.076 83.7685 145.28 84.836 142.712" stroke="#242D3C" stroke-miterlimit="10" stroke-linecap="round"/>
<path d="M116.869 162.288C116.869 162.288 117.624 165.46 114.07 167.66C114.07 167.66 121.422 172.26 116.869 162.288Z" fill="white" stroke="#242D3C" stroke-linecap="round" stroke-linejoin="round"/>
<path d="M162.025 196.263C162.025 196.263 162.643 196.502 162.025 198.024C162.025 198.024 163.148 200.305 161.519 201.287C159.89 202.264 159.106 203.551 156.503 202.796" stroke="#242D3C" stroke-miterlimit="10"/>
<path d="M102.495 164.003L104.21 163.36L104.424 162.716C104.424 162.716 110.855 166.716 112.141 167.003L111.712 168.29L109.355 173.863L104.424 178.15L105.925 180.508L106.997 181.58L108.926 179.865V185.438L110.212 190.154L113.213 196.371L109.355 196.799L103.138 195.942L99.2797 195.084L100.137 190.797L100.566 188.011L97.9937 190.154L94.1351 192.083L91.3487 192.726L89.6338 192.083L89.2051 190.797V188.439L90.2769 184.795L92.3562 179.865L94.2475 175.965L95.9499 172.56L97.9937 169.156L100.566 166.146L102.495 164.003Z" fill="#D7191F"/>
<path d="M98.571 194.887C98.571 194.887 112.556 200.353 127.333 191.993" stroke="#242D3C" stroke-miterlimit="10" stroke-linecap="round"/>
<path d="M100.429 187.993C100.429 187.993 99.8502 191.633 99.3611 193.322" stroke="#242D3C" stroke-miterlimit="10" stroke-linecap="round"/>
<path d="M137.43 209.995C153.383 209.995 166.317 197.061 166.317 181.108C166.317 165.156 153.383 152.222 137.43 152.222C121.478 152.222 108.543 165.156 108.543 181.108C108.543 197.061 121.478 209.995 137.43 209.995Z" fill="#F7B637" stroke="#242D3C" stroke-miterlimit="10"/>
<mask id="path-20-inside-1_211_254" fill="white">
<path fill-rule="evenodd" clip-rule="evenodd" d="M124.02 177.354C120.718 177.816 118.688 178.445 118.688 179.138C118.688 179.87 120.958 180.531 124.601 180.999C125.748 187.166 127.754 193.285 130.311 193.285C133.378 193.285 135.98 187.575 137.507 181.71C137.593 181.71 137.679 181.71 137.766 181.71C137.819 181.71 137.871 181.71 137.924 181.71C138.64 187.849 140.196 193.954 142.679 193.954C145.218 193.954 148.023 187.415 149.703 181.144C154.057 180.673 156.844 179.949 156.844 179.138C156.844 178.384 154.441 177.706 150.611 177.236C151.347 173.452 151.487 170.388 150.654 169.89C150.035 169.52 148.696 173.082 147.284 176.908C145.338 176.756 143.176 176.65 140.875 176.599C140.027 172.94 139.11 169.506 138.348 169.264C138.328 169.248 138.307 169.234 138.286 169.221C137.647 168.839 136.157 172.64 134.653 176.599C132.2 176.654 129.905 176.771 127.861 176.939C126.43 172.538 124.875 168.04 124.005 168.445C123.346 168.752 123.4 172.695 124.02 177.354ZM132.712 181.619C131.535 181.575 130.404 181.517 129.33 181.445C130.018 183.488 130.576 184.94 130.867 184.94C131.246 184.94 131.917 183.561 132.712 181.619ZM142.014 181.646C142.537 183.929 142.971 185.609 143.235 185.609C143.779 185.609 144.624 183.839 145.559 181.486C144.431 181.554 143.245 181.608 142.014 181.646Z"/>
</mask>
<path fill-rule="evenodd" clip-rule="evenodd" d="M124.02 177.354C120.718 177.816 118.688 178.445 118.688 179.138C118.688 179.87 120.958 180.531 124.601 180.999C125.748 187.166 127.754 193.285 130.311 193.285C133.378 193.285 135.98 187.575 137.507 181.71C137.593 181.71 137.679 181.71 137.766 181.71C137.819 181.71 137.871 181.71 137.924 181.71C138.64 187.849 140.196 193.954 142.679 193.954C145.218 193.954 148.023 187.415 149.703 181.144C154.057 180.673 156.844 179.949 156.844 179.138C156.844 178.384 154.441 177.706 150.611 177.236C151.347 173.452 151.487 170.388 150.654 169.89C150.035 169.52 148.696 173.082 147.284 176.908C145.338 176.756 143.176 176.65 140.875 176.599C140.027 172.94 139.11 169.506 138.348 169.264C138.328 169.248 138.307 169.234 138.286 169.221C137.647 168.839 136.157 172.64 134.653 176.599C132.2 176.654 129.905 176.771 127.861 176.939C126.43 172.538 124.875 168.04 124.005 168.445C123.346 168.752 123.4 172.695 124.02 177.354ZM132.712 181.619C131.535 181.575 130.404 181.517 129.33 181.445C130.018 183.488 130.576 184.94 130.867 184.94C131.246 184.94 131.917 183.561 132.712 181.619ZM142.014 181.646C142.537 183.929 142.971 185.609 143.235 185.609C143.779 185.609 144.624 183.839 145.559 181.486C144.431 181.554 143.245 181.608 142.014 181.646Z" fill="#F6B637"/>
<path d="M124.02 177.354L124.159 178.344C124.703 178.268 125.084 177.767 125.012 177.222L124.02 177.354ZM124.601 180.999L125.584 180.817C125.505 180.39 125.159 180.063 124.729 180.007L124.601 180.999ZM137.507 181.71L137.508 180.71C137.052 180.709 136.654 181.017 136.539 181.458L137.507 181.71ZM137.924 181.71L138.917 181.594C138.858 181.089 138.431 180.709 137.923 180.71L137.924 181.71ZM149.703 181.144L149.595 180.15C149.185 180.195 148.844 180.487 148.737 180.885L149.703 181.144ZM150.611 177.236L149.629 177.045C149.576 177.317 149.639 177.599 149.802 177.823C149.965 178.048 150.214 178.194 150.489 178.228L150.611 177.236ZM150.654 169.89L150.141 170.749V170.749L150.654 169.89ZM147.284 176.908L147.207 177.905C147.653 177.939 148.067 177.674 148.222 177.254L147.284 176.908ZM140.875 176.599L139.901 176.825C140.004 177.27 140.396 177.589 140.853 177.599L140.875 176.599ZM138.348 169.264L137.726 170.048C137.822 170.123 137.93 170.181 138.046 170.218L138.348 169.264ZM138.286 169.221L138.799 168.363L138.799 168.363L138.286 169.221ZM134.653 176.599L134.675 177.599C135.082 177.59 135.443 177.335 135.588 176.954L134.653 176.599ZM127.861 176.939L126.91 177.248C127.054 177.689 127.481 177.973 127.943 177.935L127.861 176.939ZM124.005 168.445L124.427 169.352L124.427 169.352L124.005 168.445ZM132.712 181.619L133.637 181.997C133.761 181.695 133.729 181.351 133.552 181.077C133.375 180.802 133.075 180.631 132.749 180.619L132.712 181.619ZM129.33 181.445L129.397 180.448C129.064 180.425 128.742 180.571 128.538 180.835C128.334 181.1 128.276 181.448 128.382 181.764L129.33 181.445ZM143.235 185.609V184.609H143.235L143.235 185.609ZM142.014 181.646L141.983 180.646C141.684 180.656 141.405 180.798 141.222 181.035C141.04 181.271 140.972 181.578 141.039 181.869L142.014 181.646ZM145.559 181.486L146.488 181.856C146.615 181.538 146.57 181.177 146.369 180.9C146.169 180.623 145.84 180.467 145.499 180.488L145.559 181.486ZM119.688 179.138C119.688 179.485 119.444 179.577 119.617 179.46C119.746 179.373 120.002 179.249 120.427 179.11C121.264 178.835 122.529 178.572 124.159 178.344L123.882 176.363C122.209 176.598 120.808 176.88 119.804 177.209C119.309 177.371 118.851 177.564 118.497 177.803C118.185 178.014 117.688 178.444 117.688 179.138H119.688ZM124.729 180.007C122.928 179.776 121.515 179.502 120.573 179.212C120.094 179.064 119.796 178.93 119.638 178.829C119.423 178.692 119.688 178.773 119.688 179.138H117.688C117.688 179.868 118.236 180.307 118.561 180.514C118.942 180.758 119.439 180.955 119.984 181.123C121.087 181.463 122.631 181.754 124.474 181.991L124.729 180.007ZM123.618 181.182C124.197 184.296 125.001 187.446 126.005 189.841C126.505 191.034 127.078 192.096 127.737 192.877C128.386 193.646 129.244 194.285 130.311 194.285V192.285C130.098 192.285 129.747 192.158 129.265 191.587C128.793 191.028 128.314 190.176 127.849 189.068C126.924 186.862 126.152 183.869 125.584 180.817L123.618 181.182ZM130.311 194.285C131.405 194.285 132.371 193.773 133.182 193.045C133.991 192.319 134.715 191.322 135.356 190.19C136.641 187.924 137.7 184.937 138.474 181.962L136.539 181.458C135.787 184.347 134.781 187.149 133.616 189.204C133.033 190.232 132.435 191.029 131.847 191.556C131.26 192.083 130.75 192.285 130.311 192.285V194.285ZM137.766 180.71C137.68 180.71 137.594 180.71 137.508 180.71L137.505 182.71C137.592 182.71 137.679 182.71 137.766 182.71V180.71ZM137.923 180.71C137.871 180.71 137.818 180.71 137.766 180.71V182.71C137.819 182.71 137.872 182.71 137.925 182.71L137.923 180.71ZM136.931 181.826C137.292 184.925 137.871 188.068 138.693 190.459C139.103 191.65 139.594 192.718 140.192 193.508C140.784 194.289 141.606 194.954 142.679 194.954V192.954C142.511 192.954 142.208 192.856 141.787 192.3C141.373 191.754 140.964 190.913 140.585 189.809C139.83 187.614 139.272 184.634 138.917 181.594L136.931 181.826ZM142.679 194.954C143.744 194.954 144.646 194.283 145.351 193.507C146.083 192.702 146.771 191.6 147.405 190.354C148.676 187.852 149.819 184.577 150.669 181.403L148.737 180.885C147.908 183.982 146.808 187.113 145.622 189.448C145.026 190.62 144.432 191.545 143.871 192.162C143.284 192.808 142.884 192.954 142.679 192.954V194.954ZM155.844 179.138C155.844 178.933 155.937 178.81 155.958 178.785C155.974 178.766 155.953 178.797 155.842 178.86C155.622 178.987 155.232 179.142 154.641 179.304C153.476 179.625 151.752 179.917 149.595 180.15L149.811 182.138C152.008 181.901 153.855 181.595 155.172 181.233C155.822 181.054 156.401 180.846 156.839 180.594C157.058 180.468 157.288 180.305 157.474 180.09C157.665 179.868 157.844 179.545 157.844 179.138H155.844ZM150.489 178.228C152.383 178.461 153.877 178.74 154.878 179.039C155.385 179.19 155.707 179.33 155.882 179.438C156.12 179.586 155.844 179.51 155.844 179.138H157.844C157.844 178.388 157.268 177.945 156.936 177.739C156.54 177.493 156.022 177.293 155.45 177.122C154.291 176.776 152.669 176.481 150.733 176.243L150.489 178.228ZM151.593 177.426C151.966 175.506 152.196 173.731 152.221 172.348C152.233 171.662 152.195 171.025 152.078 170.499C151.974 170.032 151.751 169.381 151.167 169.032L150.141 170.749C149.973 170.649 150.045 170.568 150.126 170.933C150.194 171.239 150.232 171.699 150.221 172.313C150.199 173.533 149.992 175.181 149.629 177.045L151.593 177.426ZM151.167 169.032C150.611 168.699 150.076 168.926 149.814 169.111C149.568 169.284 149.378 169.526 149.24 169.726C148.951 170.148 148.651 170.749 148.353 171.419C147.748 172.777 147.048 174.658 146.346 176.562L148.222 177.254C148.931 175.332 149.607 173.519 150.18 172.232C150.47 171.58 150.709 171.121 150.889 170.859C150.986 170.718 151.014 170.712 150.965 170.746C150.9 170.792 150.543 170.989 150.141 170.749L151.167 169.032ZM140.853 177.599C143.138 177.649 145.281 177.755 147.207 177.905L147.362 175.911C145.396 175.758 143.215 175.651 140.897 175.599L140.853 177.599ZM141.85 176.373C141.425 174.542 140.976 172.734 140.532 171.346C140.311 170.655 140.08 170.032 139.84 169.551C139.72 169.311 139.582 169.074 139.42 168.873C139.274 168.69 139.023 168.429 138.65 168.311L138.046 170.218C137.863 170.16 137.808 170.059 137.861 170.125C137.899 170.172 137.964 170.271 138.051 170.445C138.223 170.789 138.417 171.299 138.627 171.955C139.044 173.259 139.477 174.998 139.901 176.825L141.85 176.373ZM138.97 168.481C138.917 168.439 138.86 168.399 138.799 168.363L137.772 170.079C137.754 170.068 137.739 170.058 137.726 170.048L138.97 168.481ZM138.799 168.363C138.222 168.018 137.676 168.274 137.425 168.453C137.179 168.629 136.985 168.875 136.838 169.086C136.532 169.527 136.209 170.158 135.885 170.866C135.228 172.299 134.468 174.271 133.718 176.244L135.588 176.954C136.343 174.968 137.079 173.06 137.703 171.699C138.019 171.009 138.282 170.514 138.481 170.226C138.588 170.072 138.627 170.053 138.59 170.079C138.549 170.108 138.189 170.329 137.772 170.079L138.799 168.363ZM127.943 177.935C129.964 177.769 132.24 177.653 134.675 177.599L134.631 175.6C132.16 175.654 129.845 175.772 127.779 175.942L127.943 177.935ZM128.812 176.629C128.098 174.434 127.34 172.172 126.646 170.505C126.303 169.682 125.952 168.945 125.604 168.426C125.436 168.175 125.219 167.899 124.947 167.703C124.662 167.496 124.149 167.275 123.583 167.538L124.427 169.352C124.079 169.514 123.805 169.344 123.776 169.324C123.761 169.313 123.82 169.357 123.943 169.539C124.176 169.888 124.466 170.474 124.799 171.274C125.458 172.856 126.193 175.043 126.91 177.248L128.812 176.629ZM123.583 167.538C123.148 167.74 122.952 168.136 122.867 168.343C122.764 168.591 122.699 168.874 122.655 169.153C122.564 169.718 122.528 170.448 122.533 171.273C122.542 172.935 122.715 175.13 123.029 177.486L125.012 177.222C124.705 174.919 124.541 172.813 124.533 171.262C124.529 170.481 124.564 169.876 124.629 169.47C124.663 169.263 124.697 169.151 124.715 169.106C124.75 169.021 124.697 169.226 124.427 169.352L123.583 167.538ZM132.749 180.619C131.582 180.576 130.46 180.518 129.397 180.448L129.264 182.443C130.348 182.515 131.489 182.574 132.675 182.618L132.749 180.619ZM130.867 183.94C131.235 183.94 131.438 184.152 131.447 184.161C131.484 184.198 131.485 184.209 131.451 184.155C131.388 184.053 131.293 183.864 131.168 183.569C130.922 182.988 130.621 182.146 130.278 181.126L128.382 181.764C128.727 182.788 129.049 183.693 129.327 184.349C129.463 184.672 129.605 184.973 129.75 185.207C129.821 185.321 129.918 185.462 130.044 185.587C130.142 185.682 130.426 185.94 130.867 185.94V183.94ZM131.786 181.24C131.391 182.205 131.041 182.996 130.752 183.536C130.605 183.81 130.495 183.979 130.425 184.067C130.389 184.111 130.389 184.101 130.428 184.073C130.458 184.051 130.613 183.94 130.867 183.94V185.94C131.215 185.94 131.474 185.786 131.616 185.681C131.768 185.57 131.889 185.437 131.982 185.322C132.169 185.09 132.347 184.793 132.515 184.48C132.855 183.844 133.238 182.974 133.637 181.997L131.786 181.24ZM143.235 184.609C143.492 184.609 143.676 184.712 143.769 184.779C143.86 184.845 143.91 184.908 143.925 184.929C143.955 184.969 143.951 184.975 143.92 184.904C143.862 184.774 143.781 184.545 143.681 184.202C143.484 183.529 143.25 182.565 142.989 181.423L141.039 181.869C141.3 183.01 141.546 184.028 141.762 184.765C141.868 185.129 141.979 185.462 142.093 185.718C142.147 185.841 142.225 185.996 142.331 186.137C142.388 186.211 142.687 186.609 143.235 186.609L143.235 184.609ZM144.63 181.117C144.165 182.287 143.737 183.274 143.37 183.957C143.184 184.303 143.036 184.528 142.931 184.653C142.878 184.715 142.863 184.721 142.886 184.705C142.906 184.691 143.03 184.609 143.235 184.609V186.609C143.576 186.609 143.846 186.472 144.02 186.353C144.197 186.23 144.344 186.08 144.462 185.939C144.698 185.659 144.921 185.294 145.131 184.904C145.556 184.114 146.018 183.038 146.488 181.856L144.63 181.117ZM145.499 180.488C144.381 180.556 143.205 180.609 141.983 180.646L142.045 182.645C143.285 182.607 144.481 182.553 145.619 182.484L145.499 180.488Z" fill="#242D3C" mask="url(#path-20-inside-1_211_254)"/>
<path d="M105.067 179.865L104.209 177.936L105.281 177.078L109.14 173.863L110.64 173.005H112.569L113.427 173.434C114.113 174.12 113.997 176.864 113.855 178.15H111.712L109.569 178.793L107.854 180.294L106.567 181.794L105.067 179.865Z" fill="white"/>
<path d="M94.2692 183.059C96.9227 180.405 104.112 177.949 104.112 177.949C105.716 180.979 106.62 181.528 106.766 181.713C106.766 181.713 97.8704 192.375 91.3537 192.645C85.562 192.885 91.0794 182.193 95.6752 173.16C100.713 163.257 104.592 163.518 104.592 163.518C104.592 163.518 108.117 166.322 111.812 166.322" stroke="#242D3C" stroke-miterlimit="10" stroke-linecap="round"/>
<path d="M113.432 173.807C113.637 173.923 113.899 173.849 114.015 173.644C114.131 173.438 114.058 173.176 113.852 173.061L113.432 173.807ZM104.112 177.948C104.283 178.177 104.369 178.291 104.369 178.291C104.369 178.291 104.369 178.291 104.373 178.291C104.373 178.291 104.382 178.283 104.39 178.278C104.408 178.265 104.433 178.248 104.463 178.227C104.528 178.18 104.617 178.111 104.729 178.03C104.952 177.862 105.265 177.631 105.608 177.369C106.29 176.851 107.113 176.212 107.644 175.762L107.091 175.106C106.577 175.539 105.775 176.165 105.089 176.683C104.75 176.941 104.442 177.172 104.219 177.339C104.107 177.425 104.018 177.489 103.953 177.537C103.923 177.558 103.898 177.579 103.88 177.588C103.872 177.592 103.867 177.596 103.863 177.601C103.863 177.601 103.863 177.601 103.859 177.601C103.859 177.601 103.859 177.601 104.116 177.944L104.112 177.948ZM107.644 175.753C108.184 175.294 109.063 174.476 110.127 173.936C111.177 173.4 112.321 173.181 113.432 173.807L113.852 173.061C112.39 172.238 110.92 172.572 109.737 173.172C108.562 173.768 107.593 174.673 107.091 175.097L107.644 175.753Z" fill="#242D3C"/>
<path d="M110.643 174.579C110.643 174.579 112.543 173.936 114.107 174.579" stroke="#242D3C" stroke-miterlimit="10" stroke-linecap="round"/>
<path d="M110.643 175.865C110.643 175.865 112.543 175.221 114.107 175.865" stroke="#242D3C" stroke-miterlimit="10" stroke-linecap="round"/>
<path d="M110.643 177.152C110.643 177.152 112.543 176.504 114.107 177.152" stroke="#242D3C" stroke-miterlimit="10" stroke-linecap="round"/>
<path d="M108.65 179.492L108.363 179.174L108.341 179.196L108.32 179.222L108.65 179.492ZM113.572 178.574C113.803 178.617 114.026 178.459 114.069 178.227C114.112 177.995 113.953 177.773 113.722 177.73L113.576 178.574H113.572ZM106.768 181.712C106.982 181.901 107.089 181.995 107.089 181.995C107.089 181.995 107.094 181.991 107.098 181.982C107.107 181.974 107.119 181.961 107.137 181.939C107.167 181.901 107.214 181.85 107.274 181.781C107.389 181.648 107.553 181.459 107.741 181.241C108.114 180.804 108.59 180.246 108.984 179.766L108.32 179.222C107.93 179.697 107.463 180.246 107.089 180.684C106.905 180.902 106.742 181.087 106.627 181.22C106.571 181.288 106.524 181.339 106.494 181.374C106.476 181.391 106.463 181.404 106.459 181.416C106.459 181.421 106.451 181.425 106.451 181.429L106.772 181.712H106.768ZM108.654 179.496C108.846 179.707 108.942 179.813 108.942 179.813C108.942 179.813 108.95 179.809 108.954 179.8C108.967 179.792 108.989 179.771 109.014 179.749C109.07 179.706 109.152 179.642 109.263 179.564C109.482 179.41 109.808 179.209 110.219 179.02C111.042 178.647 112.2 178.334 113.576 178.574L113.722 177.73C112.135 177.455 110.802 177.815 109.863 178.24C109.396 178.454 109.027 178.681 108.77 178.862C108.642 178.952 108.543 179.028 108.474 179.084C108.44 179.11 108.414 179.136 108.393 179.149C108.384 179.157 108.376 179.161 108.371 179.17C108.371 179.17 108.367 179.174 108.363 179.174C108.363 179.174 108.458 179.28 108.65 179.492L108.654 179.496Z" fill="#242D3C"/>
<path d="M110.849 169.79C110.185 169.996 109.46 170.077 108.714 169.923C105.893 169.331 103.355 161.001 103.355 161.001H103.364C106.446 164.83 109.97 166.497 112.109 167.205H112.114" fill="white"/>
<path d="M110.849 169.79C110.185 169.996 109.46 170.077 108.714 169.923C105.893 169.331 103.355 161.001 103.355 161.001H103.364C106.446 164.83 109.97 166.497 112.109 167.205H112.114" stroke="#242D3C" stroke-linecap="round" stroke-linejoin="round"/>
<path d="M143.32 143.069C142.824 143.963 141.51 145.801 140.221 145.996C141.502 146.036 144.56 145.508 146.544 143.069C151.296 143.638 160.802 142.752 160.802 134.654C160.802 124.531 133.249 118.859 130.922 133.19C129.682 140.828 137.617 144.614 140.964 143.069" stroke="#242D3C" stroke-linecap="round" stroke-linejoin="round"/>
<path d="M139.828 133.565C140.156 133.243 142.608 135.627 143.382 136.254C145.523 134.641 151.087 129.732 151.743 130.163C152.563 130.7 143.929 139.139 143.382 139.139C142.835 139.139 139.418 133.969 139.828 133.565Z" fill="#242D3C" stroke="#242D3C" stroke-linecap="round" stroke-linejoin="round"/>
<path d="M121.573 159.931C130.576 153.715 149.225 149.642 161.229 169.792" stroke="#242D3C" stroke-width="0.5" stroke-linecap="round" stroke-linejoin="round"/>
<path d="M151.046 203.934C141.408 209.111 122.422 211.086 112.732 189.727" stroke="#242D3C" stroke-width="0.5" stroke-linecap="round" stroke-linejoin="round"/>
<path d="M158.984 150.361L156.919 153.636" stroke="#242D3C" stroke-linecap="round" stroke-linejoin="round"/>
<path d="M164.72 154.723L161.908 157.386" stroke="#242D3C" stroke-linecap="round" stroke-linejoin="round"/>
<path d="M169.149 160.605L165.697 162.359" stroke="#242D3C" stroke-linecap="round" stroke-linejoin="round"/>
<path d="M171.762 167.357L167.955 168.062" stroke="#242D3C" stroke-linecap="round" stroke-linejoin="round"/>
<path d="M131.51 209.443L131.941 212.291" stroke="#242D3C" stroke-linecap="round" stroke-linejoin="round"/>
</g>
<defs>
<filter id="filter0_d_211_254" x="32.75" y="9" width="182.502" height="366.448" filterUnits="userSpaceOnUse" color-interpolation-filters="sRGB">
<feFlood flood-opacity="0" result="BackgroundImageFix"/>
<feColorMatrix in="SourceAlpha" type="matrix" values="0 0 0 0 0 0 0 0 0 0 0 0 0 0 0 0 0 0 127 0" result="hardAlpha"/>
<feOffset/>
<feGaussianBlur stdDeviation="8"/>
<feComposite in2="hardAlpha" operator="out"/>
<feColorMatrix type="matrix" values="0 0 0 0 0.141176 0 0 0 0 0.176471 0 0 0 0 0.235294 0 0 0 0.08 0"/>
<feBlend mode="normal" in2="BackgroundImageFix" result="effect1_dropShadow_211_254"/>
<feBlend mode="normal" in="SourceGraphic" in2="effect1_dropShadow_211_254" result="shape"/>
</filter>
</defs>
</svg>
