<svg width="56" height="14" viewBox="0 0 56 14" fill="none" xmlns="http://www.w3.org/2000/svg">
<path d="M12.825 13.655V0.214999H10.815V13.655H12.825ZM1.44 2.465H6.69C6.405 5.54 4.32 8.63 0.825 10.31L2.115 11.735C5.865 9.725 8.865 5.975 8.82 0.754999H1.44V2.465ZM26.24 13.655V6.74H28.145V5H26.24V0.214999H24.23V13.655H26.24ZM22.52 5.075H17.33V2.36H22.745V0.65H15.32V11.525L23.63 11.06V9.38L17.33 9.665V6.77H22.52V5.075ZM32.9351 0.079999C30.7001 0.079999 28.9151 1.685 28.9151 3.935C28.9151 6.185 30.7001 7.79 32.9351 7.79C35.1701 7.79 36.9551 6.185 36.9551 3.935C36.9551 1.685 35.1701 0.079999 32.9351 0.079999ZM32.9351 6.08C31.6901 6.08 30.9251 5.21 30.9251 3.935C30.9251 2.66 31.6901 1.79 32.9351 1.79C34.1801 1.79 34.9451 2.66 34.9451 3.935C34.9451 5.21 34.1801 6.08 32.9351 6.08ZM40.7201 10.07V5.075H42.3101V3.335H40.7201V0.214999H38.7101V10.07H40.7201ZM30.6251 8.915V13.505H41.1551V11.795H32.6351V8.915H30.6251ZM50.4001 13.31H52.3501V6.68H53.6701V13.64H55.6501V0.214999H53.6701V4.94H52.3501V0.365H50.4001V13.31ZM43.7851 0.694999V11.21L49.8001 10.85V9.17L45.7651 9.35V0.694999H43.7851Z" fill="#242D3C"/>
</svg>
