<svg width="56" height="15" viewBox="0 0 56 15" fill="none" xmlns="http://www.w3.org/2000/svg">
<path d="M8.16 7.415C5.64 7.415 3.825 8.78 3.825 10.73C3.825 12.695 5.64 14.045 8.16 14.045C10.68 14.045 12.495 12.695 12.495 10.73C12.495 8.78 10.68 7.415 8.16 7.415ZM9.75 5.36C8.34 4.97 7.08 4.34 6.18 3.29L5.91 2.93C5.925 2.915 5.925 2.885 5.94 2.855C6.255 2.105 6.42 1.295 6.435 0.424999H4.395C4.26 3.17 2.625 5.045 0 5.945L1.23 7.415C2.475 6.95 3.765 6.08 4.74 4.88C4.845 4.76 4.935 4.625 5.04 4.49L5.055 4.52C6.045 5.69 7.35 6.53 8.655 6.92L9.75 5.36ZM12.54 7.55V4.52H14.13V2.81H12.54V0.214999H10.53V7.55H12.54ZM8.16 12.395C6.66 12.395 5.835 11.735 5.835 10.73C5.835 9.725 6.66 9.065 8.16 9.065C9.66 9.065 10.485 9.725 10.485 10.73C10.485 11.735 9.66 12.395 8.16 12.395ZM26.465 13.565V9.035H22.265V8.165H27.845V6.515H14.645V8.165H20.225V9.035H15.995V13.565H26.465ZM15.92 2.075H17.345L17.435 4.1H15.47V5.765H27.005V4.1H25.025L25.115 2.075H26.555V0.424999H15.92V2.075ZM18.005 10.685H24.455V11.885H18.005V10.685ZM19.355 2.075H23.105L23.015 4.1H19.445L19.355 2.075ZM32.9351 0.079999C30.7001 0.079999 28.9151 1.685 28.9151 3.935C28.9151 6.185 30.7001 7.79 32.9351 7.79C35.1701 7.79 36.9551 6.185 36.9551 3.935C36.9551 1.685 35.1701 0.079999 32.9351 0.079999ZM32.9351 6.08C31.6901 6.08 30.9251 5.21 30.9251 3.935C30.9251 2.66 31.6901 1.79 32.9351 1.79C34.1801 1.79 34.9451 2.66 34.9451 3.935C34.9451 5.21 34.1801 6.08 32.9351 6.08ZM40.7201 10.07V5.075H42.3101V3.335H40.7201V0.214999H38.7101V10.07H40.7201ZM30.6251 8.915V13.505H41.1551V11.795H32.6351V8.915H30.6251ZM50.4001 13.31H52.3501V6.68H53.6701V13.64H55.6501V0.214999H53.6701V4.94H52.3501V0.365H50.4001V13.31ZM43.7851 0.694999V11.21L49.8001 10.85V9.17L45.7651 9.35V0.694999H43.7851Z" fill="#242D3C"/>
</svg>
