<svg width="110" height="16" viewBox="0 0 110 16" fill="none" xmlns="http://www.w3.org/2000/svg">
<path d="M14.144 4.352H12.096V0.768H10.448V9.456H12.096V5.712H14.144V4.352ZM8.352 8.688L9.216 7.392C8.68267 7.21067 8.20267 6.97067 7.776 6.672C7.36 6.37333 7.008 6.03733 6.72 5.664C6.432 5.28 6.21333 4.86933 6.064 4.432C5.91467 3.99467 5.84 3.54133 5.84 3.072V1.52H4.176V2.944C4.176 3.46667 4.10133 3.97867 3.952 4.48C3.80267 4.97067 3.57867 5.42933 3.28 5.856C2.98133 6.28267 2.61333 6.66133 2.176 6.992C1.73867 7.32267 1.23733 7.584 0.672 7.776L1.552 9.088C2.384 8.77867 3.09333 8.33067 3.68 7.744C4.26667 7.15733 4.72 6.464 5.04 5.664C5.34933 6.34667 5.78133 6.95467 6.336 7.488C6.90133 8.01067 7.57333 8.41067 8.352 8.688ZM7.44 9.808C6.69333 9.808 6.02133 9.872 5.424 10C4.83733 10.1173 4.336 10.2933 3.92 10.528C3.504 10.752 3.184 11.0347 2.96 11.376C2.736 11.7067 2.624 12.0853 2.624 12.512C2.624 12.9387 2.736 13.3227 2.96 13.664C3.184 13.9947 3.504 14.2773 3.92 14.512C4.336 14.7467 4.83733 14.9227 5.424 15.04C6.02133 15.168 6.69333 15.232 7.44 15.232C8.19733 15.232 8.86933 15.168 9.456 15.04C10.0533 14.9227 10.56 14.7467 10.976 14.512C11.392 14.2773 11.7067 13.9947 11.92 13.664C12.144 13.3227 12.256 12.9387 12.256 12.512C12.256 11.6587 11.8293 10.9973 10.976 10.528C10.1227 10.048 8.944 9.808 7.44 9.808ZM7.44 13.936C6.40533 13.936 5.616 13.8187 5.072 13.584C4.528 13.3493 4.256 12.992 4.256 12.512C4.256 12.064 4.528 11.7173 5.072 11.472C5.616 11.2267 6.40533 11.104 7.44 11.104C8.47467 11.104 9.264 11.2267 9.808 11.472C10.352 11.7173 10.624 12.064 10.624 12.512C10.624 12.992 10.352 13.3493 9.808 13.584C9.264 13.8187 8.47467 13.936 7.44 13.936ZM18.7348 2.528V5.184H16.7668V6.512H27.3108V5.184H25.3588V2.528H27.3908V1.2H16.6868V2.528H18.7348ZM23.7108 2.528V5.184H20.3828V2.528H23.7108ZM22.8788 8.992H28.5908V7.664H15.5188V8.992H21.2308V10.464H17.0868V15.056H27.0068V10.464H22.8788V8.992ZM25.3908 11.776V13.744H18.7188V11.776H25.3908ZM40.5735 4.512V8.192H42.2215V0.768H40.5735V3.184H37.6455V4.512H40.5735ZM37.9175 7.952L38.7815 6.672C38.2375 6.49067 37.7522 6.256 37.3255 5.968C36.9095 5.68 36.5575 5.35467 36.2695 4.992C35.9815 4.61867 35.7575 4.21867 35.5975 3.792C35.4482 3.35467 35.3735 2.90667 35.3735 2.448V1.232H33.7255V2.448C33.7255 2.93867 33.6455 3.41867 33.4855 3.888C33.3362 4.35733 33.1122 4.78933 32.8135 5.184C32.5148 5.57867 32.1468 5.93067 31.7095 6.24C31.2722 6.54933 30.7708 6.79467 30.2055 6.976L31.0535 8.272C31.9175 7.97333 32.6428 7.54667 33.2295 6.992C33.8162 6.43733 34.2695 5.776 34.5895 5.008C34.8988 5.68 35.3308 6.272 35.8855 6.784C36.4402 7.296 37.1175 7.68533 37.9175 7.952ZM42.7175 13.76H34.4775V12.528H42.2215V8.88H32.8135V10.16H40.5895V11.312H32.8455V15.056H42.7175V13.76ZM52.2843 8.368V7.216H55.2923V9.296H56.9403V0.783999H55.2923V3.008H52.2843V1.856H45.5963V8.368H52.2843ZM50.6843 3.168V7.056H47.2123V3.168H50.6843ZM52.2843 4.352H55.2923V5.872H52.2843V4.352ZM52.1243 9.696C51.3776 9.696 50.7003 9.76 50.0923 9.888C49.4949 10.0053 48.9829 10.1867 48.5563 10.432C48.1403 10.6667 47.8203 10.9547 47.5963 11.296C47.3723 11.6373 47.2603 12.0267 47.2603 12.464C47.2603 12.9013 47.3723 13.2907 47.5963 13.632C47.8203 13.9733 48.1403 14.2613 48.5563 14.496C48.9829 14.7413 49.4949 14.9227 50.0923 15.04C50.7003 15.168 51.3776 15.232 52.1243 15.232C52.8816 15.232 53.5589 15.168 54.1562 15.04C54.7643 14.9227 55.2763 14.7413 55.6923 14.496C56.1189 14.2613 56.4443 13.9733 56.6683 13.632C56.8923 13.2907 57.0043 12.9013 57.0043 12.464C57.0043 12.0267 56.8923 11.6373 56.6683 11.296C56.4443 10.9547 56.1189 10.6667 55.6923 10.432C55.2763 10.1867 54.7643 10.0053 54.1562 9.888C53.5589 9.76 52.8816 9.696 52.1243 9.696ZM52.1243 13.952C51.0896 13.952 50.2949 13.824 49.7403 13.568C49.1856 13.312 48.9083 12.944 48.9083 12.464C48.9083 11.984 49.1856 11.6213 49.7403 11.376C50.2949 11.12 51.0896 10.992 52.1243 10.992C53.1589 10.992 53.9536 11.12 54.5083 11.376C55.0736 11.6213 55.3563 11.984 55.3563 12.464C55.3563 12.944 55.0736 13.312 54.5083 13.568C53.9536 13.824 53.1589 13.952 52.1243 13.952ZM75.1731 9.024V0.768H73.5091V9.024H75.1731ZM70.8531 7.68V1.68H64.0051V7.68H70.8531ZM69.2531 2.992V6.368H65.6211V2.992H69.2531ZM71.3171 11.184H75.4451V9.92H71.3011V8.624H69.6211V9.92H65.4771V11.184H69.6211C69.5891 11.4827 69.4505 11.7867 69.2051 12.096C68.9705 12.3947 68.6451 12.672 68.2291 12.928C67.8238 13.184 67.3385 13.4027 66.7731 13.584C66.2078 13.7653 65.5891 13.888 64.9171 13.952L65.4611 15.2C66.6238 15.0613 67.6371 14.7787 68.5011 14.352C69.3651 13.9253 70.0211 13.392 70.4691 12.752C70.9171 13.392 71.5625 13.9253 72.4051 14.352C73.2585 14.7787 74.2665 15.0613 75.4291 15.2L75.9731 13.952C75.3011 13.8773 74.6878 13.7493 74.1331 13.568C73.5785 13.376 73.0985 13.1573 72.6931 12.912C72.2878 12.656 71.9625 12.3787 71.7171 12.08C71.4825 11.7813 71.3491 11.4827 71.3171 11.184ZM92.846 4.208H94.846V2.848H92.846V0.783999H91.198V9.344H92.846V7.312H94.846V5.952H92.846V4.208ZM89.438 5.088C89.438 4.576 89.342 4.10667 89.15 3.68C88.958 3.25333 88.686 2.89067 88.334 2.592C87.9927 2.28267 87.5873 2.04267 87.118 1.872C86.6487 1.70133 86.1367 1.616 85.582 1.616C85.038 1.616 84.5313 1.70133 84.062 1.872C83.5927 2.04267 83.182 2.28267 82.83 2.592C82.4887 2.89067 82.222 3.25333 82.03 3.68C81.838 4.10667 81.742 4.576 81.742 5.088C81.742 5.6 81.838 6.06933 82.03 6.496C82.222 6.92267 82.4887 7.29067 82.83 7.6C83.182 7.89867 83.5927 8.13333 84.062 8.304C84.5313 8.47467 85.038 8.56 85.582 8.56C86.1367 8.56 86.6487 8.47467 87.118 8.304C87.5873 8.13333 87.9927 7.89867 88.334 7.6C88.686 7.29067 88.958 6.92267 89.15 6.496C89.342 6.06933 89.438 5.6 89.438 5.088ZM83.358 5.088C83.358 4.448 83.566 3.94133 83.982 3.568C84.4087 3.19467 84.942 3.008 85.582 3.008C86.2327 3.008 86.766 3.19467 87.182 3.568C87.6087 3.94133 87.822 4.448 87.822 5.088C87.822 5.728 87.6087 6.23467 87.182 6.608C86.766 6.98133 86.2327 7.168 85.582 7.168C84.942 7.168 84.4087 6.98133 83.982 6.608C83.566 6.23467 83.358 5.728 83.358 5.088ZM83.342 9.984V11.312H91.198V15.248H92.846V9.984H83.342ZM109.581 5.36H107.661V0.783999H105.997V11.632H107.661V6.72H109.581V5.36ZM102.301 6.8L103.917 6.976C104.098 6.03733 104.199 5.216 104.221 4.512C104.253 3.79733 104.269 3.19467 104.269 2.704V1.872H97.0048V3.216H102.653C102.642 3.664 102.615 4.18133 102.573 4.768C102.541 5.344 102.45 6.02133 102.301 6.8ZM105.229 8.896L105.117 7.696C104.402 7.81333 103.666 7.89867 102.909 7.952C102.162 8.00533 101.405 8.048 100.637 8.08V5.168H99.0048V8.128C98.4928 8.14933 97.9968 8.16 97.5168 8.16H96.1248L96.3008 9.504C96.9301 9.504 97.6074 9.49867 98.3328 9.488C99.0581 9.46667 99.8048 9.43467 100.573 9.392C101.351 9.34933 102.135 9.29067 102.925 9.216C103.714 9.13067 104.482 9.024 105.229 8.896ZM99.9648 13.616V10.672H98.3008V14.96H108.125V13.616H99.9648Z" fill="black"/>
</svg>
