<svg width="56" height="14" viewBox="0 0 56 14" fill="none" xmlns="http://www.w3.org/2000/svg">
<path d="M9.465 5.405C9.465 2.705 7.59 0.814999 5.115 0.814999C2.64 0.814999 0.765 2.705 0.765 5.405C0.765 8.105 2.64 9.995 5.115 9.995C7.59 9.995 9.465 8.105 9.465 5.405ZM7.455 5.405C7.455 7.145 6.495 8.285 5.115 8.285C3.735 8.285 2.775 7.145 2.775 5.405C2.775 3.665 3.735 2.525 5.115 2.525C6.495 2.525 7.455 3.665 7.455 5.405ZM12.975 13.655V0.214999H10.965V13.655H12.975ZM15.335 11.81C16.145 11.195 16.865 10.505 17.51 9.725C18.065 9.05 18.56 8.33 18.965 7.55L19.055 7.715C20.015 9.23 21.35 10.625 22.7 11.495L23.915 10.025C22.04 8.96 20.66 7.475 19.805 5.57C19.94 5.135 20.06 4.7 20.165 4.235C20.3 3.665 20.39 3.08 20.45 2.465H23.48V0.754999H14.885V2.465H18.395C18.35 2.93 18.275 3.395 18.185 3.845C17.645 6.62 16.28 8.915 13.985 10.415L15.335 11.81ZM26.39 13.655V6.74H28.295V5H26.39V0.214999H24.38V13.655H26.39ZM40.7201 7.175V4.22H42.3101V2.51H40.7201V0.214999H38.7101V7.175H40.7201ZM38.6801 11.885H32.5601V10.7H38.6801V11.885ZM40.6901 13.565V7.775H38.6801V9.11H32.5601V7.775H30.5501V13.565H40.6901ZM29.4101 0.5V6.86L38.1101 6.455V4.805L31.4201 5.03V0.5H29.4101ZM47.3401 0.0199997C45.1201 0.0199997 43.3801 1.52 43.3801 3.62C43.3801 5.72 45.1201 7.22 47.3401 7.22C49.5601 7.22 51.3001 5.72 51.3001 3.62C51.3001 1.52 49.5601 0.0199997 47.3401 0.0199997ZM47.3401 5.57C46.1401 5.57 45.3901 4.775 45.3901 3.62C45.3901 2.465 46.1401 1.67 47.3401 1.67C48.5401 1.67 49.2901 2.465 49.2901 3.62C49.2901 4.775 48.5401 5.57 47.3401 5.57ZM55.3651 7.175V0.214999H53.3551V7.175H55.3651ZM53.3251 11.885H47.0551V10.7H53.3251V11.885ZM55.3351 13.565V7.775H53.3251V9.11H47.0551V7.775H45.0451V13.565H55.3351Z" fill="#242D3C"/>
</svg>
