<svg width="249" height="108" viewBox="0 0 249 108" fill="none" xmlns="http://www.w3.org/2000/svg">
<path d="M43.5567 19.404H35.6587V14.916H41.4667V5.412H27.5627V14.916H33.3927V19.404H25.5607V21.252H43.5567V19.404ZM29.7847 13.112V7.216H39.2447V13.112H29.7847ZM63.179 13.354V11.462H60.077V3.828H57.811V23.716H60.077V13.354H63.179ZM52.575 5.456V10.516H47.647V5.456H45.381V19.008H54.819V5.456H52.575ZM52.575 12.32V17.182H47.647V12.32H52.575ZM80.2052 13.904V3.806H77.9392V13.904H80.2052ZM74.6392 8.954C74.6392 8.294 74.5072 7.69267 74.2432 7.15C73.9792 6.59267 73.6126 6.116 73.1432 5.72C72.6886 5.324 72.1386 5.016 71.4932 4.796C70.8479 4.576 70.1512 4.466 69.4032 4.466C68.6552 4.466 67.9659 4.576 67.3352 4.796C66.7046 5.016 66.1546 5.324 65.6852 5.72C65.2306 6.116 64.8712 6.59267 64.6072 7.15C64.3432 7.69267 64.2112 8.294 64.2112 8.954C64.2112 9.614 64.3432 10.2153 64.6072 10.758C64.8712 11.3007 65.2306 11.77 65.6852 12.166C66.1546 12.562 66.7046 12.87 67.3352 13.09C67.9659 13.31 68.6552 13.42 69.4032 13.42C70.1512 13.42 70.8479 13.31 71.4932 13.09C72.1386 12.87 72.6886 12.562 73.1432 12.166C73.6126 11.77 73.9792 11.3007 74.2432 10.758C74.5072 10.2153 74.6392 9.614 74.6392 8.954ZM66.4112 8.954C66.4112 8.558 66.4846 8.19867 66.6312 7.876C66.7926 7.55333 67.0052 7.282 67.2692 7.062C67.5332 6.82733 67.8486 6.65133 68.2152 6.534C68.5819 6.402 68.9779 6.336 69.4032 6.336C69.8432 6.336 70.2466 6.402 70.6132 6.534C70.9799 6.65133 71.2952 6.82733 71.5592 7.062C71.8379 7.282 72.0506 7.55333 72.1972 7.876C72.3586 8.19867 72.4392 8.558 72.4392 8.954C72.4392 9.35 72.3586 9.70933 72.1972 10.032C72.0506 10.3547 71.8379 10.6333 71.5592 10.868C71.2952 11.088 70.9799 11.264 70.6132 11.396C70.2466 11.5133 69.8432 11.572 69.4032 11.572C68.9779 11.572 68.5819 11.5133 68.2152 11.396C67.8486 11.264 67.5332 11.088 67.2692 10.868C67.0052 10.6333 66.7926 10.3547 66.6312 10.032C66.4846 9.70933 66.4112 9.35 66.4112 8.954ZM80.7992 21.67H69.4472V19.91H80.2052V14.806H67.1812V16.588H77.9612V18.238H67.2252V23.452H80.7992V21.67ZM103.163 18.26V3.828H100.897V18.26H103.163ZM97.7074 10.12C97.7074 9.38667 97.5754 8.71933 97.3114 8.118C97.0474 7.502 96.6734 6.974 96.1894 6.534C95.7201 6.094 95.1628 5.75667 94.5174 5.522C93.8868 5.27267 93.1974 5.148 92.4494 5.148C91.7014 5.148 91.0048 5.27267 90.3594 5.522C89.7141 5.75667 89.1568 6.094 88.6874 6.534C88.2181 6.974 87.8441 7.502 87.5654 8.118C87.3014 8.71933 87.1694 9.38667 87.1694 10.12C87.1694 10.8387 87.3014 11.506 87.5654 12.122C87.8441 12.7233 88.2181 13.244 88.6874 13.684C89.1568 14.124 89.7141 14.4687 90.3594 14.718C91.0048 14.9673 91.7014 15.092 92.4494 15.092C93.1974 15.092 93.8868 14.9673 94.5174 14.718C95.1628 14.4687 95.7201 14.124 96.1894 13.684C96.6734 13.244 97.0474 12.7233 97.3114 12.122C97.5754 11.506 97.7074 10.8387 97.7074 10.12ZM89.3914 10.12C89.3914 9.196 89.6774 8.46267 90.2494 7.92C90.8361 7.37733 91.5694 7.106 92.4494 7.106C92.8894 7.106 93.2928 7.17933 93.6594 7.326C94.0261 7.458 94.3488 7.656 94.6274 7.92C94.9061 8.184 95.1188 8.49933 95.2654 8.866C95.4268 9.23267 95.5074 9.65067 95.5074 10.12C95.5074 10.5747 95.4268 10.9853 95.2654 11.352C95.1188 11.7187 94.9061 12.034 94.6274 12.298C94.3488 12.562 94.0261 12.7673 93.6594 12.914C93.2928 13.0607 92.8894 13.134 92.4494 13.134C92.0094 13.134 91.5988 13.0607 91.2174 12.914C90.8508 12.7673 90.5281 12.562 90.2494 12.298C89.9854 12.034 89.7728 11.7187 89.6114 11.352C89.4648 10.9853 89.3914 10.5747 89.3914 10.12ZM103.735 21.472H92.4714V16.808H90.1834V23.32H103.735V21.472ZM106.814 10.384L107.628 12.144C109.402 11.9533 110.92 11.5207 112.182 10.846C113.458 10.1713 114.367 9.32067 114.91 8.294C115.438 9.32067 116.34 10.1713 117.616 10.846C118.906 11.5207 120.432 11.9533 122.192 12.144L122.984 10.384C122.06 10.296 121.209 10.1347 120.432 9.9C119.669 9.66533 119.002 9.37933 118.43 9.042C117.858 8.70467 117.396 8.33067 117.044 7.92C116.706 7.50933 116.501 7.07667 116.428 6.622H122.258V4.796H107.584V6.622H113.37C113.296 7.07667 113.084 7.50933 112.732 7.92C112.394 8.33067 111.94 8.70467 111.368 9.042C110.796 9.37933 110.121 9.66533 109.344 9.9C108.581 10.1347 107.738 10.296 106.814 10.384ZM123.886 13.156H105.912V14.982H123.886V13.156ZM114.866 16.412C113.81 16.412 112.856 16.4927 112.006 16.654C111.155 16.8153 110.436 17.0573 109.85 17.38C109.263 17.688 108.808 18.0693 108.486 18.524C108.178 18.9787 108.024 19.492 108.024 20.064C108.024 20.636 108.178 21.1493 108.486 21.604C108.808 22.0587 109.263 22.44 109.85 22.748C110.436 23.056 111.155 23.2907 112.006 23.452C112.856 23.6133 113.81 23.694 114.866 23.694C117.066 23.694 118.752 23.3787 119.926 22.748C121.114 22.1173 121.708 21.2227 121.708 20.064C121.708 19.492 121.546 18.9787 121.224 18.524C120.916 18.0693 120.468 17.688 119.882 17.38C119.295 17.0573 118.576 16.8153 117.726 16.654C116.89 16.4927 115.936 16.412 114.866 16.412ZM114.866 21.912C113.399 21.912 112.277 21.758 111.5 21.45C110.722 21.142 110.334 20.68 110.334 20.064C110.334 19.448 110.722 18.986 111.5 18.678C112.277 18.3553 113.399 18.194 114.866 18.194C116.332 18.194 117.454 18.3553 118.232 18.678C119.024 18.986 119.42 19.448 119.42 20.064C119.42 20.68 119.024 21.142 118.232 21.45C117.454 21.758 116.332 21.912 114.866 21.912ZM141.572 3.784H139.284V10.318H135.038V12.166H139.284V23.716H141.572V3.784ZM132.266 8.712V5.434H129.978V8.712C129.978 9.636 129.861 10.56 129.626 11.484C129.391 12.408 129.054 13.2733 128.614 14.08C128.189 14.872 127.661 15.5907 127.03 16.236C126.414 16.8813 125.717 17.3947 124.94 17.776L126.37 19.58C127.514 18.9933 128.482 18.1573 129.274 17.072C130.081 15.972 130.704 14.7107 131.144 13.288C131.569 14.6227 132.171 15.8107 132.948 16.852C133.74 17.8933 134.708 18.6927 135.852 19.25L137.194 17.424C136.431 17.072 135.742 16.5953 135.126 15.994C134.525 15.378 134.011 14.6887 133.586 13.926C133.161 13.1487 132.831 12.32 132.596 11.44C132.376 10.5453 132.266 9.636 132.266 8.712ZM159.712 7.15V5.5H155.202V3.652H152.914V5.5H148.36V7.15H159.712ZM166.312 11.572V9.702H163.584V3.85H161.318V17.27H163.584V11.572H166.312ZM160.438 15.972L160.262 14.388C159.456 14.5053 158.627 14.6007 157.776 14.674C156.94 14.7327 156.082 14.784 155.202 14.828V13.596C156.302 13.464 157.168 13.156 157.798 12.672C158.444 12.1733 158.766 11.528 158.766 10.736C158.766 10.2667 158.649 9.84867 158.414 9.482C158.194 9.11533 157.879 8.80733 157.468 8.558C157.058 8.30867 156.559 8.118 155.972 7.986C155.4 7.83933 154.755 7.766 154.036 7.766C153.318 7.766 152.665 7.83933 152.078 7.986C151.506 8.118 151.015 8.30867 150.604 8.558C150.194 8.80733 149.871 9.11533 149.636 9.482C149.416 9.84867 149.306 10.2667 149.306 10.736C149.306 11.528 149.622 12.1733 150.252 12.672C150.883 13.1707 151.77 13.4787 152.914 13.596V14.916C151.99 14.9453 151.103 14.96 150.252 14.96H147.854L148.118 16.764C148.984 16.764 149.915 16.7567 150.912 16.742C151.91 16.7273 152.936 16.698 153.992 16.654C155.063 16.5953 156.141 16.5147 157.226 16.412C158.312 16.3093 159.382 16.1627 160.438 15.972ZM151.44 10.736C151.44 10.2813 151.675 9.92933 152.144 9.68C152.614 9.416 153.244 9.284 154.036 9.284C154.828 9.284 155.459 9.416 155.928 9.68C156.398 9.92933 156.632 10.2813 156.632 10.736C156.632 11.176 156.398 11.5207 155.928 11.77C155.459 12.0193 154.828 12.144 154.036 12.144C153.244 12.144 152.614 12.0193 152.144 11.77C151.675 11.5207 151.44 11.176 151.44 10.736ZM150.318 18.15V19.954H161.318V23.716H163.584V18.15H150.318ZM183.536 18.26V3.828H181.27V18.26H183.536ZM178.08 10.12C178.08 9.38667 177.948 8.71933 177.684 8.118C177.42 7.502 177.046 6.974 176.562 6.534C176.093 6.094 175.536 5.75667 174.89 5.522C174.26 5.27267 173.57 5.148 172.822 5.148C172.074 5.148 171.378 5.27267 170.732 5.522C170.087 5.75667 169.53 6.094 169.06 6.534C168.591 6.974 168.217 7.502 167.938 8.118C167.674 8.71933 167.542 9.38667 167.542 10.12C167.542 10.8387 167.674 11.506 167.938 12.122C168.217 12.7233 168.591 13.244 169.06 13.684C169.53 14.124 170.087 14.4687 170.732 14.718C171.378 14.9673 172.074 15.092 172.822 15.092C173.57 15.092 174.26 14.9673 174.89 14.718C175.536 14.4687 176.093 14.124 176.562 13.684C177.046 13.244 177.42 12.7233 177.684 12.122C177.948 11.506 178.08 10.8387 178.08 10.12ZM169.764 10.12C169.764 9.196 170.05 8.46267 170.622 7.92C171.209 7.37733 171.942 7.106 172.822 7.106C173.262 7.106 173.666 7.17933 174.032 7.326C174.399 7.458 174.722 7.656 175 7.92C175.279 8.184 175.492 8.49933 175.638 8.866C175.8 9.23267 175.88 9.65067 175.88 10.12C175.88 10.5747 175.8 10.9853 175.638 11.352C175.492 11.7187 175.279 12.034 175 12.298C174.722 12.562 174.399 12.7673 174.032 12.914C173.666 13.0607 173.262 13.134 172.822 13.134C172.382 13.134 171.972 13.0607 171.59 12.914C171.224 12.7673 170.901 12.562 170.622 12.298C170.358 12.034 170.146 11.7187 169.984 11.352C169.838 10.9853 169.764 10.5747 169.764 10.12ZM184.108 21.472H172.844V16.808H170.556V23.32H184.108V21.472ZM195.283 4.95C194.256 4.95 193.295 5.08933 192.401 5.368C191.506 5.632 190.729 6.01333 190.069 6.512C189.423 6.996 188.91 7.58267 188.529 8.272C188.162 8.96133 187.979 9.724 187.979 10.56C187.979 11.4107 188.162 12.1807 188.529 12.87C188.91 13.5593 189.423 14.1533 190.069 14.652C190.729 15.136 191.506 15.51 192.401 15.774C193.295 16.038 194.256 16.17 195.283 16.17C196.324 16.17 197.285 16.038 198.165 15.774C199.059 15.51 199.829 15.136 200.475 14.652C201.135 14.1533 201.648 13.5593 202.015 12.87C202.396 12.1807 202.587 11.4107 202.587 10.56C202.587 9.724 202.396 8.96133 202.015 8.272C201.648 7.58267 201.135 6.996 200.475 6.512C199.829 6.01333 199.059 5.632 198.165 5.368C197.285 5.08933 196.324 4.95 195.283 4.95ZM195.283 6.82C196.016 6.82 196.691 6.908 197.307 7.084C197.937 7.26 198.48 7.50933 198.935 7.832C199.389 8.15467 199.741 8.55067 199.991 9.02C200.255 9.47467 200.387 9.988 200.387 10.56C200.387 11.132 200.255 11.6527 199.991 12.122C199.741 12.5767 199.389 12.9653 198.935 13.288C198.48 13.6107 197.937 13.86 197.307 14.036C196.691 14.212 196.016 14.3 195.283 14.3C194.549 14.3 193.867 14.212 193.237 14.036C192.621 13.86 192.085 13.6107 191.631 13.288C191.176 12.9653 190.817 12.5767 190.553 12.122C190.303 11.6527 190.179 11.132 190.179 10.56C190.179 9.988 190.303 9.47467 190.553 9.02C190.817 8.55067 191.176 8.15467 191.631 7.832C192.085 7.50933 192.621 7.26 193.237 7.084C193.867 6.908 194.549 6.82 195.283 6.82ZM204.303 19.316H186.307V21.186H204.303V19.316ZM223.441 19.492H215.543V16.104H221.747V14.278H209.845V11.506H221.307V5.214H207.579V7.04H219.063V9.702H207.623V16.104H213.277V19.492H205.445V21.362H223.441V19.492ZM10.6859 40.914H15.4819V43.532H17.7479V31.806H15.4819V34.556H10.6859C10.2166 34.0573 9.65192 33.6687 8.99192 33.39C8.33192 33.0967 7.58392 32.95 6.74792 32.95C5.99992 32.95 5.31059 33.0673 4.67992 33.302C4.04926 33.5367 3.49926 33.8667 3.02992 34.292C2.57526 34.7173 2.21592 35.2233 1.95192 35.81C1.68792 36.3967 1.55592 37.042 1.55592 37.746C1.55592 38.45 1.68792 39.0953 1.95192 39.682C2.21592 40.254 2.57526 40.7527 3.02992 41.178C3.49926 41.6033 4.04926 41.9333 4.67992 42.168C5.31059 42.4027 5.99992 42.52 6.74792 42.52C7.55459 42.52 8.29526 42.3807 8.96992 42.102C9.64459 41.8233 10.2166 41.4273 10.6859 40.914ZM3.71192 37.746C3.71192 37.306 3.78526 36.91 3.93192 36.558C4.09326 36.206 4.30592 35.9053 4.56992 35.656C4.83392 35.4067 5.14926 35.216 5.51592 35.084C5.89726 34.9373 6.30792 34.864 6.74792 34.864C7.62792 34.864 8.34659 35.128 8.90392 35.656C9.46126 36.1693 9.73992 36.866 9.73992 37.746C9.73992 38.626 9.46126 39.3227 8.90392 39.836C8.34659 40.3493 7.62792 40.606 6.74792 40.606C6.30792 40.606 5.89726 40.54 5.51592 40.408C5.14926 40.2613 4.83392 40.0633 4.56992 39.814C4.30592 39.5647 4.09326 39.264 3.93192 38.912C3.78526 38.56 3.71192 38.1713 3.71192 37.746ZM11.7199 36.404H15.4819V39.088H11.6979C11.8299 38.6627 11.8959 38.2153 11.8959 37.746C11.8959 37.5407 11.8813 37.328 11.8519 37.108C11.8226 36.888 11.7786 36.6533 11.7199 36.404ZM11.1259 43.972C10.0993 43.972 9.16792 44.06 8.33192 44.236C7.51059 44.412 6.80659 44.6687 6.21992 45.006C5.64792 45.3287 5.20792 45.732 4.89992 46.216C4.59192 46.6853 4.43792 47.2207 4.43792 47.822C4.43792 48.438 4.59192 48.988 4.89992 49.472C5.20792 49.9413 5.64792 50.3373 6.21992 50.66C6.80659 50.9973 7.51059 51.254 8.33192 51.43C9.16792 51.606 10.0993 51.694 11.1259 51.694C12.1673 51.694 13.0986 51.606 13.9199 51.43C14.7413 51.254 15.4453 50.9973 16.0319 50.66C16.6186 50.3373 17.0659 49.9413 17.3739 49.472C17.6819 48.988 17.8359 48.438 17.8359 47.822C17.8359 47.2207 17.6819 46.6853 17.3739 46.216C17.0659 45.732 16.6186 45.3287 16.0319 45.006C15.4453 44.6687 14.7413 44.412 13.9199 44.236C13.0986 44.06 12.1673 43.972 11.1259 43.972ZM11.1259 49.912C9.70326 49.912 8.60326 49.7433 7.82592 49.406C7.04859 49.054 6.65992 48.526 6.65992 47.822C6.65992 47.162 7.04859 46.656 7.82592 46.304C8.60326 45.9373 9.70326 45.754 11.1259 45.754C12.5486 45.754 13.6486 45.9373 14.4259 46.304C15.2033 46.656 15.5919 47.162 15.5919 47.822C15.5919 48.526 15.2033 49.054 14.4259 49.406C13.6486 49.7433 12.5486 49.912 11.1259 49.912ZM36.8862 31.828H34.6202V36.404H30.9462C30.8435 35.8467 30.6382 35.3407 30.3302 34.886C30.0369 34.4313 29.6629 34.0427 29.2082 33.72C28.7682 33.3973 28.2622 33.148 27.6902 32.972C27.1329 32.796 26.5315 32.708 25.8862 32.708C25.1382 32.708 24.4489 32.8253 23.8182 33.06C23.1875 33.28 22.6375 33.5953 22.1682 34.006C21.7135 34.4167 21.3542 34.908 21.0902 35.48C20.8262 36.0373 20.6942 36.6607 20.6942 37.35C20.6942 38.0393 20.8262 38.67 21.0902 39.242C21.3542 39.814 21.7135 40.3053 22.1682 40.716C22.6375 41.1267 23.1875 41.4493 23.8182 41.684C24.4489 41.904 25.1382 42.014 25.8862 42.014C26.5462 42.014 27.1622 41.926 27.7342 41.75C28.3062 41.5593 28.8122 41.3027 29.2522 40.98C29.6922 40.6427 30.0589 40.2467 30.3522 39.792C30.6455 39.3227 30.8435 38.8093 30.9462 38.252H34.6202V42.476H36.8862V31.828ZM25.8862 40.144C25.0062 40.144 24.2802 39.8873 23.7082 39.374C23.1509 38.8607 22.8722 38.186 22.8722 37.35C22.8722 36.4993 23.1509 35.8247 23.7082 35.326C24.2802 34.8273 25.0062 34.578 25.8862 34.578C26.7662 34.578 27.4849 34.8273 28.0422 35.326C28.5995 35.8247 28.8782 36.4993 28.8782 37.35C28.8782 37.7607 28.7975 38.142 28.6362 38.494C28.4895 38.8313 28.2842 39.1247 28.0202 39.374C27.7562 39.6233 27.4409 39.814 27.0742 39.946C26.7075 40.078 26.3115 40.144 25.8862 40.144ZM34.6422 43.422V45.666H26.2162V43.422H23.9722V51.452H36.8862V43.422H34.6422ZM34.6422 47.426V49.626H26.2162V47.426H34.6422ZM56.0245 31.806H53.7585V36.646H50.2385V38.494H53.7585V43.378H56.0245V31.806ZM50.2605 42.872L51.3605 41.112C50.6272 40.848 49.9672 40.5033 49.3805 40.078C48.8085 39.6527 48.3245 39.176 47.9285 38.648C47.5325 38.12 47.2318 37.5553 47.0265 36.954C46.8212 36.3527 46.7185 35.744 46.7185 35.128V34.798H50.8545V32.972H40.2285V34.798H44.4305V35.128C44.4305 35.8027 44.3205 36.47 44.1005 37.13C43.8805 37.7753 43.5578 38.384 43.1325 38.956C42.7218 39.5133 42.2158 40.0193 41.6145 40.474C41.0132 40.914 40.3238 41.266 39.5465 41.53L40.7125 43.312C41.9005 42.9013 42.9052 42.2853 43.7265 41.464C44.5478 40.6427 45.1785 39.6967 45.6185 38.626C46.0438 39.594 46.6452 40.452 47.4225 41.2C48.2145 41.9333 49.1605 42.4907 50.2605 42.872ZM42.9785 44.28V51.452H56.0245V44.28H42.9785ZM45.2005 49.648V46.084H53.8025V49.648H45.2005ZM80.8527 36.668H78.0367V31.828H75.7707V43.686H78.0367V38.538H80.8527V36.668ZM72.5807 42.322V33.082H70.3367V35.832H65.4747V33.082H63.2087V42.322H72.5807ZM70.3367 37.614V40.518H65.4747V37.614H70.3367ZM71.6347 44.148C70.608 44.148 69.684 44.236 68.8627 44.412C68.056 44.588 67.3667 44.8373 66.7947 45.16C66.2227 45.4827 65.7827 45.8787 65.4747 46.348C65.1667 46.8173 65.0127 47.3453 65.0127 47.932C65.0127 48.5187 65.1667 49.0467 65.4747 49.516C65.7827 49.9853 66.2227 50.3813 66.7947 50.704C67.3667 51.0413 68.056 51.2907 68.8627 51.452C69.684 51.628 70.608 51.716 71.6347 51.716C72.6614 51.716 73.578 51.628 74.3847 51.452C75.206 51.2907 75.9027 51.0413 76.4747 50.704C77.0467 50.3813 77.4867 49.9853 77.7947 49.516C78.1027 49.0467 78.2567 48.5187 78.2567 47.932C78.2567 47.3453 78.1027 46.8173 77.7947 46.348C77.4867 45.8787 77.0467 45.4827 76.4747 45.16C75.9027 44.8373 75.206 44.588 74.3847 44.412C73.578 44.236 72.6614 44.148 71.6347 44.148ZM71.6347 49.934C70.212 49.934 69.1267 49.7653 68.3787 49.428C67.6307 49.0907 67.2567 48.592 67.2567 47.932C67.2567 47.272 67.6307 46.7807 68.3787 46.458C69.1267 46.1207 70.212 45.952 71.6347 45.952C73.0574 45.952 74.1427 46.1207 74.8907 46.458C75.6387 46.7807 76.0127 47.272 76.0127 47.932C76.0127 48.592 75.6387 49.0907 74.8907 49.428C74.1427 49.7653 73.0574 49.934 71.6347 49.934ZM97.329 39.88V32.708H83.931V39.88H97.329ZM95.107 34.512V38.076H86.153V34.512H95.107ZM99.661 41.838H81.643V43.664H89.695V47.382H91.961V43.664H99.661V41.838ZM86.109 49.472V45.578H83.843V51.32H97.659V49.472H86.109ZM117.259 31.806H114.993V36.646H111.473V38.494H114.993V43.378H117.259V31.806ZM111.495 42.872L112.595 41.112C111.862 40.848 111.202 40.5033 110.615 40.078C110.043 39.6527 109.559 39.176 109.163 38.648C108.767 38.12 108.467 37.5553 108.261 36.954C108.056 36.3527 107.953 35.744 107.953 35.128V34.798H112.089V32.972H101.463V34.798H105.665V35.128C105.665 35.8027 105.555 36.47 105.335 37.13C105.115 37.7753 104.793 38.384 104.367 38.956C103.957 39.5133 103.451 40.0193 102.849 40.474C102.248 40.914 101.559 41.266 100.781 41.53L101.947 43.312C103.135 42.9013 104.14 42.2853 104.961 41.464C105.783 40.6427 106.413 39.6967 106.853 38.626C107.279 39.594 107.88 40.452 108.657 41.2C109.449 41.9333 110.395 42.4907 111.495 42.872ZM104.213 44.28V51.452H117.259V44.28H104.213ZM106.435 49.648V46.084H115.037V49.648H106.435ZM134.277 38.164H137.951V42.344H140.217V31.85H137.951V36.294H134.255C134.153 35.7513 133.947 35.26 133.639 34.82C133.346 34.3653 132.979 33.984 132.539 33.676C132.099 33.3533 131.593 33.104 131.021 32.928C130.449 32.752 129.841 32.664 129.195 32.664C128.447 32.664 127.758 32.7813 127.127 33.016C126.497 33.236 125.947 33.5513 125.477 33.962C125.023 34.358 124.663 34.842 124.399 35.414C124.15 35.9713 124.025 36.5873 124.025 37.262C124.025 37.9513 124.15 38.582 124.399 39.154C124.663 39.726 125.023 40.2173 125.477 40.628C125.947 41.024 126.497 41.3393 127.127 41.574C127.758 41.794 128.447 41.904 129.195 41.904C129.855 41.904 130.471 41.816 131.043 41.64C131.615 41.464 132.121 41.2147 132.561 40.892C133.001 40.5547 133.368 40.1587 133.661 39.704C133.969 39.2347 134.175 38.7213 134.277 38.164ZM126.203 37.262C126.203 36.426 126.482 35.766 127.039 35.282C127.597 34.7833 128.315 34.534 129.195 34.534C130.075 34.534 130.794 34.7833 131.351 35.282C131.923 35.766 132.209 36.426 132.209 37.262C132.209 37.6727 132.129 38.054 131.967 38.406C131.821 38.7433 131.615 39.0367 131.351 39.286C131.087 39.5207 130.772 39.704 130.405 39.836C130.039 39.968 129.635 40.034 129.195 40.034C128.315 40.034 127.597 39.7847 127.039 39.286C126.482 38.7727 126.203 38.098 126.203 37.262ZM138.787 44.918V43.334H136.543V44.918C136.543 45.402 136.47 45.8933 136.323 46.392C136.191 46.876 135.979 47.3453 135.685 47.8C135.392 48.24 135.025 48.6433 134.585 49.01C134.145 49.3767 133.625 49.6847 133.023 49.934L134.167 51.65C135.018 51.298 135.722 50.814 136.279 50.198C136.851 49.5967 137.306 48.922 137.643 48.174C137.951 48.9367 138.391 49.6187 138.963 50.22C139.55 50.836 140.283 51.3127 141.163 51.65L142.285 49.934C141.684 49.714 141.163 49.428 140.723 49.076C140.283 48.724 139.917 48.328 139.623 47.888C139.345 47.448 139.132 46.9787 138.985 46.48C138.853 45.9667 138.787 45.446 138.787 44.918ZM133.023 43.488H130.933V45.732H128.095V43.488H125.983V51.452H133.023V43.488ZM130.933 47.404V49.714H128.095V47.404H130.933ZM159.246 31.806H156.958V51.738H159.246V31.806ZM148.664 33.28C147.93 33.28 147.248 33.4487 146.618 33.786C146.002 34.1087 145.466 34.578 145.012 35.194C144.557 35.7953 144.198 36.5287 143.934 37.394C143.684 38.2447 143.56 39.2053 143.56 40.276C143.56 41.3467 143.684 42.322 143.934 43.202C144.198 44.0673 144.557 44.8007 145.012 45.402C145.466 46.0033 146.002 46.4727 146.618 46.81C147.248 47.1327 147.93 47.294 148.664 47.294C149.412 47.294 150.094 47.1327 150.71 46.81C151.34 46.4727 151.883 46.0033 152.338 45.402C152.792 44.8007 153.144 44.0673 153.394 43.202C153.658 42.322 153.79 41.3467 153.79 40.276C153.79 39.2053 153.658 38.2447 153.394 37.394C153.144 36.5287 152.792 35.7953 152.338 35.194C151.883 34.578 151.34 34.1087 150.71 33.786C150.094 33.4487 149.412 33.28 148.664 33.28ZM148.664 35.326C149.544 35.326 150.255 35.766 150.798 36.646C151.34 37.5113 151.612 38.7213 151.612 40.276C151.612 41.8747 151.34 43.1067 150.798 43.972C150.255 44.8373 149.544 45.27 148.664 45.27C147.784 45.27 147.072 44.8373 146.53 43.972C146.002 43.1067 145.738 41.8747 145.738 40.276C145.738 38.7213 146.002 37.5113 146.53 36.646C147.072 35.766 147.784 35.326 148.664 35.326ZM182.358 31.806H180.07V39.22H176.198C176.125 38.3107 175.949 37.4893 175.67 36.756C175.391 36.0227 175.032 35.3993 174.592 34.886C174.152 34.3727 173.639 33.9767 173.052 33.698C172.48 33.4193 171.864 33.28 171.204 33.28C170.471 33.28 169.796 33.4487 169.18 33.786C168.564 34.1087 168.036 34.578 167.596 35.194C167.156 35.7953 166.811 36.5287 166.562 37.394C166.313 38.2447 166.188 39.2053 166.188 40.276C166.188 41.3467 166.313 42.322 166.562 43.202C166.811 44.0673 167.156 44.8007 167.596 45.402C168.036 46.0033 168.564 46.4727 169.18 46.81C169.796 47.1327 170.471 47.294 171.204 47.294C171.879 47.294 172.509 47.1547 173.096 46.876C173.683 46.5827 174.196 46.1647 174.636 45.622C175.076 45.0793 175.435 44.4267 175.714 43.664C175.993 42.9013 176.161 42.036 176.22 41.068H180.07V51.738H182.358V31.806ZM171.204 45.27C170.353 45.27 169.664 44.8373 169.136 43.972C168.608 43.1067 168.344 41.8747 168.344 40.276C168.344 38.7213 168.608 37.5113 169.136 36.646C169.664 35.766 170.353 35.326 171.204 35.326C172.084 35.326 172.781 35.766 173.294 36.646C173.822 37.5113 174.086 38.7213 174.086 40.276C174.086 41.8747 173.822 43.1067 173.294 43.972C172.781 44.8373 172.084 45.27 171.204 45.27ZM201.342 31.806H199.054V51.738H201.342V31.806ZM188.472 44.984V35.524H195.688V33.654H186.228V46.876H187.878C188.905 46.876 189.844 46.8687 190.694 46.854C191.56 46.8393 192.366 46.81 193.114 46.766C193.877 46.7073 194.61 46.6413 195.314 46.568C196.018 46.48 196.73 46.37 197.448 46.238L197.206 44.346C196.546 44.478 195.886 44.588 195.226 44.676C194.581 44.7493 193.914 44.8153 193.224 44.874C192.535 44.918 191.802 44.9473 191.024 44.962C190.247 44.9767 189.396 44.984 188.472 44.984ZM220.634 31.784H218.346V38.318H214.1V40.166H218.346V51.716H220.634V31.784ZM211.328 36.712V33.434H209.04V36.712C209.04 37.636 208.923 38.56 208.688 39.484C208.454 40.408 208.116 41.2733 207.676 42.08C207.251 42.872 206.723 43.5907 206.092 44.236C205.476 44.8813 204.78 45.3947 204.002 45.776L205.432 47.58C206.576 46.9933 207.544 46.1573 208.336 45.072C209.143 43.972 209.766 42.7107 210.206 41.288C210.632 42.6227 211.233 43.8107 212.01 44.852C212.802 45.8933 213.77 46.6927 214.914 47.25L216.256 45.424C215.494 45.072 214.804 44.5953 214.188 43.994C213.587 43.378 213.074 42.6887 212.648 41.926C212.223 41.1487 211.893 40.32 211.658 39.44C211.438 38.5453 211.328 37.636 211.328 36.712ZM241.665 41.442V39.572H238.651V31.828H236.385V51.694H238.651V41.442H241.665ZM226.221 44.852V33.764H223.955V46.744H225.605C227.115 46.744 228.641 46.6853 230.181 46.568C231.735 46.436 233.356 46.2013 235.043 45.864L234.779 43.994C233.268 44.302 231.809 44.522 230.401 44.654C228.993 44.7713 227.599 44.8373 226.221 44.852ZM245.909 45.468L246.349 33.434H243.797L243.863 36.03L244.215 45.468H245.909ZM243.775 50.286H246.371V47.558H243.775V50.286Z" fill="black"/>
<path d="M21.8148 82.3V81.67H16.5088V78.338H20.3588V72.64H11.9308V78.338H15.7668V81.67H10.5168V82.3H21.8148ZM19.6448 77.736H12.6448V73.242H19.6448V77.736ZM32.1597 77.26H34.3437V76.588H32.1597V71.548H31.4177V83.98H32.1597V77.26ZM28.9117 72.626H28.1837V76.07H24.0117V72.626H23.2697V80.928H28.9117V72.626ZM24.0117 76.686H28.1837V80.298H24.0117V76.686ZM44.2546 78.016H44.9966V71.534H44.2546V78.016ZM41.5106 74.754C41.5106 73.13 40.2086 72.038 38.3746 72.038C36.5406 72.038 35.2386 73.13 35.2386 74.754C35.2386 76.364 36.5406 77.456 38.3746 77.456C40.2086 77.456 41.5106 76.364 41.5106 74.754ZM35.9666 74.754C35.9666 73.578 36.9886 72.668 38.3746 72.668C39.7606 72.668 40.7826 73.578 40.7826 74.754C40.7826 75.958 39.7606 76.84 38.3746 76.84C36.9886 76.84 35.9666 75.958 35.9666 74.754ZM45.4866 83.784V83.168H37.8706V81.446H44.9966V78.688H37.1006V79.304H44.2686V80.858H37.1426V83.784H45.4866ZM52.6815 76.126C55.4255 76.126 56.9795 75.356 56.9795 73.942C56.9795 72.542 55.3835 71.772 52.6815 71.772C49.9795 71.772 48.3835 72.542 48.3835 73.942C48.3835 75.356 49.9375 76.126 52.6815 76.126ZM52.6815 72.36C54.8655 72.36 56.2235 72.976 56.2235 73.942C56.2235 74.936 54.8655 75.538 52.6815 75.538C50.4975 75.538 49.1395 74.936 49.1395 73.942C49.1395 72.976 50.4975 72.36 52.6815 72.36ZM58.2955 77.736V77.106H47.0535V77.736H58.2955ZM57.2175 83.182H49.2235V81.586H56.8115V79.024H48.4675V79.626H56.0835V81.012H48.4955V83.798H57.2175V83.182ZM72.878 78.87V78.24H67.628V76.728H71.492V76.126H63.918V74.586H71.086V73.984H63.918V72.528H71.436V71.926H63.176V76.728H66.886V78.24H61.65V78.87H72.878ZM67.264 80.032C64.52 80.032 63.036 80.69 63.036 81.978C63.036 83.266 64.52 83.938 67.264 83.938C70.008 83.938 71.492 83.266 71.492 81.978C71.492 80.69 70.008 80.032 67.264 80.032ZM67.264 83.35C65.066 83.35 63.778 82.874 63.778 81.978C63.778 81.124 65.066 80.606 67.264 80.606C69.462 80.606 70.75 81.124 70.75 81.978C70.75 82.874 69.462 83.35 67.264 83.35ZM84.2589 83.98V71.548H83.5309V76.896H81.5569V71.856H80.8289V83.322H81.5569V77.526H83.5309V83.98H84.2589ZM80.1009 73.83H77.3149V71.926H76.5729V73.83H73.8009V74.46H80.1009V73.83ZM76.9369 75.454C75.4249 75.454 74.3049 76.588 74.3049 78.212C74.3049 79.85 75.4249 80.984 76.9369 80.984C78.4769 80.984 79.5829 79.85 79.5829 78.212C79.5829 76.588 78.4769 75.454 76.9369 75.454ZM76.9369 80.34C75.8029 80.34 74.9769 79.416 74.9769 78.212C74.9769 77.036 75.8029 76.084 76.9369 76.084C78.0989 76.084 78.9109 77.036 78.9109 78.212C78.9109 79.416 78.0989 80.34 76.9369 80.34ZM97.7773 80.732H98.5193V71.562H97.7773V80.732ZM95.0613 75.454C95.0613 73.69 93.7313 72.458 91.9113 72.458C90.0913 72.458 88.7613 73.69 88.7613 75.454C88.7613 77.232 90.0913 78.478 91.9113 78.478C93.7313 78.478 95.0613 77.232 95.0613 75.454ZM89.4753 75.454C89.4753 74.11 90.5253 73.116 91.9113 73.116C93.2973 73.116 94.3473 74.11 94.3473 75.454C94.3473 76.798 93.2973 77.82 91.9113 77.82C90.5253 77.82 89.4753 76.798 89.4753 75.454ZM98.9393 83.672V83.042H91.4493V79.766H90.7073V83.672H98.9393ZM101.304 76.042L101.584 76.644C103.418 76.378 105.546 75.44 106.218 73.984C106.89 75.44 109.004 76.378 110.838 76.644L111.118 76.042C109.186 75.776 106.652 74.67 106.652 72.99V72.836H110.81V72.22H101.626V72.836H105.784V72.99C105.784 74.67 103.25 75.776 101.304 76.042ZM111.818 78.198V77.568H100.576V78.198H111.818ZM106.218 79.5C103.586 79.5 101.976 80.312 101.976 81.726C101.976 83.168 103.572 83.938 106.218 83.938C108.85 83.938 110.432 83.168 110.432 81.726C110.432 80.312 108.85 79.5 106.218 79.5ZM106.218 83.336C104.076 83.336 102.718 82.734 102.718 81.726C102.718 80.718 104.076 80.116 106.218 80.116C108.332 80.116 109.69 80.718 109.69 81.726C109.69 82.734 108.332 83.336 106.218 83.336ZM122.891 83.994V71.548H122.149V75.972H118.943V76.588H122.149V83.994H122.891ZM116.913 75.174V72.696H116.171V75.174C116.171 77.442 114.477 79.794 112.839 80.69L113.315 81.278C114.701 80.494 116.017 78.786 116.549 76.826C117.067 78.688 118.453 80.312 119.839 81.054L120.273 80.452C118.635 79.626 116.913 77.372 116.913 75.174ZM136.47 76.07V75.44H134.524V71.52H133.782V80.676H134.524V76.07H136.47ZM125.55 78.31H131.136V72.71H125.55V78.31ZM126.278 73.326H130.422V77.694H126.278V73.326ZM135.14 83.042H127.678V79.822H126.936V83.672H135.14V83.042ZM142.727 72.43C140.165 72.43 138.289 73.76 138.289 75.762C138.289 77.778 140.165 79.094 142.727 79.094C145.289 79.094 147.179 77.778 147.179 75.762C147.179 73.76 145.289 72.43 142.727 72.43ZM142.727 73.046C144.869 73.046 146.493 74.18 146.493 75.762C146.493 77.358 144.869 78.492 142.727 78.492C140.599 78.492 138.975 77.358 138.975 75.762C138.975 74.18 140.599 73.046 142.727 73.046ZM148.397 82.244V81.614H137.113V82.244H148.397ZM160.59 82.356V81.712H155.284V79.094H159.4V78.464H151.504V76.07H159.106V72.542H150.734V73.158H158.378V75.454H150.776V79.094H154.542V81.712H149.292V82.356H160.59ZM170.384 75.72H173.268V80.746H174.01V71.548H173.268V75.09H170.384C170.23 73.466 168.97 72.374 167.248 72.374C165.428 72.374 164.098 73.592 164.098 75.384C164.098 77.176 165.428 78.394 167.248 78.394C168.942 78.394 170.202 77.302 170.384 75.72ZM164.812 75.384C164.812 74.054 165.862 73.032 167.248 73.032C168.634 73.032 169.684 74.054 169.684 75.384C169.684 76.742 168.634 77.736 167.248 77.736C165.862 77.736 164.812 76.742 164.812 75.384ZM174.388 83.672V83.042H166.982V79.822H166.24V83.672H174.388ZM186.553 83.98V71.548H185.825V83.98H186.553ZM184.047 71.884H183.333V76.126H181.023V76.77H183.333V83.294H184.047V71.884ZM179.525 75.188V73.746H182.003V73.116H176.235V73.746H178.811V75.188C178.811 77.554 177.635 79.822 175.955 80.83L176.445 81.39C177.733 80.592 178.741 79.024 179.175 77.162C179.609 78.898 180.547 80.312 181.835 81.096L182.311 80.536C180.673 79.598 179.525 77.372 179.525 75.188ZM200.772 83.98V71.548H200.03V76.434H196.922C196.81 74.068 195.592 72.556 193.912 72.556C192.134 72.556 190.888 74.236 190.888 76.826C190.888 79.444 192.134 81.096 193.912 81.096C195.62 81.096 196.866 79.514 196.936 77.05H200.03V83.98H200.772ZM193.912 80.452C192.526 80.452 191.588 78.954 191.588 76.826C191.588 74.698 192.526 73.214 193.912 73.214C195.298 73.214 196.236 74.698 196.236 76.826C196.236 78.954 195.298 80.452 193.912 80.452ZM212.908 83.994V71.548H212.166V83.994H212.908ZM204.62 80.172H204.396V73.424H209.45V72.766H203.654V80.83H204.62C207.014 80.83 208.666 80.746 210.71 80.368L210.612 79.724C208.666 80.102 206.958 80.172 204.62 80.172ZM225.129 83.994V71.548H224.387V75.972H221.181V76.588H224.387V83.994H225.129ZM219.151 75.174V72.696H218.409V75.174C218.409 77.442 216.715 79.794 215.077 80.69L215.553 81.278C216.939 80.494 218.255 78.786 218.787 76.826C219.305 78.688 220.691 80.312 222.077 81.054L222.511 80.452C220.873 79.626 219.151 77.372 219.151 75.174ZM228.628 76.308H237.084V75.678H229.37V72.752H236.986V72.122H228.628V76.308ZM238.428 78.534V77.904H227.186V78.534H238.428ZM237.21 83.028H229.426V80.074H228.684V83.658H237.21V83.028ZM83.1949 100.704H83.9369V91.562H83.1949V100.704ZM80.8289 98.59L81.2209 98.002C79.4989 97.33 77.9869 95.538 77.9869 93.536V92.248H77.2589V93.536C77.2589 95.622 75.8029 97.498 74.0529 98.24L74.4729 98.842C75.9289 98.184 77.1329 96.868 77.6369 95.174C78.1549 96.756 79.3729 97.988 80.8289 98.59ZM84.3569 103.672V103.042H76.8669V99.878H76.1249V103.672H84.3569ZM92.9378 98.492L93.2878 97.918C91.5658 97.358 90.0398 95.888 90.0398 94.208V93.802H92.9658V93.172H90.0538V91.464H89.3118V93.172H86.3578V93.802H89.3118V94.208C89.3118 96.028 87.8418 97.638 86.1198 98.24L86.4978 98.814C87.9538 98.268 89.1858 97.134 89.7038 95.636C90.2498 96.994 91.4958 98.002 92.9378 98.492ZM95.3878 91.548V95.23H92.5738V95.86H95.3878V99.08H96.1298V91.548H95.3878ZM92.1118 99.472C89.5358 99.472 88.0378 100.256 88.0378 101.712C88.0378 103.126 89.5358 103.938 92.1118 103.938C94.6458 103.938 96.1858 103.126 96.1858 101.712C96.1858 100.27 94.6458 99.472 92.1118 99.472ZM92.1118 103.336C90.0958 103.336 88.7798 102.72 88.7798 101.712C88.7798 100.704 90.0958 100.088 92.1118 100.088C94.1418 100.088 95.4578 100.704 95.4578 101.712C95.4578 102.72 94.1418 103.336 92.1118 103.336ZM98.2287 93.396H105.593V92.794H102.289V91.38H101.547V92.794H98.2287V93.396ZM109.709 95.314V94.67H107.763V91.478H107.021V98.436H107.763V95.314H109.709ZM104.837 96.154C104.837 94.866 103.661 94.11 101.911 94.11C100.133 94.11 98.9707 94.866 98.9707 96.154C98.9707 97.442 100.119 98.198 101.911 98.198C103.689 98.198 104.837 97.442 104.837 96.154ZM99.6707 96.154C99.6707 95.258 100.567 94.684 101.911 94.684C103.255 94.684 104.137 95.258 104.137 96.154C104.137 97.05 103.255 97.624 101.911 97.624C100.567 97.624 99.6707 97.05 99.6707 96.154ZM108.267 103.196H100.805V101.698H107.763V99.15H100.049V99.752H107.035V101.11H100.077V103.798H108.267V103.196ZM123.031 97.078L123.339 96.462C121.477 96.168 118.775 94.684 118.775 92.794V92.024H118.005V92.794C118.005 94.74 115.331 96.168 113.427 96.462L113.749 97.078C115.485 96.742 117.655 95.65 118.397 94.012C119.153 95.636 121.309 96.742 123.031 97.078ZM118.733 99.318H123.997L124.011 98.688H112.755V99.318H117.991V103.966H118.733V99.318ZM136.718 98.688H137.46V91.548H136.718V98.688ZM130.838 98.016C132.7 98.016 134.002 96.868 134.002 95.174C134.002 93.452 132.7 92.318 130.838 92.318C129.004 92.318 127.702 93.452 127.702 95.174C127.702 96.868 129.004 98.016 130.838 98.016ZM130.838 92.948C132.252 92.948 133.288 93.886 133.288 95.174C133.288 96.448 132.252 97.386 130.838 97.386C129.438 97.386 128.416 96.448 128.416 95.174C128.416 93.886 129.438 92.948 130.838 92.948ZM135.99 100.074V99.248H135.276V100.074C135.276 101.054 134.562 102.426 133.302 103.168C132.028 102.496 131.356 101.25 131.356 100.074V99.248H130.642V100.074C130.642 101.264 129.564 102.636 128.038 103.238L128.416 103.812C129.648 103.322 130.53 102.426 130.978 101.362C131.314 102.44 132.084 103.42 133.316 103.91C134.492 103.364 135.248 102.356 135.626 101.334C136.06 102.412 136.942 103.322 138.23 103.812L138.608 103.238C137.054 102.678 135.99 101.376 135.99 100.074ZM149.778 96.266L150.072 95.664C148.224 95.384 145.522 94.068 145.522 92.346V91.674H144.766V92.346C144.766 94.082 142.106 95.398 140.216 95.664L140.51 96.266C142.274 95.972 144.388 94.978 145.144 93.438C145.9 94.95 148.014 95.972 149.778 96.266ZM150.758 97.974V97.344H139.516V97.974H150.758ZM149.26 98.982H148.532V100.69H141.742V98.982H141.014V103.784H149.26V98.982ZM141.742 101.292H148.532V103.168H141.742V101.292ZM161.761 103.98V91.548H161.019V103.98H161.761ZM153.543 100.032H153.305V92.766H152.577V100.69H153.543C155.573 100.69 157.449 100.522 159.647 100.074L159.535 99.43C157.393 99.878 155.517 100.032 153.543 100.032ZM173.338 97.274H175.522V96.644H173.338V91.548H172.596V103.994H173.338V97.274ZM165.386 100.172H165.19V93.41H170.202V92.78H164.448V100.816H165.386C167.822 100.816 169.404 100.746 171.35 100.368L171.252 99.724C169.39 100.06 167.794 100.172 165.386 100.172Z" fill="black"/>
</svg>
