<svg width="26" height="25" viewBox="0 0 26 25" fill="none" xmlns="http://www.w3.org/2000/svg">
<path d="M23.4001 20.4948V12.6688C23.4001 12.1243 23.2846 11.5855 23.0605 11.0855C22.8365 10.5855 22.5086 10.1347 22.097 9.76077L14.429 2.79278C14.0429 2.44171 13.5316 2.24609 13.0001 2.24609C12.4686 2.24609 11.9573 2.44171 11.5711 2.79278L3.90322 9.76077C3.49161 10.1347 3.16373 10.5855 2.93966 11.0855C2.71558 11.5855 2.60004 12.1243 2.6001 12.6688V20.4948C2.6001 21.0252 2.81924 21.5339 3.20932 21.909C3.59939 22.284 4.12845 22.4948 4.6801 22.4948H21.3201C21.8717 22.4948 22.4008 22.284 22.7909 21.909C23.1809 21.5339 23.4001 21.0252 23.4001 20.4948Z" stroke="black" stroke-width="2" stroke-linecap="round" stroke-linejoin="round"/>
</svg>
