<svg width="217" height="175" viewBox="0 0 217 175" fill="none" xmlns="http://www.w3.org/2000/svg">
<g filter="url(#filter0_f_233_593)">
<ellipse cx="127" cy="159.5" rx="55" ry="7.5" fill="#E4E4E4"/>
</g>
<g filter="url(#filter1_f_233_593)">
<ellipse cx="52" cy="163.5" rx="46" ry="5.5" fill="#E4E4E4"/>
</g>
<rect x="68" y="146" width="37" height="11" rx="2" fill="#D39800" stroke="#706258" stroke-width="2"/>
<rect x="70" y="135" width="37" height="11" rx="2" fill="#D39800" stroke="#706258" stroke-width="2"/>
<rect x="66" y="124" width="37" height="11" rx="2" fill="#D39800" stroke="#706258" stroke-width="2"/>
<rect x="48" y="151" width="37" height="11" rx="2" fill="#FFC82C" stroke="#706258" stroke-width="2"/>
<rect x="50" y="140" width="37" height="11" rx="2" fill="#FFC82C" stroke="#706258" stroke-width="2"/>
<rect x="46" y="129" width="37" height="11" rx="2" fill="#FFC82C" stroke="#706258" stroke-width="2"/>
<rect x="68" y="113" width="37" height="11" rx="2" fill="#D39800" stroke="#706258" stroke-width="2"/>
<rect x="12.5859" y="155.141" width="37" height="11" rx="2" transform="rotate(-45.8657 12.5859 155.141)" fill="#FFC82C" stroke="#706258" stroke-width="2"/>
<path d="M106.876 7.75141C105.526 10.3065 101.669 15.4167 97.0397 15.4167C96.4386 14.1151 95.656 12.1812 95.0067 10.11C94.5793 8.7466 94.2096 7.32372 93.9874 5.98248C93.6805 4.13061 93.6548 2.43439 94.1465 1.26536C94.5964 0.806904 96.017 0.68263 98.7756 2.06181C99.7577 2.55285 100.909 3.23448 102.247 4.15946C103.596 5.09163 105.133 6.27094 106.876 7.75141Z" fill="#D1121A"/>
<path fill-rule="evenodd" clip-rule="evenodd" d="M94.9205 1.92159C94.7015 2.64135 94.6625 3.63165 94.7882 4.81954C95.3393 4.65195 95.943 4.40449 96.47 4.07024C97.1227 3.65617 97.5628 3.17668 97.7384 2.62154C96.7356 2.17118 95.9981 1.97585 95.4901 1.91942C95.2028 1.8875 95.0238 1.90229 94.9205 1.92159ZM98.7756 2.06179L99.2014 1.21152C100.231 1.72639 101.422 2.4324 102.789 3.37759C104.167 4.33045 105.729 5.52958 107.493 7.02692L108.074 7.52084L107.718 8.19529C107.002 9.55079 105.639 11.5565 103.837 13.2372C102.049 14.9053 99.704 16.3675 97.0397 16.3675H96.4307L96.1756 15.8151C95.5589 14.4795 94.7611 12.5075 94.0986 10.3941C93.6626 9.00327 93.2801 7.53555 93.0485 6.13775C92.7365 4.25474 92.6671 2.32855 93.2692 0.897015L93.3397 0.729469L93.467 0.5997C93.9989 0.0576605 94.8389 -0.0662318 95.7005 0.0294923C96.6068 0.130191 97.7634 0.49254 99.2014 1.21152L98.7756 2.06179ZM99.4438 3.50163C99.0435 4.46519 98.2733 5.17877 97.49 5.67561C96.7139 6.16794 95.8468 6.50315 95.0917 6.71131C95.2411 7.43117 95.4277 8.16969 95.6384 8.90487C96.5835 8.55957 97.729 8.03035 98.7511 7.33588C99.9399 6.5281 100.824 5.59252 101.171 4.57819C100.549 4.16265 99.9735 3.80615 99.4438 3.50163ZM102.77 5.7005C102.147 7.04843 100.989 8.11505 99.8214 8.90827C98.621 9.72391 97.2951 10.3308 96.2067 10.7216C96.6791 12.1203 97.1938 13.4155 97.6401 14.4324C99.39 14.2379 101.07 13.217 102.538 11.8473C103.884 10.5919 104.967 9.12055 105.659 7.97065C104.616 7.10297 103.655 6.35078 102.77 5.7005Z" fill="black"/>
<path d="M149.124 7.75141C150.474 10.3065 154.331 15.4167 158.96 15.4167C159.561 14.1151 160.344 12.1812 160.993 10.11C161.421 8.7466 161.79 7.32372 162.013 5.98248C162.319 4.13061 162.345 2.43439 161.854 1.26536C161.404 0.806904 159.983 0.68263 157.224 2.06181C156.242 2.55285 155.091 3.23448 153.753 4.15946C152.404 5.09163 150.867 6.27094 149.124 7.75141Z" fill="#D1121A"/>
<path fill-rule="evenodd" clip-rule="evenodd" d="M161.08 1.92159C161.299 2.64135 161.337 3.63165 161.212 4.81954C160.661 4.65195 160.057 4.40449 159.53 4.07024C158.877 3.65617 158.437 3.17668 158.262 2.62154C159.264 2.17118 160.002 1.97585 160.51 1.91942C160.797 1.8875 160.976 1.90229 161.08 1.92159ZM157.224 2.06179L156.799 1.21152C155.769 1.72639 154.578 2.4324 153.211 3.37759C151.833 4.33045 150.271 5.52958 148.507 7.02692L147.926 7.52084L148.282 8.19529C148.998 9.55079 150.361 11.5565 152.163 13.2372C153.951 14.9053 156.296 16.3675 158.96 16.3675H159.569L159.824 15.8151C160.441 14.4795 161.239 12.5075 161.901 10.3941C162.337 9.00327 162.72 7.53555 162.951 6.13775C163.263 4.25474 163.333 2.32855 162.731 0.897015L162.66 0.729469L162.533 0.5997C162.001 0.0576605 161.161 -0.0662318 160.3 0.0294923C159.393 0.130191 158.237 0.49254 156.799 1.21152L157.224 2.06179ZM156.556 3.50163C156.957 4.46519 157.727 5.17877 158.51 5.67561C159.286 6.16794 160.153 6.50315 160.908 6.71131C160.759 7.43117 160.572 8.16969 160.362 8.90487C159.417 8.55957 158.271 8.03035 157.249 7.33588C156.06 6.5281 155.176 5.59252 154.829 4.57819C155.451 4.16265 156.027 3.80615 156.556 3.50163ZM153.23 5.7005C153.853 7.04843 155.011 8.11505 156.179 8.90827C157.379 9.72391 158.705 10.3308 159.793 10.7216C159.321 12.1203 158.806 13.4155 158.36 14.4324C156.61 14.2379 154.93 13.217 153.462 11.8473C152.116 10.5919 151.033 9.12055 150.341 7.97065C151.384 7.10297 152.345 6.35078 153.23 5.7005Z" fill="black"/>
<path fill-rule="evenodd" clip-rule="evenodd" d="M75.8716 29.9987C75.7594 30.074 75.5855 30.2388 75.3773 30.5917C75.0952 31.07 74.8412 31.743 74.6311 32.5637C74.2572 34.0235 74.0776 35.7245 74.0207 37.0819L76.6423 40.9298C76.6372 40.7649 76.6331 40.6007 76.6299 40.4373C76.5741 37.6134 76.7818 34.7507 77.0107 32.8436L77.0177 32.7855L77.0291 32.7282C77.3701 31.0233 76.9439 30.4647 76.7697 30.3C76.5573 30.0992 76.2097 29.9965 75.8716 29.9987ZM78.0011 48.2524C78.245 48.733 78.5505 49.1941 78.9393 49.583L81.2396 47.6778L80.6037 46.7444C79.9862 45.4001 79.6821 43.052 79.6293 40.3781C79.5773 37.7451 79.7699 35.0521 79.9827 33.2564C80.4227 30.9904 80.0123 29.2368 78.8303 28.1197C77.7153 27.0659 76.2567 26.9161 75.3139 27.0339L75.1666 27.0523L75.0257 27.0993C73.9749 27.4495 73.2662 28.266 72.7935 29.0673C72.3121 29.8832 71.9716 30.8559 71.7249 31.8194C71.2298 33.7524 71.041 35.9364 71.0062 37.4887C71.002 37.6745 71 37.8529 71 38.0223C71 38.6731 71.4144 39.227 71.9936 39.4347L78.0011 48.2524Z" fill="black" stroke="black" stroke-linecap="round"/>
<path d="M98.1249 73.6057C98.1249 73.6057 74 72.0001 53.2703 39.5126C53.2703 39.5126 47.5266 31.5743 54.8275 25.4191C54.8275 25.4191 62.8866 18.1626 72.0731 31.0378L98.1249 73.6057Z" fill="url(#paint0_linear_233_593)"/>
<path d="M172.872 57.4185C172.872 57.4185 188.244 77.8568 185.126 110.075C185.126 110.075 184.604 119.478 175.761 119.622C175.761 119.622 165.728 120.124 166.667 104.952L172.872 57.4185Z" fill="url(#paint1_linear_233_593)"/>
<path d="M54.2067 24.9323C54.1276 24.9969 54.0837 25.0328 54.0661 25.0471C47.6368 30.4631 49.938 37.4519 52.0477 40.3815C61.4709 54.7441 73.5001 65.0001 81.5001 70.0001C90.2962 74.8494 96.5002 77.2645 96.7649 77.3199L99.4582 77.8953L72.724 30.4155C69.0043 25.1873 64.9731 22.5753 60.7028 22.6146C57.2512 22.6349 54.8041 24.4444 54.2067 24.9323ZM94.7911 74.5391C87.5802 72.2093 68.1388 60.7528 53.8857 39.0458C53.6606 38.7336 48.851 31.845 55.2979 26.4147C55.4063 26.3143 57.3602 24.636 60.3574 24.6326C63.9517 24.6258 67.5936 27.0833 70.8978 31.7298L94.7911 74.5391Z" fill="black"/>
<path d="M176.384 121.07C175.747 121.07 173.014 120.937 170.584 118.813C167.609 116.208 166.293 111.764 166.667 105.596L173.004 55.9719L174.542 58.0607C174.694 58.2651 189.614 78.9306 186.597 110.786C186.405 114.262 184.057 120.928 176.516 121.061C176.516 121.07 176.465 121.07 176.384 121.07ZM174.36 61.3849L168.692 105.747C168.358 111.231 169.491 115.319 171.981 117.524C174.056 119.364 176.354 119.293 176.455 119.293C184.006 119.159 184.563 111.026 184.583 110.68C186.962 85.5524 178.024 67.5712 174.36 61.3849Z" fill="black"/>
<path d="M171.576 95.8284V95.809C171.576 95.7993 171.576 95.7799 171.587 95.7702C171.597 95.7411 171.597 95.7023 171.597 95.6731C176.749 65.0505 172.088 41.7268 172.088 41.7268V40.7562C170.803 19.3834 151.732 2.41724 128.387 2.41724C105.042 2.41724 85.9707 19.3834 84.6749 40.7659V41.7365C84.6749 41.7365 80.0143 65.0602 85.166 95.6828C85.166 95.712 85.1765 95.7508 85.1765 95.7799C85.1765 95.7896 85.1765 95.809 85.1869 95.8187C85.1869 95.8187 85.1869 95.8284 85.1869 95.8381C85.6258 98.4394 88.0607 112.368 89.0011 114.784C93.3169 130.353 101.217 147.887 102.649 148.722C102.649 148.722 99.1689 159.913 110.058 159.913C110.058 159.913 123.956 161.097 123.956 150.45C123.956 150.45 120.727 133.401 128.366 133.401C136.005 133.401 132.776 150.45 132.776 150.45C133.006 162.068 146.674 159.913 146.674 159.913C157.333 160.126 154.083 148.722 154.083 148.722C155.515 147.887 164.575 125.616 168.89 110.048C169.862 107.621 171.137 98.4296 171.576 95.8284Z" fill="url(#paint2_linear_233_593)"/>
<path d="M85.1765 95.7799C85.1765 95.7507 85.166 95.7119 85.166 95.6828C89.2465 105.259 103.235 124.41 126.543 124.41C137.141 123.921 160.985 117.519 171.576 95.8284C171.137 98.4296 169.862 107.621 168.89 110.048C164.575 125.616 155.515 147.887 154.083 148.722C154.083 148.722 157.333 160.126 146.674 159.913C146.674 159.913 133.006 162.068 132.776 150.449C132.776 150.449 136.005 133.401 128.366 133.401C120.727 133.401 123.956 150.449 123.956 150.449C123.956 161.097 110.058 159.913 110.058 159.913C99.1688 159.913 102.649 148.722 102.649 148.722C101.217 147.887 93.3169 130.353 89.0011 114.784C88.0606 112.368 85.6258 98.4393 85.1869 95.8381V95.8187C85.1765 95.809 85.1765 95.7896 85.1765 95.7799Z" fill="url(#paint3_linear_233_593)"/>
<path d="M144.229 161C141.794 161 138.178 160.583 135.43 158.476C133.058 156.652 131.825 153.944 131.752 150.42V150.343L131.762 150.265C132.41 145.732 133.392 138.593 130.142 135.138C129.63 134.594 129.076 134.342 128.387 134.342C127.697 134.342 127.143 134.594 126.631 135.138C123.381 138.584 124.363 145.732 125.011 150.265L125.022 150.391C125.022 153.458 123.945 155.933 121.835 157.719C117.477 161.417 110.287 160.845 109.984 160.825C109.974 160.825 109.974 160.825 109.964 160.825C106.776 160.825 104.331 159.874 102.805 157.991C100.287 154.885 101.175 150.275 101.541 148.838C98.6672 144.393 90.8925 125.412 88.0083 115.008C86.9842 112.377 84.3509 97.0707 84.1732 96.0225L84.1628 95.9448L84.119 95.7022L84.1419 95.838C79.1677 66.3413 83.3163 43.27 83.6298 41.6491V40.7658C84.9674 18.6942 104.624 1.44653 128.387 1.44653C152.15 1.44653 171.806 18.6942 173.143 40.7173V41.6588C173.447 43.2797 177.595 66.351 172.631 95.838L172.6 95.9836C172.516 96.4883 172.402 97.2454 172.255 98.1578C171.461 103.312 170.625 108.495 169.894 110.368C167.271 119.851 158.211 143.84 155.211 148.819C155.535 150.226 156.413 155.079 153.759 158.205C152.244 160 149.84 160.874 146.758 160.835C146.454 160.883 145.504 161 144.229 161ZM133.841 150.459C133.915 153.352 134.897 155.535 136.757 156.972C140.435 159.816 146.465 158.923 146.528 158.913L146.622 158.894H146.716C149.203 158.933 151.021 158.311 152.118 157.001C154.543 154.147 153.111 148.974 153.09 148.926L152.988 148.4L153.435 147.916C155.013 145.8 163.446 125.849 167.898 109.795C168.65 107.854 169.653 101.37 170.186 97.8763C170.332 96.9542 170.447 96.1875 170.531 95.673L170.552 95.5857C175.631 65.4289 171.106 42.1344 171.064 41.9014L171.043 41.7267V40.7561C169.779 19.8201 151.032 3.36834 128.376 3.36834C105.721 3.36834 86.9842 19.8104 85.7094 40.8046L85.6885 41.9014C85.6467 42.1344 81.1219 65.4289 86.1901 95.5177L86.211 95.6245C86.9006 99.7496 89.1578 112.29 89.9834 114.425C94.3619 130.198 101.792 146.062 103.296 147.887L103.706 148.4L103.652 148.926C103.641 148.974 102.147 153.953 104.467 156.817C105.575 158.185 107.466 158.884 110.058 158.884C110.214 158.894 116.745 159.398 120.413 156.283C122.064 154.885 122.9 152.924 122.911 150.449C122.618 148.401 120.622 138.535 125.032 133.857C125.941 132.886 127.06 132.401 128.366 132.401C129.672 132.401 130.79 132.886 131.699 133.857C136.12 138.545 134.134 148.372 133.841 150.459Z" fill="black"/>
<path d="M123.778 72.8C140.962 72.8 160.174 69.6011 148.561 43.4C161.626 19.4915 140.962 14 123.778 14C106.594 14 99.9294 27.1628 99.9294 43.4C99.9294 59.6372 106.594 72.8 123.778 72.8Z" fill="url(#paint4_radial_233_593)"/>
<path d="M93.1602 108.27C95.5009 110.572 98.0193 112.666 100.726 114.481C103.401 116.326 106.223 117.964 109.159 119.302C115.032 121.987 121.427 123.501 127.843 123.335C131.041 123.273 134.249 122.91 137.363 122.07C140.477 121.293 143.539 120.204 146.455 118.804C152.317 116.057 157.782 112.397 162.892 108.26C158.346 112.988 153.111 117.177 147.186 120.256C141.313 123.387 134.646 125.295 127.885 125.409C124.51 125.45 121.124 125.087 117.853 124.299C114.582 123.47 111.416 122.298 108.448 120.753C102.513 117.674 97.2461 113.413 93.1602 108.27Z" fill="black"/>
<path d="M119.365 49C119.816 49.9333 122.141 51.8 124.511 51.8C125.866 51.8 128.954 51.24 130.471 49" stroke="black" stroke-width="1.5" stroke-linecap="round"/>
<path d="M155.071 100.1C155.071 113.4 142.526 118.3 127.051 118.3C111.577 118.3 99.5413 111.3 99.5413 100.862C99.5413 86.8619 111.577 82.6001 127.051 82.6001C142.526 82.6001 155.071 86.8001 155.071 100.1Z" fill="url(#paint5_linear_233_593)"/>
<path d="M132.732 100.529C134.171 99.9744 135.356 98.7136 135.356 96.6373C135.356 93.544 132.512 91.6611 129.084 91.6611H118.503C118.401 91.6611 118.316 91.7368 118.316 91.8377V94.6536C118.316 94.746 118.401 94.8301 118.503 94.8301H128.356C129.947 94.8301 131.022 95.7379 131.022 96.8559C131.022 97.9739 129.947 98.8817 128.356 98.8817H122.498V96.7886C122.498 96.6878 122.413 96.6121 122.312 96.6121H118.503C118.401 96.6121 118.316 96.6878 118.316 96.7886V109.212C118.316 109.313 118.401 109.389 118.503 109.389H128.94C132.842 109.389 135.635 107.691 135.635 104.219C135.635 102.513 134.56 101.109 132.74 100.521L132.732 100.529ZM128.559 106.304H122.498V102.143H128.559C130.193 102.143 131.293 103.076 131.293 104.219C131.293 105.363 130.193 106.296 128.559 106.296V106.304Z" fill="#D71921"/>
<ellipse cx="112" cy="46.5" rx="3" ry="1.5" fill="#FF9D9D"/>
<ellipse cx="138" cy="46.5" rx="3" ry="1.5" fill="#FF9D9D"/>
<path d="M90.2306 57.567L84.4461 49.6134C83.7588 48.6684 82.2856 49.468 82.7035 50.5593L82.9538 51.2127C82.9845 51.2928 83.0247 51.3679 83.0751 51.4373C84.8759 53.9164 87.5534 56.5827 89.5511 58.2751C90.285 58.8969 90.7963 58.3449 90.2306 57.567Z" fill="black"/>
<path d="M81.3182 67.3018C83.8636 68.5657 85 70.3797 85 71.0818L87 56C85.1818 53.8935 83 52 78.5 46L81.3182 67.3018Z" fill="url(#paint6_linear_233_593)"/>
<path d="M75.5 28.5224C76.8333 28.3558 79.3 29.0224 78.5 33.0224C78.0557 36.7249 77.6904 44.1909 79.2983 47.4925L80 48.5224C79.7326 48.255 79.4999 47.9065 79.2983 47.4925L72.5058 37.5224C72.5724 34.5516 73.2336 29.2779 75.5 28.5224Z" fill="url(#paint7_linear_233_593)"/>
<line x1="73.75" y1="130" x2="73.75" y2="139" stroke="#706258" stroke-width="1.5"/>
<path d="M31.658 135.716L38.8886 142.891" stroke="#706258" stroke-width="1.5"/>
<line x1="78.5" y1="130" x2="78.5" y2="139" stroke="#706258"/>
<path d="M35.2123 132.307L42.384 139.316" stroke="#706258"/>
<line x1="73.75" y1="152" x2="73.75" y2="161" stroke="#706258" stroke-width="1.5"/>
<line x1="78.5" y1="152" x2="78.5" y2="161" stroke="#706258"/>
<line x1="75.75" y1="141" x2="75.75" y2="150" stroke="#706258" stroke-width="1.5"/>
<line x1="80.5" y1="141" x2="80.5" y2="150" stroke="#706258"/>
<line x1="70.75" y1="141" x2="70.75" y2="150" stroke="#706258" stroke-width="1.5"/>
<line x1="68.75" y1="152" x2="68.75" y2="161" stroke="#706258" stroke-width="1.5"/>
<g filter="url(#filter2_f_233_593)">
<ellipse cx="183" cy="157.5" rx="28" ry="5.5" fill="#E4E4E4"/>
</g>
<path d="M72.5 31L72 35" stroke="black" stroke-width="2" stroke-linecap="round"/>
<path d="M64 53.5C68.5 58 83 79 84 87.5" stroke="black" stroke-width="2.2" stroke-linecap="round"/>
<path d="M78.5 72.2C72.5 63.2 69 57 63.5 51.5L85 69.4628L89.5 76.3977L85.5 90.5C84.5 85 83.5 80.7 78.5 72.2Z" fill="url(#paint8_linear_233_593)"/>
<rect x="166" y="145" width="37" height="11" rx="2" fill="#FFC82C" stroke="#706258" stroke-width="2"/>
<line x1="191.75" y1="146" x2="191.75" y2="155" stroke="#706258" stroke-width="1.5"/>
<line x1="196.5" y1="146" x2="196.5" y2="155" stroke="#706258"/>
<line x1="186.75" y1="146" x2="186.75" y2="155" stroke="#706258" stroke-width="1.5"/>
<rect x="170" y="134" width="37" height="11" rx="2" fill="#FFC82C" stroke="#706258" stroke-width="2"/>
<line x1="195.75" y1="135" x2="195.75" y2="144" stroke="#706258" stroke-width="1.5"/>
<line x1="200.5" y1="135" x2="200.5" y2="144" stroke="#706258"/>
<line x1="190.75" y1="135" x2="190.75" y2="144" stroke="#706258" stroke-width="1.5"/>
<line x1="68.75" y1="130" x2="68.75" y2="139" stroke="#706258" stroke-width="1.5"/>
<path d="M28.1035 139.124L35.3931 146.466" stroke="#706258" stroke-width="1.5"/>
<path d="M55.9791 20.8231C55.9014 19.1681 57.18 17.7634 58.8351 17.6857L70.4428 17.1407C72.0978 17.063 73.5025 18.3417 73.5802 19.9967L74.8465 46.967C74.9242 48.622 73.6456 50.0267 71.9905 50.1044L60.3828 50.6494C58.7278 50.7271 57.3231 49.4484 57.2454 47.7934L55.9791 20.8231Z" fill="white"/>
<path fill-rule="evenodd" clip-rule="evenodd" d="M54.9801 20.8699C54.8765 18.6632 56.5814 16.7903 58.7881 16.6867L70.3958 16.1416C72.6025 16.038 74.4754 17.7429 74.579 19.9496L75.8453 46.9199C75.9489 49.1266 74.244 50.9995 72.0373 51.1031L60.4296 51.6481C58.2229 51.7518 56.35 50.0469 56.2464 47.8402L54.9801 20.8699ZM58.8819 18.6845C57.7785 18.7363 56.9261 19.6727 56.9779 20.7761L58.2442 47.7464C58.296 48.8497 59.2325 49.7022 60.3358 49.6503L71.9435 49.1053C73.0469 49.0535 73.8993 48.1171 73.8475 47.0137L72.5812 20.0434C72.5294 18.9401 71.5929 18.0876 70.4896 18.1394L58.8819 18.6845Z" fill="black"/>
<path d="M69.4012 25.5373L69.6597 25.5258C69.6762 25.5251 69.6894 25.5123 69.6887 25.496L69.6686 25.0438C69.6678 25.0275 69.6535 25.0159 69.637 25.0167L69.2726 25.0329C68.8518 25.0517 68.6332 25.1862 68.5186 25.4573L67.8066 27.2894C67.7632 27.3986 67.6968 27.4531 67.5592 27.4592L67.456 25.1424C67.4552 25.1261 67.4409 25.1146 67.4244 25.1153L66.8428 25.1412C66.8263 25.142 66.813 25.1548 66.8138 25.171L66.9376 27.9482C66.9388 27.9753 66.9646 27.9972 66.9948 27.9959L67.6466 27.9668C68.0674 27.9481 68.2544 27.8149 68.3704 27.5438L69.0724 25.7338C69.13 25.605 69.2169 25.5455 69.4012 25.5373Z" fill="#D71921"/>
<path d="M62.3299 26.7724C62.5597 26.6726 62.7431 26.4609 62.7282 26.1265C62.706 25.6282 62.2304 25.3454 61.6735 25.3703L59.9546 25.4469C59.9381 25.4476 59.9249 25.4604 59.9256 25.4767L59.9458 25.9303C59.9465 25.9452 59.9608 25.9581 59.9773 25.9574L61.578 25.886C61.8365 25.8745 62.0177 26.013 62.0257 26.193C62.0337 26.3731 61.8656 26.5272 61.6071 26.5387L60.6555 26.5811L60.6405 26.2439C60.6397 26.2277 60.6254 26.2161 60.6089 26.2169L59.9901 26.2444C59.9736 26.2452 59.9604 26.258 59.9611 26.2742L60.0504 28.2756C60.0511 28.2918 60.0654 28.3034 60.0819 28.3026L61.7774 28.2271C62.4114 28.1988 62.853 27.905 62.828 27.3458C62.8158 27.0709 62.6311 26.8526 62.3312 26.771L62.3299 26.7724ZM61.6934 27.7329L60.7088 27.7768L60.6789 27.1065L61.6635 27.0626C61.9289 27.0508 62.1144 27.1931 62.1226 27.3773C62.1308 27.5614 61.9587 27.7197 61.6933 27.7315L61.6934 27.7329Z" fill="#D71921"/>
<path d="M70.1054 27.8248L69.0558 26.6871C69.0558 26.6871 69.0488 26.6847 69.0475 26.6875L68.8065 27.3074C68.8065 27.3074 68.8068 27.3156 68.8083 27.3182L69.2684 27.8404C69.3003 27.877 69.3367 27.8889 69.3889 27.8866L70.0916 27.8553C70.1123 27.8543 70.1197 27.8364 70.1067 27.822L70.1054 27.8248Z" fill="#D71921"/>
<path d="M63.8653 26.0732L63.2822 26.0992C63.2657 26.1 63.2525 26.1128 63.2532 26.129L63.3424 28.1303C63.3432 28.1466 63.3575 28.1582 63.374 28.1574L63.957 28.1314C63.9735 28.1307 63.9867 28.1179 63.986 28.1017L63.8968 26.1003C63.8961 26.0841 63.8818 26.0725 63.8653 26.0732Z" fill="#D71921"/>
<path d="M66.2267 25.1687L65.645 25.1946C65.6285 25.1953 65.6153 25.2081 65.616 25.2244L65.7193 27.5412C65.5831 27.5473 65.5121 27.4989 65.4592 27.3941L64.587 25.6325C64.4473 25.3728 64.219 25.2582 63.7982 25.2769L63.2495 25.3014C63.233 25.3021 63.2198 25.3149 63.2205 25.3312L63.2407 25.7848C63.2414 25.7997 63.2557 25.8126 63.2722 25.8119L63.7164 25.7921C63.9007 25.7839 63.9925 25.8354 64.0614 25.9585L64.9216 27.6989C65.0613 27.9572 65.2594 28.0746 65.6802 28.0558L66.3334 28.0267C66.3637 28.0253 66.386 28.0013 66.3848 27.9742L66.2609 25.1956C66.2602 25.1794 66.2459 25.1678 66.2294 25.1685L66.2267 25.1687Z" fill="#D71921"/>
<path d="M61.862 34.4606C62.3628 40.2379 60.0925 45.1533 56.7912 45.4395C53.4898 45.7257 50.4076 41.2742 49.9068 35.4969C49.406 29.7196 51.6763 24.8041 54.9776 24.518C58.2789 24.2318 61.3612 28.6832 61.862 34.4606Z" fill="#F55B22"/>
<path fill-rule="evenodd" clip-rule="evenodd" d="M51.9243 28.3678C51.0921 30.1697 50.665 32.6634 50.9032 35.4108C51.1413 38.1582 51.9912 40.5412 53.121 42.173C54.2695 43.8316 55.5661 44.5422 56.7049 44.4435C57.8438 44.3448 58.9987 43.4216 59.8446 41.5901C60.6769 39.7882 61.104 37.2946 60.8658 34.5472C60.6276 31.7998 59.7778 29.4168 58.6479 27.785C57.4995 26.1263 56.2029 25.4157 55.0641 25.5145C53.9252 25.6132 52.7702 26.5363 51.9243 28.3678ZM50.1086 27.5292C51.098 25.3871 52.7289 23.7094 54.8913 23.5219C57.0538 23.3345 58.949 24.7065 60.2922 26.6464C61.654 28.6131 62.5957 31.3445 62.8583 34.3744C63.121 37.4044 62.6633 40.2571 61.6603 42.4288C60.671 44.5709 59.0401 46.2486 56.8776 46.436C54.7152 46.6235 52.82 45.2514 51.4767 43.3115C50.115 41.3448 49.1733 38.6134 48.9106 35.5835C48.648 32.5536 49.1056 29.7009 50.1086 27.5292Z" fill="black"/>
<rect x="62.3999" y="19.2632" width="5" height="1" rx="0.5" transform="rotate(-3.01942 62.3999 19.2632)" fill="black"/>
<defs>
<filter id="filter0_f_233_593" x="66" y="146" width="122" height="27" filterUnits="userSpaceOnUse" color-interpolation-filters="sRGB">
<feFlood flood-opacity="0" result="BackgroundImageFix"/>
<feBlend mode="normal" in="SourceGraphic" in2="BackgroundImageFix" result="shape"/>
<feGaussianBlur stdDeviation="3" result="effect1_foregroundBlur_233_593"/>
</filter>
<filter id="filter1_f_233_593" x="0" y="152" width="104" height="23" filterUnits="userSpaceOnUse" color-interpolation-filters="sRGB">
<feFlood flood-opacity="0" result="BackgroundImageFix"/>
<feBlend mode="normal" in="SourceGraphic" in2="BackgroundImageFix" result="shape"/>
<feGaussianBlur stdDeviation="3" result="effect1_foregroundBlur_233_593"/>
</filter>
<filter id="filter2_f_233_593" x="149" y="146" width="68" height="23" filterUnits="userSpaceOnUse" color-interpolation-filters="sRGB">
<feFlood flood-opacity="0" result="BackgroundImageFix"/>
<feBlend mode="normal" in="SourceGraphic" in2="BackgroundImageFix" result="shape"/>
<feGaussianBlur stdDeviation="3" result="effect1_foregroundBlur_233_593"/>
</filter>
<linearGradient id="paint0_linear_233_593" x1="95.4472" y1="75.7925" x2="54.515" y2="25.6717" gradientUnits="userSpaceOnUse">
<stop offset="0.427083" stop-color="#D71921"/>
<stop offset="1" stop-color="#FD6D21"/>
</linearGradient>
<linearGradient id="paint1_linear_233_593" x1="176.074" y1="57.4185" x2="176.074" y2="119.624" gradientUnits="userSpaceOnUse">
<stop offset="0.369792" stop-color="#D71921"/>
<stop offset="1" stop-color="#FD6D21"/>
</linearGradient>
<linearGradient id="paint2_linear_233_593" x1="128.382" y1="2.41724" x2="128.382" y2="160.071" gradientUnits="userSpaceOnUse">
<stop offset="0.473958" stop-color="#D71921"/>
<stop offset="0.796875" stop-color="#FF7222"/>
</linearGradient>
<linearGradient id="paint3_linear_233_593" x1="128.381" y1="95.6731" x2="128.381" y2="160.071" gradientUnits="userSpaceOnUse">
<stop stop-color="#EA4A16"/>
<stop offset="1" stop-color="#FC6A20"/>
</linearGradient>
<radialGradient id="paint4_radial_233_593" cx="0" cy="0" r="1" gradientUnits="userSpaceOnUse" gradientTransform="translate(126.306 43.4) rotate(89.2999) scale(39.2484 31.2159)">
<stop offset="0.630208" stop-color="#FFD7CB"/>
<stop offset="1" stop-color="#FFB8A2"/>
</radialGradient>
<linearGradient id="paint5_linear_233_593" x1="127.306" y1="82.6001" x2="127.306" y2="123.2" gradientUnits="userSpaceOnUse">
<stop stop-color="white"/>
<stop offset="1" stop-color="white"/>
</linearGradient>
<linearGradient id="paint6_linear_233_593" x1="81.5455" y1="58.261" x2="87.9867" y2="62.11" gradientUnits="userSpaceOnUse">
<stop stop-color="#D81A22"/>
<stop offset="0.4085" stop-color="#D81A22"/>
<stop offset="1" stop-color="#D71921"/>
</linearGradient>
<linearGradient id="paint7_linear_233_593" x1="76" y1="28.0001" x2="76" y2="44.0001" gradientUnits="userSpaceOnUse">
<stop stop-color="#F76022"/>
<stop offset="1" stop-color="#DE2921"/>
</linearGradient>
<linearGradient id="paint8_linear_233_593" x1="78" y1="65" x2="88.7509" y2="92.0988" gradientUnits="userSpaceOnUse">
<stop stop-color="#D81A22"/>
<stop offset="1" stop-color="#DD2622"/>
</linearGradient>
</defs>
</svg>
