<svg width="115" height="17" viewBox="0 0 115 17" fill="none" xmlns="http://www.w3.org/2000/svg">
<path d="M0.746 1.752V15H5.174C5.918 15 6.596 14.922 7.208 14.766C7.832 14.61 8.366 14.37 8.81 14.046C9.266 13.722 9.62 13.32 9.872 12.84C10.124 12.348 10.25 11.772 10.25 11.112C10.25 10.212 10.004 9.504 9.512 8.988C9.02 8.472 8.396 8.13 7.64 7.962V7.872C8.24 7.668 8.702 7.302 9.026 6.774C9.362 6.234 9.53 5.646 9.53 5.01C9.53 4.41 9.41 3.906 9.17 3.498C8.942 3.078 8.618 2.742 8.198 2.49C7.79 2.226 7.298 2.04 6.722 1.932C6.158 1.812 5.534 1.752 4.85 1.752H0.746ZM4.616 7.278H2.834V3.372H4.67C5.606 3.372 6.308 3.516 6.776 3.804C7.244 4.092 7.478 4.584 7.478 5.28C7.478 5.904 7.25 6.396 6.794 6.756C6.35 7.104 5.624 7.278 4.616 7.278ZM4.94 13.362H2.834V8.862H4.94C5.996 8.862 6.8 9.03 7.352 9.366C7.916 9.702 8.198 10.248 8.198 11.004C8.198 11.832 7.916 12.432 7.352 12.804C6.8 13.176 5.996 13.362 4.94 13.362ZM11.8519 1.752V15H13.8319V8.754C13.8319 8.034 13.8019 7.302 13.7419 6.558C13.6819 5.814 13.6219 5.1 13.5619 4.416H13.6519L15.0379 7.188L19.4299 15H21.5719V1.752H19.5919V7.926C19.5919 8.646 19.6219 9.39 19.6819 10.158C19.7419 10.926 19.8019 11.652 19.8619 12.336H19.7719L18.3859 9.528L13.9939 1.752H11.8519ZM24.1526 1.752V15H26.2406V11.004L28.2746 8.52L32.0186 15H34.3406L29.5526 6.864L33.6566 1.752H31.3346L26.2946 8.016H26.2406V1.752H24.1526ZM52.6235 7.908V6.378H50.0855V0.114H48.2315V16.404H50.0855V7.908H52.6235ZM40.0055 10.86V3.174H45.7115V1.662H38.1515V12.408H39.4835C40.2155 12.408 40.9055 12.402 41.5535 12.39C42.2135 12.366 42.8495 12.336 43.4615 12.3C44.0735 12.264 44.6735 12.21 45.2615 12.138C45.8615 12.066 46.4675 11.976 47.0795 11.868L46.8815 10.338C46.3175 10.434 45.7655 10.518 45.2255 10.59C44.6855 10.65 44.1335 10.704 43.5695 10.752C43.0175 10.788 42.4475 10.818 41.8595 10.842C41.2715 10.854 40.6535 10.86 40.0055 10.86ZM66.5361 0.114H64.6641V16.422H66.5361V0.114ZM57.8781 1.32C57.2781 1.32 56.7201 1.458 56.2041 1.734C55.7001 1.998 55.2621 2.382 54.8901 2.886C54.5181 3.378 54.2241 3.978 54.0081 4.686C53.8041 5.382 53.7021 6.168 53.7021 7.044C53.7021 7.92 53.8041 8.718 54.0081 9.438C54.2241 10.146 54.5181 10.746 54.8901 11.238C55.2621 11.73 55.7001 12.114 56.2041 12.39C56.7201 12.654 57.2781 12.786 57.8781 12.786C58.4901 12.786 59.0481 12.654 59.5521 12.39C60.0681 12.114 60.5121 11.73 60.8841 11.238C61.2561 10.746 61.5441 10.146 61.7481 9.438C61.9641 8.718 62.0721 7.92 62.0721 7.044C62.0721 6.168 61.9641 5.382 61.7481 4.686C61.5441 3.978 61.2561 3.378 60.8841 2.886C60.5121 2.382 60.0681 1.998 59.5521 1.734C59.0481 1.458 58.4901 1.32 57.8781 1.32ZM57.8781 2.994C58.5981 2.994 59.1801 3.354 59.6241 4.074C60.0681 4.782 60.2901 5.772 60.2901 7.044C60.2901 8.352 60.0681 9.36 59.6241 10.068C59.1801 10.776 58.5981 11.13 57.8781 11.13C57.1581 11.13 56.5761 10.776 56.1321 10.068C55.7001 9.36 55.4841 8.352 55.4841 7.044C55.4841 5.772 55.7001 4.782 56.1321 4.074C56.5761 3.354 57.1581 2.994 57.8781 2.994ZM82.5727 0.131999H80.8087V10.266H82.5727V0.131999ZM77.6047 5.658V10.158H79.3507V0.438H77.6047V4.146H75.8227V5.658H77.6047ZM76.5607 9.15L76.3807 7.674C75.5527 7.842 74.7367 7.956 73.9327 8.016C73.1287 8.064 72.2527 8.088 71.3047 8.088V6.072H75.2287V1.356H69.4687V2.814H73.4287V4.686H69.5047V9.582H70.6027C71.1907 9.582 71.7367 9.576 72.2407 9.564C72.7567 9.552 73.2487 9.528 73.7167 9.492C74.1967 9.456 74.6647 9.414 75.1207 9.366C75.5887 9.306 76.0687 9.234 76.5607 9.15ZM71.6287 11.004V12.498H80.7187V16.404H82.5727V11.004H71.6287ZM97.5653 10.212V8.718H88.1873V6.486H97.0793V5.028H88.1873V2.94H97.4393V1.446H86.2973V10.212H97.5653ZM99.2213 12.876H84.4793V14.388H99.2213V12.876ZM114.862 9.294H108.418V7.746H113.332V6.324H103.81V4.812H113.008V0.581999H101.956V2.004H111.172V3.48H101.992V7.746H106.564V9.294H100.102V10.788H114.862V9.294ZM103.864 14.856V11.76H102.01V16.35H113.368V14.856H103.864Z" fill="black"/>
</svg>
