<svg width="187" height="11" viewBox="0 0 187 11" fill="none" xmlns="http://www.w3.org/2000/svg">
<path d="M9.76878 6.352L10.2128 5.536C8.32878 5.188 6.28878 3.532 6.28878 1.708V0.879999H5.25678V1.708C5.25678 3.556 3.21678 5.152 1.34478 5.536L1.78878 6.352C3.39678 5.968 5.10078 4.816 5.77278 3.244C6.44478 4.828 8.13678 5.968 9.76878 6.352ZM10.6928 9.448V8.632H0.936781V9.448H10.6928ZM18.9358 4.204L12.2638 4.492L12.4078 5.308L18.8998 4.948C18.8398 5.776 18.7198 6.64 18.4918 7.696L19.4518 7.792C19.9318 5.584 19.9198 4.108 19.9198 2.536V1.216H12.5398V2.02H18.9598V3.364C18.9598 3.64 18.9478 3.928 18.9358 4.204ZM21.1198 9.388V8.584H11.3878V9.388H21.1198ZM31.5709 5.932V5.188H27.1909V4.312H30.5149V3.604H24.0349V2.668H30.3229V0.424H23.0389V1.12H29.3509V1.996H23.0629V4.312H26.1949V5.188H21.8029V5.932H31.5709ZM30.6949 10.048H23.9749V9.052H30.3589V6.76H22.9789V7.468H29.3869V8.368H23.0029V10.768H30.6949V10.048ZM37.114 4.036C39.478 4.036 40.894 3.388 40.894 2.176C40.894 0.964 39.478 0.304 37.114 0.304C34.75 0.304 33.334 0.964 33.334 2.176C33.334 3.388 34.75 4.036 37.114 4.036ZM37.114 1.048C38.902 1.048 39.886 1.456 39.886 2.176C39.886 2.896 38.902 3.304 37.114 3.304C35.326 3.304 34.342 2.896 34.342 2.176C34.342 1.456 35.326 1.048 37.114 1.048ZM41.986 5.56V4.768H32.242V5.56H41.986ZM41.062 10H34.414V8.908H40.738V6.484H33.418V7.228H39.766V8.188H33.454V10.768H41.062V10ZM53.9086 10.876V0.124H52.9606V4.504H51.4366V0.364H50.5126V10.336H51.4366V5.32H52.9606V10.876H53.9086ZM46.2886 7.24V1.432H45.3046V8.092H45.9886C47.1526 8.092 48.3886 8.032 49.8406 7.756L49.7446 6.904C48.4486 7.156 47.3446 7.228 46.2886 7.24ZM64.0717 10.9V0.111999H63.0877V2.572H60.9637V3.376H63.0877V5.524H60.8917V6.328H63.0877V10.9H64.0717ZM56.5837 7.576V4.948H60.2917V1.096H55.5877V1.888H59.3197V4.144H55.6117V8.392H56.4277C58.1197 8.392 59.4877 8.32 61.1797 8.068L61.0957 7.252C59.4997 7.504 58.1557 7.576 56.5837 7.576ZM77.6863 3.724V2.908H76.0903V0.136H75.1063V6.652H76.0903V3.724H77.6863ZM73.4383 5.956L73.9543 5.188C72.4183 4.672 71.3503 3.304 71.3503 1.864V0.676H70.3663V1.78C70.3663 3.4 69.3223 4.9 67.6903 5.476L68.2063 6.256C69.4663 5.776 70.4263 4.792 70.8703 3.532C71.3503 4.636 72.2743 5.524 73.4383 5.956ZM72.6703 6.952C70.4743 6.952 69.1183 7.672 69.1183 8.92C69.1183 10.168 70.4743 10.876 72.6703 10.876C74.8423 10.876 76.2103 10.168 76.2103 8.92C76.2103 7.672 74.8423 6.952 72.6703 6.952ZM72.6703 10.108C71.0743 10.108 70.1023 9.688 70.1023 8.92C70.1023 8.152 71.0743 7.72 72.6703 7.72C74.2663 7.72 75.2263 8.152 75.2263 8.92C75.2263 9.688 74.2663 10.108 72.6703 10.108ZM79.0894 1.264H80.7094V3.52H79.1254V4.312H86.9374V3.52H85.3534V1.264H86.9854V0.472H79.0894V1.264ZM81.6934 1.264H84.3694V3.52H81.6934V1.264ZM83.5414 7.384V6.124H87.9094V5.332H78.1774V6.124H82.5574V7.384H79.3774V10.744H86.7214V7.384H83.5414ZM80.3374 8.164H85.7614V9.952H80.3374V8.164ZM98.5721 0.136V2.92H96.4481V3.724H98.5721V6.544H99.5681V0.136H98.5721ZM96.5561 6.136L97.0481 5.368C95.4881 4.828 94.4321 3.46 94.4321 2.08V1.708H96.7961V0.916H91.0481V1.708H93.4481V2.08C93.4481 3.616 92.3321 5.092 90.7361 5.668L91.2521 6.448C92.5121 5.968 93.4961 4.96 93.9641 3.712C94.4321 4.816 95.3561 5.704 96.5561 6.136ZM96.0161 6.88C93.8081 6.88 92.4281 7.6 92.4281 8.884C92.4281 10.168 93.8081 10.888 96.0161 10.888C98.2241 10.888 99.5921 10.168 99.5921 8.884C99.5921 7.6 98.2241 6.88 96.0161 6.88ZM96.0161 10.12C94.3721 10.12 93.4121 9.664 93.4121 8.884C93.4121 8.104 94.3721 7.636 96.0161 7.636C97.6601 7.636 98.6201 8.104 98.6201 8.884C98.6201 9.664 97.6601 10.12 96.0161 10.12ZM110.895 9.508V8.704H106.503V6.388H109.719V0.891999H108.759V2.812H103.263V0.891999H102.291V6.388H105.507V8.704H101.139V9.508H110.895ZM108.759 5.596H103.263V3.616H108.759V5.596ZM112.802 1.132H119.114V2.008H112.826V4.312H120.278V3.604H113.798V2.68H120.086V0.435999H112.802V1.132ZM121.334 5.872V5.128H111.578V5.872H121.334ZM120.458 10.036H113.738V9.04H120.122V6.748H112.742V7.456H119.15V8.356H112.766V10.744H120.458V10.036ZM124.317 1.852H130.497V1.108H127.905V0.0519993H126.921V1.108H124.317V1.852ZM132.441 4.204H134.025V3.388H132.441V0.136H131.457V7.348H132.441V4.204ZM130.893 6.616L130.821 5.908C129.861 6.052 128.913 6.124 127.905 6.172V5.428C129.153 5.296 129.921 4.72 129.921 3.844C129.921 2.836 128.913 2.248 127.413 2.248C125.877 2.248 124.893 2.836 124.893 3.844C124.893 4.756 125.673 5.296 126.921 5.428V6.208C125.865 6.244 124.917 6.244 124.053 6.244L124.161 7.036C126.045 7.036 128.589 7.036 130.893 6.616ZM125.829 3.844C125.829 3.28 126.441 2.932 127.413 2.932C128.373 2.932 128.985 3.28 128.985 3.844C128.985 4.408 128.373 4.768 127.413 4.768C126.441 4.768 125.829 4.408 125.829 3.844ZM132.441 7.888H125.361V8.668H131.457V10.888H132.441V7.888ZM142.388 7.996H143.372V0.136H142.388V7.996ZM140.408 3.52C140.408 1.972 139.184 0.879999 137.588 0.879999C135.992 0.879999 134.792 1.972 134.792 3.52C134.792 5.08 135.992 6.184 137.588 6.184C139.184 6.184 140.408 5.08 140.408 3.52ZM135.752 3.52C135.752 2.476 136.532 1.732 137.588 1.732C138.656 1.732 139.448 2.476 139.448 3.52C139.448 4.588 138.656 5.332 137.588 5.332C136.532 5.332 135.752 4.588 135.752 3.52ZM143.696 10.648V9.844H137.432V7.192H136.448V10.648H143.696ZM154.099 10.876V0.111999H153.151V4.66H151.771V0.364H150.847V10.36H151.771V5.464H153.151V10.876H154.099ZM150.307 1.96H148.123V0.435999H147.151V1.96H144.967V2.764H150.307V1.96ZM147.643 3.484C146.311 3.484 145.339 4.492 145.339 5.932C145.339 7.396 146.311 8.392 147.643 8.392C148.975 8.392 149.947 7.396 149.947 5.932C149.947 4.492 148.975 3.484 147.643 3.484ZM147.643 7.576C146.815 7.576 146.215 6.892 146.215 5.932C146.215 4.972 146.779 4.312 147.643 4.312C148.471 4.312 149.071 4.996 149.071 5.932C149.071 6.892 148.471 7.576 147.643 7.576ZM165.174 9.508V8.704H160.782V6.388H163.998V0.891999H163.038V2.812H157.542V0.891999H156.57V6.388H159.786V8.704H155.418V9.508H165.174ZM163.038 5.596H157.542V3.616H163.038V5.596ZM175.001 10.888V0.124H174.065V10.888H175.001ZM172.805 0.364H171.881V3.988H170.105V4.804H171.881V10.36H172.805V0.364ZM169.049 3.16V1.144H168.101V3.196C168.101 5.056 167.213 6.976 165.737 7.84L166.349 8.584C167.417 7.912 168.197 6.724 168.581 5.272C168.965 6.58 169.685 7.72 170.705 8.344L171.269 7.576C169.865 6.712 169.049 4.888 169.049 3.16ZM186.064 9.508V8.692H183.652V5.776C184.564 5.308 185.068 4.54 185.068 3.568C185.068 1.9 183.448 0.808 181.156 0.808C178.876 0.808 177.244 1.9 177.244 3.568C177.244 4.54 177.772 5.32 178.684 5.788V8.692H176.284V9.508H186.064ZM181.156 1.576C182.884 1.576 184.132 2.368 184.132 3.568C184.132 4.768 182.884 5.56 181.156 5.56C179.428 5.56 178.192 4.768 178.192 3.568C178.192 2.368 179.428 1.576 181.156 1.576ZM182.668 8.692H179.668V6.16C180.136 6.268 180.628 6.328 181.156 6.328C181.648 6.328 182.152 6.268 182.668 6.16V8.692Z" fill="#B09887"/>
</svg>
