<svg width="200" height="31" viewBox="0 0 200 31" fill="none" xmlns="http://www.w3.org/2000/svg">
<path d="M8.184 1.484V3.368H3.144V1.484H1.536V7.94H4.848V9.764H0.384V11.132H10.944V9.764H6.48V7.94H9.792V1.484H8.184ZM3.144 6.56V4.712H8.184V6.56H3.144ZM18.904 5.324C18.904 3.164 17.404 1.652 15.424 1.652C13.444 1.652 11.944 3.164 11.944 5.324C11.944 7.484 13.444 8.996 15.424 8.996C17.404 8.996 18.904 7.484 18.904 5.324ZM17.296 5.324C17.296 6.716 16.528 7.628 15.424 7.628C14.32 7.628 13.552 6.716 13.552 5.324C13.552 3.932 14.32 3.02 15.424 3.02C16.528 3.02 17.296 3.932 17.296 5.324ZM21.712 11.924V1.172H20.104V11.924H21.712ZM24.0321 7.832C25.3761 7.364 26.7321 6.572 27.7521 5.504C27.9321 5.3 28.1121 5.096 28.2681 4.892C28.3521 5 28.4481 5.12 28.5561 5.228C29.6241 6.392 31.0881 7.328 32.5881 7.784L33.4521 6.56C31.7841 6.032 30.4401 5.3 29.4321 4.22C29.2761 4.052 29.1321 3.872 28.9881 3.692L29.0001 3.668C29.3241 2.984 29.4921 2.24 29.5161 1.424H27.8601C27.7281 4.04 25.8561 5.78 23.1081 6.644L24.0321 7.832ZM33.6081 11.012V9.644H23.0481V11.012H33.6081ZM34.6201 10.064L42.1681 9.692V8.348L40.7521 8.408L40.8721 3.572H39.2641L39.1561 8.468L37.4881 8.54L37.3921 3.572H35.7841L35.8921 8.6L34.6201 8.648V10.064ZM44.2561 11.924V1.172H42.6481V11.924H44.2561ZM41.6401 1.604H34.8601V2.972H41.6401V1.604ZM52.0721 6.932C50.0561 6.932 48.6041 8.024 48.6041 9.584C48.6041 11.156 50.0561 12.236 52.0721 12.236C54.0881 12.236 55.5401 11.156 55.5401 9.584C55.5401 8.024 54.0881 6.932 52.0721 6.932ZM53.2481 5.288C52.1201 4.976 51.1121 4.472 50.3921 3.632L50.1761 3.344C50.1881 3.332 50.1881 3.308 50.2001 3.284C50.4521 2.684 50.5841 2.036 50.5961 1.34H48.9641C48.8561 3.536 47.5481 5.036 45.4481 5.756L46.4321 6.932C47.4281 6.56 48.4601 5.864 49.2401 4.904C49.3241 4.808 49.3961 4.7 49.4801 4.592L49.4921 4.616C50.2841 5.552 51.3281 6.224 52.3721 6.536L53.2481 5.288ZM55.7441 1.172H54.1361V7.04H55.7441V1.172ZM52.0721 10.916C50.8721 10.916 50.2121 10.388 50.2121 9.584C50.2121 8.78 50.8721 8.252 52.0721 8.252C53.2721 8.252 53.9321 8.78 53.9321 9.584C53.9321 10.388 53.2721 10.916 52.0721 10.916ZM71.5417 7.1V5.78H60.9817V7.1H71.5417ZM66.3097 7.556C64.2097 7.556 62.7217 8.528 62.7217 10.016C62.7217 11.504 64.2097 12.476 66.3097 12.476C68.4097 12.476 69.8977 11.504 69.8977 10.016C69.8977 8.528 68.4097 7.556 66.3097 7.556ZM66.3097 11.18C65.0137 11.18 64.3297 10.724 64.3297 10.016C64.3297 9.308 65.0137 8.852 66.3097 8.852C67.6057 8.852 68.2897 9.308 68.2897 10.016C68.2897 10.724 67.6057 11.18 66.3097 11.18ZM70.5097 3.848H63.7417V2.66H70.3897V1.34H62.1337V5.18H70.5097V3.848ZM85.7072 11.852V7.628H77.3312V11.852H85.7072ZM86.8112 6.644V5.3H85.3592C85.4552 4.856 85.5512 4.34 85.6352 3.752C85.7432 3.032 85.8032 2.228 85.8272 1.34H77.2232V2.684H84.1712C84.1472 3.26 84.0512 4.04 83.8832 4.832L83.7752 5.3H76.2512V6.644H86.8112ZM78.9392 8.948H84.0992V10.508H78.9392V8.948ZM98.1432 7.208V5.936H87.5832V7.208H90.0192V8.672C89.8392 8.828 89.6952 8.996 89.5872 9.176C89.4072 9.464 89.3232 9.788 89.3232 10.136C89.3232 11.54 90.8112 12.476 92.9112 12.476C95.0112 12.476 96.4992 11.54 96.4992 10.136C96.4992 9.788 96.4152 9.464 96.2352 9.176C96.1032 8.96 95.9232 8.768 95.7072 8.588V7.208H98.1432ZM89.2152 3.152C89.2152 4.628 90.8112 5.588 92.8632 5.588C94.9152 5.588 96.5112 4.628 96.5112 3.152C96.5112 1.676 94.9152 0.715999 92.8632 0.715999C90.8112 0.715999 89.2152 1.676 89.2152 3.152ZM92.8632 1.988C93.9792 1.988 94.9032 2.468 94.9032 3.152C94.9032 3.836 93.9792 4.316 92.8632 4.316C91.7472 4.316 90.8232 3.836 90.8232 3.152C90.8232 2.468 91.7472 1.988 92.8632 1.988ZM92.9112 11.204C91.6152 11.204 90.9312 10.772 90.9312 10.136C90.9312 9.5 91.6152 9.068 92.9112 9.068C94.2072 9.068 94.8912 9.5 94.8912 10.136C94.8912 10.772 94.2072 11.204 92.9112 11.204ZM92.9112 7.796C92.4432 7.796 92.0232 7.844 91.6272 7.928V7.208H94.0992V7.904C93.7272 7.832 93.3312 7.796 92.9112 7.796ZM106.331 8.996C105.503 8.432 104.795 7.808 104.231 7.124C103.787 6.584 103.391 5.972 103.055 5.3C103.427 4.112 103.607 2.84 103.607 1.484H101.975C101.975 4.724 100.955 7.388 98.3872 9.284L99.4673 10.4C100.751 9.404 101.723 8.24 102.407 6.92C102.671 7.352 102.971 7.772 103.295 8.18C103.907 8.936 104.579 9.584 105.335 10.148L106.331 8.996ZM108.311 11.924V6.392H109.835V5H108.311V1.172H106.703V11.924H108.311ZM120.123 11.924V1.172H118.515V11.924H120.123ZM111.015 2.972H115.215C114.987 5.432 113.319 7.904 110.523 9.248L111.555 10.388C114.555 8.78 116.955 5.78 116.919 1.604H111.015V2.972ZM130.855 11.924V6.512H132.379V5.12H130.855V1.172H129.247V11.924H130.855ZM122.107 2.972H126.307C126.079 5.432 124.411 7.904 121.615 9.248L122.647 10.388C125.647 8.78 128.047 5.78 128.011 1.604H122.107V2.972ZM137.617 2.864H141.697C141.313 4.448 139.549 5.744 136.909 6.284L137.665 7.532C140.617 6.92 143.485 4.904 143.449 1.52H137.617V2.864ZM146.737 11.972V7.928H138.145V9.296H145.129V11.972H146.737ZM143.221 5.336H145.153V7.448H146.761V1.172H145.153V3.968H143.221V5.336ZM154.541 6.932C152.525 6.932 151.073 8.024 151.073 9.584C151.073 11.156 152.525 12.236 154.541 12.236C156.557 12.236 158.009 11.156 158.009 9.584C158.009 8.024 156.557 6.932 154.541 6.932ZM155.741 5.264C154.541 5.048 153.581 4.688 152.873 4.004C152.801 3.932 152.729 3.848 152.669 3.764C152.765 3.56 152.849 3.332 152.921 3.104C152.957 3.008 152.981 2.912 153.005 2.816H155.309V1.52H148.601V2.816H151.325C151.145 3.38 150.857 3.884 150.437 4.328C149.801 5 148.961 5.492 147.917 5.792L148.853 6.992C149.813 6.68 150.881 6.032 151.697 5.168L151.913 4.928C152.189 5.228 152.513 5.492 152.861 5.72C153.497 6.128 154.181 6.404 154.913 6.536L155.741 5.264ZM154.733 4.592H156.605V7.04H158.213V1.172H156.605V3.296H154.733V4.592ZM154.541 10.916C153.341 10.916 152.681 10.388 152.681 9.584C152.681 8.78 153.341 8.252 154.541 8.252C155.741 8.252 156.401 8.78 156.401 9.584C156.401 10.388 155.741 10.916 154.541 10.916ZM167.613 7.892V6.572L164.757 6.608V5.54H167.217V4.184H162.081V2.78H166.977V1.436H160.473V5.54H163.125V6.632L159.693 6.668V8.012L167.613 7.892ZM161.217 8.54V11.72H169.869V10.352H162.825V8.54H161.217ZM169.653 9.296V1.172H168.045V9.296H169.653ZM180.121 11.924V6.152H181.645V4.76H180.121V1.172H178.513V11.924H180.121ZM171.385 1.604V10.04L178.033 9.668V8.324L172.993 8.552V2.948H177.193V1.604H171.385ZM188.801 7.124V6.128H190.481V9.056H192.089V1.172H190.481V2.48H188.801V1.52H182.789V7.124H188.801ZM183.845 8.132V11.804H192.389V10.436H185.453V8.132H183.845ZM184.397 2.864H187.193V5.78H184.397V2.864ZM188.801 3.848H190.481V4.76H188.801V3.848ZM199.389 4.112C199.389 2.492 198.177 1.16 196.137 1.16C194.841 1.16 193.641 2.108 193.161 3.32L194.349 4.04C194.745 3.116 195.453 2.504 196.137 2.504C197.157 2.504 197.805 3.164 197.805 4.112C197.805 5.144 196.785 5.948 195.261 6.356V8.804H196.845V7.196C198.165 6.716 199.389 5.732 199.389 4.112ZM195.225 9.764H196.905V11.444H195.225V9.764Z" fill="#242D3C"/>
<path d="M6.73 27.61C6.07 27.18 5.47 26.67 4.94 26.08C4.42 25.5 4.01 24.88 3.72 24.22C3.76 24.09 3.8 23.96 3.83 23.82C3.99 23.22 4.09 22.57 4.13 21.87H6.31V21.21H0.78V21.87H3.33C3.28 22.5 3.19 23.09 3.05 23.64C2.57 25.57 1.56 27.01 0.23 27.94L0.74 28.47C1.69 27.76 2.51 26.86 3.11 25.71C3.22 25.5 3.33 25.28 3.42 25.05C3.53 25.26 3.66 25.46 3.79 25.66C4.47 26.66 5.35 27.58 6.22 28.2L6.73 27.61ZM8.55 29.75V20.83H7.79V29.75H8.55ZM10.7234 26.39V29.69H17.5834V26.39H10.7234ZM9.78336 24.48V25.14H18.5434V24.48H17.2534C17.3434 24.04 17.4234 23.57 17.4834 23.06C17.5534 22.45 17.6134 21.76 17.6434 20.99H10.6334V21.63H16.8634C16.8334 22.15 16.7834 22.67 16.7234 23.18C16.6734 23.61 16.6034 24.04 16.5034 24.48H9.78336ZM16.8234 27.03V29.03H11.4834V27.03H16.8234ZM28.528 21.14H22.938V21.8H25.508C25.458 22.1 25.388 22.39 25.298 22.67C24.818 24.03 23.768 25.11 22.368 25.71L22.828 26.26C23.738 25.85 24.618 25.16 25.268 24.31C25.378 24.17 25.478 24.02 25.568 23.87C25.708 24.05 25.858 24.23 26.028 24.4C26.718 25.09 27.598 25.68 28.438 26.02L28.868 25.4C28.238 25.17 27.658 24.87 27.128 24.5C26.618 24.14 26.208 23.72 25.898 23.24L26.048 22.88C26.178 22.53 26.268 22.17 26.318 21.8H28.528V21.14ZM27.948 23.65H29.888V27.41H30.648V20.83H29.888V22.99H27.948V23.65ZM30.898 29.65V28.99H24.798V26.71H24.038V29.65H30.898ZM38.1413 27.61C37.4813 27.18 36.8813 26.67 36.3513 26.08C35.8313 25.5 35.4213 24.88 35.1313 24.22C35.1713 24.09 35.2113 23.96 35.2413 23.82C35.4013 23.22 35.5013 22.57 35.5413 21.87H37.7213V21.21H32.1913V21.87H34.7413C34.6913 22.5 34.6013 23.09 34.4613 23.64C33.9813 25.57 32.9713 27.01 31.6413 27.94L32.1513 28.47C33.1013 27.76 33.9213 26.86 34.5213 25.71C34.6313 25.5 34.7413 25.28 34.8313 25.05C34.9413 25.26 35.0713 25.46 35.2013 25.66C35.8813 26.66 36.7613 27.58 37.6313 28.2L38.1413 27.61ZM39.5613 29.75V24.91H41.0113V24.23H39.5613V20.83H38.8013V29.75H39.5613ZM42.3347 26.39V29.69H49.1947V26.39H42.3347ZM41.3947 24.48V25.14H50.1547V24.48H48.8647C48.9547 24.04 49.0347 23.57 49.0947 23.06C49.1647 22.45 49.2247 21.76 49.2547 20.99H42.2447V21.63H48.4747C48.4447 22.15 48.3947 22.67 48.3347 23.18C48.2847 23.61 48.2147 24.04 48.1147 24.48H41.3947ZM48.4347 27.03V29.03H43.0947V27.03H48.4347ZM50.838 24.89V25.55H53.088V26.89C52.858 27.04 52.678 27.23 52.538 27.44C52.388 27.67 52.318 27.94 52.318 28.23C52.318 29.4 53.598 30.13 55.258 30.13C56.918 30.13 58.198 29.4 58.198 28.23C58.198 27.64 57.878 27.17 57.348 26.84L57.338 26.83V25.55H59.598V24.89H50.838ZM55.218 20.47C53.558 20.47 52.278 21.25 52.278 22.41C52.278 23.57 53.558 24.35 55.218 24.35C56.878 24.35 58.158 23.57 58.158 22.41C58.158 21.25 56.878 20.47 55.218 20.47ZM55.218 23.73C53.998 23.73 53.038 23.21 53.038 22.41C53.038 21.61 53.998 21.09 55.218 21.09C56.438 21.09 57.398 21.61 57.398 22.41C57.398 23.21 56.438 23.73 55.218 23.73ZM55.258 29.49C54.038 29.49 53.078 29.02 53.078 28.23C53.078 27.44 54.038 26.97 55.258 26.97C56.478 26.97 57.438 27.44 57.438 28.23C57.438 29.02 56.478 29.49 55.258 29.49ZM55.258 26.33C54.848 26.33 54.458 26.37 54.098 26.46C54.008 26.48 53.928 26.5 53.858 26.53V25.55H56.568V26.5L56.418 26.46C56.058 26.37 55.668 26.33 55.258 26.33ZM66.4314 27.58C65.7614 27.15 65.1714 26.62 64.6514 26C64.1614 25.41 63.7614 24.8 63.4614 24.16C63.5214 23.95 63.5814 23.73 63.6314 23.51C63.7914 22.78 63.8714 21.98 63.8714 21.11H63.0914C63.0614 24.28 61.9214 26.57 59.9714 27.9L60.4814 28.43C61.4914 27.68 62.3514 26.71 62.9414 25.51C63.0214 25.34 63.1014 25.18 63.1714 25.01C63.2714 25.2 63.3814 25.38 63.5114 25.57C64.1614 26.57 65.0514 27.54 65.9114 28.16L66.4314 27.58ZM67.8914 29.75V24.91H69.3414V24.23H67.8914V20.83H67.1314V29.75H67.8914ZM77.7348 29.75V20.83H76.9748V29.75H77.7348ZM70.4048 21.87H74.2448C74.1348 24.25 72.6048 26.63 70.1248 27.83L70.6248 28.39C73.2148 27.03 75.0948 24.49 75.0648 21.21H70.4048V21.87ZM89.8894 26.05V27.11H84.7094V26.05H83.9494V29.69H90.6494V26.05H89.8894ZM84.7594 20.88C83.4794 20.88 82.4594 21.83 82.4594 23.14C82.4594 24.45 83.4794 25.4 84.7594 25.4C86.0394 25.4 87.0594 24.45 87.0594 23.14C87.0594 21.83 86.0394 20.88 84.7594 20.88ZM84.7594 24.76C83.8294 24.76 83.2094 24.09 83.2094 23.14C83.2094 22.19 83.8294 21.52 84.7594 21.52C85.6894 21.52 86.3094 22.19 86.3094 23.14C86.3094 24.1 85.6894 24.76 84.7594 24.76ZM88.6294 25.59V23.38H89.9094V25.59H90.6694V20.83H89.9094V22.74H88.6294V20.91H87.8794V25.59H88.6294ZM84.7094 29.03V27.75H89.8894V29.03H84.7094ZM102.894 26.04V23.66H104.124V22.98H102.894V20.83H102.134V26.04H102.894ZM96.374 26.54V29.69H102.874V26.54H96.374ZM97.134 27.16H102.114V29.05H97.134V27.16ZM100.414 23.03H96.374V21.7H100.514V21.06H95.614V25.73L101.534 25.47V24.84L96.374 25.03V23.65H100.414V23.03ZM111.007 27.61C110.347 27.18 109.747 26.67 109.217 26.08C108.697 25.5 108.287 24.88 107.997 24.22C108.037 24.09 108.077 23.96 108.107 23.82C108.267 23.22 108.367 22.57 108.407 21.87H110.587V21.21H105.057V21.87H107.607C107.557 22.5 107.467 23.09 107.327 23.64C106.847 25.57 105.837 27.01 104.507 27.94L105.017 28.47C105.967 27.76 106.787 26.86 107.387 25.71C107.497 25.5 107.607 25.28 107.697 25.05C107.807 25.26 107.937 25.46 108.067 25.66C108.747 26.66 109.627 27.58 110.497 28.2L111.007 27.61ZM112.827 29.75V20.83H112.067V29.75H112.827ZM114.061 25V25.62H122.821V25H114.061ZM122.071 29.69V29.06H115.761V28.3H121.861V26.35H115.001V26.97H121.101V27.69H115.001V29.69H122.071ZM121.971 24.31V23.68H115.811V22.89H121.821V20.93H115.051V21.55H121.061V22.29H115.051V24.31H121.971ZM135.125 29.69V29.03H129.065V28.07H134.925V25.88H128.305V26.52H134.165V27.45H128.305V29.69H135.125ZM132.985 24.51C132.355 24.3 131.765 23.99 131.225 23.59C130.795 23.28 130.445 22.91 130.175 22.5L130.215 22.42C130.405 21.97 130.515 21.49 130.535 20.99H129.755C129.625 22.67 128.435 24.16 126.645 24.85L127.105 25.38C127.985 25.01 128.825 24.41 129.455 23.66C129.605 23.48 129.735 23.29 129.855 23.1L130.125 23.42C130.775 24.15 131.675 24.8 132.545 25.12L132.985 24.51ZM134.925 25.42V20.83H134.165V25.42H134.925ZM141.609 26.11C139.919 26.11 138.769 26.93 138.769 28.02C138.769 29.11 139.919 29.93 141.609 29.93C143.279 29.93 144.449 29.11 144.449 28.02C144.449 26.93 143.279 26.11 141.609 26.11ZM138.799 22.75C137.579 22.75 136.679 23.43 136.679 24.34C136.679 25.25 137.579 25.93 138.799 25.93C140.019 25.93 140.919 25.25 140.919 24.34C140.919 23.43 140.019 22.75 138.799 22.75ZM141.609 29.29C140.279 29.29 139.529 28.75 139.529 28.02C139.529 27.29 140.279 26.75 141.609 26.75C142.939 26.75 143.689 27.29 143.689 28.02C143.689 28.75 142.939 29.29 141.609 29.29ZM142.559 25.81V23.88H143.789V26.21H144.549V20.83H143.789V23.22H142.559V20.91H141.809V25.81H142.559ZM138.799 25.33C137.969 25.33 137.419 24.98 137.419 24.34C137.419 23.7 137.969 23.35 138.799 23.35C139.629 23.35 140.179 23.7 140.179 24.34C140.179 24.98 139.629 25.33 138.799 25.33ZM141.169 22.43V21.81H136.329V22.43H141.169ZM140.119 21.34V20.72H137.479V21.34H140.119ZM150.462 26.14C150.462 24.83 149.602 23.72 148.272 23.72C146.942 23.72 146.082 24.83 146.082 26.14C146.082 27.45 146.942 28.56 148.272 28.56C149.602 28.56 150.462 27.45 150.462 26.14ZM152.052 29.5V25.16H153.342V29.74H154.102V20.83H153.342V24.48H152.052V20.93H151.302V29.5H152.052ZM149.712 26.14C149.712 27.1 149.202 27.91 148.272 27.91C147.342 27.91 146.832 27.1 146.832 26.14C146.832 25.18 147.342 24.37 148.272 24.37C149.202 24.37 149.712 25.18 149.712 26.14ZM150.692 23.1V22.44H145.752V23.1H150.692ZM149.642 21.61V20.95H146.902V21.61H149.642ZM158.397 28.25V28.91H167.157V28.25H163.167V26.29H166.157V21.11H165.397V23H160.147V21.11H159.387V26.29H162.387V28.25H158.397ZM160.147 25.63V23.66H165.397V25.63H160.147ZM174.37 29.51V20.92H173.62V23.89H171.99V24.57H173.62V29.51H174.37ZM176.27 29.74V20.83H175.51V29.74H176.27ZM168.22 28.43C169.07 27.52 169.8 26.44 170.31 25.08C170.83 26.29 171.63 27.42 172.55 28.22L173.05 27.69C171.97 26.8 171.08 25.5 170.61 24.11C170.84 23.19 170.97 22.21 171 21.14H170.24C170.19 24.01 169.22 26.44 167.66 27.98L168.22 28.43ZM181.653 20.81C179.703 20.81 178.393 22.08 178.393 23.52C178.393 24.96 179.703 26.23 181.653 26.23C183.603 26.23 184.913 24.96 184.913 23.52C184.913 22.08 183.603 20.81 181.653 20.81ZM181.653 25.57C180.113 25.57 179.153 24.62 179.153 23.52C179.153 22.42 180.113 21.47 181.653 21.47C183.193 21.47 184.153 22.42 184.153 23.52C184.153 24.62 183.193 25.57 181.653 25.57ZM177.283 28.25V28.91H186.043V28.25H184.073V26.36H183.303V28.25H180.053V26.36H179.283V28.25H177.283ZM186.897 29.5H187.857V28.54H186.897V29.5Z" fill="#666666"/>
</svg>
