<svg width="126" height="39" viewBox="0 0 126 39" fill="none" xmlns="http://www.w3.org/2000/svg">
<path d="M8.38 5.84V0.83H7.62V5.84H8.38ZM1.76 6.34V9.69H8.36V6.34H1.76ZM2.52 6.98H7.6V9.03H2.52V6.98ZM1.02 1.8H4.78C4.59 3.4 2.95 4.83 0.55 5.31L0.91 5.93C3.32 5.39 5.65 3.8 5.62 1.14H1.02V1.8ZM14.2034 6.13C12.5434 6.13 11.2634 6.9 11.2634 8.13C11.2634 9.36 12.5434 10.13 14.2034 10.13C15.8634 10.13 17.1434 9.36 17.1434 8.13C17.1434 6.9 15.8634 6.13 14.2034 6.13ZM17.6434 3.36H11.5334V1.61H17.5234V0.989999H10.7734V3.99H13.8234V4.95H9.78336V5.59H18.5434V4.95H14.6034V3.99H17.6434V3.36ZM14.2034 9.49C12.9834 9.49 12.0234 8.97 12.0234 8.13C12.0234 7.29 12.9834 6.77 14.2034 6.77C15.4234 6.77 16.3834 7.29 16.3834 8.13C16.3834 8.97 15.4234 9.49 14.2034 9.49ZM22.3567 6.51C23.7767 6.51 24.7667 5.75 24.7667 4.75C24.7667 3.75 23.7767 2.99 22.3567 2.99C20.9367 2.99 19.9467 3.75 19.9467 4.75C19.9467 5.75 20.9367 6.51 22.3567 6.51ZM27.4667 7.51V0.83H26.7067V3.19H25.1767V3.83H26.7067V5.04H25.1767V5.68H26.7067V7.51H27.4667ZM22.3567 5.89C21.3567 5.89 20.7067 5.48 20.7067 4.75C20.7067 4.02 21.3567 3.61 22.3567 3.61C23.3567 3.61 24.0067 4.02 24.0067 4.75C24.0067 5.48 23.3567 5.89 22.3567 5.89ZM27.7167 9.65V8.99H21.6167V7.09H20.8567V9.65H27.7167ZM25.2467 2.57V1.93H19.4067V2.57H25.2467ZM23.9467 1.34V0.7H20.7067V1.34H23.9467ZM36.7101 5.84V0.83H35.9501V5.84H36.7101ZM30.0901 6.34V9.69H36.6901V6.34H30.0901ZM30.8501 6.98H35.9301V9.03H30.8501V6.98ZM29.2701 1.04V5.26L35.3901 4.98V4.33L30.0301 4.54V1.04H29.2701ZM46.2834 9.75V0.83H45.5234V9.75H46.2834ZM45.1234 8.21V7.55L38.3034 7.63V8.31L45.1234 8.21ZM41.5534 1.05C39.9534 1.05 38.8534 2.26 38.8534 3.57C38.8534 4.88 39.9534 6.09 41.5534 6.09C43.1534 6.09 44.2534 4.88 44.2534 3.57C44.2534 2.26 43.1534 1.05 41.5534 1.05ZM41.5534 5.43C40.3734 5.43 39.6134 4.53 39.6134 3.57C39.6134 2.61 40.3734 1.71 41.5534 1.71C42.7334 1.71 43.4934 2.61 43.4934 3.57C43.4934 4.53 42.7334 5.43 41.5534 5.43ZM55.258 6.43C53.598 6.43 52.318 7.12 52.318 8.28C52.318 9.44 53.598 10.13 55.258 10.13C56.918 10.13 58.198 9.44 58.198 8.28C58.198 7.12 56.918 6.43 55.258 6.43ZM59.208 4.03C58.048 3.93 56.968 3.68 56.148 3.26C55.928 3.15 55.738 3.02 55.568 2.87C55.638 2.76 55.688 2.64 55.728 2.51H58.668V1.89H51.728V2.51H54.868C54.798 2.67 54.688 2.82 54.548 2.95C53.868 3.61 52.598 3.99 51.208 4.09L51.538 4.69C52.378 4.64 53.388 4.4 54.218 3.99C54.578 3.82 54.888 3.61 55.158 3.36C55.368 3.53 55.608 3.68 55.858 3.81C56.768 4.29 57.878 4.58 58.868 4.64L59.208 4.03ZM55.258 9.51C54.038 9.51 53.078 9.06 53.078 8.28C53.078 7.51 54.038 7.05 55.258 7.05C56.478 7.05 57.438 7.51 57.438 8.28C57.438 9.06 56.478 9.51 55.258 9.51ZM50.838 5.33V5.95H59.598V5.33H55.608V4.3H54.828V5.33H50.838ZM57.098 0.709999H53.298V1.33H57.098V0.709999ZM69.5927 9.5V4.86H71.0327V9.74H71.7927V0.83H71.0327V4.18H69.5927V0.93H68.8427V9.5H69.5927ZM64.1427 1.27V8.13L68.3427 7.89V7.24L64.8927 7.39V1.93H67.7227V1.27H64.1427ZM81.016 9.69V9.06H74.706V8.3H80.806V6.35H77.826V5.6H81.766V4.98H73.006V5.6H77.046V6.35H73.946V6.97H80.046V7.69H73.946V9.69H81.016ZM81.376 3.81C80.226 3.75 79.136 3.54 78.316 3.12C78.116 3.02 77.936 2.9 77.776 2.77C77.826 2.68 77.866 2.6 77.896 2.51H80.836V1.89H73.896V2.51H77.036C76.956 2.66 76.846 2.79 76.706 2.91C75.986 3.51 74.686 3.83 73.376 3.89L73.706 4.49C74.756 4.44 76.216 4.13 77.126 3.46L77.376 3.26C77.576 3.41 77.796 3.55 78.036 3.67C78.946 4.12 80.066 4.38 81.036 4.42L81.376 3.81ZM79.266 0.709999H75.466V1.33H79.266V0.709999Z" fill="white"/>
<path d="M5.238 19.978C2.286 19.978 0.288 22.12 0.288 24.766C0.288 27.412 2.286 29.572 5.238 29.572C5.454 29.572 5.652 29.536 5.886 29.482L3.402 33.982H5.922L9.324 27.844C9.756 27.052 10.188 25.936 10.188 24.946C10.188 22.228 8.424 19.978 5.238 19.978ZM7.848 24.766C7.848 26.422 6.84 27.592 5.238 27.592C3.636 27.592 2.628 26.368 2.628 24.766C2.628 23.182 3.636 21.958 5.238 21.958C6.786 21.958 7.848 23.254 7.848 24.766ZM11.3167 27.16C11.3167 31.624 14.1067 34.342 17.2027 34.342C20.2987 34.342 23.0887 31.624 23.0887 27.16C23.0887 22.696 20.2987 19.978 17.2027 19.978C14.1067 19.978 11.3167 22.696 11.3167 27.16ZM20.7487 27.16C20.7487 30.4 19.0207 32.362 17.2027 32.362C15.3847 32.362 13.6567 30.4 13.6567 27.16C13.6567 23.92 15.3847 21.958 17.2027 21.958C19.0207 21.958 20.7487 23.92 20.7487 27.16ZM26.5037 32.65H23.9837V35.17H24.9917C24.9377 35.728 24.7577 36.232 24.1817 36.61L24.9737 37.384C25.9097 36.682 26.5037 35.764 26.5037 34.738V32.65ZM27.8049 27.16C27.8049 31.624 30.5949 34.342 33.6909 34.342C36.7869 34.342 39.5769 31.624 39.5769 27.16C39.5769 22.696 36.7869 19.978 33.6909 19.978C30.5949 19.978 27.8049 22.696 27.8049 27.16ZM37.2369 27.16C37.2369 30.4 35.5089 32.362 33.6909 32.362C31.8729 32.362 30.1449 30.4 30.1449 27.16C30.1449 23.92 31.8729 21.958 33.6909 21.958C35.5089 21.958 37.2369 23.92 37.2369 27.16ZM40.76 27.16C40.76 31.624 43.55 34.342 46.646 34.342C49.742 34.342 52.532 31.624 52.532 27.16C52.532 22.696 49.742 19.978 46.646 19.978C43.55 19.978 40.76 22.696 40.76 27.16ZM50.192 27.16C50.192 30.4 48.464 32.362 46.646 32.362C44.828 32.362 43.1 30.4 43.1 27.16C43.1 23.92 44.828 21.958 46.646 21.958C48.464 21.958 50.192 23.92 50.192 27.16ZM53.7151 27.16C53.7151 31.624 56.5051 34.342 59.6011 34.342C62.6971 34.342 65.4871 31.624 65.4871 27.16C65.4871 22.696 62.6971 19.978 59.6011 19.978C56.5051 19.978 53.7151 22.696 53.7151 27.16ZM63.1471 27.16C63.1471 30.4 61.4191 32.362 59.6011 32.362C57.7831 32.362 56.0551 30.4 56.0551 27.16C56.0551 23.92 57.7831 21.958 59.6011 21.958C61.4191 21.958 63.1471 23.92 63.1471 27.16ZM68.9022 32.65H66.3822V35.17H67.3902C67.3362 35.728 67.1562 36.232 66.5802 36.61L67.3722 37.384C68.3082 36.682 68.9022 35.764 68.9022 34.738V32.65ZM70.2034 27.16C70.2034 31.624 72.9934 34.342 76.0894 34.342C79.1854 34.342 81.9754 31.624 81.9754 27.16C81.9754 22.696 79.1854 19.978 76.0894 19.978C72.9934 19.978 70.2034 22.696 70.2034 27.16ZM79.6354 27.16C79.6354 30.4 77.9074 32.362 76.0894 32.362C74.2714 32.362 72.5434 30.4 72.5434 27.16C72.5434 23.92 74.2714 21.958 76.0894 21.958C77.9074 21.958 79.6354 23.92 79.6354 27.16ZM83.1585 27.16C83.1585 31.624 85.9485 34.342 89.0445 34.342C92.1405 34.342 94.9305 31.624 94.9305 27.16C94.9305 22.696 92.1405 19.978 89.0445 19.978C85.9485 19.978 83.1585 22.696 83.1585 27.16ZM92.5905 27.16C92.5905 30.4 90.8625 32.362 89.0445 32.362C87.2265 32.362 85.4985 30.4 85.4985 27.16C85.4985 23.92 87.2265 21.958 89.0445 21.958C90.8625 21.958 92.5905 23.92 92.5905 27.16ZM96.1135 27.16C96.1135 31.624 98.9035 34.342 102 34.342C105.096 34.342 107.886 31.624 107.886 27.16C107.886 22.696 105.096 19.978 102 19.978C98.9035 19.978 96.1135 22.696 96.1135 27.16ZM105.546 27.16C105.546 30.4 103.818 32.362 102 32.362C100.182 32.362 98.4535 30.4 98.4535 27.16C98.4535 23.92 100.182 21.958 102 21.958C103.818 21.958 105.546 23.92 105.546 27.16ZM115.081 18.826C112.417 18.826 110.437 20.248 110.437 22.372C110.437 24.496 112.417 25.918 115.081 25.918C117.745 25.918 119.725 24.496 119.725 22.372C119.725 20.248 117.745 18.826 115.081 18.826ZM118.249 30.85H121.849V31.768H124.261V19.258H121.849V29.014H118.249V30.85ZM111.607 30.85V35.08H124.585V33.028H114.019V30.85H111.607ZM116.197 30.472V28.402L121.111 28.33V26.422L109.321 26.566V28.51L113.749 28.438V30.472H116.197ZM115.081 23.974C113.731 23.974 112.849 23.326 112.849 22.372C112.849 21.418 113.731 20.77 115.081 20.77C116.395 20.77 117.313 21.418 117.313 22.372C117.313 23.326 116.395 23.974 115.081 23.974Z" fill="white"/>
</svg>
