<svg width="129" height="132" viewBox="0 0 129 132" fill="none" xmlns="http://www.w3.org/2000/svg">
<path d="M42.4203 86.4572H38.1603L34.7303 86.2772L32.7603 85.5872L31.2203 84.1672L30.0303 81.4372L29.2803 76.4172L29.9203 74.0972L31.2803 72.2772L36.5503 68.6472L47.7003 65.3172L52.2003 64.3972L61.6403 62.9772L66.8903 62.3972L72.3803 61.9172L79.9803 61.4472L88.9203 61.0872L104.54 60.8672L109.24 61.2172L113.48 61.7372L118.79 63.0872L121.76 64.4872L125.4 67.7472L126.89 70.4372L127.93 74.2172V78.1672L126.01 81.9672L123.32 83.9472L119.59 85.4772L116.22 85.7272L114.53 85.7772L42.4203 86.4572Z" fill="#EAEEF2"/>
<path d="M83.2199 45.837C83.2199 45.837 78.5799 26.717 92.5999 21.917" stroke="#242D3C" stroke-linecap="round" stroke-linejoin="round"/>
<path d="M89.8401 12.7266C83.3801 16.4366 88.8201 31.5466 95.3401 29.1966C101.86 26.8366 124.94 18.6666 125.87 13.5966C126.66 9.28661 122.75 -0.203393 117.3 1.12661C112.36 2.32661 92.1801 11.3766 89.8401 12.7266Z" stroke="#242D3C" stroke-linecap="round" stroke-linejoin="round"/>
<path d="M93.5798 22.9068C94.4798 23.0668 95.3298 22.4768 95.4898 21.5768C95.6498 20.6768 95.0598 19.8268 94.1598 19.6668C93.2598 19.5068 92.4098 20.0968 92.2498 20.9968C92.0898 21.8968 92.6798 22.7468 93.5798 22.9068Z" stroke="#242D3C" stroke-linecap="round" stroke-linejoin="round"/>
<path d="M96.95 13.4365L100.62 22.8465" stroke="#242D3C" stroke-linecap="round" stroke-linejoin="round"/>
<path d="M96.29 14.2267C96.29 14.2267 101.33 11.5067 102.11 14.3367C102.89 17.1667 98.6 17.6967 98.6 17.6967L104.91 20.4267" stroke="#242D3C" stroke-linecap="round" stroke-linejoin="round"/>
<path d="M106.63 10.6865C106.63 10.6865 103.39 11.1265 103.26 11.8865C103.12 12.6465 105.32 19.5765 106.26 19.4865C107.2 19.4065 109.57 17.9565 109.57 17.9565" stroke="#242D3C" stroke-linecap="round" stroke-linejoin="round"/>
<path d="M104.32 15.9465L107.96 14.3965" stroke="#242D3C" stroke-linecap="round" stroke-linejoin="round"/>
<path d="M111.6 18.3671C111.6 18.3671 107.84 10.3771 108.68 10.2971C109.52 10.2171 114.47 16.0871 115.14 15.9471C115.8 15.7971 112.98 9.42715 112.11 8.82715" stroke="#242D3C" stroke-linecap="round" stroke-linejoin="round"/>
<path d="M113.96 8.14684L119.45 5.50684" stroke="#242D3C" stroke-linecap="round" stroke-linejoin="round"/>
<path d="M116.43 6.77637C116.43 6.77637 119.14 12.5164 119.6 13.9364" stroke="#242D3C" stroke-linecap="round" stroke-linejoin="round"/>
<path d="M15.55 130.717L28.06 122.777C28.06 122.777 16.43 109.767 15.55 108.547C15.55 108.547 3.69 113.057 1 114.737L15.55 130.707V130.717Z" fill="#242D3C"/>
<path d="M102.78 95.9771C96.5097 95.9771 91.4297 91.4071 91.4297 85.7771C91.4297 80.1471 96.5097 75.5771 102.78 75.5771C109.05 75.5771 114.13 80.1471 114.13 85.7771C114.13 91.4071 109.05 95.9771 102.78 95.9771Z" fill="white"/>
<path d="M101.73 75.5771C107.41 75.5771 112.03 80.1471 112.03 85.7771C112.03 91.4071 107.41 95.9771 101.73 95.9771C96.0497 95.9771 91.4297 91.4071 91.4297 85.7771C91.4297 80.1471 96.0397 75.5771 101.73 75.5771ZM102.78 89.8671C105.29 89.8671 107.33 88.0371 107.33 85.7871C107.33 83.5371 105.29 81.7071 102.78 81.7071C100.27 81.7071 98.2297 83.5371 98.2297 85.7871C98.2297 88.0371 100.27 89.8671 102.78 89.8671Z" fill="#242D3C" stroke="#242D3C" stroke-miterlimit="10"/>
<path d="M65.3399 35.9464C70.5099 27.2064 83.8999 43.4564 83.8999 43.4564C83.8999 43.4564 60.5699 44.0164 65.3399 35.9464ZM83.3899 43.3764C83.3899 43.3764 71.2599 33.2964 69.2699 36.0364C67.2899 38.7664 75.5799 42.7864 83.3899 43.3764Z" fill="#D7191F"/>
<path d="M53.2602 95.9771C46.9902 95.9771 41.9102 91.4071 41.9102 85.7771C41.9102 80.1471 46.9902 75.5771 53.2602 75.5771C59.5302 75.5771 64.6102 80.1471 64.6102 85.7771C64.6102 91.4071 59.5302 95.9771 53.2602 95.9771Z" fill="white"/>
<path d="M52.1999 75.5771C57.8799 75.5771 62.4999 80.1471 62.4999 85.7771C62.4999 91.4071 57.8799 95.9771 52.1999 95.9771C46.5199 95.9771 41.8999 91.4071 41.8999 85.7771C41.8999 80.1471 46.5099 75.5771 52.1999 75.5771ZM53.2499 89.8671C55.7599 89.8671 57.7999 88.0371 57.7999 85.7871C57.7999 83.5371 55.7599 81.7071 53.2499 81.7071C50.7399 81.7071 48.6999 83.5371 48.6999 85.7871C48.6999 88.0371 50.7399 89.8671 53.2499 89.8671Z" fill="#242D3C" stroke="#242D3C" stroke-miterlimit="10"/>
<path d="M97.3299 35.9266C99.1699 40.7866 89.0799 42.7366 85.2899 43.2866C90.4599 42.9466 104 41.3566 99.4199 34.2466C94.2499 26.1966 83.3799 43.3866 83.3799 43.3866C83.3799 43.3866 83.5899 43.3866 83.9799 43.3666C85.0399 42.1066 95.1799 30.2866 97.3199 35.9366L97.3299 35.9266Z" fill="#D7191F"/>
<path d="M114.13 85.7766C114.13 85.7766 129.94 86.5466 127.93 74.2166C125.65 60.3166 111.79 60.1666 83.2902 61.2966C54.7902 62.4266 28.3102 67.1866 29.3102 77.1666C30.3202 87.1366 33.3502 86.6866 42.4302 86.4566" stroke="#242D3C" stroke-linecap="round" stroke-linejoin="round"/>
<path d="M102.78 95.9771C96.5097 95.9771 91.4297 91.4071 91.4297 85.7771C91.4297 80.1471 96.5097 75.5771 102.78 75.5771C109.05 75.5771 114.13 80.1471 114.13 85.7771C114.13 91.4071 109.05 95.9771 102.78 95.9771Z" stroke="#242D3C" stroke-linecap="round" stroke-linejoin="round"/>
<path d="M91.4301 85.7764H66.8901" stroke="#242D3C" stroke-linecap="round" stroke-linejoin="round"/>
<path d="M108.86 61.9769C108.86 61.9769 110.12 42.9369 83.8899 44.0669C57.6599 45.1969 55.1399 55.3969 53.1099 64.0069" stroke="#242D3C" stroke-linecap="round" stroke-linejoin="round"/>
<path d="M61.15 103.437C61.15 103.437 86.28 109.847 89.35 107.047C92.43 104.247 67.65 93.257 41.54 97.837C29.15 100.017 21.22 101.917 1 114.737" stroke="#242D3C" stroke-linecap="round" stroke-linejoin="round"/>
<path d="M48.8301 114.837C48.8301 114.837 76.0101 116.037 84.8201 114.537C93.6301 113.037 114.89 97.8772 114.52 96.4072C114.15 94.9472 108.69 93.6872 89.5701 103.277" stroke="#242D3C" stroke-linecap="round" stroke-linejoin="round"/>
<path d="M41.8998 115.297C41.8998 115.297 37.0898 116.567 15.5498 130.707" stroke="#242D3C" stroke-linecap="round" stroke-linejoin="round"/>
<path d="M14.71 103.217C14.71 103.217 24.69 120.077 33.09 126.267" stroke="#242D3C" stroke-linecap="round" stroke-linejoin="round"/>
<path d="M53.2602 95.9771C46.9902 95.9771 41.9102 91.4071 41.9102 85.7771C41.9102 80.1471 46.9902 75.5771 53.2602 75.5771C59.5302 75.5771 64.6102 80.1471 64.6102 85.7771C64.6102 91.4071 59.5302 95.9771 53.2602 95.9771Z" stroke="#242D3C" stroke-linecap="round" stroke-linejoin="round"/>
<path d="M83.4499 43.4671C83.4499 43.4671 83.9799 43.4071 84.8499 43.2871C84.3199 43.3271 83.8699 43.3471 83.5399 43.3571C83.4799 43.4271 83.4399 43.4671 83.4399 43.4671H83.4499Z" fill="#D7191F"/>
<path d="M110.16 95.4168C110.16 95.4168 112.45 94.1668 112.03 93.2968C111.85 92.9468 111.68 92.7568 111.06 92.7568" stroke="#242D3C" stroke-linecap="round" stroke-linejoin="round"/>
<path d="M98.8602 95.3467C92.8202 97.4467 85.9902 100.817 85.9902 100.817" stroke="#242D3C" stroke-linecap="round" stroke-linejoin="round"/>
<path d="M81.2197 99.4468C81.2197 99.4468 92.7897 93.7268 99.1297 92.5468C106.36 91.2068 106.84 91.0368 107.27 91.9068C107.7 92.7768 105.4 94.0268 105.4 94.0268" stroke="#242D3C" stroke-linecap="round" stroke-linejoin="round"/>
<path d="M78.3701 98.9273C78.3701 98.9273 89.9401 93.2073 96.2801 92.0273C103.51 90.6873 103.99 90.5173 104.42 91.3873C104.85 92.2573 102.55 93.5073 102.55 93.5073" stroke="#242D3C" stroke-linecap="round" stroke-linejoin="round"/>
<path d="M83.8999 43.4671C83.8999 43.4671 70.4999 27.2171 65.3399 35.9671C60.5699 44.0371 83.8999 43.4671 83.8999 43.4671Z" stroke="#242D3C" stroke-linecap="round" stroke-linejoin="round"/>
<path d="M83.3799 43.3769C83.3799 43.3769 105.04 42.9669 99.4199 34.2369C94.2499 26.1869 83.3799 43.3769 83.3799 43.3769Z" stroke="#242D3C" stroke-linecap="round" stroke-linejoin="round"/>
<path d="M83.3801 43.3766C83.3801 43.3766 71.2501 33.2966 69.2601 36.0366C67.2701 38.7766 75.5701 42.7866 83.3801 43.3766Z" stroke="#242D3C" stroke-linecap="round" stroke-linejoin="round"/>
<path d="M83.8999 43.4671C83.8999 43.4671 95.0699 29.9571 97.3299 35.9271C99.5899 41.8971 83.8999 43.4571 83.8999 43.4571V43.4671Z" stroke="#242D3C" stroke-linecap="round" stroke-linejoin="round"/>
<path d="M88.4502 83.3672C88.4502 83.3672 72.1902 83.9172 68.1602 83.3672" stroke="#242D3C" stroke-width="0.5" stroke-linecap="round" stroke-linejoin="round"/>
<path d="M127.36 79.957C127.36 79.957 122.7 83.637 115.64 83.627" stroke="#242D3C" stroke-width="0.5" stroke-linecap="round" stroke-linejoin="round"/>
<path d="M40.2802 84.9172C40.2802 84.9172 32.2002 85.3972 30.7402 83.3672" stroke="#242D3C" stroke-width="0.5" stroke-linecap="round" stroke-linejoin="round"/>
<path d="M37.0801 46.1172L38.5801 50.7672" stroke="#242D3C" stroke-linecap="round" stroke-linejoin="round"/>
<path d="M28.7197 51.8066L31.4897 54.9766" stroke="#242D3C" stroke-linecap="round" stroke-linejoin="round"/>
<path d="M23.6201 59.8672L27.6101 60.5672" stroke="#242D3C" stroke-linecap="round" stroke-linejoin="round"/>
<path d="M32.2899 74.467C32.2899 74.467 32.3999 75.507 36.1199 75.527C41.9099 75.567 41.9199 72.517 38.6699 72.677C35.4099 72.837 31.8099 72.677 32.2899 74.467Z" stroke="#242D3C" stroke-miterlimit="10"/>
<path d="M81.27 44.0166H84.85V85.7766H81.27V44.0166Z" fill="#D7191F" stroke="#242D3C" stroke-miterlimit="10"/>
<path d="M51.3001 32.1568C51.3001 32.1568 51.3501 28.2068 54.6801 29.5768C58.0801 30.9668 54.3401 36.7468 54.3401 36.7468C54.3401 36.7468 47.4301 36.2968 47.0301 33.6368C46.5001 30.1068 51.3001 32.1568 51.3001 32.1568Z" stroke="#242D3C" stroke-linecap="round" stroke-linejoin="round"/>
<path d="M60.89 19.9573C60.89 19.9573 63.45 16.7473 65.31 19.5873C67.2 22.4773 60.45 25.2873 60.45 25.2873C60.45 25.2873 55.07 21.3573 56.45 18.9773C58.27 15.8073 60.89 19.9573 60.89 19.9573Z" stroke="#242D3C" stroke-linecap="round" stroke-linejoin="round"/>
</svg>
