<svg width="124" height="141" viewBox="0 0 124 141" fill="none" xmlns="http://www.w3.org/2000/svg">
<path d="M12.87 29.11V21.715H10.86V29.11H12.87ZM2.55 29.71V35.065H12.84V29.71H2.55ZM4.56 31.39H10.83V33.355H4.56V31.39ZM1.44 23.83H6.54C6.06 25.69 3.795 27.16 0.555 27.805L1.5 29.365C5.115 28.6 8.775 26.35 8.73 22.15H1.44V23.83ZM26.555 25H18.095V23.575H26.405V21.925H16.085V26.665H20.3V27.595H14.645V29.245H27.845V27.595H22.34V26.665H26.555V25ZM21.305 29.695C18.68 29.695 16.82 30.91 16.82 32.77C16.82 34.63 18.68 35.845 21.305 35.845C23.93 35.845 25.79 34.63 25.79 32.77C25.79 30.91 23.93 29.695 21.305 29.695ZM21.305 34.225C19.685 34.225 18.83 33.655 18.83 32.77C18.83 31.885 19.685 31.315 21.305 31.315C22.925 31.315 23.78 31.885 23.78 32.77C23.78 33.655 22.925 34.225 21.305 34.225ZM33.5801 25.285C31.2551 25.285 29.8451 26.29 29.8451 27.775C29.8451 29.26 31.2551 30.265 33.5801 30.265C35.8901 30.265 37.3151 29.26 37.3151 27.775C37.3151 26.29 35.8901 25.285 33.5801 25.285ZM37.6901 26.995H39.4901V27.91H37.6901V29.56H39.4901V31.84H41.5001V21.715H39.4901V25.345H37.6901V26.995ZM31.1951 30.985V35.005H41.8751V33.295H33.2051V30.985H31.1951ZM38.0201 24.97V23.44H29.0201V24.97H38.0201ZM36.0701 22.93V21.4H30.9701V22.93H36.0701ZM33.5801 28.795C32.3801 28.795 31.8251 28.39 31.8251 27.775C31.8251 27.16 32.3801 26.755 33.5801 26.755C34.7801 26.755 35.3351 27.16 35.3351 27.775C35.3351 28.39 34.7801 28.795 33.5801 28.795ZM43.8151 22V28.54L52.7551 28.135V26.455L45.8251 26.68V22H43.8151ZM55.3651 29.11V21.715H53.3551V29.11H55.3651ZM45.0451 29.71V35.065H55.3351V29.71H45.0451ZM47.0551 31.39H53.3251V33.355H47.0551V31.39ZM65.6602 34.81H67.5802V21.865H65.6602V26.44H64.5352C64.7002 25.15 64.7752 23.755 64.7602 22.255H61.5652V23.965H62.8402C62.7652 26.92 62.2402 30.04 60.3952 32.515L61.9552 33.46C62.9902 32.02 63.7102 30.385 64.1452 28.555L64.2352 28.18H65.6602V34.81ZM70.1152 35.14V21.715H68.1652V35.14H70.1152ZM57.8002 23.965H59.2852C59.1652 26.77 58.6402 29.32 56.9302 31.585L58.4602 32.5C60.4252 29.86 61.2052 26.65 61.2052 22.255H57.8002V23.965ZM88.4371 29.56V26.275H89.8771V24.535H88.4371V21.715H86.4571V29.56H88.4371ZM88.4071 35.215V30.16H77.6671V31.87H86.3971V35.215H88.4071ZM76.6921 22.165V29.125L80.9221 28.75V27.1L78.6721 27.265V23.845H80.8471V22.165H76.6921ZM81.2971 22.165V29.185L85.9321 28.84V27.19L83.2771 27.325V23.845H85.4521V22.165H81.2971ZM103.354 28.555V22.15H95.839V28.555H103.354ZM97.159 35.215C98.539 35.035 100.114 34.57 101.374 33.79C101.644 33.625 101.899 33.43 102.124 33.235L102.604 33.595C103.924 34.435 105.529 34.99 107.074 35.17L108.064 33.655C106.369 33.415 104.749 33.025 103.474 32.245C103.369 32.185 103.264 32.11 103.159 32.035C103.294 31.84 103.399 31.615 103.474 31.39H107.344V29.71H96.904V31.39H101.284L101.059 31.735C100.129 32.905 98.254 33.49 96.049 33.7L97.159 35.215ZM107.224 29.11V26.2H108.814V24.46H107.224V21.715H105.214V29.11H107.224ZM97.849 23.83H101.344V26.875H97.849V23.83ZM121.389 25.18H112.929V21.775H110.919V26.875H121.389V25.18ZM122.679 29.965V28.285H109.479V29.965H122.679ZM110.979 30.715V35.005H121.764V33.295H112.989V30.715H110.979ZM12.075 57.155V49.94H13.98V48.2H12.075V43.715H10.065V57.155H12.075ZM1.155 44.255V54.8L9.465 54.335V52.655L3.165 52.94V45.935H8.415V44.255H1.155ZM23.63 48.905C23.63 46.205 21.755 44.315 19.28 44.315C16.805 44.315 14.93 46.205 14.93 48.905C14.93 51.605 16.805 53.495 19.28 53.495C21.755 53.495 23.63 51.605 23.63 48.905ZM21.62 48.905C21.62 50.645 20.66 51.785 19.28 51.785C17.9 51.785 16.94 50.645 16.94 48.905C16.94 47.165 17.9 46.025 19.28 46.025C20.66 46.025 21.62 47.165 21.62 48.905ZM27.14 57.155V43.715H25.13V57.155H27.14ZM35.9351 51.185V49.535L31.4351 49.73V48.545H34.8401V44.09H29.4551V45.77H32.8601V46.895H29.4551V51.56L35.9351 51.185ZM41.4401 57.215V52.46H30.5501V54.17H39.4301V57.215H41.4401ZM36.6851 51.86H38.6351V43.85H36.6851V46.67H35.2751V48.41H36.6851V51.86ZM41.4701 51.86V43.715H39.4901V51.86H41.4701ZM56.1751 56.015V54.305H42.9751V56.015H56.1751ZM55.0351 52.37V50.645H46.4101V49.115H54.5851V47.405H46.3951V45.935H54.7351V44.225H44.4001V52.37H55.0351ZM71.482 49.94C70.507 49.565 69.652 49.055 68.887 48.425C68.362 47.99 67.942 47.465 67.597 46.85C67.642 46.745 67.672 46.625 67.717 46.505C68.002 45.68 68.152 44.825 68.167 43.925H66.127C66.007 46.76 64.597 49.19 61.732 50.42L62.992 51.86C64.417 51.185 65.692 50.105 66.607 48.74L66.757 48.53C67.717 49.85 69.007 50.9 70.357 51.47L71.482 49.94ZM64.297 52.415V57.005H74.977V55.295H66.307V52.415H64.297ZM74.602 53.57V43.715H72.592V53.57H74.602ZM89.4271 51.545V49.955H86.3821V48.125C86.6371 47.915 86.8621 47.675 87.0271 47.405C87.2671 47.03 87.3871 46.61 87.3871 46.16C87.3871 44.345 85.3921 43.145 82.8271 43.145C81.5521 43.145 80.4121 43.445 79.5871 43.97C78.3421 44.69 77.8921 46.25 78.6121 47.405C78.7771 47.675 79.0021 47.915 79.2721 48.14V49.955H76.2271V51.545H89.4271ZM82.8871 51.995C80.2621 51.995 78.4021 53.165 78.4021 54.92C78.4021 56.675 80.2621 57.845 82.8871 57.845C85.5121 57.845 87.3721 56.675 87.3721 54.92C87.3721 53.165 85.5121 51.995 82.8871 51.995ZM82.8271 44.735C84.2221 44.735 85.3771 45.32 85.3771 46.16C85.3771 47 84.2221 47.585 82.8271 47.585C81.4321 47.585 80.2771 47 80.2771 46.16C80.2771 45.32 81.4321 44.735 82.8271 44.735ZM82.8871 56.255C81.2671 56.255 80.4121 55.715 80.4121 54.92C80.4121 54.125 81.2671 53.585 82.8871 53.585C84.5071 53.585 85.3621 54.125 85.3621 54.92C85.3621 55.715 84.5071 56.255 82.8871 56.255ZM82.8271 49.175C83.3671 49.175 83.8771 49.13 84.3721 49.025V49.955H81.2821V49.025C81.7621 49.13 82.2721 49.175 82.8271 49.175ZM97.9671 56.81H99.9171V50.18H101.087V57.14H103.067V43.715H101.087V48.44H99.9171V43.865H97.9671V56.81ZM91.2021 44.345V54.785L97.3671 54.425V52.745L93.1821 52.925V46.055H96.8121V44.345H91.2021ZM117.757 51.125V49.685H104.557V51.125H110.137V51.815H105.907V53.255H114.367V53.765H105.907V57.065H116.692V55.61H107.917V55.085H116.377V51.815H112.177V51.125H117.757ZM105.817 49.355C107.317 49.295 108.982 49.04 110.332 48.47C110.602 48.35 110.857 48.215 111.097 48.08C111.352 48.245 111.622 48.395 111.922 48.53C113.212 49.085 114.862 49.31 116.422 49.25L117.292 47.78C115.492 47.75 113.947 47.66 112.777 47.18L112.312 46.955C112.327 46.91 112.357 46.88 112.387 46.835H116.422V45.335H105.832V46.835H109.927C109.657 47.03 109.327 47.18 108.937 47.3C107.932 47.615 106.567 47.765 105.007 47.84L105.817 49.355ZM114.067 43.415H108.187V44.915H114.067V43.415ZM121.257 44.045H119.277L119.442 53.255H121.092L121.257 44.045ZM119.217 54.455H121.317V56.555H119.217V54.455Z" fill="#242D3C"/>
<path d="M0.9 8.95H3.94C5.5 8.95 6.5 7.94 6.5 6.77C6.5 5.58 5.63 5.03 5.02 4.79C5.44 4.55 5.9 4.07 5.9 3.33C5.9 2.3 5.04 1.45 3.64 1.45H0.9V8.95ZM3.94 5.22C5.03 5.22 5.76 5.93 5.76 6.77C5.76 7.6 5.03 8.31 3.94 8.31H1.64V5.22H3.94ZM3.64 2.09C4.57 2.09 5.16 2.64 5.16 3.33C5.16 4.01 4.57 4.58 3.64 4.58H1.64V2.09H3.64ZM12.7369 8.95H13.4969V1.45H12.7569V6.99L12.7769 7.89L12.3369 7.16L8.45688 1.45H7.69688V8.95H8.43688V3.19L8.41688 2.5L8.74688 3.1L12.7369 8.95ZM19.9845 8.95H20.9945L16.9045 4.98L20.6945 1.45H19.7145L16.0345 4.95V1.45H15.2945V8.95H16.0345V5.04L19.9845 8.95ZM23.6961 1.31C22.3561 1.31 21.2261 2.48 21.2261 4.27C21.2261 6.07 22.3561 7.24 23.6961 7.24C24.7161 7.24 25.5661 6.58 25.9661 5.5C26.0661 5.22 26.1261 4.91 26.1561 4.58H27.1861V9.51H27.9361V0.92H27.1861V3.9H26.1461C26.1161 3.6 26.0561 3.32 25.9661 3.06C25.5661 1.97 24.7161 1.31 23.6961 1.31ZM23.6961 6.57C22.7061 6.57 21.9761 5.7 21.9761 4.27C21.9761 2.84 22.7061 1.97 23.6961 1.97C24.6861 1.97 25.4161 2.84 25.4161 4.27C25.4161 5.7 24.6861 6.57 23.6961 6.57ZM29.6661 9.74V0.83H28.9061V9.74H29.6661ZM37.0895 7.58C36.4195 7.15 35.8295 6.62 35.3095 6C34.8195 5.41 34.4195 4.8 34.1195 4.16C34.1795 3.95 34.2395 3.73 34.2895 3.51C34.4495 2.78 34.5295 1.98 34.5295 1.11H33.7495C33.7195 4.28 32.5795 6.57 30.6295 7.9L31.1395 8.43C32.1495 7.68 33.0095 6.71 33.5995 5.51C33.6795 5.34 33.7595 5.18 33.8295 5.01C33.9295 5.2 34.0395 5.38 34.1695 5.57C34.8195 6.57 35.7095 7.54 36.5695 8.16L37.0895 7.58ZM38.9895 9.75V0.83H38.2295V3.83H35.9295V4.51H38.2295V9.75H38.9895ZM44.1341 5.51C45.1041 5.42 46.1841 5.08 47.0241 4.59C47.3541 4.4 47.6341 4.18 47.8741 3.95C48.0641 4.14 48.2741 4.31 48.5041 4.46C49.4041 5.04 50.5141 5.42 51.5241 5.5L51.9041 4.88C50.7441 4.78 49.6841 4.47 48.8841 3.93C48.6641 3.78 48.4641 3.62 48.2941 3.44C48.3941 3.27 48.4641 3.1 48.5141 2.91H51.4641V2.27H44.3041V2.91H47.6741C47.6041 3.12 47.4841 3.31 47.3241 3.48C46.6441 4.22 45.2941 4.72 43.7441 4.9L44.1341 5.51ZM48.2741 9.75V6.95H52.2641V6.29H43.5041V6.95H47.4941V9.75H48.2741ZM45.8441 0.809999V1.45H49.9241V0.809999H45.8441ZM59.0274 2.77V2.13H53.4874V2.77H55.9974C55.9474 3 55.8774 3.22 55.7874 3.43C55.2874 4.54 54.2074 5.46 52.8474 5.96L53.2874 6.52C54.1574 6.17 55.0474 5.59 55.7174 4.86C55.8774 4.68 56.0274 4.49 56.1574 4.3C56.2874 4.46 56.4274 4.62 56.5774 4.77C57.2774 5.45 58.1574 5.98 59.0374 6.24L59.4474 5.61C58.7974 5.44 58.2174 5.18 57.6874 4.84C57.2074 4.52 56.8174 4.14 56.5074 3.71L56.5374 3.64C56.6674 3.36 56.7674 3.07 56.8174 2.77H59.0274ZM61.0874 7.51V0.83H60.3274V3.59H58.5574V4.25H60.3274V7.51H61.0874ZM61.3374 9.65V8.99H55.2374V6.99H54.4774V9.65H61.3374ZM57.8674 1.34V0.7H54.6474V1.34H57.8674ZM67.1808 6.14C67.1808 4.83 66.3208 3.72 64.9908 3.72C63.6608 3.72 62.8008 4.83 62.8008 6.14C62.8008 7.45 63.6608 8.56 64.9908 8.56C66.3208 8.56 67.1808 7.45 67.1808 6.14ZM68.7708 9.5V5.16H70.0608V9.74H70.8208V0.83H70.0608V4.48H68.7708V0.93H68.0208V9.5H68.7708ZM66.4308 6.14C66.4308 7.1 65.9208 7.91 64.9908 7.91C64.0608 7.91 63.5508 7.1 63.5508 6.14C63.5508 5.18 64.0608 4.37 64.9908 4.37C65.9208 4.37 66.4308 5.18 66.4308 6.14ZM67.4108 3.1V2.44H62.4708V3.1H67.4108ZM66.3608 1.61V0.949999H63.6208V1.61H66.3608ZM71.8341 8.15V8.81H80.5941V8.15H71.8341ZM79.7841 5.32H73.5841V1.87H79.5841L79.5941 1.21H72.8241V5.99H79.7941L79.7841 5.32ZM87.4875 7.95V7.3L82.6775 7.55V4.93H86.1575V1.15H81.9175V1.81H85.3975V4.27H81.9175V8.27L87.4875 7.95ZM89.2875 9.75V0.83H88.5275V2.53H86.8275V3.2H88.5275V5.13H86.8275V5.8H88.5275V9.75H89.2875ZM95.0909 0.809999C93.1409 0.809999 91.8309 2.08 91.8309 3.52C91.8309 4.96 93.1409 6.23 95.0909 6.23C97.0409 6.23 98.3509 4.96 98.3509 3.52C98.3509 2.08 97.0409 0.809999 95.0909 0.809999ZM95.0909 5.57C93.5509 5.57 92.5909 4.62 92.5909 3.52C92.5909 2.42 93.5509 1.47 95.0909 1.47C96.6309 1.47 97.5909 2.42 97.5909 3.52C97.5909 4.62 96.6309 5.57 95.0909 5.57ZM90.7209 8.25V8.91H99.4809V8.25H97.5109V6.36H96.7409V8.25H93.4909V6.36H92.7209V8.25H90.7209Z" fill="#D7191F"/>
<path d="M28 121L23 118.113V123.887L28 121ZM12 121.5H23.5V120.5H12V121.5Z" fill="#242D3C"/>
<circle cx="20" cy="121" r="19.5" stroke="#EFEFEF"/>
</svg>
