<svg width="86" height="34" viewBox="0 0 86 34" fill="none" xmlns="http://www.w3.org/2000/svg">
<path d="M8.052 6.512H9.746V6.006H8.052V1.991H7.469V11.77H8.052V6.512ZM1.804 8.734H1.65V2.948H1.067V9.24H1.804C3.333 9.24 4.763 9.13 6.468 8.789L6.38 8.294C4.741 8.635 3.3 8.734 1.804 8.734ZM18.0281 11.781V2.002H17.4451V11.781H18.0281ZM13.3751 2.75C11.8461 2.75 10.8011 3.652 10.8011 4.983C10.8011 6.314 11.8461 7.216 13.3751 7.216C14.9041 7.216 15.9491 6.314 15.9491 4.983C15.9491 3.652 14.9041 2.75 13.3751 2.75ZM13.3751 3.256C14.5521 3.256 15.3881 3.971 15.3881 4.983C15.3881 5.995 14.5521 6.71 13.3751 6.71C12.1981 6.71 11.3621 5.995 11.3621 4.983C11.3621 3.971 12.1981 3.256 13.3751 3.256ZM10.2511 9.02L10.3501 9.526C12.1431 9.526 14.5521 9.526 16.8071 9.119L16.7521 8.668C14.5741 9.02 12.0771 9.02 10.2511 9.02ZM22.2478 5.797L22.4348 6.259C23.8978 6.05 25.5038 5.467 26.0648 4.345C26.6258 5.467 28.2318 6.05 29.6948 6.259L29.8818 5.797C28.2758 5.621 26.3728 4.829 26.3728 3.487H29.5518V3.003H26.3618V1.925H25.7788V3.003H22.5998V3.487H25.7568C25.7568 4.829 23.8538 5.621 22.2478 5.797ZM30.4758 7.634V7.15H26.3618V5.775H25.7788V7.15H21.6428V7.634H30.4758ZM26.0648 8.547C23.9528 8.547 22.7428 9.086 22.7428 10.142C22.7428 11.198 23.9528 11.737 26.0648 11.737C28.1768 11.737 29.3868 11.198 29.3868 10.142C29.3868 9.086 28.1768 8.547 26.0648 8.547ZM26.0648 11.275C24.3818 11.275 23.3258 10.846 23.3258 10.142C23.3258 9.427 24.3818 8.998 26.0648 8.998C27.7478 8.998 28.8038 9.427 28.8038 10.142C28.8038 10.846 27.7478 11.275 26.0648 11.275ZM38.6479 6.567H40.3639V6.072H38.6479V2.002H38.0649V11.77H38.6479V6.567ZM34.3359 5.181V3.542H36.6349V3.036H31.4209V3.542H33.7639V5.181C33.7639 6.886 32.3559 8.734 31.0909 9.383L31.4539 9.867C32.5209 9.273 33.6099 7.942 34.0499 6.457C34.4899 7.821 35.5349 9.064 36.5909 9.625L36.9319 9.152C35.6339 8.536 34.3359 6.765 34.3359 5.181ZM49.845 5.588V5.082H48.316V1.991H47.733V9.262H48.316V5.588H49.845ZM46.105 7.557L46.391 7.084C45.049 6.589 43.883 5.324 43.883 3.916V2.585H43.322V3.872C43.322 5.5 42.211 6.831 40.825 7.359L41.133 7.832C42.288 7.359 43.234 6.413 43.63 5.126C44.037 6.248 45.005 7.117 46.105 7.557ZM48.789 11.033H42.97V8.558H42.387V11.528H48.789V11.033ZM54.7722 6.171C56.8512 6.171 58.1492 5.467 58.1492 4.257C58.1492 3.047 56.8512 2.354 54.7722 2.354C52.6932 2.354 51.3952 3.047 51.3952 4.257C51.3952 5.467 52.6932 6.171 54.7722 6.171ZM54.7722 2.827C56.4442 2.827 57.5552 3.377 57.5552 4.257C57.5552 5.137 56.4442 5.687 54.7722 5.687C53.1002 5.687 51.9892 5.137 51.9892 4.257C51.9892 3.377 53.1002 2.827 54.7722 2.827ZM59.1832 7.722V7.227H50.3502V7.722H59.1832ZM58.2262 11.033H52.1212V8.701H51.5382V11.528H58.2262V11.033ZM66.9228 4.796H69.1778V7.029H69.7608V1.991H69.1778V4.301H66.9228C66.7578 2.992 65.7128 2.365 64.4588 2.365C63.0068 2.365 61.9838 3.256 61.9838 4.565C61.9838 5.852 63.0068 6.776 64.4588 6.776C65.8118 6.776 66.8018 5.973 66.9228 4.796ZM62.5448 4.565C62.5448 3.597 63.3588 2.849 64.4588 2.849C65.5588 2.849 66.3728 3.597 66.3728 4.565C66.3728 5.533 65.5588 6.281 64.4588 6.281C63.3588 6.281 62.5448 5.533 62.5448 4.565ZM70.1788 11.616V11.132H64.1728V9.801H69.7608V7.623H63.5788V8.107H69.1888V9.328H63.6008V11.616H70.1788ZM78.8129 6.523H80.5289V6.028H78.8129V2.002H78.2299V11.759H78.8129V6.523ZM76.1949 3.014H71.8279V9.218H76.1949V3.014ZM75.6339 8.734H72.3999V3.498H75.6339V8.734ZM82.4971 9.372H83.0801C82.8161 6.556 84.8731 6.908 84.8731 4.895C84.8731 3.498 84.1141 2.827 82.9701 2.761C81.9581 2.695 80.7811 3.388 80.6601 5.159H81.2321C81.4411 3.63 82.2991 3.344 82.9151 3.311C84.0041 3.278 84.3231 4.224 84.3231 4.939C84.2901 5.687 83.8721 6.05 83.3991 6.523C82.9261 6.963 82.3541 7.909 82.4971 9.372ZM83.1241 10.439H82.4861V11.143H83.1241V10.439Z" fill="black"/>
<path d="M12.474 24.61V23.42H10.5V18.436H9.058V31.078H10.5V24.61H12.474ZM5.138 22.104V20.886H7.812V19.696H0.938V20.886H3.696V22.104C3.696 22.6267 3.61667 23.1587 3.458 23.7C3.30867 24.2413 3.094 24.7593 2.814 25.254C2.534 25.7393 2.19333 26.1827 1.792 26.584C1.4 26.976 0.961333 27.2887 0.476 27.522L1.302 28.67C1.666 28.4927 2.00667 28.2687 2.324 27.998C2.65067 27.718 2.94467 27.41 3.206 27.074C3.47667 26.7287 3.71467 26.3553 3.92 25.954C4.12533 25.5433 4.298 25.1187 4.438 24.68C4.72733 25.5013 5.13333 26.234 5.656 26.878C6.17867 27.522 6.79467 28.012 7.504 28.348L8.302 27.214C7.826 26.99 7.392 26.6913 7 26.318C6.608 25.9353 6.272 25.5153 5.992 25.058C5.72133 24.5913 5.51133 24.106 5.362 23.602C5.21267 23.0887 5.138 22.5893 5.138 22.104ZM24.5549 22.216H22.7629V18.422H21.3209V27.746H22.7629V23.406H24.5549V22.216ZM19.6129 25.772L20.3409 24.624C19.8649 24.456 19.4402 24.2367 19.0669 23.966C18.6936 23.6953 18.3762 23.3873 18.1149 23.042C17.8629 22.6967 17.6669 22.3233 17.5269 21.922C17.3962 21.5207 17.3309 21.11 17.3309 20.69V19.206H15.8749V20.676C15.8749 21.1333 15.8049 21.5813 15.6649 22.02C15.5342 22.4587 15.3382 22.8647 15.0769 23.238C14.8156 23.6113 14.4889 23.9427 14.0969 24.232C13.7142 24.5213 13.2709 24.75 12.7669 24.918L13.5509 26.038C14.3069 25.7673 14.9416 25.3753 15.4549 24.862C15.9682 24.3487 16.3602 23.742 16.6309 23.042C16.9109 23.658 17.3029 24.2087 17.8069 24.694C18.3109 25.17 18.9129 25.5293 19.6129 25.772ZM16.2249 29.664V26.85H14.7829V30.84H23.2669V29.664H16.2249ZM36.7058 22.44H35.0258V18.436H33.5698V27.928H35.0258V23.63H36.7058V22.44ZM30.3358 23.7L31.7498 23.854C31.9085 23.0327 31.9971 22.314 32.0158 21.698C32.0438 21.0727 32.0578 20.5453 32.0578 20.116V19.388H25.7018V20.564H30.6438C30.6345 20.956 30.6111 21.4087 30.5738 21.922C30.5458 22.426 30.4665 23.0187 30.3358 23.7ZM32.8978 25.534L32.7998 24.484C32.1745 24.5867 31.5305 24.6613 30.8678 24.708C30.2145 24.7547 29.5518 24.792 28.8798 24.82V22.272H27.4518V24.862C27.0038 24.8807 26.5698 24.89 26.1498 24.89H24.9318L25.0858 26.066C25.6365 26.066 26.2291 26.0613 26.8638 26.052C27.4985 26.0333 28.1518 26.0053 28.8238 25.968C29.5051 25.9307 30.1911 25.8793 30.8818 25.814C31.5725 25.7393 32.2445 25.646 32.8978 25.534ZM28.2918 29.664V27.088H26.8358V30.84H35.4318V29.664H28.2918ZM47.6807 18.408H46.2247V31.106H47.6807V18.408ZM39.4207 26.906V24.246H43.8307V19.556H37.9367V20.732H42.3747V23.084H37.9647V28.096H39.0427C40.1534 28.096 41.2081 28.068 42.2067 28.012C43.2054 27.956 44.2461 27.8347 45.3287 27.648L45.1747 26.472C44.1761 26.6307 43.2147 26.7427 42.2907 26.808C41.3761 26.864 40.4194 26.8967 39.4207 26.906Z" fill="black"/>
</svg>
