<svg width="86" height="34" viewBox="0 0 86 34" fill="none" xmlns="http://www.w3.org/2000/svg">
<path d="M8.855 11.77V1.991H8.294V6.094H6.6V2.233H6.039V11.242H6.6V6.611H8.294V11.77H8.855ZM1.749 8.624V3.234H1.166V9.152H1.749C2.849 9.152 3.949 9.086 5.324 8.811L5.247 8.294C3.916 8.569 2.805 8.624 1.749 8.624ZM17.6211 6.644H19.3371V6.138H17.6211V2.002H17.0381V11.77H17.6211V6.644ZM13.2871 5.225V4.246H15.5861V3.751H13.2871V2.145H12.7041V3.751H10.3831V4.246H12.7151V5.225C12.7151 7.04 11.4941 8.712 10.1521 9.383L10.4931 9.834C11.5931 9.251 12.6051 8.041 13.0121 6.578C13.3641 7.821 14.2551 9.042 15.4101 9.647L15.7621 9.185C14.4421 8.536 13.2871 6.908 13.2871 5.225ZM29.5738 11.781V2.002H28.9908V11.781H29.5738ZM24.9098 4.851V2.904H24.3378V4.851C24.3378 6.644 22.9188 8.558 21.6428 9.196L22.0058 9.669C23.0948 9.086 24.1948 7.755 24.6348 6.237C25.0748 7.689 26.2078 8.954 27.2638 9.515L27.6268 9.042C26.3398 8.426 24.9098 6.633 24.9098 4.851ZM39.4729 11.77V2.002H38.9119V11.77H39.4729ZM37.4709 2.244H36.9099V5.632H35.0729V6.127H36.9099V11.253H37.4709V2.244ZM33.9619 4.95V2.959H33.4119V4.961C33.4119 6.633 32.4329 8.393 31.1459 9.13L31.5309 9.57C32.5429 8.954 33.3459 7.777 33.6979 6.369C34.0499 7.656 34.8199 8.778 35.7879 9.361L36.1619 8.91C34.8969 8.173 33.9619 6.479 33.9619 4.95ZM48.173 6.644H49.878V6.149H48.173V1.991H47.59V11.77H48.173V6.644ZM44.026 8.976V7.117C45.346 6.996 46.259 6.127 46.259 4.895C46.259 3.542 45.214 2.662 43.729 2.662C42.222 2.662 41.177 3.542 41.177 4.895C41.177 6.16 42.09 6.996 43.443 7.117V8.998C42.431 9.031 41.507 9.042 40.671 9.042L40.781 9.548C42.541 9.548 44.873 9.526 46.952 9.174L46.908 8.734C45.984 8.866 45.005 8.932 44.026 8.976ZM41.749 4.895C41.749 3.894 42.585 3.157 43.729 3.157C44.862 3.157 45.698 3.894 45.698 4.895C45.698 5.896 44.862 6.633 43.729 6.633C42.585 6.633 41.749 5.896 41.749 4.895ZM61.2697 5.797V5.291H59.7297V2.002H59.1467V9.383H59.7297V5.797H61.2697ZM56.7267 6.094L57.3097 6.149C57.5847 4.818 57.5847 3.861 57.5847 3.245V2.794H52.8327V3.278H57.0127C57.0127 3.894 57.0237 4.774 56.7267 6.094ZM58.4647 7.293L58.4207 6.842C57.3537 7.007 56.1877 7.073 55.0437 7.117V4.906H54.4607V7.139C53.6577 7.172 52.8987 7.161 52.2277 7.161L52.3047 7.678C54.0317 7.678 56.4187 7.612 58.4647 7.293ZM60.0487 11.033H54.3507V8.69H53.7677V11.528H60.0487V11.033ZM69.7498 11.781V2.002H69.1668V11.781H69.7498ZM63.1828 8.866H62.9848V6.259H66.8348V2.948H62.3688V3.454H66.2628V5.764H62.4018V9.361H63.1828C64.7888 9.361 66.2958 9.295 68.1658 8.998L68.1108 8.503C66.2518 8.8 64.7668 8.866 63.1828 8.866ZM72.6309 5.61H79.1979V5.115H73.2139V2.354H72.6309V5.61ZM80.2429 7.59V7.095H71.3769V7.59H80.2429ZM79.2529 11.022H73.1699V8.69H72.5869V11.517H79.2529V11.022ZM82.4971 9.372H83.0801C82.8161 6.556 84.8731 6.908 84.8731 4.895C84.8731 3.498 84.1141 2.827 82.9701 2.761C81.9581 2.695 80.7811 3.388 80.6601 5.159H81.2321C81.4411 3.63 82.2991 3.344 82.9151 3.311C84.0041 3.278 84.3231 4.224 84.3231 4.939C84.2901 5.687 83.8721 6.05 83.3991 6.523C82.9261 6.963 82.3541 7.909 82.4971 9.372ZM83.1241 10.439H82.4861V11.143H83.1241V10.439Z" fill="black"/>
<path d="M11.466 18.436H10.094V23.462H8.596V18.688H7.238V30.448H8.596V24.652H10.094V31.078H11.466V18.436ZM2.716 26.654V19.892H1.274V27.886H2.114C2.786 27.886 3.486 27.8627 4.214 27.816C4.942 27.7693 5.73067 27.6667 6.58 27.508L6.426 26.276C5.726 26.4067 5.07267 26.5 4.466 26.556C3.85933 26.6027 3.276 26.6353 2.716 26.654ZM24.6529 24.694V23.504H22.6789V18.422H21.2369V31.078H22.6789V24.694H24.6529ZM17.2609 22.454V21.726H19.9349V20.564H17.2609V18.688H15.8189V20.564H13.1029V21.726H15.8189V22.454C15.8189 22.9673 15.7442 23.4807 15.5949 23.994C15.4549 24.5073 15.2496 24.9927 14.9789 25.45C14.7176 25.898 14.3956 26.3087 14.0129 26.682C13.6302 27.046 13.1962 27.3447 12.7109 27.578L13.5089 28.684C14.2369 28.348 14.8576 27.8533 15.3709 27.2C15.8842 26.5467 16.2809 25.8093 16.5609 24.988C16.8222 25.7533 17.1956 26.444 17.6809 27.06C18.1756 27.6667 18.7636 28.1333 19.4449 28.46L20.2429 27.354C19.7762 27.13 19.3562 26.8407 18.9829 26.486C18.6189 26.122 18.3062 25.7253 18.0449 25.296C17.7929 24.8573 17.5969 24.3953 17.4569 23.91C17.3262 23.4247 17.2609 22.9393 17.2609 22.454ZM36.7058 22.44H35.0258V18.436H33.5698V27.928H35.0258V23.63H36.7058V22.44ZM30.3358 23.7L31.7498 23.854C31.9085 23.0327 31.9971 22.314 32.0158 21.698C32.0438 21.0727 32.0578 20.5453 32.0578 20.116V19.388H25.7018V20.564H30.6438C30.6345 20.956 30.6111 21.4087 30.5738 21.922C30.5458 22.426 30.4665 23.0187 30.3358 23.7ZM32.8978 25.534L32.7998 24.484C32.1745 24.5867 31.5305 24.6613 30.8678 24.708C30.2145 24.7547 29.5518 24.792 28.8798 24.82V22.272H27.4518V24.862C27.0038 24.8807 26.5698 24.89 26.1498 24.89H24.9318L25.0858 26.066C25.6365 26.066 26.2291 26.0613 26.8638 26.052C27.4985 26.0333 28.1518 26.0053 28.8238 25.968C29.5051 25.9307 30.1911 25.8793 30.8818 25.814C31.5725 25.7393 32.2445 25.646 32.8978 25.534ZM28.2918 29.664V27.088H26.8358V30.84H35.4318V29.664H28.2918ZM47.6807 18.408H46.2247V31.106H47.6807V18.408ZM39.4207 26.906V24.246H43.8307V19.556H37.9367V20.732H42.3747V23.084H37.9647V28.096H39.0427C40.1534 28.096 41.2081 28.068 42.2067 28.012C43.2054 27.956 44.2461 27.8347 45.3287 27.648L45.1747 26.472C44.1761 26.6307 43.2147 26.7427 42.2907 26.808C41.3761 26.864 40.4194 26.8967 39.4207 26.906Z" fill="black"/>
</svg>
