<svg width="150" height="141" viewBox="0 0 150 141" fill="none" xmlns="http://www.w3.org/2000/svg">
<path d="M5.295 26.185C2.91 26.185 1.485 27.775 1.485 29.77C1.485 31.765 2.91 33.355 5.295 33.355C7.68 33.355 9.105 31.765 9.105 29.77C9.105 27.775 7.68 26.185 5.295 26.185ZM9.405 29.125H11.265V35.155H13.275V21.715H11.265V27.385H9.405V29.125ZM9.6 25.81V24.1H0.99V25.81H9.6ZM5.295 31.675C4.08 31.675 3.495 30.895 3.495 29.77C3.495 28.645 4.08 27.865 5.295 27.865C6.51 27.865 7.095 28.645 7.095 29.77C7.095 30.895 6.51 31.675 5.295 31.675ZM7.65 23.395V21.685H3V23.395H7.65ZM19.565 21.715C17.285 21.715 15.695 23.38 15.695 25.195C15.695 27.01 17.285 28.675 19.565 28.675C21.845 28.675 23.435 27.01 23.435 25.195C23.435 23.38 21.845 21.715 19.565 21.715ZM27.23 35.155V21.715H25.22V35.155H27.23ZM20.705 34.84V30.835L24.695 30.775V29.125L14.87 29.245V30.925L18.665 30.865V34.84H20.705ZM19.565 26.995C18.425 26.995 17.705 26.125 17.705 25.195C17.705 24.265 18.425 23.395 19.565 23.395C20.705 23.395 21.425 24.265 21.425 25.195C21.425 26.125 20.705 26.995 19.565 26.995ZM40.392 32.635V22.345H34.482V32.635H40.392ZM41.382 34.81H43.332V28.18H44.427V35.14H46.407V21.715H44.427V26.44H43.332V21.865H41.382V34.81ZM36.462 24.055H38.412V30.925H36.462V24.055ZM60.032 35.065V33.55H51.257V32.965H59.717V29.515H55.517V28.675H61.097V27.085H47.897V28.675H53.477V29.515H49.247V31.015H57.707V31.585H49.247V35.065H60.032ZM59.657 26.455V21.925H49.337V26.455H59.657ZM51.347 23.515H57.647V24.865H51.347V23.515ZM74.452 28.675V21.715H72.442V24.295H70.237C70.192 24.085 70.117 23.875 70.027 23.68C69.442 22.36 68.047 21.52 66.397 21.52C64.177 21.52 62.467 23.02 62.467 25.12C62.467 27.22 64.177 28.72 66.397 28.72C68.047 28.72 69.442 27.865 70.027 26.575C70.102 26.395 70.177 26.2 70.222 26.005H72.442V28.675H74.452ZM69.382 35.065V34.315L70.342 35.335C70.717 35.08 71.107 34.765 71.482 34.36C71.857 33.97 72.217 33.52 72.532 33.01L72.652 33.19C73.282 34.135 74.152 34.885 74.962 35.275L76.042 33.85C75.397 33.565 74.812 33.205 74.302 32.77C73.882 32.41 73.537 31.96 73.252 31.435L73.312 31.27C73.507 30.64 73.627 29.965 73.642 29.245H71.662C71.617 30.43 71.362 31.405 70.897 32.17C70.492 32.845 69.997 33.385 69.382 33.82V29.275H67.432V30.61H65.872V29.275H63.922V35.065H69.382ZM66.397 27.07C65.197 27.07 64.477 26.275 64.477 25.12C64.477 23.965 65.197 23.17 66.397 23.17C67.597 23.17 68.317 23.965 68.317 25.12C68.317 26.275 67.597 27.07 66.397 27.07ZM67.432 33.385H65.872V32.2H67.432V33.385ZM88.1371 25.18H79.6771V21.775H77.6671V26.875H88.1371V25.18ZM89.4271 29.965V28.285H76.2271V29.965H89.4271ZM77.7271 30.715V35.005H88.5121V33.295H79.7371V30.715H77.7271ZM1.2 56H5.805C8.25 56 9.825 54.38 9.825 52.52C9.825 51.02 8.925 50.015 7.83 49.655C8.505 49.28 8.925 48.53 8.925 47.645C8.925 45.98 7.62 44.6 5.385 44.6H1.2V56ZM5.805 50.72C7.05 50.72 7.845 51.545 7.845 52.52C7.845 53.495 7.05 54.32 5.805 54.32H3.18V50.72H5.805ZM5.385 46.28C6.405 46.28 6.945 46.88 6.945 47.645C6.945 48.41 6.405 49.04 5.385 49.04H3.18V46.28H5.385ZM18.5803 56H20.3953V44.6H18.4153V52.475L13.2103 44.6H11.3953V56H13.3753V48.185L18.5803 56ZM29.7668 56H32.1668L26.8568 49.985L31.7768 44.6H29.3768L24.7718 49.655V44.6H22.7918V56H24.7718V50.42L29.7668 56ZM39.5491 56.81H41.4991V50.33H42.6691V57.14H44.6491V43.715H42.6691V48.59H41.4991V43.865H39.5491V56.81ZM32.6641 46.04H36.3991C36.3541 46.745 36.2491 47.465 36.0541 48.17L32.3041 48.305V50.015L35.4091 49.865L35.1691 50.345C34.4041 51.71 33.2941 52.955 31.7791 53.96L33.2041 55.265C36.3841 52.94 38.4691 49.385 38.4691 44.33H32.6641V46.04ZM46.4392 54.83L55.8742 54.365V52.685L54.1042 52.76L54.2542 46.715H52.2442L52.1092 52.835L50.0242 52.925L49.9042 46.715H47.8942L48.0292 53L46.4392 53.06V54.83ZM58.4842 57.155V43.715H56.4742V57.155H58.4842ZM55.2142 44.255H46.7392V45.965H55.2142V44.255ZM72.2142 50.78V48.02H73.8042V46.31H72.2142V43.715H70.2042V50.78H72.2142ZM72.4842 57.065V55.46H64.0542V54.86H72.1842V51.23H62.0442V52.82H70.1742V53.39H62.0442V57.065H72.4842ZM68.4942 46.415H62.9142V45.68H68.6442V44.06H60.9042V50.6L69.6042 50.225V48.635L62.9142 48.83V47.975H68.4942V46.415ZM87.0711 50.915C84.5511 50.915 82.7361 52.28 82.7361 54.23C82.7361 56.195 84.5511 57.545 87.0711 57.545C89.5911 57.545 91.4061 56.195 91.4061 54.23C91.4061 52.28 89.5911 50.915 87.0711 50.915ZM88.8111 48.83C87.3111 48.56 86.0661 48.11 85.1811 47.255C85.0761 47.15 84.9861 47.06 84.9111 46.955L84.9561 46.865C85.1211 46.52 85.2411 46.145 85.3311 45.77H88.3011V44.15H79.7661V45.77H83.2311C83.1711 45.95 83.1111 46.13 83.0361 46.295C82.3461 47.84 80.9061 48.92 78.9111 49.49L80.0811 50.99C81.2961 50.615 82.6461 49.82 83.6811 48.725C83.7861 48.62 83.8761 48.5 83.9661 48.395L84.1011 48.53C85.0911 49.49 86.4261 50.18 87.7761 50.42L88.8111 48.83ZM91.4511 51.05V48.02H93.0411V46.31H91.4511V43.715H89.4411V51.05H91.4511ZM87.0711 55.895C85.5711 55.895 84.7461 55.235 84.7461 54.23C84.7461 53.225 85.5711 52.565 87.0711 52.565C88.5711 52.565 89.3961 53.225 89.3961 54.23C89.3961 55.235 88.5711 55.895 87.0711 55.895ZM105.901 57.155V43.715H103.891V57.155H105.901ZM94.5162 45.965H99.7662C99.4812 49.04 97.3962 52.13 93.9012 53.81L95.1912 55.235C98.9412 53.225 101.941 49.475 101.896 44.255H94.5162V45.965ZM114.846 51.635V49.985L110.346 50.18V48.755H113.751V44.09H108.366V45.77H111.771V47.105H108.366V52.01L114.846 51.635ZM109.896 52.685V57.005H120.726V55.295H111.906V52.685H109.896ZM115.596 53.63H117.546V43.85H115.596V46.805H114.186V48.545H115.596V53.63ZM120.381 53.96V43.715H118.401V53.96H120.381ZM129.386 48.575H124.796V45.86H130.046V44.15H122.786V55.025L131.171 54.56V52.88L124.796 53.165V50.27H129.386V48.575ZM130.151 50.075H132.221V57.155H134.231V43.715H132.221V48.335H130.151V50.075ZM136.831 45.965H141.961C141.916 46.67 141.781 47.39 141.541 48.095L136.591 48.23V49.94L140.731 49.805C140.611 50 140.476 50.18 140.341 50.375C139.366 51.755 137.941 52.985 136.096 53.84L137.416 55.235C141.136 53.315 144.256 49.58 144.091 44.255H136.831V45.965ZM147.646 57.155V50.39H149.551V48.65H147.646V43.715H145.636V57.155H147.646Z" fill="#242D3C"/>
<path d="M0.9 8.95H3.94C5.5 8.95 6.5 7.94 6.5 6.77C6.5 5.58 5.63 5.03 5.02 4.79C5.44 4.55 5.9 4.07 5.9 3.33C5.9 2.3 5.04 1.45 3.64 1.45H0.9V8.95ZM3.94 5.22C5.03 5.22 5.76 5.93 5.76 6.77C5.76 7.6 5.03 8.31 3.94 8.31H1.64V5.22H3.94ZM3.64 2.09C4.57 2.09 5.16 2.64 5.16 3.33C5.16 4.01 4.57 4.58 3.64 4.58H1.64V2.09H3.64ZM12.7369 8.95H13.4969V1.45H12.7569V6.99L12.7769 7.89L12.3369 7.16L8.45688 1.45H7.69688V8.95H8.43688V3.19L8.41688 2.5L8.74688 3.1L12.7369 8.95ZM19.9845 8.95H20.9945L16.9045 4.98L20.6945 1.45H19.7145L16.0345 4.95V1.45H15.2945V8.95H16.0345V5.04L19.9845 8.95ZM32.1273 9.75V4.71H33.5773V4.03H32.1273V0.83H31.3673V9.75H32.1273ZM25.1073 1.21V8.13L30.8273 7.82V7.16L25.8673 7.39V1.87H29.6873V1.21H25.1073ZM42.1707 9.75V0.83H41.4107V9.75H42.1707ZM37.1207 1.25C35.5207 1.25 34.2907 2.47 34.2907 4.27C34.2907 6.08 35.5207 7.3 37.1207 7.3C38.7207 7.3 39.9507 6.08 39.9507 4.27C39.9507 2.47 38.7207 1.25 37.1207 1.25ZM37.1207 1.93C38.3107 1.93 39.1707 2.82 39.1707 4.26C39.1707 5.67 38.3707 6.62 37.1207 6.62C35.8707 6.62 35.0707 5.67 35.0707 4.26C35.0707 2.82 35.9307 1.93 37.1207 1.93ZM43.9741 3.15V5.95L48.3341 5.73V5.1L44.7241 5.25V3.77H47.3541V1.08H43.9741V1.72H46.6041V3.15H43.9741ZM51.7041 9.8V6.84H44.7041V7.5H50.9441V9.8H51.7041ZM49.7341 6.34V0.91H48.9841V3.03H47.7441V3.69H48.9841V6.34H49.7341ZM51.7241 6.34V0.83H50.9641V6.34H51.7241ZM52.9474 8.15V8.81H61.7074V8.15H52.9474ZM60.6074 3.46H54.6974V1.87H60.7074V1.21H53.9374V6.43H60.9074V5.76H54.6974V4.12H60.6074V3.46Z" fill="#D7191F"/>
<path d="M28 121L23 118.113V123.887L28 121ZM12 121.5H23.5V120.5H12V121.5Z" fill="#242D3C"/>
<circle cx="20" cy="121" r="19.5" stroke="#EFEFEF"/>
</svg>
