<svg width="53" height="54" viewBox="0 0 53 54" fill="none" xmlns="http://www.w3.org/2000/svg">
<path d="M7.616 47.254C5.264 47.254 3.57 48.528 3.57 50.348C3.57 52.182 5.264 53.442 7.616 53.442C9.968 53.442 11.662 52.182 11.662 50.348C11.662 48.528 9.968 47.254 7.616 47.254ZM9.1 45.336C7.784 44.972 6.608 44.384 5.768 43.404L5.516 43.068C5.53 43.054 5.53 43.026 5.544 42.998C5.838 42.298 5.992 41.542 6.006 40.73H4.102C3.976 43.292 2.45 45.042 0 45.882L1.148 47.254C2.31 46.82 3.514 46.008 4.424 44.888C4.522 44.776 4.606 44.65 4.704 44.524L4.718 44.552C5.642 45.644 6.86 46.428 8.078 46.792L9.1 45.336ZM11.704 47.38V44.552H13.188V42.956H11.704V40.534H9.828V47.38H11.704ZM7.616 51.902C6.216 51.902 5.446 51.286 5.446 50.348C5.446 49.41 6.216 48.794 7.616 48.794C9.016 48.794 9.786 49.41 9.786 50.348C9.786 51.286 9.016 51.902 7.616 51.902ZM21.1727 42.508V40.94H14.2287V46.974L22.3487 46.596V45.028L16.1047 45.238V42.508H21.1727ZM24.7847 47.436V44.58H26.2687V42.956H24.7847V40.534H22.9087V47.436H24.7847ZM15.2927 47.996V52.994H24.7567V47.996H15.2927ZM17.1687 49.564H22.8807V51.398H17.1687V49.564ZM35.6814 46.344C34.7714 45.994 33.9734 45.518 33.2594 44.93C32.7694 44.524 32.3774 44.034 32.0554 43.46C32.0974 43.362 32.1254 43.25 32.1674 43.138C32.4334 42.368 32.5734 41.57 32.5874 40.73H30.6834C30.5714 43.376 29.2554 45.644 26.5814 46.792L27.7574 48.136C29.0874 47.506 30.2774 46.498 31.1314 45.224L31.2714 45.028C32.1674 46.26 33.3714 47.24 34.6314 47.772L35.6814 46.344ZM28.9754 48.654V52.938H38.9434V51.342H30.8514V48.654H28.9754ZM38.5934 49.732V40.534H36.7174V49.732H38.5934ZM40.9641 47.716C42.1401 47.422 43.3721 46.764 44.3101 45.868L44.5481 45.616L44.6601 45.714C45.6261 46.568 46.9561 47.1 48.1181 47.24L49.0421 45.742C47.7261 45.546 46.5221 45.196 45.6541 44.468L45.4581 44.272C45.5561 44.09 45.6261 43.894 45.6961 43.684H48.2301V45.14H49.9381V47.66H51.8141V40.534H49.9381V43.6H48.5661V42.2H40.7541V43.684H43.6801C43.4841 44.16 43.1901 44.566 42.7981 44.916C42.0841 45.532 41.1321 45.98 39.9141 46.274L40.9641 47.716ZM47.5301 47.534C45.1781 47.534 43.4841 48.738 43.4841 50.488C43.4841 52.238 45.1781 53.442 47.5301 53.442C49.8821 53.442 51.5761 52.238 51.5761 50.488C51.5761 48.738 49.8821 47.534 47.5301 47.534ZM47.5301 51.93C46.1301 51.93 45.3601 51.37 45.3601 50.488C45.3601 49.606 46.1301 49.046 47.5301 49.046C48.9301 49.046 49.7001 49.606 49.7001 50.488C49.7001 51.37 48.9301 51.93 47.5301 51.93ZM47.0821 41.724V40.24H42.3781V41.724H47.0821Z" fill="#242D3C"/>
<g clip-path="url(#clip0_189_8)">
<path d="M21.6519 12.9828H16.5912C15.9546 12.9828 15.4385 13.4661 15.4385 14.0624V22.0317C15.4385 22.6279 15.9546 23.1112 16.5912 23.1112H21.6519C22.2885 23.1112 22.8046 22.6279 22.8046 22.0317V14.0624C22.8046 13.4661 22.2885 12.9828 21.6519 12.9828Z" fill="#D7191F"/>
<path d="M37.341 12.9826H32.4385C31.8218 12.9826 31.3218 13.466 31.3218 14.0622V22.0315C31.3218 22.6278 31.8218 23.1111 32.4385 23.1111H37.341C37.9578 23.1111 38.4577 22.6278 38.4577 22.0315V14.0622C38.4577 13.466 37.9578 12.9826 37.341 12.9826Z" fill="#D7191F"/>
<path d="M38.5613 23.2173H36.2594V12.343C36.2594 7.23733 32.1067 3.08467 27.001 3.08467C21.8954 3.08467 17.7404 7.23733 17.7404 12.343V23.2173H15.4385V12.343C15.4385 5.96897 20.6247 0.782745 26.9987 0.782745C33.3727 0.782745 38.5613 5.96897 38.5613 12.343V23.2173Z" fill="#242D3C"/>
</g>
<defs>
<clipPath id="clip0_189_8">
<rect width="24" height="24" fill="white" transform="translate(15)"/>
</clipPath>
</defs>
</svg>
