<svg width="26" height="46" viewBox="0 0 26 46" fill="none" xmlns="http://www.w3.org/2000/svg">
<path d="M6.49992 13.5417H2.16659C1.51659 13.5417 1.08325 13.9584 1.08325 14.5834V22.9167C1.08325 23.5417 1.51659 23.9584 2.16659 23.9584H6.49992C7.14992 23.9584 7.58325 23.5417 7.58325 22.9167V14.5834C7.58325 13.9584 7.14992 13.5417 6.49992 13.5417ZM23.8333 9.37508H19.4999C18.8499 9.37508 18.4166 9.79175 18.4166 10.4167V22.9167C18.4166 23.5417 18.8499 23.9584 19.4999 23.9584H23.8333C24.4832 23.9584 24.9166 23.5417 24.9166 22.9167V10.4167C24.9166 9.79175 24.4832 9.37508 23.8333 9.37508ZM15.1666 1.04175H10.8333C10.1833 1.04175 9.74992 1.45841 9.74992 2.08341V22.9167C9.74992 23.5417 10.1833 23.9584 10.8333 23.9584H15.1666C15.8166 23.9584 16.2499 23.5417 16.2499 22.9167V2.08341C16.2499 1.45841 15.8166 1.04175 15.1666 1.04175Z" fill="#CACACA"/>
<path d="M10.93 39.04H12.41V38.35H10.93V34.78H10.11V43.74H10.93V39.04ZM8.5 35.67H4.39V41.46H8.5V35.67ZM7.7 40.8H5.19V36.33H7.7V40.8ZM20.5692 43.76V34.77H19.7492V43.76H20.5692ZM15.8392 35.46C14.5092 35.46 13.5592 36.68 13.5592 38.59C13.5592 40.5 14.5092 41.72 15.8392 41.72C17.1692 41.72 18.1192 40.5 18.1192 38.59C18.1192 36.68 17.1692 35.46 15.8392 35.46ZM15.8392 36.2C16.7092 36.2 17.3292 37.14 17.3292 38.59C17.3292 40.05 16.7092 40.99 15.8392 40.99C14.9592 40.99 14.3392 40.05 14.3392 38.59C14.3392 37.14 14.9592 36.2 15.8392 36.2Z" fill="#666666"/>
</svg>
