<svg width="65" height="28" viewBox="0 0 65 28" fill="none" xmlns="http://www.w3.org/2000/svg">
<rect x="45" y="6" width="20" height="2.22222" rx="1.11111" fill="#111111"/>
<rect x="45" y="12.6667" width="20" height="2.22222" rx="1.11111" fill="#111111"/>
<rect x="45" y="19.3333" width="20" height="2.22222" rx="1.11111" fill="#111111"/>
<g opacity="0.14" filter="url(#filter0_i_285_10)">
<circle cx="14" cy="14" r="14" fill="white"/>
</g>
<path d="M20.86 11.5732C20.86 9.71673 20.1225 7.93625 18.8097 6.62349C17.497 5.31074 15.7165 4.57324 13.86 4.57324C12.0035 4.57324 10.223 5.31074 8.91023 6.62349C7.59748 7.93625 6.85998 9.71673 6.85998 11.5732C6.85998 19.7399 4.47998 20.9532 4.47998 20.9532H23.24C23.24 20.9532 20.86 19.7399 20.86 11.5732Z" stroke="black" stroke-width="2" stroke-linecap="round" stroke-linejoin="round"/>
<path d="M15.8782 24.5C15.6731 24.8536 15.3787 25.1471 15.0245 25.3511C14.6703 25.5551 14.2687 25.6625 13.8599 25.6625C13.4511 25.6625 13.0495 25.5551 12.6953 25.3511C12.3411 25.1471 12.0467 24.8536 11.8416 24.5" stroke="black" stroke-width="2" stroke-linecap="round" stroke-linejoin="round"/>
<circle cx="23.8438" cy="3.0625" r="2.1875" fill="#ED030D"/>
<defs>
<filter id="filter0_i_285_10" x="-2" y="-2" width="30" height="30" filterUnits="userSpaceOnUse" color-interpolation-filters="sRGB">
<feFlood flood-opacity="0" result="BackgroundImageFix"/>
<feBlend mode="normal" in="SourceGraphic" in2="BackgroundImageFix" result="shape"/>
<feColorMatrix in="SourceAlpha" type="matrix" values="0 0 0 0 0 0 0 0 0 0 0 0 0 0 0 0 0 0 127 0" result="hardAlpha"/>
<feOffset dx="-2" dy="-2"/>
<feGaussianBlur stdDeviation="2.5"/>
<feComposite in2="hardAlpha" operator="arithmetic" k2="-1" k3="1"/>
<feColorMatrix type="matrix" values="0 0 0 0 0 0 0 0 0 0 0 0 0 0 0 0 0 0 0.03 0"/>
<feBlend mode="normal" in2="shape" result="effect1_innerShadow_285_10"/>
</filter>
</defs>
</svg>
