<svg width="28" height="46" viewBox="0 0 28 46" fill="none" xmlns="http://www.w3.org/2000/svg">
<path d="M7.15117 18.8781C4.34967 17.2562 2.625 14.7 2.625 11.8802C2.625 6.98021 7.76867 3.125 14 3.125C20.2313 3.125 25.375 6.98021 25.375 11.8802C25.375 17.4219 20.2313 20.6354 14 20.6354C13.5212 20.6354 13.0445 20.6125 12.5722 20.5677L8.49342 23.1281C7.82717 23.4677 7.45667 23.5708 6.88467 23.1969C6.213 22.7552 6.239 22.2677 6.47192 21.5719L7.15117 18.8781ZM4.79167 11.8802C4.79167 14.101 6.32783 16.175 8.88775 17.4219L9.65258 17.7958L9.45108 18.5979L9.01667 20.3146L12.05 18.4083L12.4465 18.4563C12.9589 18.5198 13.4778 18.5521 14 18.5521C19.1361 18.5521 23.2083 15.5 23.2083 11.8802C23.2083 8.26042 19.1361 5.20833 14 5.20833C8.86392 5.20833 4.79167 8.26042 4.79167 11.8802ZM20.3992 11.5198L22.0394 13.7646C22.078 13.8175 22.1055 13.8771 22.1201 13.9402C22.1347 14.0032 22.1363 14.0685 22.1248 14.1321C22.1132 14.1957 22.0887 14.2566 22.0527 14.3111C22.0167 14.3657 21.9698 14.4129 21.9148 14.45C21.8598 14.4871 21.7978 14.5135 21.7322 14.5276C21.6666 14.5417 21.5988 14.5432 21.5326 14.5321C21.4664 14.5209 21.4032 14.4974 21.3464 14.4627C21.2897 14.4281 21.2406 14.3831 21.202 14.3302L19.655 12.2125L19.1924 12.6427V14.0625C19.1924 14.1929 19.1385 14.318 19.0427 14.4102C18.9468 14.5024 18.8167 14.5542 18.6811 14.5542C18.5455 14.5542 18.4154 14.5024 18.3195 14.4102C18.2236 14.318 18.1697 14.1929 18.1697 14.0625V12.5635C18.1506 12.4876 18.1506 12.4083 18.1697 12.3323V9.66875C18.1697 9.53835 18.2236 9.41329 18.3195 9.32109C18.4154 9.22888 18.5455 9.17708 18.6811 9.17708C18.8167 9.17708 18.9468 9.22888 19.0427 9.32109C19.1385 9.41329 19.1924 9.53835 19.1924 9.66875V11.275L21.2811 9.33125C21.3795 9.24597 21.5085 9.20074 21.6409 9.20509C21.7733 9.20945 21.8988 9.26304 21.9909 9.35459C22.083 9.44614 22.1346 9.56849 22.1347 9.69588C22.1349 9.82326 22.0836 9.94574 21.9917 10.0375L20.3992 11.5198ZM17.1947 13.525C17.3304 13.525 17.4604 13.5768 17.5563 13.669C17.6522 13.7612 17.7061 13.8863 17.7061 14.0167C17.7061 14.1471 17.6522 14.2721 17.5563 14.3643C17.4604 14.4565 17.3304 14.5083 17.1947 14.5083H15.1017C14.9663 14.5081 14.8365 14.4561 14.7409 14.364C14.6452 14.2718 14.5915 14.1469 14.5915 14.0167V9.68437C14.5883 9.61797 14.5992 9.55164 14.6234 9.48939C14.6476 9.42714 14.6848 9.37025 14.7325 9.32218C14.7802 9.27411 14.8376 9.23585 14.9012 9.2097C14.9647 9.18356 15.0332 9.17008 15.1023 9.17008C15.1714 9.17008 15.2398 9.18356 15.3034 9.2097C15.367 9.23585 15.4243 9.27411 15.4721 9.32218C15.5198 9.37025 15.5569 9.42714 15.5812 9.48939C15.6054 9.55164 15.6163 9.61797 15.6131 9.68437V13.525H17.1947ZM10.8497 12.3875H12.2948L11.6037 10.6094L10.8497 12.3875ZM13.5829 12.8958L13.9567 13.8594C13.9825 13.9203 13.9953 13.9856 13.9944 14.0514C13.9935 14.1172 13.9789 14.1821 13.9514 14.2424C13.9239 14.3026 13.8841 14.3569 13.8344 14.4021C13.7847 14.4473 13.7261 14.4825 13.662 14.5055C13.5978 14.5285 13.5296 14.5389 13.4612 14.5361C13.3929 14.5333 13.3258 14.5173 13.264 14.4891C13.2022 14.4609 13.1469 14.4211 13.1013 14.3719C13.0558 14.3228 13.021 14.2654 12.999 14.2031L12.6762 13.3708H10.4337L10.0751 14.2177C10.0497 14.2775 10.0123 14.3319 9.96504 14.3778C9.91779 14.4236 9.8616 14.4601 9.79969 14.4851C9.73777 14.5101 9.67134 14.5232 9.60418 14.5235C9.53702 14.5238 9.47046 14.5114 9.40829 14.487C9.34612 14.4626 9.28956 14.4266 9.24184 14.3812C9.19412 14.3357 9.15618 14.2817 9.13017 14.2222C9.10417 14.1626 9.09061 14.0988 9.09028 14.0342C9.08995 13.9696 9.10285 13.9056 9.12825 13.8458L10.9266 9.60104C10.9814 9.46337 11.0786 9.34505 11.2052 9.26185C11.3318 9.17866 11.4818 9.13456 11.6351 9.13542C11.7871 9.14146 11.9336 9.19197 12.055 9.2802C12.1763 9.36843 12.2668 9.49017 12.3143 9.62917L13.4475 12.5458C13.5356 12.6362 13.5848 12.7553 13.5851 12.8792L13.5829 12.8958ZM9.98408 9.68958C9.98408 9.96042 9.75658 10.1813 9.47383 10.1813H8.23883V14.0729C8.23883 14.2035 8.1849 14.3286 8.08891 14.4209C7.99291 14.5132 7.86272 14.5651 7.72696 14.5651C7.5912 14.5651 7.461 14.5132 7.36501 14.4209C7.26901 14.3286 7.21508 14.2035 7.21508 14.0729V10.1813H5.95842C5.8228 10.1813 5.69274 10.1294 5.59685 10.0372C5.50096 9.94504 5.44708 9.81998 5.44708 9.68958C5.44708 9.55919 5.50096 9.43413 5.59685 9.34192C5.69274 9.24972 5.8228 9.19792 5.95842 9.19792H9.47383C9.7555 9.19792 9.98408 9.41771 9.98408 9.68958Z" fill="#CACACA"/>
<ellipse cx="14.0001" cy="11.875" rx="10.4" ry="8.125" fill="#CACACA"/>
<path d="M7.5 21.875L8.15 17.5L12.7 19.375L7.5 21.875Z" fill="#CACACA"/>
<path d="M8.82 37.77V37.09H7.49V34.78H6.67V40.21H7.49V37.77H8.82ZM5.28 39.63L5.71 38.99C4.43 38.56 3.54 37.42 3.54 36.22V35.23H2.72V36.15C2.72 37.5 1.85 38.75 0.49 39.23L0.92 39.88C1.97 39.48 2.77 38.66 3.14 37.61C3.54 38.53 4.31 39.27 5.28 39.63ZM4.64 40.46C2.81 40.46 1.68 41.06 1.68 42.1C1.68 43.14 2.81 43.73 4.64 43.73C6.45 43.73 7.59 43.14 7.59 42.1C7.59 41.06 6.45 40.46 4.64 40.46ZM4.64 43.09C3.31 43.09 2.5 42.74 2.5 42.1C2.5 41.46 3.31 41.1 4.64 41.1C5.97 41.1 6.77 41.46 6.77 42.1C6.77 42.74 5.97 43.09 4.64 43.09ZM16.6892 37.64H18.0192V36.96H16.6892V34.76H15.8692V39.85H16.6892V37.64ZM15.0092 39.03L14.9192 38.37C13.7492 38.61 12.7292 38.67 10.9592 38.67V36.03H14.0892V35.37H10.1392V39.35H10.8392C12.7292 39.35 13.7792 39.27 15.0092 39.03ZM16.6892 40.33H11.0592V43.61H16.6892V40.33ZM15.8792 42.95H11.8592V40.98H15.8792V42.95ZM27.0384 40.27V39.61H23.3884V38.66H26.0884V38.02H20.8084V37.12H25.7984V36.5H20.8084V35.65H26.0384V35.01H19.9884V38.66H22.5684V39.61H18.9184V40.27H27.0384ZM25.9884 41.07H19.8284V41.73H25.1684V43.75H25.9884V41.07Z" fill="#666666"/>
</svg>
