<svg width="216" height="59" viewBox="0 0 216 59" fill="none" xmlns="http://www.w3.org/2000/svg">
<path d="M20.67 3.498H17.992V16.706H20.67V3.498ZM13.624 4.928H2.782V7.086H10.764C10.5213 8.87133 9.62867 10.4487 8.086 11.818C6.56067 13.1873 4.368 14.236 1.508 14.964L2.522 17.07C4.27267 16.6193 5.83267 16.0213 7.202 15.276C8.57133 14.5307 9.73267 13.6467 10.686 12.624C11.6393 11.6013 12.3673 10.4487 12.87 9.166C13.3727 7.866 13.624 6.45333 13.624 4.928ZM5.33 17.772V26.716H20.67V17.772H5.33ZM7.982 24.558V19.904H18.044V24.558H7.982ZM42.586 14.704V4.434H39.908V7.398H29.17V4.434H26.492V14.704H42.586ZM39.908 9.556V12.546H29.17V9.556H39.908ZM45.212 19.41V17.252H23.918V19.41H33.148V27.028H35.826V19.41H45.212ZM68.2199 10.544H64.8919V3.498H62.2139V20.814H64.8919V12.754H68.2199V10.544ZM59.0419 17.148L60.3939 15.016C59.5099 14.704 58.7213 14.2967 58.0279 13.794C57.3346 13.2913 56.7453 12.7193 56.2599 12.078C55.7919 11.4367 55.4279 10.7433 55.1679 9.998C54.9253 9.25267 54.8039 8.49 54.8039 7.71V4.954H52.0999V7.684C52.0999 8.53333 51.9699 9.36533 51.7099 10.18C51.4673 10.9947 51.1033 11.7487 50.6179 12.442C50.1326 13.1353 49.5259 13.7507 48.7979 14.288C48.0873 14.8253 47.2639 15.25 46.3279 15.562L47.7839 17.642C49.1879 17.1393 50.3666 16.4113 51.3199 15.458C52.2733 14.5047 53.0013 13.378 53.5039 12.078C54.0239 13.222 54.7519 14.2447 55.6879 15.146C56.6239 16.03 57.7419 16.6973 59.0419 17.148ZM52.7499 24.376V19.15H50.0719V26.56H65.8279V24.376H52.7499ZM88.5239 3.524H85.8199V16.758H88.5239V3.524ZM83.8959 14.21L83.5839 12.052C81.8679 12.3987 80.1779 12.65 78.5139 12.806C76.8672 12.9447 75.1166 13.0227 73.2619 13.04V4.876H70.5839V15.276H72.5339C74.5966 15.276 76.5379 15.198 78.3579 15.042C80.1779 14.8687 82.0239 14.5913 83.8959 14.21ZM73.1319 17.824V26.716H88.5239V17.824H73.1319ZM75.7839 24.558V19.956H85.8979V24.558H75.7839ZM117.866 12.156V10.96H114.252V3.706H112.874V20.84H114.252V12.156H117.866ZM108.792 11.012C108.792 7.684 106.296 5.422 102.942 5.422C99.5363 5.422 97.0663 7.684 97.0663 11.012C97.0663 14.262 99.5363 16.602 102.942 16.602C106.296 16.602 108.792 14.262 108.792 11.012ZM98.3923 11.012C98.3923 8.542 100.342 6.644 102.942 6.644C105.516 6.644 107.44 8.542 107.44 11.012C107.44 13.534 105.516 15.38 102.942 15.38C100.342 15.38 98.3923 13.534 98.3923 11.012ZM115.396 25.078H101.538V19.098H100.16V26.248H115.396V25.078ZM129.434 12.104H136.506V18.084H137.884V3.732H136.506V6.852H129.434V7.97H136.506V10.96H129.434V12.104ZM132.554 15.25L132.398 14.08C129.07 14.782 126.314 14.964 122.154 14.964H121.868V5.266H120.49V16.134H122.154C126.314 16.134 129.226 15.952 132.554 15.25ZM130.422 18.24C125.742 18.24 122.856 19.774 122.856 22.504C122.856 25.234 125.742 26.768 130.422 26.768C135.102 26.768 137.988 25.234 137.988 22.504C137.988 19.774 135.102 18.24 130.422 18.24ZM130.422 25.624C126.652 25.624 124.234 24.48 124.234 22.504C124.234 20.528 126.652 19.358 130.422 19.358C134.192 19.358 136.636 20.554 136.636 22.504C136.636 24.428 134.192 25.624 130.422 25.624ZM159.254 14.678H163.31V13.508H159.254V3.706H157.876V26.794H159.254V14.678ZM155.276 7.554H149.218V3.94H147.84V7.554H141.548V8.724H155.276V7.554ZM148.568 11.012C145.344 11.012 143.082 13.196 143.082 16.212C143.082 19.254 145.344 21.386 148.568 21.386C151.792 21.386 154.054 19.254 154.054 16.212C154.054 13.196 151.792 11.012 148.568 11.012ZM148.568 20.216C146.15 20.216 144.382 18.474 144.382 16.212C144.382 13.924 146.15 12.208 148.568 12.208C150.986 12.208 152.754 13.924 152.754 16.212C152.754 18.474 150.986 20.216 148.568 20.216ZM183.822 26.82V3.732H182.496V26.82H183.822ZM179.09 4.304H177.764V12.312H173.422V13.482H177.764V25.598H179.09V4.304ZM170.796 10.7V5.994H169.496V10.726C169.496 14.678 167.182 18.838 164.14 20.58L165.05 21.62C167.442 20.164 169.34 17.382 170.172 14.054C171.004 17.096 172.824 19.748 175.112 21.126L175.996 20.06C173.006 18.318 170.796 14.314 170.796 10.7ZM207.87 23.7V22.53H202.384V15.874C204.386 14.86 205.608 13.248 205.608 11.168C205.608 7.632 202.202 5.396 197.34 5.396C192.53 5.396 189.098 7.632 189.098 11.168C189.098 13.248 190.294 14.886 192.374 15.9V22.53H186.914V23.7H207.87ZM190.398 11.168C190.398 8.386 193.362 6.514 197.34 6.514C201.37 6.514 204.308 8.386 204.308 11.168C204.308 13.898 201.37 15.796 197.34 15.796C193.362 15.796 190.398 13.898 190.398 11.168ZM201.006 22.53H193.752V16.42C194.818 16.732 196.014 16.914 197.34 16.914C198.692 16.914 199.94 16.732 201.006 16.42V22.53ZM212.418 5.708H210.858L211.092 20.632H212.21L212.418 5.708ZM212.392 23.674H210.884V25.338H212.392V23.674Z" fill="black"/>
<path d="M1.616 47.176L2.016 48.2C4.4 47.944 6.448 47.096 7.344 45.688C8.192 47.096 10.32 47.944 12.672 48.2L13.072 47.176C10.368 46.92 8.176 45.864 8.048 44.28H12.496V43.24H8V41.784H6.688V43.24H2.192V44.28H6.624C6.496 45.848 4.288 46.92 1.616 47.176ZM13.824 50.328V49.272H8V47.496H6.688V49.272H0.848V50.328H13.824ZM7.328 51.4C4.176 51.4 2.416 52.232 2.416 53.784C2.416 55.336 4.176 56.168 7.328 56.168C10.48 56.168 12.24 55.336 12.24 53.784C12.24 52.232 10.48 51.4 7.328 51.4ZM7.328 55.176C5.008 55.176 3.744 54.68 3.744 53.784C3.744 52.888 5.008 52.376 7.328 52.376C9.584 52.376 10.912 52.888 10.912 53.784C10.912 54.68 9.584 55.176 7.328 55.176ZM51.8909 56.216V41.832H50.5789V56.216H51.8909ZM44.8509 42.888C42.6269 42.888 41.0109 44.264 41.0109 46.264C41.0109 48.264 42.6269 49.64 44.8509 49.64C47.0909 49.64 48.6909 48.264 48.6909 46.264C48.6909 44.264 47.0909 42.888 44.8509 42.888ZM44.8509 44.008C46.3389 44.008 47.4109 44.92 47.4109 46.264C47.4109 47.592 46.3389 48.52 44.8509 48.52C43.3629 48.52 42.2909 47.592 42.2909 46.264C42.2909 44.92 43.3629 44.008 44.8509 44.008ZM40.2909 51.96L40.4509 53.064C43.0589 53.064 46.4989 53.032 49.7469 52.44L49.6349 51.464C46.4669 51.928 42.9309 51.96 40.2909 51.96ZM70.1558 46.632V45.544H68.0278V41.848H66.7158V50.536H68.0278V46.632H70.1558ZM64.4918 49.608L65.1798 48.584C63.1318 47.896 61.7078 46.072 61.7078 44.152V42.568H60.3958V44.04C60.3958 46.2 59.0038 48.2 56.8278 48.968L57.5158 50.008C59.1958 49.368 60.4758 48.056 61.0678 46.376C61.7078 47.848 62.9398 49.032 64.4918 49.608ZM63.4678 50.936C60.5398 50.936 58.7318 51.896 58.7318 53.56C58.7318 55.224 60.5398 56.168 63.4678 56.168C66.3638 56.168 68.1878 55.224 68.1878 53.56C68.1878 51.896 66.3638 50.936 63.4678 50.936ZM63.4678 55.144C61.3398 55.144 60.0438 54.584 60.0438 53.56C60.0438 52.536 61.3398 51.96 63.4678 51.96C65.5958 51.96 66.8758 52.536 66.8758 53.56C66.8758 54.584 65.5958 55.144 63.4678 55.144ZM72.0265 43.352H74.1865V46.36H72.0745V47.416H82.4905V46.36H80.3785V43.352H82.5545V42.296H72.0265V43.352ZM75.4985 43.352H79.0665V46.36H75.4985V43.352ZM77.9625 51.512V49.832H83.7865V48.776H70.8105V49.832H76.6505V51.512H72.4105V55.992H82.2025V51.512H77.9625ZM73.6905 52.552H80.9225V54.936H73.6905V52.552ZM99.2514 56.216V41.832H97.9394V56.216H99.2514ZM91.6834 42.936C89.5554 42.936 88.0354 44.888 88.0354 47.944C88.0354 51 89.5554 52.952 91.6834 52.952C93.8114 52.952 95.3314 51 95.3314 47.944C95.3314 44.888 93.8114 42.936 91.6834 42.936ZM91.6834 44.12C93.0754 44.12 94.0674 45.624 94.0674 47.944C94.0674 50.28 93.0754 51.784 91.6834 51.784C90.2754 51.784 89.2834 50.28 89.2834 47.944C89.2834 45.624 90.2754 44.12 91.6834 44.12ZM114.402 49.992V48.936H111.202V46.904C112.306 46.456 112.946 45.72 112.946 44.76C112.946 43.096 111.026 42.088 107.906 42.088C104.802 42.088 102.866 43.096 102.866 44.76C102.866 45.736 103.458 46.456 104.626 46.92V48.936H101.41V49.992H114.402ZM104.21 44.76C104.21 43.72 105.586 43.112 107.906 43.112C110.226 43.112 111.602 43.72 111.602 44.76C111.602 45.784 110.226 46.408 107.906 46.408C105.586 46.408 104.21 45.784 104.21 44.76ZM109.906 48.936H105.922V47.256C106.514 47.368 107.186 47.416 107.906 47.416C108.674 47.416 109.346 47.368 109.906 47.256V48.936ZM107.906 51.064C104.834 51.064 102.994 51.976 102.994 53.624C102.994 55.272 104.834 56.168 107.906 56.168C110.994 56.168 112.818 55.272 112.818 53.624C112.818 51.976 110.994 51.064 107.906 51.064ZM107.906 55.16C105.65 55.16 104.322 54.6 104.322 53.624C104.322 52.648 105.65 52.088 107.906 52.088C110.162 52.088 111.49 52.648 111.49 53.624C111.49 54.6 110.162 55.16 107.906 55.16ZM118.859 46.648L119.323 47.688C121.675 47.384 123.835 46.36 124.619 44.76C125.435 46.36 127.563 47.384 129.915 47.688L130.379 46.648C127.851 46.344 125.595 45.144 125.467 43.544H129.931V42.488H119.323V43.544H123.771C123.643 45.144 121.387 46.344 118.859 46.648ZM125.275 51.144V49.608H131.099V48.552H118.123V49.608H123.947V51.144C121.211 51.272 119.691 52.152 119.691 53.64C119.691 55.288 121.547 56.168 124.619 56.168C127.691 56.168 129.515 55.288 129.515 53.64C129.515 52.152 128.011 51.272 125.275 51.144ZM128.187 53.64C128.187 54.6 126.859 55.16 124.603 55.16C122.347 55.16 121.019 54.6 121.019 53.64C121.019 52.68 122.347 52.136 124.603 52.136C126.859 52.136 128.187 52.68 128.187 53.64ZM143.818 49.544V41.848H142.506V49.544H143.818ZM136.106 42.52C133.946 42.52 132.378 43.848 132.378 45.816C132.378 47.8 133.946 49.128 136.106 49.128C138.282 49.128 139.866 47.8 139.866 45.816C139.866 43.848 138.282 42.52 136.106 42.52ZM136.106 43.608C137.562 43.608 138.586 44.52 138.586 45.816C138.586 47.16 137.578 48.04 136.106 48.04C134.682 48.04 133.658 47.144 133.658 45.816C133.658 44.52 134.682 43.608 136.106 43.608ZM135.866 52.008V50.248H134.57V55.992H143.818V50.248H142.522V52.008H135.866ZM142.522 54.936H135.866V53.032H142.522V54.936ZM157.721 56.168V41.832H156.409V56.168H157.721ZM148.169 51.352V43.224H146.857V52.472H148.041C150.345 52.472 152.569 52.312 155.081 51.8L154.937 50.68C152.553 51.176 150.361 51.352 148.169 51.352ZM170.919 48.584H173.287V47.496H170.919V41.832H169.607V56.216H170.919V48.584ZM161.799 51.512V44.296H167.159V43.208H160.487V52.632H161.623C164.311 52.632 166.231 52.552 168.407 52.12L168.263 51.032C166.199 51.416 164.359 51.512 161.799 51.512Z" fill="black"/>
<path d="M25.4169 55V53.704H20.7929C20.3929 53.704 19.9129 53.768 19.4649 53.896L22.7449 50.648C24.0729 49.32 25.1929 48.104 25.1929 46.36C25.1929 44.28 23.6409 43.064 21.6409 43.064C19.6409 43.064 18.0889 44.232 17.7849 46.392L19.2249 46.632C19.2249 45.288 20.2169 44.328 21.5609 44.328C22.7769 44.328 23.6729 44.984 23.7209 46.392C23.7209 47.768 22.8249 48.776 21.5929 50.088L17.5449 53.976V55H25.4169ZM36.7721 41.848V46.264H33.6681V47.336H36.7721V52.44H38.1001V41.848H36.7721ZM33.7321 42.952H27.2201V44.024H32.3241C32.0201 46.584 29.7801 48.664 26.5001 49.736L27.0601 50.792C31.1081 49.464 33.7321 46.632 33.7321 42.952ZM38.4681 55.864V54.792H30.3401V51.368H29.0281V55.864H38.4681Z" fill="#ED030D"/>
</svg>
