<svg width="74" height="70" viewBox="0 0 74 70" fill="none" xmlns="http://www.w3.org/2000/svg">
<path d="M12.348 7.266V6.314H10.486V2.478H9.338V11.648H10.486V7.266H12.348ZM7.42 9.828L8.036 8.946C6.188 8.302 4.984 6.762 4.984 5.082V4.508H7.756V3.57H1.05V4.508H3.836V5.082C3.836 6.86 2.576 8.54 0.7 9.212L1.288 10.136C2.758 9.576 3.878 8.47 4.424 7.014C4.97 8.302 6.02 9.31 7.42 9.828ZM11.046 13.818H3.822V10.85H2.674V14.756H11.046V13.818ZM23.2669 15.064V2.478H22.1189V5.292H18.8989C18.3529 4.116 17.4569 3.444 16.2809 3.444C14.4469 3.444 13.1449 5.152 13.1449 7.826C13.1449 10.5 14.4469 12.208 16.2809 12.208C17.5129 12.208 18.4649 11.48 18.9829 10.192H22.1189V15.064H23.2669ZM16.2809 11.186C15.0769 11.186 14.2369 9.87 14.2369 7.826C14.2369 5.796 15.0769 4.48 16.2809 4.48C17.4569 4.48 18.3249 5.796 18.3249 7.826C18.3249 9.87 17.4569 11.186 16.2809 11.186ZM22.1189 6.23V9.254H19.2629C19.3609 8.876 19.4029 8.4 19.4029 7.826C19.4029 7.252 19.3329 6.72 19.2209 6.23H22.1189ZM34.8578 6.244H36.7198V5.292H34.8578V2.492H33.6958V9.016H34.8578V6.244ZM32.5618 7.868L32.4218 6.93C30.3918 7.322 28.6558 7.448 26.8498 7.462V3.066H25.7158V8.428H26.6958C28.5998 8.428 30.4198 8.302 32.5618 7.868ZM34.8438 9.688H33.7098V11.354H28.0538V9.688H26.9198V14.868H34.8438V9.688ZM28.0538 12.278H33.7098V13.944H28.0538V12.278ZM38.7067 8.414H47.2187V2.982H46.0707V4.704H39.8407V2.982H38.7067V8.414ZM39.8407 5.628H46.0707V7.476H39.8407V5.628ZM43.5087 10.85H48.6607V9.926H37.2647V10.85H42.3607V15.05H43.5087V10.85ZM60.1116 15.036V2.478H59.0056V7.532H57.2976V2.814H56.2196V14.406H57.2976V8.47H59.0056V15.036H60.1116ZM54.8336 4.102H49.9336V5.04H53.6996C53.5176 7.658 52.3556 9.884 49.4576 11.522L50.1296 12.348C53.7136 10.332 54.8336 7.336 54.8336 4.102ZM70.7645 2.492V8.456H68.2725V9.212H70.7645V9.87H71.9125V2.492H70.7645ZM65.6545 6.482C67.5025 6.482 68.7485 5.782 68.7485 4.62C68.7485 3.444 67.5025 2.73 65.6545 2.73C63.8065 2.73 62.5605 3.444 62.5605 4.62C62.5605 5.782 63.8065 6.482 65.6545 6.482ZM65.6545 3.528C66.8865 3.528 67.6705 3.948 67.6705 4.62C67.6705 5.278 66.8865 5.698 65.6545 5.698C64.4225 5.698 63.6385 5.278 63.6385 4.62C63.6385 3.948 64.4225 3.528 65.6545 3.528ZM65.0105 8.036V9.912H66.1585V7.98C67.3905 7.91 68.6085 7.812 69.8405 7.644L69.7705 6.888C67.0825 7.182 64.0305 7.21 61.5945 7.21L61.7345 8.078C62.7565 8.078 63.8485 8.064 65.0105 8.036ZM72.3465 14.896V14.056H64.6605V12.95H71.9125V10.332H63.4985V11.158H70.7925V12.166H63.5265V14.896H72.3465Z" fill="black"/>
<path d="M10.5 32.244H12.362V31.292H10.5V28.492H9.338V35.016H10.5V32.244ZM8.204 33.868L8.064 32.93C6.034 33.322 4.298 33.448 2.492 33.462V29.066H1.358V34.428H2.338C4.242 34.428 6.062 34.302 8.204 33.868ZM10.486 35.688H9.352V37.354H3.696V35.688H2.562V40.868H10.486V35.688ZM3.696 38.278H9.352V39.944H3.696V38.278ZM23.2249 35.226V28.492H22.0769V35.226H23.2249ZM16.4769 29.08C14.5869 29.08 13.2149 30.242 13.2149 31.964C13.2149 33.7 14.5869 34.862 16.4769 34.862C18.3809 34.862 19.7669 33.7 19.7669 31.964C19.7669 30.242 18.3809 29.08 16.4769 29.08ZM16.4769 30.032C17.7509 30.032 18.6469 30.83 18.6469 31.964C18.6469 33.14 17.7649 33.91 16.4769 33.91C15.2309 33.91 14.3349 33.126 14.3349 31.964C14.3349 30.83 15.2309 30.032 16.4769 30.032ZM16.2669 37.382V35.842H15.1329V40.868H23.2249V35.842H22.0909V37.382H16.2669ZM22.0909 39.944H16.2669V38.278H22.0909V39.944ZM34.2558 34.918H35.4038V28.478H34.2558V34.918ZM31.8758 31.726C31.8758 30.06 30.4898 28.926 28.6278 28.926C26.7658 28.926 25.3938 30.06 25.3938 31.726C25.3938 33.364 26.7658 34.498 28.6278 34.498C30.4898 34.498 31.8758 33.364 31.8758 31.726ZM26.4998 31.726C26.4998 30.648 27.4098 29.864 28.6278 29.864C29.8598 29.864 30.7558 30.648 30.7558 31.726C30.7558 32.79 29.8598 33.574 28.6278 33.574C27.4098 33.574 26.4998 32.79 26.4998 31.726ZM35.8238 40.868V39.958H28.4318V38.572H35.4038V35.534H27.2698V36.444H34.2698V37.718H27.2978V40.868H35.8238Z" fill="black"/>
<path d="M12.138 60.694V59.77H10.332C10.668 58.188 10.668 57.068 10.668 56.074V55.15H2.184V56.074H9.534C9.534 57.068 9.52 58.202 9.17 59.77H0.728V60.694H12.138ZM10.71 62.402H2.142V66.868H10.71V62.402ZM9.576 65.944H3.262V63.326H9.576V65.944ZM23.2249 67.05V54.464H22.0769V67.05H23.2249ZM14.7969 63.06V60.134H19.4309V55.64H13.6069V56.578H18.2689V59.196H13.6489V64.012H14.6849C16.8549 64.012 18.7309 63.928 21.0129 63.55L20.9009 62.612C18.7169 62.948 16.8549 63.06 14.7969 63.06Z" fill="black"/>
</svg>
