<svg width="79" height="14" viewBox="0 0 79 14" fill="none" xmlns="http://www.w3.org/2000/svg">
<path d="M1.8077 5.056L3.4877 3.642C3.47837 3.76333 3.4737 3.88 3.4737 3.992V10.656H1.3177V12H6.9597V10.656H5.0137V1.626H3.7537L0.953703 4.02L1.8077 5.056ZM8.74755 10.222L8.21555 13.134H9.50355L10.3995 10.222H8.74755ZM18.8814 6.834C18.8814 6.23667 18.8207 5.62533 18.6994 5C18.578 4.37467 18.3727 3.80533 18.0834 3.292C17.794 2.77867 17.4067 2.35867 16.9214 2.032C16.436 1.70533 15.8294 1.542 15.1014 1.542C14.3827 1.542 13.7807 1.70533 13.2954 2.032C12.81 2.34933 12.4227 2.76 12.1334 3.264C11.844 3.768 11.6387 4.33733 11.5174 4.972C11.396 5.59733 11.3354 6.218 11.3354 6.834C11.3354 7.45 11.396 8.07067 11.5174 8.696C11.6387 9.32133 11.844 9.89067 12.1334 10.404C12.4227 10.908 12.81 11.3187 13.2954 11.636C13.7807 11.9533 14.3827 12.112 15.1014 12.112C15.82 12.112 16.422 11.9533 16.9074 11.636C17.3927 11.3187 17.78 10.908 18.0694 10.404C18.368 9.89067 18.578 9.32133 18.6994 8.696C18.8207 8.07067 18.8814 7.45 18.8814 6.834ZM17.2854 6.834C17.2854 7.198 17.262 7.60867 17.2154 8.066C17.1687 8.52333 17.066 8.95733 16.9074 9.368C16.758 9.77867 16.5387 10.124 16.2494 10.404C15.9694 10.684 15.5867 10.824 15.1014 10.824C14.6254 10.824 14.2427 10.684 13.9534 10.404C13.664 10.124 13.44 9.77867 13.2814 9.368C13.132 8.95733 13.034 8.52333 12.9874 8.066C12.9407 7.60867 12.9174 7.198 12.9174 6.834C12.9174 6.47 12.9407 6.05933 12.9874 5.602C13.034 5.14467 13.132 4.71067 13.2814 4.3C13.44 3.88933 13.6594 3.544 13.9394 3.264C14.2287 2.984 14.616 2.844 15.1014 2.844C15.5867 2.844 15.9694 2.984 16.2494 3.264C16.5387 3.544 16.758 3.88933 16.9074 4.3C17.066 4.71067 17.1687 5.14467 17.2154 5.602C17.262 6.05933 17.2854 6.47 17.2854 6.834ZM27.2212 6.834C27.2212 6.23667 27.1605 5.62533 27.0392 5C26.9179 4.37467 26.7125 3.80533 26.4232 3.292C26.1339 2.77867 25.7465 2.35867 25.2612 2.032C24.7759 1.70533 24.1692 1.542 23.4412 1.542C22.7225 1.542 22.1205 1.70533 21.6352 2.032C21.1499 2.34933 20.7625 2.76 20.4732 3.264C20.1839 3.768 19.9785 4.33733 19.8572 4.972C19.7359 5.59733 19.6752 6.218 19.6752 6.834C19.6752 7.45 19.7359 8.07067 19.8572 8.696C19.9785 9.32133 20.1839 9.89067 20.4732 10.404C20.7625 10.908 21.1499 11.3187 21.6352 11.636C22.1205 11.9533 22.7225 12.112 23.4412 12.112C24.1599 12.112 24.7619 11.9533 25.2472 11.636C25.7325 11.3187 26.1199 10.908 26.4092 10.404C26.7079 9.89067 26.9179 9.32133 27.0392 8.696C27.1605 8.07067 27.2212 7.45 27.2212 6.834ZM25.6252 6.834C25.6252 7.198 25.6019 7.60867 25.5552 8.066C25.5085 8.52333 25.4059 8.95733 25.2472 9.368C25.0979 9.77867 24.8785 10.124 24.5892 10.404C24.3092 10.684 23.9265 10.824 23.4412 10.824C22.9652 10.824 22.5825 10.684 22.2932 10.404C22.0039 10.124 21.7799 9.77867 21.6212 9.368C21.4719 8.95733 21.3739 8.52333 21.3272 8.066C21.2805 7.60867 21.2572 7.198 21.2572 6.834C21.2572 6.47 21.2805 6.05933 21.3272 5.602C21.3739 5.14467 21.4719 4.71067 21.6212 4.3C21.7799 3.88933 21.9992 3.544 22.2792 3.264C22.5685 2.984 22.9559 2.844 23.4412 2.844C23.9265 2.844 24.3092 2.984 24.5892 3.264C24.8785 3.544 25.0979 3.88933 25.2472 4.3C25.4059 4.71067 25.5085 5.14467 25.5552 5.602C25.6019 6.05933 25.6252 6.47 25.6252 6.834ZM35.561 6.834C35.561 6.23667 35.5004 5.62533 35.379 5C35.2577 4.37467 35.0524 3.80533 34.763 3.292C34.4737 2.77867 34.0864 2.35867 33.601 2.032C33.1157 1.70533 32.509 1.542 31.781 1.542C31.0624 1.542 30.4604 1.70533 29.975 2.032C29.4897 2.34933 29.1024 2.76 28.813 3.264C28.5237 3.768 28.3184 4.33733 28.197 4.972C28.0757 5.59733 28.015 6.218 28.015 6.834C28.015 7.45 28.0757 8.07067 28.197 8.696C28.3184 9.32133 28.5237 9.89067 28.813 10.404C29.1024 10.908 29.4897 11.3187 29.975 11.636C30.4604 11.9533 31.0624 12.112 31.781 12.112C32.4997 12.112 33.1017 11.9533 33.587 11.636C34.0724 11.3187 34.4597 10.908 34.749 10.404C35.0477 9.89067 35.2577 9.32133 35.379 8.696C35.5004 8.07067 35.561 7.45 35.561 6.834ZM33.965 6.834C33.965 7.198 33.9417 7.60867 33.895 8.066C33.8484 8.52333 33.7457 8.95733 33.587 9.368C33.4377 9.77867 33.2184 10.124 32.929 10.404C32.649 10.684 32.2664 10.824 31.781 10.824C31.305 10.824 30.9224 10.684 30.633 10.404C30.3437 10.124 30.1197 9.77867 29.961 9.368C29.8117 8.95733 29.7137 8.52333 29.667 8.066C29.6204 7.60867 29.597 7.198 29.597 6.834C29.597 6.47 29.6204 6.05933 29.667 5.602C29.7137 5.14467 29.8117 4.71067 29.961 4.3C30.1197 3.88933 30.339 3.544 30.619 3.264C30.9084 2.984 31.2957 2.844 31.781 2.844C32.2664 2.844 32.649 2.984 32.929 3.264C33.2184 3.544 33.4377 3.88933 33.587 4.3C33.7457 4.71067 33.8484 5.14467 33.895 5.602C33.9417 6.05933 33.965 6.47 33.965 6.834ZM36.7749 10.222L36.2429 13.134H37.5309L38.4269 10.222H36.7749ZM46.9087 6.834C46.9087 6.23667 46.848 5.62533 46.7267 5C46.6054 4.37467 46.4 3.80533 46.1107 3.292C45.8214 2.77867 45.434 2.35867 44.9487 2.032C44.4634 1.70533 43.8567 1.542 43.1287 1.542C42.41 1.542 41.808 1.70533 41.3227 2.032C40.8374 2.34933 40.45 2.76 40.1607 3.264C39.8714 3.768 39.666 4.33733 39.5447 4.972C39.4234 5.59733 39.3627 6.218 39.3627 6.834C39.3627 7.45 39.4234 8.07067 39.5447 8.696C39.666 9.32133 39.8714 9.89067 40.1607 10.404C40.45 10.908 40.8374 11.3187 41.3227 11.636C41.808 11.9533 42.41 12.112 43.1287 12.112C43.8474 12.112 44.4494 11.9533 44.9347 11.636C45.42 11.3187 45.8074 10.908 46.0967 10.404C46.3954 9.89067 46.6054 9.32133 46.7267 8.696C46.848 8.07067 46.9087 7.45 46.9087 6.834ZM45.3127 6.834C45.3127 7.198 45.2894 7.60867 45.2427 8.066C45.196 8.52333 45.0934 8.95733 44.9347 9.368C44.7854 9.77867 44.566 10.124 44.2767 10.404C43.9967 10.684 43.614 10.824 43.1287 10.824C42.6527 10.824 42.27 10.684 41.9807 10.404C41.6914 10.124 41.4674 9.77867 41.3087 9.368C41.1594 8.95733 41.0614 8.52333 41.0147 8.066C40.968 7.60867 40.9447 7.198 40.9447 6.834C40.9447 6.47 40.968 6.05933 41.0147 5.602C41.0614 5.14467 41.1594 4.71067 41.3087 4.3C41.4674 3.88933 41.6867 3.544 41.9667 3.264C42.256 2.984 42.6434 2.844 43.1287 2.844C43.614 2.844 43.9967 2.984 44.2767 3.264C44.566 3.544 44.7854 3.88933 44.9347 4.3C45.0934 4.71067 45.196 5.14467 45.2427 5.602C45.2894 6.05933 45.3127 6.47 45.3127 6.834ZM55.2485 6.834C55.2485 6.23667 55.1879 5.62533 55.0665 5C54.9452 4.37467 54.7399 3.80533 54.4505 3.292C54.1612 2.77867 53.7739 2.35867 53.2885 2.032C52.8032 1.70533 52.1965 1.542 51.4685 1.542C50.7499 1.542 50.1479 1.70533 49.6625 2.032C49.1772 2.34933 48.7899 2.76 48.5005 3.264C48.2112 3.768 48.0059 4.33733 47.8845 4.972C47.7632 5.59733 47.7025 6.218 47.7025 6.834C47.7025 7.45 47.7632 8.07067 47.8845 8.696C48.0059 9.32133 48.2112 9.89067 48.5005 10.404C48.7899 10.908 49.1772 11.3187 49.6625 11.636C50.1479 11.9533 50.7499 12.112 51.4685 12.112C52.1872 12.112 52.7892 11.9533 53.2745 11.636C53.7599 11.3187 54.1472 10.908 54.4365 10.404C54.7352 9.89067 54.9452 9.32133 55.0665 8.696C55.1879 8.07067 55.2485 7.45 55.2485 6.834ZM53.6525 6.834C53.6525 7.198 53.6292 7.60867 53.5825 8.066C53.5359 8.52333 53.4332 8.95733 53.2745 9.368C53.1252 9.77867 52.9059 10.124 52.6165 10.404C52.3365 10.684 51.9539 10.824 51.4685 10.824C50.9925 10.824 50.6099 10.684 50.3205 10.404C50.0312 10.124 49.8072 9.77867 49.6485 9.368C49.4992 8.95733 49.4012 8.52333 49.3545 8.066C49.3079 7.60867 49.2845 7.198 49.2845 6.834C49.2845 6.47 49.3079 6.05933 49.3545 5.602C49.4012 5.14467 49.4992 4.71067 49.6485 4.3C49.8072 3.88933 50.0265 3.544 50.3065 3.264C50.5959 2.984 50.9832 2.844 51.4685 2.844C51.9539 2.844 52.3365 2.984 52.6165 3.264C52.9059 3.544 53.1252 3.88933 53.2745 4.3C53.4332 4.71067 53.5359 5.14467 53.5825 5.602C53.6292 6.05933 53.6525 6.47 53.6525 6.834ZM63.5884 6.834C63.5884 6.23667 63.5277 5.62533 63.4064 5C63.2851 4.37467 63.0797 3.80533 62.7904 3.292C62.5011 2.77867 62.1137 2.35867 61.6284 2.032C61.1431 1.70533 60.5364 1.542 59.8084 1.542C59.0897 1.542 58.4877 1.70533 58.0024 2.032C57.5171 2.34933 57.1297 2.76 56.8404 3.264C56.5511 3.768 56.3457 4.33733 56.2244 4.972C56.1031 5.59733 56.0424 6.218 56.0424 6.834C56.0424 7.45 56.1031 8.07067 56.2244 8.696C56.3457 9.32133 56.5511 9.89067 56.8404 10.404C57.1297 10.908 57.5171 11.3187 58.0024 11.636C58.4877 11.9533 59.0897 12.112 59.8084 12.112C60.5271 12.112 61.1291 11.9533 61.6144 11.636C62.0997 11.3187 62.4871 10.908 62.7764 10.404C63.0751 9.89067 63.2851 9.32133 63.4064 8.696C63.5277 8.07067 63.5884 7.45 63.5884 6.834ZM61.9924 6.834C61.9924 7.198 61.9691 7.60867 61.9224 8.066C61.8757 8.52333 61.7731 8.95733 61.6144 9.368C61.4651 9.77867 61.2457 10.124 60.9564 10.404C60.6764 10.684 60.2937 10.824 59.8084 10.824C59.3324 10.824 58.9497 10.684 58.6604 10.404C58.3711 10.124 58.1471 9.77867 57.9884 9.368C57.8391 8.95733 57.7411 8.52333 57.6944 8.066C57.6477 7.60867 57.6244 7.198 57.6244 6.834C57.6244 6.47 57.6477 6.05933 57.6944 5.602C57.7411 5.14467 57.8391 4.71067 57.9884 4.3C58.1471 3.88933 58.3664 3.544 58.6464 3.264C58.9357 2.984 59.3231 2.844 59.8084 2.844C60.2937 2.844 60.6764 2.984 60.9564 3.264C61.2457 3.544 61.4651 3.88933 61.6144 4.3C61.7731 4.71067 61.8757 5.14467 61.9224 5.602C61.9691 6.05933 61.9924 6.47 61.9924 6.834ZM76.8651 7.856H74.3871V8.864H76.8651V10.04H78.3071V0.422H76.8651V7.856ZM71.8671 5.364C72.3338 5.364 72.7584 5.31267 73.1411 5.21C73.5238 5.098 73.8504 4.94867 74.1211 4.762C74.3918 4.566 74.6018 4.33267 74.7511 4.062C74.9098 3.782 74.9891 3.474 74.9891 3.138C74.9891 2.802 74.9098 2.49867 74.7511 2.228C74.6018 1.948 74.3918 1.71467 74.1211 1.528C73.8504 1.332 73.5238 1.18267 73.1411 1.08C72.7584 0.967999 72.3338 0.911999 71.8671 0.911999C71.4098 0.911999 70.9851 0.967999 70.5931 1.08C70.2104 1.18267 69.8791 1.332 69.5991 1.528C69.3284 1.71467 69.1138 1.948 68.9551 2.228C68.8058 2.49867 68.7311 2.802 68.7311 3.138C68.7311 3.474 68.8058 3.782 68.9551 4.062C69.1138 4.33267 69.3284 4.566 69.5991 4.762C69.8791 4.94867 70.2104 5.098 70.5931 5.21C70.9851 5.31267 71.4098 5.364 71.8671 5.364ZM71.8671 1.976C72.3991 1.976 72.8238 2.08333 73.1411 2.298C73.4584 2.50333 73.6171 2.78333 73.6171 3.138C73.6171 3.49267 73.4584 3.77733 73.1411 3.992C72.8238 4.19733 72.3991 4.3 71.8671 4.3C71.3351 4.3 70.9058 4.19733 70.5791 3.992C70.2618 3.77733 70.1031 3.49267 70.1031 3.138C70.1031 2.78333 70.2618 2.50333 70.5791 2.298C70.9058 2.08333 71.3351 1.976 71.8671 1.976ZM71.2931 7.282V9.634H72.7351V7.198C73.2764 7.17 73.8178 7.128 74.3591 7.072C74.9098 7.00667 75.4511 6.92733 75.9831 6.834L75.8711 5.798C75.1991 5.882 74.5084 5.952 73.7991 6.008C73.0898 6.05467 72.3851 6.092 71.6851 6.12C70.9851 6.13867 70.2991 6.15267 69.6271 6.162C68.9644 6.17133 68.3438 6.176 67.7651 6.176L67.9471 7.352C68.4511 7.352 68.9784 7.34733 69.5291 7.338C70.0891 7.32867 70.6771 7.31 71.2931 7.282ZM78.6011 11.664H70.9151V9.102H69.4731V12.84H78.6011V11.664Z" fill="black"/>
</svg>
