<svg width="89" height="70" viewBox="0 0 89 70" fill="none" xmlns="http://www.w3.org/2000/svg">
<path d="M7.91386 14V12.628H4.32986C4.10586 12.628 3.87719 12.6467 3.64386 12.684C3.41986 12.7213 3.20053 12.768 2.98586 12.824L5.61786 10.164C5.87919 9.90267 6.13586 9.63667 6.38786 9.366C6.63986 9.09533 6.86386 8.81067 7.05986 8.512C7.26519 8.204 7.42853 7.882 7.54986 7.546C7.67119 7.21 7.73186 6.846 7.73186 6.454C7.73186 5.98733 7.64786 5.572 7.47986 5.208C7.31186 4.844 7.08319 4.54067 6.79386 4.298C6.51386 4.046 6.18253 3.85933 5.79986 3.738C5.41719 3.60733 5.00653 3.542 4.56786 3.542C3.60653 3.542 2.81786 3.80333 2.20186 4.326C1.59519 4.83933 1.22653 5.56267 1.09586 6.496L2.63586 6.776C2.61719 6.496 2.64986 6.23933 2.73386 6.006C2.81786 5.77267 2.94386 5.572 3.11186 5.404C3.27986 5.236 3.48053 5.10533 3.71386 5.012C3.94719 4.90933 4.20386 4.858 4.48386 4.858C4.97853 4.858 5.35186 4.97 5.60386 5.194C5.86519 5.40867 6.02853 5.67933 6.09386 6.006C6.16853 6.32333 6.16386 6.66867 6.07986 7.042C5.99586 7.41533 5.86519 7.76067 5.68786 8.078C5.50119 8.36733 5.30053 8.63333 5.08586 8.876C4.87119 9.11867 4.64253 9.36133 4.39986 9.604L0.913859 13.104V14H7.91386ZM16.5337 8.834C16.5337 8.23667 16.473 7.62533 16.3517 7C16.2304 6.37467 16.025 5.80533 15.7357 5.292C15.4464 4.77867 15.059 4.35867 14.5737 4.032C14.0884 3.70533 13.4817 3.542 12.7537 3.542C12.035 3.542 11.433 3.70533 10.9477 4.032C10.4624 4.34933 10.075 4.76 9.7857 5.264C9.49637 5.768 9.29104 6.33733 9.1697 6.972C9.04837 7.59733 8.9877 8.218 8.9877 8.834C8.9877 9.45 9.04837 10.0707 9.1697 10.696C9.29104 11.3213 9.49637 11.8907 9.7857 12.404C10.075 12.908 10.4624 13.3187 10.9477 13.636C11.433 13.9533 12.035 14.112 12.7537 14.112C13.4724 14.112 14.0744 13.9533 14.5597 13.636C15.045 13.3187 15.4324 12.908 15.7217 12.404C16.0204 11.8907 16.2304 11.3213 16.3517 10.696C16.473 10.0707 16.5337 9.45 16.5337 8.834ZM14.9377 8.834C14.9377 9.198 14.9144 9.60867 14.8677 10.066C14.821 10.5233 14.7184 10.9573 14.5597 11.368C14.4104 11.7787 14.191 12.124 13.9017 12.404C13.6217 12.684 13.239 12.824 12.7537 12.824C12.2777 12.824 11.895 12.684 11.6057 12.404C11.3164 12.124 11.0924 11.7787 10.9337 11.368C10.7844 10.9573 10.6864 10.5233 10.6397 10.066C10.593 9.60867 10.5697 9.198 10.5697 8.834C10.5697 8.47 10.593 8.05933 10.6397 7.602C10.6864 7.14467 10.7844 6.71067 10.9337 6.3C11.0924 5.88933 11.3117 5.544 11.5917 5.264C11.881 4.984 12.2684 4.844 12.7537 4.844C13.239 4.844 13.6217 4.984 13.9017 5.264C14.191 5.544 14.4104 5.88933 14.5597 6.3C14.7184 6.71067 14.821 7.14467 14.8677 7.602C14.9144 8.05933 14.9377 8.47 14.9377 8.834ZM17.7475 12.222L17.2155 15.134H18.5035L19.3995 12.222H17.7475ZM27.8814 8.834C27.8814 8.23667 27.8207 7.62533 27.6994 7C27.578 6.37467 27.3727 5.80533 27.0834 5.292C26.794 4.77867 26.4067 4.35867 25.9214 4.032C25.436 3.70533 24.8294 3.542 24.1014 3.542C23.3827 3.542 22.7807 3.70533 22.2954 4.032C21.81 4.34933 21.4227 4.76 21.1334 5.264C20.844 5.768 20.6387 6.33733 20.5174 6.972C20.396 7.59733 20.3354 8.218 20.3354 8.834C20.3354 9.45 20.396 10.0707 20.5174 10.696C20.6387 11.3213 20.844 11.8907 21.1334 12.404C21.4227 12.908 21.81 13.3187 22.2954 13.636C22.7807 13.9533 23.3827 14.112 24.1014 14.112C24.82 14.112 25.422 13.9533 25.9074 13.636C26.3927 13.3187 26.78 12.908 27.0694 12.404C27.368 11.8907 27.578 11.3213 27.6994 10.696C27.8207 10.0707 27.8814 9.45 27.8814 8.834ZM26.2854 8.834C26.2854 9.198 26.262 9.60867 26.2154 10.066C26.1687 10.5233 26.066 10.9573 25.9074 11.368C25.758 11.7787 25.5387 12.124 25.2494 12.404C24.9694 12.684 24.5867 12.824 24.1014 12.824C23.6254 12.824 23.2427 12.684 22.9534 12.404C22.664 12.124 22.44 11.7787 22.2814 11.368C22.132 10.9573 22.034 10.5233 21.9874 10.066C21.9407 9.60867 21.9174 9.198 21.9174 8.834C21.9174 8.47 21.9407 8.05933 21.9874 7.602C22.034 7.14467 22.132 6.71067 22.2814 6.3C22.44 5.88933 22.6594 5.544 22.9394 5.264C23.2287 4.984 23.616 4.844 24.1014 4.844C24.5867 4.844 24.9694 4.984 25.2494 5.264C25.5387 5.544 25.758 5.88933 25.9074 6.3C26.066 6.71067 26.1687 7.14467 26.2154 7.602C26.262 8.05933 26.2854 8.47 26.2854 8.834ZM36.2212 8.834C36.2212 8.23667 36.1605 7.62533 36.0392 7C35.9179 6.37467 35.7125 5.80533 35.4232 5.292C35.1339 4.77867 34.7465 4.35867 34.2612 4.032C33.7759 3.70533 33.1692 3.542 32.4412 3.542C31.7225 3.542 31.1205 3.70533 30.6352 4.032C30.1499 4.34933 29.7625 4.76 29.4732 5.264C29.1839 5.768 28.9785 6.33733 28.8572 6.972C28.7359 7.59733 28.6752 8.218 28.6752 8.834C28.6752 9.45 28.7359 10.0707 28.8572 10.696C28.9785 11.3213 29.1839 11.8907 29.4732 12.404C29.7625 12.908 30.1499 13.3187 30.6352 13.636C31.1205 13.9533 31.7225 14.112 32.4412 14.112C33.1599 14.112 33.7619 13.9533 34.2472 13.636C34.7325 13.3187 35.1199 12.908 35.4092 12.404C35.7079 11.8907 35.9179 11.3213 36.0392 10.696C36.1605 10.0707 36.2212 9.45 36.2212 8.834ZM34.6252 8.834C34.6252 9.198 34.6019 9.60867 34.5552 10.066C34.5085 10.5233 34.4059 10.9573 34.2472 11.368C34.0979 11.7787 33.8785 12.124 33.5892 12.404C33.3092 12.684 32.9265 12.824 32.4412 12.824C31.9652 12.824 31.5825 12.684 31.2932 12.404C31.0039 12.124 30.7799 11.7787 30.6212 11.368C30.4719 10.9573 30.3739 10.5233 30.3272 10.066C30.2805 9.60867 30.2572 9.198 30.2572 8.834C30.2572 8.47 30.2805 8.05933 30.3272 7.602C30.3739 7.14467 30.4719 6.71067 30.6212 6.3C30.7799 5.88933 30.9992 5.544 31.2792 5.264C31.5685 4.984 31.9559 4.844 32.4412 4.844C32.9265 4.844 33.3092 4.984 33.5892 5.264C33.8785 5.544 34.0979 5.88933 34.2472 6.3C34.4059 6.71067 34.5085 7.14467 34.5552 7.602C34.6019 8.05933 34.6252 8.47 34.6252 8.834ZM44.561 8.834C44.561 8.23667 44.5004 7.62533 44.379 7C44.2577 6.37467 44.0524 5.80533 43.763 5.292C43.4737 4.77867 43.0864 4.35867 42.601 4.032C42.1157 3.70533 41.509 3.542 40.781 3.542C40.0624 3.542 39.4604 3.70533 38.975 4.032C38.4897 4.34933 38.1024 4.76 37.813 5.264C37.5237 5.768 37.3184 6.33733 37.197 6.972C37.0757 7.59733 37.015 8.218 37.015 8.834C37.015 9.45 37.0757 10.0707 37.197 10.696C37.3184 11.3213 37.5237 11.8907 37.813 12.404C38.1024 12.908 38.4897 13.3187 38.975 13.636C39.4604 13.9533 40.0624 14.112 40.781 14.112C41.4997 14.112 42.1017 13.9533 42.587 13.636C43.0724 13.3187 43.4597 12.908 43.749 12.404C44.0477 11.8907 44.2577 11.3213 44.379 10.696C44.5004 10.0707 44.561 9.45 44.561 8.834ZM42.965 8.834C42.965 9.198 42.9417 9.60867 42.895 10.066C42.8484 10.5233 42.7457 10.9573 42.587 11.368C42.4377 11.7787 42.2184 12.124 41.929 12.404C41.649 12.684 41.2664 12.824 40.781 12.824C40.305 12.824 39.9224 12.684 39.633 12.404C39.3437 12.124 39.1197 11.7787 38.961 11.368C38.8117 10.9573 38.7137 10.5233 38.667 10.066C38.6204 9.60867 38.597 9.198 38.597 8.834C38.597 8.47 38.6204 8.05933 38.667 7.602C38.7137 7.14467 38.8117 6.71067 38.961 6.3C39.1197 5.88933 39.339 5.544 39.619 5.264C39.9084 4.984 40.2957 4.844 40.781 4.844C41.2664 4.844 41.649 4.984 41.929 5.264C42.2184 5.544 42.4377 5.88933 42.587 6.3C42.7457 6.71067 42.8484 7.14467 42.895 7.602C42.9417 8.05933 42.965 8.47 42.965 8.834ZM45.7749 12.222L45.2429 15.134H46.5309L47.4269 12.222H45.7749ZM55.9087 8.834C55.9087 8.23667 55.848 7.62533 55.7267 7C55.6054 6.37467 55.4 5.80533 55.1107 5.292C54.8214 4.77867 54.434 4.35867 53.9487 4.032C53.4634 3.70533 52.8567 3.542 52.1287 3.542C51.41 3.542 50.808 3.70533 50.3227 4.032C49.8374 4.34933 49.45 4.76 49.1607 5.264C48.8714 5.768 48.666 6.33733 48.5447 6.972C48.4234 7.59733 48.3627 8.218 48.3627 8.834C48.3627 9.45 48.4234 10.0707 48.5447 10.696C48.666 11.3213 48.8714 11.8907 49.1607 12.404C49.45 12.908 49.8374 13.3187 50.3227 13.636C50.808 13.9533 51.41 14.112 52.1287 14.112C52.8474 14.112 53.4494 13.9533 53.9347 13.636C54.42 13.3187 54.8074 12.908 55.0967 12.404C55.3954 11.8907 55.6054 11.3213 55.7267 10.696C55.848 10.0707 55.9087 9.45 55.9087 8.834ZM54.3127 8.834C54.3127 9.198 54.2894 9.60867 54.2427 10.066C54.196 10.5233 54.0934 10.9573 53.9347 11.368C53.7854 11.7787 53.566 12.124 53.2767 12.404C52.9967 12.684 52.614 12.824 52.1287 12.824C51.6527 12.824 51.27 12.684 50.9807 12.404C50.6914 12.124 50.4674 11.7787 50.3087 11.368C50.1594 10.9573 50.0614 10.5233 50.0147 10.066C49.968 9.60867 49.9447 9.198 49.9447 8.834C49.9447 8.47 49.968 8.05933 50.0147 7.602C50.0614 7.14467 50.1594 6.71067 50.3087 6.3C50.4674 5.88933 50.6867 5.544 50.9667 5.264C51.256 4.984 51.6434 4.844 52.1287 4.844C52.614 4.844 52.9967 4.984 53.2767 5.264C53.566 5.544 53.7854 5.88933 53.9347 6.3C54.0934 6.71067 54.196 7.14467 54.2427 7.602C54.2894 8.05933 54.3127 8.47 54.3127 8.834ZM64.2485 8.834C64.2485 8.23667 64.1879 7.62533 64.0665 7C63.9452 6.37467 63.7399 5.80533 63.4505 5.292C63.1612 4.77867 62.7739 4.35867 62.2885 4.032C61.8032 3.70533 61.1965 3.542 60.4685 3.542C59.7499 3.542 59.1479 3.70533 58.6625 4.032C58.1772 4.34933 57.7899 4.76 57.5005 5.264C57.2112 5.768 57.0059 6.33733 56.8845 6.972C56.7632 7.59733 56.7025 8.218 56.7025 8.834C56.7025 9.45 56.7632 10.0707 56.8845 10.696C57.0059 11.3213 57.2112 11.8907 57.5005 12.404C57.7899 12.908 58.1772 13.3187 58.6625 13.636C59.1479 13.9533 59.7499 14.112 60.4685 14.112C61.1872 14.112 61.7892 13.9533 62.2745 13.636C62.7599 13.3187 63.1472 12.908 63.4365 12.404C63.7352 11.8907 63.9452 11.3213 64.0665 10.696C64.1879 10.0707 64.2485 9.45 64.2485 8.834ZM62.6525 8.834C62.6525 9.198 62.6292 9.60867 62.5825 10.066C62.5359 10.5233 62.4332 10.9573 62.2745 11.368C62.1252 11.7787 61.9059 12.124 61.6165 12.404C61.3365 12.684 60.9539 12.824 60.4685 12.824C59.9925 12.824 59.6099 12.684 59.3205 12.404C59.0312 12.124 58.8072 11.7787 58.6485 11.368C58.4992 10.9573 58.4012 10.5233 58.3545 10.066C58.3079 9.60867 58.2845 9.198 58.2845 8.834C58.2845 8.47 58.3079 8.05933 58.3545 7.602C58.4012 7.14467 58.4992 6.71067 58.6485 6.3C58.8072 5.88933 59.0265 5.544 59.3065 5.264C59.5959 4.984 59.9832 4.844 60.4685 4.844C60.9539 4.844 61.3365 4.984 61.6165 5.264C61.9059 5.544 62.1252 5.88933 62.2745 6.3C62.4332 6.71067 62.5359 7.14467 62.5825 7.602C62.6292 8.05933 62.6525 8.47 62.6525 8.834ZM72.5884 8.834C72.5884 8.23667 72.5277 7.62533 72.4064 7C72.2851 6.37467 72.0797 5.80533 71.7904 5.292C71.5011 4.77867 71.1137 4.35867 70.6284 4.032C70.1431 3.70533 69.5364 3.542 68.8084 3.542C68.0897 3.542 67.4877 3.70533 67.0024 4.032C66.5171 4.34933 66.1297 4.76 65.8404 5.264C65.5511 5.768 65.3457 6.33733 65.2244 6.972C65.1031 7.59733 65.0424 8.218 65.0424 8.834C65.0424 9.45 65.1031 10.0707 65.2244 10.696C65.3457 11.3213 65.5511 11.8907 65.8404 12.404C66.1297 12.908 66.5171 13.3187 67.0024 13.636C67.4877 13.9533 68.0897 14.112 68.8084 14.112C69.5271 14.112 70.1291 13.9533 70.6144 13.636C71.0997 13.3187 71.4871 12.908 71.7764 12.404C72.0751 11.8907 72.2851 11.3213 72.4064 10.696C72.5277 10.0707 72.5884 9.45 72.5884 8.834ZM70.9924 8.834C70.9924 9.198 70.9691 9.60867 70.9224 10.066C70.8757 10.5233 70.7731 10.9573 70.6144 11.368C70.4651 11.7787 70.2457 12.124 69.9564 12.404C69.6764 12.684 69.2937 12.824 68.8084 12.824C68.3324 12.824 67.9497 12.684 67.6604 12.404C67.3711 12.124 67.1471 11.7787 66.9884 11.368C66.8391 10.9573 66.7411 10.5233 66.6944 10.066C66.6477 9.60867 66.6244 9.198 66.6244 8.834C66.6244 8.47 66.6477 8.05933 66.6944 7.602C66.7411 7.14467 66.8391 6.71067 66.9884 6.3C67.1471 5.88933 67.3664 5.544 67.6464 5.264C67.9357 4.984 68.3231 4.844 68.8084 4.844C69.2937 4.844 69.6764 4.984 69.9564 5.264C70.2457 5.544 70.4651 5.88933 70.6144 6.3C70.7731 6.71067 70.8757 7.14467 70.9224 7.602C70.9691 8.05933 70.9924 8.47 70.9924 8.834ZM85.8651 9.856H83.3871V10.864H85.8651V12.04H87.3071V2.422H85.8651V9.856ZM80.8671 7.364C81.3338 7.364 81.7584 7.31267 82.1411 7.21C82.5238 7.098 82.8504 6.94867 83.1211 6.762C83.3918 6.566 83.6018 6.33267 83.7511 6.062C83.9098 5.782 83.9891 5.474 83.9891 5.138C83.9891 4.802 83.9098 4.49867 83.7511 4.228C83.6018 3.948 83.3918 3.71467 83.1211 3.528C82.8504 3.332 82.5238 3.18267 82.1411 3.08C81.7584 2.968 81.3338 2.912 80.8671 2.912C80.4098 2.912 79.9851 2.968 79.5931 3.08C79.2104 3.18267 78.8791 3.332 78.5991 3.528C78.3284 3.71467 78.1138 3.948 77.9551 4.228C77.8058 4.49867 77.7311 4.802 77.7311 5.138C77.7311 5.474 77.8058 5.782 77.9551 6.062C78.1138 6.33267 78.3284 6.566 78.5991 6.762C78.8791 6.94867 79.2104 7.098 79.5931 7.21C79.9851 7.31267 80.4098 7.364 80.8671 7.364ZM80.8671 3.976C81.3991 3.976 81.8238 4.08333 82.1411 4.298C82.4584 4.50333 82.6171 4.78333 82.6171 5.138C82.6171 5.49267 82.4584 5.77733 82.1411 5.992C81.8238 6.19733 81.3991 6.3 80.8671 6.3C80.3351 6.3 79.9058 6.19733 79.5791 5.992C79.2618 5.77733 79.1031 5.49267 79.1031 5.138C79.1031 4.78333 79.2618 4.50333 79.5791 4.298C79.9058 4.08333 80.3351 3.976 80.8671 3.976ZM80.2931 9.282V11.634H81.7351V9.198C82.2764 9.17 82.8178 9.128 83.3591 9.072C83.9098 9.00667 84.4511 8.92733 84.9831 8.834L84.8711 7.798C84.1991 7.882 83.5084 7.952 82.7991 8.008C82.0898 8.05467 81.3851 8.092 80.6851 8.12C79.9851 8.13867 79.2991 8.15267 78.6271 8.162C77.9644 8.17133 77.3438 8.176 76.7651 8.176L76.9471 9.352C77.4511 9.352 77.9784 9.34733 78.5291 9.338C79.0891 9.32867 79.6771 9.31 80.2931 9.282ZM87.6011 13.664H79.9151V11.102H78.4731V14.84H87.6011V13.664Z" fill="black"/>
<path d="M2.46786 33.056L4.14786 31.642C4.13853 31.7633 4.13386 31.88 4.13386 31.992V38.656H1.97786V40H7.61986V38.656H5.67386V29.626H4.41386L1.61386 32.02L2.46786 33.056ZM16.2537 40V38.628H12.6697C12.4457 38.628 12.217 38.6467 11.9837 38.684C11.7597 38.7213 11.5404 38.768 11.3257 38.824L13.9577 36.164C14.219 35.9027 14.4757 35.6367 14.7277 35.366C14.9797 35.0953 15.2037 34.8107 15.3997 34.512C15.605 34.204 15.7684 33.882 15.8897 33.546C16.011 33.21 16.0717 32.846 16.0717 32.454C16.0717 31.9873 15.9877 31.572 15.8197 31.208C15.6517 30.844 15.423 30.5407 15.1337 30.298C14.8537 30.046 14.5224 29.8593 14.1397 29.738C13.757 29.6073 13.3464 29.542 12.9077 29.542C11.9464 29.542 11.1577 29.8033 10.5417 30.326C9.93504 30.8393 9.56637 31.5627 9.4357 32.496L10.9757 32.776C10.957 32.496 10.9897 32.2393 11.0737 32.006C11.1577 31.7727 11.2837 31.572 11.4517 31.404C11.6197 31.236 11.8204 31.1053 12.0537 31.012C12.287 30.9093 12.5437 30.858 12.8237 30.858C13.3184 30.858 13.6917 30.97 13.9437 31.194C14.205 31.4087 14.3684 31.6793 14.4337 32.006C14.5084 32.3233 14.5037 32.6687 14.4197 33.042C14.3357 33.4153 14.205 33.7607 14.0277 34.078C13.841 34.3673 13.6404 34.6333 13.4257 34.876C13.211 35.1187 12.9824 35.3613 12.7397 35.604L9.2537 39.104V40H16.2537ZM17.7475 38.222L17.2155 41.134H18.5035L19.3995 38.222H17.7475ZM28.0354 37.382V36.178H26.6074V29.64H25.1654L20.1954 36.262V37.382H25.2634V40H26.6074V37.382H28.0354ZM25.2634 36.178H21.8614L25.3334 31.404C25.3147 31.5907 25.296 31.7633 25.2774 31.922C25.268 32.0807 25.2634 32.2393 25.2634 32.398V36.178ZM29.8792 37.83L29.0812 38.95C29.2492 39.1087 29.4405 39.2533 29.6552 39.384C29.9819 39.6267 30.3599 39.8087 30.7892 39.93C31.2185 40.0513 31.6339 40.112 32.0352 40.112C32.5859 40.112 33.0945 40.0233 33.5612 39.846C34.0279 39.6687 34.4292 39.4213 34.7652 39.104C35.1012 38.7867 35.3625 38.404 35.5492 37.956C35.7359 37.4987 35.8292 36.9993 35.8292 36.458C35.8292 35.9447 35.7452 35.4967 35.5772 35.114C35.4092 34.722 35.1759 34.3953 34.8772 34.134C34.5785 33.8633 34.2285 33.6627 33.8272 33.532C33.4259 33.392 32.9872 33.322 32.5112 33.322C32.0632 33.322 31.6059 33.3733 31.1392 33.476L31.5592 31.068H35.4932V29.654H30.4812L29.6412 34.596L30.5932 34.862C30.8545 34.7873 31.1159 34.7267 31.3772 34.68C31.6479 34.624 31.9185 34.596 32.1892 34.596C32.8332 34.596 33.3419 34.7593 33.7152 35.086C34.0979 35.4127 34.2892 35.898 34.2892 36.542C34.2892 36.8593 34.2379 37.158 34.1352 37.438C34.0419 37.7087 33.9019 37.9467 33.7152 38.152C33.5379 38.348 33.3139 38.5067 33.0432 38.628C32.7725 38.74 32.4692 38.796 32.1332 38.796C31.7132 38.796 31.3072 38.7073 30.9152 38.53C30.5232 38.3433 30.1779 38.11 29.8792 37.83ZM42.433 34.596C42.9464 34.4 43.3337 34.106 43.595 33.714C43.8564 33.3127 43.987 32.8367 43.987 32.286C43.987 31.8473 43.8984 31.46 43.721 31.124C43.5437 30.7787 43.3057 30.4893 43.007 30.256C42.7177 30.0227 42.377 29.8453 41.985 29.724C41.6024 29.6027 41.2057 29.542 40.795 29.542C40.3844 29.542 39.983 29.6027 39.591 29.724C39.2084 29.8453 38.8677 30.0227 38.569 30.256C38.2797 30.4893 38.0464 30.7787 37.869 31.124C37.6917 31.46 37.603 31.8473 37.603 32.286C37.603 32.8367 37.7337 33.3127 37.995 33.714C38.2564 34.106 38.6484 34.4 39.171 34.596C38.555 34.7827 38.079 35.086 37.743 35.506C37.4164 35.926 37.253 36.4627 37.253 37.116C37.253 37.62 37.3464 38.0587 37.533 38.432C37.729 38.8053 37.9857 39.118 38.303 39.37C38.6297 39.622 39.0077 39.8087 39.437 39.93C39.8664 40.0513 40.319 40.112 40.795 40.112C41.2524 40.112 41.691 40.0513 42.111 39.93C42.5404 39.8087 42.9184 39.6267 43.245 39.384C43.581 39.1413 43.847 38.8333 44.043 38.46C44.239 38.0773 44.337 37.6293 44.337 37.116C44.337 36.472 44.1737 35.94 43.847 35.52C43.5204 35.0907 43.049 34.7827 42.433 34.596ZM40.795 30.718C41.271 30.718 41.6724 30.858 41.999 31.138C42.3257 31.4087 42.489 31.8007 42.489 32.314C42.489 32.8553 42.335 33.2753 42.027 33.574C41.7284 33.8727 41.3177 34.022 40.795 34.022C40.263 34.022 39.8477 33.8773 39.549 33.588C39.2504 33.2893 39.101 32.8647 39.101 32.314C39.101 31.81 39.255 31.418 39.563 31.138C39.8804 30.858 40.291 30.718 40.795 30.718ZM40.795 38.894C40.2257 38.894 39.7544 38.7353 39.381 38.418C39.017 38.1007 38.835 37.6573 38.835 37.088C38.835 36.472 39.0217 36.0147 39.395 35.716C39.7684 35.408 40.235 35.254 40.795 35.254C41.355 35.254 41.8217 35.408 42.195 35.716C42.5684 36.0147 42.755 36.472 42.755 37.088C42.755 37.3867 42.7037 37.648 42.601 37.872C42.4984 38.096 42.3584 38.2873 42.181 38.446C42.0037 38.5953 41.7937 38.7073 41.551 38.782C41.3177 38.8567 41.0657 38.894 40.795 38.894ZM45.7749 38.222L45.2429 41.134H46.5309L47.4269 38.222H45.7749ZM55.6287 40V38.628H52.0447C51.8207 38.628 51.592 38.6467 51.3587 38.684C51.1347 38.7213 50.9154 38.768 50.7007 38.824L53.3327 36.164C53.594 35.9027 53.8507 35.6367 54.1027 35.366C54.3547 35.0953 54.5787 34.8107 54.7747 34.512C54.98 34.204 55.1434 33.882 55.2647 33.546C55.386 33.21 55.4467 32.846 55.4467 32.454C55.4467 31.9873 55.3627 31.572 55.1947 31.208C55.0267 30.844 54.798 30.5407 54.5087 30.298C54.2287 30.046 53.8974 29.8593 53.5147 29.738C53.132 29.6073 52.7214 29.542 52.2827 29.542C51.3214 29.542 50.5327 29.8033 49.9167 30.326C49.31 30.8393 48.9414 31.5627 48.8107 32.496L50.3507 32.776C50.332 32.496 50.3647 32.2393 50.4487 32.006C50.5327 31.7727 50.6587 31.572 50.8267 31.404C50.9947 31.236 51.1954 31.1053 51.4287 31.012C51.662 30.9093 51.9187 30.858 52.1987 30.858C52.6934 30.858 53.0667 30.97 53.3187 31.194C53.58 31.4087 53.7434 31.6793 53.8087 32.006C53.8834 32.3233 53.8787 32.6687 53.7947 33.042C53.7107 33.4153 53.58 33.7607 53.4027 34.078C53.216 34.3673 53.0154 34.6333 52.8007 34.876C52.586 35.1187 52.3574 35.3613 52.1147 35.604L48.6287 39.104V40H55.6287ZM58.0745 40H60.0345L62.7225 36.15C63.0772 35.6367 63.3619 35.128 63.5765 34.624C63.8005 34.12 63.9125 33.5507 63.9125 32.916C63.9125 32.3933 63.8285 31.9267 63.6605 31.516C63.5019 31.096 63.2732 30.7413 62.9745 30.452C62.6759 30.1627 62.3165 29.9387 61.8965 29.78C61.4859 29.6213 61.0332 29.542 60.5385 29.542C60.0532 29.542 59.5959 29.626 59.1665 29.794C58.7465 29.9527 58.3779 30.1767 58.0605 30.466C57.7525 30.7553 57.5052 31.1053 57.3185 31.516C57.1412 31.9173 57.0525 32.3607 57.0525 32.846C57.0525 33.2753 57.1225 33.672 57.2625 34.036C57.4025 34.4 57.5985 34.7173 57.8505 34.988C58.1025 35.2493 58.4059 35.4547 58.7605 35.604C59.1152 35.744 59.5072 35.814 59.9365 35.814C60.2632 35.814 60.5759 35.772 60.8745 35.688C61.1825 35.5947 61.4719 35.4547 61.7425 35.268L61.2525 35.94L58.0745 40ZM58.5925 32.734C58.5925 32.4447 58.6392 32.1833 58.7325 31.95C58.8352 31.7167 58.9705 31.516 59.1385 31.348C59.3065 31.18 59.5072 31.0493 59.7405 30.956C59.9739 30.8627 60.2305 30.816 60.5105 30.816C61.1079 30.816 61.5745 30.998 61.9105 31.362C62.2559 31.7167 62.4285 32.1787 62.4285 32.748C62.4285 33.028 62.3772 33.2847 62.2745 33.518C62.1812 33.7513 62.0459 33.952 61.8685 34.12C61.7005 34.2787 61.4952 34.4047 61.2525 34.498C61.0192 34.5913 60.7579 34.638 60.4685 34.638C59.8712 34.638 59.4092 34.47 59.0825 34.134C58.7559 33.7887 58.5925 33.322 58.5925 32.734ZM66.6524 36.836L65.2944 37.396C65.5744 38.3387 65.9991 39.0293 66.5684 39.468C67.1377 39.9067 67.8984 40.126 68.8504 40.126C69.3264 40.126 69.7744 40.056 70.1944 39.916C70.6237 39.776 70.9971 39.5707 71.3144 39.3C71.6317 39.0293 71.8837 38.7027 72.0704 38.32C72.2571 37.928 72.3504 37.4847 72.3504 36.99C72.3504 36.3367 72.1824 35.814 71.8464 35.422C71.5104 35.0207 71.0344 34.7313 70.4184 34.554C71.0157 34.3673 71.4497 34.078 71.7204 33.686C71.9911 33.294 72.1264 32.7993 72.1264 32.202C72.1264 31.7633 72.0377 31.3807 71.8604 31.054C71.6924 30.718 71.4637 30.438 71.1744 30.214C70.8944 29.99 70.5677 29.822 70.1944 29.71C69.8304 29.598 69.4524 29.542 69.0604 29.542C68.0991 29.542 67.3151 29.808 66.7084 30.34C66.1017 30.8627 65.7331 31.586 65.6024 32.51L67.1284 32.776C67.1097 32.496 67.1424 32.2393 67.2264 32.006C67.3197 31.7727 67.4504 31.572 67.6184 31.404C67.7864 31.236 67.9871 31.1053 68.2204 31.012C68.4631 30.9093 68.7151 30.858 68.9764 30.858C69.4897 30.858 69.8911 31.0027 70.1804 31.292C70.4791 31.572 70.6284 31.964 70.6284 32.468C70.6284 32.8133 70.5584 33.0933 70.4184 33.308C70.2877 33.5227 70.1151 33.6953 69.9004 33.826C69.6857 33.9473 69.4384 34.0313 69.1584 34.078C68.8784 34.1247 68.5937 34.148 68.3044 34.148V35.268C68.6217 35.268 68.9297 35.2867 69.2284 35.324C69.5271 35.3613 69.7931 35.4407 70.0264 35.562C70.2597 35.6833 70.4464 35.8607 70.5864 36.094C70.7357 36.3273 70.8104 36.64 70.8104 37.032C70.8104 37.3027 70.7544 37.55 70.6424 37.774C70.5397 37.9887 70.3951 38.1753 70.2084 38.334C70.0311 38.4833 69.8211 38.6 69.5784 38.684C69.3451 38.768 69.0977 38.81 68.8364 38.81C68.5751 38.81 68.3184 38.7587 68.0664 38.656C67.8144 38.544 67.5904 38.3993 67.3944 38.222C67.1984 38.0447 67.0304 37.8347 66.8904 37.592C66.7597 37.3493 66.6804 37.0973 66.6524 36.836ZM85.8651 35.856H83.3871V36.864H85.8651V38.04H87.3071V28.422H85.8651V35.856ZM80.8671 33.364C81.3338 33.364 81.7584 33.3127 82.1411 33.21C82.5238 33.098 82.8504 32.9487 83.1211 32.762C83.3918 32.566 83.6018 32.3327 83.7511 32.062C83.9098 31.782 83.9891 31.474 83.9891 31.138C83.9891 30.802 83.9098 30.4987 83.7511 30.228C83.6018 29.948 83.3918 29.7147 83.1211 29.528C82.8504 29.332 82.5238 29.1827 82.1411 29.08C81.7584 28.968 81.3338 28.912 80.8671 28.912C80.4098 28.912 79.9851 28.968 79.5931 29.08C79.2104 29.1827 78.8791 29.332 78.5991 29.528C78.3284 29.7147 78.1138 29.948 77.9551 30.228C77.8058 30.4987 77.7311 30.802 77.7311 31.138C77.7311 31.474 77.8058 31.782 77.9551 32.062C78.1138 32.3327 78.3284 32.566 78.5991 32.762C78.8791 32.9487 79.2104 33.098 79.5931 33.21C79.9851 33.3127 80.4098 33.364 80.8671 33.364ZM80.8671 29.976C81.3991 29.976 81.8238 30.0833 82.1411 30.298C82.4584 30.5033 82.6171 30.7833 82.6171 31.138C82.6171 31.4927 82.4584 31.7773 82.1411 31.992C81.8238 32.1973 81.3991 32.3 80.8671 32.3C80.3351 32.3 79.9058 32.1973 79.5791 31.992C79.2618 31.7773 79.1031 31.4927 79.1031 31.138C79.1031 30.7833 79.2618 30.5033 79.5791 30.298C79.9058 30.0833 80.3351 29.976 80.8671 29.976ZM80.2931 35.282V37.634H81.7351V35.198C82.2764 35.17 82.8178 35.128 83.3591 35.072C83.9098 35.0067 84.4511 34.9273 84.9831 34.834L84.8711 33.798C84.1991 33.882 83.5084 33.952 82.7991 34.008C82.0898 34.0547 81.3851 34.092 80.6851 34.12C79.9851 34.1387 79.2991 34.1527 78.6271 34.162C77.9644 34.1713 77.3438 34.176 76.7651 34.176L76.9471 35.352C77.4511 35.352 77.9784 35.3473 78.5291 35.338C79.0891 35.3287 79.6771 35.31 80.2931 35.282ZM87.6011 39.664H79.9151V37.102H78.4731V40.84H87.6011V39.664Z" fill="black"/>
<path d="M27.7134 56.746V55.654H20.6154V57.068H26.1454C25.94 57.3013 25.7767 57.5487 25.6554 57.81L21.4834 66H23.1634L27.7134 56.746ZM34.0932 60.596C34.6065 60.4 34.9939 60.106 35.2552 59.714C35.5165 59.3127 35.6472 58.8367 35.6472 58.286C35.6472 57.8473 35.5585 57.46 35.3812 57.124C35.2039 56.7787 34.9659 56.4893 34.6672 56.256C34.3779 56.0227 34.0372 55.8453 33.6452 55.724C33.2625 55.6027 32.8659 55.542 32.4552 55.542C32.0445 55.542 31.6432 55.6027 31.2512 55.724C30.8685 55.8453 30.5279 56.0227 30.2292 56.256C29.9399 56.4893 29.7065 56.7787 29.5292 57.124C29.3519 57.46 29.2632 57.8473 29.2632 58.286C29.2632 58.8367 29.3939 59.3127 29.6552 59.714C29.9165 60.106 30.3085 60.4 30.8312 60.596C30.2152 60.7827 29.7392 61.086 29.4032 61.506C29.0765 61.926 28.9132 62.4627 28.9132 63.116C28.9132 63.62 29.0065 64.0587 29.1932 64.432C29.3892 64.8053 29.6459 65.118 29.9632 65.37C30.2899 65.622 30.6679 65.8087 31.0972 65.93C31.5265 66.0513 31.9792 66.112 32.4552 66.112C32.9125 66.112 33.3512 66.0513 33.7712 65.93C34.2005 65.8087 34.5785 65.6267 34.9052 65.384C35.2412 65.1413 35.5072 64.8333 35.7032 64.46C35.8992 64.0773 35.9972 63.6293 35.9972 63.116C35.9972 62.472 35.8339 61.94 35.5072 61.52C35.1805 61.0907 34.7092 60.7827 34.0932 60.596ZM32.4552 56.718C32.9312 56.718 33.3325 56.858 33.6592 57.138C33.9859 57.4087 34.1492 57.8007 34.1492 58.314C34.1492 58.8553 33.9952 59.2753 33.6872 59.574C33.3885 59.8727 32.9779 60.022 32.4552 60.022C31.9232 60.022 31.5079 59.8773 31.2092 59.588C30.9105 59.2893 30.7612 58.8647 30.7612 58.314C30.7612 57.81 30.9152 57.418 31.2232 57.138C31.5405 56.858 31.9512 56.718 32.4552 56.718ZM32.4552 64.894C31.8859 64.894 31.4145 64.7353 31.0412 64.418C30.6772 64.1007 30.4952 63.6573 30.4952 63.088C30.4952 62.472 30.6819 62.0147 31.0552 61.716C31.4285 61.408 31.8952 61.254 32.4552 61.254C33.0152 61.254 33.4819 61.408 33.8552 61.716C34.2285 62.0147 34.4152 62.472 34.4152 63.088C34.4152 63.3867 34.3639 63.648 34.2612 63.872C34.1585 64.096 34.0185 64.2873 33.8412 64.446C33.6639 64.5953 33.4539 64.7073 33.2112 64.782C32.9779 64.8567 32.7259 64.894 32.4552 64.894ZM38.387 66H40.347L43.035 62.15C43.3897 61.6367 43.6744 61.128 43.889 60.624C44.113 60.12 44.225 59.5507 44.225 58.916C44.225 58.3933 44.141 57.9267 43.973 57.516C43.8144 57.096 43.5857 56.7413 43.287 56.452C42.9884 56.1627 42.629 55.9387 42.209 55.78C41.7984 55.6213 41.3457 55.542 40.851 55.542C40.3657 55.542 39.9084 55.626 39.479 55.794C39.059 55.9527 38.6904 56.1767 38.373 56.466C38.065 56.7553 37.8177 57.1053 37.631 57.516C37.4537 57.9173 37.365 58.3607 37.365 58.846C37.365 59.2753 37.435 59.672 37.575 60.036C37.715 60.4 37.911 60.7173 38.163 60.988C38.415 61.2493 38.7184 61.4547 39.073 61.604C39.4277 61.744 39.8197 61.814 40.249 61.814C40.5757 61.814 40.8884 61.772 41.187 61.688C41.495 61.5947 41.7844 61.4547 42.055 61.268L41.565 61.94L38.387 66ZM38.905 58.734C38.905 58.4447 38.9517 58.1833 39.045 57.95C39.1477 57.7167 39.283 57.516 39.451 57.348C39.619 57.18 39.8197 57.0493 40.053 56.956C40.2864 56.8627 40.543 56.816 40.823 56.816C41.4204 56.816 41.887 56.998 42.223 57.362C42.5684 57.7167 42.741 58.1787 42.741 58.748C42.741 59.028 42.6897 59.2847 42.587 59.518C42.4937 59.7513 42.3584 59.952 42.181 60.12C42.013 60.2787 41.8077 60.4047 41.565 60.498C41.3317 60.5913 41.0704 60.638 40.781 60.638C40.1837 60.638 39.7217 60.47 39.395 60.134C39.0684 59.7887 38.905 59.322 38.905 58.734ZM45.7749 64.222L45.2429 67.134H46.5309L47.4269 64.222H45.7749ZM50.1827 59.056L51.8627 57.642C51.8534 57.7633 51.8487 57.88 51.8487 57.992V64.656H49.6927V66H55.3347V64.656H53.3887V55.626H52.1287L49.3287 58.02L50.1827 59.056ZM57.9065 63.83L57.1085 64.95C57.2765 65.1087 57.4679 65.2533 57.6825 65.384C58.0092 65.6267 58.3872 65.8087 58.8165 65.93C59.2459 66.0513 59.6612 66.112 60.0625 66.112C60.6132 66.112 61.1219 66.0233 61.5885 65.846C62.0552 65.6687 62.4565 65.4213 62.7925 65.104C63.1285 64.7867 63.3899 64.404 63.5765 63.956C63.7632 63.4987 63.8565 62.9993 63.8565 62.458C63.8565 61.9447 63.7725 61.4967 63.6045 61.114C63.4365 60.722 63.2032 60.3953 62.9045 60.134C62.6059 59.8633 62.2559 59.6627 61.8545 59.532C61.4532 59.392 61.0145 59.322 60.5385 59.322C60.0905 59.322 59.6332 59.3733 59.1665 59.476L59.5865 57.068H63.5205V55.654H58.5085L57.6685 60.596L58.6205 60.862C58.8819 60.7873 59.1432 60.7267 59.4045 60.68C59.6752 60.624 59.9459 60.596 60.2165 60.596C60.8605 60.596 61.3692 60.7593 61.7425 61.086C62.1252 61.4127 62.3165 61.898 62.3165 62.542C62.3165 62.8593 62.2652 63.158 62.1625 63.438C62.0692 63.7087 61.9292 63.9467 61.7425 64.152C61.5652 64.348 61.3412 64.5067 61.0705 64.628C60.7999 64.74 60.4965 64.796 60.1605 64.796C59.7405 64.796 59.3345 64.7073 58.9425 64.53C58.5505 64.3433 58.2052 64.11 57.9065 63.83ZM72.3084 66V64.628H68.7244C68.5004 64.628 68.2717 64.6467 68.0384 64.684C67.8144 64.7213 67.5951 64.768 67.3804 64.824L70.0124 62.164C70.2737 61.9027 70.5304 61.6367 70.7824 61.366C71.0344 61.0953 71.2584 60.8107 71.4544 60.512C71.6597 60.204 71.8231 59.882 71.9444 59.546C72.0657 59.21 72.1264 58.846 72.1264 58.454C72.1264 57.9873 72.0424 57.572 71.8744 57.208C71.7064 56.844 71.4777 56.5407 71.1884 56.298C70.9084 56.046 70.5771 55.8593 70.1944 55.738C69.8117 55.6073 69.4011 55.542 68.9624 55.542C68.0011 55.542 67.2124 55.8033 66.5964 56.326C65.9897 56.8393 65.6211 57.5627 65.4904 58.496L67.0304 58.776C67.0117 58.496 67.0444 58.2393 67.1284 58.006C67.2124 57.7727 67.3384 57.572 67.5064 57.404C67.6744 57.236 67.8751 57.1053 68.1084 57.012C68.3417 56.9093 68.5984 56.858 68.8784 56.858C69.3731 56.858 69.7464 56.97 69.9984 57.194C70.2597 57.4087 70.4231 57.6793 70.4884 58.006C70.5631 58.3233 70.5584 58.6687 70.4744 59.042C70.3904 59.4153 70.2597 59.7607 70.0824 60.078C69.8957 60.3673 69.6951 60.6333 69.4804 60.876C69.2657 61.1187 69.0371 61.3613 68.7944 61.604L65.3084 65.104V66H72.3084ZM85.8651 61.856H83.3871V62.864H85.8651V64.04H87.3071V54.422H85.8651V61.856ZM80.8671 59.364C81.3338 59.364 81.7584 59.3127 82.1411 59.21C82.5238 59.098 82.8504 58.9487 83.1211 58.762C83.3918 58.566 83.6018 58.3327 83.7511 58.062C83.9098 57.782 83.9891 57.474 83.9891 57.138C83.9891 56.802 83.9098 56.4987 83.7511 56.228C83.6018 55.948 83.3918 55.7147 83.1211 55.528C82.8504 55.332 82.5238 55.1827 82.1411 55.08C81.7584 54.968 81.3338 54.912 80.8671 54.912C80.4098 54.912 79.9851 54.968 79.5931 55.08C79.2104 55.1827 78.8791 55.332 78.5991 55.528C78.3284 55.7147 78.1138 55.948 77.9551 56.228C77.8058 56.4987 77.7311 56.802 77.7311 57.138C77.7311 57.474 77.8058 57.782 77.9551 58.062C78.1138 58.3327 78.3284 58.566 78.5991 58.762C78.8791 58.9487 79.2104 59.098 79.5931 59.21C79.9851 59.3127 80.4098 59.364 80.8671 59.364ZM80.8671 55.976C81.3991 55.976 81.8238 56.0833 82.1411 56.298C82.4584 56.5033 82.6171 56.7833 82.6171 57.138C82.6171 57.4927 82.4584 57.7773 82.1411 57.992C81.8238 58.1973 81.3991 58.3 80.8671 58.3C80.3351 58.3 79.9058 58.1973 79.5791 57.992C79.2618 57.7773 79.1031 57.4927 79.1031 57.138C79.1031 56.7833 79.2618 56.5033 79.5791 56.298C79.9058 56.0833 80.3351 55.976 80.8671 55.976ZM80.2931 61.282V63.634H81.7351V61.198C82.2764 61.17 82.8178 61.128 83.3591 61.072C83.9098 61.0067 84.4511 60.9273 84.9831 60.834L84.8711 59.798C84.1991 59.882 83.5084 59.952 82.7991 60.008C82.0898 60.0547 81.3851 60.092 80.6851 60.12C79.9851 60.1387 79.2991 60.1527 78.6271 60.162C77.9644 60.1713 77.3438 60.176 76.7651 60.176L76.9471 61.352C77.4511 61.352 77.9784 61.3473 78.5291 61.338C79.0891 61.3287 79.6771 61.31 80.2931 61.282ZM87.6011 65.664H79.9151V63.102H78.4731V66.84H87.6011V65.664Z" fill="black"/>
</svg>
