<svg width="84" height="16" viewBox="0 0 84 16" fill="none" xmlns="http://www.w3.org/2000/svg">
<path d="M13.104 0.783999H11.536V6.432H9.888V1.168H8.336V14.56H9.888V7.776H11.536V15.232H13.104V0.783999ZM7.024 2.608H1.344V3.952H5.392C5.33867 4.66667 5.21067 5.35467 5.008 6.016C4.816 6.66667 4.53333 7.29067 4.16 7.888C3.79733 8.48533 3.33333 9.05067 2.768 9.584C2.20267 10.1067 1.52533 10.592 0.736 11.04L1.696 12.208C2.70933 11.6213 3.55733 10.9707 4.24 10.256C4.92267 9.54133 5.46667 8.77867 5.872 7.968C6.288 7.15733 6.58133 6.304 6.752 5.408C6.93333 4.50133 7.024 3.568 7.024 2.608ZM26.6388 11.28V0.783999H24.9908V11.28H26.6388ZM22.6708 5.36C22.6708 4.82667 22.5748 4.34133 22.3828 3.904C22.1908 3.456 21.9188 3.072 21.5668 2.752C21.2254 2.432 20.8201 2.18667 20.3507 2.016C19.8921 1.83467 19.3908 1.744 18.8468 1.744C18.3027 1.744 17.7961 1.83467 17.3268 2.016C16.8574 2.18667 16.4521 2.432 16.1107 2.752C15.7694 3.072 15.4974 3.456 15.2947 3.904C15.1027 4.34133 15.0067 4.82667 15.0067 5.36C15.0067 5.88267 15.1027 6.368 15.2947 6.816C15.4974 7.25333 15.7694 7.632 16.1107 7.952C16.4521 8.272 16.8574 8.52267 17.3268 8.704C17.7961 8.88533 18.3027 8.976 18.8468 8.976C19.3908 8.976 19.8921 8.88533 20.3507 8.704C20.8201 8.52267 21.2254 8.272 21.5668 7.952C21.9188 7.632 22.1908 7.25333 22.3828 6.816C22.5748 6.368 22.6708 5.88267 22.6708 5.36ZM16.6228 5.36C16.6228 4.688 16.8307 4.15467 17.2467 3.76C17.6734 3.36533 18.2068 3.168 18.8468 3.168C19.1668 3.168 19.4601 3.22133 19.7267 3.328C19.9934 3.424 20.2281 3.568 20.4307 3.76C20.6334 3.952 20.7881 4.18133 20.8948 4.448C21.0121 4.71467 21.0708 5.01867 21.0708 5.36C21.0708 5.69067 21.0121 5.98933 20.8948 6.256C20.7881 6.52267 20.6334 6.752 20.4307 6.944C20.2281 7.136 19.9934 7.28533 19.7267 7.392C19.4601 7.49867 19.1668 7.552 18.8468 7.552C18.5268 7.552 18.2281 7.49867 17.9507 7.392C17.6841 7.28533 17.4494 7.136 17.2467 6.944C17.0547 6.752 16.9001 6.52267 16.7827 6.256C16.6761 5.98933 16.6228 5.69067 16.6228 5.36ZM27.0548 13.616H18.8628V10.224H17.1988V14.96H27.0548V13.616ZM40.5575 11.36V0.799999H38.9095V11.36H40.5575ZM36.5575 9.088L37.4055 7.776C36.8508 7.584 36.3548 7.328 35.9175 7.008C35.4908 6.67733 35.1282 6.304 34.8295 5.888C34.5308 5.46133 34.3015 5.008 34.1415 4.528C33.9922 4.03733 33.9175 3.536 33.9175 3.024V1.584H32.2375V3.024C32.2375 3.55733 32.1575 4.08 31.9975 4.592C31.8482 5.09333 31.6242 5.56267 31.3255 6C31.0268 6.43733 30.6535 6.832 30.2055 7.184C29.7682 7.536 29.2668 7.81867 28.7015 8.032L29.5495 9.36C30.4135 9.04 31.1388 8.57067 31.7255 7.952C32.3122 7.32267 32.7708 6.60267 33.1015 5.792C33.4108 6.56 33.8535 7.22667 34.4295 7.792C35.0162 8.34667 35.7255 8.77867 36.5575 9.088ZM40.9735 13.616H32.7815V10.368H31.1175V14.96H40.9735V13.616ZM55.6282 7.808H52.5082V5.904C53.0629 5.65867 53.4896 5.36 53.7882 5.008C54.0976 4.64533 54.2522 4.224 54.2522 3.744C54.2522 3.31733 54.1296 2.93867 53.8842 2.608C53.6496 2.26667 53.3082 1.97867 52.8602 1.744C52.4122 1.50933 51.8682 1.33333 51.2282 1.216C50.5989 1.088 49.8896 1.024 49.1002 1.024C48.3109 1.024 47.5962 1.088 46.9562 1.216C46.3269 1.33333 45.7882 1.50933 45.3402 1.744C44.8922 1.97867 44.5456 2.26667 44.3002 2.608C44.0656 2.93867 43.9482 3.31733 43.9482 3.744C43.9482 4.224 44.0976 4.64533 44.3962 5.008C44.6949 5.36 45.1162 5.65333 45.6602 5.888V7.808H42.5562V9.12H55.6282V7.808ZM49.1002 2.304C50.1989 2.304 51.0469 2.42667 51.6442 2.672C52.2416 2.90667 52.5402 3.264 52.5402 3.744C52.5402 4.224 52.2416 4.58667 51.6442 4.832C51.0469 5.07733 50.1989 5.2 49.1002 5.2C48.0016 5.2 47.1482 5.07733 46.5402 4.832C45.9429 4.58667 45.6442 4.224 45.6442 3.744C45.6442 3.264 45.9429 2.90667 46.5402 2.672C47.1482 2.42667 48.0016 2.304 49.1002 2.304ZM47.3082 7.808V6.336C47.5749 6.37867 47.8576 6.41067 48.1562 6.432C48.4656 6.45333 48.7802 6.464 49.1002 6.464C49.4202 6.464 49.7242 6.45333 50.0122 6.432C50.3109 6.41067 50.5936 6.37867 50.8602 6.336V7.808H47.3082ZM49.0682 10.048C47.4682 10.048 46.2362 10.272 45.3722 10.72C44.5189 11.168 44.0922 11.808 44.0922 12.64C44.0922 13.056 44.2042 13.424 44.4282 13.744C44.6629 14.064 44.9936 14.336 45.4202 14.56C45.8469 14.784 46.3642 14.9493 46.9722 15.056C47.5909 15.1733 48.2896 15.232 49.0682 15.232C50.6789 15.232 51.9109 15.008 52.7642 14.56C53.6176 14.112 54.0442 13.472 54.0442 12.64C54.0442 11.808 53.6176 11.168 52.7642 10.72C51.9109 10.272 50.6789 10.048 49.0682 10.048ZM49.0682 13.968C48.0016 13.968 47.1856 13.8613 46.6202 13.648C46.0549 13.424 45.7722 13.088 45.7722 12.64C45.7722 12.192 46.0549 11.8613 46.6202 11.648C47.1856 11.424 48.0016 11.312 49.0682 11.312C50.1349 11.312 50.9509 11.424 51.5162 11.648C52.0922 11.8613 52.3802 12.192 52.3802 12.64C52.3802 13.088 52.0922 13.424 51.5162 13.648C50.9509 13.8613 50.1349 13.968 49.0682 13.968ZM68.811 0.768H67.243V6.48H65.531V1.072H63.979V14.512H65.531V7.824H67.243V15.216H68.811V0.768ZM58.587 10.432V3.84H62.315V2.496H56.971V11.792H57.931C58.443 11.792 58.923 11.7867 59.371 11.776C59.819 11.7653 60.251 11.7493 60.667 11.728C61.0937 11.696 61.5097 11.6533 61.915 11.6C62.331 11.5467 62.7577 11.4773 63.195 11.392L63.051 10.032C62.3043 10.1813 61.579 10.2827 60.875 10.336C60.1817 10.3893 59.419 10.4213 58.587 10.432ZM71.0178 5.312L71.4978 6.544C72.7884 6.45867 73.8978 6.24 74.8258 5.888C75.7644 5.536 76.4631 5.056 76.9218 4.448C77.3804 5.056 78.0791 5.536 79.0178 5.888C79.9671 6.24 81.0871 6.45867 82.3778 6.544L82.8258 5.312C81.3644 5.22667 80.2178 5.00267 79.3858 4.64C78.5538 4.26667 78.0578 3.792 77.8978 3.216H82.1698V1.984H77.7538V0.719999H76.1058V1.984H71.7057V3.216H75.9618C75.8018 3.792 75.3058 4.26667 74.4738 4.64C73.6418 5.00267 72.4898 5.22667 71.0178 5.312ZM77.7538 8.304H83.4658V7.072H70.4258V8.304H76.1058V9.424H71.9457V10.64H80.2178V11.648H71.9778V15.104H82.2498V13.872H73.6098V12.784H81.8338V9.424H77.7538V8.304Z" fill="black"/>
</svg>
