<svg width="58" height="16" viewBox="0 0 58 16" fill="none" xmlns="http://www.w3.org/2000/svg">
<path d="M4.88889 5L6.15083 10.6909C6.17021 10.7784 6.21084 10.8557 6.26676 10.9113C6.32269 10.9669 6.39097 10.9979 6.46159 10.9999C6.53221 11.0019 6.60147 10.9746 6.6592 10.9222C6.71693 10.8697 6.7601 10.7948 6.78239 10.7085L8 5.0021L9.21761 10.7085C9.2399 10.7948 9.28307 10.8697 9.3408 10.9222C9.39853 10.9746 9.46779 11.0019 9.53841 10.9999C9.60903 10.9979 9.67731 10.9669 9.73324 10.9113C9.78916 10.8557 9.82979 10.7784 9.84917 10.6909L11.1111 5M11.5 8.0042H4.5" stroke="#D7191F" stroke-linecap="round" stroke-linejoin="round"/>
<rect x="0.5" y="0.5" width="15" height="15" rx="3.5" stroke="#D7191F"/>
<path d="M33.672 7.86V5.112H35.148V4.296H33.672V2.196H32.76V7.86H33.672ZM32.736 8.412V9.708H26.76V8.412H25.848V12.828H33.648V8.412H32.736ZM26.76 12.036V10.476H32.736V12.036H26.76ZM24.936 2.448V7.392L32.04 7.056V6.276L25.848 6.528V2.448H24.936ZM44.14 2.412V4.02H37.84V2.412H36.928V7.308H45.052V2.412H44.14ZM41.464 12.9V9.396H46.252V8.604H35.74V9.396H40.528V12.9H41.464ZM37.84 6.516V4.812H44.14V6.516H37.84ZM48.2001 8.868V12.828H56.4321V8.868H48.2001ZM47.0721 6.576V7.368H57.5841V6.576H56.0361C56.1441 6.048 56.2401 5.484 56.3121 4.872C56.3961 4.14 56.4681 3.312 56.5041 2.388H48.0921V3.156H55.5681C55.5321 3.78 55.4721 4.404 55.4001 5.016C55.3401 5.532 55.2561 6.048 55.1361 6.576H47.0721ZM55.5201 9.636V12.036H49.1121V9.636H55.5201Z" fill="#242D3C"/>
</svg>
