<svg width="47" height="16" viewBox="0 0 47 16" fill="none" xmlns="http://www.w3.org/2000/svg">
<path d="M5.14282 10.857L10.8571 5.14276" stroke="#D7191F" stroke-linecap="round" stroke-linejoin="round"/>
<path d="M10.1429 11.3334C10.8004 11.3334 11.3333 10.8004 11.3333 10.1429C11.3333 9.48545 10.8004 8.95245 10.1429 8.95245C9.48539 8.95245 8.95239 9.48545 8.95239 10.1429C8.95239 10.8004 9.48539 11.3334 10.1429 11.3334Z" stroke="#D7191F" stroke-linecap="round" stroke-linejoin="round"/>
<path d="M5.85722 7.04764C6.51471 7.04764 7.0477 6.51465 7.0477 5.85716C7.0477 5.19968 6.51471 4.66669 5.85722 4.66669C5.19974 4.66669 4.66675 5.19968 4.66675 5.85716C4.66675 6.51465 5.19974 7.04764 5.85722 7.04764Z" stroke="#D7191F" stroke-linecap="round" stroke-linejoin="round"/>
<rect x="0.5" y="0.5" width="15" height="15" rx="3.5" stroke="#D7191F"/>
<path d="M25.536 8.868V12.828H33.768V8.868H25.536ZM24.408 6.576V7.368H34.92V6.576H33.372C33.48 6.048 33.576 5.484 33.648 4.872C33.732 4.14 33.804 3.312 33.84 2.388H25.428V3.156H32.904C32.868 3.78 32.808 4.404 32.736 5.016C32.676 5.532 32.592 6.048 32.472 6.576H24.408ZM32.856 9.636V12.036H26.448V9.636H32.856ZM45.352 12.9V2.196H44.44V12.9H45.352ZM43.612 10.74V9.96L37.42 10.26V7.116H41.836V2.58H36.508V3.372H40.924V6.324H36.508V11.124L43.612 10.74Z" fill="#242D3C"/>
</svg>
