<svg width="62" height="70" viewBox="0 0 62 70" fill="none" xmlns="http://www.w3.org/2000/svg">
<path d="M18.6436 7.056L20.3236 5.642C20.3143 5.76333 20.3096 5.88 20.3096 5.992V12.656H18.1536V14H23.7956V12.656H21.8496V3.626H20.5896L17.7896 6.02L18.6436 7.056ZM32.4295 14V12.628H28.8455C28.6215 12.628 28.3928 12.6467 28.1595 12.684C27.9355 12.7213 27.7162 12.768 27.5015 12.824L30.1335 10.164C30.3948 9.90267 30.6515 9.63667 30.9035 9.366C31.1555 9.09533 31.3795 8.81067 31.5755 8.512C31.7808 8.204 31.9442 7.882 32.0655 7.546C32.1868 7.21 32.2475 6.846 32.2475 6.454C32.2475 5.98733 32.1635 5.572 31.9955 5.208C31.8275 4.844 31.5988 4.54067 31.3095 4.298C31.0295 4.046 30.6982 3.85933 30.3155 3.738C29.9328 3.60733 29.5222 3.542 29.0835 3.542C28.1222 3.542 27.3335 3.80333 26.7175 4.326C26.1108 4.83933 25.7422 5.56267 25.6115 6.496L27.1515 6.776C27.1328 6.496 27.1655 6.23933 27.2495 6.006C27.3335 5.77267 27.4595 5.572 27.6275 5.404C27.7955 5.236 27.9962 5.10533 28.2295 5.012C28.4628 4.90933 28.7195 4.858 28.9995 4.858C29.4942 4.858 29.8675 4.97 30.1195 5.194C30.3808 5.40867 30.5442 5.67933 30.6095 6.006C30.6842 6.32333 30.6795 6.66867 30.5955 7.042C30.5115 7.41533 30.3808 7.76067 30.2035 8.078C30.0168 8.36733 29.8162 8.63333 29.6015 8.876C29.3868 9.11867 29.1582 9.36133 28.9155 9.604L25.4295 13.104V14H32.4295ZM47.7082 2.436H46.3362V7.378H44.8942V2.772H43.5362V14.49H44.8942V8.554H46.3362V15.078H47.7082V2.436ZM42.3882 4.032H37.4182V5.208H40.9602C40.9135 5.83333 40.8015 6.43533 40.6242 7.014C40.4562 7.58333 40.2089 8.12933 39.8822 8.652C39.5649 9.17467 39.1589 9.66933 38.6642 10.136C38.1695 10.5933 37.5769 11.018 36.8862 11.41L37.7262 12.432C38.6129 11.9187 39.3549 11.3493 39.9522 10.724C40.5495 10.0987 41.0255 9.43133 41.3802 8.722C41.7442 8.01267 42.0009 7.266 42.1502 6.482C42.3089 5.68867 42.3882 4.872 42.3882 4.032ZM58.8651 8.372H56.4851V9.268H58.8651V9.814H60.3071V2.436H58.8651V8.372ZM53.8671 6.44C54.3338 6.44 54.7584 6.398 55.1411 6.314C55.5331 6.22067 55.8644 6.09467 56.1351 5.936C56.4151 5.768 56.6298 5.56733 56.7791 5.334C56.9284 5.10067 57.0031 4.83933 57.0031 4.55C57.0031 4.26067 56.9284 3.99933 56.7791 3.766C56.6298 3.53267 56.4151 3.33667 56.1351 3.178C55.8644 3.01 55.5331 2.884 55.1411 2.8C54.7584 2.70667 54.3338 2.66 53.8671 2.66C53.3911 2.66 52.9571 2.70667 52.5651 2.8C52.1824 2.884 51.8511 3.01 51.5711 3.178C51.3004 3.33667 51.0904 3.53267 50.9411 3.766C50.7918 3.99933 50.7171 4.26067 50.7171 4.55C50.7171 4.83933 50.7918 5.10067 50.9411 5.334C51.0904 5.56733 51.3004 5.768 51.5711 5.936C51.8511 6.09467 52.1824 6.22067 52.5651 6.314C52.9571 6.398 53.3911 6.44 53.8671 6.44ZM53.8671 3.626C54.4084 3.626 54.8378 3.70533 55.1551 3.864C55.4818 4.02267 55.6451 4.25133 55.6451 4.55C55.6451 4.84867 55.4818 5.07733 55.1551 5.236C54.8378 5.39467 54.4084 5.474 53.8671 5.474C53.3071 5.474 52.8684 5.39467 52.5511 5.236C52.2338 5.07733 52.0751 4.84867 52.0751 4.55C52.0751 4.25133 52.2338 4.02267 52.5511 3.864C52.8684 3.70533 53.3071 3.626 53.8671 3.626ZM53.0691 8.05V9.856H54.5251V7.994C55.1131 7.966 55.7011 7.92867 56.2891 7.882C56.8864 7.826 57.4791 7.756 58.0671 7.672L57.9691 6.762C57.2971 6.82733 56.6064 6.87867 55.8971 6.916C55.1971 6.95333 54.4971 6.986 53.7971 7.014C53.0971 7.03267 52.4064 7.04667 51.7251 7.056C51.0531 7.056 50.4138 7.056 49.8071 7.056L49.9751 8.092C50.4511 8.092 50.9458 8.092 51.4591 8.092C51.9724 8.08267 52.5091 8.06867 53.0691 8.05ZM60.6711 13.944H53.1251V13.02H60.3071V10.262H51.6691V11.256H58.8791V12.096H51.6971V14.966H60.6711V13.944Z" fill="black"/>
<path d="M11.9299 28.436H10.5579V33.364H9.11588V28.674H7.75788V40.476H9.11588V34.54H10.5579V41.064H11.9299V28.436ZM1.55588 29.822V37.788H6.42788V29.822H1.55588ZM2.89988 36.64V30.97H5.08388V36.64H2.89988ZM23.0448 34.372H20.6648V35.268H23.0448V35.814H24.4868V28.436H23.0448V34.372ZM18.0468 32.44C18.5134 32.44 18.9381 32.398 19.3208 32.314C19.7128 32.2207 20.0441 32.0947 20.3148 31.936C20.5948 31.768 20.8094 31.5673 20.9588 31.334C21.1081 31.1007 21.1828 30.8393 21.1828 30.55C21.1828 30.2607 21.1081 29.9993 20.9588 29.766C20.8094 29.5327 20.5948 29.3367 20.3148 29.178C20.0441 29.01 19.7128 28.884 19.3208 28.8C18.9381 28.7067 18.5134 28.66 18.0468 28.66C17.5708 28.66 17.1368 28.7067 16.7448 28.8C16.3621 28.884 16.0308 29.01 15.7508 29.178C15.4801 29.3367 15.2701 29.5327 15.1208 29.766C14.9714 29.9993 14.8968 30.2607 14.8968 30.55C14.8968 30.8393 14.9714 31.1007 15.1208 31.334C15.2701 31.5673 15.4801 31.768 15.7508 31.936C16.0308 32.0947 16.3621 32.2207 16.7448 32.314C17.1368 32.398 17.5708 32.44 18.0468 32.44ZM18.0468 29.626C18.5881 29.626 19.0174 29.7053 19.3348 29.864C19.6614 30.0227 19.8248 30.2513 19.8248 30.55C19.8248 30.8487 19.6614 31.0773 19.3348 31.236C19.0174 31.3947 18.5881 31.474 18.0468 31.474C17.4868 31.474 17.0481 31.3947 16.7308 31.236C16.4134 31.0773 16.2548 30.8487 16.2548 30.55C16.2548 30.2513 16.4134 30.0227 16.7308 29.864C17.0481 29.7053 17.4868 29.626 18.0468 29.626ZM17.2488 34.05V35.856H18.7048V33.994C19.2928 33.966 19.8808 33.9287 20.4688 33.882C21.0661 33.826 21.6588 33.756 22.2468 33.672L22.1488 32.762C21.4768 32.8273 20.7861 32.8787 20.0768 32.916C19.3768 32.9533 18.6768 32.986 17.9768 33.014C17.2768 33.0327 16.5861 33.0467 15.9048 33.056C15.2328 33.056 14.5934 33.056 13.9868 33.056L14.1548 34.092C14.6308 34.092 15.1254 34.092 15.6388 34.092C16.1521 34.0827 16.6888 34.0687 17.2488 34.05ZM24.8508 39.944H17.3048V39.02H24.4868V36.262H15.8488V37.256H23.0588V38.096H15.8768V40.966H24.8508V39.944ZM36.9685 40V38.628H33.3845C33.1605 38.628 32.9319 38.6467 32.6985 38.684C32.4745 38.7213 32.2552 38.768 32.0405 38.824L34.6725 36.164C34.9339 35.9027 35.1905 35.6367 35.4425 35.366C35.6945 35.0953 35.9185 34.8107 36.1145 34.512C36.3199 34.204 36.4832 33.882 36.6045 33.546C36.7259 33.21 36.7865 32.846 36.7865 32.454C36.7865 31.9873 36.7025 31.572 36.5345 31.208C36.3665 30.844 36.1379 30.5407 35.8485 30.298C35.5685 30.046 35.2372 29.8593 34.8545 29.738C34.4719 29.6073 34.0612 29.542 33.6225 29.542C32.6612 29.542 31.8725 29.8033 31.2565 30.326C30.6499 30.8393 30.2812 31.5627 30.1505 32.496L31.6905 32.776C31.6719 32.496 31.7045 32.2393 31.7885 32.006C31.8725 31.7727 31.9985 31.572 32.1665 31.404C32.3345 31.236 32.5352 31.1053 32.7685 31.012C33.0019 30.9093 33.2585 30.858 33.5385 30.858C34.0332 30.858 34.4065 30.97 34.6585 31.194C34.9199 31.4087 35.0832 31.6793 35.1485 32.006C35.2232 32.3233 35.2185 32.6687 35.1345 33.042C35.0505 33.4153 34.9199 33.7607 34.7425 34.078C34.5559 34.3673 34.3552 34.6333 34.1405 34.876C33.9259 35.1187 33.6972 35.3613 33.4545 35.604L29.9685 39.104V40H36.9685ZM39.2464 37.83L38.4484 38.95C38.6164 39.1087 38.8077 39.2533 39.0224 39.384C39.3491 39.6267 39.7271 39.8087 40.1564 39.93C40.5857 40.0513 41.0011 40.112 41.4024 40.112C41.9531 40.112 42.4617 40.0233 42.9284 39.846C43.3951 39.6687 43.7964 39.4213 44.1324 39.104C44.4684 38.7867 44.7297 38.404 44.9164 37.956C45.1031 37.4987 45.1964 36.9993 45.1964 36.458C45.1964 35.9447 45.1124 35.4967 44.9444 35.114C44.7764 34.722 44.5431 34.3953 44.2444 34.134C43.9457 33.8633 43.5957 33.6627 43.1944 33.532C42.7931 33.392 42.3544 33.322 41.8784 33.322C41.4304 33.322 40.9731 33.3733 40.5064 33.476L40.9264 31.068H44.8604V29.654H39.8484L39.0084 34.596L39.9604 34.862C40.2217 34.7873 40.4831 34.7267 40.7444 34.68C41.0151 34.624 41.2857 34.596 41.5564 34.596C42.2004 34.596 42.7091 34.7593 43.0824 35.086C43.4651 35.4127 43.6564 35.898 43.6564 36.542C43.6564 36.8593 43.6051 37.158 43.5024 37.438C43.4091 37.7087 43.2691 37.9467 43.0824 38.152C42.9051 38.348 42.6811 38.5067 42.4104 38.628C42.1397 38.74 41.8364 38.796 41.5004 38.796C41.0804 38.796 40.6744 38.7073 40.2824 38.53C39.8904 38.3433 39.5451 38.11 39.2464 37.83ZM60.2511 34.848V28.422H58.8091V34.848H60.2511ZM56.7091 31.698C56.7091 31.278 56.6251 30.8953 56.4571 30.55C56.2891 30.1953 56.0558 29.892 55.7571 29.64C55.4678 29.388 55.1178 29.192 54.7071 29.052C54.2964 28.912 53.8531 28.842 53.3771 28.842C52.9011 28.842 52.4624 28.912 52.0611 29.052C51.6598 29.192 51.3098 29.388 51.0111 29.64C50.7218 29.892 50.4931 30.1953 50.3251 30.55C50.1571 30.8953 50.0731 31.278 50.0731 31.698C50.0731 32.118 50.1571 32.5007 50.3251 32.846C50.4931 33.1913 50.7218 33.49 51.0111 33.742C51.3098 33.994 51.6598 34.19 52.0611 34.33C52.4624 34.47 52.9011 34.54 53.3771 34.54C53.8531 34.54 54.2964 34.47 54.7071 34.33C55.1178 34.19 55.4678 33.994 55.7571 33.742C56.0558 33.49 56.2891 33.1913 56.4571 32.846C56.6251 32.5007 56.7091 32.118 56.7091 31.698ZM51.4731 31.698C51.4731 31.446 51.5198 31.2173 51.6131 31.012C51.7158 30.8067 51.8511 30.634 52.0191 30.494C52.1871 30.3447 52.3878 30.2327 52.6211 30.158C52.8544 30.074 53.1064 30.032 53.3771 30.032C53.6571 30.032 53.9138 30.074 54.1471 30.158C54.3804 30.2327 54.5811 30.3447 54.7491 30.494C54.9264 30.634 55.0618 30.8067 55.1551 31.012C55.2578 31.2173 55.3091 31.446 55.3091 31.698C55.3091 31.95 55.2578 32.1787 55.1551 32.384C55.0618 32.5893 54.9264 32.7667 54.7491 32.916C54.5811 33.056 54.3804 33.168 54.1471 33.252C53.9138 33.3267 53.6571 33.364 53.3771 33.364C53.1064 33.364 52.8544 33.3267 52.6211 33.252C52.3878 33.168 52.1871 33.056 52.0191 32.916C51.8511 32.7667 51.7158 32.5893 51.6131 32.384C51.5198 32.1787 51.4731 31.95 51.4731 31.698ZM60.6291 39.79H53.4051V38.67H60.2511V35.422H51.9631V36.556H58.8231V37.606H51.9911V40.924H60.6291V39.79Z" fill="black"/>
<path d="M19.4189 60.54H22.4569V63.746H23.8989V54.45H22.4569V56.312H19.4189C19.1202 55.976 18.7562 55.71 18.3269 55.514C17.9069 55.318 17.4309 55.22 16.8989 55.22C16.4322 55.22 15.9936 55.2993 15.5829 55.458C15.1816 55.6167 14.8316 55.8407 14.5329 56.13C14.2436 56.41 14.0149 56.746 13.8469 57.138C13.6789 57.53 13.5949 57.9593 13.5949 58.426C13.5949 58.8927 13.6789 59.322 13.8469 59.714C14.0149 60.106 14.2436 60.4467 14.5329 60.736C14.8316 61.016 15.1816 61.2353 15.5829 61.394C15.9936 61.5527 16.4322 61.632 16.8989 61.632C17.4309 61.6413 17.9069 61.548 18.3269 61.352C18.7562 61.156 19.1202 60.8853 19.4189 60.54ZM14.9669 58.426C14.9669 58.1367 15.0136 57.8753 15.1069 57.642C15.2096 57.3993 15.3449 57.194 15.5129 57.026C15.6902 56.858 15.8956 56.7273 16.1289 56.634C16.3622 56.5407 16.6189 56.494 16.8989 56.494C17.1696 56.494 17.4216 56.5407 17.6549 56.634C17.8882 56.7273 18.0889 56.858 18.2569 57.026C18.4249 57.194 18.5556 57.3993 18.6489 57.642C18.7516 57.8753 18.8029 58.1367 18.8029 58.426C18.8029 58.7153 18.7516 58.9813 18.6489 59.224C18.5556 59.4667 18.4249 59.6767 18.2569 59.854C18.0889 60.022 17.8882 60.1527 17.6549 60.246C17.4216 60.3393 17.1696 60.386 16.8989 60.386C16.6189 60.386 16.3622 60.3393 16.1289 60.246C15.8956 60.1527 15.6902 60.022 15.5129 59.854C15.3449 59.6767 15.2096 59.4667 15.1069 59.224C15.0136 58.9813 14.9669 58.7153 14.9669 58.426ZM20.0349 57.488H22.4569V59.364H20.0349C20.1282 59.14 20.1749 58.8273 20.1749 58.426C20.1749 58.0247 20.1282 57.712 20.0349 57.488ZM24.2209 65.664H17.1509V62.808H15.7089V66.84H24.2209V65.664ZM35.3727 55.654H33.4547L30.6267 59.434C30.3 59.8727 30.0107 60.358 29.7587 60.89C29.516 61.4127 29.3947 61.954 29.3947 62.514C29.3947 63.0647 29.474 63.564 29.6327 64.012C29.8007 64.4507 30.034 64.8287 30.3327 65.146C30.6407 65.454 31.0093 65.692 31.4387 65.86C31.8773 66.028 32.3627 66.112 32.8947 66.112C33.3987 66.112 33.87 66.028 34.3087 65.86C34.7473 65.692 35.13 65.4587 35.4567 65.16C35.7833 64.852 36.04 64.488 36.2267 64.068C36.4133 63.648 36.5067 63.186 36.5067 62.682C36.5067 62.234 36.432 61.8233 36.2827 61.45C36.1427 61.0673 35.9373 60.7407 35.6667 60.47C35.4053 60.19 35.0833 59.9753 34.7007 59.826C34.3273 59.6673 33.9073 59.588 33.4407 59.588C32.8807 59.588 32.358 59.7233 31.8727 59.994L35.3727 55.654ZM32.8667 64.838C32.2227 64.838 31.728 64.6467 31.3827 64.264C31.0467 63.872 30.8787 63.3727 30.8787 62.766C30.8787 62.4767 30.93 62.2107 31.0327 61.968C31.1353 61.7253 31.2753 61.5153 31.4527 61.338C31.6393 61.1607 31.8587 61.0207 32.1107 60.918C32.3627 60.8153 32.6333 60.764 32.9227 60.764C33.5387 60.764 34.0333 60.9507 34.4067 61.324C34.78 61.688 34.9667 62.178 34.9667 62.794C34.9667 63.102 34.9107 63.382 34.7987 63.634C34.6867 63.8767 34.5373 64.0913 34.3507 64.278C34.164 64.4553 33.94 64.5953 33.6787 64.698C33.4267 64.7913 33.156 64.838 32.8667 64.838ZM39.3305 66.182V64.446H37.6785V66.182H39.3305ZM42.3636 63.83L41.5656 64.95C41.7336 65.1087 41.9249 65.2533 42.1396 65.384C42.4662 65.6267 42.8442 65.8087 43.2736 65.93C43.7029 66.0513 44.1182 66.112 44.5196 66.112C45.0702 66.112 45.5789 66.0233 46.0456 65.846C46.5122 65.6687 46.9136 65.4213 47.2496 65.104C47.5856 64.7867 47.8469 64.404 48.0336 63.956C48.2202 63.4987 48.3136 62.9993 48.3136 62.458C48.3136 61.9447 48.2296 61.4967 48.0616 61.114C47.8936 60.722 47.6602 60.3953 47.3616 60.134C47.0629 59.8633 46.7129 59.6627 46.3116 59.532C45.9102 59.392 45.4716 59.322 44.9956 59.322C44.5476 59.322 44.0902 59.3733 43.6236 59.476L44.0436 57.068H47.9776V55.654H42.9656L42.1256 60.596L43.0776 60.862C43.3389 60.7873 43.6002 60.7267 43.8616 60.68C44.1322 60.624 44.4029 60.596 44.6736 60.596C45.3176 60.596 45.8262 60.7593 46.1996 61.086C46.5822 61.4127 46.7736 61.898 46.7736 62.542C46.7736 62.8593 46.7222 63.158 46.6196 63.438C46.5262 63.7087 46.3862 63.9467 46.1996 64.152C46.0222 64.348 45.7982 64.5067 45.5276 64.628C45.2569 64.74 44.9536 64.796 44.6176 64.796C44.1976 64.796 43.7916 64.7073 43.3996 64.53C43.0076 64.3433 42.6622 64.11 42.3636 63.83ZM57.9694 55.528L51.7394 66.168H53.1394L59.3554 55.528H57.9694ZM52.0054 55.528C51.5574 55.528 51.1794 55.6167 50.8714 55.794C50.5728 55.9713 50.3301 56.2047 50.1434 56.494C49.9661 56.7833 49.8354 57.1147 49.7514 57.488C49.6768 57.852 49.6394 58.23 49.6394 58.622C49.6394 59.0047 49.6768 59.3827 49.7514 59.756C49.8354 60.1293 49.9661 60.4653 50.1434 60.764C50.3301 61.0533 50.5728 61.2913 50.8714 61.478C51.1794 61.6553 51.5574 61.744 52.0054 61.744C52.4534 61.744 52.8268 61.6553 53.1254 61.478C53.4334 61.2913 53.6761 61.0533 53.8534 60.764C54.0401 60.4653 54.1708 60.1293 54.2454 59.756C54.3201 59.3827 54.3574 59.0047 54.3574 58.622C54.3574 58.23 54.3201 57.852 54.2454 57.488C54.1708 57.1147 54.0401 56.7833 53.8534 56.494C53.6761 56.2047 53.4334 55.9713 53.1254 55.794C52.8268 55.6167 52.4534 55.528 52.0054 55.528ZM52.0054 60.652C51.7534 60.652 51.5528 60.582 51.4034 60.442C51.2541 60.302 51.1374 60.1293 51.0534 59.924C50.9788 59.7187 50.9274 59.4993 50.8994 59.266C50.8808 59.0327 50.8714 58.8227 50.8714 58.636C50.8714 58.4493 50.8808 58.2393 50.8994 58.006C50.9274 57.7727 50.9788 57.5533 51.0534 57.348C51.1281 57.1427 51.2401 56.97 51.3894 56.83C51.5481 56.69 51.7534 56.62 52.0054 56.62C52.2574 56.62 52.4581 56.69 52.6074 56.83C52.7568 56.97 52.8688 57.1427 52.9434 57.348C53.0181 57.5533 53.0648 57.7727 53.0834 58.006C53.1114 58.2393 53.1254 58.4493 53.1254 58.636C53.1254 58.8227 53.1114 59.0327 53.0834 59.266C53.0648 59.4993 53.0181 59.7187 52.9434 59.924C52.8688 60.1293 52.7568 60.302 52.6074 60.442C52.4581 60.582 52.2574 60.652 52.0054 60.652ZM59.0894 59.924C58.6414 59.924 58.2681 60.0127 57.9694 60.19C57.6708 60.3673 57.4281 60.6007 57.2414 60.89C57.0548 61.1793 56.9194 61.5107 56.8354 61.884C56.7608 62.2573 56.7234 62.6353 56.7234 63.018C56.7234 63.41 56.7608 63.7927 56.8354 64.166C56.9194 64.5393 57.0501 64.8753 57.2274 65.174C57.4141 65.4633 57.6568 65.6967 57.9554 65.874C58.2634 66.0513 58.6414 66.14 59.0894 66.14C59.5468 66.14 59.9248 66.0513 60.2234 65.874C60.5221 65.6967 60.7601 65.4633 60.9374 65.174C61.1241 64.8753 61.2548 64.5393 61.3294 64.166C61.4041 63.7927 61.4414 63.41 61.4414 63.018C61.4414 62.6353 61.4041 62.2573 61.3294 61.884C61.2548 61.5107 61.1241 61.1793 60.9374 60.89C60.7601 60.6007 60.5174 60.3673 60.2094 60.19C59.9108 60.0127 59.5374 59.924 59.0894 59.924ZM59.0894 65.048C58.8374 65.048 58.6368 64.978 58.4874 64.838C58.3381 64.698 58.2214 64.5253 58.1374 64.32C58.0628 64.1147 58.0114 63.8953 57.9834 63.662C57.9648 63.4287 57.9554 63.2187 57.9554 63.032C57.9554 62.8453 57.9648 62.6353 57.9834 62.402C58.0114 62.1687 58.0628 61.9493 58.1374 61.744C58.2121 61.5387 58.3241 61.366 58.4734 61.226C58.6321 61.086 58.8374 61.016 59.0894 61.016C59.3414 61.016 59.5421 61.086 59.6914 61.226C59.8408 61.366 59.9528 61.5387 60.0274 61.744C60.1021 61.9493 60.1488 62.1687 60.1674 62.402C60.1954 62.6353 60.2094 62.8453 60.2094 63.032C60.2094 63.2187 60.1954 63.4287 60.1674 63.662C60.1488 63.8953 60.1021 64.1147 60.0274 64.32C59.9528 64.5253 59.8408 64.698 59.6914 64.838C59.5421 64.978 59.3414 65.048 59.0894 65.048Z" fill="black"/>
</svg>
