<svg width="113" height="18" viewBox="0 0 113 18" fill="none" xmlns="http://www.w3.org/2000/svg">
<path d="M1.936 12.448C2.584 11.956 3.16 11.404 3.676 10.78C4.12 10.24 4.516 9.664 4.84 9.04L4.912 9.172C5.68 10.384 6.748 11.5 7.828 12.196L8.8 11.02C7.3 10.168 6.196 8.98 5.512 7.456C5.62 7.108 5.716 6.76 5.8 6.388C5.908 5.932 5.98 5.464 6.028 4.972H8.452V3.604H1.576V4.972H4.384C4.348 5.344 4.288 5.716 4.216 6.076C3.784 8.296 2.692 10.132 0.856 11.332L1.936 12.448ZM10.78 13.924V8.392H12.304V7H10.78V3.172H9.172V13.924H10.78ZM22.244 5.8H15.476V4.66H22.124V3.34H13.868V7.132H17.24V7.876H12.716V9.196H23.276V7.876H18.872V7.132H22.244V5.8ZM18.044 9.556C15.944 9.556 14.456 10.528 14.456 12.016C14.456 13.504 15.944 14.476 18.044 14.476C20.144 14.476 21.632 13.504 21.632 12.016C21.632 10.528 20.144 9.556 18.044 9.556ZM18.044 13.18C16.748 13.18 16.064 12.724 16.064 12.016C16.064 11.308 16.748 10.852 18.044 10.852C19.34 10.852 20.024 11.308 20.024 12.016C20.024 12.724 19.34 13.18 18.044 13.18ZM24.6721 12.568C25.8121 11.86 26.8441 10.936 27.5761 9.772L27.6001 9.736C27.8521 10.108 28.1281 10.468 28.4401 10.792C29.0641 11.452 29.7961 11.98 30.5161 12.316L31.4641 11.116C30.6121 10.744 29.9041 10.276 29.3161 9.7C28.9201 9.304 28.5721 8.836 28.2961 8.296C28.3561 8.14 28.4041 7.996 28.4401 7.84C28.5481 7.48 28.6321 7.108 28.6801 6.712H31.0321V5.344H24.4081V6.712H27.0361C27.0001 6.964 26.9401 7.216 26.8801 7.444C26.4001 9.208 25.2721 10.492 23.6161 11.428L24.6721 12.568ZM33.4441 13.924V8.632H34.9681V7.24H33.4441V3.172H31.8361V13.924H33.4441ZM29.6761 4.516V3.148H25.8241V4.516H29.6761ZM41.3561 13.924V9.628H45.9401V8.26H44.3801C44.4881 7.744 44.5961 7.168 44.6801 6.508C44.8121 5.584 44.8841 4.576 44.9081 3.484H36.3521V4.828H43.2521C43.2041 5.62 43.0961 6.712 42.8801 7.792C42.8561 7.948 42.8201 8.104 42.7841 8.26H35.3801V9.628H39.7241V13.924H41.3561ZM52.0401 11.908V3.676H47.3121V11.908H52.0401ZM52.8321 13.648H54.3921V8.344H55.2681V13.912H56.8521V3.172H55.2681V6.952H54.3921V3.292H52.8321V13.648ZM48.8961 5.044H50.4561V10.54H48.8961V5.044ZM58.5962 12.448C59.2442 11.956 59.8202 11.404 60.3362 10.78C60.7802 10.24 61.1762 9.664 61.5002 9.04L61.5722 9.172C62.3402 10.384 63.4082 11.5 64.4882 12.196L65.4602 11.02C63.9602 10.168 62.8562 8.98 62.1722 7.456C62.2802 7.108 62.3762 6.76 62.4602 6.388C62.5682 5.932 62.6402 5.464 62.6882 4.972H65.1122V3.604H58.2362V4.972H61.0442C61.0082 5.344 60.9482 5.716 60.8762 6.076C60.4442 8.296 59.3522 10.132 57.5162 11.332L58.5962 12.448ZM67.4402 13.924V8.392H68.9642V7H67.4402V3.172H65.8322V13.924H67.4402ZM78.8322 13.852V9.628H70.4562V13.852H78.8322ZM79.9362 8.644V7.3H78.4842C78.5802 6.856 78.6762 6.34 78.7602 5.752C78.8682 5.032 78.9282 4.228 78.9522 3.34H70.3482V4.684H77.2962C77.2722 5.26 77.1762 6.04 77.0082 6.832L76.9002 7.3H69.3762V8.644H79.9362ZM72.0642 10.948H77.2242V12.508H72.0642V10.948ZM86.7682 13.648H88.3282V8.344H89.2642V13.912H90.8482V3.172H89.2642V6.952H88.3282V3.292H86.7682V13.648ZM81.3562 3.676V12.028L86.2882 11.74V10.396L82.9402 10.54V5.044H85.8442V3.676H81.3562ZM102.6 9.1V7.948H92.0403V9.1H96.5043V9.652H93.1203V10.804H99.8883V11.212H93.1203V13.852H101.748V12.688H94.7283V12.268H101.496V9.652H98.1363V9.1H102.6ZM93.0483 7.684C94.2483 7.636 95.5803 7.432 96.6603 6.976C96.8763 6.88 97.0803 6.772 97.2723 6.664C97.4763 6.796 97.6923 6.916 97.9323 7.024C98.9643 7.468 100.284 7.648 101.532 7.6L102.228 6.424C100.788 6.4 99.5523 6.328 98.6163 5.944L98.2443 5.764C98.2563 5.728 98.2803 5.704 98.3043 5.668H101.532V4.468H93.0603V5.668H96.3363C96.1203 5.824 95.8563 5.944 95.5443 6.04C94.7402 6.292 93.6483 6.412 92.4003 6.472L93.0483 7.684ZM99.6483 2.932H94.9443V4.132H99.6483V2.932Z" fill="#242D3C"/>
<path d="M109 12L112 8.85714L109.273 6" stroke="#242D3C" stroke-width="1.5" stroke-linecap="round" stroke-linejoin="round"/>
</svg>
