<svg width="74" height="14" viewBox="0 0 74 14" fill="none" xmlns="http://www.w3.org/2000/svg">
<path d="M10.018 13.064V0.478H8.87V13.064H10.018ZM3.396 1.444C1.534 1.444 0.204 3.152 0.204 5.826C0.204 8.5 1.534 10.208 3.396 10.208C5.258 10.208 6.588 8.5 6.588 5.826C6.588 3.152 5.258 1.444 3.396 1.444ZM3.396 2.48C4.614 2.48 5.482 3.796 5.482 5.826C5.482 7.87 4.614 9.186 3.396 9.186C2.164 9.186 1.296 7.87 1.296 5.826C1.296 3.796 2.164 2.48 3.396 2.48ZM12.5509 7.632H18.2069V4.958H21.1049V9.774H22.2669V0.478H21.1049V4.02H18.2069V1.318H17.0729V3.53H13.6849V1.318H12.5509V7.632ZM13.6849 4.44H17.0729V6.708H13.6849V4.44ZM22.5609 12.756V11.818H15.3369V8.864H14.1889V12.756H22.5609ZM35.7058 4.062V3.124H33.8438V0.478H32.6958V6.792H33.8438V4.062H35.7058ZM31.5058 5.882L31.3658 4.972C29.6858 5.308 28.2298 5.406 25.7938 5.406V2.13H30.2038V1.206H24.6598V6.33H25.6258C28.2158 6.33 29.7418 6.26 31.5058 5.882ZM34.3058 11.944H27.0258V10.53H33.8438V7.436H25.8638V8.346H32.7098V9.662H25.9058V12.868H34.3058V11.944ZM48.4676 4.244H50.3296V3.292H48.4676V0.492H47.3056V7.016H48.4676V4.244ZM46.1716 5.868L46.0316 4.93C44.0016 5.322 42.2656 5.448 40.4596 5.462V1.066H39.3256V6.428H40.3056C42.2096 6.428 44.0296 6.302 46.1716 5.868ZM48.4536 7.688H47.3196V9.354H41.6636V7.688H40.5296V12.868H48.4536V7.688ZM41.6636 10.278H47.3196V11.944H41.6636V10.278ZM52.3165 6.414H60.8285V0.981999H59.6805V2.704H53.4505V0.981999H52.3165V6.414ZM53.4505 3.628H59.6805V5.476H53.4505V3.628ZM57.1185 8.85H62.2705V7.926H50.8745V8.85H55.9705V13.05H57.1185V8.85ZM73.6654 7.954V0.478H72.5594V3.712H70.9634V0.715999H69.8854V7.884H70.9634V4.65H72.5594V7.954H73.6654ZM68.9054 4.23C68.9054 2.48 67.6874 1.262 66.0494 1.262C64.4114 1.262 63.1934 2.48 63.1934 4.23C63.1934 5.98 64.4114 7.184 66.0494 7.184C67.6874 7.184 68.9054 5.98 68.9054 4.23ZM64.2294 4.23C64.2294 3.054 64.9994 2.228 66.0494 2.228C67.0994 2.228 67.8554 3.054 67.8554 4.23C67.8554 5.406 67.0994 6.232 66.0494 6.232C64.9994 6.232 64.2294 5.406 64.2294 4.23ZM73.6654 8.668H65.2234V9.592H72.5174V13.05H73.6654V8.668Z" fill="black"/>
</svg>
