<svg width="145" height="38" viewBox="0 0 145 38" fill="none" xmlns="http://www.w3.org/2000/svg">
<path d="M1.804 6.303H8.294V2.574H1.804V6.303ZM2.376 3.058H7.722V5.819H2.376V3.058ZM5.313 8.294H9.482V7.799H0.605V8.294H4.73V11.759H5.313V8.294ZM18.1491 11.781V2.002H17.5661V5.478H15.0471V5.962H17.5661V11.781H18.1491ZM13.4521 4.851V2.904H12.8691V4.851C12.8691 6.633 11.5381 8.481 10.2511 9.185L10.6251 9.647C11.7141 9.031 12.7481 7.689 13.1661 6.149C13.5731 7.612 14.6621 8.888 15.7511 9.471L16.0921 8.998C14.8051 8.349 13.4521 6.578 13.4521 4.851ZM20.8323 2.915H26.9373V4.257H20.8653V6.688H27.7183V6.204H21.4483V4.719H27.5093V2.42H20.8323V2.915ZM26.1453 8.371H28.6203V7.876H19.7433V8.371H22.2073V11.77H22.7903V8.371H25.5623V11.77H26.1453V8.371ZM30.0274 9.603H29.3894L28.9274 11.77H29.3894L30.0274 9.603ZM33.8479 6.303H40.3379V2.574H33.8479V6.303ZM34.4199 3.058H39.7659V5.819H34.4199V3.058ZM37.3569 8.294H41.5259V7.799H32.6489V8.294H36.7739V11.759H37.3569V8.294ZM51.2931 5.071V4.565H49.7641V2.002H49.1811V7.931H49.7641V5.071H51.2931ZM42.7131 7.051H47.1351V2.607H46.5631V4.224H43.2961V2.607H42.7131V7.051ZM43.2961 4.708H46.5631V6.556H43.2961V4.708ZM46.6841 8.217C44.7041 8.217 43.5381 8.833 43.5381 9.977C43.5381 11.121 44.7041 11.748 46.6841 11.748C48.6641 11.748 49.8411 11.121 49.8411 9.977C49.8411 8.833 48.6641 8.217 46.6841 8.217ZM46.6841 11.264C45.1221 11.264 44.1101 10.78 44.1101 9.977C44.1101 9.185 45.1221 8.701 46.6841 8.701C48.2571 8.701 49.2691 9.185 49.2691 9.977C49.2691 10.78 48.2571 11.264 46.6841 11.264ZM52.9642 5.786H59.4872V2.486H52.9642V5.786ZM53.5362 2.97H58.9262V5.302H53.5362V2.97ZM60.6642 7.579V7.084H51.7872V7.579H55.9672V9.757H56.5502V7.579H60.6642ZM59.6742 11.033H53.5582V8.745H52.9752V11.528H59.6742V11.033ZM62.0714 9.603H61.4334L60.9714 11.77H61.4334L62.0714 9.603ZM73.7679 5.61V5.104H72.2279V2.002H71.6449V9.24H72.2279V5.61H73.7679ZM69.6209 2.772H65.1549V3.267H68.9939C68.8509 5.214 67.1569 6.732 64.7809 7.524L65.0339 8.008C67.7619 7.095 69.6209 5.225 69.6209 2.772ZM72.7229 11.033H66.8599V8.492H66.2769V11.528H72.7229V11.033ZM83.337 5.533V5.027H81.808V1.98H81.225V9.075H81.808V5.533H83.337ZM80.092 6.919L80.026 6.424C78.629 6.688 77.452 6.765 75.505 6.765H75.362V3.366H79.069V2.871H74.779V7.271H75.505C77.474 7.271 78.684 7.183 80.092 6.919ZM82.292 11.033H76.429V8.393H75.846V11.528H82.292V11.033ZM84.3262 7.271L84.5902 7.733C85.8882 7.436 87.6812 6.413 88.2752 4.961C88.8912 6.402 90.6732 7.414 91.9932 7.711L92.2462 7.238C90.8492 7.018 88.5722 5.632 88.5722 3.96V3.476H91.9712V2.981H84.5792V3.476H87.9782V3.96C87.9782 5.643 85.7122 7.007 84.3262 7.271ZM92.7082 10.439V9.944H88.5722V7.447H87.9892V9.944H83.8532V10.439H92.7082ZM93.7083 3.751H99.6593V3.267H96.9753V1.98H96.3923V3.267H93.7083V3.751ZM101.254 11.759V2.002H100.671V11.759H101.254ZM96.9863 9.174V7.986C98.2183 7.887 98.9773 7.227 98.9773 6.215C98.9773 5.115 98.0533 4.422 96.6783 4.422C95.3033 4.422 94.3903 5.115 94.3903 6.215C94.3903 7.238 95.1493 7.898 96.3923 7.986V9.196C95.3363 9.24 94.3573 9.251 93.4773 9.251L93.5763 9.757C95.4133 9.757 97.8333 9.724 100.033 9.372L99.9893 8.932C99.0213 9.064 97.9983 9.13 96.9863 9.174ZM94.9403 6.215C94.9403 5.423 95.6223 4.895 96.6783 4.895C97.7233 4.895 98.4273 5.423 98.4273 6.215C98.4273 7.007 97.7343 7.535 96.6783 7.535C95.6223 7.535 94.9403 7.007 94.9403 6.215ZM103.684 9.603H103.046L102.584 11.77H103.046L103.684 9.603ZM113.929 6.446H115.436V5.94H113.929V2.002H113.357V11.77H113.929V6.446ZM109.188 2.915H108.682V5.577H107.12V2.915H106.592V9.339H109.188V2.915ZM112.334 2.915H111.817V5.577H110.332V2.915H109.804V9.339H112.334V2.915ZM107.12 6.072H108.682V8.844H107.12V6.072ZM110.332 6.072H111.817V8.844H110.332V6.072ZM117.03 2.86H123.003V4.169H117.052V6.435H123.795V5.951H117.624V4.62H123.575V2.376H117.03V2.86ZM124.752 7.986V7.491H115.886V7.986H124.752ZM123.784 11.033H117.668V8.888H117.085V11.528H123.784V11.033ZM133.485 5.852L133.716 5.379C132.253 5.17 130.174 4.048 130.174 2.651V2.134H129.58V2.651C129.58 4.081 127.501 5.17 126.038 5.379L126.269 5.852C127.644 5.588 129.294 4.807 129.877 3.575C130.46 4.774 132.132 5.588 133.485 5.852ZM134.288 7.447V6.952H130.163V5.39H129.58V6.952H125.455V7.447H134.288ZM129.877 8.426C127.798 8.426 126.555 9.02 126.555 10.076C126.555 11.143 127.798 11.737 129.877 11.737C131.956 11.737 133.199 11.143 133.199 10.076C133.199 9.02 131.956 8.426 129.877 8.426ZM129.877 11.264C128.194 11.264 127.138 10.824 127.138 10.076C127.138 9.328 128.194 8.899 129.877 8.899C131.56 8.899 132.616 9.328 132.616 10.076C132.616 10.824 131.56 11.264 129.877 11.264ZM143.89 6.71V6.215H142.394C142.691 4.928 142.68 4.026 142.68 3.234V2.552H136.179V3.047H142.119V3.234C142.119 4.015 142.119 4.906 141.811 6.215H135.024V6.71H143.89ZM142.768 8.217H136.146V11.616H142.768V8.217ZM142.196 11.121H136.718V8.701H142.196V11.121Z" fill="black"/>
<path d="M7.328 27.728C8.08533 27.728 8.77867 27.6533 9.408 27.504C10.0373 27.3547 10.576 27.1413 11.024 26.864C11.472 26.576 11.8187 26.2347 12.064 25.84C12.32 25.4453 12.448 25.0027 12.448 24.512C12.448 24.0213 12.32 23.5787 12.064 23.184C11.8187 22.7893 11.472 22.4533 11.024 22.176C10.576 21.8987 10.0373 21.6853 9.408 21.536C8.77867 21.3867 8.08533 21.312 7.328 21.312C6.56 21.312 5.86133 21.3867 5.232 21.536C4.60267 21.6853 4.064 21.8987 3.616 22.176C3.168 22.4533 2.816 22.7893 2.56 23.184C2.31467 23.5787 2.192 24.0213 2.192 24.512C2.192 25.0027 2.31467 25.4453 2.56 25.84C2.816 26.2347 3.168 26.576 3.616 26.864C4.064 27.1413 4.60267 27.3547 5.232 27.504C5.86133 27.6533 6.56 27.728 7.328 27.728ZM7.328 22.64C8.36267 22.64 9.18933 22.8053 9.808 23.136C10.4373 23.4667 10.752 23.9253 10.752 24.512C10.752 25.12 10.4373 25.5893 9.808 25.92C9.18933 26.24 8.36267 26.4 7.328 26.4C6.26133 26.4 5.41867 26.24 4.8 25.92C4.192 25.5893 3.888 25.12 3.888 24.512C3.888 23.9253 4.192 23.4667 4.8 23.136C5.41867 22.8053 6.26133 22.64 7.328 22.64ZM13.904 30.32V28.96H0.8V30.32H6.48V35.232H8.128V30.32H13.904ZM26.5908 27.44L27.2308 26.112C26.5054 26.0053 25.8281 25.824 25.1988 25.568C24.5801 25.3013 24.0414 24.9867 23.5828 24.624C23.1348 24.2507 22.7828 23.84 22.5268 23.392C22.2708 22.944 22.1427 22.4853 22.1427 22.016V21.248H20.3988V22.016C20.3988 22.496 20.2708 22.96 20.0148 23.408C19.7588 23.8453 19.4068 24.2507 18.9588 24.624C18.5107 24.9867 17.9721 25.3013 17.3428 25.568C16.7241 25.824 16.0467 26.0053 15.3107 26.112L15.9507 27.44C17.1774 27.248 18.2494 26.8693 19.1667 26.304C20.0948 25.728 20.7988 25.0187 21.2787 24.176C21.7587 25.008 22.4574 25.712 23.3748 26.288C24.2921 26.864 25.3641 27.248 26.5908 27.44ZM27.7908 30.144V28.8H14.7347V30.144H20.3988V35.248H22.0468V30.144H27.7908ZM41.4156 23.472V23.552C41.4156 24.4053 41.389 25.3653 41.3356 26.432C41.293 27.4987 41.133 28.7413 40.8556 30.16L42.5196 30.336C42.6583 29.5893 42.765 28.9013 42.8396 28.272C42.9143 27.632 42.9676 27.04 42.9996 26.496C43.0423 25.9413 43.0636 25.424 43.0636 24.944C43.0743 24.464 43.0796 24 43.0796 23.552V22.128H32.7916V23.472H41.4156ZM44.4876 31.984H37.9596V26.896H36.2956V31.984H31.4316V33.344H44.4876V31.984ZM57.5744 20.784H56.0064V24.288H54.4064V21.056H52.8544V29.2H54.4064V25.632H56.0064V29.264H57.5744V20.784ZM51.6224 21.824H45.9584V23.152H49.9264C49.7877 24.2827 49.345 25.264 48.5984 26.096C47.8624 26.928 46.769 27.632 45.3184 28.208L46.1024 29.392C48.001 28.6453 49.393 27.6533 50.2784 26.416C51.1744 25.1787 51.6224 23.648 51.6224 21.824ZM47.7504 29.92V31.248H55.9264V35.248H57.5744V29.92H47.7504ZM72.3673 24.656H69.7433V26.016H72.3673V31.36H74.0153V20.8H72.3673V24.656ZM69.8233 29.312L70.6393 28.032C70.0953 27.84 69.6099 27.5893 69.1833 27.28C68.7673 26.9707 68.4153 26.624 68.1273 26.24C67.8393 25.856 67.6206 25.4507 67.4713 25.024C67.3219 24.5867 67.2473 24.144 67.2473 23.696V23.2H70.2553V21.872H62.5273V23.2H65.5833V23.696C65.5833 24.176 65.5033 24.656 65.3433 25.136C65.1833 25.6053 64.9486 26.048 64.6393 26.464C64.3406 26.8693 63.9726 27.2373 63.5353 27.568C63.0979 27.888 62.5966 28.144 62.0313 28.336L62.8793 29.632C63.7433 29.3333 64.4739 28.8907 65.0713 28.304C65.6686 27.7067 66.1273 27.008 66.4473 26.208C66.7566 26.9227 67.1939 27.552 67.7593 28.096C68.3353 28.6293 69.0233 29.0347 69.8233 29.312ZM74.3833 33.616H66.3033V30.448H64.6553V34.96H74.3833V33.616ZM89.022 27.808H85.902V25.904C86.4567 25.6587 86.8833 25.36 87.182 25.008C87.4913 24.6453 87.646 24.224 87.646 23.744C87.646 23.3173 87.5233 22.9387 87.278 22.608C87.0433 22.2667 86.702 21.9787 86.254 21.744C85.806 21.5093 85.262 21.3333 84.622 21.216C83.9927 21.088 83.2833 21.024 82.494 21.024C81.7047 21.024 80.99 21.088 80.35 21.216C79.7207 21.3333 79.182 21.5093 78.734 21.744C78.286 21.9787 77.9393 22.2667 77.694 22.608C77.4593 22.9387 77.342 23.3173 77.342 23.744C77.342 24.224 77.4913 24.6453 77.79 25.008C78.0887 25.36 78.51 25.6533 79.054 25.888V27.808H75.95V29.12H89.022V27.808ZM82.494 22.304C83.5927 22.304 84.4407 22.4267 85.038 22.672C85.6353 22.9067 85.934 23.264 85.934 23.744C85.934 24.224 85.6353 24.5867 85.038 24.832C84.4407 25.0773 83.5927 25.2 82.494 25.2C81.3953 25.2 80.542 25.0773 79.934 24.832C79.3367 24.5867 79.038 24.224 79.038 23.744C79.038 23.264 79.3367 22.9067 79.934 22.672C80.542 22.4267 81.3953 22.304 82.494 22.304ZM80.702 27.808V26.336C80.9687 26.3787 81.2513 26.4107 81.55 26.432C81.8593 26.4533 82.174 26.464 82.494 26.464C82.814 26.464 83.118 26.4533 83.406 26.432C83.7047 26.4107 83.9873 26.3787 84.254 26.336V27.808H80.702ZM82.462 30.048C80.862 30.048 79.63 30.272 78.766 30.72C77.9127 31.168 77.486 31.808 77.486 32.64C77.486 33.056 77.598 33.424 77.822 33.744C78.0567 34.064 78.3873 34.336 78.814 34.56C79.2407 34.784 79.758 34.9493 80.366 35.056C80.9847 35.1733 81.6833 35.232 82.462 35.232C84.0727 35.232 85.3047 35.008 86.158 34.56C87.0113 34.112 87.438 33.472 87.438 32.64C87.438 31.808 87.0113 31.168 86.158 30.72C85.3047 30.272 84.0727 30.048 82.462 30.048ZM82.462 33.968C81.3953 33.968 80.5793 33.8613 80.014 33.648C79.4487 33.424 79.166 33.088 79.166 32.64C79.166 32.192 79.4487 31.8613 80.014 31.648C80.5793 31.424 81.3953 31.312 82.462 31.312C83.5287 31.312 84.3447 31.424 84.91 31.648C85.486 31.8613 85.774 32.192 85.774 32.64C85.774 33.088 85.486 33.424 84.91 33.648C84.3447 33.8613 83.5287 33.968 82.462 33.968ZM104.983 20.768H103.415V26.48H101.703V21.072H100.151V34.512H101.703V27.824H103.415V35.216H104.983V20.768ZM94.7589 30.432V23.84H98.4869V22.496H93.1429V31.792H94.1029C94.6149 31.792 95.0949 31.7867 95.5429 31.776C95.9909 31.7653 96.4229 31.7493 96.8389 31.728C97.2655 31.696 97.6815 31.6533 98.0869 31.6C98.5029 31.5467 98.9295 31.4773 99.3669 31.392L99.2229 30.032C98.4762 30.1813 97.7509 30.2827 97.0469 30.336C96.3535 30.3893 95.5909 30.4213 94.7589 30.432ZM107.19 25.312L107.67 26.544C108.96 26.4587 110.07 26.24 110.998 25.888C111.936 25.536 112.635 25.056 113.094 24.448C113.552 25.056 114.251 25.536 115.19 25.888C116.139 26.24 117.259 26.4587 118.55 26.544L118.998 25.312C117.536 25.2267 116.39 25.0027 115.558 24.64C114.726 24.2667 114.23 23.792 114.07 23.216H118.342V21.984H113.926V20.72H112.278V21.984H107.878V23.216H112.134C111.974 23.792 111.478 24.2667 110.646 24.64C109.814 25.0027 108.662 25.2267 107.19 25.312ZM113.926 28.304H119.638V27.072H106.598V28.304H112.278V29.424H108.118V30.64H116.39V31.648H108.15V35.104H118.422V33.872H109.782V32.784H118.006V29.424H113.926V28.304ZM123.044 30.704L123.364 21.952H121.508L121.556 23.84L121.812 30.704H123.044ZM121.492 34.208H123.38V32.224H121.492V34.208Z" fill="black"/>
</svg>
