<svg width="152" height="37" viewBox="0 0 152 37" fill="none" xmlns="http://www.w3.org/2000/svg">
<path d="M14.192 26.776V25.416H12V19.784H10.352V34.232H12V26.776H14.192ZM2.96 29.256V21.192H1.312V30.632H2.512C3.61067 30.632 4.72 30.5893 5.84 30.504C6.97067 30.408 8.14933 30.2373 9.376 29.992L9.184 28.632C8.08533 28.856 7.024 29.016 6 29.112C4.976 29.1973 3.96267 29.2453 2.96 29.256ZM27.0708 19.784H25.5028V34.216H27.0708V19.784ZM22.6068 20.056V25.256H21.0547C20.9694 23.9013 20.6548 22.84 20.1108 22.072C19.5668 21.2933 18.8574 20.904 17.9827 20.904C17.5241 20.904 17.1027 21.0213 16.7188 21.256C16.3348 21.4907 16.0041 21.832 15.7267 22.28C15.4601 22.7173 15.2521 23.256 15.1027 23.896C14.9534 24.5253 14.8787 25.2347 14.8787 26.024C14.8787 26.8133 14.9534 27.528 15.1027 28.168C15.2521 28.7973 15.4601 29.336 15.7267 29.784C16.0041 30.2213 16.3348 30.5627 16.7188 30.808C17.1027 31.0427 17.5241 31.16 17.9827 31.16C18.4201 31.16 18.8201 31.0587 19.1828 30.856C19.5454 30.6427 19.8601 30.3387 20.1267 29.944C20.3934 29.5493 20.6068 29.0747 20.7668 28.52C20.9374 27.9547 21.0388 27.32 21.0708 26.616H22.6068V33.544H24.1428V20.056H22.6068ZM17.9827 29.608C17.4708 29.608 17.0761 29.304 16.7987 28.696C16.5214 28.0773 16.3828 27.1867 16.3828 26.024C16.3828 24.8613 16.5214 23.976 16.7987 23.368C17.0761 22.76 17.4708 22.456 17.9827 22.456C18.4948 22.456 18.8894 22.76 19.1667 23.368C19.4441 23.976 19.5827 24.8613 19.5827 26.024C19.5827 27.1867 19.4441 28.0773 19.1667 28.696C18.8894 29.304 18.4948 29.608 17.9827 29.608ZM41.0055 19.784H39.4215V34.232H41.0055V19.784ZM36.3975 20.136V25.528H34.2695C34.4828 24.9093 34.6375 24.2693 34.7335 23.608C34.8295 22.9467 34.8775 22.264 34.8775 21.56H29.2615V22.888H33.2455C33.1282 24.3707 32.6962 25.704 31.9495 26.888C31.2028 28.072 30.0775 29.112 28.5735 30.008L29.5175 31.176C30.5202 30.568 31.3682 29.9067 32.0615 29.192C32.7548 28.4667 33.3148 27.688 33.7415 26.856H36.3975V33.544H37.9495V20.136H36.3975ZM54.9984 25.256L56.5824 25.448C56.8064 24.4773 56.9344 23.64 56.9664 22.936C57.009 22.2213 57.0304 21.624 57.0304 21.144V20.392H52.0064V21.72H55.4144C55.4037 22.168 55.3717 22.68 55.3184 23.256C55.2757 23.8213 55.169 24.488 54.9984 25.256ZM48.5824 25.224L50.1824 25.464C50.5237 24.408 50.721 23.5067 50.7744 22.76C50.8384 22.0027 50.8704 21.4 50.8704 20.952V20.392H46.4384V21.72H49.2544C49.233 22.136 49.1744 22.632 49.0784 23.208C48.993 23.784 48.8277 24.456 48.5824 25.224ZM58.4064 26.52H52.9504V23.784H51.3184V26.52H45.3504V27.848H58.4064V26.52ZM46.7744 29.208V30.536H55.1104V34.168H56.7744V29.208H46.7744ZM75.3753 23.096H73.3273V19.768H71.6793V27.96H73.3273V24.456H75.3753V23.096ZM69.3113 27V20.728H62.5433V27H69.3113ZM67.6953 22.056V25.688H64.1753V22.056H67.6953ZM69.6633 30.056H73.5353V28.744H63.9833V30.056H67.8713C67.8073 30.3973 67.6526 30.7227 67.4073 31.032C67.1726 31.3413 66.8633 31.624 66.4793 31.88C66.0953 32.136 65.6419 32.3547 65.1193 32.536C64.5966 32.7173 64.0206 32.8507 63.3913 32.936L63.9993 34.184C65.1299 34.024 66.1006 33.7147 66.9113 33.256C67.7326 32.7973 68.3513 32.232 68.7673 31.56C69.1833 32.232 69.8019 32.8027 70.6233 33.272C71.4553 33.7413 72.4206 34.0507 73.5193 34.2L74.1273 32.968C73.5086 32.872 72.9379 32.728 72.4153 32.536C71.8926 32.344 71.4393 32.12 71.0553 31.864C70.6713 31.608 70.3566 31.3253 70.1113 31.016C69.8766 30.7067 69.7273 30.3867 69.6633 30.056ZM87.566 25.272V23.928H79.294V20.296H77.646V25.272H87.566ZM89.07 27H75.95V28.328H89.07V27ZM79.198 32.584V29.656H77.55V33.912H87.646V32.584H79.198ZM105.991 23.352H103.943V19.768H102.295V28.456H103.943V24.712H105.991V23.352ZM100.199 27.688L101.063 26.392C100.53 26.2107 100.05 25.9707 99.6229 25.672C99.2069 25.3733 98.8549 25.0373 98.5669 24.664C98.2789 24.28 98.0602 23.8693 97.9109 23.432C97.7615 22.9947 97.6869 22.5413 97.6869 22.072V20.52H96.0229V21.944C96.0229 22.4667 95.9482 22.9787 95.7989 23.48C95.6495 23.9707 95.4255 24.4293 95.1269 24.856C94.8282 25.2827 94.4602 25.6613 94.0229 25.992C93.5855 26.3227 93.0842 26.584 92.5189 26.776L93.3989 28.088C94.2309 27.7787 94.9402 27.3307 95.5269 26.744C96.1135 26.1573 96.5669 25.464 96.8869 24.664C97.1962 25.3467 97.6282 25.9547 98.1829 26.488C98.7482 27.0107 99.4202 27.4107 100.199 27.688ZM99.2869 28.808C98.5402 28.808 97.8682 28.872 97.2709 29C96.6842 29.1173 96.1829 29.2933 95.7669 29.528C95.3509 29.752 95.0309 30.0347 94.8069 30.376C94.5829 30.7067 94.4709 31.0853 94.4709 31.512C94.4709 31.9387 94.5829 32.3227 94.8069 32.664C95.0309 32.9947 95.3509 33.2773 95.7669 33.512C96.1829 33.7467 96.6842 33.9227 97.2709 34.04C97.8682 34.168 98.5402 34.232 99.2869 34.232C100.044 34.232 100.716 34.168 101.303 34.04C101.9 33.9227 102.407 33.7467 102.823 33.512C103.239 33.2773 103.554 32.9947 103.767 32.664C103.991 32.3227 104.103 31.9387 104.103 31.512C104.103 30.6587 103.676 29.9973 102.823 29.528C101.97 29.048 100.791 28.808 99.2869 28.808ZM99.2869 32.936C98.2522 32.936 97.4629 32.8187 96.9189 32.584C96.3749 32.3493 96.1029 31.992 96.1029 31.512C96.1029 31.064 96.3749 30.7173 96.9189 30.472C97.4629 30.2267 98.2522 30.104 99.2869 30.104C100.322 30.104 101.111 30.2267 101.655 30.472C102.199 30.7173 102.471 31.064 102.471 31.512C102.471 31.992 102.199 32.3493 101.655 32.584C101.111 32.8187 100.322 32.936 99.2869 32.936ZM109.782 21.528V24.184H107.814V25.512H118.358V24.184H116.406V21.528H118.438V20.2H107.734V21.528H109.782ZM114.758 21.528V24.184H111.43V21.528H114.758ZM113.926 27.992H119.638V26.664H106.566V27.992H112.278V29.464H108.134V34.056H118.054V29.464H113.926V27.992ZM116.438 30.776V32.744H109.766V30.776H116.438ZM131.055 27.768L131.807 26.488C131.263 26.3387 130.777 26.136 130.351 25.88C129.924 25.624 129.561 25.3307 129.263 25C128.975 24.6693 128.751 24.312 128.591 23.928C128.441 23.544 128.367 23.1547 128.367 22.76V22.648H131.407V21.336H128.383V19.72H126.719V21.336H123.679V22.648H126.719V22.76C126.719 23.1973 126.639 23.624 126.479 24.04C126.329 24.4453 126.105 24.824 125.807 25.176C125.508 25.5173 125.14 25.8267 124.703 26.104C124.276 26.3707 123.785 26.584 123.231 26.744L123.999 28.024C124.863 27.7787 125.593 27.4053 126.191 26.904C126.788 26.392 127.252 25.784 127.583 25.08C127.892 25.72 128.34 26.2693 128.927 26.728C129.513 27.1867 130.223 27.5333 131.055 27.768ZM136.607 23.208H134.559V19.784H132.911V28.104H134.559V24.568H136.607V23.208ZM130.911 30.12H134.767V28.808H125.231V30.12H129.087C129.012 30.4507 128.852 30.7653 128.607 31.064C128.361 31.3627 128.047 31.64 127.663 31.896C127.279 32.1413 126.831 32.3547 126.319 32.536C125.807 32.7067 125.241 32.8347 124.623 32.92L125.247 34.184C126.377 34.0133 127.348 33.6987 128.159 33.24C128.98 32.7813 129.599 32.216 130.015 31.544C130.42 32.216 131.033 32.7867 131.855 33.256C132.687 33.7253 133.652 34.04 134.751 34.2L135.359 32.952C134.751 32.8667 134.191 32.7333 133.679 32.552C133.167 32.36 132.719 32.1413 132.335 31.896C131.951 31.64 131.636 31.3627 131.391 31.064C131.145 30.7547 130.985 30.44 130.911 30.12ZM149.117 19.784H147.469V34.232H149.117V19.784ZM144.861 21.304H138.013V22.648H143.165C143.027 24.312 142.488 25.784 141.549 27.064C140.611 28.3333 139.192 29.4267 137.293 30.344L138.173 31.656C139.411 31.0587 140.456 30.3867 141.309 29.64C142.163 28.8827 142.851 28.0667 143.373 27.192C143.907 26.3173 144.285 25.3893 144.509 24.408C144.744 23.416 144.861 22.3813 144.861 21.304Z" fill="black"/>
<path d="M8.866 10.759V1.002H8.294V5.017H6.611V1.244H6.05V10.231H6.611V5.512H8.294V10.759H8.866ZM1.617 7.723H1.595V2.718H4.664V2.212H1.023V8.229H1.628C3.245 8.229 4.191 8.185 5.335 7.921L5.258 7.415C4.147 7.679 3.212 7.723 1.617 7.723ZM10.7351 4.434L10.9221 4.896C12.4181 4.753 14.0461 4.192 14.6071 3.125C15.1681 4.192 16.7961 4.753 18.2921 4.896L18.4791 4.434C16.8841 4.291 14.9701 3.653 14.9151 2.377H18.0941V1.904H14.9041V0.903H14.3211V1.904H11.1421V2.377H14.2991C14.2441 3.653 12.3301 4.291 10.7351 4.434ZM14.8931 7.008V5.93H19.0181V5.457H10.1961V5.93H14.3101V7.008H11.2961V7.459H17.2801V8.526H11.3181V10.627H18.1711V10.154H11.8901V8.977H17.8521V7.008H14.8931ZM28.8183 4.181V3.675H27.2893V0.990999H26.7063V7.019H27.2893V4.181H28.8183ZM25.0233 6.227L25.3423 5.765C24.0113 5.259 22.8453 4.005 22.8453 2.586V1.475H22.2843V2.564C22.2843 4.148 21.1733 5.468 19.7873 6.029L20.0953 6.502C21.2503 6.029 22.1853 5.061 22.5923 3.796C22.9773 4.907 23.9453 5.787 25.0233 6.227ZM24.2093 7.316C22.2183 7.316 21.0633 7.932 21.0633 9.032C21.0633 10.132 22.2183 10.737 24.2093 10.737C26.2003 10.737 27.3663 10.132 27.3663 9.032C27.3663 7.932 26.2003 7.316 24.2093 7.316ZM24.2093 10.264C22.6473 10.264 21.6353 9.78 21.6353 9.032C21.6353 8.273 22.6473 7.789 24.2093 7.789C25.7823 7.789 26.7943 8.273 26.7943 9.032C26.7943 9.78 25.7823 10.264 24.2093 10.264ZM30.1814 1.816H31.7984V4.225H30.1924V4.709H37.2654V4.225H35.6704V1.816H37.2874V1.332H30.1814V1.816ZM32.3704 1.816H35.0874V4.225H32.3704V1.816ZM34.0314 7.646V6.304H38.1564V5.809H29.3234V6.304H33.4594V7.646H30.4454V10.616H37.0674V7.646H34.0314ZM31.0064 8.13H36.4954V10.121H31.0064V8.13ZM46.149 6.348L46.435 5.875C45.082 5.468 43.96 4.335 43.96 3.048V2.74H46.27V2.256H43.971V0.935999H43.388V2.256H41.067V2.74H43.388V3.048C43.388 4.456 42.2 5.611 40.847 6.084L41.133 6.546C42.288 6.117 43.278 5.303 43.685 4.159C44.114 5.182 45.038 5.963 46.149 6.348ZM49.845 4.038V3.543H48.316V1.002H47.733V6.733H48.316V4.038H49.845ZM45.643 7.833H48.503V7.338H42.189V7.833H45.049C44.994 9.032 43.278 10.011 41.837 10.275L42.068 10.726C43.377 10.462 44.818 9.714 45.346 8.658C45.874 9.714 47.348 10.473 48.624 10.737L48.855 10.275C47.414 10.011 45.698 9.032 45.643 7.833ZM51.3182 2.564H57.4232V3.059C57.4232 4.236 57.4232 5.578 57.0712 7.393L57.6652 7.481C58.0172 5.567 58.0062 4.236 58.0062 3.059V2.08H51.3182V2.564ZM59.1942 9.274V8.779H54.5522V5.204H53.9802V8.779H50.3612V9.274H59.1942ZM68.1693 10.77V1.002H67.6083V10.77H68.1693ZM66.2333 1.277H65.6723V3.785H63.9343C64.0223 3.29 64.0773 2.806 64.0773 2.289H60.3483V2.784H63.5053C63.3623 5.116 61.9653 7.019 59.9963 8.185L60.3593 8.614C62.2403 7.47 63.3293 5.963 63.8023 4.28H65.6723V6.249H63.6483V6.744H65.6723V10.231H66.2333V1.277ZM76.8585 8.196H77.4415V1.013H76.8585V8.196ZM74.9995 6.535L75.3075 6.073C73.9545 5.545 72.7665 4.137 72.7665 2.564V1.552H72.1945V2.564C72.1945 4.203 71.0505 5.677 69.6755 6.26L70.0055 6.733C71.1495 6.216 72.0955 5.182 72.4915 3.851C72.8985 5.094 73.8555 6.062 74.9995 6.535ZM77.7715 10.528V10.033H71.8865V7.547H71.3035V10.528H77.7715ZM86.4936 5.6H88.1876V5.094H86.4936V1.002H85.9106V10.77H86.4936V5.6ZM84.0186 2.08H79.6186V2.575H83.4466C83.2816 4.984 81.8846 7.019 79.2116 8.35L79.5416 8.812C82.6436 7.261 84.0186 4.742 84.0186 2.08ZM97.4927 9.45V8.955H95.1717V6.139C96.0187 5.71 96.5357 5.028 96.5357 4.148C96.5357 2.652 95.0947 1.706 93.0377 1.706C91.0027 1.706 89.5507 2.652 89.5507 4.148C89.5507 5.028 90.0567 5.721 90.9367 6.15V8.955H88.6267V9.45H97.4927ZM90.1007 4.148C90.1007 2.971 91.3547 2.179 93.0377 2.179C94.7427 2.179 95.9857 2.971 95.9857 4.148C95.9857 5.303 94.7427 6.106 93.0377 6.106C91.3547 6.106 90.1007 5.303 90.1007 4.148ZM94.5887 8.955H91.5197V6.37C91.9707 6.502 92.4767 6.579 93.0377 6.579C93.6097 6.579 94.1377 6.502 94.5887 6.37V8.955ZM99.7469 8.372H100.33C100.066 5.556 102.123 5.908 102.123 3.895C102.123 2.498 101.364 1.827 100.22 1.761C99.2079 1.695 98.0309 2.388 97.9099 4.159H98.4819C98.6909 2.63 99.5489 2.344 100.165 2.311C101.254 2.278 101.573 3.224 101.573 3.939C101.54 4.687 101.122 5.05 100.649 5.523C100.176 5.963 99.6039 6.909 99.7469 8.372ZM100.374 9.439H99.7359V10.143H100.374V9.439Z" fill="black"/>
</svg>
