<svg width="32" height="10" viewBox="0 0 32 10" fill="none" xmlns="http://www.w3.org/2000/svg">
<path d="M4.56477 6.31H1.29477L4.56477 2.55V6.31ZM0.384766 6.93H4.56477V8.95H5.28477V6.93H6.45477V6.31H5.28477V1.45H4.66477L0.384766 6.4V6.93ZM9.83078 1.25C8.27078 1.25 7.40078 2.18 7.40078 3.23C7.40078 4.09 7.95078 4.67 8.57078 4.91C7.86078 5.15 6.95078 5.77 6.95078 6.92C6.95078 8.19 8.10078 9.15 9.83078 9.15C11.5608 9.15 12.7108 8.19 12.7108 6.92C12.7108 5.77 11.8208 5.15 11.1008 4.91C11.7108 4.67 12.2608 4.09 12.2608 3.23C12.2608 2.18 11.3908 1.25 9.83078 1.25ZM9.83078 8.53C8.48078 8.53 7.67078 7.85 7.67078 6.92C7.67078 6 8.57078 5.26 9.83078 5.26C11.0908 5.26 11.9908 6 11.9908 6.92C11.9908 7.85 11.1808 8.53 9.83078 8.53ZM9.83078 1.87C10.9108 1.87 11.5408 2.43 11.5408 3.23C11.5408 3.98 10.8408 4.64 9.83078 4.64C8.82078 4.64 8.12078 3.98 8.12078 3.23C8.12078 2.43 8.75078 1.87 9.83078 1.87ZM19.4833 9.5V4.96H20.9233V9.74H21.6833V0.83H20.9233V4.28H19.4833V0.93H18.7333V9.5H19.4833ZM13.8933 1.92H16.7633C16.6833 4.04 15.4733 6.52 13.5033 7.88L14.0533 8.39C16.0833 6.87 17.5933 4.38 17.5633 1.26H13.8933V1.92ZM31.3066 9.69V9.06H25.0766V8.37H31.1066V6.51H24.3166V7.13H30.3466V7.77H24.3166V9.69H31.3066ZM26.3066 0.61C24.8766 0.61 23.8066 1.26 23.8066 2.23C23.8066 3.2 24.8766 3.85 26.3066 3.85C27.7366 3.85 28.8066 3.2 28.8066 2.23C28.8066 1.26 27.7366 0.61 26.3066 0.61ZM26.3066 3.22C25.2666 3.22 24.5666 2.8 24.5666 2.23C24.5666 1.65 25.2666 1.23 26.3066 1.23C27.3466 1.23 28.0466 1.65 28.0466 2.23C28.0466 2.8 27.3466 3.22 26.3066 3.22ZM31.1266 6.15V0.83H30.3666V5.26H27.9866V5.86H30.3666V6.15H31.1266ZM29.7866 4.83V4.23L23.0766 4.31V4.93L25.7766 4.89V6.15H26.5566V4.88L29.7866 4.83Z" fill="#999999"/>
</svg>
