<svg width="165" height="31" viewBox="0 0 165 31" fill="none" xmlns="http://www.w3.org/2000/svg">
<path d="M9.205 12.975V6.423H11.09V5.539H9.205V1.379H8.217V12.975H9.205ZM0.0790001 1.743V10.804L7.515 10.401V9.543L1.067 9.842V1.743H0.0790001ZM22.3394 12.975V1.379H21.3514V12.975H22.3394ZM20.8314 10.973V10.115L11.9654 10.219V11.103L20.8314 10.973ZM16.1904 1.665C14.1104 1.665 12.6804 3.238 12.6804 4.941C12.6804 6.644 14.1104 8.217 16.1904 8.217C18.2704 8.217 19.7004 6.644 19.7004 4.941C19.7004 3.238 18.2704 1.665 16.1904 1.665ZM16.1904 7.359C14.6564 7.359 13.6684 6.189 13.6684 4.941C13.6684 3.693 14.6564 2.523 16.1904 2.523C17.7244 2.523 18.7124 3.693 18.7124 4.941C18.7124 6.189 17.7244 7.359 16.1904 7.359ZM28.2604 11.025V11.883H39.6484V11.025H34.4614V8.087H38.3484V1.873H29.5474V8.087H33.4474V11.025H28.2604ZM30.5354 2.731H37.3604V7.229H30.5354V2.731ZM40.5367 7.515V8.373H51.9247V7.515H40.5367ZM51.0797 12.845V11.987H42.7987V9.283H41.8107V12.845H51.0797ZM50.7547 5.214H42.8117V2.419H50.5987V1.587H41.8237V6.059H50.7547V5.214ZM65.1257 10.193C64.2677 9.634 63.4877 8.971 62.7987 8.204C62.1227 7.45 61.5897 6.644 61.2127 5.786C61.2647 5.617 61.3167 5.448 61.3557 5.266C61.5637 4.486 61.6937 3.641 61.7457 2.731H64.5797V1.873H57.3907V2.731H60.7057C60.6407 3.55 60.5237 4.317 60.3417 5.032C59.7177 7.541 58.4047 9.413 56.6757 10.622L57.3387 11.311C58.5737 10.388 59.6397 9.218 60.4197 7.723C60.5627 7.45 60.7057 7.164 60.8227 6.865C60.9657 7.138 61.1347 7.398 61.3037 7.658C62.1877 8.958 63.3317 10.154 64.4627 10.96L65.1257 10.193ZM66.9717 12.975V6.683H68.8567V5.799H66.9717V1.379H65.9837V12.975H66.9717ZM77.2851 7.203C75.9981 6.683 74.8541 5.838 74.0481 4.772C73.8791 4.551 73.7361 4.317 73.6061 4.07L73.7361 3.719C73.9571 3.043 74.0871 2.328 74.1001 1.587H73.0861C72.9431 4.187 71.5391 6.501 69.0431 7.645L69.6671 8.334C70.9281 7.71 72.0201 6.761 72.8001 5.604C72.9431 5.396 73.0861 5.175 73.2031 4.954C73.2941 5.11 73.4111 5.266 73.5281 5.409C74.3731 6.514 75.5301 7.45 76.6871 7.97L77.2851 7.203ZM79.8981 12.845V11.987H72.0981V9.023H71.1101V12.845H79.8981ZM79.5211 9.933V5.253H81.1201V4.369H79.5211V1.379H78.5331V9.933H79.5211ZM81.6315 6.579V7.411H93.0195V6.579H81.6315ZM87.3255 0.910999C85.1675 0.910999 83.5035 1.899 83.5035 3.355C83.5035 4.811 85.1675 5.799 87.3255 5.799C89.4835 5.799 91.1475 4.811 91.1475 3.355C91.1475 1.899 89.4835 0.910999 87.3255 0.910999ZM87.3255 4.993C85.7395 4.993 84.4915 4.343 84.4915 3.355C84.4915 2.367 85.7395 1.717 87.3255 1.717C88.9115 1.717 90.1595 2.367 90.1595 3.355C90.1595 4.343 88.9115 4.993 87.3255 4.993ZM92.0445 12.897V12.078H83.8415V11.025H91.7715V8.451H82.8535V9.257H90.7835V10.245H82.8535V12.897H92.0445ZM108.339 10.063V5.903H109.938V5.019H108.339V1.379H107.351V10.063H108.339ZM108.716 12.845V11.987H100.916V9.517H99.9284V12.845H108.716ZM104.309 2.042V1.21H99.9674V2.042H104.309ZM105.999 3.641V2.809H98.2774V3.641H105.999ZM102.242 8.763C104.127 8.763 105.44 7.775 105.44 6.475C105.44 5.175 104.127 4.187 102.242 4.187C100.357 4.187 99.0444 5.175 99.0444 6.475C99.0444 7.775 100.357 8.763 102.242 8.763ZM102.242 7.957C100.903 7.957 100.032 7.424 100.032 6.475C100.032 5.526 100.903 4.993 102.242 4.993C103.581 4.993 104.452 5.526 104.452 6.475C104.452 7.424 103.581 7.957 102.242 7.957ZM120.617 1.652V3.875H116.418V1.652H115.43V7.866H121.605V5.123H124.179V10.037H125.167V1.379H124.179V4.239H121.605V1.652H120.617ZM125.492 12.845V11.987H117.562V9.127H116.574V12.845H125.492ZM116.418 7.008V4.733H120.617V7.008H116.418ZM130.06 2.003C128.318 2.003 126.849 3.524 126.849 5.851C126.849 8.191 128.318 9.712 130.06 9.712C131.386 9.712 132.491 8.854 133.011 7.45C133.141 7.086 133.219 6.683 133.258 6.254H134.597V12.663H135.572V1.496H134.597V5.37H133.245C133.206 4.98 133.128 4.616 133.011 4.278C132.491 2.861 131.386 2.003 130.06 2.003ZM130.06 8.841C128.773 8.841 127.824 7.71 127.824 5.851C127.824 3.992 128.773 2.861 130.06 2.861C131.347 2.861 132.296 3.992 132.296 5.851C132.296 7.71 131.347 8.841 130.06 8.841ZM137.821 12.962V1.379H136.833V12.962H137.821ZM0.0400001 30H4.031C6.15 30 7.515 28.596 7.515 26.984C7.515 25.684 6.735 24.813 5.786 24.501C6.371 24.176 6.735 23.526 6.735 22.759C6.735 21.316 5.604 20.12 3.667 20.12H0.0400001V30ZM4.031 25.424C5.11 25.424 5.799 26.139 5.799 26.984C5.799 27.829 5.11 28.544 4.031 28.544H1.756V25.424H4.031ZM3.667 21.576C4.551 21.576 5.019 22.096 5.019 22.759C5.019 23.422 4.551 23.968 3.667 23.968H1.756V21.576H3.667ZM15.1029 30H16.6759V20.12H14.9599V26.945L10.4489 20.12H8.87594V30H10.5919V23.227L15.1029 30ZM24.7979 30H26.8779L22.2759 24.787L26.5399 20.12H24.4599L20.4689 24.501V20.12H18.7529V30H20.4689V25.164L24.7979 30ZM41.0255 31.001V24.748H42.6765V23.24H41.0255V19.353H39.2835V31.001H41.0255ZM37.8015 28.817V19.821H31.4965V28.817H37.8015ZM33.2385 21.303H36.0595V27.335H33.2385V21.303ZM51.0399 23.851C51.0399 21.511 49.4149 19.873 47.2699 19.873C45.1249 19.873 43.4999 21.511 43.4999 23.851C43.4999 26.191 45.1249 27.829 47.2699 27.829C49.4149 27.829 51.0399 26.191 51.0399 23.851ZM49.2979 23.851C49.2979 25.359 48.4659 26.347 47.2699 26.347C46.0739 26.347 45.2419 25.359 45.2419 23.851C45.2419 22.343 46.0739 21.355 47.2699 21.355C48.4659 21.355 49.2979 22.343 49.2979 23.851ZM54.0819 31.001V19.353H52.3399V31.001H54.0819ZM56.2313 19.899V28.947L61.7693 28.635V27.179L57.9473 27.335V21.381H61.2233V19.899H56.2313ZM59.8583 24.878H62.3543V30.702H64.0443V19.483H62.3543V23.37H59.8583V24.878ZM66.5143 30.988V19.353H64.7983V30.988H66.5143ZM75.5926 23.851C75.5926 21.511 73.9676 19.873 71.8226 19.873C69.6776 19.873 68.0526 21.511 68.0526 23.851C68.0526 26.191 69.6776 27.829 71.8226 27.829C73.9676 27.829 75.5926 26.191 75.5926 23.851ZM73.8506 23.851C73.8506 25.359 73.0186 26.347 71.8226 26.347C70.6266 26.347 69.7946 25.359 69.7946 23.851C69.7946 22.343 70.6266 21.355 71.8226 21.355C73.0186 21.355 73.8506 22.343 73.8506 23.851ZM78.6346 31.001V19.353H76.8926V31.001H78.6346ZM86.582 23.565H82.604V21.212H87.154V19.73H80.862V29.155L88.129 28.752V27.296L82.604 27.543V25.034H86.582V23.565ZM87.245 24.865H89.039V31.001H90.781V19.353H89.039V23.357H87.245V24.865ZM108.064 30.013V28.531H96.624V30.013H108.064ZM107.076 24.8H99.614V21.303H106.816V19.821H97.872V26.295H107.076V24.8ZM119.599 31.001V19.353H117.857V31.001H119.599ZM109.745 19.821V28.96L117.207 28.557V27.101L111.487 27.348V21.303H115.972V19.821H109.745ZM132.006 31.001V19.353H130.264V23.097H128.847C128.808 22.798 128.73 22.525 128.626 22.252C128.093 20.796 126.793 19.873 125.168 19.873C123.01 19.873 121.424 21.511 121.424 23.851C121.424 26.191 123.01 27.829 125.168 27.829C126.793 27.829 128.08 26.906 128.626 25.463C128.73 25.19 128.808 24.904 128.847 24.605H130.264V31.001H132.006ZM127.17 23.851C127.17 25.359 126.364 26.347 125.168 26.347C123.972 26.347 123.166 25.359 123.166 23.851C123.166 22.343 123.972 21.355 125.168 21.355C126.364 21.355 127.17 22.343 127.17 23.851ZM143.413 19.301C140.852 19.301 139.11 21.03 139.11 22.98C139.11 24.449 140.085 25.775 141.658 26.36C141.931 26.477 142.23 26.555 142.555 26.594V28.661H137.719V30.143H149.159V28.661H144.323V26.594C144.622 26.542 144.908 26.464 145.181 26.36C146.767 25.775 147.742 24.449 147.742 22.98C147.742 21.03 146.013 19.301 143.413 19.301ZM143.426 25.177C141.814 25.177 140.852 24.163 140.852 22.98C140.852 21.81 141.814 20.783 143.426 20.783C145.038 20.783 146 21.81 146 22.98C146 24.163 145.038 25.177 143.426 25.177ZM151.1 20.965H152.335L152.413 23.162H150.71V24.605H160.707V23.162H158.991L159.082 20.965H160.317V19.535H151.1V20.965ZM151.295 27.413V30.871H160.642V29.389H153.037V27.413H151.295ZM161.435 26.893V25.463H149.995V26.893H161.435ZM154.077 20.965H157.34L157.249 23.162H154.155L154.077 20.965ZM164.468 19.639H162.752L162.895 27.621H164.325L164.468 19.639ZM162.7 28.661H164.52V30.481H162.7V28.661Z" fill="#242D3C"/>
</svg>
