<svg width="60" height="62" viewBox="0 0 60 62" fill="none" xmlns="http://www.w3.org/2000/svg">
<path d="M17.6504 20.4229C17.6504 20.4229 19.7681 18.988 22.5427 20.4575" stroke="#242D3C" stroke-linecap="round" stroke-linejoin="round"/>
<path d="M34.2376 20.8636C34.2376 20.8636 31.3592 18.9101 27.5906 20.9068" stroke="#242D3C" stroke-linecap="round" stroke-linejoin="round"/>
<path d="M30.7582 22.3362C29.8292 22.3362 29.0737 23.0917 29.0737 24.0206C29.0737 24.9495 29.8292 25.705 30.7582 25.705C31.6871 25.705 32.4426 24.9495 32.4426 24.0206C32.4426 23.0917 31.6871 22.3362 30.7582 22.3362Z" fill="#242D3C"/>
<path d="M22.3359 26.8279C22.3359 26.8279 22.7317 25.6393 23.9189 25.7078C25.1061 25.7764 25.7048 26.8279 25.7048 26.8279" stroke="#242D3C" stroke-linecap="round" stroke-linejoin="round"/>
<path d="M14.2188 18.0111C14.2188 18.0111 12.5938 39.4648 23.8479 39.8105C31.61 40.0526 33.624 36.7939 36.8308 19.8349" stroke="#242D3C" stroke-linecap="round" stroke-linejoin="round"/>
<path d="M19.2581 22.5577C19.2581 22.5577 19.1112 24.6062 20.4596 24.6062C21.808 24.6062 21.9117 22.8083 21.9117 22.8083" stroke="#242D3C" stroke-linecap="round" stroke-linejoin="round"/>
<path d="M45.388 32.3854C44.3248 40.0523 32.8373 34.8488 32.8373 34.8488L35.7589 27.4152L36.8393 19.3852L30.0713 13.179C21.3844 16.455 16.6476 17.4231 14.1323 17.6132V27.0695L13.1555 24.0269L15.2732 32.2903C3.63015 35.1686 -2.45503 29.0316 3.05102 16.1957C8.56572 3.35974 22.1191 1.00864 26.1903 1C32.7595 1 33.183 5.41694 33.183 5.41694C37.8334 4.12038 40.85 8.00141 42.3367 10.0586C46.1227 15.3313 46.4598 24.7184 45.388 32.3854Z" fill="#242D3C" stroke="#242D3C" stroke-linecap="round" stroke-linejoin="round"/>
<path d="M36.4183 35.1178L36.4184 35.1179L36.4242 35.1153C36.9514 34.8814 37.1885 34.2661 36.9546 33.7389L36.9126 33.6443L36.9052 33.6414L34.732 28.7434C35.9489 27.9657 36.8924 26.8266 37.4233 25.449C38.079 23.7473 38.0372 21.8811 37.2907 20.213C36.5451 18.5468 35.201 17.2586 33.4983 16.6024C31.7962 15.9466 29.9377 15.9917 28.263 16.7348C26.5882 17.4778 25.3076 18.8254 24.6517 20.5275C23.9958 22.2296 24.041 24.088 24.784 25.7628C25.5271 27.4375 26.8747 28.7181 28.5768 29.374C29.9553 29.9052 31.4265 29.9669 32.825 29.5889L35.0404 34.5821C35.1608 34.8534 35.3736 35.0361 35.6231 35.1322C35.8778 35.2304 36.1583 35.2253 36.4183 35.1178ZM26.6908 24.9168C26.175 23.7543 26.1458 22.4646 26.6026 21.2793C27.0594 20.0939 27.9464 19.1573 29.1089 18.6415C30.2715 18.1257 31.5612 18.0966 32.7465 18.5533C33.9318 19.0101 34.8685 19.8971 35.3843 21.0597C35.9 22.2222 35.9292 23.5119 35.4724 24.6972C35.0157 25.8825 34.1286 26.8192 32.9661 27.335C31.8036 27.8508 30.5139 27.8799 29.3285 27.4231C28.1432 26.9664 27.2066 26.0793 26.6908 24.9168Z" fill="#242D3C" stroke="#FBE8E9" stroke-width="0.5"/>
<path d="M21.9028 30.3284C21.9028 30.3284 21.9028 32.5325 23.865 32.5325C26.0864 32.5325 26.0864 31.0977 26.0864 31.0977" stroke="#242D3C" stroke-linecap="round" stroke-linejoin="round"/>
<path d="M5.4917 59.3934C5.4917 59.3934 15.0367 41.9877 28.1381 42.577C36.9342 42.577 42.5489 50.5558 42.5489 50.5558" stroke="#242D3C" stroke-miterlimit="10" stroke-linecap="round"/>
<path d="M31.3257 33.0446L33.1029 31.1933L35.3408 30.2218L37.5067 29.9954L39.6587 30.8265L41.5154 33.035L42.4939 35.334L43.1392 37.9289L43.2133 40.0408L46.7935 47.9062L49.9091 55.944L47.0691 57.35L44.6403 58.0873L42.276 50.831L40.4241 44.5627L39.7084 42.9324L37.9739 41.8053L36.816 40.6659L36.3537 40.0722L34.5859 40.2916L34.027 39.374L34.2427 38.6552L33.3298 38.1875L32.5283 36.5904L31.9702 35.6983L31.903 34.8272L31.716 34.2992L31.3257 33.0446Z" fill="#FBE8E9"/>
<path d="M43.1478 39.5222C43.1478 39.5222 42.668 28.5667 36.4433 29.8985C32.5893 30.7223 30.2134 34.1098 31.7525 34.7087" stroke="#242D3C" stroke-miterlimit="10" stroke-linecap="round"/>
<path d="M36.1209 32.2149C36.1209 32.2149 29.3801 34.1965 32.5969 36.4161" stroke="#242D3C" stroke-miterlimit="10" stroke-linecap="round"/>
<path d="M33.7023 38.5992C30.039 36.225 36.8042 34.2974 36.8042 34.2974" stroke="#242D3C" stroke-miterlimit="10" stroke-linecap="round"/>
<path d="M37.7493 36.6677C37.7493 36.6677 33.2986 37.6894 33.8938 39.815C34.4889 41.9406 38.2692 38.8266 38.2692 38.8266" stroke="#242D3C" stroke-miterlimit="10" stroke-linecap="round"/>
<path d="M36.7322 40.0716C36.7322 40.0716 37.8024 41.8296 39.9177 42.8084L44.2519 58.0921" stroke="#242D3C" stroke-miterlimit="10" stroke-linecap="round"/>
<path d="M43.9341 40.8445C43.9341 40.8445 49.5981 49.0694 52.3636 54.4621" stroke="#242D3C" stroke-miterlimit="10" stroke-linecap="round"/>
<path d="M39.385 46.3927C39.385 46.3927 42.6746 46.5509 45.1057 43.8169" stroke="#242D3C" stroke-miterlimit="10" stroke-linecap="round"/>
<path d="M25.705 44.8184C25.705 44.8184 19.3721 39.0361 19.019 42.5699C18.6659 46.1037 20.0391 49.3028 25.705 44.9828V44.8184Z" fill="#D7191F" stroke="#242D3C" stroke-miterlimit="10"/>
<path d="M25.7051 44.9834C25.7051 44.9834 32.0447 39.0352 32.3923 42.573C32.7399 46.1108 31.3743 49.2987 25.7051 44.9834Z" fill="#D7191F" stroke="#242D3C" stroke-miterlimit="10"/>
</svg>
