<svg width="106" height="19" viewBox="0 0 106 19" fill="none" xmlns="http://www.w3.org/2000/svg">
<path d="M16.74 9.22V7.52H14V0.479999H11.94V18.54H14V9.22H16.74ZM2.7 12.32V2.24H0.64V14.04H2.14C3.51333 14.04 4.9 13.9867 6.3 13.88C7.71333 13.76 9.18667 13.5467 10.72 13.24L10.48 11.54C9.10667 11.82 7.78 12.02 6.5 12.14C5.22 12.2467 3.95333 12.3067 2.7 12.32ZM32.2784 0.46H30.1984V18.56H32.2784V0.46ZM23.2384 1.74C22.5318 1.74 21.8784 1.84667 21.2784 2.06C20.6784 2.27333 20.1584 2.57333 19.7184 2.96C19.2918 3.33333 18.9518 3.78667 18.6984 4.32C18.4584 4.85333 18.3384 5.44 18.3384 6.08C18.3384 6.72 18.4584 7.30667 18.6984 7.84C18.9518 8.37333 19.2918 8.83333 19.7184 9.22C20.1584 9.59333 20.6784 9.88667 21.2784 10.1C21.8784 10.3133 22.5318 10.42 23.2384 10.42C23.9451 10.42 24.5984 10.3133 25.1984 10.1C25.7984 9.88667 26.3184 9.59333 26.7584 9.22C27.1984 8.83333 27.5384 8.37333 27.7784 7.84C28.0318 7.30667 28.1584 6.72 28.1584 6.08C28.1584 5.44 28.0318 4.85333 27.7784 4.32C27.5384 3.78667 27.1984 3.33333 26.7584 2.96C26.3184 2.57333 25.7984 2.27333 25.1984 2.06C24.5984 1.84667 23.9451 1.74 23.2384 1.74ZM23.2384 3.5C23.6651 3.5 24.0518 3.56 24.3984 3.68C24.7584 3.8 25.0651 3.97333 25.3184 4.2C25.5718 4.42667 25.7718 4.7 25.9184 5.02C26.0651 5.32667 26.1384 5.68 26.1384 6.08C26.1384 6.46667 26.0651 6.82 25.9184 7.14C25.7718 7.46 25.5718 7.73333 25.3184 7.96C25.0651 8.18667 24.7584 8.36 24.3984 8.48C24.0518 8.6 23.6651 8.66 23.2384 8.66C22.8251 8.66 22.4384 8.6 22.0784 8.48C21.7318 8.36 21.4318 8.18667 21.1784 7.96C20.9251 7.73333 20.7251 7.46 20.5784 7.14C20.4318 6.82 20.3584 6.46667 20.3584 6.08C20.3584 5.28 20.6251 4.65333 21.1584 4.2C21.7051 3.73333 22.3984 3.5 23.2384 3.5ZM17.4984 13.04L17.7584 14.74C18.5584 14.74 19.4184 14.7333 20.3384 14.72C21.2718 14.7067 22.2318 14.6733 23.2184 14.62C24.2051 14.5667 25.2051 14.4867 26.2184 14.38C27.2451 14.2733 28.2584 14.1267 29.2584 13.94L29.1184 12.44C28.1451 12.5867 27.1451 12.7 26.1184 12.78C25.0918 12.86 24.0718 12.92 23.0584 12.96C22.0584 13 21.0851 13.0267 20.1384 13.04C19.1918 13.04 18.3118 13.04 17.4984 13.04ZM55.0895 9.3V7.6H52.2695V0.479999H50.2095V18.54H52.2695V9.3H55.0895ZM44.6095 5.72V3.98H48.4295V2.28H38.6095V3.98H42.5495V5.72C42.5495 6.46667 42.4362 7.22667 42.2095 8C41.9962 8.77333 41.6895 9.51333 41.2895 10.22C40.8895 10.9133 40.4029 11.5467 39.8295 12.12C39.2695 12.68 38.6429 13.1267 37.9495 13.46L39.1295 15.1C39.6495 14.8467 40.1362 14.5267 40.5895 14.14C41.0562 13.74 41.4762 13.3 41.8495 12.82C42.2362 12.3267 42.5762 11.7933 42.8695 11.22C43.1629 10.6333 43.4095 10.0267 43.6095 9.4C44.0229 10.5733 44.6029 11.62 45.3495 12.54C46.0962 13.46 46.9762 14.16 47.9895 14.64L49.1295 13.02C48.4495 12.7 47.8295 12.2733 47.2695 11.74C46.7095 11.1933 46.2295 10.5933 45.8295 9.94C45.4429 9.27333 45.1429 8.58 44.9295 7.86C44.7162 7.12667 44.6095 6.41333 44.6095 5.72ZM72.348 5.88H69.788V0.46H67.728V13.78H69.788V7.58H72.348V5.88ZM65.288 10.96L66.328 9.32C65.648 9.08 65.0413 8.76667 64.508 8.38C63.9746 7.99333 63.5213 7.55333 63.148 7.06C62.788 6.56667 62.508 6.03333 62.308 5.46C62.1213 4.88667 62.028 4.3 62.028 3.7V1.58H59.948V3.68C59.948 4.33333 59.848 4.97333 59.648 5.6C59.4613 6.22667 59.1813 6.80667 58.808 7.34C58.4346 7.87333 57.968 8.34667 57.408 8.76C56.8613 9.17333 56.228 9.5 55.508 9.74L56.628 11.34C57.708 10.9533 58.6146 10.3933 59.348 9.66C60.0813 8.92667 60.6413 8.06 61.028 7.06C61.428 7.94 61.988 8.72667 62.708 9.42C63.428 10.1 64.288 10.6133 65.288 10.96ZM60.448 16.52V12.5H58.388V18.2H70.508V16.52H60.448ZM89.7064 6.2H87.3064V0.479999H85.2264V14.04H87.3064V7.9H89.7064V6.2ZM80.6064 8L82.6264 8.22C82.8531 7.04667 82.9797 6.02 83.0064 5.14C83.0464 4.24667 83.0664 3.49333 83.0664 2.88V1.84H73.9864V3.52H81.0464C81.0331 4.08 80.9997 4.72667 80.9464 5.46C80.9064 6.18 80.7931 7.02667 80.6064 8ZM84.2664 10.62L84.1264 9.12C83.2331 9.26667 82.3131 9.37333 81.3664 9.44C80.4331 9.50667 79.4864 9.56 78.5264 9.6V5.96H76.4864V9.66C75.8464 9.68667 75.2264 9.7 74.6264 9.7H72.8864L73.1064 11.38C73.8931 11.38 74.7397 11.3733 75.6464 11.36C76.5531 11.3333 77.4864 11.2933 78.4464 11.24C79.4197 11.1867 80.3997 11.1133 81.3864 11.02C82.3731 10.9133 83.3331 10.78 84.2664 10.62ZM77.6864 16.52V12.84H75.6064V18.2H87.8864V16.52H77.6864ZM105.385 0.439999H103.305V18.58H105.385V0.439999ZM93.5848 12.58V8.78H99.8848V2.08H91.4648V3.76H97.8048V7.12H91.5048V14.28H93.0448C94.6315 14.28 96.1382 14.24 97.5648 14.16C98.9915 14.08 100.478 13.9067 102.025 13.64L101.805 11.96C100.378 12.1867 99.0048 12.3467 97.6848 12.44C96.3782 12.52 95.0115 12.5667 93.5848 12.58Z" fill="black"/>
</svg>
