<svg width="24" height="24" viewBox="0 0 24 24" fill="none" xmlns="http://www.w3.org/2000/svg">
<path fill-rule="evenodd" clip-rule="evenodd" d="M11.9984 4.50003C11.1235 4.50003 10.2893 4.6261 9.49168 4.85955C8.6966 5.09225 7.86343 4.63636 7.63072 3.84129C7.39802 3.04622 7.85391 2.21304 8.64898 1.98034C9.71261 1.66903 10.8304 1.50003 11.9984 1.50003C13.1663 1.50003 14.2841 1.66903 15.3477 1.98034C16.1428 2.21304 16.5987 3.04622 16.366 3.84129C16.1333 4.63636 15.3001 5.09225 14.505 4.85955C13.7074 4.6261 12.8732 4.50003 11.9984 4.50003ZM17.7864 4.61638C18.3351 3.99572 19.283 3.93739 19.9037 4.48609C20.7961 5.27506 21.5633 6.1842 22.1879 7.2116C22.7869 8.18878 23.2406 9.25384 23.5381 10.3789C23.7498 11.1799 23.2722 12.0008 22.4713 12.2125C21.6703 12.4242 20.8494 11.9466 20.6377 11.1457C20.4134 10.2971 20.0733 9.50186 19.6289 8.77742L19.6257 8.77207C19.1611 8.00743 18.5896 7.32861 17.9167 6.7337C17.296 6.185 17.2377 5.23705 17.7864 4.61638ZM23.7588 15.5711C23.907 14.756 23.3664 13.9752 22.5513 13.827C21.7362 13.6788 20.9554 14.2194 20.8072 15.0344C20.6311 16.0031 20.3096 16.9055 19.8665 17.7146C19.4169 18.5356 18.8521 19.275 18.1819 19.916C17.5833 20.4886 17.5622 21.4381 18.1348 22.0368C18.7074 22.6354 19.6569 22.6565 20.2556 22.0839C21.1516 21.2268 21.9033 20.2412 22.4978 19.1556C23.0988 18.0581 23.5263 16.8495 23.7588 15.5711ZM1.44848 13.827C2.26355 13.6788 3.04442 14.2194 3.19262 15.0344C3.36873 16.0031 3.6902 16.9055 4.13331 17.7146C4.5829 18.5356 5.14775 19.275 5.81787 19.916C6.41652 20.4886 6.43762 21.4381 5.865 22.0368C5.29237 22.6354 4.34286 22.6565 3.7442 22.0839C2.84816 21.2268 2.09653 20.2412 1.50202 19.1556C0.901017 18.0581 0.473454 16.8495 0.241008 15.5711C0.0928144 14.756 0.63342 13.9752 1.44848 13.827ZM6.07358 6.7337C6.69424 6.185 6.75257 5.23705 6.20387 4.61638C5.65517 3.99572 4.70722 3.93739 4.08656 4.48609C3.19411 5.27507 2.42697 6.1842 1.80235 7.21161C1.20338 8.18878 0.749621 9.25384 0.452181 10.3789C0.240445 11.1799 0.718067 12.0008 1.51898 12.2125C2.31989 12.4242 3.1408 11.9466 3.35254 11.1457C3.57688 10.2971 3.91699 9.50186 4.36131 8.77742L4.36132 8.77743L4.36458 8.77207C4.82916 8.00743 5.40065 7.32861 6.07358 6.7337Z" fill="#242D3C"/>
<path d="M8.21655 13.3484L10.8961 16L15.8964 11" stroke="#D7191F" stroke-width="3" stroke-linecap="round" stroke-linejoin="round"/>
</svg>
