<svg width="79" height="32" viewBox="0 0 79 32" fill="none" xmlns="http://www.w3.org/2000/svg">
<path d="M9.24 6.344C8.33 5.994 7.532 5.518 6.818 4.93C6.328 4.524 5.936 4.034 5.614 3.46C5.656 3.362 5.684 3.25 5.726 3.138C5.992 2.368 6.132 1.57 6.146 0.729999H4.242C4.13 3.376 2.814 5.644 0.14 6.792L1.316 8.136C2.646 7.506 3.836 6.498 4.69 5.224L4.83 5.028C5.726 6.26 6.93 7.24 8.19 7.772L9.24 6.344ZM2.534 8.654V12.938H12.502V11.342H4.41V8.654H2.534ZM12.152 9.732V0.533999H10.276V9.732H12.152ZM25.9887 7.842V6.358H23.1467V4.65C23.3847 4.454 23.5947 4.23 23.7487 3.978C23.9727 3.628 24.0847 3.236 24.0847 2.816C24.0847 1.122 22.2227 0.00199926 19.8287 0.00199926C18.6387 0.00199926 17.5747 0.282 16.8047 0.771999C15.6427 1.444 15.2227 2.9 15.8947 3.978C16.0487 4.23 16.2587 4.454 16.5107 4.664V6.358H13.6687V7.842H25.9887ZM19.8847 8.262C17.4347 8.262 15.6987 9.354 15.6987 10.992C15.6987 12.63 17.4347 13.722 19.8847 13.722C22.3347 13.722 24.0707 12.63 24.0707 10.992C24.0707 9.354 22.3347 8.262 19.8847 8.262ZM19.8287 1.486C21.1307 1.486 22.2087 2.032 22.2087 2.816C22.2087 3.6 21.1307 4.146 19.8287 4.146C18.5267 4.146 17.4487 3.6 17.4487 2.816C17.4487 2.032 18.5267 1.486 19.8287 1.486ZM19.8847 12.238C18.3727 12.238 17.5747 11.734 17.5747 10.992C17.5747 10.25 18.3727 9.746 19.8847 9.746C21.3967 9.746 22.1947 10.25 22.1947 10.992C22.1947 11.734 21.3967 12.238 19.8847 12.238ZM19.8287 5.63C20.3327 5.63 20.8087 5.588 21.2707 5.49V6.358H18.3867V5.49C18.8347 5.588 19.3107 5.63 19.8287 5.63ZM28.3734 8.99V12.84H38.4674V11.244H30.2494V8.99H28.3734ZM38.0754 9.872V5.644H39.4754V4.02H38.0754V0.533999H36.1994V9.872H38.0754ZM35.6954 8.178V6.638L31.3134 6.694V4.02H29.4094V6.722L26.7354 6.75V8.318L35.6954 8.178ZM34.5614 5.938C34.8834 4.594 35.0094 2.956 35.0094 0.814H27.2814V2.382H33.0774C33.0774 3.292 32.9794 4.594 32.7134 5.938H34.5614ZM49.1961 10.656V9.088L42.8261 9.354V6.652H47.5301V0.94H40.9501V2.536H45.6541V5.07H40.9501V11.09L49.1961 10.656ZM51.6321 13.078V0.533999H49.7561V13.078H51.6321Z" fill="#242D3C"/>
<path d="M7.85 30.75V25.71H9.3V25.03H7.85V21.83H7.09V30.75H7.85ZM0.83 22.11V29.08L6.55 28.77V28.11L1.59 28.34V22.11H0.83ZM17.9534 30.75V21.83H17.1934V30.75H17.9534ZM16.7934 29.21V28.55L9.97336 28.63V29.31L16.7934 29.21ZM13.2234 22.05C11.6234 22.05 10.5234 23.26 10.5234 24.57C10.5234 25.88 11.6234 27.09 13.2234 27.09C14.8234 27.09 15.9234 25.88 15.9234 24.57C15.9234 23.26 14.8234 22.05 13.2234 22.05ZM13.2234 26.43C12.0434 26.43 11.2834 25.53 11.2834 24.57C11.2834 23.61 12.0434 22.71 13.2234 22.71C14.4034 22.71 15.1634 23.61 15.1634 24.57C15.1634 25.53 14.4034 26.43 13.2234 26.43ZM28.708 26.31C27.718 25.91 26.838 25.26 26.218 24.44C26.088 24.27 25.978 24.09 25.878 23.9L25.978 23.63C26.148 23.11 26.248 22.56 26.258 21.99H25.478C25.368 23.99 24.288 25.77 22.368 26.65L22.848 27.18C23.818 26.7 24.658 25.97 25.258 25.08C25.368 24.92 25.478 24.75 25.568 24.58C25.638 24.7 25.728 24.82 25.818 24.93C26.468 25.78 27.358 26.5 28.248 26.9L28.708 26.31ZM30.898 30.65V29.99H24.798V27.71H24.038V30.65H30.898ZM30.648 28.41V21.83H29.888V28.41H30.648ZM36.3313 21.47C34.6713 21.47 33.3913 22.25 33.3913 23.41C33.3913 23.7 33.4613 23.97 33.6113 24.21C33.7613 24.44 33.9513 24.63 34.2013 24.8V26.19H31.9513V26.83H40.7113V26.19H38.4513V24.8C38.7013 24.63 38.8913 24.44 39.0413 24.21C39.1913 23.97 39.2713 23.7 39.2713 23.41C39.2713 22.25 37.9913 21.47 36.3313 21.47ZM36.3713 27.32C34.7113 27.32 33.4313 28.06 33.4313 29.23C33.4313 30.4 34.7113 31.13 36.3713 31.13C38.0313 31.13 39.3113 30.4 39.3113 29.23C39.3113 28.06 38.0313 27.32 36.3713 27.32ZM36.3313 24.73C35.1113 24.73 34.1513 24.21 34.1513 23.41C34.1513 22.61 35.1113 22.09 36.3313 22.09C37.5513 22.09 38.5113 22.61 38.5113 23.41C38.5113 24.21 37.5513 24.73 36.3313 24.73ZM36.3713 30.49C35.1513 30.49 34.1913 30.02 34.1913 29.23C34.1913 28.44 35.1513 27.97 36.3713 27.97C37.5913 27.97 38.5513 28.44 38.5513 29.23C38.5513 30.02 37.5913 30.49 36.3713 30.49ZM35.1713 25.21C35.5313 25.3 35.9213 25.35 36.3313 25.35C36.7413 25.35 37.1313 25.3 37.4913 25.21L37.6813 25.16V26.19H34.9713V25.16C35.0313 25.18 35.1013 25.2 35.1713 25.21ZM46.1959 27.34V30.69H52.7959V27.34H46.1959ZM46.9559 27.98H52.0359V30.03H46.9559V27.98ZM50.6959 22.14H45.1059V22.8H47.6659C47.6159 23.05 47.5459 23.3 47.4559 23.53C46.9659 24.75 45.8859 25.77 44.5359 26.31L44.9959 26.86C45.8759 26.47 46.7559 25.85 47.4059 25.06C47.5359 24.91 47.6459 24.76 47.7559 24.61C47.8959 24.78 48.0459 24.94 48.2059 25.09C48.9059 25.73 49.7559 26.26 50.6059 26.58L51.0359 25.96C50.4059 25.76 49.8259 25.49 49.2959 25.14C48.7959 24.81 48.3959 24.44 48.0959 24.02C48.1359 23.93 48.1759 23.85 48.2059 23.76C48.3359 23.45 48.4359 23.13 48.4859 22.8H50.6959V22.14ZM50.1159 24.45H52.0559V26.84H52.8159V21.83H52.0559V23.79H50.1159V24.45ZM58.8893 30.75V27.55H62.8793V26.89H54.1193V27.55H58.1093V30.75H58.8893ZM62.5193 25.3C61.6493 25.13 60.8893 24.85 60.2593 24.46C59.6993 24.11 59.2393 23.66 58.8793 23.11C59.0293 22.76 59.1193 22.38 59.1393 21.98H58.3393C58.2093 23.79 56.3893 24.99 54.3593 25.31L54.7693 25.91C55.7793 25.75 56.8593 25.29 57.6893 24.61C58.0093 24.34 58.2893 24.05 58.5193 23.72C58.9293 24.27 59.3993 24.71 59.9493 25.05C60.6093 25.46 61.3293 25.75 62.1193 25.92L62.5193 25.3ZM63.5627 26.4V27.06H72.3227V26.4H63.5627ZM71.6727 30.65V29.99H65.3027V27.81H64.5427V30.65H71.6727ZM64.5527 21.89V25.13H71.4227V24.48H65.3127V21.89H64.5527ZM77.756 24.16C77.756 22.95 76.856 21.85 75.166 21.85C74.156 21.85 73.256 22.58 72.886 23.38L73.426 23.73C73.776 23.03 74.456 22.47 75.166 22.47C76.296 22.47 77.016 23.2 77.016 24.16C77.016 25.23 76.156 26.06 74.726 26.47V28.53H75.466V26.87C76.626 26.47 77.756 25.56 77.756 24.16ZM74.636 29.34H75.596V30.3H74.636V29.34Z" fill="#666666"/>
</svg>
