<svg width="53" height="14" viewBox="0 0 53 14" fill="none" xmlns="http://www.w3.org/2000/svg">
<path opacity="0.3" d="M8.904 0.996H1.078V1.92H4.676C4.606 2.34 4.508 2.746 4.382 3.138C3.71 5.042 2.24 6.554 0.28 7.394L0.924 8.164C2.198 7.59 3.43 6.624 4.34 5.434C4.494 5.238 4.634 5.028 4.76 4.818C4.956 5.07 5.166 5.322 5.404 5.56C6.37 6.526 7.602 7.352 8.778 7.828L9.38 6.96C8.498 6.638 7.686 6.218 6.944 5.7C6.23 5.196 5.656 4.608 5.222 3.936L5.432 3.432C5.614 2.942 5.74 2.438 5.81 1.92H8.904V0.996ZM8.092 4.51H10.808V9.774H11.872V0.562H10.808V3.586H8.092V4.51ZM12.222 12.91V11.986H3.682V8.794H2.618V12.91H12.222ZM20.9627 10.404C20.1927 9.83 19.5487 9.158 19.0027 8.388C18.5407 7.716 18.1487 6.988 17.8267 6.204C17.8547 6.134 17.8827 6.064 17.8967 5.994C18.0927 5.336 18.2187 4.622 18.2607 3.88H20.7247V2.956H14.1447V3.88H17.1687C17.1267 4.524 17.0287 5.14 16.8607 5.742C16.2447 7.926 14.9707 9.676 13.4727 10.782L14.2287 11.454C15.2507 10.614 16.2447 9.522 16.9867 8.192C17.1267 7.926 17.2527 7.66 17.3787 7.394C17.6587 7.982 17.9807 8.542 18.3447 9.06C18.9187 9.872 19.5627 10.572 20.2767 11.16L20.9627 10.404ZM22.9087 12.7V0.701999H21.8587V5.854H19.8287V6.806H21.8587V12.7H22.9087ZM25.4987 13.036V0.562H24.4347V13.036H25.4987ZM19.3947 1.654V0.729999H15.6147V1.654H19.3947ZM34.0574 7.394C31.6914 7.394 30.0814 8.64 30.0814 10.348C30.0814 12.056 31.6914 13.302 34.0574 13.302C36.3954 13.302 38.0334 12.056 38.0334 10.348C38.0334 8.64 36.3954 7.394 34.0574 7.394ZM34.0574 12.378C32.2094 12.378 31.1454 11.524 31.1454 10.348C31.1454 9.172 32.2094 8.318 34.0574 8.318C35.9054 8.318 36.9694 9.172 36.9694 10.348C36.9694 11.524 35.9054 12.378 34.0574 12.378ZM35.4574 5.798C34.5754 5.504 33.7494 5.07 32.9934 4.51C32.3914 4.062 31.8874 3.544 31.5094 2.956L31.5514 2.83C31.8314 2.172 31.9854 1.5 32.0274 0.785999H30.9354C30.7114 3.25 29.0734 5.378 26.5814 6.386L27.1974 7.156C28.4294 6.638 29.5914 5.742 30.4734 4.636C30.6834 4.37 30.8794 4.09 31.0614 3.796C31.1874 3.95 31.3134 4.118 31.4534 4.272C32.3634 5.294 33.6234 6.204 34.8414 6.652L35.4574 5.798ZM37.8654 7.52V4.244H39.5874V3.292H37.8654V0.562H36.8014V7.52H37.8654ZM41.4541 8.99V12.966H51.0581V8.99H46.8161V7.646H52.4021V6.722H40.1381V7.646H45.7241V8.99H41.4541ZM41.3561 0.785999V1.682H42.9521L43.0501 4.636H40.9641V5.546H51.5621V4.636H49.4621L49.5601 1.682H51.1701V0.785999H41.3561ZM49.9941 9.886V12.042H42.5181V9.886H49.9941ZM44.0161 1.682H48.4961L48.3981 4.636H44.1141L44.0161 1.682Z" fill="#242D3C"/>
</svg>
