<svg width="52" height="14" viewBox="0 0 52 14" fill="none" xmlns="http://www.w3.org/2000/svg">
<path opacity="0.3" d="M9.99 13.05V5.994H12.02V5.042H9.99V0.562H8.926V13.05H9.99ZM0.162 1.094V10.782L8.17 10.348V9.424L1.226 9.746V2.018H6.574V1.094H0.162ZM24.0507 13.05V0.562H22.9867V13.05H24.0507ZM16.9807 1.15C14.7407 1.15 13.0187 2.858 13.0187 5.378C13.0187 7.912 14.7407 9.62 16.9807 9.62C19.2207 9.62 20.9427 7.912 20.9427 5.378C20.9427 2.858 19.2207 1.15 16.9807 1.15ZM16.9807 2.102C18.6467 2.102 19.8507 3.348 19.8507 5.364C19.8507 7.338 18.7307 8.668 16.9807 8.668C15.2307 8.668 14.1107 7.338 14.1107 5.364C14.1107 3.348 15.3147 2.102 16.9807 2.102ZM26.5754 3.81V7.73L32.6794 7.422V6.54L27.6254 6.75V4.678H31.3074V0.911999H26.5754V1.808H30.2574V3.81H26.5754ZM37.3974 13.12V8.976H27.5974V9.9H36.3334V13.12H37.3974ZM34.6394 8.276V0.674H33.5894V3.642H31.8534V4.566H33.5894V8.276H34.6394ZM37.4254 8.276V0.562H36.3614V8.276H37.4254ZM39.1381 10.81V11.734H51.4021V10.81H39.1381ZM49.8621 4.244H41.5881V2.018H50.0021V1.094H40.5241V8.402H50.2821V7.464H41.5881V5.168H49.8621V4.244Z" fill="#242D3C"/>
</svg>
