<svg width="142" height="14" viewBox="0 0 142 14" fill="none" xmlns="http://www.w3.org/2000/svg">
<path d="M2.092 11.356C2.848 10.782 3.52 10.138 4.122 9.41C4.64 8.78 5.102 8.108 5.48 7.38L5.564 7.534C6.46 8.948 7.706 10.25 8.966 11.062L10.1 9.69C8.35 8.696 7.062 7.31 6.264 5.532C6.39 5.126 6.502 4.72 6.6 4.286C6.726 3.754 6.81 3.208 6.866 2.634H9.694V1.038H1.672V2.634H4.948C4.906 3.068 4.836 3.502 4.752 3.922C4.248 6.512 2.974 8.654 0.832 10.054L2.092 11.356ZM12.41 13.078V6.624H14.188V5H12.41V0.533999H10.534V13.078H12.41ZM23.3207 6.344C22.4107 5.994 21.6127 5.518 20.8987 4.93C20.4087 4.524 20.0167 4.034 19.6947 3.46C19.7367 3.362 19.7647 3.25 19.8067 3.138C20.0727 2.368 20.2127 1.57 20.2267 0.729999H18.3227C18.2107 3.376 16.8947 5.644 14.2207 6.792L15.3967 8.136C16.7267 7.506 17.9167 6.498 18.7707 5.224L18.9107 5.028C19.8067 6.26 21.0107 7.24 22.2707 7.772L23.3207 6.344ZM16.5027 8.654V12.938H26.3307V11.342H18.3787V8.654H16.5027ZM25.9247 9.732V5.07H27.4087V3.446H25.9247V0.533999H24.0487V9.732H25.9247ZM29.7934 2.704C29.7934 4.342 31.6554 5.406 34.0494 5.406C36.4434 5.406 38.3054 4.342 38.3054 2.704C38.3054 1.066 36.4434 0.00199926 34.0494 0.00199926C31.6554 0.00199926 29.7934 1.066 29.7934 2.704ZM34.0494 1.458C35.3514 1.458 36.4294 1.962 36.4294 2.704C36.4294 3.446 35.3514 3.95 34.0494 3.95C32.7474 3.95 31.6694 3.446 31.6694 2.704C31.6694 1.962 32.7474 1.458 34.0494 1.458ZM40.2094 7.324V5.868H27.8894V7.324H40.2094ZM39.2154 12.994V11.608H31.0254V11.09H38.9214V7.954H29.1494V9.326H37.0454V9.83H29.1494V12.994H39.2154ZM57.5059 12.994V8.318H55.6299V9.186H49.5119V8.318H47.6359V12.994H57.5059ZM47.1179 4.832C48.2239 4.65 49.3859 4.216 50.2959 3.53C50.4219 3.432 50.5339 3.32 50.6459 3.222C50.7019 3.278 50.7579 3.334 50.8279 3.376C51.7519 4.104 52.9559 4.552 54.1039 4.608L54.9859 3.18C53.7539 3.04 52.6059 2.802 51.7379 2.186C51.6679 2.144 51.6119 2.088 51.5559 2.046C51.7659 1.612 51.9059 1.136 51.9479 0.618H50.0439C49.8619 2.27 48.4059 3.026 46.2219 3.404L47.1179 4.832ZM51.4019 8.01V6.638L55.1539 6.582V5.168L45.9139 5.28V6.722L49.4979 6.666V8.01H51.4019ZM55.6579 0.533999V7.898H57.5339V0.533999H55.6579ZM55.6299 11.454H49.5119V10.614H55.6299V11.454ZM59.4846 2.704H63.0266C62.8726 5.35 61.3466 8.178 58.7426 10.096L60.0726 11.314C62.8166 9.102 64.9866 5.714 64.9866 1.108H59.4846V2.704ZM64.6366 7.016H66.2746V12.756H68.0946V0.674H66.2746V5.392H64.6366V7.016ZM70.7546 13.064V0.533999H68.9066V13.064H70.7546ZM78.223 8.99V12.84H88.317V11.244H80.099V8.99H78.223ZM87.925 9.872V5.644H89.325V4.02H87.925V0.533999H86.049V9.872H87.925ZM85.545 8.178V6.638L81.163 6.694V4.02H79.259V6.722L76.585 6.75V8.318L85.545 8.178ZM84.411 5.938C84.733 4.594 84.859 2.956 84.859 0.814H77.131V2.382H82.927C82.927 3.292 82.829 4.594 82.563 5.938H84.411ZM99.0457 10.656V9.088L92.6757 9.354V6.652H97.3797V0.94H90.7997V2.536H95.5037V5.07H90.7997V11.09L99.0457 10.656ZM101.482 13.078V0.533999H99.6057V13.078H101.482ZM109.592 2.102V0.505999H105.252V2.102H109.592ZM111.412 4.356V2.76H103.376V4.356H111.412ZM107.394 4.706C105.168 4.706 103.838 6.19 103.838 8.052C103.838 9.914 105.168 11.398 107.394 11.398C109.62 11.398 110.95 9.914 110.95 8.052C110.95 6.19 109.62 4.706 107.394 4.706ZM107.394 9.83C106.26 9.83 105.714 9.102 105.714 8.052C105.714 7.002 106.26 6.274 107.394 6.274C108.528 6.274 109.074 7.002 109.074 8.052C109.074 9.102 108.528 9.83 107.394 9.83ZM114.142 13.078V7.184H115.92V5.56H114.142V0.533999H112.266V13.078H114.142ZM123.597 9.746C122.827 9.074 122.169 8.318 121.651 7.478C121.245 6.82 120.895 6.092 120.629 5.294C120.965 3.992 121.147 2.564 121.189 0.981999H119.313C119.257 5.028 118.109 8.108 115.883 10.222L117.241 11.328C118.319 10.222 119.201 8.92 119.873 7.422C120.055 7.8 120.237 8.15 120.433 8.5C120.965 9.41 121.623 10.236 122.393 11.006L123.597 9.746ZM122.155 6.134H124.101V12.756H125.921V0.674H124.101V4.538H122.155V6.134ZM128.511 13.064V0.533999H126.663V13.064H128.511ZM135.754 0.478C132.996 0.478 131.12 2.34 131.12 4.44C131.12 6.54 132.996 8.402 135.754 8.402C138.554 8.402 140.416 6.54 140.416 4.44C140.416 2.34 138.554 0.478 135.754 0.478ZM141.942 12.154V10.558H139.534V8.444H137.658V10.558H133.948V8.444H132.072V10.558H129.622V12.154H141.942ZM135.768 6.806C134.032 6.806 132.996 5.714 132.996 4.44C132.996 3.18 134.032 2.074 135.768 2.074C137.504 2.074 138.54 3.18 138.54 4.44C138.54 5.714 137.504 6.806 135.768 6.806Z" fill="#242D3C"/>
</svg>
