<svg width="167" height="20" viewBox="0 0 167 20" fill="none" xmlns="http://www.w3.org/2000/svg">
<path d="M5.526 1.096C2.844 1.096 0.702 3.022 0.702 5.722C0.702 8.422 2.844 10.348 5.526 10.348C8.208 10.348 10.35 8.422 10.35 5.722C10.35 3.022 8.208 1.096 5.526 1.096ZM5.526 8.296C4.032 8.296 3.114 7.252 3.114 5.722C3.114 4.192 4.032 3.148 5.526 3.148C7.02 3.148 7.938 4.192 7.938 5.722C7.938 7.252 7.02 8.296 5.526 8.296ZM14.868 13.084V7.09H16.776V5.002H14.868V1.258H12.456V13.084H14.868ZM2.754 11.698V17.206H15.39V15.154H5.166V11.698H2.754ZM26.934 10.078C23.91 10.078 21.732 11.68 21.732 13.966C21.732 16.252 23.91 17.854 26.934 17.854C29.958 17.854 32.136 16.252 32.136 13.966C32.136 11.68 29.958 10.078 26.934 10.078ZM25.602 3.868H30.03V4.66H25.602V6.568H30.03V10.24H32.442V1.258H30.03V1.96H25.602V3.868ZM18.582 1.6V9.664L28.77 9.178V7.198L20.994 7.468V1.6H18.582ZM26.934 15.874C25.134 15.874 24.144 15.118 24.144 13.966C24.144 12.814 25.134 12.058 26.934 12.058C28.734 12.058 29.724 12.814 29.724 13.966C29.724 15.118 28.734 15.874 26.934 15.874ZM42.8161 3.274V1.222H37.2361V3.274H42.8161ZM45.1561 6.172V4.12H34.8241V6.172H45.1561ZM39.9901 6.622C37.1281 6.622 35.4181 8.53 35.4181 10.924C35.4181 13.318 37.1281 15.226 39.9901 15.226C42.8521 15.226 44.5621 13.318 44.5621 10.924C44.5621 8.53 42.8521 6.622 39.9901 6.622ZM39.9901 13.21C38.5321 13.21 37.8301 12.274 37.8301 10.924C37.8301 9.574 38.5321 8.638 39.9901 8.638C41.4481 8.638 42.1501 9.574 42.1501 10.924C42.1501 12.274 41.4481 13.21 39.9901 13.21ZM48.6661 17.386V9.808H50.9521V7.72H48.6661V1.258H46.2541V17.386H48.6661ZM60.8221 13.102C59.8321 12.238 58.9861 11.266 58.3201 10.186C57.7981 9.34 57.3481 8.404 57.0061 7.378C57.4381 5.704 57.6721 3.868 57.7261 1.834H55.3141C55.2421 7.036 53.7661 10.996 50.9041 13.714L52.6501 15.136C54.0361 13.714 55.1701 12.04 56.0341 10.114C56.2681 10.6 56.5021 11.05 56.7541 11.5C57.4381 12.67 58.2841 13.732 59.2741 14.722L60.8221 13.102ZM58.9681 8.458H61.4701V16.972H63.8101V1.438H61.4701V6.406H58.9681V8.458ZM67.1401 17.368V1.258H64.7641V17.368H67.1401ZM76.4522 1.186C72.9062 1.186 70.4942 3.58 70.4942 6.28C70.4942 8.98 72.9062 11.374 76.4522 11.374C80.0522 11.374 82.4462 8.98 82.4462 6.28C82.4462 3.58 80.0522 1.186 76.4522 1.186ZM84.4082 16.198V14.146H81.3122V11.428H78.9002V14.146H74.1302V11.428H71.7182V14.146H68.5682V16.198H84.4082ZM76.4702 9.322C74.2382 9.322 72.9062 7.918 72.9062 6.28C72.9062 4.66 74.2382 3.238 76.4702 3.238C78.7022 3.238 80.0342 4.66 80.0342 6.28C80.0342 7.918 78.7022 9.322 76.4702 9.322ZM87.8162 14.65H85.2962V17.17H86.3042C86.2502 17.728 86.0702 18.232 85.4942 18.61L86.2862 19.384C87.2222 18.682 87.8162 17.764 87.8162 16.738V14.65ZM109.874 10.132V1.258H107.462V10.132H109.874ZM97.4897 10.852V17.278H109.838V10.852H97.4897ZM99.9017 12.868H107.426V15.226H99.9017V12.868ZM96.1577 3.796H102.278C101.702 6.028 98.9837 7.792 95.0957 8.566L96.2297 10.438C100.568 9.52 104.96 6.82 104.906 1.78H96.1577V3.796ZM126.296 5.2H116.144V3.49H126.116V1.51H113.732V7.198H118.79V8.314H112.004V10.294H127.844V8.314H121.238V7.198H126.296V5.2ZM119.996 10.834C116.846 10.834 114.614 12.292 114.614 14.524C114.614 16.756 116.846 18.214 119.996 18.214C123.146 18.214 125.378 16.756 125.378 14.524C125.378 12.292 123.146 10.834 119.996 10.834ZM119.996 16.27C118.052 16.27 117.026 15.586 117.026 14.524C117.026 13.462 118.052 12.778 119.996 12.778C121.94 12.778 122.966 13.462 122.966 14.524C122.966 15.586 121.94 16.27 119.996 16.27ZM134.726 5.542C131.936 5.542 130.244 6.748 130.244 8.53C130.244 10.312 131.936 11.518 134.726 11.518C137.498 11.518 139.208 10.312 139.208 8.53C139.208 6.748 137.498 5.542 134.726 5.542ZM139.658 7.594H141.818V8.692H139.658V10.672H141.818V13.408H144.23V1.258H141.818V5.614H139.658V7.594ZM131.864 12.382V17.206H144.68V15.154H134.276V12.382H131.864ZM140.054 5.164V3.328H129.254V5.164H140.054ZM137.714 2.716V0.879999H131.594V2.716H137.714ZM134.726 9.754C133.286 9.754 132.62 9.268 132.62 8.53C132.62 7.792 133.286 7.306 134.726 7.306C136.166 7.306 136.832 7.792 136.832 8.53C136.832 9.268 136.166 9.754 134.726 9.754ZM147.008 1.6V9.448L157.736 8.962V6.946L149.42 7.216V1.6H147.008ZM160.868 10.132V1.258H158.456V10.132H160.868ZM148.484 10.852V17.278H160.832V10.852H148.484ZM150.896 12.868H158.42V15.226H150.896V12.868ZM166.04 1.654H163.664L163.862 12.706H165.842L166.04 1.654ZM163.592 14.146H166.112V16.666H163.592V14.146Z" fill="#242D3C"/>
</svg>
