<svg width="194" height="14" viewBox="0 0 194 14" fill="none" xmlns="http://www.w3.org/2000/svg">
<path d="M12.012 7.436V0.533999H10.136V7.436H12.012ZM2.38 7.996V12.994H11.984V7.996H2.38ZM4.256 9.564H10.108V11.398H4.256V9.564ZM1.344 2.508H6.104C5.656 4.244 3.542 5.616 0.518 6.218L1.4 7.674C4.774 6.96 8.19 4.86 8.148 0.94H1.344V2.508ZM24.7847 3.6H16.8887V2.27H24.6447V0.729999H15.0127V5.154H18.9467V6.022H13.6687V7.562H25.9887V6.022H20.8507V5.154H24.7847V3.6ZM19.8847 7.982C17.4347 7.982 15.6987 9.116 15.6987 10.852C15.6987 12.588 17.4347 13.722 19.8847 13.722C22.3347 13.722 24.0707 12.588 24.0707 10.852C24.0707 9.116 22.3347 7.982 19.8847 7.982ZM19.8847 12.21C18.3727 12.21 17.5747 11.678 17.5747 10.852C17.5747 10.026 18.3727 9.494 19.8847 9.494C21.3967 9.494 22.1947 10.026 22.1947 10.852C22.1947 11.678 21.3967 12.21 19.8847 12.21ZM31.3414 3.866C29.1714 3.866 27.8554 4.804 27.8554 6.19C27.8554 7.576 29.1714 8.514 31.3414 8.514C33.4974 8.514 34.8274 7.576 34.8274 6.19C34.8274 4.804 33.4974 3.866 31.3414 3.866ZM35.1774 5.462H36.8574V6.316H35.1774V7.856H36.8574V9.984H38.7334V0.533999H36.8574V3.922H35.1774V5.462ZM29.1154 9.186V12.938H39.0834V11.342H30.9914V9.186H29.1154ZM35.4854 3.572V2.144H27.0854V3.572H35.4854ZM33.6654 1.668V0.24H28.9054V1.668H33.6654ZM31.3414 7.142C30.2214 7.142 29.7034 6.764 29.7034 6.19C29.7034 5.616 30.2214 5.238 31.3414 5.238C32.4614 5.238 32.9794 5.616 32.9794 6.19C32.9794 6.764 32.4614 7.142 31.3414 7.142ZM40.8941 0.8V6.904L49.2381 6.526V4.958L42.7701 5.168V0.8H40.8941ZM51.6741 7.436V0.533999H49.7981V7.436H51.6741ZM42.0421 7.996V12.994H51.6461V7.996H42.0421ZM43.9181 9.564H49.7701V11.398H43.9181V9.564ZM55.2348 2.704C55.2348 4.342 57.0968 5.406 59.4908 5.406C61.8848 5.406 63.7468 4.342 63.7468 2.704C63.7468 1.066 61.8848 0.00199926 59.4908 0.00199926C57.0968 0.00199926 55.2348 1.066 55.2348 2.704ZM59.4908 1.458C60.7928 1.458 61.8708 1.962 61.8708 2.704C61.8708 3.446 60.7928 3.95 59.4908 3.95C58.1888 3.95 57.1108 3.446 57.1108 2.704C57.1108 1.962 58.1888 1.458 59.4908 1.458ZM65.6508 7.324V5.868H53.3308V7.324H65.6508ZM64.6568 12.994V11.608H56.4668V11.09H64.3628V7.954H54.5908V9.326H62.4868V9.83H54.5908V12.994H64.6568ZM75.7373 0.533999C73.6093 0.533999 72.1253 2.088 72.1253 3.782C72.1253 5.476 73.6093 7.03 75.7373 7.03C77.8653 7.03 79.3493 5.476 79.3493 3.782C79.3493 2.088 77.8653 0.533999 75.7373 0.533999ZM82.8913 13.078V0.533999H81.0153V13.078H82.8913ZM76.8013 12.784V9.046L80.5253 8.99V7.45L71.3553 7.562V9.13L74.8973 9.074V12.784H76.8013ZM75.7373 5.462C74.6733 5.462 74.0013 4.65 74.0013 3.782C74.0013 2.914 74.6733 2.102 75.7373 2.102C76.8013 2.102 77.4733 2.914 77.4733 3.782C77.4733 4.65 76.8013 5.462 75.7373 5.462ZM91.142 1.668V0.24H86.242V1.668H91.142ZM92.962 3.572V2.144H84.422V3.572H92.962ZM88.804 3.866C86.606 3.866 85.248 4.804 85.248 6.19C85.248 7.576 86.606 8.514 88.804 8.514C91.002 8.514 92.36 7.576 92.36 6.19C92.36 4.804 91.002 3.866 88.804 3.866ZM88.804 7.142C87.642 7.142 87.096 6.764 87.096 6.19C87.096 5.616 87.642 5.238 88.804 5.238C89.966 5.238 90.512 5.616 90.512 6.19C90.512 6.764 89.966 7.142 88.804 7.142ZM95.622 9.984V5.77H97.106V4.146H95.622V0.533999H93.746V9.984H95.622ZM86.2 9.186V12.938H96.028V11.342H88.076V9.186H86.2ZM103.328 7.24C104.728 7.128 106.324 6.778 107.57 6.106C107.836 5.966 108.088 5.812 108.298 5.644C108.48 5.826 108.69 5.98 108.928 6.12C110.132 6.848 111.7 7.17 113.212 7.198L114.164 5.714C112.498 5.602 110.986 5.448 109.894 4.832C109.712 4.72 109.53 4.594 109.376 4.454L109.474 4.272L109.502 4.216H113.352V2.648H103.328V4.216H107.346L107.332 4.23C106.366 5.224 104.49 5.518 102.362 5.742L103.328 7.24ZM109.292 13.078V9.494H114.5V7.926H102.18V9.494H107.388V13.078H109.292ZM105.484 0.393999V1.962H111.196V0.393999H105.484ZM124.277 6.778C122.933 6.498 121.813 6.05 121.001 5.21C120.889 5.098 120.777 4.972 120.679 4.832C120.693 4.776 120.721 4.72 120.749 4.678C120.847 4.44 120.931 4.188 121.001 3.936H123.857V2.396H116.045V3.936H119.013C118.817 4.524 118.509 5.042 118.103 5.476C117.417 6.218 116.451 6.806 115.205 7.226L116.311 8.612C117.529 8.178 118.747 7.408 119.643 6.4L119.811 6.218L119.979 6.4C120.903 7.366 122.093 8.052 123.297 8.248L124.277 6.778ZM123.297 5.91H125.229V9.984H127.105V0.533999H125.229V4.37H123.297V5.91ZM117.543 9.046V12.938H127.511V11.342H119.419V9.046H117.543ZM122.373 1.78V0.24H117.669V1.78H122.373ZM135.79 7.254C133.438 7.254 131.744 8.528 131.744 10.348C131.744 12.182 133.438 13.442 135.79 13.442C138.142 13.442 139.836 12.182 139.836 10.348C139.836 8.528 138.142 7.254 135.79 7.254ZM137.274 5.336C135.958 4.972 134.782 4.384 133.942 3.404L133.69 3.068C133.704 3.054 133.704 3.026 133.718 2.998C134.012 2.298 134.166 1.542 134.18 0.729999H132.276C132.15 3.292 130.624 5.042 128.174 5.882L129.322 7.254C130.484 6.82 131.688 6.008 132.598 4.888C132.696 4.776 132.78 4.65 132.878 4.524L132.892 4.552C133.816 5.644 135.034 6.428 136.252 6.792L137.274 5.336ZM139.878 7.38V4.552H141.362V2.956H139.878V0.533999H138.002V7.38H139.878ZM135.79 11.902C134.39 11.902 133.62 11.286 133.62 10.348C133.62 9.41 134.39 8.794 135.79 8.794C137.19 8.794 137.96 9.41 137.96 10.348C137.96 11.286 137.19 11.902 135.79 11.902ZM152.875 12.994V8.766H148.955V7.954H154.163V6.414H141.843V7.954H147.051V8.766H143.103V12.994H152.875ZM143.033 2.27H144.363L144.447 4.16H142.613V5.714H153.379V4.16H151.531L151.615 2.27H152.959V0.729999H143.033V2.27ZM144.979 10.306H150.999V11.426H144.979V10.306ZM146.239 2.27H149.739L149.655 4.16H146.323L146.239 2.27ZM163.449 5.378C163.449 2.858 161.699 1.094 159.389 1.094C157.079 1.094 155.329 2.858 155.329 5.378C155.329 7.898 157.079 9.662 159.389 9.662C161.699 9.662 163.449 7.898 163.449 5.378ZM161.573 5.378C161.573 7.002 160.677 8.066 159.389 8.066C158.101 8.066 157.205 7.002 157.205 5.378C157.205 3.754 158.101 2.69 159.389 2.69C160.677 2.69 161.573 3.754 161.573 5.378ZM166.725 13.078V0.533999H164.849V13.078H166.725ZM171.588 1.178C169.488 1.178 168.074 2.956 168.074 5.378C168.074 7.8 169.488 9.578 171.588 9.578C173.17 9.578 174.346 8.584 174.85 7.058C174.934 6.792 175.004 6.498 175.046 6.19H175.984V12.756H177.804V0.674H175.984V4.566H175.046C175.004 4.272 174.934 3.978 174.85 3.698C174.346 2.172 173.17 1.178 171.588 1.178ZM180.254 13.064V0.533999H178.406V13.064H180.254ZM171.588 7.982C170.51 7.982 169.922 6.96 169.922 5.378C169.922 3.796 170.51 2.774 171.588 2.774C172.666 2.774 173.254 3.796 173.254 5.378C173.254 6.96 172.666 7.982 171.588 7.982ZM187.637 0.478C184.879 0.478 183.003 2.34 183.003 4.44C183.003 6.54 184.879 8.402 187.637 8.402C190.437 8.402 192.299 6.54 192.299 4.44C192.299 2.34 190.437 0.478 187.637 0.478ZM193.825 12.154V10.558H191.417V8.444H189.541V10.558H185.831V8.444H183.955V10.558H181.505V12.154H193.825ZM187.651 6.806C185.915 6.806 184.879 5.714 184.879 4.44C184.879 3.18 185.915 2.074 187.651 2.074C189.387 2.074 190.423 3.18 190.423 4.44C190.423 5.714 189.387 6.806 187.651 6.806Z" fill="#242D3C"/>
</svg>
