<svg width="142" height="14" viewBox="0 0 142 14" fill="none" xmlns="http://www.w3.org/2000/svg">
<path d="M6.664 8.402C4.214 8.402 2.478 9.452 2.478 11.062C2.478 12.672 4.214 13.722 6.664 13.722C9.114 13.722 10.85 12.672 10.85 11.062C10.85 9.452 9.114 8.402 6.664 8.402ZM1.624 6.078C3.024 6.008 4.592 5.7 5.838 5.098C6.076 4.986 6.3 4.86 6.51 4.72C6.748 4.902 7.028 5.07 7.322 5.196C8.554 5.756 10.052 6.008 11.522 5.98L12.334 4.608C10.654 4.58 9.226 4.412 8.12 3.936C7.952 3.866 7.798 3.782 7.644 3.684L7.77 3.474H11.522V2.046H1.638V3.474H5.516C5.25 3.684 4.928 3.866 4.536 4.02C3.598 4.37 2.324 4.552 0.868 4.664L1.624 6.078ZM12.768 8.052V6.624H7.56V5.532H5.656V6.624H0.448V8.052H12.768ZM6.664 12.266C5.152 12.266 4.354 11.776 4.354 11.062C4.354 10.348 5.152 9.858 6.664 9.858C8.176 9.858 8.974 10.348 8.974 11.062C8.974 11.776 8.176 12.266 6.664 12.266ZM9.324 0.253999H3.836V1.682H9.324V0.253999ZM51.569 13.078V0.533999H49.693V13.078H51.569ZM49.273 11.174V9.606L40.033 9.718V11.314L49.273 11.174ZM44.555 0.814C42.245 0.814 40.663 2.578 40.663 4.482C40.663 6.386 42.245 8.15 44.555 8.15C46.865 8.15 48.447 6.386 48.447 4.482C48.447 2.578 46.865 0.814 44.555 0.814ZM44.555 6.554C43.323 6.554 42.539 5.546 42.539 4.482C42.539 3.418 43.323 2.41 44.555 2.41C45.787 2.41 46.571 3.418 46.571 4.482C46.571 5.546 45.787 6.554 44.555 6.554ZM64.7075 12.756H66.5275V6.568H67.6195V13.064H69.4675V0.533999H67.6195V4.944H66.5275V0.674H64.7075V12.756ZM58.3935 1.122V10.866L64.1475 10.53V8.962L60.2415 9.13V2.718H63.6295V1.122H58.3935ZM83.1782 7.45V6.106H70.8582V7.45H76.0662V8.094H72.1182V9.438H80.0142V9.914H72.1182V12.994H82.1842V11.636H73.9942V11.146H81.8902V8.094H77.9702V7.45H83.1782ZM72.0342 5.798C73.4342 5.742 74.9882 5.504 76.2482 4.972C76.5002 4.86 76.7382 4.734 76.9622 4.608C77.2002 4.762 77.4522 4.902 77.7322 5.028C78.9362 5.546 80.4762 5.756 81.9322 5.7L82.7442 4.328C81.0642 4.3 79.6222 4.216 78.5302 3.768L78.0962 3.558C78.1102 3.516 78.1382 3.488 78.1662 3.446H81.9322V2.046H72.0482V3.446H75.8702C75.6182 3.628 75.3102 3.768 74.9462 3.88C74.0082 4.174 72.7342 4.314 71.2782 4.384L72.0342 5.798ZM79.7342 0.253999H74.2462V1.654H79.7342V0.253999ZM92.4649 5.378C92.4649 2.858 90.7149 1.094 88.4049 1.094C86.0949 1.094 84.3449 2.858 84.3449 5.378C84.3449 7.898 86.0949 9.662 88.4049 9.662C90.7149 9.662 92.4649 7.898 92.4649 5.378ZM90.5889 5.378C90.5889 7.002 89.6929 8.066 88.4049 8.066C87.1169 8.066 86.2209 7.002 86.2209 5.378C86.2209 3.754 87.1169 2.69 88.4049 2.69C89.6929 2.69 90.5889 3.754 90.5889 5.378ZM95.7409 13.078V0.533999H93.8649V13.078H95.7409ZM105.967 0.407999C103.881 0.407999 102.215 1.85 102.215 3.866C102.215 5.882 103.881 7.324 105.967 7.324C108.053 7.324 109.719 5.882 109.719 3.866C109.719 1.85 108.053 0.407999 105.967 0.407999ZM114.689 11.846C113.583 11.454 112.631 10.922 111.917 10.124L111.749 9.914C111.987 9.368 112.141 8.78 112.183 8.136H110.307C110.265 8.64 110.153 9.102 109.971 9.522C109.803 9.928 109.593 10.306 109.327 10.628C109.313 10.614 109.285 10.614 109.271 10.614C108.725 10.39 108.221 10.082 107.815 9.704L107.605 9.48C107.787 9.06 107.899 8.612 107.941 8.136H106.065C105.827 9.802 104.777 11.132 102.747 11.804L103.867 13.008C104.763 12.658 105.715 12.042 106.485 11.202C106.611 11.062 106.737 10.922 106.849 10.768C107.059 10.978 107.283 11.188 107.521 11.37C107.703 11.51 107.885 11.636 108.081 11.762C107.773 11.958 107.437 12.14 107.073 12.308L108.291 13.4C109.173 12.994 110.097 12.308 110.825 11.426C110.867 11.356 110.923 11.3 110.965 11.244L110.979 11.258C111.735 12.154 112.687 12.854 113.667 13.246L114.689 11.846ZM113.457 7.576V0.533999H111.581V7.576H113.457ZM105.967 5.728C104.805 5.728 104.091 4.986 104.091 3.866C104.091 2.746 104.805 2.004 105.967 2.004C107.129 2.004 107.843 2.746 107.843 3.866C107.843 4.986 107.129 5.728 105.967 5.728ZM126.776 13.078V0.533999H124.9V4.566H123.374C123.332 4.244 123.248 3.95 123.136 3.656C122.562 2.088 121.162 1.094 119.412 1.094C117.088 1.094 115.38 2.858 115.38 5.378C115.38 7.898 117.088 9.662 119.412 9.662C121.162 9.662 122.548 8.668 123.136 7.114C123.248 6.82 123.332 6.512 123.374 6.19H124.9V13.078H126.776ZM121.568 5.378C121.568 7.002 120.7 8.066 119.412 8.066C118.124 8.066 117.256 7.002 117.256 5.378C117.256 3.754 118.124 2.69 119.412 2.69C120.7 2.69 121.568 3.754 121.568 5.378ZM134.467 0.478C131.709 0.478 129.833 2.34 129.833 4.44C129.833 6.54 131.709 8.402 134.467 8.402C137.267 8.402 139.129 6.54 139.129 4.44C139.129 2.34 137.267 0.478 134.467 0.478ZM140.655 12.154V10.558H138.247V8.444H136.371V10.558H132.661V8.444H130.785V10.558H128.335V12.154H140.655ZM134.481 6.806C132.745 6.806 131.709 5.714 131.709 4.44C131.709 3.18 132.745 2.074 134.481 2.074C136.217 2.074 137.253 3.18 137.253 4.44C137.253 5.714 136.217 6.806 134.481 6.806Z" fill="#242D3C"/>
<path d="M25.6125 4.37C25.6125 2.55 24.1425 1.094 21.8045 1.094C20.1245 1.094 18.7805 2.2 18.0385 3.698L19.3965 4.594C19.9565 3.488 20.8525 2.634 21.8045 2.634C23.0085 2.634 23.7925 3.404 23.7925 4.37C23.7925 5.434 23.0645 6.162 22.3505 6.834L18.0805 10.81V12H25.8645V10.46H20.7965L23.4845 8.024C24.4925 7.128 25.6125 5.994 25.6125 4.37ZM27.4983 2.508H32.2583C31.8523 4.468 29.8223 6.148 26.6723 6.778L27.5543 8.234C31.0403 7.478 34.3443 5.042 34.3023 0.94H27.4983V2.508ZM28.5483 8.654V12.938H38.5163V11.342H30.4243V8.654H28.5483ZM34.0363 5.672H36.2903V9.732H38.1663V0.533999H36.2903V4.076H34.0363V5.672Z" fill="#D7191F"/>
</svg>
