<svg width="23" height="12" viewBox="0 0 23 12" fill="none" xmlns="http://www.w3.org/2000/svg">
<path d="M8.252 2.588H0.956V3.812H2.348C1.952 3.992 1.724 4.352 1.724 4.82C1.724 5.708 2.468 6.308 3.488 6.572C3.596 6.596 3.716 6.62 3.824 6.632V7.1L0.752 7.136V8.384L8.432 8.264V7.04L5.456 7.076V6.62L5.708 6.572C6.752 6.308 7.484 5.708 7.484 4.82C7.484 4.352 7.256 3.992 6.86 3.812H8.252V2.588ZM10.448 11.972V8.852H1.868V10.148H8.84V11.972H10.448ZM10.472 8.492V5.672H11.672V4.28H10.472V1.172H8.864V8.492H10.472ZM2.528 0.931999V2.156H6.68V0.931999H2.528ZM4.604 3.812C5.42 3.812 5.876 4.124 5.876 4.64C5.876 5.156 5.42 5.468 4.604 5.468C3.788 5.468 3.332 5.156 3.332 4.64C3.332 4.124 3.788 3.812 4.604 3.812ZM15.708 1.064C13.92 1.064 12.492 2.348 12.492 4.148C12.492 5.948 13.92 7.232 15.708 7.232C17.496 7.232 18.924 5.948 18.924 4.148C18.924 2.348 17.496 1.064 15.708 1.064ZM15.708 5.864C14.712 5.864 14.1 5.168 14.1 4.148C14.1 3.128 14.712 2.432 15.708 2.432C16.704 2.432 17.316 3.128 17.316 4.148C17.316 5.168 16.704 5.864 15.708 5.864ZM22.128 9.056V1.172H20.52V9.056H22.128ZM13.884 8.132V11.804H22.428V10.436H15.492V8.132H13.884Z" fill="white"/>
</svg>
