<svg width="66" height="13" viewBox="0 0 66 13" fill="none" xmlns="http://www.w3.org/2000/svg">
<path d="M5.444 11.648H7.004V6.344H7.94V11.912H9.524V1.172H7.94V4.952H7.004V1.292H5.444V11.648ZM0.032 1.676V10.028L4.964 9.74V8.396L1.616 8.54V3.044H4.52V1.676H0.032ZM21.276 7.1V5.948H10.716V7.1H15.18V7.652H11.796V8.804H18.564V9.212H11.796V11.852H20.424V10.688H13.404V10.268H20.172V7.652H16.812V7.1H21.276ZM11.724 5.684C12.924 5.636 14.256 5.432 15.336 4.976C15.552 4.88 15.756 4.772 15.948 4.664C16.152 4.796 16.368 4.916 16.608 5.024C17.64 5.468 18.96 5.648 20.208 5.6L20.904 4.424C19.464 4.4 18.228 4.328 17.292 3.944L16.92 3.764C16.932 3.728 16.956 3.704 16.98 3.668H20.208V2.468H11.736V3.668H15.012C14.796 3.824 14.532 3.944 14.22 4.04C13.416 4.292 12.324 4.412 11.076 4.472L11.724 5.684ZM18.324 0.931999H13.62V2.132H18.324V0.931999ZM29.5841 6.152C28.8041 5.852 28.1201 5.444 27.5081 4.94C27.0881 4.592 26.7521 4.172 26.4761 3.68C26.5121 3.596 26.5361 3.5 26.5721 3.404C26.8001 2.744 26.9201 2.06 26.9321 1.34H25.3001C25.2041 3.608 24.0761 5.552 21.7841 6.536L22.7921 7.688C23.9321 7.148 24.9521 6.284 25.6841 5.192L25.8041 5.024C26.5721 6.08 27.6041 6.92 28.6841 7.376L29.5841 6.152ZM23.8361 8.132V11.804H32.3801V10.436H25.4441V8.132H23.8361ZM32.0801 9.056V1.172H30.4721V9.056H32.0801ZM34.1121 7.328C35.1201 7.076 36.1761 6.512 36.9801 5.744L37.1841 5.528L37.2801 5.612C38.1081 6.344 39.2481 6.8 40.2441 6.92L41.0361 5.636C39.9081 5.468 38.8761 5.168 38.1321 4.544L37.9641 4.376C38.0481 4.22 38.1081 4.052 38.1681 3.872H40.3401V5.12H41.8041V7.28H43.4121V1.172H41.8041V3.8H40.6281V2.6H33.9321V3.872H36.4401C36.2721 4.28 36.0201 4.628 35.6841 4.928C35.0721 5.456 34.2561 5.84 33.2121 6.092L34.1121 7.328ZM39.7401 7.172C37.7241 7.172 36.2721 8.204 36.2721 9.704C36.2721 11.204 37.7241 12.236 39.7401 12.236C41.7561 12.236 43.2081 11.204 43.2081 9.704C43.2081 8.204 41.7561 7.172 39.7401 7.172ZM39.7401 10.94C38.5401 10.94 37.8801 10.46 37.8801 9.704C37.8801 8.948 38.5401 8.468 39.7401 8.468C40.9401 8.468 41.6001 8.948 41.6001 9.704C41.6001 10.46 40.9401 10.94 39.7401 10.94ZM39.3561 2.192V0.92H35.3241V2.192H39.3561ZM50.2081 2.516V1.148H46.4881V2.516H50.2081ZM51.7681 4.448V3.08H44.8801V4.448H51.7681ZM48.3241 4.748C46.4161 4.748 45.2761 6.02 45.2761 7.616C45.2761 9.212 46.4161 10.484 48.3241 10.484C50.2321 10.484 51.3721 9.212 51.3721 7.616C51.3721 6.02 50.2321 4.748 48.3241 4.748ZM48.3241 9.14C47.3521 9.14 46.8841 8.516 46.8841 7.616C46.8841 6.716 47.3521 6.092 48.3241 6.092C49.2961 6.092 49.7641 6.716 49.7641 7.616C49.7641 8.516 49.2961 9.14 48.3241 9.14ZM54.1081 11.924V6.872H55.6321V5.48H54.1081V1.172H52.5001V11.924H54.1081ZM65.9202 11.924V1.172H64.3122V11.924H65.9202ZM56.8122 2.972H61.0122C60.7842 5.432 59.1162 7.904 56.3202 9.248L57.3522 10.388C60.3522 8.78 62.7522 5.78 62.7162 1.604H56.8122V2.972Z" fill="white"/>
</svg>
