<svg width="24" height="24" viewBox="0 0 24 24" fill="none" xmlns="http://www.w3.org/2000/svg">
<path d="M11 5C9.81331 5 8.65328 5.35189 7.66658 6.01118C6.67989 6.67047 5.91085 7.60754 5.45673 8.7039C5.0026 9.80025 4.88378 11.0067 5.11529 12.1705C5.3468 13.3344 5.91825 14.4035 6.75736 15.2426C7.59648 16.0818 8.66557 16.6532 9.82946 16.8847C10.9933 17.1162 12.1997 16.9974 13.2961 16.5433C14.3925 16.0891 15.3295 15.3201 15.9888 14.3334C16.6481 13.3467 17 12.1867 17 11C16.9999 9.40873 16.3677 7.88267 15.2425 6.75747C14.1173 5.63227 12.5913 5.0001 11 5Z" stroke="#242D3C" stroke-width="1.5" stroke-miterlimit="10"/>
<path d="M15.5 15.5L19 19" stroke="#242D3C" stroke-width="1.5" stroke-miterlimit="10" stroke-linecap="round"/>
</svg>
