<svg width="170" height="146" viewBox="0 0 170 146" fill="none" xmlns="http://www.w3.org/2000/svg">
<path d="M5.71135 7.087H2.98135L5.71135 3.85V7.087ZM0.680352 8.517H5.71135V11H7.40135V8.517H8.83135V7.087H7.40135V1.12H6.03635L0.680352 7.425V8.517ZM10.8672 10.025H9.04717V11.845H9.77517C9.73617 12.248 9.60617 12.612 9.19017 12.885L9.76217 13.444C10.4382 12.937 10.8672 12.274 10.8672 11.533V10.025ZM11.8069 6.06C11.8069 9.284 13.8219 11.247 16.0579 11.247C18.2939 11.247 20.3089 9.284 20.3089 6.06C20.3089 2.836 18.2939 0.872999 16.0579 0.872999C13.8219 0.872999 11.8069 2.836 11.8069 6.06ZM18.6189 6.06C18.6189 8.4 17.3709 9.817 16.0579 9.817C14.7449 9.817 13.4969 8.4 13.4969 6.06C13.4969 3.72 14.7449 2.303 16.0579 2.303C17.3709 2.303 18.6189 3.72 18.6189 6.06ZM21.1634 6.06C21.1634 9.284 23.1784 11.247 25.4144 11.247C27.6504 11.247 29.6654 9.284 29.6654 6.06C29.6654 2.836 27.6504 0.872999 25.4144 0.872999C23.1784 0.872999 21.1634 2.836 21.1634 6.06ZM27.9754 6.06C27.9754 8.4 26.7274 9.817 25.4144 9.817C24.1014 9.817 22.8534 8.4 22.8534 6.06C22.8534 3.72 24.1014 2.303 25.4144 2.303C26.7274 2.303 27.9754 3.72 27.9754 6.06ZM30.5198 6.06C30.5198 9.284 32.5348 11.247 34.7708 11.247C37.0068 11.247 39.0218 9.284 39.0218 6.06C39.0218 2.836 37.0068 0.872999 34.7708 0.872999C32.5348 0.872999 30.5198 2.836 30.5198 6.06ZM37.3318 6.06C37.3318 8.4 36.0838 9.817 34.7708 9.817C33.4578 9.817 32.2098 8.4 32.2098 6.06C32.2098 3.72 33.4578 2.303 34.7708 2.303C36.0838 2.303 37.3318 3.72 37.3318 6.06ZM50.1853 8.894V4.565H51.5633V3.057H50.1853V0.352999H48.4433V8.894H50.1853ZM46.8313 6.801V0.73H40.3183V6.801H46.8313ZM42.0603 2.186H45.0893V5.345H42.0603V2.186ZM41.4363 7.893V11.871H50.5623V10.389H43.1783V7.893H41.4363ZM56.4946 0.0409993C54.5706 0.0409993 53.1406 1.068 53.1406 2.602C53.1406 4.136 54.5706 5.163 56.4946 5.163C58.4186 5.163 59.8486 4.136 59.8486 2.602C59.8486 1.068 58.4186 0.0409993 56.4946 0.0409993ZM58.7826 8.725H61.3826V9.388H63.1246V0.352999H61.3826V7.399H58.7826V8.725ZM53.9856 8.725V11.78H63.3586V10.298H55.7276V8.725H53.9856ZM57.3006 8.452V6.957L60.8496 6.905V5.527L52.3346 5.631V7.035L55.5326 6.983V8.452H57.3006ZM56.4946 3.759C55.5196 3.759 54.8826 3.291 54.8826 2.602C54.8826 1.913 55.5196 1.445 56.4946 1.445C57.4436 1.445 58.1066 1.913 58.1066 2.602C58.1066 3.291 57.4436 3.759 56.4946 3.759Z" fill="#242D3C"/>
<rect x="72" y="1.5" width="1" height="10" fill="#D9D9D9"/>
<path d="M86.8012 7.087H84.0712L86.8012 3.85V7.087ZM81.7702 8.517H86.8012V11H88.4912V8.517H89.9212V7.087H88.4912V1.12H87.1262L81.7702 7.425V8.517ZM94.18 11.247C96.507 11.247 98.054 9.921 98.054 8.179C98.054 6.944 97.209 6.086 96.377 5.67C97.04 5.267 97.469 4.578 97.469 3.642C97.469 2.173 96.312 0.872999 94.18 0.872999C92.048 0.872999 90.891 2.173 90.891 3.642C90.891 4.578 91.32 5.267 91.983 5.67C91.151 6.086 90.306 6.944 90.306 8.179C90.306 9.921 91.853 11.247 94.18 11.247ZM94.18 9.817C92.724 9.817 91.996 9.115 91.996 8.179C91.996 7.243 92.828 6.463 94.18 6.463C95.532 6.463 96.364 7.243 96.364 8.179C96.364 9.115 95.636 9.817 94.18 9.817ZM92.581 3.642C92.581 2.849 93.14 2.303 94.18 2.303C95.22 2.303 95.779 2.849 95.779 3.642C95.779 4.37 95.168 5.046 94.18 5.046C93.192 5.046 92.581 4.37 92.581 3.642ZM105.428 11.702H107.118V6.086H108.132V11.988H109.848V0.352999H108.132V4.578H107.118V0.483H105.428V11.702ZM99.3833 2.368H102.672C102.529 4.825 101.112 7.451 98.6943 9.232L99.9293 10.363C102.477 8.309 104.492 5.163 104.492 0.885999H99.3833V2.368ZM122.372 11.923V10.714H114.676V10.298H122.099V7.659H112.934V8.855H120.357V9.258H112.934V11.923H122.372ZM115.495 0.0409993C113.571 0.0409993 112.141 0.872999 112.141 2.173C112.141 3.473 113.571 4.305 115.495 4.305C117.419 4.305 118.849 3.473 118.849 2.173C118.849 0.872999 117.419 0.0409993 115.495 0.0409993ZM117.783 7.269H122.125V0.352999H120.383V6.151H117.783V7.269ZM116.301 7.269V5.878L119.85 5.826V4.552L111.335 4.656V5.956L114.533 5.904V7.269H116.301ZM115.495 2.979C114.52 2.979 113.883 2.68 113.883 2.173C113.883 1.666 114.52 1.367 115.495 1.367C116.444 1.367 117.107 1.666 117.107 2.173C117.107 2.68 116.444 2.979 115.495 2.979Z" fill="#242D3C"/>
<rect x="131" y="1.5" width="1" height="10" fill="#D9D9D9"/>
<path d="M141.37 2.55H146.297L142.514 11H144.295L148.26 2.095V1.12H141.37V2.55ZM149.036 11.936H150.856V10.116H149.036V11.936ZM154.994 0.872999C152.862 0.872999 151.419 2.42 151.419 4.331C151.419 6.242 152.862 7.802 154.994 7.802C155.15 7.802 155.293 7.776 155.462 7.737L153.668 10.987H155.488L157.945 6.554C158.257 5.982 158.569 5.176 158.569 4.461C158.569 2.498 157.295 0.872999 154.994 0.872999ZM156.879 4.331C156.879 5.527 156.151 6.372 154.994 6.372C153.837 6.372 153.109 5.488 153.109 4.331C153.109 3.187 153.837 2.303 154.994 2.303C156.112 2.303 156.879 3.239 156.879 4.331ZM160.58 11H162.426L168.276 1.12H166.482L160.58 11ZM164.116 3.382C164.116 1.887 163.076 0.872999 161.659 0.872999C160.242 0.872999 159.202 1.887 159.202 3.382C159.202 4.877 160.242 5.891 161.659 5.891C163.076 5.891 164.116 4.877 164.116 3.382ZM162.452 3.382C162.452 4.071 162.127 4.461 161.659 4.461C161.191 4.461 160.866 4.071 160.866 3.382C160.866 2.693 161.191 2.303 161.659 2.303C162.127 2.303 162.452 2.693 162.452 3.382ZM169.784 8.738C169.784 7.243 168.744 6.229 167.327 6.229C165.91 6.229 164.87 7.243 164.87 8.738C164.87 10.233 165.91 11.247 167.327 11.247C168.744 11.247 169.784 10.233 169.784 8.738ZM168.12 8.738C168.12 9.427 167.795 9.817 167.327 9.817C166.859 9.817 166.534 9.427 166.534 8.738C166.534 8.049 166.859 7.659 167.327 7.659C167.795 7.659 168.12 8.049 168.12 8.738Z" fill="#242D3C"/>
<path d="M64.2837 33.041C62.3597 33.041 60.9297 34.068 60.9297 35.602C60.9297 37.136 62.3597 38.163 64.2837 38.163C66.2077 38.163 67.6377 37.136 67.6377 35.602C67.6377 34.068 66.2077 33.041 64.2837 33.041ZM66.5717 41.725H69.1717V42.388H70.9137V33.353H69.1717V40.399H66.5717V41.725ZM61.7747 41.725V44.78H71.1477V43.298H63.5167V41.725H61.7747ZM65.0897 41.452V39.957L68.6387 39.905V38.527L60.1237 38.631V40.035L63.3217 39.983V41.452H65.0897ZM64.2837 36.759C63.3087 36.759 62.6717 36.291 62.6717 35.602C62.6717 34.913 63.3087 34.445 64.2837 34.445C65.2327 34.445 65.8957 34.913 65.8957 35.602C65.8957 36.291 65.2327 36.759 64.2837 36.759ZM80.6421 42.752V41.296L74.7271 41.543V39.034H79.0951V33.73H72.9851V35.212H77.3531V37.565H72.9851V43.155L80.6421 42.752ZM82.9041 45.001V33.353H81.1621V45.001H82.9041ZM94.7254 44.923V40.347H85.6514V44.923H94.7254ZM95.9214 39.281V37.825H94.3484C94.4524 37.344 94.5564 36.785 94.6474 36.148C94.7644 35.368 94.8294 34.497 94.8554 33.535H85.5344V34.991H93.0614C93.0354 35.615 92.9314 36.46 92.7494 37.318L92.6324 37.825H84.4814V39.281H95.9214ZM87.3934 41.777H92.9834V43.467H87.3934V41.777ZM102.179 42.375V39.671H103.817V42.375H105.559V39.671H108.198V38.215H106.651C106.742 37.695 106.833 37.097 106.924 36.408C107.041 35.511 107.106 34.562 107.132 33.535H97.8108V34.991H105.338C105.312 35.693 105.208 36.746 105.026 37.721L104.922 38.215H96.7578V39.671H100.437V42.375H102.179ZM98.0578 40.971V44.871H107.405V43.389H99.7998V40.971H98.0578ZM120.474 39.775V38.345H109.034V39.775H120.474ZM114.806 40.269C112.531 40.269 110.919 41.322 110.919 42.934C110.919 44.546 112.531 45.599 114.806 45.599C117.081 45.599 118.693 44.546 118.693 42.934C118.693 41.322 117.081 40.269 114.806 40.269ZM114.806 44.195C113.402 44.195 112.661 43.701 112.661 42.934C112.661 42.167 113.402 41.673 114.806 41.673C116.21 41.673 116.951 42.167 116.951 42.934C116.951 43.701 116.21 44.195 114.806 44.195ZM119.356 36.252H112.024V34.965H119.226V33.535H110.282V37.695H119.356V36.252ZM129.761 33.405V34.653H124.301V33.405H122.559V38.553H131.503V33.405H129.761ZM128.045 42.661V40.867H132.751V39.411H121.311V40.867H126.277V42.661H128.045ZM122.611 41.413V44.871H131.958V43.389H124.353V41.413H122.611ZM124.301 37.11V36.005H129.761V37.11H124.301ZM144.039 39.866V37.474H145.417V35.992H144.039V33.353H142.297V39.866H144.039ZM144.273 44.923V43.636H136.967V43.155H144.013V40.256H135.225V41.53H142.271V41.985H135.225V44.923H144.273ZM139.879 34.354V33.08H135.329V34.354H139.879ZM141.569 35.94V34.666H133.639V35.94H141.569ZM137.708 36.174C135.667 36.174 134.406 36.915 134.406 38.02C134.406 39.125 135.667 39.866 137.708 39.866C139.749 39.866 141.01 39.125 141.01 38.02C141.01 36.915 139.749 36.174 137.708 36.174ZM137.708 38.644C136.629 38.644 136.122 38.423 136.122 38.02C136.122 37.617 136.629 37.396 137.708 37.396C138.787 37.396 139.294 37.617 139.294 38.02C139.294 38.423 138.787 38.644 137.708 38.644ZM152.519 39.593C150.335 39.593 148.762 40.776 148.762 42.466C148.762 44.169 150.335 45.339 152.519 45.339C154.703 45.339 156.276 44.169 156.276 42.466C156.276 40.776 154.703 39.593 152.519 39.593ZM153.897 37.812C152.675 37.474 151.583 36.928 150.803 36.018L150.569 35.706C150.582 35.693 150.582 35.667 150.595 35.641C150.868 34.991 151.011 34.289 151.024 33.535H149.256C149.139 35.914 147.722 37.539 145.447 38.319L146.513 39.593C147.592 39.19 148.71 38.436 149.555 37.396C149.646 37.292 149.724 37.175 149.815 37.058L149.828 37.084C150.686 38.098 151.817 38.826 152.948 39.164L153.897 37.812ZM156.315 39.71V37.084H157.693V35.602H156.315V33.353H154.573V39.71H156.315ZM152.519 43.909C151.219 43.909 150.504 43.337 150.504 42.466C150.504 41.595 151.219 41.023 152.519 41.023C153.819 41.023 154.534 41.595 154.534 42.466C154.534 43.337 153.819 43.909 152.519 43.909ZM166.317 41.205V39.879L163.093 39.918V39.385C163.184 39.372 163.275 39.346 163.366 39.32C164.497 39.034 165.29 38.358 165.29 37.37C165.29 36.863 165.043 36.408 164.614 36.213H166.122V34.887H158.218V36.213H159.726C159.297 36.408 159.05 36.863 159.05 37.37C159.05 38.371 159.856 39.034 160.961 39.32C161.078 39.359 161.208 39.385 161.325 39.398V39.944L157.997 39.983V41.335L166.317 41.205ZM168.527 42.414V38.358H169.827V36.85H168.527V33.353H166.785V42.414H168.527ZM159.518 41.725V44.78H168.891V43.298H161.26V41.725H159.518ZM159.921 33.093V34.419H164.419V33.093H159.921ZM162.17 36.213C163.054 36.213 163.548 36.603 163.548 37.175C163.548 37.747 163.054 38.137 162.17 38.137C161.286 38.137 160.792 37.747 160.792 37.175C160.792 36.603 161.286 36.213 162.17 36.213Z" fill="#242D3C"/>
<path d="M55.3499 67.133L54.5049 72.06L55.6359 72.541C55.9479 72.138 56.6499 71.748 57.5729 71.748C58.8729 71.748 59.4969 72.606 59.4969 73.802C59.4969 74.998 58.7039 75.817 57.4559 75.817C56.3769 75.817 55.6229 75.063 55.0639 74.036L53.8159 74.933C54.5439 76.311 55.8959 77.247 57.4559 77.247C59.8089 77.247 61.1869 75.817 61.1869 73.802C61.1869 71.865 59.9649 70.318 57.5729 70.318C57.1439 70.318 56.7539 70.396 56.4029 70.539L56.7409 68.563H60.8099V67.133H55.3499ZM61.846 72.06C61.846 75.284 63.861 77.247 66.097 77.247C68.333 77.247 70.348 75.284 70.348 72.06C70.348 68.836 68.333 66.873 66.097 66.873C63.861 66.873 61.846 68.836 61.846 72.06ZM68.658 72.06C68.658 74.4 67.41 75.817 66.097 75.817C64.784 75.817 63.536 74.4 63.536 72.06C63.536 69.72 64.784 68.303 66.097 68.303C67.41 68.303 68.658 69.72 68.658 72.06ZM71.1504 77.936H72.9704V76.116H71.1504V77.936ZM73.7542 72.06C73.7542 75.284 75.7692 77.247 78.0052 77.247C80.2412 77.247 82.2562 75.284 82.2562 72.06C82.2562 68.836 80.2412 66.873 78.0052 66.873C75.7692 66.873 73.7542 68.836 73.7542 72.06ZM80.5662 72.06C80.5662 74.4 79.3182 75.817 78.0052 75.817C76.6922 75.817 75.4442 74.4 75.4442 72.06C75.4442 69.72 76.6922 68.303 78.0052 68.303C79.3182 68.303 80.5662 69.72 80.5662 72.06ZM84.3066 77H86.1526L92.0026 67.12H90.2086L84.3066 77ZM87.8426 69.382C87.8426 67.887 86.8026 66.873 85.3856 66.873C83.9686 66.873 82.9286 67.887 82.9286 69.382C82.9286 70.877 83.9686 71.891 85.3856 71.891C86.8026 71.891 87.8426 70.877 87.8426 69.382ZM86.1786 69.382C86.1786 70.071 85.8536 70.461 85.3856 70.461C84.9176 70.461 84.5926 70.071 84.5926 69.382C84.5926 68.693 84.9176 68.303 85.3856 68.303C85.8536 68.303 86.1786 68.693 86.1786 69.382ZM93.5106 74.738C93.5106 73.243 92.4706 72.229 91.0536 72.229C89.6366 72.229 88.5966 73.243 88.5966 74.738C88.5966 76.233 89.6366 77.247 91.0536 77.247C92.4706 77.247 93.5106 76.233 93.5106 74.738ZM91.8466 74.738C91.8466 75.427 91.5216 75.817 91.0536 75.817C90.5856 75.817 90.2606 75.427 90.2606 74.738C90.2606 74.049 90.5856 73.659 91.0536 73.659C91.5216 73.659 91.8466 74.049 91.8466 74.738ZM100.241 71.995C100.241 69.564 101.151 67.484 102.464 66.275L101.684 65.17C99.7862 66.561 98.5512 69.135 98.5512 71.995C98.5512 74.855 99.7732 77.429 101.684 78.82L102.464 77.715C101.138 76.532 100.241 74.413 100.241 71.995ZM109.778 69.915C109.778 68.225 108.413 66.873 106.242 66.873C104.682 66.873 103.434 67.9 102.745 69.291L104.006 70.123C104.526 69.096 105.358 68.303 106.242 68.303C107.36 68.303 108.088 69.018 108.088 69.915C108.088 70.903 107.412 71.579 106.749 72.203L102.784 75.895V77H110.012V75.57H105.306L107.802 73.308C108.738 72.476 109.778 71.423 109.778 69.915ZM112.322 76.025H110.502V77.845H111.23C111.191 78.248 111.061 78.612 110.645 78.885L111.217 79.444C111.893 78.937 112.322 78.274 112.322 77.533V76.025ZM113.262 72.06C113.262 75.284 115.277 77.247 117.513 77.247C119.749 77.247 121.764 75.284 121.764 72.06C121.764 68.836 119.749 66.873 117.513 66.873C115.277 66.873 113.262 68.836 113.262 72.06ZM120.074 72.06C120.074 74.4 118.826 75.817 117.513 75.817C116.2 75.817 114.952 74.4 114.952 72.06C114.952 69.72 116.2 68.303 117.513 68.303C118.826 68.303 120.074 69.72 120.074 72.06ZM122.618 72.06C122.618 75.284 124.633 77.247 126.869 77.247C129.105 77.247 131.12 75.284 131.12 72.06C131.12 68.836 129.105 66.873 126.869 66.873C124.633 66.873 122.618 68.836 122.618 72.06ZM129.43 72.06C129.43 74.4 128.182 75.817 126.869 75.817C125.556 75.817 124.308 74.4 124.308 72.06C124.308 69.72 125.556 68.303 126.869 68.303C128.182 68.303 129.43 69.72 129.43 72.06ZM131.975 72.06C131.975 75.284 133.99 77.247 136.226 77.247C138.462 77.247 140.477 75.284 140.477 72.06C140.477 68.836 138.462 66.873 136.226 66.873C133.99 66.873 131.975 68.836 131.975 72.06ZM138.787 72.06C138.787 74.4 137.539 75.817 136.226 75.817C134.913 75.817 133.665 74.4 133.665 72.06C133.665 69.72 134.913 68.303 136.226 68.303C137.539 68.303 138.787 69.72 138.787 72.06ZM151.64 74.894V70.565H153.018V69.057H151.64V66.353H149.898V74.894H151.64ZM148.286 72.801V66.73H141.773V72.801H148.286ZM143.515 68.186H146.544V71.345H143.515V68.186ZM142.891 73.893V77.871H152.017V76.389H144.633V73.893H142.891ZM157.95 66.041C156.026 66.041 154.596 67.068 154.596 68.602C154.596 70.136 156.026 71.163 157.95 71.163C159.874 71.163 161.304 70.136 161.304 68.602C161.304 67.068 159.874 66.041 157.95 66.041ZM160.238 74.725H162.838V75.388H164.58V66.353H162.838V73.399H160.238V74.725ZM155.441 74.725V77.78H164.814V76.298H157.183V74.725H155.441ZM158.756 74.452V72.957L162.305 72.905V71.527L153.79 71.631V73.035L156.988 72.983V74.452H158.756ZM157.95 69.759C156.975 69.759 156.338 69.291 156.338 68.602C156.338 67.913 156.975 67.445 157.95 67.445C158.899 67.445 159.562 67.913 159.562 68.602C159.562 69.291 158.899 69.759 157.95 69.759ZM167.652 71.995C167.652 74.413 166.755 76.532 165.429 77.715L166.209 78.82C168.12 77.429 169.342 74.855 169.342 71.995C169.342 69.135 168.107 66.561 166.209 65.17L165.429 66.275C166.742 67.484 167.652 69.564 167.652 71.995Z" fill="#242D3C"/>
<path d="M146.544 102.915C146.544 101.225 145.179 99.873 143.008 99.873C141.448 99.873 140.2 100.9 139.511 102.291L140.772 103.123C141.292 102.096 142.124 101.303 143.008 101.303C144.126 101.303 144.854 102.018 144.854 102.915C144.854 103.903 144.178 104.579 143.515 105.203L139.55 108.895V110H146.778V108.57H142.072L144.568 106.308C145.504 105.476 146.544 104.423 146.544 102.915ZM147.424 110.936H149.244V109.116H147.424V110.936ZM150.028 105.06C150.028 108.284 152.043 110.247 154.279 110.247C156.515 110.247 158.53 108.284 158.53 105.06C158.53 101.836 156.515 99.873 154.279 99.873C152.043 99.873 150.028 101.836 150.028 105.06ZM156.84 105.06C156.84 107.4 155.592 108.817 154.279 108.817C152.966 108.817 151.718 107.4 151.718 105.06C151.718 102.72 152.966 101.303 154.279 101.303C155.592 101.303 156.84 102.72 156.84 105.06ZM160.58 110H162.426L168.276 100.12H166.482L160.58 110ZM164.116 102.382C164.116 100.887 163.076 99.873 161.659 99.873C160.242 99.873 159.202 100.887 159.202 102.382C159.202 103.877 160.242 104.891 161.659 104.891C163.076 104.891 164.116 103.877 164.116 102.382ZM162.452 102.382C162.452 103.071 162.127 103.461 161.659 103.461C161.191 103.461 160.866 103.071 160.866 102.382C160.866 101.693 161.191 101.303 161.659 101.303C162.127 101.303 162.452 101.693 162.452 102.382ZM169.784 107.738C169.784 106.243 168.744 105.229 167.327 105.229C165.91 105.229 164.87 106.243 164.87 107.738C164.87 109.233 165.91 110.247 167.327 110.247C168.744 110.247 169.784 109.233 169.784 107.738ZM168.12 107.738C168.12 108.427 167.795 108.817 167.327 108.817C166.859 108.817 166.534 108.427 166.534 107.738C166.534 107.049 166.859 106.659 167.327 106.659C167.795 106.659 168.12 107.049 168.12 107.738Z" fill="#242D3C"/>
<path d="M109.684 132.873C107.552 132.873 106.109 134.42 106.109 136.331C106.109 138.242 107.552 139.802 109.684 139.802C109.84 139.802 109.983 139.776 110.152 139.737L108.358 142.987H110.178L112.635 138.554C112.947 137.982 113.259 137.176 113.259 136.461C113.259 134.498 111.985 132.873 109.684 132.873ZM111.569 136.331C111.569 137.527 110.841 138.372 109.684 138.372C108.527 138.372 107.799 137.488 107.799 136.331C107.799 135.187 108.527 134.303 109.684 134.303C110.802 134.303 111.569 135.239 111.569 136.331ZM114.101 134.55H119.028L115.245 143H117.026L120.991 134.095V133.12H114.101V134.55ZM126.616 139.087H123.886L126.616 135.85V139.087ZM121.585 140.517H126.616V143H128.306V140.517H129.736V139.087H128.306V133.12H126.941L121.585 139.425V140.517ZM131.771 142.025H129.951V143.845H130.679C130.64 144.248 130.51 144.612 130.094 144.885L130.666 145.444C131.342 144.937 131.771 144.274 131.771 143.533V142.025ZM136.247 143.247C138.379 143.247 139.822 141.7 139.822 139.789C139.822 137.878 138.379 136.318 136.247 136.318C136.091 136.318 135.948 136.344 135.779 136.383L137.573 133.133H135.753L133.296 137.566C132.984 138.138 132.672 138.944 132.672 139.659C132.672 141.622 133.946 143.247 136.247 143.247ZM134.362 139.789C134.362 138.593 135.09 137.748 136.247 137.748C137.404 137.748 138.132 138.632 138.132 139.789C138.132 140.933 137.404 141.817 136.247 141.817C135.129 141.817 134.362 140.881 134.362 139.789ZM145.252 139.087H142.522L145.252 135.85V139.087ZM140.221 140.517H145.252V143H146.942V140.517H148.372V139.087H146.942V133.12H145.577L140.221 139.425V140.517ZM148.796 138.06C148.796 141.284 150.811 143.247 153.047 143.247C155.283 143.247 157.298 141.284 157.298 138.06C157.298 134.836 155.283 132.873 153.047 132.873C150.811 132.873 148.796 134.836 148.796 138.06ZM155.608 138.06C155.608 140.4 154.36 141.817 153.047 141.817C151.734 141.817 150.486 140.4 150.486 138.06C150.486 135.72 151.734 134.303 153.047 134.303C154.36 134.303 155.608 135.72 155.608 138.06ZM162.495 132.041C160.571 132.041 159.141 133.068 159.141 134.602C159.141 136.136 160.571 137.163 162.495 137.163C164.419 137.163 165.849 136.136 165.849 134.602C165.849 133.068 164.419 132.041 162.495 132.041ZM164.783 140.725H167.383V141.388H169.125V132.353H167.383V139.399H164.783V140.725ZM159.986 140.725V143.78H169.359V142.298H161.728V140.725H159.986ZM163.301 140.452V138.957L166.85 138.905V137.527L158.335 137.631V139.035L161.533 138.983V140.452H163.301ZM162.495 135.759C161.52 135.759 160.883 135.291 160.883 134.602C160.883 133.913 161.52 133.445 162.495 133.445C163.444 133.445 164.107 133.913 164.107 134.602C164.107 135.291 163.444 135.759 162.495 135.759Z" fill="#D7191F"/>
</svg>
