<svg width="48" height="14" viewBox="0 0 48 14" fill="none" xmlns="http://www.w3.org/2000/svg">
<path d="M8.268 1.782H1.001V2.64H4.342C4.277 2.991 4.186 3.329 4.069 3.654C3.445 5.318 2.08 6.657 0.26 7.411L0.858 8.126C2.054 7.593 3.198 6.748 4.03 5.695C4.173 5.5 4.316 5.318 4.446 5.123C4.615 5.331 4.797 5.539 5.018 5.747C5.915 6.592 7.059 7.346 8.151 7.762L8.71 6.956C7.917 6.683 7.163 6.306 6.474 5.851C5.824 5.409 5.291 4.902 4.888 4.317L5.044 3.94C5.213 3.524 5.33 3.095 5.395 2.64H8.268V1.782ZM10.998 13.027V8.932H2.028V9.79H10.01V13.027H10.998ZM7.514 4.915H10.036V8.282H11.024V1.379H10.036V4.057H7.514V4.915ZM18.4124 0.910999C16.2544 0.910999 14.5904 1.925 14.5904 3.433C14.5904 3.81 14.6814 4.161 14.8764 4.473C15.0714 4.772 15.3184 5.019 15.6434 5.24V7.047H12.7184V7.879H24.1064V7.047H21.1684V5.24C21.4934 5.019 21.7404 4.772 21.9354 4.473C22.1304 4.161 22.2344 3.81 22.2344 3.433C22.2344 1.925 20.5704 0.910999 18.4124 0.910999ZM18.4644 8.516C16.3064 8.516 14.6424 9.478 14.6424 10.999C14.6424 12.52 16.3064 13.469 18.4644 13.469C20.6224 13.469 22.2864 12.52 22.2864 10.999C22.2864 9.478 20.6224 8.516 18.4644 8.516ZM18.4124 5.149C16.8264 5.149 15.5784 4.473 15.5784 3.433C15.5784 2.393 16.8264 1.717 18.4124 1.717C19.9984 1.717 21.2464 2.393 21.2464 3.433C21.2464 4.473 19.9984 5.149 18.4124 5.149ZM18.4644 12.637C16.8784 12.637 15.6304 12.026 15.6304 10.999C15.6304 9.972 16.8784 9.361 18.4644 9.361C20.0504 9.361 21.2984 9.972 21.2984 10.999C21.2984 12.026 20.0504 12.637 18.4644 12.637ZM16.9044 5.773C17.3724 5.89 17.8794 5.955 18.4124 5.955C18.9454 5.955 19.4524 5.89 19.9204 5.773L20.1674 5.708V7.047H16.6444V5.708C16.7224 5.734 16.8134 5.76 16.9044 5.773ZM26.2167 8.607V12.897H35.1347V8.607H26.2167ZM24.9947 6.124V6.982H36.3827V6.124H34.7057C34.8227 5.552 34.9267 4.941 35.0047 4.278C35.0957 3.485 35.1737 2.588 35.2127 1.587H26.0997V2.419H34.1987C34.1597 3.095 34.0947 3.771 34.0167 4.434C33.9517 4.993 33.8607 5.552 33.7307 6.124H24.9947ZM34.1467 9.439V12.039H27.2047V9.439H34.1467ZM47.6841 12.975V1.379H46.6961V12.975H47.6841ZM45.7991 10.635V9.79L39.0911 10.115V6.709H43.8751V1.795H38.1031V2.653H42.8871V5.851H38.1031V11.051L45.7991 10.635Z" fill="#666666"/>
</svg>
