<svg width="66" height="46" viewBox="0 0 66 46" fill="none" xmlns="http://www.w3.org/2000/svg">
<path d="M6.136 3.239C4.108 3.239 2.444 3.98 2.444 5.319C2.444 6.658 4.108 7.399 6.136 7.399C8.164 7.399 9.828 6.658 9.828 5.319C9.828 3.98 8.164 3.239 6.136 3.239ZM4.433 11.845V8.959H7.878V11.975H8.879V8.959H11.83V8.127H0.442V8.959H3.432V11.845H4.433ZM6.136 6.593C4.563 6.593 3.432 6.164 3.432 5.319C3.432 4.474 4.563 4.045 6.136 4.045C7.709 4.045 8.84 4.474 8.84 5.319C8.84 6.164 7.709 6.593 6.136 6.593ZM11.05 2.745V1.913H1.222V2.745H11.05ZM3.406 0.352999V1.185H8.866V0.352999H3.406ZM20.5574 11.65V5.618H22.4294V11.962H23.4174V0.379H22.4294V4.734H20.5574V0.508999H19.5824V11.65H20.5574ZM13.4724 0.950999V9.869L18.9324 9.557V8.712L14.4474 8.907V1.809H18.1264V0.950999H13.4724ZM26.1257 0.586999V1.419H27.6077L27.6987 4.552H25.7617V5.397H30.1817V6.775H24.9947V7.633H36.3827V6.775H31.1957V5.397H35.6027V4.552H33.6527L33.7437 1.419H35.2387V0.586999H26.1257ZM28.5957 1.419H32.7557L32.6647 4.552H28.6867L28.5957 1.419ZM35.5377 11.845V10.987H27.2567V8.543H26.2687V11.845H35.5377ZM47.4387 0.651999V2.875H43.2397V0.651999H42.2517V6.866H48.4267V4.123H51.0007V9.037H51.9887V0.379H51.0007V3.239H48.4267V0.651999H47.4387ZM52.3137 11.845V10.987H44.3837V8.127H43.3957V11.845H52.3137ZM43.2397 6.008V3.733H47.4387V6.008H43.2397ZM59.5071 3.811C57.3621 3.811 55.7111 4.76 55.7111 6.19C55.7111 7.256 56.6471 8.062 57.9991 8.4C58.3241 8.478 58.6491 8.53 59.0001 8.556V10.025H53.8131V10.883H65.2011V10.025H60.0141V8.556C60.3651 8.53 60.6901 8.478 61.0021 8.4C62.3801 8.075 63.3031 7.256 63.3031 6.19C63.3031 4.76 61.6521 3.811 59.5071 3.811ZM59.5071 7.737C57.9081 7.737 56.6991 7.204 56.6991 6.19C56.6991 5.176 57.9081 4.643 59.5071 4.643C61.1061 4.643 62.3151 5.176 62.3151 6.19C62.3151 7.204 61.1061 7.737 59.5071 7.737ZM64.4211 3.317V2.459H54.5931V3.317H64.4211ZM56.6731 0.613V1.471H62.3411V0.613H56.6731Z" fill="#666666"/>
<path d="M10.894 41.933V33.379H9.906V41.933H10.894ZM11.219 44.845V43.987H3.289V41.023H2.301V44.845H11.219ZM4.173 33.34C2.262 33.34 0.793 34.692 0.793 36.564C0.793 38.436 2.262 39.788 4.173 39.788C6.084 39.788 7.553 38.436 7.553 36.564C7.553 34.692 6.084 33.34 4.173 33.34ZM4.173 38.93C2.717 38.93 1.781 37.955 1.781 36.564C1.781 35.173 2.717 34.198 4.173 34.198C5.629 34.198 6.565 35.173 6.565 36.564C6.565 37.955 5.629 38.93 4.173 38.93ZM13.6024 34.64H18.4904C18.2434 36.72 16.1114 38.709 12.9914 39.333L13.4594 40.139C16.5924 39.463 19.6344 37.227 19.5824 33.782H13.6024V34.64ZM19.9334 36.057H22.1824V37.682H19.5824V38.527H22.1824V40.282H23.1704V33.379H22.1824V35.212H19.9334V36.057ZM23.1444 45.027V40.932H14.1744V41.79H22.1564V45.027H23.1444ZM31.0657 44.975V40.035H36.3827V39.177H34.5627C34.7057 38.449 34.8357 37.682 34.9527 36.863C35.0827 35.927 35.1737 34.887 35.2127 33.743H26.0997V34.601H34.1987C34.1597 35.394 34.0687 36.2 33.9517 37.045C33.8347 37.773 33.7177 38.488 33.5747 39.177H24.9947V40.035H30.0517V44.975H31.0657ZM46.3711 33.457V35.069H39.5461V33.457H38.5581V38.397H47.3591V33.457H46.3711ZM43.6021 42.895V40.568H48.6591V39.71H37.2711V40.568H42.5881V42.895H43.6021ZM39.5461 37.565V35.875H46.3711V37.565H39.5461ZM47.8141 44.845V43.987H39.5331V41.543H38.5451V44.845H47.8141Z" fill="#666666"/>
</svg>
