<svg width="86" height="145" viewBox="0 0 86 145" fill="none" xmlns="http://www.w3.org/2000/svg">
<path d="M7.072 6.723C4.875 6.723 3.38 7.88 3.38 9.466C3.38 11.052 4.875 12.209 7.072 12.209C9.243 12.209 10.764 11.052 10.764 9.466C10.764 7.88 9.243 6.723 7.072 6.723ZM7.072 11.351C5.356 11.351 4.368 10.558 4.368 9.466C4.368 8.374 5.356 7.581 7.072 7.581C8.788 7.581 9.776 8.374 9.776 9.466C9.776 10.558 8.788 11.351 7.072 11.351ZM8.372 5.241C7.553 4.968 6.786 4.565 6.084 4.045C5.525 3.629 5.057 3.148 4.706 2.602L4.745 2.485C5.005 1.874 5.148 1.25 5.187 0.586999H4.173C3.965 2.875 2.444 4.851 0.13 5.787L0.702 6.502C1.846 6.021 2.925 5.189 3.744 4.162C3.939 3.915 4.121 3.655 4.29 3.382C4.407 3.525 4.524 3.681 4.654 3.824C5.499 4.773 6.669 5.618 7.8 6.034L8.372 5.241ZM10.608 6.84V3.798H12.207V2.914H10.608V0.379H9.62V6.84H10.608ZM18.4124 3.811C16.2674 3.811 14.6164 4.76 14.6164 6.19C14.6164 7.256 15.5524 8.062 16.9044 8.4C17.2294 8.478 17.5544 8.53 17.9054 8.556V10.025H12.7184V10.883H24.1064V10.025H18.9194V8.556C19.2704 8.53 19.5954 8.478 19.9074 8.4C21.2854 8.075 22.2084 7.256 22.2084 6.19C22.2084 4.76 20.5574 3.811 18.4124 3.811ZM18.4124 7.737C16.8134 7.737 15.6044 7.204 15.6044 6.19C15.6044 5.176 16.8134 4.643 18.4124 4.643C20.0114 4.643 21.2204 5.176 21.2204 6.19C21.2204 7.204 20.0114 7.737 18.4124 7.737ZM23.3264 3.317V2.459H13.4984V3.317H23.3264ZM15.5784 0.613V1.471H21.2464V0.613H15.5784ZM25.7097 0.782V6.021H31.8847V5.033H34.4587V6.84H35.4467V0.379H34.4587V1.822H31.8847V0.782H25.7097ZM31.7287 6.723C29.5317 6.723 28.0367 7.88 28.0367 9.466C28.0367 11.052 29.5317 12.209 31.7287 12.209C33.8997 12.209 35.4207 11.052 35.4207 9.466C35.4207 7.88 33.8997 6.723 31.7287 6.723ZM31.7287 11.351C30.0127 11.351 29.0247 10.558 29.0247 9.466C29.0247 8.374 30.0127 7.581 31.7287 7.581C33.4447 7.581 34.4327 8.374 34.4327 9.466C34.4327 10.558 33.4447 11.351 31.7287 11.351ZM30.8967 5.163H26.6977V1.64H30.8967V5.163ZM31.8847 2.667H34.4587V4.188H31.8847V2.667Z" fill="#666666"/>
<path d="M8.437 42.154C7.566 41.595 6.799 40.906 6.123 40.1C5.486 39.333 4.966 38.54 4.576 37.708C4.654 37.435 4.732 37.149 4.797 36.863C5.005 35.914 5.109 34.874 5.109 33.743H4.095C4.056 37.864 2.574 40.841 0.039 42.57L0.702 43.259C2.015 42.284 3.133 41.023 3.9 39.463C4.004 39.242 4.108 39.034 4.199 38.813C4.329 39.06 4.472 39.294 4.641 39.541C5.486 40.841 6.643 42.102 7.761 42.908L8.437 42.154ZM10.335 44.975V38.683H12.22V37.799H10.335V33.379H9.347V44.975H10.335ZM16.4234 33.288C14.6034 33.288 13.1214 34.549 13.1214 36.317C13.1214 38.085 14.6034 39.346 16.4234 39.346C17.8014 39.346 18.9584 38.631 19.4654 37.539C19.5824 37.292 19.6604 37.019 19.6994 36.733H22.1824V39.515H23.1704V33.379H22.1824V35.875H19.6864C19.6474 35.602 19.5824 35.342 19.4654 35.095C18.9584 34.003 17.8014 33.288 16.4234 33.288ZM22.1564 40.113V41.517H15.5524V40.113H14.5644V44.897H23.1444V40.113H22.1564ZM16.4234 38.514C15.0324 38.514 14.1094 37.604 14.1094 36.317C14.1094 35.03 15.0324 34.12 16.4234 34.12C17.8144 34.12 18.7374 35.03 18.7374 36.317C18.7374 37.604 17.8144 38.514 16.4234 38.514ZM15.5524 44.039V42.349H22.1564V44.039H15.5524ZM33.0417 42.193C32.1837 41.634 31.4037 40.971 30.7147 40.204C30.0387 39.45 29.5057 38.644 29.1287 37.786C29.1807 37.617 29.2327 37.448 29.2717 37.266C29.4797 36.486 29.6097 35.641 29.6617 34.731H32.4957V33.873H25.3067V34.731H28.6217C28.5567 35.55 28.4397 36.317 28.2577 37.032C27.6337 39.541 26.3207 41.413 24.5917 42.622L25.2547 43.311C26.4897 42.388 27.5557 41.218 28.3357 39.723C28.4787 39.45 28.6217 39.164 28.7387 38.865C28.8817 39.138 29.0507 39.398 29.2197 39.658C30.1037 40.958 31.2477 42.154 32.3787 42.96L33.0417 42.193ZM34.8877 44.975V38.683H36.7727V37.799H34.8877V33.379H33.8997V44.975H34.8877ZM43.1731 33.652V35.875H38.9741V33.652H37.9861V39.866H44.1611V37.123H46.7351V42.037H47.7231V33.379H46.7351V36.239H44.1611V33.652H43.1731ZM48.0481 44.845V43.987H40.1181V41.127H39.1301V44.845H48.0481ZM38.9741 39.008V36.733H43.1731V39.008H38.9741ZM55.2415 36.811C53.0965 36.811 51.4455 37.76 51.4455 39.19C51.4455 40.256 52.3815 41.062 53.7335 41.4C54.0585 41.478 54.3835 41.53 54.7345 41.556V43.025H49.5475V43.883H60.9355V43.025H55.7485V41.556C56.0995 41.53 56.4245 41.478 56.7365 41.4C58.1145 41.075 59.0375 40.256 59.0375 39.19C59.0375 37.76 57.3865 36.811 55.2415 36.811ZM55.2415 40.737C53.6425 40.737 52.4335 40.204 52.4335 39.19C52.4335 38.176 53.6425 37.643 55.2415 37.643C56.8405 37.643 58.0495 38.176 58.0495 39.19C58.0495 40.204 56.8405 40.737 55.2415 40.737ZM60.1555 36.317V35.459H50.3275V36.317H60.1555ZM52.4075 33.613V34.471H58.0755V33.613H52.4075Z" fill="#666666"/>
<path d="M8.437 75.154C7.566 74.595 6.799 73.906 6.123 73.1C5.486 72.333 4.966 71.54 4.576 70.708C4.654 70.435 4.732 70.149 4.797 69.863C5.005 68.914 5.109 67.874 5.109 66.743H4.095C4.056 70.864 2.574 73.841 0.039 75.57L0.702 76.259C2.015 75.284 3.133 74.023 3.9 72.463C4.004 72.242 4.108 72.034 4.199 71.813C4.329 72.06 4.472 72.294 4.641 72.541C5.486 73.841 6.643 75.102 7.761 75.908L8.437 75.154ZM10.335 77.975V71.683H12.22V70.799H10.335V66.379H9.347V77.975H10.335ZM16.4234 66.288C14.6034 66.288 13.1214 67.549 13.1214 69.317C13.1214 71.085 14.6034 72.346 16.4234 72.346C17.8014 72.346 18.9584 71.631 19.4654 70.539C19.5824 70.292 19.6604 70.019 19.6994 69.733H22.1824V72.515H23.1704V66.379H22.1824V68.875H19.6864C19.6474 68.602 19.5824 68.342 19.4654 68.095C18.9584 67.003 17.8014 66.288 16.4234 66.288ZM22.1564 73.113V74.517H15.5524V73.113H14.5644V77.897H23.1444V73.113H22.1564ZM16.4234 71.514C15.0324 71.514 14.1094 70.604 14.1094 69.317C14.1094 68.03 15.0324 67.12 16.4234 67.12C17.8144 67.12 18.7374 68.03 18.7374 69.317C18.7374 70.604 17.8144 71.514 16.4234 71.514ZM15.5524 77.039V75.349H22.1564V77.039H15.5524ZM33.0417 75.193C32.1837 74.634 31.4037 73.971 30.7147 73.204C30.0387 72.45 29.5057 71.644 29.1287 70.786C29.1807 70.617 29.2327 70.448 29.2717 70.266C29.4797 69.486 29.6097 68.641 29.6617 67.731H32.4957V66.873H25.3067V67.731H28.6217C28.5567 68.55 28.4397 69.317 28.2577 70.032C27.6337 72.541 26.3207 74.413 24.5917 75.622L25.2547 76.311C26.4897 75.388 27.5557 74.218 28.3357 72.723C28.4787 72.45 28.6217 72.164 28.7387 71.865C28.8817 72.138 29.0507 72.398 29.2197 72.658C30.1037 73.958 31.2477 75.154 32.3787 75.96L33.0417 75.193ZM34.8877 77.975V71.683H36.7727V70.799H34.8877V66.379H33.8997V77.975H34.8877ZM44.1351 72.723C41.9381 72.723 40.4431 73.88 40.4431 75.466C40.4431 77.052 41.9381 78.209 44.1351 78.209C46.3061 78.209 47.8271 77.052 47.8271 75.466C47.8271 73.88 46.3061 72.723 44.1351 72.723ZM44.1351 77.351C42.4191 77.351 41.4311 76.558 41.4311 75.466C41.4311 74.374 42.4191 73.581 44.1351 73.581C45.8511 73.581 46.8391 74.374 46.8391 75.466C46.8391 76.558 45.8511 77.351 44.1351 77.351ZM45.0971 66.782H37.8301V67.614H41.1581C41.0931 67.939 41.0021 68.238 40.8851 68.537C40.2351 70.071 38.8441 71.293 37.0891 71.917L37.6611 72.658C38.7921 72.229 39.9361 71.449 40.8071 70.461C41.0021 70.24 41.1711 70.019 41.3401 69.772C41.5091 69.967 41.7041 70.162 41.9251 70.344C42.8611 71.15 44.0051 71.774 45.0191 72.112L45.5391 71.293C44.3951 70.981 43.2511 70.383 42.4061 69.668C42.1591 69.46 41.9381 69.239 41.7561 69.018L41.8601 68.823C42.0291 68.433 42.1591 68.03 42.2241 67.614H45.0971V66.782ZM44.3431 69.603H46.8651V72.84H47.8531V66.379H46.8651V68.771H44.3431V69.603ZM56.1775 72.723C53.9805 72.723 52.4855 73.88 52.4855 75.466C52.4855 77.052 53.9805 78.209 56.1775 78.209C58.3485 78.209 59.8695 77.052 59.8695 75.466C59.8695 73.88 58.3485 72.723 56.1775 72.723ZM56.1775 77.351C54.4615 77.351 53.4735 76.558 53.4735 75.466C53.4735 74.374 54.4615 73.581 56.1775 73.581C57.8935 73.581 58.8815 74.374 58.8815 75.466C58.8815 76.558 57.8935 77.351 56.1775 77.351ZM57.4775 71.241C56.6585 70.968 55.8915 70.565 55.1895 70.045C54.6305 69.629 54.1625 69.148 53.8115 68.602L53.8505 68.485C54.1105 67.874 54.2535 67.25 54.2925 66.587H53.2785C53.0705 68.875 51.5495 70.851 49.2355 71.787L49.8075 72.502C50.9515 72.021 52.0305 71.189 52.8495 70.162C53.0445 69.915 53.2265 69.655 53.3955 69.382C53.5125 69.525 53.6295 69.681 53.7595 69.824C54.6045 70.773 55.7745 71.618 56.9055 72.034L57.4775 71.241ZM59.7135 72.84V69.798H61.3125V68.914H59.7135V66.379H58.7255V72.84H59.7135ZM65.8018 66.925C63.7218 66.925 62.1228 68.511 62.1228 70.851C62.1228 73.204 63.7218 74.79 65.8018 74.79C66.8418 74.79 67.7518 74.387 68.4148 73.711C68.5318 73.594 68.6358 73.464 68.7268 73.334H71.3788V77.975H72.3668V66.379H71.3788V68.563H68.8568C68.7268 68.368 68.5838 68.186 68.4148 68.017C67.7518 67.328 66.8418 66.925 65.8018 66.925ZM65.8018 67.809C67.3488 67.809 68.4668 68.966 68.4668 70.838C68.4668 72.671 67.4268 73.906 65.8018 73.906C64.1768 73.906 63.1368 72.671 63.1368 70.838C63.1368 68.966 64.2548 67.809 65.8018 67.809ZM69.4808 70.851C69.4808 70.344 69.4028 69.876 69.2598 69.434H71.3788V72.463H69.1948C69.3898 71.982 69.4808 71.436 69.4808 70.851ZM83.2002 66.613V68.355H76.3752V66.613H75.3872V71.917H84.1882V66.613H83.2002ZM80.3012 77.975V74.179H85.4882V73.321H74.1002V74.179H79.2872V77.975H80.3012ZM76.3752 71.059V69.213H83.2002V71.059H76.3752Z" fill="#666666"/>
<path d="M8.281 110.65V104.748H10.153V110.962H11.141V99.379H10.153V103.864H8.281V99.509H7.306V110.65H8.281ZM1.014 100.796H4.745C4.641 103.552 3.068 106.776 0.507 108.544L1.222 109.207C3.861 107.231 5.824 103.994 5.785 99.938H1.014V100.796ZM16.4234 99.288C14.6034 99.288 13.1214 100.549 13.1214 102.317C13.1214 104.085 14.6034 105.346 16.4234 105.346C17.8014 105.346 18.9584 104.631 19.4654 103.539C19.5824 103.292 19.6604 103.019 19.6994 102.733H22.1824V105.515H23.1704V99.379H22.1824V101.875H19.6864C19.6474 101.602 19.5824 101.342 19.4654 101.095C18.9584 100.003 17.8014 99.288 16.4234 99.288ZM22.1564 106.113V107.517H15.5524V106.113H14.5644V110.897H23.1444V106.113H22.1564ZM16.4234 104.514C15.0324 104.514 14.1094 103.604 14.1094 102.317C14.1094 101.03 15.0324 100.12 16.4234 100.12C17.8144 100.12 18.7374 101.03 18.7374 102.317C18.7374 103.604 17.8144 104.514 16.4234 104.514ZM15.5524 110.039V108.349H22.1564V110.039H15.5524ZM30.7667 101.368H34.4587V102.733H30.7667V103.578H34.4587V108.063H35.4467V99.379H34.4587V100.523H30.7667V101.368ZM25.7747 99.652V105.983L33.2887 105.619V104.774L26.7627 105.047V99.652H25.7747ZM35.7717 110.845V109.987H27.8417V107.153H26.8537V110.845H35.7717ZM48.2041 110.897V110.078H40.1051V109.181H47.9441V106.763H39.1171V107.569H46.9561V108.401H39.1171V110.897H48.2041ZM41.7041 99.093C39.8451 99.093 38.4541 99.938 38.4541 101.199C38.4541 102.46 39.8451 103.305 41.7041 103.305C43.5631 103.305 44.9541 102.46 44.9541 101.199C44.9541 99.938 43.5631 99.093 41.7041 99.093ZM41.7041 102.486C40.3521 102.486 39.4421 101.94 39.4421 101.199C39.4421 100.445 40.3521 99.899 41.7041 99.899C43.0561 99.899 43.9661 100.445 43.9661 101.199C43.9661 101.94 43.0561 102.486 41.7041 102.486ZM47.9701 106.295V99.379H46.9821V105.138H43.8881V105.918H46.9821V106.295H47.9701ZM46.2281 104.579V103.799L37.5051 103.903V104.709L41.0151 104.657V106.295H42.0291V104.644L46.2281 104.579ZM59.9995 105.45V99.379H59.0115V105.45H59.9995ZM60.2595 110.897V110.039H52.3815V108.843H59.9995V106.048H51.3935V106.88H59.0115V108.037H51.3935V110.897H60.2595ZM53.2785 99.288C51.4455 99.288 49.9505 100.523 49.9505 102.252C49.9505 103.981 51.4455 105.216 53.2785 105.216C55.1115 105.216 56.6065 103.981 56.6065 102.252C56.6065 100.523 55.1115 99.288 53.2785 99.288ZM53.2785 104.384C51.8875 104.384 50.9385 103.487 50.9385 102.252C50.9385 101.017 51.8875 100.12 53.2785 100.12C54.6695 100.12 55.6185 101.017 55.6185 102.252C55.6185 103.487 54.6695 104.384 53.2785 104.384Z" fill="#666666"/>
<path d="M8.437 141.154C7.566 140.595 6.799 139.906 6.123 139.1C5.486 138.333 4.966 137.54 4.576 136.708C4.654 136.435 4.732 136.149 4.797 135.863C5.005 134.914 5.109 133.874 5.109 132.743H4.095C4.056 136.864 2.574 139.841 0.039 141.57L0.702 142.259C2.015 141.284 3.133 140.023 3.9 138.463C4.004 138.242 4.108 138.034 4.199 137.813C4.329 138.06 4.472 138.294 4.641 138.541C5.486 139.841 6.643 141.102 7.761 141.908L8.437 141.154ZM10.335 143.975V137.683H12.22V136.799H10.335V132.379H9.347V143.975H10.335ZM16.4234 132.288C14.6034 132.288 13.1214 133.549 13.1214 135.317C13.1214 137.085 14.6034 138.346 16.4234 138.346C17.8014 138.346 18.9584 137.631 19.4654 136.539C19.5824 136.292 19.6604 136.019 19.6994 135.733H22.1824V138.515H23.1704V132.379H22.1824V134.875H19.6864C19.6474 134.602 19.5824 134.342 19.4654 134.095C18.9584 133.003 17.8014 132.288 16.4234 132.288ZM22.1564 139.113V140.517H15.5524V139.113H14.5644V143.897H23.1444V139.113H22.1564ZM16.4234 137.514C15.0324 137.514 14.1094 136.604 14.1094 135.317C14.1094 134.03 15.0324 133.12 16.4234 133.12C17.8144 133.12 18.7374 134.03 18.7374 135.317C18.7374 136.604 17.8144 137.514 16.4234 137.514ZM15.5524 143.039V141.349H22.1564V143.039H15.5524ZM33.0417 141.193C32.1837 140.634 31.4037 139.971 30.7147 139.204C30.0387 138.45 29.5057 137.644 29.1287 136.786C29.1807 136.617 29.2327 136.448 29.2717 136.266C29.4797 135.486 29.6097 134.641 29.6617 133.731H32.4957V132.873H25.3067V133.731H28.6217C28.5567 134.55 28.4397 135.317 28.2577 136.032C27.6337 138.541 26.3207 140.413 24.5917 141.622L25.2547 142.311C26.4897 141.388 27.5557 140.218 28.3357 138.723C28.4787 138.45 28.6217 138.164 28.7387 137.865C28.8817 138.138 29.0507 138.398 29.2197 138.658C30.1037 139.958 31.2477 141.154 32.3787 141.96L33.0417 141.193ZM34.8877 143.975V137.683H36.7727V136.799H34.8877V132.379H33.8997V143.975H34.8877ZM37.2711 137.657V138.489H48.6591V137.657H37.2711ZM47.4891 135.72H39.5461V133.393H47.3331V132.587H38.5581V136.539H47.4891V135.72ZM43.0171 139.269C40.8591 139.269 39.1951 140.27 39.1951 141.869C39.1951 143.468 40.8591 144.469 43.0171 144.469C45.1751 144.469 46.8391 143.468 46.8391 141.869C46.8391 140.27 45.1751 139.269 43.0171 139.269ZM43.0171 143.637C41.4311 143.637 40.1831 142.961 40.1831 141.869C40.1831 140.777 41.4311 140.101 43.0171 140.101C44.6031 140.101 45.8511 140.777 45.8511 141.869C45.8511 142.961 44.6031 143.637 43.0171 143.637ZM59.8305 137.579V136.734H51.8225V135.408H59.6355V132.509H50.8345V133.341H58.6475V134.602H50.8345V137.579H54.7995V138.762H49.5475V139.594H60.9355V138.762H55.8135V137.579H59.8305ZM59.6875 144.027V140.595H50.5095V141.453H58.6995V144.027H59.6875ZM67.5698 139.269C65.4118 139.269 63.7478 140.27 63.7478 141.869C63.7478 143.468 65.4118 144.469 67.5698 144.469C69.7278 144.469 71.3918 143.468 71.3918 141.869C71.3918 140.27 69.7278 139.269 67.5698 139.269ZM72.6528 135.941C71.6648 135.798 70.7548 135.59 69.9228 135.291C69.1428 135.018 68.4668 134.641 67.9078 134.186C68.0638 133.939 68.1808 133.679 68.2458 133.393H71.9118V132.587H63.1108V133.393H67.1668C67.0498 133.744 66.8678 134.056 66.6078 134.329C65.7108 135.278 64.1378 135.798 62.3568 136.032L62.7598 136.799C63.9038 136.656 65.1908 136.292 66.2308 135.707C66.6858 135.46 67.0758 135.161 67.4008 134.823C67.7258 135.07 68.0638 135.304 68.4278 135.499C69.6108 136.149 70.9758 136.552 72.2238 136.708L72.6528 135.941ZM67.5698 143.637C65.9838 143.637 64.7358 142.961 64.7358 141.869C64.7358 140.777 65.9838 140.101 67.5698 140.101C69.1558 140.101 70.4038 140.777 70.4038 141.869C70.4038 142.961 69.1558 143.637 67.5698 143.637ZM61.8238 137.631V138.463H73.2118V137.631H61.8238Z" fill="#666666"/>
</svg>
