<svg width="62" height="154" viewBox="0 0 62 154" fill="none" xmlns="http://www.w3.org/2000/svg">
<path d="M0.442 7.723V8.581H11.83V7.723H0.442ZM10.985 12.845V11.987H2.704V9.543H1.716V12.845H10.985ZM6.136 0.988999C3.978 0.988999 2.314 2.146 2.314 3.823C2.314 5.5 3.978 6.657 6.136 6.657C8.294 6.657 9.958 5.5 9.958 3.823C9.958 2.146 8.294 0.988999 6.136 0.988999ZM6.136 5.825C4.55 5.825 3.302 5.019 3.302 3.823C3.302 2.627 4.55 1.821 6.136 1.821C7.722 1.821 8.97 2.627 8.97 3.823C8.97 5.019 7.722 5.825 6.136 5.825ZM19.7124 8.243C17.5154 8.243 16.0204 9.309 16.0204 10.726C16.0204 12.143 17.5154 13.209 19.7124 13.209C21.8834 13.209 23.4044 12.143 23.4044 10.726C23.4044 9.309 21.8834 8.243 19.7124 8.243ZM16.0594 3.875C14.4734 3.875 13.3034 4.759 13.3034 5.942C13.3034 7.125 14.4734 8.009 16.0594 8.009C17.6454 8.009 18.8154 7.125 18.8154 5.942C18.8154 4.759 17.6454 3.875 16.0594 3.875ZM19.7124 12.377C17.9834 12.377 17.0084 11.675 17.0084 10.726C17.0084 9.777 17.9834 9.075 19.7124 9.075C21.4414 9.075 22.4164 9.777 22.4164 10.726C22.4164 11.675 21.4414 12.377 19.7124 12.377ZM20.9474 7.853V5.344H22.5464V8.373H23.5344V1.379H22.5464V4.486H20.9474V1.483H19.9724V7.853H20.9474ZM16.0594 7.229C14.9804 7.229 14.2654 6.774 14.2654 5.942C14.2654 5.11 14.9804 4.655 16.0594 4.655C17.1384 4.655 17.8534 5.11 17.8534 5.942C17.8534 6.774 17.1384 7.229 16.0594 7.229ZM19.1404 3.459V2.653H12.8484V3.459H19.1404ZM17.7754 2.042V1.236H14.3434V2.042H17.7754Z" fill="#666666"/>
<path d="M5.629 41.581H7.618V45.65H8.593V34.509H7.618V36.901H6.006V37.772H7.618V40.71H5.629V41.581ZM1.014 35.796H4.745C4.641 38.552 3.068 41.776 0.507 43.544L1.222 44.207C3.861 42.231 5.824 38.994 5.785 34.938H1.014V35.796ZM11.141 45.962V34.379H10.153V45.962H11.141ZM20.7394 40.151C19.5694 39.631 18.5164 38.838 17.7624 37.889C17.5414 37.616 17.3594 37.33 17.2034 37.044C17.3724 36.628 17.4764 36.186 17.5414 35.731H20.3234V34.873H13.3294V35.731H16.4884C16.4234 36.199 16.3064 36.641 16.1244 37.057C15.4484 38.578 14.1484 39.761 12.6794 40.372L13.2644 41.061C14.3044 40.554 15.3444 39.787 16.1244 38.838C16.3714 38.539 16.5924 38.214 16.7874 37.889C17.1644 38.448 17.6064 38.968 18.1394 39.449C18.7764 40.034 19.4524 40.515 20.1674 40.892L20.7394 40.151ZM22.7414 45.975V39.943H24.4184V39.059H22.7414V34.379H21.7534V45.975H22.7414ZM21.2334 43.973V43.141L17.2814 43.193V40.255H16.2674V43.206L12.6274 43.245V44.103L21.2334 43.973ZM30.8967 34.652V36.875H26.6977V34.652H25.7097V40.866H31.8847V38.123H34.4587V43.037H35.4467V34.379H34.4587V37.239H31.8847V34.652H30.8967ZM35.7717 45.845V44.987H27.8417V42.127H26.8537V45.845H35.7717ZM26.6977 40.008V37.733H30.8967V40.008H26.6977ZM42.9651 37.811C40.8201 37.811 39.1691 38.76 39.1691 40.19C39.1691 41.256 40.1051 42.062 41.4571 42.4C41.7821 42.478 42.1071 42.53 42.4581 42.556V44.025H37.2711V44.883H48.6591V44.025H43.4721V42.556C43.8231 42.53 44.1481 42.478 44.4601 42.4C45.8381 42.075 46.7611 41.256 46.7611 40.19C46.7611 38.76 45.1101 37.811 42.9651 37.811ZM42.9651 41.737C41.3661 41.737 40.1571 41.204 40.1571 40.19C40.1571 39.176 41.3661 38.643 42.9651 38.643C44.5641 38.643 45.7731 39.176 45.7731 40.19C45.7731 41.204 44.5641 41.737 42.9651 41.737ZM47.8791 37.317V36.459H38.0511V37.317H47.8791ZM40.1311 34.613V35.471H45.7991V34.613H40.1311Z" fill="#666666"/>
<path d="M3.51 68.003C1.768 68.003 0.299 69.524 0.299 71.851C0.299 74.191 1.768 75.712 3.51 75.712C4.381 75.712 5.187 75.335 5.759 74.659C5.876 74.516 5.993 74.373 6.097 74.204H8.099V78.663H9.074V67.496H8.099V69.563H6.123C6.019 69.381 5.902 69.212 5.759 69.056C5.187 68.38 4.381 68.003 3.51 68.003ZM3.51 74.841C2.223 74.841 1.274 73.71 1.274 71.851C1.274 69.992 2.223 68.861 3.51 68.861C4.797 68.861 5.746 69.992 5.746 71.851C5.746 73.71 4.797 74.841 3.51 74.841ZM11.271 78.962V67.379H10.283V78.962H11.271ZM6.721 71.851C6.721 71.344 6.656 70.863 6.513 70.434H8.099V73.333H6.5C6.643 72.891 6.721 72.397 6.721 71.851ZM13.9404 74.607V78.897H22.8584V74.607H13.9404ZM12.7184 72.124V72.982H24.1064V72.124H22.4294C22.5464 71.552 22.6504 70.941 22.7284 70.278C22.8194 69.485 22.8974 68.588 22.9364 67.587H13.8234V68.419H21.9224C21.8834 69.095 21.8184 69.771 21.7404 70.434C21.6754 70.993 21.5844 71.552 21.4544 72.124H12.7184ZM21.8704 75.439V78.039H14.9284V75.439H21.8704ZM35.9147 72.046C34.8097 71.851 33.8477 71.552 33.0547 71.175C32.2877 70.811 31.6637 70.317 31.1567 69.693C31.3517 69.342 31.4817 68.978 31.5337 68.601H35.1867V67.743H26.1777V68.601H30.4547C30.3767 68.991 30.2077 69.355 29.9607 69.706C29.0897 70.915 27.3217 71.812 25.3067 72.072L25.8267 72.865C27.0877 72.696 28.4917 72.15 29.5837 71.37C29.9867 71.071 30.3507 70.759 30.6497 70.408C30.8967 70.681 31.1697 70.928 31.4687 71.175C32.5477 72.02 33.9517 72.618 35.4077 72.852L35.9147 72.046ZM31.1957 78.975V74.867H36.3827V74.009H24.9947V74.867H30.1817V78.975H31.1957Z" fill="#666666"/>
<path d="M10.478 106.515V103.538H12.077V102.654H10.478V100.379H9.49V106.515H10.478ZM9.464 107.113V108.517H2.99V107.113H2.002V111.897H10.452V107.113H9.464ZM2.99 111.039V109.349H9.464V111.039H2.99ZM1.014 100.652V106.008L8.71 105.644V104.799L2.002 105.072V100.652H1.014ZM23.1704 106.515V100.379H22.1824V106.515H23.1704ZM22.1564 107.113V108.517H15.5524V107.113H14.5644V111.897H23.1444V107.113H22.1564ZM15.5524 111.039V109.349H22.1564V111.039H15.5524ZM16.4494 100.288C14.6164 100.288 13.1214 101.549 13.1214 103.317C13.1214 105.085 14.6164 106.346 16.4494 106.346C18.2824 106.346 19.7774 105.085 19.7774 103.317C19.7774 101.549 18.2824 100.288 16.4494 100.288ZM16.4494 105.514C15.0584 105.514 14.1094 104.604 14.1094 103.317C14.1094 102.03 15.0584 101.12 16.4494 101.12C17.8404 101.12 18.7894 102.03 18.7894 103.317C18.7894 104.604 17.8404 105.514 16.4494 105.514ZM35.4467 106.45V100.379H34.4587V106.45H35.4467ZM35.7067 111.897V111.039H27.8287V109.843H35.4467V107.048H26.8407V107.88H34.4587V109.037H26.8407V111.897H35.7067ZM28.7257 100.288C26.8927 100.288 25.3977 101.523 25.3977 103.252C25.3977 104.981 26.8927 106.216 28.7257 106.216C30.5587 106.216 32.0537 104.981 32.0537 103.252C32.0537 101.523 30.5587 100.288 28.7257 100.288ZM28.7257 105.384C27.3347 105.384 26.3857 104.487 26.3857 103.252C26.3857 102.017 27.3347 101.12 28.7257 101.12C30.1167 101.12 31.0657 102.017 31.0657 103.252C31.0657 104.487 30.1167 105.384 28.7257 105.384Z" fill="#666666"/>
<path d="M7.306 139.983C5.109 139.983 3.614 141.088 3.614 142.596C3.614 144.104 5.109 145.209 7.306 145.209C9.477 145.209 10.998 144.104 10.998 142.596C10.998 141.088 9.477 139.983 7.306 139.983ZM7.306 144.377C5.577 144.377 4.602 143.636 4.602 142.596C4.602 141.556 5.577 140.815 7.306 140.815C9.035 140.815 10.01 141.556 10.01 142.596C10.01 143.636 9.035 144.377 7.306 144.377ZM8.346 135.719V134.913H1.144V135.719H4.407C4.342 135.966 4.251 136.213 4.134 136.434C3.471 137.747 2.08 138.735 0.338 139.203L0.897 139.944C1.976 139.632 3.133 138.995 4.017 138.15C4.29 137.89 4.524 137.617 4.719 137.331L5.135 137.76C6.071 138.592 7.254 139.19 8.385 139.398L8.892 138.566C7.657 138.384 6.474 137.851 5.655 137.11C5.473 136.941 5.317 136.772 5.174 136.59C5.317 136.317 5.408 136.018 5.473 135.719H8.346ZM11.024 140.1V133.379H10.036V136.512H7.787V137.344H10.036V140.1H11.024ZM6.838 134.016V133.21H2.652V134.016H6.838ZM18.7894 144.975V140.035H24.1064V139.177H22.2864C22.4294 138.449 22.5594 137.682 22.6764 136.863C22.8064 135.927 22.8974 134.887 22.9364 133.743H13.8234V134.601H21.9224C21.8834 135.394 21.7924 136.2 21.6754 137.045C21.5584 137.773 21.4414 138.488 21.2984 139.177H12.7184V140.035H17.7754V144.975H18.7894ZM33.1977 142.154C32.3267 141.595 31.5597 140.906 30.8837 140.1C30.2467 139.333 29.7267 138.54 29.3367 137.708C29.4147 137.435 29.4927 137.149 29.5577 136.863C29.7657 135.914 29.8697 134.874 29.8697 133.743H28.8557C28.8167 137.864 27.3347 140.841 24.7997 142.57L25.4627 143.259C26.7757 142.284 27.8937 141.023 28.6607 139.463C28.7647 139.242 28.8687 139.034 28.9597 138.813C29.0897 139.06 29.2327 139.294 29.4017 139.541C30.2467 140.841 31.4037 142.102 32.5217 142.908L33.1977 142.154ZM35.6677 144.975V133.379H34.6797V137.279H31.6897V138.163H34.6797V144.975H35.6677ZM43.4721 144.975V140.815H48.6591V139.957H37.2711V140.815H42.4581V144.975H43.4721ZM48.1911 137.89C47.0601 137.669 46.0721 137.305 45.2531 136.798C44.5251 136.343 43.9271 135.758 43.4591 135.043C43.6541 134.588 43.7711 134.094 43.7971 133.574H42.7571C42.5881 135.927 40.2221 137.487 37.5831 137.903L38.1161 138.683C39.4291 138.475 40.8331 137.877 41.9121 136.993C42.3281 136.642 42.6921 136.265 42.9911 135.836C43.5241 136.551 44.1351 137.123 44.8501 137.565C45.7081 138.098 46.6441 138.475 47.6711 138.696L48.1911 137.89ZM56.2815 139.983C54.0845 139.983 52.5895 141.088 52.5895 142.596C52.5895 144.104 54.0845 145.209 56.2815 145.209C58.4525 145.209 59.9735 144.104 59.9735 142.596C59.9735 141.088 58.4525 139.983 56.2815 139.983ZM55.9175 136.98V133.678H50.3275V134.51H54.9295V136.174H50.3275V139.619L57.6985 139.281V138.462L51.3155 138.709V136.98H55.9175ZM56.2815 144.377C54.5525 144.377 53.5775 143.636 53.5775 142.596C53.5775 141.556 54.5525 140.815 56.2815 140.815C58.0105 140.815 58.9855 141.556 58.9855 142.596C58.9855 143.636 58.0105 144.377 56.2815 144.377ZM59.9995 140.1V133.379H59.0115V134.562H56.7105V135.407H59.0115V136.707H56.7105V137.552H59.0115V140.1H59.9995Z" fill="#666666"/>
</svg>
