<svg width="99" height="145" viewBox="0 0 99 145" fill="none" xmlns="http://www.w3.org/2000/svg">
<path d="M7.072 6.723C4.875 6.723 3.38 7.88 3.38 9.466C3.38 11.052 4.875 12.209 7.072 12.209C9.243 12.209 10.764 11.052 10.764 9.466C10.764 7.88 9.243 6.723 7.072 6.723ZM7.072 11.351C5.356 11.351 4.368 10.558 4.368 9.466C4.368 8.374 5.356 7.581 7.072 7.581C8.788 7.581 9.776 8.374 9.776 9.466C9.776 10.558 8.788 11.351 7.072 11.351ZM8.372 5.241C7.553 4.968 6.786 4.565 6.084 4.045C5.525 3.629 5.057 3.148 4.706 2.602L4.745 2.485C5.005 1.874 5.148 1.25 5.187 0.586999H4.173C3.965 2.875 2.444 4.851 0.13 5.787L0.702 6.502C1.846 6.021 2.925 5.189 3.744 4.162C3.939 3.915 4.121 3.655 4.29 3.382C4.407 3.525 4.524 3.681 4.654 3.824C5.499 4.773 6.669 5.618 7.8 6.034L8.372 5.241ZM10.608 6.84V3.798H12.207V2.914H10.608V0.379H9.62V6.84H10.608ZM21.2074 11.663V0.496H20.2324V4.357H18.1134V5.241H20.2324V11.663H21.2074ZM23.6774 11.962V0.379H22.6894V11.962H23.6774ZM13.2124 10.259C14.3174 9.076 15.2664 7.672 15.9294 5.904C16.6054 7.477 17.6454 8.946 18.8414 9.986L19.4914 9.297C18.0874 8.14 16.9304 6.45 16.3194 4.643C16.6184 3.447 16.7874 2.173 16.8264 0.782H15.8384C15.7734 4.513 14.5124 7.672 12.4844 9.674L13.2124 10.259ZM31.8587 6.723C29.6617 6.723 28.1667 7.88 28.1667 9.466C28.1667 11.052 29.6617 12.209 31.8587 12.209C34.0297 12.209 35.5507 11.052 35.5507 9.466C35.5507 7.88 34.0297 6.723 31.8587 6.723ZM31.8587 11.351C30.1427 11.351 29.1547 10.558 29.1547 9.466C29.1547 8.374 30.1427 7.581 31.8587 7.581C33.5747 7.581 34.5627 8.374 34.5627 9.466C34.5627 10.558 33.5747 11.351 31.8587 11.351ZM32.8207 0.782H25.5537V1.614H28.8817C28.8167 1.939 28.7257 2.238 28.6087 2.537C27.9587 4.071 26.5677 5.293 24.8127 5.917L25.3847 6.658C26.5157 6.229 27.6597 5.449 28.5307 4.461C28.7257 4.24 28.8947 4.019 29.0637 3.772C29.2327 3.967 29.4277 4.162 29.6487 4.344C30.5847 5.15 31.7287 5.774 32.7427 6.112L33.2627 5.293C32.1187 4.981 30.9747 4.383 30.1297 3.668C29.8827 3.46 29.6617 3.239 29.4797 3.018L29.5837 2.823C29.7527 2.433 29.8827 2.03 29.9477 1.614H32.8207V0.782ZM32.0667 3.603H34.5887V6.84H35.5767V0.379H34.5887V2.771H32.0667V3.603ZM37.2711 10.025V10.883H48.6591V10.025H43.4721V7.477H47.3591V0.743H46.3711V3.2H39.5461V0.743H38.5581V7.477H42.4581V10.025H37.2711ZM39.5461 6.619V4.058H46.3711V6.619H39.5461Z" fill="#666666"/>
<path d="M7.072 39.723C4.875 39.723 3.38 40.88 3.38 42.466C3.38 44.052 4.875 45.209 7.072 45.209C9.243 45.209 10.764 44.052 10.764 42.466C10.764 40.88 9.243 39.723 7.072 39.723ZM7.072 44.351C5.356 44.351 4.368 43.558 4.368 42.466C4.368 41.374 5.356 40.581 7.072 40.581C8.788 40.581 9.776 41.374 9.776 42.466C9.776 43.558 8.788 44.351 7.072 44.351ZM8.372 38.241C7.553 37.968 6.786 37.565 6.084 37.045C5.525 36.629 5.057 36.148 4.706 35.602L4.745 35.485C5.005 34.874 5.148 34.25 5.187 33.587H4.173C3.965 35.875 2.444 37.851 0.13 38.787L0.702 39.502C1.846 39.021 2.925 38.189 3.744 37.162C3.939 36.915 4.121 36.655 4.29 36.382C4.407 36.525 4.524 36.681 4.654 36.824C5.499 37.773 6.669 38.618 7.8 39.034L8.372 38.241ZM10.608 39.84V36.798H12.207V35.914H10.608V33.379H9.62V39.84H10.608ZM21.2074 41.036V40.23L17.3334 40.282V39.359C17.5674 39.333 17.7884 39.294 17.9964 39.229C19.0754 38.891 19.7904 38.163 19.7904 37.149C19.7904 36.408 19.3484 35.81 18.7764 35.589H20.6224V34.783H13.0304V35.589H14.8764C14.3044 35.81 13.8624 36.408 13.8624 37.149C13.8624 38.163 14.5904 38.891 15.6434 39.229C15.8644 39.294 16.0854 39.333 16.3194 39.359V40.295L12.6144 40.334V41.166L21.2074 41.036ZM22.8194 42.414V38.033H24.3534V37.149H22.8194V33.379H21.8314V42.414H22.8194ZM16.8264 38.579C15.5394 38.579 14.8244 37.981 14.8244 37.149C14.8244 36.33 15.5264 35.589 16.8264 35.589C18.1264 35.589 18.8284 36.33 18.8284 37.149C18.8284 37.981 18.1134 38.579 16.8264 38.579ZM23.1834 44.754V43.922H15.1364V41.855H14.1484V44.754H23.1834ZM14.7334 33.223V34.029H18.9194V33.223H14.7334ZM31.4947 39.827C29.2977 39.827 27.8027 40.919 27.8027 42.518C27.8027 44.117 29.2977 45.209 31.4947 45.209C33.6657 45.209 35.1867 44.117 35.1867 42.518C35.1867 40.919 33.6657 39.827 31.4947 39.827ZM30.6887 33.652V35.55H26.4897V33.652H25.5017V39.216H31.6767V33.652H30.6887ZM31.4947 44.351C29.7657 44.351 28.7907 43.61 28.7907 42.518C28.7907 41.426 29.7657 40.685 31.4947 40.685C33.2237 40.685 34.1987 41.426 34.1987 42.518C34.1987 43.61 33.2237 44.351 31.4947 44.351ZM26.4897 38.358V36.408H30.6887V38.358H26.4897ZM35.0307 39.944V36.863H36.6297V35.979H35.0307V33.379H34.0427V39.944H35.0307ZM45.3311 38.943C44.0571 38.449 42.9001 37.63 42.1071 36.603C41.9381 36.382 41.7951 36.161 41.6651 35.94C41.7041 35.836 41.7301 35.732 41.7691 35.641C42.0031 34.978 42.1331 34.302 42.1461 33.587H41.1321C41.0281 35.992 39.5851 38.306 37.0891 39.385L37.7131 40.074C38.9481 39.489 40.0401 38.566 40.8331 37.461C40.9761 37.24 41.1191 37.032 41.2361 36.811C41.3401 36.954 41.4441 37.097 41.5611 37.24C42.4061 38.306 43.6021 39.216 44.7331 39.71L45.3311 38.943ZM47.8271 45.027V40.932H38.8571V41.79H46.8391V45.027H47.8271ZM47.8531 40.282V33.379H46.8651V40.282H47.8531Z" fill="#666666"/>
<path d="M11.284 77.897V77.039H3.406V75.791H11.024V72.944H2.418V73.776H10.036V74.985H2.418V77.897H11.284ZM8.502 71.163C7.683 70.89 6.916 70.487 6.214 69.967C5.655 69.564 5.2 69.083 4.849 68.55L4.901 68.446C5.148 67.861 5.291 67.237 5.317 66.587H4.303C4.134 68.771 2.587 70.708 0.26 71.605L0.858 72.294C2.002 71.813 3.094 71.033 3.913 70.058C4.108 69.824 4.277 69.577 4.433 69.33L4.784 69.746C5.629 70.695 6.799 71.54 7.93 71.956L8.502 71.163ZM7.124 69.109H10.036V72.346H11.024V66.379H10.036V68.277H7.124V69.109ZM19.5824 72.723C17.3854 72.723 15.8904 73.88 15.8904 75.466C15.8904 77.052 17.3854 78.209 19.5824 78.209C21.7534 78.209 23.2744 77.052 23.2744 75.466C23.2744 73.88 21.7534 72.723 19.5824 72.723ZM19.5824 77.351C17.8664 77.351 16.8784 76.558 16.8784 75.466C16.8784 74.374 17.8664 73.581 19.5824 73.581C21.2984 73.581 22.2864 74.374 22.2864 75.466C22.2864 76.558 21.2984 77.351 19.5824 77.351ZM20.5444 66.782H13.2774V67.614H16.6054C16.5404 67.939 16.4494 68.238 16.3324 68.537C15.6824 70.071 14.2914 71.293 12.5364 71.917L13.1084 72.658C14.2394 72.229 15.3834 71.449 16.2544 70.461C16.4494 70.24 16.6184 70.019 16.7874 69.772C16.9564 69.967 17.1514 70.162 17.3724 70.344C18.3084 71.15 19.4524 71.774 20.4664 72.112L20.9864 71.293C19.8424 70.981 18.6984 70.383 17.8534 69.668C17.6064 69.46 17.3854 69.239 17.2034 69.018L17.3074 68.823C17.4764 68.433 17.6064 68.03 17.6714 67.614H20.5444V66.782ZM19.7904 69.603H22.3124V72.84H23.3004V66.379H22.3124V68.771H19.7904V69.603Z" fill="#666666"/>
<path d="M0.442 104.501V105.333H5.629V106.295C5.304 106.321 4.979 106.373 4.68 106.451C3.289 106.815 2.366 107.673 2.366 108.869C2.366 110.468 4.03 111.469 6.188 111.469C8.346 111.469 10.01 110.468 10.01 108.869C10.01 107.673 9.087 106.815 7.696 106.451C7.358 106.36 7.007 106.308 6.643 106.282V105.333H11.83V104.501H0.442ZM11.271 102.941C10.283 102.798 9.373 102.59 8.541 102.291C7.761 102.018 7.085 101.641 6.526 101.186C6.682 100.939 6.799 100.679 6.864 100.393H10.53V99.587H1.729V100.393H5.785C5.668 100.744 5.486 101.056 5.226 101.329C4.329 102.278 2.756 102.798 0.975 103.032L1.378 103.799C2.522 103.656 3.809 103.292 4.849 102.707C5.304 102.46 5.694 102.161 6.019 101.823C6.344 102.07 6.682 102.304 7.046 102.499C8.229 103.149 9.594 103.552 10.842 103.708L11.271 102.941ZM6.188 110.637C4.602 110.637 3.354 109.961 3.354 108.869C3.354 107.777 4.602 107.101 6.188 107.101C7.774 107.101 9.022 107.777 9.022 108.869C9.022 109.961 7.774 110.637 6.188 110.637ZM12.7184 109.025V109.883H24.1064V109.025H18.9844V106.087H23.0664V105.216H14.9934V100.731H22.8064V99.873H14.0054V106.087H17.9704V109.025H12.7184ZM31.6247 105.723C29.4277 105.723 27.9327 106.88 27.9327 108.466C27.9327 110.052 29.4277 111.209 31.6247 111.209C33.7957 111.209 35.3167 110.052 35.3167 108.466C35.3167 106.88 33.7957 105.723 31.6247 105.723ZM31.6247 110.351C29.9087 110.351 28.9207 109.558 28.9207 108.466C28.9207 107.374 29.9087 106.581 31.6247 106.581C33.3407 106.581 34.3287 107.374 34.3287 108.466C34.3287 109.558 33.3407 110.351 31.6247 110.351ZM32.9247 104.241C32.1057 103.968 31.3387 103.565 30.6367 103.045C30.0777 102.629 29.6097 102.148 29.2587 101.602L29.2977 101.485C29.5577 100.874 29.7007 100.25 29.7397 99.587H28.7257C28.5177 101.875 26.9967 103.851 24.6827 104.787L25.2547 105.502C26.3987 105.021 27.4777 104.189 28.2967 103.162C28.4917 102.915 28.6737 102.655 28.8427 102.382C28.9597 102.525 29.0767 102.681 29.2067 102.824C30.0517 103.773 31.2217 104.618 32.3527 105.034L32.9247 104.241ZM35.1607 105.84V102.798H36.7597V101.914H35.1607V99.379H34.1727V105.84H35.1607ZM45.7601 107.036V106.23L41.8861 106.282V105.359C42.1201 105.333 42.3411 105.294 42.5491 105.229C43.6281 104.891 44.3431 104.163 44.3431 103.149C44.3431 102.408 43.9011 101.81 43.3291 101.589H45.1751V100.783H37.5831V101.589H39.4291C38.8571 101.81 38.4151 102.408 38.4151 103.149C38.4151 104.163 39.1431 104.891 40.1961 105.229C40.4171 105.294 40.6381 105.333 40.8721 105.359V106.295L37.1671 106.334V107.166L45.7601 107.036ZM47.3721 108.414V104.033H48.9061V103.149H47.3721V99.379H46.3841V108.414H47.3721ZM41.3791 104.579C40.0921 104.579 39.3771 103.981 39.3771 103.149C39.3771 102.33 40.0791 101.589 41.3791 101.589C42.6791 101.589 43.3811 102.33 43.3811 103.149C43.3811 103.981 42.6661 104.579 41.3791 104.579ZM47.7361 110.754V109.922H39.6891V107.855H38.7011V110.754H47.7361ZM39.2861 99.223V100.029H43.4721V99.223H39.2861ZM55.7485 110.975V106.815H60.9355V105.957H49.5475V106.815H54.7345V110.975H55.7485ZM60.4675 103.89C59.3365 103.669 58.3485 103.305 57.5295 102.798C56.8015 102.343 56.2035 101.758 55.7355 101.043C55.9305 100.588 56.0475 100.094 56.0735 99.574H55.0335C54.8645 101.927 52.4985 103.487 49.8595 103.903L50.3925 104.683C51.7055 104.475 53.1095 103.877 54.1885 102.993C54.6045 102.642 54.9685 102.265 55.2675 101.836C55.8005 102.551 56.4115 103.123 57.1265 103.565C57.9845 104.098 58.9205 104.475 59.9475 104.696L60.4675 103.89ZM68.0248 110.975V106.815H73.2118V105.957H61.8238V106.815H67.0108V110.975H68.0248ZM72.7438 103.89C71.6128 103.669 70.6248 103.305 69.8058 102.798C69.0778 102.343 68.4798 101.758 68.0118 101.043C68.2068 100.588 68.3238 100.094 68.3498 99.574H67.3098C67.1408 101.927 64.7748 103.487 62.1358 103.903L62.6688 104.683C63.9818 104.475 65.3858 103.877 66.4648 102.993C66.8808 102.642 67.2448 102.265 67.5438 101.836C68.0768 102.551 68.6878 103.123 69.4028 103.565C70.2608 104.098 71.1968 104.475 72.2238 104.696L72.7438 103.89ZM74.1002 109.025V109.883H85.4882V109.025H82.6672V106.659H84.3832V105.788H76.3752V103.656H84.1882V99.873H75.3872V100.731H83.2002V102.798H75.3872V106.659H77.3502V109.025H74.1002ZM78.3512 106.659H81.6662V109.025H78.3512V106.659ZM96.7896 110.897V110.078H88.5866V109.025H96.5166V106.451H94.8266V105.307H97.7646V104.475H86.3766V105.307H89.3016V106.451H87.5986V107.257H95.5286V108.245H87.5986V110.897H96.7896ZM92.0706 98.911C89.9126 98.911 88.2486 99.873 88.2486 101.329C88.2486 102.785 89.9126 103.747 92.0706 103.747C94.2286 103.747 95.8926 102.785 95.8926 101.329C95.8926 99.873 94.2286 98.911 92.0706 98.911ZM92.0706 102.941C90.4846 102.941 89.2366 102.304 89.2366 101.329C89.2366 100.354 90.4846 99.717 92.0706 99.717C93.6566 99.717 94.9046 100.354 94.9046 101.329C94.9046 102.304 93.6566 102.941 92.0706 102.941ZM90.3026 105.307H93.8256V106.451H90.3026V105.307Z" fill="#666666"/>
<path d="M11.375 143.897V143.078H3.276V142.181H11.115V139.763H2.288V140.569H10.127V141.401H2.288V143.897H11.375ZM4.875 132.093C3.016 132.093 1.625 132.938 1.625 134.199C1.625 135.46 3.016 136.305 4.875 136.305C6.734 136.305 8.125 135.46 8.125 134.199C8.125 132.938 6.734 132.093 4.875 132.093ZM4.875 135.486C3.523 135.486 2.613 134.94 2.613 134.199C2.613 133.445 3.523 132.899 4.875 132.899C6.227 132.899 7.137 133.445 7.137 134.199C7.137 134.94 6.227 135.486 4.875 135.486ZM11.141 139.295V132.379H10.153V138.138H7.059V138.918H10.153V139.295H11.141ZM9.399 137.579V136.799L0.676 136.903V137.709L4.186 137.657V139.295H5.2V137.644L9.399 137.579ZM22.7544 138.515V135.538H24.3534V134.654H22.7544V132.379H21.7664V138.515H22.7544ZM21.7404 139.113V140.517H15.2664V139.113H14.2784V143.897H22.7284V139.113H21.7404ZM15.2664 143.039V141.349H21.7404V143.039H15.2664ZM13.2904 132.652V138.008L20.9864 137.644V136.799L14.2784 137.072V132.652H13.2904ZM35.4467 138.515V132.379H34.4587V138.515H35.4467ZM34.4327 139.113V140.517H27.8287V139.113H26.8407V143.897H35.4207V139.113H34.4327ZM27.8287 143.039V141.349H34.4327V143.039H27.8287ZM28.7257 132.288C26.8927 132.288 25.3977 133.549 25.3977 135.317C25.3977 137.085 26.8927 138.346 28.7257 138.346C30.5587 138.346 32.0537 137.085 32.0537 135.317C32.0537 133.549 30.5587 132.288 28.7257 132.288ZM28.7257 137.514C27.3347 137.514 26.3857 136.604 26.3857 135.317C26.3857 134.03 27.3347 133.12 28.7257 133.12C30.1167 133.12 31.0657 134.03 31.0657 135.317C31.0657 136.604 30.1167 137.514 28.7257 137.514ZM38.4931 139.607V143.897H47.4111V139.607H38.4931ZM37.2711 137.124V137.982H48.6591V137.124H46.9821C47.0991 136.552 47.2031 135.941 47.2811 135.278C47.3721 134.485 47.4501 133.588 47.4891 132.587H38.3761V133.419H46.4751C46.4361 134.095 46.3711 134.771 46.2931 135.434C46.2281 135.993 46.1371 136.552 46.0071 137.124H37.2711ZM46.4231 140.439V143.039H39.4811V140.439H46.4231Z" fill="#666666"/>
</svg>
