<svg width="61" height="13" viewBox="0 0 61 13" fill="none" xmlns="http://www.w3.org/2000/svg">
<path d="M10.894 9.433V0.879H9.906V9.433H10.894ZM11.219 12.345V11.487H3.289V8.523H2.301V12.345H11.219ZM4.173 0.839999C2.262 0.839999 0.793 2.192 0.793 4.064C0.793 5.936 2.262 7.288 4.173 7.288C6.084 7.288 7.553 5.936 7.553 4.064C7.553 2.192 6.084 0.839999 4.173 0.839999ZM4.173 6.43C2.717 6.43 1.781 5.455 1.781 4.064C1.781 2.673 2.717 1.698 4.173 1.698C5.629 1.698 6.565 2.673 6.565 4.064C6.565 5.455 5.629 6.43 4.173 6.43ZM18.9194 12.475V8.315H24.1064V7.457H12.7184V8.315H17.9054V12.475H18.9194ZM23.6384 5.39C22.5074 5.169 21.5194 4.805 20.7004 4.298C19.9724 3.843 19.3744 3.258 18.9064 2.543C19.1014 2.088 19.2184 1.594 19.2444 1.074H18.2044C18.0354 3.427 15.6694 4.987 13.0304 5.403L13.5634 6.183C14.8764 5.975 16.2804 5.377 17.3594 4.493C17.7754 4.142 18.1394 3.765 18.4384 3.336C18.9714 4.051 19.5824 4.623 20.2974 5.065C21.1554 5.598 22.0914 5.975 23.1184 6.196L23.6384 5.39ZM30.7667 2.868H34.4587V4.233H30.7667V5.078H34.4587V9.563H35.4467V0.879H34.4587V2.023H30.7667V2.868ZM25.7747 1.152V7.483L33.2887 7.119V6.274L26.7627 6.547V1.152H25.7747ZM35.7717 12.345V11.487H27.8417V8.653H26.8537V12.345H35.7717ZM48.2041 12.397V11.578H40.1051V10.681H47.9441V8.263H39.1171V9.069H46.9561V9.901H39.1171V12.397H48.2041ZM41.7041 0.592999C39.8451 0.592999 38.4541 1.438 38.4541 2.699C38.4541 3.96 39.8451 4.805 41.7041 4.805C43.5631 4.805 44.9541 3.96 44.9541 2.699C44.9541 1.438 43.5631 0.592999 41.7041 0.592999ZM41.7041 3.986C40.3521 3.986 39.4421 3.44 39.4421 2.699C39.4421 1.945 40.3521 1.399 41.7041 1.399C43.0561 1.399 43.9661 1.945 43.9661 2.699C43.9661 3.44 43.0561 3.986 41.7041 3.986ZM47.9701 7.795V0.879H46.9821V6.638H43.8881V7.418H46.9821V7.795H47.9701ZM46.2281 6.079V5.299L37.5051 5.403V6.209L41.0151 6.157V7.795H42.0291V6.144L46.2281 6.079ZM59.9995 6.95V0.879H59.0115V6.95H59.9995ZM60.2595 12.397V11.539H52.3815V10.343H59.9995V7.548H51.3935V8.38H59.0115V9.537H51.3935V12.397H60.2595ZM53.2785 0.787999C51.4455 0.787999 49.9505 2.023 49.9505 3.752C49.9505 5.481 51.4455 6.716 53.2785 6.716C55.1115 6.716 56.6065 5.481 56.6065 3.752C56.6065 2.023 55.1115 0.787999 53.2785 0.787999ZM53.2785 5.884C51.8875 5.884 50.9385 4.987 50.9385 3.752C50.9385 2.517 51.8875 1.62 53.2785 1.62C54.6695 1.62 55.6185 2.517 55.6185 3.752C55.6185 4.987 54.6695 5.884 53.2785 5.884Z" fill="#666666"/>
</svg>
