<svg width="88" height="13" viewBox="0 0 88 13" fill="none" xmlns="http://www.w3.org/2000/svg">
<path d="M0.131 0.950999V9.739H4.928V0.950999H0.131ZM7.346 11.65V5.618H9.153V11.962H10.141V0.379H9.153V4.734H7.346V0.508999H6.371V11.65H7.346ZM3.953 8.881H1.106V1.809H3.953V8.881ZM12.4074 0.950999V9.739H17.2044V0.950999H12.4074ZM19.6224 11.65V5.618H21.4294V11.962H22.4174V0.379H21.4294V4.734H19.6224V0.508999H18.6474V11.65H19.6224ZM16.2294 8.881H13.3824V1.809H16.2294V8.881ZM29.1817 7.581H31.1707V11.65H32.1457V0.508999H31.1707V2.901H29.5587V3.772H31.1707V6.71H29.1817V7.581ZM24.5667 1.796H28.2977C28.1937 4.552 26.6207 7.776 24.0597 9.544L24.7747 10.207C27.4137 8.231 29.3767 4.994 29.3377 0.937999H24.5667V1.796ZM34.6937 11.962V0.379H33.7057V11.962H34.6937ZM46.2811 12.027V7.932H37.4411V8.79H45.2931V12.027H46.2811ZM39.7941 0.339999C37.8831 0.339999 36.4141 1.666 36.4141 3.499C36.4141 5.345 37.8831 6.658 39.7941 6.658C41.7051 6.658 43.1741 5.345 43.1741 3.499C43.1741 1.666 41.7051 0.339999 39.7941 0.339999ZM39.7941 5.8C38.2991 5.8 37.4021 4.864 37.4021 3.499C37.4021 2.134 38.2991 1.198 39.7941 1.198C41.2891 1.198 42.1861 2.134 42.1861 3.499C42.1861 4.864 41.2891 5.8 39.7941 5.8ZM46.3071 7.282V5.41H47.9061V4.539H46.3071V2.68H47.9061V1.809H46.3071V0.379H45.3191V7.282H46.3071ZM56.7505 9.154C55.8795 8.595 55.1125 7.906 54.4365 7.1C53.7995 6.333 53.2795 5.54 52.8895 4.708C52.9675 4.435 53.0455 4.149 53.1105 3.863C53.3185 2.914 53.4225 1.874 53.4225 0.743H52.4085C52.3695 4.864 50.8875 7.841 48.3525 9.57L49.0155 10.259C50.3285 9.284 51.4465 8.023 52.2135 6.463C52.3175 6.242 52.4215 6.034 52.5125 5.813C52.6425 6.06 52.7855 6.294 52.9545 6.541C53.7995 7.841 54.9565 9.102 56.0745 9.908L56.7505 9.154ZM59.2205 11.975V0.379H58.2325V4.279H55.2425V5.163H58.2325V11.975H59.2205ZM74.8525 11.975V5.8H76.7375V4.916H74.8525V0.379H73.8645V11.975H74.8525ZM65.7135 1.731H70.7055C70.5625 4.825 68.5735 7.919 65.3495 9.479L65.9995 10.207C69.3665 8.439 71.8105 5.137 71.7715 0.872999H65.7135V1.731ZM78.2498 1.64H83.1378C82.8908 3.72 80.7588 5.709 77.6388 6.333L78.1068 7.139C81.2398 6.463 84.2818 4.227 84.2298 0.782H78.2498V1.64ZM84.5808 3.057H86.8298V4.682H84.2298V5.527H86.8298V7.282H87.8178V0.379H86.8298V2.212H84.5808V3.057ZM87.7918 12.027V7.932H78.8218V8.79H86.8038V12.027H87.7918Z" fill="#666666"/>
</svg>
