<svg width="64" height="87" viewBox="0 0 64 87" fill="none" xmlns="http://www.w3.org/2000/svg">
<path d="M1.75903 1.133L0.914031 6.06L2.04503 6.541C2.35703 6.138 3.05903 5.748 3.98203 5.748C5.28203 5.748 5.90603 6.606 5.90603 7.802C5.90603 8.998 5.11303 9.817 3.86503 9.817C2.78603 9.817 2.03203 9.063 1.47303 8.036L0.225031 8.933C0.953031 10.311 2.30503 11.247 3.86503 11.247C6.21803 11.247 7.59603 9.817 7.59603 7.802C7.59603 5.865 6.37403 4.318 3.98203 4.318C3.55303 4.318 3.16303 4.396 2.81203 4.539L3.15003 2.563H7.21903V1.133H1.75903ZM9.86717 10.025H8.04717V11.845H8.77517C8.73617 12.248 8.60617 12.612 8.19017 12.885L8.76217 13.444C9.43817 12.937 9.86717 12.274 9.86717 11.533V10.025ZM10.8069 6.06C10.8069 9.284 12.8219 11.247 15.0579 11.247C17.2939 11.247 19.3089 9.284 19.3089 6.06C19.3089 2.836 17.2939 0.872999 15.0579 0.872999C12.8219 0.872999 10.8069 2.836 10.8069 6.06ZM17.6189 6.06C17.6189 8.4 16.3709 9.817 15.0579 9.817C13.7449 9.817 12.4969 8.4 12.4969 6.06C12.4969 3.72 13.7449 2.303 15.0579 2.303C16.3709 2.303 17.6189 3.72 17.6189 6.06ZM20.1634 6.06C20.1634 9.284 22.1784 11.247 24.4144 11.247C26.6504 11.247 28.6654 9.284 28.6654 6.06C28.6654 2.836 26.6504 0.872999 24.4144 0.872999C22.1784 0.872999 20.1634 2.836 20.1634 6.06ZM26.9754 6.06C26.9754 8.4 25.7274 9.817 24.4144 9.817C23.1014 9.817 21.8534 8.4 21.8534 6.06C21.8534 3.72 23.1014 2.303 24.4144 2.303C25.7274 2.303 26.9754 3.72 26.9754 6.06ZM29.5198 6.06C29.5198 9.284 31.5348 11.247 33.7708 11.247C36.0068 11.247 38.0218 9.284 38.0218 6.06C38.0218 2.836 36.0068 0.872999 33.7708 0.872999C31.5348 0.872999 29.5198 2.836 29.5198 6.06ZM36.3318 6.06C36.3318 8.4 35.0838 9.817 33.7708 9.817C32.4578 9.817 31.2098 8.4 31.2098 6.06C31.2098 3.72 32.4578 2.303 33.7708 2.303C35.0838 2.303 36.3318 3.72 36.3318 6.06ZM49.1853 8.894V4.565H50.5633V3.057H49.1853V0.352999H47.4433V8.894H49.1853ZM45.8313 6.801V0.73H39.3183V6.801H45.8313ZM41.0603 2.186H44.0893V5.345H41.0603V2.186ZM40.4363 7.893V11.871H49.5623V10.389H42.1783V7.893H40.4363ZM55.4946 0.0409993C53.5706 0.0409993 52.1406 1.068 52.1406 2.602C52.1406 4.136 53.5706 5.163 55.4946 5.163C57.4186 5.163 58.8486 4.136 58.8486 2.602C58.8486 1.068 57.4186 0.0409993 55.4946 0.0409993ZM57.7826 8.725H60.3826V9.388H62.1246V0.352999H60.3826V7.399H57.7826V8.725ZM52.9856 8.725V11.78H62.3586V10.298H54.7276V8.725H52.9856ZM56.3006 8.452V6.957L59.8496 6.905V5.527L51.3346 5.631V7.035L54.5326 6.983V8.452H56.3006ZM55.4946 3.759C54.5196 3.759 53.8826 3.291 53.8826 2.602C53.8826 1.913 54.5196 1.445 55.4946 1.445C56.4436 1.445 57.1066 1.913 57.1066 2.602C57.1066 3.291 56.4436 3.759 55.4946 3.759Z" fill="#242D3C"/>
<path d="M54.1628 38.12L57.7508 44.568V48H59.4668V44.555L63.0548 38.12H61.2608L58.8818 42.592L58.5958 43.164L58.3098 42.592L55.9568 38.12H54.1628Z" fill="#242D3C"/>
<path d="M37.3249 80.762V74.353H35.5829V80.762H37.3249ZM28.3809 81.282V85.923H37.2989V81.282H28.3809ZM30.1229 82.738H35.5569V84.441H30.1229V82.738ZM27.4189 76.186H31.8389C31.4229 77.798 29.4599 79.072 26.6519 79.631L27.4709 80.983C30.6039 80.32 33.7759 78.37 33.7369 74.73H27.4189V76.186ZM50.1343 79.956C48.3923 79.384 46.8843 78.604 45.7923 77.486C45.6233 77.317 45.4673 77.135 45.3243 76.94C45.6623 76.238 45.8443 75.471 45.8703 74.626H44.0763C43.9333 77.33 41.8403 79.124 38.9283 80.021L39.9293 81.308C41.3463 80.827 42.8283 79.995 43.9333 78.89C44.1413 78.682 44.3363 78.461 44.5183 78.227L44.8433 78.565C46.0263 79.8 47.6383 80.788 49.1983 81.282L50.1343 79.956ZM50.3033 85.143V83.661H45.4673V80.658H43.6993V83.661H38.8633V85.143H50.3033ZM58.0296 80.593C55.8456 80.593 54.2726 81.776 54.2726 83.466C54.2726 85.169 55.8456 86.339 58.0296 86.339C60.2136 86.339 61.7866 85.169 61.7866 83.466C61.7866 81.776 60.2136 80.593 58.0296 80.593ZM59.3296 78.786C58.0296 78.552 56.9896 78.162 56.2226 77.421C56.1446 77.343 56.0666 77.252 56.0016 77.161C56.1056 76.94 56.1966 76.693 56.2746 76.446C56.3136 76.342 56.3396 76.238 56.3656 76.134H58.8616V74.73H51.5946V76.134H54.5456C54.3506 76.745 54.0386 77.291 53.5836 77.772C52.8946 78.5 51.9846 79.033 50.8536 79.358L51.8676 80.658C52.9076 80.32 54.0646 79.618 54.9486 78.682L55.1826 78.422C55.4816 78.747 55.8326 79.033 56.2096 79.28C56.8986 79.722 57.6396 80.021 58.4326 80.164L59.3296 78.786ZM58.2376 78.058H60.2656V80.71H62.0076V74.353H60.2656V76.654H58.2376V78.058ZM58.0296 84.909C56.7296 84.909 56.0146 84.337 56.0146 83.466C56.0146 82.595 56.7296 82.023 58.0296 82.023C59.3296 82.023 60.0446 82.595 60.0446 83.466C60.0446 84.337 59.3296 84.909 58.0296 84.909Z" fill="#242D3C"/>
</svg>
