<svg width="148" height="154" viewBox="0 0 148 154" fill="none" xmlns="http://www.w3.org/2000/svg">
<path d="M105.005 1.171C102.652 1.171 100.975 2.523 100.975 4.304C100.975 6.085 102.652 7.437 105.005 7.437C107.397 7.437 109.061 6.085 109.061 4.304C109.061 2.523 107.397 1.171 105.005 1.171ZM105.915 13.001V9.517H110.751V8.035H99.3105V9.517H104.147V13.001H105.915ZM105.005 5.981C103.588 5.981 102.717 5.201 102.717 4.304C102.717 3.407 103.588 2.627 105.005 2.627C106.461 2.627 107.319 3.407 107.319 4.304C107.319 5.201 106.461 5.981 105.005 5.981ZM120.024 10.752V9.296L114.109 9.543V7.034H118.477V1.73H112.367V3.212H116.735V5.565H112.367V11.155L120.024 10.752ZM122.286 13.001V1.353H120.544V13.001H122.286ZM135.303 8.893V7.463H123.863V8.893H135.303ZM125.163 9.413V12.871H134.51V11.389H126.905V9.413H125.163ZM125.631 3.836C125.631 5.578 127.36 6.735 129.583 6.735C131.806 6.735 133.535 5.578 133.535 3.836C133.535 2.107 131.806 0.937 129.583 0.937C127.36 0.937 125.631 2.107 125.631 3.836ZM129.583 2.393C130.792 2.393 131.793 2.991 131.793 3.836C131.793 4.681 130.792 5.279 129.583 5.279C128.374 5.279 127.373 4.681 127.373 3.836C127.373 2.991 128.374 2.393 129.583 2.393ZM143.16 8.165C140.976 8.165 139.403 9.231 139.403 10.752C139.403 12.286 140.976 13.339 143.16 13.339C145.344 13.339 146.917 12.286 146.917 10.752C146.917 9.231 145.344 8.165 143.16 8.165ZM143.03 7.801H144.72V5.656H145.526V8.321H147.242V1.353H145.526V4.174H144.72V1.47H143.03V7.801ZM139.468 4.148C137.752 4.148 136.673 4.954 136.673 6.137C136.673 7.32 137.752 8.126 139.468 8.126C141.184 8.126 142.263 7.32 142.263 6.137C142.263 4.954 141.184 4.148 139.468 4.148ZM142.588 3.94V2.666H136.218V3.94H142.588ZM143.16 11.961C141.86 11.961 141.145 11.48 141.145 10.752C141.145 10.024 141.86 9.543 143.16 9.543C144.46 9.543 145.175 10.024 145.175 10.752C145.175 11.48 144.46 11.961 143.16 11.961ZM141.223 2.406V1.132H137.713V2.406H141.223ZM139.468 6.904C138.727 6.904 138.337 6.605 138.337 6.137C138.337 5.669 138.727 5.37 139.468 5.37C140.209 5.37 140.599 5.669 140.599 6.137C140.599 6.605 140.209 6.904 139.468 6.904Z" fill="#242D3C"/>
<path d="M28.9829 37.486L29.8799 38.708L31.3749 37.434V45H33.0649V35.12H31.7389L28.9829 37.486ZM35.8597 40.06C35.8597 43.284 37.8747 45.247 40.1107 45.247C42.3467 45.247 44.3617 43.284 44.3617 40.06C44.3617 36.836 42.3467 34.873 40.1107 34.873C37.8747 34.873 35.8597 36.836 35.8597 40.06ZM42.6717 40.06C42.6717 42.4 41.4237 43.817 40.1107 43.817C38.7977 43.817 37.5497 42.4 37.5497 40.06C37.5497 37.72 38.7977 36.303 40.1107 36.303C41.4237 36.303 42.6717 37.72 42.6717 40.06ZM45.2161 40.06C45.2161 43.284 47.2311 45.247 49.4671 45.247C51.7031 45.247 53.7181 43.284 53.7181 40.06C53.7181 36.836 51.7031 34.873 49.4671 34.873C47.2311 34.873 45.2161 36.836 45.2161 40.06ZM52.0281 40.06C52.0281 42.4 50.7801 43.817 49.4671 43.817C48.1541 43.817 46.9061 42.4 46.9061 40.06C46.9061 37.72 48.1541 36.303 49.4671 36.303C50.7801 36.303 52.0281 37.72 52.0281 40.06ZM61.3846 37.915C61.3846 36.225 60.0196 34.873 57.8486 34.873C56.2886 34.873 55.0406 35.9 54.3516 37.291L55.6126 38.123C56.1326 37.096 56.9646 36.303 57.8486 36.303C58.9666 36.303 59.6946 37.018 59.6946 37.915C59.6946 38.903 59.0186 39.579 58.3556 40.203L54.3906 43.895V45H61.6186V43.57H56.9126L59.4086 41.308C60.3446 40.476 61.3846 39.423 61.3846 37.915ZM67.7247 39.306H62.1607V40.736H67.7247V39.306ZM74.9812 37.915C74.9812 36.225 73.6162 34.873 71.4452 34.873C69.8852 34.873 68.6372 35.9 67.9482 37.291L69.2092 38.123C69.7292 37.096 70.5612 36.303 71.4452 36.303C72.5632 36.303 73.2912 37.018 73.2912 37.915C73.2912 38.903 72.6152 39.579 71.9522 40.203L67.9872 43.895V45H75.2152V43.57H70.5092L73.0052 41.308C73.9412 40.476 74.9812 39.423 74.9812 37.915ZM80.7104 41.087H77.9804L80.7104 37.85V41.087ZM75.6794 42.517H80.7104V45H82.4004V42.517H83.8304V41.087H82.4004V35.12H81.0354L75.6794 41.425V42.517ZM84.2542 40.06C84.2542 43.284 86.2692 45.247 88.5052 45.247C90.7412 45.247 92.7562 43.284 92.7562 40.06C92.7562 36.836 90.7412 34.873 88.5052 34.873C86.2692 34.873 84.2542 36.836 84.2542 40.06ZM91.0662 40.06C91.0662 42.4 89.8182 43.817 88.5052 43.817C87.1922 43.817 85.9442 42.4 85.9442 40.06C85.9442 37.72 87.1922 36.303 88.5052 36.303C89.8182 36.303 91.0662 37.72 91.0662 40.06ZM99.0186 39.306H93.4546V40.736H99.0186V39.306ZM100.432 37.486L101.329 38.708L102.824 37.434V45H104.514V35.12H103.188L100.432 37.486ZM111.144 45.247C113.471 45.247 115.018 43.921 115.018 42.179C115.018 40.944 114.173 40.086 113.341 39.67C114.004 39.267 114.433 38.578 114.433 37.642C114.433 36.173 113.276 34.873 111.144 34.873C109.012 34.873 107.855 36.173 107.855 37.642C107.855 38.578 108.284 39.267 108.947 39.67C108.115 40.086 107.27 40.944 107.27 42.179C107.27 43.921 108.817 45.247 111.144 45.247ZM111.144 43.817C109.688 43.817 108.96 43.115 108.96 42.179C108.96 41.243 109.792 40.463 111.144 40.463C112.496 40.463 113.328 41.243 113.328 42.179C113.328 43.115 112.6 43.817 111.144 43.817ZM109.545 37.642C109.545 36.849 110.104 36.303 111.144 36.303C112.184 36.303 112.743 36.849 112.743 37.642C112.743 38.37 112.132 39.046 111.144 39.046C110.156 39.046 109.545 38.37 109.545 37.642ZM119.194 34.873C117.062 34.873 115.619 36.42 115.619 38.331C115.619 40.242 117.062 41.802 119.194 41.802C119.35 41.802 119.493 41.776 119.662 41.737L117.868 44.987H119.688L122.145 40.554C122.457 39.982 122.769 39.176 122.769 38.461C122.769 36.498 121.495 34.873 119.194 34.873ZM121.079 38.331C121.079 39.527 120.351 40.372 119.194 40.372C118.037 40.372 117.309 39.488 117.309 38.331C117.309 37.187 118.037 36.303 119.194 36.303C120.312 36.303 121.079 37.239 121.079 38.331ZM130.396 37.915C130.396 36.225 129.031 34.873 126.86 34.873C125.3 34.873 124.052 35.9 123.363 37.291L124.624 38.123C125.144 37.096 125.976 36.303 126.86 36.303C127.978 36.303 128.706 37.018 128.706 37.915C128.706 38.903 128.03 39.579 127.367 40.203L123.402 43.895V45H130.63V43.57H125.924L128.42 41.308C129.356 40.476 130.396 39.423 130.396 37.915ZM134.682 34.873C132.55 34.873 131.107 36.42 131.107 38.331C131.107 40.242 132.55 41.802 134.682 41.802C134.838 41.802 134.981 41.776 135.15 41.737L133.356 44.987H135.176L137.633 40.554C137.945 39.982 138.257 39.176 138.257 38.461C138.257 36.498 136.983 34.873 134.682 34.873ZM136.567 38.331C136.567 39.527 135.839 40.372 134.682 40.372C133.525 40.372 132.797 39.488 132.797 38.331C132.797 37.187 133.525 36.303 134.682 36.303C135.8 36.303 136.567 37.239 136.567 38.331ZM139.073 40.06C139.073 43.284 141.088 45.247 143.324 45.247C145.56 45.247 147.575 43.284 147.575 40.06C147.575 36.836 145.56 34.873 143.324 34.873C141.088 34.873 139.073 36.836 139.073 40.06ZM145.885 40.06C145.885 42.4 144.637 43.817 143.324 43.817C142.011 43.817 140.763 42.4 140.763 40.06C140.763 37.72 142.011 36.303 143.324 36.303C144.637 36.303 145.885 37.72 145.885 40.06Z" fill="#242D3C"/>
<path d="M119.374 71.851C119.374 69.511 117.749 67.873 115.604 67.873C113.459 67.873 111.834 69.511 111.834 71.851C111.834 74.191 113.459 75.829 115.604 75.829C117.749 75.829 119.374 74.191 119.374 71.851ZM117.632 71.851C117.632 73.359 116.8 74.347 115.604 74.347C114.408 74.347 113.576 73.359 113.576 71.851C113.576 70.343 114.408 69.355 115.604 69.355C116.8 69.355 117.632 70.343 117.632 71.851ZM122.416 79.001V67.353H120.674V79.001H122.416ZM130.636 73.45C128.452 73.45 126.879 74.659 126.879 76.401C126.879 78.13 128.452 79.339 130.636 79.339C132.82 79.339 134.393 78.13 134.393 76.401C134.393 74.659 132.82 73.45 130.636 73.45ZM124.695 69.186H129.115C128.699 70.798 126.736 72.072 123.928 72.631L124.747 73.983C127.88 73.32 131.052 71.37 131.013 67.73H124.695V69.186ZM130.87 72.618H132.859V73.58H134.601V67.353H132.859V68.887H131.247V70.343H132.859V71.162H130.87V72.618ZM130.636 77.909C129.336 77.909 128.621 77.298 128.621 76.401C128.621 75.504 129.336 74.893 130.636 74.893C131.936 74.893 132.651 75.504 132.651 76.401C132.651 77.298 131.936 77.909 130.636 77.909ZM144.434 72.826C143.173 72.462 142.081 71.89 141.301 71.032C141.184 70.902 141.067 70.759 140.976 70.616L141.08 70.343C141.223 69.992 141.327 69.602 141.392 69.199H143.992V67.743H136.595V69.199H139.585C139.416 69.992 139.104 70.668 138.649 71.227C138.012 72.046 137.076 72.696 135.854 73.19L136.92 74.464C138.077 73.983 139.208 73.203 140.053 72.15C140.105 72.085 140.157 72.02 140.196 71.955L140.352 72.137C141.21 73.099 142.341 73.84 143.485 74.178L144.434 72.826ZM138.077 74.893V78.871H147.333V77.389H139.819V74.893H138.077ZM147.008 75.894V67.353H145.266V75.894H147.008Z" fill="#242D3C"/>
<path d="M40.2817 103.486L41.1787 104.708L42.6737 103.434V111H44.3637V101.12H43.0377L40.2817 103.486ZM50.9285 100.184C49.0045 100.184 47.4965 101.432 47.4965 103.174C47.4965 104.916 49.0045 106.164 50.9285 106.164C52.8525 106.164 54.3605 104.916 54.3605 103.174C54.3605 101.432 52.8525 100.184 50.9285 100.184ZM50.9285 104.734C49.8885 104.734 49.2385 104.11 49.2385 103.174C49.2385 102.238 49.8885 101.614 50.9285 101.614C51.9685 101.614 52.6185 102.238 52.6185 103.174C52.6185 104.11 51.9685 104.734 50.9285 104.734ZM57.8835 106.216V100.353H56.1415V106.216H57.8835ZM58.1175 111.923V110.506H50.6815V109.908H57.8575V106.606H48.9395V108.01H56.1155V108.582H48.9395V111.923H58.1175ZM61.2549 105.995C61.2549 103.564 62.1649 101.484 63.4779 100.275L62.6979 99.17C60.7999 100.561 59.5649 103.135 59.5649 105.995C59.5649 108.855 60.7869 111.429 62.6979 112.82L63.4779 111.715C62.1519 110.532 61.2549 108.413 61.2549 105.995ZM65.0328 107.88C66.3588 107.646 67.8408 107.1 68.9718 106.281C69.2188 106.112 69.4528 105.917 69.6608 105.709C69.7778 105.839 69.9078 105.956 70.0508 106.073C71.2338 107.048 72.7808 107.672 74.3018 107.854L75.1858 106.476C73.4698 106.242 72.0398 105.826 70.9738 104.968C70.8178 104.851 70.6748 104.708 70.5448 104.552C70.6098 104.435 70.6618 104.331 70.7008 104.214L70.7658 104.071H74.4188V102.615H64.9548V104.071H68.8678C68.8288 104.162 68.7768 104.24 68.7248 104.305C67.8668 105.553 66.1378 106.203 64.0838 106.541L65.0328 107.88ZM75.4068 111.143V109.661H70.5708V107.386H68.8028V109.661H63.9668V111.143H75.4068ZM66.9568 100.483V101.939H72.4168V100.483H66.9568ZM80.8061 104.019C78.9731 104.019 77.6081 104.812 77.6081 106.138C77.6081 107.126 78.3751 107.828 79.5321 108.114C79.6621 108.153 79.7921 108.179 79.9351 108.205V108.972L76.4381 109.011V110.493L85.0181 110.363V108.907L81.7031 108.946V108.192C81.8201 108.179 81.9501 108.153 82.0671 108.114C83.2241 107.828 84.0041 107.126 84.0041 106.138C84.0041 104.812 82.6131 104.019 80.8061 104.019ZM87.1501 112.001V100.353H85.4081V112.001H87.1501ZM84.7841 103.707V102.251H76.8281V103.707H84.7841ZM78.5571 100.405V101.861H83.0551V100.405H78.5571ZM80.8061 106.957C79.9611 106.957 79.3241 106.697 79.3241 106.138C79.3241 105.579 79.9611 105.319 80.8061 105.319C81.6511 105.319 82.2881 105.579 82.2881 106.138C82.2881 106.697 81.6511 106.957 80.8061 106.957ZM89.1955 110.532C90.4305 109.765 91.5485 108.764 92.3415 107.503L92.3675 107.464C92.6405 107.867 92.9395 108.257 93.2775 108.608C93.9535 109.323 94.7465 109.895 95.5265 110.259L96.5535 108.959C95.6305 108.556 94.8635 108.049 94.2265 107.425C93.7975 106.996 93.4205 106.489 93.1215 105.904C93.1865 105.735 93.2385 105.579 93.2775 105.41C93.3945 105.02 93.4855 104.617 93.5375 104.188H96.0855V102.706H88.9095V104.188H91.7565C91.7175 104.461 91.6525 104.734 91.5875 104.981C91.0675 106.892 89.8455 108.283 88.0515 109.297L89.1955 110.532ZM98.6985 112.001V106.268H100.35V104.76H98.6985V100.353H96.9565V112.001H98.6985ZM94.6165 101.809V100.327H90.4435V101.809H94.6165ZM105.075 106.06C105.075 109.284 107.09 111.247 109.326 111.247C111.562 111.247 113.577 109.284 113.577 106.06C113.577 102.836 111.562 100.873 109.326 100.873C107.09 100.873 105.075 102.836 105.075 106.06ZM111.887 106.06C111.887 108.4 110.639 109.817 109.326 109.817C108.013 109.817 106.765 108.4 106.765 106.06C106.765 103.72 108.013 102.303 109.326 102.303C110.639 102.303 111.887 103.72 111.887 106.06ZM113.683 102.55H118.61L114.827 111H116.608L120.573 102.095V101.12H113.683V102.55ZM120.777 111.65H122.467L126.705 100.47H125.015L120.777 111.65ZM126.936 106.06C126.936 109.284 128.951 111.247 131.187 111.247C133.423 111.247 135.438 109.284 135.438 106.06C135.438 102.836 133.423 100.873 131.187 100.873C128.951 100.873 126.936 102.836 126.936 106.06ZM133.748 106.06C133.748 108.4 132.5 109.817 131.187 109.817C129.874 109.817 128.626 108.4 128.626 106.06C128.626 103.72 129.874 102.303 131.187 102.303C132.5 102.303 133.748 103.72 133.748 106.06ZM137.007 103.486L137.904 104.708L139.399 103.434V111H141.089V101.12H139.763L137.007 103.486ZM145.652 105.995C145.652 108.413 144.755 110.532 143.429 111.715L144.209 112.82C146.12 111.429 147.342 108.855 147.342 105.995C147.342 103.135 146.107 100.561 144.209 99.17L143.429 100.275C144.742 101.484 145.652 103.564 145.652 105.995Z" fill="#242D3C"/>
<path d="M121.779 140.295V133.821H112.835V140.295H116.423V142.661H111.587V144.143H123.027V142.661H118.191V140.295H121.779ZM114.577 135.303H120.037V138.813H114.577V135.303ZM128.946 133.691V136.785H126.125V133.691H124.383V142.869H130.688V133.691H128.946ZM133.912 145.001V138.878H135.563V137.37H133.912V133.353H132.17V145.001H133.912ZM126.125 141.387V138.241H128.946V141.387H126.125ZM139.923 133.184C137.999 133.184 136.491 134.432 136.491 136.174C136.491 137.916 137.999 139.164 139.923 139.164C141.847 139.164 143.355 137.916 143.355 136.174C143.355 134.432 141.847 133.184 139.923 133.184ZM139.923 137.734C138.883 137.734 138.233 137.11 138.233 136.174C138.233 135.238 138.883 134.614 139.923 134.614C140.963 134.614 141.613 135.238 141.613 136.174C141.613 137.11 140.963 137.734 139.923 137.734ZM146.878 139.216V133.353H145.136V139.216H146.878ZM147.112 144.923V143.506H139.676V142.908H146.852V139.606H137.934V141.01H145.11V141.582H137.934V144.923H147.112Z" fill="#242D3C"/>
</svg>
