<svg width="266" height="11" viewBox="0 0 266 11" fill="none" xmlns="http://www.w3.org/2000/svg">
<path d="M4.72 3.03C3.16 3.03 1.88 3.6 1.88 4.63C1.88 5.66 3.16 6.23 4.72 6.23C6.28 6.23 7.56 5.66 7.56 4.63C7.56 3.6 6.28 3.03 4.72 3.03ZM3.41 9.65V7.43H6.06V9.75H6.83V7.43H9.1V6.79H0.34V7.43H2.64V9.65H3.41ZM4.72 5.61C3.51 5.61 2.64 5.28 2.64 4.63C2.64 3.98 3.51 3.65 4.72 3.65C5.93 3.65 6.8 3.98 6.8 4.63C6.8 5.28 5.93 5.61 4.72 5.61ZM8.5 2.65V2.01H0.94V2.65H8.5ZM2.62 0.809999V1.45H6.82V0.809999H2.62ZM15.8134 9.5V4.86H17.2534V9.74H18.0134V0.83H17.2534V4.18H15.8134V0.93H15.0634V9.5H15.8134ZM10.3634 1.27V8.13L14.5634 7.89V7.24L11.1134 7.39V1.93H13.9434V1.27H10.3634ZM20.0967 0.989999V1.63H21.2367L21.3067 4.04H19.8167V4.69H23.2167V5.75H19.2267V6.41H27.9867V5.75H23.9967V4.69H27.3867V4.04H25.8867L25.9567 1.63H27.1067V0.989999H20.0967ZM21.9967 1.63H25.1967L25.1267 4.04H22.0667L21.9967 1.63ZM27.3367 9.65V8.99H20.9667V7.11H20.2067V9.65H27.3367ZM33.2101 1.04V2.75H29.9801V1.04H29.2201V5.82H33.9701V3.71H35.9501V7.49H36.7101V0.83H35.9501V3.03H33.9701V1.04H33.2101ZM36.9601 9.65V8.99H30.8601V6.79H30.1001V9.65H36.9601ZM29.9801 5.16V3.41H33.2101V5.16H29.9801ZM42.4934 3.47C40.8434 3.47 39.5734 4.2 39.5734 5.3C39.5734 6.12 40.2934 6.74 41.3334 7C41.5834 7.06 41.8334 7.1 42.1034 7.12V8.25H38.1134V8.91H46.8734V8.25H42.8834V7.12C43.1534 7.1 43.4034 7.06 43.6434 7C44.7034 6.75 45.4134 6.12 45.4134 5.3C45.4134 4.2 44.1434 3.47 42.4934 3.47ZM42.4934 6.49C41.2634 6.49 40.3334 6.08 40.3334 5.3C40.3334 4.52 41.2634 4.11 42.4934 4.11C43.7234 4.11 44.6534 4.52 44.6534 5.3C44.6534 6.08 43.7234 6.49 42.4934 6.49ZM46.2734 3.09V2.43H38.7134V3.09H46.2734ZM40.3134 1.01V1.67H44.6734V1.01H40.3134ZM48.5668 8.47H47.6068V9.43H48.0368C48.0368 9.78 47.8868 10.15 47.5768 10.39L47.8268 10.61C48.2268 10.32 48.5668 9.79 48.5668 9.31V8.47ZM57.1709 0.709999C55.3709 0.709999 54.1609 1.79 54.1609 3.02C54.1609 4.25 55.3709 5.33 57.1709 5.33C58.9709 5.33 60.1809 4.25 60.1809 3.02C60.1809 1.79 58.9709 0.709999 57.1709 0.709999ZM57.1709 4.67C55.7809 4.67 54.9209 3.9 54.9209 3.02C54.9209 2.14 55.7809 1.37 57.1709 1.37C58.5609 1.37 59.4209 2.14 59.4209 3.02C59.4209 3.9 58.5609 4.67 57.1709 4.67ZM55.8709 9.65V6.79H58.5209V9.75H59.2909V6.79H61.5609V6.13H52.8009V6.79H55.1009V9.65H55.8709ZM68.4443 5.31C67.4543 4.91 66.5743 4.26 65.9543 3.44C65.8243 3.27 65.7143 3.09 65.6143 2.9L65.7143 2.63C65.8843 2.11 65.9843 1.56 65.9943 0.989999H65.2143C65.1043 2.99 64.0243 4.77 62.1043 5.65L62.5843 6.18C63.5543 5.7 64.3943 4.97 64.9943 4.08C65.1043 3.92 65.2143 3.75 65.3043 3.58C65.3743 3.7 65.4643 3.82 65.5543 3.93C66.2043 4.78 67.0943 5.5 67.9843 5.9L68.4443 5.31ZM67.3843 3.35H69.6243V7.41H70.3843V0.83H69.6243V2.69H67.3843V3.35ZM70.6343 9.65V8.99H64.5343V6.71H63.7743V9.65H70.6343ZM77.7077 1.14H72.1177V1.8H74.6877C74.6377 2.1 74.5677 2.39 74.4777 2.67C73.9977 4.03 72.9477 5.11 71.5477 5.71L72.0077 6.26C72.9177 5.85 73.7977 5.16 74.4477 4.31C74.5577 4.17 74.6577 4.02 74.7477 3.87C74.8877 4.05 75.0377 4.23 75.2077 4.4C75.8977 5.09 76.7777 5.68 77.6177 6.02L78.0477 5.4C77.4177 5.17 76.8377 4.87 76.3077 4.5C75.7977 4.14 75.3877 3.72 75.0777 3.24L75.2277 2.88C75.3577 2.53 75.4477 2.17 75.4977 1.8H77.7077V1.14ZM77.1277 3.65H79.0677V7.41H79.8277V0.83H79.0677V2.99H77.1277V3.65ZM80.0777 9.65V8.99H73.9777V6.71H73.2177V9.65H80.0777ZM87.681 8.31V7.67L84.691 7.71V6.71C84.871 6.69 85.041 6.66 85.211 6.61C86.051 6.36 86.681 5.75 86.681 4.98C86.681 3.94 85.571 3.23 84.301 3.23C83.031 3.23 81.921 3.94 81.921 4.98C81.921 5.75 82.551 6.36 83.391 6.61C83.561 6.66 83.731 6.69 83.911 6.71V7.72L81.061 7.75V8.41L87.681 8.31ZM88.841 9.75V5.31H90.131V4.63H88.841V0.83H88.081V9.75H88.841ZM84.301 6.09C83.331 6.09 82.681 5.62 82.681 4.98C82.681 4.34 83.331 3.87 84.301 3.87C85.271 3.87 85.921 4.34 85.921 4.98C85.921 5.62 85.271 6.09 84.301 6.09ZM87.281 2.86V2.2H81.321V2.86H87.281ZM82.651 0.949999V1.61H85.951V0.949999H82.651ZM95.1144 1.04V2.75H91.8844V1.04H91.1244V5.82H95.8744V3.71H97.8544V7.49H98.6144V0.83H97.8544V3.03H95.8744V1.04H95.1144ZM98.8644 9.65V8.99H92.7644V6.79H92.0044V9.65H98.8644ZM91.8844 5.16V3.41H95.1144V5.16H91.8844ZM104.398 3.47C102.748 3.47 101.478 4.2 101.478 5.3C101.478 6.12 102.198 6.74 103.238 7C103.488 7.06 103.738 7.1 104.008 7.12V8.25H100.018V8.91H108.778V8.25H104.788V7.12C105.058 7.1 105.308 7.06 105.548 7C106.608 6.75 107.318 6.12 107.318 5.3C107.318 4.2 106.048 3.47 104.398 3.47ZM104.398 6.49C103.168 6.49 102.238 6.08 102.238 5.3C102.238 4.52 103.168 4.11 104.398 4.11C105.628 4.11 106.558 4.52 106.558 5.3C106.558 6.08 105.628 6.49 104.398 6.49ZM108.178 3.09V2.43H100.618V3.09H108.178ZM102.218 1.01V1.67H106.578V1.01H102.218ZM112.742 4.89V5.53H121.502V4.89H112.742ZM120.602 3.4H114.492V1.61H120.482V0.989999H113.732V4.03H120.602V3.4ZM117.162 6.13C115.502 6.13 114.222 6.9 114.222 8.13C114.222 9.36 115.502 10.13 117.162 10.13C118.822 10.13 120.102 9.36 120.102 8.13C120.102 6.9 118.822 6.13 117.162 6.13ZM117.162 9.49C115.942 9.49 114.982 8.97 114.982 8.13C114.982 7.29 115.942 6.77 117.162 6.77C118.382 6.77 119.342 7.29 119.342 8.13C119.342 8.97 118.382 9.49 117.162 9.49ZM130.356 9.75V0.83H129.596V9.75H130.356ZM129.196 8.21V7.55L122.376 7.63V8.31L129.196 8.21ZM125.626 1.05C124.026 1.05 122.926 2.26 122.926 3.57C122.926 4.88 124.026 6.09 125.626 6.09C127.226 6.09 128.326 4.88 128.326 3.57C128.326 2.26 127.226 1.05 125.626 1.05ZM125.626 5.43C124.446 5.43 123.686 4.53 123.686 3.57C123.686 2.61 124.446 1.71 125.626 1.71C126.806 1.71 127.566 2.61 127.566 3.57C127.566 4.53 126.806 5.43 125.626 5.43ZM140.09 5.79C138.4 5.79 137.25 6.63 137.25 7.86C137.25 9.09 138.4 9.93 140.09 9.93C141.76 9.93 142.93 9.09 142.93 7.86C142.93 6.63 141.76 5.79 140.09 5.79ZM135.03 5.52L141.37 5.27V4.62L139.74 4.68L139.82 1.8H140.73V1.14H135.3V1.8H136.28L136.37 4.8L135.03 4.84V5.52ZM140.09 9.27C138.76 9.27 138.01 8.7 138.01 7.86C138.01 7.02 138.76 6.45 140.09 6.45C141.42 6.45 142.17 7.02 142.17 7.86C142.17 8.7 141.42 9.27 140.09 9.27ZM140.65 2.84H142.19V3.49H140.65V4.14H142.19V5.88H142.95V0.83H142.19V2.19H140.65V2.84ZM137.05 1.8H139.05L138.98 4.71L137.13 4.77L137.05 1.8ZM149.734 5.75C148.044 5.75 146.894 6.62 146.894 7.84C146.894 9.07 148.044 9.93 149.734 9.93C151.404 9.93 152.574 9.07 152.574 7.84C152.574 6.62 151.404 5.75 149.734 5.75ZM149.734 9.27C148.404 9.27 147.654 8.68 147.654 7.84C147.654 7 148.404 6.41 149.734 6.41C151.064 6.41 151.814 7 151.814 7.84C151.814 8.68 151.064 9.27 149.734 9.27ZM150.584 5.41V3.49H151.914V5.81H152.674V0.83H151.914V2.83H150.584V0.91H149.834V5.41H150.584ZM144.674 5.56C145.384 5.12 146.054 4.51 146.544 3.75L146.814 3.3L147.024 3.59C147.564 4.25 148.264 4.82 148.994 5.18L149.414 4.6C148.874 4.36 148.394 4.06 147.964 3.69C147.614 3.38 147.324 3.03 147.104 2.63L147.144 2.49C147.294 2.03 147.384 1.54 147.394 1.01H146.634C146.524 2.85 145.604 4.27 144.214 5.07L144.674 5.56ZM157.787 6.37H159.317V9.5H160.067V0.93H159.317V2.77H158.077V3.44H159.317V5.7H157.787V6.37ZM154.237 1.92H157.107C157.027 4.04 155.817 6.52 153.847 7.88L154.397 8.39C156.427 6.87 157.937 4.38 157.907 1.26H154.237V1.92ZM162.027 9.74V0.83H161.267V9.74H162.027ZM169.41 5.27C168.51 4.87 167.7 4.26 167.12 3.53C166.95 3.32 166.81 3.1 166.69 2.88C166.82 2.56 166.9 2.22 166.95 1.87H169.09V1.21H163.71V1.87H166.14C166.09 2.23 166 2.57 165.86 2.89C165.34 4.06 164.34 4.97 163.21 5.44L163.66 5.97C164.46 5.58 165.26 4.99 165.86 4.26C166.05 4.03 166.22 3.78 166.37 3.53C166.66 3.96 167 4.36 167.41 4.73C167.9 5.18 168.42 5.55 168.97 5.84L169.41 5.27ZM170.95 9.75V5.11H172.24V4.43H170.95V0.83H170.19V9.75H170.95ZM169.79 8.21V7.57L166.75 7.61V5.35H165.97V7.62L163.17 7.65V8.31L169.79 8.21ZM172.684 5.4V6.06H181.444V5.4H172.684ZM180.794 9.65V8.99H174.424V6.81H173.664V9.65H180.794ZM173.674 0.89V4.13H180.544V3.48H174.434V0.89H173.674ZM193.448 5.55V0.83H192.688V5.55H193.448ZM192.668 6.01V7.09H187.588V6.01H186.828V9.69H193.428V6.01H192.668ZM187.588 9.03V7.73H192.668V9.03H187.588ZM188.278 0.759999C186.868 0.759999 185.718 1.73 185.718 3.09C185.718 4.45 186.868 5.42 188.278 5.42C189.688 5.42 190.838 4.45 190.838 3.09C190.838 1.73 189.688 0.759999 188.278 0.759999ZM188.278 4.78C187.208 4.78 186.478 4.08 186.478 3.09C186.478 2.1 187.208 1.4 188.278 1.4C189.348 1.4 190.078 2.1 190.078 3.09C190.078 4.08 189.348 4.78 188.278 4.78ZM199.752 3.85V1.06H195.452V1.7H198.992V3.23H195.452V6.13L201.122 5.87V5.24L196.212 5.43V3.85H199.752ZM202.892 6.44V0.83H202.132V1.94H200.362V2.59H202.132V3.74H200.362V4.39H202.132V6.44H202.892ZM202.872 9.79V6.94H195.972V7.6H202.112V9.79H202.872ZM212.405 9.75V0.83H211.645V9.75H212.405ZM207.355 1.25C205.755 1.25 204.525 2.47 204.525 4.27C204.525 6.08 205.755 7.3 207.355 7.3C208.955 7.3 210.185 6.08 210.185 4.27C210.185 2.47 208.955 1.25 207.355 1.25ZM207.355 1.93C208.545 1.93 209.405 2.82 209.405 4.26C209.405 5.67 208.605 6.62 207.355 6.62C206.105 6.62 205.305 5.67 205.305 4.26C205.305 2.82 206.165 1.93 207.355 1.93ZM225.03 9.69V9.06H218.72V8.25H224.82V6.27H221.79V5.43H225.78V4.79H217.02V5.43H221.01V6.27H217.96V6.89H224.06V7.65H217.96V9.69H225.03ZM224.02 0.89V1.89H218.77V0.89H218.01V4.05H224.78V0.89H224.02ZM218.77 3.43V2.49H224.02V3.43H218.77ZM233.973 9.75V5H235.423V4.32H233.973V0.83H233.213V9.75H233.973ZM226.943 1.87H230.783C230.673 4.25 229.143 6.63 226.663 7.83L227.163 8.39C229.753 7.03 231.633 4.49 231.603 1.21H226.943V1.87ZM243.726 5.95V3.76H244.956V3.08H243.726V0.83H242.966V5.95H243.726ZM242.946 6.41V7.3H237.966V6.41H237.206V9.69H243.706V6.41H242.946ZM237.966 9.05V7.92H242.946V9.05H237.966ZM239.036 5.91C240.446 5.91 241.456 5.28 241.456 4.33C241.456 3.38 240.446 2.75 239.036 2.75C237.626 2.75 236.616 3.38 236.616 4.33C236.616 5.28 237.626 5.91 239.036 5.91ZM239.036 5.31C238.036 5.31 237.376 4.97 237.376 4.33C237.376 3.69 238.036 3.35 239.036 3.35C240.036 3.35 240.696 3.69 240.696 4.33C240.696 4.97 240.036 5.31 239.036 5.31ZM240.626 1.32V0.7H237.286V1.32H240.626ZM241.926 2.43V1.81H235.986V2.43H241.926ZM253.36 9.75V0.83H252.6V9.75H253.36ZM245.99 1.11V8.08L251.91 7.77V7.11L246.75 7.34V1.11H245.99ZM262.303 9.75V4.71H263.753V4.03H262.303V0.83H261.543V9.75H262.303ZM255.283 1.21V8.13L261.003 7.82V7.16L256.043 7.39V1.87H259.863V1.21H255.283ZM264.406 9.5H265.366V8.54H264.406V9.5Z" fill="#D7191F"/>
</svg>
