<svg width="294" height="27" viewBox="0 0 294 27" fill="none" xmlns="http://www.w3.org/2000/svg">
<path d="M1.28 6.39V9.69H8.14V6.39H1.28ZM0.34 4.48V5.14H9.1V4.48H7.81C7.9 4.04 7.98 3.57 8.04 3.06C8.11 2.45 8.17 1.76 8.2 0.989999H1.19V1.63H7.42C7.39 2.15 7.34 2.67 7.28 3.18C7.23 3.61 7.16 4.04 7.06 4.48H0.34ZM7.38 7.03V9.03H2.04V7.03H7.38ZM9.78336 4.89V5.55H12.0334V6.89C11.8034 7.04 11.6234 7.23 11.4834 7.44C11.3334 7.67 11.2634 7.94 11.2634 8.23C11.2634 9.4 12.5434 10.13 14.2034 10.13C15.8634 10.13 17.1434 9.4 17.1434 8.23C17.1434 7.64 16.8234 7.17 16.2934 6.84L16.2834 6.83V5.55H18.5434V4.89H9.78336ZM14.1634 0.47C12.5034 0.47 11.2234 1.25 11.2234 2.41C11.2234 3.57 12.5034 4.35 14.1634 4.35C15.8234 4.35 17.1034 3.57 17.1034 2.41C17.1034 1.25 15.8234 0.47 14.1634 0.47ZM14.1634 3.73C12.9434 3.73 11.9834 3.21 11.9834 2.41C11.9834 1.61 12.9434 1.09 14.1634 1.09C15.3834 1.09 16.3434 1.61 16.3434 2.41C16.3434 3.21 15.3834 3.73 14.1634 3.73ZM14.2034 9.49C12.9834 9.49 12.0234 9.02 12.0234 8.23C12.0234 7.44 12.9834 6.97 14.2034 6.97C15.4234 6.97 16.3834 7.44 16.3834 8.23C16.3834 9.02 15.4234 9.49 14.2034 9.49ZM14.2034 6.33C13.7934 6.33 13.4034 6.37 13.0434 6.46C12.9534 6.48 12.8734 6.5 12.8034 6.53V5.55H15.5134V6.5L15.3634 6.46C15.0034 6.37 14.6134 6.33 14.2034 6.33ZM24.3267 5.71C22.6367 5.71 21.4867 6.6 21.4867 7.82C21.4867 9.04 22.6367 9.93 24.3267 9.93C25.9967 9.93 27.1667 9.04 27.1667 7.82C27.1667 6.6 25.9967 5.71 24.3267 5.71ZM24.3267 9.27C23.0067 9.27 22.2467 8.66 22.2467 7.82C22.2467 6.98 23.0067 6.37 24.3267 6.37C25.6467 6.37 26.4067 6.98 26.4067 7.82C26.4067 8.66 25.6467 9.27 24.3267 9.27ZM25.3267 4.57C24.6967 4.36 24.1067 4.05 23.5667 3.65C23.1367 3.33 22.7767 2.96 22.5067 2.54L22.5367 2.45C22.7367 1.98 22.8467 1.5 22.8767 0.989999H22.0967C21.9367 2.75 20.7667 4.27 18.9867 4.99L19.4267 5.54C20.3067 5.17 21.1367 4.53 21.7667 3.74C21.9167 3.55 22.0567 3.35 22.1867 3.14C22.2767 3.25 22.3667 3.37 22.4667 3.48C23.1167 4.21 24.0167 4.86 24.8867 5.18L25.3267 4.57ZM27.0467 5.8V3.46H28.2767V2.78H27.0467V0.83H26.2867V5.8H27.0467ZM29.6101 6.85V9.69H36.4701V6.85H33.4401V5.89H37.4301V5.23H28.6701V5.89H32.6601V6.85H29.6101ZM29.5401 0.989999V1.63H30.6801L30.7501 3.74H29.2601V4.39H36.8301V3.74H35.3301L35.4001 1.63H36.5501V0.989999H29.5401ZM35.7101 7.49V9.03H30.3701V7.49H35.7101ZM31.4401 1.63H34.6401L34.5701 3.74H31.5101L31.4401 1.63ZM40.4734 1.31C39.1334 1.31 38.0034 2.48 38.0034 4.27C38.0034 6.07 39.1334 7.24 40.4734 7.24C41.4934 7.24 42.3434 6.58 42.7434 5.5C42.8434 5.22 42.9034 4.91 42.9334 4.58H43.9634V9.51H44.7134V0.92H43.9634V3.9H42.9234C42.8934 3.6 42.8334 3.32 42.7434 3.06C42.3434 1.97 41.4934 1.31 40.4734 1.31ZM40.4734 6.57C39.4834 6.57 38.7534 5.7 38.7534 4.27C38.7534 2.84 39.4834 1.97 40.4734 1.97C41.4634 1.97 42.1934 2.84 42.1934 4.27C42.1934 5.7 41.4634 6.57 40.4734 6.57ZM46.4434 9.74V0.83H45.6834V9.74H46.4434ZM56.868 9.5V4.86H58.308V9.74H59.068V0.83H58.308V4.18H56.868V0.93H56.118V9.5H56.868ZM51.418 1.27V8.13L55.618 7.89V7.24L52.168 7.39V1.93H54.998V1.27H51.418ZM68.1014 7.51V4.31H69.3314V3.63H68.1014V0.83H67.3414V7.51H68.1014ZM68.3914 9.65V8.99H62.3914V7.09H61.6314V9.65H68.3914ZM65.0014 1.34V0.7H61.6614V1.34H65.0014ZM66.3014 2.57V1.93H60.3614V2.57H66.3014ZM63.4114 6.51C64.8614 6.51 65.8714 5.75 65.8714 4.75C65.8714 3.75 64.8614 2.99 63.4114 2.99C61.9614 2.99 60.9514 3.75 60.9514 4.75C60.9514 5.75 61.9614 6.51 63.4114 6.51ZM63.4114 5.89C62.3814 5.89 61.7114 5.48 61.7114 4.75C61.7114 4.02 62.3814 3.61 63.4114 3.61C64.4414 3.61 65.1114 4.02 65.1114 4.75C65.1114 5.48 64.4414 5.89 63.4114 5.89ZM81.406 4.42C80.556 4.27 79.816 4.04 79.206 3.75C78.616 3.47 78.136 3.09 77.746 2.61C77.896 2.34 77.996 2.06 78.036 1.77H80.846V1.11H73.916V1.77H77.206C77.146 2.07 77.016 2.35 76.826 2.62C76.156 3.55 74.796 4.24 73.246 4.44L73.646 5.05C74.616 4.92 75.696 4.5 76.536 3.9C76.846 3.67 77.126 3.43 77.356 3.16C77.546 3.37 77.756 3.56 77.986 3.75C78.816 4.4 79.896 4.86 81.016 5.04L81.406 4.42ZM77.776 9.75V6.59H81.766V5.93H73.006V6.59H76.996V9.75H77.776ZM86.8194 0.809999C84.8694 0.809999 83.5594 2.08 83.5594 3.52C83.5594 4.96 84.8694 6.23 86.8194 6.23C88.7694 6.23 90.0794 4.96 90.0794 3.52C90.0794 2.08 88.7694 0.809999 86.8194 0.809999ZM86.8194 5.57C85.2794 5.57 84.3194 4.62 84.3194 3.52C84.3194 2.42 85.2794 1.47 86.8194 1.47C88.3594 1.47 89.3194 2.42 89.3194 3.52C89.3194 4.62 88.3594 5.57 86.8194 5.57ZM82.4494 8.25V8.91H91.2094V8.25H89.2394V6.36H88.4694V8.25H85.2194V6.36H84.4494V8.25H82.4494ZM97.884 0.799999C96.414 0.799999 95.284 1.84 95.284 3.28C95.284 4.72 96.414 5.76 97.884 5.76C99.354 5.76 100.484 4.72 100.484 3.28C100.484 1.84 99.354 0.799999 97.884 0.799999ZM97.884 5.1C96.764 5.1 96.044 4.35 96.044 3.28C96.044 2.21 96.764 1.46 97.884 1.46C99.004 1.46 99.724 2.21 99.724 3.28C99.724 4.35 99.004 5.1 97.884 5.1ZM102.894 7.41V3.81H104.124V3.13H102.894V0.83H102.134V7.41H102.894ZM103.184 9.65V8.99H97.184V6.71H96.424V9.65H103.184ZM110.597 9.5V4.86H112.087V9.74H112.847V0.83H112.087V4.18H110.597V0.93H109.847V9.5H110.597ZM105.197 1.17V8.08L109.347 7.84V7.19L105.947 7.34V1.17H105.197ZM120.211 7.58C119.541 7.15 118.951 6.62 118.431 6C117.941 5.41 117.541 4.8 117.241 4.16C117.301 3.95 117.361 3.73 117.411 3.51C117.571 2.78 117.651 1.98 117.651 1.11H116.871C116.841 4.28 115.701 6.57 113.751 7.9L114.261 8.43C115.271 7.68 116.131 6.71 116.721 5.51C116.801 5.34 116.881 5.18 116.951 5.01C117.051 5.2 117.161 5.38 117.291 5.57C117.941 6.57 118.831 7.54 119.691 8.16L120.211 7.58ZM121.671 9.75V4.91H123.121V4.23H121.671V0.83H120.911V9.75H121.671ZM128.604 6.11C126.914 6.11 125.764 6.93 125.764 8.02C125.764 9.11 126.914 9.93 128.604 9.93C130.274 9.93 131.444 9.11 131.444 8.02C131.444 6.93 130.274 6.11 128.604 6.11ZM126.634 5.81C128.044 5.81 129.054 5.2 129.054 4.28C129.054 3.36 128.044 2.75 126.634 2.75C125.224 2.75 124.214 3.36 124.214 4.28C124.214 5.2 125.224 5.81 126.634 5.81ZM128.604 9.29C127.274 9.29 126.524 8.75 126.524 8.02C126.524 7.29 127.274 6.75 128.604 6.75C129.934 6.75 130.684 7.29 130.684 8.02C130.684 8.75 129.934 9.29 128.604 9.29ZM126.634 5.21C125.634 5.21 124.974 4.88 124.974 4.28C124.974 3.68 125.634 3.35 126.634 3.35C127.634 3.35 128.294 3.68 128.294 4.28C128.294 4.88 127.634 5.21 126.634 5.21ZM131.324 6.2V3.76H132.554V3.08H131.324V0.83H130.564V6.2H131.324ZM129.524 2.43V1.81H123.584V2.43H129.524ZM128.224 1.32V0.7H124.884V1.32H128.224ZM141.057 9.75V0.83H140.297V9.75H141.057ZM136.007 1.25C134.407 1.25 133.177 2.47 133.177 4.27C133.177 6.08 134.407 7.3 136.007 7.3C137.607 7.3 138.837 6.08 138.837 4.27C138.837 2.47 137.607 1.25 136.007 1.25ZM136.007 1.93C137.197 1.93 138.057 2.82 138.057 4.26C138.057 5.67 137.257 6.62 136.007 6.62C134.757 6.62 133.957 5.67 133.957 4.26C133.957 2.82 134.817 1.93 136.007 1.93ZM145.672 8.25V8.91H154.432V8.25H150.442V6.11H153.832V5.45H152.292L152.372 2.47H151.612L151.532 5.45H148.552L148.482 2.47H147.722L147.792 5.45H146.262V6.11H149.662V8.25H145.672ZM146.542 1.21V1.87H153.552V1.21H146.542ZM159.835 1.34V0.7H156.495V1.34H159.835ZM161.135 2.52V1.88H155.195V2.52H161.135ZM158.245 6.21C159.695 6.21 160.705 5.5 160.705 4.55C160.705 3.6 159.695 2.89 158.245 2.89C156.795 2.89 155.785 3.6 155.785 4.55C155.785 5.5 156.795 6.21 158.245 6.21ZM158.245 5.59C157.215 5.59 156.545 5.22 156.545 4.55C156.545 3.88 157.215 3.51 158.245 3.51C159.275 3.51 159.945 3.88 159.945 4.55C159.945 5.22 159.275 5.59 158.245 5.59ZM162.935 6.24V3.96H164.165V3.28H162.935V0.83H162.175V6.24H162.935ZM156.415 6.74V9.69H162.915V6.74H156.415ZM157.175 7.36H162.155V9.05H157.175V7.36ZM170.959 3.68H166.259V1.69H170.759V1.05H165.499V4.33H167.889V5.64L164.739 5.67V6.33L171.549 6.23V5.59L168.669 5.63V4.33H170.959V3.68ZM172.969 9.58V8.92H166.779V7.05H166.019V9.58H172.969ZM172.789 7.58V0.83H172.029V7.58H172.789ZM179.853 6.41C181.103 6.41 181.973 5.68 181.973 4.7C181.973 3.72 181.103 2.99 179.853 2.99C178.603 2.99 177.733 3.72 177.733 4.7C177.733 5.68 178.603 6.41 179.853 6.41ZM183.613 6.54V4.08H184.843V6.54H185.603V0.83H184.843V3.42H183.613V0.91H182.863V6.54H183.613ZM185.583 9.8V7.04H178.583V7.7H184.823V9.8H185.583ZM179.843 5.79C179.013 5.79 178.473 5.41 178.473 4.7C178.473 3.99 179.013 3.61 179.843 3.61C180.673 3.61 181.213 3.99 181.213 4.7C181.213 5.41 180.673 5.79 179.843 5.79ZM182.223 2.57V1.93H177.383V2.57H182.223ZM181.173 1.36V0.719999H178.533V1.36H181.173ZM188.247 6.34V9.69H194.847V6.34H188.247ZM189.007 6.98H194.087V9.03H189.007V6.98ZM192.927 4.91C191.947 4.55 191.067 3.92 190.447 3.14C190.327 2.99 190.217 2.84 190.127 2.68C190.137 2.63 190.157 2.58 190.177 2.53C190.367 2.04 190.467 1.53 190.477 0.989999H189.697C189.617 2.81 188.457 4.45 186.587 5.25L187.067 5.78C187.997 5.35 188.837 4.68 189.447 3.87C189.577 3.7 189.687 3.52 189.797 3.33C189.867 3.43 189.947 3.53 190.027 3.63C190.687 4.45 191.597 5.12 192.467 5.5L192.927 4.91ZM194.867 5.84V0.83H194.107V5.84H194.867ZM207.791 9.69V9.03H201.731V8.07H207.591V5.88H200.971V6.52H206.831V7.45H200.971V9.69H207.791ZM205.651 4.51C205.021 4.3 204.431 3.99 203.891 3.59C203.461 3.28 203.111 2.91 202.841 2.5L202.881 2.42C203.071 1.97 203.181 1.49 203.201 0.989999H202.421C202.291 2.67 201.101 4.16 199.311 4.85L199.771 5.38C200.651 5.01 201.491 4.41 202.121 3.66C202.271 3.48 202.401 3.29 202.521 3.1L202.791 3.42C203.441 4.15 204.341 4.8 205.211 5.12L205.651 4.51ZM204.591 2.93H206.831V5.42H207.591V0.83H206.831V2.29H204.591V2.93ZM209.445 1.14V5.17H214.195V4.41H216.175V5.8H216.935V0.83H216.175V1.94H214.195V1.14H209.445ZM214.075 5.71C212.385 5.71 211.235 6.6 211.235 7.82C211.235 9.04 212.385 9.93 214.075 9.93C215.745 9.93 216.915 9.04 216.915 7.82C216.915 6.6 215.745 5.71 214.075 5.71ZM214.075 9.27C212.755 9.27 211.995 8.66 211.995 7.82C211.995 6.98 212.755 6.37 214.075 6.37C215.395 6.37 216.155 6.98 216.155 7.82C216.155 8.66 215.395 9.27 214.075 9.27ZM213.435 4.51H210.205V1.8H213.435V4.51ZM214.195 2.59H216.175V3.76H214.195V2.59ZM224.648 7.58C223.978 7.15 223.388 6.62 222.868 6C222.378 5.41 221.978 4.8 221.678 4.16C221.738 3.95 221.798 3.73 221.848 3.51C222.008 2.78 222.088 1.98 222.088 1.11H221.308C221.278 4.28 220.138 6.57 218.188 7.9L218.698 8.43C219.708 7.68 220.568 6.71 221.158 5.51C221.238 5.34 221.318 5.18 221.388 5.01C221.488 5.2 221.598 5.38 221.728 5.57C222.378 6.57 223.268 7.54 224.128 8.16L224.648 7.58ZM226.548 9.75V0.83H225.788V3.83H223.488V4.51H225.788V9.75H226.548ZM231.613 1.14V4.95H236.363V1.14H231.613ZM239.803 9.11C238.713 9.03 237.623 8.78 236.793 8.38C236.543 8.26 236.333 8.13 236.143 7.98C236.193 7.93 236.233 7.87 236.263 7.82C236.323 7.73 236.373 7.64 236.423 7.55H239.283V6.91H232.383V7.55H235.543C235.473 7.66 235.383 7.77 235.273 7.88C234.543 8.57 233.213 9.02 231.893 9.18L232.313 9.8C233.403 9.64 234.813 9.19 235.693 8.44H235.703C235.933 8.62 236.193 8.79 236.483 8.94C237.373 9.4 238.453 9.69 239.393 9.75L239.803 9.11ZM235.603 4.31H232.373V1.78H235.603V4.31ZM239.103 5.68V0.83H238.343V5.68H239.103ZM237.763 5.73H233.903V6.37H237.763V5.73ZM246.497 0.799999C245.027 0.799999 243.897 1.84 243.897 3.28C243.897 4.72 245.027 5.76 246.497 5.76C247.967 5.76 249.097 4.72 249.097 3.28C249.097 1.84 247.967 0.799999 246.497 0.799999ZM246.497 5.1C245.377 5.1 244.657 4.35 244.657 3.28C244.657 2.21 245.377 1.46 246.497 1.46C247.617 1.46 248.337 2.21 248.337 3.28C248.337 4.35 247.617 5.1 246.497 5.1ZM251.507 7.41V3.81H252.737V3.13H251.507V0.83H250.747V7.41H251.507ZM251.797 9.65V8.99H245.797V6.71H245.037V9.65H251.797ZM259.211 9.5V4.86H260.701V9.74H261.461V0.83H260.701V4.18H259.211V0.93H258.461V9.5H259.211ZM253.811 1.17V8.08L257.961 7.84V7.19L254.561 7.34V1.17H253.811ZM267.774 5.71C266.084 5.71 264.934 6.6 264.934 7.82C264.934 9.04 266.084 9.93 267.774 9.93C269.444 9.93 270.614 9.04 270.614 7.82C270.614 6.6 269.444 5.71 267.774 5.71ZM267.774 9.27C266.454 9.27 265.694 8.66 265.694 7.82C265.694 6.98 266.454 6.37 267.774 6.37C269.094 6.37 269.854 6.98 269.854 7.82C269.854 8.66 269.094 9.27 267.774 9.27ZM268.594 1.14H263.004V1.8H265.564C265.514 2.04 265.444 2.27 265.354 2.49C264.854 3.67 263.784 4.61 262.434 5.09L262.874 5.66C263.744 5.33 264.624 4.73 265.294 3.97C265.454 3.79 265.594 3.6 265.724 3.4C265.854 3.55 266.004 3.69 266.154 3.82C266.874 4.44 267.754 4.92 268.534 5.18L268.934 4.55C268.054 4.31 267.174 3.85 266.524 3.3C266.344 3.15 266.184 2.99 266.044 2.83L266.104 2.71C266.234 2.42 266.324 2.11 266.374 1.8H268.594V1.14ZM270.494 5.8V3.46H271.724V2.78H270.494V0.83H269.734V5.8H270.494ZM275.399 4.89V5.53H284.159V4.89H275.399ZM283.259 3.4H277.149V1.61H283.139V0.989999H276.389V4.03H283.259V3.4ZM279.819 6.13C278.159 6.13 276.879 6.9 276.879 8.13C276.879 9.36 278.159 10.13 279.819 10.13C281.479 10.13 282.759 9.36 282.759 8.13C282.759 6.9 281.479 6.13 279.819 6.13ZM279.819 9.49C278.599 9.49 277.639 8.97 277.639 8.13C277.639 7.29 278.599 6.77 279.819 6.77C281.039 6.77 281.999 7.29 281.999 8.13C281.999 8.97 281.039 9.49 279.819 9.49ZM284.842 5.71V6.37H293.602V5.71H284.842ZM292.952 9.65V8.99H286.582V7.11H285.822V9.65H292.952ZM289.222 0.529999C287.562 0.529999 286.282 1.42 286.282 2.71C286.282 4 287.562 4.89 289.222 4.89C290.882 4.89 292.162 4 292.162 2.71C292.162 1.42 290.882 0.529999 289.222 0.529999ZM289.222 4.25C288.002 4.25 287.042 3.63 287.042 2.71C287.042 1.79 288.002 1.17 289.222 1.17C290.442 1.17 291.402 1.79 291.402 2.71C291.402 3.63 290.442 4.25 289.222 4.25ZM6.54 21.31C5.55 20.91 4.67 20.26 4.05 19.44C3.92 19.27 3.81 19.09 3.71 18.9L3.81 18.63C3.98 18.11 4.08 17.56 4.09 16.99H3.31C3.2 18.99 2.12 20.77 0.2 21.65L0.68 22.18C1.65 21.7 2.49 20.97 3.09 20.08C3.2 19.92 3.31 19.75 3.4 19.58C3.47 19.7 3.56 19.82 3.65 19.93C4.3 20.78 5.19 21.5 6.08 21.9L6.54 21.31ZM8.73 25.65V24.99H2.63V22.71H1.87V25.65H8.73ZM8.48 23.41V16.83H7.72V23.41H8.48ZM15.0634 21.91C13.3734 21.91 12.2234 22.76 12.2234 23.92C12.2234 25.08 13.3734 25.93 15.0634 25.93C16.7334 25.93 17.9034 25.08 17.9034 23.92C17.9034 22.76 16.7334 21.91 15.0634 21.91ZM15.0634 25.29C13.7334 25.29 12.9834 24.72 12.9834 23.92C12.9834 23.12 13.7334 22.55 15.0634 22.55C16.3934 22.55 17.1434 23.12 17.1434 23.92C17.1434 24.72 16.3934 25.29 15.0634 25.29ZM15.8634 18.63V18.01H10.3234V18.63H12.8334C12.7834 18.82 12.7134 19.01 12.6234 19.18C12.1134 20.19 11.0434 20.95 9.70336 21.31L10.1334 21.88C10.9634 21.64 11.8534 21.15 12.5334 20.5C12.7434 20.3 12.9234 20.09 13.0734 19.87L13.3934 20.2C14.1134 20.84 15.0234 21.3 15.8934 21.46L16.2834 20.82C15.3334 20.68 14.4234 20.27 13.7934 19.7C13.6534 19.57 13.5334 19.44 13.4234 19.3C13.5334 19.09 13.6034 18.86 13.6534 18.63H15.8634ZM17.9234 22V16.83H17.1634V19.24H15.4334V19.88H17.1634V22H17.9234ZM14.7034 17.32V16.7H11.4834V17.32H14.7034ZM23.7467 17.57V16.91H20.7467V17.57H23.7467ZM25.0467 19.08V18.42H19.4067V19.08H25.0467ZM22.2267 19.72C20.6767 19.72 19.7367 20.83 19.7367 22.14C19.7367 23.45 20.6767 24.56 22.2267 24.56C23.7767 24.56 24.7167 23.45 24.7167 22.14C24.7167 20.83 23.7767 19.72 22.2267 19.72ZM22.2267 23.91C21.0567 23.91 20.4967 23.08 20.4967 22.15C20.4967 21.19 21.0567 20.37 22.2267 20.37C23.3967 20.37 23.9567 21.19 23.9567 22.15C23.9567 23.08 23.3967 23.91 22.2267 23.91ZM26.8367 25.75V21.31H28.2867V20.63H26.8367V16.83H26.0767V25.75H26.8367ZM34.8701 21.31C33.8801 20.91 33.0001 20.26 32.3801 19.44C32.2501 19.27 32.1401 19.09 32.0401 18.9L32.1401 18.63C32.3101 18.11 32.4101 17.56 32.4201 16.99H31.6401C31.5301 18.99 30.4501 20.77 28.5301 21.65L29.0101 22.18C29.9801 21.7 30.8201 20.97 31.4201 20.08C31.5301 19.92 31.6401 19.75 31.7301 19.58C31.8001 19.7 31.8901 19.82 31.9801 19.93C32.6301 20.78 33.5201 21.5 34.4101 21.9L34.8701 21.31ZM37.0601 25.65V24.99H30.9601V22.71H30.2001V25.65H37.0601ZM36.8101 23.41V16.83H36.0501V23.41H36.8101ZM46.6747 21.91C44.9847 21.91 43.8347 22.76 43.8347 23.92C43.8347 25.08 44.9847 25.93 46.6747 25.93C48.3447 25.93 49.5147 25.08 49.5147 23.92C49.5147 22.76 48.3447 21.91 46.6747 21.91ZM46.6747 25.29C45.3447 25.29 44.5947 24.72 44.5947 23.92C44.5947 23.12 45.3447 22.55 46.6747 22.55C48.0047 22.55 48.7547 23.12 48.7547 23.92C48.7547 24.72 48.0047 25.29 46.6747 25.29ZM47.4747 18.63V18.01H41.9347V18.63H44.4447C44.3947 18.82 44.3247 19.01 44.2347 19.18C43.7247 20.19 42.6547 20.95 41.3147 21.31L41.7447 21.88C42.5747 21.64 43.4647 21.15 44.1447 20.5C44.3547 20.3 44.5347 20.09 44.6847 19.87L45.0047 20.2C45.7247 20.84 46.6347 21.3 47.5047 21.46L47.8947 20.82C46.9447 20.68 46.0347 20.27 45.4047 19.7C45.2647 19.57 45.1447 19.44 45.0347 19.3C45.1447 19.09 45.2147 18.86 45.2647 18.63H47.4747ZM49.5347 22V16.83H48.7747V19.24H47.0447V19.88H48.7747V22H49.5347ZM46.3147 17.32V16.7H43.0947V17.32H46.3147ZM55.508 25.75V21.95H59.598V21.29H58.198C58.308 20.73 58.408 20.14 58.498 19.51C58.598 18.79 58.668 17.99 58.698 17.11H51.688V17.77H57.918C57.888 18.38 57.818 19 57.728 19.65C57.638 20.21 57.548 20.76 57.438 21.29H50.838V21.95H54.728V25.75H55.508ZM66.5914 23.58C65.9214 23.15 65.3314 22.62 64.8114 22C64.3214 21.41 63.9214 20.8 63.6214 20.16C63.6814 19.95 63.7414 19.73 63.7914 19.51C63.9514 18.78 64.0314 17.98 64.0314 17.11H63.2514C63.2214 20.28 62.0814 22.57 60.1314 23.9L60.6414 24.43C61.6514 23.68 62.5114 22.71 63.1014 21.51C63.1814 21.34 63.2614 21.18 63.3314 21.01C63.4314 21.2 63.5414 21.38 63.6714 21.57C64.3214 22.57 65.2114 23.54 66.0714 24.16L66.5914 23.58ZM68.4914 25.75V16.83H67.7314V19.83H65.4314V20.51H67.7314V25.75H68.4914ZM77.776 25.75V22.55H81.766V21.89H73.006V22.55H76.996V25.75H77.776ZM81.406 20.3C80.536 20.13 79.776 19.85 79.146 19.46C78.586 19.11 78.126 18.66 77.766 18.11C77.916 17.76 78.006 17.38 78.026 16.98H77.226C77.096 18.79 75.276 19.99 73.246 20.31L73.656 20.91C74.666 20.75 75.746 20.29 76.576 19.61C76.896 19.34 77.176 19.05 77.406 18.72C77.816 19.27 78.286 19.71 78.836 20.05C79.496 20.46 80.216 20.75 81.006 20.92L81.406 20.3ZM87.6294 21.91C85.9394 21.91 84.7894 22.76 84.7894 23.92C84.7894 25.08 85.9394 25.93 87.6294 25.93C89.2994 25.93 90.4694 25.08 90.4694 23.92C90.4694 22.76 89.2994 21.91 87.6294 21.91ZM87.3494 19.6V17.06H83.0494V17.7H86.5894V18.98H83.0494V21.63L88.7194 21.37V20.74L83.8094 20.93V19.6H87.3494ZM87.6294 25.29C86.2994 25.29 85.5494 24.72 85.5494 23.92C85.5494 23.12 86.2994 22.55 87.6294 22.55C88.9594 22.55 89.7094 23.12 89.7094 23.92C89.7094 24.72 88.9594 25.29 87.6294 25.29ZM90.4894 22V16.83H89.7294V17.74H87.9594V18.39H89.7294V19.39H87.9594V20.04H89.7294V22H90.4894ZM96.8927 21.79C95.2027 21.79 94.0527 22.63 94.0527 23.86C94.0527 25.09 95.2027 25.93 96.8927 25.93C98.5627 25.93 99.7327 25.09 99.7327 23.86C99.7327 22.63 98.5627 21.79 96.8927 21.79ZM96.2727 17.04V18.5H93.0427V17.04H92.2827V21.32H97.0327V17.04H96.2727ZM96.8927 25.27C95.5627 25.27 94.8127 24.7 94.8127 23.86C94.8127 23.02 95.5627 22.45 96.8927 22.45C98.2227 22.45 98.9727 23.02 98.9727 23.86C98.9727 24.7 98.2227 25.27 96.8927 25.27ZM93.0427 20.66V19.16H96.2727V20.66H93.0427ZM99.6127 21.88V19.51H100.843V18.83H99.6127V16.83H98.8527V21.88H99.6127ZM105.876 17.04V18.5H102.646V17.04H101.886V21.32H106.636V19.4H108.616V21.63H109.376V16.83H108.616V18.74H106.636V17.04H105.876ZM108.596 22.09V23.13H103.516V22.09H102.756V25.69H109.356V22.09H108.596ZM103.516 25.03V23.77H108.596V25.03H103.516ZM102.646 20.66V19.16H105.876V20.66H102.646ZM118.489 25.75V21.21H119.779V20.53H118.489V16.83H117.729V25.75H118.489ZM116.029 22.39C116.339 20.86 116.489 19.04 116.489 17.25H111.169V17.91H115.709C115.709 19.09 115.569 20.87 115.279 22.39H116.029ZM117.329 24.21V23.55L113.839 23.59V20.46H113.059V23.6L110.709 23.63V24.31L117.329 24.21ZM127.924 22.13C126.264 22.13 124.984 22.9 124.984 24.13C124.984 25.36 126.264 26.13 127.924 26.13C129.584 26.13 130.864 25.36 130.864 24.13C130.864 22.9 129.584 22.13 127.924 22.13ZM131.364 19.36H125.254V17.61H131.244V16.99H124.494V19.99H127.544V20.95H123.504V21.59H132.264V20.95H128.324V19.99H131.364V19.36ZM127.924 25.49C126.704 25.49 125.744 24.97 125.744 24.13C125.744 23.29 126.704 22.77 127.924 22.77C129.144 22.77 130.104 23.29 130.104 24.13C130.104 24.97 129.144 25.49 127.924 25.49ZM140.987 21.5V16.83H140.227V21.5H140.987ZM141.187 25.69V25.03H135.127V24.11H140.987V21.96H134.367V22.6H140.227V23.49H134.367V25.69H141.187ZM135.817 16.76C134.407 16.76 133.257 17.71 133.257 19.04C133.257 20.37 134.407 21.32 135.817 21.32C137.227 21.32 138.377 20.37 138.377 19.04C138.377 17.71 137.227 16.76 135.817 16.76ZM135.817 20.68C134.747 20.68 134.017 19.99 134.017 19.04C134.017 18.09 134.747 17.4 135.817 17.4C136.887 17.4 137.617 18.09 137.617 19.04C137.617 19.99 136.887 20.68 135.817 20.68ZM146.911 17.57V16.91H143.911V17.57H146.911ZM148.211 19.08V18.42H142.571V19.08H148.211ZM145.391 19.72C143.841 19.72 142.901 20.83 142.901 22.14C142.901 23.45 143.841 24.56 145.391 24.56C146.941 24.56 147.881 23.45 147.881 22.14C147.881 20.83 146.941 19.72 145.391 19.72ZM145.391 23.91C144.221 23.91 143.661 23.08 143.661 22.15C143.661 21.19 144.221 20.37 145.391 20.37C146.561 20.37 147.121 21.19 147.121 22.15C147.121 23.08 146.561 23.91 145.391 23.91ZM150.001 25.75V21.31H151.451V20.63H150.001V16.83H149.241V25.75H150.001ZM152.274 17.92H155.144C155.064 20.04 153.854 22.52 151.884 23.88L152.434 24.39C154.464 22.87 155.974 20.38 155.944 17.26H152.274V17.92ZM158.064 25.5V16.93H157.314V20.28H155.794V20.96H157.314V25.5H158.064ZM160.064 25.74V16.83H159.304V25.74H160.064ZM168.939 17.04V18.44H165.709V17.04H164.949V21.2H169.699V17.04H168.939ZM172.479 25.69V25.03H166.519V24.11H172.279V21.96H165.759V22.6H171.519V23.49H165.759V25.69H172.479ZM165.709 20.56V19.06H168.939V20.56H165.709ZM172.279 21.5V19.38H173.509V18.72H172.279V16.83H171.519V21.5H172.279ZM178.422 22.13C176.762 22.13 175.482 22.9 175.482 24.13C175.482 25.36 176.762 26.13 178.422 26.13C180.082 26.13 181.362 25.36 181.362 24.13C181.362 22.9 180.082 22.13 178.422 22.13ZM178.422 25.49C177.202 25.49 176.242 24.97 176.242 24.13C176.242 23.29 177.202 22.77 178.422 22.77C179.642 22.77 180.602 23.29 180.602 24.13C180.602 24.97 179.642 25.49 178.422 25.49ZM174.002 20.95V21.59H182.762V20.95H178.772V19.66H177.992V20.95H174.002ZM182.392 19.5C181.222 19.32 180.162 18.96 179.342 18.46C179.082 18.29 178.852 18.11 178.662 17.91C178.872 17.58 178.982 17.22 179.012 16.84H178.212C178.102 18.18 176.282 19.34 174.372 19.58L174.722 20.15C175.672 20.03 176.722 19.62 177.532 19.05C177.812 18.85 178.062 18.63 178.272 18.4C178.782 18.85 179.372 19.22 180.022 19.5C180.682 19.79 181.352 19.98 182.032 20.08L182.392 19.5ZM190.895 22.29V23.26H185.625V22.29H184.865V25.69H191.655V22.29H190.895ZM189.845 19.36H185.145V17.67H189.645V17.05H184.385V19.99H186.775V20.98L183.625 21.01V21.65L190.435 21.55V20.93L187.555 20.97V19.99H189.845V19.36ZM185.625 25.05V23.88H190.895V25.05H185.625ZM191.675 21.89V16.83H190.915V21.89H191.675ZM200.899 25.75V16.83H200.139V25.75H200.899ZM193.529 17.11V24.08L199.449 23.77V23.11L194.289 23.34V17.11H193.529ZM209.842 25.75V20.71H211.292V20.03H209.842V16.83H209.082V25.75H209.842ZM202.822 17.21V24.13L208.542 23.82V23.16L203.582 23.39V17.87H207.402V17.21H202.822ZM211.946 25.5H212.906V24.54H211.946V25.5Z" fill="#D7191F"/>
</svg>
