<svg width="66" height="16" viewBox="0 0 66 16" fill="none" xmlns="http://www.w3.org/2000/svg">
<path d="M13.8499 13.165V11.455H7.32492V6.4H5.28492V11.455H0.649922V13.165H13.8499ZM11.7949 10.075C12.3499 7.615 12.6199 4.6 12.6199 1.315H1.86492V3.025H10.5799C10.5799 4.585 10.3699 7.66 9.84492 10.075H11.7949ZM22.39 8.56H24.34V5.56H25.495V8.56H27.475V0.714999H25.495V3.82H24.34V0.849999H22.39V8.56ZM27.445 14.215V9.16H16.555V10.87H25.435V14.215H27.445ZM15.535 2.86H19.405C19.09 4.615 17.485 6.43 14.545 7.24L15.595 8.71C18.82 7.705 21.61 5.14 21.565 1.18H15.535V2.86ZM38.4 6.94C37.425 6.565 36.57 6.055 35.805 5.425C35.28 4.99 34.86 4.465 34.515 3.85C34.56 3.745 34.59 3.625 34.635 3.505C34.92 2.68 35.07 1.825 35.085 0.924999H33.045C32.925 3.76 31.515 6.19 28.65 7.42L29.91 8.86C31.335 8.185 32.61 7.105 33.525 5.74L33.675 5.53C34.635 6.85 35.925 7.9 37.275 8.47L38.4 6.94ZM36.72 4.885H39.51V10.57H41.52V0.714999H39.51V3.205H36.72V4.885ZM31.215 9.415V14.005H41.895V12.295H33.225V9.415H31.215ZM49.625 3.895H45.77V2.77H49.775V1.09H43.79V8.56L50.12 8.185V6.535L45.77 6.73V5.545H49.625V3.895ZM50.72 8.86H52.67V5.56H53.825V8.86H55.805V0.714999H53.825V3.82H52.67V0.849999H50.72V8.86ZM55.775 14.215V9.46H44.885V11.17H53.765V14.215H55.775Z" fill="#242D3C"/>
<path d="M63.589 7.6L65.044 6.67L63.769 5.035L65.554 4.525L65.089 2.935L63.379 3.535L63.454 1.6H61.534L61.624 3.535L59.899 2.935L59.434 4.525L61.219 5.035L59.944 6.67L61.399 7.6L62.494 6.04L63.589 7.6Z" fill="#D7191F"/>
</svg>
