<svg width="85" height="16" viewBox="0 0 85 16" fill="none" xmlns="http://www.w3.org/2000/svg">
<path d="M1.52146 8.41C2.78146 8.095 4.10147 7.39 5.10647 6.43L5.36146 6.16L5.48147 6.265C6.51647 7.18 7.94147 7.75 9.18647 7.9L10.1765 6.295C8.76647 6.085 7.47646 5.71 6.54647 4.93L6.33647 4.72C6.44147 4.525 6.51647 4.315 6.59147 4.09H9.30647V5.65H11.1365V8.35H13.1465V0.714999H11.1365V4H9.66647V2.5H1.29646V4.09H4.43146C4.22146 4.6 3.90646 5.035 3.48646 5.41C2.72146 6.07 1.70146 6.55 0.396465 6.865L1.52146 8.41ZM8.55647 8.215C6.03647 8.215 4.22146 9.505 4.22146 11.38C4.22146 13.255 6.03647 14.545 8.55647 14.545C11.0765 14.545 12.8915 13.255 12.8915 11.38C12.8915 9.505 11.0765 8.215 8.55647 8.215ZM8.55647 12.925C7.05647 12.925 6.23146 12.325 6.23146 11.38C6.23146 10.435 7.05647 9.835 8.55647 9.835C10.0565 9.835 10.8815 10.435 10.8815 11.38C10.8815 12.325 10.0565 12.925 8.55647 12.925ZM8.07647 1.99V0.399999H3.03646V1.99H8.07647ZM22.2415 14.155V8.785H27.9715V7.075H26.0215C26.1565 6.43 26.2915 5.71 26.3965 4.885C26.5615 3.73 26.6515 2.47 26.6815 1.105H15.9865V2.785H24.6115C24.5515 3.775 24.4165 5.14 24.1465 6.49C24.1165 6.685 24.0715 6.88 24.0265 7.075H14.7715V8.785H20.2015V14.155H22.2415ZM38.4465 10.495C37.4115 9.79 36.5265 9.01 35.8215 8.155C35.2665 7.48 34.7715 6.715 34.3515 5.875C34.8165 4.39 35.0415 2.8 35.0415 1.105H33.0015C33.0015 5.155 31.7265 8.485 28.5165 10.855L29.8665 12.25C31.4715 11.005 32.6865 9.55 33.5415 7.9C33.8715 8.44 34.2465 8.965 34.6515 9.475C35.4165 10.42 36.2565 11.23 37.2015 11.935L38.4465 10.495ZM36.6015 6.625H39.5715V14.155H41.5815V0.714999H39.5715V4.915H36.6015V6.625ZM55.6435 14.155V9.745H61.2235V8.035H48.0235V9.745H53.6035V14.155H55.6435ZM60.8635 5.38C58.9435 5.05 57.2785 4.465 56.1085 3.415C55.9435 3.265 55.7785 3.1 55.6285 2.935C55.9135 2.335 56.0785 1.66 56.1085 0.909999H54.0385C53.8435 3.625 51.3535 4.9 48.2185 5.425L49.2835 7C50.8585 6.745 52.5235 6.115 53.8285 5.11C54.1135 4.885 54.3685 4.645 54.6085 4.39L55.0135 4.78C56.2885 5.935 58.0735 6.76 59.8435 6.97L60.8635 5.38ZM69.9885 8.215C67.4685 8.215 65.6535 9.505 65.6535 11.38C65.6535 13.255 67.4685 14.545 69.9885 14.545C72.5085 14.545 74.3235 13.255 74.3235 11.38C74.3235 9.505 72.5085 8.215 69.9885 8.215ZM71.4435 7.675V6.085L65.0385 6.31V5.215H69.8685V1.06H63.0285V2.68H67.8585V3.655H63.0285V8.08L71.4435 7.675ZM70.4835 3.43H72.5685V4.105H70.4835V5.695H72.5685V8.35H74.5785V0.714999H72.5685V1.84H70.4835V3.43ZM69.9885 12.925C68.4885 12.925 67.6635 12.325 67.6635 11.38C67.6635 10.435 68.4885 9.835 69.9885 9.835C71.4885 9.835 72.3135 10.435 72.3135 11.38C72.3135 12.325 71.4885 12.925 69.9885 12.925Z" fill="#242D3C"/>
<path d="M82.589 7.6L84.044 6.67L82.769 5.035L84.554 4.525L84.089 2.935L82.379 3.535L82.454 1.6H80.534L80.624 3.535L78.899 2.935L78.434 4.525L80.219 5.035L78.944 6.67L80.399 7.6L81.494 6.04L82.589 7.6Z" fill="#D7191F"/>
</svg>
