<svg width="66" height="16" viewBox="0 0 66 16" fill="none" xmlns="http://www.w3.org/2000/svg">
<path d="M13.8499 8.125V6.685H0.649922V8.125H6.22992V8.815H1.99992V10.255H10.4599V10.765H1.99992V14.065H12.7849V12.61H4.00992V12.085H12.4699V8.815H8.26992V8.125H13.8499ZM1.90992 6.355C3.40992 6.295 5.07492 6.04 6.42492 5.47C6.69492 5.35 6.94992 5.215 7.18992 5.08C7.44492 5.245 7.71492 5.395 8.01492 5.53C9.30492 6.085 10.9549 6.31 12.5149 6.25L13.3849 4.78C11.5849 4.75 10.0399 4.66 8.86992 4.18L8.40492 3.955C8.41992 3.91 8.44992 3.88 8.47992 3.835H12.5149V2.335H1.92492V3.835H6.01992C5.74992 4.03 5.41992 4.18 5.02992 4.3C4.02492 4.615 2.65992 4.765 1.09992 4.84L1.90992 6.355ZM10.1599 0.414999H4.27992V1.915H10.1599V0.414999ZM26.635 14.065V8.785H16.165V14.065H26.635ZM28.015 7.555V5.875H26.2C26.32 5.32 26.44 4.675 26.545 3.94C26.68 3.04 26.755 2.035 26.785 0.924999H16.03V2.605H24.715C24.685 3.325 24.565 4.3 24.355 5.29L24.22 5.875H14.815V7.555H28.015ZM18.175 10.435H24.625V12.385H18.175V10.435ZM29.58 3.04H33.375C33.21 5.875 31.575 8.905 28.785 10.96L30.21 12.265C31.665 11.08 33 9.58 33.945 7.765C34.35 6.97 34.695 6.13 34.95 5.23H36.885V7.72H34.8V9.43H36.885V13.81H38.835V0.865H36.885V3.52H35.325C35.43 2.815 35.475 2.095 35.475 1.33H29.58V3.04ZM41.655 14.14V0.714999H39.675V14.14H41.655ZM52.58 6.94C51.14 6.46 49.895 5.785 49.055 4.66C48.95 4.525 48.86 4.39 48.77 4.24C48.935 3.835 49.07 3.4 49.145 2.965H51.95V1.255H43.7V2.965H47.09C47.03 3.295 46.925 3.61 46.79 3.91C46.1 5.395 44.66 6.505 42.875 7.195L44.06 8.62C45.26 8.125 46.52 7.285 47.48 6.205C47.615 6.055 47.75 5.905 47.87 5.755L47.945 5.86C48.86 7.015 50.18 8.005 51.5 8.455L52.58 6.94ZM55.04 14.155V7.54H56.705V5.8H55.04V0.714999H53.03V14.155H55.04ZM52.58 12.115V10.435L48.845 10.48V7.66H46.805V10.51L42.98 10.555V12.265L52.58 12.115Z" fill="#242D3C"/>
<path d="M63.589 7.6L65.044 6.67L63.769 5.035L65.554 4.525L65.089 2.935L63.379 3.535L63.454 1.6H61.534L61.624 3.535L59.899 2.935L59.434 4.525L61.219 5.035L59.944 6.67L61.399 7.6L62.494 6.04L63.589 7.6Z" fill="#D7191F"/>
</svg>
