<svg width="57" height="14" viewBox="0 0 57 14" fill="none" xmlns="http://www.w3.org/2000/svg">
<path d="M12.4977 5.588C11.3077 5.378 10.2717 5.056 9.41772 4.65C8.59172 4.258 7.91972 3.726 7.37372 3.054C7.58372 2.676 7.72372 2.284 7.77972 1.878H11.7137V0.954H2.01172V1.878H6.61772C6.53372 2.298 6.35172 2.69 6.08572 3.068C5.14772 4.37 3.24372 5.336 1.07372 5.616L1.63372 6.47C2.99172 6.288 4.50372 5.7 5.67972 4.86C6.11372 4.538 6.50572 4.202 6.82772 3.824C7.09372 4.118 7.38772 4.384 7.70972 4.65C8.87172 5.56 10.3837 6.204 11.9517 6.456L12.4977 5.588ZM7.41572 13.05V8.626H13.0017V7.702H0.737719V8.626H6.32372V13.05H7.41572ZM25.9004 7.1C24.6544 6.68 23.5624 6.106 22.6244 5.392C21.7424 4.72 21.0424 3.964 20.4964 3.11C20.8044 2.424 20.9724 1.682 21.0004 0.884H19.8804C19.7264 3.866 17.3324 6.148 14.1964 7.156L14.7984 7.926C16.3524 7.38 17.8924 6.47 19.0264 5.28C19.4044 4.888 19.7264 4.468 20.0204 4.006C20.2444 4.342 20.4964 4.664 20.7904 4.986C22.0224 6.302 23.6464 7.352 25.2984 7.94L25.9004 7.1ZM13.9584 10.95V11.874H26.2224V10.95H20.6364V7.324H19.5444V10.95H13.9584ZM43.0289 7.17V0.562H41.9649V7.17H43.0289ZM41.9369 7.814V9.326H34.8249V7.814H33.7609V12.966H43.0009V7.814H41.9369ZM34.8249 12.042V10.222H41.9369V12.042H34.8249ZM35.7909 0.463999C33.8169 0.463999 32.2069 1.822 32.2069 3.726C32.2069 5.63 33.8169 6.988 35.7909 6.988C37.7649 6.988 39.3749 5.63 39.3749 3.726C39.3749 1.822 37.7649 0.463999 35.7909 0.463999ZM35.7909 6.092C34.2929 6.092 33.2709 5.112 33.2709 3.726C33.2709 2.34 34.2929 1.36 35.7909 1.36C37.2889 1.36 38.3109 2.34 38.3109 3.726C38.3109 5.112 37.2889 6.092 35.7909 6.092ZM51.8536 4.79V0.884H45.8336V1.78H50.7896V3.922H45.8336V7.982L53.7716 7.618V6.736L46.8976 7.002V4.79H51.8536ZM56.2496 8.416V0.562H55.1856V2.116H52.7076V3.026H55.1856V4.636H52.7076V5.546H55.1856V8.416H56.2496ZM56.2216 13.106V9.116H46.5616V10.04H55.1576V13.106H56.2216Z" fill="#CCCCCC"/>
</svg>
