<svg width="83" height="14" viewBox="0 0 83 14" fill="none" xmlns="http://www.w3.org/2000/svg">
<path d="M7.65702 7.394C5.29102 7.394 3.68102 8.64 3.68102 10.348C3.68102 12.056 5.29102 13.302 7.65702 13.302C9.99502 13.302 11.633 12.056 11.633 10.348C11.633 8.64 9.99502 7.394 7.65702 7.394ZM7.65702 12.378C5.80902 12.378 4.74502 11.524 4.74502 10.348C4.74502 9.172 5.80902 8.318 7.65702 8.318C9.50502 8.318 10.569 9.172 10.569 10.348C10.569 11.524 9.50502 12.378 7.65702 12.378ZM9.05702 5.798C8.17502 5.504 7.34902 5.07 6.59302 4.51C5.99102 4.062 5.48702 3.544 5.10902 2.956L5.15102 2.83C5.43102 2.172 5.58502 1.5 5.62702 0.785999H4.53502C4.31102 3.25 2.67302 5.378 0.181016 6.386L0.797016 7.156C2.02902 6.638 3.19102 5.742 4.07302 4.636C4.28302 4.37 4.47902 4.09 4.66102 3.796C4.78702 3.95 4.91302 4.118 5.05302 4.272C5.96302 5.294 7.22302 6.204 8.44102 6.652L9.05702 5.798ZM11.465 7.52V4.244H13.187V3.292H11.465V0.562H10.401V7.52H11.465ZM22.8797 12.714V0.688H21.8297V4.846H19.5477V5.798H21.8297V12.714H22.8797ZM25.5397 13.036V0.562H24.4757V13.036H25.5397ZM14.2697 11.202C15.4597 9.928 16.4817 8.416 17.1957 6.512C17.9237 8.206 19.0437 9.788 20.3317 10.908L21.0317 10.166C19.5197 8.92 18.2737 7.1 17.6157 5.154C17.9377 3.866 18.1197 2.494 18.1617 0.996H17.0977C17.0277 5.014 15.6697 8.416 13.4857 10.572L14.2697 11.202ZM38.7184 5.588C37.5284 5.378 36.4924 5.056 35.6384 4.65C34.8124 4.258 34.1404 3.726 33.5944 3.054C33.8044 2.676 33.9444 2.284 34.0004 1.878H37.9344V0.954H28.2324V1.878H32.8384C32.7544 2.298 32.5724 2.69 32.3064 3.068C31.3684 4.37 29.4644 5.336 27.2944 5.616L27.8544 6.47C29.2124 6.288 30.7244 5.7 31.9004 4.86C32.3344 4.538 32.7264 4.202 33.0484 3.824C33.3144 4.118 33.6084 4.384 33.9304 4.65C35.0924 5.56 36.6044 6.204 38.1724 6.456L38.7184 5.588ZM33.6364 13.05V8.626H39.2224V7.702H26.9584V8.626H32.5444V13.05H33.6364ZM52.1211 7.1C50.8751 6.68 49.7831 6.106 48.8451 5.392C47.9631 4.72 47.2631 3.964 46.7171 3.11C47.0251 2.424 47.1931 1.682 47.2211 0.884H46.1011C45.9471 3.866 43.5531 6.148 40.4171 7.156L41.0191 7.926C42.5731 7.38 44.1131 6.47 45.2471 5.28C45.6251 4.888 45.9471 4.468 46.2411 4.006C46.4651 4.342 46.7171 4.664 47.0111 4.986C48.2431 6.302 49.8671 7.352 51.5191 7.94L52.1211 7.1ZM40.1791 10.95V11.874H52.4431V10.95H46.8571V7.324H45.7651V10.95H40.1791ZM69.2496 7.17V0.562H68.1856V7.17H69.2496ZM68.1576 7.814V9.326H61.0456V7.814H59.9816V12.966H69.2216V7.814H68.1576ZM61.0456 12.042V10.222H68.1576V12.042H61.0456ZM62.0116 0.463999C60.0376 0.463999 58.4276 1.822 58.4276 3.726C58.4276 5.63 60.0376 6.988 62.0116 6.988C63.9856 6.988 65.5956 5.63 65.5956 3.726C65.5956 1.822 63.9856 0.463999 62.0116 0.463999ZM62.0116 6.092C60.5136 6.092 59.4916 5.112 59.4916 3.726C59.4916 2.34 60.5136 1.36 62.0116 1.36C63.5096 1.36 64.5316 2.34 64.5316 3.726C64.5316 5.112 63.5096 6.092 62.0116 6.092ZM78.0743 4.79V0.884H72.0543V1.78H77.0103V3.922H72.0543V7.982L79.9923 7.618V6.736L73.1183 7.002V4.79H78.0743ZM82.4703 8.416V0.562H81.4063V2.116H78.9283V3.026H81.4063V4.636H78.9283V5.546H81.4063V8.416H82.4703ZM82.4423 13.106V9.116H72.7823V10.04H81.3783V13.106H82.4423Z" fill="#CCCCCC"/>
</svg>
