<svg width="195" height="14" viewBox="0 0 195 14" fill="none" xmlns="http://www.w3.org/2000/svg">
<path d="M9.50333 10.054C8.57933 9.452 7.73933 8.738 6.99733 7.912C6.26933 7.1 5.69533 6.232 5.28933 5.308C5.34533 5.126 5.40133 4.944 5.44333 4.748C5.66733 3.908 5.80733 2.998 5.86333 2.018H8.91533V1.094H1.17333V2.018H4.74333C4.67333 2.9 4.54733 3.726 4.35133 4.496C3.67933 7.198 2.26533 9.214 0.403328 10.516L1.11733 11.258C2.44733 10.264 3.59533 9.004 4.43533 7.394C4.58933 7.1 4.74333 6.792 4.86933 6.47C5.02333 6.764 5.20533 7.044 5.38733 7.324C6.33933 8.724 7.57133 10.012 8.78933 10.88L9.50333 10.054ZM11.4913 13.05V6.274H13.5213V5.322H11.4913V0.562H10.4273V13.05H11.4913ZM20.246 7.982C17.922 7.982 16.13 9.06 16.13 10.782C16.13 12.504 17.922 13.582 20.246 13.582C22.57 13.582 24.362 12.504 24.362 10.782C24.362 9.06 22.57 7.982 20.246 7.982ZM25.062 4.104H16.508V1.654H24.894V0.785999H15.444V4.986H19.714V6.33H14.058V7.226H26.322V6.33H20.806V4.986H25.062V4.104ZM20.246 12.686C18.538 12.686 17.194 11.958 17.194 10.782C17.194 9.606 18.538 8.878 20.246 8.878C21.954 8.878 23.298 9.606 23.298 10.782C23.298 11.958 21.954 12.686 20.246 12.686ZM38.6327 13.05V0.562H37.5687V13.05H38.6327ZM31.5627 1.15C29.3227 1.15 27.6007 2.858 27.6007 5.378C27.6007 7.912 29.3227 9.62 31.5627 9.62C33.8027 9.62 35.5247 7.912 35.5247 5.378C35.5247 2.858 33.8027 1.15 31.5627 1.15ZM31.5627 2.102C33.2287 2.102 34.4327 3.348 34.4327 5.364C34.4327 7.338 33.3127 8.668 31.5627 8.668C29.8127 8.668 28.6927 7.338 28.6927 5.364C28.6927 3.348 29.8967 2.102 31.5627 2.102ZM47.7654 10.404C46.9954 9.83 46.3514 9.158 45.8054 8.388C45.3434 7.716 44.9514 6.988 44.6294 6.204C44.6574 6.134 44.6854 6.064 44.6994 5.994C44.8954 5.336 45.0214 4.622 45.0634 3.88H47.5274V2.956H40.9474V3.88H43.9714C43.9294 4.524 43.8314 5.14 43.6634 5.742C43.0474 7.926 41.7734 9.676 40.2754 10.782L41.0314 11.454C42.0534 10.614 43.0474 9.522 43.7894 8.192C43.9294 7.926 44.0554 7.66 44.1814 7.394C44.4614 7.982 44.7834 8.542 45.1474 9.06C45.7214 9.872 46.3654 10.572 47.0794 11.16L47.7654 10.404ZM49.7114 12.7V0.701999H48.6614V5.854H46.6314V6.806H48.6614V12.7H49.7114ZM52.3014 13.036V0.562H51.2374V13.036H52.3014ZM46.1974 1.654V0.729999H42.4174V1.654H46.1974ZM64.9341 12.966V12.084H56.1001V11.02H64.6401V8.29H60.4681V7.24H65.9841V6.372H53.7201V7.24H59.3761V8.29H55.0361V9.158H63.5761V10.166H55.0361V12.966H64.9341ZM65.4381 4.734C63.8281 4.65 62.3021 4.356 61.1541 3.768C60.8741 3.628 60.6221 3.46 60.3981 3.278C60.4681 3.152 60.5241 3.04 60.5661 2.914H64.6821V2.046H54.9661V2.914H59.3621C59.2501 3.124 59.0961 3.306 58.9001 3.474C57.8921 4.314 56.0721 4.762 54.2381 4.846L54.7001 5.686C56.1701 5.616 58.2141 5.182 59.4881 4.244L59.8381 3.964C60.1181 4.174 60.4261 4.37 60.7621 4.538C62.0361 5.168 63.6041 5.532 64.9621 5.588L65.4381 4.734ZM62.4841 0.393999H57.1641V1.262H62.4841V0.393999ZM68.2568 8.346V12.966H77.8608V8.346H68.2568ZM66.9408 5.672V6.596H79.2048V5.672H77.3988C77.5248 5.056 77.6368 4.398 77.7208 3.684C77.8188 2.83 77.9028 1.864 77.9448 0.785999H68.1308V1.682H76.8528C76.8108 2.41 76.7408 3.138 76.6568 3.852C76.5868 4.454 76.4888 5.056 76.3488 5.672H66.9408ZM76.7968 9.242V12.042H69.3208V9.242H76.7968ZM84.7553 7.394V8.318H97.0193V7.394H84.7553ZM96.1093 12.91V11.986H87.1913V9.354H86.1273V12.91H96.1093ZM90.8873 0.141999C88.5633 0.141999 86.7713 1.388 86.7713 3.194C86.7713 5 88.5633 6.246 90.8873 6.246C93.2113 6.246 95.0033 5 95.0033 3.194C95.0033 1.388 93.2113 0.141999 90.8873 0.141999ZM90.8873 5.35C89.1793 5.35 87.8353 4.482 87.8353 3.194C87.8353 1.906 89.1793 1.038 90.8873 1.038C92.5953 1.038 93.9393 1.906 93.9393 3.194C93.9393 4.482 92.5953 5.35 90.8873 5.35ZM105.508 7.954C103.142 7.954 101.532 9.102 101.532 10.628C101.532 12.154 103.142 13.302 105.508 13.302C107.846 13.302 109.484 12.154 109.484 10.628C109.484 9.102 107.846 7.954 105.508 7.954ZM101.574 3.25C99.866 3.25 98.606 4.202 98.606 5.476C98.606 6.75 99.866 7.702 101.574 7.702C103.282 7.702 104.542 6.75 104.542 5.476C104.542 4.202 103.282 3.25 101.574 3.25ZM105.508 12.406C103.646 12.406 102.596 11.65 102.596 10.628C102.596 9.606 103.646 8.85 105.508 8.85C107.37 8.85 108.42 9.606 108.42 10.628C108.42 11.65 107.37 12.406 105.508 12.406ZM106.838 7.534V4.832H108.56V8.094H109.624V0.562H108.56V3.908H106.838V0.674H105.788V7.534H106.838ZM101.574 6.862C100.412 6.862 99.642 6.372 99.642 5.476C99.642 4.58 100.412 4.09 101.574 4.09C102.736 4.09 103.506 4.58 103.506 5.476C103.506 6.372 102.736 6.862 101.574 6.862ZM104.892 2.802V1.934H98.116V2.802H104.892ZM103.422 1.276V0.407999H99.726V1.276H103.422ZM111.197 6.162V7.058H123.461V6.162H111.197ZM117.329 0.0579994C115.005 0.0579994 113.213 1.122 113.213 2.69C113.213 4.258 115.005 5.322 117.329 5.322C119.653 5.322 121.445 4.258 121.445 2.69C121.445 1.122 119.653 0.0579994 117.329 0.0579994ZM117.329 4.454C115.621 4.454 114.277 3.754 114.277 2.69C114.277 1.626 115.621 0.926 117.329 0.926C119.037 0.926 120.381 1.626 120.381 2.69C120.381 3.754 119.037 4.454 117.329 4.454ZM122.411 12.966V12.084H113.577V10.95H122.117V8.178H112.513V9.046H121.053V10.11H112.513V12.966H122.411ZM137.691 6.834C136.305 6.274 135.073 5.364 134.205 4.216C134.023 3.978 133.869 3.726 133.729 3.46L133.869 3.082C134.107 2.354 134.247 1.584 134.261 0.785999H133.169C133.015 3.586 131.503 6.078 128.815 7.31L129.487 8.052C130.845 7.38 132.021 6.358 132.861 5.112C133.015 4.888 133.169 4.65 133.295 4.412C133.393 4.58 133.519 4.748 133.645 4.902C134.555 6.092 135.801 7.1 137.047 7.66L137.691 6.834ZM136.207 4.09H139.343V9.774H140.407V0.562H139.343V3.166H136.207V4.09ZM140.757 12.91V11.986H132.217V8.794H131.153V12.91H140.757ZM148.182 3.81H143.94V1.808H148.322V0.911999H142.89V7.73L148.924 7.422V6.54L143.94 6.75V4.678H148.182V3.81ZM150.674 8.276V4.692H152.676V8.276H153.74V0.562H152.676V3.768H150.674V0.674H149.624V8.276H150.674ZM153.712 13.12V8.976H143.912V9.9H152.648V13.12H153.712ZM161.781 1.598V0.674H157.581V1.598H161.781ZM163.601 3.712V2.788H155.705V3.712H163.601ZM159.653 4.608C157.483 4.608 156.167 6.162 156.167 7.996C156.167 9.83 157.483 11.384 159.653 11.384C161.823 11.384 163.139 9.83 163.139 7.996C163.139 6.162 161.823 4.608 159.653 4.608ZM159.653 10.474C158.015 10.474 157.231 9.312 157.231 8.01C157.231 6.666 158.015 5.518 159.653 5.518C161.291 5.518 162.075 6.666 162.075 8.01C162.075 9.312 161.291 10.474 159.653 10.474ZM166.107 13.05V6.834H168.137V5.882H166.107V0.562H165.043V13.05H166.107ZM177.815 12.714V0.688H176.765V4.846H174.483V5.798H176.765V12.714H177.815ZM180.475 13.036V0.562H179.411V13.036H180.475ZM169.205 11.202C170.395 9.928 171.417 8.416 172.131 6.512C172.859 8.206 173.979 9.788 175.267 10.908L175.967 10.166C174.455 8.92 173.209 7.1 172.551 5.154C172.873 3.866 173.055 2.494 173.097 0.996H172.033C171.963 5.014 170.605 8.416 168.421 10.572L169.205 11.202ZM188.012 0.533999C185.282 0.533999 183.448 2.312 183.448 4.328C183.448 6.344 185.282 8.122 188.012 8.122C190.742 8.122 192.576 6.344 192.576 4.328C192.576 2.312 190.742 0.533999 188.012 0.533999ZM188.012 7.198C185.856 7.198 184.512 5.868 184.512 4.328C184.512 2.788 185.856 1.458 188.012 1.458C190.168 1.458 191.512 2.788 191.512 4.328C191.512 5.868 190.168 7.198 188.012 7.198ZM181.894 10.95V11.874H194.158V10.95H191.4V8.304H190.322V10.95H185.772V8.304H184.694V10.95H181.894Z" fill="#CCCCCC"/>
</svg>
