<svg width="123" height="14" viewBox="0 0 123 14" fill="none" xmlns="http://www.w3.org/2000/svg">
<path d="M10.494 7.17V3.964H12.216V3.012H10.494V0.562H9.42996V7.17H10.494ZM9.40196 7.814V9.326H2.42996V7.814H1.36596V12.966H10.466V7.814H9.40196ZM2.42996 12.042V10.222H9.40196V12.042H2.42996ZM0.301961 0.855999V6.624L8.58996 6.232V5.322L1.36596 5.616V0.855999H0.301961ZM22.7067 0.814V2.69H15.3567V0.814H14.2927V6.526H23.7707V0.814H22.7067ZM19.5847 13.05V8.962H25.1707V8.038H12.9067V8.962H18.4927V13.05H19.5847ZM15.3567 5.602V3.614H22.7067V5.602H15.3567ZM37.3834 7.1V0.562H36.3194V7.1H37.3834ZM37.6634 12.966V12.042H29.1794V10.754H37.3834V7.744H28.1154V8.64H36.3194V9.886H28.1154V12.966H37.6634ZM30.1454 0.463999C28.1714 0.463999 26.5614 1.794 26.5614 3.656C26.5614 5.518 28.1714 6.848 30.1454 6.848C32.1194 6.848 33.7294 5.518 33.7294 3.656C33.7294 1.794 32.1194 0.463999 30.1454 0.463999ZM30.1454 5.952C28.6474 5.952 27.6254 4.986 27.6254 3.656C27.6254 2.326 28.6474 1.36 30.1454 1.36C31.6434 1.36 32.6654 2.326 32.6654 3.656C32.6654 4.986 31.6434 5.952 30.1454 5.952ZM39.3481 6.162V7.058H51.6121V6.162H39.3481ZM45.4801 0.0579994C43.1561 0.0579994 41.3641 1.122 41.3641 2.69C41.3641 4.258 43.1561 5.322 45.4801 5.322C47.8041 5.322 49.5961 4.258 49.5961 2.69C49.5961 1.122 47.8041 0.0579994 45.4801 0.0579994ZM45.4801 4.454C43.7721 4.454 42.4281 3.754 42.4281 2.69C42.4281 1.626 43.7721 0.926 45.4801 0.926C47.1881 0.926 48.5321 1.626 48.5321 2.69C48.5321 3.754 47.1881 4.454 45.4801 4.454ZM50.5621 12.966V12.084H41.7281V10.95H50.2681V8.178H40.6641V9.046H49.2041V10.11H40.6641V12.966H50.5621ZM65.8425 6.834C64.4565 6.274 63.2245 5.364 62.3565 4.216C62.1745 3.978 62.0205 3.726 61.8805 3.46L62.0205 3.082C62.2585 2.354 62.3985 1.584 62.4125 0.785999H61.3205C61.1665 3.586 59.6545 6.078 56.9665 7.31L57.6385 8.052C58.9965 7.38 60.1725 6.358 61.0125 5.112C61.1665 4.888 61.3205 4.65 61.4465 4.412C61.5445 4.58 61.6705 4.748 61.7965 4.902C62.7065 6.092 63.9525 7.1 65.1985 7.66L65.8425 6.834ZM64.3585 4.09H67.4945V9.774H68.5585V0.562H67.4945V3.166H64.3585V4.09ZM68.9085 12.91V11.986H60.3685V8.794H59.3045V12.91H68.9085ZM76.3332 3.81H72.0912V1.808H76.4732V0.911999H71.0412V7.73L77.0752 7.422V6.54L72.0912 6.75V4.678H76.3332V3.81ZM78.8252 8.276V4.692H80.8272V8.276H81.8912V0.562H80.8272V3.768H78.8252V0.674H77.7752V8.276H78.8252ZM81.8632 13.12V8.976H72.0632V9.9H80.7992V13.12H81.8632ZM89.9319 1.598V0.674H85.7319V1.598H89.9319ZM91.7519 3.712V2.788H83.8559V3.712H91.7519ZM87.8039 4.608C85.6339 4.608 84.3179 6.162 84.3179 7.996C84.3179 9.83 85.6339 11.384 87.8039 11.384C89.9739 11.384 91.2899 9.83 91.2899 7.996C91.2899 6.162 89.9739 4.608 87.8039 4.608ZM87.8039 10.474C86.1659 10.474 85.3819 9.312 85.3819 8.01C85.3819 6.666 86.1659 5.518 87.8039 5.518C89.4419 5.518 90.2259 6.666 90.2259 8.01C90.2259 9.312 89.4419 10.474 87.8039 10.474ZM94.2579 13.05V6.834H96.2879V5.882H94.2579V0.562H93.1939V13.05H94.2579ZM105.967 12.714V0.688H104.917V4.846H102.635V5.798H104.917V12.714H105.967ZM108.627 13.036V0.562H107.563V13.036H108.627ZM97.3566 11.202C98.5466 9.928 99.5686 8.416 100.283 6.512C101.011 8.206 102.131 9.788 103.419 10.908L104.119 10.166C102.607 8.92 101.361 7.1 100.703 5.154C101.025 3.866 101.207 2.494 101.249 0.996H100.185C100.115 5.014 98.7566 8.416 96.5726 10.572L97.3566 11.202ZM116.163 0.533999C113.433 0.533999 111.599 2.312 111.599 4.328C111.599 6.344 113.433 8.122 116.163 8.122C118.893 8.122 120.727 6.344 120.727 4.328C120.727 2.312 118.893 0.533999 116.163 0.533999ZM116.163 7.198C114.007 7.198 112.663 5.868 112.663 4.328C112.663 2.788 114.007 1.458 116.163 1.458C118.319 1.458 119.663 2.788 119.663 4.328C119.663 5.868 118.319 7.198 116.163 7.198ZM110.045 10.95V11.874H122.309V10.95H119.551V8.304H118.473V10.95H113.923V8.304H112.845V10.95H110.045Z" fill="#CCCCCC"/>
</svg>
