<svg width="176" height="96" viewBox="0 0 176 96" fill="none" xmlns="http://www.w3.org/2000/svg">
<path d="M60.9489 54.132V45.258H58.5369V54.132H60.9489ZM48.5649 54.852V61.278H60.9129V54.852H48.5649ZM50.9769 56.868H58.5009V59.226H50.9769V56.868ZM47.2329 47.796H53.3529C52.7769 50.028 50.0589 51.792 46.1709 52.566L47.3049 54.438C51.6429 53.52 56.0349 50.82 55.9809 45.78H47.2329V47.796ZM77.3709 49.2H67.2189V47.49H77.1909V45.51H64.8069V51.198H69.8649V52.314H63.0789V54.294H78.9189V52.314H72.3129V51.198H77.3709V49.2ZM71.0709 54.834C67.9209 54.834 65.6889 56.292 65.6889 58.524C65.6889 60.756 67.9209 62.214 71.0709 62.214C74.2209 62.214 76.4529 60.756 76.4529 58.524C76.4529 56.292 74.2209 54.834 71.0709 54.834ZM71.0709 60.27C69.1269 60.27 68.1009 59.586 68.1009 58.524C68.1009 57.462 69.1269 56.778 71.0709 56.778C73.0149 56.778 74.0409 57.462 74.0409 58.524C74.0409 59.586 73.0149 60.27 71.0709 60.27ZM85.801 49.542C83.011 49.542 81.319 50.748 81.319 52.53C81.319 54.312 83.011 55.518 85.801 55.518C88.573 55.518 90.283 54.312 90.283 52.53C90.283 50.748 88.573 49.542 85.801 49.542ZM90.733 51.594H92.893V52.692H90.733V54.672H92.893V57.408H95.305V45.258H92.893V49.614H90.733V51.594ZM82.939 56.382V61.206H95.755V59.154H85.351V56.382H82.939ZM91.129 49.164V47.328H80.329V49.164H91.129ZM88.789 46.716V44.88H82.669V46.716H88.789ZM85.801 53.754C84.361 53.754 83.695 53.268 83.695 52.53C83.695 51.792 84.361 51.306 85.801 51.306C87.241 51.306 87.907 51.792 87.907 52.53C87.907 53.268 87.241 53.754 85.801 53.754ZM98.083 45.6V53.448L108.811 52.962V50.946L100.495 51.216V45.6H98.083ZM111.943 54.132V45.258H109.531V54.132H111.943ZM99.559 54.852V61.278H111.907V54.852H99.559ZM101.971 56.868H109.495V59.226H101.971V56.868ZM129.175 61.386V45.258H126.763V61.386H129.175ZM126.223 58.938V56.922L114.343 57.066V59.118L126.223 58.938ZM120.157 45.618C117.187 45.618 115.153 47.886 115.153 50.334C115.153 52.782 117.187 55.05 120.157 55.05C123.127 55.05 125.161 52.782 125.161 50.334C125.161 47.886 123.127 45.618 120.157 45.618ZM120.157 52.998C118.573 52.998 117.565 51.702 117.565 50.334C117.565 48.966 118.573 47.67 120.157 47.67C121.741 47.67 122.749 48.966 122.749 50.334C122.749 51.702 121.741 52.998 120.157 52.998ZM9.72264 88.972H12.0626V81.016H13.4666V89.368H15.8426V73.258H13.4666V78.928H12.0626V73.438H9.72264V88.972ZM1.60464 74.014V86.542L9.00264 86.11V84.094L3.98064 84.31V76.066H8.33664V74.014H1.60464ZM33.4707 82.15V80.422H17.6307V82.15H24.3267V82.978H19.2507V84.706H29.4027V85.318H19.2507V89.278H32.1927V87.532H21.6627V86.902H31.8147V82.978H26.7747V82.15H33.4707ZM19.1427 80.026C20.9427 79.954 22.9407 79.648 24.5607 78.964C24.8847 78.82 25.1907 78.658 25.4787 78.496C25.7847 78.694 26.1087 78.874 26.4687 79.036C28.0167 79.702 29.9967 79.972 31.8687 79.9L32.9127 78.136C30.7527 78.1 28.8987 77.992 27.4947 77.416L26.9367 77.146C26.9547 77.092 26.9907 77.056 27.0267 77.002H31.8687V75.202H19.1607V77.002H24.0747C23.7507 77.236 23.3547 77.416 22.8867 77.56C21.6807 77.938 20.0427 78.118 18.1707 78.208L19.1427 80.026ZM29.0427 72.898H21.9867V74.698H29.0427V72.898ZM44.1687 81.898C41.1447 81.898 38.9667 83.536 38.9667 85.876C38.9667 88.234 41.1447 89.854 44.1687 89.854C47.1927 89.854 49.3707 88.234 49.3707 85.876C49.3707 83.536 47.1927 81.898 44.1687 81.898ZM45.9687 79.396C44.1687 79.072 42.7287 78.532 41.6667 77.506C41.5587 77.398 41.4507 77.272 41.3607 77.146C41.5047 76.84 41.6307 76.498 41.7387 76.156C41.7927 76.012 41.8287 75.868 41.8647 75.724H45.3207V73.78H35.2587V75.724H39.3447C39.0747 76.57 38.6427 77.326 38.0127 77.992C37.0587 79 35.7987 79.738 34.2327 80.188L35.6367 81.988C37.0767 81.52 38.6787 80.548 39.9027 79.252L40.2267 78.892C40.6407 79.342 41.1267 79.738 41.6487 80.08C42.6027 80.692 43.6287 81.106 44.7267 81.304L45.9687 79.396ZM44.4567 78.388H47.2647V82.06H49.6767V73.258H47.2647V76.444H44.4567V78.388ZM44.1687 87.874C42.3687 87.874 41.3787 87.082 41.3787 85.876C41.3787 84.67 42.3687 83.878 44.1687 83.878C45.9687 83.878 46.9587 84.67 46.9587 85.876C46.9587 87.082 45.9687 87.874 44.1687 87.874ZM63.3268 73.726V76.552H55.7668V73.726H53.3548V83.41H58.3228V86.146H51.6268V88.198H67.4668V86.146H60.7708V83.41H65.7388V73.726H63.3268ZM55.7668 81.34V78.568H63.3268V81.34H55.7668ZM83.1868 89.278V87.532H72.6568V86.902H82.8088V82.978H70.2448V84.706H80.3968V85.318H70.2448V89.278H83.1868ZM83.0068 79.774V78.028H72.7468V77.38H82.7368V73.438H70.3348V75.166H80.3248V75.796H70.3348V79.774H83.0068ZM84.4648 82.204V80.476H68.6248V82.204H84.4648ZM102.581 75.382H91.6371V77.218H93.7251C93.1311 77.488 92.7891 78.028 92.7891 78.73C92.7891 80.062 93.9051 80.962 95.4351 81.358C95.5971 81.394 95.7771 81.43 95.9391 81.448V82.15L91.3311 82.204V84.076L102.851 83.896V82.06L98.3871 82.114V81.43L98.7651 81.358C100.331 80.962 101.429 80.062 101.429 78.73C101.429 78.028 101.087 77.488 100.493 77.218H102.581V75.382ZM105.875 89.458V84.778H93.0051V86.722H103.463V89.458H105.875ZM105.911 84.238V80.008H107.711V77.92H105.911V73.258H103.499V84.238H105.911ZM93.9951 72.898V74.734H100.223V72.898H93.9951ZM97.1091 77.218C98.3331 77.218 99.0171 77.686 99.0171 78.46C99.0171 79.234 98.3331 79.702 97.1091 79.702C95.8851 79.702 95.2011 79.234 95.2011 78.46C95.2011 77.686 95.8851 77.218 97.1091 77.218ZM113.765 73.096C111.083 73.096 108.941 75.022 108.941 77.722C108.941 80.422 111.083 82.348 113.765 82.348C116.447 82.348 118.589 80.422 118.589 77.722C118.589 75.022 116.447 73.096 113.765 73.096ZM113.765 80.296C112.271 80.296 111.353 79.252 111.353 77.722C111.353 76.192 112.271 75.148 113.765 75.148C115.259 75.148 116.177 76.192 116.177 77.722C116.177 79.252 115.259 80.296 113.765 80.296ZM123.395 85.084V73.258H120.983V85.084H123.395ZM111.029 83.698V89.206H123.845V87.154H113.441V83.698H111.029ZM133.769 75.274V73.222H128.189V75.274H133.769ZM136.109 78.172V76.12H125.777V78.172H136.109ZM130.943 78.622C128.081 78.622 126.371 80.53 126.371 82.924C126.371 85.318 128.081 87.226 130.943 87.226C133.805 87.226 135.515 85.318 135.515 82.924C135.515 80.53 133.805 78.622 130.943 78.622ZM130.943 85.21C129.485 85.21 128.783 84.274 128.783 82.924C128.783 81.574 129.485 80.638 130.943 80.638C132.401 80.638 133.103 81.574 133.103 82.924C133.103 84.274 132.401 85.21 130.943 85.21ZM139.619 89.386V81.808H141.905V79.72H139.619V73.258H137.207V89.386H139.619ZM151.775 85.102C150.785 84.238 149.939 83.266 149.273 82.186C148.751 81.34 148.301 80.404 147.959 79.378C148.391 77.704 148.625 75.868 148.679 73.834H146.267C146.195 79.036 144.719 82.996 141.857 85.714L143.603 87.136C144.989 85.714 146.123 84.04 146.987 82.114C147.221 82.6 147.455 83.05 147.707 83.5C148.391 84.67 149.237 85.732 150.227 86.722L151.775 85.102ZM149.921 80.458H152.423V88.972H154.763V73.438H152.423V78.406H149.921V80.458ZM158.093 89.368V73.258H155.717V89.368H158.093ZM167.405 73.186C163.859 73.186 161.447 75.58 161.447 78.28C161.447 80.98 163.859 83.374 167.405 83.374C171.005 83.374 173.399 80.98 173.399 78.28C173.399 75.58 171.005 73.186 167.405 73.186ZM175.361 88.198V86.146H172.265V83.428H169.853V86.146H165.083V83.428H162.671V86.146H159.521V88.198H175.361ZM167.423 81.322C165.191 81.322 163.859 79.918 163.859 78.28C163.859 76.66 165.191 75.238 167.423 75.238C169.655 75.238 170.987 76.66 170.987 78.28C170.987 79.918 169.655 81.322 167.423 81.322Z" fill="#242D3C"/>
<path d="M60.3836 3.368C59.6426 2.445 58.5766 1.873 57.2376 1.873C55.3396 1.873 54.1176 3.017 54.1176 4.512C54.1176 5.656 54.7026 6.592 56.3796 7.294L57.6796 7.84C58.8756 8.334 58.9666 8.867 58.9666 9.309C58.9666 10.193 58.3036 10.791 57.2506 10.791C56.1586 10.791 55.1966 10.024 54.6896 8.932L53.5976 9.985C54.1176 10.973 55.4696 12.247 57.2506 12.247C59.3046 12.247 60.6826 10.908 60.6826 9.309C60.6826 7.658 59.5256 7.008 58.1866 6.423L56.9126 5.864C56.0806 5.5 55.8336 5.097 55.8336 4.512C55.8336 3.875 56.2886 3.329 57.2376 3.329C57.9786 3.329 58.7326 3.706 59.3176 4.382L60.3836 3.368ZM65.691 10.713C65.379 10.778 64.989 10.791 64.768 10.791C64.105 10.791 63.819 10.336 63.819 9.595V6.124H65.691V4.72H63.819V2.783H62.155V4.72H60.894V6.124H62.155V9.595C62.155 11.22 62.857 12.195 64.69 12.195C64.937 12.195 65.275 12.208 65.691 12.117V10.713ZM71.8549 9.452C71.4389 10.232 70.6589 10.791 69.7749 10.791C68.7739 10.791 68.0329 9.972 67.8899 8.984H73.1679V8.191C73.1679 6.059 71.6989 4.525 69.6579 4.525C67.7079 4.525 66.1479 6.072 66.1479 8.36C66.1479 10.648 67.6169 12.195 69.7749 12.195C71.1269 12.195 72.3359 11.48 73.0639 10.375L71.8549 9.452ZM67.8769 7.606C68.0849 6.566 68.7739 5.929 69.6579 5.929C70.6069 5.929 71.2569 6.631 71.4519 7.606H67.8769ZM74.4724 4.72V14.6H76.1364V11.311C76.6044 11.87 77.4494 12.195 78.2294 12.195C80.4004 12.195 81.9734 10.648 81.9734 8.36C81.9734 6.072 80.4004 4.525 78.2294 4.525C77.4494 4.525 76.6564 4.811 76.1364 5.318V4.72H74.4724ZM76.1494 8.36C76.1494 6.826 77.0334 5.929 78.2294 5.929C79.4254 5.929 80.3094 6.917 80.3094 8.36C80.3094 9.803 79.4254 10.791 78.2294 10.791C77.0334 10.791 76.1494 9.894 76.1494 8.36ZM87.8222 4.486L88.7192 5.708L90.2142 4.434V12H91.9042V2.12H90.5782L87.8222 4.486ZM102.631 4.525C100.538 4.525 98.9906 6.072 98.9906 8.36C98.9906 10.648 100.538 12.195 102.631 12.195C104.698 12.195 106.271 10.648 106.271 8.36C106.271 6.072 104.698 4.525 102.631 4.525ZM102.631 10.791C101.539 10.791 100.655 9.803 100.655 8.36C100.655 6.917 101.539 5.929 102.631 5.929C103.723 5.929 104.607 6.917 104.607 8.36C104.607 9.803 103.723 10.791 102.631 10.791ZM111.534 1.977C111.209 1.912 110.871 1.873 110.533 1.873C108.596 1.873 107.998 2.926 107.998 4.473V4.72H106.724V6.124H107.998V12H109.662V6.124H111.534V4.72H109.662V4.473C109.662 3.693 109.74 3.264 110.611 3.264C111.04 3.264 111.339 3.303 111.534 3.355V1.977ZM116.256 3.55H121.183L117.4 12H119.181L123.146 3.095V2.12H116.256V3.55Z" fill="#999999"/>
</svg>
