<svg width="218" height="97" viewBox="0 0 218 97" fill="none" xmlns="http://www.w3.org/2000/svg">
<path d="M81.9489 55.132V46.258H79.5369V55.132H81.9489ZM69.5649 55.852V62.278H81.9129V55.852H69.5649ZM71.9769 57.868H79.5009V60.226H71.9769V57.868ZM68.2329 48.796H74.3529C73.7769 51.028 71.0589 52.792 67.1709 53.566L68.3049 55.438C72.6429 54.52 77.0349 51.82 76.9809 46.78H68.2329V48.796ZM98.3709 50.2H88.2189V48.49H98.1909V46.51H85.8069V52.198H90.8649V53.314H84.0789V55.294H99.9189V53.314H93.3129V52.198H98.3709V50.2ZM92.0709 55.834C88.9209 55.834 86.6889 57.292 86.6889 59.524C86.6889 61.756 88.9209 63.214 92.0709 63.214C95.2209 63.214 97.4529 61.756 97.4529 59.524C97.4529 57.292 95.2209 55.834 92.0709 55.834ZM92.0709 61.27C90.1269 61.27 89.1009 60.586 89.1009 59.524C89.1009 58.462 90.1269 57.778 92.0709 57.778C94.0149 57.778 95.0409 58.462 95.0409 59.524C95.0409 60.586 94.0149 61.27 92.0709 61.27ZM106.801 50.542C104.011 50.542 102.319 51.748 102.319 53.53C102.319 55.312 104.011 56.518 106.801 56.518C109.573 56.518 111.283 55.312 111.283 53.53C111.283 51.748 109.573 50.542 106.801 50.542ZM111.733 52.594H113.893V53.692H111.733V55.672H113.893V58.408H116.305V46.258H113.893V50.614H111.733V52.594ZM103.939 57.382V62.206H116.755V60.154H106.351V57.382H103.939ZM112.129 50.164V48.328H101.329V50.164H112.129ZM109.789 47.716V45.88H103.669V47.716H109.789ZM106.801 54.754C105.361 54.754 104.695 54.268 104.695 53.53C104.695 52.792 105.361 52.306 106.801 52.306C108.241 52.306 108.907 52.792 108.907 53.53C108.907 54.268 108.241 54.754 106.801 54.754ZM119.083 46.6V54.448L129.811 53.962V51.946L121.495 52.216V46.6H119.083ZM132.943 55.132V46.258H130.531V55.132H132.943ZM120.559 55.852V62.278H132.907V55.852H120.559ZM122.971 57.868H130.495V60.226H122.971V57.868ZM150.175 62.386V46.258H147.763V62.386H150.175ZM147.223 59.938V57.922L135.343 58.066V60.118L147.223 59.938ZM141.157 46.618C138.187 46.618 136.153 48.886 136.153 51.334C136.153 53.782 138.187 56.05 141.157 56.05C144.127 56.05 146.161 53.782 146.161 51.334C146.161 48.886 144.127 46.618 141.157 46.618ZM141.157 53.998C139.573 53.998 138.565 52.702 138.565 51.334C138.565 49.966 139.573 48.67 141.157 48.67C142.741 48.67 143.749 49.966 143.749 51.334C143.749 52.702 142.741 53.998 141.157 53.998ZM16.6426 89.198V87.146H8.81256V81.08H6.36456V87.146H0.802563V89.198H16.6426ZM14.1766 85.49C14.8426 82.538 15.1666 78.92 15.1666 74.978H2.26056V77.03H12.7186C12.7186 78.902 12.4666 82.592 11.8366 85.49H14.1766ZM26.8906 83.672H29.2306V80.072H30.6166V83.672H32.9926V74.258H30.6166V77.984H29.2306V74.42H26.8906V83.672ZM32.9566 90.458V84.392H19.8886V86.444H30.5446V90.458H32.9566ZM18.6646 76.832H23.3086C22.9306 78.938 21.0046 81.116 17.4766 82.088L18.7366 83.852C22.6066 82.646 25.9546 79.568 25.9006 74.816H18.6646V76.832ZM33.9527 89.9H36.2927L42.1607 74.42H39.8207L33.9527 89.9ZM51.6787 82.898C48.6547 82.898 46.4767 84.536 46.4767 86.876C46.4767 89.234 48.6547 90.854 51.6787 90.854C54.7027 90.854 56.8807 89.234 56.8807 86.876C56.8807 84.536 54.7027 82.898 51.6787 82.898ZM53.5867 80.432C51.8947 79.964 50.3827 79.208 49.3027 77.948L48.9787 77.516C48.9967 77.498 48.9967 77.462 49.0147 77.426C49.3927 76.526 49.5907 75.554 49.6087 74.51H47.1607C46.9987 77.804 45.0367 80.054 41.8867 81.134L43.3627 82.898C44.8567 82.34 46.4047 81.296 47.5747 79.856C47.7007 79.712 47.8087 79.55 47.9347 79.388L47.9527 79.424C49.1407 80.828 50.7067 81.836 52.2727 82.304L53.5867 80.432ZM56.9347 83.06V79.424H58.8427V77.372H56.9347V74.258H54.5227V83.06H56.9347ZM51.6787 88.874C49.8787 88.874 48.8887 88.082 48.8887 86.876C48.8887 85.67 49.8787 84.878 51.6787 84.878C53.4787 84.878 54.4687 85.67 54.4687 86.876C54.4687 88.082 53.4787 88.874 51.6787 88.874ZM73.6448 90.278V84.842H68.6048V83.798H75.3008V81.818H59.4608V83.798H66.1568V84.842H61.0808V90.278H73.6448ZM60.9908 76.49H62.7008L62.8088 78.92H60.4508V80.918H74.2928V78.92H71.9168L72.0248 76.49H73.7528V74.51H60.9908V76.49ZM63.4928 86.822H71.2328V88.262H63.4928V86.822ZM65.1128 76.49H69.6128L69.5048 78.92H65.2208L65.1128 76.49ZM85.9988 82.898C82.9748 82.898 80.7968 84.536 80.7968 86.876C80.7968 89.234 82.9748 90.854 85.9988 90.854C89.0228 90.854 91.2008 89.234 91.2008 86.876C91.2008 84.536 89.0228 82.898 85.9988 82.898ZM87.7988 80.396C85.9988 80.072 84.5588 79.532 83.4968 78.506C83.3888 78.398 83.2808 78.272 83.1908 78.146C83.3348 77.84 83.4608 77.498 83.5688 77.156C83.6228 77.012 83.6588 76.868 83.6948 76.724H87.1508V74.78H77.0888V76.724H81.1748C80.9048 77.57 80.4728 78.326 79.8428 78.992C78.8888 80 77.6288 80.738 76.0628 81.188L77.4668 82.988C78.9068 82.52 80.5088 81.548 81.7328 80.252L82.0568 79.892C82.4708 80.342 82.9568 80.738 83.4788 81.08C84.4328 81.692 85.4588 82.106 86.5568 82.304L87.7988 80.396ZM86.2868 79.388H89.0948V83.06H91.5068V74.258H89.0948V77.444H86.2868V79.388ZM85.9988 88.874C84.1988 88.874 83.2088 88.082 83.2088 86.876C83.2088 85.67 84.1988 84.878 85.9988 84.878C87.7988 84.878 88.7888 85.67 88.7888 86.876C88.7888 88.082 87.7988 88.874 85.9988 88.874ZM105.157 74.726V77.552H97.5969V74.726H95.1849V84.41H100.153V87.146H93.4569V89.198H109.297V87.146H102.601V84.41H107.569V74.726H105.157ZM97.5969 82.34V79.568H105.157V82.34H97.5969ZM125.017 90.278V88.532H114.487V87.902H124.639V83.978H112.075V85.706H122.227V86.318H112.075V90.278H125.017ZM124.837 80.774V79.028H114.577V78.38H124.567V74.438H112.165V76.166H122.155V76.796H112.165V80.774H124.837ZM126.295 83.204V81.476H110.455V83.204H126.295ZM144.411 76.382H133.467V78.218H135.555C134.961 78.488 134.619 79.028 134.619 79.73C134.619 81.062 135.735 81.962 137.265 82.358C137.427 82.394 137.607 82.43 137.769 82.448V83.15L133.161 83.204V85.076L144.681 84.896V83.06L140.217 83.114V82.43L140.595 82.358C142.161 81.962 143.259 81.062 143.259 79.73C143.259 79.028 142.917 78.488 142.323 78.218H144.411V76.382ZM147.705 90.458V85.778H134.835V87.722H145.293V90.458H147.705ZM147.741 85.238V81.008H149.541V78.92H147.741V74.258H145.329V85.238H147.741ZM135.825 73.898V75.734H142.053V73.898H135.825ZM138.939 78.218C140.163 78.218 140.847 78.686 140.847 79.46C140.847 80.234 140.163 80.702 138.939 80.702C137.715 80.702 137.031 80.234 137.031 79.46C137.031 78.686 137.715 78.218 138.939 78.218ZM155.595 74.096C152.913 74.096 150.771 76.022 150.771 78.722C150.771 81.422 152.913 83.348 155.595 83.348C158.277 83.348 160.419 81.422 160.419 78.722C160.419 76.022 158.277 74.096 155.595 74.096ZM155.595 81.296C154.101 81.296 153.183 80.252 153.183 78.722C153.183 77.192 154.101 76.148 155.595 76.148C157.089 76.148 158.007 77.192 158.007 78.722C158.007 80.252 157.089 81.296 155.595 81.296ZM165.225 86.084V74.258H162.813V86.084H165.225ZM152.859 84.698V90.206H165.675V88.154H155.271V84.698H152.859ZM175.599 76.274V74.222H170.019V76.274H175.599ZM177.939 79.172V77.12H167.607V79.172H177.939ZM172.773 79.622C169.911 79.622 168.201 81.53 168.201 83.924C168.201 86.318 169.911 88.226 172.773 88.226C175.635 88.226 177.345 86.318 177.345 83.924C177.345 81.53 175.635 79.622 172.773 79.622ZM172.773 86.21C171.315 86.21 170.613 85.274 170.613 83.924C170.613 82.574 171.315 81.638 172.773 81.638C174.231 81.638 174.933 82.574 174.933 83.924C174.933 85.274 174.231 86.21 172.773 86.21ZM181.449 90.386V82.808H183.735V80.72H181.449V74.258H179.037V90.386H181.449ZM193.605 86.102C192.615 85.238 191.769 84.266 191.103 83.186C190.581 82.34 190.131 81.404 189.789 80.378C190.221 78.704 190.455 76.868 190.509 74.834H188.097C188.025 80.036 186.549 83.996 183.687 86.714L185.433 88.136C186.819 86.714 187.953 85.04 188.817 83.114C189.051 83.6 189.285 84.05 189.537 84.5C190.221 85.67 191.067 86.732 192.057 87.722L193.605 86.102ZM191.751 81.458H194.253V89.972H196.593V74.438H194.253V79.406H191.751V81.458ZM199.923 90.368V74.258H197.547V90.368H199.923ZM209.235 74.186C205.689 74.186 203.277 76.58 203.277 79.28C203.277 81.98 205.689 84.374 209.235 84.374C212.835 84.374 215.229 81.98 215.229 79.28C215.229 76.58 212.835 74.186 209.235 74.186ZM217.191 89.198V87.146H214.095V84.428H211.683V87.146H206.913V84.428H204.501V87.146H201.351V89.198H217.191ZM209.253 82.322C207.021 82.322 205.689 80.918 205.689 79.28C205.689 77.66 207.021 76.238 209.253 76.238C211.485 76.238 212.817 77.66 212.817 79.28C212.817 80.918 211.485 82.322 209.253 82.322Z" fill="#242D3C"/>
<path d="M69.0091 3.368C68.2681 2.445 67.2021 1.873 65.8631 1.873C63.9651 1.873 62.7431 3.017 62.7431 4.512C62.7431 5.656 63.3281 6.592 65.0051 7.294L66.3051 7.84C67.5011 8.334 67.5921 8.867 67.5921 9.309C67.5921 10.193 66.9291 10.791 65.8761 10.791C64.7841 10.791 63.8221 10.024 63.3151 8.932L62.2231 9.985C62.7431 10.973 64.0951 12.247 65.8761 12.247C67.9301 12.247 69.3081 10.908 69.3081 9.309C69.3081 7.658 68.1511 7.008 66.8121 6.423L65.5381 5.864C64.7061 5.5 64.4591 5.097 64.4591 4.512C64.4591 3.875 64.9141 3.329 65.8631 3.329C66.6041 3.329 67.3581 3.706 67.9431 4.382L69.0091 3.368ZM74.3165 10.713C74.0045 10.778 73.6145 10.791 73.3935 10.791C72.7305 10.791 72.4445 10.336 72.4445 9.595V6.124H74.3165V4.72H72.4445V2.783H70.7805V4.72H69.5195V6.124H70.7805V9.595C70.7805 11.22 71.4825 12.195 73.3155 12.195C73.5625 12.195 73.9005 12.208 74.3165 12.117V10.713ZM80.4804 9.452C80.0644 10.232 79.2844 10.791 78.4004 10.791C77.3994 10.791 76.6584 9.972 76.5154 8.984H81.7934V8.191C81.7934 6.059 80.3244 4.525 78.2834 4.525C76.3334 4.525 74.7734 6.072 74.7734 8.36C74.7734 10.648 76.2424 12.195 78.4004 12.195C79.7524 12.195 80.9614 11.48 81.6894 10.375L80.4804 9.452ZM76.5024 7.606C76.7104 6.566 77.3994 5.929 78.2834 5.929C79.2324 5.929 79.8824 6.631 80.0774 7.606H76.5024ZM83.0979 4.72V14.6H84.7619V11.311C85.2299 11.87 86.0749 12.195 86.8549 12.195C89.0259 12.195 90.5989 10.648 90.5989 8.36C90.5989 6.072 89.0259 4.525 86.8549 4.525C86.0749 4.525 85.2819 4.811 84.7619 5.318V4.72H83.0979ZM84.7749 8.36C84.7749 6.826 85.6589 5.929 86.8549 5.929C88.0509 5.929 88.9349 6.917 88.9349 8.36C88.9349 9.803 88.0509 10.791 86.8549 10.791C85.6589 10.791 84.7749 9.894 84.7749 8.36ZM100.53 8.087H97.7997L100.53 4.85V8.087ZM95.4987 9.517H100.53V12H102.22V9.517H103.65V8.087H102.22V2.12H100.855L95.4987 8.425V9.517ZM112.005 4.525C109.912 4.525 108.365 6.072 108.365 8.36C108.365 10.648 109.912 12.195 112.005 12.195C114.072 12.195 115.645 10.648 115.645 8.36C115.645 6.072 114.072 4.525 112.005 4.525ZM112.005 10.791C110.913 10.791 110.029 9.803 110.029 8.36C110.029 6.917 110.913 5.929 112.005 5.929C113.097 5.929 113.981 6.917 113.981 8.36C113.981 9.803 113.097 10.791 112.005 10.791ZM120.909 1.977C120.584 1.912 120.246 1.873 119.908 1.873C117.971 1.873 117.373 2.926 117.373 4.473V4.72H116.099V6.124H117.373V12H119.037V6.124H120.909V4.72H119.037V4.473C119.037 3.693 119.115 3.264 119.986 3.264C120.415 3.264 120.714 3.303 120.909 3.355V1.977ZM125.631 3.55H130.558L126.775 12H128.556L132.521 3.095V2.12H125.631V3.55Z" fill="#999999"/>
</svg>
