<svg width="216" height="118" viewBox="0 0 216 118" fill="none" xmlns="http://www.w3.org/2000/svg">
<path d="M40.6598 54.132V45.258H38.2478V54.132H40.6598ZM28.2758 54.852V61.278H40.6238V54.852H28.2758ZM30.6878 56.868H38.2118V59.226H30.6878V56.868ZM26.9438 47.796H33.0638C32.4878 50.028 29.7698 51.792 25.8818 52.566L27.0158 54.438C31.3538 53.52 35.7458 50.82 35.6918 45.78H26.9438V47.796ZM57.0819 49.2H46.9299V47.49H56.9019V45.51H44.5179V51.198H49.5759V52.314H42.7899V54.294H58.6299V52.314H52.0239V51.198H57.0819V49.2ZM50.7819 54.834C47.6319 54.834 45.3999 56.292 45.3999 58.524C45.3999 60.756 47.6319 62.214 50.7819 62.214C53.9319 62.214 56.1639 60.756 56.1639 58.524C56.1639 56.292 53.9319 54.834 50.7819 54.834ZM50.7819 60.27C48.8379 60.27 47.8119 59.586 47.8119 58.524C47.8119 57.462 48.8379 56.778 50.7819 56.778C52.7259 56.778 53.7519 57.462 53.7519 58.524C53.7519 59.586 52.7259 60.27 50.7819 60.27ZM65.5119 49.542C62.7219 49.542 61.0299 50.748 61.0299 52.53C61.0299 54.312 62.7219 55.518 65.5119 55.518C68.2839 55.518 69.9939 54.312 69.9939 52.53C69.9939 50.748 68.2839 49.542 65.5119 49.542ZM70.4439 51.594H72.6039V52.692H70.4439V54.672H72.6039V57.408H75.0159V45.258H72.6039V49.614H70.4439V51.594ZM62.6499 56.382V61.206H75.4659V59.154H65.0619V56.382H62.6499ZM70.8399 49.164V47.328H60.0399V49.164H70.8399ZM68.4999 46.716V44.88H62.3799V46.716H68.4999ZM65.5119 53.754C64.0719 53.754 63.4059 53.268 63.4059 52.53C63.4059 51.792 64.0719 51.306 65.5119 51.306C66.9519 51.306 67.6179 51.792 67.6179 52.53C67.6179 53.268 66.9519 53.754 65.5119 53.754ZM79.324 53.07C79.324 49.704 80.584 46.824 82.402 45.15L81.322 43.62C78.694 45.546 76.984 49.11 76.984 53.07C76.984 57.03 78.676 60.594 81.322 62.52L82.402 60.99C80.566 59.352 79.324 56.418 79.324 53.07ZM92.1689 60.972H94.5089V53.016H95.9129V61.368H98.2889V45.258H95.9129V50.928H94.5089V45.438H92.1689V60.972ZM84.0509 46.014V58.542L91.4489 58.11V56.094L86.4269 56.31V48.066H90.7829V46.014H84.0509ZM109.617 53.898C106.593 53.898 104.415 55.536 104.415 57.876C104.415 60.234 106.593 61.854 109.617 61.854C112.641 61.854 114.819 60.234 114.819 57.876C114.819 55.536 112.641 53.898 109.617 53.898ZM111.381 51.432C109.689 50.964 108.177 50.208 107.097 48.948L106.773 48.516C106.791 48.498 106.791 48.462 106.809 48.426C107.187 47.526 107.385 46.554 107.403 45.51H104.955C104.793 48.804 102.831 51.054 99.681 52.134L101.157 53.898C102.651 53.34 104.199 52.296 105.369 50.856C105.495 50.712 105.603 50.55 105.729 50.388L105.747 50.424C106.935 51.828 108.501 52.836 110.067 53.304L111.381 51.432ZM109.365 49.596H112.713V54.06H115.125V45.258H112.713V47.652H109.365V49.596ZM109.617 59.874C107.817 59.874 106.827 59.082 106.827 57.876C106.827 56.67 107.817 55.878 109.617 55.878C111.417 55.878 112.407 56.67 112.407 57.876C112.407 59.082 111.417 59.874 109.617 59.874ZM131.637 61.278V59.46H121.107V58.758H131.259V54.618H126.219V53.61H132.915V51.702H117.075V53.61H123.771V54.618H118.695V56.418H128.847V57.102H118.695V61.278H131.637ZM131.187 50.946V45.51H118.803V50.946H131.187ZM121.215 47.418H128.775V49.038H121.215V47.418ZM148.455 53.826V51.792H138.195V50.676H148.185V45.69H135.783V47.706H145.791V48.732H135.783V53.826H148.455ZM140.139 61.206V56.958H143.847V61.386H146.259V56.958H149.913V54.942H134.073V56.958H137.727V61.206H140.139ZM153.537 53.07C153.537 56.418 152.295 59.352 150.459 60.99L151.539 62.52C154.185 60.594 155.877 57.03 155.877 53.07C155.877 49.11 154.167 45.546 151.539 43.62L150.459 45.15C152.277 46.824 153.537 49.704 153.537 53.07ZM158.372 45.6V53.448L169.1 52.962V50.946L160.784 51.216V45.6H158.372ZM172.232 54.132V45.258H169.82V54.132H172.232ZM159.848 54.852V61.278H172.196V54.852H159.848ZM162.26 56.868H169.784V59.226H162.26V56.868ZM189.464 61.386V45.258H187.052V61.386H189.464ZM186.512 58.938V56.922L174.632 57.066V59.118L186.512 58.938ZM180.446 45.618C177.476 45.618 175.442 47.886 175.442 50.334C175.442 52.782 177.476 55.05 180.446 55.05C183.416 55.05 185.45 52.782 185.45 50.334C185.45 47.886 183.416 45.618 180.446 45.618ZM180.446 52.998C178.862 52.998 177.854 51.702 177.854 50.334C177.854 48.966 178.862 47.67 180.446 47.67C182.03 47.67 183.038 48.966 183.038 50.334C183.038 51.702 182.03 52.998 180.446 52.998ZM9.77147 88.972H12.1115V81.016H13.5155V89.368H15.8915V73.258H13.5155V78.928H12.1115V73.438H9.77147V88.972ZM1.65347 74.014V86.542L9.05147 86.11V84.094L4.02947 84.31V76.066H8.38547V74.014H1.65347ZM33.5195 82.15V80.422H17.6795V82.15H24.3755V82.978H19.2995V84.706H29.4515V85.318H19.2995V89.278H32.2415V87.532H21.7115V86.902H31.8635V82.978H26.8235V82.15H33.5195ZM19.1915 80.026C20.9915 79.954 22.9895 79.648 24.6095 78.964C24.9335 78.82 25.2395 78.658 25.5275 78.496C25.8335 78.694 26.1575 78.874 26.5175 79.036C28.0655 79.702 30.0455 79.972 31.9175 79.9L32.9615 78.136C30.8015 78.1 28.9475 77.992 27.5435 77.416L26.9855 77.146C27.0035 77.092 27.0395 77.056 27.0755 77.002H31.9175V75.202H19.2095V77.002H24.1235C23.7995 77.236 23.4035 77.416 22.9355 77.56C21.7295 77.938 20.0915 78.118 18.2195 78.208L19.1915 80.026ZM29.0915 72.898H22.0355V74.698H29.0915V72.898ZM48.8616 89.278V82.942H36.2976V89.278H48.8616ZM50.5176 81.466V79.45H48.3396C48.4836 78.784 48.6276 78.01 48.7536 77.128C48.9156 76.048 49.0056 74.842 49.0416 73.51H36.1356V75.526H46.5576C46.5216 76.39 46.3776 77.56 46.1256 78.748L45.9636 79.45H34.6776V81.466H50.5176ZM38.7096 84.922H46.4496V87.262H38.7096V84.922ZM65.5739 82.834C62.4239 82.834 60.1919 84.292 60.1919 86.524C60.1919 88.756 62.4239 90.214 65.5739 90.214C68.7239 90.214 70.9559 88.756 70.9559 86.524C70.9559 84.292 68.7239 82.834 65.5739 82.834ZM73.4219 82.24V80.26H66.7259V78.388H64.2779V80.26H57.5819V82.24H73.4219ZM59.0939 79.342C60.7859 79.162 62.8019 78.55 64.3859 77.56C64.7639 77.326 65.1239 77.056 65.4479 76.786C65.7179 77.02 66.0059 77.218 66.3119 77.416C67.9139 78.46 69.9299 79.072 71.8559 79.216L72.9359 77.416C70.6859 77.164 68.7599 76.714 67.3199 75.778C67.0859 75.616 66.8699 75.454 66.6719 75.274C66.7259 75.184 66.7619 75.076 66.8159 74.968C67.0859 74.446 67.2299 73.87 67.2479 73.24H64.7639C64.6199 75.76 61.5959 77.092 58.0499 77.524L59.0939 79.342ZM65.5739 88.27C63.6299 88.27 62.6039 87.586 62.6039 86.524C62.6039 85.462 63.6299 84.778 65.5739 84.778C67.5179 84.778 68.5439 85.462 68.5439 86.524C68.5439 87.586 67.5179 88.27 65.5739 88.27ZM88.7639 89.278V82.942H76.1999V89.278H88.7639ZM90.4199 81.466V79.45H88.2419C88.3859 78.784 88.5299 78.01 88.6559 77.128C88.8179 76.048 88.9079 74.842 88.9439 73.51H76.0379V75.526H86.4599C86.4239 76.39 86.2799 77.56 86.0279 78.748L85.8659 79.45H74.5799V81.466H90.4199ZM78.6119 84.922H86.3519V87.262H78.6119V84.922ZM103.062 85.174C101.784 84.616 100.722 83.914 99.84 83.05C99.246 82.456 98.724 81.754 98.31 80.944C98.4 80.71 98.472 80.494 98.526 80.26C98.688 79.72 98.814 79.162 98.886 78.568H102.414V76.516H92.478V78.568H96.42C96.366 78.946 96.276 79.324 96.186 79.666C95.466 82.312 93.774 84.238 91.29 85.642L92.874 87.352C94.584 86.29 96.132 84.904 97.23 83.158L97.266 83.104C97.644 83.662 98.058 84.202 98.526 84.688C99.462 85.678 100.56 86.47 101.64 86.974L103.062 85.174ZM101.334 81.988H104.34V89.386H106.752V73.258H104.34V79.936H101.334V81.988ZM100.38 75.274V73.222H94.602V75.274H100.38ZM123.138 89.278V87.532H112.608V86.902H122.76V82.978H110.196V84.706H120.348V85.318H110.196V89.278H123.138ZM122.958 79.774V78.028H112.698V77.38H122.688V73.438H110.286V75.166H120.276V75.796H110.286V79.774H122.958ZM124.416 82.204V80.476H108.576V82.204H124.416ZM136.718 73.024C134.054 73.024 131.966 74.824 131.966 77.344C131.966 79.864 134.054 81.664 136.718 81.664C139.382 81.664 141.47 79.864 141.47 77.344C141.47 74.824 139.382 73.024 136.718 73.024ZM136.718 79.684C135.278 79.684 134.378 78.73 134.378 77.344C134.378 75.958 135.278 75.004 136.718 75.004C138.158 75.004 139.058 75.958 139.058 77.344C139.058 78.73 138.158 79.684 136.718 79.684ZM146.348 81.61V73.258H143.936V81.61H146.348ZM143.9 87.262H136.376V85.84H143.9V87.262ZM146.312 89.278V82.33H143.9V83.932H136.376V82.33H133.964V89.278H146.312ZM159.584 82.546V80.566L151.898 80.836V79.18H157.694V73.672H149.486V75.688H155.282V77.2H149.486V83.032L159.584 82.546ZM163.31 89.458V83.752H150.422V85.732H160.898V89.458H163.31ZM158.432 76.876H160.934V77.92H158.432V79.936H160.934V83.032H163.346V73.258H160.934V74.86H158.432V76.876ZM173.72 75.274V73.222H168.14V75.274H173.72ZM176.06 78.172V76.12H165.728V78.172H176.06ZM170.894 78.622C168.032 78.622 166.322 80.53 166.322 82.924C166.322 85.318 168.032 87.226 170.894 87.226C173.756 87.226 175.466 85.318 175.466 82.924C175.466 80.53 173.756 78.622 170.894 78.622ZM170.894 85.21C169.436 85.21 168.734 84.274 168.734 82.924C168.734 81.574 169.436 80.638 170.894 80.638C172.352 80.638 173.054 81.574 173.054 82.924C173.054 84.274 172.352 85.21 170.894 85.21ZM179.57 89.386V81.808H181.856V79.72H179.57V73.258H177.158V89.386H179.57ZM191.726 85.102C190.736 84.238 189.89 83.266 189.224 82.186C188.702 81.34 188.252 80.404 187.91 79.378C188.342 77.704 188.576 75.868 188.63 73.834H186.218C186.146 79.036 184.67 82.996 181.808 85.714L183.554 87.136C184.94 85.714 186.074 84.04 186.938 82.114C187.172 82.6 187.406 83.05 187.658 83.5C188.342 84.67 189.188 85.732 190.178 86.722L191.726 85.102ZM189.872 80.458H192.374V88.972H194.714V73.438H192.374V78.406H189.872V80.458ZM198.044 89.368V73.258H195.668V89.368H198.044ZM207.356 73.186C203.81 73.186 201.398 75.58 201.398 78.28C201.398 80.98 203.81 83.374 207.356 83.374C210.956 83.374 213.35 80.98 213.35 78.28C213.35 75.58 210.956 73.186 207.356 73.186ZM215.312 88.198V86.146H212.216V83.428H209.804V86.146H205.034V83.428H202.622V86.146H199.472V88.198H215.312ZM207.374 81.322C205.142 81.322 203.81 79.918 203.81 78.28C203.81 76.66 205.142 75.238 207.374 75.238C209.606 75.238 210.938 76.66 210.938 78.28C210.938 79.918 209.606 81.322 207.374 81.322Z" fill="#242D3C"/>
<path d="M79.376 112.23L79.976 111.84L79.006 110.54L80.386 110.17L80.186 109.49L78.836 109.95L78.896 108.45H78.096L78.156 109.95L76.806 109.49L76.606 110.17L77.986 110.54L77.016 111.84L77.616 112.23L78.496 110.94L79.376 112.23Z" fill="#D7191F"/>
<path d="M91.4499 107.85H90.9699V112.48H91.4499V107.85ZM91.4299 115.01V113.04H84.9899V113.43H90.9499V114.63H84.9899V116.67H91.6299V116.27H85.4699V115.01H91.4299ZM83.7499 112.14L90.2199 111.89V111.51L88.4699 111.57L88.5999 108.55H89.5699V108.16H84.0199V108.55H85.1099L85.2499 111.68L83.7499 111.73V112.14ZM85.5799 108.55H88.1299L87.9999 111.59L85.7099 111.67L85.5799 108.55ZM97.5733 116.73V113.41H101.713V113.01H92.9533V113.41H97.0933V116.73H97.5733ZM101.273 111.49C100.443 111.3 99.7033 111 99.0433 110.59C98.3933 110.19 97.8833 109.71 97.5133 109.16C97.6933 108.8 97.8033 108.41 97.8533 108H97.3733C97.1033 109.86 95.2333 111.17 93.2633 111.49L93.5133 111.86C94.4833 111.69 95.5333 111.23 96.3433 110.58C96.7233 110.27 97.0433 109.91 97.3133 109.5C97.5033 109.77 97.7233 110.03 97.9633 110.26C98.8033 111.06 99.8833 111.61 101.023 111.87L101.273 111.49ZM109.857 112.53H110.337V107.85H109.857V112.53ZM109.837 113.09V114.23H104.357V113.09H103.877V116.67H110.317V113.09H109.837ZM104.357 116.27V114.62H109.837V116.27H104.357ZM105.277 107.78C103.797 107.78 102.767 108.83 102.767 110.07C102.767 111.31 103.797 112.36 105.277 112.36C106.757 112.36 107.787 111.31 107.787 110.07C107.787 108.83 106.757 107.78 105.277 107.78ZM105.277 111.96C104.017 111.96 103.247 111.11 103.247 110.07C103.247 109.03 104.017 108.18 105.277 108.18C106.527 108.18 107.307 109.03 107.307 110.07C107.307 111.11 106.527 111.96 105.277 111.96ZM112.98 112.63V110.72H116.7V108.08H112.5V108.48H116.22V110.33H112.5V113.07L118.16 112.81V112.42L112.98 112.63ZM119.3 113.42H119.78V107.85H119.3V109.08H117.38V109.48H119.3V110.98H117.38V111.38H119.3V113.42ZM119.76 116.77V114.02H113.02V114.41H119.28V116.77H119.76ZM127.383 114.68C126.283 114 125.413 113.05 124.793 112.05C124.603 111.76 124.443 111.46 124.313 111.16C124.383 110.95 124.433 110.74 124.483 110.52C124.653 109.8 124.753 109.01 124.763 108.15H124.263C124.183 111.36 123.033 113.66 121.043 115.03L121.363 115.37C122.363 114.64 123.193 113.69 123.783 112.5C123.913 112.25 124.023 111.99 124.123 111.72C124.413 112.31 124.773 112.87 125.213 113.4C125.753 114.04 126.373 114.6 127.063 115.08L127.383 114.68ZM128.773 116.73V111.76H130.323V111.36H128.773V107.85H128.293V116.73H128.773ZM135.807 116.91C137.517 116.91 138.567 116.07 138.567 115.05C138.567 114.03 137.517 113.19 135.807 113.19C134.097 113.19 133.047 114.03 133.047 115.05C133.047 116.07 134.097 116.91 135.807 116.91ZM133.867 109.77C132.487 109.77 131.477 110.38 131.477 111.26C131.477 112.14 132.487 112.75 133.867 112.75C135.247 112.75 136.257 112.14 136.257 111.26C136.257 110.38 135.247 109.77 133.867 109.77ZM135.807 116.53C134.367 116.53 133.527 115.85 133.527 115.05C133.527 114.25 134.367 113.57 135.807 113.57C137.247 113.57 138.087 114.25 138.087 115.05C138.087 115.85 137.247 116.53 135.807 116.53ZM133.867 112.37C132.767 112.37 131.947 111.96 131.947 111.26C131.947 110.57 132.767 110.15 133.867 110.15C134.967 110.15 135.787 110.57 135.787 111.26C135.787 111.96 134.967 112.37 133.867 112.37ZM139.757 110.21H138.447V107.85H137.967V113.19H138.447V110.61H139.757V110.21ZM136.727 109.31V108.93H130.847V109.31H136.727ZM135.427 108.2V107.82H132.147V108.2H135.427Z" fill="#242D3C"/>
<path d="M80.3074 3.368C79.5664 2.445 78.5004 1.873 77.1614 1.873C75.2634 1.873 74.0414 3.017 74.0414 4.512C74.0414 5.656 74.6264 6.592 76.3034 7.294L77.6034 7.84C78.7994 8.334 78.8904 8.867 78.8904 9.309C78.8904 10.193 78.2274 10.791 77.1744 10.791C76.0824 10.791 75.1204 10.024 74.6134 8.932L73.5214 9.985C74.0414 10.973 75.3934 12.247 77.1744 12.247C79.2284 12.247 80.6064 10.908 80.6064 9.309C80.6064 7.658 79.4494 7.008 78.1104 6.423L76.8364 5.864C76.0044 5.5 75.7574 5.097 75.7574 4.512C75.7574 3.875 76.2124 3.329 77.1614 3.329C77.9024 3.329 78.6564 3.706 79.2414 4.382L80.3074 3.368ZM85.6149 10.713C85.3029 10.778 84.9129 10.791 84.6919 10.791C84.0289 10.791 83.7429 10.336 83.7429 9.595V6.124H85.6149V4.72H83.7429V2.783H82.0789V4.72H80.8179V6.124H82.0789V9.595C82.0789 11.22 82.7809 12.195 84.6139 12.195C84.8609 12.195 85.1989 12.208 85.6149 12.117V10.713ZM91.7787 9.452C91.3627 10.232 90.5827 10.791 89.6987 10.791C88.6977 10.791 87.9567 9.972 87.8137 8.984H93.0917V8.191C93.0917 6.059 91.6227 4.525 89.5817 4.525C87.6317 4.525 86.0717 6.072 86.0717 8.36C86.0717 10.648 87.5407 12.195 89.6987 12.195C91.0507 12.195 92.2597 11.48 92.9877 10.375L91.7787 9.452ZM87.8007 7.606C88.0087 6.566 88.6977 5.929 89.5817 5.929C90.5307 5.929 91.1807 6.631 91.3757 7.606H87.8007ZM94.3963 4.72V14.6H96.0603V11.311C96.5283 11.87 97.3733 12.195 98.1533 12.195C100.324 12.195 101.897 10.648 101.897 8.36C101.897 6.072 100.324 4.525 98.1533 4.525C97.3733 4.525 96.5803 4.811 96.0603 5.318V4.72H94.3963ZM96.0733 8.36C96.0733 6.826 96.9573 5.929 98.1533 5.929C99.3493 5.929 100.233 6.917 100.233 8.36C100.233 9.803 99.3493 10.791 98.1533 10.791C96.9573 10.791 96.0733 9.894 96.0733 8.36ZM113.843 4.915C113.843 3.225 112.478 1.873 110.307 1.873C108.747 1.873 107.499 2.9 106.81 4.291L108.071 5.123C108.591 4.096 109.423 3.303 110.307 3.303C111.425 3.303 112.153 4.018 112.153 4.915C112.153 5.903 111.477 6.579 110.814 7.203L106.849 10.895V12H114.077V10.57H109.371L111.867 8.308C112.803 7.476 113.843 6.423 113.843 4.915ZM122.707 4.525C120.614 4.525 119.067 6.072 119.067 8.36C119.067 10.648 120.614 12.195 122.707 12.195C124.774 12.195 126.347 10.648 126.347 8.36C126.347 6.072 124.774 4.525 122.707 4.525ZM122.707 10.791C121.615 10.791 120.731 9.803 120.731 8.36C120.731 6.917 121.615 5.929 122.707 5.929C123.799 5.929 124.683 6.917 124.683 8.36C124.683 9.803 123.799 10.791 122.707 10.791ZM131.61 1.977C131.285 1.912 130.947 1.873 130.609 1.873C128.672 1.873 128.074 2.926 128.074 4.473V4.72H126.8V6.124H128.074V12H129.738V6.124H131.61V4.72H129.738V4.473C129.738 3.693 129.816 3.264 130.687 3.264C131.116 3.264 131.415 3.303 131.61 3.355V1.977ZM136.332 3.55H141.259L137.476 12H139.257L143.222 3.095V2.12H136.332V3.55Z" fill="#999999"/>
</svg>
