<svg width="72" height="15" viewBox="0 0 72 15" fill="none" xmlns="http://www.w3.org/2000/svg">
<path d="M10.75 10.495C9.715 9.79 8.83 9.01 8.125 8.155C7.57 7.48 7.075 6.715 6.655 5.875C7.12 4.39 7.345 2.8 7.345 1.105H5.305C5.305 5.155 4.03 8.485 0.82 10.855L2.17 12.25C3.775 11.005 4.99 9.55 5.845 7.9C6.175 8.44 6.55 8.965 6.955 9.475C7.72 10.42 8.56 11.23 9.505 11.935L10.75 10.495ZM13.225 14.155V7.24H15.13V5.5H13.225V0.714999H11.215V14.155H13.225ZM28.035 7.675V0.714999H26.025V3.295H23.82C23.775 3.085 23.7 2.875 23.61 2.68C23.025 1.36 21.63 0.52 19.98 0.52C17.76 0.52 16.05 2.02 16.05 4.12C16.05 6.22 17.76 7.72 19.98 7.72C21.63 7.72 23.025 6.865 23.61 5.575C23.685 5.395 23.76 5.2 23.805 5.005H26.025V7.675H28.035ZM28.005 14.065V8.275H25.995V9.61H19.725V8.275H17.715V14.065H28.005ZM19.98 6.07C18.78 6.07 18.06 5.275 18.06 4.12C18.06 2.965 18.78 2.17 19.98 2.17C21.18 2.17 21.9 2.965 21.9 4.12C21.9 5.275 21.18 6.07 19.98 6.07ZM25.995 12.385H19.725V11.2H25.995V12.385ZM30.5001 12.31C31.3101 11.695 32.0301 11.005 32.6751 10.225C33.2301 9.55 33.7251 8.83 34.1301 8.05L34.2201 8.215C35.1801 9.73 36.5151 11.125 37.8651 11.995L39.0801 10.525C37.2051 9.46 35.8251 7.975 34.9701 6.07C35.1051 5.635 35.2251 5.2 35.3301 4.735C35.4651 4.165 35.5551 3.58 35.6151 2.965H38.6451V1.255H30.0501V2.965H33.5601C33.5151 3.43 33.4401 3.895 33.3501 4.345C32.8101 7.12 31.4451 9.415 29.1501 10.915L30.5001 12.31ZM41.5551 14.155V7.24H43.4601V5.5H41.5551V0.714999H39.5451V14.155H41.5551ZM51.9251 7.915C49.4051 7.915 47.5901 9.28 47.5901 11.23C47.5901 13.195 49.4051 14.545 51.9251 14.545C54.4451 14.545 56.2601 13.195 56.2601 11.23C56.2601 9.28 54.4451 7.915 51.9251 7.915ZM53.4251 5.83C51.9251 5.56 50.7251 5.11 49.8401 4.255C49.7501 4.165 49.6601 4.06 49.5851 3.955C49.7051 3.7 49.8101 3.415 49.9001 3.13C49.9451 3.01 49.9751 2.89 50.0051 2.77H52.8851V1.15H44.5001V2.77H47.9051C47.6801 3.475 47.3201 4.105 46.7951 4.66C46.0001 5.5 44.9501 6.115 43.6451 6.49L44.8151 7.99C46.0151 7.6 47.3501 6.79 48.3701 5.71L48.6401 5.41C48.9851 5.785 49.3901 6.115 49.8251 6.4C50.6201 6.91 51.4751 7.255 52.3901 7.42L53.4251 5.83ZM52.1651 4.99H54.5051V8.05H56.5151V0.714999H54.5051V3.37H52.1651V4.99ZM51.9251 12.895C50.4251 12.895 49.6001 12.235 49.6001 11.23C49.6001 10.225 50.4251 9.565 51.9251 9.565C53.4251 9.565 54.2501 10.225 54.2501 11.23C54.2501 12.235 53.4251 12.895 51.9251 12.895ZM67.8902 1.105V3.46H61.5902V1.105H59.5802V9.175H63.7202V11.455H58.1402V13.165H71.3402V11.455H65.7602V9.175H69.9002V1.105H67.8902ZM61.5902 7.45V5.14H67.8902V7.45H61.5902Z" fill="#242D3C"/>
</svg>
