<svg width="43" height="15" viewBox="0 0 43 15" fill="none" xmlns="http://www.w3.org/2000/svg">
<path d="M13.29 14.065V12.43H4.71V11.74H12.99V7.93H2.7V9.55H10.98V10.21H2.7V14.065H13.29ZM9.9 5.71C8.52 5.32 7.23 4.66 6.33 3.61C6.24 3.505 6.15 3.385 6.075 3.265C6.39 2.53 6.57 1.75 6.585 0.924999H4.545C4.41 3.49 2.745 5.35 0.15 6.19L1.38 7.66C2.595 7.225 3.9 6.37 4.875 5.215L5.19 4.825C5.19 4.84 5.19 4.84 5.205 4.855C6.225 6.025 7.53 6.88 8.805 7.27L9.9 5.71ZM8.22 4.255H11.01V7.48H13.02V0.714999H11.01V2.635H8.22V4.255ZM22.595 7.915C20.075 7.915 18.26 9.28 18.26 11.23C18.26 13.195 20.075 14.545 22.595 14.545C25.115 14.545 26.93 13.195 26.93 11.23C26.93 9.28 25.115 7.915 22.595 7.915ZM24.095 5.83C22.595 5.56 21.395 5.11 20.51 4.255C20.42 4.165 20.33 4.06 20.255 3.955C20.375 3.7 20.48 3.415 20.57 3.13C20.615 3.01 20.645 2.89 20.675 2.77H23.555V1.15H15.17V2.77H18.575C18.35 3.475 17.99 4.105 17.465 4.66C16.67 5.5 15.62 6.115 14.315 6.49L15.485 7.99C16.685 7.6 18.02 6.79 19.04 5.71L19.31 5.41C19.655 5.785 20.06 6.115 20.495 6.4C21.29 6.91 22.145 7.255 23.06 7.42L24.095 5.83ZM22.835 4.99H25.175V8.05H27.185V0.714999H25.175V3.37H22.835V4.99ZM22.595 12.895C21.095 12.895 20.27 12.235 20.27 11.23C20.27 10.225 21.095 9.565 22.595 9.565C24.095 9.565 24.92 10.225 24.92 11.23C24.92 12.235 24.095 12.895 22.595 12.895ZM42.0101 13.165V11.455H38.9651V9.37H40.7951V7.645H32.2451V6.115H40.5701V1.225H30.2351V2.935H38.5751V4.405H30.2351V9.37H32.1551V11.455H28.8101V13.165H42.0101ZM34.1651 9.37H36.9551V11.455H34.1651V9.37Z" fill="#242D3C"/>
</svg>
