<svg width="57" height="15" viewBox="0 0 57 15" fill="none" xmlns="http://www.w3.org/2000/svg">
<path d="M7.14 8.695C4.515 8.695 2.655 9.91 2.655 11.77C2.655 13.63 4.515 14.845 7.14 14.845C9.765 14.845 11.625 13.63 11.625 11.77C11.625 9.91 9.765 8.695 7.14 8.695ZM13.68 8.2V6.55H8.1V4.99H6.06V6.55H0.48V8.2H13.68ZM1.74 5.785C3.15 5.635 4.83 5.125 6.15 4.3C6.465 4.105 6.765 3.88 7.035 3.655C7.26 3.85 7.5 4.015 7.755 4.18C9.09 5.05 10.77 5.56 12.375 5.68L13.275 4.18C11.4 3.97 9.795 3.595 8.595 2.815C8.4 2.68 8.22 2.545 8.055 2.395C8.1 2.32 8.13 2.23 8.175 2.14C8.4 1.705 8.52 1.225 8.535 0.699999H6.465C6.345 2.8 3.825 3.91 0.87 4.27L1.74 5.785ZM7.14 13.225C5.52 13.225 4.665 12.655 4.665 11.77C4.665 10.885 5.52 10.315 7.14 10.315C8.76 10.315 9.615 10.885 9.615 11.77C9.615 12.655 8.76 13.225 7.14 13.225ZM26.465 14.065V8.785H15.995V14.065H26.465ZM27.845 7.555V5.875H26.03C26.15 5.32 26.27 4.675 26.375 3.94C26.51 3.04 26.585 2.035 26.615 0.924999H15.86V2.605H24.545C24.515 3.325 24.395 4.3 24.185 5.29L24.05 5.875H14.645V7.555H27.845ZM18.005 10.435H24.455V12.385H18.005V10.435ZM36.7601 7.915C34.2401 7.915 32.4251 9.28 32.4251 11.23C32.4251 13.195 34.2401 14.545 36.7601 14.545C39.2801 14.545 41.0951 13.195 41.0951 11.23C41.0951 9.28 39.2801 7.915 36.7601 7.915ZM38.2601 5.83C36.7601 5.56 35.5601 5.11 34.6751 4.255C34.5851 4.165 34.4951 4.06 34.4201 3.955C34.5401 3.7 34.6451 3.415 34.7351 3.13C34.7801 3.01 34.8101 2.89 34.8401 2.77H37.7201V1.15H29.3351V2.77H32.7401C32.5151 3.475 32.1551 4.105 31.6301 4.66C30.8351 5.5 29.7851 6.115 28.4801 6.49L29.6501 7.99C30.8501 7.6 32.1851 6.79 33.2051 5.71L33.4751 5.41C33.8201 5.785 34.2251 6.115 34.6601 6.4C35.4551 6.91 36.3101 7.255 37.2251 7.42L38.2601 5.83ZM37.0001 4.99H39.3401V8.05H41.3501V0.714999H39.3401V3.37H37.0001V4.99ZM36.7601 12.895C35.2601 12.895 34.4351 12.235 34.4351 11.23C34.4351 10.225 35.2601 9.565 36.7601 9.565C38.2601 9.565 39.0851 10.225 39.0851 11.23C39.0851 12.235 38.2601 12.895 36.7601 12.895ZM52.7251 1.105V3.46H46.4251V1.105H44.4151V9.175H48.5551V11.455H42.9751V13.165H56.1751V11.455H50.5951V9.175H54.7351V1.105H52.7251ZM46.4251 7.45V5.14H52.7251V7.45H46.4251Z" fill="#242D3C"/>
</svg>
