<svg width="57" height="15" viewBox="0 0 57 15" fill="none" xmlns="http://www.w3.org/2000/svg">
<path d="M8.16 7.915C5.64 7.915 3.825 9.28 3.825 11.23C3.825 13.195 5.64 14.545 8.16 14.545C10.68 14.545 12.495 13.195 12.495 11.23C12.495 9.28 10.68 7.915 8.16 7.915ZM9.75 5.86C8.34 5.47 7.08 4.84 6.18 3.79L5.91 3.43C5.925 3.415 5.925 3.385 5.94 3.355C6.255 2.605 6.42 1.795 6.435 0.924999H4.395C4.26 3.67 2.625 5.545 0 6.445L1.23 7.915C2.475 7.45 3.765 6.58 4.74 5.38C4.845 5.26 4.935 5.125 5.04 4.99L5.055 5.02C6.045 6.19 7.35 7.03 8.655 7.42L9.75 5.86ZM12.54 8.05V5.02H14.13V3.31H12.54V0.714999H10.53V8.05H12.54ZM8.16 12.895C6.66 12.895 5.835 12.235 5.835 11.23C5.835 10.225 6.66 9.565 8.16 9.565C9.66 9.565 10.485 10.225 10.485 11.23C10.485 12.235 9.66 12.895 8.16 12.895ZM26.465 14.065V9.535H22.265V8.665H27.845V7.015H14.645V8.665H20.225V9.535H15.995V14.065H26.465ZM15.92 2.575H17.345L17.435 4.6H15.47V6.265H27.005V4.6H25.025L25.115 2.575H26.555V0.924999H15.92V2.575ZM18.005 11.185H24.455V12.385H18.005V11.185ZM19.355 2.575H23.105L23.015 4.6H19.445L19.355 2.575ZM36.7601 7.915C34.2401 7.915 32.4251 9.28 32.4251 11.23C32.4251 13.195 34.2401 14.545 36.7601 14.545C39.2801 14.545 41.0951 13.195 41.0951 11.23C41.0951 9.28 39.2801 7.915 36.7601 7.915ZM38.2601 5.83C36.7601 5.56 35.5601 5.11 34.6751 4.255C34.5851 4.165 34.4951 4.06 34.4201 3.955C34.5401 3.7 34.6451 3.415 34.7351 3.13C34.7801 3.01 34.8101 2.89 34.8401 2.77H37.7201V1.15H29.3351V2.77H32.7401C32.5151 3.475 32.1551 4.105 31.6301 4.66C30.8351 5.5 29.7851 6.115 28.4801 6.49L29.6501 7.99C30.8501 7.6 32.1851 6.79 33.2051 5.71L33.4751 5.41C33.8201 5.785 34.2251 6.115 34.6601 6.4C35.4551 6.91 36.3101 7.255 37.2251 7.42L38.2601 5.83ZM37.0001 4.99H39.3401V8.05H41.3501V0.714999H39.3401V3.37H37.0001V4.99ZM36.7601 12.895C35.2601 12.895 34.4351 12.235 34.4351 11.23C34.4351 10.225 35.2601 9.565 36.7601 9.565C38.2601 9.565 39.0851 10.225 39.0851 11.23C39.0851 12.235 38.2601 12.895 36.7601 12.895ZM52.7251 1.105V3.46H46.4251V1.105H44.4151V9.175H48.5551V11.455H42.9751V13.165H56.1751V11.455H50.5951V9.175H54.7351V1.105H52.7251ZM46.4251 7.45V5.14H52.7251V7.45H46.4251Z" fill="#242D3C"/>
</svg>
