<svg width="92" height="28" viewBox="0 0 92 28" fill="none" xmlns="http://www.w3.org/2000/svg">
<g filter="url(#filter0_d_189_10)">
<path d="M36.592 18.864H38.672V11.792H39.92V19.216H42.032V4.896H39.92V9.936H38.672V5.056H36.592V18.864ZM29.376 5.568V16.704L35.952 16.32V14.528L31.488 14.72V7.392H35.36V5.568H29.376ZM57.7014 12.8V11.264H43.6214V12.8H49.5734V13.536H45.0614V15.072H54.0854V15.616H45.0614V19.136H56.5654V17.584H47.2054V17.024H56.2294V13.536H51.7494V12.8H57.7014ZM44.9654 10.912C46.5654 10.848 48.3414 10.576 49.7814 9.968C50.0694 9.84 50.3414 9.696 50.5974 9.552C50.8694 9.728 51.1574 9.888 51.4774 10.032C52.8534 10.624 54.6134 10.864 56.2774 10.8L57.2054 9.232C55.2854 9.2 53.6374 9.104 52.3894 8.592L51.8934 8.352C51.9094 8.304 51.9414 8.272 51.9734 8.224H56.2774V6.624H44.9814V8.224H49.3494C49.0614 8.432 48.7094 8.592 48.2934 8.72C47.2214 9.056 45.7654 9.216 44.1014 9.296L44.9654 10.912ZM53.7654 4.576H47.4934V6.176H53.7654V4.576ZM68.7788 11.536C67.7388 11.136 66.8268 10.592 66.0108 9.92C65.4508 9.456 65.0028 8.896 64.6348 8.24C64.6828 8.128 64.7148 8 64.7628 7.872C65.0668 6.992 65.2268 6.08 65.2428 5.12H63.0668C62.9388 8.144 61.4348 10.736 58.3788 12.048L59.7228 13.584C61.2428 12.864 62.6028 11.712 63.5788 10.256L63.7388 10.032C64.7628 11.44 66.1388 12.56 67.5788 13.168L68.7788 11.536ZM61.1148 14.176V19.072H72.5068V17.248H63.2588V14.176H61.1148ZM72.1068 15.408V4.896H69.9628V15.408H72.1068ZM74.8161 13.104C76.1601 12.768 77.5681 12.016 78.6401 10.992L78.9121 10.704L79.0401 10.816C80.1441 11.792 81.6641 12.4 82.9921 12.56L84.0481 10.848C82.5441 10.624 81.1681 10.224 80.1761 9.392L79.9521 9.168C80.0641 8.96 80.1441 8.736 80.2241 8.496H83.1201V10.16H85.0721V13.04H87.2161V4.896H85.0721V8.4H83.5041V6.8H74.5761V8.496H77.9201C77.6961 9.04 77.3601 9.504 76.9121 9.904C76.0961 10.608 75.0081 11.12 73.6161 11.456L74.8161 13.104ZM82.3201 12.896C79.6321 12.896 77.6961 14.272 77.6961 16.272C77.6961 18.272 79.6321 19.648 82.3201 19.648C85.0081 19.648 86.9441 18.272 86.9441 16.272C86.9441 14.272 85.0081 12.896 82.3201 12.896ZM82.3201 17.92C80.7201 17.92 79.8401 17.28 79.8401 16.272C79.8401 15.264 80.7201 14.624 82.3201 14.624C83.9201 14.624 84.8001 15.264 84.8001 16.272C84.8001 17.28 83.9201 17.92 82.3201 17.92ZM81.8081 6.256V4.56H76.4321V6.256H81.8081Z" fill="#242D3C"/>
</g>
<g filter="url(#filter1_d_189_10)">
<path d="M11 18L5 12L11 6" stroke="#242D3C" stroke-width="1.5" stroke-linecap="round" stroke-linejoin="round"/>
</g>
<defs>
<filter id="filter0_d_189_10" x="25.376" y="4.56006" width="65.8402" height="23.0879" filterUnits="userSpaceOnUse" color-interpolation-filters="sRGB">
<feFlood flood-opacity="0" result="BackgroundImageFix"/>
<feColorMatrix in="SourceAlpha" type="matrix" values="0 0 0 0 0 0 0 0 0 0 0 0 0 0 0 0 0 0 127 0" result="hardAlpha"/>
<feOffset dy="4"/>
<feGaussianBlur stdDeviation="2"/>
<feComposite in2="hardAlpha" operator="out"/>
<feColorMatrix type="matrix" values="0 0 0 0 0 0 0 0 0 0 0 0 0 0 0 0 0 0 0.25 0"/>
<feBlend mode="normal" in2="BackgroundImageFix" result="effect1_dropShadow_189_10"/>
<feBlend mode="normal" in="SourceGraphic" in2="effect1_dropShadow_189_10" result="shape"/>
</filter>
<filter id="filter1_d_189_10" x="0.25" y="5.25" width="15.5" height="21.5" filterUnits="userSpaceOnUse" color-interpolation-filters="sRGB">
<feFlood flood-opacity="0" result="BackgroundImageFix"/>
<feColorMatrix in="SourceAlpha" type="matrix" values="0 0 0 0 0 0 0 0 0 0 0 0 0 0 0 0 0 0 127 0" result="hardAlpha"/>
<feOffset dy="4"/>
<feGaussianBlur stdDeviation="2"/>
<feComposite in2="hardAlpha" operator="out"/>
<feColorMatrix type="matrix" values="0 0 0 0 0 0 0 0 0 0 0 0 0 0 0 0 0 0 0.25 0"/>
<feBlend mode="normal" in2="BackgroundImageFix" result="effect1_dropShadow_189_10"/>
<feBlend mode="normal" in="SourceGraphic" in2="effect1_dropShadow_189_10" result="shape"/>
</filter>
</defs>
</svg>
