<svg width="77" height="24" viewBox="0 0 77 24" fill="none" xmlns="http://www.w3.org/2000/svg">
<g clip-path="url(#clip0_189_27)">
<path d="M62 19V16C62 15.7348 62.1054 15.4804 62.2929 15.2929C62.4804 15.1054 62.7348 15 63 15H67C67.2652 15 67.5196 15.1054 67.7071 15.2929C67.8946 15.4804 68 15.7348 68 16V19M71 19H59C58.7348 19 58.4804 18.8946 58.2929 18.7071C58.1054 18.5196 58 18.2652 58 18V6C58 5.73478 58.1054 5.48043 58.2929 5.29289C58.4804 5.10536 58.7348 5 59 5H67.586C67.8512 5.00006 68.1055 5.10545 68.293 5.293L71.707 8.707C71.8945 8.89449 71.9999 9.14881 72 9.414V18C72 18.2652 71.8946 18.5196 71.7071 18.7071C71.5196 18.8946 71.2652 19 71 19Z" stroke="black" stroke-width="1.5"/>
</g>
<path d="M1.404 8.98L1.872 9.592L3.708 8.068V15.94H4.572V6.94H3.84L1.404 8.98ZM8.23181 7.36H12.7438C12.4918 9.424 10.5598 11.344 7.66781 11.956L8.12381 12.676C11.0518 12.004 13.7878 9.808 13.7518 6.568H8.23181V7.36ZM13.7038 10.24H16.1518V14.092H17.0638V6.196H16.1518V9.448H13.7038V10.24ZM17.3638 16.78V15.988H10.0438V13.252H9.13181V16.78H17.3638ZM22.6853 11.068V11.836H33.1973V11.068H22.6853ZM32.1173 9.28H24.7853V7.132H31.9733V6.388H23.8733V10.036H32.1173V9.28ZM27.9893 12.556C25.9973 12.556 24.4613 13.48 24.4613 14.956C24.4613 16.432 25.9973 17.356 27.9893 17.356C29.9813 17.356 31.5173 16.432 31.5173 14.956C31.5173 13.48 29.9813 12.556 27.9893 12.556ZM27.9893 16.588C26.5253 16.588 25.3733 15.964 25.3733 14.956C25.3733 13.948 26.5253 13.324 27.9893 13.324C29.4533 13.324 30.6053 13.948 30.6053 14.956C30.6053 15.964 29.4533 16.588 27.9893 16.588ZM43.5094 10.996V10.216H36.1174V8.992H43.3294V6.316H35.2054V7.084H42.4174V8.248H35.2054V10.996H38.8654V12.088H34.0174V12.856H44.5294V12.088H39.8014V10.996H43.5094ZM43.3774 16.948V13.78H34.9054V14.572H42.4654V16.948H43.3774Z" fill="#999999"/>
<defs>
<clipPath id="clip0_189_27">
<rect width="16" height="16" fill="white" transform="translate(57 4)"/>
</clipPath>
</defs>
</svg>
