<svg width="161" height="7" viewBox="0 0 161 7" fill="none" xmlns="http://www.w3.org/2000/svg">
<path d="M4.368 3.424C5.016 3.152 5.264 2.64 5.264 2.088C5.264 1.008 4.52 0.32 3.08 0.32H0.624V6.8H3.392C4.84 6.8 5.576 6.096 5.576 4.984C5.576 4.288 5.232 3.696 4.368 3.424ZM3.08 1.032C4.024 1.032 4.464 1.44 4.464 2.104C4.464 2.752 4.024 3.176 3.08 3.176H1.424V1.032H3.08ZM1.424 6.088V3.856H3.392C4.336 3.856 4.776 4.304 4.776 4.976C4.776 5.648 4.336 6.088 3.392 6.088H1.424ZM7.28913 6.8V1.712L10.7771 6.8H11.5451V0.32H10.7451V5.4L7.26513 0.32H6.49713V6.8H7.28913ZM17.5151 6.8L14.6591 3.208L17.2751 0.32H16.2111L13.4671 3.36V0.32H12.6671V6.8H13.4671V4.528L14.1231 3.8L16.4911 6.8H17.5151ZM22.5664 6.92C23.8864 6.92 24.8144 6.152 25.1264 4.88L24.3664 4.664C24.1104 5.648 23.5264 6.176 22.5664 6.176C21.5024 6.176 20.6384 5.472 20.6384 4.088V3.032C20.6384 1.656 21.5024 0.944 22.5664 0.944C23.5264 0.944 24.1104 1.472 24.3664 2.456L25.1264 2.24C24.8144 0.976 23.8864 0.2 22.5664 0.2C21.0704 0.2 19.8384 1.216 19.8384 2.976V4.144C19.8384 5.904 21.0784 6.92 22.5664 6.92ZM31.1779 6.8L28.7699 0.32H27.7779L25.3699 6.8H26.1939L26.9459 4.768H29.6019L30.3459 6.8H31.1779ZM28.2739 1.168L29.3299 4.04H27.2099L28.2739 1.168ZM34.3738 0.32H31.9018V6.8H32.7018V4.248H34.3738C35.8218 4.248 36.6538 3.552 36.6538 2.28C36.6538 1.024 35.8218 0.32 34.3738 0.32ZM32.7018 3.536V1.032H34.3178C35.3338 1.032 35.8458 1.448 35.8458 2.28C35.8458 3.112 35.3338 3.536 34.3178 3.536H32.7018ZM38.2546 6.8V0.32H37.4546V6.8H38.2546ZM39.0215 0.32V1.056H41.1895V6.8H41.9975V1.056H44.1655V0.32H39.0215ZM49.4986 6.8L47.0906 0.32H46.0986L43.6906 6.8H44.5146L45.2666 4.768H47.9226L48.6666 6.8H49.4986ZM46.5946 1.168L47.6506 4.04H45.5306L46.5946 1.168ZM51.0224 0.32H50.2224V6.8H54.1104V6.088H51.0224V0.32ZM59.2539 6.92C60.6699 6.92 61.7979 6.032 61.7979 4.264V0.32H60.9899V4.208C60.9899 5.592 60.2779 6.176 59.2539 6.176C58.2299 6.176 57.5099 5.592 57.5099 4.208V0.32H56.7099V4.264C56.7099 6.032 57.8219 6.92 59.2539 6.92ZM63.7199 6.8V0.32H62.9199V6.8H63.7199ZM67.3908 6.92C68.8068 6.92 69.9348 6.032 69.9348 4.264V0.32H69.1268V4.208C69.1268 5.592 68.4148 6.176 67.3908 6.176C66.3668 6.176 65.6468 5.592 65.6468 4.208V0.32H64.8468V4.264C64.8468 6.032 65.9588 6.92 67.3908 6.92ZM71.4347 6.8L73.2427 4.128L75.0507 6.8H75.9867L73.7067 3.44L75.8267 0.32H74.8907L73.2427 2.768L71.5947 0.32H70.6507L72.7787 3.44L70.4987 6.8H71.4347ZM81.0172 0.32H78.5452V6.8H79.3452V4.248H81.0172C82.4652 4.248 83.2972 3.552 83.2972 2.28C83.2972 1.024 82.4652 0.32 81.0172 0.32ZM79.3452 3.536V1.032H80.9612C81.9772 1.032 82.4892 1.448 82.4892 2.28C82.4892 3.112 81.9772 3.536 80.9612 3.536H79.3452ZM87.4821 3.992C88.3621 3.76 88.8501 3.152 88.8501 2.208C88.8501 0.992 88.0181 0.32 86.5781 0.32H84.0981V6.8H84.8981V4.096H86.5781H86.7061L88.1061 6.8H89.0101L87.4821 3.992ZM86.5141 1.032C87.5221 1.032 88.0501 1.424 88.0501 2.208C88.0501 2.992 87.5221 3.384 86.5141 3.384H84.8981V1.032H86.5141ZM92.3041 6.92C93.7921 6.92 95.0401 5.912 95.0401 4.144V2.968C95.0401 1.216 93.7921 0.2 92.3041 0.2C90.8081 0.2 89.5681 1.216 89.5681 2.968V4.144C89.5681 5.912 90.8081 6.92 92.3041 6.92ZM92.3041 6.176C91.2401 6.176 90.3681 5.472 90.3681 4.088V3.032C90.3681 1.648 91.2401 0.944 92.3041 0.944C93.3601 0.944 94.2321 1.656 94.2321 3.032V4.088C94.2321 5.472 93.3601 6.176 92.3041 6.176ZM98.4726 0.32H96.0006V6.8H96.8006V4.248H98.4726C99.9206 4.248 100.753 3.552 100.753 2.28C100.753 1.024 99.9206 0.32 98.4726 0.32ZM96.8006 3.536V1.032H98.4166C99.4326 1.032 99.9446 1.448 99.9446 2.28C99.9446 3.112 99.4326 3.536 98.4166 3.536H96.8006ZM104.089 6.92C105.577 6.92 106.825 5.912 106.825 4.144V2.968C106.825 1.216 105.577 0.2 104.089 0.2C102.593 0.2 101.353 1.216 101.353 2.968V4.144C101.353 5.912 102.593 6.92 104.089 6.92ZM104.089 6.176C103.025 6.176 102.153 5.472 102.153 4.088V3.032C102.153 1.648 103.025 0.944 104.089 0.944C105.145 0.944 106.017 1.656 106.017 3.032V4.088C106.017 5.472 105.145 6.176 104.089 6.176ZM107.27 5.24C107.662 6.304 108.622 6.92 109.91 6.92C111.214 6.92 112.23 6.256 112.23 5.152C112.23 4.048 111.35 3.56 110.486 3.32L109.534 3.048C108.926 2.872 108.422 2.608 108.422 1.96C108.422 1.32 108.966 0.928 109.798 0.928C110.63 0.928 111.206 1.392 111.502 2.088L112.19 1.76C111.846 0.88 111.006 0.2 109.798 0.2C108.574 0.2 107.622 0.872 107.622 1.96C107.622 3.04 108.502 3.52 109.358 3.768L110.326 4.04C110.982 4.224 111.438 4.504 111.438 5.152C111.438 5.816 110.822 6.192 109.91 6.192C108.99 6.192 108.286 5.736 107.958 4.92L107.27 5.24ZM118.332 6.8L115.924 0.32H114.932L112.524 6.8H113.348L114.1 4.768H116.756L117.5 6.8H118.332ZM115.428 1.168L116.484 4.04H114.364L115.428 1.168ZM119.856 0.32H119.056V6.8H122.944V6.088H119.856V0.32ZM129.871 6.8V6.064H126.639L128.471 4.248C129.247 3.48 129.719 2.84 129.719 1.96C129.719 0.872 128.887 0.2 127.639 0.2C126.423 0.2 125.719 1.08 125.455 2.032L126.215 2.216C126.431 1.504 126.839 0.92 127.639 0.92C128.463 0.92 128.927 1.344 128.927 1.992C128.927 2.592 128.591 3.096 127.863 3.816L125.487 6.176V6.8H129.871ZM133.228 6.92C134.524 6.92 135.588 5.992 135.588 4.184V2.928C135.588 1.136 134.524 0.2 133.228 0.2C131.932 0.2 130.876 1.136 130.876 2.928V4.184C130.876 5.992 131.932 6.92 133.228 6.92ZM133.228 6.2C132.356 6.2 131.676 5.544 131.676 4.144V2.976C131.676 1.576 132.356 0.92 133.228 0.92C134.1 0.92 134.78 1.576 134.78 2.976V4.144C134.78 5.544 134.1 6.2 133.228 6.2ZM140.953 6.8V6.064H137.721L139.553 4.248C140.329 3.48 140.801 2.84 140.801 1.96C140.801 0.872 139.969 0.2 138.721 0.2C137.505 0.2 136.801 1.08 136.537 2.032L137.297 2.216C137.513 1.504 137.921 0.92 138.721 0.92C139.545 0.92 140.009 1.344 140.009 1.992C140.009 2.592 139.673 3.096 138.945 3.816L136.569 6.176V6.8H140.953ZM141.838 5.304C142.134 6.184 142.878 6.92 144.19 6.92C145.542 6.92 146.478 6.176 146.478 5.064C146.478 4.248 145.958 3.672 145.262 3.456C145.854 3.232 146.318 2.736 146.318 1.944C146.318 0.856 145.414 0.2 144.174 0.2C142.99 0.2 142.318 0.912 142.022 1.696L142.742 1.968C142.958 1.432 143.358 0.92 144.174 0.92C144.998 0.92 145.534 1.32 145.534 1.984C145.534 2.64 145.03 3.112 144.07 3.112H143.254V3.808H144.07C145.15 3.808 145.686 4.352 145.686 5.032C145.686 5.712 145.126 6.2 144.19 6.2C143.246 6.2 142.782 5.656 142.55 5.048L141.838 5.304ZM147.968 6.92C148.272 6.92 148.512 6.68 148.512 6.376C148.512 6.072 148.272 5.824 147.968 5.824C147.664 5.824 147.416 6.072 147.416 6.376C147.416 6.68 147.664 6.92 147.968 6.92ZM151.807 6.92C153.103 6.92 154.167 5.992 154.167 4.184V2.928C154.167 1.136 153.103 0.2 151.807 0.2C150.511 0.2 149.455 1.136 149.455 2.928V4.184C149.455 5.992 150.511 6.92 151.807 6.92ZM151.807 6.2C150.935 6.2 150.255 5.544 150.255 4.144V2.976C150.255 1.576 150.935 0.92 151.807 0.92C152.679 0.92 153.359 1.576 153.359 2.976V4.144C153.359 5.544 152.679 6.2 151.807 6.2ZM159.052 4.784V0.32H157.98L155.004 4.864V5.52H158.26V6.92H159.052V5.52H160.052V4.784H159.052ZM158.26 1.232V4.784H155.964L158.26 1.232Z" fill="black"/>
</svg>
