<svg width="206" height="133" viewBox="0 0 206 133" fill="none" xmlns="http://www.w3.org/2000/svg">
<path d="M19.107 21.308C21.549 20.252 22.506 18.371 22.506 16.193C22.506 10.781 18.645 8.372 13.134 8.372H2.31V35.498H14.421C19.965 35.498 23.793 33.089 23.793 27.578C23.793 24.641 22.341 22.43 19.107 21.308ZM13.101 12.926C15.741 12.926 17.391 13.916 17.391 16.292C17.391 18.569 15.741 19.724 13.101 19.724H7.491V12.926H13.101ZM7.491 30.944V23.948H14.388C17.028 23.948 18.678 25.103 18.678 27.479C18.678 29.855 17.028 30.944 14.388 30.944H7.491ZM32.5295 35.498V17.282L44.7725 35.498H49.7885V8.372H44.6735V26.588L32.4305 8.372H27.4145V35.498H32.5295ZM76.1099 35.498L64.5599 20.417L75.1199 8.372H68.3549L59.2469 18.899V8.372H54.0659V35.498H59.2469V26.456L61.0619 24.377L69.5759 35.498H76.1099Z" fill="#D7191F"/>
<path d="M99.4163 17.568H97.2403V7.584H92.5683V36.416H97.2403V22.08H99.4163V37.184H104.248V7.136H99.4163V17.568ZM85.6883 13.728C85.6563 15.072 85.5283 16.512 85.2083 18.016C82.9363 18.208 80.0563 18.336 78.0403 18.336H77.5923L77.8483 22.816H78.3283C79.8963 22.816 81.8163 22.72 83.6083 22.56C82.2963 25.28 80.2483 28.032 77.1763 30.624L80.7923 34.304C87.6083 28.128 90.5523 21.184 90.5523 12.448V9.184H78.2323V13.728H85.6883ZM128.992 37.184H133.984V7.136H128.992V37.184ZM124.096 13.568H126.528V9.024H108.416V13.568H110.88V27.968H107.936L108.192 32.512H112.672C117.152 32.512 122.72 32.16 127.584 31.424L127.008 26.944C126.048 27.072 125.088 27.2 124.096 27.296V13.568ZM119.232 27.744C118.016 27.84 116.832 27.872 115.712 27.936V13.568H119.232V27.744ZM162.632 7.136H157.64V22.368H162.632V16.768H166.664V12.256H162.632V7.136ZM155.336 17.984C151.944 18.496 148.712 18.784 145.704 18.784H143.144V17.056H153.128V13.408H143.144V11.808H153.416V8.096H138.152V22.528H144.84C148.904 22.528 152.52 22.176 155.784 21.6L155.336 17.984ZM162.632 32.192V23.776H142.152V27.392H157.64V28.64H142.312V37.344H163.4V33.6H147.304V32.192H162.632ZM15.872 68.352H25.184V53.632H5.184V68.352H14.496V76.832H1.472V78.144H28.864V76.832H15.872V68.352ZM23.776 54.944V67.072H6.56V54.944H23.776ZM54.6638 63.232V51.328H53.2558V80.672H54.6638V64.544H59.8478V63.232H54.6638ZM34.0558 62.688V53.536H32.6798V75.744H45.8958V53.536H44.5198V62.688H34.0558ZM34.0558 64H44.5198V74.432H34.0558V64ZM86.6395 65.728V51.328H85.2635V65.728H86.6395ZM71.0235 64.672C75.0555 64.672 78.3835 62.656 78.3835 58.688V58.112C78.3835 54.144 75.0555 52.128 71.0235 52.128C66.9275 52.128 63.5995 54.144 63.5995 58.112V58.688C63.5995 62.656 66.9275 64.672 71.0235 64.672ZM71.0235 63.36C67.4715 63.36 65.0075 61.664 65.0075 58.624V58.176C65.0075 55.168 67.4715 53.44 71.0235 53.44C74.5115 53.44 77.0075 55.168 77.0075 58.176V58.624C77.0075 61.664 74.5115 63.36 71.0235 63.36ZM88.0475 80.832V79.52H69.7115V75.04H86.6395V68.064H68.1755V69.344H85.2635V73.728H68.3035V80.832H88.0475ZM123.583 58.016H118.335V51.648H116.959V66.656H118.335V59.296H123.583V66.656H124.959V51.328H123.583V58.016ZM112.831 58.624C112.831 54.4 110.239 52.288 106.879 52.288C103.423 52.288 100.831 54.4 100.831 58.624V59.232C100.831 63.456 103.423 65.6 106.879 65.6C110.239 65.6 112.831 63.456 112.831 59.232V58.624ZM102.207 58.688C102.207 55.392 104.127 53.6 106.879 53.6C109.535 53.6 111.455 55.392 111.455 58.688V59.2C111.455 62.432 109.535 64.288 106.879 64.288C104.127 64.288 102.207 62.432 102.207 59.2V58.688ZM107.999 73.088V68.672H106.623V80.672H124.959V68.672H123.583V73.088H107.999ZM107.999 74.4H123.583V79.36H107.999V74.4ZM12.064 123.488C17.472 123.488 21.568 120.192 21.568 113.344V97.472H20.16V113.056C20.16 119.52 16.832 122.176 12.064 122.176C7.328 122.176 3.968 119.52 3.968 113.056V97.472H2.56V113.344C2.56 120.192 6.624 123.488 12.064 123.488ZM28.253 123.008V97.472H26.845V123.008H28.253ZM43.0328 123.488C48.4408 123.488 52.5368 120.192 52.5368 113.344V97.472H51.1288V113.056C51.1288 119.52 47.8008 122.176 43.0328 122.176C38.2968 122.176 34.9368 119.52 34.9368 113.056V97.472H33.5288V113.344C33.5288 120.192 37.5928 123.488 43.0328 123.488ZM57.2773 123.008L65.7253 110.976L74.1733 123.008H75.8693L66.5573 109.792L75.2293 97.472H73.5333L65.7253 108.64L57.8853 97.472H56.1893L64.8933 109.792L55.5813 123.008H57.2773ZM101.52 107.232H96.1443V95.808H94.7362V124.192H96.1443V108.544H101.52V124.672H102.896V95.328H101.52V107.232ZM88.7843 99.264V100.224C88.7843 107.744 84.5603 114.944 79.0243 119.744L79.9523 120.736C85.9043 115.424 90.1603 108.192 90.1603 99.936V97.984H79.3763V99.264H88.7843ZM132.952 117.888V95.328H131.576V103.232H124.024V104.544H131.576V117.888H132.952ZM126.68 111.264L117.56 103.936C118.168 102.368 118.456 100.64 118.456 98.816V96.608H117.08V98.816C117.08 104.384 113.976 108.256 108.856 111.712L109.56 112.8C113.112 110.496 115.576 108 116.984 105.184L125.88 112.352L126.68 111.264ZM115.992 116.032H114.616V124.672H134.488V123.36H115.992V116.032ZM169.863 124.672H171.239V95.328H169.863V124.672ZM157.863 106.944V108.224H163.559V124.192H164.935V95.808H163.559V106.944H157.863ZM154.215 99.264H159.815V97.984H147.207V99.264H152.807V101.568C152.807 109.152 150.343 114.272 146.215 119.584L147.335 120.512C149.895 117.12 151.783 113.856 152.935 110.272L159.719 120.16L160.871 119.264L153.415 108.544C153.959 106.368 154.215 104.096 154.215 101.568V99.264ZM199.663 95.328H198.287V117.888H199.663V104.832H204.879V103.552H199.663V95.328ZM191.855 103.936C191.855 98.912 188.623 96.448 184.655 96.448C180.623 96.448 177.391 98.912 177.391 103.936V104.736C177.391 109.728 180.623 112.192 184.655 112.192C188.623 112.192 191.855 109.728 191.855 104.736V103.936ZM178.767 103.968C178.767 99.904 181.199 97.728 184.655 97.728C188.047 97.728 190.479 99.904 190.479 103.968V104.704C190.479 108.736 188.047 110.912 184.655 110.912C181.199 110.912 178.767 108.736 178.767 104.704V103.968ZM181.935 116.032V124.672H201.519V123.36H183.343V116.032H181.935Z" fill="black"/>
</svg>
