<svg width="152" height="100" viewBox="0 0 152 100" fill="none" xmlns="http://www.w3.org/2000/svg">
<mask id="mask0_399_203" style="mask-type:alpha" maskUnits="userSpaceOnUse" x="51" y="9" width="48" height="42">
<rect x="51" y="9.1416" width="47.9967" height="40.8586" fill="#D9D9D9"/>
</mask>
<g mask="url(#mask0_399_203)">
<path d="M54.0391 23.6354C54.7008 22.9449 56.5204 21.7711 58.5055 22.5997" stroke="black" stroke-width="0.5" stroke-linecap="round"/>
<path d="M53.5938 22.3148C54.2554 21.6243 56.0751 20.4504 58.0602 21.279" stroke="black" stroke-width="0.5" stroke-linecap="round"/>
<path d="M91.1514 25.0403C96.0733 17.4724 90.9236 19.251 87.7345 21.0868L87.3906 23.7239C88.208 24.1686 89.8472 25.0491 89.8472 25.0447C89.8472 25.0403 90.7181 25.0359 91.1558 25.0359L91.1514 25.0403Z" fill="#D7191F" stroke="#242D3C" stroke-width="0.5" stroke-linecap="round" stroke-linejoin="round"/>
<path d="M71.5406 18.472C65.0107 12.3349 65.9621 17.8556 67.2529 21.382L69.303 21.7431L71.7595 19.1015L71.5406 18.472Z" fill="#D7191F" stroke="#242D3C" stroke-width="0.5" stroke-linecap="round" stroke-linejoin="round"/>
<path d="M94.7584 38.0838C94.7584 43.8599 92.8468 48.2668 89.7784 51.2297C86.71 54.197 82.4579 55.7335 77.7503 55.7335C73.0427 55.7335 68.7951 54.197 65.7222 51.2297C62.6538 48.2668 60.7422 43.8599 60.7422 38.0838C60.7467 26.5096 68.4021 17.2115 77.7548 17.2115C87.1075 17.2115 94.7629 26.5096 94.7629 38.0838H94.7584Z" fill="white"/>
<path d="M94.7631 38.0838C94.7631 43.8599 92.9631 48.2668 90.0689 51.2297C87.1746 54.197 83.1683 55.7335 78.7331 55.7335C74.298 55.7335 70.2916 54.197 67.3973 51.2297C64.5031 48.2668 62.7031 43.8599 62.7031 38.0838C62.7031 26.5096 69.9209 17.2115 78.7331 17.2115C87.5454 17.2115 94.7631 26.5096 94.7631 38.0838Z" fill="#D7191F"/>
<path d="M89.5458 28.5848C89.5458 23.0641 75.2398 22.4918 69.0672 22.6238L66.1641 41.9949C72.6582 43.32 87.0937 46.1024 88.2282 40.7446C89.3627 35.3911 86.6113 34.11 84.4273 33.3483C86.5756 33.5729 89.5458 33.3483 89.5458 28.5804V28.5848Z" fill="white" stroke="#242D3C" stroke-width="0.5" stroke-linecap="round" stroke-linejoin="round"/>
<path d="M73.9838 30.1062C74.6005 30.1062 75.1004 29.6134 75.1004 29.0055C75.1004 28.3977 74.6005 27.9049 73.9838 27.9049C73.3671 27.9049 72.8672 28.3977 72.8672 29.0055C72.8672 29.6134 73.3671 30.1062 73.9838 30.1062Z" fill="#242D3C"/>
<path d="M81.5932 30.9869C82.2099 30.9869 82.7098 30.4941 82.7098 29.8863C82.7098 29.2784 82.2099 28.7856 81.5932 28.7856C80.9765 28.7856 80.4766 29.2784 80.4766 29.8863C80.4766 30.4941 80.9765 30.9869 81.5932 30.9869Z" fill="#242D3C"/>
<path d="M77.338 32.9684C78.448 32.9684 79.3479 32.0814 79.3479 30.9872C79.3479 29.8931 78.448 29.0061 77.338 29.0061C76.228 29.0061 75.3281 29.8931 75.3281 30.9872C75.3281 32.0814 76.228 32.9684 77.338 32.9684Z" fill="#D7191F" stroke="#242D3C" stroke-width="0.5"/>
<path d="M73.0156 34.4246C75.9501 34.2661 81.9264 34.594 82.248 35.4393C82.6499 36.4959 76.3654 42.6552 73.0156 35.7454" stroke="#242D3C" stroke-width="0.5" stroke-linecap="round" stroke-linejoin="round"/>
<path d="M94.7584 38.0838C94.7584 43.8599 92.8468 48.2668 89.7784 51.2297C86.71 54.197 82.4579 55.7335 77.7503 55.7335C73.0427 55.7335 68.7951 54.197 65.7222 51.2297C62.6538 48.2668 60.7422 43.8599 60.7422 38.0838C60.7467 26.5096 68.4021 17.2115 77.7548 17.2115C87.1075 17.2115 94.7629 26.5096 94.7629 38.0838H94.7584Z" stroke="#242D3C" stroke-width="0.5" stroke-miterlimit="10"/>
<path d="M59.9854 30.064C60.7805 33.608 63.9337 34.9728 64.6484 35.7124C65.1843 36.408 64.7288 38.5168 62.8127 38.0281C57.8907 36.7646 52.1692 26.1766 56.4123 25.1508C59.0296 24.5212 59.4584 27.7086 59.9854 30.0596V30.064Z" fill="#F6B637" stroke="#242D3C" stroke-width="0.5" stroke-linecap="round" stroke-linejoin="round"/>
<path d="M86.7906 47.8717C88.9255 45.983 88.863 43.117 89.1399 42.3113C89.4392 41.6553 91.0024 41.2283 91.2659 42.8484C91.9493 47.0044 85.7187 55.378 83.7132 52.5604C81.7033 49.7472 85.3747 49.122 86.7906 47.8717Z" fill="#F6B637" stroke="#242D3C" stroke-width="0.5" stroke-linecap="round" stroke-linejoin="round"/>
<path d="M66.3906 18.2206C66.873 17.4457 67.9539 16.3671 69.2938 16.464" stroke="#242D3C" stroke-width="0.5" stroke-linecap="round" stroke-linejoin="round"/>
<path d="M90.2969 19.8953C91.1187 20.2563 92.3514 20.8814 92.5301 22.3166" stroke="#242D3C" stroke-width="0.5" stroke-linecap="round" stroke-linejoin="round"/>
<path d="M88.9609 20.4218C89.9257 20.7916 91.9043 22.1872 92.0874 23.7236" stroke="#242D3C" stroke-width="0.5" stroke-linecap="round" stroke-linejoin="round"/>
<path d="M66.8047 20.1055C67.3987 19.2118 68.9932 17.4508 70.6324 17.5653" stroke="#242D3C" stroke-width="0.5" stroke-linecap="round" stroke-linejoin="round"/>
<path d="M66.8373 20.2015L66.3906 18.0003L66.8373 17.56L67.7306 16.8996L68.8472 16.2393L69.7404 16.8996L70.4104 17.56L69.0705 18.0003L67.9539 18.6606L67.0606 19.7613L66.8373 20.2015Z" fill="#242D3C"/>
<path d="M91.1941 20.2027L90.3009 19.7625L88.9609 20.643L89.4076 20.8631L90.0775 21.3033L90.9708 21.9637L91.6408 22.8442L91.8641 23.7247L92.7574 22.1838L92.3108 21.5235L92.0874 21.0832L91.1941 20.2027Z" fill="#242D3C"/>
</g>
<path d="M40.3766 61.6802V64.5402H45.3966V78.1202H48.5366V64.5402H53.5366V61.6802H40.3766ZM57.8708 77.5602L57.7708 77.9602C57.5708 78.7802 57.1108 79.0402 56.5508 79.0402C55.9108 79.0402 55.3308 78.9202 54.7708 78.7402L54.0708 81.3402C54.8908 81.6402 55.8908 81.8202 57.1708 81.8202C58.7908 81.8202 59.9908 80.8002 60.8508 78.4602L65.4708 65.9802H62.1908L59.5108 74.0002L56.8308 65.9802H53.5508L57.8708 77.5602ZM73.575 65.6802C72.215 65.6802 70.895 66.3002 69.955 67.4602L69.835 65.9802H66.875V81.5202H70.015V76.7802C70.955 77.8802 72.235 78.4802 73.575 78.4802C75.935 78.4802 78.435 76.2802 78.435 72.6002V71.6002C78.435 67.8802 75.935 65.6802 73.575 65.6802ZM75.295 72.5202C75.295 74.6602 74.095 75.6202 72.635 75.6202C71.215 75.6202 70.015 74.6602 70.015 72.5202V71.6402C70.015 69.5202 71.215 68.5402 72.635 68.5402C74.095 68.5402 75.295 69.5202 75.295 71.6402V72.5202ZM91.3022 71.5202C91.3022 67.6402 88.7622 65.6802 85.6622 65.6802C82.5822 65.6802 80.0422 67.6402 80.0422 71.5002V72.5802C80.0422 76.4602 82.5822 78.4202 85.6622 78.4202C88.3022 78.4202 90.4222 77.2202 91.1022 74.9802L88.2422 74.1402C87.8222 75.1602 86.8622 75.6602 85.6622 75.6602C84.4222 75.6602 83.3422 74.8802 83.1222 73.2002H91.3022V71.5202ZM83.1622 70.6402C83.4622 69.1402 84.4822 68.4402 85.6622 68.4402C87.0622 68.4402 88.2222 69.4602 88.2222 70.6402H83.1622ZM108.389 69.5202C109.869 68.8802 110.449 67.7402 110.449 66.4202C110.449 63.1402 108.109 61.6802 104.769 61.6802H98.2086V78.1202H105.549C108.909 78.1202 111.229 76.6602 111.229 73.3202C111.229 71.5402 110.349 70.2002 108.389 69.5202ZM104.749 64.4402C106.349 64.4402 107.349 65.0402 107.349 66.4802C107.349 67.8602 106.349 68.5602 104.749 68.5602H101.349V64.4402H104.749ZM101.349 75.3602V71.1202H105.529C107.129 71.1202 108.129 71.8202 108.129 73.2602C108.129 74.7002 107.129 75.3602 105.529 75.3602H101.349Z" fill="black"/>
<path d="M8.62856 93.8802V90.2702H7.90856V99.5002H8.62856V94.5402H10.1586V93.8802H8.62856ZM2.31856 97.5102V94.8602H5.75856V91.0102H1.60856V91.6602H5.04856V94.2102H1.60856V98.1602H3.11856C4.45856 98.1602 5.87856 98.0302 6.93856 97.8402L6.84856 97.2102C5.72856 97.3902 4.35856 97.5102 3.23856 97.5102H2.31856ZM18.531 97.2802V90.2702H17.811V97.2802H18.531ZM13.531 95.6202C14.841 95.6202 15.921 94.8402 15.921 93.2102V93.0002C15.921 91.3602 14.841 90.5702 13.531 90.5702C12.201 90.5702 11.121 91.3602 11.121 93.0002V93.2102C11.121 94.8402 12.201 95.6202 13.531 95.6202ZM13.531 94.9802C12.561 94.9802 11.841 94.3802 11.841 93.2002V93.0002C11.841 91.8202 12.561 91.2102 13.531 91.2102C14.491 91.2102 15.211 91.8202 15.211 93.0002V93.2002C15.211 94.3802 14.491 94.9802 13.531 94.9802ZM18.961 99.5002V98.8402H13.311V96.5502H12.591V99.5002H18.961ZM30.235 94.7902V90.2702H29.525V94.7902H30.235ZM25.245 94.5202C26.565 94.5202 27.635 93.8702 27.635 92.5802V92.4202C27.635 91.1202 26.565 90.4802 25.245 90.4802C23.905 90.4802 22.835 91.1202 22.835 92.4202V92.5802C22.835 93.8702 23.905 94.5202 25.245 94.5202ZM25.245 93.8702C24.255 93.8702 23.555 93.4202 23.555 92.5602V92.4302C23.555 91.5902 24.255 91.1202 25.245 91.1202C26.215 91.1202 26.925 91.5902 26.925 92.4302V92.5602C26.925 93.4202 26.215 93.8702 25.245 93.8702ZM30.625 99.5502V98.9202H25.025V97.7802H30.235V95.4502H24.265V96.0602H29.525V97.1602H24.305V99.5502H30.625ZM38.9075 93.9802H37.2075V94.6302H38.9075V99.5002H39.6175V90.2702H38.9075V93.9802ZM33.0775 97.5102V94.8602H36.5375V91.0102H32.3675V91.6602H35.8275V94.2102H32.3675V98.1602H33.9175C35.2575 98.1602 36.7675 98.0302 37.8375 97.8302L37.7475 97.2002C36.6075 97.3802 35.1475 97.5102 34.0375 97.5102H33.0775ZM48.9199 95.9902L49.3199 95.4102L45.6499 92.8702C45.8299 92.4402 45.9199 92.0002 45.9199 91.5402V90.8002H45.2099V91.5402C45.2099 93.0002 44.0899 94.2302 41.7199 95.3802L42.0499 95.9902C43.6699 95.2202 44.7299 94.3802 45.3299 93.4802L48.9199 95.9902ZM41.1999 98.7502H49.8399V98.1002H41.1999V98.7502ZM52.4123 95.5702V93.8902H58.1123V93.2502H52.4123V91.6002H58.1123V90.9502H51.7023V96.2202H58.3123V95.5702H52.4123ZM50.5823 98.7602H59.2223V98.1002H50.5823V98.7602ZM63.2764 94.0402C64.7564 93.6502 65.7764 93.1702 66.3764 92.5902L69.8864 94.0402L70.1464 93.4402L66.7964 92.0602C66.9464 91.7702 67.0264 91.4702 67.0264 91.1402V91.1302H69.6864V90.5002H63.5564V91.1302H66.3264V91.1502C66.3264 92.0702 65.2264 92.8602 63.0764 93.4302L63.2764 94.0402ZM70.9364 94.5902H62.2964V95.2302H66.2664V96.3102H65.6064C64.1064 96.3102 63.3164 97.0102 63.3164 97.9502C63.3164 98.9102 64.1064 99.6002 65.6064 99.6002H67.6264C69.1364 99.6002 69.9264 98.9102 69.9264 97.9502C69.9264 97.0102 69.1364 96.3102 67.6264 96.3102H66.9764V95.2302H70.9364V94.5902ZM69.2064 97.9502C69.2064 98.5602 68.6464 98.9702 67.4664 98.9702H65.7664C64.5864 98.9702 64.0264 98.5602 64.0264 97.9502C64.0264 97.3402 64.5864 96.9502 65.7664 96.9502H67.4664C68.6464 96.9502 69.2064 97.3402 69.2064 97.9502ZM78.7588 95.2702H79.4688V90.2702H78.7588V95.2702ZM77.2288 95.0002L77.5988 94.4202L74.7888 92.5902C74.9588 92.1602 75.0488 91.7002 75.0488 91.2002V90.6002H74.3388V91.2002C74.3388 92.6202 73.4488 93.6702 71.7788 94.6102L72.1288 95.1902C73.2188 94.5902 73.9988 93.9402 74.4788 93.1902L77.2288 95.0002ZM79.4688 99.5002V95.9302H73.5388V99.5002H79.4688ZM78.7588 96.5702V98.8502H74.2488V96.5702H78.7588ZM88.8512 99.5002V90.2702H88.1412V99.5002H88.8512ZM84.0912 95.7602C85.4112 95.7602 86.5012 94.9902 86.5012 93.3702V93.1602C86.5012 91.5402 85.4112 90.7702 84.0912 90.7702C82.7512 90.7702 81.6712 91.5402 81.6712 93.1602V93.3702C81.6712 94.9902 82.7512 95.7602 84.0912 95.7602ZM84.0912 95.1002C83.1112 95.1002 82.3912 94.5102 82.3912 93.3602V93.1702C82.3912 92.0102 83.1112 91.4202 84.0912 91.4202C85.0612 91.4202 85.7812 92.0102 85.7812 93.1702V93.3602C85.7812 94.5102 85.0612 95.1002 84.0912 95.1002ZM82.7812 97.9802C84.1412 97.9802 85.9512 97.8602 87.3412 97.6602L87.2612 97.0302C85.8112 97.2102 83.9612 97.3202 82.8212 97.3202H81.1412L81.1812 97.9802H82.7812ZM100.055 93.8802V90.2702H99.3453V99.5002H100.055V94.5402H101.595V93.8802H100.055ZM96.7653 91.7102V91.9102C96.7653 92.5502 96.6453 93.1802 96.4153 93.8002C95.4753 93.8902 93.9653 93.9602 93.0953 93.9702H92.9053L92.9453 94.6302H93.1253C94.0253 94.6202 95.2353 94.5602 96.1253 94.4702C95.4753 95.7502 94.3653 96.9102 92.9553 97.8302L93.3853 98.3802C95.8653 96.7302 97.4753 94.4802 97.4753 91.7802V91.0602H93.1053V91.7102H96.7653ZM103.278 90.9502V95.7802H109.688V95.1302H103.988V91.6102H109.598V90.9502H103.278ZM110.798 98.7602V98.1002H102.158V98.7602H110.798ZM114.72 91.2102V90.1502H114V91.2102H111.79V91.8202H116.94V91.2102H114.72ZM116.93 92.9602H118.62V94.0602H116.93V94.6502H118.62V95.6202H119.34V90.2702H118.62V92.3702H116.93V92.9602ZM116.51 93.8902C116.51 92.9102 115.58 92.3802 114.37 92.3802C113.16 92.3802 112.23 92.9102 112.23 93.8902V94.0302C112.23 95.0202 113.16 95.5502 114.37 95.5502C115.58 95.5502 116.51 95.0202 116.51 94.0302V93.8902ZM112.92 93.9202C112.92 93.3502 113.55 92.9802 114.37 92.9802C115.19 92.9802 115.82 93.3502 115.82 93.9202V94.0202C115.82 94.5902 115.19 94.9502 114.37 94.9502C113.55 94.9502 112.92 94.5902 112.92 94.0202V93.9202ZM115.37 96.1702C114.01 96.1702 113.21 96.9002 113.21 97.8902C113.21 98.8802 114.01 99.5902 115.37 99.5902H117.31C118.67 99.5902 119.47 98.8802 119.47 97.8902C119.47 96.9002 118.67 96.1702 117.31 96.1702H115.37ZM115.51 98.9502C114.44 98.9502 113.92 98.5102 113.92 97.8802C113.92 97.2602 114.44 96.8202 115.51 96.8202H117.17C118.24 96.8202 118.76 97.2602 118.76 97.8802C118.76 98.5102 118.24 98.9502 117.17 98.9502H115.51ZM131.054 99.5002V90.2702H130.344V99.5002H131.054ZM125.354 97.9602C126.714 97.9602 128.224 97.8202 129.324 97.6302L129.244 97.0002C128.054 97.1802 126.594 97.3102 125.474 97.3102H124.614V91.6702H128.344V91.0102H123.904V97.9602H125.354ZM139.917 93.8802V90.2702H139.207V99.5002H139.917V94.5402H141.447V93.8802H139.917ZM135.617 91.7102H137.707V91.0602H132.847V91.7102H134.917V92.2402C134.917 94.5202 134.007 96.1002 132.487 97.7402L133.007 98.2202C133.947 97.2102 134.637 96.2102 135.077 95.1302L137.527 98.1202L138.077 97.6402L135.347 94.3302C135.527 93.6702 135.617 92.9802 135.617 92.2402V91.7102ZM149.829 97.2802V90.2702H149.109V97.2802H149.829ZM144.829 95.6202C146.139 95.6202 147.219 94.8402 147.219 93.2102V93.0002C147.219 91.3602 146.139 90.5702 144.829 90.5702C143.499 90.5702 142.419 91.3602 142.419 93.0002V93.2102C142.419 94.8402 143.499 95.6202 144.829 95.6202ZM144.829 94.9802C143.859 94.9802 143.139 94.3802 143.139 93.2002V93.0002C143.139 91.8202 143.859 91.2102 144.829 91.2102C145.789 91.2102 146.509 91.8202 146.509 93.0002V93.2002C146.509 94.3802 145.789 94.9802 144.829 94.9802ZM150.259 99.5002V98.8402H144.609V96.5502H143.889V99.5002H150.259Z" fill="#333333"/>
</svg>
