<svg width="291" height="35" viewBox="0 0 291 35" fill="none" xmlns="http://www.w3.org/2000/svg">
<path d="M1.40811 2.676H9.06611V2.984C9.06611 4.482 9.08011 6.274 8.59011 8.668L9.73811 8.794C10.2281 6.26 10.2141 4.552 10.2141 2.984V1.738H1.40811V2.676ZM11.5721 11.272V10.334H5.77611V5.84H4.62811V10.334H0.218112V11.272H11.5721ZM22.981 7.87V0.492H21.875V3.642H20.223V0.715999H19.131V7.814H20.223V4.58H21.875V7.87H22.981ZM17.843 1.416H12.943V2.34H16.667C16.457 4.426 15.071 6.106 12.453 7.17L13.013 8.01C16.233 6.652 17.843 4.454 17.843 1.416ZM22.981 8.472H14.539V9.41H21.833V13.036H22.981V8.472ZM34.8519 7.59V0.463999H33.7039V7.59H34.8519ZM32.4999 6.064L32.3459 5.112C30.3719 5.518 28.5519 5.672 26.4799 5.672V1.206H25.3319V6.638H26.3539C28.5239 6.638 30.4139 6.47 32.4999 6.064ZM34.8519 8.192H26.7319V12.854H34.8519V8.192ZM33.7319 11.93H27.8519V9.102H33.7319V11.93ZM39.7597 2.788H49.8537V1.864H45.4297V0.407999H44.2677V1.864H39.7597V2.788ZM40.7677 5.574C40.7677 6.918 42.2377 7.66 44.8557 7.66C47.3897 7.66 48.9157 6.918 48.9157 5.574C48.9157 4.244 47.3897 3.502 44.8557 3.502C42.2377 3.502 40.7677 4.23 40.7677 5.574ZM47.7257 5.574C47.7257 6.358 46.7177 6.778 44.8557 6.778C42.9937 6.778 41.9577 6.358 41.9577 5.574C41.9577 4.79 42.9937 4.37 44.8557 4.37C46.7177 4.37 47.7257 4.79 47.7257 5.574ZM47.5857 9.438H50.5537V8.514H39.1717V9.438H42.1257V13.05H43.2737V9.438H46.4377V13.05H47.5857V9.438ZM62.0186 13.036V0.478H60.9126V5.518H59.1346V0.758H58.0566V12.406H59.1346V6.456H60.9126V13.036H62.0186ZM52.9326 8.99V2.942H56.4746V2.004H51.7986V9.942H52.6246C54.4866 9.942 55.7886 9.9 57.2726 9.564L57.1746 8.612C55.8166 8.906 54.5986 8.99 52.9326 8.99ZM74.8695 8.206V7.282H69.7875V5.756H73.7495V4.832H71.9015V1.976H73.7915V1.052H64.5795V1.976H66.4835V4.832H64.6215V5.756H68.6395V7.282H63.5155V8.206H74.8695ZM70.7535 4.832H67.6315V1.976H70.7535V4.832ZM73.6235 11.818H66.1335V9.312H64.9855V12.756H73.6235V11.818ZM81.3784 1.262C78.7744 1.262 76.8144 2.662 76.8144 4.734C76.8144 6.834 78.7744 8.206 81.3784 8.206C83.9824 8.206 85.9424 6.834 85.9424 4.734C85.9424 2.662 83.9824 1.262 81.3784 1.262ZM81.3784 2.2C83.3524 2.2 84.8504 3.222 84.8504 4.734C84.8504 6.26 83.3524 7.268 81.3784 7.268C79.4044 7.268 77.9064 6.26 77.9064 4.734C77.9064 3.222 79.4044 2.2 81.3784 2.2ZM87.1044 11.37V10.418H75.6944V11.37H87.1044ZM99.2833 11.482V10.544H94.1453V8.178H98.1633V7.254H90.4353V5.224H97.8693V1.402H89.2733V2.34H96.7493V4.3H89.3013V8.178H92.9833V10.544H87.8733V11.482H99.2833ZM114.103 4.132V3.18H112.241V0.492H111.093V6.974H112.241V4.132H114.103ZM103.015 6.484H108.825V0.996H107.705V2.802H104.149V0.996H103.015V6.484ZM104.149 3.684H107.705V5.56H104.149V3.684ZM112.703 11.986H105.423V10.614H112.241V7.562H104.261V8.472H111.107V9.76H104.303V12.896H112.703V11.986ZM124.91 5.518L125.344 4.608C123.104 4.314 120.934 2.9 120.934 1.234V0.674H119.758V1.234C119.758 2.9 117.602 4.314 115.362 4.608L115.796 5.518C117.714 5.182 119.562 4.216 120.346 2.774C121.13 4.216 123.006 5.182 124.91 5.518ZM126.03 7.632V6.708H120.92V4.86H119.772V6.708H114.676V7.632H126.03ZM120.346 8.682C117.658 8.682 116.048 9.452 116.048 10.852C116.048 12.252 117.658 13.022 120.346 13.022C123.034 13.022 124.644 12.252 124.644 10.852C124.644 9.452 123.034 8.682 120.346 8.682ZM120.346 12.14C118.316 12.14 117.21 11.692 117.21 10.852C117.21 10.012 118.316 9.564 120.346 9.564C122.376 9.564 123.482 10.012 123.482 10.852C123.482 11.692 122.376 12.14 120.346 12.14ZM135.983 9.872H137.131V0.478H135.983V9.872ZM135.059 7.828L134.975 7.002C133.897 7.128 132.777 7.198 131.601 7.254V5.518H134.093V4.594H129.179V2.228H134.009V1.29H128.031V5.518H130.453V7.296C129.221 7.338 128.031 7.352 126.911 7.352L127.079 8.29C129.417 8.29 132.399 8.206 135.059 7.828ZM137.551 12.756V11.818H130.159V9.256H129.011V12.756H137.551ZM151.209 5.084V3.348H153.043V2.396H151.209V0.492H150.061V7.94H151.209V6.022H153.043V5.084H151.209ZM148.255 4.202C148.255 2.452 146.869 1.234 144.979 1.234C143.075 1.234 141.703 2.452 141.703 4.202C141.703 5.952 143.075 7.17 144.979 7.17C146.869 7.17 148.255 5.952 148.255 4.202ZM142.823 4.202C142.823 3.012 143.719 2.2 144.979 2.2C146.225 2.2 147.135 3.012 147.135 4.202C147.135 5.378 146.225 6.204 144.979 6.204C143.719 6.204 142.823 5.378 142.823 4.202ZM151.209 8.528H143.047V9.466H150.061V13.036H151.209V8.528ZM162.828 0.492V3.74H160.35V4.678H162.828V7.968H163.99V0.492H162.828ZM160.476 7.492L161.05 6.596C159.23 5.966 157.998 4.37 157.998 2.76V2.326H160.756V1.402H154.05V2.326H156.85V2.76C156.85 4.552 155.548 6.274 153.686 6.946L154.288 7.856C155.758 7.296 156.906 6.12 157.452 4.664C157.998 5.952 159.076 6.988 160.476 7.492ZM159.846 8.36C157.27 8.36 155.66 9.2 155.66 10.698C155.66 12.196 157.27 13.036 159.846 13.036C162.422 13.036 164.018 12.196 164.018 10.698C164.018 9.2 162.422 8.36 159.846 8.36ZM159.846 12.14C157.928 12.14 156.808 11.608 156.808 10.698C156.808 9.788 157.928 9.242 159.846 9.242C161.764 9.242 162.884 9.788 162.884 10.698C162.884 11.608 161.764 12.14 159.846 12.14ZM176.49 13.022V0.478H175.384V13.022H176.49ZM173.956 0.771999H172.864V5.434H170.946V6.386H172.864V12.378H173.956V0.771999ZM169.476 4.342V3.74H171.8V2.788H169.49V0.926H168.384V2.788H166.06V3.74H168.384V4.342C168.384 6.4 167.418 8.598 165.724 9.606L166.396 10.46C167.628 9.718 168.51 8.36 168.944 6.722C169.406 8.234 170.288 9.508 171.52 10.194L172.178 9.326C170.484 8.43 169.476 6.344 169.476 4.342ZM184.091 3.194H187.185V4.692H183.909V5.588H187.185V6.89H188.347V0.478H187.185V2.298H184.343C184.427 1.906 184.469 1.5 184.469 1.094H178.855V2.032H183.223C183.013 4.062 181.319 5.518 178.197 6.232L178.617 7.17C181.431 6.512 183.307 5.168 184.091 3.194ZM188.767 12.91V12H181.417V10.544H188.347V7.464H180.255V8.388H187.199V9.676H180.283V12.91H188.767ZM196.909 12.182C199.009 12.182 200.605 11.062 200.605 7.758V1.738H199.359V7.8C199.359 10.264 198.295 11.048 196.909 11.048C195.565 11.048 194.529 10.264 194.529 7.8V1.738H193.227V7.758C193.227 11.062 194.823 12.182 196.909 12.182ZM205.809 7.646L208.301 12H209.771L207.139 7.506C208.539 7.17 209.463 6.26 209.463 4.622C209.463 2.48 207.965 1.738 205.879 1.738H202.659V12H203.961V7.646H205.809ZM205.683 6.596H203.961V2.788H205.683C207.321 2.788 208.175 3.264 208.175 4.622C208.175 5.966 207.321 6.596 205.683 6.596ZM212.148 1.738H210.846V12H216.628V10.894H212.148V1.738ZM227.744 13.036V0.478H226.652V13.036H227.744ZM225.252 0.758H224.16V5.364H222.578C222.424 2.998 221.43 1.528 219.918 1.528C218.28 1.528 217.23 3.194 217.23 5.882C217.23 8.598 218.28 10.278 219.918 10.278C221.458 10.278 222.466 8.766 222.578 6.302H224.16V12.42H225.252V0.758ZM219.918 9.214C218.91 9.214 218.28 7.968 218.28 5.882C218.28 3.866 218.91 2.592 219.918 2.592C220.884 2.592 221.542 3.866 221.542 5.882C221.542 7.968 220.926 9.214 219.918 9.214ZM242.017 7.296V0.492H240.869V3.53H238.391V4.468H240.869V7.296H242.017ZM238.517 7.226L239.091 6.316C237.271 5.686 236.039 4.09 236.039 2.494V2.172H238.797V1.234H232.091V2.172H234.891V2.494C234.891 4.3 233.589 5.938 231.727 6.61L232.329 7.52C233.799 6.96 234.933 5.84 235.479 4.384C236.039 5.672 237.117 6.708 238.517 7.226ZM242.017 7.912H240.883V9.452H235.115V7.912H233.981V12.868H242.017V7.912ZM235.115 10.348H240.883V11.93H235.115V10.348ZM254.098 5.532L254.532 4.608C252.292 4.314 250.122 2.9 250.122 1.234V0.674H248.946V1.234C248.946 2.9 246.79 4.314 244.55 4.608L244.984 5.532C246.902 5.196 248.75 4.23 249.534 2.774C250.318 4.23 252.194 5.196 254.098 5.532ZM255.26 7.716V6.778H250.108V4.874H248.96V6.778H243.864V7.716H255.26ZM253.818 8.934H245.124V9.872H252.67V13.05H253.818V8.934ZM265.717 6.61H267.775V5.644H265.717V0.492H264.569V13.036H265.717V6.61ZM263.379 2.494H260.285V0.631999H259.137V2.494H255.973V3.418H263.379V2.494ZM259.725 4.454C257.961 4.454 256.687 5.672 256.687 7.352C256.687 9.074 257.961 10.236 259.725 10.236C261.517 10.236 262.791 9.074 262.791 7.352C262.791 5.672 261.517 4.454 259.725 4.454ZM259.725 9.284C258.591 9.284 257.765 8.472 257.765 7.352C257.765 6.232 258.591 5.406 259.725 5.406C260.887 5.406 261.699 6.232 261.699 7.352C261.699 8.472 260.887 9.284 259.725 9.284ZM278.498 13.064V0.478H277.35V13.064H278.498ZM272.674 3.824V1.57H271.54V3.824C271.54 6.232 270 8.598 268.166 9.494L268.866 10.432C270.336 9.648 271.54 8.136 272.114 6.218C272.716 8.024 273.892 9.48 275.348 10.194L276.034 9.27C274.186 8.444 272.674 6.12 272.674 3.824ZM290.747 13.064V0.478H289.599V5.266H286.869C286.687 2.914 285.455 1.444 283.761 1.444C281.927 1.444 280.625 3.152 280.625 5.826C280.625 8.5 281.927 10.208 283.761 10.208C285.511 10.208 286.757 8.668 286.869 6.204H289.599V13.064H290.747ZM283.761 9.186C282.557 9.186 281.717 7.87 281.717 5.826C281.717 3.796 282.557 2.48 283.761 2.48C284.951 2.48 285.791 3.796 285.791 5.826C285.791 7.87 284.951 9.186 283.761 9.186ZM67.1895 26.084V24.348H69.0235V23.396H67.1895V21.492H66.0415V28.94H67.1895V27.022H69.0235V26.084H67.1895ZM64.2355 25.202C64.2355 23.452 62.8495 22.234 60.9595 22.234C59.0555 22.234 57.6835 23.452 57.6835 25.202C57.6835 26.952 59.0555 28.17 60.9595 28.17C62.8495 28.17 64.2355 26.952 64.2355 25.202ZM58.8035 25.202C58.8035 24.012 59.6995 23.2 60.9595 23.2C62.2055 23.2 63.1155 24.012 63.1155 25.202C63.1155 26.378 62.2055 27.204 60.9595 27.204C59.6995 27.204 58.8035 26.378 58.8035 25.202ZM67.1895 29.528H59.0275V30.466H66.0415V34.036H67.1895V29.528ZM78.8084 21.492V24.74H76.3304V25.678H78.8084V28.968H79.9704V21.492H78.8084ZM76.4564 28.492L77.0304 27.596C75.2104 26.966 73.9784 25.37 73.9784 23.76V23.326H76.7364V22.402H70.0304V23.326H72.8304V23.76C72.8304 25.552 71.5284 27.274 69.6664 27.946L70.2684 28.856C71.7384 28.296 72.8864 27.12 73.4324 25.664C73.9784 26.952 75.0564 27.988 76.4564 28.492ZM75.8264 29.36C73.2504 29.36 71.6404 30.2 71.6404 31.698C71.6404 33.196 73.2504 34.036 75.8264 34.036C78.4024 34.036 79.9984 33.196 79.9984 31.698C79.9984 30.2 78.4024 29.36 75.8264 29.36ZM75.8264 33.14C73.9084 33.14 72.7884 32.608 72.7884 31.698C72.7884 30.788 73.9084 30.242 75.8264 30.242C77.7444 30.242 78.8644 30.788 78.8644 31.698C78.8644 32.608 77.7444 33.14 75.8264 33.14ZM92.4713 34.022V21.478H91.3653V34.022H92.4713ZM89.9373 21.772H88.8453V26.434H86.9273V27.386H88.8453V33.378H89.9373V21.772ZM85.4573 25.342V24.74H87.7813V23.788H85.4713V21.926H84.3653V23.788H82.0413V24.74H84.3653V25.342C84.3653 27.4 83.3993 29.598 81.7053 30.606L82.3773 31.46C83.6093 30.718 84.4913 29.36 84.9253 27.722C85.3873 29.234 86.2693 30.508 87.5013 31.194L88.1593 30.326C86.4653 29.43 85.4573 27.344 85.4573 25.342ZM100.072 24.194H103.166V25.692H99.8902V26.588H103.166V27.89H104.328V21.478H103.166V23.298H100.324C100.408 22.906 100.45 22.5 100.45 22.094H94.8362V23.032H99.2042C98.9942 25.062 97.3002 26.518 94.1782 27.232L94.5982 28.17C97.4122 27.512 99.2882 26.168 100.072 24.194ZM104.748 33.91V33H97.3982V31.544H104.328V28.464H96.2362V29.388H103.18V30.676H96.2642V33.91H104.748ZM111.831 26.042C114.589 26.042 116.241 25.286 116.241 23.872C116.241 22.458 114.589 21.688 111.831 21.688C109.073 21.688 107.421 22.458 107.421 23.872C107.421 25.286 109.073 26.042 111.831 26.042ZM111.831 22.556C113.917 22.556 115.065 23.032 115.065 23.872C115.065 24.712 113.917 25.188 111.831 25.188C109.745 25.188 108.597 24.712 108.597 23.872C108.597 23.032 109.745 22.556 111.831 22.556ZM117.515 27.82V26.896H106.147V27.82H117.515ZM116.437 33H108.681V31.726H116.059V28.898H107.519V29.766H114.925V30.886H107.561V33.896H116.437V33ZM129.927 30.676H131.075V21.492H129.927V30.676ZM127.883 28.884L128.443 27.974C126.595 27.372 125.293 25.818 125.293 24.138V23.452H128.135V22.528H121.247V23.452H124.117V24.138C124.117 25.944 122.843 27.554 120.939 28.226L121.541 29.122C123.053 28.576 124.173 27.484 124.719 26.028C125.293 27.372 126.427 28.38 127.883 28.884ZM131.453 33.756V32.818H124.145V29.808H122.997V33.756H131.453ZM139.754 28.982H140.846V25.832H142.442V29.43H143.548V21.478H142.442V24.894H140.846V21.73H139.754V28.982ZM132.88 23.886H139.264V22.976H136.646V21.576H135.512V22.976H132.88V23.886ZM138.76 26.686C138.76 25.398 137.668 24.544 136.086 24.544C134.504 24.544 133.398 25.398 133.398 26.686C133.398 27.988 134.504 28.842 136.086 28.842C137.668 28.842 138.76 27.988 138.76 26.686ZM134.434 26.686C134.434 25.902 135.078 25.398 136.086 25.398C137.094 25.398 137.738 25.902 137.738 26.686C137.738 27.47 137.094 27.988 136.086 27.988C135.078 27.988 134.434 27.47 134.434 26.686ZM139.418 29.64C136.8 29.64 135.218 30.438 135.218 31.838C135.218 33.238 136.8 34.022 139.418 34.022C142.036 34.022 143.618 33.238 143.618 31.838C143.618 30.438 142.036 29.64 139.418 29.64ZM139.418 33.14C137.5 33.14 136.352 32.678 136.352 31.838C136.352 30.998 137.5 30.522 139.418 30.522C141.336 30.522 142.47 30.998 142.47 31.838C142.47 32.678 141.336 33.14 139.418 33.14ZM154.803 27.61H156.861V26.644H154.803V21.492H153.655V34.036H154.803V27.61ZM152.465 23.494H149.371V21.632H148.223V23.494H145.059V24.418H152.465V23.494ZM148.811 25.454C147.047 25.454 145.773 26.672 145.773 28.352C145.773 30.074 147.047 31.236 148.811 31.236C150.603 31.236 151.877 30.074 151.877 28.352C151.877 26.672 150.603 25.454 148.811 25.454ZM148.811 30.284C147.677 30.284 146.851 29.472 146.851 28.352C146.851 27.232 147.677 26.406 148.811 26.406C149.973 26.406 150.785 27.232 150.785 28.352C150.785 29.472 149.973 30.284 148.811 30.284ZM167.584 34.064V21.478H166.436V34.064H167.584ZM161.76 24.824V22.57H160.626V24.824C160.626 27.232 159.086 29.598 157.252 30.494L157.952 31.432C159.422 30.648 160.626 29.136 161.2 27.218C161.802 29.024 162.978 30.48 164.434 31.194L165.12 30.27C163.272 29.444 161.76 27.12 161.76 24.824ZM179.791 34.036V21.478H178.643V34.036H179.791ZM176.109 22.836H170.229V23.76H174.947C174.709 26.742 173.029 29.15 169.655 30.76L170.271 31.698C174.457 29.64 176.109 26.462 176.109 22.836ZM193.756 27.386H195.828V26.42H193.756V21.492H192.608V34.022H193.756V27.386ZM190.438 22.542H189.318V25.86H185.734V22.542H184.6V31.012H190.438V22.542ZM185.734 26.77H189.318V30.074H185.734V26.77ZM206.019 25.468H207.881V24.502H206.019V21.492H204.871V28.422H206.019V25.468ZM203.779 27.708L203.667 26.756C201.763 27.092 200.153 27.176 197.955 27.176V25.468H202.449V22.108H196.793V23.032H201.315V24.586H196.821V28.114H197.815C200.139 28.114 201.805 28.044 203.779 27.708ZM206.019 28.968H204.885V30.508H199.257V28.968H198.123V33.868H206.019V28.968ZM199.257 31.404H204.885V32.93H199.257V31.404ZM218.744 34.022V21.478H217.596V34.022H218.744ZM210.386 29.808V22.696H209.238V30.788H210.274C212.29 30.788 214.236 30.648 216.434 30.2L216.308 29.22C214.222 29.654 212.304 29.808 210.386 29.808ZM230.293 27.386H232.365V26.434H230.293V21.478H229.145V34.064H230.293V27.386ZM222.313 29.948V23.634H227.003V22.682H221.165V30.928H222.159C224.511 30.928 226.191 30.858 228.095 30.48L227.969 29.528C226.163 29.864 224.553 29.948 222.313 29.948ZM233.932 31.88H232.658V33.196H233.932V31.88Z" fill="#666666"/>
</svg>
