<svg width="275" height="61" viewBox="0 0 275 61" fill="none" xmlns="http://www.w3.org/2000/svg">
<path d="M86.9089 0.497999H84.2309V13.706H86.9089V0.497999ZM79.8629 1.928H69.0209V4.086H77.0029C76.7602 5.87133 75.8675 7.44867 74.3249 8.818C72.7995 10.1873 70.6069 11.236 67.7469 11.964L68.7609 14.07C70.5115 13.6193 72.0715 13.0213 73.4409 12.276C74.8102 11.5307 75.9715 10.6467 76.9249 9.624C77.8782 8.60133 78.6062 7.44867 79.1089 6.166C79.6115 4.866 79.8629 3.45333 79.8629 1.928ZM71.5689 14.772V23.716H86.9089V14.772H71.5689ZM74.2209 21.558V16.904H84.2829V21.558H74.2209ZM108.825 11.704V1.434H106.147V4.398H95.4088V1.434H92.7308V11.704H108.825ZM106.147 6.556V9.546H95.4088V6.556H106.147ZM111.451 16.41V14.252H90.1568V16.41H99.3868V24.028H102.065V16.41H111.451ZM134.459 7.544H131.131V0.497999H128.453V17.814H131.131V9.754H134.459V7.544ZM125.281 14.148L126.633 12.016C125.749 11.704 124.96 11.2967 124.267 10.794C123.573 10.2913 122.984 9.71933 122.499 9.078C122.031 8.43667 121.667 7.74333 121.407 6.998C121.164 6.25267 121.043 5.49 121.043 4.71V1.954H118.339V4.684C118.339 5.53333 118.209 6.36533 117.949 7.18C117.706 7.99467 117.342 8.74867 116.857 9.442C116.371 10.1353 115.765 10.7507 115.037 11.288C114.326 11.8253 113.503 12.25 112.567 12.562L114.023 14.642C115.427 14.1393 116.605 13.4113 117.559 12.458C118.512 11.5047 119.24 10.378 119.743 9.078C120.263 10.222 120.991 11.2447 121.927 12.146C122.863 13.03 123.981 13.6973 125.281 14.148ZM118.989 21.376V16.15H116.311V23.56H132.067V21.376H118.989ZM156.157 4.892V5.022C156.157 6.40867 156.114 7.96867 156.027 9.702C155.958 11.4353 155.698 13.4547 155.247 15.76L157.951 16.046C158.177 14.8327 158.35 13.7147 158.471 12.692C158.593 11.652 158.679 10.69 158.731 9.806C158.801 8.90467 158.835 8.064 158.835 7.284C158.853 6.504 158.861 5.75 158.861 5.022V2.708H142.143V4.892H156.157ZM161.149 18.724H150.541V10.456H147.837V18.724H139.933V20.934H161.149V18.724ZM182.415 0.523999H179.867V6.218H177.267V0.966H174.745V14.2H177.267V8.402H179.867V14.304H182.415V0.523999ZM172.743 2.214H163.539V4.372H169.987C169.762 6.20933 169.043 7.804 167.829 9.156C166.633 10.508 164.857 11.652 162.499 12.588L163.773 14.512C166.859 13.2987 169.121 11.6867 170.559 9.676C172.015 7.66533 172.743 5.178 172.743 2.214ZM166.451 15.37V17.528H179.737V24.028H182.415V15.37H166.451ZM204.513 0.523999H201.809V13.758H204.513V0.523999ZM199.885 11.21L199.573 9.052C197.857 9.39867 196.167 9.65 194.503 9.806C192.857 9.94467 191.106 10.0227 189.251 10.04V1.876H186.573V12.276H188.523C190.586 12.276 192.527 12.198 194.347 12.042C196.167 11.8687 198.013 11.5913 199.885 11.21ZM189.121 14.824V23.716H204.513V14.824H189.121ZM191.773 21.558V16.956H201.887V21.558H191.773ZM19.731 36.498H17.183V45.78H14.401V36.992H11.879V58.832H14.401V47.964H17.183V59.976H19.731V36.498ZM3.11696 52.202V41.49H9.17496V39.306H0.490964V54.412H2.05096C2.88296 54.412 3.66296 54.4033 4.39096 54.386C5.11896 54.3687 5.82096 54.3427 6.49696 54.308C7.1903 54.256 7.8663 54.1867 8.52496 54.1C9.20096 54.0133 9.8943 53.9007 10.605 53.762L10.371 51.552C9.15763 51.7947 7.97896 51.9593 6.83496 52.046C5.7083 52.1327 4.46896 52.1847 3.11696 52.202ZM23.3169 43.882L24.0969 45.884C26.1943 45.7453 27.9969 45.39 29.5049 44.818C31.0303 44.246 32.1656 43.466 32.9109 42.478C33.6563 43.466 34.7916 44.246 36.3169 44.818C37.8596 45.39 39.6796 45.7453 41.7769 45.884L42.5049 43.882C40.1303 43.7433 38.2669 43.3793 36.9149 42.79C35.5629 42.1833 34.7569 41.412 34.4969 40.476H41.4389V38.474H34.2629V36.42H31.5849V38.474H24.4349V40.476H31.3509C31.0909 41.412 30.2849 42.1833 28.9329 42.79C27.5809 43.3793 25.7089 43.7433 23.3169 43.882ZM34.2629 48.744H43.5449V46.742H22.3549V48.744H31.5849V50.564H24.8249V52.54H38.2669V54.178H24.8769V59.794H41.5689V57.792H27.5289V56.024H40.8929V50.564H34.2629V48.744ZM64.2909 53.71V36.55H61.6129V53.71H64.2909ZM57.7909 50.018L59.1689 47.886C58.2676 47.574 57.4616 47.158 56.7509 46.638C56.0576 46.1007 55.4682 45.494 54.9829 44.818C54.4976 44.1247 54.1249 43.388 53.8649 42.608C53.6222 41.8107 53.5009 40.996 53.5009 40.164V37.824H50.7709V40.164C50.7709 41.0307 50.6409 41.88 50.3809 42.712C50.1382 43.5267 49.7742 44.2893 49.2889 45C48.8036 45.7107 48.1969 46.352 47.4689 46.924C46.7582 47.496 45.9436 47.9553 45.0249 48.302L46.4029 50.46C47.8069 49.94 48.9856 49.1773 49.9389 48.172C50.8922 47.1493 51.6376 45.9793 52.1749 44.662C52.6776 45.91 53.3969 46.9933 54.3329 47.912C55.2862 48.8133 56.4389 49.5153 57.7909 50.018ZM64.9669 57.376H51.6549V52.098H48.9509V59.56H64.9669V57.376ZM80.3049 49.836L81.5529 47.782C80.6515 47.522 79.8455 47.1753 79.1349 46.742C78.4415 46.3087 77.8435 45.8147 77.3409 45.26C76.8555 44.7053 76.4829 44.116 76.2229 43.492C75.9629 42.8507 75.8329 42.192 75.8329 41.516V41.308H80.7729V39.176H75.8589V36.394H73.1549V39.176H68.2149V41.308H73.1549V41.516C73.1549 42.244 73.0249 42.9633 72.7649 43.674C72.5222 44.3673 72.1582 45.0173 71.6729 45.624C71.2049 46.2133 70.6155 46.7507 69.9049 47.236C69.2115 47.704 68.4142 48.0767 67.5129 48.354L68.8129 50.434C70.2169 50.0007 71.3955 49.3507 72.3489 48.484C73.3195 47.6173 74.0649 46.586 74.5849 45.39C75.1222 46.43 75.8675 47.34 76.8209 48.12C77.7915 48.8827 78.9529 49.4547 80.3049 49.836ZM84.3349 42.998H80.0969V45.208H84.3349V50.72H87.0129V36.498H84.3349V42.998ZM79.1869 51.24C76.7255 51.24 74.7929 51.6213 73.3889 52.384C71.9849 53.1293 71.2829 54.204 71.2829 55.608C71.2829 56.3013 71.4649 56.9253 71.8289 57.48C72.1929 58.0173 72.7129 58.468 73.3889 58.832C74.0649 59.2133 74.8882 59.4993 75.8589 59.69C76.8469 59.898 77.9562 60.002 79.1869 60.002C80.4175 60.002 81.5182 59.898 82.4889 59.69C83.4769 59.4993 84.3089 59.2133 84.9849 58.832C85.6782 58.468 86.2069 58.0173 86.5709 57.48C86.9349 56.9253 87.1169 56.3013 87.1169 55.608C87.1169 54.9147 86.9349 54.2993 86.5709 53.762C86.2069 53.2247 85.6782 52.774 84.9849 52.41C84.3089 52.0287 83.4769 51.7427 82.4889 51.552C81.5182 51.344 80.4175 51.24 79.1869 51.24ZM79.1869 57.922C77.5055 57.922 76.2142 57.7227 75.3129 57.324C74.4115 56.9253 73.9609 56.3533 73.9609 55.608C73.9609 54.8627 74.4115 54.2993 75.3129 53.918C76.2142 53.5193 77.5055 53.32 79.1869 53.32C80.8682 53.32 82.1595 53.5193 83.0609 53.918C83.9795 54.2993 84.4389 54.8627 84.4389 55.608C84.4389 56.3533 83.9795 56.9253 83.0609 57.324C82.1595 57.7227 80.8682 57.922 79.1869 57.922ZM109.501 36.498H106.797V60.054H109.501V36.498ZM96.9948 38.24C96.1282 38.24 95.3222 38.4393 94.5768 38.838C93.8488 39.2193 93.2162 39.774 92.6788 40.502C92.1415 41.2127 91.7168 42.0793 91.4048 43.102C91.1102 44.1073 90.9628 45.2427 90.9628 46.508C90.9628 47.7733 91.1102 48.926 91.4048 49.966C91.7168 50.9887 92.1415 51.8553 92.6788 52.566C93.2162 53.2767 93.8488 53.8313 94.5768 54.23C95.3222 54.6113 96.1282 54.802 96.9948 54.802C97.8788 54.802 98.6848 54.6113 99.4128 54.23C100.158 53.8313 100.8 53.2767 101.337 52.566C101.874 51.8553 102.29 50.9887 102.585 49.966C102.897 48.926 103.053 47.7733 103.053 46.508C103.053 45.2427 102.897 44.1073 102.585 43.102C102.29 42.0793 101.874 41.2127 101.337 40.502C100.8 39.774 100.158 39.2193 99.4128 38.838C98.6848 38.4393 97.8788 38.24 96.9948 38.24ZM96.9948 40.658C98.0348 40.658 98.8755 41.178 99.5168 42.218C100.158 43.2407 100.479 44.6707 100.479 46.508C100.479 48.3973 100.158 49.8533 99.5168 50.876C98.8755 51.8987 98.0348 52.41 96.9948 52.41C95.9548 52.41 95.1142 51.8987 94.4728 50.876C93.8488 49.8533 93.5368 48.3973 93.5368 46.508C93.5368 44.6707 93.8488 43.2407 94.4728 42.218C95.1142 41.178 95.9548 40.658 96.9948 40.658ZM138.921 44.22H135.697V36.55H133.019V54.49H135.697V46.43H138.921V44.22ZM131.823 50.226L131.641 48.276C130.705 48.4147 129.735 48.5273 128.729 48.614C127.741 48.7007 126.745 48.7787 125.739 48.848V46.82C126.398 46.716 126.996 46.534 127.533 46.274C128.088 45.9967 128.556 45.6587 128.937 45.26C129.336 44.8613 129.639 44.402 129.847 43.882C130.055 43.362 130.159 42.8073 130.159 42.218C130.159 41.5247 130.012 40.892 129.717 40.32C129.44 39.748 129.041 39.254 128.521 38.838C128.019 38.422 127.412 38.1013 126.701 37.876C125.991 37.6507 125.211 37.538 124.361 37.538C123.512 37.538 122.732 37.6507 122.021 37.876C121.311 38.1013 120.695 38.422 120.175 38.838C119.655 39.254 119.248 39.748 118.953 40.32C118.676 40.892 118.537 41.5247 118.537 42.218C118.537 42.8073 118.641 43.362 118.849 43.882C119.075 44.402 119.387 44.8613 119.785 45.26C120.184 45.6587 120.661 45.9967 121.215 46.274C121.77 46.534 122.385 46.716 123.061 46.82V48.952C122.004 48.9867 120.981 49.0127 119.993 49.03C119.023 49.03 118.113 49.03 117.263 49.03L117.601 51.214C118.589 51.214 119.655 51.2053 120.799 51.188C121.943 51.1707 123.131 51.1273 124.361 51.058C125.592 50.9887 126.84 50.8933 128.105 50.772C129.371 50.6333 130.61 50.4513 131.823 50.226ZM121.033 42.218C121.033 41.386 121.337 40.736 121.943 40.268C122.567 39.8 123.373 39.566 124.361 39.566C125.349 39.566 126.147 39.8 126.753 40.268C127.36 40.736 127.663 41.386 127.663 42.218C127.663 43.05 127.36 43.7087 126.753 44.194C126.147 44.662 125.349 44.896 124.361 44.896C123.373 44.896 122.567 44.662 121.943 44.194C121.337 43.7087 121.033 43.05 121.033 42.218ZM123.191 57.376V52.956H120.513V59.534H136.503V57.376H123.191ZM161.201 55.036H155.741V50.98H159.199V48.822H145.133V45.572H158.679V38.162H142.455V40.32H156.027V43.44H142.507V50.98H145.627V55.036H139.933V57.246H161.201V55.036ZM148.279 55.036V50.98H153.089V55.036H148.279ZM181.869 36.472H179.165V60.054H181.869V36.472ZM171.625 52.774V48.536H176.409V46.378H166.971V40.84H176.305V38.656H164.293V48.536H168.947V52.878C166.746 52.93 164.649 52.956 162.655 52.956L162.993 55.166C164.103 55.166 165.264 55.166 166.477 55.166C167.708 55.1487 168.956 55.114 170.221 55.062C171.504 54.9927 172.795 54.906 174.095 54.802C175.395 54.6807 176.678 54.516 177.943 54.308L177.735 52.332C176.747 52.4533 175.742 52.5487 174.719 52.618C173.697 52.6873 172.665 52.7393 171.625 52.774ZM197.571 44.428H201.939V49.81H204.617V36.524H201.939V42.218H197.571C197.433 41.5593 197.181 40.9613 196.817 40.424C196.471 39.8693 196.037 39.4013 195.517 39.02C195.015 38.6213 194.425 38.318 193.749 38.11C193.091 37.902 192.38 37.798 191.617 37.798C190.733 37.798 189.919 37.9367 189.173 38.214C188.428 38.474 187.778 38.8553 187.223 39.358C186.686 39.8433 186.261 40.4327 185.949 41.126C185.655 41.802 185.507 42.5473 185.507 43.362C185.507 44.1767 185.655 44.922 185.949 45.598C186.261 46.274 186.686 46.8633 187.223 47.366C187.778 47.8513 188.428 48.2327 189.173 48.51C189.919 48.77 190.733 48.9 191.617 48.9C192.397 48.9 193.117 48.796 193.775 48.588C194.451 48.3627 195.049 48.0593 195.569 47.678C196.089 47.2793 196.523 46.8027 196.869 46.248C197.216 45.6933 197.45 45.0867 197.571 44.428ZM191.617 40.008C192.657 40.008 193.498 40.32 194.139 40.944C194.798 41.5507 195.127 42.3567 195.127 43.362C195.127 43.8473 195.041 44.298 194.867 44.714C194.694 45.13 194.451 45.4853 194.139 45.78C193.827 46.0573 193.455 46.2827 193.021 46.456C192.588 46.612 192.12 46.69 191.617 46.69C191.097 46.69 190.621 46.612 190.187 46.456C189.754 46.2827 189.381 46.0573 189.069 45.78C188.757 45.4853 188.506 45.13 188.315 44.714C188.142 44.298 188.055 43.8473 188.055 43.362C188.055 42.8593 188.142 42.4087 188.315 42.01C188.506 41.594 188.757 41.2387 189.069 40.944C189.381 40.6493 189.754 40.424 190.187 40.268C190.621 40.0947 191.097 40.008 191.617 40.008ZM202.225 51.864V50.72H199.599V51.864C199.599 52.8 199.357 53.762 198.871 54.75C198.386 55.7207 197.615 56.5787 196.557 57.324C195.517 56.6653 194.763 55.8507 194.295 54.88C193.827 53.9093 193.593 52.904 193.593 51.864V50.72H190.993V51.864C190.993 52.436 190.898 53.0167 190.707 53.606C190.517 54.1953 190.222 54.75 189.823 55.27C189.442 55.79 188.965 56.2667 188.393 56.7C187.839 57.1333 187.18 57.48 186.417 57.74L187.743 59.716C188.835 59.3 189.754 58.728 190.499 58C191.262 57.2893 191.851 56.466 192.267 55.53C192.631 56.4833 193.169 57.3413 193.879 58.104C194.59 58.884 195.491 59.4907 196.583 59.924C197.675 59.4733 198.568 58.8493 199.261 58.052C199.955 57.2547 200.492 56.388 200.873 55.452C201.272 56.4053 201.853 57.2547 202.615 58C203.378 58.7453 204.331 59.3173 205.475 59.716L206.801 57.74C206.039 57.4973 205.371 57.168 204.799 56.752C204.227 56.336 203.751 55.868 203.369 55.348C202.988 54.828 202.702 54.2733 202.511 53.684C202.321 53.0773 202.225 52.4707 202.225 51.864ZM226.923 45.624L227.885 43.544C226.724 43.388 225.649 43.128 224.661 42.764C223.673 42.3827 222.815 41.932 222.087 41.412C221.359 40.8747 220.787 40.2853 220.371 39.644C219.972 39.0027 219.773 38.344 219.773 37.668V36.758H217.017V37.668C217.017 38.344 216.809 39.0027 216.393 39.644C215.994 40.2853 215.431 40.8747 214.703 41.412C213.992 41.932 213.143 42.3827 212.155 42.764C211.167 43.128 210.084 43.388 208.905 43.544L209.893 45.624C211.834 45.364 213.542 44.8267 215.015 44.012C216.488 43.18 217.615 42.14 218.395 40.892C219.175 42.14 220.302 43.18 221.775 44.012C223.266 44.8267 224.982 45.364 226.923 45.624ZM229.029 47.028H207.761V49.16H229.029V47.028ZM223.621 50.616V53.008H213.039V50.616H210.387V59.716H226.299V50.616H223.621ZM223.621 55.062V57.584H213.039V55.062H223.621ZM249.801 36.524H247.123V60.002H249.801V36.524ZM234.435 51.786V38.812H231.783V54.074H233.785C235.622 54.074 237.477 53.996 239.349 53.84C241.238 53.6667 243.206 53.372 245.251 52.956L244.965 50.72C243.076 51.1013 241.264 51.37 239.531 51.526C237.815 51.682 236.116 51.7687 234.435 51.786ZM274.863 47.756V45.546H271.197V36.498H268.519V60.028H271.197V47.756H274.863ZM256.637 52.02V40.918H264.879V38.734H253.959V54.256H255.883C256.94 54.256 257.937 54.2473 258.873 54.23C259.826 54.1953 260.745 54.152 261.629 54.1C262.513 54.048 263.38 53.97 264.229 53.866C265.096 53.762 265.971 53.632 266.855 53.476L266.569 51.266C265.754 51.4047 264.957 51.526 264.177 51.63C263.397 51.7167 262.6 51.7947 261.785 51.864C260.988 51.916 260.164 51.9593 259.315 51.994C258.466 52.0113 257.573 52.02 256.637 52.02Z" fill="black"/>
</svg>
