<svg width="127" height="19" viewBox="0 0 127 19" fill="none" xmlns="http://www.w3.org/2000/svg">
<path d="M12.5 3.84V3.94C12.5 5.00667 12.4667 6.20667 12.4 7.54C12.3467 8.87333 12.1467 10.4267 11.8 12.2L13.88 12.42C14.0533 11.4867 14.1867 10.6267 14.28 9.84C14.3733 9.04 14.44 8.3 14.48 7.62C14.5333 6.92667 14.56 6.28 14.56 5.68C14.5733 5.08 14.58 4.5 14.58 3.94V2.16H1.72V3.84H12.5ZM16.34 14.48H8.18V8.12H6.1V14.48H0.0200001V16.18H16.34V14.48ZM32.6984 0.479999H30.7384V4.86H28.7384V0.82H26.7984V11H28.7384V6.54H30.7384V11.08H32.6984V0.479999ZM25.2584 1.78H18.1784V3.44H23.1384C22.9651 4.85333 22.4118 6.08 21.4784 7.12C20.5584 8.16 19.1918 9.04 17.3784 9.76L18.3584 11.24C20.7318 10.3067 22.4718 9.06667 23.5784 7.52C24.6984 5.97333 25.2584 4.06 25.2584 1.78ZM20.4184 11.9V13.56H30.6384V18.56H32.6984V11.9H20.4184ZM47.7169 5.02H44.5169V6.7H47.7169V11.24H49.7769V0.479999H47.7169V5.02ZM44.5369 10.66L45.5569 9.04C44.8769 8.8 44.2702 8.49333 43.7369 8.12C43.2169 7.73333 42.7769 7.3 42.4169 6.82C42.0569 6.34 41.7835 5.82667 41.5969 5.28C41.4102 4.73333 41.3169 4.17333 41.3169 3.6V3.36H45.0769V1.7H35.4169V3.36H39.2369V3.62C39.2369 4.23333 39.1369 4.84 38.9369 5.44C38.7369 6.04 38.4502 6.6 38.0769 7.12C37.7035 7.64 37.2435 8.10667 36.6969 8.52C36.1502 8.92 35.5235 9.24667 34.8169 9.5L35.8769 11.14C36.9569 10.7533 37.8702 10.1867 38.6169 9.44C39.3635 8.68 39.9369 7.8 40.3369 6.8C40.7235 7.68 41.2702 8.46 41.9769 9.14C42.6835 9.80667 43.5369 10.3133 44.5369 10.66ZM43.7769 11.72C42.8302 11.72 41.9769 11.8 41.2169 11.96C40.4702 12.1067 39.8302 12.3267 39.2969 12.62C38.7769 12.9133 38.3769 13.2733 38.0969 13.7C37.8169 14.1133 37.6769 14.5933 37.6769 15.14C37.6769 15.6733 37.8169 16.1533 38.0969 16.58C38.3769 17.0067 38.7769 17.3667 39.2969 17.66C39.8302 17.9533 40.4702 18.1733 41.2169 18.32C41.9769 18.48 42.8302 18.56 43.7769 18.56C44.7235 18.56 45.5702 18.48 46.3169 18.32C47.0635 18.1733 47.6969 17.9533 48.2169 17.66C48.7502 17.3667 49.1569 17.0067 49.4369 16.58C49.7169 16.1533 49.8569 15.6733 49.8569 15.14C49.8569 14.5933 49.7169 14.1133 49.4369 13.7C49.1569 13.2733 48.7502 12.9133 48.2169 12.62C47.6969 12.3267 47.0635 12.1067 46.3169 11.96C45.5702 11.8 44.7235 11.72 43.7769 11.72ZM43.7769 16.96C42.4835 16.96 41.4835 16.8067 40.7769 16.5C40.0835 16.1933 39.7369 15.74 39.7369 15.14C39.7369 14.54 40.0835 14.0867 40.7769 13.78C41.4835 13.4733 42.4835 13.32 43.7769 13.32C45.0702 13.32 46.0635 13.4733 46.7569 13.78C47.4502 14.0867 47.7969 14.54 47.7969 15.14C47.7969 15.74 47.4502 16.1933 46.7569 16.5C46.0635 16.8067 45.0702 16.96 43.7769 16.96ZM68.5753 14.64H61.3953V11H66.6953V1.68H64.6553V4.72H56.0953V1.68H54.0553V11H59.3353V14.64H52.2153V16.34H68.5753V14.64ZM56.0953 9.34V6.38H64.6553V9.34H56.0953ZM87.9664 10.78V0.46H85.8864V10.78H87.9664ZM82.5664 9.1V1.6H74.0064V9.1H82.5664ZM80.5664 3.24V7.46H76.0264V3.24H80.5664ZM83.1464 13.48H88.3064V11.9H83.1264V10.28H81.0264V11.9H75.8464V13.48H81.0264C80.9864 13.8533 80.8131 14.2333 80.5064 14.62C80.2131 14.9933 79.8064 15.34 79.2864 15.66C78.7797 15.98 78.1731 16.2533 77.4664 16.48C76.7597 16.7067 75.9864 16.86 75.1464 16.94L75.8264 18.5C77.2797 18.3267 78.5464 17.9733 79.6264 17.44C80.7064 16.9067 81.5264 16.24 82.0864 15.44C82.6464 16.24 83.4531 16.9067 84.5064 17.44C85.5731 17.9733 86.8331 18.3267 88.2864 18.5L88.9664 16.94C88.1264 16.8467 87.3597 16.6867 86.6664 16.46C85.9731 16.22 85.3731 15.9467 84.8664 15.64C84.3597 15.32 83.9531 14.9733 83.6464 14.6C83.3531 14.2267 83.1864 13.8533 83.1464 13.48ZM109.378 0.479999H107.418V18.56H109.378V0.479999ZM104.018 0.839999V6.46H101.778V8.12H104.018V10.66H102.078V10.38C102.078 9.74 101.984 9.16 101.798 8.64C101.611 8.12 101.344 7.67333 100.998 7.3C100.664 6.91333 100.264 6.62 99.7975 6.42C99.3308 6.20667 98.8175 6.1 98.2575 6.1C97.6975 6.1 97.1842 6.20667 96.7175 6.42C96.2642 6.62 95.8642 6.91333 95.5175 7.3C95.1842 7.67333 94.9242 8.12 94.7375 8.64C94.5508 9.16 94.4575 9.74 94.4575 10.38C94.4575 10.9933 94.5508 11.56 94.7375 12.08C94.9242 12.6 95.1842 13.0467 95.5175 13.42C95.8642 13.7933 96.2642 14.0867 96.7175 14.3C97.1842 14.5 97.6975 14.6 98.2575 14.6C99.0575 14.6133 99.7575 14.42 100.358 14.02C100.958 13.6067 101.411 13.04 101.718 12.32H104.018V17.7H105.958V0.839999H104.018ZM102.658 5.08V3.42H99.2975V0.939999H97.2575V3.42H93.9175V5.08H102.658ZM98.2575 12.88C97.6575 12.88 97.1708 12.6533 96.7975 12.2C96.4375 11.7467 96.2575 11.14 96.2575 10.38C96.2575 9.60667 96.4375 8.99333 96.7975 8.54C97.1708 8.07333 97.6575 7.84 98.2575 7.84C98.8575 7.84 99.3375 8.07333 99.6975 8.54C100.071 8.99333 100.258 9.60667 100.258 10.38C100.258 11.14 100.071 11.7467 99.6975 12.2C99.3375 12.6533 98.8575 12.88 98.2575 12.88ZM126.636 0.479999H124.676V5.06H122.676V0.82H120.756V11.34H122.676V6.74H124.676V11.46H126.636V0.479999ZM119.856 10.18L119.636 8.5C119.196 8.58 118.763 8.64667 118.336 8.7C117.909 8.75333 117.469 8.8 117.016 8.84C116.576 8.88 116.109 8.90667 115.616 8.92C115.136 8.93333 114.609 8.94 114.036 8.94V6.92H118.876V5.32H114.036V3.42H119.076V1.76H112.036V10.62H113.256C113.963 10.62 114.603 10.6133 115.176 10.6C115.763 10.5867 116.316 10.5667 116.836 10.54C117.356 10.5133 117.856 10.4733 118.336 10.42C118.829 10.3533 119.336 10.2733 119.856 10.18ZM114.376 12.34V14H124.576V18.56H126.636V12.34H114.376Z" fill="black"/>
</svg>
