<svg width="28" height="15" viewBox="0 0 28 15" fill="none" xmlns="http://www.w3.org/2000/svg">
<path d="M0.896 3.648H9.36V2.592H5.776V0.848H4.464V2.592H0.896V3.648ZM14.112 6.672V5.568H11.984V0.848H10.672V11.6H11.984V6.672H14.112ZM8.56 7.104C8.56 5.504 7.168 4.448 5.12 4.448C3.088 4.448 1.696 5.504 1.696 7.104C1.696 8.72 3.088 9.776 5.12 9.776C7.168 9.776 8.56 8.72 8.56 7.104ZM2.944 7.104C2.944 6.08 3.776 5.472 5.12 5.472C6.416 5.472 7.312 6.08 7.312 7.104C7.312 8.128 6.416 8.752 5.12 8.752C3.776 8.752 2.944 8.128 2.944 7.104ZM12.624 13.792H4.368V10.752H3.056V14.864H12.624V13.792ZM27.7908 13.376V12.288H21.9187V8.608H26.2868V7.552H17.7267V3.056H26.1428V1.984H16.4147V8.608H20.5908V12.288H14.7507V13.376H27.7908Z" fill="black"/>
</svg>
