<svg width="42" height="16" viewBox="0 0 42 16" fill="none" xmlns="http://www.w3.org/2000/svg">
<path d="M12.1637 0.768H10.5157V8.896H12.1637V0.768ZM7.82775 1.648H1.15575V2.976H6.06775C5.91842 4.07467 5.36908 5.04533 4.41975 5.888C3.48108 6.73067 2.13175 7.376 0.371749 7.824L0.995749 9.12C2.07308 8.84267 3.03308 8.47467 3.87575 8.016C4.71842 7.55733 5.43308 7.01333 6.01975 6.384C6.60642 5.75467 7.05442 5.04533 7.36375 4.256C7.67308 3.456 7.82775 2.58667 7.82775 1.648ZM2.72375 9.552V15.056H12.1637V9.552H2.72375ZM4.35575 13.728V10.864H10.5477V13.728H4.35575ZM25.6505 7.664V1.344H24.0025V3.168H17.3945V1.344H15.7465V7.664H25.6505ZM24.0025 4.496V6.336H17.3945V4.496H24.0025ZM27.2665 10.56V9.232H14.1625V10.56H19.8425V15.248H21.4905V10.56H27.2665ZM41.4252 5.104H39.3772V0.768H37.7292V11.424H39.3772V6.464H41.4252V5.104ZM35.7772 9.168L36.6092 7.856C36.0652 7.664 35.5799 7.41333 35.1532 7.104C34.7266 6.79467 34.3639 6.44267 34.0652 6.048C33.7772 5.65333 33.5532 5.22667 33.3932 4.768C33.2439 4.30933 33.1692 3.84 33.1692 3.36V1.664H31.5052V3.344C31.5052 3.86667 31.4252 4.37867 31.2652 4.88C31.1159 5.38133 30.8919 5.84533 30.5932 6.272C30.2946 6.69867 29.9212 7.07733 29.4732 7.408C29.0359 7.73867 28.5292 8 27.9532 8.192L28.8492 9.472C29.7132 9.16267 30.4386 8.71467 31.0252 8.128C31.6119 7.54133 32.0599 6.848 32.3692 6.048C32.6892 6.752 33.1372 7.38133 33.7132 7.936C34.2892 8.48 34.9772 8.89067 35.7772 9.168ZM31.9052 13.616V10.4H30.2572V14.96H39.9532V13.616H31.9052Z" fill="black"/>
</svg>
