<svg width="73" height="16" viewBox="0 0 73 16" fill="none" xmlns="http://www.w3.org/2000/svg">
<path d="M1.52 3.472H13.056V2.416H8V0.751999H6.672V2.416H1.52V3.472ZM2.672 6.656C2.672 8.192 4.352 9.04 7.344 9.04C10.24 9.04 11.984 8.192 11.984 6.656C11.984 5.136 10.24 4.288 7.344 4.288C4.352 4.288 2.672 5.12 2.672 6.656ZM10.624 6.656C10.624 7.552 9.472 8.032 7.344 8.032C5.216 8.032 4.032 7.552 4.032 6.656C4.032 5.76 5.216 5.28 7.344 5.28C9.472 5.28 10.624 5.76 10.624 6.656ZM10.464 11.072H13.856V10.016H0.848V11.072H4.224V15.2H5.536V11.072H9.152V15.2H10.464V11.072ZM26.9588 15.184V0.832H25.6948V6.592H23.6628V1.152H22.4307V14.464H23.6628V7.664H25.6948V15.184H26.9588ZM16.5747 10.56V3.648H20.6228V2.576H15.2787V11.648H16.2227C18.3507 11.648 19.8387 11.6 21.5347 11.216L21.4227 10.128C19.8707 10.464 18.4788 10.56 16.5747 10.56ZM41.6455 9.664V8.608H35.8375V6.864H40.3655V5.808H38.2535V2.544H40.4135V1.488H29.8855V2.544H32.0615V5.808H29.9335V6.864H34.5255V8.608H28.6695V9.664H41.6455ZM36.9415 5.808H33.3735V2.544H36.9415V5.808ZM40.2215 13.792H31.6615V10.928H30.3495V14.864H40.2215V13.792ZM46.1024 9.008H52.5664V5.952H55.8784V11.456H57.2064V0.832H55.8784V4.88H52.5664V1.792H51.2704V4.32H47.3984V1.792H46.1024V9.008ZM47.3984 5.36H51.2704V7.952H47.3984V5.36ZM57.5424 14.864V13.792H49.2864V10.416H47.9744V14.864H57.5424ZM59.9411 4H71.5891V2.928H66.4531V1.056H65.1411V2.928H59.9411V4ZM72.3091 13.504V12.432H66.4531V10.416C68.9651 10.24 70.4691 9.296 70.4691 7.696C70.4691 5.968 68.6611 4.976 65.7971 4.976C62.9011 4.976 61.0771 5.968 61.0771 7.696C61.0771 9.296 62.5651 10.272 65.1411 10.416V12.432H59.3011V13.504H72.3091ZM62.4051 7.696C62.4051 6.608 63.6691 6 65.7971 6C67.8611 6 69.1411 6.608 69.1411 7.696C69.1411 8.784 67.8611 9.408 65.7971 9.408C63.6691 9.408 62.4051 8.784 62.4051 7.696Z" fill="black"/>
</svg>
