<svg width="80" height="11" viewBox="0 0 80 11" fill="none" xmlns="http://www.w3.org/2000/svg">
<path d="M0.709139 1.444H5.24514C5.19714 2.248 5.05314 3.004 4.82514 3.724L4.78914 3.856L0.517139 3.964V4.756L4.47714 4.636C4.29714 5.008 4.09314 5.368 3.86514 5.716C3.04914 6.928 1.84914 7.924 0.301139 8.632L0.937139 9.268C4.20114 7.636 6.26514 4.78 6.20514 0.651999H0.709139V1.444ZM9.04914 10.9V5.32H10.7891V4.504H9.04914V0.196H8.13714V10.9H9.04914ZM11.0092 8.98V9.772H21.5212V8.98H11.0092ZM20.5492 5.584H13.1092V1.444H20.3092L20.3212 0.651999H12.1972V6.388H20.5612L20.5492 5.584ZM28.0412 10.96C28.7252 10.564 29.3852 9.928 29.8532 9.16L29.9612 8.968C30.2132 9.292 30.4772 9.604 30.7652 9.904C31.1852 10.312 31.6172 10.648 32.0732 10.9L32.6612 10.204C32.1572 9.952 31.7012 9.64 31.2812 9.268C30.8972 8.932 30.5852 8.548 30.3332 8.128L30.4052 7.888C30.5492 7.42 30.6212 6.928 30.6212 6.412H29.6852C29.6492 7.288 29.4452 8.068 29.0612 8.752C28.6892 9.412 28.1612 9.928 27.5012 10.276V6.412H26.6132V7.78H24.2372V6.412H23.3252V10.828H27.5012V10.372L28.0412 10.96ZM22.6052 1.336H27.1172C26.8652 3.124 24.7532 4.66 22.0412 5.08L22.4492 5.836C25.2092 5.32 28.1252 3.64 28.1252 0.568H22.6052V1.336ZM31.2452 5.86V3.472H32.7212V2.656H31.2452V0.196H30.3332V5.86H31.2452ZM24.2372 10.036V8.548H26.6132V10.036H24.2372ZM46.7427 5.824C45.7107 5.512 44.7987 5.092 44.0187 4.552C43.2627 4.036 42.6507 3.436 42.1587 2.728C42.3507 2.32 42.4827 1.888 42.5547 1.444H45.9387V0.651999H37.6227V1.444H41.5707C41.4747 1.948 41.3067 2.416 41.0547 2.848C40.2147 4.336 38.6187 5.392 36.7587 5.872L37.2627 6.556C38.5227 6.208 39.7827 5.536 40.7547 4.624C41.1267 4.276 41.4627 3.88 41.7387 3.46C41.9667 3.76 42.2067 4.036 42.4827 4.3C43.5267 5.32 44.8467 6.112 46.2267 6.544L46.7427 5.824ZM36.5307 9.1V9.892H47.0427V9.1H42.2547V6.064H41.3187V9.1H36.5307ZM55.9148 9.172V8.404L52.2548 8.452V7.252C52.4708 7.228 52.6748 7.192 52.8788 7.132C53.8868 6.832 54.6428 6.1 54.6428 5.176C54.6428 3.928 53.3108 3.076 51.7868 3.076C50.2628 3.076 48.9308 3.928 48.9308 5.176C48.9308 6.1 49.6868 6.832 50.6948 7.132C50.8988 7.192 51.1028 7.228 51.3188 7.252V8.464L47.7308 8.5V9.292L55.9148 9.172ZM57.3068 10.9V0.196H56.3948V10.9H57.3068ZM51.7868 6.508C50.6228 6.508 49.8428 5.944 49.8428 5.176C49.8428 4.408 50.6228 3.844 51.7868 3.844C52.9508 3.844 53.7308 4.408 53.7308 5.176C53.7308 5.944 52.9508 6.508 51.7868 6.508ZM55.3628 2.656V1.864H48.2108V2.656H55.3628ZM49.8068 0.339999V1.132H53.7668V0.339999H49.8068ZM64.2228 6.568C64.2228 4.996 63.1908 3.664 61.5948 3.664C59.9988 3.664 58.9668 4.996 58.9668 6.568C58.9668 8.14 59.9988 9.472 61.5948 9.472C63.1908 9.472 64.2228 8.14 64.2228 6.568ZM66.1308 10.6V5.392H67.6788V10.888H68.5908V0.196H67.6788V4.576H66.1308V0.316H65.2308V10.6H66.1308ZM63.3228 6.568C63.3228 7.72 62.7108 8.692 61.5948 8.692C60.4788 8.692 59.8668 7.72 59.8668 6.568C59.8668 5.416 60.4788 4.444 61.5948 4.444C62.7108 4.444 63.3228 5.416 63.3228 6.568ZM64.4988 2.92V2.128H58.5708V2.92H64.4988ZM63.2388 1.132V0.339999H59.9508V1.132H63.2388ZM77.3068 4.228C76.5748 4.024 75.9148 3.736 75.3268 3.376C74.8348 3.076 74.4268 2.704 74.1028 2.26L74.1148 2.236C74.2708 1.948 74.3788 1.648 74.4388 1.324H76.8508V0.532H70.5868V1.324H73.4668C73.4068 1.552 73.3348 1.78 73.2268 1.996C72.6508 3.16 71.4148 4.036 69.9508 4.444L70.4908 5.116C71.4028 4.828 72.3988 4.276 73.1668 3.52C73.3468 3.34 73.5148 3.136 73.6708 2.932C73.7908 3.076 73.9108 3.208 74.0428 3.34C74.8228 4.072 75.8308 4.672 76.8148 4.96L77.3068 4.228ZM79.2508 10.9V0.196H78.3388V7.9H75.4948V8.68H78.3388V10.9H79.2508ZM73.9108 10.648V6.664L77.6188 6.604V5.836L69.6748 5.932V6.724L72.9748 6.676V10.648H73.9108Z" fill="black"/>
</svg>
