<svg width="122" height="13" viewBox="0 0 122 13" fill="none" xmlns="http://www.w3.org/2000/svg">
<path d="M0.131 0.950999V9.739H4.928V5.358H6.696V11.65H7.671V0.508999H6.696V4.474H4.928V0.950999H0.131ZM3.953 8.881H1.106V1.809H3.953V8.881ZM10.141 11.962V0.379H9.153V11.962H10.141ZM19.5314 9.154C18.6604 8.595 17.8934 7.906 17.2174 7.1C16.5804 6.333 16.0604 5.54 15.6704 4.708C15.7484 4.435 15.8264 4.149 15.8914 3.863C16.0994 2.914 16.2034 1.874 16.2034 0.743H15.1894C15.1504 4.864 13.6684 7.841 11.1334 9.57L11.7964 10.259C13.1094 9.284 14.2274 8.023 14.9944 6.463C15.0984 6.242 15.2024 6.034 15.2934 5.813C15.4234 6.06 15.5664 6.294 15.7354 6.541C16.5804 7.841 17.7374 9.102 18.8554 9.908L19.5314 9.154ZM22.0014 11.975V0.379H21.0134V11.975H22.0014ZM31.5217 9.193C30.6637 8.634 29.8837 7.971 29.1947 7.204C28.5187 6.45 27.9857 5.644 27.6087 4.786C27.6607 4.617 27.7127 4.448 27.7517 4.266C27.9597 3.486 28.0897 2.641 28.1417 1.731H30.9757V0.872999H23.7867V1.731H27.1017C27.0367 2.55 26.9197 3.317 26.7377 4.032C26.1137 6.541 24.8007 8.413 23.0717 9.622L23.7347 10.311C24.9697 9.388 26.0357 8.218 26.8157 6.723C26.9587 6.45 27.1017 6.164 27.2187 5.865C27.3617 6.138 27.5307 6.398 27.6997 6.658C28.5837 7.958 29.7277 9.154 30.8587 9.96L31.5217 9.193ZM33.8877 11.975V0.379H32.8997V11.975H33.8877ZM35.1011 5.8V6.606H46.4891V5.8H35.1011ZM45.5141 11.897V11.078H37.3111V10.09H45.2411V7.555H36.3231V8.361H44.2531V9.297H36.3231V11.897H45.5141ZM45.3841 4.903V4.084H37.3761V3.057H45.1891V0.508999H36.3881V1.315H44.2011V2.277H36.3881V4.903H45.3841ZM61.3151 6.515V0.379H60.3271V6.515H61.3151ZM60.3011 7.113V8.517H53.6971V7.113H52.7091V11.897H61.2891V7.113H60.3011ZM53.6971 11.039V9.349H60.3011V11.039H53.6971ZM54.5941 0.287999C52.7611 0.287999 51.2661 1.549 51.2661 3.317C51.2661 5.085 52.7611 6.346 54.5941 6.346C56.4271 6.346 57.9221 5.085 57.9221 3.317C57.9221 1.549 56.4271 0.287999 54.5941 0.287999ZM54.5941 5.514C53.2031 5.514 52.2541 4.604 52.2541 3.317C52.2541 2.03 53.2031 1.12 54.5941 1.12C55.9851 1.12 56.9341 2.03 56.9341 3.317C56.9341 4.604 55.9851 5.514 54.5941 5.514ZM69.1195 4.305V0.678H63.5295V1.51H68.1315V3.499H63.5295V7.269L70.9005 6.931V6.112L64.5175 6.359V4.305H69.1195ZM73.2015 7.672V0.379H72.2135V1.822H69.9125V2.667H72.2135V4.162H69.9125V5.007H72.2135V7.672H73.2015ZM73.1755 12.027V8.322H64.2055V9.18H72.1875V12.027H73.1755ZM80.8628 7.282C80.8628 5.579 79.7448 4.136 78.0158 4.136C76.2868 4.136 75.1688 5.579 75.1688 7.282C75.1688 8.985 76.2868 10.428 78.0158 10.428C79.7448 10.428 80.8628 8.985 80.8628 7.282ZM82.9298 11.65V6.008H84.6068V11.962H85.5948V0.379H84.6068V5.124H82.9298V0.508999H81.9548V11.65H82.9298ZM79.8878 7.282C79.8878 8.53 79.2248 9.583 78.0158 9.583C76.8068 9.583 76.1438 8.53 76.1438 7.282C76.1438 6.034 76.8068 4.981 78.0158 4.981C79.2248 4.981 79.8878 6.034 79.8878 7.282ZM81.1618 3.33V2.472H74.7398V3.33H81.1618ZM79.7968 1.393V0.534999H76.2348V1.393H79.7968ZM97.4422 5.046C96.3372 4.851 95.3752 4.552 94.5822 4.175C93.8152 3.811 93.1912 3.317 92.6842 2.693C92.8792 2.342 93.0092 1.978 93.0612 1.601H96.7142V0.743H87.7052V1.601H91.9822C91.9042 1.991 91.7352 2.355 91.4882 2.706C90.6172 3.915 88.8492 4.812 86.8342 5.072L87.3542 5.865C88.6152 5.696 90.0192 5.15 91.1112 4.37C91.5142 4.071 91.8782 3.759 92.1772 3.408C92.4242 3.681 92.6972 3.928 92.9962 4.175C94.0752 5.02 95.4792 5.618 96.9352 5.852L97.4422 5.046ZM92.7232 11.975V7.867H97.9102V7.009H86.5222V7.867H91.7092V11.975H92.7232ZM106.898 11.663V0.496H105.923V4.357H103.804V5.241H105.923V11.663H106.898ZM109.368 11.962V0.379H108.38V11.962H109.368ZM98.9026 10.259C100.008 9.076 100.957 7.672 101.62 5.904C102.296 7.477 103.336 8.946 104.532 9.986L105.182 9.297C103.778 8.14 102.621 6.45 102.01 4.643C102.309 3.447 102.478 2.173 102.517 0.782H101.529C101.464 4.513 100.203 7.672 98.1746 9.674L98.9026 10.259ZM115.976 0.352999C113.441 0.352999 111.738 2.004 111.738 3.876C111.738 5.748 113.441 7.399 115.976 7.399C118.511 7.399 120.214 5.748 120.214 3.876C120.214 2.004 118.511 0.352999 115.976 0.352999ZM115.976 6.541C113.974 6.541 112.726 5.306 112.726 3.876C112.726 2.446 113.974 1.211 115.976 1.211C117.978 1.211 119.226 2.446 119.226 3.876C119.226 5.306 117.978 6.541 115.976 6.541ZM110.295 10.025V10.883H121.683V10.025H119.122V7.568H118.121V10.025H113.896V7.568H112.895V10.025H110.295Z" fill="#CCCCCC"/>
</svg>
