<svg width="69" height="11" viewBox="0 0 69 11" fill="none" xmlns="http://www.w3.org/2000/svg">
<path d="M5.31116 6.844H7.14716V10.6H8.04716V0.316H7.14716V2.524H5.65916V3.328H7.14716V6.04H5.31116V6.844ZM1.05116 1.504H4.49516C4.39916 4.048 2.94716 7.024 0.583158 8.656L1.24316 9.268C3.67916 7.444 5.49116 4.456 5.45516 0.711999H1.05116V1.504ZM10.3992 10.888V0.196H9.48716V10.888H10.3992ZM18.8992 5.524C17.8192 5.044 16.8472 4.312 16.1512 3.436C15.9472 3.184 15.7792 2.92 15.6352 2.656C15.7912 2.272 15.8872 1.864 15.9472 1.444H18.5152V0.651999H12.0592V1.444H14.9752C14.9152 1.876 14.8072 2.284 14.6392 2.668C14.0152 4.072 12.8152 5.164 11.4592 5.728L11.9992 6.364C12.9592 5.896 13.9192 5.188 14.6392 4.312C14.8672 4.036 15.0712 3.736 15.2512 3.436C15.5992 3.952 16.0072 4.432 16.4992 4.876C17.0872 5.416 17.7112 5.86 18.3712 6.208L18.8992 5.524ZM20.7472 10.9V5.332H22.2952V4.516H20.7472V0.196H19.8352V10.9H20.7472ZM19.3552 9.052V8.284L15.7072 8.332V5.62H14.7712V8.344L11.4112 8.38V9.172L19.3552 9.052ZM35.7767 10.9V0.196H34.8647V10.9H35.7767ZM29.7167 0.7C27.7967 0.7 26.3207 2.164 26.3207 4.324C26.3207 6.496 27.7967 7.96 29.7167 7.96C31.6367 7.96 33.1127 6.496 33.1127 4.324C33.1127 2.164 31.6367 0.7 29.7167 0.7ZM29.7167 1.516C31.1447 1.516 32.1767 2.584 32.1767 4.312C32.1767 6.004 31.2167 7.144 29.7167 7.144C28.2167 7.144 27.2567 6.004 27.2567 4.312C27.2567 2.584 28.2887 1.516 29.7167 1.516ZM43.2448 8.632C42.5848 8.14 42.0328 7.564 41.5648 6.904C41.1688 6.328 40.8328 5.704 40.5568 5.032C40.5808 4.972 40.6048 4.912 40.6168 4.852C40.7848 4.288 40.8928 3.676 40.9288 3.04H43.0408V2.248H37.4008V3.04H39.9928C39.9568 3.592 39.8728 4.12 39.7288 4.636C39.2008 6.508 38.1088 8.008 36.8248 8.956L37.4728 9.532C38.3488 8.812 39.2008 7.876 39.8368 6.736C39.9568 6.508 40.0648 6.28 40.1728 6.052C40.4128 6.556 40.6888 7.036 41.0008 7.48C41.4928 8.176 42.0448 8.776 42.6568 9.28L43.2448 8.632ZM44.9128 10.6V0.316H44.0128V4.732H42.2728V5.548H44.0128V10.6H44.9128ZM47.1328 10.888V0.196H46.2208V10.888H47.1328ZM41.9008 1.132V0.339999H38.6608V1.132H41.9008ZM53.7368 6.568C53.7368 4.996 52.7048 3.664 51.1088 3.664C49.5128 3.664 48.4808 4.996 48.4808 6.568C48.4808 8.14 49.5128 9.472 51.1088 9.472C52.7048 9.472 53.7368 8.14 53.7368 6.568ZM55.6448 10.6V5.392H57.1928V10.888H58.1048V0.196H57.1928V4.576H55.6448V0.316H54.7448V10.6H55.6448ZM52.8368 6.568C52.8368 7.72 52.2248 8.692 51.1088 8.692C49.9928 8.692 49.3808 7.72 49.3808 6.568C49.3808 5.416 49.9928 4.444 51.1088 4.444C52.2248 4.444 52.8368 5.416 52.8368 6.568ZM54.0128 2.92V2.128H48.0848V2.92H54.0128ZM52.7528 1.132V0.339999H49.4648V1.132H52.7528ZM66.8208 4.228C66.0888 4.024 65.4288 3.736 64.8408 3.376C64.3488 3.076 63.9408 2.704 63.6168 2.26L63.6288 2.236C63.7848 1.948 63.8928 1.648 63.9528 1.324H66.3648V0.532H60.1008V1.324H62.9808C62.9208 1.552 62.8488 1.78 62.7408 1.996C62.1648 3.16 60.9288 4.036 59.4648 4.444L60.0048 5.116C60.9168 4.828 61.9128 4.276 62.6808 3.52C62.8608 3.34 63.0288 3.136 63.1848 2.932C63.3048 3.076 63.4248 3.208 63.5568 3.34C64.3368 4.072 65.3448 4.672 66.3288 4.96L66.8208 4.228ZM68.7648 10.9V0.196H67.8528V7.9H65.0088V8.68H67.8528V10.9H68.7648ZM63.4248 10.648V6.664L67.1328 6.604V5.836L59.1888 5.932V6.724L62.4888 6.676V10.648H63.4248Z" fill="black"/>
</svg>
