<svg width="88" height="20" viewBox="0 0 88 20" fill="none" xmlns="http://www.w3.org/2000/svg">
<path d="M30.851 15.702H32.541V9.956H33.685V15.988H35.401V4.353H33.685V8.448H32.541V4.483H30.851V15.702ZM25.118 4.769V13.882L30.331 13.57V12.114L26.834 12.27V4.769H25.118ZM40.776 14.402C41.478 13.869 42.102 13.271 42.661 12.595C43.142 12.01 43.571 11.386 43.922 10.71L44 10.853C44.832 12.166 45.989 13.375 47.159 14.129L48.212 12.855C46.587 11.932 45.391 10.645 44.65 8.994C44.767 8.617 44.871 8.24 44.962 7.837C45.079 7.343 45.157 6.836 45.209 6.303H47.835V4.821H40.386V6.303H43.428C43.389 6.706 43.324 7.109 43.246 7.499C42.778 9.904 41.595 11.893 39.606 13.193L40.776 14.402ZM50.357 16.001V10.008H52.008V8.5H50.357V4.353H48.615V16.001H50.357ZM60.0984 9.748C59.2534 9.423 58.5124 8.981 57.8494 8.435C57.3944 8.058 57.0304 7.603 56.7314 7.07C56.7704 6.979 56.7964 6.875 56.8354 6.771C57.0824 6.056 57.2124 5.315 57.2254 4.535H55.4574C55.3534 6.992 54.1314 9.098 51.6484 10.164L52.7404 11.412C53.9754 10.827 55.0804 9.891 55.8734 8.708L56.0034 8.526C56.8354 9.67 57.9534 10.58 59.1234 11.074L60.0984 9.748ZM53.7674 11.893V15.871H62.8934V14.389H55.5094V11.893H53.7674ZM62.5164 12.894V8.565H63.8944V7.057H62.5164V4.353H60.7744V12.894H62.5164ZM65.3287 12.205V15.78H74.7017V14.298H67.0707V12.205H65.3287ZM74.3377 13.024V9.098H75.6377V7.59H74.3377V4.353H72.5957V13.024H74.3377ZM72.1277 11.451V10.021L68.0587 10.073V7.59H66.2907V10.099L63.8077 10.125V11.581L72.1277 11.451ZM71.0747 9.371C71.3737 8.123 71.4907 6.602 71.4907 4.613H64.3147V6.069H69.6967C69.6967 6.914 69.6057 8.123 69.3587 9.371H71.0747ZM84.2741 13.752V12.296L78.3591 12.543V10.034H82.7271V4.73H76.6171V6.212H80.9851V8.565H76.6171V14.155L84.2741 13.752ZM86.5361 16.001V4.353H84.7941V16.001H86.5361Z" fill="black"/>
<path d="M6.25 8.75H13.75L10.8333 5.83333M13.75 11.25H6.25L9.16667 14.1667M16.25 2.5H3.75C3.41848 2.5 3.10054 2.6317 2.86612 2.86612C2.6317 3.10054 2.5 3.41848 2.5 3.75V16.25C2.5 16.5815 2.6317 16.8995 2.86612 17.1339C3.10054 17.3683 3.41848 17.5 3.75 17.5H16.25C16.5815 17.5 16.8995 17.3683 17.1339 17.1339C17.3683 16.8995 17.5 16.5815 17.5 16.25V3.75C17.5 3.41848 17.3683 3.10054 17.1339 2.86612C16.8995 2.6317 16.5815 2.5 16.25 2.5Z" stroke="#D7191F" stroke-linecap="round" stroke-linejoin="round"/>
</svg>
