<svg width="88" height="20" viewBox="0 0 88 20" fill="none" xmlns="http://www.w3.org/2000/svg">
<path d="M30.851 15.702H32.541V9.956H33.685V15.988H35.401V4.353H33.685V8.448H32.541V4.483H30.851V15.702ZM25.118 4.769V13.882L30.331 13.57V12.114L26.834 12.27V4.769H25.118ZM46.743 15.702H48.433V9.956H49.447V15.988H51.163V4.353H49.447V8.448H48.433V4.483H46.743V15.702ZM40.88 4.899V13.947L46.223 13.635V12.179L42.596 12.335V6.381H45.742V4.899H40.88ZM63.5044 10.775V9.527H52.0644V10.775H56.9004V11.373H53.2344V12.621H60.5664V13.063H53.2344V15.923H62.5814V14.662H54.9764V14.207H62.3084V11.373H58.6684V10.775H63.5044ZM53.1564 9.241C54.4564 9.189 55.8994 8.968 57.0694 8.474C57.3034 8.37 57.5244 8.253 57.7324 8.136C57.9534 8.279 58.1874 8.409 58.4474 8.526C59.5654 9.007 60.9954 9.202 62.3474 9.15L63.1014 7.876C61.5414 7.85 60.2024 7.772 59.1884 7.356L58.7854 7.161C58.7984 7.122 58.8244 7.096 58.8504 7.057H62.3474V5.757H53.1694V7.057H56.7184C56.4844 7.226 56.1984 7.356 55.8604 7.46C54.9894 7.733 53.8064 7.863 52.4544 7.928L53.1564 9.241ZM60.3064 4.093H55.2104V5.393H60.3064V4.093ZM65.3287 12.205V15.78H74.7017V14.298H67.0707V12.205H65.3287ZM74.3377 13.024V9.098H75.6377V7.59H74.3377V4.353H72.5957V13.024H74.3377ZM72.1277 11.451V10.021L68.0587 10.073V7.59H66.2907V10.099L63.8077 10.125V11.581L72.1277 11.451ZM71.0747 9.371C71.3737 8.123 71.4907 6.602 71.4907 4.613H64.3147V6.069H69.6967C69.6967 6.914 69.6057 8.123 69.3587 9.371H71.0747ZM84.2741 13.752V12.296L78.3591 12.543V10.034H82.7271V4.73H76.6171V6.212H80.9851V8.565H76.6171V14.155L84.2741 13.752ZM86.5361 16.001V4.353H84.7941V16.001H86.5361Z" fill="black"/>
<path d="M2.5 7.50002V14.1667C2.5 14.6087 2.67559 15.0326 2.98816 15.3452C3.30072 15.6578 3.72464 15.8334 4.16667 15.8334H15.8333C16.2754 15.8334 16.6993 15.6578 17.0118 15.3452C17.3244 15.0326 17.5 14.6087 17.5 14.1667V7.50002M2.5 7.50002V5.83335C2.5 5.39133 2.67559 4.9674 2.98816 4.65484C3.30072 4.34228 3.72464 4.16669 4.16667 4.16669H15.8333C16.2754 4.16669 16.6993 4.34228 17.0118 4.65484C17.3244 4.9674 17.5 5.39133 17.5 5.83335V7.50002M2.5 7.50002H17.5M5.83333 10.8334H10" stroke="#D7191F" stroke-linecap="round" stroke-linejoin="round"/>
</svg>
