<svg width="42" height="9" viewBox="0 0 42 9" fill="none" xmlns="http://www.w3.org/2000/svg">
<path d="M4.30664 0.675781C2.46582 0.685547 1.13281 1.58398 1.13281 2.95117C1.13281 4.24023 2.28516 5.09473 3.92578 5.21191V7.0332H0.351562V7.67773H8.30078V7.0332H4.67773V5.21191C6.32812 5.09961 7.48047 4.24512 7.48047 2.95117C7.48047 1.58398 6.15234 0.685547 4.30664 0.675781ZM1.875 2.95117C1.87012 1.96973 2.90039 1.30566 4.30664 1.31055C5.71289 1.30566 6.73828 1.96973 6.73828 2.95117C6.73828 3.95215 5.71289 4.60156 4.30664 4.61133C2.90039 4.60156 1.87012 3.95215 1.875 2.95117ZM15.8914 0.119141H15.1199V2.52148H13.3328V3.15625H15.1199V6.48633H15.8914V0.119141ZM8.7332 4.74805L9.13359 5.37305C10.1639 4.9873 10.9646 4.19141 11.3406 3.18555C11.7166 4.08398 12.4734 4.81152 13.45 5.16797L13.8504 4.55273C12.5809 4.11816 11.7117 3.0293 11.7117 1.90625V1.45703H13.6551V0.822266H8.97734V1.45703H10.9402V1.90625C10.9402 3.15137 10.0125 4.29883 8.7332 4.74805ZM10.3152 8.60547H16.1355V7.96094H11.0867V5.91016H10.3152V8.60547ZM21.8734 8.09766C23.4408 8.09766 24.3441 6.7793 24.3441 4.46484C24.3441 2.16992 23.4262 0.832031 21.8734 0.832031C20.3158 0.832031 19.3979 2.16992 19.4027 4.46484C19.3979 6.7793 20.3061 8.09766 21.8734 8.09766ZM20.2523 4.46484C20.2572 2.63379 20.8578 1.59863 21.8734 1.59375C22.8891 1.59863 23.4896 2.63379 23.4848 4.46484C23.4896 6.2959 22.8939 7.31641 21.8734 7.31641C20.848 7.31641 20.2572 6.2959 20.2523 4.46484ZM27.5695 0.832031C26.0656 0.817383 25.0988 1.88672 25.0988 3.20508C25.0988 4.56738 26.1486 5.53906 27.4133 5.53906C28.1652 5.53906 28.8146 5.1875 29.2199 4.60156H29.3176C29.3078 6.32031 28.6047 7.31641 27.4523 7.31641C26.6662 7.31641 26.1828 6.84766 26.0266 6.21289H25.1574C25.3332 7.33594 26.2072 8.09766 27.4523 8.09766C29.1076 8.09766 30.1379 6.69629 30.1379 4.18164C30.1379 1.5791 28.7854 0.84668 27.5695 0.832031ZM25.9582 3.19531C25.9484 2.32129 26.6467 1.60352 27.5695 1.60352C28.5021 1.60352 29.1809 2.36523 29.1809 3.17578C29.1809 4.00586 28.4631 4.76758 27.5402 4.76758C26.6174 4.76758 25.9533 4.06934 25.9582 3.19531ZM31.6543 8.05859C32.001 8.05371 32.2842 7.77051 32.2793 7.42383C32.2842 7.08203 32.001 6.79883 31.6543 6.79883C31.3125 6.79883 31.0195 7.08203 31.0293 7.42383C31.0195 7.77051 31.3125 8.05371 31.6543 8.05859ZM31.0293 3.49805C31.0195 3.84473 31.3125 4.12793 31.6543 4.13281C32.001 4.12793 32.2842 3.84473 32.2793 3.49805C32.2842 3.15625 32.001 2.87305 31.6543 2.87305C31.3125 2.87305 31.0195 3.15625 31.0293 3.49805ZM35.7879 0.929688H34.8992L33.1414 2.10156V2.99023L34.8602 1.84766H34.8992V8H35.7879V0.929688ZM37.5973 8H38.5152L41.7477 1.75V0.929688H37.0992V1.71094H40.8395V1.75977L37.5973 8Z" fill="#666666"/>
</svg>
