<svg width="76" height="32" viewBox="0 0 76 32" fill="none" xmlns="http://www.w3.org/2000/svg">
<path d="M1.176 2.634H5.964C5.922 3.292 5.796 3.964 5.572 4.622L0.952 4.748V6.344L4.816 6.218C4.704 6.4 4.578 6.568 4.452 6.75C3.542 8.038 2.212 9.186 0.49 9.984L1.722 11.286C5.194 9.494 8.106 6.008 7.952 1.038H1.176V2.634ZM11.27 13.078V6.764H13.048V5.14H11.27V0.533999H9.394V13.078H11.27ZM25.9887 12.014V10.418H13.6687V12.014H25.9887ZM24.9247 6.4H16.8887V2.634H24.6447V1.038H15.0127V8.01H24.9247V6.4ZM33.4974 12.994V12.294L34.3934 13.246C34.7434 13.008 35.1074 12.714 35.4574 12.336C35.8074 11.972 36.1434 11.552 36.4374 11.076L36.5494 11.244C37.1374 12.126 37.9494 12.826 38.7054 13.19L39.7134 11.86C39.1114 11.594 38.5654 11.258 38.0894 10.852C37.6974 10.516 37.3754 10.096 37.1094 9.606L37.1654 9.452C37.3474 8.864 37.4594 8.234 37.4734 7.562H35.6254C35.5834 8.668 35.3454 9.578 34.9114 10.292C34.5334 10.922 34.0714 11.426 33.4974 11.832V7.59H31.6774V8.836H30.2214V7.59H28.4014V12.994H33.4974ZM27.5614 2.48H32.2934C31.7754 4.118 29.6754 5.392 26.7354 5.84L27.4914 7.268C30.5574 6.82 34.3654 4.832 34.3654 0.94H27.5614V2.48ZM38.0054 7.03V4.692H39.4894V3.096H38.0054V0.533999H36.1294V7.03H38.0054ZM31.6774 11.426H30.2214V10.32H31.6774V11.426Z" fill="#242D3C"/>
<path d="M8.45 30.75V21.83H7.69V30.75H8.45ZM3.4 22.25C1.8 22.25 0.57 23.47 0.57 25.27C0.57 27.08 1.8 28.3 3.4 28.3C5 28.3 6.23 27.08 6.23 25.27C6.23 23.47 5 22.25 3.4 22.25ZM3.4 22.93C4.59 22.93 5.45 23.82 5.45 25.26C5.45 26.67 4.65 27.62 3.4 27.62C2.15 27.62 1.35 26.67 1.35 25.26C1.35 23.82 2.21 22.93 3.4 22.93ZM14.3234 22.04V23.75H11.0934V22.04H10.3334V26.82H15.0834V24.71H17.0634V28.49H17.8234V21.83H17.0634V24.03H15.0834V22.04H14.3234ZM18.0734 30.65V29.99H11.9734V27.79H11.2134V30.65H18.0734ZM11.0934 26.16V24.41H14.3234V26.16H11.0934ZM30.428 30.69V30.03H24.468V29.07H30.228V26.88H23.708V27.52H29.468V28.45H23.708V30.69H30.428ZM22.948 22.14V26.09L28.868 25.81V25.18L23.708 25.39V22.78H27.648V22.14H22.948ZM30.228 26.42V24.23H31.458V23.57H30.228V21.83H29.468V26.42H30.228ZM34.3113 22.31C32.9713 22.31 31.8413 23.48 31.8413 25.27C31.8413 27.07 32.9713 28.24 34.3113 28.24C35.3313 28.24 36.1813 27.58 36.5813 26.5C36.6813 26.22 36.7413 25.91 36.7713 25.58H37.8013V30.51H38.5513V21.92H37.8013V24.9H36.7613C36.7313 24.6 36.6713 24.32 36.5813 24.06C36.1813 22.97 35.3313 22.31 34.3113 22.31ZM34.3113 27.57C33.3213 27.57 32.5913 26.7 32.5913 25.27C32.5913 23.84 33.3213 22.97 34.3113 22.97C35.3013 22.97 36.0313 23.84 36.0313 25.27C36.0313 26.7 35.3013 27.57 34.3113 27.57ZM40.2813 30.74V21.83H39.5213V30.74H40.2813ZM52.1859 30.75V25.71H53.6359V25.03H52.1859V21.83H51.4259V30.75H52.1859ZM45.1659 22.11V29.08L50.8859 28.77V28.11L45.9259 28.34V22.11H45.1659ZM62.0393 30.69V30.03H56.0793V29.11H61.8393V26.96H55.3193V27.6H61.0793V28.49H55.3193V30.69H62.0393ZM54.6393 22.78H58.3993C58.1893 24.27 56.4293 25.55 54.1693 25.9L54.5093 26.53C56.8093 26.1 59.2393 24.7 59.2393 22.14H54.6393V22.78ZM61.8393 26.5V24.43H63.0693V23.77H61.8393V21.83H61.0793V26.5H61.8393ZM74.7039 24.74H68.5939V22.63H74.5839V21.99H67.8339V25.39H70.8839V26.65H66.8439V27.31H75.6039V26.65H71.6639V25.39H74.7039V24.74ZM74.9539 30.65V29.99H68.5839V28.01H67.8239V30.65H74.9539Z" fill="#666666"/>
</svg>
