<svg width="47" height="50" viewBox="0 0 47 50" fill="none" xmlns="http://www.w3.org/2000/svg">
<path d="M1.62742 42.15L2.01742 42.66L3.54742 41.39V47.95H4.26742V40.45H3.65742L1.62742 42.15ZM9.27726 40.25C7.71726 40.25 6.84726 41.18 6.84726 42.23C6.84726 43.09 7.39726 43.67 8.01726 43.91C7.30726 44.15 6.39726 44.77 6.39726 45.92C6.39726 47.19 7.54726 48.15 9.27726 48.15C11.0073 48.15 12.1573 47.19 12.1573 45.92C12.1573 44.77 11.2673 44.15 10.5473 43.91C11.1573 43.67 11.7073 43.09 11.7073 42.23C11.7073 41.18 10.8373 40.25 9.27726 40.25ZM9.27726 47.53C7.92726 47.53 7.11726 46.85 7.11726 45.92C7.11726 45 8.01726 44.26 9.27726 44.26C10.5373 44.26 11.4373 45 11.4373 45.92C11.4373 46.85 10.6273 47.53 9.27726 47.53ZM9.27726 40.87C10.3573 40.87 10.9873 41.43 10.9873 42.23C10.9873 42.98 10.2873 43.64 9.27726 43.64C8.26726 43.64 7.56726 42.98 7.56726 42.23C7.56726 41.43 8.19726 40.87 9.27726 40.87ZM12.8698 46.86H13.8298V45.9H12.8698V46.86ZM12.8698 42.46H13.8298V41.5H12.8698V42.46ZM17.048 47.53C16.238 47.53 15.388 46.96 14.958 46.22L14.398 46.59C14.878 47.51 15.908 48.15 17.048 48.15C18.778 48.15 19.818 47.07 19.818 45.74C19.818 44.45 18.908 43.42 17.128 43.39L19.568 41V40.45H14.748V41.07H18.598L15.868 43.73L16.148 44.23C16.228 44.2 16.668 44 17.018 44C18.298 44 19.098 44.75 19.098 45.74C19.098 46.73 18.368 47.53 17.048 47.53ZM22.825 48.15C24.405 48.15 25.475 47.01 25.475 45.6C25.475 44.2 24.405 43.05 22.825 43.05C22.435 43.05 21.965 43.21 21.755 43.37L23.385 40.45H22.615L20.645 43.93C20.405 44.36 20.175 44.95 20.175 45.5C20.175 46.94 21.135 48.15 22.825 48.15ZM20.895 45.6C20.895 44.48 21.665 43.67 22.825 43.67C23.985 43.67 24.755 44.52 24.755 45.6C24.755 46.68 23.985 47.53 22.825 47.53C21.705 47.53 20.895 46.64 20.895 45.6ZM36.7633 48.75V39.83H36.0033V48.75H36.7633ZM29.4333 40.87H33.2733C33.1633 43.25 31.6333 45.63 29.1533 46.83L29.6533 47.39C32.2433 46.03 34.1233 43.49 34.0933 40.21H29.4333V40.87ZM46.2466 43.07C45.4666 42.94 44.7566 42.74 44.1166 42.46C43.4966 42.19 42.9866 41.84 42.5866 41.41C42.7066 41.17 42.7966 40.91 42.8466 40.63H45.6666V39.99H38.8866V40.63H42.0166C41.9366 40.97 41.7966 41.27 41.6066 41.54C40.9466 42.44 39.7466 42.97 38.2866 43.15L38.6166 43.75C39.5466 43.63 40.5466 43.29 41.3466 42.76C41.6866 42.53 41.9766 42.26 42.2266 41.96C42.4366 42.17 42.6666 42.36 42.9166 42.53C43.8066 43.14 44.8866 43.54 45.9066 43.68L46.2466 43.07ZM42.7666 47.15V45.16H46.6566V44.5H37.8966V45.16H41.9866V47.15H42.7666ZM46.0066 48.65V47.99H39.6366V46.01H38.8766V48.65H46.0066Z" fill="#999999"/>
<circle cx="31" cy="16" r="15.5" stroke="#EFEFEF"/>
<g clip-path="url(#clip0_231_24)">
<path d="M35.944 16.75C35.582 19.1555 33.5065 21 31 21C28.2385 21 26 18.7615 26 16C26 13.2385 28.2385 11 31 11C33.05 11 34.8125 12.234 35.584 14" stroke="black" stroke-linecap="round" stroke-linejoin="round"/>
<path d="M33.5 14H35.7C35.7394 14 35.7784 13.9922 35.8148 13.9772C35.8512 13.9621 35.8843 13.94 35.9121 13.9121C35.94 13.8843 35.9621 13.8512 35.9772 13.8148C35.9922 13.7784 36 13.7394 36 13.7V11.5" stroke="black" stroke-linecap="round" stroke-linejoin="round"/>
</g>
<defs>
<clipPath id="clip0_231_24">
<rect width="12" height="12" fill="white" transform="translate(25 10)"/>
</clipPath>
</defs>
</svg>
