<svg width="115" height="16" viewBox="0 0 115 16" fill="none" xmlns="http://www.w3.org/2000/svg">
<path d="M27.92 7.152C27.14 6.852 26.456 6.444 25.844 5.94C25.424 5.592 25.088 5.172 24.812 4.68C24.848 4.596 24.872 4.5 24.908 4.404C25.136 3.744 25.256 3.06 25.268 2.34H23.636C23.54 4.608 22.412 6.552 20.12 7.536L21.128 8.688C22.268 8.148 23.288 7.284 24.02 6.192L24.14 6.024C24.908 7.08 25.94 7.92 27.02 8.376L27.92 7.152ZM22.172 9.132V12.804H30.716V11.436H23.78V9.132H22.172ZM30.416 10.056V2.172H28.808V10.056H30.416ZM42.276 8.436V7.164H39.84V5.7C40.044 5.532 40.224 5.34 40.356 5.124C40.548 4.824 40.644 4.488 40.644 4.128C40.644 2.676 39.048 1.716 36.996 1.716C35.976 1.716 35.064 1.956 34.404 2.376C33.408 2.952 33.048 4.2 33.624 5.124C33.756 5.34 33.936 5.532 34.152 5.712V7.164H31.716V8.436H42.276ZM37.044 8.796C34.944 8.796 33.456 9.732 33.456 11.136C33.456 12.54 34.944 13.476 37.044 13.476C39.144 13.476 40.632 12.54 40.632 11.136C40.632 9.732 39.144 8.796 37.044 8.796ZM36.996 2.988C38.112 2.988 39.036 3.456 39.036 4.128C39.036 4.8 38.112 5.268 36.996 5.268C35.88 5.268 34.956 4.8 34.956 4.128C34.956 3.456 35.88 2.988 36.996 2.988ZM37.044 12.204C35.748 12.204 35.064 11.772 35.064 11.136C35.064 10.5 35.748 10.068 37.044 10.068C38.34 10.068 39.024 10.5 39.024 11.136C39.024 11.772 38.34 12.204 37.044 12.204ZM36.996 6.54C37.428 6.54 37.836 6.504 38.232 6.42V7.164H35.76V6.42C36.144 6.504 36.552 6.54 36.996 6.54ZM44.8241 8.568V12.852H53.0561V8.568H44.8241ZM50.6081 6.696C49.4801 6.384 48.4841 5.928 47.7641 5.208C47.6681 5.112 47.5721 5.004 47.4881 4.896L47.5601 4.74C47.6681 4.464 47.7641 4.164 47.8241 3.864H50.1761V2.52H43.4681V3.864H46.1561C46.0001 4.476 45.7121 5.016 45.3161 5.46C44.7281 6.144 43.8761 6.684 42.7841 7.08L43.7681 8.256C44.8121 7.86 45.8441 7.188 46.6121 6.276C46.6721 6.216 46.7201 6.156 46.7681 6.096L46.8881 6.228C47.6801 7.044 48.7121 7.656 49.7321 7.944L50.6081 6.696ZM49.6001 5.748H51.4721V8.088H53.0801V2.172H51.4721V4.404H49.6001V5.748ZM46.4321 9.912H51.4481V11.484H46.4321V9.912ZM60.4761 12.924V9.396H64.9401V8.028H54.3801V9.396H58.8441V12.924H60.4761ZM64.6521 5.904C63.1161 5.64 61.7841 5.172 60.8481 4.332C60.7161 4.212 60.5841 4.08 60.4641 3.948C60.6921 3.468 60.8241 2.928 60.8481 2.328H59.1921C59.0361 4.5 57.0441 5.52 54.5361 5.94L55.3881 7.2C56.6481 6.996 57.9801 6.492 59.0241 5.688C59.2521 5.508 59.4561 5.316 59.6481 5.112L59.9721 5.424C60.9921 6.348 62.4201 7.008 63.8361 7.176L64.6521 5.904ZM72.7576 2.652C70.7896 2.652 69.4576 4.08 69.4576 5.844C69.4576 7.608 70.7896 9.048 72.7576 9.048C72.9016 9.048 73.0336 9.024 73.1896 8.988L71.5336 11.988H73.2136L75.4816 7.896C75.7696 7.368 76.0576 6.624 76.0576 5.964C76.0576 4.152 74.8816 2.652 72.7576 2.652ZM74.4976 5.844C74.4976 6.948 73.8256 7.728 72.7576 7.728C71.6896 7.728 71.0176 6.912 71.0176 5.844C71.0176 4.788 71.6896 3.972 72.7576 3.972C73.7896 3.972 74.4976 4.836 74.4976 5.844ZM76.8101 7.44C76.8101 10.416 78.6701 12.228 80.7341 12.228C82.7981 12.228 84.6581 10.416 84.6581 7.44C84.6581 4.464 82.7981 2.652 80.7341 2.652C78.6701 2.652 76.8101 4.464 76.8101 7.44ZM83.0981 7.44C83.0981 9.6 81.9461 10.908 80.7341 10.908C79.5221 10.908 78.3701 9.6 78.3701 7.44C78.3701 5.28 79.5221 3.972 80.7341 3.972C81.9461 3.972 83.0981 5.28 83.0981 7.44ZM91.7348 5.46C91.7348 3.9 90.4748 2.652 88.4708 2.652C87.0308 2.652 85.8788 3.6 85.2428 4.884L86.4068 5.652C86.8868 4.704 87.6548 3.972 88.4708 3.972C89.5028 3.972 90.1748 4.632 90.1748 5.46C90.1748 6.372 89.5508 6.996 88.9388 7.572L85.2788 10.98V12H91.9508V10.68H87.6068L89.9108 8.592C90.7748 7.824 91.7348 6.852 91.7348 5.46ZM94.3592 8.568V12.852H102.591V8.568H94.3592ZM100.143 6.696C99.0152 6.384 98.0192 5.928 97.2992 5.208C97.2032 5.112 97.1072 5.004 97.0232 4.896L97.0952 4.74C97.2032 4.464 97.2992 4.164 97.3592 3.864H99.7112V2.52H93.0032V3.864H95.6912C95.5352 4.476 95.2472 5.016 94.8512 5.46C94.2632 6.144 93.4112 6.684 92.3192 7.08L93.3032 8.256C94.3472 7.86 95.3792 7.188 96.1472 6.276C96.2072 6.216 96.2552 6.156 96.3032 6.096L96.4232 6.228C97.2152 7.044 98.2472 7.656 99.2672 7.944L100.143 6.696ZM99.1352 5.748H101.007V8.088H102.615V2.172H101.007V4.404H99.1352V5.748ZM95.9672 9.912H100.983V11.484H95.9672V9.912Z" fill="#242D3C"/>
<path d="M12.6566 12.715C13.8825 11.489 14.7732 9.92944 14.7732 8.05831C14.7732 6.26191 14.0596 4.53908 12.7894 3.26884C11.5191 1.99859 9.7963 1.28497 7.9999 1.28497C6.2035 1.28497 4.48067 1.99859 3.21043 3.26884C1.94018 4.53908 1.22656 6.26191 1.22656 8.05831C1.22656 9.92944 2.11726 11.489 3.34323 12.715M7.9999 8.05831L5.18706 5.24547" stroke="#242D3C" stroke-width="1.5" stroke-linecap="round" stroke-linejoin="round"/>
<path d="M7.99949 9.32833C8.70089 9.32833 9.26949 8.75973 9.26949 8.05833C9.26949 7.35693 8.70089 6.78833 7.99949 6.78833C7.29809 6.78833 6.72949 7.35693 6.72949 8.05833C6.72949 8.75973 7.29809 9.32833 7.99949 9.32833Z" fill="#242D3C"/>
<path d="M110 4L114 8L110 12" stroke="#242D3C" stroke-width="1.5" stroke-linecap="round" stroke-linejoin="round"/>
</svg>
