<svg width="24" height="24" viewBox="0 0 24 24" fill="none" xmlns="http://www.w3.org/2000/svg">
<g clip-path="url(#clip0_182_1757)">
<path d="M23.9502 11.9268C23.9502 13.6218 23.5359 15.2132 22.8012 16.6158C22.6738 16.859 22.3687 16.9387 22.1308 16.8015L14.4324 12.3597C14.099 12.1673 14.0989 11.6862 14.4322 11.4937L22.1398 7.04237C22.3786 6.90446 22.6851 6.98539 22.8117 7.23039C23.5367 8.63389 23.9502 10.2334 23.9502 11.9268Z" fill="#D7191F"/>
<path d="M21.1574 5.21643C21.3089 5.44885 21.2263 5.75736 20.9859 5.89589L13.2819 10.3352C12.9485 10.5272 12.5322 10.2866 12.5322 9.90193V0.579456C12.5322 0.560427 12.5477 0.545 12.5667 0.545C14.4159 0.545 16.1617 1.03888 17.6548 1.90029C19.0708 2.71241 20.2697 3.85486 21.1574 5.21643Z" fill="#242D3C"/>
<path d="M19.8312 18.1064C20.0699 18.2442 20.1532 18.5499 20.0044 18.7819C19.1249 20.1523 17.9249 21.2869 16.5074 22.0999C15.0143 22.9613 13.2685 23.4552 11.4193 23.4552H11.3848C9.52419 23.4437 7.77839 22.9384 6.28527 22.0655C4.87886 21.2529 3.68979 20.1095 2.8209 18.7469C2.673 18.515 2.75639 18.21 2.9946 18.0725L11.3684 13.236C11.3716 13.2341 11.3753 13.2331 11.3791 13.2331C11.3829 13.2331 11.3866 13.2341 11.3898 13.236L19.8312 18.1064Z" fill="#242D3C"/>
<path d="M9.73461 1.86571C10.0116 1.85066 10.2375 2.07627 10.2375 2.35362V12.0751C10.2375 12.0801 10.2334 12.0841 10.2284 12.0841C10.2268 12.0841 10.2253 12.0845 10.2239 12.0853L1.84728 16.9234C1.60905 17.061 1.3032 16.9809 1.17635 16.7368C0.453628 15.3458 0.0498047 13.7666 0.0498047 12.0841C0.0498047 10.2235 0.543682 8.48915 1.41658 6.98455C2.30097 5.434 3.58735 4.13614 5.13789 3.24027C6.49572 2.44646 8.06251 1.9566 9.73461 1.86571Z" fill="#242D3C"/>
</g>
<defs>
<clipPath id="clip0_182_1757">
<rect width="24" height="24" fill="white"/>
</clipPath>
</defs>
</svg>
