<svg width="24" height="24" viewBox="0 0 24 24" fill="none" xmlns="http://www.w3.org/2000/svg">
<path d="M7.3962 6.85234V2.91798C7.3962 2.19346 6.80647 1.60372 6.08194 1.60372H2.13916" stroke="#242D3C" stroke-width="2" stroke-linecap="round" stroke-linejoin="round"/>
<path d="M21.6839 5.85158V10.6427C21.6839 13.3892 19.4513 15.6133 16.7133 15.6133H7.39551V5.85158H21.6839Z" fill="#242D3C" stroke="#242D3C" stroke-width="2" stroke-linecap="round" stroke-linejoin="round"/>
<path d="M7.39855 15.6139H5.83154" stroke="#D9640F" stroke-width="2" stroke-linecap="round" stroke-linejoin="round"/>
<path d="M19.9636 19.3544H5.82684C4.79059 19.3544 3.95654 18.512 3.95654 17.4841C3.95654 17.0461 4.11661 16.6332 4.36936 16.3131C4.41148 16.2541 4.4536 16.212 4.50415 16.1615C4.84114 15.8245 5.3045 15.6139 5.82684 15.6139H7.39384" stroke="#242D3C" stroke-width="2" stroke-linecap="round" stroke-linejoin="round"/>
<path d="M9.23942 22.9598C10.2351 22.9598 11.0423 22.1527 11.0423 21.157C11.0423 20.1612 10.2351 19.3541 9.23942 19.3541C8.24371 19.3541 7.43652 20.1612 7.43652 21.157C7.43652 22.1527 8.24371 22.9598 9.23942 22.9598Z" stroke="#242D3C" stroke-width="2" stroke-linecap="round" stroke-linejoin="round"/>
<path d="M20.0578 22.9598C21.0535 22.9598 21.8607 22.1527 21.8607 21.157C21.8607 20.1612 21.0535 19.3541 20.0578 19.3541C19.0621 19.3541 18.2549 20.1612 18.2549 21.157C18.2549 22.1527 19.0621 22.9598 20.0578 22.9598Z" stroke="#242D3C" stroke-width="2" stroke-linecap="round" stroke-linejoin="round"/>
<mask id="path-7-outside-1_182_1767" maskUnits="userSpaceOnUse" x="10.229" y="0.0401497" width="9" height="11" fill="black">
<rect fill="white" x="10.229" y="0.0401497" width="9" height="11"/>
<path fill-rule="evenodd" clip-rule="evenodd" d="M15.3961 1.33304C15.0056 0.942519 14.3724 0.942519 13.9819 1.33304L11.5219 3.79307C11.1314 4.18359 11.1314 4.81676 11.5219 5.20728C11.9124 5.59781 12.5456 5.59781 12.9361 5.20728L13.6938 4.44955V8.93747C13.6938 9.48976 14.1416 9.93747 14.6938 9.93747C15.2461 9.93747 15.6938 9.48976 15.6938 8.93747V4.45918L16.3998 5.16516C16.7903 5.55568 17.4235 5.55568 17.814 5.16516C18.2046 4.77463 18.2046 4.14147 17.814 3.75094L15.3961 1.33304Z"/>
</mask>
<path fill-rule="evenodd" clip-rule="evenodd" d="M15.3961 1.33304C15.0056 0.942519 14.3724 0.942519 13.9819 1.33304L11.5219 3.79307C11.1314 4.18359 11.1314 4.81676 11.5219 5.20728C11.9124 5.59781 12.5456 5.59781 12.9361 5.20728L13.6938 4.44955V8.93747C13.6938 9.48976 14.1416 9.93747 14.6938 9.93747C15.2461 9.93747 15.6938 9.48976 15.6938 8.93747V4.45918L16.3998 5.16516C16.7903 5.55568 17.4235 5.55568 17.814 5.16516C18.2046 4.77463 18.2046 4.14147 17.814 3.75094L15.3961 1.33304Z" fill="#D7191F"/>
<path d="M13.9819 1.33304L13.2748 0.625936L13.2748 0.625936L13.9819 1.33304ZM15.3961 1.33304L16.1032 0.625936V0.625936L15.3961 1.33304ZM11.5219 3.79307L10.8148 3.08596L10.8148 3.08596L11.5219 3.79307ZM11.5219 5.20728L12.229 4.50018V4.50018L11.5219 5.20728ZM12.9361 5.20728L12.229 4.50018L12.229 4.50018L12.9361 5.20728ZM13.6938 4.44955H14.6938C14.6938 4.04508 14.4502 3.68045 14.0765 3.52567C13.7029 3.37089 13.2727 3.45644 12.9867 3.74244L13.6938 4.44955ZM15.6938 4.45918L16.401 3.75207C16.115 3.46608 15.6848 3.38052 15.3112 3.5353C14.9375 3.69008 14.6938 4.05472 14.6938 4.45918H15.6938ZM17.814 5.16516L17.1069 4.45805L17.1069 4.45805L17.814 5.16516ZM17.814 3.75094L17.1069 4.45805V4.45805L17.814 3.75094ZM14.689 2.04015L14.689 2.04015L16.1032 0.625936C15.3222 -0.155113 14.0559 -0.155112 13.2748 0.625936L14.689 2.04015ZM12.229 4.50018L14.689 2.04015L13.2748 0.625936L10.8148 3.08596L12.229 4.50018ZM12.229 4.50018V4.50018L10.8148 3.08596C10.0337 3.86701 10.0337 5.13334 10.8148 5.91439L12.229 4.50018ZM12.229 4.50018H12.229L10.8148 5.91439C11.5958 6.69544 12.8622 6.69544 13.6432 5.91439L12.229 4.50018ZM12.9867 3.74244L12.229 4.50018L13.6432 5.91439L14.401 5.15665L12.9867 3.74244ZM14.6938 8.93747V4.44955H12.6938V8.93747H14.6938ZM14.6938 8.93747H12.6938C12.6938 10.042 13.5893 10.9375 14.6938 10.9375V8.93747ZM14.6938 8.93747V10.9375C15.7984 10.9375 16.6938 10.042 16.6938 8.93747H14.6938ZM14.6938 4.45918V8.93747H16.6938V4.45918H14.6938ZM17.1069 4.45805L16.401 3.75207L14.9867 5.16629L15.6927 5.87227L17.1069 4.45805ZM17.1069 4.45805L15.6927 5.87227C16.4738 6.65331 17.7401 6.65331 18.5211 5.87226L17.1069 4.45805ZM17.1069 4.45805V4.45805L18.5211 5.87226C19.3022 5.09122 19.3022 3.82489 18.5211 3.04384L17.1069 4.45805ZM14.689 2.04015L17.1069 4.45805L18.5211 3.04384L16.1032 0.625936L14.689 2.04015Z" fill="white" mask="url(#path-7-outside-1_182_1767)"/>
</svg>
