<svg width="213" height="42" viewBox="0 0 213 42" fill="none" xmlns="http://www.w3.org/2000/svg">
<rect width="42" height="42" rx="21" fill="#D62237"/>
<path d="M28.6069 15.0072C28.334 14.9288 28.0459 14.8555 27.7427 14.7873C26.2062 14.4386 24.2983 14.2086 22.2085 14.1454L21.0359 15.5934L19.8735 14.1454C17.9353 14.2061 16.1512 14.4083 14.6779 14.7191C14.1473 14.8303 13.657 14.9566 13.2148 15.0931C12.9343 15.1942 12.813 15.2624 12.813 15.2624C12.8711 15.3685 13.2072 15.6212 13.609 15.8891C14.3039 16.349 15.196 16.8494 15.1808 16.6927C15.1202 16.0306 16.0299 15.692 16.5403 15.6136C17.0938 15.5277 17.6598 15.5201 18.2183 15.51L21.0107 29.2773H21.0561L23.8485 15.51C24.4752 15.51 25.1044 15.4797 25.7185 15.6364C26.1506 15.7451 26.9391 16.1317 26.8885 16.6952C26.8708 16.8772 28.1065 16.157 28.8015 15.6566C29.039 15.4848 29.2159 15.3382 29.2563 15.2649C29.2563 15.2649 29.0693 15.1537 28.6044 15.0097L28.6069 15.0072Z" fill="white"/>
<path d="M20.9861 13.6224C24.716 13.6224 27.9455 14.2491 29.5098 14.9667L30 14.335C28.7137 13.4758 25.1658 12.7227 20.9861 12.7227C16.8064 12.7227 13.3065 13.4657 12 14.3148L12.4928 14.9516C14.0671 14.244 17.279 13.6224 20.9861 13.6224Z" fill="white"/>
<path d="M66.74 9.92C65.89 9.77 65.15 9.54 64.54 9.25C63.95 8.97 63.47 8.59 63.08 8.11C63.23 7.84 63.33 7.56 63.37 7.27H66.18V6.61H59.25V7.27H62.54C62.48 7.57 62.35 7.85 62.16 8.12C61.49 9.05 60.13 9.74 58.58 9.94L58.98 10.55C59.95 10.42 61.03 10 61.87 9.4C62.18 9.17 62.46 8.93 62.69 8.66C62.88 8.87 63.09 9.06 63.32 9.25C64.15 9.9 65.23 10.36 66.35 10.54L66.74 9.92ZM63.11 15.25V12.09H67.1V11.43H58.34V12.09H62.33V15.25H63.11ZM73.6834 10.61C72.7034 10.23 71.8134 9.6 71.2034 8.81C71.0734 8.64 70.9634 8.47 70.8634 8.3C70.8934 8.22 70.9134 8.14 70.9434 8.07C71.1234 7.56 71.2234 7.04 71.2334 6.49H70.4534C70.3734 8.34 69.2634 10.12 67.3434 10.95L67.8234 11.48C68.7734 11.03 69.6134 10.32 70.2234 9.47C70.3334 9.3 70.4434 9.14 70.5334 8.97C70.6134 9.08 70.6934 9.19 70.7834 9.3C71.4334 10.12 72.3534 10.82 73.2234 11.2L73.6834 10.61ZM75.6034 15.29V12.14H68.7034V12.8H74.8434V15.29H75.6034ZM75.6234 11.64V6.33H74.8634V11.64H75.6234Z" fill="#999999"/>
<path d="M65.241 26.415C65.241 24.725 63.876 23.373 61.705 23.373C60.145 23.373 58.897 24.4 58.208 25.791L59.469 26.623C59.989 25.596 60.821 24.803 61.705 24.803C62.823 24.803 63.551 25.518 63.551 26.415C63.551 27.403 62.875 28.079 62.212 28.703L58.247 32.395V33.5H65.475V32.07H60.769L63.265 29.808C64.201 28.976 65.241 27.923 65.241 26.415ZM66.4981 25.986L67.3951 27.208L68.8901 25.934V33.5H70.5801V23.62H69.2541L66.4981 25.986ZM72.9849 28.56C72.9849 31.784 74.9999 33.747 77.2359 33.747C79.4719 33.747 81.4869 31.784 81.4869 28.56C81.4869 25.336 79.4719 23.373 77.2359 23.373C74.9999 23.373 72.9849 25.336 72.9849 28.56ZM79.7969 28.56C79.7969 30.9 78.5489 32.317 77.2359 32.317C75.9229 32.317 74.6749 30.9 74.6749 28.56C74.6749 26.22 75.9229 24.803 77.2359 24.803C78.5489 24.803 79.7969 26.22 79.7969 28.56ZM83.5634 32.525H81.7434V34.345H82.4714C82.4324 34.748 82.3024 35.112 81.8864 35.385L82.4584 35.944C83.1344 35.437 83.5634 34.774 83.5634 34.033V32.525ZM84.1131 28.56C84.1131 31.784 86.1281 33.747 88.3641 33.747C90.6001 33.747 92.6151 31.784 92.6151 28.56C92.6151 25.336 90.6001 23.373 88.3641 23.373C86.1281 23.373 84.1131 25.336 84.1131 28.56ZM90.9251 28.56C90.9251 30.9 89.6771 32.317 88.3641 32.317C87.0511 32.317 85.8031 30.9 85.8031 28.56C85.8031 26.22 87.0511 24.803 88.3641 24.803C89.6771 24.803 90.9251 26.22 90.9251 28.56ZM93.0796 28.56C93.0796 31.784 95.0946 33.747 97.3306 33.747C99.5666 33.747 101.582 31.784 101.582 28.56C101.582 25.336 99.5666 23.373 97.3306 23.373C95.0946 23.373 93.0796 25.336 93.0796 28.56ZM99.8916 28.56C99.8916 30.9 98.6436 32.317 97.3306 32.317C96.0176 32.317 94.7696 30.9 94.7696 28.56C94.7696 26.22 96.0176 24.803 97.3306 24.803C98.6436 24.803 99.8916 26.22 99.8916 28.56ZM102.046 28.56C102.046 31.784 104.061 33.747 106.297 33.747C108.533 33.747 110.548 31.784 110.548 28.56C110.548 25.336 108.533 23.373 106.297 23.373C104.061 23.373 102.046 25.336 102.046 28.56ZM108.858 28.56C108.858 30.9 107.61 32.317 106.297 32.317C104.984 32.317 103.736 30.9 103.736 28.56C103.736 26.22 104.984 24.803 106.297 24.803C107.61 24.803 108.858 26.22 108.858 28.56ZM112.624 32.525H110.804V34.345H111.532C111.493 34.748 111.363 35.112 110.947 35.385L111.519 35.944C112.195 35.437 112.624 34.774 112.624 34.033V32.525ZM113.174 28.56C113.174 31.784 115.189 33.747 117.425 33.747C119.661 33.747 121.676 31.784 121.676 28.56C121.676 25.336 119.661 23.373 117.425 23.373C115.189 23.373 113.174 25.336 113.174 28.56ZM119.986 28.56C119.986 30.9 118.738 32.317 117.425 32.317C116.112 32.317 114.864 30.9 114.864 28.56C114.864 26.22 116.112 24.803 117.425 24.803C118.738 24.803 119.986 26.22 119.986 28.56ZM122.141 28.56C122.141 31.784 124.156 33.747 126.392 33.747C128.628 33.747 130.643 31.784 130.643 28.56C130.643 25.336 128.628 23.373 126.392 23.373C124.156 23.373 122.141 25.336 122.141 28.56ZM128.953 28.56C128.953 30.9 127.705 32.317 126.392 32.317C125.079 32.317 123.831 30.9 123.831 28.56C123.831 26.22 125.079 24.803 126.392 24.803C127.705 24.803 128.953 26.22 128.953 28.56ZM131.107 28.56C131.107 31.784 133.122 33.747 135.358 33.747C137.594 33.747 139.609 31.784 139.609 28.56C139.609 25.336 137.594 23.373 135.358 23.373C133.122 23.373 131.107 25.336 131.107 28.56ZM137.919 28.56C137.919 30.9 136.671 32.317 135.358 32.317C134.045 32.317 132.797 30.9 132.797 28.56C132.797 26.22 134.045 24.803 135.358 24.803C136.671 24.803 137.919 26.22 137.919 28.56ZM144.416 22.541C142.492 22.541 141.062 23.568 141.062 25.102C141.062 26.636 142.492 27.663 144.416 27.663C146.34 27.663 147.77 26.636 147.77 25.102C147.77 23.568 146.34 22.541 144.416 22.541ZM146.704 31.225H149.304V31.888H151.046V22.853H149.304V29.899H146.704V31.225ZM141.907 31.225V34.28H151.28V32.798H143.649V31.225H141.907ZM145.222 30.952V29.457L148.771 29.405V28.027L140.256 28.131V29.535L143.454 29.483V30.952H145.222ZM144.416 26.259C143.441 26.259 142.804 25.791 142.804 25.102C142.804 24.413 143.441 23.945 144.416 23.945C145.365 23.945 146.028 24.413 146.028 25.102C146.028 25.791 145.365 26.259 144.416 26.259Z" fill="black"/>
<path d="M162.063 27.806H159.723V25.336H158.033V27.806H155.693V29.236H158.033V31.706H159.723V29.236H162.063V27.806ZM163.105 25.986L164.002 27.208L165.497 25.934V33.5H167.187V23.62H165.861L163.105 25.986ZM176.404 26.415C176.404 24.725 175.039 23.373 172.868 23.373C171.308 23.373 170.06 24.4 169.371 25.791L170.632 26.623C171.152 25.596 171.984 24.803 172.868 24.803C173.986 24.803 174.714 25.518 174.714 26.415C174.714 27.403 174.038 28.079 173.375 28.703L169.41 32.395V33.5H176.638V32.07H171.932L174.428 29.808C175.364 28.976 176.404 27.923 176.404 26.415ZM181.743 29.587H179.013L181.743 26.35V29.587ZM176.712 31.017H181.743V33.5H183.433V31.017H184.863V29.587H183.433V23.62H182.068L176.712 29.925V31.017ZM184.845 34.436H186.665V32.616H184.845V34.436ZM190.412 32.317C189.372 32.317 188.488 31.602 187.955 30.523L186.733 31.42C187.422 32.772 188.813 33.747 190.412 33.747C192.752 33.747 194.143 32.291 194.143 30.458C194.143 28.911 193.129 27.507 191.205 27.299L193.818 24.751V23.633H187.292V25.063H191.374L188.514 27.936L189.151 29.08C189.359 28.924 189.866 28.651 190.373 28.651C191.66 28.651 192.453 29.431 192.453 30.458C192.453 31.498 191.738 32.317 190.412 32.317ZM195.661 23.633L194.816 28.56L195.947 29.041C196.259 28.638 196.961 28.248 197.884 28.248C199.184 28.248 199.808 29.106 199.808 30.302C199.808 31.498 199.015 32.317 197.767 32.317C196.688 32.317 195.934 31.563 195.375 30.536L194.127 31.433C194.855 32.811 196.207 33.747 197.767 33.747C200.12 33.747 201.498 32.317 201.498 30.302C201.498 28.365 200.276 26.818 197.884 26.818C197.455 26.818 197.065 26.896 196.714 27.039L197.052 25.063H201.121V23.633H195.661ZM202.963 33.5H204.809L210.659 23.62H208.865L202.963 33.5ZM206.499 25.882C206.499 24.387 205.459 23.373 204.042 23.373C202.625 23.373 201.585 24.387 201.585 25.882C201.585 27.377 202.625 28.391 204.042 28.391C205.459 28.391 206.499 27.377 206.499 25.882ZM204.835 25.882C204.835 26.571 204.51 26.961 204.042 26.961C203.574 26.961 203.249 26.571 203.249 25.882C203.249 25.193 203.574 24.803 204.042 24.803C204.51 24.803 204.835 25.193 204.835 25.882ZM212.167 31.238C212.167 29.743 211.127 28.729 209.71 28.729C208.293 28.729 207.253 29.743 207.253 31.238C207.253 32.733 208.293 33.747 209.71 33.747C211.127 33.747 212.167 32.733 212.167 31.238ZM210.503 31.238C210.503 31.927 210.178 32.317 209.71 32.317C209.242 32.317 208.917 31.927 208.917 31.238C208.917 30.549 209.242 30.159 209.71 30.159C210.178 30.159 210.503 30.549 210.503 31.238Z" fill="#D7191F"/>
</svg>
