<svg width="100" height="15" viewBox="0 0 100 15" fill="none" xmlns="http://www.w3.org/2000/svg">
<path d="M1.35505 3.908L2.32105 5.224L3.93105 3.852V12H5.75105V1.36H4.32305L1.35505 3.908ZM10.4968 10.95H8.53683V12.91H9.32083C9.27883 13.344 9.13883 13.736 8.69083 14.03L9.30683 14.632C10.0348 14.086 10.4968 13.372 10.4968 12.574V10.95ZM18.8449 4.37C18.8449 2.55 17.3749 1.094 15.0369 1.094C13.3569 1.094 12.0129 2.2 11.2709 3.698L12.6289 4.594C13.1889 3.488 14.0849 2.634 15.0369 2.634C16.2409 2.634 17.0249 3.404 17.0249 4.37C17.0249 5.434 16.2969 6.162 15.5829 6.834L11.3129 10.81V12H19.0969V10.46H14.0289L16.7169 8.024C17.7249 7.128 18.8449 5.994 18.8449 4.37ZM23.4607 10.726C22.3407 10.726 21.3887 9.956 20.8147 8.794L19.4987 9.76C20.2407 11.216 21.7387 12.266 23.4607 12.266C25.9807 12.266 27.4787 10.698 27.4787 8.724C27.4787 7.058 26.3867 5.546 24.3147 5.322L27.1287 2.578V1.374H20.1007V2.914H24.4967L21.4167 6.008L22.1027 7.24C22.3267 7.072 22.8727 6.778 23.4187 6.778C24.8047 6.778 25.6587 7.618 25.6587 8.724C25.6587 9.844 24.8887 10.726 23.4607 10.726ZM28.1886 6.68C28.1886 10.152 30.3586 12.266 32.7666 12.266C35.1746 12.266 37.3446 10.152 37.3446 6.68C37.3446 3.208 35.1746 1.094 32.7666 1.094C30.3586 1.094 28.1886 3.208 28.1886 6.68ZM35.5246 6.68C35.5246 9.2 34.1806 10.726 32.7666 10.726C31.3526 10.726 30.0086 9.2 30.0086 6.68C30.0086 4.16 31.3526 2.634 32.7666 2.634C34.1806 2.634 35.5246 4.16 35.5246 6.68ZM40.0007 10.95H38.0407V12.91H38.8247C38.7827 13.344 38.6427 13.736 38.1947 14.03L38.8107 14.632C39.5387 14.086 40.0007 13.372 40.0007 12.574V10.95ZM41.0128 6.68C41.0128 10.152 43.1828 12.266 45.5908 12.266C47.9988 12.266 50.1688 10.152 50.1688 6.68C50.1688 3.208 47.9988 1.094 45.5908 1.094C43.1828 1.094 41.0128 3.208 41.0128 6.68ZM48.3488 6.68C48.3488 9.2 47.0048 10.726 45.5908 10.726C44.1768 10.726 42.8328 9.2 42.8328 6.68C42.8328 4.16 44.1768 2.634 45.5908 2.634C47.0048 2.634 48.3488 4.16 48.3488 6.68ZM51.089 6.68C51.089 10.152 53.259 12.266 55.667 12.266C58.075 12.266 60.245 10.152 60.245 6.68C60.245 3.208 58.075 1.094 55.667 1.094C53.259 1.094 51.089 3.208 51.089 6.68ZM58.425 6.68C58.425 9.2 57.081 10.726 55.667 10.726C54.253 10.726 52.909 9.2 52.909 6.68C52.909 4.16 54.253 2.634 55.667 2.634C57.081 2.634 58.425 4.16 58.425 6.68ZM61.1651 6.68C61.1651 10.152 63.3351 12.266 65.7431 12.266C68.1511 12.266 70.3211 10.152 70.3211 6.68C70.3211 3.208 68.1511 1.094 65.7431 1.094C63.3351 1.094 61.1651 3.208 61.1651 6.68ZM68.5011 6.68C68.5011 9.2 67.1571 10.726 65.7431 10.726C64.3291 10.726 62.9851 9.2 62.9851 6.68C62.9851 4.16 64.3291 2.634 65.7431 2.634C67.1571 2.634 68.5011 4.16 68.5011 6.68ZM75.9173 0.197999C73.8453 0.197999 72.3053 1.304 72.3053 2.956C72.3053 4.608 73.8453 5.714 75.9173 5.714C77.9893 5.714 79.5293 4.608 79.5293 2.956C79.5293 1.304 77.9893 0.197999 75.9173 0.197999ZM78.3813 9.55H81.1813V10.264H83.0573V0.533999H81.1813V8.122H78.3813V9.55ZM73.2153 9.55V12.84H83.3093V11.244H75.0913V9.55H73.2153ZM76.7853 9.256V7.646L80.6073 7.59V6.106L71.4373 6.218V7.73L74.8813 7.674V9.256H76.7853ZM75.9173 4.202C74.8673 4.202 74.1813 3.698 74.1813 2.956C74.1813 2.214 74.8673 1.71 75.9173 1.71C76.9393 1.71 77.6533 2.214 77.6533 2.956C77.6533 3.698 76.9393 4.202 75.9173 4.202Z" fill="#242D3C"/>
<path d="M94 2L99 7L94 12" stroke="#242D3C" stroke-width="1.5" stroke-linecap="round" stroke-linejoin="round"/>
</svg>
