<svg width="122" height="15" viewBox="0 0 122 15" fill="none" xmlns="http://www.w3.org/2000/svg">
<path d="M8.03238 4.37C8.03238 2.55 6.56238 1.094 4.22438 1.094C2.54438 1.094 1.20038 2.2 0.458375 3.698L1.81638 4.594C2.37638 3.488 3.27238 2.634 4.22438 2.634C5.42838 2.634 6.21238 3.404 6.21238 4.37C6.21238 5.434 5.48438 6.162 4.77038 6.834L0.500375 10.81V12H8.28438V10.46H3.21638L5.90438 8.024C6.91238 7.128 8.03238 5.994 8.03238 4.37ZM9.80622 3.908L10.7722 5.224L12.3822 3.852V12H14.2022V1.36H12.7742L9.80622 3.908ZM17.212 6.68C17.212 10.152 19.382 12.266 21.79 12.266C24.198 12.266 26.368 10.152 26.368 6.68C26.368 3.208 24.198 1.094 21.79 1.094C19.382 1.094 17.212 3.208 17.212 6.68ZM24.548 6.68C24.548 9.2 23.204 10.726 21.79 10.726C20.376 10.726 19.032 9.2 19.032 6.68C19.032 4.16 20.376 2.634 21.79 2.634C23.204 2.634 24.548 4.16 24.548 6.68ZM29.0242 10.95H27.0642V12.91H27.8482C27.8062 13.344 27.6662 13.736 27.2182 14.03L27.8342 14.632C28.5622 14.086 29.0242 13.372 29.0242 12.574V10.95ZM30.0362 6.68C30.0362 10.152 32.2062 12.266 34.6142 12.266C37.0222 12.266 39.1922 10.152 39.1922 6.68C39.1922 3.208 37.0222 1.094 34.6142 1.094C32.2062 1.094 30.0362 3.208 30.0362 6.68ZM37.3722 6.68C37.3722 9.2 36.0282 10.726 34.6142 10.726C33.2002 10.726 31.8562 9.2 31.8562 6.68C31.8562 4.16 33.2002 2.634 34.6142 2.634C36.0282 2.634 37.3722 4.16 37.3722 6.68ZM40.1124 6.68C40.1124 10.152 42.2824 12.266 44.6904 12.266C47.0984 12.266 49.2684 10.152 49.2684 6.68C49.2684 3.208 47.0984 1.094 44.6904 1.094C42.2824 1.094 40.1124 3.208 40.1124 6.68ZM47.4484 6.68C47.4484 9.2 46.1044 10.726 44.6904 10.726C43.2764 10.726 41.9324 9.2 41.9324 6.68C41.9324 4.16 43.2764 2.634 44.6904 2.634C46.1044 2.634 47.4484 4.16 47.4484 6.68ZM50.1886 6.68C50.1886 10.152 52.3586 12.266 54.7666 12.266C57.1746 12.266 59.3446 10.152 59.3446 6.68C59.3446 3.208 57.1746 1.094 54.7666 1.094C52.3586 1.094 50.1886 3.208 50.1886 6.68ZM57.5246 6.68C57.5246 9.2 56.1806 10.726 54.7666 10.726C53.3526 10.726 52.0086 9.2 52.0086 6.68C52.0086 4.16 53.3526 2.634 54.7666 2.634C56.1806 2.634 57.5246 4.16 57.5246 6.68ZM62.0007 10.95H60.0407V12.91H60.8247C60.7827 13.344 60.6427 13.736 60.1947 14.03L60.8107 14.632C61.5387 14.086 62.0007 13.372 62.0007 12.574V10.95ZM63.0128 6.68C63.0128 10.152 65.1828 12.266 67.5908 12.266C69.9988 12.266 72.1688 10.152 72.1688 6.68C72.1688 3.208 69.9988 1.094 67.5908 1.094C65.1828 1.094 63.0128 3.208 63.0128 6.68ZM70.3488 6.68C70.3488 9.2 69.0048 10.726 67.5908 10.726C66.1768 10.726 64.8328 9.2 64.8328 6.68C64.8328 4.16 66.1768 2.634 67.5908 2.634C69.0048 2.634 70.3488 4.16 70.3488 6.68ZM73.089 6.68C73.089 10.152 75.259 12.266 77.667 12.266C80.075 12.266 82.245 10.152 82.245 6.68C82.245 3.208 80.075 1.094 77.667 1.094C75.259 1.094 73.089 3.208 73.089 6.68ZM80.425 6.68C80.425 9.2 79.081 10.726 77.667 10.726C76.253 10.726 74.909 9.2 74.909 6.68C74.909 4.16 76.253 2.634 77.667 2.634C79.081 2.634 80.425 4.16 80.425 6.68ZM83.1651 6.68C83.1651 10.152 85.3351 12.266 87.7431 12.266C90.1511 12.266 92.3211 10.152 92.3211 6.68C92.3211 3.208 90.1511 1.094 87.7431 1.094C85.3351 1.094 83.1651 3.208 83.1651 6.68ZM90.5011 6.68C90.5011 9.2 89.1571 10.726 87.7431 10.726C86.3291 10.726 84.9851 9.2 84.9851 6.68C84.9851 4.16 86.3291 2.634 87.7431 2.634C89.1571 2.634 90.5011 4.16 90.5011 6.68ZM97.9173 0.197999C95.8453 0.197999 94.3053 1.304 94.3053 2.956C94.3053 4.608 95.8453 5.714 97.9173 5.714C99.9893 5.714 101.529 4.608 101.529 2.956C101.529 1.304 99.9893 0.197999 97.9173 0.197999ZM100.381 9.55H103.181V10.264H105.057V0.533999H103.181V8.122H100.381V9.55ZM95.2153 9.55V12.84H105.309V11.244H97.0913V9.55H95.2153ZM98.7853 9.256V7.646L102.607 7.59V6.106L93.4373 6.218V7.73L96.8813 7.674V9.256H98.7853ZM97.9173 4.202C96.8673 4.202 96.1813 3.698 96.1813 2.956C96.1813 2.214 96.8673 1.71 97.9173 1.71C98.9393 1.71 99.6533 2.214 99.6533 2.956C99.6533 3.698 98.9393 4.202 97.9173 4.202Z" fill="#242D3C"/>
<path d="M116 2L121 7L116 12" stroke="#242D3C" stroke-width="1.5" stroke-linecap="round" stroke-linejoin="round"/>
</svg>
