<svg width="26" height="14" viewBox="0 0 26 14" fill="none" xmlns="http://www.w3.org/2000/svg">
<path d="M12.586 6.568C10.71 5.952 9.086 5.112 7.91 3.908C7.728 3.726 7.56 3.53 7.406 3.32C7.77 2.564 7.966 1.738 7.994 0.827999H6.062C5.908 3.74 3.654 5.672 0.518 6.638L1.596 8.024C3.122 7.506 4.718 6.61 5.908 5.42C6.132 5.196 6.342 4.958 6.538 4.706L6.888 5.07C8.162 6.4 9.898 7.464 11.578 7.996L12.586 6.568ZM12.768 12.154V10.558H7.56V7.324H5.656V10.558H0.448V12.154H12.768ZM19.4227 0.897999V4.23H16.3847V0.897999H14.5087V10.782H21.2987V0.897999H19.4227ZM25.1907 13.078V0.533999H23.3147V13.078H25.1907ZM16.3847 9.186V5.798H19.4227V9.186H16.3847Z" fill="#242D3C"/>
</svg>
