<svg width="42" height="14" viewBox="0 0 42 14" fill="none" xmlns="http://www.w3.org/2000/svg">
<path d="M11.284 3.236H3.64V2.438H11.424V0.87H1.778V7.198H11.634V5.616H3.654V4.748H11.284V3.236ZM7.56 13.078V9.634H12.768V8.066H0.448V9.634H5.656V13.078H7.56ZM14.3127 11.356C15.0687 10.782 15.7407 10.138 16.3427 9.41C16.8607 8.78 17.3227 8.108 17.7007 7.38L17.7847 7.534C18.6807 8.948 19.9267 10.25 21.1867 11.062L22.3207 9.69C20.5707 8.696 19.2827 7.31 18.4847 5.532C18.6107 5.126 18.7227 4.72 18.8207 4.286C18.9467 3.754 19.0307 3.208 19.0867 2.634H21.9147V1.038H13.8927V2.634H17.1687C17.1267 3.068 17.0567 3.502 16.9727 3.922C16.4687 6.512 15.1947 8.654 13.0527 10.054L14.3127 11.356ZM24.6307 13.078V6.624H26.4087V5H24.6307V0.533999H22.7547V13.078H24.6307Z" fill="#242D3C"/>
<path d="M34.232 3.908L35.198 5.224L36.808 3.852V12H38.628V1.36H37.2L34.232 3.908Z" fill="#D7191F"/>
</svg>
