<svg width="262" height="61" viewBox="0 0 262 61" fill="none" xmlns="http://www.w3.org/2000/svg">
<path d="M35.3409 10.04V1.564H19.5069V10.04H35.3409ZM32.7149 3.696V7.908H22.1329V3.696H32.7149ZM38.0969 12.354H16.8029V14.512H26.3189V18.906H28.9969V14.512H38.0969V12.354ZM22.0809 21.376V16.774H19.4029V23.56H35.7309V21.376H22.0809ZM61.2869 11.99V9.78H57.6209V0.523999H54.9429V24.002H57.6209V11.99H61.2869ZM47.6629 7.336V5.074H52.6289V2.864H39.8629V5.074H44.9849V7.336C44.9849 8.30667 44.8376 9.29467 44.5429 10.3C44.2656 11.3053 43.8669 12.2673 43.3469 13.186C42.8269 14.0873 42.1942 14.9107 41.4489 15.656C40.7209 16.384 39.9062 16.9647 39.0049 17.398L40.5389 19.53C41.2149 19.2007 41.8476 18.7847 42.4369 18.282C43.0436 17.762 43.5896 17.19 44.0749 16.566C44.5776 15.9247 45.0196 15.2313 45.4009 14.486C45.7822 13.7233 46.1029 12.9347 46.3629 12.12C46.9002 13.6453 47.6542 15.006 48.6249 16.202C49.5956 17.398 50.7396 18.308 52.0569 18.932L53.5389 16.826C52.6549 16.41 51.8489 15.8553 51.1209 15.162C50.3929 14.4513 49.7689 13.6713 49.2489 12.822C48.7462 11.9553 48.3562 11.054 48.0789 10.118C47.8016 9.16467 47.6629 8.23733 47.6629 7.336ZM81.4089 17.58V0.523999H78.7309V17.58H81.4089ZM74.9609 7.96C74.9609 7.09333 74.8049 6.30467 74.4929 5.594C74.1809 4.866 73.7389 4.242 73.1669 3.722C72.6122 3.202 71.9535 2.80333 71.1909 2.526C70.4455 2.23133 69.6309 2.084 68.7469 2.084C67.8629 2.084 67.0395 2.23133 66.2769 2.526C65.5142 2.80333 64.8555 3.202 64.3009 3.722C63.7462 4.242 63.3042 4.866 62.9749 5.594C62.6629 6.30467 62.5069 7.09333 62.5069 7.96C62.5069 8.80933 62.6629 9.598 62.9749 10.326C63.3042 11.0367 63.7462 11.652 64.3009 12.172C64.8555 12.692 65.5142 13.0993 66.2769 13.394C67.0395 13.6887 67.8629 13.836 68.7469 13.836C69.6309 13.836 70.4455 13.6887 71.1909 13.394C71.9535 13.0993 72.6122 12.692 73.1669 12.172C73.7389 11.652 74.1809 11.0367 74.4929 10.326C74.8049 9.598 74.9609 8.80933 74.9609 7.96ZM65.1329 7.96C65.1329 6.868 65.4709 6.00133 66.1469 5.36C66.8402 4.71867 67.7069 4.398 68.7469 4.398C69.2669 4.398 69.7435 4.48467 70.1769 4.658C70.6102 4.814 70.9915 5.048 71.3209 5.36C71.6502 5.672 71.9015 6.04467 72.0749 6.478C72.2655 6.91133 72.3609 7.40533 72.3609 7.96C72.3609 8.49733 72.2655 8.98267 72.0749 9.416C71.9015 9.84933 71.6502 10.222 71.3209 10.534C70.9915 10.846 70.6102 11.0887 70.1769 11.262C69.7435 11.4353 69.2669 11.522 68.7469 11.522C68.2269 11.522 67.7415 11.4353 67.2909 11.262C66.8575 11.0887 66.4762 10.846 66.1469 10.534C65.8349 10.222 65.5835 9.84933 65.3929 9.416C65.2195 8.98267 65.1329 8.49733 65.1329 7.96ZM82.0849 21.376H68.7729V15.864H66.0689V23.56H82.0849V21.376ZM85.7228 8.272L86.6848 10.352C88.7822 10.1267 90.5762 9.61533 92.0668 8.818C93.5748 8.02067 94.6495 7.01533 95.2908 5.802C95.9148 7.01533 96.9808 8.02067 98.4888 8.818C100.014 9.61533 101.817 10.1267 103.897 10.352L104.833 8.272C103.741 8.168 102.736 7.97733 101.817 7.7C100.916 7.42267 100.127 7.08467 99.4508 6.686C98.7748 6.28733 98.2288 5.84533 97.8128 5.36C97.4142 4.87467 97.1715 4.36333 97.0848 3.826H103.975V1.668H86.6328V3.826H93.4708C93.3842 4.36333 93.1328 4.87467 92.7168 5.36C92.3182 5.84533 91.7808 6.28733 91.1048 6.686C90.4288 7.08467 89.6315 7.42267 88.7128 7.7C87.8115 7.97733 86.8148 8.168 85.7228 8.272ZM105.899 11.548H84.6568V13.706H105.899V11.548ZM95.2388 15.396C93.9908 15.396 92.8642 15.4913 91.8588 15.682C90.8535 15.8727 90.0042 16.1587 89.3108 16.54C88.6175 16.904 88.0802 17.3547 87.6988 17.892C87.3348 18.4293 87.1528 19.036 87.1528 19.712C87.1528 20.388 87.3348 20.9947 87.6988 21.532C88.0802 22.0693 88.6175 22.52 89.3108 22.884C90.0042 23.248 90.8535 23.5253 91.8588 23.716C92.8642 23.9067 93.9908 24.002 95.2388 24.002C97.8388 24.002 99.8322 23.6293 101.219 22.884C102.623 22.1387 103.325 21.0813 103.325 19.712C103.325 19.036 103.134 18.4293 102.753 17.892C102.389 17.3547 101.86 16.904 101.167 16.54C100.474 16.1587 99.6242 15.8727 98.6188 15.682C97.6308 15.4913 96.5042 15.396 95.2388 15.396ZM95.2388 21.896C93.5055 21.896 92.1795 21.714 91.2608 21.35C90.3422 20.986 89.8828 20.44 89.8828 19.712C89.8828 18.984 90.3422 18.438 91.2608 18.074C92.1795 17.6927 93.5055 17.502 95.2388 17.502C96.9722 17.502 98.2982 17.6927 99.2168 18.074C100.153 18.438 100.621 18.984 100.621 19.712C100.621 20.44 100.153 20.986 99.2168 21.35C98.2982 21.714 96.9722 21.896 95.2388 21.896ZM117.909 8.974C120.613 8.974 122.684 8.62733 124.123 7.934C125.561 7.24067 126.281 6.244 126.281 4.944C126.281 3.62667 125.561 2.62133 124.123 1.928C122.684 1.23467 120.613 0.887999 117.909 0.887999C115.187 0.887999 113.107 1.23467 111.669 1.928C110.247 2.62133 109.537 3.62667 109.537 4.944C109.537 6.244 110.247 7.24067 111.669 7.934C113.107 8.62733 115.187 8.974 117.909 8.974ZM117.909 2.89C119.746 2.89 121.133 3.06333 122.069 3.41C123.022 3.75667 123.499 4.268 123.499 4.944C123.499 5.60267 123.022 6.10533 122.069 6.452C121.133 6.79867 119.746 6.972 117.909 6.972C116.071 6.972 114.676 6.79867 113.723 6.452C112.787 6.10533 112.319 5.60267 112.319 4.944C112.319 4.268 112.787 3.75667 113.723 3.41C114.676 3.06333 116.071 2.89 117.909 2.89ZM128.543 10.352H107.275V12.484H128.543V10.352ZM112.501 21.74V19.79H125.865V14.174H109.797V16.202H123.239V17.892H109.849V23.794H126.541V21.74H112.501ZM153.777 17.632V0.549999H151.099V17.632H153.777ZM147.563 14.486L148.915 12.38C148.014 12.0853 147.208 11.6953 146.497 11.21C145.787 10.7247 145.18 10.1787 144.677 9.572C144.192 8.948 143.819 8.28067 143.559 7.57C143.299 6.842 143.169 6.10533 143.169 5.36V4.502H148.187V2.344H135.343V4.502H140.439V5.36C140.439 6.14 140.309 6.91133 140.049 7.674C139.789 8.43667 139.408 9.14733 138.905 9.806C138.42 10.4647 137.813 11.054 137.085 11.574C136.375 12.094 135.551 12.51 134.615 12.822L136.019 14.902C137.423 14.434 138.611 13.7233 139.581 12.77C140.569 11.8167 141.323 10.716 141.843 9.468C142.363 10.6293 143.109 11.6433 144.079 12.51C145.05 13.3767 146.211 14.0353 147.563 14.486ZM154.453 21.376H141.141V16.072H138.437V23.56H154.453V21.376ZM171.923 14.538V8.844H174.367V15.318H176.915V0.497999H174.367V6.634H171.923V0.939998H169.427V14.538H171.923ZM168.621 5.256V3.15H164.097V0.732H161.471V3.15H156.921V5.256H168.621ZM167.841 10.326C167.841 9.71933 167.711 9.17333 167.451 8.688C167.209 8.18533 166.862 7.76067 166.411 7.414C165.978 7.05 165.449 6.77267 164.825 6.582C164.219 6.374 163.543 6.27 162.797 6.27C162.069 6.27 161.393 6.374 160.769 6.582C160.163 6.77267 159.634 7.05 159.183 7.414C158.75 7.76067 158.403 8.18533 158.143 8.688C157.901 9.17333 157.779 9.71933 157.779 10.326C157.779 10.9327 157.901 11.4873 158.143 11.99C158.403 12.4927 158.75 12.926 159.183 13.29C159.634 13.6367 160.163 13.9053 160.769 14.096C161.393 14.2867 162.069 14.382 162.797 14.382C163.543 14.382 164.219 14.2867 164.825 14.096C165.449 13.9053 165.978 13.6367 166.411 13.29C166.862 12.926 167.209 12.4927 167.451 11.99C167.711 11.4873 167.841 10.9327 167.841 10.326ZM160.171 10.326C160.171 9.68467 160.405 9.17333 160.873 8.792C161.359 8.41067 162 8.22 162.797 8.22C163.577 8.22 164.21 8.41067 164.695 8.792C165.198 9.17333 165.449 9.68467 165.449 10.326C165.449 10.9673 165.198 11.4787 164.695 11.86C164.21 12.2413 163.577 12.432 162.797 12.432C162 12.432 161.359 12.2413 160.873 11.86C160.405 11.4787 160.171 10.9673 160.171 10.326ZM169.115 15.656C166.55 15.656 164.583 16.0113 163.213 16.722C161.844 17.4327 161.159 18.464 161.159 19.816C161.159 21.168 161.844 22.1993 163.213 22.91C164.583 23.638 166.55 24.002 169.115 24.002C171.681 24.002 173.639 23.638 174.991 22.91C176.361 22.1993 177.045 21.168 177.045 19.816C177.045 18.464 176.361 17.4327 174.991 16.722C173.639 16.0113 171.681 15.656 169.115 15.656ZM169.115 21.974C167.434 21.974 166.134 21.8007 165.215 21.454C164.297 21.09 163.837 20.544 163.837 19.816C163.837 19.088 164.297 18.5507 165.215 18.204C166.134 17.8573 167.434 17.684 169.115 17.684C172.617 17.684 174.367 18.3947 174.367 19.816C174.367 21.2547 172.617 21.974 169.115 21.974ZM193.553 4.918V2.76H187.963V0.315999H185.285V2.76H179.695V4.918H193.553ZM201.327 8.584V6.374H197.999V0.523999H195.321V14.226H197.999V8.584H201.327ZM192.305 9.91C192.305 9.286 192.167 8.72267 191.889 8.22C191.612 7.71733 191.222 7.284 190.719 6.92C190.234 6.556 189.636 6.27867 188.925 6.088C188.232 5.88 187.461 5.776 186.611 5.776C185.762 5.776 184.991 5.88 184.297 6.088C183.604 6.27867 183.006 6.556 182.503 6.92C182.001 7.284 181.611 7.71733 181.333 8.22C181.056 8.72267 180.917 9.286 180.917 9.91C180.917 10.534 181.056 11.106 181.333 11.626C181.611 12.1287 182.001 12.562 182.503 12.926C183.006 13.29 183.604 13.576 184.297 13.784C184.991 13.9747 185.762 14.07 186.611 14.07C187.461 14.07 188.232 13.9747 188.925 13.784C189.636 13.576 190.234 13.29 190.719 12.926C191.222 12.562 191.612 12.1287 191.889 11.626C192.167 11.106 192.305 10.534 192.305 9.91ZM183.491 9.91C183.491 9.25133 183.777 8.73133 184.349 8.35C184.921 7.96867 185.675 7.778 186.611 7.778C187.547 7.778 188.301 7.96867 188.873 8.35C189.463 8.73133 189.757 9.25133 189.757 9.91C189.757 10.586 189.463 11.1147 188.873 11.496C188.301 11.8773 187.547 12.068 186.611 12.068C185.675 12.068 184.921 11.8773 184.349 11.496C183.777 11.1147 183.491 10.586 183.491 9.91ZM195.347 15.188V17.346H185.649V15.188H182.997V23.716H197.999V15.188H195.347ZM195.347 19.426V21.584H185.649V19.426H195.347ZM221.683 0.523999H219.005V24.002H221.683V0.523999ZM206.317 15.786V2.812H203.665V18.074H205.667C207.504 18.074 209.359 17.996 211.231 17.84C213.12 17.6667 215.088 17.372 217.133 16.956L216.847 14.72C214.958 15.1013 213.146 15.37 211.413 15.526C209.697 15.682 207.998 15.7687 206.317 15.786ZM246.745 11.756V9.546H243.079V0.497999H240.401V24.028H243.079V11.756H246.745ZM228.519 16.02V4.918H236.761V2.734H225.841V18.256H227.765C228.822 18.256 229.819 18.2473 230.755 18.23C231.708 18.1953 232.627 18.152 233.511 18.1C234.395 18.048 235.262 17.97 236.111 17.866C236.978 17.762 237.853 17.632 238.737 17.476L238.451 15.266C237.636 15.4047 236.839 15.526 236.059 15.63C235.279 15.7167 234.482 15.7947 233.667 15.864C232.87 15.916 232.046 15.9593 231.197 15.994C230.348 16.0113 229.455 16.02 228.519 16.02ZM21.0887 41.334H17.7867V36.524H15.1087V48.562H17.7867V43.544H21.0887V41.334ZM11.3387 47.782V37.512H8.68666V40.606H2.94066V37.512H0.262661V47.782H11.3387ZM8.68666 42.66V45.65H2.94066V42.66H8.68666ZM5.30666 57.688V55.608H17.7867V49.602H2.62866V51.682H15.1347V53.632H2.68066V59.794H18.5667V57.688H5.30666ZM41.4186 53.71V36.55H38.7406V53.71H41.4186ZM34.9186 50.018L36.2966 47.886C35.3953 47.574 34.5893 47.158 33.8786 46.638C33.1853 46.1007 32.596 45.494 32.1106 44.818C31.6253 44.1247 31.2526 43.388 30.9926 42.608C30.75 41.8107 30.6286 40.996 30.6286 40.164V37.824H27.8986V40.164C27.8986 41.0307 27.7686 41.88 27.5086 42.712C27.266 43.5267 26.902 44.2893 26.4166 45C25.9313 45.7107 25.3246 46.352 24.5966 46.924C23.886 47.496 23.0713 47.9553 22.1526 48.302L23.5306 50.46C24.9346 49.94 26.1133 49.1773 27.0666 48.172C28.02 47.1493 28.7653 45.9793 29.3026 44.662C29.8053 45.91 30.5246 46.9933 31.4606 47.912C32.414 48.8133 33.5666 49.5153 34.9186 50.018ZM42.0946 57.376H28.7826V52.098H26.0786V59.56H42.0946V57.376ZM70.8391 41.334H67.5371V36.498H64.8591V48.38H67.5371V43.544H70.8391V41.334ZM61.8171 42.556C61.8171 41.776 61.6611 41.0653 61.3491 40.424C61.0544 39.7827 60.6297 39.228 60.0751 38.76C59.5377 38.292 58.8877 37.928 58.1251 37.668C57.3797 37.408 56.5651 37.278 55.6811 37.278C54.7971 37.278 53.9737 37.408 53.2111 37.668C52.4484 37.928 51.7897 38.292 51.2351 38.76C50.6977 39.228 50.2731 39.7827 49.9611 40.424C49.6491 41.0653 49.4931 41.776 49.4931 42.556C49.4931 43.336 49.6491 44.0467 49.9611 44.688C50.2731 45.3293 50.6977 45.884 51.2351 46.352C51.7897 46.82 52.4484 47.184 53.2111 47.444C53.9737 47.704 54.7971 47.834 55.6811 47.834C56.5651 47.834 57.3797 47.704 58.1251 47.444C58.8877 47.184 59.5377 46.82 60.0751 46.352C60.6297 45.884 61.0544 45.3293 61.3491 44.688C61.6611 44.0467 61.8171 43.336 61.8171 42.556ZM52.0931 42.556C52.0931 41.62 52.4311 40.8747 53.1071 40.32C53.7831 39.748 54.6411 39.462 55.6811 39.462C56.7211 39.462 57.5704 39.748 58.2291 40.32C58.8877 40.8747 59.2171 41.62 59.2171 42.556C59.2171 43.492 58.8877 44.246 58.2291 44.818C57.5704 45.39 56.7211 45.676 55.6811 45.676C54.6411 45.676 53.7831 45.39 53.1071 44.818C52.4311 44.246 52.0931 43.492 52.0931 42.556ZM55.0571 57.584V55.452H67.5371V49.394H52.3791V51.5H64.8851V53.502H52.4311V59.716H68.3171V57.584H55.0571ZM93.483 44.558V42.348H90.155V36.55H87.477V50.512H90.155V44.558H93.483ZM85.761 48.718L85.475 46.534C84.6777 46.69 83.889 46.82 83.109 46.924C82.329 47.0107 81.5317 47.0887 80.717 47.158C79.9197 47.21 79.079 47.2447 78.195 47.262C77.3284 47.2793 76.3924 47.288 75.387 47.288V44.506H83.369V37.746H72.709V39.93H80.717V42.452H72.761V49.472H74.659C75.7857 49.472 76.8257 49.4633 77.779 49.446C78.7497 49.4287 79.677 49.394 80.561 49.342C81.445 49.2727 82.3117 49.1947 83.161 49.108C84.0104 49.004 84.877 48.874 85.761 48.718ZM75.153 51.604V59.716H90.155V51.604H75.153ZM77.779 57.584V53.71H87.529V57.584H77.779ZM105.051 44.974C107.755 44.974 109.826 44.6273 111.265 43.934C112.704 43.2407 113.423 42.244 113.423 40.944C113.423 39.6267 112.704 38.6213 111.265 37.928C109.826 37.2347 107.755 36.888 105.051 36.888C102.33 36.888 100.25 37.2347 98.811 37.928C97.3897 38.6213 96.679 39.6267 96.679 40.944C96.679 42.244 97.3897 43.2407 98.811 43.934C100.25 44.6273 102.33 44.974 105.051 44.974ZM105.051 38.89C106.888 38.89 108.275 39.0633 109.211 39.41C110.164 39.7567 110.641 40.268 110.641 40.944C110.641 41.6027 110.164 42.1053 109.211 42.452C108.275 42.7987 106.888 42.972 105.051 42.972C103.214 42.972 101.818 42.7987 100.865 42.452C99.929 42.1053 99.461 41.6027 99.461 40.944C99.461 40.268 99.929 39.7567 100.865 39.41C101.818 39.0633 103.214 38.89 105.051 38.89ZM115.685 46.352H94.417V48.484H115.685V46.352ZM99.643 57.74V55.79H113.007V50.174H96.939V52.202H110.381V53.892H96.991V59.794H113.683V57.74H99.643ZM135.381 40.45V38.5H130.051V36.316H127.347V38.5H121.965V40.45H135.381ZM143.181 45.676V43.466H139.957V36.55H137.279V52.41H139.957V45.676H143.181ZM136.239 50.876L136.031 49.004C135.078 49.1427 134.099 49.2553 133.093 49.342C132.105 49.4113 131.091 49.472 130.051 49.524V48.068C131.351 47.912 132.374 47.548 133.119 46.976C133.882 46.3867 134.263 45.624 134.263 44.688C134.263 44.1333 134.125 43.6393 133.847 43.206C133.587 42.7727 133.215 42.4087 132.729 42.114C132.244 41.8193 131.655 41.594 130.961 41.438C130.285 41.2647 129.523 41.178 128.673 41.178C127.824 41.178 127.053 41.2647 126.359 41.438C125.683 41.594 125.103 41.8193 124.617 42.114C124.132 42.4087 123.751 42.7727 123.473 43.206C123.213 43.6393 123.083 44.1333 123.083 44.688C123.083 45.624 123.456 46.3867 124.201 46.976C124.947 47.5653 125.995 47.9293 127.347 48.068V49.628C126.255 49.6627 125.207 49.68 124.201 49.68H121.367L121.679 51.812C122.702 51.812 123.803 51.8033 124.981 51.786C126.16 51.7687 127.373 51.734 128.621 51.682C129.887 51.6127 131.161 51.5173 132.443 51.396C133.726 51.2747 134.991 51.1013 136.239 50.876ZM125.605 44.688C125.605 44.1507 125.883 43.7347 126.437 43.44C126.992 43.128 127.737 42.972 128.673 42.972C129.609 42.972 130.355 43.128 130.909 43.44C131.464 43.7347 131.741 44.1507 131.741 44.688C131.741 45.208 131.464 45.6153 130.909 45.91C130.355 46.2047 129.609 46.352 128.673 46.352C127.737 46.352 126.992 46.2047 126.437 45.91C125.883 45.6153 125.605 45.208 125.605 44.688ZM124.279 53.45V55.582H137.279V60.028H139.957V53.45H124.279ZM163.537 53.58V36.524H160.859V53.58H163.537ZM157.089 43.96C157.089 43.0933 156.933 42.3047 156.621 41.594C156.309 40.866 155.867 40.242 155.295 39.722C154.741 39.202 154.082 38.8033 153.319 38.526C152.574 38.2313 151.759 38.084 150.875 38.084C149.991 38.084 149.168 38.2313 148.405 38.526C147.643 38.8033 146.984 39.202 146.429 39.722C145.875 40.242 145.433 40.866 145.103 41.594C144.791 42.3047 144.635 43.0933 144.635 43.96C144.635 44.8093 144.791 45.598 145.103 46.326C145.433 47.0367 145.875 47.652 146.429 48.172C146.984 48.692 147.643 49.0993 148.405 49.394C149.168 49.6887 149.991 49.836 150.875 49.836C151.759 49.836 152.574 49.6887 153.319 49.394C154.082 49.0993 154.741 48.692 155.295 48.172C155.867 47.652 156.309 47.0367 156.621 46.326C156.933 45.598 157.089 44.8093 157.089 43.96ZM147.261 43.96C147.261 42.868 147.599 42.0013 148.275 41.36C148.969 40.7187 149.835 40.398 150.875 40.398C151.395 40.398 151.872 40.4847 152.305 40.658C152.739 40.814 153.12 41.048 153.449 41.36C153.779 41.672 154.03 42.0447 154.203 42.478C154.394 42.9113 154.489 43.4053 154.489 43.96C154.489 44.4973 154.394 44.9827 154.203 45.416C154.03 45.8493 153.779 46.222 153.449 46.534C153.12 46.846 152.739 47.0887 152.305 47.262C151.872 47.4353 151.395 47.522 150.875 47.522C150.355 47.522 149.87 47.4353 149.419 47.262C148.986 47.0887 148.605 46.846 148.275 46.534C147.963 46.222 147.712 45.8493 147.521 45.416C147.348 44.9827 147.261 44.4973 147.261 43.96ZM164.213 57.376H150.901V51.864H148.197V59.56H164.213V57.376ZM186.805 36.524H184.257V46.248H181.761V37.018H179.265V58.91H181.761V48.458H184.257V60.002H186.805V36.524ZM173.857 40.346V37.2H171.205V40.346H166.759V42.504H178.251V40.346H173.857ZM172.531 43.83C171.786 43.83 171.101 43.96 170.477 44.22C169.853 44.48 169.316 44.8527 168.865 45.338C168.415 45.8233 168.059 46.404 167.799 47.08C167.557 47.7387 167.435 48.4753 167.435 49.29C167.435 50.0873 167.557 50.824 167.799 51.5C168.059 52.176 168.415 52.7567 168.865 53.242C169.316 53.71 169.853 54.0827 170.477 54.36C171.101 54.62 171.786 54.75 172.531 54.75C173.277 54.75 173.961 54.62 174.585 54.36C175.209 54.0827 175.747 53.71 176.197 53.242C176.648 52.7567 176.995 52.176 177.237 51.5C177.497 50.824 177.627 50.0873 177.627 49.29C177.627 48.4753 177.497 47.7387 177.237 47.08C176.995 46.404 176.648 45.8233 176.197 45.338C175.747 44.8527 175.209 44.48 174.585 44.22C173.961 43.96 173.277 43.83 172.531 43.83ZM172.531 52.514C171.734 52.514 171.084 52.228 170.581 51.656C170.079 51.0667 169.827 50.278 169.827 49.29C169.827 48.302 170.079 47.5133 170.581 46.924C171.084 46.3347 171.734 46.04 172.531 46.04C173.329 46.04 173.979 46.3347 174.481 46.924C174.984 47.5133 175.235 48.302 175.235 49.29C175.235 50.278 174.984 51.0667 174.481 51.656C173.979 52.228 173.329 52.514 172.531 52.514ZM190.599 45.91L191.561 48.016C193.503 47.7213 195.219 47.1233 196.709 46.222C198.2 45.3207 199.309 44.22 200.037 42.92C200.783 44.2373 201.901 45.338 203.391 46.222C204.882 47.106 206.598 47.704 208.539 48.016L209.501 45.91C208.392 45.754 207.361 45.494 206.407 45.13C205.454 44.7487 204.622 44.298 203.911 43.778C203.218 43.2407 202.663 42.6513 202.247 42.01C201.831 41.3687 201.606 40.7013 201.571 40.008H208.669V37.85H191.379V40.008H198.529C198.495 40.7013 198.269 41.3687 197.853 42.01C197.437 42.6513 196.874 43.2407 196.163 43.778C195.47 44.298 194.647 44.7487 193.693 45.13C192.74 45.494 191.709 45.754 190.599 45.91ZM210.645 51.89L210.671 49.732H189.429V51.89H198.633V60.028H201.311V51.89H210.645ZM232.093 36.524H229.545V60.002H232.093V36.524ZM224.761 36.966V44.74H221.303V46.924H224.761V58.91H227.283V36.966H224.761ZM219.249 42.79V38.682H216.649V42.92C216.649 43.9253 216.545 44.9307 216.337 45.936C216.147 46.924 215.843 47.8687 215.427 48.77C215.011 49.6713 214.491 50.4947 213.867 51.24C213.261 51.9853 212.541 52.6093 211.709 53.112L213.347 55.14C214.491 54.4467 215.445 53.5193 216.207 52.358C216.97 51.1967 217.559 49.8793 217.975 48.406C218.374 49.7233 218.92 50.928 219.613 52.02C220.324 53.0947 221.225 53.9613 222.317 54.62L223.825 52.54C223.045 52.0373 222.361 51.4307 221.771 50.72C221.199 49.992 220.723 49.2033 220.341 48.354C219.977 47.4873 219.7 46.586 219.509 45.65C219.336 44.6967 219.249 43.7433 219.249 42.79ZM255.933 54.932H250.915V48.822C251.851 48.2847 252.579 47.6087 253.099 46.794C253.637 45.9793 253.905 45.052 253.905 44.012C253.905 43.076 253.689 42.2353 253.255 41.49C252.822 40.7273 252.224 40.0773 251.461 39.54C250.699 39.0027 249.789 38.5953 248.731 38.318C247.674 38.0233 246.521 37.876 245.273 37.876C244.025 37.876 242.873 38.0233 241.815 38.318C240.758 38.5953 239.839 39.0027 239.059 39.54C238.297 40.0773 237.699 40.7273 237.265 41.49C236.849 42.2353 236.641 43.076 236.641 44.012C236.641 45.052 236.901 45.988 237.421 46.82C237.959 47.6347 238.695 48.302 239.631 48.822V54.932H234.665V57.116H255.933V54.932ZM245.273 39.982C246.157 39.982 246.963 40.0773 247.691 40.268C248.437 40.4587 249.069 40.7273 249.589 41.074C250.127 41.4207 250.543 41.8453 250.837 42.348C251.132 42.8333 251.279 43.388 251.279 44.012C251.279 44.636 251.132 45.1993 250.837 45.702C250.543 46.2047 250.127 46.6293 249.589 46.976C249.069 47.3227 248.437 47.5913 247.691 47.782C246.963 47.9727 246.157 48.068 245.273 48.068C244.389 48.068 243.575 47.9727 242.829 47.782C242.084 47.5913 241.443 47.3227 240.905 46.976C240.385 46.6293 239.978 46.2047 239.683 45.702C239.389 45.1993 239.241 44.636 239.241 44.012C239.241 43.388 239.389 42.8333 239.683 42.348C239.978 41.8453 240.385 41.4207 240.905 41.074C241.443 40.7273 242.084 40.4587 242.829 40.268C243.575 40.0773 244.389 39.982 245.273 39.982ZM242.309 54.932V49.836C243.228 50.044 244.216 50.148 245.273 50.148C245.793 50.148 246.305 50.122 246.807 50.07C247.31 50.018 247.787 49.9313 248.237 49.81V54.932H242.309ZM261.417 52.644L261.937 38.422H258.921L258.999 41.49L259.415 52.644H261.417ZM258.895 58.338H261.963V55.114H258.895V58.338Z" fill="black"/>
</svg>
