<svg width="85" height="24" viewBox="0 0 85 24" fill="none" xmlns="http://www.w3.org/2000/svg">
<path d="M32.912 13.264H34.992V10.384H36.064V14.544H38.176V4.896H36.064V8.528H34.992V5.04H32.912V13.264ZM25.52 13.808C26.688 13.216 27.808 12.272 28.64 11.12L28.656 11.104C28.912 11.44 29.184 11.76 29.488 12.048C30.128 12.64 30.832 13.12 31.584 13.392L32.736 11.824C31.904 11.536 31.184 11.152 30.592 10.656C30.192 10.336 29.856 9.936 29.568 9.472C29.584 9.392 29.616 9.328 29.632 9.264C29.712 9.056 29.792 8.848 29.84 8.624H32.352V6.896H24.928V8.624H27.648C27.168 10.288 26.016 11.536 24.208 12.352L25.52 13.808ZM38.432 17.6C36.608 17.28 34.944 16.768 33.664 15.84L33.392 15.632C33.712 15.088 33.888 14.48 33.936 13.824H31.696C31.52 16.016 29.056 17.248 25.936 17.68L27.12 19.296C28.592 19.04 30.24 18.464 31.536 17.568C31.808 17.376 32.08 17.168 32.32 16.944C32.464 17.056 32.608 17.184 32.768 17.296C34.112 18.32 35.776 18.96 37.408 19.248L38.432 17.6ZM30.848 6.352V4.624H26.528V6.352H30.848ZM50.0214 4.96V6.336H43.3014V4.96H41.1574V10.976L45.5734 10.992V11.984H39.6214V13.744H53.7014V11.984H47.7494V11.008H52.1654V4.96H50.0214ZM53.1414 17.552C51.2054 17.36 49.4614 16.944 48.0854 16.144C47.9254 16.048 47.7654 15.952 47.6214 15.84L47.7334 15.648C47.9734 15.216 48.1174 14.768 48.1654 14.272H45.9254C45.6214 16.192 43.2374 17.28 40.0694 17.664L40.9814 19.296C42.5014 19.136 44.1974 18.592 45.5894 17.776C45.9254 17.568 46.2294 17.36 46.5014 17.12C46.6934 17.264 46.9014 17.408 47.1254 17.552C48.6454 18.512 50.5174 19.104 52.1974 19.2L53.1414 17.552ZM43.3014 9.216V8H50.0214V9.216H43.3014ZM62.9228 12.576C60.2348 12.576 58.2988 14.032 58.2988 16.112C58.2988 18.208 60.2348 19.648 62.9228 19.648C65.6108 19.648 67.5468 18.208 67.5468 16.112C67.5468 14.032 65.6108 12.576 62.9228 12.576ZM64.6188 10.384C63.1148 9.968 61.7708 9.296 60.8108 8.176L60.5228 7.792C60.5388 7.776 60.5388 7.744 60.5548 7.712C60.8908 6.912 61.0668 6.048 61.0828 5.12H58.9068C58.7628 8.048 57.0188 10.048 54.2188 11.008L55.5308 12.576C56.8588 12.08 58.2348 11.152 59.2748 9.872C59.3868 9.744 59.4828 9.6 59.5948 9.456L59.6108 9.488C60.6668 10.736 62.0588 11.632 63.4508 12.048L64.6188 10.384ZM67.5948 12.72V9.488H69.2908V7.664H67.5948V4.896H65.4508V12.72H67.5948ZM62.9228 17.888C61.3228 17.888 60.4428 17.184 60.4428 16.112C60.4428 15.04 61.3228 14.336 62.9228 14.336C64.5228 14.336 65.4028 15.04 65.4028 16.112C65.4028 17.184 64.5228 17.888 62.9228 17.888ZM78.4161 7.152V5.36H70.4801V12.256L79.7601 11.824V10.032L72.6241 10.272V7.152H78.4161ZM82.5441 12.784V9.52H84.2401V7.664H82.5441V4.896H80.4001V12.784H82.5441ZM71.6961 13.424V19.136H82.5121V13.424H71.6961ZM73.8401 15.216H80.3681V17.312H73.8401V15.216Z" fill="#242D3C"/>
<path d="M7 18L1 12L7 6" stroke="#242D3C" stroke-width="1.5" stroke-linecap="round" stroke-linejoin="round"/>
</svg>
