<svg width="91" height="13" viewBox="0 0 91 13" fill="none" xmlns="http://www.w3.org/2000/svg">
<path d="M7.99112 6.572C6.80312 6.092 5.74712 5.312 5.00312 4.328C4.84712 4.124 4.71512 3.908 4.59512 3.68L4.71512 3.356C4.91912 2.732 5.03912 2.072 5.05112 1.388H4.11512C3.98312 3.788 2.68712 5.924 0.383124 6.98L0.959124 7.616C2.12312 7.04 3.13112 6.164 3.85112 5.096C3.98312 4.904 4.11512 4.7 4.22312 4.496C4.30712 4.64 4.41512 4.784 4.52312 4.916C5.30312 5.936 6.37112 6.8 7.43912 7.28L7.99112 6.572ZM10.6191 11.78V10.988H3.29912V8.252H2.38712V11.78H10.6191ZM10.3191 9.092V1.196H9.40712V9.092H10.3191ZM16.7792 0.763999C14.7872 0.763999 13.2512 1.7 13.2512 3.092C13.2512 3.44 13.3352 3.764 13.5152 4.052C13.6952 4.328 13.9232 4.556 14.2232 4.76V6.428H11.5232V7.196H22.0352V6.428H19.3232V4.76C19.6232 4.556 19.8512 4.328 20.0312 4.052C20.2112 3.764 20.3072 3.44 20.3072 3.092C20.3072 1.7 18.7712 0.763999 16.7792 0.763999ZM16.8272 7.784C14.8352 7.784 13.2992 8.672 13.2992 10.076C13.2992 11.48 14.8352 12.356 16.8272 12.356C18.8192 12.356 20.3552 11.48 20.3552 10.076C20.3552 8.672 18.8192 7.784 16.8272 7.784ZM16.7792 4.676C15.3152 4.676 14.1632 4.052 14.1632 3.092C14.1632 2.132 15.3152 1.508 16.7792 1.508C18.2432 1.508 19.3952 2.132 19.3952 3.092C19.3952 4.052 18.2432 4.676 16.7792 4.676ZM16.8272 11.588C15.3632 11.588 14.2112 11.024 14.2112 10.076C14.2112 9.128 15.3632 8.564 16.8272 8.564C18.2912 8.564 19.4432 9.128 19.4432 10.076C19.4432 11.024 18.2912 11.588 16.8272 11.588ZM15.3872 5.252C15.8192 5.36 16.2872 5.42 16.7792 5.42C17.2712 5.42 17.7392 5.36 18.1712 5.252L18.3992 5.192V6.428H15.1472V5.192C15.2192 5.216 15.3032 5.24 15.3872 5.252ZM24.3192 7.808V11.828H32.2392V7.808H24.3192ZM25.2312 8.576H31.3272V11.036H25.2312V8.576ZM29.7192 1.568H23.0112V2.36H26.0832C26.0232 2.66 25.9392 2.96 25.8312 3.236C25.2432 4.7 23.9472 5.924 22.3272 6.572L22.8792 7.232C23.9352 6.764 24.9912 6.02 25.7712 5.072C25.9272 4.892 26.0592 4.712 26.1912 4.532C26.3592 4.736 26.5392 4.928 26.7312 5.108C27.5712 5.876 28.5912 6.512 29.6112 6.896L30.1272 6.152C29.3712 5.912 28.6752 5.588 28.0392 5.168C27.4392 4.772 26.9592 4.328 26.5992 3.824C26.6472 3.716 26.6952 3.62 26.7312 3.512C26.8872 3.14 27.0072 2.756 27.0672 2.36H29.7192V1.568ZM29.0232 4.34H31.3512V7.208H32.2632V1.196H31.3512V3.548H29.0232V4.34ZM39.1912 11.9V8.06H43.9792V7.268H33.4672V8.06H38.2552V11.9H39.1912ZM43.5472 5.36C42.5032 5.156 41.5912 4.82 40.8352 4.352C40.1632 3.932 39.6112 3.392 39.1792 2.732C39.3592 2.312 39.4672 1.856 39.4912 1.376H38.5312C38.3752 3.548 36.1912 4.988 33.7552 5.372L34.2472 6.092C35.4592 5.9 36.7552 5.348 37.7512 4.532C38.1352 4.208 38.4712 3.86 38.7472 3.464C39.2392 4.124 39.8032 4.652 40.4632 5.06C41.2552 5.552 42.1192 5.9 43.0672 6.104L43.5472 5.36ZM58.2287 6.824C57.1967 6.512 56.2847 6.092 55.5048 5.552C54.7487 5.036 54.1367 4.436 53.6447 3.728C53.8368 3.32 53.9687 2.888 54.0407 2.444H57.4247V1.652H49.1087V2.444H53.0567C52.9607 2.948 52.7927 3.416 52.5407 3.848C51.7007 5.336 50.1047 6.392 48.2447 6.872L48.7487 7.556C50.0087 7.208 51.2687 6.536 52.2407 5.624C52.6127 5.276 52.9487 4.88 53.2247 4.46C53.4527 4.76 53.6927 5.036 53.9687 5.3C55.0127 6.32 56.3328 7.112 57.7128 7.544L58.2287 6.824ZM48.0167 10.1V10.892H58.5287V10.1H53.7407V7.064H52.8047V10.1H48.0167ZM67.4008 10.172V9.404L63.7408 9.452V8.252C63.9568 8.228 64.1608 8.192 64.3648 8.132C65.3728 7.832 66.1288 7.1 66.1288 6.176C66.1288 4.928 64.7968 4.076 63.2728 4.076C61.7488 4.076 60.4168 4.928 60.4168 6.176C60.4168 7.1 61.1728 7.832 62.1808 8.132C62.3848 8.192 62.5888 8.228 62.8048 8.252V9.464L59.2168 9.5V10.292L67.4008 10.172ZM68.7928 11.9V1.196H67.8808V11.9H68.7928ZM63.2728 7.508C62.1088 7.508 61.3288 6.944 61.3288 6.176C61.3288 5.408 62.1088 4.844 63.2728 4.844C64.4368 4.844 65.2168 5.408 65.2168 6.176C65.2168 6.944 64.4368 7.508 63.2728 7.508ZM66.8488 3.656V2.864H59.6968V3.656H66.8488ZM61.2928 1.34V2.132H65.2528V1.34H61.2928ZM75.7088 7.568C75.7088 5.996 74.6768 4.664 73.0808 4.664C71.4848 4.664 70.4528 5.996 70.4528 7.568C70.4528 9.14 71.4848 10.472 73.0808 10.472C74.6768 10.472 75.7088 9.14 75.7088 7.568ZM77.6168 11.6V6.392H79.1648V11.888H80.0768V1.196H79.1648V5.576H77.6168V1.316H76.7168V11.6H77.6168ZM74.8088 7.568C74.8088 8.72 74.1968 9.692 73.0808 9.692C71.9648 9.692 71.3528 8.72 71.3528 7.568C71.3528 6.416 71.9648 5.444 73.0808 5.444C74.1968 5.444 74.8088 6.416 74.8088 7.568ZM75.9848 3.92V3.128H70.0568V3.92H75.9848ZM74.7248 2.132V1.34H71.4368V2.132H74.7248ZM88.7928 5.228C88.0608 5.024 87.4008 4.736 86.8128 4.376C86.3208 4.076 85.9128 3.704 85.5888 3.26L85.6008 3.236C85.7568 2.948 85.8648 2.648 85.9248 2.324H88.3368V1.532H82.0728V2.324H84.9528C84.8928 2.552 84.8208 2.78 84.7128 2.996C84.1368 4.16 82.9008 5.036 81.4368 5.444L81.9768 6.116C82.8888 5.828 83.8848 5.276 84.6528 4.52C84.8328 4.34 85.0008 4.136 85.1568 3.932C85.2768 4.076 85.3968 4.208 85.5288 4.34C86.3088 5.072 87.3168 5.672 88.3008 5.96L88.7928 5.228ZM90.7368 11.9V1.196H89.8248V8.9H86.9808V9.68H89.8248V11.9H90.7368ZM85.3968 11.648V7.664L89.1048 7.604V6.836L81.1608 6.932V7.724L84.4608 7.676V11.648H85.3968Z" fill="black"/>
</svg>
