<svg width="90" height="12" viewBox="0 0 90 12" fill="none" xmlns="http://www.w3.org/2000/svg">
<path d="M6.56464 4.352C6.56464 2.864 5.36464 1.7 3.44464 1.7C2.07664 1.7 1.06864 2.54 0.45664 3.644L1.10464 4.064C1.62064 3.152 2.35264 2.444 3.44464 2.444C4.80064 2.444 5.70064 3.296 5.70064 4.352C5.70064 5.42 4.94464 6.176 4.22464 6.824L0.40864 10.304V10.94H6.80464V10.196H1.59664L4.72864 7.424C5.60464 6.644 6.56464 5.732 6.56464 4.352ZM7.30508 6.44C7.30508 9.392 9.12908 11.18 11.1451 11.18C13.1611 11.18 14.9851 9.392 14.9851 6.44C14.9851 3.488 13.1611 1.7 11.1451 1.7C9.12908 1.7 7.30508 3.488 7.30508 6.44ZM14.1211 6.44C14.1211 8.936 12.6571 10.436 11.1451 10.436C9.63308 10.436 8.16908 8.936 8.16908 6.44C8.16908 3.944 9.63308 2.444 11.1451 2.444C12.6571 2.444 14.1211 3.944 14.1211 6.44ZM21.6298 4.352C21.6298 2.864 20.4298 1.7 18.5098 1.7C17.1418 1.7 16.1338 2.54 15.5218 3.644L16.1698 4.064C16.6858 3.152 17.4178 2.444 18.5098 2.444C19.8658 2.444 20.7658 3.296 20.7658 4.352C20.7658 5.42 20.0098 6.176 19.2898 6.824L15.4738 10.304V10.94H21.8698V10.196H16.6618L19.7938 7.424C20.6698 6.644 21.6298 5.732 21.6298 4.352ZM25.4062 10.436C24.4342 10.436 23.4142 9.752 22.8982 8.864L22.2262 9.308C22.8022 10.412 24.0382 11.18 25.4062 11.18C27.4822 11.18 28.7302 9.884 28.7302 8.288C28.7302 6.74 27.6382 5.504 25.5022 5.468L28.4302 2.6V1.94H22.6462V2.684H27.2662L23.9902 5.876L24.3262 6.476C24.4222 6.44 24.9502 6.2 25.3702 6.2C26.9062 6.2 27.8662 7.1 27.8662 8.288C27.8662 9.476 26.9902 10.436 25.4062 10.436ZM34.4147 3.032H37.8227V4.292H34.4147V5.072H37.8227V9.212H38.7347V1.196H37.8227V2.252H34.4147V3.032ZM29.8067 1.448V7.292L36.7427 6.956V6.176L30.7187 6.428V1.448H29.8067ZM39.0347 11.78V10.988H31.7147V8.372H30.8027V11.78H39.0347ZM46.7442 10.436C45.7722 10.436 44.7522 9.752 44.2362 8.864L43.5642 9.308C44.1402 10.412 45.3762 11.18 46.7442 11.18C48.8202 11.18 50.0682 9.884 50.0682 8.288C50.0682 6.74 48.9762 5.504 46.8402 5.468L49.7682 2.6V1.94H43.9842V2.684H48.6042L45.3282 5.876L45.6642 6.476C45.7602 6.44 46.2882 6.2 46.7082 6.2C48.2442 6.2 49.2042 7.1 49.2042 8.288C49.2042 9.476 48.3282 10.436 46.7442 10.436ZM60.5166 11.828V11.072H53.0406V10.244H60.2766V8.012H52.1286V8.756H59.3646V9.524H52.1286V11.828H60.5166ZM54.5166 0.931999C52.8006 0.931999 51.5166 1.712 51.5166 2.876C51.5166 4.04 52.8006 4.82 54.5166 4.82C56.2326 4.82 57.5166 4.04 57.5166 2.876C57.5166 1.712 56.2326 0.931999 54.5166 0.931999ZM54.5166 4.064C53.2686 4.064 52.4286 3.56 52.4286 2.876C52.4286 2.18 53.2686 1.676 54.5166 1.676C55.7646 1.676 56.6046 2.18 56.6046 2.876C56.6046 3.56 55.7646 4.064 54.5166 4.064ZM60.3006 7.58V1.196H59.3886V6.512H56.5326V7.232H59.3886V7.58H60.3006ZM58.6926 5.996V5.276L50.6406 5.372V6.116L53.8806 6.068V7.58H54.8166V6.056L58.6926 5.996ZM71.0942 4.352C71.0942 2.864 69.8942 1.7 67.9742 1.7C66.6062 1.7 65.5982 2.54 64.9862 3.644L65.6342 4.064C66.1502 3.152 66.8822 2.444 67.9742 2.444C69.3302 2.444 70.2302 3.296 70.2302 4.352C70.2302 5.42 69.4742 6.176 68.7542 6.824L64.9382 10.304V10.94H71.3342V10.196H66.1262L69.2582 7.424C70.1342 6.644 71.0942 5.732 71.0942 4.352ZM71.8346 6.44C71.8346 9.392 73.6586 11.18 75.6746 11.18C77.6906 11.18 79.5146 9.392 79.5146 6.44C79.5146 3.488 77.6906 1.7 75.6746 1.7C73.6586 1.7 71.8346 3.488 71.8346 6.44ZM78.6506 6.44C78.6506 8.936 77.1866 10.436 75.6746 10.436C74.1626 10.436 72.6986 8.936 72.6986 6.44C72.6986 3.944 74.1626 2.444 75.6746 2.444C77.1866 2.444 78.6506 3.944 78.6506 6.44ZM89.6873 6.8V1.196H88.7753V6.8H89.6873ZM89.9273 11.828V11.036H82.6553V9.932H89.6873V7.352H81.7433V8.12H88.7753V9.188H81.7433V11.828H89.9273ZM83.4833 1.112C81.7913 1.112 80.4113 2.252 80.4113 3.848C80.4113 5.444 81.7913 6.584 83.4833 6.584C85.1753 6.584 86.5553 5.444 86.5553 3.848C86.5553 2.252 85.1753 1.112 83.4833 1.112ZM83.4833 5.816C82.1993 5.816 81.3233 4.988 81.3233 3.848C81.3233 2.708 82.1993 1.88 83.4833 1.88C84.7673 1.88 85.6433 2.708 85.6433 3.848C85.6433 4.988 84.7673 5.816 83.4833 5.816Z" fill="#666666"/>
</svg>
