<svg width="69" height="11" viewBox="0 0 69 11" fill="none" xmlns="http://www.w3.org/2000/svg">
<path d="M5.31116 6.844H7.14716V10.6H8.04716V0.316H7.14716V2.524H5.65916V3.328H7.14716V6.04H5.31116V6.844ZM1.05116 1.504H4.49516C4.39916 4.048 2.94716 7.024 0.583158 8.656L1.24316 9.268C3.67916 7.444 5.49116 4.456 5.45516 0.711999H1.05116V1.504ZM10.3992 10.888V0.196H9.48716V10.888H10.3992ZM18.8992 5.524C17.8192 5.044 16.8472 4.312 16.1512 3.436C15.9472 3.184 15.7792 2.92 15.6352 2.656C15.7912 2.272 15.8872 1.864 15.9472 1.444H18.5152V0.651999H12.0592V1.444H14.9752C14.9152 1.876 14.8072 2.284 14.6392 2.668C14.0152 4.072 12.8152 5.164 11.4592 5.728L11.9992 6.364C12.9592 5.896 13.9192 5.188 14.6392 4.312C14.8672 4.036 15.0712 3.736 15.2512 3.436C15.5992 3.952 16.0072 4.432 16.4992 4.876C17.0872 5.416 17.7112 5.86 18.3712 6.208L18.8992 5.524ZM20.7472 10.9V5.332H22.2952V4.516H20.7472V0.196H19.8352V10.9H20.7472ZM19.3552 9.052V8.284L15.7072 8.332V5.62H14.7712V8.344L11.4112 8.38V9.172L19.3552 9.052ZM36.2567 5.824C35.2247 5.512 34.3127 5.092 33.5327 4.552C32.7767 4.036 32.1647 3.436 31.6727 2.728C31.8647 2.32 31.9967 1.888 32.0687 1.444H35.4527V0.651999H27.1367V1.444H31.0847C30.9887 1.948 30.8207 2.416 30.5687 2.848C29.7287 4.336 28.1327 5.392 26.2727 5.872L26.7767 6.556C28.0367 6.208 29.2967 5.536 30.2687 4.624C30.6407 4.276 30.9767 3.88 31.2527 3.46C31.4807 3.76 31.7207 4.036 31.9967 4.3C33.0407 5.32 34.3607 6.112 35.7407 6.544L36.2567 5.824ZM26.0447 9.1V9.892H36.5567V9.1H31.7687V6.064H30.8327V9.1H26.0447ZM45.4288 9.172V8.404L41.7688 8.452V7.252C41.9848 7.228 42.1888 7.192 42.3928 7.132C43.4008 6.832 44.1568 6.1 44.1568 5.176C44.1568 3.928 42.8248 3.076 41.3008 3.076C39.7768 3.076 38.4448 3.928 38.4448 5.176C38.4448 6.1 39.2008 6.832 40.2088 7.132C40.4128 7.192 40.6168 7.228 40.8328 7.252V8.464L37.2448 8.5V9.292L45.4288 9.172ZM46.8208 10.9V0.196H45.9088V10.9H46.8208ZM41.3008 6.508C40.1368 6.508 39.3568 5.944 39.3568 5.176C39.3568 4.408 40.1368 3.844 41.3008 3.844C42.4648 3.844 43.2448 4.408 43.2448 5.176C43.2448 5.944 42.4648 6.508 41.3008 6.508ZM44.8768 2.656V1.864H37.7248V2.656H44.8768ZM39.3208 0.339999V1.132H43.2808V0.339999H39.3208ZM53.7368 6.568C53.7368 4.996 52.7048 3.664 51.1088 3.664C49.5128 3.664 48.4808 4.996 48.4808 6.568C48.4808 8.14 49.5128 9.472 51.1088 9.472C52.7048 9.472 53.7368 8.14 53.7368 6.568ZM55.6448 10.6V5.392H57.1928V10.888H58.1048V0.196H57.1928V4.576H55.6448V0.316H54.7448V10.6H55.6448ZM52.8368 6.568C52.8368 7.72 52.2248 8.692 51.1088 8.692C49.9928 8.692 49.3808 7.72 49.3808 6.568C49.3808 5.416 49.9928 4.444 51.1088 4.444C52.2248 4.444 52.8368 5.416 52.8368 6.568ZM54.0128 2.92V2.128H48.0848V2.92H54.0128ZM52.7528 1.132V0.339999H49.4648V1.132H52.7528ZM66.8208 4.228C66.0888 4.024 65.4288 3.736 64.8408 3.376C64.3488 3.076 63.9408 2.704 63.6168 2.26L63.6288 2.236C63.7848 1.948 63.8928 1.648 63.9528 1.324H66.3648V0.532H60.1008V1.324H62.9808C62.9208 1.552 62.8488 1.78 62.7408 1.996C62.1648 3.16 60.9288 4.036 59.4648 4.444L60.0048 5.116C60.9168 4.828 61.9128 4.276 62.6808 3.52C62.8608 3.34 63.0288 3.136 63.1848 2.932C63.3048 3.076 63.4248 3.208 63.5568 3.34C64.3368 4.072 65.3448 4.672 66.3288 4.96L66.8208 4.228ZM68.7648 10.9V0.196H67.8528V7.9H65.0088V8.68H67.8528V10.9H68.7648ZM63.4248 10.648V6.664L67.1328 6.604V5.836L59.1888 5.932V6.724L62.4888 6.676V10.648H63.4248Z" fill="black"/>
</svg>
