<svg width="276" height="244" viewBox="0 0 276 244" fill="none" xmlns="http://www.w3.org/2000/svg">
<path d="M0 0H252C265.255 0 276 10.7452 276 24V220C276 233.255 265.255 244 252 244H24C10.7452 244 0 233.255 0 220V0Z" fill="#F7F9FD"/>
<path d="M16 32C16 25.3726 21.3726 20 28 20H248C254.627 20 260 25.3726 260 32V128C260 134.627 254.627 140 248 140H28C21.3726 140 16 134.627 16 128V32Z" fill="#FBE8E9"/>
<mask id="mask0_190_18" style="mask-type:alpha" maskUnits="userSpaceOnUse" x="133" y="48" width="127" height="92">
<rect x="133" y="48" width="127" height="92" fill="#D9D9D9"/>
</mask>
<g mask="url(#mask0_190_18)">
<path d="M152 80C153.481 78.4316 157.556 75.7652 162 77.6473" stroke="black" stroke-linecap="round"/>
<path d="M151 77C152.481 75.4316 156.556 72.7652 161 74.6473" stroke="black" stroke-linecap="round"/>
<path d="M235.099 83.1853C246.119 65.9952 234.589 70.0353 227.449 74.2053L226.679 80.1953C228.509 81.2053 232.179 83.2053 232.179 83.1953C232.179 83.1853 234.129 83.1753 235.109 83.1753L235.099 83.1853Z" fill="#D7191F" stroke="#242D3C" stroke-linecap="round" stroke-linejoin="round"/>
<path d="M191.191 68.2649C176.571 54.3249 178.701 66.8649 181.591 74.875L186.181 75.695L191.681 69.6949L191.191 68.2649Z" fill="#D7191F" stroke="#242D3C" stroke-linecap="round" stroke-linejoin="round"/>
<path d="M243.17 112.815C243.17 125.935 238.89 135.945 232.02 142.675C225.15 149.415 215.63 152.905 205.09 152.905C194.55 152.905 185.04 149.415 178.16 142.675C171.29 135.945 167.01 125.935 167.01 112.815C167.02 86.5251 184.16 65.4051 205.1 65.4051C226.04 65.4051 243.18 86.5251 243.18 112.815H243.17Z" fill="white"/>
<path d="M243.171 112.815C243.171 125.935 239.141 135.945 232.661 142.675C226.181 149.415 217.211 152.905 207.281 152.905C197.351 152.905 188.381 149.415 181.901 142.675C175.421 135.945 171.391 125.935 171.391 112.815C171.391 86.5251 187.551 65.4051 207.281 65.4051C227.011 65.4051 243.171 86.5251 243.171 112.815Z" fill="#D7191F"/>
<path d="M231.52 91.2349C231.52 78.6949 199.49 77.3949 185.67 77.6949L179.17 121.695C193.71 124.705 226.03 131.025 228.57 118.855C231.11 106.695 224.95 103.785 220.06 102.055C224.87 102.565 231.52 102.055 231.52 91.2249V91.2349Z" fill="white" stroke="#242D3C" stroke-linecap="round" stroke-linejoin="round"/>
<path d="M196.679 94.6953C198.06 94.6953 199.179 93.576 199.179 92.1953C199.179 90.8145 198.06 89.6953 196.679 89.6953C195.299 89.6953 194.179 90.8145 194.179 92.1953C194.179 93.576 195.299 94.6953 196.679 94.6953Z" fill="#242D3C"/>
<path d="M213.679 96.6951C215.06 96.6951 216.179 95.5759 216.179 94.1951C216.179 92.8144 215.06 91.6951 213.679 91.6951C212.299 91.6951 211.179 92.8144 211.179 94.1951C211.179 95.5759 212.299 96.6951 213.679 96.6951Z" fill="#242D3C"/>
<path d="M204.18 101.195C206.665 101.195 208.68 99.1804 208.68 96.6951C208.68 94.2099 206.665 92.1951 204.18 92.1951C201.694 92.1951 199.68 94.2099 199.68 96.6951C199.68 99.1804 201.694 101.195 204.18 101.195Z" fill="#D7191F" stroke="#242D3C"/>
<path d="M194.5 104.5C201.07 104.14 214.451 104.885 215.171 106.805C216.071 109.205 202 123.195 194.5 107.5" stroke="#242D3C" stroke-linecap="round" stroke-linejoin="round"/>
<path d="M243.17 112.815C243.17 125.935 238.89 135.945 232.02 142.675C225.15 149.415 215.63 152.905 205.09 152.905C194.55 152.905 185.04 149.415 178.16 142.675C171.29 135.945 167.01 125.935 167.01 112.815C167.02 86.5251 184.16 65.4051 205.1 65.4051C226.04 65.4051 243.18 86.5251 243.18 112.815H243.17Z" stroke="#242D3C" stroke-miterlimit="10"/>
<path d="M165.319 94.5951C167.099 102.645 174.16 105.745 175.76 107.425C176.96 109.005 175.94 113.795 171.65 112.685C160.629 109.815 147.819 85.765 157.319 83.435C163.179 82.005 164.139 89.245 165.319 94.5851V94.5951Z" fill="#F6B637" stroke="#242D3C" stroke-linecap="round" stroke-linejoin="round"/>
<path d="M225.339 135.046C230.119 130.755 229.979 124.245 230.599 122.415C231.269 120.925 234.769 119.955 235.359 123.635C236.889 133.075 222.939 152.096 218.449 145.696C213.949 139.306 222.169 137.886 225.339 135.046Z" fill="#F6B637" stroke="#242D3C" stroke-linecap="round" stroke-linejoin="round"/>
<path d="M179.681 67.6948C180.761 65.9348 183.181 63.4848 186.181 63.7048" stroke="#242D3C" stroke-linecap="round" stroke-linejoin="round"/>
<path d="M233.18 71.4955C235.02 72.3155 237.78 73.7356 238.18 76.9956" stroke="#242D3C" stroke-linecap="round" stroke-linejoin="round"/>
<path d="M230.179 72.6952C232.339 73.5352 236.769 76.7052 237.179 80.1952" stroke="#242D3C" stroke-linecap="round" stroke-linejoin="round"/>
<path d="M180.609 71.9753C181.939 69.9453 185.509 65.9453 189.179 66.2053" stroke="#242D3C" stroke-linecap="round" stroke-linejoin="round"/>
<path d="M180.681 72.1952L179.681 67.1952L180.681 66.1952L182.681 64.6952L185.181 63.1952L187.181 64.6952L188.681 66.1952L185.681 67.1952L183.181 68.6952L181.181 71.1952L180.681 72.1952Z" fill="#242D3C"/>
<path d="M235.179 72.1953L233.179 71.1953L230.179 73.1953L231.179 73.6953L232.679 74.6953L234.679 76.1953L236.179 78.1953L236.679 80.1953L238.679 76.6953L237.679 75.1953L237.179 74.1953L235.179 72.1953Z" fill="#242D3C"/>
</g>
<path d="M68.87 60.11V52.715H66.86V60.11H68.87ZM58.55 60.71V66.065H68.84V60.71H58.55ZM60.56 62.39H66.83V64.355H60.56V62.39ZM57.44 54.83H62.54C62.06 56.69 59.795 58.16 56.555 58.805L57.5 60.365C61.115 59.6 64.775 57.35 64.73 53.15H57.44V54.83ZM82.105 56H73.645V54.575H81.955V52.925H71.635V57.665H75.85V58.595H70.195V60.245H83.395V58.595H77.89V57.665H82.105V56ZM76.855 60.695C74.23 60.695 72.37 61.91 72.37 63.77C72.37 65.63 74.23 66.845 76.855 66.845C79.48 66.845 81.34 65.63 81.34 63.77C81.34 61.91 79.48 60.695 76.855 60.695ZM76.855 65.225C75.235 65.225 74.38 64.655 74.38 63.77C74.38 62.885 75.235 62.315 76.855 62.315C78.475 62.315 79.33 62.885 79.33 63.77C79.33 64.655 78.475 65.225 76.855 65.225ZM88.6801 56.285C86.3551 56.285 84.9451 57.29 84.9451 58.775C84.9451 60.26 86.3551 61.265 88.6801 61.265C90.9901 61.265 92.4151 60.26 92.4151 58.775C92.4151 57.29 90.9901 56.285 88.6801 56.285ZM92.7901 57.995H94.5901V58.91H92.7901V60.56H94.5901V62.84H96.6001V52.715H94.5901V56.345H92.7901V57.995ZM86.2951 61.985V66.005H96.9751V64.295H88.3051V61.985H86.2951ZM93.1201 55.97V54.44H84.1201V55.97H93.1201ZM91.1701 53.93V52.4H86.0701V53.93H91.1701ZM88.6801 59.795C87.4801 59.795 86.9251 59.39 86.9251 58.775C86.9251 58.16 87.4801 57.755 88.6801 57.755C89.8801 57.755 90.4351 58.16 90.4351 58.775C90.4351 59.39 89.8801 59.795 88.6801 59.795ZM109.715 60.26V52.745H108.575V60.26H109.715ZM99.7851 61.01V66.035H109.685V61.01H99.7851ZM100.925 61.97H108.545V65.045H100.925V61.97ZM98.5551 53.06V59.39L107.735 58.97V57.995L99.6951 58.31V53.06H98.5551ZM112.885 64.205H111.445V65.645H112.09C112.09 66.17 111.865 66.725 111.4 67.085L111.775 67.415C112.375 66.98 112.885 66.185 112.885 65.465V64.205ZM68.15 78.655V73.195H57.995V78.655H68.15ZM59.135 74.185H67.01V77.665H59.135V74.185ZM63.665 86.125V81.475H69.65V80.485H56.51V81.475H62.495V86.125H63.665ZM74.5 72.7C72.31 72.7 70.63 74.215 70.63 76.39C70.63 78.565 72.31 80.08 74.5 80.08C76.165 80.08 77.47 79.225 78.07 77.89C78.205 77.575 78.295 77.23 78.34 76.87H81.145V81.715H82.285V72.745H81.145V75.88H78.34C78.295 75.535 78.205 75.205 78.07 74.905C77.485 73.54 76.165 72.7 74.5 72.7ZM74.5 79.09C72.82 79.09 71.77 77.995 71.77 76.39C71.77 74.785 72.82 73.69 74.5 73.69C76.18 73.69 77.23 74.785 77.23 76.39C77.23 77.995 76.18 79.09 74.5 79.09ZM72.325 86.2C73.66 85.945 75.16 85.255 76.315 84.34C76.705 84.025 77.05 83.68 77.365 83.305C77.62 83.59 77.89 83.86 78.19 84.115C79.405 85.105 80.845 85.795 82.255 86.125L82.885 85.165C81.265 84.805 79.78 84.175 78.64 83.245C78.37 83.02 78.13 82.795 77.92 82.54C78.205 82.03 78.37 81.49 78.415 80.935H77.185C77.02 82.855 74.56 84.835 71.62 85.27L72.325 86.2ZM83.9401 78.745V79.705H97.0801V78.745H83.9401ZM90.5101 72.205C88.0201 72.205 86.1001 73.345 86.1001 75.025C86.1001 76.705 88.0201 77.845 90.5101 77.845C93.0001 77.845 94.9201 76.705 94.9201 75.025C94.9201 73.345 93.0001 72.205 90.5101 72.205ZM90.5101 76.915C88.6801 76.915 87.2401 76.165 87.2401 75.025C87.2401 73.885 88.6801 73.135 90.5101 73.135C92.3401 73.135 93.7801 73.885 93.7801 75.025C93.7801 76.165 92.3401 76.915 90.5101 76.915ZM95.9551 86.035V85.09H86.4901V83.875H95.6401V80.905H85.3501V81.835H94.5001V82.975H85.3501V86.035H95.9551ZM56.51 103.875V104.865H69.65V103.875H63.74V100.485H68.45V99.48H59.135V94.305H68.15V93.315H57.995V100.485H62.57V103.875H56.51ZM74.935 92.925C72.535 92.925 70.885 94.74 70.885 96.705C70.885 98.19 71.815 99.54 73.285 100.17C73.63 100.32 73.99 100.41 74.395 100.455V102.9L70.12 102.945V103.965L80.05 103.815V102.825L75.565 102.885V100.455C75.925 100.41 76.255 100.305 76.57 100.17C78.055 99.54 78.985 98.19 78.985 96.705C78.985 94.74 77.335 92.925 74.935 92.925ZM74.935 99.495C73.165 99.495 72.025 98.145 72.025 96.705C72.025 95.265 73.165 93.915 74.935 93.915C76.705 93.915 77.845 95.265 77.845 96.705C77.845 98.145 76.705 99.495 74.935 99.495ZM81.79 106.125V99.165H83.725V98.145H81.79V92.745H80.65V106.125H81.79ZM83.9401 103.725V104.715H97.0801V103.725H83.9401ZM95.8651 99.48H86.5651V94.305H95.5651L95.5801 93.315H85.4251V100.485H95.8801L95.8651 99.48ZM105.605 96.585V93.09H98.5551V94.02H104.465V95.685H98.5551V99.345L107.735 98.955V98.04L99.6951 98.325V96.585H105.605ZM109.715 99.84V92.745H108.575V99.84H109.715ZM110.015 106.035V105.075H100.925V103.695H109.715V100.53H99.7851V101.46H108.575V102.795H99.7851V106.035H110.015ZM123.085 106.125V99.165H124.96V98.145H123.085V92.745H121.975V106.125H123.085ZM111.94 94.305H114.85C114.745 97.56 113.575 100.455 111.235 102.795L112.105 103.425C114.52 100.965 116.065 97.785 116.02 93.315H111.94V94.305ZM116.5 94.305H119.26C119.185 97.68 118.255 101.22 115.69 103.755L116.56 104.385C119.245 101.64 120.49 97.95 120.43 93.315H116.5V94.305ZM131.64 92.715C128.715 92.715 126.75 94.62 126.75 96.78C126.75 98.94 128.715 100.845 131.64 100.845C134.565 100.845 136.53 98.94 136.53 96.78C136.53 94.62 134.565 92.715 131.64 92.715ZM131.64 99.855C129.33 99.855 127.89 98.43 127.89 96.78C127.89 95.13 129.33 93.705 131.64 93.705C133.95 93.705 135.39 95.13 135.39 96.78C135.39 98.43 133.95 99.855 131.64 99.855ZM125.085 103.875V104.865H138.225V103.875H135.27V101.04H134.115V103.875H129.24V101.04H128.085V103.875H125.085ZM145.925 96.24C145.925 94.425 144.575 92.775 142.04 92.775C140.525 92.775 139.175 93.87 138.62 95.07L139.43 95.595C139.955 94.545 140.975 93.705 142.04 93.705C143.735 93.705 144.815 94.8 144.815 96.24C144.815 97.845 143.525 99.09 141.38 99.705V102.795H142.49V100.305C144.23 99.705 145.925 98.34 145.925 96.24ZM141.245 104.01H142.685V105.45H141.245V104.01Z" fill="black"/>
<path d="M23.965 159.34C22.054 159.34 20.585 160.692 20.585 162.564C20.585 164.436 22.054 165.788 23.965 165.788C25.876 165.788 27.345 164.436 27.345 162.564C27.345 160.692 25.876 159.34 23.965 159.34ZM23.965 164.93C22.509 164.93 21.573 163.955 21.573 162.564C21.573 161.173 22.509 160.198 23.965 160.198C25.421 160.198 26.357 161.173 26.357 162.564C26.357 163.955 25.421 164.93 23.965 164.93ZM30.478 167.933V163.253H32.077V162.369H30.478V159.379H29.49V167.933H30.478ZM30.855 170.845V169.987H23.055V167.023H22.067V170.845H30.855ZM39.0624 165.827C36.8654 165.827 35.3704 166.919 35.3704 168.518C35.3704 170.117 36.8654 171.209 39.0624 171.209C41.2334 171.209 42.7544 170.117 42.7544 168.518C42.7544 166.919 41.2334 165.827 39.0624 165.827ZM39.0624 170.351C37.3334 170.351 36.3584 169.61 36.3584 168.518C36.3584 167.426 37.3334 166.685 39.0624 166.685C40.7914 166.685 41.7664 167.426 41.7664 168.518C41.7664 169.61 40.7914 170.351 39.0624 170.351ZM38.1004 161.108H41.7924V162.213H38.1004V163.058H41.7924V165.944H42.7804V159.379H41.7924V160.263H38.1004V161.108ZM33.1084 159.652V165.268L40.6224 164.904V164.059L34.0964 164.332V159.652H33.1084ZM50.0907 160.341V159.483H46.1907V160.341H50.0907ZM51.7807 162.304V161.446H44.4487V162.304H51.7807ZM48.1147 163.136C46.0997 163.136 44.8777 164.579 44.8777 166.282C44.8777 167.985 46.0997 169.428 48.1147 169.428C50.1297 169.428 51.3517 167.985 51.3517 166.282C51.3517 164.579 50.1297 163.136 48.1147 163.136ZM48.1147 168.583C46.5937 168.583 45.8657 167.504 45.8657 166.295C45.8657 165.047 46.5937 163.981 48.1147 163.981C49.6357 163.981 50.3637 165.047 50.3637 166.295C50.3637 167.504 49.6357 168.583 48.1147 168.583ZM54.1077 170.975V165.203H55.9927V164.319H54.1077V159.379H53.1197V170.975H54.1077ZM64.5901 170.663V159.496H63.6151V163.357H61.4961V164.241H63.6151V170.663H64.5901ZM67.0601 170.962V159.379H66.0721V170.962H67.0601ZM56.5951 169.259C57.7001 168.076 58.6491 166.672 59.3121 164.904C59.9881 166.477 61.0281 167.946 62.2241 168.986L62.8741 168.297C61.4701 167.14 60.3131 165.45 59.7021 163.643C60.0011 162.447 60.1701 161.173 60.2091 159.782H59.2211C59.1561 163.513 57.8951 166.672 55.8671 168.674L56.5951 169.259ZM73.6685 159.353C71.1335 159.353 69.4305 161.004 69.4305 162.876C69.4305 164.748 71.1335 166.399 73.6685 166.399C76.2035 166.399 77.9065 164.748 77.9065 162.876C77.9065 161.004 76.2035 159.353 73.6685 159.353ZM73.6685 165.541C71.6665 165.541 70.4185 164.306 70.4185 162.876C70.4185 161.446 71.6665 160.211 73.6685 160.211C75.6705 160.211 76.9185 161.446 76.9185 162.876C76.9185 164.306 75.6705 165.541 73.6685 165.541ZM67.9875 169.025V169.883H79.3755V169.025H76.8145V166.568H75.8135V169.025H71.5885V166.568H70.5875V169.025H67.9875ZM81.1868 169.311H79.9388V170.559H80.4978C80.4978 171.014 80.3028 171.495 79.8998 171.807L80.2248 172.093C80.7448 171.716 81.1868 171.027 81.1868 170.403V169.311ZM96.3632 165.892V159.379H95.3752V165.892H96.3632ZM87.7572 166.542V170.897H96.3372V166.542H87.7572ZM88.7452 167.374H95.3492V170.039H88.7452V167.374ZM86.7952 160.64H91.6832C91.4362 162.72 89.3042 164.579 86.1842 165.203L86.6522 166.009C89.7852 165.307 92.8142 163.24 92.7752 159.782H86.7952V160.64ZM103.544 166.269C101.386 166.269 99.7216 167.27 99.7216 168.869C99.7216 170.468 101.386 171.469 103.544 171.469C105.702 171.469 107.366 170.468 107.366 168.869C107.366 167.27 105.702 166.269 103.544 166.269ZM108.016 162.668H100.073V160.393H107.86V159.587H99.0846V163.487H103.05V164.735H97.7976V165.567H109.186V164.735H104.064V163.487H108.016V162.668ZM103.544 170.637C101.958 170.637 100.71 169.961 100.71 168.869C100.71 167.777 101.958 167.101 103.544 167.101C105.13 167.101 106.378 167.777 106.378 168.869C106.378 169.961 105.13 170.637 103.544 170.637ZM113.753 166.763C115.599 166.763 116.886 165.775 116.886 164.475C116.886 163.175 115.599 162.187 113.753 162.187C111.907 162.187 110.62 163.175 110.62 164.475C110.62 165.775 111.907 166.763 113.753 166.763ZM120.396 168.063V159.379H119.408V162.447H117.419V163.279H119.408V164.852H117.419V165.684H119.408V168.063H120.396ZM113.753 165.957C112.453 165.957 111.608 165.424 111.608 164.475C111.608 163.526 112.453 162.993 113.753 162.993C115.053 162.993 115.898 163.526 115.898 164.475C115.898 165.424 115.053 165.957 113.753 165.957ZM120.721 170.845V169.987H112.791V167.517H111.803V170.845H120.721ZM117.51 161.641V160.809H109.918V161.641H117.51ZM115.82 160.042V159.21H111.608V160.042H115.82ZM132.022 165.892V159.379H131.034V165.892H132.022ZM123.416 166.542V170.897H131.996V166.542H123.416ZM124.404 167.374H131.008V170.039H124.404V167.374ZM122.35 159.652V165.138L130.306 164.774V163.929L123.338 164.202V159.652H122.35ZM21.17 189.935H25.122C27.15 189.935 28.45 188.622 28.45 187.101C28.45 185.554 27.319 184.839 26.526 184.527C27.072 184.215 27.67 183.591 27.67 182.629C27.67 181.29 26.552 180.185 24.732 180.185H21.17V189.935ZM25.122 185.086C26.539 185.086 27.488 186.009 27.488 187.101C27.488 188.18 26.539 189.103 25.122 189.103H22.132V185.086H25.122ZM24.732 181.017C25.941 181.017 26.708 181.732 26.708 182.629C26.708 183.513 25.941 184.254 24.732 184.254H22.132V181.017H24.732ZM36.1679 189.935H37.1559V180.185H36.1939V187.387L36.2199 188.557L35.6479 187.608L30.6039 180.185H29.6159V189.935H30.5779V182.447L30.5519 181.55L30.9809 182.33L36.1679 189.935ZM45.1999 189.935H46.5129L41.1959 184.774L46.1229 180.185H44.8489L40.0649 184.735V180.185H39.1029V189.935H40.0649V184.852L45.1999 189.935ZM57.1879 190.975V179.379H56.1999V190.975H57.1879ZM55.6799 188.973V188.115L46.8139 188.219V189.103L55.6799 188.973ZM51.0389 179.665C48.9589 179.665 47.5289 181.238 47.5289 182.941C47.5289 184.644 48.9589 186.217 51.0389 186.217C53.1189 186.217 54.5489 184.644 54.5489 182.941C54.5489 181.238 53.1189 179.665 51.0389 179.665ZM51.0389 185.359C49.5049 185.359 48.5169 184.189 48.5169 182.941C48.5169 181.693 49.5049 180.523 51.0389 180.523C52.5729 180.523 53.5609 181.693 53.5609 182.941C53.5609 184.189 52.5729 185.359 51.0389 185.359ZM70.4279 186.282V183.344H72.1569V187.452H73.1449V179.379H72.1569V182.486H70.4279V179.483H69.4529V186.282H70.4279ZM68.9459 185.372C68.2439 185.06 67.6329 184.67 67.0999 184.202C66.6709 183.812 66.3459 183.383 66.1119 182.902L66.1639 182.772C66.2939 182.447 66.3849 182.109 66.4369 181.771H68.6729V180.939H62.7709V181.771H65.4099C65.3579 182.044 65.2799 182.317 65.1889 182.577C64.6689 183.968 63.5509 185.164 62.2249 185.84L62.8489 186.503C63.7459 185.996 64.6689 185.216 65.3449 184.28C65.4619 184.111 65.5789 183.942 65.6829 183.773L65.8779 184.033C66.5279 184.891 67.4379 185.645 68.3999 186.113L68.9459 185.372ZM64.1879 191.04C65.3189 190.819 66.5799 190.286 67.6069 189.545C67.9579 189.285 68.2829 188.999 68.5559 188.687C68.7769 188.934 69.0239 189.168 69.2969 189.376C70.3629 190.182 71.5979 190.741 72.8199 190.975L73.3659 190.143C71.9619 189.883 70.6749 189.389 69.6869 188.635C69.4529 188.453 69.2449 188.258 69.0499 188.05C69.2969 187.647 69.4529 187.205 69.4919 186.737H68.4259C68.2829 188.375 66.0989 189.805 63.6029 190.26L64.1879 191.04ZM67.3729 180.068V179.236H64.0709V180.068H67.3729ZM83.3153 179.457V180.939H76.4903V179.457H75.5023V184.137H79.4023V185.463H74.2153V186.321H85.6033V185.463H80.4163V184.137H84.3033V179.457H83.3153ZM85.0313 190.104C84.0563 189.987 83.1463 189.766 82.3013 189.441C81.5473 189.155 80.9103 188.765 80.3773 188.284L80.4943 188.076C80.6633 187.751 80.7673 187.4 80.7803 187.036H79.7143C79.6103 188.726 77.1403 189.961 74.7093 190.208L75.1773 191.04C76.7503 190.871 78.7003 190.091 79.8053 188.986L79.8573 188.934C80.1303 189.181 80.4163 189.402 80.7283 189.597C81.8983 190.351 83.2633 190.793 84.5373 190.949L85.0313 190.104ZM76.4903 183.318V181.745H83.3153V183.305L76.4903 183.318ZM95.7883 187.881H91.7973V180.731H95.7883V187.881ZM90.8093 179.873V188.739H96.7763V179.873H90.8093ZM100.39 190.975V179.379H99.4023V190.975H100.39ZM112.953 185.762C111.783 185.372 110.756 184.839 109.872 184.15C109.066 183.526 108.416 182.798 107.909 181.979C108.208 181.264 108.377 180.497 108.403 179.678H107.363C107.194 182.72 104.971 185.008 102.085 185.736L102.644 186.477C104.152 186.061 105.569 185.203 106.609 184.02C106.934 183.656 107.233 183.266 107.48 182.837C107.688 183.136 107.922 183.435 108.182 183.734C109.326 185.008 110.834 186.022 112.394 186.542L112.953 185.762ZM101.864 188.895V189.753H113.252V188.895H101.864ZM120.224 183.851H115.635V180.653H120.536V179.795H114.647V189.051L121.81 188.635V187.79L115.635 188.115V184.709H120.224V183.851ZM124.163 190.975V179.379H123.175V183.539H120.965V184.423H123.175V190.975H124.163ZM131.447 179.743V183.123H127.456V179.743H126.468V188.791H132.435V179.743H131.447ZM127.456 187.933V183.981H131.447V187.933H127.456ZM136.049 190.975V179.379H135.061V190.975H136.049ZM147.975 185.515V179.379H146.987V185.515H147.975ZM146.961 186.113V187.517H140.357V186.113H139.369V190.897H147.949V186.113H146.961ZM140.357 190.039V188.349H146.961V190.039H140.357ZM141.254 179.288C139.421 179.288 137.926 180.549 137.926 182.317C137.926 184.085 139.421 185.346 141.254 185.346C143.087 185.346 144.582 184.085 144.582 182.317C144.582 180.549 143.087 179.288 141.254 179.288ZM141.254 184.514C139.863 184.514 138.914 183.604 138.914 182.317C138.914 181.03 139.863 180.12 141.254 180.12C142.645 180.12 143.594 181.03 143.594 182.317C143.594 183.604 142.645 184.514 141.254 184.514ZM159.822 190.975V179.379H158.834V190.975H159.822ZM150.241 179.743V188.804L157.937 188.401V187.543L151.229 187.842V179.743H150.241ZM171.058 190.975V184.423H172.943V183.539H171.058V179.379H170.07V190.975H171.058ZM161.932 179.873V188.869L169.368 188.466V187.608L162.92 187.907V180.731H167.886V179.873H161.932ZM173.403 190.65H174.651V189.402H173.403V190.65ZM24.875 199.093C23.016 199.093 21.625 200.094 21.625 201.589C21.625 203.084 23.016 204.085 24.875 204.085C26.734 204.085 28.125 203.084 28.125 201.589C28.125 200.094 26.734 199.093 24.875 199.093ZM24.875 203.253C23.523 203.253 22.613 202.564 22.613 201.589C22.613 200.614 23.523 199.925 24.875 199.925C26.227 199.925 27.137 200.614 27.137 201.589C27.137 202.564 26.227 203.253 24.875 203.253ZM31.141 208.414V199.379H30.153V206.529H27.059V207.348H30.153V208.414H31.141ZM31.375 210.754V209.896H23.328V207.855H22.34V210.754H31.375ZM29.399 205.567V204.761L20.676 204.865V205.697L24.186 205.645V207.803H25.2V205.632L29.399 205.567ZM38.2044 200.341V199.483H34.3044V200.341H38.2044ZM39.8944 202.304V201.446H32.5624V202.304H39.8944ZM36.2284 203.136C34.2134 203.136 32.9914 204.579 32.9914 206.282C32.9914 207.985 34.2134 209.428 36.2284 209.428C38.2434 209.428 39.4654 207.985 39.4654 206.282C39.4654 204.579 38.2434 203.136 36.2284 203.136ZM36.2284 208.583C34.7074 208.583 33.9794 207.504 33.9794 206.295C33.9794 205.047 34.7074 203.981 36.2284 203.981C37.7494 203.981 38.4774 205.047 38.4774 206.295C38.4774 207.504 37.7494 208.583 36.2284 208.583ZM42.2214 210.975V205.203H44.1064V204.319H42.2214V199.379H41.2334V210.975H42.2214ZM52.4177 208.154C51.5467 207.595 50.7797 206.906 50.1037 206.1C49.4667 205.333 48.9467 204.54 48.5567 203.708C48.6347 203.435 48.7127 203.149 48.7777 202.863C48.9857 201.914 49.0897 200.874 49.0897 199.743H48.0757C48.0367 203.864 46.5547 206.841 44.0197 208.57L44.6827 209.259C45.9957 208.284 47.1137 207.023 47.8807 205.463C47.9847 205.242 48.0887 205.034 48.1797 204.813C48.3097 205.06 48.4527 205.294 48.6217 205.541C49.4667 206.841 50.6237 208.102 51.7417 208.908L52.4177 208.154ZM54.8877 210.975V199.379H53.8997V210.975H54.8877ZM56.1011 205.32V206.178H67.4891V205.32H56.1011ZM66.6441 210.845V209.987H58.3631V207.153H57.3751V210.845H66.6441ZM57.3881 199.457V203.669H66.3191V202.824H58.3761V199.457H57.3881ZM72.5521 199.951V208.739H77.3491V204.358H79.1171V210.65H80.0921V199.509H79.1171V203.474H77.3491V199.951H72.5521ZM76.3741 207.881H73.5271V200.809H76.3741V207.881ZM82.5621 210.962V199.379H81.5741V210.962H82.5621ZM87.7405 210.845V206.815H91.1855V210.975H92.1865V206.815H95.1375V205.957H83.7495V206.815H86.7395V210.845H87.7405ZM85.0365 199.639V204.371H94.2275L94.2145 203.5H86.0245V199.639H85.0365ZM95.6358 204.8V205.606H107.024V204.8H95.6358ZM106.049 210.897V210.078H97.8458V209.09H105.776V206.555H96.8578V207.361H104.788V208.297H96.8578V210.897H106.049ZM105.919 203.903V203.084H97.9108V202.057H105.724V199.509H96.9228V200.315H104.736V201.277H96.9228V203.903H105.919ZM119.458 205.203C118.171 204.683 117.027 203.838 116.221 202.772C116.052 202.551 115.909 202.317 115.779 202.07L115.909 201.719C116.13 201.043 116.26 200.328 116.273 199.587H115.259C115.116 202.187 113.712 204.501 111.216 205.645L111.84 206.334C113.101 205.71 114.193 204.761 114.973 203.604C115.116 203.396 115.259 203.175 115.376 202.954C115.467 203.11 115.584 203.266 115.701 203.409C116.546 204.514 117.703 205.45 118.86 205.97L119.458 205.203ZM118.08 202.655H120.992V207.933H121.98V199.379H120.992V201.797H118.08V202.655ZM122.305 210.845V209.987H114.375V207.023H113.387V210.845H122.305ZM128.809 202.395H124.87V200.536H128.939V199.704H123.895V206.035L129.498 205.749V204.93L124.87 205.125V203.201H128.809V202.395ZM131.123 206.542V203.214H132.982V206.542H133.97V199.379H132.982V202.356H131.123V199.483H130.148V206.542H131.123ZM133.944 211.04V207.192H124.844V208.05H132.956V211.04H133.944ZM141.398 206.282C141.398 204.579 140.28 203.136 138.551 203.136C136.822 203.136 135.704 204.579 135.704 206.282C135.704 207.985 136.822 209.428 138.551 209.428C140.28 209.428 141.398 207.985 141.398 206.282ZM143.465 210.65V205.008H145.142V210.962H146.13V199.379H145.142V204.124H143.465V199.509H142.49V210.65H143.465ZM140.423 206.282C140.423 207.53 139.76 208.583 138.551 208.583C137.342 208.583 136.679 207.53 136.679 206.282C136.679 205.034 137.342 203.981 138.551 203.981C139.76 203.981 140.423 205.034 140.423 206.282ZM141.697 202.33V201.472H135.275V202.33H141.697ZM140.332 200.393V199.535H136.77V200.393H140.332ZM157.977 204.046C156.872 203.851 155.91 203.552 155.117 203.175C154.35 202.811 153.726 202.317 153.219 201.693C153.414 201.342 153.544 200.978 153.596 200.601H157.249V199.743H148.24V200.601H152.517C152.439 200.991 152.27 201.355 152.023 201.706C151.152 202.915 149.384 203.812 147.369 204.072L147.889 204.865C149.15 204.696 150.554 204.15 151.646 203.37C152.049 203.071 152.413 202.759 152.712 202.408C152.959 202.681 153.232 202.928 153.531 203.175C154.61 204.02 156.014 204.618 157.47 204.852L157.977 204.046ZM153.258 210.975V206.867H158.445V206.009H147.057V206.867H152.244V210.975H153.258ZM167.432 210.663V199.496H166.457V203.357H164.338V204.241H166.457V210.663H167.432ZM169.902 210.962V199.379H168.914V210.962H169.902ZM159.437 209.259C160.542 208.076 161.491 206.672 162.154 204.904C162.83 206.477 163.87 207.946 165.066 208.986L165.716 208.297C164.312 207.14 163.155 205.45 162.544 203.643C162.843 202.447 163.012 201.173 163.051 199.782H162.063C161.998 203.513 160.737 206.672 158.709 208.674L159.437 209.259ZM176.511 199.353C173.976 199.353 172.273 201.004 172.273 202.876C172.273 204.748 173.976 206.399 176.511 206.399C179.046 206.399 180.749 204.748 180.749 202.876C180.749 201.004 179.046 199.353 176.511 199.353ZM176.511 205.541C174.509 205.541 173.261 204.306 173.261 202.876C173.261 201.446 174.509 200.211 176.511 200.211C178.513 200.211 179.761 201.446 179.761 202.876C179.761 204.306 178.513 205.541 176.511 205.541ZM170.83 209.025V209.883H182.218V209.025H179.657V206.568H178.656V209.025H174.431V206.568H173.43V209.025H170.83ZM183.405 209.142H184.653V210.39H183.405V209.142ZM184.562 199.665H183.496L183.665 208.089H184.393L184.562 199.665Z" fill="black"/>
</svg>
