<svg width="281" height="62" viewBox="0 0 281 62" fill="none" xmlns="http://www.w3.org/2000/svg">
<path d="M242.534 53.6758C240.693 53.6855 239.36 54.584 239.36 55.9512C239.36 57.2402 240.512 58.0947 242.153 58.2119V60.0332H238.579V60.6777H246.528V60.0332H242.905V58.2119C244.555 58.0996 245.707 57.2451 245.707 55.9512C245.707 54.584 244.379 53.6855 242.534 53.6758ZM240.102 55.9512C240.097 54.9697 241.127 54.3057 242.534 54.3105C243.94 54.3057 244.965 54.9697 244.965 55.9512C244.965 56.9521 243.94 57.6016 242.534 57.6113C241.127 57.6016 240.097 56.9521 240.102 55.9512ZM254.118 53.1191H253.347V55.5215H251.56V56.1562H253.347V59.4863H254.118V53.1191ZM246.96 57.748L247.361 58.373C248.391 57.9873 249.192 57.1914 249.568 56.1855C249.944 57.084 250.7 57.8115 251.677 58.168L252.077 57.5527C250.808 57.1182 249.939 56.0293 249.939 54.9062V54.457H251.882V53.8223H247.204V54.457H249.167V54.9062C249.167 56.1514 248.239 57.2988 246.96 57.748ZM248.542 61.6055H254.362V60.9609H249.314V58.9102H248.542V61.6055ZM260.1 61.0977C261.668 61.0977 262.571 59.7793 262.571 57.4648C262.571 55.1699 261.653 53.832 260.1 53.832C258.543 53.832 257.625 55.1699 257.63 57.4648C257.625 59.7793 258.533 61.0977 260.1 61.0977ZM258.479 57.4648C258.484 55.6338 259.085 54.5986 260.1 54.5938C261.116 54.5986 261.717 55.6338 261.712 57.4648C261.717 59.2959 261.121 60.3164 260.1 60.3164C259.075 60.3164 258.484 59.2959 258.479 57.4648ZM265.796 53.832C264.293 53.8174 263.326 54.8867 263.326 56.2051C263.326 57.5674 264.376 58.5391 265.64 58.5391C266.392 58.5391 267.042 58.1875 267.447 57.6016H267.545C267.535 59.3203 266.832 60.3164 265.679 60.3164C264.893 60.3164 264.41 59.8477 264.254 59.2129H263.384C263.56 60.3359 264.434 61.0977 265.679 61.0977C267.335 61.0977 268.365 59.6963 268.365 57.1816C268.365 54.5791 267.012 53.8467 265.796 53.832ZM264.185 56.1953C264.175 55.3213 264.874 54.6035 265.796 54.6035C266.729 54.6035 267.408 55.3652 267.408 56.1758C267.408 57.0059 266.69 57.7676 265.767 57.7676C264.844 57.7676 264.18 57.0693 264.185 56.1953ZM269.881 61.0586C270.228 61.0537 270.511 60.7705 270.506 60.4238C270.511 60.082 270.228 59.7988 269.881 59.7988C269.539 59.7988 269.246 60.082 269.256 60.4238C269.246 60.7705 269.539 61.0537 269.881 61.0586ZM269.256 56.498C269.246 56.8447 269.539 57.1279 269.881 57.1328C270.228 57.1279 270.511 56.8447 270.506 56.498C270.511 56.1562 270.228 55.873 269.881 55.873C269.539 55.873 269.246 56.1562 269.256 56.498ZM274.015 53.9297H273.126L271.368 55.1016V55.9902L273.087 54.8477H273.126V61H274.015V53.9297ZM277.963 61.0977C279.438 61.0977 280.473 60.2725 280.482 59.125C280.473 58.2119 279.838 57.4551 279.037 57.3281V57.2891C279.73 57.1279 280.199 56.4785 280.209 55.707C280.199 54.6279 279.252 53.832 277.963 53.832C276.669 53.832 275.722 54.6279 275.727 55.707C275.722 56.4785 276.186 57.1279 276.889 57.2891V57.3281C276.083 57.4551 275.448 58.2119 275.453 59.125C275.448 60.2725 276.474 61.0977 277.963 61.0977ZM276.332 59.0762C276.317 58.2949 277.016 57.7188 277.963 57.7188C278.915 57.7188 279.604 58.2949 279.604 59.0762C279.604 59.8184 278.974 60.3213 277.963 60.3262C276.947 60.3213 276.317 59.8184 276.332 59.0762ZM276.576 55.7754C276.581 55.0674 277.123 54.5889 277.963 54.5938C278.788 54.5889 279.35 55.0674 279.35 55.7754C279.35 56.4883 278.769 56.9717 277.963 56.9766C277.152 56.9717 276.581 56.4883 276.576 55.7754Z" fill="#666666"/>
<path d="M0 12C0 5.37258 5.37258 0 12 0H281V32C281 38.6274 275.627 44 269 44H12C5.37259 44 0 38.6274 0 32V12Z" fill="#FBE8E9"/>
<path d="M28.9912 26.65V20.748H30.8632V26.962H31.8512V15.379H30.8632V19.864H28.9912V15.509H28.0162V26.65H28.9912ZM21.7242 16.796H25.4552C25.3512 19.552 23.7782 22.776 21.2172 24.544L21.9322 25.207C24.5712 23.231 26.5342 19.994 26.4952 15.938H21.7242V16.796ZM43.4906 23.933V15.379H42.5026V23.933H43.4906ZM43.8156 26.845V25.987H35.8856V23.023H34.8976V26.845H43.8156ZM36.7696 15.34C34.8586 15.34 33.3896 16.692 33.3896 18.564C33.3896 20.436 34.8586 21.788 36.7696 21.788C38.6806 21.788 40.1496 20.436 40.1496 18.564C40.1496 16.692 38.6806 15.34 36.7696 15.34ZM36.7696 20.93C35.3136 20.93 34.3776 19.955 34.3776 18.564C34.3776 17.173 35.3136 16.198 36.7696 16.198C38.2256 16.198 39.1616 17.173 39.1616 18.564C39.1616 19.955 38.2256 20.93 36.7696 20.93ZM52.92 24.154C52.049 23.595 51.282 22.906 50.606 22.1C49.969 21.333 49.449 20.54 49.059 19.708C49.137 19.435 49.215 19.149 49.28 18.863C49.488 17.914 49.592 16.874 49.592 15.743H48.578C48.539 19.864 47.057 22.841 44.522 24.57L45.185 25.259C46.498 24.284 47.616 23.023 48.383 21.463C48.487 21.242 48.591 21.034 48.682 20.813C48.812 21.06 48.955 21.294 49.124 21.541C49.969 22.841 51.126 24.102 52.244 24.908L52.92 24.154ZM54.818 26.975V20.683H56.703V19.799H54.818V15.379H53.83V26.975H54.818ZM60.5163 15.288C58.6963 15.288 57.2143 16.549 57.2143 18.317C57.2143 20.085 58.6963 21.346 60.5163 21.346C61.8943 21.346 63.0513 20.631 63.5583 19.539C63.6753 19.292 63.7533 19.019 63.7923 18.733H66.2753V21.515H67.2633V15.379H66.2753V17.875H63.7793C63.7403 17.602 63.6753 17.342 63.5583 17.095C63.0513 16.003 61.8943 15.288 60.5163 15.288ZM66.2493 22.113V23.517H59.6453V22.113H58.6573V26.897H67.2373V22.113H66.2493ZM60.5163 20.514C59.1253 20.514 58.2023 19.604 58.2023 18.317C58.2023 17.03 59.1253 16.12 60.5163 16.12C61.9073 16.12 62.8303 17.03 62.8303 18.317C62.8303 19.604 61.9073 20.514 60.5163 20.514ZM59.6453 26.039V24.349H66.2493V26.039H59.6453ZM76.7447 24.193C75.8867 23.634 75.1067 22.971 74.4177 22.204C73.7417 21.45 73.2087 20.644 72.8317 19.786C72.8837 19.617 72.9357 19.448 72.9747 19.266C73.1827 18.486 73.3127 17.641 73.3647 16.731H76.1987V15.873H69.0097V16.731H72.3247C72.2597 17.55 72.1427 18.317 71.9607 19.032C71.3367 21.541 70.0237 23.413 68.2947 24.622L68.9577 25.311C70.1927 24.388 71.2587 23.218 72.0387 21.723C72.1817 21.45 72.3247 21.164 72.4417 20.865C72.5847 21.138 72.7537 21.398 72.9227 21.658C73.8067 22.958 74.9507 24.154 76.0817 24.96L76.7447 24.193ZM78.5907 26.975V20.683H80.4757V19.799H78.5907V15.379H77.6027V26.975H78.5907ZM80.5841 20.8V21.606H91.9721V20.8H80.5841ZM90.9971 26.897V26.078H82.7941V25.09H90.7241V22.555H81.8061V23.361H89.7361V24.297H81.8061V26.897H90.9971ZM90.8671 19.903V19.084H82.8591V18.057H90.6721V15.509H81.8711V16.315H89.6841V17.277H81.8711V19.903H90.8671ZM100.701 15.405C98.8161 15.405 97.4511 16.757 97.4511 18.291C97.4511 19.825 98.8161 21.177 100.701 21.177C102.586 21.177 103.951 19.825 103.951 18.291C103.951 16.757 102.586 15.405 100.701 15.405ZM100.701 20.319C99.3231 20.319 98.4391 19.344 98.4391 18.291C98.4391 17.238 99.3231 16.263 100.701 16.263C102.079 16.263 102.963 17.238 102.963 18.291C102.963 19.344 102.079 20.319 100.701 20.319ZM101.247 26.702V22.906L105.329 22.841V21.983L96.5931 22.087V22.971L100.233 22.919V26.702H101.247ZM106.967 26.975V15.379H105.979V26.975H106.967ZM118.398 24.063V19.903H119.997V19.019H118.398V15.379H117.41V24.063H118.398ZM118.775 26.845V25.987H110.975V23.517H109.987V26.845H118.775ZM114.368 16.042V15.21H110.026V16.042H114.368ZM116.058 17.641V16.809H108.336V17.641H116.058ZM112.301 22.763C114.186 22.763 115.499 21.775 115.499 20.475C115.499 19.175 114.186 18.187 112.301 18.187C110.416 18.187 109.103 19.175 109.103 20.475C109.103 21.775 110.416 22.763 112.301 22.763ZM112.301 21.957C110.962 21.957 110.091 21.424 110.091 20.475C110.091 19.526 110.962 18.993 112.301 18.993C113.64 18.993 114.511 19.526 114.511 20.475C114.511 21.424 113.64 21.957 112.301 21.957ZM131.833 26.65V20.618H133.705V26.962H134.693V15.379H133.705V19.734H131.833V15.509H130.858V26.65H131.833ZM124.748 15.951V24.869L130.208 24.557V23.712L125.723 23.907V16.809H129.402V15.951H124.748ZM146.294 26.897V26.078H138.091V25.09H146.021V22.555H142.147V21.58H147.269V20.774H135.881V21.58H141.133V22.555H137.103V23.361H145.033V24.297H137.103V26.897H146.294ZM146.762 19.253C145.267 19.175 143.85 18.902 142.784 18.356C142.524 18.226 142.29 18.07 142.082 17.901C142.147 17.784 142.199 17.68 142.238 17.563H146.06V16.757H137.038V17.563H141.12C141.016 17.758 140.873 17.927 140.691 18.083C139.755 18.863 138.065 19.279 136.362 19.357L136.791 20.137C138.156 20.072 140.054 19.669 141.237 18.798L141.562 18.538C141.822 18.733 142.108 18.915 142.42 19.071C143.603 19.656 145.059 19.994 146.32 20.046L146.762 19.253ZM144.019 15.223H139.079V16.029H144.019V15.223ZM158.273 21.723C156.076 21.723 154.581 22.88 154.581 24.466C154.581 26.052 156.076 27.209 158.273 27.209C160.444 27.209 161.965 26.052 161.965 24.466C161.965 22.88 160.444 21.723 158.273 21.723ZM158.273 26.351C156.557 26.351 155.569 25.558 155.569 24.466C155.569 23.374 156.557 22.581 158.273 22.581C159.989 22.581 160.977 23.374 160.977 24.466C160.977 25.558 159.989 26.351 158.273 26.351ZM159.573 20.241C158.754 19.968 157.987 19.565 157.285 19.045C156.726 18.629 156.258 18.148 155.907 17.602L155.946 17.485C156.206 16.874 156.349 16.25 156.388 15.587H155.374C155.166 17.875 153.645 19.851 151.331 20.787L151.903 21.502C153.047 21.021 154.126 20.189 154.945 19.162C155.14 18.915 155.322 18.655 155.491 18.382C155.608 18.525 155.725 18.681 155.855 18.824C156.7 19.773 157.87 20.618 159.001 21.034L159.573 20.241ZM161.809 21.84V18.798H163.408V17.914H161.809V15.379H160.821V21.84H161.809ZM164.751 23.205V26.897H173.669V23.205H169.73V21.957H174.917V21.099H163.529V21.957H168.716V23.205H164.751ZM164.66 15.587V16.419H166.142L166.233 19.162H164.296V20.007H174.137V19.162H172.187L172.278 16.419H173.773V15.587H164.66ZM172.681 24.037V26.039H165.739V24.037H172.681ZM167.13 16.419H171.29L171.199 19.162H167.221L167.13 16.419ZM183.775 23.738V15.483H182.8V18.174H181.383C181.344 17.901 181.266 17.628 181.175 17.368C180.707 16.211 179.68 15.444 178.419 15.444C176.755 15.444 175.429 16.809 175.429 18.642C175.429 20.475 176.755 21.84 178.419 21.84C179.68 21.84 180.707 21.073 181.175 19.916C181.292 19.643 181.357 19.344 181.383 19.032H182.8V23.738H183.775ZM178.419 20.982C177.21 20.982 176.404 20.033 176.404 18.642C176.404 17.251 177.21 16.302 178.419 16.302C179.628 16.302 180.434 17.251 180.434 18.642C180.434 20.033 179.628 20.982 178.419 20.982ZM186.401 26.845V25.987H178.341V23.023H177.353V26.845H186.401ZM186.102 24.05V15.379H185.114V24.05H186.102ZM199.069 20.137V15.743H192.465V20.137H199.069ZM201.799 26.975V15.379H200.811V23.725H197.795V24.57H200.811V26.975H201.799ZM193.453 16.601H198.081V19.279H193.453V16.601ZM196.079 26.702V22.36L200.031 22.295V21.463L191.425 21.567V22.425L195.065 22.373V26.702H196.079ZM212.827 26.975V20.8H214.712V19.916H212.827V15.379H211.839V26.975H212.827ZM203.688 16.731H208.68C208.537 19.825 206.548 22.919 203.324 24.479L203.974 25.207C207.341 23.439 209.785 20.137 209.746 15.873H203.688V16.731ZM222.557 15.34C220.646 15.34 219.177 16.614 219.177 18.434C219.177 20.254 220.646 21.528 222.557 21.528C224.468 21.528 225.937 20.254 225.937 18.434C225.937 16.614 224.468 15.34 222.557 15.34ZM222.557 20.67C221.101 20.67 220.165 19.734 220.165 18.434C220.165 17.134 221.101 16.198 222.557 16.198C224.013 16.198 224.949 17.134 224.949 18.434C224.949 19.734 224.013 20.67 222.557 20.67ZM224.637 27.209C225.365 26.754 226.184 26.143 226.821 25.363C226.964 25.207 227.081 25.038 227.198 24.869C227.536 25.246 227.887 25.597 228.264 25.922C228.797 26.364 229.356 26.715 229.928 26.962L230.552 26.221C229.967 26 229.382 25.675 228.81 25.272C228.355 24.947 227.952 24.57 227.614 24.154L227.653 24.063C227.887 23.582 228.03 23.075 228.082 22.516H227.042C226.977 23.361 226.665 24.141 226.106 24.856C225.937 25.077 225.742 25.298 225.547 25.493C225.17 25.311 224.819 25.09 224.494 24.83C224.143 24.531 223.831 24.18 223.571 23.803C223.766 23.4 223.896 22.971 223.935 22.516H222.895C222.687 24.219 221.27 25.584 219.619 26.221L220.243 26.884C220.971 26.572 221.829 26 222.544 25.259C222.765 25.025 222.96 24.778 223.142 24.518C223.363 24.817 223.61 25.103 223.87 25.35C224.169 25.636 224.494 25.883 224.819 26.091C224.546 26.286 224.26 26.455 223.961 26.624L224.637 27.209ZM229.278 21.892V15.379H228.29V21.892H229.278ZM240.475 26.975V20.423H242.36V19.539H240.475V15.379H239.487V26.975H240.475ZM231.349 15.743V24.804L238.785 24.401V23.543L232.337 23.842V15.743H231.349ZM248.28 15.353C245.745 15.353 244.042 17.004 244.042 18.876C244.042 20.748 245.745 22.399 248.28 22.399C250.815 22.399 252.518 20.748 252.518 18.876C252.518 17.004 250.815 15.353 248.28 15.353ZM248.28 21.541C246.278 21.541 245.03 20.306 245.03 18.876C245.03 17.446 246.278 16.211 248.28 16.211C250.282 16.211 251.53 17.446 251.53 18.876C251.53 20.306 250.282 21.541 248.28 21.541ZM242.599 25.025V25.883H253.987V25.025H251.426V22.568H250.425V25.025H246.2V22.568H245.199V25.025H242.599ZM260.66 18.408C260.66 16.835 259.49 15.405 257.293 15.405C255.98 15.405 254.81 16.354 254.329 17.394L255.031 17.849C255.486 16.939 256.37 16.211 257.293 16.211C258.762 16.211 259.698 17.16 259.698 18.408C259.698 19.799 258.58 20.878 256.721 21.411V24.089H257.683V21.931C259.191 21.411 260.66 20.228 260.66 18.408ZM256.604 25.142H257.852V26.39H256.604V25.142Z" fill="#242D3C"/>
</svg>
