<svg width="72" height="57" viewBox="0 0 72 57" fill="none" xmlns="http://www.w3.org/2000/svg">
<path d="M9.29694 26.9103C9.29694 26.9103 8.73076 8.47353 13.7234 1C13.7234 1 48.9705 19.6838 70.9999 24.5015L70.6602 50C70.6602 50 24.0896 39.0779 9.29694 26.9103Z" stroke="#242D3C" stroke-linecap="round" stroke-linejoin="round"/>
<path d="M10.4405 5.45743C10.4405 5.45743 6.78612 17.8104 7.44494 31.5839C7.44494 31.5839 45.7494 45.8516 69.0964 51.2766V49.8045" stroke="#242D3C" stroke-linecap="round" stroke-linejoin="round"/>
<path d="M7.9888 8.63815C7.9888 8.63815 4.15938 24.4602 5.90938 33.5911L66.5417 53.1808V51.0499" stroke="#242D3C" stroke-linecap="round" stroke-linejoin="round"/>
<path d="M5.73516 10.5427C5.73516 10.5427 2.96605 19.7971 3.65575 34.7235L65.266 53.8191V52.8618" stroke="#242D3C" stroke-linecap="round" stroke-linejoin="round"/>
<path d="M3.10043 12.4572C3.10043 12.4572 3.44013 25.994 2.2666 36.4219C2.2666 36.4219 22.1034 41.5484 62.3534 55.0852L62.724 53.3764" stroke="#242D3C" stroke-linecap="round" stroke-linejoin="round"/>
<path d="M28.3618 45.3162L35.4853 39.7882L38.5736 15.9265L49.3824 19.5294L49.3618 44.2971L41.6412 49.3618L28.3618 45.3162Z" fill="#242D3C" stroke="#242D3C" stroke-linecap="round" stroke-linejoin="round"/>
<path d="M3.33676 22.6383C3.33676 22.6383 2.25588 31.203 1 37.6883C1 37.6883 42.4544 49.3309 61.2103 55.7338L61.4471 55.0956" stroke="#242D3C" stroke-linecap="round" stroke-linejoin="round"/>
<path d="M28.3618 45.5425L35.2486 39.9014L36.6383 12.4572" stroke="#242D3C" stroke-linecap="round" stroke-linejoin="round"/>
<path d="M49.3624 17.5425V44.2763L41.7241 49.3616" stroke="#242D3C" stroke-linecap="round" stroke-linejoin="round"/>
<path d="M40.2004 40.8999C40.0665 40.8484 39.9224 40.9205 39.8709 41.0543C39.8195 41.1881 39.8915 41.3322 40.0254 41.3837L40.2004 40.8999ZM51.5033 44.4925C50.1445 44.1528 45.9651 42.9587 40.2004 40.8999L40.0254 41.3837C45.8004 43.4425 49.9901 44.6469 51.3695 44.9969L51.493 44.4925H51.5033Z" fill="#242D3C"/>
<path d="M5.45804 17.5425C5.45804 17.5425 3.57421 25.7057 5.02568 33.4469" stroke="#242D3C" stroke-width="0.5" stroke-linecap="round" stroke-linejoin="round"/>
<path d="M61.5497 33.8285C57.5556 30.0506 55.0129 32.0064 55.0129 32.0064" stroke="#242D3C" stroke-width="0.45" stroke-linecap="round" stroke-linejoin="round"/>
<path d="M55.1677 32.8092C55.1986 35.7121 55.6618 36.1651 55.6515 36.5048C55.6515 36.8445 55.6001 38.8621 57.6383 38.7798C59.6766 38.6974 60.7368 35.8974 60.7368 35.8974C63.3618 35.8254 61.7251 32.6857 61.0045 34.271C60.2839 35.8563 60.2118 35.1666 60.7471 33.2313" stroke="#242D3C" stroke-width="0.45" stroke-linecap="round" stroke-linejoin="round"/>
<path d="M58.3586 32.7372C59.0381 32.4387 59.7689 33.149 59.7689 33.149" stroke="#242D3C" stroke-width="0.45" stroke-linecap="round" stroke-linejoin="round"/>
<path d="M56.6908 35.2284C59.4187 31.3372 56.0422 32.2637 56.0422 32.2637" stroke="#242D3C" stroke-width="0.45" stroke-linecap="round" stroke-linejoin="round"/>
<path d="M59.2233 34.1375C59.2233 34.0243 59.1204 33.9317 59.0072 33.9419C58.8939 33.9522 58.8013 34.0449 58.8116 34.1581C58.8219 34.2714 58.9145 34.364 59.0277 34.3537C59.141 34.3434 59.2336 34.2508 59.2233 34.1375Z" fill="#242D3C"/>
<path d="M57.257 33.7978C57.257 33.6845 57.1541 33.5919 57.0409 33.6022C56.9276 33.6125 56.835 33.7051 56.8453 33.8183C56.8556 33.9316 56.9482 34.0242 57.0614 34.0139C57.1747 34.0036 57.2673 33.911 57.257 33.7978Z" fill="#242D3C"/>
<path d="M56.6693 35.6093C56.6693 35.6093 55.2899 35.8666 55.0943 37.2151C54.8987 38.5637 55.4546 40.2416 55.5781 40.4166C55.7016 40.5916 55.6399 39.5519 55.6399 39.5519C55.6399 39.5519 55.9384 41.6725 56.206 41.7857C56.4737 41.899 57.8016 40.149 57.8016 40.149C57.8016 40.149 57.4207 41.1578 57.7296 41.096C58.0384 41.0343 59.1502 39.2945 59.356 38.7078C59.5619 38.121 60.3649 36.2269 57.4002 35.6607" fill="white"/>
<path d="M56.6693 35.6093C56.6693 35.6093 55.2899 35.8666 55.0943 37.2151C54.8987 38.5637 55.4546 40.2416 55.5781 40.4166C55.7016 40.5916 55.6399 39.5519 55.6399 39.5519C55.6399 39.5519 55.9384 41.6725 56.206 41.7857C56.4737 41.899 57.8016 40.149 57.8016 40.149C57.8016 40.149 57.4207 41.1578 57.7296 41.096C58.0384 41.0343 59.1502 39.2945 59.356 38.7078C59.5619 38.121 60.3649 36.2269 57.4002 35.6607" stroke="#242D3C" stroke-width="0.45" stroke-linecap="round" stroke-linejoin="round"/>
<path d="M58.3888 37.5239C58.2344 37.2871 57.6373 36.6283 57.5858 36.7209C57.5344 36.8136 57.7094 37.3592 57.7094 37.3592C57.1329 37.0812 56.8344 36.6592 56.8344 36.6592C56.4226 36.793 56.2064 37.0812 56.2064 37.0812C56.2064 37.0812 56.1858 36.7312 56.2476 36.4944" fill="white"/>
<path d="M58.3888 37.5239C58.2344 37.2871 57.6373 36.6283 57.5858 36.7209C57.5344 36.8136 57.7094 37.3592 57.7094 37.3592C57.1329 37.0812 56.8344 36.6592 56.8344 36.6592C56.4226 36.793 56.2064 37.0812 56.2064 37.0812C56.2064 37.0812 56.1858 36.7312 56.2476 36.4944" stroke="#242D3C" stroke-width="0.45" stroke-linecap="round" stroke-linejoin="round"/>
<path d="M54.8479 32.3665C54.8479 32.3665 55.3935 27.24 60.0155 28.7327C63.3508 29.8136 63.1861 32.6547 62.095 34.3842" stroke="#242D3C" stroke-width="0.45" stroke-linecap="round" stroke-linejoin="round"/>
<path d="M57.7095 28.3924C57.7095 28.3924 59.0065 25.7262 61.5801 26.6218C64.308 27.5688 64.4727 28.485 62.3109 33.9924" stroke="#242D3C" stroke-width="0.45" stroke-linecap="round" stroke-linejoin="round"/>
<path d="M63.341 45.6354C62.5381 41.5281 60.9734 39.7163 59.2234 39.1501" stroke="#242D3C" stroke-width="0.45" stroke-linecap="round" stroke-linejoin="round"/>
<path d="M50.4011 42.8971C50.4011 42.8971 52.5629 40.7045 55.157 39.603" stroke="#242D3C" stroke-width="0.45" stroke-linecap="round" stroke-linejoin="round"/>
<path d="M62.2917 27.0026C62.2917 27.0026 64.4123 23.6056 63.7741 29.3394" stroke="#242D3C" stroke-width="0.45" stroke-linecap="round" stroke-linejoin="round"/>
<path d="M61.971 26.7661C61.971 26.7661 63.0828 24.1514 60.2107 26.4367" stroke="#242D3C" stroke-width="0.45" stroke-linecap="round" stroke-linejoin="round"/>
<path d="M27.0238 7.63991C27.0238 7.63991 24.1929 13.7546 25.4076 26.437" stroke="#242D3C" stroke-width="0.5" stroke-linecap="round" stroke-linejoin="round"/>
<path d="M12.5085 22.0412L13.6718 21.6295C13.6718 21.6295 12.7865 24.203 13.0541 26.7662" stroke="#242D3C" stroke-width="0.5" stroke-linecap="round" stroke-linejoin="round"/>
<path d="M17.0552 25.688C17.2637 24.3108 16.8631 23.1081 16.1605 23.0017C15.4578 22.8953 14.7192 23.9255 14.5106 25.3027C14.3021 26.6799 14.7027 27.8826 15.4053 27.989C16.108 28.0954 16.8466 27.0652 17.0552 25.688Z" stroke="#242D3C" stroke-width="0.5" stroke-linecap="round" stroke-linejoin="round"/>
<path d="M20.3303 27.0386C20.5388 25.6614 20.1383 24.4587 19.4356 24.3523C18.733 24.246 17.9943 25.2761 17.7858 26.6533C17.5772 28.0305 17.9778 29.2332 18.6805 29.3396C19.3831 29.446 20.1218 28.4158 20.3303 27.0386Z" stroke="#242D3C" stroke-width="0.5" stroke-linecap="round" stroke-linejoin="round"/>
<path d="M23.5071 28.6425C23.7156 27.2654 23.315 26.0627 22.6124 25.9563C21.9097 25.8499 21.1711 26.8801 20.9625 28.2573C20.754 29.6345 21.1546 30.8372 21.8572 30.9435C22.5599 31.0499 23.2985 30.0197 23.5071 28.6425Z" stroke="#242D3C" stroke-width="0.5" stroke-linecap="round" stroke-linejoin="round"/>
<path d="M26.6897 30.4038C26.8982 29.0266 26.4976 27.8239 25.795 27.7175C25.0923 27.6111 24.3537 28.6413 24.1452 30.0185C23.9366 31.3957 24.3372 32.5984 25.0398 32.7048C25.7425 32.8112 26.4811 31.781 26.6897 30.4038Z" stroke="#242D3C" stroke-width="0.5" stroke-linecap="round" stroke-linejoin="round"/>
</svg>
