<svg width="189" height="146" viewBox="0 0 189 146" fill="none" xmlns="http://www.w3.org/2000/svg">
<g filter="url(#filter0_d_220_3)">
<path d="M6.68 56.28C8.58 55.1 10.3 53.56 11.52 51.62L11.56 51.56C11.98 52.18 12.44 52.78 12.96 53.32C14 54.42 15.22 55.3 16.42 55.86L18 53.86C16.58 53.24 15.4 52.46 14.42 51.5C13.76 50.84 13.18 50.06 12.72 49.16C12.82 48.9 12.9 48.66 12.96 48.4C13.14 47.8 13.28 47.18 13.36 46.52H17.28V44.24H6.24V46.52H10.62C10.56 46.94 10.46 47.36 10.36 47.74C9.56 50.68 7.68 52.82 4.92 54.38L6.68 56.28ZM21.3 58.54V49.72H23.84V47.4H21.3V40.62H18.62V58.54H21.3ZM15.02 42.86V40.58H8.6V42.86H15.02ZM34.5667 50.62C31.2067 50.62 28.7867 52.34 28.7867 54.84C28.7867 57.34 31.2067 59.06 34.5667 59.06C37.9267 59.06 40.3467 57.34 40.3467 54.84C40.3467 52.34 37.9267 50.62 34.5667 50.62ZM36.9267 49.7V47.58L28.0067 47.88V46.52H35.2467V41.08H25.3267V43.24H32.5667V44.44H25.3267V50.24L36.9267 49.7ZM40.4067 40.62H37.7267V50.8H40.4067V48.48H42.5267V46.24H40.4067V44.68H42.5267V42.44H40.4067V40.62ZM34.5667 56.9C32.5667 56.9 31.4667 56.1 31.4667 54.84C31.4667 53.58 32.5667 52.78 34.5667 52.78C36.5667 52.78 37.6667 53.58 37.6667 54.84C37.6667 56.1 36.5667 56.9 34.5667 56.9ZM58.8734 58.54V49.52H61.4134V47.2H58.8734V40.62H56.1934V58.54H58.8734ZM44.2934 43.62H51.2934C50.9134 47.72 48.1334 51.84 43.4734 54.08L45.1934 55.98C50.1934 53.3 54.1934 48.3 54.1334 41.34H44.2934V43.62ZM63.5802 43.44H70.3802C69.7402 46.08 66.8002 48.24 62.4002 49.14L63.6602 51.22C68.5802 50.2 73.3602 46.84 73.3002 41.2H63.5802V43.44ZM78.7802 58.62V51.88H64.4602V54.16H76.1002V58.62H78.7802ZM73.6602 45.32H76.1402V46.88H73.0802V49.12H76.1402V51.08H78.8202V40.62H76.1402V43.08H73.6602V45.32ZM96.1094 41V43.42H91.4494V41H88.7694V50.04H98.7894V46.6H101.589V50.68H104.269V40.62H101.589V44.28H98.7894V41H96.1094ZM90.5094 51.48V58.42H104.229V51.48H90.5094ZM93.1894 53.72H101.549V56.14H93.1894V53.72ZM91.4494 47.8V45.62H96.1094V47.8H91.4494ZM113.196 40.62C110.156 40.62 108.036 42.84 108.036 45.26C108.036 47.68 110.156 49.9 113.196 49.9C116.236 49.9 118.356 47.68 118.356 45.26C118.356 42.84 116.236 40.62 113.196 40.62ZM123.416 58.54V40.62H120.736V58.54H123.416ZM114.716 58.12V52.78L120.036 52.7V50.5L106.936 50.66V52.9L111.996 52.82V58.12H114.716ZM113.196 47.66C111.676 47.66 110.716 46.5 110.716 45.26C110.716 44.02 111.676 42.86 113.196 42.86C114.716 42.86 115.676 44.02 115.676 45.26C115.676 46.5 114.716 47.66 113.196 47.66ZM144.065 47.54C144.065 43.94 141.565 41.42 138.265 41.42C134.965 41.42 132.465 43.94 132.465 47.54C132.465 51.14 134.965 53.66 138.265 53.66C141.565 53.66 144.065 51.14 144.065 47.54ZM141.385 47.54C141.385 49.86 140.105 51.38 138.265 51.38C136.425 51.38 135.145 49.86 135.145 47.54C135.145 45.22 136.425 43.7 138.265 43.7C140.105 43.7 141.385 45.22 141.385 47.54ZM148.745 58.54V40.62H146.065V58.54H148.745ZM160.872 58.08H163.472V49.24H165.232V58.52H167.872V40.62H165.232V46.92H163.472V40.82H160.872V58.08ZM152.052 41.26V55.28L160.072 54.8V52.56L154.692 52.8V41.26H152.052Z" fill="#999999"/>
<path d="M7.7 79.96C9.3 79.4 10.98 78.42 12.28 77.08L12.68 76.66L12.98 77.02C14.22 78.34 15.88 79.22 17.62 79.54L19.02 77.52C17.12 77.16 15.56 76.6 14.42 75.38C14.24 75.2 14.08 74.98 13.94 74.76C14.06 74.5 14.16 74.24 14.26 73.98H18.26V71.74H7.18V73.98H11.46L11.38 74.14C10.46 75.98 8.58 77.3 6.16 78.02L7.7 79.96ZM22.42 86.54V68.62H19.74V86.54H22.42ZM19.14 84.02V81.78L14.04 81.84V78.96H11.32V81.88L5.94 81.94V84.22L19.14 84.02ZM9.6 68.7V70.94H15.84V68.7H9.6ZM34.6267 86.08H37.2267V77.24H38.7867V86.52H41.4267V68.62H38.7867V74.92H37.2267V68.82H34.6267V86.08ZM25.6067 69.46V83.38L33.8267 82.9V80.66L28.2467 80.9V71.74H33.0867V69.46H25.6067ZM55.4359 85.38C58.7159 85.38 60.9359 83 60.9359 80.06C60.9359 77.12 58.7159 74.72 55.4359 74.72C55.1959 74.72 54.9759 74.76 54.7159 74.82L57.4759 69.82H54.6759L50.8959 76.64C50.4159 77.52 49.9359 78.76 49.9359 79.86C49.9359 82.88 51.8959 85.38 55.4359 85.38ZM52.5359 80.06C52.5359 78.22 53.6559 76.92 55.4359 76.92C57.2159 76.92 58.3359 78.28 58.3359 80.06C58.3359 81.82 57.2159 83.18 55.4359 83.18C53.7159 83.18 52.5359 81.74 52.5359 80.06ZM74.57 77.54C72.65 77.14 71.05 76.5 69.89 75.3C69.73 75.14 69.57 74.96 69.43 74.76C69.45 74.68 69.49 74.6 69.53 74.54C69.67 74.2 69.79 73.84 69.89 73.48H73.97V71.28H62.81V73.48H67.05C66.77 74.32 66.33 75.06 65.75 75.68C64.77 76.74 63.39 77.58 61.61 78.18L63.19 80.16C64.93 79.54 66.67 78.44 67.95 77L68.19 76.74L68.43 77C69.75 78.38 71.45 79.36 73.17 79.64L74.57 77.54ZM73.17 76.3H75.93V82.12H78.61V68.62H75.93V74.1H73.17V76.3ZM64.95 80.78V86.34H79.19V84.06H67.63V80.78H64.95ZM71.85 70.4V68.2H65.13V70.4H71.85ZM96.6567 81.76V75.1H98.7767V72.78H96.6567V68.62H93.9767V81.76H96.6567ZM91.4967 78.54V69.2H81.4767V78.54H91.4967ZM84.1567 71.44H88.8167V76.3H84.1567V71.44ZM83.1967 80.22V86.34H97.2367V84.06H85.8767V80.22H83.1967ZM106.363 68.14C103.403 68.14 101.203 69.72 101.203 72.08C101.203 74.44 103.403 76.02 106.363 76.02C109.323 76.02 111.523 74.44 111.523 72.08C111.523 69.72 109.323 68.14 106.363 68.14ZM109.883 81.5H113.883V82.52H116.563V68.62H113.883V79.46H109.883V81.5ZM102.503 81.5V86.2H116.923V83.92H105.183V81.5H102.503ZM107.603 81.08V78.78L113.063 78.7V76.58L99.9634 76.74V78.9L104.883 78.82V81.08H107.603ZM106.363 73.86C104.863 73.86 103.883 73.14 103.883 72.08C103.883 71.02 104.863 70.3 106.363 70.3C107.823 70.3 108.843 71.02 108.843 72.08C108.843 73.14 107.823 73.86 106.363 73.86ZM119.23 71.62H122.19C122.09 75.06 121.01 78.64 118.13 81.56L120.07 83C123.29 79.52 124.93 75.38 124.87 69.34H119.23V71.62ZM125.43 71.62H128.19C128.09 75.44 127.07 79.52 123.99 82.76L125.97 84.24C129.33 80.44 130.93 75.88 130.87 69.34H125.43V71.62ZM134.61 86.54V77.72H136.75V75.4H134.61V68.62H132.01V86.54H134.61ZM138.757 84.08C139.837 83.26 140.797 82.34 141.657 81.3C142.397 80.4 143.057 79.44 143.597 78.4L143.717 78.62C144.997 80.64 146.777 82.5 148.577 83.66L150.197 81.7C147.697 80.28 145.857 78.3 144.717 75.76C144.897 75.18 145.057 74.6 145.197 73.98C145.377 73.22 145.497 72.44 145.577 71.62H149.617V69.34H138.157V71.62H142.837C142.777 72.24 142.677 72.86 142.557 73.46C141.837 77.16 140.017 80.22 136.957 82.22L138.757 84.08ZM154.297 86.54V68.62H151.617V86.54H154.297Z" fill="#242D3C"/>
<path d="M12.644 116.6V111.152H14.372V116.888H15.284V106.196H14.372V110.336H12.644V106.316H11.744V116.6H12.644ZM5.936 107.504H9.38C9.284 110.048 7.832 113.024 5.468 114.656L6.128 115.268C8.564 113.444 10.376 110.456 10.34 106.712H5.936V107.504ZM26.388 114.092V106.196H25.476V114.092H26.388ZM26.688 116.78V115.988H19.368V113.252H18.456V116.78H26.688ZM20.184 106.16C18.42 106.16 17.064 107.408 17.064 109.136C17.064 110.864 18.42 112.112 20.184 112.112C21.948 112.112 23.304 110.864 23.304 109.136C23.304 107.408 21.948 106.16 20.184 106.16ZM20.184 111.32C18.84 111.32 17.976 110.42 17.976 109.136C17.976 107.852 18.84 106.952 20.184 106.952C21.528 106.952 22.392 107.852 22.392 109.136C22.392 110.42 21.528 111.32 20.184 111.32ZM37.8761 116.9V106.196H36.9641V116.9H37.8761ZM36.4841 115.052V114.26L28.3001 114.356V115.172L36.4841 115.052ZM32.2001 106.46C30.2801 106.46 28.9601 107.912 28.9601 109.484C28.9601 111.056 30.2801 112.508 32.2001 112.508C34.1201 112.508 35.4401 111.056 35.4401 109.484C35.4401 107.912 34.1201 106.46 32.2001 106.46ZM32.2001 111.716C30.7841 111.716 29.8721 110.636 29.8721 109.484C29.8721 108.332 30.7841 107.252 32.2001 107.252C33.6161 107.252 34.5281 108.332 34.5281 109.484C34.5281 110.636 33.6161 111.716 32.2001 111.716ZM53.5776 111.8C52.5096 111.44 51.5736 110.948 50.7696 110.336C50.0136 109.76 49.4136 109.112 48.9456 108.38C49.2096 107.792 49.3536 107.156 49.3776 106.472H48.4176C48.2856 109.028 46.2336 110.984 43.5456 111.848L44.0616 112.508C45.3936 112.04 46.7136 111.26 47.6856 110.24C48.0096 109.904 48.2856 109.544 48.5376 109.148C48.7296 109.436 48.9456 109.712 49.1976 109.988C50.2536 111.116 51.6456 112.016 53.0616 112.52L53.5776 111.8ZM43.3416 115.1V115.892H53.8536V115.1H49.0656V111.992H48.1296V115.1H43.3416ZM54.6736 111.452V112.244H65.1856V111.452H54.6736ZM64.1056 109.496H56.7736V107.156H63.9616V106.388H55.8616V110.276H64.1056V109.496ZM64.0336 116.948V113.492H55.5616V114.284H63.1216V116.948H64.0336ZM75.2577 116.9V111.452H76.8057V110.636H75.2577V106.196H74.3457V116.9H75.2577ZM72.3057 112.868C72.6777 111.032 72.8577 108.848 72.8577 106.7H66.4737V107.492H71.9217C71.9217 108.908 71.7537 111.044 71.4057 112.868H72.3057ZM73.8657 115.052V114.26L69.6777 114.308V110.552H68.7417V114.32L65.9217 114.356V115.172L73.8657 115.052ZM88.7152 111.572C87.5272 111.092 86.4712 110.312 85.7272 109.328C85.5712 109.124 85.4392 108.908 85.3192 108.68L85.4392 108.356C85.6432 107.732 85.7632 107.072 85.7752 106.388H84.8392C84.7072 108.788 83.4112 110.924 81.1072 111.98L81.6832 112.616C82.8472 112.04 83.8552 111.164 84.5752 110.096C84.7072 109.904 84.8392 109.7 84.9472 109.496C85.0312 109.64 85.1392 109.784 85.2472 109.916C86.0272 110.936 87.0952 111.8 88.1632 112.28L88.7152 111.572ZM91.3432 116.78V115.988H84.0232V113.252H83.1112V116.78H91.3432ZM91.0432 114.092V106.196H90.1312V114.092H91.0432ZM97.8632 105.764C95.8712 105.764 94.3352 106.7 94.3352 108.092C94.3352 108.44 94.4192 108.764 94.5992 109.052C94.7792 109.328 95.0072 109.556 95.3072 109.76V111.428H92.6072V112.196H103.119V111.428H100.407V109.76C100.707 109.556 100.935 109.328 101.115 109.052C101.295 108.764 101.391 108.44 101.391 108.092C101.391 106.7 99.8552 105.764 97.8632 105.764ZM97.9112 112.784C95.9192 112.784 94.3832 113.672 94.3832 115.076C94.3832 116.48 95.9192 117.356 97.9112 117.356C99.9032 117.356 101.439 116.48 101.439 115.076C101.439 113.672 99.9032 112.784 97.9112 112.784ZM97.8632 109.676C96.3992 109.676 95.2472 109.052 95.2472 108.092C95.2472 107.132 96.3992 106.508 97.8632 106.508C99.3272 106.508 100.479 107.132 100.479 108.092C100.479 109.052 99.3272 109.676 97.8632 109.676ZM97.9112 116.588C96.4472 116.588 95.2952 116.024 95.2952 115.076C95.2952 114.128 96.4472 113.564 97.9112 113.564C99.3752 113.564 100.527 114.128 100.527 115.076C100.527 116.024 99.3752 116.588 97.9112 116.588ZM96.4712 110.252C96.9032 110.36 97.3712 110.42 97.8632 110.42C98.3552 110.42 98.8232 110.36 99.2552 110.252L99.4832 110.192V111.428H96.2312V110.192C96.3032 110.216 96.3872 110.24 96.4712 110.252ZM103.939 115.1V115.892H114.451V115.1H109.723V112.388H113.491V111.584H106.039V107.444H113.251V106.652H105.127V112.388H108.787V115.1H103.939ZM118.103 106.772C116.495 106.772 115.139 108.176 115.139 110.324C115.139 112.484 116.495 113.888 118.103 113.888C119.327 113.888 120.347 113.096 120.827 111.8C120.947 111.464 121.019 111.092 121.055 110.696H122.291V116.612H123.191V106.304H122.291V109.88H121.043C121.007 109.52 120.935 109.184 120.827 108.872C120.347 107.564 119.327 106.772 118.103 106.772ZM118.103 113.084C116.915 113.084 116.039 112.04 116.039 110.324C116.039 108.608 116.915 107.564 118.103 107.564C119.291 107.564 120.167 108.608 120.167 110.324C120.167 112.04 119.291 113.084 118.103 113.084ZM125.267 116.888V106.196H124.355V116.888H125.267ZM139.793 116.9V110.852H141.413V110.036H139.793V106.196H138.905V116.9H139.793ZM131.009 106.652V114.932L134.417 114.584V113.792L131.909 114.044V107.444H134.249V106.652H131.009ZM134.801 106.652V114.98L138.353 114.656V113.864L135.701 114.092V107.444H137.945V106.652H134.801ZM149.325 114.74V113.96L143.313 114.26V111.116H147.729V106.58H142.401V107.372H146.817V110.324H142.401V115.124L149.325 114.74ZM150.885 116.9V111.092H152.625V110.276H150.885V106.196H149.973V116.9H150.885ZM13.292 131.98C12.56 131.752 11.9 131.452 11.312 131.056C10.772 130.696 10.34 130.276 10.04 129.808C10.184 129.52 10.28 129.22 10.328 128.908H12.956V128.116H6.428V128.908H9.356C9.296 129.208 9.2 129.484 9.068 129.748C8.468 130.9 7.304 131.8 5.852 132.184L6.368 132.844C7.292 132.556 8.264 131.992 9.02 131.236C9.248 131.008 9.44 130.78 9.62 130.528C9.752 130.684 9.896 130.84 10.052 130.996C10.796 131.716 11.768 132.352 12.788 132.688L13.292 131.98ZM15.212 136.9V126.196H14.3V136.9H15.212ZM13.82 135.172V134.38L10.1 134.428V132.388H9.164V134.44L5.636 134.476V135.292L13.82 135.172ZM7.88 126.34V127.132H11.504V126.34H7.88ZM23.976 136.6V131.032H25.704V136.888H26.616V126.196H25.704V130.216H23.976V126.316H23.076V136.6H23.976ZM17.436 126.724V134.956L22.476 134.668V133.888L18.336 134.068V127.516H21.732V126.724H17.436ZM35.2616 136.18C37.1576 136.18 38.4416 134.812 38.4416 133.12C38.4416 131.44 37.1576 130.06 35.2616 130.06C34.7936 130.06 34.2296 130.252 33.9776 130.444L35.9336 126.94H35.0096L32.6456 131.116C32.3576 131.632 32.0816 132.34 32.0816 133C32.0816 134.728 33.2336 136.18 35.2616 136.18ZM32.9456 133.12C32.9456 131.776 33.8696 130.804 35.2616 130.804C36.6536 130.804 37.5776 131.824 37.5776 133.12C37.5776 134.416 36.6536 135.436 35.2616 135.436C33.9176 135.436 32.9456 134.368 32.9456 133.12ZM46.454 128.524V127.756H39.806V128.524H42.818C42.758 128.8 42.674 129.064 42.566 129.316C41.966 130.648 40.67 131.752 39.038 132.352L39.566 133.024C40.61 132.604 41.678 131.908 42.482 131.032C42.674 130.816 42.854 130.588 43.01 130.36C43.166 130.552 43.334 130.744 43.514 130.924C44.354 131.74 45.41 132.376 46.466 132.688L46.958 131.932C46.178 131.728 45.482 131.416 44.846 131.008C44.27 130.624 43.802 130.168 43.43 129.652L43.466 129.568C43.622 129.232 43.742 128.884 43.802 128.524H46.454ZM48.926 134.212V126.196H48.014V129.508H45.89V130.3H48.014V134.212H48.926ZM49.226 136.78V135.988H41.906V133.588H40.994V136.78H49.226ZM45.062 126.808V126.04H41.198V126.808H45.062ZM55.746 131.212H51.87V127.36H55.746V131.212ZM50.958 126.568V132.004H56.658V126.568H50.958ZM59.754 134.092V129.772H61.23V128.956H59.754V126.196H58.842V134.092H59.754ZM60.102 136.78V135.988H52.902V133.252H51.99V136.78H60.102ZM65.9141 125.932C64.1981 125.932 62.9141 126.856 62.9141 128.236C62.9141 129.616 64.1981 130.54 65.9141 130.54C67.6301 130.54 68.9141 129.616 68.9141 128.236C68.9141 126.856 67.6301 125.932 65.9141 125.932ZM65.9141 129.772C64.6661 129.772 63.8261 129.136 63.8261 128.236C63.8261 127.336 64.6661 126.7 65.9141 126.7C67.1621 126.7 68.0021 127.336 68.0021 128.236C68.0021 129.136 67.1621 129.772 65.9141 129.772ZM71.6981 134.536V126.196H70.7861V132.796H67.9301V133.552H70.7861V134.536H71.6981ZM71.9141 136.696V135.904H64.4861V134.02H63.5741V136.696H71.9141ZM70.0901 131.908V131.164L62.0381 131.26V132.028L65.2781 131.98V133.972H66.2141V131.968L70.0901 131.908ZM82.5261 136.9V131.332H84.0261V130.516H82.5261V126.196H81.6381V136.9H82.5261ZM73.6101 127.444H75.9381C75.8541 130.048 74.9181 132.364 73.0461 134.236L73.7421 134.74C75.6741 132.772 76.9101 130.228 76.8741 126.652H73.6101V127.444ZM77.2581 127.444H79.4661C79.4061 130.144 78.6621 132.976 76.6101 135.004L77.3061 135.508C79.4541 133.312 80.4501 130.36 80.4021 126.652H77.2581V127.444ZM92.1541 134.332C91.3621 133.816 90.6421 133.204 90.0061 132.496C89.3821 131.8 88.8901 131.056 88.5421 130.264C88.5901 130.108 88.6381 129.952 88.6741 129.784C88.8661 129.064 88.9861 128.284 89.0341 127.444H91.6501V126.652H85.0141V127.444H88.0741C88.0141 128.2 87.9061 128.908 87.7381 129.568C87.1621 131.884 85.9501 133.612 84.3541 134.728L84.9661 135.364C86.1061 134.512 87.0901 133.432 87.8101 132.052C87.9421 131.8 88.0741 131.536 88.1821 131.26C88.3141 131.512 88.4701 131.752 88.6261 131.992C89.4421 133.192 90.4981 134.296 91.5421 135.04L92.1541 134.332ZM94.3381 136.9V126.196H93.4261V136.9H94.3381ZM106.992 136.6V131.032H108.72V136.888H109.632V126.196H108.72V130.216H106.992V126.316H106.092V136.6H106.992ZM100.452 126.724V134.956L105.492 134.668V133.888L101.352 134.068V127.516H104.748V126.724H100.452ZM120.7 136.828V136.072H113.128V135.16H120.448V132.82H116.872V131.92H121.6V131.176H111.088V131.92H115.936V132.82H112.216V133.564H119.536V134.428H112.216V136.828H120.7ZM121.132 129.772C119.752 129.7 118.444 129.448 117.46 128.944C117.22 128.824 117.004 128.68 116.812 128.524C116.872 128.416 116.92 128.32 116.956 128.212H120.484V127.468H112.156V128.212H115.924C115.828 128.392 115.696 128.548 115.528 128.692C114.664 129.412 113.104 129.796 111.532 129.868L111.928 130.588C113.188 130.528 114.94 130.156 116.032 129.352L116.332 129.112C116.572 129.292 116.836 129.46 117.124 129.604C118.216 130.144 119.56 130.456 120.724 130.504L121.132 129.772ZM118.6 126.052H114.04V126.796H118.6V126.052ZM132.152 136.9V126.196H131.24V136.9H132.152ZM126.092 126.7C124.172 126.7 122.696 128.164 122.696 130.324C122.696 132.496 124.172 133.96 126.092 133.96C128.012 133.96 129.488 132.496 129.488 130.324C129.488 128.164 128.012 126.7 126.092 126.7ZM126.092 127.516C127.52 127.516 128.552 128.584 128.552 130.312C128.552 132.004 127.592 133.144 126.092 133.144C124.592 133.144 123.632 132.004 123.632 130.312C123.632 128.584 124.664 127.516 126.092 127.516ZM146.701 136.9V131.2H148.441V130.384H146.701V126.196H145.789V136.9H146.701ZM138.265 127.444H142.873C142.741 130.3 140.905 133.156 137.929 134.596L138.529 135.268C141.637 133.636 143.893 130.588 143.857 126.652H138.265V127.444ZM149.021 130.852V131.62H159.533V130.852H149.021ZM150.209 126.268V129.676H158.453V128.92H151.121V126.268H150.209ZM154.325 132.436C152.333 132.436 150.797 133.396 150.797 134.896C150.797 136.396 152.333 137.356 154.325 137.356C156.317 137.356 157.853 136.396 157.853 134.896C157.853 133.396 156.317 132.436 154.325 132.436ZM154.325 136.588C152.861 136.588 151.709 135.952 151.709 134.896C151.709 133.84 152.861 133.204 154.325 133.204C155.789 133.204 156.941 133.84 156.941 134.896C156.941 135.952 155.789 136.588 154.325 136.588ZM166.101 132.568C166.101 130.996 165.069 129.664 163.473 129.664C161.877 129.664 160.845 130.996 160.845 132.568C160.845 134.14 161.877 135.472 163.473 135.472C165.069 135.472 166.101 134.14 166.101 132.568ZM168.009 136.6V131.392H169.557V136.888H170.469V126.196H169.557V130.576H168.009V126.316H167.109V136.6H168.009ZM165.201 132.568C165.201 133.72 164.589 134.692 163.473 134.692C162.357 134.692 161.745 133.72 161.745 132.568C161.745 131.416 162.357 130.444 163.473 130.444C164.589 130.444 165.201 131.416 165.201 132.568ZM166.377 128.92V128.128H160.449V128.92H166.377ZM165.117 127.132V126.34H161.829V127.132H165.117ZM176.929 126.172C174.589 126.172 173.017 127.696 173.017 129.424C173.017 131.152 174.589 132.676 176.929 132.676C179.269 132.676 180.841 131.152 180.841 129.424C180.841 127.696 179.269 126.172 176.929 126.172ZM176.929 131.884C175.081 131.884 173.929 130.744 173.929 129.424C173.929 128.104 175.081 126.964 176.929 126.964C178.777 126.964 179.929 128.104 179.929 129.424C179.929 130.744 178.777 131.884 176.929 131.884ZM171.685 135.1V135.892H182.197V135.1H179.833V132.832H178.909V135.1H175.009V132.832H174.085V135.1H171.685ZM183.221 136.6H184.373V135.448H183.221V136.6Z" fill="#999999"/>
<path d="M5.528 6.92C5.528 10.888 8.008 13.304 10.76 13.304C13.512 13.304 15.992 10.888 15.992 6.92C15.992 2.952 13.512 0.535999 10.76 0.535999C8.008 0.535999 5.528 2.952 5.528 6.92ZM13.912 6.92C13.912 9.8 12.376 11.544 10.76 11.544C9.144 11.544 7.608 9.8 7.608 6.92C7.608 4.04 9.144 2.296 10.76 2.296C12.376 2.296 13.912 4.04 13.912 6.92ZM17.9236 3.752L19.0276 5.256L20.8676 3.688V13H22.9476V0.839999H21.3156L17.9236 3.752Z" fill="#D7191F"/>
</g>
<defs>
<filter id="filter0_d_220_3" x="0.919922" y="0.536011" width="187.453" height="144.82" filterUnits="userSpaceOnUse" color-interpolation-filters="sRGB">
<feFlood flood-opacity="0" result="BackgroundImageFix"/>
<feColorMatrix in="SourceAlpha" type="matrix" values="0 0 0 0 0 0 0 0 0 0 0 0 0 0 0 0 0 0 127 0" result="hardAlpha"/>
<feOffset dy="4"/>
<feGaussianBlur stdDeviation="2"/>
<feComposite in2="hardAlpha" operator="out"/>
<feColorMatrix type="matrix" values="0 0 0 0 0 0 0 0 0 0 0 0 0 0 0 0 0 0 0.25 0"/>
<feBlend mode="normal" in2="BackgroundImageFix" result="effect1_dropShadow_220_3"/>
<feBlend mode="normal" in="SourceGraphic" in2="effect1_dropShadow_220_3" result="shape"/>
</filter>
</defs>
</svg>
