<svg width="205" height="152" viewBox="0 0 205 152" fill="none" xmlns="http://www.w3.org/2000/svg">
<path d="M2.872 54.896C4.168 53.912 5.32 52.808 6.352 51.56C7.24 50.48 8.032 49.328 8.68 48.08L8.824 48.344C10.36 50.768 12.496 53 14.656 54.392L16.6 52.04C13.6 50.336 11.392 47.96 10.024 44.912C10.24 44.216 10.432 43.52 10.6 42.776C10.816 41.864 10.96 40.928 11.056 39.944H15.904V37.208H2.152V39.944H7.768C7.696 40.688 7.576 41.432 7.432 42.152C6.568 46.592 4.384 50.264 0.712 52.664L2.872 54.896ZM20.56 57.848V46.784H23.608V44H20.56V36.344H17.344V57.848H20.56ZM43.4881 41.6H29.9521V39.32H43.2481V36.68H26.7361V44.264H33.4801V45.752H24.4321V48.392H45.5521V45.752H36.7441V44.264H43.4881V41.6ZM35.0881 49.112C30.8881 49.112 27.9121 51.056 27.9121 54.032C27.9121 57.008 30.8881 58.952 35.0881 58.952C39.2881 58.952 42.2641 57.008 42.2641 54.032C42.2641 51.056 39.2881 49.112 35.0881 49.112ZM35.0881 56.36C32.4961 56.36 31.1281 55.448 31.1281 54.032C31.1281 52.616 32.4961 51.704 35.0881 51.704C37.6801 51.704 39.0481 52.616 39.0481 54.032C39.0481 55.448 37.6801 56.36 35.0881 56.36ZM48.3441 55.136C50.6241 53.72 52.6881 51.872 54.1521 49.544L54.2001 49.472C54.7041 50.216 55.2561 50.936 55.8801 51.584C57.1281 52.904 58.5921 53.96 60.0321 54.632L61.9281 52.232C60.2241 51.488 58.8081 50.552 57.6321 49.4C56.8401 48.608 56.1441 47.672 55.5921 46.592C55.7121 46.28 55.8081 45.992 55.8801 45.68C56.0961 44.96 56.2641 44.216 56.3601 43.424H61.0641V40.688H47.8161V43.424H53.0721C53.0001 43.928 52.8801 44.432 52.7601 44.888C51.8001 48.416 49.5441 50.984 46.2321 52.856L48.3441 55.136ZM65.8881 57.848V47.264H68.9361V44.48H65.8881V36.344H62.6721V57.848H65.8881ZM58.3521 39.032V36.296H50.6481V39.032H58.3521ZM81.7122 57.848V49.256H90.8802V46.52H87.7602C87.9762 45.488 88.1922 44.336 88.3602 43.016C88.6242 41.168 88.7682 39.152 88.8162 36.968H71.7042V39.656H85.5042C85.4082 41.24 85.1922 43.424 84.7602 45.584C84.7122 45.896 84.6402 46.208 84.5682 46.52H69.7602V49.256H78.4482V57.848H81.7122ZM103.08 53.816V37.352H93.6243V53.816H103.08ZM104.664 57.296H107.784V46.688H109.536V57.824H112.704V36.344H109.536V43.904H107.784V36.584H104.664V57.296ZM96.7923 40.088H99.9123V51.08H96.7923V40.088ZM116.192 54.896C117.488 53.912 118.64 52.808 119.672 51.56C120.56 50.48 121.352 49.328 122 48.08L122.144 48.344C123.68 50.768 125.816 53 127.976 54.392L129.92 52.04C126.92 50.336 124.712 47.96 123.344 44.912C123.56 44.216 123.752 43.52 123.92 42.776C124.136 41.864 124.28 40.928 124.376 39.944H129.224V37.208H115.472V39.944H121.088C121.016 40.688 120.896 41.432 120.752 42.152C119.888 46.592 117.704 50.264 114.032 52.664L116.192 54.896ZM133.88 57.848V46.784H136.928V44H133.88V36.344H130.664V57.848H133.88ZM156.664 57.704V49.256H139.912V57.704H156.664ZM158.872 47.288V44.6H155.968C156.16 43.712 156.352 42.68 156.52 41.504C156.736 40.064 156.856 38.456 156.904 36.68H139.696V39.368H153.592C153.544 40.52 153.352 42.08 153.016 43.664L152.8 44.6H137.752V47.288H158.872ZM143.128 51.896H153.448V55.016H143.128V51.896ZM172.536 57.296H175.656V46.688H177.528V57.824H180.696V36.344H177.528V43.904H175.656V36.584H172.536V57.296ZM161.712 37.352V54.056L171.576 53.48V50.792L164.88 51.08V40.088H170.688V37.352H161.712ZM204.201 48.2V45.896H183.081V48.2H192.009V49.304H185.241V51.608H198.777V52.424H185.241V57.704H202.497V55.376H188.457V54.536H201.993V49.304H195.273V48.2H204.201ZM185.097 45.368C187.497 45.272 190.161 44.864 192.321 43.952C192.753 43.76 193.161 43.544 193.545 43.328C193.953 43.592 194.385 43.832 194.865 44.048C196.929 44.936 199.569 45.296 202.065 45.2L203.457 42.848C200.577 42.8 198.105 42.656 196.233 41.888L195.489 41.528C195.513 41.456 195.561 41.408 195.609 41.336H202.065V38.936H185.121V41.336H191.673C191.241 41.648 190.713 41.888 190.089 42.08C188.48 42.584 186.297 42.824 183.801 42.944L185.097 45.368ZM198.297 35.864H188.889V38.264H198.297V35.864Z" fill="#242D3C"/>
<path d="M2.872 20.896C4.168 19.912 5.32 18.808 6.352 17.56C7.24 16.48 8.032 15.328 8.68 14.08L8.824 14.344C10.36 16.768 12.496 19 14.656 20.392L16.6 18.04C13.6 16.336 11.392 13.96 10.024 10.912C10.24 10.216 10.432 9.52 10.6 8.776C10.816 7.864 10.96 6.928 11.056 5.944H15.904V3.208H2.152V5.944H7.768C7.696 6.688 7.576 7.432 7.432 8.152C6.568 12.592 4.384 16.264 0.712 18.664L2.872 20.896ZM20.56 23.848V12.784H23.608V10H20.56V2.344H17.344V23.848H20.56ZM43.4881 7.6H29.9521V5.32H43.2481V2.68H26.7361V10.264H33.4801V11.752H24.4321V14.392H45.5521V11.752H36.7441V10.264H43.4881V7.6ZM35.0881 15.112C30.8881 15.112 27.9121 17.056 27.9121 20.032C27.9121 23.008 30.8881 24.952 35.0881 24.952C39.2881 24.952 42.2641 23.008 42.2641 20.032C42.2641 17.056 39.2881 15.112 35.0881 15.112ZM35.0881 22.36C32.4961 22.36 31.1281 21.448 31.1281 20.032C31.1281 18.616 32.4961 17.704 35.0881 17.704C37.6801 17.704 39.0481 18.616 39.0481 20.032C39.0481 21.448 37.6801 22.36 35.0881 22.36ZM48.3441 21.136C50.6241 19.72 52.6881 17.872 54.1521 15.544L54.2001 15.472C54.7041 16.216 55.2561 16.936 55.8801 17.584C57.1281 18.904 58.5921 19.96 60.0321 20.632L61.9281 18.232C60.2241 17.488 58.8081 16.552 57.6321 15.4C56.8401 14.608 56.1441 13.672 55.5921 12.592C55.7121 12.28 55.8081 11.992 55.8801 11.68C56.0961 10.96 56.2641 10.216 56.3601 9.424H61.0641V6.688H47.8161V9.424H53.0721C53.0001 9.928 52.8801 10.432 52.7601 10.888C51.8001 14.416 49.5441 16.984 46.2321 18.856L48.3441 21.136ZM65.8881 23.848V13.264H68.9361V10.48H65.8881V2.344H62.6721V23.848H65.8881ZM58.3521 5.032V2.296H50.6481V5.032H58.3521ZM89.0562 14.368V9.952H91.6002V7.216H89.0562V2.344H85.8402V14.368H89.0562ZM89.4882 23.704V21.328H76.0002V20.44H89.0082V15.088H72.7842V17.44H85.7922V18.28H72.7842V23.704H89.4882ZM81.3762 4.192V1.84H72.9762V4.192H81.3762ZM84.4962 7.12V4.768H69.8562V7.12H84.4962ZM77.3682 7.552C73.6002 7.552 71.2722 8.92 71.2722 10.96C71.2722 13 73.6002 14.368 77.3682 14.368C81.1362 14.368 83.4642 13 83.4642 10.96C83.4642 8.92 81.1362 7.552 77.3682 7.552ZM77.3682 12.112C75.3762 12.112 74.4402 11.704 74.4402 10.96C74.4402 10.216 75.3762 9.808 77.3682 9.808C79.3602 9.808 80.2962 10.216 80.2962 10.96C80.2962 11.704 79.3602 12.112 77.3682 12.112ZM108.024 2.728V5.296H97.9443V2.728H94.7283V13H111.24V2.728H108.024ZM104.616 23.848V17.464H113.544V14.728H92.4243V17.464H101.352V23.848H104.616ZM97.9443 10.24V7.984H108.024V10.24H97.9443ZM118.472 12.76C118.472 8.272 120.152 4.432 122.576 2.2L121.136 0.159999C117.632 2.728 115.352 7.48 115.352 12.76C115.352 18.04 117.608 22.792 121.136 25.36L122.576 23.32C120.128 21.136 118.472 17.224 118.472 12.76ZM138.551 12.304C136.991 11.704 135.623 10.888 134.399 9.88C133.559 9.184 132.887 8.344 132.335 7.36C132.407 7.192 132.455 7 132.527 6.808C132.983 5.488 133.223 4.12 133.247 2.68H129.983C129.791 7.216 127.535 11.104 122.951 13.072L124.967 15.376C127.247 14.296 129.287 12.568 130.751 10.384L130.991 10.048C132.527 12.16 134.591 13.84 136.751 14.752L138.551 12.304ZM127.055 16.264V23.608H144.143V20.872H130.271V16.264H127.055ZM143.543 18.112V2.344H140.327V18.112H143.543ZM147.391 21.136C149.671 19.72 151.735 17.872 153.199 15.544L153.247 15.472C153.751 16.216 154.303 16.936 154.927 17.584C156.175 18.904 157.639 19.96 159.079 20.632L160.975 18.232C159.271 17.488 157.855 16.552 156.679 15.4C155.887 14.608 155.191 13.672 154.639 12.592C154.759 12.28 154.855 11.992 154.927 11.68C155.143 10.96 155.311 10.216 155.407 9.424H160.111V6.688H146.863V9.424H152.119C152.047 9.928 151.927 10.432 151.807 10.888C150.847 14.416 148.591 16.984 145.279 18.856L147.391 21.136ZM164.935 23.848V13.264H167.983V10.48H164.935V2.344H161.719V23.848H164.935ZM157.399 5.032V2.296H149.695V5.032H157.399ZM172.095 12.76C172.095 17.224 170.439 21.136 167.991 23.32L169.431 25.36C172.959 22.792 175.215 18.04 175.215 12.76C175.215 7.48 172.935 2.728 169.431 0.159999L167.991 2.2C170.415 4.432 172.095 8.272 172.095 12.76Z" fill="#999999"/>
<rect x="1" y="112" width="120" height="40" rx="20" fill="#242D3C"/>
<path d="M45.92 131.152C45.14 130.852 44.456 130.444 43.844 129.94C43.424 129.592 43.088 129.172 42.812 128.68C42.848 128.596 42.872 128.5 42.908 128.404C43.136 127.744 43.256 127.06 43.268 126.34H41.636C41.54 128.608 40.412 130.552 38.12 131.536L39.128 132.688C40.268 132.148 41.288 131.284 42.02 130.192L42.14 130.024C42.908 131.08 43.94 131.92 45.02 132.376L45.92 131.152ZM40.172 133.132V136.804H48.716V135.436H41.78V133.132H40.172ZM48.416 134.056V126.172H46.808V134.056H48.416ZM50.448 132.328C51.456 132.076 52.512 131.512 53.316 130.744L53.52 130.528L53.616 130.612C54.444 131.344 55.584 131.8 56.58 131.92L57.372 130.636C56.244 130.468 55.212 130.168 54.468 129.544L54.3 129.376C54.384 129.22 54.444 129.052 54.504 128.872H56.676V130.12H58.14V132.28H59.748V126.172H58.14V128.8H56.964V127.6H50.268V128.872H52.776C52.608 129.28 52.356 129.628 52.02 129.928C51.408 130.456 50.592 130.84 49.548 131.092L50.448 132.328ZM56.076 132.172C54.06 132.172 52.608 133.204 52.608 134.704C52.608 136.204 54.06 137.236 56.076 137.236C58.092 137.236 59.544 136.204 59.544 134.704C59.544 133.204 58.092 132.172 56.076 132.172ZM56.076 135.94C54.876 135.94 54.216 135.46 54.216 134.704C54.216 133.948 54.876 133.468 56.076 133.468C57.276 133.468 57.936 133.948 57.936 134.704C57.936 135.46 57.276 135.94 56.076 135.94ZM55.692 127.192V125.92H51.66V127.192H55.692ZM66.5441 127.516V126.148H62.8241V127.516H66.5441ZM68.1041 129.448V128.08H61.2161V129.448H68.1041ZM64.6601 129.748C62.7521 129.748 61.6121 131.02 61.6121 132.616C61.6121 134.212 62.7521 135.484 64.6601 135.484C66.5681 135.484 67.7081 134.212 67.7081 132.616C67.7081 131.02 66.5681 129.748 64.6601 129.748ZM64.6601 134.14C63.6881 134.14 63.2201 133.516 63.2201 132.616C63.2201 131.716 63.6881 131.092 64.6601 131.092C65.6321 131.092 66.1001 131.716 66.1001 132.616C66.1001 133.516 65.6321 134.14 64.6601 134.14ZM70.4441 136.924V131.872H71.9681V130.48H70.4441V126.172H68.8361V136.924H70.4441ZM82.2561 136.924V126.172H80.6481V136.924H82.2561ZM73.1481 127.972H77.3481C77.1201 130.432 75.4521 132.904 72.6561 134.248L73.6881 135.388C76.6881 133.78 79.0881 130.78 79.0521 126.604H73.1481V127.972Z" fill="white"/>
<path d="M10.9286 79.5377V80.2877H11.6786H13.6908C13.9097 80.2877 14.0229 80.5491 13.8732 80.7087L9.18233 85.7094C9.08357 85.8147 8.91643 85.8147 8.81767 85.7094L4.12682 80.7087C3.97706 80.5491 4.09026 80.2877 4.30915 80.2877H6.32143H7.07143V79.5377V74C7.07143 73.8619 7.18336 73.75 7.32143 73.75H10.6786C10.8166 73.75 10.9286 73.8619 10.9286 74V79.5377Z" stroke="#D7191F" stroke-width="1.5"/>
<path d="M27.444 84.648H29.004V79.344H29.94V84.912H31.524V74.172H29.94V77.952H29.004V74.292H27.444V84.648ZM22.032 74.676V83.028L26.964 82.74V81.396L23.616 81.54V76.044H26.52V74.676H22.032ZM43.276 80.1V78.948H32.716V80.1H37.18V80.652H33.796V81.804H40.564V82.212H33.796V84.852H42.424V83.688H35.404V83.268H42.172V80.652H38.812V80.1H43.276ZM33.724 78.684C34.924 78.636 36.256 78.432 37.336 77.976C37.552 77.88 37.756 77.772 37.948 77.664C38.152 77.796 38.368 77.916 38.608 78.024C39.64 78.468 40.96 78.648 42.208 78.6L42.904 77.424C41.464 77.4 40.228 77.328 39.292 76.944L38.92 76.764C38.932 76.728 38.956 76.704 38.98 76.668H42.208V75.468H33.736V76.668H37.012C36.796 76.824 36.532 76.944 36.22 77.04C35.416 77.292 34.324 77.412 33.076 77.472L33.724 78.684ZM40.324 73.932H35.62V75.132H40.324V73.932ZM53.5041 84.852V80.628H45.1281V84.852H53.5041ZM54.6081 79.644V78.3H53.1561C53.2521 77.856 53.3481 77.34 53.4321 76.752C53.5401 76.032 53.6001 75.228 53.6241 74.34H45.0201V75.684H51.9681C51.9441 76.26 51.8481 77.04 51.6801 77.832L51.5721 78.3H44.0481V79.644H54.6081ZM46.7361 81.948H51.8961V83.508H46.7361V81.948ZM63.1681 82.848V81.504L57.7081 81.732V79.416H61.7401V74.52H56.1001V75.888H60.1321V78.06H56.1001V83.22L63.1681 82.848ZM65.2561 84.924V74.172H63.6481V84.924H65.2561ZM71.8856 80.976C72.8456 80.64 73.8536 80.052 74.6336 79.248L74.8736 78.996L75.0536 79.212C75.7976 80.004 76.7936 80.532 77.8376 80.724L78.6776 79.512C77.5376 79.296 76.6016 78.96 75.9176 78.228C75.8096 78.12 75.7136 77.988 75.6296 77.856C75.7016 77.7 75.7616 77.544 75.8216 77.388H78.2216V76.044H71.5736V77.388H74.1416L74.0936 77.484C73.5416 78.588 72.4136 79.38 70.9616 79.812L71.8856 80.976ZM80.7176 84.924V74.172H79.1096V84.924H80.7176ZM78.7496 83.412V82.068L75.6896 82.104V80.376H74.0576V82.128L70.8296 82.164V83.532L78.7496 83.412ZM73.0256 74.22V75.564H76.7696V74.22H73.0256ZM82.7737 83.448C83.4217 82.956 83.9977 82.404 84.5137 81.78C84.9577 81.24 85.3537 80.664 85.6777 80.04L85.7497 80.172C86.5177 81.384 87.5857 82.5 88.6657 83.196L89.6377 82.02C88.1377 81.168 87.0337 79.98 86.3497 78.456C86.4577 78.108 86.5537 77.76 86.6377 77.388C86.7457 76.932 86.8177 76.464 86.8657 75.972H89.2897V74.604H82.4137V75.972H85.2217C85.1857 76.344 85.1257 76.716 85.0537 77.076C84.6217 79.296 83.5297 81.132 81.6937 82.332L82.7737 83.448ZM88.2697 78.972H90.4897V84.924H92.0977V74.172H90.4897V77.604H88.2697V78.972ZM97.2872 76.2H101.835L98.3432 84H99.9872L103.647 75.78V74.88H97.2872V76.2ZM104.364 84.864H106.044V83.184H104.364V84.864ZM106.767 79.44C106.767 82.416 108.627 84.228 110.691 84.228C112.755 84.228 114.615 82.416 114.615 79.44C114.615 76.464 112.755 74.652 110.691 74.652C108.627 74.652 106.767 76.464 106.767 79.44ZM113.055 79.44C113.055 81.6 111.903 82.908 110.691 82.908C109.479 82.908 108.327 81.6 108.327 79.44C108.327 77.28 109.479 75.972 110.691 75.972C111.903 75.972 113.055 77.28 113.055 79.44ZM116.508 84H118.212L123.612 74.88H121.956L116.508 84ZM119.772 76.968C119.772 75.588 118.812 74.652 117.504 74.652C116.196 74.652 115.236 75.588 115.236 76.968C115.236 78.348 116.196 79.284 117.504 79.284C118.812 79.284 119.772 78.348 119.772 76.968ZM118.236 76.968C118.236 77.604 117.936 77.964 117.504 77.964C117.072 77.964 116.772 77.604 116.772 76.968C116.772 76.332 117.072 75.972 117.504 75.972C117.936 75.972 118.236 76.332 118.236 76.968ZM125.004 81.912C125.004 80.532 124.044 79.596 122.736 79.596C121.428 79.596 120.468 80.532 120.468 81.912C120.468 83.292 121.428 84.228 122.736 84.228C124.044 84.228 125.004 83.292 125.004 81.912ZM123.468 81.912C123.468 82.548 123.168 82.908 122.736 82.908C122.304 82.908 122.004 82.548 122.004 81.912C122.004 81.276 122.304 80.916 122.736 80.916C123.168 80.916 123.468 81.276 123.468 81.912Z" fill="#D7191F"/>
</svg>
