<svg width="278" height="175" viewBox="0 0 278 175" fill="none" xmlns="http://www.w3.org/2000/svg">
<path d="M213.807 53.9822L214.048 59.1856L214.674 62.3132L215.797 63.6638L221.427 67.4455L227.398 74.2269L230.113 78.3924L234.947 89.0691L236.767 96.3339L237.449 102.632L232.004 102.774L224.839 102.575L208.504 102.291L152.348 102.305L154.48 100.087L154.793 97.5281L155.319 94.9122L162.754 96.0069L167.801 96.2486L171.185 96.0922L174.028 95.9216L177.91 95.1113L184.492 93.2062L186.312 92.3106L188.984 87.1072L190.96 83.6952L193.719 79.3875L196.036 76.6295L197.216 76.0608L198.837 74.0278L198.609 71.5257L198.126 69.2937L196.789 67.872L194.899 66.5072L198.922 65.7537L201.438 64.2467L207.196 60.8631L210.11 57.9771L213.807 53.9822Z" fill="#D7191F"/>
<path d="M44.2568 134.461L44.7118 130.665L45.6358 127.509L47.8394 122.846L52.2893 116.775L56.4121 112.795L61.8429 108.885L67.8993 105.771L75.9033 103.198L82.2439 102.274L92.6506 101.976H112.54L118.312 82.129L131.818 38.0287L134.974 29.4987L135.898 28.5177L136.922 28.7878L137.234 30.2806L136.097 33.6784L115.724 102.274H215.156L232.017 102.758C232.017 102.758 247.983 104.378 248.224 104.421C248.466 104.464 263.735 108.16 263.735 108.16L273.132 112.439L281.065 118.126L288.444 125.774L293.036 135.442L295.95 146.346L295.367 150.483L294.045 152.289L290.477 153.44H266.479C264.758 165.027 254.807 173.926 242.737 173.926C230.667 173.926 220.715 165.027 218.995 153.44H129.131C127.411 165.027 117.459 173.926 105.389 173.926C93.3188 173.926 83.3671 165.027 81.6468 153.44H48.9768L46.3183 152.146L44.2426 149.858V134.447L44.2568 134.461Z" fill="white"/>
<path d="M196.036 33.7662C196.036 33.7662 192.937 29.2595 186.739 30.5248V33.0553C186.739 33.0553 191.245 31.8611 194.558 35.5148L196.036 33.752V33.7662Z" fill="#242D3C" stroke="#242D3C" stroke-width="1.2" stroke-linecap="round" stroke-linejoin="round"/>
<path d="M182.629 33.6943L183.127 35.8126C183.127 35.8126 177.212 42.0111 177.98 43.6318C178.748 45.2525 183.752 43.6318 183.752 43.6318" stroke="#242D3C" stroke-width="1.2" stroke-linecap="round" stroke-linejoin="round"/>
<path d="M180.836 45.8079C180.836 45.8079 180.807 59.1858 188.541 59.1858C196.275 59.1858 202.062 52.4186 202.062 52.4186" stroke="#242D3C" stroke-width="1.2" stroke-linecap="round" stroke-linejoin="round"/>
<path d="M182.873 48.1396C182.873 48.1396 187.484 46.054 187.687 46.6595C188.172 48.1172 186.473 49.5076 185.28 49.7767C183.763 50.1131 182.873 48.1396 182.873 48.1396Z" stroke="#242D3C" stroke-width="1.2" stroke-linecap="round" stroke-linejoin="round"/>
<path d="M190.955 35.5142C191.751 35.5142 192.391 36.1539 192.391 36.9501C192.391 37.7462 191.751 38.3859 190.955 38.3859C190.159 38.3859 189.519 37.7462 189.519 36.9501C189.519 36.1539 190.159 35.5142 190.955 35.5142Z" fill="#242D3C"/>
<path d="M160.364 19.8752C160.35 31.86 170.87 34.6891 177.907 34.6891C186.125 34.6891 188.229 23.5289 188.229 23.5289C188.229 23.5289 199.63 20.714 200.427 29.173C201.208 37.6177 202.502 37.9021 204.592 37.9021C206.682 37.9021 208.644 31.8457 212.425 31.8457C214.487 31.8457 216.193 35.599 215.127 39.011C215.752 38.8546 230.765 35.1582 227.836 22.4343C225.022 10.1794 213.463 13.4208 213.463 13.4208C213.463 13.4208 211.7 2.54504 202.061 1.02385C190.446 -0.81011 188.115 10.5917 188.115 10.5917C173.898 3.12793 160.378 8.0327 160.364 19.8752Z" stroke="#242D3C" stroke-width="1.2" stroke-linecap="round" stroke-linejoin="round"/>
<path d="M205.12 44.5128C211.361 44.5128 214.219 41.8827 215.128 39.0109H215.114" stroke="#242D3C" stroke-width="1.2" stroke-linecap="round" stroke-linejoin="round"/>
<path d="M205.986 45.8079C205.986 45.8079 204.18 49.8881 207.422 53.9825" stroke="#242D3C" stroke-width="1.2" stroke-linecap="round" stroke-linejoin="round"/>
<path d="M194.301 57.977C194.301 57.977 199.618 58.9011 200.144 61.588" stroke="#242D3C" stroke-width="1.2" stroke-linecap="round" stroke-linejoin="round"/>
<path d="M198.11 73.7152C200.499 70.1326 194.3 66.5926 194.3 66.5926C206.498 65.1567 214.189 52.973 214.189 52.973C214.189 52.973 213.08 62.6546 215.895 63.7066C222.392 66.1092 236.751 81.8614 237.49 103.115" stroke="#242D3C" stroke-width="1.2" stroke-linecap="round" stroke-linejoin="round"/>
<path d="M218.668 79.9269C218.668 79.9269 216.734 70.3733 207.423 70.3733C196.035 70.3733 187.789 95.5511 187.789 95.5511" stroke="#242D3C" stroke-width="1.2" stroke-linecap="round" stroke-linejoin="round"/>
<path d="M190.46 94.514C190.46 94.514 173.84 101.807 159.396 98.7079C150.866 96.874 146.729 94.1728 146.729 94.1728C146.729 94.1728 146.871 86.4389 144.014 85.5432" stroke="#242D3C" stroke-width="1.2" stroke-linecap="round" stroke-linejoin="round"/>
<path d="M143.562 87.4483C143.562 87.4483 144.998 91.1588 142.723 91.1588C142.723 91.1588 135.558 88.3439 136.397 85.5432" stroke="#242D3C" stroke-width="1.2" stroke-linecap="round" stroke-linejoin="round"/>
<path d="M133.411 87.1055C133.411 87.1055 131.435 90.9866 144.002 99.6162C145.239 100.469 146.32 101.45 147.486 102.289" stroke="#242D3C" stroke-width="1.2" stroke-linecap="round" stroke-linejoin="round"/>
<path d="M215.797 87.1055C215.797 87.1055 214.461 95.3512 208.504 102.289" stroke="#242D3C" stroke-width="1.2" stroke-linecap="round" stroke-linejoin="round"/>
<path d="M284.448 121.269C272.378 109.412 257.892 102.289 214.005 102.289H115.71L136.31 32.9116" stroke="#242D3C" stroke-width="1.2" stroke-linecap="round" stroke-linejoin="round"/>
<path d="M143.403 87.5189C143.403 87.5189 140.532 77.9226 140.048 76.6004C139.565 75.2782 139.096 72.2643 136.48 73.1315C133.281 74.1836 133.764 74.3115 138.371 88.5567" stroke="#242D3C" stroke-width="1.2" stroke-linecap="round" stroke-linejoin="round"/>
<path d="M137.224 30.2967C137.224 30.2967 137.693 28.1216 135.575 28.6049C133.457 29.0883 112.53 102.006 112.53 102.006H102.208C102.208 102.006 112.771 102.006 86.9679 102.006C61.1646 102.006 44.2609 120.985 44.2609 134.776V147.755C44.2609 150.897 46.8057 153.456 49.9618 153.456H81.5087" stroke="#242D3C" stroke-width="1.2" stroke-linecap="round" stroke-linejoin="round"/>
<path d="M125.502 70.3733L133.406 102.29" stroke="#242D3C" stroke-width="1.2" stroke-linecap="round" stroke-linejoin="round"/>
<path d="M141.596 97.8967L142.776 102.29" stroke="#242D3C" stroke-width="1.2" stroke-linecap="round" stroke-linejoin="round"/>
<path d="M133.295 88.541L130.182 89.266L130.878 92.0809L134.617 91.1568" stroke="#242D3C" stroke-width="1.2" stroke-linecap="round" stroke-linejoin="round"/>
<path d="M288.443 125.789C288.443 125.789 304.125 153.455 290.164 153.455H263.735" stroke="#242D3C" stroke-width="1.2" stroke-linecap="round" stroke-linejoin="round"/>
<path d="M154.797 95.5508C154.797 95.5508 155.01 102.29 151.257 102.29" stroke="#242D3C" stroke-width="1.2" stroke-linecap="round" stroke-linejoin="round"/>
<path d="M58.1028 129.562C55.1304 126.269 56.8409 119.88 61.9234 115.293C67.0059 110.705 73.5356 109.656 76.5081 112.949C79.4805 116.242 77.77 122.631 72.6875 127.218C67.605 131.806 61.0753 132.855 58.1028 129.562Z" stroke="#242D3C" stroke-width="1.2" stroke-linecap="round" stroke-linejoin="round"/>
<path d="M58.1028 129.562C55.1304 126.269 56.8409 119.88 61.9234 115.293C67.0059 110.705 73.5356 109.656 76.5081 112.949C79.4805 116.242 77.77 122.631 72.6875 127.218C67.605 131.806 61.0753 132.855 58.1028 129.562Z" fill="white" stroke="#242D3C" stroke-width="1.2" stroke-linecap="round" stroke-linejoin="round"/>
<path d="M105.576 173.927C92.2827 173.927 81.5067 163.151 81.5067 149.858C81.5067 136.565 92.2827 125.789 105.576 125.789C118.869 125.789 129.645 136.565 129.645 149.858C129.645 163.151 118.869 173.927 105.576 173.927Z" fill="#EAEEF2" stroke="#242D3C" stroke-width="1.2" stroke-linecap="round" stroke-linejoin="round"/>
<path d="M129.645 149.858C129.645 163.15 119.863 173.927 107.793 173.927C95.7234 173.927 85.9423 163.136 85.9423 149.858C85.9423 136.579 95.7376 125.789 107.793 125.789C119.849 125.789 129.645 136.579 129.645 149.858ZM115.215 149.858C115.215 144.541 110.893 140.219 105.576 140.219C100.259 140.219 95.9366 144.541 95.9366 149.858C95.9366 155.175 100.259 159.497 105.576 159.497C110.893 159.497 115.215 155.175 115.215 149.858Z" fill="#242D3C" stroke="#242D3C" stroke-width="1.2" stroke-linecap="round" stroke-linejoin="round"/>
<path d="M105.576 173.927C92.2827 173.927 81.5067 163.151 81.5067 149.858C81.5067 136.565 92.2827 125.789 105.576 125.789C118.869 125.789 129.645 136.565 129.645 149.858C129.645 163.151 118.869 173.927 105.576 173.927Z" stroke="#242D3C" stroke-width="1.2" stroke-linecap="round" stroke-linejoin="round"/>
<path d="M242.735 173.927C229.442 173.927 218.666 163.151 218.666 149.858C218.666 136.565 229.442 125.789 242.735 125.789C256.028 125.789 266.804 136.565 266.804 149.858C266.804 163.151 256.028 173.927 242.735 173.927Z" fill="#EAEEF2" stroke="#242D3C" stroke-width="1.2" stroke-linecap="round" stroke-linejoin="round"/>
<path d="M266.818 149.858C266.818 163.15 257.037 173.927 244.966 173.927C232.896 173.927 223.115 163.136 223.115 149.858C223.115 136.579 232.911 125.789 244.966 125.789C257.022 125.789 266.818 136.579 266.818 149.858ZM252.388 149.858C252.388 144.541 248.066 140.219 242.749 140.219C237.432 140.219 233.11 144.541 233.11 149.858C233.11 155.175 237.432 159.497 242.749 159.497C248.066 159.497 252.388 155.175 252.388 149.858Z" fill="#242D3C" stroke="#242D3C" stroke-width="1.2" stroke-linecap="round" stroke-linejoin="round"/>
<path d="M242.735 173.927C229.442 173.927 218.666 163.151 218.666 149.858C218.666 136.565 229.442 125.789 242.735 125.789C256.028 125.789 266.804 136.565 266.804 149.858C266.804 163.151 256.028 173.927 242.735 173.927Z" stroke="#242D3C" stroke-width="1.2" stroke-linecap="round" stroke-linejoin="round"/>
<path d="M130.184 153.454H215.797" stroke="#242D3C" stroke-width="1.2" stroke-linecap="round" stroke-linejoin="round"/>
<path d="M68.0373 111.659C68.0373 111.659 66.9569 114.587 69.6012 115.056C72.2455 115.526 74.6481 114.943 74.7761 117.132C74.904 119.321 71.498 130.475 66.2635 131.137C59.411 132.004 58.4552 130.581 57.3606 128.505C54.5413 122.274 60.4775 116.782 61.4158 115.858C62.332 114.025 68.0515 111.673 68.0515 111.673L68.0373 111.659Z" fill="#242D3C"/>
<path d="M290.471 148.168H270.696" stroke="#242D3C" stroke-width="0.6" stroke-linecap="round" stroke-linejoin="round"/>
<path d="M81.5066 148.168H50.642" stroke="#242D3C" stroke-width="0.6" stroke-linecap="round" stroke-linejoin="round"/>
<path d="M217.83 148.168H129.644" stroke="#242D3C" stroke-width="0.6" stroke-linecap="round" stroke-linejoin="round"/>
<path d="M160.364 21.4115C160.35 32.4295 170.87 35.0311 177.907 35.0311C186.125 35.0311 188.229 24.7666 188.229 24.7666C188.229 24.7666 199.63 22.1792 200.427 29.9557C201.208 37.7181 202.502 37.9882 204.592 37.9882C206.682 37.9882 208.644 32.4152 212.425 32.4152C214.487 32.4152 216.193 35.8699 215.127 38.9976C215.752 38.8554 230.765 35.4576 227.836 23.7573C225.022 12.4834 213.463 15.4689 213.463 15.4689C213.463 15.4689 211.7 5.47453 202.061 4.06707C190.446 2.37528 188.115 12.8672 188.115 12.8672C173.898 6.00055 160.378 10.5073 160.364 21.3973V21.4115Z" fill="#242D3C" stroke="#242D3C" stroke-width="1.2" stroke-linecap="round" stroke-linejoin="round"/>
<path d="M198.477 75.4491C198.477 75.4491 194.297 75.7334 186.208 92.5092C186.208 92.5092 167.811 101.11 148.334 92.5092" stroke="#242D3C" stroke-width="1.2" stroke-linecap="round" stroke-linejoin="round"/>
<path d="M142.411 102.137L141.781 97.732L147.445 102.137H142.411Z" fill="#242D3C"/>
<path d="M58.0828 132.396C60.3901 134.074 67.5219 135.542 75.0731 127.991" stroke="#242D3C" stroke-width="0.6" stroke-linecap="round"/>
<path d="M64.9998 90.0001L66.2583 95.6635" stroke="#242D3C" stroke-width="1.2" stroke-linecap="round"/>
<path d="M52.4155 95.2151L55.9995 100" stroke="#242D3C" stroke-width="1.2" stroke-linecap="round"/>
<path d="M43.6099 102.766L49.2733 107.171" stroke="#242D3C" stroke-width="1.2" stroke-linecap="round"/>
<path d="M38.574 114.093L44.2374 115.981" stroke="#242D3C" stroke-width="1.2" stroke-linecap="round"/>
<path d="M132.96 102.038L125.167 70.0447L115.34 102.767L132.96 102.038Z" fill="#242D3C"/>
<path d="M133.589 88.2935L129.185 89.5521L130.443 92.0692L133.589 91.4399L134.219 90.8106L133.589 88.2935Z" fill="#242D3C"/>
<path d="M134.224 75.7091L138.629 88.9238L141.776 90.8117L143.663 91.4409L144.293 89.5531L139.888 75.7091L138.629 73.8213L137.371 72.5627L134.854 73.8213L134.224 75.7091Z" fill="#242D3C"/>
<mask id="mask0_211_13" style="mask-type:alpha" maskUnits="userSpaceOnUse" x="0" y="129" width="232" height="46">
<rect y="129.806" width="231.58" height="44.9481" fill="#D9D9D9"/>
</mask>
<g mask="url(#mask0_211_13)">
<path d="M165.866 177.957C165.866 177.957 132.769 152.744 147.132 142.265C161.496 131.786 170.147 175.695 170.147 175.695" fill="#EAEEF2"/>
<path d="M165.866 177.957C165.866 177.957 132.769 152.744 147.132 142.265C161.496 131.786 170.147 175.695 170.147 175.695" stroke="#242D3C" stroke-width="1.2" stroke-linecap="round" stroke-linejoin="round"/>
<path d="M176.623 177.088C176.623 177.088 156.956 134.853 173.939 131.441C190.897 128.042 180.764 175.452 180.764 175.452" fill="#EAEEF2"/>
<path d="M176.623 177.088C176.623 177.088 156.956 134.853 173.939 131.441C190.897 128.042 180.764 175.452 180.764 175.452" stroke="#242D3C" stroke-width="1.2" stroke-linecap="round" stroke-linejoin="round"/>
<path d="M183.77 176.422C183.77 176.422 187.578 125.216 205.762 131.082C223.909 136.935 188.651 177.087 188.651 177.087" fill="#EAEEF2"/>
<path d="M183.77 176.422C183.77 176.422 187.578 125.216 205.762 131.082C223.909 136.935 188.651 177.087 188.651 177.087" stroke="#242D3C" stroke-width="1.2" stroke-linecap="round" stroke-linejoin="round"/>
<path d="M153.048 153.127C153.048 153.127 164.153 167.785 168.268 177.088L153.048 153.127Z" fill="white"/>
<path d="M153.048 153.127C153.048 153.127 164.153 167.785 168.268 177.088" stroke="#242D3C" stroke-width="0.6" stroke-linecap="round" stroke-linejoin="round"/>
<path d="M52.3869 177.521C52.3869 177.521 39.9656 145.586 54.5593 144.397C69.153 143.209 56.3739 177.776 56.3739 177.776" fill="#EAEEF2"/>
<path d="M52.3869 177.521C52.3869 177.521 39.9656 145.586 54.5593 144.397C69.153 143.209 56.3739 177.776 56.3739 177.776" stroke="#242D3C" stroke-width="1.2" stroke-linecap="round" stroke-linejoin="round"/>
<path d="M54.0608 154.585C54.0608 154.585 55.5559 169.652 54.4569 177.958L54.0608 154.585Z" fill="white"/>
<path d="M54.0608 154.585C54.0608 154.585 55.5559 169.652 54.4569 177.958" stroke="#242D3C" stroke-width="0.6" stroke-linecap="round" stroke-linejoin="round"/>
<path d="M43.1721 177.955C43.1721 177.955 10.087 152.742 24.4507 142.251C38.8144 131.759 47.4659 175.681 47.4659 175.681" fill="#EAEEF2"/>
<path d="M43.1721 177.955C43.1721 177.955 10.087 152.742 24.4507 142.251C38.8144 131.759 47.4659 175.681 47.4659 175.681" stroke="#242D3C" stroke-width="1.2" stroke-linecap="round" stroke-linejoin="round"/>
<path d="M30.3696 153.127C30.3696 153.127 41.4747 167.785 45.5895 177.088L30.3696 153.127Z" fill="white"/>
<path d="M30.3696 153.127C30.3696 153.127 41.4747 167.785 45.5895 177.088" stroke="#242D3C" stroke-width="0.6" stroke-linecap="round" stroke-linejoin="round"/>
<path d="M174.934 143.145C174.934 143.145 178.87 174.48 178.973 177.087L174.934 143.145Z" fill="white"/>
<path d="M174.934 143.145C174.934 143.145 178.87 174.48 178.973 177.087" stroke="#242D3C" stroke-width="0.6" stroke-linecap="round" stroke-linejoin="round"/>
<path d="M198.417 143.145C198.417 143.145 186.941 166.199 185.663 177.087" stroke="#242D3C" stroke-width="0.6" stroke-linecap="round" stroke-linejoin="round"/>
</g>
</svg>
