<svg width="100" height="24" viewBox="0 0 100 24" fill="none" xmlns="http://www.w3.org/2000/svg">
<path d="M25.248 17.264C26.112 16.608 26.88 15.872 27.568 15.04C28.16 14.32 28.688 13.552 29.12 12.72L29.216 12.896C30.24 14.512 31.664 16 33.104 16.928L34.4 15.36C32.4 14.224 30.928 12.64 30.016 10.608C30.16 10.144 30.288 9.68 30.4 9.184C30.544 8.576 30.64 7.952 30.704 7.296H33.936V5.472H24.768V7.296H28.512C28.464 7.792 28.384 8.288 28.288 8.768C27.712 11.728 26.256 14.176 23.808 15.776L25.248 17.264ZM37.04 19.232V11.856H39.072V10H37.04V4.896H34.896V19.232H37.04ZM52.3254 8.4H43.3014V6.88H52.1654V5.12H41.1574V10.176H45.6534V11.168H39.6214V12.928H53.7014V11.168H47.8294V10.176H52.3254V8.4ZM46.7254 13.408C43.9254 13.408 41.9414 14.704 41.9414 16.688C41.9414 18.672 43.9254 19.968 46.7254 19.968C49.5254 19.968 51.5094 18.672 51.5094 16.688C51.5094 14.704 49.5254 13.408 46.7254 13.408ZM46.7254 18.24C44.9974 18.24 44.0854 17.632 44.0854 16.688C44.0854 15.744 44.9974 15.136 46.7254 15.136C48.4534 15.136 49.3654 15.744 49.3654 16.688C49.3654 17.632 48.4534 18.24 46.7254 18.24ZM55.5628 17.424C57.0828 16.48 58.4588 15.248 59.4348 13.696L59.4668 13.648C59.8028 14.144 60.1708 14.624 60.5868 15.056C61.4188 15.936 62.3948 16.64 63.3548 17.088L64.6188 15.488C63.4828 14.992 62.5388 14.368 61.7548 13.6C61.2268 13.072 60.7628 12.448 60.3948 11.728C60.4748 11.52 60.5388 11.328 60.5868 11.12C60.7308 10.64 60.8428 10.144 60.9068 9.616H64.0428V7.792H55.2108V9.616H58.7148C58.6668 9.952 58.5868 10.288 58.5068 10.592C57.8668 12.944 56.3628 14.656 54.1547 15.904L55.5628 17.424ZM67.2588 19.232V12.176H69.2908V10.32H67.2588V4.896H65.1148V19.232H67.2588ZM62.2348 6.688V4.864H57.0988V6.688H62.2348ZM82.7041 12.912V9.968H84.4001V8.144H82.7041V4.896H80.5601V12.912H82.7041ZM82.9921 19.136V17.552H74.0001V16.96H82.6721V13.392H71.8561V14.96H80.5281V15.52H71.8561V19.136H82.9921ZM77.5841 6.128V4.56H71.9841V6.128H77.5841ZM79.6641 8.08V6.512H69.9041V8.08H79.6641ZM74.9121 8.368C72.4001 8.368 70.8481 9.28 70.8481 10.64C70.8481 12 72.4001 12.912 74.9121 12.912C77.4241 12.912 78.9761 12 78.9761 10.64C78.9761 9.28 77.4241 8.368 74.9121 8.368ZM74.9121 11.408C73.5841 11.408 72.9601 11.136 72.9601 10.64C72.9601 10.144 73.5841 9.872 74.9121 9.872C76.2401 9.872 76.8641 10.144 76.8641 10.64C76.8641 11.136 76.2401 11.408 74.9121 11.408ZM95.3495 5.152V6.864H88.6295V5.152H86.4855V12H97.4935V5.152H95.3495ZM93.0775 19.232V14.976H99.0295V13.152H84.9495V14.976H90.9015V19.232H93.0775ZM88.6295 10.16V8.656H95.3495V10.16H88.6295Z" fill="#242D3C"/>
<path d="M7 18L1 12L7 6" stroke="#242D3C" stroke-width="1.5" stroke-linecap="round" stroke-linejoin="round"/>
</svg>
