<svg width="96" height="17" viewBox="0 0 96 17" fill="none" xmlns="http://www.w3.org/2000/svg">
<path d="M10.53 3.462V1.986H6.66V0.114H4.806V1.986H0.936V3.462H10.53ZM15.912 5.316H13.608V0.131999H11.754V12.318H13.608V6.846H15.912V5.316ZM9.666 7.296C9.666 6.84 9.57 6.426 9.378 6.054C9.186 5.67 8.916 5.346 8.568 5.082C8.22 4.806 7.806 4.596 7.326 4.452C6.846 4.296 6.312 4.218 5.724 4.218C5.148 4.218 4.614 4.296 4.122 4.452C3.642 4.596 3.228 4.806 2.88 5.082C2.532 5.346 2.262 5.67 2.07 6.054C1.878 6.426 1.782 6.84 1.782 7.296C1.782 7.764 1.878 8.19 2.07 8.574C2.262 8.946 2.532 9.27 2.88 9.546C3.228 9.81 3.642 10.014 4.122 10.158C4.614 10.302 5.148 10.374 5.724 10.374C6.312 10.374 6.846 10.302 7.326 10.158C7.806 10.014 8.22 9.81 8.568 9.546C8.916 9.27 9.186 8.946 9.378 8.574C9.57 8.19 9.666 7.764 9.666 7.296ZM3.564 7.296C3.564 6.78 3.762 6.378 4.158 6.09C4.554 5.802 5.076 5.658 5.724 5.658C6.372 5.658 6.894 5.802 7.29 6.09C7.698 6.378 7.902 6.78 7.902 7.296C7.902 7.812 7.698 8.214 7.29 8.502C6.894 8.79 6.372 8.934 5.724 8.934C5.076 8.934 4.554 8.79 4.158 8.502C3.762 8.214 3.564 7.812 3.564 7.296ZM5.184 14.568V11.382H3.312V16.08H14.256V14.568H5.184ZM31.3006 12.912H24.8386V9.078H29.6446V7.584H20.2306V2.85H29.5006V1.356H18.3766V9.078H22.9846V12.912H16.5766V14.442H31.3006V12.912ZM35.9906 8.232L36.7646 9.708C38.0966 9.444 39.2846 8.952 40.3286 8.232C41.3726 7.512 42.1646 6.624 42.7046 5.568C43.2446 6.624 44.0366 7.506 45.0806 8.214C46.1366 8.91 47.3546 9.39 48.7346 9.654L49.4906 8.178C48.6866 8.046 47.9306 7.824 47.2226 7.512C46.5146 7.188 45.8966 6.798 45.3686 6.342C44.8526 5.874 44.4386 5.358 44.1266 4.794C43.8266 4.23 43.6766 3.642 43.6766 3.03V2.994H48.8426V1.5H36.5666V2.994H41.7326V3.03C41.7326 3.642 41.5826 4.236 41.2826 4.812C40.9826 5.376 40.5686 5.892 40.0406 6.36C39.5246 6.828 38.9186 7.224 38.2226 7.548C37.5266 7.872 36.7826 8.1 35.9906 8.232ZM50.0846 12.876H43.6586V9.078H41.7866V12.876H35.3606V14.388H50.0846V12.876ZM64.3932 0.114H62.5212V16.386H64.3932V0.114ZM61.2612 3.516V2.022H57.2832V0.149999H55.4292V2.022H51.4332V3.516H61.2612ZM57.2832 11.832V10.302C58.2192 10.158 58.9572 9.828 59.4972 9.312C60.0492 8.784 60.3252 8.124 60.3252 7.332C60.3252 6.876 60.2292 6.462 60.0372 6.09C59.8452 5.718 59.5752 5.4 59.2272 5.136C58.8792 4.872 58.4592 4.668 57.9672 4.524C57.4872 4.38 56.9532 4.308 56.3652 4.308C55.7772 4.308 55.2372 4.38 54.7452 4.524C54.2652 4.668 53.8452 4.872 53.4852 5.136C53.1372 5.4 52.8672 5.718 52.6752 6.09C52.4832 6.462 52.3872 6.876 52.3872 7.332C52.3872 8.124 52.6572 8.784 53.1972 9.312C53.7492 9.828 54.4932 10.158 55.4292 10.302V11.886C54.6612 11.91 53.9112 11.928 53.1792 11.94C52.4472 11.94 51.7572 11.94 51.1092 11.94L51.3432 13.47C52.0872 13.47 52.8732 13.464 53.7012 13.452C54.5412 13.44 55.4052 13.41 56.2932 13.362C57.1932 13.314 58.0992 13.248 59.0112 13.164C59.9232 13.08 60.8292 12.96 61.7292 12.804L61.6032 11.454C60.9072 11.55 60.1932 11.628 59.4612 11.688C58.7412 11.736 58.0152 11.784 57.2832 11.832ZM54.1512 7.332C54.1512 6.828 54.3552 6.438 54.7632 6.162C55.1712 5.874 55.7052 5.73 56.3652 5.73C57.0132 5.73 57.5412 5.874 57.9492 6.162C58.3572 6.438 58.5612 6.828 58.5612 7.332C58.5612 7.836 58.3572 8.232 57.9492 8.52C57.5412 8.808 57.0132 8.952 56.3652 8.952C55.7052 8.952 55.1712 8.808 54.7632 8.52C54.3552 8.232 54.1512 7.836 54.1512 7.332ZM81.7978 8.214V6.666H79.2958V0.131999H77.4238V16.404H79.2958V8.214H81.7978ZM72.3118 2.634V0.366H70.4578V2.634H66.5878V4.146H76.1098V2.634H72.3118ZM71.4118 5.298C70.8238 5.298 70.2838 5.394 69.7918 5.586C69.2998 5.766 68.8738 6.024 68.5138 6.36C68.1538 6.696 67.8718 7.098 67.6678 7.566C67.4758 8.022 67.3798 8.532 67.3798 9.096C67.3798 9.648 67.4758 10.158 67.6678 10.626C67.8718 11.094 68.1538 11.496 68.5138 11.832C68.8738 12.168 69.2998 12.432 69.7918 12.624C70.2838 12.804 70.8238 12.894 71.4118 12.894C71.9878 12.894 72.5218 12.804 73.0138 12.624C73.5058 12.432 73.9318 12.168 74.2918 11.832C74.6518 11.496 74.9338 11.094 75.1378 10.626C75.3418 10.158 75.4438 9.648 75.4438 9.096C75.4438 8.532 75.3418 8.022 75.1378 7.566C74.9338 7.098 74.6518 6.696 74.2918 6.36C73.9318 6.024 73.5058 5.766 73.0138 5.586C72.5218 5.394 71.9878 5.298 71.4118 5.298ZM71.4118 11.364C70.7518 11.364 70.2058 11.16 69.7738 10.752C69.3538 10.332 69.1438 9.78 69.1438 9.096C69.1438 8.412 69.3538 7.866 69.7738 7.458C70.2058 7.038 70.7518 6.828 71.4118 6.828C72.0718 6.828 72.6118 7.038 73.0318 7.458C73.4638 7.866 73.6798 8.412 73.6798 9.096C73.6798 9.78 73.4638 10.332 73.0318 10.752C72.6118 11.16 72.0718 11.364 71.4118 11.364ZM95.7464 0.131999H93.8924V16.386H95.7464V0.131999ZM90.9584 1.842H83.2544V3.354H89.0504C88.8944 5.226 88.2884 6.882 87.2324 8.322C86.1764 9.75 84.5804 10.98 82.4444 12.012L83.4344 13.488C84.8264 12.816 86.0024 12.06 86.9624 11.22C87.9224 10.368 88.6964 9.45 89.2844 8.466C89.8844 7.482 90.3104 6.438 90.5624 5.334C90.8264 4.218 90.9584 3.054 90.9584 1.842Z" fill="white"/>
</svg>
