<svg width="254" height="35" viewBox="0 0 254 35" fill="none" xmlns="http://www.w3.org/2000/svg">
<path d="M5.89722 6.484C8.51522 6.484 10.2932 5.406 10.2932 3.726C10.2932 2.06 8.51522 0.981999 5.89722 0.981999C3.27922 0.981999 1.51522 2.06 1.51522 3.726C1.51522 5.406 3.27922 6.484 5.89722 6.484ZM5.89722 1.906C7.81522 1.906 9.11722 2.606 9.11722 3.726C9.11722 4.846 7.81522 5.56 5.89722 5.56C3.99322 5.56 2.69122 4.846 2.69122 3.726C2.69122 2.606 3.99322 1.906 5.89722 1.906ZM6.47122 8.626H11.6092V7.674H0.241222V8.626H5.32322V13.05H6.47122V8.626ZM22.7521 6.19L23.2281 5.266C20.9461 4.93 18.7061 3.376 18.7061 1.626V0.926H17.5021V1.626C17.5021 3.432 15.3041 4.93 13.0081 5.266L13.4701 6.19C15.4161 5.854 17.3201 4.776 18.1041 3.25C18.9301 4.776 20.7921 5.854 22.7521 6.19ZM18.6501 8.5H23.7881L23.7741 7.548H12.4341V8.5H17.5021V13.05H18.6501V8.5ZM25.803 2.676H33.461V2.984C33.461 4.482 33.475 6.274 32.985 8.668L34.133 8.794C34.623 6.26 34.609 4.552 34.609 2.984V1.738H25.803V2.676ZM35.967 11.272V10.334H30.171V5.84H29.023V10.334H24.613V11.272H35.967ZM47.3759 7.87V0.492H46.2699V3.642H44.6179V0.715999H43.5259V7.814H44.6179V4.58H46.2699V7.87H47.3759ZM42.2379 1.416H37.3379V2.34H41.0619C40.8519 4.426 39.4659 6.106 36.8479 7.17L37.4079 8.01C40.6279 6.652 42.2379 4.454 42.2379 1.416ZM47.3759 8.472H38.9339V9.41H46.2279V13.036H47.3759V8.472ZM59.2468 7.59V0.463999H58.0988V7.59H59.2468ZM56.8948 6.064L56.7408 5.112C54.7668 5.518 52.9468 5.672 50.8748 5.672V1.206H49.7268V6.638H50.7488C52.9188 6.638 54.8088 6.47 56.8948 6.064ZM59.2468 8.192H51.1268V12.854H59.2468V8.192ZM58.1268 11.93H52.2468V9.102H58.1268V11.93ZM66.8058 5.042C69.5638 5.042 71.2158 4.286 71.2158 2.872C71.2158 1.458 69.5638 0.688 66.8058 0.688C64.0478 0.688 62.3958 1.458 62.3958 2.872C62.3958 4.286 64.0478 5.042 66.8058 5.042ZM66.8058 1.556C68.8918 1.556 70.0398 2.032 70.0398 2.872C70.0398 3.712 68.8918 4.188 66.8058 4.188C64.7198 4.188 63.5718 3.712 63.5718 2.872C63.5718 2.032 64.7198 1.556 66.8058 1.556ZM72.4898 6.82V5.896H61.1218V6.82H72.4898ZM71.4118 12H63.6558V10.726H71.0338V7.898H62.4938V8.766H69.8998V9.886H62.5358V12.896H71.4118V12ZM86.0495 13.05V0.492H84.9015V13.05H86.0495ZM79.8615 6.232C81.7235 6.232 83.0535 5.182 83.0535 3.656C83.0535 2.13 81.7235 1.066 79.8615 1.066C77.9995 1.066 76.6555 2.13 76.6555 3.656C76.6555 5.182 77.9995 6.232 79.8615 6.232ZM79.8615 2.018C81.0935 2.018 81.9475 2.648 81.9475 3.656C81.9475 4.664 81.0935 5.294 79.8615 5.294C78.6295 5.294 77.7615 4.622 77.7615 3.656C77.7615 2.69 78.6295 2.018 79.8615 2.018ZM84.0895 7.702L83.9915 6.848C81.2335 7.254 78.0695 7.296 75.7175 7.296L75.8715 8.262C76.9355 8.262 78.0975 8.248 79.3435 8.192V12.644H80.4915V8.122C81.7095 8.052 82.8995 7.912 84.0895 7.702ZM87.9664 2.942H95.3724V2.018H92.2364V0.492H91.0884V2.018H87.9664V2.942ZM99.5304 5.588V4.622H97.6684V0.492H96.5204V9.9H97.6684V5.588H99.5304ZM94.6724 5.966C94.6724 4.566 93.4544 3.642 91.6624 3.642C89.8844 3.642 88.6664 4.566 88.6664 5.966C88.6664 7.38 89.8844 8.304 91.6624 8.304C93.4544 8.304 94.6724 7.38 94.6724 5.966ZM89.7584 5.966C89.7584 5.07 90.4864 4.538 91.6624 4.538C92.7964 4.538 93.5804 5.07 93.5804 5.966C93.5804 6.862 92.7964 7.408 91.6624 7.408C90.4864 7.408 89.7584 6.862 89.7584 5.966ZM98.2284 11.818H91.0044V9.158H89.8564V12.756H98.2284V11.818ZM113.202 13.036V0.478H112.096V5.518H110.318V0.758H109.24V12.406H110.318V6.456H112.096V13.036H113.202ZM104.116 8.99V2.942H107.658V2.004H102.982V9.942H103.808C105.67 9.942 106.972 9.9 108.456 9.564L108.358 8.612C107 8.906 105.782 8.99 104.116 8.99ZM115.315 4.622L115.651 5.49C117.779 5.336 119.613 4.678 120.397 3.516C121.181 4.678 123.015 5.336 125.115 5.49L125.465 4.622C123.127 4.468 121.223 3.684 121.041 2.452H124.905V1.584H120.971V0.393999H119.823V1.584H115.875V2.452H119.753C119.571 3.684 117.625 4.468 115.315 4.622ZM120.971 8.094V6.932H126.053V6.05H114.727V6.932H119.809V8.094H116.071V8.948H123.477V10.012H116.113V12.896H124.989V12.028H117.233V10.838H124.611V8.094H120.971ZM137.196 7.632V0.492H136.048V7.632H137.196ZM133.92 7.072L134.494 6.162C132.646 5.56 131.316 4.006 131.316 2.2V0.981999H130.168V2.2C130.168 4.034 128.88 5.742 126.976 6.414L127.564 7.31C129.076 6.764 130.21 5.602 130.756 4.146C131.33 5.504 132.464 6.568 133.92 7.072ZM137.196 8.346H129.076V12.868H137.196V8.346ZM136.076 11.944H130.196V9.256H136.076V11.944ZM148.731 6.526H150.803V5.574H148.731V0.492H147.583V13.036H148.731V6.526ZM143.285 3.824V1.57H142.151V3.824C142.151 6.106 140.723 8.5 138.917 9.438L139.603 10.362C141.017 9.578 142.179 8.066 142.725 6.204C143.285 7.94 144.419 9.396 145.763 10.11L146.477 9.2C144.727 8.304 143.285 6.022 143.285 3.824ZM162.823 7.688H163.971V0.478H162.823V7.688ZM154.339 6.428H160.205V1.29H154.339V6.428ZM155.459 2.2H159.085V5.504H155.459V2.2ZM160.583 9.424H164.265V8.542H160.583V7.324H159.421V8.542H155.739V9.424H159.407C159.407 10.684 157.377 11.846 155.249 12.112L155.627 12.994C157.517 12.728 159.267 11.888 160.009 10.698C160.751 11.86 162.417 12.728 164.321 12.994L164.713 12.112C162.557 11.846 160.583 10.6 160.583 9.424ZM178.622 7.296V0.492H177.474V3.53H174.996V4.468H177.474V7.296H178.622ZM175.122 7.226L175.696 6.316C173.876 5.686 172.644 4.09 172.644 2.494V2.172H175.402V1.234H168.696V2.172H171.496V2.494C171.496 4.3 170.194 5.938 168.332 6.61L168.934 7.52C170.404 6.96 171.538 5.84 172.084 4.384C172.644 5.672 173.722 6.708 175.122 7.226ZM178.622 7.912H177.488V9.452H171.72V7.912H170.586V12.868H178.622V7.912ZM171.72 10.348H177.488V11.93H171.72V10.348ZM190.801 6.19L191.277 5.266C188.995 4.93 186.755 3.376 186.755 1.626V0.926H185.551V1.626C185.551 3.432 183.353 4.93 181.057 5.266L181.519 6.19C183.465 5.854 185.369 4.776 186.153 3.25C186.979 4.776 188.841 5.854 190.801 6.19ZM186.699 8.5H191.837L191.823 7.548H180.483V8.5H185.551V13.05H186.699V8.5ZM202.322 6.778H204.282V5.812H202.322V0.478H201.174V13.036H202.322V6.778ZM192.718 2.914H200.222V2.004H197.058V0.492H195.91V2.004H192.718V2.914ZM197.058 9.606V8.276C198.514 8.094 199.452 7.226 199.452 5.98C199.452 4.566 198.234 3.656 196.484 3.656C194.734 3.656 193.516 4.566 193.516 5.98C193.516 7.226 194.454 8.094 195.91 8.276V9.648C194.678 9.69 193.516 9.69 192.508 9.69L192.662 10.656C194.874 10.656 197.8 10.642 200.502 10.152L200.432 9.298C199.354 9.466 198.192 9.55 197.058 9.606ZM194.608 5.98C194.608 5.084 195.364 4.538 196.484 4.538C197.604 4.538 198.36 5.084 198.36 5.98C198.36 6.876 197.604 7.408 196.484 7.408C195.364 7.408 194.608 6.876 194.608 5.98ZM205.401 7.436H211.127V6.316H214.011V9.648H215.173V0.492H214.011V2.69H211.127V1.584H205.401V7.436ZM206.535 2.494H210.007V6.526H206.535V2.494ZM211.127 5.378V3.628H214.011V5.378H211.127ZM215.467 12.756V11.818H208.243V8.836H207.095V12.756H215.467ZM227.31 7.226V0.492H226.162V7.226H227.31ZM220.562 1.08C218.672 1.08 217.3 2.242 217.3 3.964C217.3 5.7 218.672 6.862 220.562 6.862C222.466 6.862 223.852 5.7 223.852 3.964C223.852 2.242 222.466 1.08 220.562 1.08ZM220.562 2.032C221.836 2.032 222.732 2.83 222.732 3.964C222.732 5.14 221.85 5.91 220.562 5.91C219.316 5.91 218.42 5.126 218.42 3.964C218.42 2.83 219.316 2.032 220.562 2.032ZM220.352 9.382V7.842H219.218V12.868H227.31V7.842H226.176V9.382H220.352ZM226.176 11.944H220.352V10.278H226.176V11.944ZM239.475 13.022V0.478H238.327V13.022H239.475ZM231.117 8.808V1.696H229.969V9.788H231.005C233.021 9.788 234.967 9.648 237.165 9.2L237.039 8.22C234.953 8.654 233.035 8.808 231.117 8.808ZM251.024 6.386H253.096V5.434H251.024V0.478H249.876V13.064H251.024V6.386ZM243.044 8.948V2.634H247.734V1.682H241.896V9.928H242.89C245.242 9.928 246.922 9.858 248.826 9.48L248.7 8.528C246.894 8.864 245.284 8.948 243.044 8.948ZM26.2803 27.064H34.7643V22.178H26.2803V27.064ZM27.4003 23.102H33.6303V26.154H27.4003V23.102ZM31.0683 29.71H36.2203V28.772H24.8243V29.71H29.9203V34.022H31.0683V29.71ZM47.3632 34.05V21.478H46.2152V25.734H43.3032V26.672H46.2152V34.05H47.3632ZM41.4132 24.81V22.556H40.2652V24.81C40.2652 27.12 38.8372 29.57 37.0172 30.466L37.7172 31.376C39.1312 30.634 40.2792 29.038 40.8392 27.176C41.4132 28.926 42.5892 30.438 43.9892 31.152L44.6612 30.242C42.8412 29.388 41.4132 27.078 41.4132 24.81ZM50.5401 22.892H58.0441V24.334H50.5821V27.666H59.4861V26.742H51.7301V25.202H59.2061V21.968H50.5401V22.892ZM57.6101 29.892H60.5781V28.968H49.1821V29.892H52.1501V34.05H53.2981V29.892H56.4621V34.05H57.6101V29.892ZM62.691 31.222H61.417L60.913 34.05H61.837L62.691 31.222ZM77.3642 25.692V24.74H75.5162V21.478H74.3542V28.954H75.5162V25.692H77.3642ZM73.1642 27.512L73.0382 26.574C71.3862 26.91 69.9442 27.008 67.4522 27.008V23.368H71.8622V22.444H66.3182V27.946H67.2982C69.9442 27.946 71.4562 27.848 73.1642 27.512ZM71.5122 29.206C68.9642 29.206 67.3682 30.102 67.3682 31.614C67.3682 33.126 68.9642 34.022 71.5122 34.022C74.0462 34.022 75.6422 33.126 75.6422 31.614C75.6422 30.102 74.0462 29.206 71.5122 29.206ZM71.5122 33.098C69.6502 33.098 68.5022 32.566 68.5022 31.614C68.5022 30.662 69.6502 30.13 71.5122 30.13C73.3742 30.13 74.5082 30.662 74.5082 31.614C74.5082 32.566 73.3742 33.098 71.5122 33.098ZM87.0931 27.918H88.2411V21.478H87.0931V27.918ZM84.7131 24.726C84.7131 23.06 83.3271 21.926 81.4651 21.926C79.6031 21.926 78.2311 23.06 78.2311 24.726C78.2311 26.364 79.6031 27.498 81.4651 27.498C83.3271 27.498 84.7131 26.364 84.7131 24.726ZM79.3371 24.726C79.3371 23.648 80.2471 22.864 81.4651 22.864C82.6971 22.864 83.5931 23.648 83.5931 24.726C83.5931 25.79 82.6971 26.574 81.4651 26.574C80.2471 26.574 79.3371 25.79 79.3371 24.726ZM88.6611 33.868V32.958H81.2691V31.572H88.2411V28.534H80.1071V29.444H87.1071V30.718H80.1351V33.868H88.6611ZM100.35 26.518L100.784 25.608C98.544 25.314 96.374 23.9 96.374 22.234V21.674H95.198V22.234C95.198 23.9 93.042 25.314 90.802 25.608L91.236 26.518C93.154 26.182 95.002 25.216 95.786 23.774C96.57 25.216 98.446 26.182 100.35 26.518ZM101.47 28.632V27.708H96.36V25.86H95.212V27.708H90.116V28.632H101.47ZM95.786 29.682C93.098 29.682 91.488 30.452 91.488 31.852C91.488 33.252 93.098 34.022 95.786 34.022C98.474 34.022 100.084 33.252 100.084 31.852C100.084 30.452 98.474 29.682 95.786 29.682ZM95.786 33.14C93.756 33.14 92.65 32.692 92.65 31.852C92.65 31.012 93.756 30.564 95.786 30.564C97.816 30.564 98.922 31.012 98.922 31.852C98.922 32.692 97.816 33.14 95.786 33.14ZM113.691 27.694V26.77H111.885C112.221 25.188 112.221 24.068 112.221 23.074V22.15H103.737V23.074H111.087C111.087 24.068 111.073 25.202 110.723 26.77H102.281V27.694H113.691ZM112.263 29.402H103.695V33.868H112.263V29.402ZM111.129 32.944H104.815V30.326H111.129V32.944ZM124.344 27.61H126.206V26.658H124.344V21.478H123.196V34.036H124.344V27.61ZM118.24 22.836H114.838V23.788H117.148C117.022 26.35 116.294 28.604 114.432 30.564L115.328 31.208C117.61 28.814 118.24 25.846 118.24 22.836ZM121.67 22.836H118.66V23.788H120.592C120.48 26.462 119.976 29.192 118.002 31.418L118.926 32.048C121.236 29.318 121.67 25.86 121.67 22.836ZM136.929 34.036V21.492H135.781V34.036H136.929ZM131.133 25.314V23.718H134.087V22.766H127.073V23.718H129.985V25.314C129.985 27.484 128.459 29.836 126.653 30.704L127.325 31.628C128.725 30.928 129.999 29.304 130.559 27.484C131.161 29.206 132.393 30.648 133.849 31.32L134.493 30.396C132.645 29.612 131.133 27.442 131.133 25.314ZM150.419 30.676H151.567V21.492H150.419V30.676ZM148.375 28.884L148.935 27.974C147.087 27.372 145.785 25.818 145.785 24.138V23.452H148.627V22.528H141.739V23.452H144.609V24.138C144.609 25.944 143.335 27.554 141.431 28.226L142.033 29.122C143.545 28.576 144.665 27.484 145.211 26.028C145.785 27.372 146.919 28.38 148.375 28.884ZM151.945 33.756V32.818H144.637V29.808H143.489V33.756H151.945ZM160.245 28.982H161.337V25.832H162.933V29.43H164.039V21.478H162.933V24.894H161.337V21.73H160.245V28.982ZM153.371 23.886H159.755V22.976H157.137V21.576H156.003V22.976H153.371V23.886ZM159.251 26.686C159.251 25.398 158.159 24.544 156.577 24.544C154.995 24.544 153.889 25.398 153.889 26.686C153.889 27.988 154.995 28.842 156.577 28.842C158.159 28.842 159.251 27.988 159.251 26.686ZM154.925 26.686C154.925 25.902 155.569 25.398 156.577 25.398C157.585 25.398 158.229 25.902 158.229 26.686C158.229 27.47 157.585 27.988 156.577 27.988C155.569 27.988 154.925 27.47 154.925 26.686ZM159.909 29.64C157.291 29.64 155.709 30.438 155.709 31.838C155.709 33.238 157.291 34.022 159.909 34.022C162.527 34.022 164.109 33.238 164.109 31.838C164.109 30.438 162.527 29.64 159.909 29.64ZM159.909 33.14C157.991 33.14 156.843 32.678 156.843 31.838C156.843 30.998 157.991 30.522 159.909 30.522C161.827 30.522 162.961 30.998 162.961 31.838C162.961 32.678 161.827 33.14 159.909 33.14ZM177.711 27.526H179.727V26.574H177.711V21.478H176.563V34.036H177.711V27.526ZM174.463 22.822H168.723V23.774H173.329C173.063 26.798 171.397 29.122 168.135 30.76L168.765 31.656C172.825 29.64 174.463 26.392 174.463 22.822ZM181.77 25.902H190.296V24.978H182.918V21.744H181.77V25.902ZM191.598 28.296V27.358H180.244V28.296H191.598ZM185.9 29.416C183.226 29.416 181.602 30.256 181.602 31.712C181.602 33.168 183.226 33.994 185.9 33.994C188.574 33.994 190.198 33.168 190.198 31.712C190.198 30.256 188.574 29.416 185.9 29.416ZM185.9 33.098C183.926 33.098 182.764 32.608 182.764 31.712C182.764 30.816 183.926 30.312 185.9 30.312C187.874 30.312 189.036 30.816 189.036 31.712C189.036 32.608 187.874 33.098 185.9 33.098ZM192.451 23.69H199.857V22.766H196.721V21.352H195.573V22.766H192.451V23.69ZM202.153 25.636H204.015V24.67H202.153V21.478H201.005V28.772H202.153V25.636ZM199.157 26.476C199.157 25.146 197.939 24.292 196.147 24.292C194.355 24.292 193.151 25.146 193.151 26.476C193.151 27.82 194.355 28.674 196.147 28.674C197.939 28.674 199.157 27.82 199.157 26.476ZM194.243 26.476C194.243 25.636 194.971 25.146 196.147 25.146C197.323 25.146 198.065 25.636 198.065 26.476C198.065 27.316 197.323 27.806 196.147 27.806C194.971 27.806 194.243 27.316 194.243 26.476ZM202.153 29.332H201.019V30.662H195.391V29.332H194.257V33.868H202.153V29.332ZM195.391 31.558H201.019V32.944H195.391V31.558ZM214.878 34.022V21.478H213.73V34.022H214.878ZM206.52 29.808V22.696H205.372V30.788H206.408C208.424 30.788 210.37 30.648 212.568 30.2L212.442 29.22C210.356 29.654 208.438 29.808 206.52 29.808ZM226.427 27.386H228.499V26.434H226.427V21.478H225.279V34.064H226.427V27.386ZM218.447 29.948V23.634H223.137V22.682H217.299V30.928H218.293C220.645 30.928 222.325 30.858 224.229 30.48L224.103 29.528C222.297 29.864 220.687 29.948 218.447 29.948Z" fill="#666666"/>
</svg>
