<svg width="74" height="14" viewBox="0 0 74 14" fill="none" xmlns="http://www.w3.org/2000/svg">
<path d="M10.284 12.966V0.548H9.556V5.658H7.414V0.855999H6.7V12.294H7.414V6.288H9.556V12.966H10.284ZM1.058 9.102H1.03V2.732H4.936V2.088H0.302V9.746H1.072C3.13 9.746 4.334 9.69 5.79 9.354L5.692 8.71C4.278 9.046 3.088 9.102 1.058 9.102ZM12.6629 4.916L12.9009 5.504C14.8049 5.322 16.8769 4.608 17.5909 3.25C18.3049 4.608 20.3769 5.322 22.2809 5.504L22.5189 4.916C20.4889 4.734 18.0529 3.922 17.9829 2.298H22.0289V1.696H17.9689V0.422H17.2269V1.696H13.1809V2.298H17.1989C17.1289 3.922 14.6929 4.734 12.6629 4.916ZM17.9549 8.192V6.82H23.2049V6.218H11.9769V6.82H17.2129V8.192H13.3769V8.766H20.9929V10.124H13.4049V12.798H22.1269V12.196H14.1329V10.698H21.7209V8.192H17.9549ZM35.4258 6.54V5.91H33.5218C33.8998 4.272 33.8858 3.124 33.8858 2.116V1.248H25.6118V1.878H33.1718V2.116C33.1718 3.11 33.1718 4.244 32.7798 5.91H24.1418V6.54H35.4258ZM33.9978 8.458H25.5698V12.784H33.9978V8.458ZM33.2698 12.154H26.2978V9.074H33.2698V12.154ZM46.7367 7.926V0.548H46.0227V3.866H44.0627V0.785999H43.3487V7.842H44.0627V4.496H46.0227V7.926H46.7367ZM42.1307 4.216C42.1307 2.494 40.9407 1.332 39.3167 1.332C37.6927 1.332 36.5027 2.494 36.5027 4.216C36.5027 5.896 37.6927 7.072 39.3167 7.072C40.9407 7.072 42.1307 5.896 42.1307 4.216ZM37.1747 4.216C37.1747 2.928 38.0847 1.976 39.3167 1.976C40.5487 1.976 41.4447 2.928 41.4447 4.216C41.4447 5.448 40.5487 6.442 39.3167 6.442C38.0847 6.442 37.1747 5.448 37.1747 4.216ZM46.7367 8.71H38.5327V9.34H45.9947V12.98H46.7367V8.71ZM61.0251 7.212V0.548H60.2831V7.212H61.0251ZM54.4031 1.192C52.5691 1.192 51.2671 2.326 51.2671 4.006C51.2671 5.686 52.5691 6.82 54.4031 6.82C56.2651 6.82 57.5671 5.686 57.5671 4.006C57.5671 2.326 56.2651 1.192 54.4031 1.192ZM54.4031 1.822C55.8171 1.822 56.8531 2.732 56.8531 4.006C56.8531 5.28 55.8171 6.19 54.4031 6.19C53.0031 6.19 51.9811 5.28 51.9811 4.006C51.9811 2.732 53.0031 1.822 54.4031 1.822ZM53.9131 9.606V7.87H53.1711V12.784H61.0251V7.87H60.2971V9.606H53.9131ZM60.2971 12.168H53.9131V10.222H60.2971V12.168ZM73.218 8.178V0.548H72.476V2.466H69.788V3.096H72.476V4.986H69.788V5.616H72.476V8.178H73.218ZM69.858 7.17L69.774 6.54C68.248 6.806 67.016 6.848 64.51 6.848H64.37V4.58H68.906V1.304H63.6V1.934H68.178V3.978H63.642V7.478H64.51C67.058 7.478 68.29 7.436 69.858 7.17ZM73.218 8.906H65.014V9.536H72.476V13.008H73.218V8.906Z" fill="#666666"/>
</svg>
