<svg width="299" height="11" viewBox="0 0 299 11" fill="none" xmlns="http://www.w3.org/2000/svg">
<path d="M2.15921 2.716L1.40321 3.964L1.93121 4.348L2.87921 3.208L3.82721 4.348L4.35521 3.964L3.58721 2.716L4.89521 2.176L4.69121 1.564L3.32321 1.888L3.20321 0.447999H2.55521L2.43521 1.9L1.06721 1.564L0.851206 2.176L2.15921 2.716ZM14.8648 10.888V0.124H13.9168V4.444H12.3928V0.364H11.4688V10.348H12.3928V5.248H13.9168V10.888H14.8648ZM7.07677 7.42V2.236H10.1128V1.432H6.10477V8.236H6.81277C8.40877 8.236 9.52477 8.2 10.7968 7.912L10.7128 7.096C9.54877 7.348 8.50477 7.42 7.07677 7.42ZM16.6758 3.676L16.9638 4.42C18.7878 4.288 20.3598 3.724 21.0318 2.728C21.7038 3.724 23.2758 4.288 25.0758 4.42L25.3758 3.676C23.3718 3.544 21.7398 2.872 21.5838 1.816H24.8958V1.072H21.5238V0.0519993H20.5398V1.072H17.1558V1.816H20.4798C20.3238 2.872 18.6558 3.544 16.6758 3.676ZM21.5238 6.652V5.656H25.8798V4.9H16.1718V5.656H20.5278V6.652H17.3238V7.384H23.6718V8.296H17.3598V10.768H24.9678V10.024H18.3198V9.004H24.6438V6.652H21.5238ZM34.4469 8.02H35.4309V0.124H34.4469V8.02ZM32.5629 6.268L33.0789 5.488C31.4949 4.912 30.3909 3.436 30.3909 1.816V0.723999H29.4069V1.816C29.4069 3.496 28.3389 5.068 26.7069 5.68L27.2229 6.484C28.4829 5.956 29.4429 4.912 29.9109 3.604C30.3909 4.852 31.3149 5.8 32.5629 6.268ZM35.7549 10.648V9.844H29.4909V7.288H28.5069V10.648H35.7549ZM42.954 6.196L43.41 5.44C41.826 4.96 40.71 3.76 40.71 2.416V2.212H43.086V1.42H40.71V0.0759997H39.726V1.42H37.338V2.212H39.726V2.416C39.726 3.868 38.634 5.176 37.062 5.716L37.542 6.472C38.838 6.052 39.774 5.164 40.242 3.964C40.734 5.02 41.706 5.812 42.954 6.196ZM44.91 0.124V3.184H42.762V4H44.91V6.652H45.906V0.124H44.91ZM42.342 6.928C40.134 6.928 38.766 7.648 38.766 8.896C38.766 10.156 40.134 10.876 42.342 10.876C44.586 10.876 45.942 10.156 45.942 8.896C45.942 7.648 44.586 6.928 42.342 6.928ZM42.342 10.108C40.698 10.108 39.75 9.664 39.75 8.896C39.75 8.128 40.698 7.696 42.342 7.696C43.986 7.696 44.958 8.128 44.958 8.896C44.958 9.664 43.986 10.108 42.342 10.108ZM57.245 5.452V4.66H55.697C55.985 3.304 55.985 2.344 55.985 1.492V0.7H48.713V1.492H55.013C55.013 2.344 55.001 3.316 54.701 4.66H47.465V5.452H57.245ZM56.021 6.916H48.677V10.744H56.021V6.916ZM55.049 9.952H49.637V7.708H55.049V9.952ZM67.0001 6.532V0.124H66.0521V2.896H64.6841V0.327999H63.7601V6.472H64.6841V3.7H66.0521V6.532H67.0001ZM62.9201 3.34C62.9201 1.84 61.8761 0.796 60.4721 0.796C59.0681 0.796 58.0241 1.84 58.0241 3.34C58.0241 4.84 59.0681 5.872 60.4721 5.872C61.8761 5.872 62.9201 4.84 62.9201 3.34ZM58.9121 3.34C58.9121 2.332 59.5721 1.624 60.4721 1.624C61.3721 1.624 62.0201 2.332 62.0201 3.34C62.0201 4.348 61.3721 5.056 60.4721 5.056C59.5721 5.056 58.9121 4.348 58.9121 3.34ZM67.0001 7.144H59.7641V7.936H66.0161V10.9H67.0001V7.144ZM73.2151 4.78C75.5191 4.78 76.9951 3.988 76.9951 2.644C76.9951 1.3 75.5191 0.495999 73.2151 0.495999C70.9111 0.495999 69.4351 1.3 69.4351 2.644C69.4351 3.988 70.9111 4.78 73.2151 4.78ZM73.2151 1.288C74.9071 1.288 75.9871 1.78 75.9871 2.644C75.9871 3.508 74.9071 3.988 73.2151 3.988C71.5231 3.988 70.4431 3.508 70.4431 2.644C70.4431 1.78 71.5231 1.288 73.2151 1.288ZM78.0751 6.58V5.788H68.3431V6.58H78.0751ZM77.0071 9.844H70.5871V7.528H69.6031V10.648H77.0071V9.844ZM89.6498 10.9V0.124H88.6658V10.9H89.6498ZM81.2618 5.404L81.7178 6.172C83.0138 5.752 83.9978 4.936 84.4658 3.784C84.9578 4.852 85.9178 5.668 87.2138 6.052L87.6698 5.296C86.0858 4.816 84.9818 3.7 84.9458 2.32H87.4298V1.528H84.9458V0.207999H83.9618V1.528H81.5138V2.32H83.9618C83.9258 3.724 82.8578 4.924 81.2618 5.404ZM84.9458 7.768V5.812H83.9618V7.816C82.8578 7.852 81.8498 7.852 80.9378 7.852L81.0698 8.68C82.9898 8.68 85.6298 8.656 88.0418 8.212L87.9578 7.48C86.9978 7.636 85.9538 7.708 84.9458 7.768ZM100.185 6.196L100.605 5.38C98.7209 5.056 96.6689 3.46 96.6689 1.672V0.844H95.6369V1.672C95.6369 3.46 93.5969 5.056 91.7129 5.38L92.1209 6.196C93.7769 5.848 95.4449 4.732 96.1529 3.196C96.8609 4.732 98.5409 5.836 100.185 6.196ZM101.085 9.484V8.68H96.6449V6.064H95.6609V8.68H91.3169V9.484H101.085ZM109.516 10V9.112H107.788V1.156H106.912L104.548 3.196L105.136 3.904L106.732 2.476C106.72 2.56 106.72 2.668 106.72 2.776V9.112H104.764V10H109.516ZM116.58 5.62C116.58 2.488 115.164 1.06 113.352 1.06C111.528 1.06 110.124 2.488 110.124 5.62C110.124 8.74 111.528 10.168 113.352 10.168C115.164 10.168 116.58 8.74 116.58 5.62ZM115.476 5.62C115.476 8.356 114.468 9.28 113.352 9.28C112.236 9.28 111.24 8.356 111.24 5.62C111.24 2.872 112.236 1.96 113.352 1.96C114.468 1.96 115.476 2.872 115.476 5.62ZM123.128 5.62C123.128 2.488 121.712 1.06 119.9 1.06C118.076 1.06 116.672 2.488 116.672 5.62C116.672 8.74 118.076 10.168 119.9 10.168C121.712 10.168 123.128 8.74 123.128 5.62ZM122.024 5.62C122.024 8.356 121.016 9.28 119.9 9.28C118.784 9.28 117.788 8.356 117.788 5.62C117.788 2.872 118.784 1.96 119.9 1.96C121.016 1.96 122.024 2.872 122.024 5.62ZM133.433 4.228V3.4H131.837V0.111999H130.853V7.996H131.837V4.228H133.433ZM123.929 6.064H128.873V1.084H123.929V6.064ZM124.889 1.876H127.913V5.284H124.889V1.876ZM132.317 9.844H126.125V7.264H125.141V10.648H132.317V9.844ZM141.748 0.124V6.484H139.564V7.216H141.748V8.32H142.732V0.124H141.748ZM137.368 4.312C138.94 4.312 140.02 3.58 140.02 2.428C140.02 1.3 138.94 0.555999 137.368 0.555999C135.796 0.555999 134.716 1.3 134.716 2.428C134.716 3.58 135.796 4.312 137.368 4.312ZM137.368 1.288C138.388 1.288 139.084 1.744 139.084 2.428C139.084 3.148 138.388 3.58 137.368 3.58C136.348 3.58 135.652 3.148 135.652 2.428C135.652 1.744 136.348 1.288 137.368 1.288ZM136.984 5.86V7.936H137.968V5.812C138.94 5.752 139.924 5.644 140.884 5.5L140.8 4.792C138.52 5.08 135.856 5.104 133.864 5.104L133.996 5.92C134.908 5.92 135.916 5.908 136.984 5.86ZM143.008 10.648V9.844H136.384V7.516H135.4V10.648H143.008ZM155.255 10.912V0.124H154.271V10.912H155.255ZM149.579 0.952C147.983 0.952 146.843 2.416 146.843 4.708C146.843 7 147.983 8.464 149.579 8.464C151.175 8.464 152.315 7 152.315 4.708C152.315 2.416 151.175 0.952 149.579 0.952ZM149.579 1.84C150.623 1.84 151.367 2.968 151.367 4.708C151.367 6.46 150.623 7.588 149.579 7.588C148.523 7.588 147.779 6.46 147.779 4.708C147.779 2.968 148.523 1.84 149.579 1.84ZM166.834 3.724V2.908H165.238V0.136H164.254V6.652H165.238V3.724H166.834ZM162.586 5.956L163.102 5.188C161.566 4.672 160.498 3.304 160.498 1.864V0.676H159.514V1.78C159.514 3.4 158.47 4.9 156.838 5.476L157.354 6.256C158.614 5.776 159.574 4.792 160.018 3.532C160.498 4.636 161.422 5.524 162.586 5.956ZM161.818 6.952C159.622 6.952 158.266 7.672 158.266 8.92C158.266 10.168 159.622 10.876 161.818 10.876C163.99 10.876 165.358 10.168 165.358 8.92C165.358 7.672 163.99 6.952 161.818 6.952ZM161.818 10.108C160.222 10.108 159.25 9.688 159.25 8.92C159.25 8.152 160.222 7.72 161.818 7.72C163.414 7.72 164.374 8.152 164.374 8.92C164.374 9.688 163.414 10.108 161.818 10.108ZM175.432 9.916H176.62L175 8.272C175.372 7.78 175.828 7.024 176.104 5.74H175.18C174.976 6.796 174.688 7.384 174.436 7.684L172.192 5.344C173.104 4.864 173.848 4.12 173.848 3.04C173.812 1.936 173.008 1.276 171.964 1.276H171.904C170.62 1.324 169.972 1.984 169.972 3.268C170.008 3.988 170.44 4.588 170.872 5.08L170.944 5.176C169.792 5.704 169.144 6.556 169.144 7.612V7.768C169.252 9.124 170.152 10 171.796 10C172.912 9.952 173.8 9.568 174.484 8.896L175.432 9.916ZM171.904 2.044H171.964C172.552 2.044 172.936 2.464 172.972 3.076C172.972 3.868 172.276 4.384 171.664 4.768L171.484 4.576C170.956 3.892 170.788 3.544 170.788 3.172C170.788 2.488 171.22 2.104 171.904 2.044ZM171.484 5.8L173.872 8.26C173.332 8.788 172.684 9.112 171.808 9.148C170.788 9.148 170.044 8.572 170.044 7.768C170.044 6.82 170.704 6.22 171.484 5.8ZM187.874 6.58V0.136H186.926V2.932H185.558V0.327999H184.622V6.532H185.558V3.736H186.926V6.58H187.874ZM179.27 5.824H183.446V0.819999H182.522V2.512H180.206V0.819999H179.27V5.824ZM180.206 3.292H182.522V5.032H180.206V3.292ZM187.874 7.24H180.638V8.032H186.89V10.888H187.874V7.24ZM199.177 4.228V3.4H197.581V0.111999H196.597V7.996H197.581V4.228H199.177ZM189.673 6.064H194.617V1.084H189.673V6.064ZM190.633 1.876H193.657V5.284H190.633V1.876ZM198.061 9.844H191.869V7.264H190.885V10.648H198.061V9.844ZM207.492 0.124V6.484H205.308V7.216H207.492V8.32H208.476V0.124H207.492ZM203.112 4.312C204.684 4.312 205.764 3.58 205.764 2.428C205.764 1.3 204.684 0.555999 203.112 0.555999C201.54 0.555999 200.46 1.3 200.46 2.428C200.46 3.58 201.54 4.312 203.112 4.312ZM203.112 1.288C204.132 1.288 204.828 1.744 204.828 2.428C204.828 3.148 204.132 3.58 203.112 3.58C202.092 3.58 201.396 3.148 201.396 2.428C201.396 1.744 202.092 1.288 203.112 1.288ZM202.728 5.86V7.936H203.712V5.812C204.684 5.752 205.668 5.644 206.628 5.5L206.544 4.792C204.264 5.08 201.6 5.104 199.608 5.104L199.74 5.92C200.652 5.92 201.66 5.908 202.728 5.86ZM208.752 10.648V9.844H202.128V7.516H201.144V10.648H208.752ZM222.139 4.132V3.316H220.543V0.124H219.559V7.912H220.543V4.132H222.139ZM218.527 5.632L218.419 4.84C217.015 5.128 215.791 5.2 213.667 5.2V1.852H217.447V1.06H212.683V6.004H213.523C215.791 6.004 217.051 5.92 218.527 5.632ZM221.023 9.844H214.831V7.132H213.847V10.648H221.023V9.844ZM231.462 10.9V0.136H230.478V10.9H231.462ZM226.158 5.056C227.754 5.056 228.894 4.156 228.894 2.848C228.894 1.54 227.754 0.628 226.158 0.628C224.562 0.628 223.41 1.54 223.41 2.848C223.41 4.156 224.562 5.056 226.158 5.056ZM226.158 1.444C227.214 1.444 227.946 1.984 227.946 2.848C227.946 3.712 227.214 4.252 226.158 4.252C225.102 4.252 224.358 3.676 224.358 2.848C224.358 2.02 225.102 1.444 226.158 1.444ZM229.782 6.316L229.698 5.584C227.334 5.932 224.622 5.968 222.606 5.968L222.738 6.796C223.65 6.796 224.646 6.784 225.714 6.736V10.552H226.698V6.676C227.742 6.616 228.762 6.496 229.782 6.316ZM243.017 4.228V3.4H241.421V0.111999H240.437V7.996H241.421V4.228H243.017ZM233.513 6.064H238.457V1.084H233.513V6.064ZM234.473 1.876H237.497V5.284H234.473V1.876ZM241.901 9.844H235.709V7.264H234.725V10.648H241.901V9.844ZM253.872 5.308H255.6V4.492H253.872V0.124H252.888V10.888H253.872V5.308ZM251.088 1.276H246.168V2.092H250.116C249.888 4.684 248.46 6.676 245.664 8.08L246.204 8.848C249.684 7.12 251.088 4.336 251.088 1.276ZM257.351 3.916H264.659V3.124H258.335V0.352H257.351V3.916ZM265.775 5.968V5.164H256.043V5.968H265.775ZM260.891 6.928C258.599 6.928 257.207 7.648 257.207 8.896C257.207 10.144 258.599 10.852 260.891 10.852C263.183 10.852 264.575 10.144 264.575 8.896C264.575 7.648 263.183 6.928 260.891 6.928ZM260.891 10.084C259.199 10.084 258.203 9.664 258.203 8.896C258.203 8.128 259.199 7.696 260.891 7.696C262.583 7.696 263.579 8.128 263.579 8.896C263.579 9.664 262.583 10.084 260.891 10.084ZM266.506 2.02H272.854V1.228H270.166V0.0159998H269.182V1.228H266.506V2.02ZM274.822 3.688H276.418V2.86H274.822V0.124H273.838V6.376H274.822V3.688ZM272.254 4.408C272.254 3.268 271.21 2.536 269.674 2.536C268.138 2.536 267.106 3.268 267.106 4.408C267.106 5.56 268.138 6.292 269.674 6.292C271.21 6.292 272.254 5.56 272.254 4.408ZM268.042 4.408C268.042 3.688 268.666 3.268 269.674 3.268C270.682 3.268 271.318 3.688 271.318 4.408C271.318 5.128 270.682 5.548 269.674 5.548C268.666 5.548 268.042 5.128 268.042 4.408ZM274.822 6.856H273.85V7.996H269.026V6.856H268.054V10.744H274.822V6.856ZM269.026 8.764H273.85V9.952H269.026V8.764ZM285.729 10.876V0.124H284.745V10.876H285.729ZM278.565 7.264V1.168H277.581V8.104H278.469C280.197 8.104 281.865 7.984 283.749 7.6L283.641 6.76C281.853 7.132 280.209 7.264 278.565 7.264ZM295.628 5.188H297.404V4.372H295.628V0.124H294.644V10.912H295.628V5.188ZM288.788 7.384V1.972H292.808V1.156H287.804V8.224H288.656C290.672 8.224 292.112 8.164 293.744 7.84L293.636 7.024C292.088 7.312 290.708 7.384 288.788 7.384ZM298.747 9.04H297.655V10.168H298.747V9.04Z" fill="#B09887"/>
</svg>
