<svg width="253" height="11" viewBox="0 0 253 11" fill="none" xmlns="http://www.w3.org/2000/svg">
<path d="M1.5178 2.716L0.761795 3.964L1.2898 4.348L2.2378 3.208L3.1858 4.348L3.7138 3.964L2.9458 2.716L4.2538 2.176L4.0498 1.564L2.6818 1.888L2.5618 0.447999H1.9138L1.7938 1.9L0.425795 1.564L0.209795 2.176L1.5178 2.716ZM16.307 10.888V0.124H15.359V4.444H13.835V0.364H12.911V10.348H13.835V5.248H15.359V10.888H16.307ZM8.51895 7.42V2.236H11.555V1.432H7.54695V8.236H8.25495C9.85095 8.236 10.967 8.2 12.239 7.912L12.155 7.096C10.991 7.348 9.94695 7.42 8.51895 7.42ZM18.118 3.676L18.406 4.42C20.23 4.288 21.802 3.724 22.474 2.728C23.146 3.724 24.718 4.288 26.518 4.42L26.818 3.676C24.814 3.544 23.182 2.872 23.026 1.816H26.338V1.072H22.966V0.0519993H21.982V1.072H18.598V1.816H21.922C21.766 2.872 20.098 3.544 18.118 3.676ZM22.966 6.652V5.656H27.322V4.9H17.614V5.656H21.97V6.652H18.766V7.384H25.114V8.296H18.802V10.768H26.41V10.024H19.762V9.004H26.086V6.652H22.966ZM35.8891 8.02H36.8731V0.124H35.8891V8.02ZM34.0051 6.268L34.5211 5.488C32.9371 4.912 31.8331 3.436 31.8331 1.816V0.723999H30.8491V1.816C30.8491 3.496 29.7811 5.068 28.1491 5.68L28.6651 6.484C29.9251 5.956 30.8851 4.912 31.3531 3.604C31.8331 4.852 32.7571 5.8 34.0051 6.268ZM37.1971 10.648V9.844H30.9331V7.288H29.9491V10.648H37.1971ZM44.3961 6.196L44.8521 5.44C43.2681 4.96 42.1521 3.76 42.1521 2.416V2.212H44.5281V1.42H42.1521V0.0759997H41.1681V1.42H38.7801V2.212H41.1681V2.416C41.1681 3.868 40.0761 5.176 38.5041 5.716L38.9841 6.472C40.2801 6.052 41.2161 5.164 41.6841 3.964C42.1761 5.02 43.1481 5.812 44.3961 6.196ZM46.3521 0.124V3.184H44.2041V4H46.3521V6.652H47.3481V0.124H46.3521ZM43.7841 6.928C41.5761 6.928 40.2081 7.648 40.2081 8.896C40.2081 10.156 41.5761 10.876 43.7841 10.876C46.0281 10.876 47.3841 10.156 47.3841 8.896C47.3841 7.648 46.0281 6.928 43.7841 6.928ZM43.7841 10.108C42.1401 10.108 41.1921 9.664 41.1921 8.896C41.1921 8.128 42.1401 7.696 43.7841 7.696C45.4281 7.696 46.4001 8.128 46.4001 8.896C46.4001 9.664 45.4281 10.108 43.7841 10.108ZM58.6872 5.452V4.66H57.1392C57.4272 3.304 57.4272 2.344 57.4272 1.492V0.7H50.1552V1.492H56.4552C56.4552 2.344 56.4432 3.316 56.1432 4.66H48.9072V5.452H58.6872ZM57.4632 6.916H50.1192V10.744H57.4632V6.916ZM56.4912 9.952H51.0792V7.708H56.4912V9.952ZM68.4423 6.532V0.124H67.4943V2.896H66.1263V0.327999H65.2023V6.472H66.1263V3.7H67.4943V6.532H68.4423ZM64.3623 3.34C64.3623 1.84 63.3183 0.796 61.9143 0.796C60.5103 0.796 59.4663 1.84 59.4663 3.34C59.4663 4.84 60.5103 5.872 61.9143 5.872C63.3183 5.872 64.3623 4.84 64.3623 3.34ZM60.3543 3.34C60.3543 2.332 61.0143 1.624 61.9143 1.624C62.8143 1.624 63.4623 2.332 63.4623 3.34C63.4623 4.348 62.8143 5.056 61.9143 5.056C61.0143 5.056 60.3543 4.348 60.3543 3.34ZM68.4423 7.144H61.2063V7.936H67.4583V10.9H68.4423V7.144ZM74.6573 4.78C76.9613 4.78 78.4373 3.988 78.4373 2.644C78.4373 1.3 76.9613 0.495999 74.6573 0.495999C72.3533 0.495999 70.8773 1.3 70.8773 2.644C70.8773 3.988 72.3533 4.78 74.6573 4.78ZM74.6573 1.288C76.3493 1.288 77.4293 1.78 77.4293 2.644C77.4293 3.508 76.3493 3.988 74.6573 3.988C72.9653 3.988 71.8853 3.508 71.8853 2.644C71.8853 1.78 72.9653 1.288 74.6573 1.288ZM79.5173 6.58V5.788H69.7853V6.58H79.5173ZM78.4493 9.844H72.0293V7.528H71.0453V10.648H78.4493V9.844ZM87.168 5.272C89.412 5.272 90.936 4.348 90.936 2.908C90.936 1.48 89.412 0.555999 87.168 0.555999C84.924 0.555999 83.412 1.48 83.412 2.908C83.412 4.348 84.924 5.272 87.168 5.272ZM87.168 1.348C88.812 1.348 89.928 1.948 89.928 2.908C89.928 3.868 88.812 4.48 87.168 4.48C85.536 4.48 84.42 3.868 84.42 2.908C84.42 1.948 85.536 1.348 87.168 1.348ZM87.66 7.108H92.064V6.292H82.32V7.108H86.676V10.9H87.66V7.108ZM101.615 5.02L102.023 4.228C100.067 3.94 98.147 2.608 98.147 1.108V0.508H97.115V1.108C97.115 2.656 95.231 3.94 93.263 4.228L93.659 5.02C95.327 4.732 96.959 3.808 97.631 2.5C98.339 3.808 99.935 4.732 101.615 5.02ZM98.099 7H102.503L102.491 6.184H92.771V7H97.115V10.9H98.099V7ZM112.342 10.888V0.124H111.406V10.888H112.342ZM110.35 0.364H109.414V3.772H107.926V4.564H109.414V6.232H108.058C108.07 6.22 108.07 6.172 108.07 6.112V5.992C108.07 4.504 107.122 3.496 105.826 3.496C104.518 3.496 103.57 4.504 103.57 5.992C103.57 7.468 104.518 8.476 105.826 8.476C106.786 8.476 107.566 7.936 107.89 7.024H109.414V10.36H110.35V0.364ZM103.186 2.764H108.49V1.972H106.306V0.4H105.334V1.972H103.186V2.764ZM105.826 7.636C105.01 7.636 104.434 6.952 104.434 5.992C104.434 5.02 105.01 4.336 105.826 4.336C106.642 4.336 107.206 5.02 107.206 5.992C107.206 6.952 106.63 7.636 105.826 7.636ZM122.721 6.652V0.136H121.773V2.932H120.333V0.327999H119.397V6.58H120.333V3.736H121.773V6.652H122.721ZM118.773 5.788L118.677 4.996C117.561 5.224 116.589 5.284 115.053 5.284V3.82H118.137V3.064H115.053V1.708H118.257V0.916H114.105V6.088H114.789C116.517 6.088 117.525 6.04 118.773 5.788ZM122.721 7.216H115.485V8.008H121.737V10.888H122.721V7.216ZM133.844 5.452V4.66H132.296C132.584 3.304 132.584 2.344 132.584 1.492V0.7H125.312V1.492H131.612C131.612 2.344 131.6 3.316 131.3 4.66H124.064V5.452H133.844ZM132.62 6.916H125.276V10.744H132.62V6.916ZM131.648 9.952H126.236V7.708H131.648V9.952ZM143.599 6.532V0.124H142.651V2.896H141.283V0.327999H140.359V6.472H141.283V3.7H142.651V6.532H143.599ZM139.519 3.34C139.519 1.84 138.475 0.796 137.071 0.796C135.667 0.796 134.623 1.84 134.623 3.34C134.623 4.84 135.667 5.872 137.071 5.872C138.475 5.872 139.519 4.84 139.519 3.34ZM135.511 3.34C135.511 2.332 136.171 1.624 137.071 1.624C137.971 1.624 138.619 2.332 138.619 3.34C138.619 4.348 137.971 5.056 137.071 5.056C136.171 5.056 135.511 4.348 135.511 3.34ZM143.599 7.144H136.363V7.936H142.615V10.9H143.599V7.144ZM154.086 10.876V0.124H153.138V4.504H151.614V0.364H150.69V10.336H151.614V5.32H153.138V10.876H154.086ZM146.466 7.24V1.432H145.482V8.092H146.166C147.33 8.092 148.566 8.032 150.018 7.756L149.922 6.904C148.626 7.156 147.522 7.228 146.466 7.24ZM164.537 10.888V0.124H163.601V10.888H164.537ZM162.401 0.364H161.465V4.312H160.109C159.977 2.284 159.125 1.024 157.829 1.024C156.425 1.024 155.525 2.452 155.525 4.756C155.525 7.084 156.425 8.524 157.829 8.524C159.149 8.524 160.013 7.228 160.109 5.116H161.465V10.36H162.401V0.364ZM157.829 7.612C156.965 7.612 156.425 6.544 156.425 4.756C156.425 3.028 156.965 1.936 157.829 1.936C158.657 1.936 159.221 3.028 159.221 4.756C159.221 6.544 158.693 7.612 157.829 7.612ZM174.7 10.9V0.124H173.716V3.772H171.22V4.576H173.716V10.9H174.7ZM169.6 2.98V1.048H168.616V2.98C168.616 4.96 167.392 7.06 165.832 7.828L166.432 8.608C167.644 7.972 168.628 6.604 169.108 5.008C169.6 6.508 170.608 7.804 171.808 8.416L172.384 7.636C170.824 6.904 169.6 4.924 169.6 2.98ZM186.203 8.02H187.187V0.124H186.203V8.02ZM184.319 6.268L184.835 5.488C183.251 4.912 182.147 3.436 182.147 1.816V0.723999H181.163V1.816C181.163 3.496 180.095 5.068 178.463 5.68L178.979 6.484C180.239 5.956 181.199 4.912 181.667 3.604C182.147 4.852 183.071 5.8 184.319 6.268ZM187.511 10.648V9.844H181.247V7.288H180.263V10.648H187.511ZM194.71 6.196L195.166 5.44C193.582 4.96 192.466 3.76 192.466 2.416V2.212H194.842V1.42H192.466V0.0759997H191.482V1.42H189.094V2.212H191.482V2.416C191.482 3.868 190.39 5.176 188.818 5.716L189.298 6.472C190.594 6.052 191.53 5.164 191.998 3.964C192.49 5.02 193.462 5.812 194.71 6.196ZM196.666 0.124V3.184H194.518V4H196.666V6.652H197.662V0.124H196.666ZM194.098 6.928C191.89 6.928 190.522 7.648 190.522 8.896C190.522 10.156 191.89 10.876 194.098 10.876C196.342 10.876 197.698 10.156 197.698 8.896C197.698 7.648 196.342 6.928 194.098 6.928ZM194.098 10.108C192.454 10.108 191.506 9.664 191.506 8.896C191.506 8.128 192.454 7.696 194.098 7.696C195.742 7.696 196.714 8.128 196.714 8.896C196.714 9.664 195.742 10.108 194.098 10.108ZM207.513 5.308H209.241V4.492H207.513V0.124H206.529V10.888H207.513V5.308ZM204.729 1.276H199.809V2.092H203.757C203.529 4.684 202.101 6.676 199.305 8.08L199.845 8.848C203.325 7.12 204.729 4.336 204.729 1.276ZM210.992 3.916H218.3V3.124H211.976V0.352H210.992V3.916ZM219.416 5.968V5.164H209.684V5.968H219.416ZM214.532 6.928C212.24 6.928 210.848 7.648 210.848 8.896C210.848 10.144 212.24 10.852 214.532 10.852C216.824 10.852 218.216 10.144 218.216 8.896C218.216 7.648 216.824 6.928 214.532 6.928ZM214.532 10.084C212.84 10.084 211.844 9.664 211.844 8.896C211.844 8.128 212.84 7.696 214.532 7.696C216.224 7.696 217.22 8.128 217.22 8.896C217.22 9.664 216.224 10.084 214.532 10.084ZM220.147 2.02H226.495V1.228H223.807V0.0159998H222.823V1.228H220.147V2.02ZM228.463 3.688H230.059V2.86H228.463V0.124H227.479V6.376H228.463V3.688ZM225.895 4.408C225.895 3.268 224.851 2.536 223.315 2.536C221.779 2.536 220.747 3.268 220.747 4.408C220.747 5.56 221.779 6.292 223.315 6.292C224.851 6.292 225.895 5.56 225.895 4.408ZM221.683 4.408C221.683 3.688 222.307 3.268 223.315 3.268C224.323 3.268 224.959 3.688 224.959 4.408C224.959 5.128 224.323 5.548 223.315 5.548C222.307 5.548 221.683 5.128 221.683 4.408ZM228.463 6.856H227.491V7.996H222.667V6.856H221.695V10.744H228.463V6.856ZM222.667 8.764H227.491V9.952H222.667V8.764ZM239.37 10.876V0.124H238.386V10.876H239.37ZM232.206 7.264V1.168H231.222V8.104H232.11C233.838 8.104 235.506 7.984 237.39 7.6L237.282 6.76C235.494 7.132 233.85 7.264 232.206 7.264ZM249.27 5.188H251.046V4.372H249.27V0.124H248.286V10.912H249.27V5.188ZM242.43 7.384V1.972H246.45V1.156H241.446V8.224H242.298C244.314 8.224 245.754 8.164 247.386 7.84L247.278 7.024C245.73 7.312 244.35 7.384 242.43 7.384ZM252.389 9.04H251.297V10.168H252.389V9.04Z" fill="#B09887"/>
</svg>
