<svg width="27" height="16" viewBox="0 0 27 16" fill="none" xmlns="http://www.w3.org/2000/svg">
<path d="M11.592 15.216V0.832H10.28V15.216H11.592ZM4.024 1.936C1.896 1.936 0.376 3.888 0.376 6.944C0.376 10 1.896 11.952 4.024 11.952C6.152 11.952 7.672 10 7.672 6.944C7.672 3.888 6.152 1.936 4.024 1.936ZM4.024 3.12C5.416 3.12 6.408 4.624 6.408 6.944C6.408 9.28 5.416 10.784 4.024 10.784C2.616 10.784 1.624 9.28 1.624 6.944C1.624 4.624 2.616 3.12 4.024 3.12ZM15.3987 2.208H23.8148V3.6H15.4307V7.008H25.4148V5.984H16.7267V4.576H25.1108V1.2H15.3987V2.208ZM26.7748 9.296V8.24H13.7667V9.296H26.7748ZM25.1267 10.624H15.5107V14.992H25.1267V10.624ZM23.8308 13.936H16.7908V11.664H23.8308V13.936Z" fill="black"/>
</svg>
