<svg width="119" height="13" viewBox="0 0 119 13" fill="none" xmlns="http://www.w3.org/2000/svg">
<path d="M9.1345 6.096C9.1345 5.41333 9.06517 4.71467 8.9265 4C8.78783 3.28533 8.55317 2.63467 8.2225 2.048C7.89183 1.46133 7.44917 0.981333 6.8945 0.608C6.33983 0.234666 5.6465 0.0479994 4.8145 0.0479994C3.99317 0.0479994 3.30517 0.234666 2.7505 0.608C2.19583 0.970666 1.75317 1.44 1.4225 2.016C1.09183 2.592 0.857167 3.24267 0.7185 3.968C0.579833 4.68267 0.5105 5.392 0.5105 6.096C0.5105 6.8 0.579833 7.50933 0.7185 8.224C0.857167 8.93867 1.09183 9.58933 1.4225 10.176C1.75317 10.752 2.19583 11.2213 2.7505 11.584C3.30517 11.9467 3.99317 12.128 4.8145 12.128C5.63583 12.128 6.32383 11.9467 6.8785 11.584C7.43317 11.2213 7.87583 10.752 8.2065 10.176C8.54783 9.58933 8.78783 8.93867 8.9265 8.224C9.06517 7.50933 9.1345 6.8 9.1345 6.096ZM7.3105 6.096C7.3105 6.512 7.28383 6.98133 7.2305 7.504C7.17717 8.02667 7.05983 8.52267 6.8785 8.992C6.70783 9.46133 6.45717 9.856 6.1265 10.176C5.8065 10.496 5.36917 10.656 4.8145 10.656C4.2705 10.656 3.83317 10.496 3.5025 10.176C3.17183 9.856 2.91583 9.46133 2.7345 8.992C2.56383 8.52267 2.45183 8.02667 2.3985 7.504C2.34517 6.98133 2.3185 6.512 2.3185 6.096C2.3185 5.68 2.34517 5.21067 2.3985 4.688C2.45183 4.16533 2.56383 3.66933 2.7345 3.2C2.91583 2.73067 3.1665 2.336 3.4865 2.016C3.81717 1.696 4.25983 1.536 4.8145 1.536C5.36917 1.536 5.8065 1.696 6.1265 2.016C6.45717 2.336 6.70783 2.73067 6.8785 3.2C7.05983 3.66933 7.17717 4.16533 7.2305 4.688C7.28383 5.21067 7.3105 5.68 7.3105 6.096ZM12.1218 4.064L14.0418 2.448C14.0311 2.58667 14.0258 2.72 14.0258 2.848V10.464H11.5618V12H18.0098V10.464H15.7858V0.143999H14.3458L11.1458 2.88L12.1218 4.064ZM28.197 6.096C28.197 5.41333 28.1277 4.71467 27.989 4C27.8503 3.28533 27.6157 2.63467 27.285 2.048C26.9543 1.46133 26.5117 0.981333 25.957 0.608C25.4023 0.234666 24.709 0.0479994 23.877 0.0479994C23.0557 0.0479994 22.3677 0.234666 21.813 0.608C21.2583 0.970666 20.8157 1.44 20.485 2.016C20.1543 2.592 19.9197 3.24267 19.781 3.968C19.6423 4.68267 19.573 5.392 19.573 6.096C19.573 6.8 19.6423 7.50933 19.781 8.224C19.9197 8.93867 20.1543 9.58933 20.485 10.176C20.8157 10.752 21.2583 11.2213 21.813 11.584C22.3677 11.9467 23.0557 12.128 23.877 12.128C24.6983 12.128 25.3863 11.9467 25.941 11.584C26.4957 11.2213 26.9383 10.752 27.269 10.176C27.6103 9.58933 27.8503 8.93867 27.989 8.224C28.1277 7.50933 28.197 6.8 28.197 6.096ZM26.373 6.096C26.373 6.512 26.3463 6.98133 26.293 7.504C26.2397 8.02667 26.1223 8.52267 25.941 8.992C25.7703 9.46133 25.5197 9.856 25.189 10.176C24.869 10.496 24.4317 10.656 23.877 10.656C23.333 10.656 22.8957 10.496 22.565 10.176C22.2343 9.856 21.9783 9.46133 21.797 8.992C21.6263 8.52267 21.5143 8.02667 21.461 7.504C21.4077 6.98133 21.381 6.512 21.381 6.096C21.381 5.68 21.4077 5.21067 21.461 4.688C21.5143 4.16533 21.6263 3.66933 21.797 3.2C21.9783 2.73067 22.229 2.336 22.549 2.016C22.8797 1.696 23.3223 1.536 23.877 1.536C24.4317 1.536 24.869 1.696 25.189 2.016C25.5197 2.336 25.7703 2.73067 25.941 3.2C26.1223 3.66933 26.2397 4.16533 26.293 4.688C26.3463 5.21067 26.373 5.68 26.373 6.096ZM29.4563 5.424V6.784H34.8963V5.424H29.4563ZM38.2311 4.064L40.1511 2.448C40.1405 2.58667 40.1351 2.72 40.1351 2.848V10.464H37.6711V12H44.1191V10.464H41.8951V0.143999H40.4551L37.2551 2.88L38.2311 4.064ZM53.9864 12V10.432H49.8904C49.6344 10.432 49.373 10.4533 49.1064 10.496C48.8504 10.5387 48.5997 10.592 48.3544 10.656L51.3624 7.616C51.661 7.31733 51.9544 7.01333 52.2424 6.704C52.5304 6.39467 52.7864 6.06933 53.0104 5.728C53.245 5.376 53.4317 5.008 53.5704 4.624C53.709 4.24 53.7784 3.824 53.7784 3.376C53.7784 2.84267 53.6824 2.368 53.4904 1.952C53.2984 1.536 53.037 1.18933 52.7064 0.912C52.3864 0.624 52.0077 0.410666 51.5704 0.271999C51.133 0.122666 50.6637 0.0479994 50.1624 0.0479994C49.0637 0.0479994 48.1624 0.346666 47.4584 0.943999C46.765 1.53067 46.3437 2.35733 46.1944 3.424L47.9544 3.744C47.933 3.424 47.9704 3.13067 48.0664 2.864C48.1624 2.59733 48.3064 2.368 48.4984 2.176C48.6904 1.984 48.9197 1.83467 49.1864 1.728C49.453 1.61067 49.7464 1.552 50.0664 1.552C50.6317 1.552 51.0584 1.68 51.3464 1.936C51.645 2.18133 51.8317 2.49067 51.9064 2.864C51.9917 3.22667 51.9864 3.62133 51.8904 4.048C51.7944 4.47467 51.645 4.86933 51.4424 5.232C51.229 5.56267 50.9997 5.86667 50.7544 6.144C50.509 6.42133 50.2477 6.69867 49.9704 6.976L45.9864 10.976V12H53.9864ZM57.0536 8.384L55.5016 9.024C55.8216 10.1013 56.307 10.8907 56.9576 11.392C57.6083 11.8933 58.4776 12.144 59.5656 12.144C60.1096 12.144 60.6216 12.064 61.1016 11.904C61.5923 11.744 62.019 11.5093 62.3816 11.2C62.7443 10.8907 63.0323 10.5173 63.2456 10.08C63.459 9.632 63.5656 9.12533 63.5656 8.56C63.5656 7.81333 63.3736 7.216 62.9896 6.768C62.6056 6.30933 62.0616 5.97867 61.3576 5.776C62.0403 5.56267 62.5363 5.232 62.8456 4.784C63.155 4.336 63.3096 3.77067 63.3096 3.088C63.3096 2.58667 63.2083 2.14933 63.0056 1.776C62.8136 1.392 62.5523 1.072 62.2216 0.815999C61.9016 0.559999 61.5283 0.367999 61.1016 0.24C60.6856 0.112 60.2536 0.0479994 59.8056 0.0479994C58.707 0.0479994 57.811 0.351999 57.1176 0.959999C56.4243 1.55733 56.003 2.384 55.8536 3.44L57.5976 3.744C57.5763 3.424 57.6136 3.13067 57.7096 2.864C57.8163 2.59733 57.9656 2.368 58.1576 2.176C58.3496 1.984 58.579 1.83467 58.8456 1.728C59.123 1.61067 59.411 1.552 59.7096 1.552C60.2963 1.552 60.755 1.71733 61.0856 2.048C61.427 2.368 61.5976 2.816 61.5976 3.392C61.5976 3.78667 61.5176 4.10667 61.3576 4.352C61.2083 4.59733 61.011 4.79467 60.7656 4.944C60.5203 5.08267 60.2376 5.17867 59.9176 5.232C59.5976 5.28533 59.2723 5.312 58.9416 5.312V6.592C59.3043 6.592 59.6563 6.61333 59.9976 6.656C60.339 6.69867 60.643 6.78933 60.9096 6.928C61.1763 7.06667 61.3896 7.26933 61.5496 7.536C61.7203 7.80267 61.8056 8.16 61.8056 8.608C61.8056 8.91733 61.7416 9.2 61.6136 9.456C61.4963 9.70133 61.331 9.91467 61.1176 10.096C60.915 10.2667 60.675 10.4 60.3976 10.496C60.131 10.592 59.8483 10.64 59.5496 10.64C59.251 10.64 58.9576 10.5813 58.6696 10.464C58.3816 10.336 58.1256 10.1707 57.9016 9.968C57.6776 9.76533 57.4856 9.52533 57.3256 9.248C57.1763 8.97067 57.0856 8.68267 57.0536 8.384ZM73.5449 9.008V7.632H71.9129V0.16H70.2649L64.5849 7.728V9.008H70.3769V12H71.9129V9.008H73.5449ZM70.3769 7.632H66.4889L70.4569 2.176C70.4355 2.38933 70.4142 2.58667 70.3929 2.768C70.3822 2.94933 70.3769 3.13067 70.3769 3.312V7.632ZM74.6281 5.424V6.784H80.0681V5.424H74.6281ZM82.699 9.52L81.787 10.8C81.979 10.9813 82.1977 11.1467 82.443 11.296C82.8163 11.5733 83.2483 11.7813 83.739 11.92C84.2297 12.0587 84.7043 12.128 85.163 12.128C85.7923 12.128 86.3737 12.0267 86.907 11.824C87.4403 11.6213 87.899 11.3387 88.283 10.976C88.667 10.6133 88.9657 10.176 89.179 9.664C89.3923 9.14133 89.499 8.57067 89.499 7.952C89.499 7.36533 89.403 6.85333 89.211 6.416C89.019 5.968 88.7523 5.59467 88.411 5.296C88.0697 4.98667 87.6697 4.75733 87.211 4.608C86.7523 4.448 86.251 4.368 85.707 4.368C85.195 4.368 84.6723 4.42667 84.139 4.544L84.619 1.792H89.115V0.176H83.387L82.427 5.824L83.515 6.128C83.8137 6.04267 84.1123 5.97333 84.411 5.92C84.7203 5.856 85.0297 5.824 85.339 5.824C86.075 5.824 86.6563 6.01067 87.083 6.384C87.5203 6.75733 87.739 7.312 87.739 8.048C87.739 8.41067 87.6803 8.752 87.563 9.072C87.4563 9.38133 87.2963 9.65333 87.083 9.888C86.8803 10.112 86.6243 10.2933 86.315 10.432C86.0057 10.56 85.659 10.624 85.275 10.624C84.795 10.624 84.331 10.5227 83.883 10.32C83.435 10.1067 83.0403 9.84 82.699 9.52ZM98.0063 0.176H95.8143L92.5823 4.496C92.2089 4.99733 91.8783 5.552 91.5903 6.16C91.3129 6.75733 91.1743 7.376 91.1743 8.016C91.1743 8.64533 91.2649 9.216 91.4463 9.728C91.6383 10.2293 91.9049 10.6613 92.2463 11.024C92.5983 11.376 93.0196 11.648 93.5103 11.84C94.0116 12.032 94.5663 12.128 95.1743 12.128C95.7503 12.128 96.2889 12.032 96.7903 11.84C97.2916 11.648 97.7289 11.3813 98.1023 11.04C98.4756 10.688 98.7689 10.272 98.9823 9.792C99.1956 9.312 99.3023 8.784 99.3023 8.208C99.3023 7.696 99.2169 7.22667 99.0463 6.8C98.8863 6.36267 98.6516 5.98933 98.3423 5.68C98.0436 5.36 97.6756 5.11467 97.2383 4.944C96.8116 4.76267 96.3316 4.672 95.7983 4.672C95.1583 4.672 94.5609 4.82667 94.0063 5.136L98.0063 0.176ZM95.1423 10.672C94.4063 10.672 93.8409 10.4533 93.4463 10.016C93.0623 9.568 92.8703 8.99733 92.8703 8.304C92.8703 7.97333 92.9289 7.66933 93.0463 7.392C93.1636 7.11467 93.3236 6.87467 93.5263 6.672C93.7396 6.46933 93.9903 6.30933 94.2783 6.192C94.5663 6.07467 94.8756 6.016 95.2063 6.016C95.9103 6.016 96.4756 6.22933 96.9023 6.656C97.3289 7.072 97.5423 7.632 97.5423 8.336C97.5423 8.688 97.4783 9.008 97.3503 9.296C97.2223 9.57333 97.0516 9.81867 96.8383 10.032C96.6249 10.2347 96.3689 10.3947 96.0703 10.512C95.7823 10.6187 95.4729 10.672 95.1423 10.672ZM108.818 1.424V0.176H100.706V1.792H107.026C106.791 2.05867 106.604 2.34133 106.466 2.64L101.698 12H103.618L108.818 1.424ZM116.109 5.824C116.695 5.6 117.138 5.264 117.437 4.816C117.735 4.35733 117.885 3.81333 117.885 3.184C117.885 2.68267 117.783 2.24 117.581 1.856C117.378 1.46133 117.106 1.13067 116.765 0.863999C116.434 0.597333 116.045 0.394666 115.597 0.256C115.159 0.117333 114.706 0.0479994 114.237 0.0479994C113.767 0.0479994 113.309 0.117333 112.861 0.256C112.423 0.394666 112.034 0.597333 111.693 0.863999C111.362 1.13067 111.095 1.46133 110.893 1.856C110.69 2.24 110.589 2.68267 110.589 3.184C110.589 3.81333 110.738 4.35733 111.037 4.816C111.335 5.264 111.783 5.6 112.381 5.824C111.677 6.03733 111.133 6.384 110.749 6.864C110.375 7.344 110.189 7.95733 110.189 8.704C110.189 9.28 110.295 9.78133 110.509 10.208C110.733 10.6347 111.026 10.992 111.389 11.28C111.762 11.568 112.194 11.7813 112.685 11.92C113.175 12.0587 113.693 12.128 114.237 12.128C114.759 12.128 115.261 12.0587 115.741 11.92C116.231 11.7813 116.663 11.5733 117.037 11.296C117.421 11.0187 117.725 10.6667 117.949 10.24C118.173 9.80267 118.285 9.29067 118.285 8.704C118.285 7.968 118.098 7.36 117.725 6.88C117.351 6.38933 116.813 6.03733 116.109 5.824ZM114.237 1.392C114.781 1.392 115.239 1.552 115.613 1.872C115.986 2.18133 116.173 2.62933 116.173 3.216C116.173 3.83467 115.997 4.31467 115.645 4.656C115.303 4.99733 114.834 5.168 114.237 5.168C113.629 5.168 113.154 5.00267 112.813 4.672C112.471 4.33067 112.301 3.84533 112.301 3.216C112.301 2.64 112.477 2.192 112.829 1.872C113.191 1.552 113.661 1.392 114.237 1.392ZM114.237 10.736C113.586 10.736 113.047 10.5547 112.621 10.192C112.205 9.82933 111.997 9.32267 111.997 8.672C111.997 7.968 112.21 7.44533 112.637 7.104C113.063 6.752 113.597 6.576 114.237 6.576C114.877 6.576 115.41 6.752 115.837 7.104C116.263 7.44533 116.477 7.968 116.477 8.672C116.477 9.01333 116.418 9.312 116.301 9.568C116.183 9.824 116.023 10.0427 115.821 10.224C115.618 10.3947 115.378 10.5227 115.101 10.608C114.834 10.6933 114.546 10.736 114.237 10.736Z" fill="black"/>
</svg>
