<svg width="56" height="15" viewBox="0 0 56 15" fill="none" xmlns="http://www.w3.org/2000/svg">
<path d="M7.50775 7.76H10.9798V11.424H12.6278V0.799999H10.9798V2.928H7.50775C7.16642 2.544 6.75042 2.24 6.25975 2.016C5.77975 1.792 5.23575 1.68 4.62775 1.68C4.09442 1.68 3.59308 1.77067 3.12375 1.952C2.66508 2.13333 2.26508 2.38933 1.92375 2.72C1.59308 3.04 1.33175 3.424 1.13975 3.872C0.94775 4.32 0.85175 4.81067 0.85175 5.344C0.85175 5.87733 0.94775 6.368 1.13975 6.816C1.33175 7.264 1.59308 7.65333 1.92375 7.984C2.26508 8.304 2.66508 8.55467 3.12375 8.736C3.59308 8.91733 4.09442 9.008 4.62775 9.008C5.23575 9.01867 5.77975 8.912 6.25975 8.688C6.75042 8.464 7.16642 8.15467 7.50775 7.76ZM2.41975 5.344C2.41975 5.01333 2.47308 4.71467 2.57975 4.448C2.69708 4.17067 2.85175 3.936 3.04375 3.744C3.24642 3.552 3.48108 3.40267 3.74775 3.296C4.01442 3.18933 4.30775 3.136 4.62775 3.136C4.93708 3.136 5.22508 3.18933 5.49175 3.296C5.75842 3.40267 5.98775 3.552 6.17975 3.744C6.37175 3.936 6.52108 4.17067 6.62775 4.448C6.74508 4.71467 6.80375 5.01333 6.80375 5.344C6.80375 5.67467 6.74508 5.97867 6.62775 6.256C6.52108 6.53333 6.37175 6.77333 6.17975 6.976C5.98775 7.168 5.75842 7.31733 5.49175 7.424C5.22508 7.53067 4.93708 7.584 4.62775 7.584C4.30775 7.584 4.01442 7.53067 3.74775 7.424C3.48108 7.31733 3.24642 7.168 3.04375 6.976C2.85175 6.77333 2.69708 6.53333 2.57975 6.256C2.47308 5.97867 2.41975 5.67467 2.41975 5.344ZM8.21175 4.272H10.9798V6.416H8.21175C8.31842 6.16 8.37175 5.80267 8.37175 5.344C8.37175 4.88533 8.31842 4.528 8.21175 4.272ZM12.9958 13.616H4.91575V10.352H3.26775V14.96H12.9958V13.616Z" fill="black"/>
<path d="M27.5646 9.296H26.0606V1.92H23.9966C23.058 3.14667 22.1353 4.37867 21.2286 5.616C20.322 6.85333 19.3993 8.08533 18.4606 9.312V11.104H24.1246V14H26.0606V11.104H27.5646V9.296ZM24.1246 5.6V9.328H20.6366L24.1566 4.592C24.146 4.80533 24.1353 5.008 24.1246 5.2C24.1246 5.392 24.1246 5.52533 24.1246 5.6ZM28.7119 14.224H31.0479V11.952H28.7119V14.224ZM37.5501 6.56C37.0595 6.56 36.6275 6.624 36.2541 6.752L36.0781 6.832L36.4781 6.448C37.0648 5.70133 37.6461 4.96533 38.2221 4.24C38.7981 3.504 39.3901 2.76267 39.9981 2.016H37.3101L34.0621 6.4C33.6035 7.04 33.2515 7.664 33.0061 8.272C32.7608 8.88 32.6381 9.456 32.6381 10C32.6381 10.64 32.7341 11.2267 32.9261 11.76C33.1288 12.2933 33.4115 12.7467 33.7741 13.12C34.1368 13.4933 34.5741 13.7867 35.0861 14C35.6088 14.2027 36.1955 14.304 36.8461 14.304C37.4861 14.304 38.0728 14.1973 38.6061 13.984C39.1395 13.7707 39.5928 13.4773 39.9661 13.104C40.3395 12.7307 40.6275 12.2987 40.8301 11.808C41.0435 11.3067 41.1501 10.7733 41.1501 10.208C41.1501 9.6 41.0488 9.06667 40.8461 8.608C40.6435 8.14933 40.3768 7.77067 40.0461 7.472C39.7155 7.16267 39.3315 6.93333 38.8941 6.784C38.4675 6.63467 38.0195 6.56 37.5501 6.56ZM34.7501 10.32C34.7501 9.68 34.9368 9.17333 35.3101 8.8C35.6835 8.416 36.1901 8.224 36.8301 8.224C37.4808 8.224 38.0035 8.4 38.3981 8.752C38.8035 9.104 39.0061 9.632 39.0061 10.336C39.0061 10.656 38.9475 10.9493 38.8301 11.216C38.7235 11.4827 38.5688 11.712 38.3661 11.904C38.1635 12.096 37.9288 12.2453 37.6621 12.352C37.4061 12.448 37.1235 12.496 36.8141 12.496C36.1955 12.496 35.6941 12.304 35.3101 11.92C34.9368 11.536 34.7501 11.0027 34.7501 10.32ZM42.2174 4.896V5.04C42.2174 5.49867 42.2867 5.90933 42.4254 6.272C42.564 6.624 42.7614 6.91733 43.0174 7.152C43.2734 7.38667 43.5774 7.568 43.9294 7.696C44.2814 7.81333 44.6654 7.872 45.0814 7.872C45.4974 7.872 45.8814 7.81333 46.2334 7.696C46.596 7.568 46.9054 7.38133 47.1614 7.136C47.428 6.89067 47.636 6.592 47.7854 6.24C47.9347 5.87733 48.0094 5.46133 48.0094 4.992V4.784C48.0094 4.32533 47.9347 3.92533 47.7854 3.584C47.636 3.232 47.428 2.93867 47.1614 2.704C46.9054 2.46933 46.596 2.29333 46.2334 2.176C45.8814 2.05867 45.4974 2 45.0814 2C44.6654 2 44.2814 2.064 43.9294 2.192C43.5774 2.32 43.2734 2.50667 43.0174 2.752C42.7614 2.99733 42.564 3.30133 42.4254 3.664C42.2867 4.016 42.2174 4.42667 42.2174 4.896ZM53.4814 2.08H51.5934L43.8334 14H45.8014L53.4814 2.08ZM46.2334 4.816L46.2174 5.024C46.2174 5.6 46.1267 6.01067 45.9454 6.256C45.7747 6.49067 45.4867 6.608 45.0814 6.608C44.676 6.608 44.3774 6.49067 44.1854 6.256C44.004 6.01067 43.9134 5.6 43.9134 5.024L43.9294 4.752C43.9294 4.208 44.0307 3.81867 44.2334 3.584C44.436 3.34933 44.7347 3.232 45.1294 3.232C45.492 3.232 45.764 3.35467 45.9454 3.6C46.1374 3.83467 46.2334 4.24 46.2334 4.816ZM49.6414 10.8V10.944C49.6414 11.872 49.9027 12.576 50.4254 13.056C50.9587 13.5253 51.6467 13.76 52.4894 13.76C52.9054 13.76 53.2894 13.7013 53.6414 13.584C53.9934 13.456 54.2974 13.2693 54.5534 13.024C54.82 12.7787 55.028 12.48 55.1774 12.128C55.3267 11.7653 55.4014 11.3547 55.4014 10.896V10.688C55.4014 10.2293 55.3267 9.82933 55.1774 9.488C55.028 9.136 54.82 8.848 54.5534 8.624C54.2974 8.38933 53.9934 8.21333 53.6414 8.096C53.2894 7.97867 52.9054 7.92 52.4894 7.92C51.6467 7.92 50.9587 8.16533 50.4254 8.656C49.9027 9.14667 49.6414 9.86133 49.6414 10.8ZM53.6414 10.72L53.6254 10.928C53.6254 11.504 53.5347 11.9093 53.3534 12.144C53.1827 12.3787 52.8947 12.496 52.4894 12.496C52.084 12.496 51.7854 12.3787 51.5934 12.144C51.412 11.9093 51.3214 11.504 51.3214 10.928L51.3374 10.656C51.3374 10.112 51.4387 9.728 51.6414 9.504C51.844 9.26933 52.1427 9.152 52.5374 9.152C52.9 9.152 53.172 9.26933 53.3534 9.504C53.5454 9.73867 53.6414 10.144 53.6414 10.72Z" fill="#D71921"/>
</svg>
