<svg width="27" height="16" viewBox="0 0 27 16" fill="none" xmlns="http://www.w3.org/2000/svg">
<path d="M13.872 7.936V6.88H11.808C12.192 5.072 12.192 3.792 12.192 2.656V1.6H2.496V2.656H10.896C10.896 3.792 10.88 5.088 10.48 6.88H0.832V7.936H13.872ZM12.24 9.888H2.448V14.992H12.24V9.888ZM10.944 13.936H3.728V10.944H10.944V13.936ZM26.5428 15.2V0.815999H25.2308V15.2H26.5428ZM16.9107 10.64V7.296H22.2067V2.16H15.5507V3.232H20.8788V6.224H15.5987V11.728H16.7827C19.2628 11.728 21.4068 11.632 24.0148 11.2L23.8868 10.128C21.3907 10.512 19.2628 10.64 16.9107 10.64Z" fill="black"/>
</svg>
