<svg width="214" height="70" viewBox="0 0 214 70" fill="none" xmlns="http://www.w3.org/2000/svg">
<path d="M20.67 20.71V3.55H17.992V20.71H20.67ZM14.17 17.018L15.548 14.886C14.6467 14.574 13.8407 14.158 13.13 13.638C12.4367 13.1007 11.8473 12.494 11.362 11.818C10.8767 11.1247 10.504 10.388 10.244 9.608C10.0013 8.81067 9.88 7.996 9.88 7.164V4.824H7.15V7.164C7.15 8.03067 7.02 8.88 6.76 9.712C6.51733 10.5267 6.15333 11.2893 5.668 12C5.18267 12.7107 4.576 13.352 3.848 13.924C3.13733 14.496 2.32267 14.9553 1.404 15.302L2.782 17.46C4.186 16.94 5.36467 16.1773 6.318 15.172C7.27133 14.1493 8.01667 12.9793 8.554 11.662C9.05667 12.91 9.776 13.9933 10.712 14.912C11.6653 15.8133 12.818 16.5153 14.17 17.018ZM21.346 24.376H8.034V19.098H5.33V26.56H21.346V24.376ZM45.16 14.938H40.09V11.844C40.9913 11.4453 41.6846 10.96 42.17 10.388C42.6726 9.79867 42.924 9.114 42.924 8.334C42.924 7.64067 42.7246 7.02533 42.326 6.488C41.9446 5.93333 41.39 5.46533 40.662 5.084C39.934 4.70267 39.05 4.41667 38.01 4.226C36.9873 4.018 35.8346 3.914 34.552 3.914C33.2693 3.914 32.108 4.018 31.068 4.226C30.0453 4.41667 29.17 4.70267 28.442 5.084C27.714 5.46533 27.1506 5.93333 26.752 6.488C26.3706 7.02533 26.18 7.64067 26.18 8.334C26.18 9.114 26.4226 9.79867 26.908 10.388C27.3933 10.96 28.078 11.4367 28.962 11.818V14.938H23.918V17.07H45.16V14.938ZM34.552 5.994C36.3373 5.994 37.7153 6.19333 38.686 6.592C39.6566 6.97333 40.142 7.554 40.142 8.334C40.142 9.114 39.6566 9.70333 38.686 10.102C37.7153 10.5007 36.3373 10.7 34.552 10.7C32.7666 10.7 31.38 10.5007 30.392 10.102C29.4213 9.70333 28.936 9.114 28.936 8.334C28.936 7.554 29.4213 6.97333 30.392 6.592C31.38 6.19333 32.7666 5.994 34.552 5.994ZM31.64 14.938V12.546C32.0733 12.6153 32.5326 12.6673 33.018 12.702C33.5206 12.7367 34.032 12.754 34.552 12.754C35.072 12.754 35.566 12.7367 36.034 12.702C36.5193 12.6673 36.9786 12.6153 37.412 12.546V14.938H31.64ZM34.5 18.578C31.9 18.578 29.898 18.942 28.494 19.67C27.1073 20.398 26.414 21.438 26.414 22.79C26.414 23.466 26.596 24.064 26.96 24.584C27.3413 25.104 27.8786 25.546 28.572 25.91C29.2653 26.274 30.106 26.5427 31.094 26.716C32.0993 26.9067 33.2346 27.002 34.5 27.002C37.1173 27.002 39.1193 26.638 40.506 25.91C41.8926 25.182 42.586 24.142 42.586 22.79C42.586 21.438 41.8926 20.398 40.506 19.67C39.1193 18.942 37.1173 18.578 34.5 18.578ZM34.5 24.948C32.7666 24.948 31.4406 24.7747 30.522 24.428C29.6033 24.064 29.144 23.518 29.144 22.79C29.144 22.062 29.6033 21.5247 30.522 21.178C31.4406 20.814 32.7666 20.632 34.5 20.632C36.2333 20.632 37.5593 20.814 38.478 21.178C39.414 21.5247 39.882 22.062 39.882 22.79C39.882 23.518 39.414 24.064 38.478 24.428C37.5593 24.7747 36.2333 24.948 34.5 24.948ZM47.4719 15.224L48.5899 17.356C50.5139 16.9747 52.2299 16.264 53.7379 15.224C55.2459 14.184 56.3899 12.9013 57.1699 11.376C57.9499 12.9013 59.0939 14.1753 60.6019 15.198C62.1273 16.2033 63.8866 16.8967 65.8799 17.278L66.9719 15.146C65.8106 14.9553 64.7186 14.6347 63.6959 14.184C62.6733 13.716 61.7806 13.1527 61.0179 12.494C60.2726 11.818 59.6746 11.0727 59.2239 10.258C58.7906 9.44333 58.5739 8.594 58.5739 7.71V7.658H66.0359V5.5H48.3039V7.658H55.7659V7.71C55.7659 8.594 55.5493 9.452 55.1159 10.284C54.6826 11.0987 54.0846 11.844 53.3219 12.52C52.5766 13.196 51.7013 13.768 50.6959 14.236C49.6906 14.704 48.6159 15.0333 47.4719 15.224ZM67.8299 21.932H58.5479V16.446H55.8439V21.932H46.5619V24.116H67.8299V21.932ZM88.4979 3.498H85.7939V27.002H88.4979V3.498ZM83.9739 8.412V6.254H78.2279V3.55H75.5499V6.254H69.7779V8.412H83.9739ZM78.2279 20.424V18.214C79.5799 18.006 80.6459 17.5293 81.4259 16.784C82.2232 16.0213 82.6219 15.068 82.6219 13.924C82.6219 13.2653 82.4832 12.6673 82.2059 12.13C81.9286 11.5927 81.5386 11.1333 81.0359 10.752C80.5332 10.3707 79.9266 10.076 79.2159 9.868C78.5226 9.66 77.7512 9.556 76.9019 9.556C76.0526 9.556 75.2726 9.66 74.5619 9.868C73.8686 10.076 73.2619 10.3707 72.7419 10.752C72.2392 11.1333 71.8492 11.5927 71.5719 12.13C71.2946 12.6673 71.1559 13.2653 71.1559 13.924C71.1559 15.068 71.5459 16.0213 72.3259 16.784C73.1232 17.5293 74.1979 18.006 75.5499 18.214V20.502C74.4406 20.5367 73.3572 20.5627 72.2999 20.58C71.2426 20.58 70.2459 20.58 69.3099 20.58L69.6479 22.79C70.7226 22.79 71.8579 22.7813 73.0539 22.764C74.2672 22.7467 75.5152 22.7033 76.7979 22.634C78.0979 22.5647 79.4066 22.4693 80.7239 22.348C82.0412 22.2267 83.3499 22.0533 84.6499 21.828L84.4679 19.878C83.4626 20.0167 82.4312 20.1293 81.3739 20.216C80.3339 20.2853 79.2852 20.3547 78.2279 20.424ZM73.7039 13.924C73.7039 13.196 73.9986 12.6327 74.5879 12.234C75.1772 11.818 75.9486 11.61 76.9019 11.61C77.8379 11.61 78.6006 11.818 79.1899 12.234C79.7792 12.6327 80.0739 13.196 80.0739 13.924C80.0739 14.652 79.7792 15.224 79.1899 15.64C78.6006 16.056 77.8379 16.264 76.9019 16.264C75.9486 16.264 75.1772 16.056 74.5879 15.64C73.9986 15.224 73.7039 14.652 73.7039 13.924ZM117.554 14.86H108.272V12.52H115.11V10.362H101.616V6.696H114.954V4.564H98.9643V12.52H105.594V14.86H96.3383V17.044H117.554V14.86ZM106.868 18.474C105.62 18.474 104.494 18.5693 103.488 18.76C102.483 18.9507 101.634 19.228 100.94 19.592C100.247 19.956 99.7097 20.4067 99.3283 20.944C98.9643 21.464 98.7823 22.062 98.7823 22.738C98.7823 23.414 98.9643 24.0207 99.3283 24.558C99.7097 25.0953 100.247 25.546 100.94 25.91C101.634 26.274 102.483 26.5513 103.488 26.742C104.494 26.9327 105.62 27.028 106.868 27.028C109.468 27.028 111.462 26.6553 112.848 25.91C114.252 25.1647 114.954 24.1073 114.954 22.738C114.954 22.062 114.764 21.464 114.382 20.944C114.018 20.4067 113.49 19.956 112.796 19.592C112.103 19.228 111.254 18.9507 110.248 18.76C109.26 18.5693 108.134 18.474 106.868 18.474ZM106.868 24.948C105.135 24.948 103.809 24.766 102.89 24.402C101.972 24.0207 101.512 23.466 101.512 22.738C101.512 22.01 101.972 21.464 102.89 21.1C103.809 20.7187 105.135 20.528 106.868 20.528C108.602 20.528 109.928 20.7187 110.846 21.1C111.782 21.464 112.25 22.01 112.25 22.738C112.25 23.466 111.782 24.0207 110.846 24.402C109.928 24.766 108.602 24.948 106.868 24.948ZM138.248 3.498H135.544V27.028H138.248V3.498ZM126.496 5.162C125.578 5.162 124.728 5.30067 123.948 5.578C123.168 5.85533 122.492 6.24533 121.92 6.748C121.366 7.23333 120.924 7.82267 120.594 8.516C120.282 9.20933 120.126 9.972 120.126 10.804C120.126 11.636 120.282 12.3987 120.594 13.092C120.924 13.7853 121.366 14.3833 121.92 14.886C122.492 15.3713 123.168 15.7527 123.948 16.03C124.728 16.3073 125.578 16.446 126.496 16.446C127.415 16.446 128.264 16.3073 129.044 16.03C129.824 15.7527 130.5 15.3713 131.072 14.886C131.644 14.3833 132.086 13.7853 132.398 13.092C132.728 12.3987 132.892 11.636 132.892 10.804C132.892 9.972 132.728 9.20933 132.398 8.516C132.086 7.82267 131.644 7.23333 131.072 6.748C130.5 6.24533 129.824 5.85533 129.044 5.578C128.264 5.30067 127.415 5.162 126.496 5.162ZM126.496 7.45C127.051 7.45 127.554 7.528 128.004 7.684C128.472 7.84 128.871 8.06533 129.2 8.36C129.53 8.65467 129.79 9.01 129.98 9.426C130.171 9.82467 130.266 10.284 130.266 10.804C130.266 11.3067 130.171 11.766 129.98 12.182C129.79 12.598 129.53 12.9533 129.2 13.248C128.871 13.5427 128.472 13.768 128.004 13.924C127.554 14.08 127.051 14.158 126.496 14.158C125.959 14.158 125.456 14.08 124.988 13.924C124.538 13.768 124.148 13.5427 123.818 13.248C123.489 12.9533 123.229 12.598 123.038 12.182C122.848 11.766 122.752 11.3067 122.752 10.804C122.752 9.764 123.099 8.94933 123.792 8.36C124.503 7.75333 125.404 7.45 126.496 7.45ZM119.034 19.852L119.372 22.062C120.412 22.062 121.53 22.0533 122.726 22.036C123.94 22.0187 125.188 21.9753 126.47 21.906C127.753 21.8367 129.053 21.7327 130.37 21.594C131.705 21.4553 133.022 21.2647 134.322 21.022L134.14 19.072C132.875 19.2627 131.575 19.41 130.24 19.514C128.906 19.618 127.58 19.696 126.262 19.748C124.962 19.8 123.697 19.8347 122.466 19.852C121.236 19.852 120.092 19.852 119.034 19.852ZM162.807 8.568H158.673V10.752H162.807V15.562H165.511V3.524H162.807V8.568ZM158.673 15.432L159.921 13.352C159.071 13.0747 158.3 12.7107 157.607 12.26C156.931 11.8093 156.359 11.3067 155.891 10.752C155.423 10.1973 155.059 9.59933 154.799 8.958C154.556 8.31667 154.435 7.66667 154.435 7.008V6.748H159.349V4.59H146.791V6.748H151.731V6.982C151.731 7.67533 151.601 8.36867 151.341 9.062C151.081 9.75533 150.699 10.414 150.197 11.038C149.711 11.6447 149.113 12.1993 148.403 12.702C147.709 13.1873 146.912 13.5773 146.011 13.872L147.311 15.952C148.715 15.5013 149.902 14.834 150.873 13.95C151.843 13.0487 152.589 12 153.109 10.804C153.611 11.8613 154.331 12.7973 155.267 13.612C156.22 14.4093 157.355 15.016 158.673 15.432ZM166.291 24.662H152.901V22.582H165.511V16.628H150.223V18.734H162.859V20.606H150.249V26.768H166.291V24.662ZM190.521 15.146V12.936H186.855V3.498H184.177V27.002H186.855V15.146H190.521ZM176.793 10.986V9.634H181.759V7.476H176.793V3.992H174.115V7.476H169.071V9.634H174.115V10.986C174.115 11.9393 173.976 12.8927 173.699 13.846C173.439 14.7993 173.057 15.7007 172.555 16.55C172.069 17.382 171.471 18.1447 170.761 18.838C170.05 19.514 169.244 20.0687 168.343 20.502L169.825 22.556C171.177 21.932 172.329 21.0133 173.283 19.8C174.236 18.5867 174.973 17.2173 175.493 15.692C175.978 17.1133 176.671 18.396 177.573 19.54C178.491 20.6667 179.583 21.5333 180.849 22.14L182.331 20.086C181.464 19.67 180.684 19.1327 179.991 18.474C179.315 17.798 178.734 17.0613 178.249 16.264C177.781 15.4493 177.417 14.5913 177.157 13.69C176.914 12.7887 176.793 11.8873 176.793 10.986ZM213.035 15.016V12.78H209.473V3.498H206.795V26.976H209.473V15.016H213.035ZM203.337 5.994H192.443V8.178H200.659C200.121 13.5513 196.993 17.7113 191.273 20.658L192.755 22.712C194.679 21.7413 196.308 20.6493 197.643 19.436C198.977 18.2053 200.069 16.8793 200.919 15.458C201.768 14.0367 202.383 12.5287 202.765 10.934C203.146 9.33933 203.337 7.69267 203.337 5.994Z" fill="black"/>
<path d="M18.902 40.732V46.972H13.702V48.142H18.902V54.486H20.28V40.732H18.902ZM14.196 53.472L14.898 52.38C11.752 51.262 9.074 48.298 9.074 45.178V43.748H14.482V42.578H2.21V43.748H7.722V45.204C7.722 48.74 4.914 51.808 1.716 53.056L2.418 54.174C5.148 53.056 7.514 50.794 8.45 47.856C9.386 50.43 11.596 52.458 14.196 53.472ZM12.818 55.344C8.112 55.344 5.252 56.852 5.252 59.556C5.252 62.26 8.112 63.768 12.818 63.768C17.498 63.768 20.384 62.26 20.384 59.556C20.384 56.852 17.498 55.344 12.818 55.344ZM12.818 62.65C9.048 62.65 6.63 61.532 6.63 59.556C6.63 57.58 9.048 56.462 12.818 56.462C16.588 56.462 19.032 57.606 19.032 59.556C19.032 61.506 16.588 62.65 12.818 62.65ZM45.498 48.246V47.05H41.884V40.706H40.506V54.954H41.884V48.246H45.498ZM36.528 53.082L37.282 51.99C34.136 50.794 31.38 47.83 31.38 44.476V41.85H30.054V44.424C30.054 48.168 27.428 51.288 24.152 52.614L24.88 53.732C27.61 52.614 29.82 50.326 30.782 47.336C31.692 49.962 33.98 52.042 36.528 53.082ZM34.604 55.656C29.898 55.656 27.168 57.112 27.168 59.712C27.168 62.312 29.898 63.742 34.604 63.742C39.31 63.742 42.066 62.312 42.066 59.712C42.066 57.112 39.31 55.656 34.604 55.656ZM34.604 62.624C30.912 62.624 28.52 61.48 28.52 59.712C28.52 57.918 30.912 56.774 34.604 56.774C38.322 56.774 40.714 57.918 40.714 59.712C40.714 61.48 38.322 62.624 34.604 62.624ZM69.9536 63.82V40.732H68.5756V50.196H63.0636V51.392H68.5756V63.82H69.9536ZM58.7476 48.35V46.036H64.1816V44.866H58.7736V41.07H57.3956V44.866H51.8836V46.036H57.4216V48.35C57.4216 52.588 54.5096 56.644 51.3376 58.152L52.1696 59.244C54.7956 57.814 57.0836 55.058 58.0976 51.522C59.0596 54.824 61.5036 57.528 64.0776 58.776L64.9096 57.71C61.7376 56.254 58.7476 52.406 58.7476 48.35ZM92.5456 63.846V40.732H91.1676V63.846H92.5456ZM77.0236 56.956H76.5556V50.794H85.6556V42.968H75.0996V44.164H84.3036V49.624H75.1776V58.126H77.0236C80.8196 58.126 84.3816 57.97 88.8016 57.268L88.6716 56.098C84.2776 56.8 80.7676 56.956 77.0236 56.956ZM114.93 63.846V40.732H113.552V63.846H114.93ZM104.738 57.164V52.198H110.068V51.028H99.7715V44.164H109.964V42.968H98.3935V52.198H103.36V57.216C100.968 57.294 98.6275 57.32 96.5475 57.32L96.7815 58.542C101.202 58.542 106.974 58.386 112.018 57.632L111.914 56.618C109.6 56.904 107.156 57.06 104.738 57.164ZM131.074 47.934H136.456V54.018H137.834V40.706H136.456V46.764H131.048C130.71 43.956 128.422 42.084 125.276 42.084C121.922 42.084 119.478 44.242 119.478 47.44C119.478 50.56 121.922 52.744 125.276 52.744C128.5 52.744 130.788 50.768 131.074 47.934ZM125.276 43.254C127.876 43.254 129.774 45.048 129.774 47.44C129.774 49.806 127.876 51.574 125.276 51.574C122.702 51.574 120.804 49.806 120.804 47.44C120.804 45.048 122.702 43.254 125.276 43.254ZM135.13 56.566V54.928H133.804V56.566C133.804 58.36 132.478 60.96 130.138 62.338C127.772 61.09 126.524 58.75 126.524 56.566V54.928H125.224V56.566C125.224 58.776 123.196 61.35 120.362 62.468L121.064 63.534C123.352 62.624 125.016 60.96 125.822 58.984C126.472 61.064 127.876 62.806 130.164 63.716C132.348 62.702 133.752 60.804 134.454 58.906C135.26 60.908 136.898 62.624 139.29 63.534L139.992 62.468C137.106 61.428 135.13 58.932 135.13 56.566ZM160.685 49.494L161.231 48.376C157.799 47.856 152.781 45.412 152.781 42.214V40.966H151.377V42.214C151.377 45.438 146.437 47.882 142.927 48.376L143.473 49.494C146.749 48.948 150.675 47.102 152.079 44.242C153.483 47.05 157.409 48.948 160.685 49.494ZM162.505 52.666V51.496H141.627V52.666H162.505ZM159.723 54.538H158.371V57.71H145.761V54.538H144.409V63.456H159.723V54.538ZM145.761 58.828H158.371V62.312H145.761V58.828ZM182.939 63.82V40.732H181.561V63.82H182.939ZM167.677 56.488H167.235V42.994H165.883V57.71H167.677C171.447 57.71 174.931 57.398 179.013 56.566L178.805 55.37C174.827 56.202 171.343 56.488 167.677 56.488ZM204.439 51.366H208.495V50.196H204.439V40.732H203.061V63.846H204.439V51.366ZM189.671 56.748H189.307V44.19H198.615V43.02H187.929V57.944H189.671C194.195 57.944 197.133 57.814 200.747 57.112L200.565 55.916C197.107 56.54 194.143 56.748 189.671 56.748Z" fill="black"/>
</svg>
