<svg width="20" height="13" viewBox="0 0 20 13" fill="none" xmlns="http://www.w3.org/2000/svg">
<path fill-rule="evenodd" clip-rule="evenodd" d="M18.8677 0H17.7353C17.1099 0 16.603 0.506972 16.603 1.13235V10.9461C16.603 11.5715 17.1099 12.0784 17.7353 12.0784H18.8677C19.4931 12.0784 20 11.5715 20 10.9461V1.13235C20 0.506972 19.4931 0 18.8677 0ZM12.451 2.64222H13.5834C14.2087 2.64222 14.7157 3.1492 14.7157 3.77458V10.9461C14.7157 11.5715 14.2087 12.0785 13.5834 12.0785H12.451C11.8256 12.0785 11.3187 11.5715 11.3187 10.9461V3.77458C11.3187 3.1492 11.8256 2.64222 12.451 2.64222ZM8.29903 5.2842H7.16668C6.5413 5.2842 6.03433 5.79117 6.03433 6.41655V10.946C6.03433 11.5713 6.5413 12.0783 7.16668 12.0783H8.29903C8.92441 12.0783 9.43139 11.5713 9.43139 10.946V6.41655C9.43139 5.79117 8.92441 5.2842 8.29903 5.2842ZM3.01471 7.54897H1.88235C1.25697 7.54897 0.75 8.05594 0.75 8.68132V10.946C0.75 11.5714 1.25697 12.0784 1.88235 12.0784H3.01471C3.64009 12.0784 4.14706 11.5714 4.14706 10.946V8.68132C4.14706 8.05594 3.64009 7.54897 3.01471 7.54897Z" fill="black"/>
</svg>
