<svg width="83" height="17" viewBox="0 0 83 17" fill="none" xmlns="http://www.w3.org/2000/svg">
<path d="M4.93554 15.234C5.65554 15.234 6.30354 15.132 6.87954 14.928C7.45554 14.724 7.94154 14.448 8.33754 14.1C8.74554 13.752 9.05754 13.344 9.27354 12.876C9.48954 12.408 9.59754 11.91 9.59754 11.382C9.59754 10.89 9.53154 10.464 9.39954 10.104C9.26754 9.732 9.08154 9.402 8.84154 9.114C8.60154 8.826 8.31354 8.58 7.97754 8.376C7.65354 8.16 7.29354 7.968 6.89754 7.8L5.07954 7.026C4.81554 6.918 4.55154 6.81 4.28754 6.702C4.03554 6.582 3.80754 6.444 3.60354 6.288C3.41154 6.132 3.24954 5.958 3.11754 5.766C2.99754 5.562 2.93754 5.316 2.93754 5.028C2.93754 4.488 3.13554 4.068 3.53154 3.768C3.93954 3.468 4.48554 3.318 5.16954 3.318C5.75754 3.318 6.28554 3.426 6.75354 3.642C7.22154 3.846 7.66554 4.134 8.08554 4.506L9.18354 3.174C8.67954 2.658 8.07954 2.25 7.38354 1.95C6.69954 1.65 5.96154 1.5 5.16954 1.5C4.54554 1.5 3.96354 1.596 3.42354 1.788C2.89554 1.968 2.43354 2.22 2.03754 2.544C1.65354 2.868 1.35354 3.252 1.13754 3.696C0.92154 4.14 0.81354 4.626 0.81354 5.154C0.81354 5.634 0.89154 6.06 1.04754 6.432C1.21554 6.804 1.42554 7.134 1.67754 7.422C1.94154 7.698 2.22954 7.938 2.54154 8.142C2.86554 8.334 3.18954 8.496 3.51354 8.628L5.34954 9.42C5.66154 9.552 5.94354 9.684 6.19554 9.816C6.45954 9.936 6.68754 10.074 6.87954 10.23C7.07154 10.386 7.21554 10.572 7.31154 10.788C7.41954 10.992 7.47354 11.244 7.47354 11.544C7.47354 12.12 7.25754 12.576 6.82554 12.912C6.39354 13.248 5.77554 13.416 4.97154 13.416C4.32354 13.416 3.69354 13.278 3.08154 13.002C2.46954 12.714 1.92354 12.33 1.44354 11.85L0.21954 13.29C0.83154 13.902 1.53954 14.382 2.34354 14.73C3.15954 15.066 4.02354 15.234 4.93554 15.234ZM11.2247 1.752V15H13.0967V8.448C13.0967 8.148 13.0847 7.824 13.0607 7.476C13.0487 7.128 13.0307 6.774 13.0067 6.414C12.9827 6.042 12.9527 5.682 12.9167 5.334C12.8927 4.974 12.8687 4.644 12.8447 4.344H12.9167L13.9607 7.404L16.2827 13.722H17.5787L19.8827 7.404L20.9447 4.344H21.0167C20.9927 4.644 20.9627 4.974 20.9267 5.334C20.9027 5.682 20.8727 6.042 20.8367 6.414C20.8127 6.774 20.7887 7.128 20.7647 7.476C20.7527 7.824 20.7467 8.148 20.7467 8.448V15H22.6907V1.752H20.2787L17.8847 8.448C17.7287 8.892 17.5847 9.336 17.4527 9.78C17.3207 10.224 17.1767 10.674 17.0207 11.13H16.9307C16.7747 10.674 16.6247 10.224 16.4807 9.78C16.3487 9.336 16.2047 8.892 16.0487 8.448L13.6187 1.752H11.2247ZM29.0281 15.234C29.7481 15.234 30.3961 15.132 30.9721 14.928C31.5481 14.724 32.0341 14.448 32.4301 14.1C32.8381 13.752 33.1501 13.344 33.3661 12.876C33.5821 12.408 33.6901 11.91 33.6901 11.382C33.6901 10.89 33.6241 10.464 33.4921 10.104C33.3601 9.732 33.1741 9.402 32.9341 9.114C32.6941 8.826 32.4061 8.58 32.0701 8.376C31.7461 8.16 31.3861 7.968 30.9901 7.8L29.1721 7.026C28.9081 6.918 28.6441 6.81 28.3801 6.702C28.1281 6.582 27.9001 6.444 27.6961 6.288C27.5041 6.132 27.3421 5.958 27.2101 5.766C27.0901 5.562 27.0301 5.316 27.0301 5.028C27.0301 4.488 27.2281 4.068 27.6241 3.768C28.0321 3.468 28.5781 3.318 29.2621 3.318C29.8501 3.318 30.3781 3.426 30.8461 3.642C31.3141 3.846 31.7581 4.134 32.1781 4.506L33.2761 3.174C32.7721 2.658 32.1721 2.25 31.4761 1.95C30.7921 1.65 30.0541 1.5 29.2621 1.5C28.6381 1.5 28.0561 1.596 27.5161 1.788C26.9881 1.968 26.5261 2.22 26.1301 2.544C25.7461 2.868 25.4461 3.252 25.2301 3.696C25.0141 4.14 24.9061 4.626 24.9061 5.154C24.9061 5.634 24.9841 6.06 25.1401 6.432C25.3081 6.804 25.5181 7.134 25.7701 7.422C26.0341 7.698 26.3221 7.938 26.6341 8.142C26.9581 8.334 27.2821 8.496 27.6061 8.628L29.4421 9.42C29.7541 9.552 30.0361 9.684 30.2881 9.816C30.5521 9.936 30.7801 10.074 30.9721 10.23C31.1641 10.386 31.3081 10.572 31.4041 10.788C31.5121 10.992 31.5661 11.244 31.5661 11.544C31.5661 12.12 31.3501 12.576 30.9181 12.912C30.4861 13.248 29.8681 13.416 29.0641 13.416C28.4161 13.416 27.7861 13.278 27.1741 13.002C26.5621 12.714 26.0161 12.33 25.5361 11.85L24.3121 13.29C24.9241 13.902 25.6321 14.382 26.4361 14.73C27.2521 15.066 28.1161 15.234 29.0281 15.234ZM52.3387 12.876H45.8767V9.6H50.6467V1.212H48.8107V3.948H41.1067V1.212H39.2707V9.6H44.0227V12.876H37.6147V14.406H52.3387V12.876ZM41.1067 8.106V5.442H48.8107V8.106H41.1067ZM67.0973 0.131999H65.3333V6.594H63.4073V0.455999H61.6613V15.576H63.4073V8.124H65.3333V16.386H67.0973V0.131999ZM55.8473 10.698V2.004H53.9933V12.282H55.0733C55.9373 12.282 56.8373 12.252 57.7733 12.192C58.7093 12.132 59.7233 12 60.8153 11.796L60.6173 10.212C59.7173 10.38 58.8773 10.5 58.0973 10.572C57.3173 10.632 56.5673 10.674 55.8473 10.698ZM82.3419 0.131999H80.4879V16.386H82.3419V0.131999ZM77.5539 1.842H69.8499V3.354H75.6459C75.4899 5.226 74.8839 6.882 73.8279 8.322C72.7719 9.75 71.1759 10.98 69.0399 12.012L70.0299 13.488C71.4219 12.816 72.5979 12.06 73.5579 11.22C74.5179 10.368 75.2919 9.45 75.8799 8.466C76.4799 7.482 76.9059 6.438 77.1579 5.334C77.4219 4.218 77.5539 3.054 77.5539 1.842Z" fill="white"/>
</svg>
