<svg width="276" height="35" viewBox="0 0 276 35" fill="none" xmlns="http://www.w3.org/2000/svg">
<path d="M11.4443 11.426V10.488H6.32031V7.786H10.0723V1.374H8.95231V3.614H2.54031V1.374H1.40631V7.786H5.15831V10.488H0.0623125V11.426H11.4443ZM8.95231 6.862H2.54031V4.552H8.95231V6.862ZM22.5172 13.064V0.478H21.3692V13.064H22.5172ZM15.8952 1.444C14.0332 1.444 12.7032 3.152 12.7032 5.826C12.7032 8.5 14.0332 10.208 15.8952 10.208C17.7572 10.208 19.0872 8.5 19.0872 5.826C19.0872 3.152 17.7572 1.444 15.8952 1.444ZM15.8952 2.48C17.1132 2.48 17.9812 3.796 17.9812 5.826C17.9812 7.87 17.1132 9.186 15.8952 9.186C14.6632 9.186 13.7952 7.87 13.7952 5.826C13.7952 3.796 14.6632 2.48 15.8952 2.48ZM34.7241 7.744L35.2421 6.792C33.0441 6.386 30.6641 4.454 30.6641 2.326V1.36H29.4601V2.326C29.4601 4.482 27.0801 6.344 24.8961 6.792L25.4141 7.744C27.2901 7.296 29.2781 5.952 30.0621 4.118C30.8461 5.966 32.8201 7.296 34.7241 7.744ZM35.8021 11.356V10.404H24.4201V11.356H35.8021ZM46.903 13.036V0.492H45.755V13.036H46.903ZM42.619 8.794V2.76H44.019V1.836H36.907V2.76H38.307V8.948C38.013 8.962 37.719 8.962 37.439 8.962H36.599L36.725 9.928C39.007 9.928 42.045 9.9 44.733 9.452L44.663 8.612C44.005 8.71 43.333 8.752 42.619 8.794ZM39.413 8.934V2.76H41.513V8.864C40.799 8.906 40.099 8.92 39.413 8.934ZM57.9339 7.982H59.0819V0.492H57.9339V7.982ZM55.7919 7.212L56.3659 6.302C54.5039 5.672 53.2019 4.062 53.2019 2.27V1.038H52.0539V2.27C52.0539 4.16 50.7799 5.924 48.8899 6.624L49.4779 7.534C50.9899 6.974 52.0959 5.784 52.6419 4.272C53.2159 5.63 54.3359 6.694 55.7919 7.212ZM54.9379 8.276C52.3059 8.276 50.7239 9.13 50.7239 10.642C50.7239 12.14 52.3059 13.008 54.9379 13.008C57.5139 13.008 59.1379 12.14 59.1379 10.642C59.1379 9.13 57.5139 8.276 54.9379 8.276ZM54.9379 12.098C53.0199 12.098 51.8579 11.552 51.8579 10.642C51.8579 9.69 53.0199 9.172 54.9379 9.172C56.8559 9.172 57.9899 9.69 57.9899 10.642C57.9899 11.552 56.8559 12.098 54.9379 12.098ZM74.9937 4.594V3.642H73.1317V0.478H71.9837V8.038H73.1317V4.594H74.9937ZM63.9057 7.058H69.7157V1.276H68.5957V3.166H65.0397V1.276H63.9057V7.058ZM65.0397 4.062H68.5957V6.134H65.0397V4.062ZM69.1417 8.36C66.5797 8.36 64.9977 9.2 64.9977 10.698C64.9977 12.196 66.5797 13.036 69.1417 13.036C71.6757 13.036 73.2717 12.196 73.2717 10.698C73.2717 9.2 71.6757 8.36 69.1417 8.36ZM69.1417 12.126C67.2237 12.126 66.1457 11.594 66.1457 10.698C66.1457 9.802 67.2237 9.284 69.1417 9.284C71.0037 9.284 72.1237 9.802 72.1237 10.698C72.1237 11.594 71.0037 12.126 69.1417 12.126ZM85.8426 13.036V0.492H84.6946V13.036H85.8426ZM80.0466 4.314V2.718H83.0006V1.766H75.9866V2.718H78.8986V4.314C78.8986 6.484 77.3726 8.836 75.5666 9.704L76.2386 10.628C77.6386 9.928 78.9126 8.304 79.4726 6.484C80.0746 8.206 81.3066 9.648 82.7626 10.32L83.4066 9.396C81.5586 8.612 80.0466 6.442 80.0466 4.314ZM89.1735 1.654H96.5375V2.676H89.2015V5.364H97.8955V4.538H90.3355V3.46H97.6715V0.841999H89.1735V1.654ZM99.1275 7.184V6.316H87.7455V7.184H99.1275ZM98.1055 12.042H90.2655V10.88H97.7135V8.206H89.1035V9.032H96.5795V10.082H89.1315V12.868H98.1055V12.042ZM113.709 7.772V6.848H108.613V5.252H112.253V0.996H103.811V5.252H107.465V6.848H102.341V7.772H113.709ZM111.119 4.342H104.931V1.906H111.119V4.342ZM112.309 9.074H103.615V9.998H111.161V13.05H112.309V9.074ZM124.866 7.996V0.478H123.718V3.754H121.268V4.692H123.718V7.996H124.866ZM121.366 7.506L121.94 6.61C120.12 5.98 118.888 4.384 118.888 2.774V2.27H121.646V1.332H114.94V2.27H117.74V2.774C117.74 4.566 116.438 6.218 114.576 6.89L115.178 7.8C116.648 7.254 117.782 6.12 118.328 4.664C118.888 5.966 119.966 7.002 121.366 7.506ZM124.866 8.682H116.48V9.606H123.718V13.05H124.866V8.682ZM132.383 1.262C129.779 1.262 127.819 2.662 127.819 4.734C127.819 6.834 129.779 8.206 132.383 8.206C134.987 8.206 136.947 6.834 136.947 4.734C136.947 2.662 134.987 1.262 132.383 1.262ZM132.383 2.2C134.357 2.2 135.855 3.222 135.855 4.734C135.855 6.26 134.357 7.268 132.383 7.268C130.409 7.268 128.911 6.26 128.911 4.734C128.911 3.222 130.409 2.2 132.383 2.2ZM138.109 11.37V10.418H126.699V11.37H138.109ZM150.288 11.482V10.544H145.15V8.178H149.168V7.254H141.44V5.224H148.874V1.402H140.278V2.34H147.754V4.3H140.306V8.178H143.988V10.544H138.878V11.482H150.288ZM154.958 5.476H163.4V1.066H154.958V5.476ZM156.078 1.99H162.266V4.552H156.078V1.99ZM164.884 7.828V6.904H153.474V7.828H158.696V10.362H159.844V7.828H164.884ZM163.61 11.818H156.078V9.172H154.93V12.756H163.61V11.818ZM175.341 6.512H177.413V5.546H175.341V0.492H174.193V13.036H175.341V6.512ZM169.909 4.314V2.718H172.695V1.766H165.905V2.718H168.775V4.314C168.775 6.442 167.263 8.822 165.471 9.718L166.143 10.628C167.543 9.928 168.789 8.29 169.349 6.47C169.909 8.15 171.099 9.606 172.499 10.32L173.157 9.396C171.337 8.542 169.909 6.316 169.909 4.314ZM187.016 9.662H188.164V0.492H187.016V9.662ZM184.706 4.44C184.706 2.634 183.278 1.36 181.416 1.36C179.554 1.36 178.154 2.634 178.154 4.44C178.154 6.26 179.554 7.548 181.416 7.548C183.278 7.548 184.706 6.26 184.706 4.44ZM179.274 4.44C179.274 3.222 180.184 2.354 181.416 2.354C182.662 2.354 183.586 3.222 183.586 4.44C183.586 5.686 182.662 6.554 181.416 6.554C180.184 6.554 179.274 5.686 179.274 4.44ZM188.542 12.756V11.818H181.234V8.724H180.086V12.756H188.542ZM190.682 4.776L191.088 5.686C193.132 5.42 195.022 4.524 195.722 3.152C196.394 4.538 198.298 5.42 200.356 5.686L200.762 4.776C198.564 4.552 196.506 3.432 196.464 2.046H200.37V1.122H191.088V2.046H194.98C194.91 3.432 192.936 4.552 190.682 4.776ZM201.392 7.38V6.456H190.038V7.38H201.392ZM195.708 8.472C193.02 8.472 191.41 9.284 191.41 10.74C191.41 12.21 193.02 13.022 195.708 13.022C198.382 13.022 200.006 12.21 200.006 10.74C200.006 9.284 198.382 8.472 195.708 8.472ZM195.708 12.112C193.734 12.112 192.572 11.636 192.572 10.74C192.572 9.844 193.734 9.368 195.708 9.368C197.682 9.368 198.844 9.844 198.844 10.74C198.844 11.636 197.682 12.112 195.708 12.112ZM207.887 5.042C210.645 5.042 212.297 4.286 212.297 2.872C212.297 1.458 210.645 0.688 207.887 0.688C205.129 0.688 203.477 1.458 203.477 2.872C203.477 4.286 205.129 5.042 207.887 5.042ZM207.887 1.556C209.973 1.556 211.121 2.032 211.121 2.872C211.121 3.712 209.973 4.188 207.887 4.188C205.801 4.188 204.653 3.712 204.653 2.872C204.653 2.032 205.801 1.556 207.887 1.556ZM213.571 6.82V5.896H202.203V6.82H213.571ZM212.493 12H204.737V10.726H212.115V7.898H203.575V8.766H210.981V9.886H203.617V12.896H212.493V12ZM225.983 9.676H227.131V0.492H225.983V9.676ZM223.939 7.884L224.499 6.974C222.651 6.372 221.349 4.818 221.349 3.138V2.452H224.191V1.528H217.303V2.452H220.173V3.138C220.173 4.944 218.899 6.554 216.995 7.226L217.597 8.122C219.109 7.576 220.229 6.484 220.775 5.028C221.349 6.372 222.483 7.38 223.939 7.884ZM227.509 12.756V11.818H220.201V8.808H219.053V12.756H227.509ZM235.81 7.982H236.902V4.832H238.498V8.43H239.604V0.478H238.498V3.894H236.902V0.729999H235.81V7.982ZM228.936 2.886H235.32V1.976H232.702V0.575999H231.568V1.976H228.936V2.886ZM234.816 5.686C234.816 4.398 233.724 3.544 232.142 3.544C230.56 3.544 229.454 4.398 229.454 5.686C229.454 6.988 230.56 7.842 232.142 7.842C233.724 7.842 234.816 6.988 234.816 5.686ZM230.49 5.686C230.49 4.902 231.134 4.398 232.142 4.398C233.15 4.398 233.794 4.902 233.794 5.686C233.794 6.47 233.15 6.988 232.142 6.988C231.134 6.988 230.49 6.47 230.49 5.686ZM235.474 8.64C232.856 8.64 231.274 9.438 231.274 10.838C231.274 12.238 232.856 13.022 235.474 13.022C238.092 13.022 239.674 12.238 239.674 10.838C239.674 9.438 238.092 8.64 235.474 8.64ZM235.474 12.14C233.556 12.14 232.408 11.678 232.408 10.838C232.408 9.998 233.556 9.522 235.474 9.522C237.392 9.522 238.526 9.998 238.526 10.838C238.526 11.678 237.392 12.14 235.474 12.14ZM250.859 6.61H252.917V5.644H250.859V0.492H249.711V13.036H250.859V6.61ZM248.521 2.494H245.427V0.631999H244.279V2.494H241.115V3.418H248.521V2.494ZM244.867 4.454C243.103 4.454 241.829 5.672 241.829 7.352C241.829 9.074 243.103 10.236 244.867 10.236C246.659 10.236 247.933 9.074 247.933 7.352C247.933 5.672 246.659 4.454 244.867 4.454ZM244.867 9.284C243.733 9.284 242.907 8.472 242.907 7.352C242.907 6.232 243.733 5.406 244.867 5.406C246.029 5.406 246.841 6.232 246.841 7.352C246.841 8.472 246.029 9.284 244.867 9.284ZM264.76 11.426V10.474H259.622V7.856C261.96 7.702 263.598 6.428 263.598 4.594C263.598 2.592 261.694 1.304 259.048 1.304C256.402 1.304 254.47 2.592 254.47 4.594C254.47 6.428 256.122 7.702 258.46 7.856V10.474H253.35V11.426H264.76ZM255.576 4.594C255.576 3.152 257.032 2.214 259.048 2.214C261.05 2.214 262.506 3.152 262.506 4.594C262.506 6.036 261.05 6.974 259.048 6.974C257.032 6.974 255.576 6.036 255.576 4.594ZM275.833 13.022V0.478H274.685V13.022H275.833ZM267.475 8.808V1.696H266.327V9.788H267.363C269.379 9.788 271.325 9.648 273.523 9.2L273.397 8.22C271.311 8.654 269.393 8.808 267.475 8.808ZM29.9367 26.252V25.3H28.0747V21.478H26.9267V30.718H28.0747V26.252H29.9367ZM25.1207 25.454C25.1207 23.62 23.7207 22.36 21.8447 22.36C19.9687 22.36 18.5687 23.62 18.5687 25.454C18.5687 27.288 19.9687 28.548 21.8447 28.548C23.7207 28.548 25.1207 27.288 25.1207 25.454ZM19.6887 25.454C19.6887 24.222 20.6127 23.354 21.8447 23.354C23.0767 23.354 24.0007 24.222 24.0007 25.454C24.0007 26.686 23.0767 27.554 21.8447 27.554C20.6127 27.554 19.6887 26.686 19.6887 25.454ZM28.6347 32.818H21.4107V29.78H20.2627V33.756H28.6347V32.818ZM40.8136 28.632V21.492H39.6656V28.632H40.8136ZM37.5376 28.072L38.1116 27.162C36.2636 26.56 34.9336 25.006 34.9336 23.2V21.982H33.7856V23.2C33.7856 25.034 32.4976 26.742 30.5936 27.414L31.1816 28.31C32.6936 27.764 33.8276 26.602 34.3736 25.146C34.9476 26.504 36.0816 27.568 37.5376 28.072ZM40.8136 29.346H32.6936V33.868H40.8136V29.346ZM39.6936 32.944H33.8136V30.256H39.6936V32.944ZM52.3625 27.61H54.4205V26.644H52.3625V21.492H51.2145V34.036H52.3625V27.61ZM50.0245 23.494H46.9305V21.632H45.7825V23.494H42.6185V24.418H50.0245V23.494ZM46.3705 25.454C44.6065 25.454 43.3325 26.672 43.3325 28.352C43.3325 30.074 44.6065 31.236 46.3705 31.236C48.1625 31.236 49.4365 30.074 49.4365 28.352C49.4365 26.672 48.1625 25.454 46.3705 25.454ZM46.3705 30.284C45.2365 30.284 44.4105 29.472 44.4105 28.352C44.4105 27.232 45.2365 26.406 46.3705 26.406C47.5325 26.406 48.3445 27.232 48.3445 28.352C48.3445 29.472 47.5325 30.284 46.3705 30.284ZM65.1434 34.064V21.478H63.9954V34.064H65.1434ZM59.3194 24.824V22.57H58.1854V24.824C58.1854 27.232 56.6454 29.598 54.8114 30.494L55.5114 31.432C56.9814 30.648 58.1854 29.136 58.7594 27.218C59.3614 29.024 60.5374 30.48 61.9934 31.194L62.6794 30.27C60.8314 29.444 59.3194 27.12 59.3194 24.824ZM68.2503 23.676H75.9083V23.984C75.9083 25.482 75.9223 27.274 75.4323 29.668L76.5803 29.794C77.0703 27.26 77.0563 25.552 77.0563 23.984V22.738H68.2503V23.676ZM78.4143 32.272V31.334H72.6183V26.84H71.4703V31.334H67.0603V32.272H78.4143ZM92.3241 34.022V21.478H91.2321V34.022H92.3241ZM89.8321 21.758H88.7401V26.21H86.8781V22.934H82.1041V30.662H86.8781V27.162H88.7401V33.406H89.8321V21.758ZM83.1821 23.844H85.8141V29.752H83.1821V23.844ZM104.111 34.064V21.478H102.963V34.064H104.111ZM98.287 24.824V22.57H97.153V24.824C97.153 27.232 95.613 29.598 93.779 30.494L94.479 31.432C95.949 30.648 97.153 29.136 97.727 27.218C98.329 29.024 99.505 30.48 100.961 31.194L101.647 30.27C99.799 29.444 98.287 27.12 98.287 24.824ZM116.29 34.036V21.492H115.142V34.036H116.29ZM110.494 25.314V23.718H113.448V22.766H106.434V23.718H109.346V25.314C109.346 27.484 107.82 29.836 106.014 30.704L106.686 31.628C108.086 30.928 109.36 29.304 109.92 27.484C110.522 29.206 111.754 30.648 113.21 31.32L113.854 30.396C112.006 29.612 110.494 27.442 110.494 25.314ZM131.978 29.276V28.338H126.882V26.994H130.494V21.982H129.36V23.564H123.256V21.982H122.122V26.994H125.734V28.338H120.61V29.276H131.978ZM129.36 26.07H123.256V24.46H129.36V26.07ZM130.718 32.818H123.228V30.284H122.08V33.756H130.718V32.818ZM134.259 26.476H142.701V22.066H134.259V26.476ZM135.379 22.99H141.567V25.552H135.379V22.99ZM144.185 28.828V27.904H132.775V28.828H137.997V31.362H139.145V28.828H144.185ZM142.911 32.818H135.379V30.172H134.231V33.756H142.911V32.818ZM148.644 23.746H156.12V24.068C156.12 25.622 156.12 27.498 155.616 30.06L156.764 30.186C157.24 27.47 157.254 25.664 157.254 24.068V22.822H156.722V22.808H148.644V23.746ZM158.78 32.202V31.25H147.426V32.202H158.78ZM170.259 34.036V21.478H169.153V26.518H167.375V21.758H166.297V33.406H167.375V27.456H169.153V34.036H170.259ZM161.173 29.99V23.942H164.715V23.004H160.039V30.942H160.865C162.727 30.942 164.029 30.9 165.513 30.564L165.415 29.612C164.057 29.906 162.839 29.99 161.173 29.99ZM183.166 32.482V31.544H178.028V29.178H182.046V28.254H174.318V26.224H181.752V22.402H173.156V23.34H180.632V25.3H173.184V29.178H176.866V31.544H171.756V32.482H183.166ZM195.564 21.492V24.95H193.044V25.888H195.564V30.69H196.726V21.492H195.564ZM193.212 28.8L193.786 27.904C191.966 27.274 190.734 25.678 190.734 24.054V23.438H193.492V22.5H186.786V23.438H189.586V24.068C189.586 25.846 188.284 27.512 186.422 28.184L187.024 29.08C188.494 28.534 189.642 27.414 190.188 25.958C190.734 27.246 191.812 28.296 193.212 28.8ZM197.076 33.756V32.818H189.852V29.878H188.69V33.756H197.076ZM208.793 26.518L209.227 25.608C206.987 25.314 204.817 23.9 204.817 22.234V21.674H203.641V22.234C203.641 23.9 201.485 25.314 199.245 25.608L199.679 26.518C201.597 26.182 203.445 25.216 204.229 23.774C205.013 25.216 206.889 26.182 208.793 26.518ZM209.913 28.632V27.708H204.803V25.86H203.655V27.708H198.559V28.632H209.913ZM204.229 29.682C201.541 29.682 199.931 30.452 199.931 31.852C199.931 33.252 201.541 34.022 204.229 34.022C206.917 34.022 208.527 33.252 208.527 31.852C208.527 30.452 206.917 29.682 204.229 29.682ZM204.229 33.14C202.199 33.14 201.093 32.692 201.093 31.852C201.093 31.012 202.199 30.564 204.229 30.564C206.259 30.564 207.365 31.012 207.365 31.852C207.365 32.692 206.259 33.14 204.229 33.14ZM221.378 34.022V21.464H220.272V26.77H218.662V21.758H217.584V33.42H218.662V27.708H220.272V34.022H221.378ZM216.954 23.62H214.406V21.842H213.272V23.62H210.724V24.558H216.954V23.62ZM213.846 25.398C212.292 25.398 211.158 26.574 211.158 28.254C211.158 29.962 212.292 31.124 213.846 31.124C215.4 31.124 216.534 29.962 216.534 28.254C216.534 26.574 215.4 25.398 213.846 25.398ZM213.846 30.172C212.88 30.172 212.18 29.374 212.18 28.254C212.18 27.134 212.838 26.364 213.846 26.364C214.812 26.364 215.512 27.162 215.512 28.254C215.512 29.374 214.812 30.172 213.846 30.172ZM223.603 26.672L224.037 27.582C225.997 27.246 227.817 26.21 228.601 24.712C229.343 26.21 231.219 27.246 233.165 27.582L233.613 26.672C231.401 26.336 229.231 24.908 229.231 23.256V23.186H233.165V22.262H223.995V23.186H227.957V23.256C227.957 24.908 225.787 26.336 223.603 26.672ZM229.147 29.57H234.285L234.271 28.632H222.931V29.57H227.999V34.036H229.147V29.57ZM245.764 34.036V21.478H244.672V34.036H245.764ZM243.202 21.758H242.124V25.986H240.052V26.938H242.124V33.42H243.202V21.758ZM238.82 25.02V22.668H237.714V25.062C237.714 27.232 236.678 29.472 234.956 30.48L235.67 31.348C236.916 30.564 237.826 29.178 238.274 27.484C238.722 29.01 239.562 30.34 240.752 31.068L241.41 30.172C239.772 29.164 238.82 27.036 238.82 25.02ZM258.67 32.426V31.474H255.856V28.072C256.92 27.526 257.508 26.63 257.508 25.496C257.508 23.55 255.618 22.276 252.944 22.276C250.284 22.276 248.38 23.55 248.38 25.496C248.38 26.63 248.996 27.54 250.06 28.086V31.474H247.26V32.426H258.67ZM252.944 23.172C254.96 23.172 256.416 24.096 256.416 25.496C256.416 26.896 254.96 27.82 252.944 27.82C250.928 27.82 249.486 26.896 249.486 25.496C249.486 24.096 250.928 23.172 252.944 23.172ZM254.708 31.474H251.208V28.52C251.754 28.646 252.328 28.716 252.944 28.716C253.518 28.716 254.106 28.646 254.708 28.52V31.474Z" fill="#666666"/>
</svg>
