<svg width="182" height="154" viewBox="0 0 182 154" fill="none" xmlns="http://www.w3.org/2000/svg">
<path d="M9.528 2.076H8.28V12.948H9.528V2.076ZM6.276 3.108H1.188V10.272H6.276V3.108ZM2.4 4.092H5.064V9.276H2.4V4.092ZM19.9071 8.4L20.4471 7.38C19.9111 7.284 19.4071 7.116 18.9351 6.876C18.4711 6.628 18.0631 6.336 17.7111 6C17.3591 5.656 17.0791 5.28 16.8711 4.872C16.6711 4.456 16.5711 4.032 16.5711 3.6V2.784H15.2631V3.6C15.2631 4.024 15.1591 4.444 14.9511 4.86C14.7511 5.268 14.4751 5.644 14.1231 5.988C13.7711 6.324 13.3591 6.616 12.8871 6.864C12.4231 7.112 11.9231 7.284 11.3871 7.38L11.9151 8.4C12.3551 8.312 12.7751 8.176 13.1751 7.992C13.5831 7.808 13.9591 7.588 14.3031 7.332C14.6551 7.076 14.9671 6.788 15.2391 6.468C15.5111 6.14 15.7351 5.792 15.9111 5.424C16.0871 5.792 16.3111 6.14 16.5831 6.468C16.8551 6.788 17.1631 7.076 17.5071 7.332C17.8591 7.588 18.2351 7.808 18.6351 7.992C19.0431 8.176 19.4671 8.312 19.9071 8.4ZM20.8671 10.512H11.0511V11.532H20.8671V10.512ZM30.4901 2.064H29.2421V6.048H27.1661V7.068H29.2421V12.936H30.4901V2.064ZM23.2061 9.396V7.056H26.5541V6.072H23.2061V4.044H26.9981V3.024H21.9701V10.404H22.8221C23.3101 10.404 23.7661 10.4 24.1901 10.392C24.6141 10.384 25.0221 10.372 25.4141 10.356C25.8061 10.332 26.1861 10.3 26.5541 10.26C26.9301 10.212 27.3101 10.152 27.6941 10.08L27.5861 9.084C27.2341 9.14 26.8861 9.188 26.5421 9.228C26.2061 9.268 25.8621 9.3 25.5101 9.324C25.1581 9.348 24.7941 9.368 24.4181 9.384C24.0421 9.392 23.6381 9.396 23.2061 9.396ZM40.8452 2.076H39.5972V12.948H40.8452V2.076ZM33.7292 2.976H32.5052V10.368H37.7132V2.976H36.4772V5.736H33.7292V2.976ZM33.7292 9.372V6.72H36.4772V9.372H33.7292ZM52.4002 7.392V6.36H50.7562V2.076H49.5202V12.912H50.7562V7.392H52.4002ZM47.9242 3.228H42.8962V4.236H46.6882C46.4402 6.716 44.9962 8.636 42.3562 9.996L43.0402 10.944C43.9282 10.496 44.6802 9.992 45.2962 9.432C45.9122 8.864 46.4162 8.252 46.8082 7.596C47.2002 6.94 47.4842 6.244 47.6602 5.508C47.8362 4.772 47.9242 4.012 47.9242 3.228ZM55.4549 6.924L55.8869 7.896C56.7829 7.776 57.5629 7.532 58.2269 7.164C58.8989 6.796 59.4149 6.336 59.7749 5.784C60.1349 6.336 60.6469 6.8 61.3109 7.176C61.9829 7.544 62.7669 7.784 63.6629 7.896L64.1069 6.924C63.5789 6.86 63.0949 6.748 62.6549 6.588C62.2149 6.42 61.8309 6.22 61.5029 5.988C61.1829 5.756 60.9269 5.5 60.7349 5.22C60.5429 4.94 60.4349 4.656 60.4109 4.368H63.7589V3.372H60.3989V2.088H59.1629V3.372H55.8149V4.368H59.1509C59.1269 4.656 59.0189 4.94 58.8269 5.22C58.6349 5.5 58.3749 5.756 58.0469 5.988C57.7269 6.22 57.3469 6.42 56.9069 6.588C56.4669 6.748 55.9829 6.86 55.4549 6.924ZM64.6829 9.624V8.604H54.8909V9.624H59.1629V12.948H60.3989V9.624H64.6829ZM73.07 5.34H71.078V6.36H73.07V10.152H74.306V2.1H73.07V5.34ZM71.174 8.736L71.774 7.764C71.358 7.636 70.986 7.464 70.658 7.248C70.33 7.032 70.054 6.788 69.83 6.516C69.606 6.244 69.434 5.952 69.314 5.64C69.202 5.32 69.146 4.992 69.146 4.656V4.452H71.426V3.456H69.158V2.148H67.91V3.456H65.63V4.452H67.91V4.656C67.91 5.016 67.85 5.364 67.73 5.7C67.618 6.036 67.45 6.348 67.226 6.636C67.01 6.924 66.738 7.184 66.41 7.416C66.09 7.64 65.722 7.824 65.306 7.968L65.918 8.928C66.55 8.72 67.086 8.408 67.526 7.992C67.974 7.576 68.318 7.092 68.558 6.54C68.798 7.052 69.138 7.5 69.578 7.884C70.018 8.26 70.55 8.544 71.174 8.736ZM74.582 11.712H68.522V9.456H67.286V12.72H74.582V11.712ZM84.481 8.196V7.2H78.205V4.044H84.397V3.036H76.969V8.196H84.481ZM85.597 10.512H75.769V11.532H85.597V10.512ZM95.1841 2.064H93.9481V4.476H91.9681V5.484H93.9481V7.428H91.9081V8.436H93.9481V12.936H95.1841V2.064ZM87.8041 9.444V7.056H91.3441V3.024H86.5681V4.02H90.1321V6.06H86.5921V10.464H87.4201C87.8441 10.464 88.2481 10.46 88.6321 10.452C89.0241 10.444 89.4121 10.432 89.7961 10.416C90.1801 10.392 90.5641 10.36 90.9481 10.32C91.3321 10.28 91.7281 10.228 92.1361 10.164L92.0401 9.144C91.2961 9.256 90.5881 9.332 89.9161 9.372C89.2441 9.412 88.5401 9.436 87.8041 9.444ZM106.463 10.584H104.147V7.764C104.579 7.516 104.915 7.204 105.155 6.828C105.403 6.452 105.527 6.024 105.527 5.544C105.527 5.112 105.427 4.724 105.227 4.38C105.027 4.028 104.751 3.728 104.399 3.48C104.047 3.232 103.627 3.044 103.139 2.916C102.651 2.78 102.119 2.712 101.543 2.712C100.967 2.712 100.435 2.78 99.9472 2.916C99.4592 3.044 99.0352 3.232 98.6752 3.48C98.3232 3.728 98.0472 4.028 97.8472 4.38C97.6552 4.724 97.5592 5.112 97.5592 5.544C97.5592 6.024 97.6792 6.456 97.9192 6.84C98.1672 7.216 98.5072 7.524 98.9392 7.764V10.584H96.6472V11.592H106.463V10.584ZM101.543 3.684C101.951 3.684 102.323 3.728 102.659 3.816C103.003 3.904 103.295 4.028 103.535 4.188C103.783 4.348 103.975 4.544 104.111 4.776C104.247 5 104.315 5.256 104.315 5.544C104.315 5.832 104.247 6.092 104.111 6.324C103.975 6.556 103.783 6.752 103.535 6.912C103.295 7.072 103.003 7.196 102.659 7.284C102.323 7.372 101.951 7.416 101.543 7.416C101.135 7.416 100.759 7.372 100.415 7.284C100.071 7.196 99.7752 7.072 99.5272 6.912C99.2872 6.752 99.0992 6.556 98.9632 6.324C98.8272 6.092 98.7592 5.832 98.7592 5.544C98.7592 5.256 98.8272 5 98.9632 4.776C99.0992 4.544 99.2872 4.348 99.5272 4.188C99.7752 4.028 100.071 3.904 100.415 3.816C100.759 3.728 101.135 3.684 101.543 3.684ZM100.175 10.584V8.232C100.599 8.328 101.055 8.376 101.543 8.376C101.783 8.376 102.019 8.364 102.251 8.34C102.483 8.316 102.703 8.276 102.911 8.22V10.584H100.175ZM108.994 9.528L109.234 2.964H107.842L107.878 4.38L108.07 9.528H108.994ZM107.83 12.156H109.246V10.668H107.83V12.156Z" fill="#7A6353"/>
<path d="M2.716 31.392V52H9.604C10.7613 52 11.816 51.8787 12.768 51.636C13.7387 51.3933 14.5693 51.02 15.26 50.516C15.9693 50.012 16.52 49.3867 16.912 48.64C17.304 47.8747 17.5 46.9787 17.5 45.952C17.5 44.552 17.1173 43.4507 16.352 42.648C15.5867 41.8453 14.616 41.3133 13.44 41.052V40.912C14.3733 40.5947 15.092 40.0253 15.596 39.204C16.1187 38.364 16.38 37.4493 16.38 36.46C16.38 35.5267 16.1933 34.7427 15.82 34.108C15.4653 33.4547 14.9613 32.932 14.308 32.54C13.6733 32.1293 12.908 31.84 12.012 31.672C11.1347 31.4853 10.164 31.392 9.1 31.392H2.716ZM8.736 39.988H5.964V33.912H8.82C10.276 33.912 11.368 34.136 12.096 34.584C12.824 35.032 13.188 35.7973 13.188 36.88C13.188 37.8507 12.8333 38.616 12.124 39.176C11.4333 39.7173 10.304 39.988 8.736 39.988ZM9.24 49.452H5.964V42.452H9.24C10.8827 42.452 12.1333 42.7133 12.992 43.236C13.8693 43.7587 14.308 44.608 14.308 45.784C14.308 47.072 13.8693 48.0053 12.992 48.584C12.1333 49.1627 10.8827 49.452 9.24 49.452ZM19.9918 31.392V52H23.0718V42.284C23.0718 41.164 23.0251 40.0253 22.9318 38.868C22.8384 37.7107 22.7451 36.6 22.6518 35.536H22.7918L24.9478 39.848L31.7798 52H35.1118V31.392H32.0318V40.996C32.0318 42.116 32.0784 43.2733 32.1718 44.468C32.2651 45.6627 32.3584 46.792 32.4518 47.856H32.3118L30.1558 43.488L23.3238 31.392H19.9918ZM39.1263 31.392V52H42.3743V45.784L45.5383 41.92L51.3623 52H54.9743L47.5263 39.344L53.9103 31.392H50.2983L42.4583 41.136H42.3743V31.392H39.1263ZM83.4144 40.968V38.588H79.4664V28.844H76.5824V54.184H79.4664V40.968H83.4144ZM63.7864 45.56V33.604H72.6624V31.252H60.9024V47.968H62.9744C64.1131 47.968 65.1864 47.9587 66.1944 47.94C67.2211 47.9027 68.2104 47.856 69.1624 47.8C70.1144 47.744 71.0477 47.66 71.9624 47.548C72.8957 47.436 73.8384 47.296 74.7904 47.128L74.4824 44.748C73.6051 44.8973 72.7464 45.028 71.9064 45.14C71.0664 45.2333 70.2077 45.3173 69.3304 45.392C68.4717 45.448 67.5851 45.4947 66.6704 45.532C65.7557 45.5507 64.7944 45.56 63.7864 45.56ZM105.056 28.844H102.144V54.212H105.056V28.844ZM91.5882 30.72C90.6549 30.72 89.7869 30.9347 88.9842 31.364C88.2002 31.7747 87.5189 32.372 86.9402 33.156C86.3616 33.9213 85.9042 34.8547 85.5682 35.956C85.2509 37.0387 85.0922 38.2613 85.0922 39.624C85.0922 40.9867 85.2509 42.228 85.5682 43.348C85.9042 44.4493 86.3616 45.3827 86.9402 46.148C87.5189 46.9133 88.2002 47.5107 88.9842 47.94C89.7869 48.3507 90.6549 48.556 91.5882 48.556C92.5402 48.556 93.4082 48.3507 94.1922 47.94C94.9949 47.5107 95.6856 46.9133 96.2642 46.148C96.8429 45.3827 97.2909 44.4493 97.6082 43.348C97.9442 42.228 98.1122 40.9867 98.1122 39.624C98.1122 38.2613 97.9442 37.0387 97.6082 35.956C97.2909 34.8547 96.8429 33.9213 96.2642 33.156C95.6856 32.372 94.9949 31.7747 94.1922 31.364C93.4082 30.9347 92.5402 30.72 91.5882 30.72ZM91.5882 33.324C92.7082 33.324 93.6136 33.884 94.3042 35.004C94.9949 36.1053 95.3402 37.6453 95.3402 39.624C95.3402 41.6587 94.9949 43.2267 94.3042 44.328C93.6136 45.4293 92.7082 45.98 91.5882 45.98C90.4682 45.98 89.5629 45.4293 88.8722 44.328C88.2002 43.2267 87.8642 41.6587 87.8642 39.624C87.8642 37.6453 88.2002 36.1053 88.8722 35.004C89.5629 33.884 90.4682 33.324 91.5882 33.324ZM130.002 28.872H127.258V44.636H130.002V28.872ZM122.274 37.468V44.468H124.99V29.348H122.274V35.116H119.502V37.468H122.274ZM120.65 42.9L120.37 40.604C119.082 40.8653 117.813 41.0427 116.562 41.136C115.311 41.2107 113.949 41.248 112.474 41.248V38.112H118.578V30.776H109.618V33.044H115.778V35.956H109.674V43.572H111.382C112.297 43.572 113.146 43.5627 113.93 43.544C114.733 43.5253 115.498 43.488 116.226 43.432C116.973 43.376 117.701 43.3107 118.41 43.236C119.138 43.1427 119.885 43.0307 120.65 42.9ZM112.978 45.784V48.108H127.118V54.184H130.002V45.784H112.978ZM153.324 44.552V42.228H138.736V38.756H152.568V36.488H138.736V33.24H153.128V30.916H135.796V44.552H153.324ZM155.9 48.696H132.968V51.048H155.9V48.696ZM180.23 43.124H170.206V40.716H177.85V38.504H163.038V36.152H177.346V29.572H160.154V31.784H174.49V34.08H160.21V40.716H167.322V43.124H157.27V45.448H180.23V43.124ZM163.122 51.776V46.96H160.238V54.1H177.906V51.776H163.122Z" fill="black"/>
<path d="M11.616 76.376H12.464V65.928H11.616V76.376ZM8.912 73.96L9.36 73.288C7.392 72.52 5.664 70.472 5.664 68.184V66.712H4.832V68.184C4.832 70.568 3.168 72.712 1.168 73.56L1.648 74.248C3.312 73.496 4.688 71.992 5.264 70.056C5.856 71.864 7.248 73.272 8.912 73.96ZM12.944 79.768V79.048H4.384V75.432H3.536V79.768H12.944ZM22.7508 73.848L23.1508 73.192C21.1828 72.552 19.4388 70.872 19.4388 68.952V68.488H22.7828V67.768H19.4548V65.816H18.6068V67.768H15.2307V68.488H18.6068V68.952C18.6068 71.032 16.9267 72.872 14.9587 73.56L15.3907 74.216C17.0547 73.592 18.4627 72.296 19.0547 70.584C19.6788 72.136 21.1028 73.288 22.7508 73.848ZM25.5508 65.912V70.12H22.3348V70.84H25.5508V74.52H26.3988V65.912H25.5508ZM21.8068 74.968C18.8628 74.968 17.1507 75.864 17.1507 77.528C17.1507 79.144 18.8628 80.072 21.8068 80.072C24.7028 80.072 26.4628 79.144 26.4628 77.528C26.4628 75.88 24.7028 74.968 21.8068 74.968ZM21.8068 79.384C19.5027 79.384 17.9988 78.68 17.9988 77.528C17.9988 76.376 19.5027 75.672 21.8068 75.672C24.1267 75.672 25.6308 76.376 25.6308 77.528C25.6308 78.68 24.1267 79.384 21.8068 79.384ZM30.4455 72.552H39.9175V66.488H39.0695V68.648H31.2935V66.488H30.4455V72.552ZM31.2935 69.352H39.0695V71.832H31.2935V69.352ZM35.5655 75.192H41.6295V74.472H28.7175V75.192H34.7175V80.12H35.5655V75.192ZM54.2362 80.136V65.896H53.3882V71.464H50.1242V72.2H53.3882V80.136H54.2362ZM44.3802 75.864H44.1722V72.008H49.1962V71.288H44.1722V67.992H49.8842V67.256H43.3242V76.584H44.3802C47.2762 76.584 48.9562 76.488 50.9722 76.104L50.8922 75.384C48.8762 75.768 47.2762 75.864 44.3802 75.864ZM70.9979 71.512L71.3339 70.824C69.2059 70.52 66.1819 68.888 66.1819 66.856V66.104H65.3179V66.856C65.3179 68.936 62.2939 70.52 60.1659 70.824L60.5019 71.512C62.5019 71.128 64.9019 69.992 65.7499 68.2C66.5979 69.944 69.0299 71.128 70.9979 71.512ZM72.1659 73.832V73.112H66.1659V70.84H65.3179V73.112H59.3179V73.832H72.1659ZM65.7499 75.256C62.7259 75.256 60.9179 76.12 60.9179 77.656C60.9179 79.208 62.7259 80.072 65.7499 80.072C68.7739 80.072 70.5819 79.208 70.5819 77.656C70.5819 76.12 68.7739 75.256 65.7499 75.256ZM65.7499 79.384C63.3019 79.384 61.7659 78.744 61.7659 77.656C61.7659 76.568 63.3019 75.944 65.7499 75.944C68.1979 75.944 69.7339 76.568 69.7339 77.656C69.7339 78.744 68.1979 79.384 65.7499 79.384ZM86.1326 72.76V72.04H83.9566C84.3886 70.168 84.3726 68.856 84.3726 67.704V66.712H74.9166V67.432H83.5566V67.704C83.5566 68.84 83.5566 70.136 83.1086 72.04H73.2366V72.76H86.1326ZM84.5006 74.952H74.8686V79.896H84.5006V74.952ZM83.6686 79.176H75.7006V75.656H83.6686V79.176ZM98.2434 72.664H100.531V71.928H98.2434V65.896H97.3954V80.12H98.2434V72.664ZM91.4754 67.48H87.6034V68.2H90.6914C90.5634 70.984 89.5074 74.04 87.2514 76.296L87.9554 76.776C90.5314 74.072 91.4754 70.584 91.4754 67.48ZM95.3314 67.48H91.9234V68.2H94.5314C94.4514 71.032 93.6994 74.68 91.3154 77.288L92.0514 77.752C94.7394 74.632 95.3314 70.488 95.3314 67.48ZM112.61 80.12V65.912H111.762V80.12H112.61ZM105.89 70.552V68.152H109.474V67.416H101.538V68.152H105.058V70.552C105.058 73.048 102.962 75.72 101.138 76.664L101.666 77.352C103.234 76.504 104.85 74.568 105.474 72.424C106.114 74.472 107.778 76.232 109.362 77L109.874 76.328C107.954 75.48 105.89 73.016 105.89 70.552ZM117.804 68.504H126.22V67.8H122.444V65.928H121.596V67.8H117.804V68.504ZM130.924 71.512V70.792H128.7V65.928H127.852V76.6H128.7V71.512H130.924ZM125.356 72.056C125.356 70.472 124.012 69.448 122.012 69.448C119.996 69.448 118.652 70.472 118.652 72.056C118.652 73.64 119.996 74.648 122.012 74.648C124.012 74.648 125.356 73.64 125.356 72.056ZM119.452 72.056C119.452 70.904 120.476 70.136 122.012 70.136C123.548 70.136 124.556 70.904 124.556 72.056C124.556 73.16 123.532 73.96 122.012 73.96C120.476 73.96 119.452 73.16 119.452 72.056ZM129.404 79.048H120.876V75.72H120.028V79.768H129.404V79.048ZM132.442 73.912H138.666V70.776H142.394V76.456H143.242V65.928H142.394V70.056H138.666V66.856H137.834V69.576H133.29V66.856H132.442V73.912ZM133.29 70.28H137.834V73.192H133.29V70.28ZM143.594 79.768V79.048H135.13V75.432H134.282V79.768H143.594ZM157.593 80.12V65.896H156.777V80.12H157.593ZM154.809 66.248H153.993V71.608H151.801C151.673 68.92 150.537 67.192 148.793 67.192C147.001 67.192 145.801 69.064 145.801 72.008C145.801 74.952 147.001 76.824 148.793 76.824C150.553 76.824 151.721 75.096 151.801 72.328H153.993V79.352H154.809V66.248ZM148.793 76.056C147.465 76.056 146.585 74.392 146.585 72.008C146.585 69.64 147.465 67.96 148.793 67.96C150.121 67.96 151.001 69.64 151.001 72.008C151.001 74.392 150.121 76.056 148.793 76.056ZM161.272 67.128H160.312L160.456 76.312H161.144L161.272 67.128ZM161.256 78.184H160.328V79.208H161.256V78.184Z" fill="black"/>
<rect y="103" width="33" height="17" rx="8.5" fill="#ED030D"/>
<path d="M14.94 106.73H13.9V115.79H14.94V106.73ZM7.79 111.06L8.26 111.86C8.8 111.7 9.26 111.46 9.64 111.14C10.02 110.82 10.3067 110.44 10.5 110C10.7 110.42 10.9867 110.783 11.36 111.09C11.74 111.39 12.2 111.617 12.74 111.77L13.2 110.97C12.5333 110.783 12.0067 110.487 11.62 110.08C11.24 109.673 11.0367 109.21 11.01 108.69H12.98V107.86H11.01V106.81H9.98V107.86H8.02V108.69H9.97C9.94333 109.23 9.74333 109.713 9.37 110.14C9.00333 110.567 8.47667 110.873 7.79 111.06ZM11.01 113.07V111.57H9.98V113.12C9.54 113.133 9.11333 113.143 8.7 113.15C8.29333 113.15 7.91 113.15 7.55 113.15L7.68 114C8.08 114 8.51 113.997 8.97 113.99C9.43667 113.983 9.91667 113.97 10.41 113.95C10.9033 113.923 11.4033 113.883 11.91 113.83C12.4233 113.77 12.93 113.69 13.43 113.59L13.35 112.84C12.97 112.9 12.5833 112.95 12.19 112.99C11.8033 113.023 11.41 113.05 11.01 113.07ZM22.9492 108.42V108.47C22.9492 109.003 22.9326 109.603 22.8992 110.27C22.8726 110.937 22.7726 111.713 22.5992 112.6L23.6392 112.71C23.7259 112.243 23.7926 111.813 23.8392 111.42C23.8859 111.02 23.9192 110.65 23.9392 110.31C23.9659 109.963 23.9792 109.64 23.9792 109.34C23.9859 109.04 23.9892 108.75 23.9892 108.47V107.58H17.5592V108.42H22.9492ZM24.8692 113.74H20.7892V110.56H19.7492V113.74H16.7092V114.59H24.8692V113.74Z" fill="white"/>
<path d="M9.792 143.336V128.048H6.96L1.776 132.512L3.672 134.672L6.6 132.008L6.504 133.568V143.336H3V146H12.888V143.336H9.792ZM32.6089 139.064V125.96H29.4409V131.312H25.9369C25.7929 130.688 25.5449 130.12 25.1929 129.608C24.8409 129.096 24.4089 128.656 23.8969 128.288C23.4009 127.92 22.8409 127.632 22.2169 127.424C21.5929 127.216 20.9289 127.112 20.2249 127.112C19.4089 127.112 18.6489 127.248 17.9449 127.52C17.2409 127.792 16.6249 128.176 16.0969 128.672C15.5689 129.152 15.1529 129.728 14.8489 130.4C14.5609 131.056 14.4169 131.784 14.4169 132.584C14.4169 133.384 14.5609 134.12 14.8489 134.792C15.1529 135.464 15.5689 136.048 16.0969 136.544C16.6249 137.024 17.2409 137.4 17.9449 137.672C18.6489 137.944 19.4089 138.08 20.2249 138.08C20.9289 138.08 21.5929 137.984 22.2169 137.792C22.8569 137.584 23.4249 137.296 23.9209 136.928C24.4329 136.544 24.8569 136.096 25.1929 135.584C25.5449 135.056 25.7929 134.48 25.9369 133.856H29.4409V139.064H32.6089ZM20.2249 135.368C19.4089 135.368 18.7369 135.128 18.2089 134.648C17.6969 134.152 17.4409 133.464 17.4409 132.584C17.4409 131.704 17.6969 131.024 18.2089 130.544C18.7369 130.064 19.4089 129.824 20.2249 129.824C21.0409 129.824 21.7129 130.064 22.2409 130.544C22.7849 131.024 23.0569 131.704 23.0569 132.584C23.0569 133.464 22.7849 134.152 22.2409 134.648C21.7129 135.128 21.0409 135.368 20.2249 135.368ZM32.6089 140.048H17.5609V142.544H29.4409V148.088H32.6089V140.048ZM44.1165 131H50.8605V128.048H41.7885C41.6605 128.816 41.4685 129.928 41.2125 131.384C40.9725 132.824 40.6685 134.704 40.3005 137.024L42.3165 137.624C42.7485 137.464 43.1805 137.344 43.6125 137.264C44.0445 137.168 44.4845 137.104 44.9325 137.072C46.0365 137.04 46.8685 137.296 47.4285 137.84C47.9885 138.384 48.2685 139.136 48.2685 140.096C48.2685 141.152 47.9805 142 47.4045 142.64C46.8285 143.264 45.9885 143.576 44.8845 143.576C44.1165 143.576 43.4125 143.4 42.7725 143.048C42.1325 142.696 41.5325 142.288 40.9725 141.824L39.2925 144.272C39.9005 144.848 40.6765 145.352 41.6205 145.784C42.5645 146.216 43.5885 146.432 44.6925 146.432C45.6525 146.432 46.5485 146.28 47.3805 145.976C48.2125 145.656 48.9325 145.216 49.5405 144.656C50.1485 144.08 50.6205 143.392 50.9565 142.592C51.3085 141.792 51.4845 140.912 51.4845 139.952C51.4845 139.152 51.3565 138.416 51.1005 137.744C50.8445 137.056 50.4685 136.464 49.9725 135.968C49.4765 135.456 48.8605 135.056 48.1245 134.768C47.3885 134.48 46.5405 134.336 45.5805 134.336C45.2605 134.336 44.9245 134.352 44.5725 134.384C44.2365 134.4 43.8845 134.44 43.5165 134.504L44.1165 131ZM67.6534 125.96V132.416H64.1254V134.96H67.6534V142.328H70.8214V125.96H67.6534ZM64.1014 139.736L65.6134 137.264C64.7174 136.992 63.9414 136.64 63.2854 136.208C62.6454 135.76 62.1094 135.272 61.6774 134.744C61.2614 134.2 60.9494 133.624 60.7414 133.016C60.5494 132.392 60.4534 131.768 60.4534 131.144V131.048H64.8214V128.576H60.4534V126.128H57.2854V128.576H52.9654V131.048H57.2854V131.144C57.2854 131.816 57.1814 132.48 56.9734 133.136C56.7814 133.776 56.4774 134.384 56.0614 134.96C55.6614 135.536 55.1414 136.056 54.5014 136.52C53.8614 136.968 53.0934 137.336 52.1974 137.624L53.7334 140.096C54.9814 139.696 56.0374 139.12 56.9014 138.368C57.7654 137.6 58.4374 136.688 58.9174 135.632C59.4294 136.592 60.1094 137.424 60.9574 138.128C61.8054 138.832 62.8534 139.368 64.1014 139.736ZM71.3254 147.68V145.16H59.4214V140.96H56.2534V147.68H71.3254Z" fill="black"/>
<rect x="88" y="103" width="33" height="17" rx="8.5" fill="#706258"/>
<path d="M102.94 106.73H101.9V115.79H102.94V106.73ZM95.79 111.06L96.26 111.86C96.8 111.7 97.26 111.46 97.64 111.14C98.02 110.82 98.3067 110.44 98.5 110C98.7 110.42 98.9867 110.783 99.36 111.09C99.74 111.39 100.2 111.617 100.74 111.77L101.2 110.97C100.533 110.783 100.007 110.487 99.62 110.08C99.24 109.673 99.0367 109.21 99.01 108.69H100.98V107.86H99.01V106.81H97.98V107.86H96.02V108.69H97.97C97.9433 109.23 97.7433 109.713 97.37 110.14C97.0033 110.567 96.4767 110.873 95.79 111.06ZM99.01 113.07V111.57H97.98V113.12C97.54 113.133 97.1133 113.143 96.7 113.15C96.2933 113.15 95.91 113.15 95.55 113.15L95.68 114C96.08 114 96.51 113.997 96.97 113.99C97.4367 113.983 97.9167 113.97 98.41 113.95C98.9033 113.923 99.4033 113.883 99.91 113.83C100.423 113.77 100.93 113.69 101.43 113.59L101.35 112.84C100.97 112.9 100.583 112.95 100.19 112.99C99.8033 113.023 99.41 113.05 99.01 113.07ZM112.199 106.73H111.169V109.96H109.389V110.81H111.169V115.78H112.199V106.73ZM107.949 109.21V108.48H109.909V107.64H104.959V108.48H106.909V109.21C106.909 109.617 106.853 110.023 106.739 110.43C106.633 110.837 106.479 111.22 106.279 111.58C106.079 111.94 105.836 112.263 105.549 112.55C105.269 112.837 104.956 113.063 104.609 113.23L105.219 114.05C105.746 113.77 106.199 113.377 106.579 112.87C106.959 112.357 107.249 111.777 107.449 111.13C107.649 111.737 107.936 112.28 108.309 112.76C108.683 113.24 109.129 113.607 109.649 113.86L110.249 113.05C109.903 112.89 109.586 112.673 109.299 112.4C109.019 112.12 108.779 111.807 108.579 111.46C108.379 111.113 108.223 110.747 108.109 110.36C108.003 109.973 107.949 109.59 107.949 109.21Z" fill="white"/>
<path d="M95.2 146.456C96.144 146.456 97.008 146.328 97.792 146.072C98.576 145.832 99.248 145.488 99.808 145.04C100.368 144.576 100.8 144.016 101.104 143.36C101.424 142.688 101.584 141.936 101.584 141.104C101.584 140.08 101.344 139.184 100.864 138.416C100.384 137.648 99.616 137.056 98.56 136.64C99.344 136.24 99.944 135.696 100.36 135.008C100.792 134.32 101.008 133.544 101.008 132.68C101.008 131.944 100.864 131.272 100.576 130.664C100.288 130.056 99.888 129.536 99.376 129.104C98.864 128.672 98.248 128.336 97.528 128.096C96.824 127.856 96.048 127.736 95.2 127.736C94.368 127.736 93.6 127.856 92.896 128.096C92.192 128.336 91.584 128.672 91.072 129.104C90.576 129.536 90.184 130.056 89.896 130.664C89.608 131.272 89.464 131.944 89.464 132.68C89.464 133.544 89.672 134.32 90.088 135.008C90.504 135.68 91.096 136.224 91.864 136.64C90.808 137.056 90.04 137.648 89.56 138.416C89.08 139.184 88.84 140.08 88.84 141.104C88.84 141.936 88.992 142.688 89.296 143.36C89.616 144.016 90.056 144.576 90.616 145.04C91.176 145.488 91.848 145.832 92.632 146.072C93.416 146.328 94.272 146.456 95.2 146.456ZM95.2 135.464C94.736 135.464 94.336 135.384 94 135.224C93.68 135.048 93.416 134.832 93.208 134.576C93.016 134.304 92.872 134.008 92.776 133.688C92.68 133.352 92.632 133.032 92.632 132.728C92.632 132.04 92.84 131.464 93.256 131C93.688 130.52 94.336 130.28 95.2 130.28C96.064 130.28 96.712 130.52 97.144 131C97.592 131.464 97.816 132.04 97.816 132.728C97.816 133.032 97.768 133.352 97.672 133.688C97.576 134.008 97.424 134.304 97.216 134.576C97.008 134.832 96.736 135.048 96.4 135.224C96.064 135.384 95.664 135.464 95.2 135.464ZM95.2 143.816C94.24 143.816 93.496 143.568 92.968 143.072C92.44 142.56 92.176 141.888 92.176 141.056C92.176 140.096 92.448 139.36 92.992 138.848C93.536 138.32 94.272 138.056 95.2 138.056C96.128 138.056 96.872 138.32 97.432 138.848C98.008 139.36 98.296 140.096 98.296 141.056C98.296 141.888 98.016 142.56 97.456 143.072C96.912 143.568 96.16 143.816 95.2 143.816ZM102.657 146.336H106.161V142.928H102.657V146.336ZM112.746 138.824C113.178 138.824 113.586 138.792 113.97 138.728C114.37 138.664 114.746 138.528 115.098 138.32L115.602 138.032L115.338 138.296C115.194 138.44 115.01 138.632 114.786 138.872L109.602 146H113.442L117.402 139.976C117.69 139.528 117.978 139.056 118.266 138.56C118.57 138.064 118.842 137.552 119.082 137.024C119.338 136.48 119.538 135.936 119.682 135.392C119.842 134.832 119.922 134.272 119.922 133.712C119.922 132.832 119.778 132.024 119.49 131.288C119.218 130.552 118.818 129.92 118.29 129.392C117.778 128.864 117.146 128.456 116.394 128.168C115.658 127.864 114.826 127.712 113.898 127.712C112.986 127.712 112.146 127.872 111.378 128.192C110.626 128.496 109.978 128.912 109.434 129.44C108.89 129.968 108.466 130.592 108.162 131.312C107.858 132.032 107.706 132.8 107.706 133.616C107.706 134.48 107.85 135.24 108.138 135.896C108.426 136.536 108.802 137.08 109.266 137.528C109.746 137.96 110.282 138.288 110.874 138.512C111.482 138.72 112.106 138.824 112.746 138.824ZM116.826 133.4C116.826 134.264 116.57 134.96 116.058 135.488C115.546 136 114.802 136.256 113.826 136.256C112.898 136.256 112.186 136.024 111.69 135.56C111.194 135.08 110.946 134.352 110.946 133.376C110.946 132.496 111.202 131.784 111.714 131.24C112.226 130.68 112.938 130.4 113.85 130.4C114.73 130.4 115.442 130.664 115.986 131.192C116.546 131.704 116.826 132.44 116.826 133.4ZM124.753 132.344V132.56C124.753 133.248 124.857 133.864 125.065 134.408C125.273 134.936 125.569 135.376 125.953 135.728C126.337 136.08 126.793 136.352 127.321 136.544C127.849 136.72 128.425 136.808 129.049 136.808C129.673 136.808 130.249 136.72 130.777 136.544C131.321 136.352 131.785 136.072 132.169 135.704C132.569 135.336 132.881 134.888 133.105 134.36C133.329 133.816 133.441 133.192 133.441 132.488V132.176C133.441 131.488 133.329 130.888 133.105 130.376C132.881 129.848 132.569 129.408 132.169 129.056C131.785 128.704 131.321 128.44 130.777 128.264C130.249 128.088 129.673 128 129.049 128C128.425 128 127.849 128.096 127.321 128.288C126.793 128.48 126.337 128.76 125.953 129.128C125.569 129.496 125.273 129.952 125.065 130.496C124.857 131.024 124.753 131.64 124.753 132.344ZM141.649 128.12H138.817L127.177 146H130.129L141.649 128.12ZM130.777 132.224L130.753 132.536C130.753 133.4 130.617 134.016 130.345 134.384C130.089 134.736 129.657 134.912 129.049 134.912C128.441 134.912 127.993 134.736 127.705 134.384C127.433 134.016 127.297 133.4 127.297 132.536L127.321 132.128C127.321 131.312 127.473 130.728 127.777 130.376C128.081 130.024 128.529 129.848 129.121 129.848C129.665 129.848 130.073 130.032 130.345 130.4C130.633 130.752 130.777 131.36 130.777 132.224ZM135.889 141.2V141.416C135.889 142.808 136.281 143.864 137.065 144.584C137.865 145.288 138.897 145.64 140.161 145.64C140.785 145.64 141.361 145.552 141.889 145.376C142.417 145.184 142.873 144.904 143.257 144.536C143.657 144.168 143.969 143.72 144.193 143.192C144.417 142.648 144.529 142.032 144.529 141.344V141.032C144.529 140.344 144.417 139.744 144.193 139.232C143.969 138.704 143.657 138.272 143.257 137.936C142.873 137.584 142.417 137.32 141.889 137.144C141.361 136.968 140.785 136.88 140.161 136.88C138.897 136.88 137.865 137.248 137.065 137.984C136.281 138.72 135.889 139.792 135.889 141.2ZM141.889 141.08L141.865 141.392C141.865 142.256 141.729 142.864 141.457 143.216C141.201 143.568 140.769 143.744 140.161 143.744C139.553 143.744 139.105 143.568 138.817 143.216C138.545 142.864 138.409 142.256 138.409 141.392L138.433 140.984C138.433 140.168 138.585 139.592 138.889 139.256C139.193 138.904 139.641 138.728 140.233 138.728C140.777 138.728 141.185 138.904 141.457 139.256C141.745 139.608 141.889 140.216 141.889 141.08Z" fill="black"/>
</svg>
