<svg width="136" height="48" viewBox="0 0 136 48" fill="none" xmlns="http://www.w3.org/2000/svg">
<path d="M55.62 21.4C54.12 21.28 52.86 20.98 51.888 20.38C51.744 20.284 51.6 20.176 51.468 20.056L51.552 19.876C51.588 19.816 51.612 19.744 51.636 19.684H54.852V18.34H46.476V19.684H49.896C49.86 19.744 49.824 19.816 49.776 19.876C49.068 20.86 47.592 21.208 45.696 21.448L46.392 22.684C47.604 22.564 48.912 22.228 49.968 21.604C50.232 21.448 50.472 21.28 50.688 21.076C50.844 21.22 51.024 21.352 51.204 21.472C52.236 22.168 53.544 22.504 54.876 22.6L55.62 21.4ZM54.84 28.972V25.348H46.224V26.716H53.232V28.972H54.84ZM55.944 24.568V23.224H45.384V24.568H55.944ZM64.324 25.996C63.496 25.432 62.788 24.808 62.224 24.124C61.78 23.584 61.384 22.972 61.048 22.3C61.42 21.112 61.6 19.84 61.6 18.484H59.968C59.968 21.724 58.948 24.388 56.38 26.284L57.46 27.4C58.744 26.404 59.716 25.24 60.4 23.92C60.664 24.352 60.964 24.772 61.288 25.18C61.9 25.936 62.572 26.584 63.328 27.148L64.324 25.996ZM66.832 28.924V18.172H65.224V28.924H66.832ZM77.5761 23.74V21.376H78.8481V20.008H77.5761V18.172H75.9681V23.74H77.5761ZM75.9441 27.508H71.0481V26.56H75.9441V27.508ZM77.5521 28.852V24.22H75.9441V25.288H71.0481V24.22H69.4401V28.852H77.5521ZM68.5281 18.4V23.488L75.4881 23.164V21.844L70.1361 22.024V18.4H68.5281ZM87.1801 18.364V19.648H82.1401V18.364H80.5321V23.5H88.7881V18.364H87.1801ZM85.4761 28.924V25.732H89.9401V24.364H79.3801V25.732H83.8441V28.924H85.4761ZM82.1401 22.12V20.992H87.1801V22.12H82.1401Z" fill="#242D3C"/>
<rect x="0.5" y="0.5" width="135" height="47" rx="15.5" stroke="#DDDDDD"/>
</svg>
