<svg width="136" height="48" viewBox="0 0 136 48" fill="none" xmlns="http://www.w3.org/2000/svg">
<rect width="136" height="48" rx="16" fill="#242D3C"/>
<path d="M55.944 23.992V22.672H45.384V23.992H49.848V24.616C49.644 24.652 49.452 24.688 49.26 24.736C47.964 25.072 47.124 25.912 47.124 27.016C47.124 28.504 48.612 29.476 50.712 29.476C52.812 29.476 54.3 28.504 54.3 27.016C54.3 25.912 53.46 25.072 52.152 24.736C51.936 24.676 51.708 24.64 51.48 24.604V23.992H55.944ZM55.62 21.04C54.156 20.992 52.848 20.776 51.888 20.224C51.744 20.14 51.6 20.032 51.468 19.924L51.54 19.792L51.6 19.66H54.852V18.34H46.476V19.66H49.812L49.764 19.732C49.02 20.596 47.496 20.944 45.696 21.088L46.368 22.324C47.52 22.252 48.84 21.964 49.908 21.388C50.184 21.244 50.424 21.076 50.652 20.896C50.832 21.04 51.012 21.172 51.216 21.292C52.284 21.928 53.604 22.24 54.9 22.24L55.62 21.04ZM50.712 28.18C49.416 28.18 48.732 27.724 48.732 27.016C48.732 26.308 49.416 25.852 50.712 25.852C52.008 25.852 52.692 26.308 52.692 27.016C52.692 27.724 52.008 28.18 50.712 28.18ZM66.364 23.2H59.476V19.972H66.124V18.604H57.868V24.58H61.24V26.764H56.716V28.132H67.276V26.764H62.872V24.58H66.364V23.2ZM74.1921 23.932C72.1761 23.932 70.7241 25.024 70.7241 26.584C70.7241 28.156 72.1761 29.236 74.1921 29.236C76.2081 29.236 77.6601 28.156 77.6601 26.584C77.6601 25.024 76.2081 23.932 74.1921 23.932ZM75.4641 22.288C74.3361 21.976 73.3281 21.472 72.6081 20.632L72.3921 20.344C72.4041 20.332 72.4041 20.308 72.4161 20.284C72.6681 19.684 72.8001 19.036 72.8121 18.34H71.1801C71.0721 20.536 69.7641 22.036 67.6641 22.756L68.6481 23.932C69.6441 23.56 70.6761 22.864 71.4561 21.904C71.5401 21.808 71.6121 21.7 71.6961 21.592L71.7081 21.616C72.5001 22.552 73.5441 23.224 74.5881 23.536L75.4641 22.288ZM77.6961 24.04V21.616H78.9681V20.248H77.6961V18.172H76.0881V24.04H77.6961ZM74.1921 27.916C72.9921 27.916 72.3321 27.388 72.3321 26.584C72.3321 25.78 72.9921 25.252 74.1921 25.252C75.3921 25.252 76.0521 25.78 76.0521 26.584C76.0521 27.388 75.3921 27.916 74.1921 27.916ZM86.9281 25.42V24.196L83.9521 24.232V23.74C84.0361 23.728 84.1201 23.704 84.2041 23.68C85.2481 23.416 85.9801 22.792 85.9801 21.88C85.9801 21.412 85.7521 20.992 85.3561 20.812H86.7481V19.588H79.4521V20.812H80.8441C80.4481 20.992 80.2201 21.412 80.2201 21.88C80.2201 22.804 80.9641 23.416 81.9841 23.68C82.0921 23.716 82.2121 23.74 82.3201 23.752V24.256L79.2481 24.292V25.54L86.9281 25.42ZM88.9681 26.536V22.792H90.1681V21.4H88.9681V18.172H87.3601V26.536H88.9681ZM80.6521 25.9V28.72H89.3041V27.352H82.2601V25.9H80.6521ZM81.0241 17.932V19.156H85.1761V17.932H81.0241ZM83.1001 20.812C83.9161 20.812 84.3721 21.172 84.3721 21.7C84.3721 22.228 83.9161 22.588 83.1001 22.588C82.2841 22.588 81.8281 22.228 81.8281 21.7C81.8281 21.172 82.2841 20.812 83.1001 20.812Z" fill="white"/>
</svg>
