<svg width="46" height="13" viewBox="0 0 46 13" fill="none" xmlns="http://www.w3.org/2000/svg">
<path d="M10.944 6.992V5.672H0.384V6.992H4.848V7.616C4.644 7.652 4.452 7.688 4.26 7.736C2.964 8.072 2.124 8.912 2.124 10.016C2.124 11.504 3.612 12.476 5.712 12.476C7.812 12.476 9.3 11.504 9.3 10.016C9.3 8.912 8.46 8.072 7.152 7.736C6.936 7.676 6.708 7.64 6.48 7.604V6.992H10.944ZM10.62 4.04C9.156 3.992 7.848 3.776 6.888 3.224C6.744 3.14 6.6 3.032 6.468 2.924L6.54 2.792L6.6 2.66H9.852V1.34H1.476V2.66H4.812L4.764 2.732C4.02 3.596 2.496 3.944 0.696 4.088L1.368 5.324C2.52 5.252 3.84 4.964 4.908 4.388C5.184 4.244 5.424 4.076 5.652 3.896C5.832 4.04 6.012 4.172 6.216 4.292C7.284 4.928 8.604 5.24 9.9 5.24L10.62 4.04ZM5.712 11.18C4.416 11.18 3.732 10.724 3.732 10.016C3.732 9.308 4.416 8.852 5.712 8.852C7.008 8.852 7.692 9.308 7.692 10.016C7.692 10.724 7.008 11.18 5.712 11.18ZM21.364 6.2H14.476V2.972H21.124V1.604H12.868V7.58H16.24V9.764H11.716V11.132H22.276V9.764H17.872V7.58H21.364V6.2ZM29.1921 6.932C27.1761 6.932 25.7241 8.024 25.7241 9.584C25.7241 11.156 27.1761 12.236 29.1921 12.236C31.2081 12.236 32.6601 11.156 32.6601 9.584C32.6601 8.024 31.2081 6.932 29.1921 6.932ZM30.4641 5.288C29.3361 4.976 28.3281 4.472 27.6081 3.632L27.3921 3.344C27.4041 3.332 27.4041 3.308 27.4161 3.284C27.6681 2.684 27.8001 2.036 27.8121 1.34H26.1801C26.0721 3.536 24.7641 5.036 22.6641 5.756L23.6481 6.932C24.6441 6.56 25.6761 5.864 26.4561 4.904C26.5401 4.808 26.6121 4.7 26.6961 4.592L26.7081 4.616C27.5001 5.552 28.5441 6.224 29.5881 6.536L30.4641 5.288ZM32.6961 7.04V4.616H33.9681V3.248H32.6961V1.172H31.0881V7.04H32.6961ZM29.1921 10.916C27.9921 10.916 27.3321 10.388 27.3321 9.584C27.3321 8.78 27.9921 8.252 29.1921 8.252C30.3921 8.252 31.0521 8.78 31.0521 9.584C31.0521 10.388 30.3921 10.916 29.1921 10.916ZM41.9281 8.42V7.196L38.9521 7.232V6.74C39.0361 6.728 39.1201 6.704 39.2041 6.68C40.2481 6.416 40.9801 5.792 40.9801 4.88C40.9801 4.412 40.7521 3.992 40.3561 3.812H41.7481V2.588H34.4521V3.812H35.8441C35.4481 3.992 35.2201 4.412 35.2201 4.88C35.2201 5.804 35.9641 6.416 36.9841 6.68C37.0921 6.716 37.2121 6.74 37.3201 6.752V7.256L34.2481 7.292V8.54L41.9281 8.42ZM43.9681 9.536V5.792H45.1681V4.4H43.9681V1.172H42.3601V9.536H43.9681ZM35.6521 8.9V11.72H44.3041V10.352H37.2601V8.9H35.6521ZM36.0241 0.931999V2.156H40.1761V0.931999H36.0241ZM38.1001 3.812C38.9161 3.812 39.3721 4.172 39.3721 4.7C39.3721 5.228 38.9161 5.588 38.1001 5.588C37.2841 5.588 36.8281 5.228 36.8281 4.7C36.8281 4.172 37.2841 3.812 38.1001 3.812Z" fill="white"/>
</svg>
