<svg width="45" height="11" viewBox="0 0 45 11" fill="none" xmlns="http://www.w3.org/2000/svg">
<path d="M10.62 3.4C9.12 3.28 7.86 2.98 6.888 2.38C6.744 2.284 6.6 2.176 6.468 2.056L6.552 1.876C6.588 1.816 6.612 1.744 6.636 1.684H9.852V0.339999H1.476V1.684H4.896C4.86 1.744 4.824 1.816 4.776 1.876C4.068 2.86 2.592 3.208 0.696 3.448L1.392 4.684C2.604 4.564 3.912 4.228 4.968 3.604C5.232 3.448 5.472 3.28 5.688 3.076C5.844 3.22 6.024 3.352 6.204 3.472C7.236 4.168 8.544 4.504 9.876 4.6L10.62 3.4ZM9.84 10.972V7.348H1.224V8.716H8.232V10.972H9.84ZM10.944 6.568V5.224H0.384V6.568H10.944ZM19.324 7.996C18.496 7.432 17.788 6.808 17.224 6.124C16.78 5.584 16.384 4.972 16.048 4.3C16.42 3.112 16.6 1.84 16.6 0.483999H14.968C14.968 3.724 13.948 6.388 11.38 8.284L12.46 9.4C13.744 8.404 14.716 7.24 15.4 5.92C15.664 6.352 15.964 6.772 16.288 7.18C16.9 7.936 17.572 8.584 18.328 9.148L19.324 7.996ZM21.832 10.924V0.171999H20.224V10.924H21.832ZM32.5761 5.74V3.376H33.8481V2.008H32.5761V0.171999H30.9681V5.74H32.5761ZM30.9441 9.508H26.0481V8.56H30.9441V9.508ZM32.5521 10.852V6.22H30.9441V7.288H26.0481V6.22H24.4401V10.852H32.5521ZM23.5281 0.4V5.488L30.4881 5.164V3.844L25.1361 4.024V0.4H23.5281ZM42.1801 0.364V1.648H37.1401V0.364H35.5321V5.5H43.7881V0.364H42.1801ZM40.4761 10.924V7.732H44.9401V6.364H34.3801V7.732H38.8441V10.924H40.4761ZM37.1401 4.12V2.992H42.1801V4.12H37.1401Z" fill="#242D3C"/>
</svg>
