<svg width="136" height="48" viewBox="0 0 136 48" fill="none" xmlns="http://www.w3.org/2000/svg">
<rect width="136" height="48" rx="16" fill="white"/>
<path d="M38.436 27.448C39.084 26.956 39.66 26.404 40.176 25.78C40.62 25.24 41.016 24.664 41.34 24.04L41.412 24.172C42.18 25.384 43.248 26.5 44.328 27.196L45.3 26.02C43.8 25.168 42.696 23.98 42.012 22.456C42.12 22.108 42.216 21.76 42.3 21.388C42.408 20.932 42.48 20.464 42.528 19.972H44.952V18.604H38.076V19.972H40.884C40.848 20.344 40.788 20.716 40.716 21.076C40.284 23.296 39.192 25.132 37.356 26.332L38.436 27.448ZM47.28 28.924V23.392H48.804V22H47.28V18.172H45.672V28.924H47.28ZM55.384 26.068C54.724 25.492 54.16 24.844 53.716 24.124C53.368 23.56 53.068 22.936 52.84 22.252C53.128 21.136 53.284 19.912 53.32 18.556H51.712C51.664 22.024 50.68 24.664 48.772 26.476L49.936 27.424C50.86 26.476 51.616 25.36 52.192 24.076C52.348 24.4 52.504 24.7 52.672 25C53.128 25.78 53.692 26.488 54.352 27.148L55.384 26.068ZM54.148 22.972H55.816V28.648H57.376V18.292H55.816V21.604H54.148V22.972ZM59.596 28.912V18.172H58.012V28.912H59.596ZM70.7841 28.924V18.172H69.1761V28.924H70.7841ZM66.2841 19.516V18.148H62.5641V19.516H66.2841ZM67.8441 21.448V20.08H60.9561V21.448H67.8441ZM64.4001 21.748C62.4921 21.748 61.3521 23.02 61.3521 24.616C61.3521 26.212 62.4921 27.484 64.4001 27.484C66.3081 27.484 67.4481 26.212 67.4481 24.616C67.4481 23.02 66.3081 21.748 64.4001 21.748ZM64.4001 26.14C63.4281 26.14 62.9601 25.516 62.9601 24.616C62.9601 23.716 63.4281 23.092 64.4001 23.092C65.3721 23.092 65.8401 23.716 65.8401 24.616C65.8401 25.516 65.3721 26.14 64.4001 26.14ZM83.6176 18.484V20.368H78.5776V18.484H76.9696V24.94H80.2816V26.764H75.8176V28.132H86.3776V26.764H81.9136V24.94H85.2256V18.484H83.6176ZM78.5776 23.56V21.712H83.6176V23.56H78.5776ZM97.0256 28.924V18.172H95.4176V28.924H97.0256ZM87.9176 19.972H92.1176C91.8896 22.432 90.2216 24.904 87.4256 26.248L88.4576 27.388C91.4576 25.78 93.8576 22.78 93.8216 18.604H87.9176V19.972Z" fill="#242D3C"/>
</svg>
