<svg width="103" height="34" viewBox="0 0 103 34" fill="none" xmlns="http://www.w3.org/2000/svg">
<path d="M8.866 11.759V2.002H8.294V6.017H6.611V2.244H6.05V11.231H6.611V6.512H8.294V11.759H8.866ZM1.617 8.723H1.595V3.718H4.664V3.212H1.023V9.229H1.628C3.245 9.229 4.191 9.185 5.335 8.921L5.258 8.415C4.147 8.679 3.212 8.723 1.617 8.723ZM10.7351 5.434L10.9221 5.896C12.4181 5.753 14.0461 5.192 14.6071 4.125C15.1681 5.192 16.7961 5.753 18.2921 5.896L18.4791 5.434C16.8841 5.291 14.9701 4.653 14.9151 3.377H18.0941V2.904H14.9041V1.903H14.3211V2.904H11.1421V3.377H14.2991C14.2441 4.653 12.3301 5.291 10.7351 5.434ZM14.8931 8.008V6.93H19.0181V6.457H10.1961V6.93H14.3101V8.008H11.2961V8.459H17.2801V9.526H11.3181V11.627H18.1711V11.154H11.8901V9.977H17.8521V8.008H14.8931ZM28.8183 5.566V5.071H27.2893V1.98H26.7063V9.141H27.2893V5.566H28.8183ZM25.0233 7.678L25.3533 7.238C23.9893 6.732 22.8893 5.522 22.8893 4.114V3.41H25.1993V2.915H19.9963V3.41H22.3173V4.114C22.3173 5.621 21.1623 6.93 19.8093 7.458L20.1173 7.92C21.2613 7.469 22.2073 6.534 22.6143 5.313C23.0213 6.413 23.9233 7.249 25.0233 7.678ZM27.7733 11.033H21.9103V8.547H21.3273V11.528H27.7733V11.033ZM37.5074 7.799V2.002H36.9464V4.609H35.4064V2.189H34.8454V7.733H35.4064V5.104H36.9464V7.799H37.5074ZM33.8884 4.884C33.8884 3.531 32.9534 2.618 31.6774 2.618C30.4014 2.618 29.4664 3.531 29.4664 4.884C29.4664 6.204 30.4014 7.128 31.6774 7.128C32.9534 7.128 33.8884 6.204 33.8884 4.884ZM29.9944 4.884C29.9944 3.872 30.7094 3.124 31.6774 3.124C32.6454 3.124 33.3494 3.872 33.3494 4.884C33.3494 5.852 32.6454 6.633 31.6774 6.633C30.7094 6.633 29.9944 5.852 29.9944 4.884ZM37.5074 8.415H31.0614V8.91H36.9244V11.77H37.5074V8.415ZM46.2736 6.699H47.9896V6.171H46.2736V1.991H45.6906V11.77H46.2736V6.699ZM43.3476 7.392L43.9306 7.447C44.2276 5.478 44.2276 4.191 44.2276 3.487V3.124H39.3436V3.608H43.6556C43.6556 4.323 43.6446 5.588 43.3476 7.392ZM41.6206 8.965V5.918H41.0486V8.987C40.2456 9.02 39.4866 9.009 38.7826 9.009L38.8816 9.526C40.6416 9.526 42.9736 9.482 45.0526 9.163L45.0086 8.723C43.9416 8.866 42.7646 8.932 41.6206 8.965ZM59.4142 5.181V4.675H57.8852V1.991H57.3022V8.019H57.8852V5.181H59.4142ZM55.6192 7.227L55.9382 6.765C54.6072 6.259 53.4412 5.005 53.4412 3.586V2.475H52.8802V3.564C52.8802 5.148 51.7692 6.468 50.3832 7.029L50.6912 7.502C51.8462 7.029 52.7812 6.061 53.1882 4.796C53.5732 5.907 54.5412 6.787 55.6192 7.227ZM54.8052 8.316C52.8142 8.316 51.6592 8.932 51.6592 10.032C51.6592 11.132 52.8142 11.737 54.8052 11.737C56.7962 11.737 57.9622 11.132 57.9622 10.032C57.9622 8.932 56.7962 8.316 54.8052 8.316ZM54.8052 11.264C53.2432 11.264 52.2312 10.78 52.2312 10.032C52.2312 9.273 53.2432 8.789 54.8052 8.789C56.3782 8.789 57.3902 9.273 57.3902 10.032C57.3902 10.78 56.3782 11.264 54.8052 11.264ZM60.1503 3.52H65.8153V3.058H63.2743V1.969H62.6913V3.058H60.1503V3.52ZM68.9393 6.028V5.533H67.3883V2.002H66.8053V9.647H67.3883V6.028H68.9393ZM66.1783 7.997L66.1343 7.568C65.2103 7.7 64.2423 7.788 63.2743 7.832V7.007C64.4623 6.93 65.1883 6.391 65.1883 5.511C65.1883 4.587 64.3083 4.026 62.9773 4.026C61.6353 4.026 60.7553 4.587 60.7553 5.511C60.7553 6.391 61.5033 6.93 62.6913 7.007V7.865C61.6793 7.898 60.7443 7.909 59.9083 7.909L59.9963 8.415C61.7013 8.415 64.0883 8.382 66.1783 7.997ZM61.3053 5.511C61.3053 4.884 61.9653 4.466 62.9773 4.466C63.9893 4.466 64.6493 4.884 64.6493 5.511C64.6493 6.171 63.9893 6.578 62.9773 6.578C61.9653 6.578 61.3053 6.171 61.3053 5.511ZM67.7513 11.033H61.9983V9.141H61.4153V11.528H67.7513V11.033ZM76.8585 7.084H77.4415V1.991H76.8585V7.084ZM74.7025 4.521C74.7025 3.245 73.6795 2.387 72.2385 2.387C70.7975 2.387 69.7745 3.245 69.7745 4.521C69.7745 5.786 70.7975 6.644 72.2385 6.644C73.6795 6.644 74.7025 5.786 74.7025 4.521ZM70.3465 4.521C70.3465 3.597 71.1495 2.882 72.2385 2.882C73.3275 2.882 74.1305 3.597 74.1305 4.521C74.1305 5.467 73.3275 6.16 72.2385 6.16C71.1495 6.16 70.3465 5.467 70.3465 4.521ZM77.8265 11.616V11.132H71.8425V9.779H77.4415V7.612H71.2375V8.096H76.8695V9.317H71.2705V11.616H77.8265ZM86.4386 2.002V4.642H84.2386V5.137H86.4386V7.821H87.0216V2.002H86.4386ZM84.4476 7.392L84.7446 6.93C83.4136 6.457 82.2806 5.203 82.2806 3.883V3.278H84.5686V2.783H79.3766V3.278H81.7086V3.894C81.7086 5.39 80.5206 6.688 79.1676 7.216L79.4646 7.689C80.6196 7.216 81.6206 6.259 82.0166 5.016C82.4126 6.105 83.3476 6.963 84.4476 7.392ZM83.8646 8.184C81.8736 8.184 80.6636 8.822 80.6636 9.966C80.6636 11.11 81.8736 11.748 83.8646 11.748C85.8446 11.748 87.0656 11.11 87.0656 9.966C87.0656 8.822 85.8446 8.184 83.8646 8.184ZM83.8646 11.275C82.2696 11.275 81.2466 10.802 81.2466 9.966C81.2466 9.13 82.2696 8.657 83.8646 8.657C85.4596 8.657 86.4936 9.141 86.4936 9.966C86.4936 10.791 85.4596 11.275 83.8646 11.275ZM93.0487 6.171C95.1277 6.171 96.4257 5.467 96.4257 4.257C96.4257 3.047 95.1277 2.354 93.0487 2.354C90.9697 2.354 89.6717 3.047 89.6717 4.257C89.6717 5.467 90.9697 6.171 93.0487 6.171ZM93.0487 2.827C94.7207 2.827 95.8317 3.377 95.8317 4.257C95.8317 5.137 94.7207 5.687 93.0487 5.687C91.3767 5.687 90.2657 5.137 90.2657 4.257C90.2657 3.377 91.3767 2.827 93.0487 2.827ZM97.4597 7.722V7.227H88.6267V7.722H97.4597ZM96.5027 11.033H90.3977V8.701H89.8147V11.528H96.5027V11.033ZM99.7469 9.372H100.33C100.066 6.556 102.123 6.908 102.123 4.895C102.123 3.498 101.364 2.827 100.22 2.761C99.2079 2.695 98.0309 3.388 97.9099 5.159H98.4819C98.6909 3.63 99.5489 3.344 100.165 3.311C101.254 3.278 101.573 4.224 101.573 4.939C101.54 5.687 101.122 6.05 100.649 6.523C100.176 6.963 99.6039 7.909 99.7469 9.372ZM100.374 10.439H99.7359V11.143H100.374V10.439Z" fill="black"/>
<path d="M11.494 18.422H10.122V23.42H8.624V18.688H7.266V30.448H8.624V24.596H10.122V31.064H11.494V18.422ZM2.548 26.878V21.11H5.81V19.934H1.134V28.068H1.974C2.422 28.068 2.842 28.0633 3.234 28.054C3.626 28.0447 4.004 28.0307 4.368 28.012C4.74133 27.984 5.10533 27.9467 5.46 27.9C5.824 27.8533 6.19733 27.7927 6.58 27.718L6.454 26.528C5.80067 26.6587 5.166 26.7473 4.55 26.794C3.94333 26.8407 3.276 26.8687 2.548 26.878ZM13.4249 22.398L13.8449 23.476C14.9742 23.4013 15.9449 23.21 16.7569 22.902C17.5782 22.594 18.1896 22.174 18.5909 21.642C18.9922 22.174 19.6036 22.594 20.4249 22.902C21.2556 23.21 22.2356 23.4013 23.3649 23.476L23.7569 22.398C22.4782 22.3233 21.4749 22.1273 20.7469 21.81C20.0189 21.4833 19.5849 21.068 19.4449 20.564H23.1829V19.486H19.3189V18.38H17.8769V19.486H14.0269V20.564H17.7509C17.6109 21.068 17.1769 21.4833 16.4489 21.81C15.7209 22.1273 14.7129 22.3233 13.4249 22.398ZM19.3189 25.016H24.3169V23.938H12.9069V25.016H17.8769V25.996H14.2369V27.06H21.4749V27.942H14.2649V30.966H23.2529V29.888H15.6929V28.936H22.8889V25.996H19.3189V25.016ZM36.7058 22.44H35.0258V18.436H33.5698V27.928H35.0258V23.63H36.7058V22.44ZM30.3358 23.7L31.7498 23.854C31.9085 23.0327 31.9971 22.314 32.0158 21.698C32.0438 21.0727 32.0578 20.5453 32.0578 20.116V19.388H25.7018V20.564H30.6438C30.6345 20.956 30.6111 21.4087 30.5738 21.922C30.5458 22.426 30.4665 23.0187 30.3358 23.7ZM32.8978 25.534L32.7998 24.484C32.1745 24.5867 31.5305 24.6613 30.8678 24.708C30.2145 24.7547 29.5518 24.792 28.8798 24.82V22.272H27.4518V24.862C27.0038 24.8807 26.5698 24.89 26.1498 24.89H24.9318L25.0858 26.066C25.6365 26.066 26.2291 26.0613 26.8638 26.052C27.4985 26.0333 28.1518 26.0053 28.8238 25.968C29.5051 25.9307 30.1911 25.8793 30.8818 25.814C31.5725 25.7393 32.2445 25.646 32.8978 25.534ZM28.2918 29.664V27.088H26.8358V30.84H35.4318V29.664H28.2918ZM47.6807 18.408H46.2247V31.106H47.6807V18.408ZM39.4207 26.906V24.246H43.8307V19.556H37.9367V20.732H42.3747V23.084H37.9647V28.096H39.0427C40.1534 28.096 41.2081 28.068 42.2067 28.012C43.2054 27.956 44.2461 27.8347 45.3287 27.648L45.1747 26.472C44.1761 26.6307 43.2147 26.7427 42.2907 26.808C41.3761 26.864 40.4194 26.8967 39.4207 26.906Z" fill="black"/>
</svg>
