<svg width="155" height="108" viewBox="0 0 155 108" fill="none" xmlns="http://www.w3.org/2000/svg">
<path d="M85.0898 66.1744L87.0198 64.9344L88.7198 63.2844L90.7299 60.4844L105.51 73.4744L106.14 72.7644V71.1744L106.98 66.5444L108.28 61.5844L110.14 56.5444L111.29 54.5644L113.15 53.3444L115.06 52.5544H116.94L119.14 52.8844L121.64 53.3444L122.05 54.2444L122.64 56.6844L123.54 58.4444L124.89 60.0344L126.14 61.0444L129.88 59.9344L132.37 58.7644L135.15 57.0244L137.64 55.0244L139.48 53.2244L140.85 51.6644H141.89L144.18 51.2144L146.37 50.7344H148.92L151.05 51.3244L152.87 52.5544L154.2 54.7644L154.4 58.3944L152.24 66.4044L149.86 72.9644L146.7 80.0344L144.68 85.1644L143.81 88.2544L143.08 92.0944L142.33 98.8544L142.86 103.344L143.21 105.754H111.72L110.39 99.7944L109.2 90.8644L109.05 88.4944H107.41L105.16 87.7444L103.13 86.0944L101.78 84.5544V83.1344L104.5 84.6944L105.44 83.0644L106.24 80.4744L106.44 78.2444L106.35 77.0044L97.8798 74.2244H96.7598L94.0698 70.9044L92.5499 69.7444L91.9498 70.0844L92.1698 71.2144L94.6398 75.6444L94.0698 75.6544L85.0898 66.1744Z" fill="#EAEEF2"/>
<path d="M8.14014 74.3639L16.2301 71.7539L17.7801 76.2039L19.6601 79.9939L11.3101 83.5339L8.14014 74.3739V74.3639Z" fill="#D7191F" stroke="#242D3C" stroke-linecap="round" stroke-linejoin="round"/>
<path d="M113.33 29.1131C113.33 29.1131 115.32 27.4331 118.26 28.4631" stroke="#242D3C" stroke-linecap="round" stroke-linejoin="round"/>
<path d="M115.06 31.6738H115.02C114.67 31.6938 114.4 32.0038 114.42 32.3538C114.44 32.6938 114.72 32.9538 115.06 32.9538H115.1C115.45 32.9338 115.72 32.6238 115.7 32.2738C115.68 31.9338 115.4 31.6738 115.06 31.6738Z" fill="#242D3C"/>
<path d="M112.49 22.6133C112.49 22.6133 111.39 33.5433 113.24 40.5433C115.09 47.5433 124.04 59.0133 131.93 42.1333" stroke="#242D3C" stroke-linecap="round" stroke-linejoin="round"/>
<path d="M110.69 34.6436C110.69 34.6436 109.04 36.1736 108.11 37.2336C107.18 38.3036 107.85 40.2936 111.28 39.0936" stroke="#242D3C" stroke-linecap="round" stroke-linejoin="round"/>
<path d="M114.52 43.8538C114.52 43.8538 117.3 45.1438 118.82 41.0938" stroke="#242D3C" stroke-linecap="round" stroke-linejoin="round"/>
<path d="M132.37 33.5836C132.37 33.5836 135.68 39.2936 139.31 35.9036C142.94 32.5136 139.71 25.1436 139.71 25.1436C139.71 25.1436 147.5 15.5636 140.2 5.97355C132.9 -3.61645 122.2 3.42355 120.87 4.48355C119.54 5.54355 117.17 8.13355 116.24 9.93355C115.41 11.5336 115.34 13.9436 112.71 12.5036C110.09 11.0636 101.94 6.77355 95.9303 14.0036C89.9203 21.2336 101.95 27.4336 109.49 23.8936C115.7 20.9836 121.18 19.9636 123.4 22.8636C125.62 25.7636 127.07 30.6736 129.59 30.5436C132.1 30.4136 132.07 24.6636 133.71 24.5836C135.35 24.5036 139.64 28.0236 132.37 33.6036V33.5836Z" stroke="#242D3C" stroke-linecap="round" stroke-linejoin="round"/>
<path d="M142.08 51.8636C142.08 51.8636 151.78 47.9136 154.2 54.7636C156.08 60.0736 144.38 91.2036 135.18 94.7036C125.98 98.2136 99.77 81.9236 99.77 81.9236" stroke="#242D3C" stroke-linecap="round" stroke-linejoin="round"/>
<path d="M99.6601 81.7832C99.6601 81.7832 92.8101 85.4532 89.3901 85.4532C86.3901 85.4532 85.1701 84.9832 83.3101 83.1232" stroke="#242D3C" stroke-linecap="round" stroke-linejoin="round"/>
<path d="M88.7199 83.5944C88.7199 83.5944 84.8399 84.1444 81.6699 80.4844" stroke="#242D3C" stroke-linecap="round" stroke-linejoin="round"/>
<path d="M88.2502 81.5739C88.2502 81.5739 84.3702 82.1239 81.2002 78.4639" stroke="#242D3C" stroke-linecap="round" stroke-linejoin="round"/>
<path d="M88.2502 79.403C88.2502 79.403 84.7202 80.223 81.2002 76.293" stroke="#242D3C" stroke-linecap="round" stroke-linejoin="round"/>
<path d="M94.6403 75.6437C94.6403 75.6437 91.1003 70.4637 92.1303 69.7737C93.1603 69.0837 96.7603 74.2237 96.7603 74.2237" stroke="#242D3C" stroke-linecap="round" stroke-linejoin="round"/>
<path d="M82.4199 75.043C82.4199 75.043 88.1299 79.793 94.0699 75.653" stroke="#242D3C" stroke-linecap="round" stroke-linejoin="round"/>
<path d="M97.8799 74.2236C97.8799 74.2236 124.13 83.3036 134.01 83.6236" stroke="#242D3C" stroke-linecap="round" stroke-linejoin="round"/>
<path d="M131.49 83.3331C131.49 83.3331 135.73 70.1031 140.21 62.2031" stroke="#242D3C" stroke-linecap="round" stroke-linejoin="round"/>
<path d="M141.89 50.334C134.81 59.914 126.14 61.044 126.14 61.044C126.14 61.044 129.87 65.574 134.02 64.624C138.17 63.674 141.9 50.334 141.9 50.334H141.89Z" stroke="#242D3C" stroke-linecap="round" stroke-linejoin="round"/>
<path d="M121.64 53.754C121.64 53.754 112.93 49.304 109.69 57.534C106.46 65.764 105.87 73.474 105.87 73.474" stroke="#242D3C" stroke-linecap="round" stroke-linejoin="round"/>
<path d="M122.21 52.6035C122.21 52.6035 121.15 57.5835 126.14 61.0335C126.14 61.0335 115.82 68.2535 122.21 52.6035Z" stroke="#242D3C" stroke-linecap="round" stroke-linejoin="round"/>
<path d="M106.35 74.2233C106.35 74.2233 92.8502 62.2633 88.7102 58.7533L86.1202 56.7433C86.1202 56.7433 86.2902 48.6633 84.7102 48.6633C83.1302 48.6633 83.8602 53.6933 83.8602 53.6933C83.8602 53.6933 75.3002 44.2133 74.1802 44.9533C73.0602 45.6933 78.2702 51.6633 78.2702 51.6633L78.0502 51.9333C78.0502 51.9333 71.2002 46.2633 70.5302 47.0733C69.3202 48.5533 76.6702 53.6433 76.6702 53.6433L76.2702 54.1333C76.2702 54.1333 68.7102 49.9233 68.3302 51.3133C67.9502 52.7033 75.0002 55.8833 75.0002 55.8833L74.8102 56.1333C74.8102 56.1333 67.9102 54.6233 68.1502 55.8033C68.4202 57.0933 74.0902 57.8233 74.0902 57.8233C74.0902 57.8233 76.4502 61.7833 81.6602 62.5433L91.4802 72.9533" stroke="#242D3C" stroke-linecap="round" stroke-linejoin="round"/>
<path d="M109 87.084C109 87.084 109 95.064 111.78 105.754" stroke="#242D3C" stroke-linecap="round" stroke-linejoin="round"/>
<path d="M109.51 76.2936C109.51 76.2936 110.07 68.9436 114.46 62.2236" stroke="#242D3C" stroke-linecap="round" stroke-linejoin="round"/>
<path d="M143.32 106.324C143.32 106.324 140.19 93.1844 146.97 79.4844" stroke="#242D3C" stroke-linecap="round" stroke-linejoin="round"/>
<path d="M106.35 77.0039C106.35 77.0039 107.13 81.8039 103.89 85.4539" stroke="#242D3C" stroke-linecap="round" stroke-linejoin="round"/>
<path d="M90.7301 60.4844C90.7301 60.4844 87.9001 65.8044 83.3101 66.8044" stroke="#242D3C" stroke-linecap="round" stroke-linejoin="round"/>
<path d="M113.15 80.0332C113.15 80.0332 112.81 84.5832 111.28 86.0932" stroke="#242D3C" stroke-linecap="round" stroke-linejoin="round"/>
<path d="M89.5601 69.2639C89.5601 69.2639 91.6101 69.0839 94.0801 64.7539" stroke="#242D3C" stroke-linecap="round" stroke-linejoin="round"/>
<path d="M101.78 84.3438C101.78 84.3438 104.24 88.4938 107.74 88.4938" stroke="#242D3C" stroke-linecap="round" stroke-linejoin="round"/>
<path d="M8.14014 74.3641C18.1101 71.0141 28.7301 67.8641 32.9901 67.9941C41.9601 68.2841 49.1901 74.2041 47.9501 75.0041C46.7101 75.8041 38.9801 71.5441 38.9801 71.5441" stroke="#242D3C" stroke-linecap="round" stroke-linejoin="round"/>
<path d="M33.9697 74.8037C33.9697 74.8037 42.8097 77.3037 45.8297 77.4237C48.8597 77.5337 57.1197 73.5737 57.1197 73.0037C57.1197 72.4337 55.4297 71.5637 48.3397 73.6437" stroke="#242D3C" stroke-linecap="round" stroke-linejoin="round"/>
<path d="M49.8398 45.2031C56.7998 46.0731 62.1798 52.0431 62.1798 59.2631C62.1798 65.2931 58.4398 70.4431 53.1698 72.4931" stroke="#242D3C" stroke-linecap="round" stroke-linejoin="round"/>
<path d="M37.2997 68.4334C35.2297 65.9634 33.9697 62.7634 33.9697 59.2734C33.9697 51.9934 39.4397 45.9834 46.4797 45.1934" stroke="#242D3C" stroke-linecap="round" stroke-linejoin="round"/>
<path d="M47.2197 73.4341C47.4997 73.4541 47.7897 73.4541 48.0697 73.4541C48.4097 73.4541 48.7597 73.4441 49.0897 73.4141H49.1097" stroke="#242D3C" stroke-linecap="round" stroke-linejoin="round"/>
<path d="M56.5498 70.6035C56.5498 70.6035 58.9198 71.3535 56.5498 72.3235" stroke="#242D3C" stroke-linecap="round" stroke-linejoin="round"/>
<path d="M11.3101 83.6433C21.7101 78.9533 31.5001 75.1133 31.5001 75.1133" stroke="#242D3C" stroke-linecap="round" stroke-linejoin="round"/>
<path d="M50.8101 94.603H15.0401L2.83008 58.793" stroke="#242D3C" stroke-linecap="round" stroke-linejoin="round"/>
<path d="M52.4198 94.6035V97.1435H14.9598C14.9598 97.1435 12.9598 97.1135 14.2098 94.9835" stroke="#242D3C" stroke-linecap="round" stroke-linejoin="round"/>
<path d="M13.8 95.873L1 58.793C1 58.793 1.19 57.523 2.03 57.903" stroke="#242D3C" stroke-linecap="round" stroke-linejoin="round"/>
<path d="M15.8901 70.6035C15.8901 70.6035 17.7601 77.5635 20.0101 80.4735" stroke="#242D3C" stroke-linecap="round" stroke-linejoin="round"/>
<path d="M1 97.1436H65.01V106.164" stroke="#242D3C" stroke-linecap="round" stroke-linejoin="round"/>
<path d="M42.1001 53.7734C42.1001 53.7734 42.2901 65.6134 44.1601 65.5134C46.0301 65.4134 47.2201 54.8934 47.2201 54.8934C47.2201 54.8934 48.7601 65.4134 50.8101 65.5134C52.8601 65.6134 53.0401 53.7734 53.0401 53.7734" stroke="#242D3C" stroke-linecap="round" stroke-linejoin="round"/>
<path d="M39.29 59.5742H56.01" stroke="#242D3C" stroke-linecap="round" stroke-linejoin="round"/>
<path d="M46.4698 46.2539C46.4698 46.2539 37.6998 47.5739 35.5498 55.9339" stroke="#242D3C" stroke-width="0.5" stroke-linecap="round" stroke-linejoin="round"/>
<path d="M60.8898 60.4844C60.8898 60.4844 60.6398 69.4444 50.2998 72.3244" stroke="#242D3C" stroke-width="0.5" stroke-linecap="round" stroke-linejoin="round"/>
<path d="M124.57 63.7441C124.57 63.7441 120.25 70.9941 119.53 77.4541" stroke="#242D3C" stroke-width="0.5" stroke-linecap="round" stroke-linejoin="round"/>
<path d="M117.88 91.3135C117.88 91.3135 117.08 102.073 119.13 107.593" stroke="#242D3C" stroke-width="0.5" stroke-linecap="round" stroke-linejoin="round"/>
<path d="M132.37 33.5836C132.37 33.5836 135.68 39.2936 139.31 35.9036C142.94 32.5136 139.71 25.1436 139.71 25.1436C139.71 25.1436 146.49 17.8236 139.19 8.22355C131.89 -1.36645 121.19 5.67355 119.86 6.73355C118.53 7.79355 117.17 9.82355 116.24 11.6236C115.41 13.2236 115.34 13.9336 112.71 12.4936C110.09 11.0536 104.36 7.57355 98.3502 14.8036C93.1902 21.3736 101.95 27.4236 109.49 23.8836C115.7 20.9736 121.18 19.9536 123.4 22.8536C125.62 25.7536 127.07 30.6636 129.59 30.5336C132.1 30.4036 132.07 24.6536 133.71 24.5736C135.35 24.4936 139.64 28.0136 132.37 33.5936V33.5836Z" fill="#242D3C" stroke="#242D3C" stroke-linecap="round" stroke-linejoin="round"/>
<path d="M111.98 9.62305C111.98 9.62305 114.39 10.633 114.43 12.903" stroke="#242D3C" stroke-linecap="round" stroke-linejoin="round"/>
<path d="M26.1499 50.9141L29.8199 51.8641" stroke="#242D3C" stroke-linecap="round" stroke-linejoin="round"/>
<path d="M31.6899 41.4639L34.6499 44.3139" stroke="#242D3C" stroke-linecap="round" stroke-linejoin="round"/>
<path d="M42.1001 36.7832L42.9501 40.1232" stroke="#242D3C" stroke-linecap="round" stroke-linejoin="round"/>
<path d="M53.0301 36.873L52.3901 39.853" stroke="#242D3C" stroke-linecap="round" stroke-linejoin="round"/>
<path d="M61.15 41.293L59.23 43.363" stroke="#242D3C" stroke-linecap="round" stroke-linejoin="round"/>
<path d="M65.4502 48.7441L62.9902 49.8141" stroke="#242D3C" stroke-linecap="round" stroke-linejoin="round"/>
</svg>
