<svg width="95" height="34" viewBox="0 0 95 34" fill="none" xmlns="http://www.w3.org/2000/svg">
<path d="M8.052 6.512H9.746V6.006H8.052V1.991H7.469V11.77H8.052V6.512ZM1.804 8.734H1.65V2.948H1.067V9.24H1.804C3.333 9.24 4.763 9.13 6.468 8.789L6.38 8.294C4.741 8.635 3.3 8.734 1.804 8.734ZM18.0281 11.781V2.002H17.4451V11.781H18.0281ZM13.3751 2.75C11.8461 2.75 10.8011 3.652 10.8011 4.983C10.8011 6.314 11.8461 7.216 13.3751 7.216C14.9041 7.216 15.9491 6.314 15.9491 4.983C15.9491 3.652 14.9041 2.75 13.3751 2.75ZM13.3751 3.256C14.5521 3.256 15.3881 3.971 15.3881 4.983C15.3881 5.995 14.5521 6.71 13.3751 6.71C12.1981 6.71 11.3621 5.995 11.3621 4.983C11.3621 3.971 12.1981 3.256 13.3751 3.256ZM10.2511 9.02L10.3501 9.526C12.1431 9.526 14.5521 9.526 16.8071 9.119L16.7521 8.668C14.5741 9.02 12.0771 9.02 10.2511 9.02ZM29.0128 9.196H29.5958V2.013H29.0128V9.196ZM27.1538 7.535L27.4618 7.073C26.1088 6.545 24.9208 5.137 24.9208 3.564V2.552H24.3488V3.564C24.3488 5.203 23.2048 6.677 21.8298 7.26L22.1598 7.733C23.3038 7.216 24.2498 6.182 24.6458 4.851C25.0528 6.094 26.0098 7.062 27.1538 7.535ZM29.9258 11.528V11.033H24.0408V8.547H23.4578V11.528H29.9258ZM40.0449 7.436V6.941H37.7679V5.434C38.5709 5.137 39.0109 4.631 39.0109 3.971C39.0109 2.827 37.7239 2.2 35.6229 2.2C33.5329 2.2 32.2569 2.827 32.2569 3.971C32.2569 4.642 32.7079 5.148 33.5109 5.445V6.941H31.2229V7.436H40.0449ZM32.8509 3.971C32.8509 3.168 33.9509 2.673 35.6229 2.673C37.3279 2.673 38.4169 3.168 38.4169 3.971C38.4169 4.763 37.3279 5.28 35.6229 5.28C33.9509 5.28 32.8509 4.763 32.8509 3.971ZM37.1959 6.941H34.0939V5.61C34.5339 5.698 35.0509 5.753 35.6229 5.753C36.2389 5.753 36.7449 5.698 37.1959 5.61V6.941ZM35.6339 8.327C33.5549 8.327 32.3119 8.932 32.3119 10.032C32.3119 11.132 33.5549 11.748 35.6339 11.748C37.7129 11.748 38.9559 11.132 38.9559 10.032C38.9559 8.932 37.7129 8.327 35.6339 8.327ZM35.6339 11.275C33.9619 11.275 32.8949 10.824 32.8949 10.032C32.8949 9.273 33.9619 8.789 35.6339 8.789C37.3059 8.789 38.3729 9.273 38.3729 10.032C38.3729 10.824 37.3059 11.275 35.6339 11.275ZM48.745 7.755V2.002H48.162V4.565H45.962V5.06H48.162V7.755H48.745ZM46.171 7.348L46.468 6.886C45.137 6.38 44.004 5.159 44.004 3.828V3.201H46.292V2.706H41.089V3.201H43.432V3.839C43.432 5.302 42.211 6.633 40.869 7.128L41.188 7.601C42.343 7.128 43.333 6.193 43.729 4.95C44.136 6.039 45.071 6.919 46.171 7.348ZM48.745 8.283H42.508V11.616H48.745V8.283ZM48.184 11.121H43.08V8.767H48.184V11.121ZM58.4242 6.347L58.6662 5.863C57.2032 5.632 55.0802 4.466 55.0802 2.981V2.376H54.4752V2.981C54.4752 4.51 52.3742 5.632 50.8782 5.863L51.1312 6.347C52.4952 6.083 54.2002 5.225 54.7832 3.938C55.3772 5.214 57.0712 6.083 58.4242 6.347ZM55.0472 8.107H59.1832L59.1942 7.612H50.3502V8.107H54.4642V11.759H55.0472V8.107ZM61.1733 5.61H67.7403V5.115H61.7563V2.354H61.1733V5.61ZM68.7853 7.59V7.095H59.9193V7.59H68.7853ZM67.7953 11.022H61.7123V8.69H61.1293V11.517H67.7953V11.022ZM71.8829 6.71H76.3049V5.819H78.7469V7.689H79.3299V1.991H78.7469V3.498H76.3049V2.629H71.8829V6.71ZM72.4439 3.113H75.7329V6.237H72.4439V3.113ZM76.3049 5.335V3.982H78.7469V5.335H76.3049ZM76.6569 8.976V8.877H79.6159V8.393H76.6569V7.359H76.0739V8.393H73.1149V8.877H76.0629V8.976C76.0629 10.076 74.1489 11.066 72.7299 11.275L72.9389 11.726C74.2919 11.495 75.8099 10.769 76.3709 9.757C76.8989 10.758 78.3839 11.495 79.7259 11.726L79.9349 11.275C78.5049 11.044 76.6569 10.065 76.6569 8.976ZM88.9101 7.755V2.002H88.3271V4.565H86.1271V5.06H88.3271V7.755H88.9101ZM86.3361 7.348L86.6331 6.886C85.3021 6.38 84.1691 5.159 84.1691 3.828V3.201H86.4571V2.706H81.2541V3.201H83.5971V3.839C83.5971 5.302 82.3761 6.633 81.0341 7.128L81.3531 7.601C82.5081 7.128 83.4981 6.193 83.8941 4.95C84.3011 6.039 85.2361 6.919 86.3361 7.348ZM88.9101 8.283H82.6731V11.616H88.9101V8.283ZM88.3491 11.121H83.2451V8.767H88.3491V11.121ZM92.0662 9.372H92.6492C92.3852 6.556 94.4422 6.908 94.4422 4.895C94.4422 3.498 93.6832 2.827 92.5392 2.761C91.5272 2.695 90.3502 3.388 90.2292 5.159H90.8012C91.0102 3.63 91.8682 3.344 92.4842 3.311C93.5732 3.278 93.8922 4.224 93.8922 4.939C93.8592 5.687 93.4412 6.05 92.9682 6.523C92.4952 6.963 91.9232 7.909 92.0662 9.372ZM92.6932 10.439H92.0552V11.143H92.6932V10.439Z" fill="black"/>
<path d="M11.13 27.69V18.45H9.688V27.69H11.13ZM7.63 25.702L8.372 24.554C7.88667 24.386 7.45267 24.162 7.07 23.882C6.69667 23.5927 6.37933 23.266 6.118 22.902C5.85667 22.5287 5.656 22.132 5.516 21.712C5.38533 21.2827 5.32 20.844 5.32 20.396V19.136H3.85V20.396C3.85 20.8627 3.78 21.32 3.64 21.768C3.50933 22.2067 3.31333 22.6173 3.052 23C2.79067 23.3827 2.464 23.728 2.072 24.036C1.68933 24.344 1.25067 24.5913 0.756 24.778L1.498 25.94C2.254 25.66 2.88867 25.2493 3.402 24.708C3.91533 24.1573 4.31667 23.5273 4.606 22.818C4.87667 23.49 5.264 24.0733 5.768 24.568C6.28133 25.0533 6.902 25.4313 7.63 25.702ZM11.494 29.664H4.326V26.822H2.87V30.84H11.494V29.664ZM24.3169 24.582H21.5869V22.916C22.0722 22.7013 22.4456 22.44 22.7069 22.132C22.9776 21.8147 23.1129 21.446 23.1129 21.026C23.1129 20.6527 23.0056 20.3213 22.7909 20.032C22.5856 19.7333 22.2869 19.4813 21.8949 19.276C21.5029 19.0707 21.0269 18.9167 20.4669 18.814C19.9162 18.702 19.2956 18.646 18.6049 18.646C17.9142 18.646 17.2889 18.702 16.7289 18.814C16.1782 18.9167 15.7069 19.0707 15.3149 19.276C14.9229 19.4813 14.6196 19.7333 14.4049 20.032C14.1996 20.3213 14.0969 20.6527 14.0969 21.026C14.0969 21.446 14.2276 21.8147 14.4889 22.132C14.7502 22.44 15.1189 22.6967 15.5949 22.902V24.582H12.8789V25.73H24.3169V24.582ZM18.6049 19.766C19.5662 19.766 20.3082 19.8733 20.8309 20.088C21.3536 20.2933 21.6149 20.606 21.6149 21.026C21.6149 21.446 21.3536 21.7633 20.8309 21.978C20.3082 22.1927 19.5662 22.3 18.6049 22.3C17.6436 22.3 16.8969 22.1927 16.3649 21.978C15.8422 21.7633 15.5809 21.446 15.5809 21.026C15.5809 20.606 15.8422 20.2933 16.3649 20.088C16.8969 19.8733 17.6436 19.766 18.6049 19.766ZM17.0369 24.582V23.294C17.2702 23.3313 17.5176 23.3593 17.7789 23.378C18.0496 23.3967 18.3249 23.406 18.6049 23.406C18.8849 23.406 19.1509 23.3967 19.4029 23.378C19.6642 23.3593 19.9116 23.3313 20.1449 23.294V24.582H17.0369ZM18.5769 26.542C17.1769 26.542 16.0989 26.738 15.3429 27.13C14.5962 27.522 14.2229 28.082 14.2229 28.81C14.2229 29.174 14.3209 29.496 14.5169 29.776C14.7222 30.056 15.0116 30.294 15.3849 30.49C15.7582 30.686 16.2109 30.8307 16.7429 30.924C17.2842 31.0267 17.8956 31.078 18.5769 31.078C19.9862 31.078 21.0642 30.882 21.8109 30.49C22.5576 30.098 22.9309 29.538 22.9309 28.81C22.9309 28.082 22.5576 27.522 21.8109 27.13C21.0642 26.738 19.9862 26.542 18.5769 26.542ZM18.5769 29.972C17.6436 29.972 16.9296 29.8787 16.4349 29.692C15.9402 29.496 15.6929 29.202 15.6929 28.81C15.6929 28.418 15.9402 28.1287 16.4349 27.942C16.9296 27.746 17.6436 27.648 18.5769 27.648C19.5102 27.648 20.2242 27.746 20.7189 27.942C21.2229 28.1287 21.4749 28.418 21.4749 28.81C21.4749 29.202 21.2229 29.496 20.7189 29.692C20.2242 29.8787 19.5102 29.972 18.5769 29.972ZM36.7058 22.44H35.0258V18.436H33.5698V27.928H35.0258V23.63H36.7058V22.44ZM30.3358 23.7L31.7498 23.854C31.9085 23.0327 31.9971 22.314 32.0158 21.698C32.0438 21.0727 32.0578 20.5453 32.0578 20.116V19.388H25.7018V20.564H30.6438C30.6345 20.956 30.6111 21.4087 30.5738 21.922C30.5458 22.426 30.4665 23.0187 30.3358 23.7ZM32.8978 25.534L32.7998 24.484C32.1745 24.5867 31.5305 24.6613 30.8678 24.708C30.2145 24.7547 29.5518 24.792 28.8798 24.82V22.272H27.4518V24.862C27.0038 24.8807 26.5698 24.89 26.1498 24.89H24.9318L25.0858 26.066C25.6365 26.066 26.2291 26.0613 26.8638 26.052C27.4985 26.0333 28.1518 26.0053 28.8238 25.968C29.5051 25.9307 30.1911 25.8793 30.8818 25.814C31.5725 25.7393 32.2445 25.646 32.8978 25.534ZM28.2918 29.664V27.088H26.8358V30.84H35.4318V29.664H28.2918ZM47.6807 18.408H46.2247V31.106H47.6807V18.408ZM39.4207 26.906V24.246H43.8307V19.556H37.9367V20.732H42.3747V23.084H37.9647V28.096H39.0427C40.1534 28.096 41.2081 28.068 42.2067 28.012C43.2054 27.956 44.2461 27.8347 45.3287 27.648L45.1747 26.472C44.1761 26.6307 43.2147 26.7427 42.2907 26.808C41.3761 26.864 40.4194 26.8967 39.4207 26.906Z" fill="black"/>
</svg>
