<svg width="53" height="54" viewBox="0 0 53 54" fill="none" xmlns="http://www.w3.org/2000/svg">
<path d="M7.798 47.856H9.618V45.336H10.556V48.976H12.404V40.534H10.556V43.712H9.618V40.66H7.798V47.856ZM1.33 48.332C2.352 47.814 3.332 46.988 4.06 45.98L4.074 45.966C4.298 46.26 4.536 46.54 4.802 46.792C5.362 47.31 5.978 47.73 6.636 47.968L7.644 46.596C6.916 46.344 6.286 46.008 5.768 45.574C5.418 45.294 5.124 44.944 4.872 44.538C4.886 44.468 4.914 44.412 4.928 44.356C4.998 44.174 5.068 43.992 5.11 43.796H7.308V42.284H0.812V43.796H3.192C2.772 45.252 1.764 46.344 0.182 47.058L1.33 48.332ZM12.628 51.65C11.032 51.37 9.576 50.922 8.456 50.11L8.218 49.928C8.498 49.452 8.652 48.92 8.694 48.346H6.734C6.58 50.264 4.424 51.342 1.694 51.72L2.73 53.134C4.018 52.91 5.46 52.406 6.594 51.622C6.832 51.454 7.07 51.272 7.28 51.076C7.406 51.174 7.532 51.286 7.672 51.384C8.848 52.28 10.304 52.84 11.732 53.092L12.628 51.65ZM5.992 41.808V40.296H2.212V41.808H5.992ZM22.7687 40.59V41.794H16.8887V40.59H15.0127V45.854L18.8767 45.868V46.736H13.6687V48.276H25.9887V46.736H20.7807V45.882H24.6447V40.59H22.7687ZM25.4987 51.608C23.8047 51.44 22.2787 51.076 21.0747 50.376C20.9347 50.292 20.7947 50.208 20.6687 50.11L20.7667 49.942C20.9767 49.564 21.1027 49.172 21.1447 48.738H19.1847C18.9187 50.418 16.8327 51.37 14.0607 51.706L14.8587 53.134C16.1887 52.994 17.6727 52.518 18.8907 51.804C19.1847 51.622 19.4507 51.44 19.6887 51.23C19.8567 51.356 20.0387 51.482 20.2347 51.608C21.5647 52.448 23.2027 52.966 24.6727 53.05L25.4987 51.608ZM16.8887 44.314V43.25H22.7687V44.314H16.8887ZM34.0574 47.254C31.7054 47.254 30.0114 48.528 30.0114 50.348C30.0114 52.182 31.7054 53.442 34.0574 53.442C36.4094 53.442 38.1034 52.182 38.1034 50.348C38.1034 48.528 36.4094 47.254 34.0574 47.254ZM35.5414 45.336C34.2254 44.972 33.0494 44.384 32.2094 43.404L31.9574 43.068C31.9714 43.054 31.9714 43.026 31.9854 42.998C32.2794 42.298 32.4334 41.542 32.4474 40.73H30.5434C30.4174 43.292 28.8914 45.042 26.4414 45.882L27.5894 47.254C28.7514 46.82 29.9554 46.008 30.8654 44.888C30.9634 44.776 31.0474 44.65 31.1454 44.524L31.1594 44.552C32.0834 45.644 33.3014 46.428 34.5194 46.792L35.5414 45.336ZM38.1454 47.38V44.552H39.6294V42.956H38.1454V40.534H36.2694V47.38H38.1454ZM34.0574 51.902C32.6574 51.902 31.8874 51.286 31.8874 50.348C31.8874 49.41 32.6574 48.794 34.0574 48.794C35.4574 48.794 36.2274 49.41 36.2274 50.348C36.2274 51.286 35.4574 51.902 34.0574 51.902ZM47.6141 42.508V40.94H40.6701V46.974L48.7901 46.596V45.028L42.5461 45.238V42.508H47.6141ZM51.2261 47.436V44.58H52.7101V42.956H51.2261V40.534H49.3501V47.436H51.2261ZM41.7341 47.996V52.994H51.1981V47.996H41.7341ZM43.6101 49.564H49.3221V51.398H43.6101V49.564Z" fill="#242D3C"/>
<path fill-rule="evenodd" clip-rule="evenodd" d="M28 24C21.9249 24 17 19.0751 17 13C17 6.92487 21.9249 2 28 2C34.0751 2 39 6.92487 39 13C39 15.2092 38.3487 17.2663 37.2277 18.9898L38.2405 22.7696C38.3401 23.1414 37.9999 23.4816 37.6281 23.382L33.7912 22.3539C32.1092 23.3975 30.125 24 28 24Z" fill="#D7191F"/>
<path fill-rule="evenodd" clip-rule="evenodd" d="M26 22C32.0751 22 37 17.0751 37 11C37 4.92487 32.0751 0 26 0C19.9249 0 15 4.92487 15 11C15 13.2092 15.6513 15.2663 16.7723 16.9898L15.7595 20.7696C15.6599 21.1414 16.0001 21.4816 16.3719 21.382L20.2088 20.3539C21.8908 21.3975 23.875 22 26 22Z" fill="#242D3C"/>
<circle cx="26" cy="11" r="1" fill="white"/>
<circle cx="22" cy="11" r="1" fill="white"/>
<circle cx="30" cy="11" r="1" fill="white"/>
</svg>
