<svg width="16" height="16" viewBox="0 0 16 16" fill="none" xmlns="http://www.w3.org/2000/svg">
<path d="M14 12.3333V13H2V12.3333L3.33333 11V7C3.33333 4.93333 4.68667 3.11333 6.66667 2.52667V2.33333C6.66667 1.97971 6.80714 1.64057 7.05719 1.39052C7.30724 1.14048 7.64638 1 8 1C8.35362 1 8.69276 1.14048 8.94281 1.39052C9.19286 1.64057 9.33333 1.97971 9.33333 2.33333V2.52667C11.3133 3.11333 12.6667 4.93333 12.6667 7V11L14 12.3333ZM9.33333 13.6667C9.33333 14.0203 9.19286 14.3594 8.94281 14.6095C8.69276 14.8595 8.35362 15 8 15C7.64638 15 7.30724 14.8595 7.05719 14.6095C6.80714 14.3594 6.66667 14.0203 6.66667 13.6667" fill="#242D3C"/>
<circle cx="12.5" cy="3.5" r="3" fill="#D7191F" stroke="#EAEEF2"/>
</svg>
