<svg width="26" height="46" viewBox="0 0 26 46" fill="none" xmlns="http://www.w3.org/2000/svg">
<path d="M2.16675 7.29159C2.16675 6.73905 2.39502 6.20915 2.80135 5.81845C3.20768 5.42775 3.75878 5.20825 4.33341 5.20825H21.6667C22.2413 5.20825 22.7924 5.42775 23.1988 5.81845C23.6051 6.20915 23.8334 6.73905 23.8334 7.29159V17.7083C23.8334 18.2608 23.6051 18.7907 23.1988 19.1814C22.7924 19.5721 22.2413 19.7916 21.6667 19.7916H4.33341C3.75878 19.7916 3.20768 19.5721 2.80135 19.1814C2.39502 18.7907 2.16675 18.2608 2.16675 17.7083V7.29159Z" fill="#CACACA" stroke="#CACACA" stroke-width="2" stroke-linecap="round" stroke-linejoin="round"/>
<path d="M13.0001 15C14.4361 15 15.6001 13.8807 15.6001 12.5C15.6001 11.1193 14.4361 10 13.0001 10C11.5642 10 10.4001 11.1193 10.4001 12.5C10.4001 13.8807 11.5642 15 13.0001 15Z" fill="white" stroke="white" stroke-width="2" stroke-linecap="round" stroke-linejoin="round"/>
<path d="M12.32 37.77V37.09H10.99V34.78H10.17V40.21H10.99V37.77H12.32ZM8.78 39.63L9.21 38.99C7.93 38.56 7.04 37.42 7.04 36.22V35.23H6.22V36.15C6.22 37.5 5.35 38.75 3.99 39.23L4.42 39.88C5.47 39.48 6.27 38.66 6.64 37.61C7.04 38.53 7.81 39.27 8.78 39.63ZM8.14 40.46C6.31 40.46 5.18 41.06 5.18 42.1C5.18 43.14 6.31 43.73 8.14 43.73C9.95 43.73 11.09 43.14 11.09 42.1C11.09 41.06 9.95 40.46 8.14 40.46ZM8.14 43.09C6.81 43.09 6 42.74 6 42.1C6 41.46 6.81 41.1 8.14 41.1C9.47 41.1 10.27 41.46 10.27 42.1C10.27 42.74 9.47 43.09 8.14 43.09ZM13.9892 35.72H15.3392V37.6H14.0192V38.26H20.5292V37.6H19.2092V35.72H20.5692V35.06H13.9892V35.72ZM16.1592 35.72H18.3892V37.6H16.1592V35.72ZM17.6992 40.82V39.77H21.3392V39.11H13.2292V39.77H16.8792V40.82H14.2292V43.62H20.3492V40.82H17.6992ZM15.0292 41.47H19.5492V42.96H15.0292V41.47Z" fill="#666666"/>
</svg>
