<svg width="26" height="46" viewBox="0 0 26 46" fill="none" xmlns="http://www.w3.org/2000/svg">
<path d="M2.16675 7.29183C2.16675 6.7393 2.39502 6.20939 2.80135 5.81869C3.20768 5.42799 3.75878 5.2085 4.33341 5.2085H21.6667C22.2413 5.2085 22.7924 5.42799 23.1988 5.81869C23.6051 6.20939 23.8334 6.7393 23.8334 7.29183V17.7085C23.8334 18.261 23.6051 18.7909 23.1988 19.1816C22.7924 19.5723 22.2413 19.7918 21.6667 19.7918H4.33341C3.75878 19.7918 3.20768 19.5723 2.80135 19.1816C2.39502 18.7909 2.16675 18.261 2.16675 17.7085V7.29183Z" fill="#D71921" stroke="#D71921" stroke-width="2" stroke-linecap="round" stroke-linejoin="round"/>
<path d="M13.0001 15C14.4361 15 15.6001 13.8807 15.6001 12.5C15.6001 11.1193 14.4361 10 13.0001 10C11.5642 10 10.4001 11.1193 10.4001 12.5C10.4001 13.8807 11.5642 15 13.0001 15Z" fill="white" stroke="white" stroke-width="2" stroke-linecap="round" stroke-linejoin="round"/>
<path d="M12.34 36.97H11.06V34.73H10.03V40.16H11.06V37.82H12.34V36.97ZM8.72 39.68L9.26 38.87C8.92667 38.7567 8.62667 38.6067 8.36 38.42C8.1 38.2333 7.88 38.0233 7.7 37.79C7.52 37.55 7.38333 37.2933 7.29 37.02C7.19667 36.7467 7.15 36.4633 7.15 36.17V35.2H6.11V36.09C6.11 36.4167 6.06333 36.7367 5.97 37.05C5.87667 37.3567 5.73667 37.6433 5.55 37.91C5.36333 38.1767 5.13333 38.4133 4.86 38.62C4.58667 38.8267 4.27333 38.99 3.92 39.11L4.47 39.93C4.99 39.7367 5.43333 39.4567 5.8 39.09C6.16667 38.7233 6.45 38.29 6.65 37.79C6.84333 38.2167 7.11333 38.5967 7.46 38.93C7.81333 39.2567 8.23333 39.5067 8.72 39.68ZM8.15 40.38C7.68333 40.38 7.26333 40.42 6.89 40.5C6.52333 40.5733 6.21 40.6833 5.95 40.83C5.69 40.97 5.49 41.1467 5.35 41.36C5.21 41.5667 5.14 41.8033 5.14 42.07C5.14 42.3367 5.21 42.5767 5.35 42.79C5.49 42.9967 5.69 43.1733 5.95 43.32C6.21 43.4667 6.52333 43.5767 6.89 43.65C7.26333 43.73 7.68333 43.77 8.15 43.77C8.62333 43.77 9.04333 43.73 9.41 43.65C9.78333 43.5767 10.1 43.4667 10.36 43.32C10.62 43.1733 10.8167 42.9967 10.95 42.79C11.09 42.5767 11.16 42.3367 11.16 42.07C11.16 41.5367 10.8933 41.1233 10.36 40.83C9.82667 40.53 9.09 40.38 8.15 40.38ZM8.15 42.96C7.50333 42.96 7.01 42.8867 6.67 42.74C6.33 42.5933 6.16 42.37 6.16 42.07C6.16 41.79 6.33 41.5733 6.67 41.42C7.01 41.2667 7.50333 41.19 8.15 41.19C8.79667 41.19 9.29 41.2667 9.63 41.42C9.97 41.5733 10.14 41.79 10.14 42.07C10.14 42.37 9.97 42.5933 9.63 42.74C9.29 42.8867 8.79667 42.96 8.15 42.96ZM15.2092 35.83V37.49H13.9792V38.32H20.5692V37.49H19.3492V35.83H20.6192V35H13.9292V35.83H15.2092ZM18.3192 35.83V37.49H16.2392V35.83H18.3192ZM17.7992 39.87H21.3692V39.04H13.1992V39.87H16.7692V40.79H14.1792V43.66H20.3792V40.79H17.7992V39.87ZM19.3692 41.61V42.84H15.1992V41.61H19.3692Z" fill="#D71921"/>
</svg>
