<svg width="26" height="46" viewBox="0 0 26 46" fill="none" xmlns="http://www.w3.org/2000/svg">
<path d="M23.4001 20.4948V12.6688C23.4001 12.1243 23.2846 11.5855 23.0605 11.0855C22.8365 10.5855 22.5086 10.1347 22.097 9.76077L14.429 2.79278C14.0429 2.44171 13.5316 2.24609 13.0001 2.24609C12.4686 2.24609 11.9573 2.44171 11.5711 2.79278L3.90322 9.76077C3.49161 10.1347 3.16373 10.5855 2.93966 11.0855C2.71558 11.5855 2.60004 12.1243 2.6001 12.6688V20.4948C2.6001 21.0252 2.81924 21.5339 3.20932 21.909C3.59939 22.284 4.12845 22.4948 4.6801 22.4948H21.3201C21.8717 22.4948 22.4008 22.284 22.7909 21.909C23.1809 21.5339 23.4001 21.0252 23.4001 20.4948Z" fill="#D71921" stroke="#D71921" stroke-width="2" stroke-linecap="round" stroke-linejoin="round"/>
<path d="M16.22 36.23V35.44H13.11V34.63H12.07V35.44H8.91V36.23H16.22ZM16.67 39.66H13.11V39.09C13.8967 39.05 14.5 38.9233 14.92 38.71C15.34 38.49 15.55 38.19 15.55 37.81C15.55 37.3833 15.3 37.0633 14.8 36.85C14.3067 36.63 13.57 36.52 12.59 36.52C11.6033 36.52 10.86 36.63 10.36 36.85C9.86667 37.0633 9.62 37.3833 9.62 37.81C9.62 38.19 9.82667 38.49 10.24 38.71C10.6533 38.9233 11.2633 39.05 12.07 39.09V39.66H8.5V40.47H16.67V39.66ZM10.72 37.81C10.72 37.4233 11.3433 37.23 12.59 37.23C13.8367 37.23 14.46 37.4233 14.46 37.81C14.46 38.1967 13.8367 38.39 12.59 38.39C11.3433 38.39 10.72 38.1967 10.72 37.81ZM9.48 41.06V43.66H15.68V41.06H9.48ZM10.5 42.89V41.84H14.67V42.89H10.5Z" fill="#D71921"/>
</svg>
