<svg width="126" height="93" viewBox="0 0 126 93" fill="none" xmlns="http://www.w3.org/2000/svg">
<mask id="mask0_285_12" style="mask-type:alpha" maskUnits="userSpaceOnUse" x="0" y="0" width="126" height="76">
<rect width="126" height="76" transform="matrix(1 0 0 -1 0 76)" fill="white"/>
</mask>
<g mask="url(#mask0_285_12)">
<path d="M104.788 54.0596C104.788 54.0596 118.075 71.832 115.38 99.8482C115.38 99.8482 114.929 108.024 107.285 108.149C107.285 108.149 98.6126 108.586 99.4239 95.3934L104.788 54.0596Z" fill="url(#paint0_linear_285_12)"/>
<path d="M107.824 109.409C107.273 109.409 104.91 109.293 102.81 107.446C100.238 105.181 99.1005 101.317 99.4242 95.9528L104.901 52.8018L106.231 54.6181C106.363 54.7958 119.259 72.7658 116.652 100.467C116.486 103.489 114.456 109.285 107.937 109.401C107.937 109.409 107.894 109.409 107.824 109.409ZM106.074 57.5087L101.174 96.0842C100.885 100.853 101.865 104.408 104.018 106.325C105.811 107.925 107.797 107.863 107.885 107.863C114.412 107.747 114.893 100.675 114.911 100.374C116.967 78.5239 109.241 62.8881 106.074 57.5087Z" fill="black"/>
<path d="M102.937 89.3963V89.3798C102.937 89.3716 102.937 89.3551 102.946 89.3468C102.955 89.3221 102.955 89.2891 102.955 89.2643C107.301 63.2361 103.369 43.4118 103.369 43.4118V42.5868C102.285 24.4207 86.1974 10 66.5044 10C46.8114 10 30.7238 24.4207 29.6308 42.5951V43.42C29.6308 43.42 25.6992 63.2444 30.0451 89.2726C30.0451 89.2973 30.0539 89.3303 30.0539 89.3551C30.0539 89.3633 30.0539 89.3798 30.0627 89.3881C30.0627 89.3881 30.0627 89.3963 30.0627 89.4046C30.4329 91.6155 32.4869 103.454 33.2802 105.508C36.9209 118.741 43.5851 133.644 44.7928 134.354C44.7928 134.354 41.8573 143.866 51.0427 143.866C51.0427 143.866 62.7668 144.872 62.7668 135.822C62.7668 135.822 60.0429 121.331 66.4868 121.331C72.9306 121.331 70.2068 135.822 70.2068 135.822C70.4007 145.697 81.9309 143.866 81.9309 143.866C90.9223 144.047 88.1808 134.354 88.1808 134.354C89.3884 133.644 97.0312 114.715 100.672 101.482C101.492 99.4198 102.567 91.6073 102.937 89.3963Z" fill="url(#paint1_linear_285_12)"/>
<path d="M79.9107 145C77.85 145 74.79 144.644 72.464 142.849C70.4564 141.294 69.4128 138.985 69.3509 135.982V135.916L69.3597 135.85C69.9081 131.986 70.7394 125.901 67.9889 122.956C67.5555 122.492 67.0868 122.277 66.5031 122.277C65.9194 122.277 65.4506 122.492 65.0173 122.956C62.2668 125.893 63.0981 131.986 63.6465 135.85L63.6553 135.957C63.6553 138.572 62.7444 140.681 60.9579 142.204C57.2699 145.356 51.1852 144.868 50.9287 144.851C50.9199 144.851 50.9199 144.851 50.911 144.851C48.2136 144.851 46.1441 144.04 44.8529 142.435C42.7214 139.788 43.4732 135.858 43.7827 134.634C41.3506 130.844 34.7706 114.666 32.3297 105.797C31.463 103.555 29.2343 90.5081 29.0839 89.6146L29.0751 89.5484L29.038 89.3416L29.0574 89.4574C24.8476 64.315 28.3587 44.6494 28.624 43.2678V42.5149C29.7561 23.7016 46.3917 9 66.5031 9C86.6145 9 103.25 23.7016 104.382 42.4736V43.2761C104.639 44.6577 108.15 64.3232 103.949 89.4574L103.922 89.5815C103.852 90.0117 103.754 90.657 103.63 91.4347C102.958 95.8278 102.251 100.246 101.632 101.842C99.4118 109.925 91.744 130.373 89.2058 134.617C89.4799 135.817 90.2228 139.953 87.9764 142.617C86.6941 144.148 84.6599 144.892 82.0509 144.859C81.7945 144.901 80.9896 145 79.9107 145ZM71.1197 136.015C71.1816 138.481 72.0129 140.342 73.5872 141.567C76.7003 143.991 81.8033 143.23 81.8564 143.221L81.936 143.205H82.0156C84.1204 143.238 85.6593 142.708 86.5879 141.591C88.6398 139.159 87.4281 134.749 87.4104 134.708L87.3242 134.26L87.7023 133.848C89.0377 132.044 96.1749 115.038 99.9424 101.354C100.579 99.6997 101.428 94.1731 101.879 91.1947C102.003 90.4088 102.1 89.7552 102.171 89.3167L102.189 89.2423C106.487 63.5373 102.658 43.6815 102.622 43.4829L102.605 43.334V42.5067C101.534 24.6613 85.6681 10.6381 66.4942 10.6381C47.3203 10.6381 31.463 24.653 30.384 42.548L30.3663 43.4829C30.3309 43.6815 26.5015 63.5373 30.7908 89.1844L30.8085 89.2754C31.3922 92.7915 33.3025 103.481 34.0012 105.301C37.7069 118.745 43.995 132.267 45.2685 133.823L45.615 134.26L45.5692 134.708C45.5604 134.749 44.2957 138.994 46.2591 141.434C47.1965 142.601 48.7973 143.196 50.9906 143.196C51.1233 143.205 56.6508 143.635 59.7551 140.979C61.1524 139.788 61.86 138.117 61.8688 136.007C61.6212 134.261 59.932 125.851 63.6642 121.864C64.4336 121.036 65.3799 120.623 66.4854 120.623C67.5909 120.623 68.5372 121.036 69.3067 121.864C73.0477 125.86 71.3673 134.237 71.1197 136.015Z" fill="black"/>
<path d="M62.3436 68C77.0022 68 91.5 65.5 83 48.5C92.016 34 77.0022 25 62.3436 25C47 26 42 34.6259 42 46.5C42 58.3741 47.685 68 62.3436 68Z" fill="url(#paint2_radial_285_12)"/>
<path d="M46.6991 19.3394C45.6957 21.6397 42.691 26.3128 38.7001 26.602C38.1 25.5106 37.3038 23.8823 36.6138 22.1264C36.1597 20.9707 35.7515 19.7597 35.4756 18.6104C35.0947 17.0234 34.966 15.5539 35.3164 14.5093C35.6754 14.0836 36.8924 13.8871 39.3574 14.9109C40.235 15.2754 41.2708 15.7946 42.4824 16.5133C43.7034 17.2375 45.103 18.1643 46.6991 19.3394Z" fill="#D1121A"/>
<path fill-rule="evenodd" clip-rule="evenodd" d="M36.0247 15.0303C35.8812 15.6683 35.9098 16.5296 36.0928 17.552C36.5574 17.3722 37.0624 17.1198 37.4956 16.797C38.0324 16.3971 38.3817 15.9538 38.4981 15.4614C37.6053 15.1334 36.9572 15.0101 36.5157 14.9929C36.266 14.9831 36.1126 15.0071 36.0247 15.0303ZM39.3572 14.9111L39.6709 14.1471C40.5911 14.5293 41.6619 15.0672 42.9 15.8016C44.1481 16.5419 45.5704 17.4843 47.1847 18.6727L47.7172 19.0648L47.4524 19.672C46.92 20.8923 45.8709 22.7171 44.4233 24.2872C42.9866 25.8456 41.0567 27.2603 38.7596 27.4268L38.2346 27.4648L37.98 27.0016C37.3643 25.8818 36.5526 24.2214 35.8486 22.4298C35.3853 21.2508 34.9633 20.0017 34.6758 18.8039C34.2885 17.1903 34.1076 15.5241 34.5367 14.2449L34.5869 14.0952L34.6886 13.9747C35.1131 13.4713 35.8295 13.3114 36.5783 13.3406C37.366 13.3713 38.3859 13.6133 39.6709 14.1471L39.3572 14.9111ZM40.0238 16.1181C39.7392 16.9788 39.1201 17.6458 38.476 18.1256C37.8378 18.6011 37.1113 18.946 36.4734 19.1737C36.6474 19.7887 36.8547 20.4176 37.0825 21.042C37.8756 20.6835 38.83 20.153 39.6675 19.4868C40.6417 18.712 41.3451 17.8453 41.581 16.9439C41.0179 16.6224 40.4996 16.3491 40.0238 16.1181ZM43.0295 17.8174C42.5773 19.0253 41.6457 20.0228 40.6891 20.7837C39.7055 21.566 38.6005 22.1752 37.6866 22.5822C38.1818 23.7657 38.707 24.8568 39.1557 25.7109C40.6521 25.4329 42.0364 24.4426 43.2162 23.1629C44.2975 21.99 45.1389 20.6463 45.6633 19.6058C44.7096 18.9184 43.8331 18.3261 43.0295 17.8174Z" fill="black"/>
<path d="M82.3137 20.2382C83.5718 22.4098 87.0876 26.7115 91.0856 26.5457C91.5578 25.3933 92.164 23.6851 92.6502 21.8623C92.9703 20.6625 93.2383 19.413 93.3819 18.2397C93.5802 16.6198 93.5413 15.1452 93.0745 14.1471C92.6695 13.7649 91.438 13.7078 89.1053 15.0049C88.2747 15.4667 87.3045 16.1001 86.1823 16.9517C85.0514 17.8098 83.7661 18.8895 82.3137 20.2382Z" fill="#D1121A"/>
<path fill-rule="evenodd" clip-rule="evenodd" d="M92.4299 14.745C92.6449 15.3625 92.7143 16.2215 92.6485 17.258C92.1665 17.1321 91.6362 16.9388 91.169 16.6672C90.5904 16.3309 90.193 15.93 90.0214 15.454C90.8712 15.0268 91.5012 14.8307 91.9378 14.7635C92.1848 14.7255 92.3399 14.7319 92.4299 14.745ZM88.707 14.2813C87.8361 14.7655 86.8334 15.4216 85.6867 16.2917C84.5306 17.169 83.2245 18.2667 81.7555 19.6308L81.271 20.0807L81.6031 20.654C82.2705 21.806 83.52 23.4998 85.1365 24.8955C86.7409 26.2807 88.8189 27.4671 91.12 27.3717L91.6459 27.3499L91.8463 26.8608C92.3309 25.6784 92.9488 23.9365 93.4449 22.0766C93.7714 20.8526 94.0488 19.5637 94.1985 18.341C94.4001 16.6938 94.3907 15.0178 93.8191 13.7957L93.7522 13.6526L93.6376 13.5444C93.1586 13.0925 92.4287 13.015 91.6881 13.129C90.9089 13.2489 89.9231 13.6052 88.707 14.2813ZM88.5801 16.2797C88.9606 17.1025 89.6515 17.6949 90.3459 18.0985C91.0339 18.4985 91.7949 18.7587 92.4545 18.9125C92.3515 19.5433 92.2169 20.1916 92.0614 20.8379C91.2327 20.5717 90.2243 20.1529 89.3166 19.5862C88.2608 18.9269 87.4635 18.1457 87.1268 17.2769C87.6498 16.8936 88.1337 16.5632 88.5801 16.2797ZM85.7868 18.3092C86.3732 19.458 87.412 20.3433 88.4488 20.9906C89.5149 21.6563 90.6819 22.1361 91.636 22.4367C91.2784 23.6687 90.8805 24.8124 90.5317 25.7119C89.0134 25.6057 87.5257 24.7789 86.2082 23.6414C85.0007 22.5988 84.0122 21.3593 83.3731 20.3851C84.2426 19.5939 85.0462 18.9059 85.7868 18.3092Z" fill="black"/>
<ellipse cx="51.5932" cy="52.5651" rx="2.59322" ry="1.30435" fill="#FF9D9D"/>
<ellipse cx="74.0678" cy="52.5651" rx="2.59322" ry="1.30435" fill="#FF9D9D"/>
<ellipse cx="62" cy="57.5" rx="2" ry="2.5" fill="black"/>
<path d="M106.5 58.2C105 55.5 104 56.5 103.5 51.5L100.5 56V74L108 75L106.5 58.2Z" fill="url(#paint3_linear_285_12)"/>
<path d="M101.5 62.5C101.167 63.5 100 66 100 69.5" stroke="black" stroke-width="1.7" stroke-linecap="round"/>
</g>
<g filter="url(#filter0_f_285_12)">
<ellipse cx="30" cy="81.8095" rx="15" ry="6.80952" fill="#E1E1E1"/>
</g>
<g filter="url(#filter1_f_285_12)">
<ellipse cx="93.5" cy="81.8095" rx="14.5" ry="6.80952" fill="#E1E1E1"/>
</g>
<path d="M44.15 78.0502C44.15 78.9703 43.8023 79.6493 43.2717 80.1091C42.7278 80.5806 41.9363 80.8669 41 80.8669C39.2971 80.8669 37.85 79.409 37.85 77.5264C37.85 75.6438 39.2971 74.1859 41 74.1859C41.783 74.1859 42.56 74.6134 43.1692 75.3618C43.778 76.1097 44.15 77.1013 44.15 78.0502Z" fill="#EC4722" stroke="black" stroke-width="1.7"/>
<path d="M77.85 78.0502C77.85 78.9703 78.1977 79.6493 78.7283 80.1091C79.2722 80.5806 80.0637 80.8669 81 80.8669C82.7029 80.8669 84.15 79.409 84.15 77.5264C84.15 75.6438 82.7029 74.1859 81 74.1859C80.217 74.1859 79.44 74.6134 78.8308 75.3618C78.222 76.1097 77.85 77.1013 77.85 78.0502Z" fill="#EC4722" stroke="black" stroke-width="1.7"/>
<path d="M41.15 75.5001C41.15 77.5677 40.26 79.4334 38.2848 80.8137C36.2778 82.2163 33.0967 83.15 28.5 83.15C24.5128 83.15 21.311 82.2255 19.1343 80.7994C16.9643 79.3778 15.85 77.4938 15.85 75.5001C15.85 73.7751 16.2032 72.4823 16.7904 71.5005C17.3754 70.5224 18.2284 69.7929 19.3299 69.25C21.5785 68.1417 24.7731 67.8501 28.5 67.8501C32.1956 67.8501 35.3985 68.2772 37.6527 69.4537C38.7639 70.0336 39.6257 70.786 40.2142 71.7471C40.8024 72.7076 41.15 73.9294 41.15 75.5001Z" fill="url(#paint4_linear_285_12)" stroke="black" stroke-width="1.7"/>
<path d="M106.15 75.5001C106.15 77.5677 105.26 79.4334 103.285 80.8137C101.278 82.2163 98.0967 83.15 93.5 83.15C89.5128 83.15 86.311 82.2255 84.1343 80.7994C81.9643 79.3778 80.85 77.4938 80.85 75.5001C80.85 73.7751 81.2032 72.4823 81.7904 71.5005C82.3754 70.5224 83.2284 69.7929 84.3299 69.25C86.5785 68.1417 89.7731 67.8501 93.5 67.8501C97.1956 67.8501 100.398 68.2772 102.653 69.4537C103.764 70.0336 104.626 70.786 105.214 71.7471C105.802 72.7076 106.15 73.9294 106.15 75.5001Z" fill="url(#paint5_linear_285_12)" stroke="black" stroke-width="1.7"/>
<defs>
<filter id="filter0_f_285_12" x="11" y="71" width="38" height="21.6191" filterUnits="userSpaceOnUse" color-interpolation-filters="sRGB">
<feFlood flood-opacity="0" result="BackgroundImageFix"/>
<feBlend mode="normal" in="SourceGraphic" in2="BackgroundImageFix" result="shape"/>
<feGaussianBlur stdDeviation="2" result="effect1_foregroundBlur_285_12"/>
</filter>
<filter id="filter1_f_285_12" x="75" y="71" width="37" height="21.6191" filterUnits="userSpaceOnUse" color-interpolation-filters="sRGB">
<feFlood flood-opacity="0" result="BackgroundImageFix"/>
<feBlend mode="normal" in="SourceGraphic" in2="BackgroundImageFix" result="shape"/>
<feGaussianBlur stdDeviation="2" result="effect1_foregroundBlur_285_12"/>
</filter>
<linearGradient id="paint0_linear_285_12" x1="107.556" y1="54.0596" x2="107.556" y2="108.151" gradientUnits="userSpaceOnUse">
<stop offset="0.369792" stop-color="#D71921"/>
<stop offset="1" stop-color="#FD6D21"/>
</linearGradient>
<linearGradient id="paint1_linear_285_12" x1="66.5" y1="10" x2="66.5" y2="144" gradientUnits="userSpaceOnUse">
<stop offset="0.473958" stop-color="#D71921"/>
<stop offset="0.796875" stop-color="#FF7222"/>
</linearGradient>
<radialGradient id="paint2_radial_285_12" cx="0" cy="0" r="1" gradientUnits="userSpaceOnUse" gradientTransform="translate(64.5 46.5) rotate(89.1834) scale(28.7028 26.6274)">
<stop offset="0.630208" stop-color="#FFD7CB"/>
<stop offset="1" stop-color="#FFB8A2"/>
</radialGradient>
<linearGradient id="paint3_linear_285_12" x1="104.25" y1="47.5" x2="104.25" y2="75" gradientUnits="userSpaceOnUse">
<stop stop-color="#D81A22"/>
<stop offset="1" stop-color="#D31A22"/>
</linearGradient>
<linearGradient id="paint4_linear_285_12" x1="28.5" y1="67" x2="28.5" y2="84" gradientUnits="userSpaceOnUse">
<stop stop-color="#D81A22"/>
<stop offset="0.645833" stop-color="#F86222"/>
</linearGradient>
<linearGradient id="paint5_linear_285_12" x1="93.5" y1="67" x2="93.5" y2="84" gradientUnits="userSpaceOnUse">
<stop stop-color="#D81A22"/>
<stop offset="0.645833" stop-color="#F86222"/>
</linearGradient>
</defs>
</svg>
