<svg width="212" height="25" viewBox="0 0 212 25" fill="none" xmlns="http://www.w3.org/2000/svg">
<path d="M19.67 0.497999H16.992V13.706H19.67V0.497999ZM12.624 1.928H1.782V4.086H9.764C9.52133 5.87133 8.62867 7.44867 7.086 8.818C5.56067 10.1873 3.368 11.236 0.508 11.964L1.522 14.07C3.27267 13.6193 4.83267 13.0213 6.202 12.276C7.57133 11.5307 8.73267 10.6467 9.686 9.624C10.6393 8.60133 11.3673 7.44867 11.87 6.166C12.3727 4.866 12.624 3.45333 12.624 1.928ZM4.33 14.772V23.716H19.67V14.772H4.33ZM6.982 21.558V16.904H17.044V21.558H6.982ZM41.586 11.704V1.434H38.908V4.398H28.17V1.434H25.492V11.704H41.586ZM38.908 6.556V9.546H28.17V6.556H38.908ZM44.212 16.41V14.252H22.918V16.41H32.148V24.028H34.826V16.41H44.212ZM67.2199 7.544H63.8919V0.497999H61.2139V17.814H63.8919V9.754H67.2199V7.544ZM58.0419 14.148L59.3939 12.016C58.5099 11.704 57.7213 11.2967 57.0279 10.794C56.3346 10.2913 55.7453 9.71933 55.2599 9.078C54.7919 8.43667 54.4279 7.74333 54.1679 6.998C53.9253 6.25267 53.8039 5.49 53.8039 4.71V1.954H51.0999V4.684C51.0999 5.53333 50.9699 6.36533 50.7099 7.18C50.4673 7.99467 50.1033 8.74867 49.6179 9.442C49.1326 10.1353 48.5259 10.7507 47.7979 11.288C47.0873 11.8253 46.2639 12.25 45.3279 12.562L46.7839 14.642C48.1879 14.1393 49.3666 13.4113 50.3199 12.458C51.2733 11.5047 52.0013 10.378 52.5039 9.078C53.0239 10.222 53.7519 11.2447 54.6879 12.146C55.6239 13.03 56.7419 13.6973 58.0419 14.148ZM51.7499 21.376V16.15H49.0719V23.56H64.8279V21.376H51.7499ZM87.5239 0.523999H84.8199V13.758H87.5239V0.523999ZM82.8959 11.21L82.5839 9.052C80.8679 9.39867 79.1779 9.65 77.5139 9.806C75.8672 9.94467 74.1166 10.0227 72.2619 10.04V1.876H69.5839V12.276H71.5339C73.5966 12.276 75.5379 12.198 77.3579 12.042C79.1779 11.8687 81.0239 11.5913 82.8959 11.21ZM72.1319 14.824V23.716H87.5239V14.824H72.1319ZM74.7839 21.558V16.956H84.8979V21.558H74.7839ZM116.866 9.156V7.96H113.252V0.705998H111.874V17.84H113.252V9.156H116.866ZM107.792 8.012C107.792 4.684 105.296 2.422 101.942 2.422C98.5363 2.422 96.0663 4.684 96.0663 8.012C96.0663 11.262 98.5363 13.602 101.942 13.602C105.296 13.602 107.792 11.262 107.792 8.012ZM97.3923 8.012C97.3923 5.542 99.3423 3.644 101.942 3.644C104.516 3.644 106.44 5.542 106.44 8.012C106.44 10.534 104.516 12.38 101.942 12.38C99.3423 12.38 97.3923 10.534 97.3923 8.012ZM114.396 22.078H100.538V16.098H99.1603V23.248H114.396V22.078ZM128.434 9.104H135.506V15.084H136.884V0.732H135.506V3.852H128.434V4.97H135.506V7.96H128.434V9.104ZM131.554 12.25L131.398 11.08C128.07 11.782 125.314 11.964 121.154 11.964H120.868V2.266H119.49V13.134H121.154C125.314 13.134 128.226 12.952 131.554 12.25ZM129.422 15.24C124.742 15.24 121.856 16.774 121.856 19.504C121.856 22.234 124.742 23.768 129.422 23.768C134.102 23.768 136.988 22.234 136.988 19.504C136.988 16.774 134.102 15.24 129.422 15.24ZM129.422 22.624C125.652 22.624 123.234 21.48 123.234 19.504C123.234 17.528 125.652 16.358 129.422 16.358C133.192 16.358 135.636 17.554 135.636 19.504C135.636 21.428 133.192 22.624 129.422 22.624ZM158.254 11.678H162.31V10.508H158.254V0.705998H156.876V23.794H158.254V11.678ZM154.276 4.554H148.218V0.939998H146.84V4.554H140.548V5.724H154.276V4.554ZM147.568 8.012C144.344 8.012 142.082 10.196 142.082 13.212C142.082 16.254 144.344 18.386 147.568 18.386C150.792 18.386 153.054 16.254 153.054 13.212C153.054 10.196 150.792 8.012 147.568 8.012ZM147.568 17.216C145.15 17.216 143.382 15.474 143.382 13.212C143.382 10.924 145.15 9.208 147.568 9.208C149.986 9.208 151.754 10.924 151.754 13.212C151.754 15.474 149.986 17.216 147.568 17.216ZM182.822 23.82V0.732H181.496V23.82H182.822ZM178.09 1.304H176.764V9.312H172.422V10.482H176.764V22.598H178.09V1.304ZM169.796 7.7V2.994H168.496V7.726C168.496 11.678 166.182 15.838 163.14 17.58L164.05 18.62C166.442 17.164 168.34 14.382 169.172 11.054C170.004 14.096 171.824 16.748 174.112 18.126L174.996 17.06C172.006 15.318 169.796 11.314 169.796 7.7ZM206.87 20.7V19.53H201.384V12.874C203.386 11.86 204.608 10.248 204.608 8.168C204.608 4.632 201.202 2.396 196.34 2.396C191.53 2.396 188.098 4.632 188.098 8.168C188.098 10.248 189.294 11.886 191.374 12.9V19.53H185.914V20.7H206.87ZM189.398 8.168C189.398 5.386 192.362 3.514 196.34 3.514C200.37 3.514 203.308 5.386 203.308 8.168C203.308 10.898 200.37 12.796 196.34 12.796C192.362 12.796 189.398 10.898 189.398 8.168ZM200.006 19.53H192.752V13.42C193.818 13.732 195.014 13.914 196.34 13.914C197.692 13.914 198.94 13.732 200.006 13.42V19.53ZM211.418 2.708H209.858L210.092 17.632H211.21L211.418 2.708ZM211.392 20.674H209.884V22.338H211.392V20.674Z" fill="black"/>
</svg>
