<svg width="162" height="38" viewBox="0 0 162 38" fill="none" xmlns="http://www.w3.org/2000/svg">
<path d="M8.866 11.759V2.002H8.294V6.017H6.611V2.244H6.05V11.231H6.611V6.512H8.294V11.759H8.866ZM1.617 8.723H1.595V3.718H4.664V3.212H1.023V9.229H1.628C3.245 9.229 4.191 9.185 5.335 8.921L5.258 8.415C4.147 8.679 3.212 8.723 1.617 8.723ZM10.7351 5.434L10.9221 5.896C12.4181 5.753 14.0461 5.192 14.6071 4.125C15.1681 5.192 16.7961 5.753 18.2921 5.896L18.4791 5.434C16.8841 5.291 14.9701 4.653 14.9151 3.377H18.0941V2.904H14.9041V1.903H14.3211V2.904H11.1421V3.377H14.2991C14.2441 4.653 12.3301 5.291 10.7351 5.434ZM14.8931 8.008V6.93H19.0181V6.457H10.1961V6.93H14.3101V8.008H11.2961V8.459H17.2801V9.526H11.3181V11.627H18.1711V11.154H11.8901V9.977H17.8521V8.008H14.8931ZM20.4583 9.603H19.8203L19.3583 11.77H19.8203L20.4583 9.603ZM28.2058 4.796H30.4608V7.029H31.0438V1.991H30.4608V4.301H28.2058C28.0408 2.992 26.9958 2.365 25.7418 2.365C24.2898 2.365 23.2668 3.256 23.2668 4.565C23.2668 5.852 24.2898 6.776 25.7418 6.776C27.0948 6.776 28.0848 5.973 28.2058 4.796ZM23.8278 4.565C23.8278 3.597 24.6418 2.849 25.7418 2.849C26.8418 2.849 27.6558 3.597 27.6558 4.565C27.6558 5.533 26.8418 6.281 25.7418 6.281C24.6418 6.281 23.8278 5.533 23.8278 4.565ZM31.4618 11.616V11.132H25.4558V9.801H31.0438V7.623H24.8618V8.107H30.4718V9.328H24.8838V11.616H31.4618ZM40.0959 6.523H41.8119V6.028H40.0959V2.002H39.5129V11.759H40.0959V6.523ZM37.4779 3.014H33.1109V9.218H37.4779V3.014ZM36.9169 8.734H33.6829V3.498H36.9169V8.734ZM49.6651 6.512H51.3591V6.006H49.6651V1.991H49.0821V11.77H49.6651V6.512ZM43.4171 8.734H43.2631V2.948H42.6801V9.24H43.4171C44.9461 9.24 46.3761 9.13 48.0811 8.789L47.9931 8.294C46.3541 8.635 44.9131 8.734 43.4171 8.734ZM62.7507 4.928V4.422H61.2217V1.991H60.6387V7.722H61.2217V4.928H62.7507ZM54.1707 7.029H58.5927V2.519H58.0207V4.169H54.7537V2.519H54.1707V7.029ZM54.7537 4.653H58.0207V6.534H54.7537V4.653ZM61.4967 11.121H55.8427V8.811H61.3207V8.316H55.2597V11.616H61.4967V11.121ZM67.6778 5.599C69.8338 5.599 71.0548 4.994 71.0548 3.883C71.0548 2.783 69.8008 2.178 67.6778 2.178C65.5548 2.178 64.3008 2.783 64.3008 3.883C64.3008 4.994 65.5218 5.599 67.6778 5.599ZM67.6778 2.64C69.3938 2.64 70.4608 3.124 70.4608 3.883C70.4608 4.664 69.3938 5.137 67.6778 5.137C65.9618 5.137 64.8948 4.664 64.8948 3.883C64.8948 3.124 65.9618 2.64 67.6778 2.64ZM72.0888 6.864V6.369H63.2558V6.864H72.0888ZM71.2418 11.143H64.9608V9.889H70.9228V7.876H64.3668V8.349H70.3508V9.438H64.3888V11.627H71.2418V11.143ZM82.7875 6.347L83.0295 5.863C81.5665 5.632 79.4435 4.466 79.4435 2.981V2.376H78.8385V2.981C78.8385 4.51 76.7375 5.632 75.2415 5.863L75.4945 6.347C76.8585 6.083 78.5635 5.225 79.1465 3.938C79.7405 5.214 81.4345 6.083 82.7875 6.347ZM79.4105 8.107H83.5465L83.5575 7.612H74.7135V8.107H78.8275V11.759H79.4105V8.107ZM93.5411 7.612H94.1241V2.002H93.5411V7.612ZM88.9211 7.084C90.3841 7.084 91.4071 6.182 91.4071 4.851C91.4071 3.498 90.3841 2.607 88.9211 2.607C87.4801 2.607 86.4571 3.498 86.4571 4.851C86.4571 6.182 87.4801 7.084 88.9211 7.084ZM88.9211 3.102C90.0321 3.102 90.8461 3.839 90.8461 4.851C90.8461 5.852 90.0321 6.589 88.9211 6.589C87.8211 6.589 87.0181 5.852 87.0181 4.851C87.0181 3.839 87.8211 3.102 88.9211 3.102ZM92.9691 8.701V8.052H92.4081V8.701C92.4081 9.471 91.8471 10.549 90.8571 11.132C89.8561 10.604 89.3281 9.625 89.3281 8.701V8.052H88.7671V8.701C88.7671 9.636 87.9201 10.714 86.7211 11.187L87.0181 11.638C87.9861 11.253 88.6791 10.549 89.0311 9.713C89.2951 10.56 89.9001 11.33 90.8681 11.715C91.7921 11.286 92.3861 10.494 92.6831 9.691C93.0241 10.538 93.7171 11.253 94.7291 11.638L95.0261 11.187C93.8051 10.747 92.9691 9.724 92.9691 8.701ZM100.162 5.599C102.318 5.599 103.539 4.994 103.539 3.883C103.539 2.783 102.285 2.178 100.162 2.178C98.0392 2.178 96.7852 2.783 96.7852 3.883C96.7852 4.994 98.0062 5.599 100.162 5.599ZM100.162 2.64C101.878 2.64 102.945 3.124 102.945 3.883C102.945 4.664 101.878 5.137 100.162 5.137C98.4462 5.137 97.3792 4.664 97.3792 3.883C97.3792 3.124 98.4462 2.64 100.162 2.64ZM104.573 6.864V6.369H95.7402V6.864H104.573ZM103.726 11.143H97.4452V9.889H103.407V7.876H96.8512V8.349H102.835V9.438H96.8732V11.627H103.726V11.143ZM112.932 6.644H114.505V6.138H112.932V1.991H112.349V11.77H112.932V6.644ZM108.279 3.08H105.617V3.575H107.74C107.652 5.489 106.926 7.59 105.375 9.141L105.859 9.471C107.63 7.612 108.279 5.214 108.279 3.08ZM110.93 3.08H108.587V3.575H110.38C110.325 5.522 109.808 8.03 108.169 9.823L108.675 10.142C110.523 7.997 110.93 5.148 110.93 3.08ZM116.429 9.372H117.012C116.748 6.556 118.805 6.908 118.805 4.895C118.805 3.498 118.046 2.827 116.902 2.761C115.89 2.695 114.713 3.388 114.592 5.159H115.164C115.373 3.63 116.231 3.344 116.847 3.311C117.936 3.278 118.255 4.224 118.255 4.939C118.222 5.687 117.804 6.05 117.331 6.523C116.858 6.963 116.286 7.909 116.429 9.372ZM117.056 10.439H116.418V11.143H117.056V10.439Z" fill="black"/>
<path d="M13.136 20.768H11.568V26.48H9.856V21.072H8.304V34.512H9.856V27.824H11.568V35.216H13.136V20.768ZM2.912 30.432V23.84H6.64V22.496H1.296V31.792H2.256C2.768 31.792 3.248 31.7867 3.696 31.776C4.144 31.7653 4.576 31.7493 4.992 31.728C5.41867 31.696 5.83467 31.6533 6.24 31.6C6.656 31.5467 7.08267 31.4773 7.52 31.392L7.376 30.032C6.62933 30.1813 5.904 30.2827 5.2 30.336C4.50667 30.3893 3.744 30.4213 2.912 30.432ZM15.3427 25.312L15.8227 26.544C17.1134 26.4587 18.2228 26.24 19.1508 25.888C20.0894 25.536 20.7881 25.056 21.2468 24.448C21.7054 25.056 22.4041 25.536 23.3428 25.888C24.2921 26.24 25.4121 26.4587 26.7028 26.544L27.1508 25.312C25.6894 25.2267 24.5428 25.0027 23.7108 24.64C22.8788 24.2667 22.3828 23.792 22.2228 23.216H26.4948V21.984H22.0788V20.72H20.4307V21.984H16.0307V23.216H20.2868C20.1268 23.792 19.6308 24.2667 18.7987 24.64C17.9667 25.0027 16.8147 25.2267 15.3427 25.312ZM22.0788 28.304H27.7908V27.072H14.7507V28.304H20.4307V29.424H16.2707V30.64H24.5428V31.648H16.3027V35.104H26.5747V33.872H17.9348V32.784H26.1588V29.424H22.0788V28.304ZM37.1975 23.744V22.432H33.7575V20.768H32.1095V22.432H28.6695V23.744H37.1975ZM41.9815 25.392H39.9335V20.784H38.2855V31.616H39.9335V26.752H41.9815V25.392ZM36.4295 27.152C36.4295 26.7467 36.3442 26.3787 36.1735 26.048C36.0028 25.7067 35.7628 25.4187 35.4535 25.184C35.1442 24.9387 34.7762 24.752 34.3495 24.624C33.9228 24.4853 33.4482 24.416 32.9255 24.416C32.4135 24.416 31.9388 24.4853 31.5015 24.624C31.0748 24.752 30.7068 24.9387 30.3975 25.184C30.0882 25.4187 29.8482 25.7067 29.6775 26.048C29.5068 26.3787 29.4215 26.7467 29.4215 27.152C29.4215 27.568 29.5068 27.9467 29.6775 28.288C29.8482 28.6187 30.0882 28.9067 30.3975 29.152C30.7068 29.3867 31.0748 29.568 31.5015 29.696C31.9388 29.824 32.4135 29.888 32.9255 29.888C33.4482 29.888 33.9228 29.824 34.3495 29.696C34.7762 29.568 35.1442 29.3867 35.4535 29.152C35.7628 28.9067 36.0028 28.6187 36.1735 28.288C36.3442 27.9467 36.4295 27.568 36.4295 27.152ZM31.0055 27.152C31.0055 26.6933 31.1815 26.336 31.5335 26.08C31.8855 25.824 32.3495 25.696 32.9255 25.696C33.5015 25.696 33.9655 25.824 34.3175 26.08C34.6802 26.336 34.8615 26.6933 34.8615 27.152C34.8615 27.6107 34.6802 27.968 34.3175 28.224C33.9655 28.48 33.5015 28.608 32.9255 28.608C32.3495 28.608 31.8855 28.48 31.5335 28.224C31.1815 27.968 31.0055 27.6107 31.0055 27.152ZM32.4455 33.616V30.784H30.7815V34.96H40.5095V33.616H32.4455ZM55.6602 32.144H49.9162V28.736H54.1882V27.408H45.8202V23.2H54.0602V21.872H44.1722V28.736H48.2682V32.144H42.5722V33.504H55.6602V32.144ZM66.299 22.272V23.248H58.155V26.496H68.187V25.344H59.771V24.32H67.931V21.136H58.123V22.272H66.299ZM69.579 27.408H56.475V28.624H69.579V27.408ZM59.659 33.936V32.832H67.979V29.6H57.995V30.736H66.347V31.76H58.027V35.072H68.411V33.936H59.659ZM73.7479 27.984L74.4359 29.296C75.6199 29.0613 76.6759 28.624 77.6039 27.984C78.5319 27.344 79.2359 26.5547 79.7159 25.616C80.1959 26.5547 80.8999 27.3387 81.8279 27.968C82.7665 28.5867 83.8492 29.0133 85.0759 29.248L85.7479 27.936C85.0332 27.8187 84.3612 27.6213 83.7319 27.344C83.1025 27.056 82.5532 26.7093 82.0839 26.304C81.6252 25.888 81.2572 25.4293 80.9799 24.928C80.7132 24.4267 80.5799 23.904 80.5799 23.36V23.328H85.1719V22H74.2599V23.328H78.8519V23.36C78.8519 23.904 78.7185 24.432 78.4519 24.944C78.1852 25.4453 77.8172 25.904 77.3479 26.32C76.8892 26.736 76.3505 27.088 75.7319 27.376C75.1132 27.664 74.4519 27.8667 73.7479 27.984ZM86.2759 32.112H80.5639V28.736H78.8999V32.112H73.1879V33.456H86.2759V32.112ZM98.9946 20.768H97.3306V35.232H98.9946V20.768ZM96.2106 23.792V22.464H92.6746V20.8H91.0266V22.464H87.4746V23.792H96.2106ZM92.6746 31.184V29.824C93.5066 29.696 94.1626 29.4027 94.6426 28.944C95.1333 28.4747 95.3786 27.888 95.3786 27.184C95.3786 26.7787 95.2933 26.4107 95.1226 26.08C94.952 25.7493 94.712 25.4667 94.4026 25.232C94.0933 24.9973 93.72 24.816 93.2826 24.688C92.856 24.56 92.3813 24.496 91.8586 24.496C91.336 24.496 90.856 24.56 90.4186 24.688C89.992 24.816 89.6186 24.9973 89.2986 25.232C88.9893 25.4667 88.7493 25.7493 88.5786 26.08C88.408 26.4107 88.3226 26.7787 88.3226 27.184C88.3226 27.888 88.5626 28.4747 89.0426 28.944C89.5333 29.4027 90.1946 29.696 91.0266 29.824V31.232C90.344 31.2533 89.6773 31.2693 89.0266 31.28C88.376 31.28 87.7626 31.28 87.1866 31.28L87.3946 32.64C88.056 32.64 88.7546 32.6347 89.4906 32.624C90.2373 32.6133 91.0053 32.5867 91.7946 32.544C92.5946 32.5013 93.4 32.4427 94.2106 32.368C95.0213 32.2933 95.8266 32.1867 96.6266 32.048L96.5146 30.848C95.896 30.9333 95.2613 31.0027 94.6106 31.056C93.9706 31.0987 93.3253 31.1413 92.6746 31.184ZM89.8906 27.184C89.8906 26.736 90.072 26.3893 90.4346 26.144C90.7973 25.888 91.272 25.76 91.8586 25.76C92.4346 25.76 92.904 25.888 93.2666 26.144C93.6293 26.3893 93.8106 26.736 93.8106 27.184C93.8106 27.632 93.6293 27.984 93.2666 28.24C92.904 28.496 92.4346 28.624 91.8586 28.624C91.272 28.624 90.7973 28.496 90.4346 28.24C90.072 27.984 89.8906 27.632 89.8906 27.184ZM113.329 20.784H111.761V26.768H110.225V21.088H108.689V34.56H110.225V28.128H111.761V35.232H113.329V20.784ZM105.361 23.136V21.2H103.729V23.136H100.993V24.464H108.065V23.136H105.361ZM104.545 25.28C104.087 25.28 103.665 25.36 103.281 25.52C102.897 25.68 102.567 25.9093 102.289 26.208C102.012 26.5067 101.793 26.864 101.633 27.28C101.484 27.6853 101.409 28.1387 101.409 28.64C101.409 29.1307 101.484 29.584 101.633 30C101.793 30.416 102.012 30.7733 102.289 31.072C102.567 31.36 102.897 31.5893 103.281 31.76C103.665 31.92 104.087 32 104.545 32C105.004 32 105.425 31.92 105.809 31.76C106.193 31.5893 106.524 31.36 106.801 31.072C107.079 30.7733 107.292 30.416 107.441 30C107.601 29.584 107.681 29.1307 107.681 28.64C107.681 28.1387 107.601 27.6853 107.441 27.28C107.292 26.864 107.079 26.5067 106.801 26.208C106.524 25.9093 106.193 25.68 105.809 25.52C105.425 25.36 105.004 25.28 104.545 25.28ZM104.545 30.624C104.055 30.624 103.655 30.448 103.345 30.096C103.036 29.7333 102.881 29.248 102.881 28.64C102.881 28.032 103.036 27.5467 103.345 27.184C103.655 26.8213 104.055 26.64 104.545 26.64C105.036 26.64 105.436 26.8213 105.745 27.184C106.055 27.5467 106.209 28.032 106.209 28.64C106.209 29.248 106.055 29.7333 105.745 30.096C105.436 30.448 105.036 30.624 104.545 30.624ZM128.032 32.112H122.288V29.2H126.528V21.744H124.896V24.176H118.048V21.744H116.416V29.2H120.64V32.112H114.944V33.472H128.032V32.112ZM118.048 27.872V25.504H124.896V27.872H118.048ZM141.199 20.784H139.631V35.232H141.199V20.784ZM136.687 21.056V25.84H134.559V27.184H136.687V34.56H138.239V21.056H136.687ZM133.295 24.64V22.112H131.695V24.72C131.695 25.3387 131.631 25.9573 131.503 26.576C131.386 27.184 131.199 27.7653 130.943 28.32C130.687 28.8747 130.367 29.3813 129.983 29.84C129.61 30.2987 129.167 30.6827 128.655 30.992L129.663 32.24C130.367 31.8133 130.954 31.2427 131.423 30.528C131.892 29.8133 132.255 29.0027 132.511 28.096C132.756 28.9067 133.092 29.648 133.519 30.32C133.956 30.9813 134.511 31.5147 135.183 31.92L136.111 30.64C135.631 30.3307 135.21 29.9573 134.847 29.52C134.495 29.072 134.202 28.5867 133.967 28.064C133.743 27.5307 133.572 26.976 133.455 26.4C133.348 25.8133 133.295 25.2267 133.295 24.64ZM155.87 32.112H152.782V28.352C153.358 28.0213 153.806 27.6053 154.126 27.104C154.456 26.6027 154.622 26.032 154.622 25.392C154.622 24.816 154.488 24.2987 154.222 23.84C153.955 23.3707 153.587 22.9707 153.118 22.64C152.648 22.3093 152.088 22.0587 151.438 21.888C150.787 21.7067 150.078 21.616 149.31 21.616C148.542 21.616 147.832 21.7067 147.182 21.888C146.531 22.0587 145.966 22.3093 145.486 22.64C145.016 22.9707 144.648 23.3707 144.382 23.84C144.126 24.2987 143.998 24.816 143.998 25.392C143.998 26.032 144.158 26.608 144.478 27.12C144.808 27.6213 145.262 28.032 145.838 28.352V32.112H142.782V33.456H155.87V32.112ZM149.31 22.912C149.854 22.912 150.35 22.9707 150.798 23.088C151.256 23.2053 151.646 23.3707 151.966 23.584C152.296 23.7973 152.552 24.0587 152.734 24.368C152.915 24.6667 153.006 25.008 153.006 25.392C153.006 25.776 152.915 26.1227 152.734 26.432C152.552 26.7413 152.296 27.0027 151.966 27.216C151.646 27.4293 151.256 27.5947 150.798 27.712C150.35 27.8293 149.854 27.888 149.31 27.888C148.766 27.888 148.264 27.8293 147.806 27.712C147.347 27.5947 146.952 27.4293 146.622 27.216C146.302 27.0027 146.051 26.7413 145.87 26.432C145.688 26.1227 145.598 25.776 145.598 25.392C145.598 25.008 145.688 24.6667 145.87 24.368C146.051 24.0587 146.302 23.7973 146.622 23.584C146.952 23.3707 147.347 23.2053 147.806 23.088C148.264 22.9707 148.766 22.912 149.31 22.912ZM147.486 32.112V28.976C148.051 29.104 148.659 29.168 149.31 29.168C149.63 29.168 149.944 29.152 150.254 29.12C150.563 29.088 150.856 29.0347 151.134 28.96V32.112H147.486ZM159.244 30.704L159.564 21.952H157.708L157.756 23.84L158.012 30.704H159.244ZM157.692 34.208H159.58V32.224H157.692V34.208Z" fill="black"/>
</svg>
