<svg width="79" height="14" viewBox="0 0 79 14" fill="none" xmlns="http://www.w3.org/2000/svg">
<path d="M1.8077 5.056L3.4877 3.642C3.47837 3.76333 3.4737 3.88 3.4737 3.992V10.656H1.3177V12H6.9597V10.656H5.0137V1.626H3.7537L0.953703 4.02L1.8077 5.056ZM8.74755 10.222L8.21555 13.134H9.50355L10.3995 10.222H8.74755ZM12.9454 8.836L11.5874 9.396C11.8674 10.3387 12.292 11.0293 12.8614 11.468C13.4307 11.9067 14.1914 12.126 15.1434 12.126C15.6194 12.126 16.0674 12.056 16.4874 11.916C16.9167 11.776 17.29 11.5707 17.6074 11.3C17.9247 11.0293 18.1767 10.7027 18.3634 10.32C18.55 9.928 18.6434 9.48467 18.6434 8.99C18.6434 8.33667 18.4754 7.814 18.1394 7.422C17.8034 7.02067 17.3274 6.73133 16.7114 6.554C17.3087 6.36733 17.7427 6.078 18.0134 5.686C18.284 5.294 18.4194 4.79933 18.4194 4.202C18.4194 3.76333 18.3307 3.38067 18.1534 3.054C17.9854 2.718 17.7567 2.438 17.4674 2.214C17.1874 1.99 16.8607 1.822 16.4874 1.71C16.1234 1.598 15.7454 1.542 15.3534 1.542C14.392 1.542 13.608 1.808 13.0014 2.34C12.3947 2.86267 12.026 3.586 11.8954 4.51L13.4214 4.776C13.4027 4.496 13.4354 4.23933 13.5194 4.006C13.6127 3.77267 13.7434 3.572 13.9114 3.404C14.0794 3.236 14.28 3.10533 14.5134 3.012C14.756 2.90933 15.008 2.858 15.2694 2.858C15.7827 2.858 16.184 3.00267 16.4734 3.292C16.772 3.572 16.9214 3.964 16.9214 4.468C16.9214 4.81333 16.8514 5.09333 16.7114 5.308C16.5807 5.52267 16.408 5.69533 16.1934 5.826C15.9787 5.94733 15.7314 6.03133 15.4514 6.078C15.1714 6.12467 14.8867 6.148 14.5974 6.148V7.268C14.9147 7.268 15.2227 7.28667 15.5214 7.324C15.82 7.36133 16.086 7.44067 16.3194 7.562C16.5527 7.68333 16.7394 7.86067 16.8794 8.094C17.0287 8.32733 17.1034 8.64 17.1034 9.032C17.1034 9.30267 17.0474 9.55 16.9354 9.774C16.8327 9.98867 16.688 10.1753 16.5014 10.334C16.324 10.4833 16.114 10.6 15.8714 10.684C15.638 10.768 15.3907 10.81 15.1294 10.81C14.868 10.81 14.6114 10.7587 14.3594 10.656C14.1074 10.544 13.8834 10.3993 13.6874 10.222C13.4914 10.0447 13.3234 9.83467 13.1834 9.592C13.0527 9.34933 12.9734 9.09733 12.9454 8.836ZM21.0472 12H23.0072L25.6952 8.15C26.0499 7.63667 26.3345 7.128 26.5492 6.624C26.7732 6.12 26.8852 5.55067 26.8852 4.916C26.8852 4.39333 26.8012 3.92667 26.6332 3.516C26.4745 3.096 26.2459 2.74133 25.9472 2.452C25.6485 2.16267 25.2892 1.93867 24.8692 1.78C24.4585 1.62133 24.0059 1.542 23.5112 1.542C23.0259 1.542 22.5685 1.626 22.1392 1.794C21.7192 1.95267 21.3505 2.17667 21.0332 2.466C20.7252 2.75533 20.4779 3.10533 20.2912 3.516C20.1139 3.91733 20.0252 4.36067 20.0252 4.846C20.0252 5.27533 20.0952 5.672 20.2352 6.036C20.3752 6.4 20.5712 6.71733 20.8232 6.988C21.0752 7.24933 21.3785 7.45467 21.7332 7.604C22.0879 7.744 22.4799 7.814 22.9092 7.814C23.2359 7.814 23.5485 7.772 23.8472 7.688C24.1552 7.59467 24.4445 7.45467 24.7152 7.268L24.2252 7.94L21.0472 12ZM21.5652 4.734C21.5652 4.44467 21.6119 4.18333 21.7052 3.95C21.8079 3.71667 21.9432 3.516 22.1112 3.348C22.2792 3.18 22.4799 3.04933 22.7132 2.956C22.9465 2.86267 23.2032 2.816 23.4832 2.816C24.0805 2.816 24.5472 2.998 24.8832 3.362C25.2285 3.71667 25.4012 4.17867 25.4012 4.748C25.4012 5.028 25.3499 5.28467 25.2472 5.518C25.1539 5.75133 25.0185 5.952 24.8412 6.12C24.6732 6.27867 24.4679 6.40467 24.2252 6.498C23.9919 6.59133 23.7305 6.638 23.4412 6.638C22.8439 6.638 22.3819 6.47 22.0552 6.134C21.7285 5.78867 21.5652 5.322 21.5652 4.734ZM35.281 12V10.628H31.697C31.473 10.628 31.2444 10.6467 31.011 10.684C30.787 10.7213 30.5677 10.768 30.353 10.824L32.985 8.164C33.2464 7.90267 33.503 7.63667 33.755 7.366C34.007 7.09533 34.231 6.81067 34.427 6.512C34.6324 6.204 34.7957 5.882 34.917 5.546C35.0384 5.21 35.099 4.846 35.099 4.454C35.099 3.98733 35.015 3.572 34.847 3.208C34.679 2.844 34.4504 2.54067 34.161 2.298C33.881 2.046 33.5497 1.85933 33.167 1.738C32.7844 1.60733 32.3737 1.542 31.935 1.542C30.9737 1.542 30.185 1.80333 29.569 2.326C28.9624 2.83933 28.5937 3.56267 28.463 4.496L30.003 4.776C29.9844 4.496 30.017 4.23933 30.101 4.006C30.185 3.77267 30.311 3.572 30.479 3.404C30.647 3.236 30.8477 3.10533 31.081 3.012C31.3144 2.90933 31.571 2.858 31.851 2.858C32.3457 2.858 32.719 2.97 32.971 3.194C33.2324 3.40867 33.3957 3.67933 33.461 4.006C33.5357 4.32333 33.531 4.66867 33.447 5.042C33.363 5.41533 33.2324 5.76067 33.055 6.078C32.8684 6.36733 32.6677 6.63333 32.453 6.876C32.2384 7.11867 32.0097 7.36133 31.767 7.604L28.281 11.104V12H35.281ZM36.7749 10.222L36.2429 13.134H37.5309L38.4269 10.222H36.7749ZM46.9087 6.834C46.9087 6.23667 46.848 5.62533 46.7267 5C46.6054 4.37467 46.4 3.80533 46.1107 3.292C45.8214 2.77867 45.434 2.35867 44.9487 2.032C44.4634 1.70533 43.8567 1.542 43.1287 1.542C42.41 1.542 41.808 1.70533 41.3227 2.032C40.8374 2.34933 40.45 2.76 40.1607 3.264C39.8714 3.768 39.666 4.33733 39.5447 4.972C39.4234 5.59733 39.3627 6.218 39.3627 6.834C39.3627 7.45 39.4234 8.07067 39.5447 8.696C39.666 9.32133 39.8714 9.89067 40.1607 10.404C40.45 10.908 40.8374 11.3187 41.3227 11.636C41.808 11.9533 42.41 12.112 43.1287 12.112C43.8474 12.112 44.4494 11.9533 44.9347 11.636C45.42 11.3187 45.8074 10.908 46.0967 10.404C46.3954 9.89067 46.6054 9.32133 46.7267 8.696C46.848 8.07067 46.9087 7.45 46.9087 6.834ZM45.3127 6.834C45.3127 7.198 45.2894 7.60867 45.2427 8.066C45.196 8.52333 45.0934 8.95733 44.9347 9.368C44.7854 9.77867 44.566 10.124 44.2767 10.404C43.9967 10.684 43.614 10.824 43.1287 10.824C42.6527 10.824 42.27 10.684 41.9807 10.404C41.6914 10.124 41.4674 9.77867 41.3087 9.368C41.1594 8.95733 41.0614 8.52333 41.0147 8.066C40.968 7.60867 40.9447 7.198 40.9447 6.834C40.9447 6.47 40.968 6.05933 41.0147 5.602C41.0614 5.14467 41.1594 4.71067 41.3087 4.3C41.4674 3.88933 41.6867 3.544 41.9667 3.264C42.256 2.984 42.6434 2.844 43.1287 2.844C43.614 2.844 43.9967 2.984 44.2767 3.264C44.566 3.544 44.7854 3.88933 44.9347 4.3C45.0934 4.71067 45.196 5.14467 45.2427 5.602C45.2894 6.05933 45.3127 6.47 45.3127 6.834ZM55.2485 6.834C55.2485 6.23667 55.1879 5.62533 55.0665 5C54.9452 4.37467 54.7399 3.80533 54.4505 3.292C54.1612 2.77867 53.7739 2.35867 53.2885 2.032C52.8032 1.70533 52.1965 1.542 51.4685 1.542C50.7499 1.542 50.1479 1.70533 49.6625 2.032C49.1772 2.34933 48.7899 2.76 48.5005 3.264C48.2112 3.768 48.0059 4.33733 47.8845 4.972C47.7632 5.59733 47.7025 6.218 47.7025 6.834C47.7025 7.45 47.7632 8.07067 47.8845 8.696C48.0059 9.32133 48.2112 9.89067 48.5005 10.404C48.7899 10.908 49.1772 11.3187 49.6625 11.636C50.1479 11.9533 50.7499 12.112 51.4685 12.112C52.1872 12.112 52.7892 11.9533 53.2745 11.636C53.7599 11.3187 54.1472 10.908 54.4365 10.404C54.7352 9.89067 54.9452 9.32133 55.0665 8.696C55.1879 8.07067 55.2485 7.45 55.2485 6.834ZM53.6525 6.834C53.6525 7.198 53.6292 7.60867 53.5825 8.066C53.5359 8.52333 53.4332 8.95733 53.2745 9.368C53.1252 9.77867 52.9059 10.124 52.6165 10.404C52.3365 10.684 51.9539 10.824 51.4685 10.824C50.9925 10.824 50.6099 10.684 50.3205 10.404C50.0312 10.124 49.8072 9.77867 49.6485 9.368C49.4992 8.95733 49.4012 8.52333 49.3545 8.066C49.3079 7.60867 49.2845 7.198 49.2845 6.834C49.2845 6.47 49.3079 6.05933 49.3545 5.602C49.4012 5.14467 49.4992 4.71067 49.6485 4.3C49.8072 3.88933 50.0265 3.544 50.3065 3.264C50.5959 2.984 50.9832 2.844 51.4685 2.844C51.9539 2.844 52.3365 2.984 52.6165 3.264C52.9059 3.544 53.1252 3.88933 53.2745 4.3C53.4332 4.71067 53.5359 5.14467 53.5825 5.602C53.6292 6.05933 53.6525 6.47 53.6525 6.834ZM63.5884 6.834C63.5884 6.23667 63.5277 5.62533 63.4064 5C63.2851 4.37467 63.0797 3.80533 62.7904 3.292C62.5011 2.77867 62.1137 2.35867 61.6284 2.032C61.1431 1.70533 60.5364 1.542 59.8084 1.542C59.0897 1.542 58.4877 1.70533 58.0024 2.032C57.5171 2.34933 57.1297 2.76 56.8404 3.264C56.5511 3.768 56.3457 4.33733 56.2244 4.972C56.1031 5.59733 56.0424 6.218 56.0424 6.834C56.0424 7.45 56.1031 8.07067 56.2244 8.696C56.3457 9.32133 56.5511 9.89067 56.8404 10.404C57.1297 10.908 57.5171 11.3187 58.0024 11.636C58.4877 11.9533 59.0897 12.112 59.8084 12.112C60.5271 12.112 61.1291 11.9533 61.6144 11.636C62.0997 11.3187 62.4871 10.908 62.7764 10.404C63.0751 9.89067 63.2851 9.32133 63.4064 8.696C63.5277 8.07067 63.5884 7.45 63.5884 6.834ZM61.9924 6.834C61.9924 7.198 61.9691 7.60867 61.9224 8.066C61.8757 8.52333 61.7731 8.95733 61.6144 9.368C61.4651 9.77867 61.2457 10.124 60.9564 10.404C60.6764 10.684 60.2937 10.824 59.8084 10.824C59.3324 10.824 58.9497 10.684 58.6604 10.404C58.3711 10.124 58.1471 9.77867 57.9884 9.368C57.8391 8.95733 57.7411 8.52333 57.6944 8.066C57.6477 7.60867 57.6244 7.198 57.6244 6.834C57.6244 6.47 57.6477 6.05933 57.6944 5.602C57.7411 5.14467 57.8391 4.71067 57.9884 4.3C58.1471 3.88933 58.3664 3.544 58.6464 3.264C58.9357 2.984 59.3231 2.844 59.8084 2.844C60.2937 2.844 60.6764 2.984 60.9564 3.264C61.2457 3.544 61.4651 3.88933 61.6144 4.3C61.7731 4.71067 61.8757 5.14467 61.9224 5.602C61.9691 6.05933 61.9924 6.47 61.9924 6.834ZM76.8651 7.856H74.3871V8.864H76.8651V10.04H78.3071V0.422H76.8651V7.856ZM71.8671 5.364C72.3338 5.364 72.7584 5.31267 73.1411 5.21C73.5238 5.098 73.8504 4.94867 74.1211 4.762C74.3918 4.566 74.6018 4.33267 74.7511 4.062C74.9098 3.782 74.9891 3.474 74.9891 3.138C74.9891 2.802 74.9098 2.49867 74.7511 2.228C74.6018 1.948 74.3918 1.71467 74.1211 1.528C73.8504 1.332 73.5238 1.18267 73.1411 1.08C72.7584 0.967999 72.3338 0.911999 71.8671 0.911999C71.4098 0.911999 70.9851 0.967999 70.5931 1.08C70.2104 1.18267 69.8791 1.332 69.5991 1.528C69.3284 1.71467 69.1138 1.948 68.9551 2.228C68.8058 2.49867 68.7311 2.802 68.7311 3.138C68.7311 3.474 68.8058 3.782 68.9551 4.062C69.1138 4.33267 69.3284 4.566 69.5991 4.762C69.8791 4.94867 70.2104 5.098 70.5931 5.21C70.9851 5.31267 71.4098 5.364 71.8671 5.364ZM71.8671 1.976C72.3991 1.976 72.8238 2.08333 73.1411 2.298C73.4584 2.50333 73.6171 2.78333 73.6171 3.138C73.6171 3.49267 73.4584 3.77733 73.1411 3.992C72.8238 4.19733 72.3991 4.3 71.8671 4.3C71.3351 4.3 70.9058 4.19733 70.5791 3.992C70.2618 3.77733 70.1031 3.49267 70.1031 3.138C70.1031 2.78333 70.2618 2.50333 70.5791 2.298C70.9058 2.08333 71.3351 1.976 71.8671 1.976ZM71.2931 7.282V9.634H72.7351V7.198C73.2764 7.17 73.8178 7.128 74.3591 7.072C74.9098 7.00667 75.4511 6.92733 75.9831 6.834L75.8711 5.798C75.1991 5.882 74.5084 5.952 73.7991 6.008C73.0898 6.05467 72.3851 6.092 71.6851 6.12C70.9851 6.13867 70.2991 6.15267 69.6271 6.162C68.9644 6.17133 68.3438 6.176 67.7651 6.176L67.9471 7.352C68.4511 7.352 68.9784 7.34733 69.5291 7.338C70.0891 7.32867 70.6771 7.31 71.2931 7.282ZM78.6011 11.664H70.9151V9.102H69.4731V12.84H78.6011V11.664Z" fill="black"/>
</svg>
