<svg width="73" height="16" viewBox="0 0 73 16" fill="none" xmlns="http://www.w3.org/2000/svg">
<path d="M14.256 7.84V6.48H12V0.783999H10.352V15.232H12V7.84H14.256ZM5.872 4.976V3.584H8.928V2.224H1.072V3.584H4.224V4.976C4.224 5.57333 4.13333 6.18133 3.952 6.8C3.78133 7.41867 3.536 8.01067 3.216 8.576C2.896 9.13067 2.50667 9.63733 2.048 10.096C1.6 10.544 1.09867 10.9013 0.544 11.168L1.488 12.48C1.904 12.2773 2.29333 12.0213 2.656 11.712C3.02933 11.392 3.36533 11.04 3.664 10.656C3.97333 10.2613 4.24533 9.83467 4.48 9.376C4.71467 8.90667 4.912 8.42133 5.072 7.92C5.40267 8.85867 5.86667 9.696 6.464 10.432C7.06133 11.168 7.76533 11.728 8.576 12.112L9.488 10.816C8.944 10.56 8.448 10.2187 8 9.792C7.552 9.35467 7.168 8.87467 6.848 8.352C6.53867 7.81867 6.29867 7.264 6.128 6.688C5.95733 6.10133 5.872 5.53067 5.872 4.976ZM27.8068 7.76H22.0948V6.32H26.3028V4.992H17.9988V2.736H26.2067V1.424H16.3668V6.32H20.4468V7.76H14.7507V9.104H27.8068V7.76ZM21.2308 9.984C20.4628 9.984 19.7694 10.0427 19.1508 10.16C18.5321 10.2773 18.0094 10.448 17.5828 10.672C17.1561 10.896 16.8254 11.1733 16.5907 11.504C16.3668 11.824 16.2548 12.192 16.2548 12.608C16.2548 13.024 16.3668 13.3973 16.5907 13.728C16.8254 14.0587 17.1561 14.336 17.5828 14.56C18.0094 14.784 18.5321 14.9547 19.1508 15.072C19.7694 15.1893 20.4628 15.248 21.2308 15.248C22.8308 15.248 24.0574 15.0187 24.9108 14.56C25.7748 14.1013 26.2067 13.4507 26.2067 12.608C26.2067 12.192 26.0894 11.824 25.8548 11.504C25.6308 11.1733 25.3054 10.896 24.8788 10.672C24.4521 10.448 23.9294 10.2773 23.3108 10.16C22.7028 10.0427 22.0094 9.984 21.2308 9.984ZM21.2308 13.968C20.1641 13.968 19.3481 13.856 18.7828 13.632C18.2174 13.3973 17.9348 13.056 17.9348 12.608C17.9348 12.16 18.2174 11.824 18.7828 11.6C19.3481 11.3653 20.1641 11.248 21.2308 11.248C22.2974 11.248 23.1134 11.3653 23.6788 11.6C24.2548 11.824 24.5428 12.16 24.5428 12.608C24.5428 13.056 24.2548 13.3973 23.6788 13.632C23.1134 13.856 22.2974 13.968 21.2308 13.968ZM42.0935 7.936V6.576H39.8375V0.768H38.1895V15.232H39.8375V7.936H42.0935ZM33.6455 5.376V4.544H36.7015V3.216H33.6455V1.072H31.9975V3.216H28.8935V4.544H31.9975V5.376C31.9975 5.96267 31.9122 6.54933 31.7415 7.136C31.5815 7.72267 31.3468 8.27733 31.0375 8.8C30.7388 9.312 30.3708 9.78133 29.9335 10.208C29.4962 10.624 29.0002 10.9653 28.4455 11.232L29.3575 12.496C30.1895 12.112 30.8988 11.5467 31.4855 10.8C32.0722 10.0533 32.5255 9.21067 32.8455 8.272C33.1442 9.14667 33.5708 9.936 34.1255 10.64C34.6908 11.3333 35.3628 11.8667 36.1415 12.24L37.0535 10.976C36.5202 10.72 36.0402 10.3893 35.6135 9.984C35.1975 9.568 34.8402 9.11467 34.5415 8.624C34.2535 8.12267 34.0295 7.59467 33.8695 7.04C33.7202 6.48533 33.6455 5.93067 33.6455 5.376ZM57.6704 0.768H56.1024V6.48H54.3904V1.072H52.8384V14.512H54.3904V7.824H56.1024V15.216H57.6704V0.768ZM47.4464 10.432V3.84H51.1744V2.496H45.8304V11.792H46.7904C47.3024 11.792 47.7824 11.7867 48.2304 11.776C48.6784 11.7653 49.1104 11.7493 49.5264 11.728C49.953 11.696 50.369 11.6533 50.7744 11.6C51.1904 11.5467 51.617 11.4773 52.0544 11.392L51.9104 10.032C51.1637 10.1813 50.4384 10.2827 49.7344 10.336C49.041 10.3893 48.2784 10.4213 47.4464 10.432ZM59.8771 5.312L60.3571 6.544C61.6478 6.45867 62.7571 6.24 63.6851 5.888C64.6238 5.536 65.3225 5.056 65.7811 4.448C66.2398 5.056 66.9385 5.536 67.8771 5.888C68.8265 6.24 69.9465 6.45867 71.2371 6.544L71.6851 5.312C70.2238 5.22667 69.0771 5.00267 68.2451 4.64C67.4131 4.26667 66.9171 3.792 66.7571 3.216H71.0291V1.984H66.6131V0.719999H64.9651V1.984H60.5651V3.216H64.8211C64.6611 3.792 64.1651 4.26667 63.3331 4.64C62.5011 5.00267 61.3491 5.22667 59.8771 5.312ZM66.6131 8.304H72.3251V7.072H59.2851V8.304H64.9651V9.424H60.8051V10.64H69.0771V11.648H60.8371V15.104H71.1091V13.872H62.4691V12.784H70.6931V9.424H66.6131V8.304Z" fill="black"/>
</svg>
