<svg width="44" height="11" viewBox="0 0 44 11" fill="none" xmlns="http://www.w3.org/2000/svg">
<path d="M6.644 10.6V5.032H8.372V10.888H9.284V0.196H8.372V4.216H6.644V0.316H5.744V10.6H6.644ZM0.104 0.723999V8.956L5.144 8.668V7.888L1.004 8.068V1.516H4.4V0.723999H0.104ZM20.352 10.828V10.072H12.78V9.16H20.1V6.82H16.524V5.92H21.252V5.176H10.74V5.92H15.588V6.82H11.868V7.564H19.188V8.428H11.868V10.828H20.352ZM20.784 3.772C19.404 3.7 18.096 3.448 17.112 2.944C16.872 2.824 16.656 2.68 16.464 2.524C16.524 2.416 16.572 2.32 16.608 2.212H20.136V1.468H11.808V2.212H15.576C15.48 2.392 15.348 2.548 15.18 2.692C14.316 3.412 12.756 3.796 11.184 3.868L11.58 4.588C12.84 4.528 14.592 4.156 15.684 3.352L15.984 3.112C16.224 3.292 16.488 3.46 16.776 3.604C17.868 4.144 19.212 4.456 20.376 4.504L20.784 3.772ZM18.252 0.0519993H13.692V0.796H18.252V0.0519993ZM23.2001 6.868V10.828H31.4321V6.868H23.2001ZM22.0721 4.576V5.368H32.5841V4.576H31.0361C31.1441 4.048 31.2401 3.484 31.3121 2.872C31.3961 2.14 31.4681 1.312 31.5041 0.387999H23.0921V1.156H30.5681C30.5321 1.78 30.4721 2.404 30.4001 3.016C30.3401 3.532 30.2561 4.048 30.1361 4.576H22.0721ZM30.5201 7.636V10.036H24.1121V7.636H30.5201ZM36.1761 0.256C34.6401 0.256 33.4161 1.48 33.4161 3.148C33.4161 4.816 34.6401 6.04 36.1761 6.04C37.7121 6.04 38.9361 4.816 38.9361 3.148C38.9361 1.48 37.7121 0.256 36.1761 0.256ZM40.8201 6.568V3.508H42.3561V6.568H43.2681V0.196H42.3561V2.716H40.8201V0.292H39.9201V6.568H40.8201ZM36.1761 5.248C35.0601 5.248 34.3161 4.384 34.3161 3.148C34.3161 1.912 35.0601 1.048 36.1761 1.048C37.2921 1.048 38.0361 1.912 38.0361 3.148C38.0361 4.384 37.2921 5.248 36.1761 5.248ZM43.2441 10.96V7.168H34.8441V7.96H42.3321V10.96H43.2441Z" fill="#666666"/>
</svg>
