<svg width="52" height="12" viewBox="0 0 52 12" fill="none" xmlns="http://www.w3.org/2000/svg">
<path d="M5.48153 9.908V1.676H0.753531V9.908H5.48153ZM6.27353 11.648H7.83353V6.344H8.70953V11.912H10.2935V1.172H8.70953V4.952H7.83353V1.292H6.27353V11.648ZM2.33753 3.044H3.89753V8.54H2.33753V3.044ZM21.8536 11.852V10.736H14.7496V10.352H21.6016V7.916H13.1416V9.02H19.9936V9.392H13.1416V11.852H21.8536ZM15.5056 0.883999C13.7296 0.883999 12.4096 1.652 12.4096 2.852C12.4096 4.052 13.7296 4.82 15.5056 4.82C17.2816 4.82 18.6016 4.052 18.6016 2.852C18.6016 1.652 17.2816 0.883999 15.5056 0.883999ZM17.6176 7.556H21.6256V1.172H20.0176V6.524H17.6176V7.556ZM16.2496 7.556V6.272L19.5256 6.224V5.048L11.6656 5.144V6.344L14.6176 6.296V7.556H16.2496ZM15.5056 3.596C14.6056 3.596 14.0176 3.32 14.0176 2.852C14.0176 2.384 14.6056 2.108 15.5056 2.108C16.3816 2.108 16.9936 2.384 16.9936 2.852C16.9936 3.32 16.3816 3.596 15.5056 3.596ZM33.0551 4.46C33.0551 2.9 31.7951 1.652 29.7911 1.652C28.3511 1.652 27.1991 2.6 26.5631 3.884L27.7271 4.652C28.2071 3.704 28.9751 2.972 29.7911 2.972C30.8231 2.972 31.4951 3.632 31.4951 4.46C31.4951 5.372 30.8711 5.996 30.2591 6.572L26.5991 9.98V11H33.2711V9.68H28.9271L31.2311 7.592C32.0951 6.824 33.0551 5.852 33.0551 4.46ZM35.0675 1.892L34.2875 6.44L35.3315 6.884C35.6195 6.512 36.2675 6.152 37.1195 6.152C38.3195 6.152 38.8955 6.944 38.8955 8.048C38.8955 9.152 38.1635 9.908 37.0115 9.908C36.0155 9.908 35.3195 9.212 34.8035 8.264L33.6515 9.092C34.3235 10.364 35.5715 11.228 37.0115 11.228C39.1835 11.228 40.4555 9.908 40.4555 8.048C40.4555 6.26 39.3275 4.832 37.1195 4.832C36.7235 4.832 36.3635 4.904 36.0395 5.036L36.3515 3.212H40.1075V1.892H35.0675ZM44.544 1.016C42.768 1.016 41.376 2.168 41.376 3.776C41.376 5.384 42.768 6.536 44.544 6.536C46.32 6.536 47.712 5.384 47.712 3.776C47.712 2.168 46.32 1.016 44.544 1.016ZM44.544 5.216C43.584 5.216 42.984 4.64 42.984 3.776C42.984 2.912 43.584 2.336 44.544 2.336C45.504 2.336 46.104 2.912 46.104 3.776C46.104 4.64 45.504 5.216 44.544 5.216ZM50.964 6.584V1.172H49.356V6.584H50.964ZM51.18 11.852V10.544H44.316V9.992H50.94V6.944H42.708V8.24H49.332V8.768H42.708V11.852H51.18Z" fill="#242D3C"/>
</svg>
