<svg width="58" height="16" viewBox="0 0 58 16" fill="none" xmlns="http://www.w3.org/2000/svg">
<g clip-path="url(#clip0_182_61)">
<path fill-rule="evenodd" clip-rule="evenodd" d="M1.40284 1.40295C1.66074 1.14491 2.01046 1 2.37507 1H13.6255C13.9901 1 14.3398 1.14491 14.5977 1.40295C14.8556 1.66099 15.0005 2.01102 15.0005 2.37607V3.75213H1V2.37607C1 2.01102 1.14494 1.66099 1.40284 1.40295ZM16.0005 2.37607V4.25213V13.6231C16.0005 14.2532 15.7504 14.8575 15.305 15.3031C14.8596 15.7488 14.2555 15.9992 13.6255 15.9992H2.37507C1.74507 15.9992 1.14094 15.7488 0.695547 15.3031C0.250165 14.8575 0 14.2532 0 13.6231V2.37607C0 1.74598 0.250165 1.14165 0.695547 0.696028C1.14094 0.2504 1.74507 0 2.37507 0H13.6255C14.2555 0 14.8596 0.2504 15.305 0.696028C15.7504 1.14165 16.0005 1.74598 16.0005 2.37607ZM1 4.75213H15.0005V13.6231C15.0005 13.9881 14.8556 14.3382 14.5977 14.5962C14.3398 14.8542 13.9901 14.9992 13.6255 14.9992H2.37507C2.01046 14.9992 1.66074 14.8542 1.40284 14.5962C1.14494 14.3382 1 13.9881 1 13.6231V4.75213ZM7.81624 8.49061V12.2256H8.65663V7.5354H7.81909L6.78156 8.37079V9.28406L7.76667 8.49061H7.81624Z" fill="#D7191F"/>
</g>
<path d="M33.672 7.86V5.112H35.148V4.296H33.672V2.196H32.76V7.86H33.672ZM32.736 8.412V9.708H26.76V8.412H25.848V12.828H33.648V8.412H32.736ZM26.76 12.036V10.476H32.736V12.036H26.76ZM24.936 2.448V7.392L32.04 7.056V6.276L25.848 6.528V2.448H24.936ZM45.388 7.86V2.196H44.476V7.86H45.388ZM44.452 8.412V9.708H38.356V8.412H37.444V12.828H45.364V8.412H44.452ZM38.356 12.036V10.476H44.452V12.036H38.356ZM39.184 2.112C37.492 2.112 36.112 3.276 36.112 4.908C36.112 6.54 37.492 7.704 39.184 7.704C40.876 7.704 42.256 6.54 42.256 4.908C42.256 3.276 40.876 2.112 39.184 2.112ZM39.184 6.936C37.9 6.936 37.024 6.096 37.024 4.908C37.024 3.72 37.9 2.88 39.184 2.88C40.468 2.88 41.344 3.72 41.344 4.908C41.344 6.096 40.468 6.936 39.184 6.936ZM56.7201 7.8V2.196H55.8081V7.8H56.7201ZM56.9601 12.828V12.036H49.6881V10.932H56.7201V8.352H48.7761V9.12H55.8081V10.188H48.7761V12.828H56.9601ZM50.5161 2.112C48.8241 2.112 47.4441 3.252 47.4441 4.848C47.4441 6.444 48.8241 7.584 50.5161 7.584C52.2081 7.584 53.5881 6.444 53.5881 4.848C53.5881 3.252 52.2081 2.112 50.5161 2.112ZM50.5161 6.816C49.2321 6.816 48.3561 5.988 48.3561 4.848C48.3561 3.708 49.2321 2.88 50.5161 2.88C51.8001 2.88 52.6761 3.708 52.6761 4.848C52.6761 5.988 51.8001 6.816 50.5161 6.816Z" fill="#242D3C"/>
<defs>
<clipPath id="clip0_182_61">
<rect width="16" height="16" fill="white"/>
</clipPath>
</defs>
</svg>
