<svg width="42" height="12" viewBox="0 0 42 12" fill="none" xmlns="http://www.w3.org/2000/svg">
<path d="M10.1788 9.056V1.172H8.57081V2.168H6.21881C6.15881 2.084 6.08681 2.012 6.00281 1.928C5.18681 1.1 3.66281 0.823999 2.47481 1.292C1.33481 1.748 0.542813 2.792 0.542813 4.148C0.542813 5.948 1.94681 7.232 3.73481 7.232C4.63481 7.232 5.42681 6.908 6.00281 6.368L6.14681 6.224H8.57081V9.056H10.1788ZM1.93481 8.132V11.804H10.4788V10.436H3.54281V8.132H1.93481ZM3.73481 5.864C2.73881 5.864 2.15081 5.168 2.15081 4.148C2.15081 3.128 2.73881 2.432 3.73481 2.432C4.73081 2.432 5.31881 3.128 5.31881 4.148C5.31881 5.168 4.73081 5.864 3.73481 5.864ZM6.92681 4.148C6.92681 3.944 6.90281 3.74 6.86681 3.536H8.57081V4.856H6.85481C6.90281 4.628 6.92681 4.4 6.92681 4.148ZM18.8123 11.228C20.7803 11.228 22.1123 9.8 22.1123 8.036C22.1123 6.272 20.7803 4.832 18.8123 4.832C18.6683 4.832 18.5363 4.856 18.3803 4.892L20.0363 1.892H18.3563L16.0883 5.984C15.8003 6.512 15.5123 7.256 15.5123 7.916C15.5123 9.728 16.6883 11.228 18.8123 11.228ZM17.0723 8.036C17.0723 6.932 17.7443 6.152 18.8123 6.152C19.8803 6.152 20.5523 6.968 20.5523 8.036C20.5523 9.092 19.8803 9.908 18.8123 9.908C17.7803 9.908 17.0723 9.044 17.0723 8.036ZM22.6488 11.864H24.3288V10.184H22.6488V11.864ZM26.2043 1.892L25.4243 6.44L26.4683 6.884C26.7563 6.512 27.4043 6.152 28.2563 6.152C29.4563 6.152 30.0323 6.944 30.0323 8.048C30.0323 9.152 29.3003 9.908 28.1483 9.908C27.1523 9.908 26.4563 9.212 25.9403 8.264L24.7883 9.092C25.4603 10.364 26.7083 11.228 28.1483 11.228C30.3203 11.228 31.5923 9.908 31.5923 8.048C31.5923 6.26 30.4643 4.832 28.2563 4.832C27.8603 4.832 27.5003 4.904 27.1763 5.036L27.4883 3.212H31.2443V1.892H26.2043ZM33.3047 11H35.0087L40.4087 1.88H38.7527L33.3047 11ZM36.5687 3.968C36.5687 2.588 35.6087 1.652 34.3007 1.652C32.9927 1.652 32.0327 2.588 32.0327 3.968C32.0327 5.348 32.9927 6.284 34.3007 6.284C35.6087 6.284 36.5687 5.348 36.5687 3.968ZM35.0327 3.968C35.0327 4.604 34.7327 4.964 34.3007 4.964C33.8687 4.964 33.5687 4.604 33.5687 3.968C33.5687 3.332 33.8687 2.972 34.3007 2.972C34.7327 2.972 35.0327 3.332 35.0327 3.968ZM41.8007 8.912C41.8007 7.532 40.8407 6.596 39.5327 6.596C38.2247 6.596 37.2647 7.532 37.2647 8.912C37.2647 10.292 38.2247 11.228 39.5327 11.228C40.8407 11.228 41.8007 10.292 41.8007 8.912ZM40.2647 8.912C40.2647 9.548 39.9647 9.908 39.5327 9.908C39.1007 9.908 38.8007 9.548 38.8007 8.912C38.8007 8.276 39.1007 7.916 39.5327 7.916C39.9647 7.916 40.2647 8.276 40.2647 8.912Z" fill="#242D3C"/>
</svg>
