<svg width="50" height="70" viewBox="0 0 50 70" fill="none" xmlns="http://www.w3.org/2000/svg">
<path d="M11.41 15.036V2.478H10.304V7.518H8.526V2.758H7.448V14.406H8.526V8.456H10.304V15.036H11.41ZM2.324 10.99V4.942H5.866V4.004H1.19V11.942H2.016C3.878 11.942 5.18 11.9 6.664 11.564L6.566 10.612C5.208 10.906 3.99 10.99 2.324 10.99ZM13.5229 6.622L13.8589 7.49C15.9869 7.336 17.8209 6.678 18.6049 5.516C19.3889 6.678 21.2229 7.336 23.3229 7.49L23.6729 6.622C21.3349 6.468 19.4309 5.684 19.2489 4.452H23.1129V3.584H19.1789V2.394H18.0309V3.584H14.0829V4.452H17.9609C17.7789 5.684 15.8329 6.468 13.5229 6.622ZM19.1789 10.094V8.932H24.2609V8.05H12.9349V8.932H18.0169V10.094H14.2789V10.948H21.6849V12.012H14.3209V14.896H23.1969V14.028H15.4409V12.838H22.8189V10.094H19.1789ZM34.2278 2.478V9.898H31.6798V10.752H34.2278V12.04H35.3758V2.478H34.2278ZM29.1178 7.364C30.9518 7.364 32.2118 6.51 32.2118 5.166C32.2118 3.85 30.9518 2.982 29.1178 2.982C27.2838 2.982 26.0238 3.85 26.0238 5.166C26.0238 6.51 27.2838 7.364 29.1178 7.364ZM29.1178 3.836C30.3078 3.836 31.1198 4.368 31.1198 5.166C31.1198 6.006 30.3078 6.51 29.1178 6.51C27.9278 6.51 27.1158 6.006 27.1158 5.166C27.1158 4.368 27.9278 3.836 29.1178 3.836ZM28.6698 9.17V11.592H29.8178V9.114C30.9518 9.044 32.0998 8.918 33.2198 8.75L33.1218 7.924C30.4618 8.26 27.3538 8.288 25.0298 8.288L25.1838 9.24C26.2478 9.24 27.4238 9.226 28.6698 9.17ZM35.6978 14.756V13.818H27.9698V11.102H26.8218V14.756H35.6978ZM48.6747 8.694V7.77H46.8687C47.2047 6.188 47.2047 5.068 47.2047 4.074V3.15H38.7207V4.074H46.0707C46.0707 5.068 46.0567 6.202 45.7067 7.77H37.2647V8.694H48.6747ZM47.2467 10.402H38.6787V14.868H47.2467V10.402ZM46.1127 13.944H39.7987V11.326H46.1127V13.944Z" fill="black"/>
<path d="M12.348 32.678V31.726H10.486V28.492H9.338V36.094H10.486V32.678H12.348ZM7.392 35.282L7.994 34.386C6.202 33.784 4.956 32.188 4.956 30.508V29.122H3.808V30.41C3.808 32.3 2.59 34.05 0.686 34.722L1.288 35.632C2.758 35.072 3.878 33.924 4.396 32.454C4.956 33.742 6.034 34.778 7.392 35.282ZM6.496 36.444C3.934 36.444 2.352 37.284 2.352 38.74C2.352 40.196 3.934 41.022 6.496 41.022C9.03 41.022 10.626 40.196 10.626 38.74C10.626 37.284 9.03 36.444 6.496 36.444ZM6.496 40.126C4.634 40.126 3.5 39.636 3.5 38.74C3.5 37.844 4.634 37.34 6.496 37.34C8.358 37.34 9.478 37.844 9.478 38.74C9.478 39.636 8.358 40.126 6.496 40.126ZM13.1729 30.564H20.3829V29.71H17.3589V28.436H16.2109V29.71H13.1729V30.564ZM24.4989 33.812V32.86H22.6509V28.478H21.5029V38.306H22.6509V33.812H24.4989ZM20.8449 36.318L20.7609 35.492C19.6829 35.674 18.5349 35.772 17.3589 35.828V34.932C18.8149 34.778 19.7109 34.092 19.7109 33.014C19.7109 31.824 18.5349 31.096 16.7849 31.096C15.0209 31.096 13.8449 31.824 13.8449 33.014C13.8449 34.092 14.7549 34.778 16.2109 34.932V35.884C14.9789 35.926 13.8729 35.94 12.8649 35.94L12.9909 36.864C15.1889 36.864 18.1849 36.808 20.8449 36.318ZM14.9369 33.014C14.9369 32.342 15.6509 31.908 16.7849 31.908C17.9049 31.908 18.6189 32.342 18.6189 33.014C18.6189 33.728 17.9049 34.134 16.7849 34.134C15.6509 34.134 14.9369 33.728 14.9369 33.014ZM23.0989 39.818H15.8609V37.662H14.7129V40.756H23.0989V39.818ZM36.4958 34.694V33.77H34.6898C35.0258 32.188 35.0258 31.068 35.0258 30.074V29.15H26.5418V30.074H33.8918C33.8918 31.068 33.8778 32.202 33.5278 33.77H25.0858V34.694H36.4958ZM35.0678 36.402H26.4998V40.868H35.0678V36.402ZM33.9338 39.944H27.6198V37.326H33.9338V39.944ZM47.8767 35.954V28.478H46.7707V31.712H45.1747V28.716H44.0967V35.884H45.1747V32.65H46.7707V35.954H47.8767ZM43.1167 32.23C43.1167 30.48 41.8987 29.262 40.2607 29.262C38.6227 29.262 37.4047 30.48 37.4047 32.23C37.4047 33.98 38.6227 35.184 40.2607 35.184C41.8987 35.184 43.1167 33.98 43.1167 32.23ZM38.4407 32.23C38.4407 31.054 39.2107 30.228 40.2607 30.228C41.3107 30.228 42.0667 31.054 42.0667 32.23C42.0667 33.406 41.3107 34.232 40.2607 34.232C39.2107 34.232 38.4407 33.406 38.4407 32.23ZM47.8767 36.668H39.4347V37.592H46.7287V41.05H47.8767V36.668Z" fill="black"/>
<path d="M10.486 58.314H12.348V57.362H10.486V54.478H9.338V61.576H10.486V58.314ZM8.204 60.064L8.064 59.126C6.034 59.518 4.298 59.644 2.492 59.658V55.108H1.358V60.624H2.338C4.242 60.624 6.062 60.498 8.204 60.064ZM10.486 62.262H2.576V66.854H10.486V62.262ZM9.366 65.93H3.696V63.186H9.366V65.93ZM18.5909 59.91C21.2789 59.91 23.0009 58.986 23.0009 57.418C23.0009 55.85 21.2789 54.912 18.5909 54.912C15.9029 54.912 14.1809 55.85 14.1809 57.418C14.1809 58.986 15.9029 59.91 18.5909 59.91ZM18.5909 55.836C20.5649 55.836 21.8249 56.41 21.8249 57.418C21.8249 58.426 20.5649 58.986 18.5909 58.986C16.6169 58.986 15.3569 58.426 15.3569 57.418C15.3569 56.41 16.6169 55.836 18.5909 55.836ZM24.2609 62.01V61.086H12.9069V62.01H24.2609ZM23.0149 65.818H15.5249V63.116H14.3769V66.756H23.0149V65.818ZM35.3758 67.064V54.478H34.2278V67.064H35.3758ZM28.7538 55.444C26.8918 55.444 25.5618 57.152 25.5618 59.826C25.5618 62.5 26.8918 64.208 28.7538 64.208C30.6158 64.208 31.9458 62.5 31.9458 59.826C31.9458 57.152 30.6158 55.444 28.7538 55.444ZM28.7538 56.48C29.9718 56.48 30.8398 57.796 30.8398 59.826C30.8398 61.87 29.9718 63.186 28.7538 63.186C27.5218 63.186 26.6538 61.87 26.6538 59.826C26.6538 57.796 27.5218 56.48 28.7538 56.48ZM46.9387 60.512H49.0107V59.546H46.9387V54.492H45.7907V67.036H46.9387V60.512ZM41.5067 58.314V56.718H44.2927V55.766H37.5027V56.718H40.3727V58.314C40.3727 60.442 38.8607 62.822 37.0687 63.718L37.7407 64.628C39.1407 63.928 40.3867 62.29 40.9467 60.47C41.5067 62.15 42.6967 63.606 44.0967 64.32L44.7547 63.396C42.9347 62.542 41.5067 60.316 41.5067 58.314Z" fill="black"/>
</svg>
