<svg width="174" height="108" viewBox="0 0 174 108" fill="none" xmlns="http://www.w3.org/2000/svg">
<path d="M122.943 33.5511L123.091 36.7374L123.474 38.6526L124.162 39.4796L127.609 41.7953L131.266 45.9479L132.929 48.4987L135.888 55.0366L137.003 59.4852L137.421 63.3418L134.086 63.4289L129.699 63.307L119.696 63.1329L85.3086 63.1416L86.6145 61.7835L86.806 60.2165L87.1281 58.6147L91.6812 59.285L94.7717 59.433L96.8436 59.3372L98.5847 59.2328L100.961 58.7365L104.992 57.57L106.106 57.0215L107.743 53.8353L108.953 51.7459L110.642 49.1081L112.061 47.4192L112.784 47.071L113.776 45.8261L113.637 44.2939L113.341 42.9271L112.522 42.0565L111.365 41.2208L113.828 40.7594L115.369 39.8366L118.895 37.7646L120.68 35.9974L122.943 33.5511Z" fill="#D7191F"/>
<path d="M19.1195 82.8328L19.3981 80.5084L19.964 78.5758L21.3134 75.7203L24.0382 72.003L26.5629 69.5654L29.8884 67.1714L33.597 65.2648L38.4983 63.6891L42.381 63.1232L48.7536 62.9404H60.9328L64.4673 50.7873L72.7376 23.7824L74.6703 18.559L75.2362 17.9583L75.863 18.1237L76.0545 19.0378L75.358 21.1185L62.8829 63.1232H123.77L134.095 63.4192C134.095 63.4192 143.872 64.4117 144.02 64.4378C144.168 64.4639 153.517 66.7274 153.517 66.7274L159.272 69.3478L164.13 72.83L168.648 77.5137L171.46 83.4335L173.244 90.1108L172.887 92.6441L172.078 93.7497L169.893 94.4549H155.198C154.144 101.55 148.05 107 140.659 107C133.268 107 127.174 101.55 126.121 94.4549H71.0923C70.0389 101.55 63.9449 107 56.5538 107C49.1627 107 43.0688 101.55 42.0154 94.4549H22.0098L20.3819 93.6627L19.1108 92.2611V82.8241L19.1195 82.8328Z" fill="#EAEEF2"/>
<path d="M112.061 21.1719C112.061 21.1719 110.163 18.4122 106.368 19.187V20.7366C106.368 20.7366 109.127 20.0053 111.156 22.2427L112.061 21.1632V21.1719Z" fill="#242D3C" stroke="#242D3C" stroke-linecap="round" stroke-linejoin="round"/>
<path d="M103.852 21.1277L104.156 22.4248C104.156 22.4248 100.535 26.2205 101.005 27.2129C101.475 28.2054 104.539 27.2129 104.539 27.2129" stroke="#242D3C" stroke-linecap="round" stroke-linejoin="round"/>
<path d="M102.755 28.5453C102.755 28.5453 102.737 36.7373 107.473 36.7373C112.209 36.7373 115.752 32.5934 115.752 32.5934" stroke="#242D3C" stroke-linecap="round" stroke-linejoin="round"/>
<path d="M104 29.9739C104 29.9739 106.824 28.6967 106.947 29.0675C107.245 29.9601 106.204 30.8116 105.473 30.9764C104.545 31.1824 104 29.9739 104 29.9739Z" stroke="#242D3C" stroke-linecap="round" stroke-linejoin="round"/>
<path d="M108.953 22.2426C109.441 22.2426 109.833 22.6343 109.833 23.1218C109.833 23.6093 109.441 24.0011 108.953 24.0011C108.466 24.0011 108.074 23.6093 108.074 23.1218C108.074 22.6343 108.466 22.2426 108.953 22.2426Z" fill="#242D3C"/>
<path d="M90.2186 12.666C90.2099 20.0048 96.6521 21.7373 100.961 21.7373C105.993 21.7373 107.282 14.9033 107.282 14.9033C107.282 14.9033 114.264 13.1796 114.751 18.3595C115.23 23.5306 116.022 23.7047 117.302 23.7047C118.582 23.7047 119.783 19.9961 122.099 19.9961C123.361 19.9961 124.406 22.2944 123.753 24.3838C124.136 24.288 133.329 22.0246 131.536 14.233C129.812 6.72872 122.734 8.71361 122.734 8.71361C122.734 8.71361 121.655 2.05379 115.752 1.12228C108.64 -0.000747401 107.212 6.98119 107.212 6.98119C98.5064 2.41072 90.2273 5.41417 90.2186 12.666Z" stroke="#242D3C" stroke-linecap="round" stroke-linejoin="round"/>
<path d="M117.624 27.7529C121.446 27.7529 123.196 26.1424 123.753 24.3839H123.744" stroke="#242D3C" stroke-linecap="round" stroke-linejoin="round"/>
<path d="M118.155 28.5453C118.155 28.5453 117.05 31.0438 119.034 33.551" stroke="#242D3C" stroke-linecap="round" stroke-linejoin="round"/>
<path d="M110.999 35.9974C110.999 35.9974 114.255 36.5633 114.577 38.2087" stroke="#242D3C" stroke-linecap="round" stroke-linejoin="round"/>
<path d="M113.332 45.6351C114.795 43.4413 110.999 41.2735 110.999 41.2735C118.468 40.3943 123.178 32.9335 123.178 32.9335C123.178 32.9335 122.499 38.8621 124.223 39.5063C128.201 40.9776 136.994 50.6234 137.447 63.6384" stroke="#242D3C" stroke-linecap="round" stroke-linejoin="round"/>
<path d="M125.92 49.4388C125.92 49.4388 124.736 43.5886 119.034 43.5886C112.061 43.5886 107.012 59.0063 107.012 59.0063" stroke="#242D3C" stroke-linecap="round" stroke-linejoin="round"/>
<path d="M108.648 58.3713C108.648 58.3713 98.4715 62.8373 89.6266 60.9395C84.4032 59.8165 81.8699 58.1624 81.8699 58.1624C81.8699 58.1624 81.9569 53.4265 80.2071 52.8781" stroke="#242D3C" stroke-linecap="round" stroke-linejoin="round"/>
<path d="M79.9284 54.0446C79.9284 54.0446 80.8076 56.3168 79.4147 56.3168C79.4147 56.3168 75.0271 54.5931 75.5407 52.8781" stroke="#242D3C" stroke-linecap="round" stroke-linejoin="round"/>
<path d="M73.7127 53.8346C73.7127 53.8346 72.5026 56.2112 80.1984 61.4956C80.9558 62.0179 81.6174 62.6186 82.3313 63.1322" stroke="#242D3C" stroke-linecap="round" stroke-linejoin="round"/>
<path d="M124.162 53.8346C124.162 53.8346 123.344 58.8839 119.696 63.1322" stroke="#242D3C" stroke-linecap="round" stroke-linejoin="round"/>
<path d="M166.201 74.7543C158.81 67.4938 149.939 63.1323 123.065 63.1323H62.874L75.4885 20.6487" stroke="#242D3C" stroke-linecap="round" stroke-linejoin="round"/>
<path d="M79.8328 54.0875C79.8328 54.0875 78.0742 48.2112 77.7782 47.4015C77.4822 46.5919 77.195 44.7463 75.5931 45.2774C73.6343 45.9216 73.9303 45.9999 76.751 54.723" stroke="#242D3C" stroke-linecap="round" stroke-linejoin="round"/>
<path d="M76.0457 19.0473C76.0457 19.0473 76.333 17.7154 75.0358 18.0114C73.7387 18.3074 60.924 62.9586 60.924 62.9586H54.6037C54.6037 62.9586 61.072 62.9586 45.2712 62.9586C29.4704 62.9586 19.1194 74.5807 19.1194 83.0252V90.9734C19.1194 92.8974 20.6777 94.4644 22.6104 94.4644H41.9282" stroke="#242D3C" stroke-linecap="round" stroke-linejoin="round"/>
<path d="M68.8723 43.5886L73.7126 63.1328" stroke="#242D3C" stroke-linecap="round" stroke-linejoin="round"/>
<path d="M78.7271 60.4423L79.4497 63.1324" stroke="#242D3C" stroke-linecap="round" stroke-linejoin="round"/>
<path d="M73.643 54.7139L71.7365 55.1579L72.1631 56.8816L74.4526 56.3158" stroke="#242D3C" stroke-linecap="round" stroke-linejoin="round"/>
<path d="M168.648 77.5224C168.648 77.5224 178.25 94.4636 169.701 94.4636H153.517" stroke="#242D3C" stroke-linecap="round" stroke-linejoin="round"/>
<path d="M86.806 59.0063C86.806 59.0063 86.9366 63.1328 84.6383 63.1328" stroke="#242D3C" stroke-linecap="round" stroke-linejoin="round"/>
<path d="M27.5976 79.8334C25.7774 77.8169 26.8249 73.9049 29.9371 71.0957C33.0494 68.2865 37.0479 67.6439 38.8681 69.6605C40.6883 71.677 39.6408 75.5891 36.5286 78.3982C33.4163 81.2074 29.4178 81.85 27.5976 79.8334Z" stroke="#242D3C" stroke-linecap="round" stroke-linejoin="round"/>
<path d="M27.5974 79.8332C25.7772 77.8167 26.8246 73.9046 29.9369 71.0954C33.0492 68.2863 37.0477 67.6437 38.8679 69.6602C40.688 71.6768 39.6406 75.5888 36.5283 78.398C33.4161 81.2072 29.4175 81.8497 27.5974 79.8332Z" fill="white" stroke="#242D3C" stroke-linecap="round" stroke-linejoin="round"/>
<path d="M56.6671 107C48.5272 107 41.9284 100.401 41.9284 92.2611C41.9284 84.1212 48.5272 77.5225 56.6671 77.5225C64.807 77.5225 71.4058 84.1212 71.4058 92.2611C71.4058 100.401 64.807 107 56.6671 107Z" fill="white" stroke="#242D3C" stroke-linecap="round" stroke-linejoin="round"/>
<path d="M71.4058 92.2611C71.4058 100.401 65.4163 107 58.0252 107C50.6341 107 44.6446 100.392 44.6446 92.2611C44.6446 84.13 50.6428 77.5224 58.0252 77.5224C65.4076 77.5224 71.4058 84.13 71.4058 92.2611ZM62.5695 92.2611C62.5695 89.0052 59.923 86.3586 56.6671 86.3586C53.4112 86.3586 50.7647 89.0052 50.7647 92.2611C50.7647 95.517 53.4112 98.1635 56.6671 98.1635C59.923 98.1635 62.5695 95.517 62.5695 92.2611Z" fill="#242D3C" stroke="#242D3C" stroke-linecap="round" stroke-linejoin="round"/>
<path d="M56.6671 107C48.5272 107 41.9284 100.401 41.9284 92.2611C41.9284 84.1211 48.5272 77.5224 56.6671 77.5224C64.807 77.5224 71.4058 84.1211 71.4058 92.2611C71.4058 100.401 64.807 107 56.6671 107Z" stroke="#242D3C" stroke-linecap="round" stroke-linejoin="round"/>
<path d="M140.659 107C132.519 107 125.921 100.401 125.921 92.2611C125.921 84.1212 132.519 77.5225 140.659 77.5225C148.799 77.5225 155.398 84.1212 155.398 92.2611C155.398 100.401 148.799 107 140.659 107Z" fill="white" stroke="#242D3C" stroke-linecap="round" stroke-linejoin="round"/>
<path d="M155.407 92.2611C155.407 100.401 149.417 107 142.026 107C134.635 107 128.646 100.392 128.646 92.2611C128.646 84.13 134.644 77.5224 142.026 77.5224C149.409 77.5224 155.407 84.13 155.407 92.2611ZM146.571 92.2611C146.571 89.0052 143.924 86.3586 140.668 86.3586C137.412 86.3586 134.766 89.0052 134.766 92.2611C134.766 95.517 137.412 98.1635 140.668 98.1635C143.924 98.1635 146.571 95.517 146.571 92.2611Z" fill="#242D3C" stroke="#242D3C" stroke-linecap="round" stroke-linejoin="round"/>
<path d="M140.659 107C132.519 107 125.921 100.401 125.921 92.2611C125.921 84.1211 132.519 77.5224 140.659 77.5224C148.799 77.5224 155.398 84.1211 155.398 92.2611C155.398 100.401 148.799 107 140.659 107Z" stroke="#242D3C" stroke-linecap="round" stroke-linejoin="round"/>
<path d="M71.7364 94.4639H124.162" stroke="#242D3C" stroke-linecap="round" stroke-linejoin="round"/>
<path d="M33.6839 68.8697C33.6839 68.8697 33.0222 70.6631 34.6415 70.9503C36.2607 71.2376 37.732 70.8807 37.8103 72.2214C37.8887 73.562 36.0625 80.3622 32.5976 80.7975C28.4015 81.3285 27.8162 80.4569 27.1459 79.1859C25.8401 76.7222 28.7826 72.2388 29.3571 71.6729C29.9317 71.107 33.6926 68.8784 33.6926 68.8784L33.6839 68.8697Z" fill="#242D3C"/>
<path d="M169.893 91.2261H157.783" stroke="#242D3C" stroke-width="0.5" stroke-linecap="round" stroke-linejoin="round"/>
<path d="M41.9285 91.2261H23.0285" stroke="#242D3C" stroke-width="0.5" stroke-linecap="round" stroke-linejoin="round"/>
<path d="M125.407 91.2261H71.4056" stroke="#242D3C" stroke-width="0.5" stroke-linecap="round" stroke-linejoin="round"/>
<path d="M90.2186 13.6064C90.2099 20.3533 96.6521 21.9464 100.961 21.9464C105.993 21.9464 107.282 15.6609 107.282 15.6609C107.282 15.6609 114.264 14.0765 114.751 18.8385C115.23 23.5918 116.022 23.7572 117.302 23.7572C118.582 23.7572 119.783 20.3446 122.099 20.3446C123.361 20.3446 124.406 22.46 123.753 24.3753C124.136 24.2882 133.329 22.2076 131.536 15.0428C129.812 8.13924 122.734 9.96742 122.734 9.96742C122.734 9.96742 121.655 3.84735 115.752 2.98549C108.64 1.94952 107.212 8.37429 107.212 8.37429C98.5064 4.16946 90.2273 6.92915 90.2186 13.5977V13.6064Z" fill="#242D3C" stroke="#242D3C" stroke-linecap="round" stroke-linejoin="round"/>
<path d="M113.558 46.6966C113.558 46.6966 110.999 46.8707 106.045 57.1434C106.045 57.1434 94.7803 62.4103 82.8535 57.1434" stroke="#242D3C" stroke-linecap="round" stroke-linejoin="round"/>
<path d="M79.2235 63.0392L78.8381 60.3419L82.3062 63.0392H79.2235Z" fill="#242D3C"/>
<path d="M27.5884 81.568C29.0013 82.5956 33.3684 83.4947 37.9925 78.8707" stroke="#242D3C" stroke-width="0.5" stroke-linecap="round"/>
<path d="M32.2124 55.3325L32.9831 58.8006" stroke="#242D3C" stroke-linecap="round"/>
<path d="M24.1204 58.8008L26.4324 61.4981" stroke="#242D3C" stroke-linecap="round"/>
<path d="M18.7256 63.4245L22.1936 66.1219" stroke="#242D3C" stroke-linecap="round"/>
<path d="M15.6428 70.3605L19.1109 71.5165" stroke="#242D3C" stroke-linecap="round"/>
<path d="M88.4625 105.847C88.4625 105.847 68.502 90.6419 77.1644 84.3223C85.8268 78.0028 91.0442 104.483 91.0442 104.483" fill="white"/>
<path d="M88.4625 105.847C88.4625 105.847 68.502 90.6419 77.1644 84.3223C85.8268 78.0028 91.0442 104.483 91.0442 104.483" stroke="#242D3C" stroke-linecap="round" stroke-linejoin="round"/>
<path d="M94.9515 105.324C94.9515 105.324 83.0909 79.8528 93.3331 77.7951C103.56 75.7451 97.4485 104.337 97.4485 104.337" fill="white"/>
<path d="M94.9515 105.324C94.9515 105.324 83.0909 79.8528 93.3331 77.7951C103.56 75.7451 97.4485 104.337 97.4485 104.337" stroke="#242D3C" stroke-linecap="round" stroke-linejoin="round"/>
<path d="M99.2598 104.922C99.2598 104.922 101.556 74.0415 112.523 77.5789C123.467 81.1086 102.204 105.323 102.204 105.323" fill="white"/>
<path d="M99.2598 104.922C99.2598 104.922 101.556 74.0415 112.523 77.5789C123.467 81.1086 102.204 105.323 102.204 105.323" stroke="#242D3C" stroke-linecap="round" stroke-linejoin="round"/>
<path d="M80.7327 90.8734C80.7327 90.8734 87.4298 99.713 89.9114 105.324L80.7327 90.8734Z" fill="white"/>
<path d="M80.7327 90.8734C80.7327 90.8734 87.4298 99.713 89.9114 105.324" stroke="#242D3C" stroke-width="0.5" stroke-linecap="round" stroke-linejoin="round"/>
<path d="M20.0266 105.585C20.0266 105.585 12.5356 86.3259 21.3367 85.6091C30.1378 84.8924 22.4311 105.739 22.4311 105.739" fill="white"/>
<path d="M20.0266 105.585C20.0266 105.585 12.5356 86.3259 21.3367 85.6091C30.1378 84.8924 22.4311 105.739 22.4311 105.739" stroke="#242D3C" stroke-linecap="round" stroke-linejoin="round"/>
<path d="M21.0361 91.7517C21.0361 91.7517 21.9378 100.838 21.275 105.847L21.0361 91.7517Z" fill="white"/>
<path d="M21.0361 91.7517C21.0361 91.7517 21.9378 100.838 21.275 105.847" stroke="#242D3C" stroke-width="0.5" stroke-linecap="round" stroke-linejoin="round"/>
<path d="M14.4701 105.847C14.4701 105.847 -5.48267 90.6413 3.1797 84.3141C11.8421 77.9869 17.0595 104.475 17.0595 104.475" fill="white"/>
<path d="M14.4701 105.847C14.4701 105.847 -5.48267 90.6414 3.1797 84.3141C11.8421 77.9869 17.0595 104.475 17.0595 104.475" stroke="#242D3C" stroke-linecap="round" stroke-linejoin="round"/>
<path d="M6.7478 90.8734C6.7478 90.8734 13.445 99.713 15.9265 105.324L6.7478 90.8734Z" fill="white"/>
<path d="M6.7478 90.8734C6.7478 90.8734 13.445 99.713 15.9265 105.324" stroke="#242D3C" stroke-width="0.5" stroke-linecap="round" stroke-linejoin="round"/>
<path d="M93.9343 84.8538C93.9343 84.8538 96.308 103.751 96.3697 105.323L93.9343 84.8538Z" fill="white"/>
<path d="M93.9343 84.8538C93.9343 84.8538 96.308 103.751 96.3697 105.323" stroke="#242D3C" stroke-width="0.5" stroke-linecap="round" stroke-linejoin="round"/>
<path d="M108.091 84.8538C108.091 84.8538 101.171 98.7567 100.4 105.323L108.091 84.8538Z" fill="white"/>
<path d="M108.091 84.8538C108.091 84.8538 101.171 98.7567 100.4 105.323" stroke="#242D3C" stroke-width="0.5" stroke-linecap="round" stroke-linejoin="round"/>
<path d="M73.4434 62.978L68.6714 43.3871L62.6539 63.4246L73.4434 62.978Z" fill="#242D3C"/>
<path d="M73.8287 54.5623L71.1313 55.3329L71.902 56.8743L73.8287 56.4889L74.214 56.1036L73.8287 54.5623Z" fill="#242D3C"/>
<path d="M74.2141 46.8554L76.9115 54.9475L78.8382 56.1035L79.9942 56.4888L80.3795 55.3328L77.6821 46.8554L76.9115 45.6994L76.1408 44.9287L74.5994 45.6994L74.2141 46.8554Z" fill="#242D3C"/>
</svg>
