<svg width="90" height="14" viewBox="0 0 90 14" fill="none" xmlns="http://www.w3.org/2000/svg">
<path d="M0.915375 4.064L1.74338 5.192L3.12338 4.016V11H4.68338V1.88H3.45938L0.915375 4.064ZM8.75119 10.1H7.07119V11.78H7.74319C7.70719 12.152 7.58719 12.488 7.20319 12.74L7.73119 13.256C8.35519 12.788 8.75119 12.176 8.75119 11.492V10.1ZM9.61866 6.44C9.61866 9.416 11.4787 11.228 13.5427 11.228C15.6067 11.228 17.4667 9.416 17.4667 6.44C17.4667 3.464 15.6067 1.652 13.5427 1.652C11.4787 1.652 9.61866 3.464 9.61866 6.44ZM15.9067 6.44C15.9067 8.6 14.7547 9.908 13.5427 9.908C12.3307 9.908 11.1787 8.6 11.1787 6.44C11.1787 4.28 12.3307 2.972 13.5427 2.972C14.7547 2.972 15.9067 4.28 15.9067 6.44ZM18.2554 6.44C18.2554 9.416 20.1154 11.228 22.1794 11.228C24.2434 11.228 26.1034 9.416 26.1034 6.44C26.1034 3.464 24.2434 1.652 22.1794 1.652C20.1154 1.652 18.2554 3.464 18.2554 6.44ZM24.5434 6.44C24.5434 8.6 23.3914 9.908 22.1794 9.908C20.9674 9.908 19.8154 8.6 19.8154 6.44C19.8154 4.28 20.9674 2.972 22.1794 2.972C23.3914 2.972 24.5434 4.28 24.5434 6.44ZM26.8921 6.44C26.8921 9.416 28.7521 11.228 30.8161 11.228C32.8801 11.228 34.7401 9.416 34.7401 6.44C34.7401 3.464 32.8801 1.652 30.8161 1.652C28.7521 1.652 26.8921 3.464 26.8921 6.44ZM33.1801 6.44C33.1801 8.6 32.0281 9.908 30.8161 9.908C29.6041 9.908 28.4521 8.6 28.4521 6.44C28.4521 4.28 29.6041 2.972 30.8161 2.972C32.0281 2.972 33.1801 4.28 33.1801 6.44ZM37.0168 10.1H35.3368V11.78H36.0088C35.9728 12.152 35.8528 12.488 35.4688 12.74L35.9968 13.256C36.6208 12.788 37.0168 12.176 37.0168 11.492V10.1ZM37.8843 6.44C37.8843 9.416 39.7443 11.228 41.8083 11.228C43.8723 11.228 45.7323 9.416 45.7323 6.44C45.7323 3.464 43.8723 1.652 41.8083 1.652C39.7443 1.652 37.8843 3.464 37.8843 6.44ZM44.1723 6.44C44.1723 8.6 43.0203 9.908 41.8083 9.908C40.5963 9.908 39.4443 8.6 39.4443 6.44C39.4443 4.28 40.5963 2.972 41.8083 2.972C43.0203 2.972 44.1723 4.28 44.1723 6.44ZM46.521 6.44C46.521 9.416 48.381 11.228 50.445 11.228C52.509 11.228 54.369 9.416 54.369 6.44C54.369 3.464 52.509 1.652 50.445 1.652C48.381 1.652 46.521 3.464 46.521 6.44ZM52.809 6.44C52.809 8.6 51.657 9.908 50.445 9.908C49.233 9.908 48.081 8.6 48.081 6.44C48.081 4.28 49.233 2.972 50.445 2.972C51.657 2.972 52.809 4.28 52.809 6.44ZM55.1577 6.44C55.1577 9.416 57.0177 11.228 59.0817 11.228C61.1457 11.228 63.0057 9.416 63.0057 6.44C63.0057 3.464 61.1457 1.652 59.0817 1.652C57.0177 1.652 55.1577 3.464 55.1577 6.44ZM61.4457 6.44C61.4457 8.6 60.2937 9.908 59.0817 9.908C57.8697 9.908 56.7177 8.6 56.7177 6.44C56.7177 4.28 57.8697 2.972 59.0817 2.972C60.2937 2.972 61.4457 4.28 61.4457 6.44ZM73.3104 9.056V5.06H74.5824V3.668H73.3104V1.172H71.7024V9.056H73.3104ZM70.2144 7.124V1.52H64.2024V7.124H70.2144ZM65.8104 2.864H68.6064V5.78H65.8104V2.864ZM65.2344 8.132V11.804H73.6584V10.436H66.8424V8.132H65.2344ZM83.072 0.883999C81.296 0.883999 79.976 1.832 79.976 3.248C79.976 4.664 81.296 5.612 83.072 5.612C84.848 5.612 86.168 4.664 86.168 3.248C86.168 1.832 84.848 0.883999 83.072 0.883999ZM85.184 8.9H87.584V9.512H89.192V1.172H87.584V7.676H85.184V8.9ZM80.756 8.9V11.72H89.408V10.352H82.364V8.9H80.756ZM83.816 8.648V7.268L87.092 7.22V5.948L79.232 6.044V7.34L82.184 7.292V8.648H83.816ZM83.072 4.316C82.172 4.316 81.584 3.884 81.584 3.248C81.584 2.612 82.172 2.18 83.072 2.18C83.948 2.18 84.56 2.612 84.56 3.248C84.56 3.884 83.948 4.316 83.072 4.316Z" fill="#242D3C"/>
</svg>
