<svg width="30" height="10" viewBox="0 0 30 10" fill="none" xmlns="http://www.w3.org/2000/svg">
<path d="M0.525469 3.15L0.915469 3.66L2.44547 2.39V8.95H3.16547V1.45H2.55547L0.525469 3.15ZM8.47531 1.25C6.91531 1.25 6.04531 2.18 6.04531 3.23C6.04531 4.09 6.59531 4.67 7.21531 4.91C6.50531 5.15 5.59531 5.77 5.59531 6.92C5.59531 8.19 6.74531 9.15 8.47531 9.15C10.2053 9.15 11.3553 8.19 11.3553 6.92C11.3553 5.77 10.4653 5.15 9.74531 4.91C10.3553 4.67 10.9053 4.09 10.9053 3.23C10.9053 2.18 10.0353 1.25 8.47531 1.25ZM8.47531 8.53C7.12531 8.53 6.31531 7.85 6.31531 6.92C6.31531 6 7.21531 5.26 8.47531 5.26C9.73531 5.26 10.6353 6 10.6353 6.92C10.6353 7.85 9.82531 8.53 8.47531 8.53ZM8.47531 1.87C9.55531 1.87 10.1853 2.43 10.1853 3.23C10.1853 3.98 9.48531 4.64 8.47531 4.64C7.46531 4.64 6.76531 3.98 6.76531 3.23C6.76531 2.43 7.39531 1.87 8.47531 1.87ZM18.1278 9.5V4.96H19.5678V9.74H20.3278V0.83H19.5678V4.28H18.1278V0.93H17.3778V9.5H18.1278ZM12.5378 1.92H15.4078C15.3278 4.04 14.1178 6.52 12.1478 7.88L12.6978 8.39C14.7278 6.87 16.2378 4.38 16.2078 1.26H12.5378V1.92ZM29.9512 9.69V9.06H23.7212V8.37H29.7512V6.51H22.9612V7.13H28.9912V7.77H22.9612V9.69H29.9512ZM24.9512 0.61C23.5212 0.61 22.4512 1.26 22.4512 2.23C22.4512 3.2 23.5212 3.85 24.9512 3.85C26.3812 3.85 27.4512 3.2 27.4512 2.23C27.4512 1.26 26.3812 0.61 24.9512 0.61ZM24.9512 3.22C23.9112 3.22 23.2112 2.8 23.2112 2.23C23.2112 1.65 23.9112 1.23 24.9512 1.23C25.9912 1.23 26.6912 1.65 26.6912 2.23C26.6912 2.8 25.9912 3.22 24.9512 3.22ZM29.7712 6.15V0.83H29.0112V5.26H26.6312V5.86H29.0112V6.15H29.7712ZM28.4312 4.83V4.23L21.7212 4.31V4.93L24.4212 4.89V6.15H25.2012V4.88L28.4312 4.83Z" fill="#242D3C"/>
</svg>
