<svg width="56" height="46" viewBox="0 0 56 46" fill="none" xmlns="http://www.w3.org/2000/svg">
<path d="M37.5008 30.8825C39.2795 32.1445 41.4459 32.8799 43.7812 32.8799C49.8032 32.8799 54.6924 27.9907 54.6924 21.9687H43.7812V11.0674C37.7591 11.0674 32.8799 15.9466 32.8799 21.9687C32.8799 22.6444 32.9395 23.3003 33.0588 23.9363" stroke="#242D3C" stroke-miterlimit="10" stroke-linecap="round"/>
<path d="M54.6924 21.9736H43.7861V11.0674C49.8054 11.0674 54.6924 15.9488 54.6924 21.9736Z" fill="#242D3C" stroke="#242D3C" stroke-linecap="round" stroke-linejoin="round"/>
<path d="M19.6671 16.9405L19.4565 34.5582V44.6256H26.5876L27.007 28.9396L26.4903 16.9598L19.6671 16.9405Z" fill="#D7191F"/>
<path d="M7.71143 27.8467C7.71143 27.8467 8.24139 39.9838 7.71143 44.6256H16.0209C16.0209 44.6256 16.2008 31.6188 16.0209 27.8467H7.71143Z" stroke="#242D3C" stroke-linecap="round" stroke-linejoin="round"/>
<path d="M30.3628 23.6514C30.3628 23.6514 30.8758 38.8227 30.3628 44.6249H37.8358C37.8358 44.6249 38.0101 28.3651 37.8358 23.6514H30.3628Z" fill="#FBE8E9" stroke="#242D3C" stroke-linecap="round" stroke-linejoin="round"/>
<path d="M19.4566 16.9999C19.4566 16.9999 19.534 35.9059 19.4566 44.6256" stroke="#242D3C" stroke-linecap="round" stroke-linejoin="round"/>
<path d="M26.7721 44.6255C27.301 30.5631 26.7721 16.9602 26.7721 16.9602C24.8489 16.9028 19.5 16.9603 19.5 16.9603" stroke="#242D3C" stroke-linecap="round" stroke-linejoin="round"/>
<path d="M19.5 44.625C19.5 44.625 21.5979 44.625 26.6929 44.625" stroke="#242D3C" stroke-linecap="round" stroke-linejoin="round"/>
<path d="M1 20.2963L11.327 12.2523L14.3219 15.0455L23.6573 7.66282L27.143 11.1074L35.3966 5.19534" stroke="#242D3C" stroke-linecap="round" stroke-linejoin="round"/>
<path d="M33.1196 2.6994L36.8549 7.71154L39.5914 1L32.8799 2.67788" fill="#242D3C"/>
<path d="M33.1196 2.6994L36.8549 7.71154L39.5914 1L32.8799 2.67788" stroke="#242D3C" stroke-linecap="round" stroke-linejoin="round"/>
<path d="M2.67773 5.19534C2.67773 5.19534 10.0797 5.19534 16.9398 5.19534" stroke="#242D3C" stroke-linecap="round" stroke-linejoin="round"/>
<path d="M2.67773 8.54977C2.67773 8.54977 7.89782 8.54977 12.745 8.54977" stroke="#242D3C" stroke-linecap="round" stroke-linejoin="round"/>
</svg>
