<svg width="85" height="32" viewBox="0 0 85 32" fill="none" xmlns="http://www.w3.org/2000/svg">
<path d="M7.518 12.756H9.338V6.568H10.43V13.064H12.278V0.533999H10.43V4.944H9.338V0.674H7.518V12.756ZM1.204 1.122V10.866L6.958 10.53V8.962L3.052 9.13V2.718H6.44V1.122H1.204ZM25.9887 7.45V6.106H13.6687V7.45H18.8767V8.094H14.9287V9.438H22.8247V9.914H14.9287V12.994H24.9947V11.636H16.8047V11.146H24.7007V8.094H20.7807V7.45H25.9887ZM14.8447 5.798C16.2447 5.742 17.7987 5.504 19.0587 4.972C19.3107 4.86 19.5487 4.734 19.7727 4.608C20.0107 4.762 20.2627 4.902 20.5427 5.028C21.7467 5.546 23.2867 5.756 24.7427 5.7L25.5547 4.328C23.8747 4.3 22.4327 4.216 21.3407 3.768L20.9067 3.558C20.9207 3.516 20.9487 3.488 20.9767 3.446H24.7427V2.046H14.8587V3.446H18.6807C18.4287 3.628 18.1207 3.768 17.7567 3.88C16.8187 4.174 15.5447 4.314 14.0887 4.384L14.8447 5.798ZM22.5447 0.253999H17.0567V1.654H22.5447V0.253999ZM28.3734 8.99V12.84H38.4674V11.244H30.2494V8.99H28.3734ZM38.0754 9.872V5.644H39.4754V4.02H38.0754V0.533999H36.1994V9.872H38.0754ZM35.6954 8.178V6.638L31.3134 6.694V4.02H29.4094V6.722L26.7354 6.75V8.318L35.6954 8.178ZM34.5614 5.938C34.8834 4.594 35.0094 2.956 35.0094 0.814H27.2814V2.382H33.0774C33.0774 3.292 32.9794 4.594 32.7134 5.938H34.5614ZM49.1961 10.656V9.088L42.8261 9.354V6.652H47.5301V0.94H40.9501V2.536H45.6541V5.07H40.9501V11.09L49.1961 10.656ZM51.6321 13.078V0.533999H49.7561V13.078H51.6321Z" fill="#242D3C"/>
<path d="M6.26 22.14H0.67V22.8H3.24C3.19 23.09 3.12 23.38 3.03 23.65C2.55 24.99 1.5 26.07 0.1 26.67L0.56 27.22C1.48 26.81 2.36 26.12 3 25.27C3.11 25.13 3.21 24.98 3.3 24.83C3.44 25.01 3.59 25.19 3.76 25.36C4.45 26.05 5.33 26.64 6.17 26.98L6.6 26.36C5.97 26.13 5.39 25.83 4.86 25.46C4.35 25.1 3.94 24.68 3.64 24.21C3.69 24.1 3.73 23.98 3.78 23.86C3.91 23.52 4 23.17 4.05 22.8H6.26V22.14ZM8.45 30.65V29.99H2.45V27.71H1.69V30.65H8.45ZM8.16 28.41V24.81H9.39V24.13H8.16V21.83H7.4V28.41H8.16ZM12.0934 21.88C10.8134 21.88 9.79336 22.9 9.79336 24.29C9.79336 25.68 10.8134 26.7 12.0934 26.7C13.3734 26.7 14.3934 25.68 14.3934 24.29C14.3934 22.9 13.3734 21.88 12.0934 21.88ZM15.9634 27.14V24.59H17.2434V27.14H18.0034V21.83H17.2434V23.93H15.9634V21.91H15.2134V27.14H15.9634ZM12.0934 26.04C11.1634 26.04 10.5434 25.32 10.5434 24.29C10.5434 23.26 11.1634 22.54 12.0934 22.54C13.0234 22.54 13.6434 23.26 13.6434 24.29C13.6434 25.32 13.0234 26.04 12.0934 26.04ZM17.9834 30.8V27.64H10.9834V28.3H17.2234V30.8H17.9834ZM26.9367 30.75V26.21H28.2267V25.53H26.9367V21.83H26.1767V30.75H26.9367ZM24.4767 27.39C24.7867 25.86 24.9367 24.04 24.9367 22.25H19.6167V22.91H24.1567C24.1567 24.09 24.0167 25.87 23.7267 27.39H24.4767ZM25.7767 29.21V28.55L22.2867 28.59V25.46H21.5067V28.6L19.1567 28.63V29.31L25.7767 29.21ZM37.0513 26.71C35.3613 26.71 34.2113 27.6 34.2113 28.82C34.2113 30.04 35.3613 30.93 37.0513 30.93C38.7213 30.93 39.8913 30.04 39.8913 28.82C39.8913 27.6 38.7213 26.71 37.0513 26.71ZM37.0513 30.27C35.7313 30.27 34.9713 29.66 34.9713 28.82C34.9713 27.98 35.7313 27.37 37.0513 27.37C38.3713 27.37 39.1313 27.98 39.1313 28.82C39.1313 29.66 38.3713 30.27 37.0513 30.27ZM38.0513 25.57C37.4213 25.36 36.8313 25.05 36.2913 24.65C35.8613 24.33 35.5013 23.96 35.2313 23.54L35.2613 23.45C35.4613 22.98 35.5713 22.5 35.6013 21.99H34.8213C34.6613 23.75 33.4913 25.27 31.7113 25.99L32.1513 26.54C33.0313 26.17 33.8613 25.53 34.4913 24.74C34.6413 24.55 34.7813 24.35 34.9113 24.14C35.0013 24.25 35.0913 24.37 35.1913 24.48C35.8413 25.21 36.7413 25.86 37.6113 26.18L38.0513 25.57ZM39.7713 26.8V24.46H41.0013V23.78H39.7713V21.83H39.0113V26.8H39.7713ZM47.9247 27.72V27.1L44.9447 27.14V26.43C45.1247 26.41 45.2947 26.38 45.4547 26.33C46.2847 26.07 46.8347 25.51 46.8347 24.73C46.8347 24.16 46.4947 23.7 46.0547 23.53H47.4747V22.91H41.6347V23.53H43.0547C42.6147 23.7 42.2747 24.16 42.2747 24.73C42.2747 25.51 42.8347 26.07 43.6447 26.33C43.8147 26.38 43.9847 26.41 44.1647 26.43V27.15L41.3147 27.18V27.82L47.9247 27.72ZM49.1647 28.78V25.41H50.3447V24.73H49.1647V21.83H48.4047V28.78H49.1647ZM44.5547 25.83C43.5647 25.83 43.0147 25.37 43.0147 24.73C43.0147 24.1 43.5547 23.53 44.5547 23.53C45.5547 23.53 46.0947 24.1 46.0947 24.73C46.0947 25.37 45.5447 25.83 44.5547 25.83ZM49.4447 30.58V29.94H43.2547V28.35H42.4947V30.58H49.4447ZM42.9447 21.71V22.33H46.1647V21.71H42.9447ZM58.878 26.5V21.83H58.118V26.5H58.878ZM59.078 30.69V30.03H53.018V29.11H58.878V26.96H52.258V27.6H58.118V28.49H52.258V30.69H59.078ZM53.708 21.76C52.298 21.76 51.148 22.71 51.148 24.04C51.148 25.37 52.298 26.32 53.708 26.32C55.118 26.32 56.268 25.37 56.268 24.04C56.268 22.71 55.118 21.76 53.708 21.76ZM53.708 25.68C52.638 25.68 51.908 24.99 51.908 24.04C51.908 23.09 52.638 22.4 53.708 22.4C54.778 22.4 55.508 23.09 55.508 24.04C55.508 24.99 54.778 25.68 53.708 25.68ZM65.5614 26.71C63.8714 26.71 62.7214 27.6 62.7214 28.82C62.7214 30.04 63.8714 30.93 65.5614 30.93C67.2314 30.93 68.4014 30.04 68.4014 28.82C68.4014 27.6 67.2314 26.71 65.5614 26.71ZM65.5614 30.27C64.2414 30.27 63.4814 29.66 63.4814 28.82C63.4814 27.98 64.2414 27.37 65.5614 27.37C66.8814 27.37 67.6414 27.98 67.6414 28.82C67.6414 29.66 66.8814 30.27 65.5614 30.27ZM66.3014 22.14H60.7114V22.78H63.2714C63.2214 23.03 63.1514 23.26 63.0614 23.49C62.5614 24.67 61.4914 25.61 60.1414 26.09L60.5814 26.66C61.4514 26.33 62.3314 25.73 63.0014 24.97C63.1514 24.8 63.2814 24.63 63.4114 24.44C63.5414 24.59 63.6914 24.74 63.8614 24.88C64.5814 25.5 65.4614 25.98 66.2414 26.24L66.6414 25.61C65.7614 25.37 64.8814 24.91 64.2314 24.36C64.0414 24.2 63.8714 24.03 63.7314 23.86L63.8114 23.71C63.9414 23.41 64.0414 23.1 64.0914 22.78H66.3014V22.14ZM65.7214 24.31H67.6614V26.8H68.4214V21.83H67.6614V23.67H65.7214V24.31ZM69.7248 26.71V27.37H78.4848V26.71H69.7248ZM77.8348 30.65V29.99H71.4648V28.11H70.7048V30.65H77.8348ZM74.1048 21.53C72.4448 21.53 71.1648 22.42 71.1648 23.71C71.1648 25 72.4448 25.89 74.1048 25.89C75.7648 25.89 77.0448 25 77.0448 23.71C77.0448 22.42 75.7648 21.53 74.1048 21.53ZM74.1048 25.25C72.8848 25.25 71.9248 24.63 71.9248 23.71C71.9248 22.79 72.8848 22.17 74.1048 22.17C75.3248 22.17 76.2848 22.79 76.2848 23.71C76.2848 24.63 75.3248 25.25 74.1048 25.25ZM83.9181 24.16C83.9181 22.95 83.0181 21.85 81.3281 21.85C80.3181 21.85 79.4181 22.58 79.0481 23.38L79.5881 23.73C79.9381 23.03 80.6181 22.47 81.3281 22.47C82.4581 22.47 83.1781 23.2 83.1781 24.16C83.1781 25.23 82.3181 26.06 80.8881 26.47V28.53H81.6281V26.87C82.7881 26.47 83.9181 25.56 83.9181 24.16ZM80.7981 29.34H81.7581V30.3H80.7981V29.34Z" fill="#666666"/>
</svg>
