<svg width="70" height="32" viewBox="0 0 70 32" fill="none" xmlns="http://www.w3.org/2000/svg">
<path d="M2.092 11.356C2.848 10.782 3.52 10.138 4.122 9.41C4.64 8.78 5.102 8.108 5.48 7.38L5.564 7.534C6.46 8.948 7.706 10.25 8.966 11.062L10.1 9.69C8.35 8.696 7.062 7.31 6.264 5.532C6.39 5.126 6.502 4.72 6.6 4.286C6.726 3.754 6.81 3.208 6.866 2.634H9.694V1.038H1.672V2.634H4.948C4.906 3.068 4.836 3.502 4.752 3.922C4.248 6.512 2.974 8.654 0.832 10.054L2.092 11.356ZM12.41 13.078V6.624H14.188V5H12.41V0.533999H10.534V13.078H12.41ZM23.3207 6.344C22.4107 5.994 21.6127 5.518 20.8987 4.93C20.4087 4.524 20.0167 4.034 19.6947 3.46C19.7367 3.362 19.7647 3.25 19.8067 3.138C20.0727 2.368 20.2127 1.57 20.2267 0.729999H18.3227C18.2107 3.376 16.8947 5.644 14.2207 6.792L15.3967 8.136C16.7267 7.506 17.9167 6.498 18.7707 5.224L18.9107 5.028C19.8067 6.26 21.0107 7.24 22.2707 7.772L23.3207 6.344ZM16.5027 8.654V12.938H26.3307V11.342H18.3787V8.654H16.5027ZM25.9247 9.732V5.07H27.4087V3.446H25.9247V0.533999H24.0487V9.732H25.9247ZM29.3734 8.99V12.84H39.4674V11.244H31.2494V8.99H29.3734ZM39.0754 9.872V5.644H40.4754V4.02H39.0754V0.533999H37.1994V9.872H39.0754ZM36.6954 8.178V6.638L32.3134 6.694V4.02H30.4094V6.722L27.7354 6.75V8.318L36.6954 8.178ZM35.5614 5.938C35.8834 4.594 36.0094 2.956 36.0094 0.814H28.2814V2.382H34.0774C34.0774 3.292 33.9794 4.594 33.7134 5.938H35.5614ZM50.1961 10.656V9.088L43.8261 9.354V6.652H48.5301V0.94H41.9501V2.536H46.6541V5.07H41.9501V11.09L50.1961 10.656ZM52.6321 13.078V0.533999H50.7561V13.078H52.6321Z" fill="#242D3C"/>
<path d="M8.85 30.75V25.71H10.3V25.03H8.85V21.83H8.09V30.75H8.85ZM1.83 22.11V29.08L7.55 28.77V28.11L2.59 28.34V22.11H1.83ZM18.9534 30.75V21.83H18.1934V30.75H18.9534ZM17.7934 29.21V28.55L10.9734 28.63V29.31L17.7934 29.21ZM14.2234 22.05C12.6234 22.05 11.5234 23.26 11.5234 24.57C11.5234 25.88 12.6234 27.09 14.2234 27.09C15.8234 27.09 16.9234 25.88 16.9234 24.57C16.9234 23.26 15.8234 22.05 14.2234 22.05ZM14.2234 26.43C13.0434 26.43 12.2834 25.53 12.2834 24.57C12.2834 23.61 13.0434 22.71 14.2234 22.71C15.4034 22.71 16.1634 23.61 16.1634 24.57C16.1634 25.53 15.4034 26.43 14.2234 26.43ZM27.928 27.43C26.268 27.43 24.988 28.12 24.988 29.28C24.988 30.44 26.268 31.13 27.928 31.13C29.588 31.13 30.868 30.44 30.868 29.28C30.868 28.12 29.588 27.43 27.928 27.43ZM31.878 25.03C30.718 24.93 29.638 24.68 28.818 24.26C28.598 24.15 28.408 24.02 28.238 23.87C28.308 23.76 28.358 23.64 28.398 23.51H31.338V22.89H24.398V23.51H27.538C27.468 23.67 27.358 23.82 27.218 23.95C26.538 24.61 25.268 24.99 23.878 25.09L24.208 25.69C25.048 25.64 26.058 25.4 26.888 24.99C27.248 24.82 27.558 24.61 27.828 24.36C28.038 24.53 28.278 24.68 28.528 24.81C29.438 25.29 30.548 25.58 31.538 25.64L31.878 25.03ZM27.928 30.51C26.708 30.51 25.748 30.06 25.748 29.28C25.748 28.51 26.708 28.05 27.928 28.05C29.148 28.05 30.108 28.51 30.108 29.28C30.108 30.06 29.148 30.51 27.928 30.51ZM23.508 26.33V26.95H32.268V26.33H28.278V25.3H27.498V26.33H23.508ZM29.768 21.71H25.968V22.33H29.768V21.71ZM42.4226 28.61C41.7626 28.18 41.1626 27.67 40.6326 27.08C40.1126 26.5 39.7026 25.88 39.4126 25.22C39.4526 25.09 39.4926 24.96 39.5226 24.82C39.6826 24.22 39.7826 23.57 39.8226 22.87H42.0026V22.21H36.4726V22.87H39.0226C38.9726 23.5 38.8826 24.09 38.7426 24.64C38.2626 26.57 37.2526 28.01 35.9226 28.94L36.4326 29.47C37.3826 28.76 38.2026 27.86 38.8026 26.71C38.9126 26.5 39.0226 26.28 39.1126 26.05C39.2226 26.26 39.3526 26.46 39.4826 26.66C40.1626 27.66 41.0426 28.58 41.9126 29.2L42.4226 28.61ZM43.8426 30.75V25.91H45.2926V25.23H43.8426V21.83H43.0826V30.75H43.8426ZM51.7759 26.31C50.7859 25.91 49.9059 25.26 49.2859 24.44C49.1559 24.27 49.0459 24.09 48.9459 23.9L49.0459 23.63C49.2159 23.11 49.3159 22.56 49.3259 21.99H48.5459C48.4359 23.99 47.3559 25.77 45.4359 26.65L45.9159 27.18C46.8859 26.7 47.7259 25.97 48.3259 25.08C48.4359 24.92 48.5459 24.75 48.6359 24.58C48.7059 24.7 48.7959 24.82 48.8859 24.93C49.5359 25.78 50.4259 26.5 51.3159 26.9L51.7759 26.31ZM53.7859 30.65V29.99H47.7859V27.71H47.0259V30.65H53.7859ZM53.4959 28.41V24.81H54.7259V24.13H53.4959V21.83H52.7359V28.41H53.4959ZM55.1193 26.71V27.37H63.8793V26.71H55.1193ZM63.2293 30.65V29.99H56.8593V28.11H56.0993V30.65H63.2293ZM59.4993 21.53C57.8393 21.53 56.5593 22.42 56.5593 23.71C56.5593 25 57.8393 25.89 59.4993 25.89C61.1593 25.89 62.4393 25 62.4393 23.71C62.4393 22.42 61.1593 21.53 59.4993 21.53ZM59.4993 25.25C58.2793 25.25 57.3193 24.63 57.3193 23.71C57.3193 22.79 58.2793 22.17 59.4993 22.17C60.7193 22.17 61.6793 22.79 61.6793 23.71C61.6793 24.63 60.7193 25.25 59.4993 25.25ZM69.3127 24.16C69.3127 22.95 68.4127 21.85 66.7227 21.85C65.7127 21.85 64.8127 22.58 64.4427 23.38L64.9827 23.73C65.3327 23.03 66.0127 22.47 66.7227 22.47C67.8527 22.47 68.5727 23.2 68.5727 24.16C68.5727 25.23 67.7127 26.06 66.2827 26.47V28.53H67.0227V26.87C68.1827 26.47 69.3127 25.56 69.3127 24.16ZM66.1927 29.34H67.1527V30.3H66.1927V29.34Z" fill="#666666"/>
</svg>
