<svg width="68" height="14" viewBox="0 0 68 14" fill="none" xmlns="http://www.w3.org/2000/svg">
<path opacity="0.3" d="M0.26 11.93H4.516C6.7 11.93 8.1 10.516 8.1 8.878C8.1 7.212 6.882 6.442 6.028 6.106C6.616 5.77 7.26 5.098 7.26 4.062C7.26 2.62 6.056 1.43 4.096 1.43H0.26V11.93ZM4.516 6.708C6.042 6.708 7.064 7.702 7.064 8.878C7.064 10.04 6.042 11.034 4.516 11.034H1.296V6.708H4.516ZM4.096 2.326C5.398 2.326 6.224 3.096 6.224 4.062C6.224 5.014 5.398 5.812 4.096 5.812H1.296V2.326H4.096ZM16.8316 11.93H17.8956V1.43H16.8596V9.186L16.8876 10.446L16.2716 9.424L10.8396 1.43H9.77563V11.93H10.8116V3.866L10.7836 2.9L11.2456 3.74L16.8316 11.93ZM26.9783 11.93H28.3923L22.6663 6.372L27.9723 1.43H26.6003L21.4483 6.33V1.43H20.4123V11.93H21.4483V6.456L26.9783 11.93ZM37.5645 10.53V9.62L30.5505 9.97V6.302H35.7025V1.01H29.4865V1.934H34.6385V5.378H29.4865V10.978L37.5645 10.53ZM39.3845 13.05V6.274H41.4145V5.322H39.3845V0.562H38.3205V13.05H39.3845ZM53.4452 13.05V0.562H52.3812V13.05H53.4452ZM46.3752 1.15C44.1352 1.15 42.4132 2.858 42.4132 5.378C42.4132 7.912 44.1352 9.62 46.3752 9.62C48.6152 9.62 50.3372 7.912 50.3372 5.378C50.3372 2.858 48.6152 1.15 46.3752 1.15ZM46.3752 2.102C48.0412 2.102 49.2452 3.348 49.2452 5.364C49.2452 7.338 48.1252 8.668 46.3752 8.668C44.6252 8.668 43.5052 7.338 43.5052 5.364C43.5052 3.348 44.7092 2.102 46.3752 2.102ZM56.1379 7.03V7.954H66.7359V7.03H64.5799L64.6919 2.858H63.6279L63.5159 7.03H59.3439L59.2459 2.858H58.1819L58.2799 7.03H56.1379ZM55.3119 10.81V11.734H67.5759V10.81H55.3119ZM56.5299 1.094V2.018H66.3439V1.094H56.5299Z" fill="#242D3C"/>
</svg>
