<svg width="14" height="17" viewBox="0 0 14 17" fill="none" xmlns="http://www.w3.org/2000/svg">
<path d="M12.768 8.682V7.254H7.56V6.652C7.784 6.638 8.008 6.61 8.218 6.568C9.702 6.288 10.724 5.63 10.724 4.524C10.724 4.118 10.36 3.656 9.87 3.502H11.998V2.074H1.162V3.502H3.29C2.8 3.656 2.436 4.118 2.436 4.524C2.436 5.63 3.458 6.288 4.942 6.568C5.166 6.61 5.404 6.638 5.656 6.666V7.254H0.448V8.682H12.768ZM11.48 12.994V9.186H1.708V12.994H11.48ZM9.674 0.253999H3.486V1.682H9.674V0.253999ZM6.58 3.502C8.05 3.502 8.876 3.754 8.876 4.384C8.876 5.014 8.05 5.266 6.58 5.266C5.11 5.266 4.284 5.014 4.284 4.384C4.284 3.754 5.11 3.502 6.58 3.502ZM3.584 10.614H9.604V11.538H3.584V10.614Z" fill="#242D3C"/>
<rect y="16" width="13" height="1" fill="#242D3C"/>
</svg>
