<svg width="64" height="14" viewBox="0 0 64 14" fill="none" xmlns="http://www.w3.org/2000/svg">
<path opacity="0.3" d="M5.454 9.718H1.156V2.018H5.454V9.718ZM0.092 1.094V10.642H6.518V1.094H0.092ZM9.99 13.05V5.994H12.02V5.042H9.99V0.562H8.926V13.05H9.99ZM24.0507 13.05V0.562H22.9867V13.05H24.0507ZM16.9807 1.15C14.7407 1.15 13.0187 2.858 13.0187 5.378C13.0187 7.912 14.7407 9.62 16.9807 9.62C19.2207 9.62 20.9427 7.912 20.9427 5.378C20.9427 2.858 19.2207 1.15 16.9807 1.15ZM16.9807 2.102C18.6467 2.102 19.8507 3.348 19.8507 5.364C19.8507 7.338 18.7307 8.668 16.9807 8.668C15.2307 8.668 14.1107 7.338 14.1107 5.364C14.1107 3.348 15.3147 2.102 16.9807 2.102ZM26.0014 10.824L33.0994 10.46V9.55L31.4614 9.62L31.5874 2.942H30.5234L30.4114 9.662L28.5494 9.746L28.4514 2.942H27.3874L27.4994 9.788L26.0014 9.844V10.824ZM34.8494 12.7V0.701999H33.7994V5.252H32.2314V6.204H33.7994V12.7H34.8494ZM37.4394 13.036V0.562H36.3754V13.036H37.4394ZM32.6514 2.102V1.178H26.2534V2.102H32.6514ZM50.4921 13.05V0.562H49.4281V13.05H50.4921ZM43.4221 1.15C41.1821 1.15 39.4601 2.858 39.4601 5.378C39.4601 7.912 41.1821 9.62 43.4221 9.62C45.6621 9.62 47.3841 7.912 47.3841 5.378C47.3841 2.858 45.6621 1.15 43.4221 1.15ZM43.4221 2.102C45.0881 2.102 46.2921 3.348 46.2921 5.364C46.2921 7.338 45.1721 8.668 43.4221 8.668C41.6721 8.668 40.5521 7.338 40.5521 5.364C40.5521 3.348 41.7561 2.102 43.4221 2.102ZM61.3048 10.054C60.3808 9.452 59.5408 8.738 58.7988 7.912C58.0708 7.1 57.4968 6.232 57.0908 5.308C57.1468 5.126 57.2028 4.944 57.2448 4.748C57.4688 3.908 57.6088 2.998 57.6648 2.018H60.7168V1.094H52.9748V2.018H56.5448C56.4748 2.9 56.3488 3.726 56.1528 4.496C55.4808 7.198 54.0668 9.214 52.2048 10.516L52.9188 11.258C54.2488 10.264 55.3968 9.004 56.2368 7.394C56.3908 7.1 56.5448 6.792 56.6708 6.47C56.8248 6.764 57.0068 7.044 57.1888 7.324C58.1408 8.724 59.3728 10.012 60.5908 10.88L61.3048 10.054ZM63.8528 13.05V0.562H62.7888V13.05H63.8528Z" fill="#242D3C"/>
</svg>
