<svg width="131" height="14" viewBox="0 0 131 14" fill="none" xmlns="http://www.w3.org/2000/svg">
<path d="M11.704 6.4H3.668V2.634H11.424V1.038H1.792V8.01H5.726V10.558H0.448V12.154H12.768V10.558H7.63V8.01H11.704V6.4ZM24.7007 12.994V8.766H20.7807V7.926H25.9887V6.386H13.6687V7.926H18.8767V8.766H14.9287V12.994H24.7007ZM15.5727 2.998C15.5727 4.748 17.4347 5.91 19.8287 5.91C22.2227 5.91 24.0847 4.748 24.0847 2.998C24.0847 1.248 22.2227 0.0859998 19.8287 0.0859998C17.4347 0.0859998 15.5727 1.248 15.5727 2.998ZM19.8287 1.626C21.1307 1.626 22.2087 2.214 22.2087 2.998C22.2087 3.782 21.1307 4.37 19.8287 4.37C18.5267 4.37 17.4487 3.782 17.4487 2.998C17.4487 2.214 18.5267 1.626 19.8287 1.626ZM16.8047 10.306H22.8247V11.426H16.8047V10.306ZM35.2754 5.378C35.2754 2.858 33.5254 1.094 31.2154 1.094C28.9054 1.094 27.1554 2.858 27.1554 5.378C27.1554 7.898 28.9054 9.662 31.2154 9.662C33.5254 9.662 35.2754 7.898 35.2754 5.378ZM33.3994 5.378C33.3994 7.002 32.5034 8.066 31.2154 8.066C29.9274 8.066 29.0314 7.002 29.0314 5.378C29.0314 3.754 29.9274 2.69 31.2154 2.69C32.5034 2.69 33.3994 3.754 33.3994 5.378ZM38.5514 13.078V0.533999H36.6754V13.078H38.5514ZM56.5199 12.994V11.496H48.5119V10.88H56.2399V7.408H46.6359V8.892H54.3639V9.48H46.6359V12.994H56.5199ZM53.4119 0.967999H45.2779V2.48H46.4399L46.5379 5.21L44.8999 5.252V6.82L53.8459 6.47V4.986L52.1379 5.042L52.2359 2.48H53.4119V0.967999ZM56.2679 6.988V0.533999H54.3919V6.988H56.2679ZM48.3019 2.48H50.3599L50.2759 5.098L48.3999 5.154L48.3019 2.48ZM64.0566 0.478C61.2986 0.478 59.4226 2.34 59.4226 4.44C59.4226 6.54 61.2986 8.402 64.0566 8.402C66.8566 8.402 68.7186 6.54 68.7186 4.44C68.7186 2.34 66.8566 0.478 64.0566 0.478ZM70.2446 12.154V10.558H67.8366V8.444H65.9606V10.558H62.2506V8.444H60.3746V10.558H57.9246V12.154H70.2446ZM64.0706 6.806C62.3346 6.806 61.2986 5.714 61.2986 4.44C61.2986 3.18 62.3346 2.074 64.0706 2.074C65.8066 2.074 66.8426 3.18 66.8426 4.44C66.8426 5.714 65.8066 6.806 64.0706 6.806ZM77.5573 2.102V0.505999H73.2173V2.102H77.5573ZM79.3773 4.356V2.76H71.3413V4.356H79.3773ZM75.3593 4.706C73.1333 4.706 71.8033 6.19 71.8033 8.052C71.8033 9.914 73.1333 11.398 75.3593 11.398C77.5853 11.398 78.9153 9.914 78.9153 8.052C78.9153 6.19 77.5853 4.706 75.3593 4.706ZM75.3593 9.83C74.2253 9.83 73.6793 9.102 73.6793 8.052C73.6793 7.002 74.2253 6.274 75.3593 6.274C76.4933 6.274 77.0393 7.002 77.0393 8.052C77.0393 9.102 76.4933 9.83 75.3593 9.83ZM82.1073 13.078V7.184H83.8853V5.56H82.1073V0.533999H80.2313V13.078H82.1073ZM93.158 6.344C92.248 5.994 91.45 5.518 90.736 4.93C90.246 4.524 89.854 4.034 89.532 3.46C89.574 3.362 89.602 3.25 89.644 3.138C89.91 2.368 90.05 1.57 90.064 0.729999H88.16C88.048 3.376 86.732 5.644 84.058 6.792L85.234 8.136C86.564 7.506 87.754 6.498 88.608 5.224L88.748 5.028C89.644 6.26 90.848 7.24 92.108 7.772L93.158 6.344ZM86.452 8.654V12.938H96.42V11.342H88.328V8.654H86.452ZM96.07 9.732V0.533999H94.194V9.732H96.07ZM108.409 13.078V6.764H110.187V5.14H108.409V0.533999H106.533V13.078H108.409ZM98.2027 2.634H103.103C102.837 5.504 100.891 8.388 97.6287 9.956L98.8327 11.286C102.333 9.41 105.133 5.91 105.091 1.038H98.2027V2.634ZM116.939 0.478C114.181 0.478 112.305 2.34 112.305 4.44C112.305 6.54 114.181 8.402 116.939 8.402C119.739 8.402 121.601 6.54 121.601 4.44C121.601 2.34 119.739 0.478 116.939 0.478ZM123.127 12.154V10.558H120.719V8.444H118.843V10.558H115.133V8.444H113.257V10.558H110.807V12.154H123.127ZM116.953 6.806C115.217 6.806 114.181 5.714 114.181 4.44C114.181 3.18 115.217 2.074 116.953 2.074C118.689 2.074 119.725 3.18 119.725 4.44C119.725 5.714 118.689 6.806 116.953 6.806ZM130.888 3.964C130.888 2.074 129.474 0.519999 127.094 0.519999C125.582 0.519999 124.182 1.626 123.622 3.04L125.008 3.88C125.47 2.802 126.296 2.088 127.094 2.088C128.284 2.088 129.04 2.858 129.04 3.964C129.04 5.168 127.85 6.106 126.072 6.582V9.438H127.92V7.562C129.46 7.002 130.888 5.854 130.888 3.964ZM126.03 10.558H127.99V12.518H126.03V10.558Z" fill="#242D3C"/>
</svg>
