<svg width="159" height="14" viewBox="0 0 159 14" fill="none" xmlns="http://www.w3.org/2000/svg">
<path d="M1.372 11.356C2.128 10.782 2.8 10.138 3.402 9.41C3.92 8.78 4.382 8.108 4.76 7.38L4.844 7.534C5.74 8.948 6.986 10.25 8.246 11.062L9.38 9.69C7.63 8.696 6.342 7.31 5.544 5.532C5.67 5.126 5.782 4.72 5.88 4.286C6.006 3.754 6.09 3.208 6.146 2.634H8.974V1.038H0.952V2.634H4.228C4.186 3.068 4.116 3.502 4.032 3.922C3.528 6.512 2.254 8.654 0.112 10.054L1.372 11.356ZM12.25 13.078V0.533999H10.374V13.078H12.25ZM24.7007 12.994V8.066H14.9287V12.994H24.7007ZM25.9887 6.918V5.35H24.2947C24.4067 4.832 24.5187 4.23 24.6167 3.544C24.7427 2.704 24.8127 1.766 24.8407 0.729999H14.8027V2.298H22.9087C22.8807 2.97 22.7687 3.88 22.5727 4.804L22.4467 5.35H13.6687V6.918H25.9887ZM16.8047 9.606H22.8247V11.426H16.8047V9.606ZM40.4152 6.428C39.0572 6.036 37.8812 5.42 37.0412 4.496C36.9152 4.356 36.7892 4.202 36.6912 4.048L36.8032 3.754C36.9572 3.376 37.0692 2.956 37.1392 2.522H39.9392V0.954H31.9732V2.522H35.1932C35.0112 3.376 34.6752 4.104 34.1852 4.706C33.4992 5.588 32.4912 6.288 31.1752 6.82L32.3232 8.192C33.5692 7.674 34.7872 6.834 35.6972 5.7C35.7532 5.63 35.8092 5.56 35.8512 5.49L36.0192 5.686C36.9432 6.722 38.1612 7.52 39.3932 7.884L40.4152 6.428ZM33.5692 8.654V12.938H43.5372V11.342H35.4452V8.654H33.5692ZM43.1872 9.732V0.533999H41.3112V9.732H43.1872ZM52.2639 7.87C49.9119 7.87 48.2179 9.018 48.2179 10.656C48.2179 12.308 49.9119 13.442 52.2639 13.442C54.6159 13.442 56.3099 12.308 56.3099 10.656C56.3099 9.018 54.6159 7.87 52.2639 7.87ZM52.1239 7.478H53.9439V5.168H54.8119V8.038H56.6599V0.533999H54.8119V3.572H53.9439V0.659999H52.1239V7.478ZM48.2879 3.544C46.4399 3.544 45.2779 4.412 45.2779 5.686C45.2779 6.96 46.4399 7.828 48.2879 7.828C50.1359 7.828 51.2979 6.96 51.2979 5.686C51.2979 4.412 50.1359 3.544 48.2879 3.544ZM51.6479 3.32V1.948H44.7879V3.32H51.6479ZM52.2639 11.958C50.8639 11.958 50.0939 11.44 50.0939 10.656C50.0939 9.872 50.8639 9.354 52.2639 9.354C53.6639 9.354 54.4339 9.872 54.4339 10.656C54.4339 11.44 53.6639 11.958 52.2639 11.958ZM50.1779 1.668V0.296H46.3979V1.668H50.1779ZM48.2879 6.512C47.4899 6.512 47.0699 6.19 47.0699 5.686C47.0699 5.182 47.4899 4.86 48.2879 4.86C49.0859 4.86 49.5059 5.182 49.5059 5.686C49.5059 6.19 49.0859 6.512 48.2879 6.512ZM74.8383 7.324V5.784H62.5183V7.324H67.7263V8.052C67.4883 8.094 67.2643 8.136 67.0403 8.192C65.5283 8.584 64.5483 9.564 64.5483 10.852C64.5483 12.588 66.2843 13.722 68.7343 13.722C71.1843 13.722 72.9203 12.588 72.9203 10.852C72.9203 9.564 71.9403 8.584 70.4143 8.192C70.1623 8.122 69.8963 8.08 69.6303 8.038V7.324H74.8383ZM74.4603 3.88C72.7523 3.824 71.2263 3.572 70.1063 2.928C69.9383 2.83 69.7703 2.704 69.6163 2.578L69.7003 2.424L69.7703 2.27H73.5643V0.729999H63.7923V2.27H67.6843L67.6283 2.354C66.7603 3.362 64.9823 3.768 62.8823 3.936L63.6663 5.378C65.0103 5.294 66.5503 4.958 67.7963 4.286C68.1183 4.118 68.3983 3.922 68.6643 3.712C68.8743 3.88 69.0843 4.034 69.3223 4.174C70.5683 4.916 72.1083 5.28 73.6203 5.28L74.4603 3.88ZM68.7343 12.21C67.2223 12.21 66.4243 11.678 66.4243 10.852C66.4243 10.026 67.2223 9.494 68.7343 9.494C70.2463 9.494 71.0443 10.026 71.0443 10.852C71.0443 11.678 70.2463 12.21 68.7343 12.21ZM79.813 0.407999C77.727 0.407999 76.061 1.906 76.061 4.006C76.061 6.106 77.727 7.604 79.813 7.604C81.899 7.604 83.565 6.106 83.565 4.006C83.565 1.906 81.899 0.407999 79.813 0.407999ZM79.813 6.008C78.651 6.008 77.937 5.196 77.937 4.006C77.937 2.816 78.651 2.004 79.813 2.004C80.975 2.004 81.689 2.816 81.689 4.006C81.689 5.196 80.975 6.008 79.813 6.008ZM87.303 9.732V0.533999H85.427V9.732H87.303ZM77.685 8.654V12.938H87.653V11.342H79.561V8.654H77.685ZM101.939 5.378C101.939 2.858 100.189 1.094 97.8795 1.094C95.5695 1.094 93.8195 2.858 93.8195 5.378C93.8195 7.898 95.5695 9.662 97.8795 9.662C100.189 9.662 101.939 7.898 101.939 5.378ZM100.063 5.378C100.063 7.002 99.1675 8.066 97.8795 8.066C96.5915 8.066 95.6955 7.002 95.6955 5.378C95.6955 3.754 96.5915 2.69 97.8795 2.69C99.1675 2.69 100.063 3.754 100.063 5.378ZM105.215 13.078V0.533999H103.339V13.078H105.215ZM114.194 9.648H116.014V0.659999H114.194V3.474H113.032V0.827999H111.184V2.802H109.154V0.827999H107.306V7.716H113.032V5.098H114.194V9.648ZM108.804 8.766V12.938H118.912V11.342H110.68V8.766H108.804ZM118.59 9.956V0.533999H116.742V9.956H118.59ZM109.154 6.148V4.342H111.184V6.148H109.154ZM132.315 12.014V10.418H119.995V12.014H132.315ZM131.251 8.612V7.002H123.201V5.574H130.831V3.978H123.187V2.606H130.971V1.01H121.325V8.612H131.251ZM136.52 1.178C134.42 1.178 133.006 2.956 133.006 5.378C133.006 7.8 134.42 9.578 136.52 9.578C137.57 9.578 138.452 9.13 139.068 8.388L139.11 8.332H140.944V12.756H142.764V0.674H140.944V2.508H139.18L139.068 2.368C138.452 1.626 137.57 1.178 136.52 1.178ZM145.186 13.064V0.533999H143.338V13.064H145.186ZM136.52 7.982C135.442 7.982 134.854 6.96 134.854 5.378C134.854 3.796 135.442 2.774 136.52 2.774C137.598 2.774 138.186 3.796 138.186 5.378C138.186 6.96 137.598 7.982 136.52 7.982ZM140.034 5.378C140.034 4.93 139.992 4.51 139.894 4.104H140.944V6.736H139.866C139.978 6.316 140.034 5.868 140.034 5.378ZM152.568 0.478C149.81 0.478 147.934 2.34 147.934 4.44C147.934 6.54 149.81 8.402 152.568 8.402C155.368 8.402 157.23 6.54 157.23 4.44C157.23 2.34 155.368 0.478 152.568 0.478ZM158.756 12.154V10.558H156.348V8.444H154.472V10.558H150.762V8.444H148.886V10.558H146.436V12.154H158.756ZM152.582 6.806C150.846 6.806 149.81 5.714 149.81 4.44C149.81 3.18 150.846 2.074 152.582 2.074C154.318 2.074 155.354 3.18 155.354 4.44C155.354 5.714 154.318 6.806 152.582 6.806Z" fill="#242D3C"/>
</svg>
