<svg width="25" height="12" viewBox="0 0 25 12" fill="none" xmlns="http://www.w3.org/2000/svg">
<path d="M7.63 11V9.866H3.584C3.234 9.866 2.814 9.922 2.422 10.034L5.292 7.192C6.454 6.03 7.434 4.966 7.434 3.44C7.434 1.62 6.076 0.555999 4.326 0.555999C2.576 0.555999 1.218 1.578 0.952 3.468L2.212 3.678C2.212 2.502 3.08 1.662 4.256 1.662C5.32 1.662 6.104 2.236 6.146 3.468C6.146 4.672 5.362 5.554 4.284 6.702L0.742 10.104V11H7.63ZM16.3058 5.89C16.3058 2.236 14.6538 0.569999 12.5398 0.569999C10.4118 0.569999 8.77384 2.236 8.77384 5.89C8.77384 9.53 10.4118 11.196 12.5398 11.196C14.6538 11.196 16.3058 9.53 16.3058 5.89ZM15.0178 5.89C15.0178 9.082 13.8418 10.16 12.5398 10.16C11.2378 10.16 10.0758 9.082 10.0758 5.89C10.0758 2.684 11.2378 1.62 12.5398 1.62C13.8418 1.62 15.0178 2.684 15.0178 5.89ZM24.6457 5.89C24.6457 2.236 22.9937 0.569999 20.8797 0.569999C18.7517 0.569999 17.1137 2.236 17.1137 5.89C17.1137 9.53 18.7517 11.196 20.8797 11.196C22.9937 11.196 24.6457 9.53 24.6457 5.89ZM23.3577 5.89C23.3577 9.082 22.1817 10.16 20.8797 10.16C19.5777 10.16 18.4157 9.082 18.4157 5.89C18.4157 2.684 19.5777 1.62 20.8797 1.62C22.1817 1.62 23.3577 2.684 23.3577 5.89Z" fill="black"/>
</svg>
