<svg width="72" height="14" viewBox="0 0 72 14" fill="none" xmlns="http://www.w3.org/2000/svg">
<path d="M10.494 0.422H9.122V5.42H7.624V0.688H6.266V12.448H7.624V6.596H9.122V13.064H10.494V0.422ZM1.548 8.878V3.11H4.81V1.934H0.134V10.068H0.974C1.422 10.068 1.842 10.0633 2.234 10.054C2.626 10.0447 3.004 10.0307 3.368 10.012C3.74133 9.984 4.10533 9.94667 4.46 9.9C4.824 9.85333 5.19733 9.79267 5.58 9.718L5.454 8.528C4.80067 8.65867 4.166 8.74733 3.55 8.794C2.94333 8.84067 2.276 8.86867 1.548 8.878ZM12.4249 4.398L12.8449 5.476C13.9742 5.40133 14.9449 5.21 15.7569 4.902C16.5782 4.594 17.1896 4.174 17.5909 3.642C17.9922 4.174 18.6036 4.594 19.4249 4.902C20.2556 5.21 21.2356 5.40133 22.3649 5.476L22.7569 4.398C21.4782 4.32333 20.4749 4.12733 19.7469 3.81C19.0189 3.48333 18.5849 3.068 18.4449 2.564H22.1829V1.486H18.3189V0.379999H16.8769V1.486H13.0269V2.564H16.7509C16.6109 3.068 16.1769 3.48333 15.4489 3.81C14.7209 4.12733 13.7129 4.32333 12.4249 4.398ZM18.3189 7.016H23.3169V5.938H11.9069V7.016H16.8769V7.996H13.2369V9.06H20.4749V9.942H13.2649V12.966H22.2529V11.888H14.6929V10.936H21.8889V7.996H18.3189V7.016ZM34.4878 9.69V0.449999H33.0458V9.69H34.4878ZM30.9878 7.702L31.7298 6.554C31.2445 6.386 30.8105 6.162 30.4278 5.882C30.0545 5.59267 29.7371 5.266 29.4758 4.902C29.2145 4.52867 29.0138 4.132 28.8738 3.712C28.7431 3.28267 28.6778 2.844 28.6778 2.396V1.136H27.2078V2.396C27.2078 2.86267 27.1378 3.32 26.9978 3.768C26.8671 4.20667 26.6711 4.61733 26.4098 5C26.1485 5.38267 25.8218 5.728 25.4298 6.036C25.0471 6.344 24.6085 6.59133 24.1138 6.778L24.8558 7.94C25.6118 7.66 26.2465 7.24933 26.7598 6.708C27.2731 6.15733 27.6745 5.52733 27.9638 4.818C28.2345 5.49 28.6218 6.07333 29.1258 6.568C29.6391 7.05333 30.2598 7.43133 30.9878 7.702ZM34.8518 11.664H27.6838V8.822H26.2278V12.84H34.8518V11.664ZM43.1107 7.604L43.7827 6.498C43.2974 6.358 42.8634 6.17133 42.4807 5.938C42.1074 5.70467 41.7854 5.43867 41.5147 5.14C41.2534 4.84133 41.0527 4.524 40.9127 4.188C40.7727 3.84267 40.7027 3.488 40.7027 3.124V3.012H43.3627V1.864H40.7167V0.366H39.2607V1.864H36.6007V3.012H39.2607V3.124C39.2607 3.516 39.1907 3.90333 39.0507 4.286C38.9201 4.65933 38.7241 5.00933 38.4627 5.336C38.2107 5.65333 37.8934 5.94267 37.5107 6.204C37.1374 6.456 36.7081 6.65667 36.2227 6.806L36.9227 7.926C37.6787 7.69267 38.3134 7.34267 38.8267 6.876C39.3494 6.40933 39.7507 5.854 40.0307 5.21C40.3201 5.77 40.7214 6.26 41.2347 6.68C41.7574 7.09067 42.3827 7.39867 43.1107 7.604ZM45.2807 3.922H42.9987V5.112H45.2807V8.08H46.7227V0.422H45.2807V3.922ZM42.5087 8.36C41.1834 8.36 40.1427 8.56533 39.3867 8.976C38.6307 9.37733 38.2527 9.956 38.2527 10.712C38.2527 11.0853 38.3507 11.4213 38.5467 11.72C38.7427 12.0093 39.0227 12.252 39.3867 12.448C39.7507 12.6533 40.1941 12.8073 40.7167 12.91C41.2487 13.022 41.8461 13.078 42.5087 13.078C43.1714 13.078 43.7641 13.022 44.2867 12.91C44.8187 12.8073 45.2667 12.6533 45.6307 12.448C46.0041 12.252 46.2887 12.0093 46.4847 11.72C46.6807 11.4213 46.7787 11.0853 46.7787 10.712C46.7787 10.3387 46.6807 10.0073 46.4847 9.718C46.2887 9.42867 46.0041 9.186 45.6307 8.99C45.2667 8.78467 44.8187 8.63067 44.2867 8.528C43.7641 8.416 43.1714 8.36 42.5087 8.36ZM42.5087 11.958C41.6034 11.958 40.9081 11.8507 40.4227 11.636C39.9374 11.4213 39.6947 11.1133 39.6947 10.712C39.6947 10.3107 39.9374 10.0073 40.4227 9.802C40.9081 9.58733 41.6034 9.48 42.5087 9.48C43.4141 9.48 44.1094 9.58733 44.5947 9.802C45.0894 10.0073 45.3367 10.3107 45.3367 10.712C45.3367 11.1133 45.0894 11.4213 44.5947 11.636C44.1094 11.8507 43.4141 11.958 42.5087 11.958ZM59.8816 5.658H58.1316C58.2903 4.902 58.3836 4.23467 58.4116 3.656C58.4396 3.07733 58.4536 2.536 58.4536 2.032V1.052H49.8716V2.228H57.0396C57.0396 2.704 57.021 3.21733 56.9836 3.768C56.9463 4.31867 56.8483 4.94867 56.6896 5.658H48.4296V6.834H59.8816V5.658ZM49.8156 8.36V12.924H58.4536V8.36H49.8156ZM51.2296 11.776V9.508H57.0396V11.776H51.2296ZM71.3045 0.449999H69.9325V3.6H68.6165V0.688H67.2585V7.898H68.6165V4.776H69.9325V7.954H71.3045V0.449999ZM66.4605 4.244C66.4605 3.796 66.3859 3.38533 66.2365 3.012C66.0965 2.63867 65.8959 2.32133 65.6345 2.06C65.3825 1.78933 65.0792 1.584 64.7245 1.444C64.3792 1.29467 63.9965 1.22 63.5765 1.22C63.1565 1.22 62.7692 1.29467 62.4145 1.444C62.0599 1.584 61.7565 1.78933 61.5045 2.06C61.2525 2.32133 61.0519 2.63867 60.9025 3.012C60.7625 3.38533 60.6925 3.796 60.6925 4.244C60.6925 4.692 60.7625 5.10267 60.9025 5.476C61.0519 5.84 61.2525 6.15733 61.5045 6.428C61.7565 6.68933 62.0599 6.89467 62.4145 7.044C62.7692 7.19333 63.1565 7.268 63.5765 7.268C63.9965 7.268 64.3792 7.19333 64.7245 7.044C65.0792 6.89467 65.3825 6.68933 65.6345 6.428C65.8959 6.15733 66.0965 5.84 66.2365 5.476C66.3859 5.10267 66.4605 4.692 66.4605 4.244ZM61.9945 4.244C61.9945 3.684 62.1392 3.24533 62.4285 2.928C62.7179 2.60133 63.1005 2.438 63.5765 2.438C64.0339 2.438 64.4119 2.60133 64.7105 2.928C65.0092 3.24533 65.1585 3.684 65.1585 4.244C65.1585 4.804 65.0092 5.24733 64.7105 5.574C64.4119 5.90067 64.0339 6.064 63.5765 6.064C63.1005 6.064 62.7179 5.90067 62.4285 5.574C62.1392 5.24733 61.9945 4.804 61.9945 4.244ZM62.7365 8.612V9.774H69.8625V13.078H71.3045V8.612H62.7365Z" fill="black"/>
</svg>
