<svg width="61" height="17" viewBox="0 0 61 17" fill="none" xmlns="http://www.w3.org/2000/svg">
<path d="M14.0108 0.114H12.2468V6.54H10.3208V0.455999H8.57481V15.576H10.3208V8.052H12.2468V16.368H14.0108V0.114ZM2.50881 10.986V3.57H6.70281V2.058H0.690813V12.516H1.77081C2.34681 12.516 2.88681 12.51 3.39081 12.498C3.89481 12.486 4.38081 12.468 4.84881 12.444C5.32881 12.408 5.79681 12.36 6.25281 12.3C6.72081 12.24 7.20081 12.162 7.69281 12.066L7.53081 10.536C6.69081 10.704 5.87481 10.818 5.08281 10.878C4.30281 10.938 3.44481 10.974 2.50881 10.986ZM16.4934 5.226L17.0334 6.612C18.4854 6.516 19.7334 6.27 20.7774 5.874C21.8334 5.478 22.6194 4.938 23.1354 4.254C23.6514 4.938 24.4374 5.478 25.4934 5.874C26.5614 6.27 27.8214 6.516 29.2734 6.612L29.7774 5.226C28.1334 5.13 26.8434 4.878 25.9074 4.47C24.9714 4.05 24.4134 3.516 24.2334 2.868H29.0394V1.482H24.0714V0.0599992H22.2174V1.482H17.2674V2.868H22.0554C21.8754 3.516 21.3174 4.05 20.3814 4.47C19.4454 4.878 18.1494 5.13 16.4934 5.226ZM24.0714 8.592H30.4974V7.206H15.8274V8.592H22.2174V9.852H17.5374V11.22H26.8434V12.354H17.5734V16.242H29.1294V14.856H19.4094V13.632H28.6614V9.852H24.0714V8.592ZM44.86 12.03V0.149999H43.006V12.03H44.86ZM40.36 9.474L41.314 7.998C40.69 7.782 40.132 7.494 39.64 7.134C39.16 6.762 38.752 6.342 38.416 5.874C38.08 5.394 37.822 4.884 37.642 4.344C37.474 3.792 37.39 3.228 37.39 2.652V1.032H35.5V2.652C35.5 3.252 35.41 3.84 35.23 4.416C35.062 4.98 34.81 5.508 34.474 6C34.138 6.492 33.718 6.936 33.214 7.332C32.722 7.728 32.158 8.046 31.522 8.286L32.476 9.78C33.448 9.42 34.264 8.892 34.924 8.196C35.584 7.488 36.1 6.678 36.472 5.766C36.82 6.63 37.318 7.38 37.966 8.016C38.626 8.64 39.424 9.126 40.36 9.474ZM45.328 14.568H36.112V10.914H34.24V16.08H45.328V14.568ZM55.9466 9.348L56.8106 7.926C56.1866 7.746 55.6286 7.506 55.1366 7.206C54.6566 6.906 54.2426 6.564 53.8946 6.18C53.5586 5.796 53.3006 5.388 53.1206 4.956C52.9406 4.512 52.8506 4.056 52.8506 3.588V3.444H56.2706V1.968H52.8686V0.0419995H50.9966V1.968H47.5766V3.444H50.9966V3.588C50.9966 4.092 50.9066 4.59 50.7266 5.082C50.5586 5.562 50.3066 6.012 49.9706 6.432C49.6466 6.84 49.2386 7.212 48.7466 7.548C48.2666 7.872 47.7146 8.13 47.0906 8.322L47.9906 9.762C48.9626 9.462 49.7786 9.012 50.4386 8.412C51.1106 7.812 51.6266 7.098 51.9866 6.27C52.3586 6.99 52.8746 7.62 53.5346 8.16C54.2066 8.688 55.0106 9.084 55.9466 9.348ZM58.7366 4.614H55.8026V6.144H58.7366V9.96H60.5906V0.114H58.7366V4.614ZM55.1726 10.32C53.4686 10.32 52.1306 10.584 51.1586 11.112C50.1866 11.628 49.7006 12.372 49.7006 13.344C49.7006 13.824 49.8266 14.256 50.0786 14.64C50.3306 15.012 50.6906 15.324 51.1586 15.576C51.6266 15.84 52.1966 16.038 52.8686 16.17C53.5526 16.314 54.3206 16.386 55.1726 16.386C56.0246 16.386 56.7866 16.314 57.4586 16.17C58.1426 16.038 58.7186 15.84 59.1866 15.576C59.6666 15.324 60.0326 15.012 60.2846 14.64C60.5366 14.256 60.6626 13.824 60.6626 13.344C60.6626 12.864 60.5366 12.438 60.2846 12.066C60.0326 11.694 59.6666 11.382 59.1866 11.13C58.7186 10.866 58.1426 10.668 57.4586 10.536C56.7866 10.392 56.0246 10.32 55.1726 10.32ZM55.1726 14.946C54.0086 14.946 53.1146 14.808 52.4906 14.532C51.8666 14.256 51.5546 13.86 51.5546 13.344C51.5546 12.828 51.8666 12.438 52.4906 12.174C53.1146 11.898 54.0086 11.76 55.1726 11.76C56.3366 11.76 57.2306 11.898 57.8546 12.174C58.4906 12.438 58.8086 12.828 58.8086 13.344C58.8086 13.86 58.4906 14.256 57.8546 14.532C57.2306 14.808 56.3366 14.946 55.1726 14.946Z" fill="white"/>
</svg>
