<svg width="70" height="19" viewBox="0 0 70 19" fill="none" xmlns="http://www.w3.org/2000/svg">
<path d="M17.68 4.94H15.12V0.46H13.06V11.32H15.12V6.64H17.68V4.94ZM10.44 10.36L11.52 8.74C10.8533 8.51333 10.2533 8.21333 9.72 7.84C9.2 7.46667 8.76 7.04667 8.4 6.58C8.04 6.1 7.76667 5.58667 7.58 5.04C7.39333 4.49333 7.3 3.92667 7.3 3.34V1.4H5.22V3.18C5.22 3.83333 5.12667 4.47333 4.94 5.1C4.75333 5.71333 4.47333 6.28667 4.1 6.82C3.72667 7.35333 3.26667 7.82667 2.72 8.24C2.17333 8.65333 1.54667 8.98 0.84 9.22L1.94 10.86C2.98 10.4733 3.86667 9.91333 4.6 9.18C5.33333 8.44667 5.9 7.58 6.3 6.58C6.68667 7.43333 7.22667 8.19333 7.92 8.86C8.62667 9.51333 9.46667 10.0133 10.44 10.36ZM9.3 11.76C8.36667 11.76 7.52667 11.84 6.78 12C6.04667 12.1467 5.42 12.3667 4.9 12.66C4.38 12.94 3.98 13.2933 3.7 13.72C3.42 14.1333 3.28 14.6067 3.28 15.14C3.28 15.6733 3.42 16.1533 3.7 16.58C3.98 16.9933 4.38 17.3467 4.9 17.64C5.42 17.9333 6.04667 18.1533 6.78 18.3C7.52667 18.46 8.36667 18.54 9.3 18.54C10.2467 18.54 11.0867 18.46 11.82 18.3C12.5667 18.1533 13.2 17.9333 13.72 17.64C14.24 17.3467 14.6333 16.9933 14.9 16.58C15.18 16.1533 15.32 15.6733 15.32 15.14C15.32 14.0733 14.7867 13.2467 13.72 12.66C12.6533 12.06 11.18 11.76 9.3 11.76ZM9.3 16.92C8.00667 16.92 7.02 16.7733 6.34 16.48C5.66 16.1867 5.32 15.74 5.32 15.14C5.32 14.58 5.66 14.1467 6.34 13.84C7.02 13.5333 8.00667 13.38 9.3 13.38C10.5933 13.38 11.58 13.5333 12.26 13.84C12.94 14.1467 13.28 14.58 13.28 15.14C13.28 15.74 12.94 16.1867 12.26 16.48C11.58 16.7733 10.5933 16.92 9.3 16.92ZM22.4184 2.66V5.98H19.9584V7.64H33.1384V5.98H30.6984V2.66H33.2384V1H19.8584V2.66H22.4184ZM28.6384 2.66V5.98H24.4784V2.66H28.6384ZM27.5984 10.74H34.7384V9.08H18.3984V10.74H25.5384V12.58H20.3584V18.32H32.7584V12.58H27.5984V10.74ZM30.7384 14.22V16.68H22.3984V14.22H30.7384ZM48.7169 5.02H45.5169V6.7H48.7169V11.24H50.7769V0.479999H48.7169V5.02ZM45.5369 10.66L46.5569 9.04C45.8769 8.8 45.2702 8.49333 44.7369 8.12C44.2169 7.73333 43.7769 7.3 43.4169 6.82C43.0569 6.34 42.7835 5.82667 42.5969 5.28C42.4102 4.73333 42.3169 4.17333 42.3169 3.6V3.36H46.0769V1.7H36.4169V3.36H40.2369V3.62C40.2369 4.23333 40.1369 4.84 39.9369 5.44C39.7369 6.04 39.4502 6.6 39.0769 7.12C38.7035 7.64 38.2435 8.10667 37.6969 8.52C37.1502 8.92 36.5235 9.24667 35.8169 9.5L36.8769 11.14C37.9569 10.7533 38.8702 10.1867 39.6169 9.44C40.3635 8.68 40.9369 7.8 41.3369 6.8C41.7235 7.68 42.2702 8.46 42.9769 9.14C43.6835 9.80667 44.5369 10.3133 45.5369 10.66ZM44.7769 11.72C43.8302 11.72 42.9769 11.8 42.2169 11.96C41.4702 12.1067 40.8302 12.3267 40.2969 12.62C39.7769 12.9133 39.3769 13.2733 39.0969 13.7C38.8169 14.1133 38.6769 14.5933 38.6769 15.14C38.6769 15.6733 38.8169 16.1533 39.0969 16.58C39.3769 17.0067 39.7769 17.3667 40.2969 17.66C40.8302 17.9533 41.4702 18.1733 42.2169 18.32C42.9769 18.48 43.8302 18.56 44.7769 18.56C45.7235 18.56 46.5702 18.48 47.3169 18.32C48.0635 18.1733 48.6969 17.9533 49.2169 17.66C49.7502 17.3667 50.1569 17.0067 50.4369 16.58C50.7169 16.1533 50.8569 15.6733 50.8569 15.14C50.8569 14.5933 50.7169 14.1133 50.4369 13.7C50.1569 13.2733 49.7502 12.9133 49.2169 12.62C48.6969 12.3267 48.0635 12.1067 47.3169 11.96C46.5702 11.8 45.7235 11.72 44.7769 11.72ZM44.7769 16.96C43.4835 16.96 42.4835 16.8067 41.7769 16.5C41.0835 16.1933 40.7369 15.74 40.7369 15.14C40.7369 14.54 41.0835 14.0867 41.7769 13.78C42.4835 13.4733 43.4835 13.32 44.7769 13.32C46.0702 13.32 47.0635 13.4733 47.7569 13.78C48.4502 14.0867 48.7969 14.54 48.7969 15.14C48.7969 15.74 48.4502 16.1933 47.7569 16.5C47.0635 16.8067 46.0702 16.96 44.7769 16.96ZM69.5753 14.64H62.3953V11H67.6953V1.68H65.6553V4.72H57.0953V1.68H55.0553V11H60.3353V14.64H53.2153V16.34H69.5753V14.64ZM57.0953 9.34V6.38H65.6553V9.34H57.0953Z" fill="black"/>
</svg>
