<svg width="48" height="14" viewBox="0 0 48 14" fill="none" xmlns="http://www.w3.org/2000/svg">
<path d="M12.376 3.558H10.584V0.422H9.142V8.024H10.584V4.748H12.376V3.558ZM7.308 7.352L8.064 6.218C7.59733 6.05933 7.17733 5.84933 6.804 5.588C6.44 5.32667 6.132 5.03267 5.88 4.706C5.628 4.37 5.43667 4.01067 5.306 3.628C5.17533 3.24533 5.11 2.84867 5.11 2.438V1.08H3.654V2.326C3.654 2.78333 3.58867 3.23133 3.458 3.67C3.32733 4.09933 3.13133 4.50067 2.87 4.874C2.60867 5.24733 2.28667 5.57867 1.904 5.868C1.52133 6.15733 1.08267 6.386 0.588 6.554L1.358 7.702C2.086 7.43133 2.70667 7.03933 3.22 6.526C3.73333 6.01267 4.13 5.406 4.41 4.706C4.68067 5.30333 5.05867 5.83533 5.544 6.302C6.03867 6.75933 6.62667 7.10933 7.308 7.352ZM6.51 8.332C5.85667 8.332 5.26867 8.388 4.746 8.5C4.23267 8.60267 3.794 8.75667 3.43 8.962C3.066 9.158 2.786 9.40533 2.59 9.704C2.394 9.99333 2.296 10.3247 2.296 10.698C2.296 11.0713 2.394 11.4073 2.59 11.706C2.786 11.9953 3.066 12.2427 3.43 12.448C3.794 12.6533 4.23267 12.8073 4.746 12.91C5.26867 13.022 5.85667 13.078 6.51 13.078C7.17267 13.078 7.76067 13.022 8.274 12.91C8.79667 12.8073 9.24 12.6533 9.604 12.448C9.968 12.2427 10.2433 11.9953 10.43 11.706C10.626 11.4073 10.724 11.0713 10.724 10.698C10.724 9.95133 10.3507 9.37267 9.604 8.962C8.85733 8.542 7.826 8.332 6.51 8.332ZM6.51 11.944C5.60467 11.944 4.914 11.8413 4.438 11.636C3.962 11.4307 3.724 11.118 3.724 10.698C3.724 10.306 3.962 10.0027 4.438 9.788C4.914 9.57333 5.60467 9.466 6.51 9.466C7.41533 9.466 8.106 9.57333 8.582 9.788C9.058 10.0027 9.296 10.306 9.296 10.698C9.296 11.118 9.058 11.4307 8.582 11.636C8.106 11.8413 7.41533 11.944 6.51 11.944ZM20.3269 2.634V1.57H17.4569V0.379999H16.0009V1.57H13.1029V2.634H20.3269ZM24.5269 4.72H22.7909V0.422H21.3489V10.32H22.7909V5.91H24.5269V4.72ZM20.7889 8.402L20.6769 7.408C20.1636 7.48267 19.6362 7.54333 19.0949 7.59C18.5629 7.63667 18.0169 7.67867 17.4569 7.716V6.918C18.1569 6.834 18.7076 6.62867 19.1089 6.302C19.5196 5.966 19.7249 5.54133 19.7249 5.028C19.7249 4.412 19.4542 3.936 18.9129 3.6C18.3809 3.25467 17.6482 3.082 16.7149 3.082C15.7816 3.082 15.0442 3.25467 14.5029 3.6C13.9709 3.936 13.7049 4.412 13.7049 5.028C13.7049 5.56 13.9102 5.98933 14.3209 6.316C14.7316 6.63333 15.2916 6.834 16.0009 6.918V7.786C15.4129 7.80467 14.8482 7.81867 14.3069 7.828C13.7656 7.828 13.2569 7.828 12.7809 7.828L12.9489 8.976C13.4996 8.976 14.0922 8.97133 14.7269 8.962C15.3616 8.94333 16.0149 8.91533 16.6869 8.878C17.3682 8.83133 18.0542 8.77067 18.7449 8.696C19.4449 8.62133 20.1262 8.52333 20.7889 8.402ZM15.0629 5.028C15.0629 4.72933 15.2122 4.496 15.5109 4.328C15.8096 4.15067 16.2109 4.062 16.7149 4.062C17.2189 4.062 17.6202 4.15067 17.9189 4.328C18.2176 4.496 18.3669 4.72933 18.3669 5.028C18.3669 5.32667 18.2176 5.56 17.9189 5.728C17.6202 5.88667 17.2189 5.966 16.7149 5.966C16.2109 5.966 15.8096 5.88667 15.5109 5.728C15.2122 5.56 15.0629 5.32667 15.0629 5.028ZM16.0569 11.664V9.69H14.6149V12.84H23.2249V11.664H16.0569ZM36.7338 3.516H34.9418V0.436H33.4998V7.982H34.9418V4.706H36.7338V3.516ZM31.4698 7.114V1.234H30.0418V2.984H26.9478V1.234H25.5058V7.114H31.4698ZM30.0418 4.118V5.966H26.9478V4.118H30.0418ZM30.8678 8.276C30.2145 8.276 29.6265 8.332 29.1038 8.444C28.5905 8.556 28.1518 8.71467 27.7878 8.92C27.4238 9.12533 27.1438 9.37733 26.9478 9.676C26.7518 9.97467 26.6538 10.3107 26.6538 10.684C26.6538 11.0573 26.7518 11.3933 26.9478 11.692C27.1438 11.9907 27.4238 12.2427 27.7878 12.448C28.1518 12.6627 28.5905 12.8213 29.1038 12.924C29.6265 13.036 30.2145 13.092 30.8678 13.092C31.5211 13.092 32.1045 13.036 32.6178 12.924C33.1405 12.8213 33.5838 12.6627 33.9478 12.448C34.3118 12.2427 34.5918 11.9907 34.7878 11.692C34.9838 11.3933 35.0818 11.0573 35.0818 10.684C35.0818 10.3107 34.9838 9.97467 34.7878 9.676C34.5918 9.37733 34.3118 9.12533 33.9478 8.92C33.5838 8.71467 33.1405 8.556 32.6178 8.444C32.1045 8.332 31.5211 8.276 30.8678 8.276ZM30.8678 11.958C29.9625 11.958 29.2718 11.8507 28.7958 11.636C28.3198 11.4213 28.0818 11.104 28.0818 10.684C28.0818 10.264 28.3198 9.95133 28.7958 9.746C29.2718 9.53133 29.9625 9.424 30.8678 9.424C31.7731 9.424 32.4638 9.53133 32.9398 9.746C33.4158 9.95133 33.6538 10.264 33.6538 10.684C33.6538 11.104 33.4158 11.4213 32.9398 11.636C32.4638 11.8507 31.7731 11.958 30.8678 11.958ZM47.6667 0.422H46.2247V8.01H47.6667V0.422ZM44.2087 7.31L44.9227 6.176C44.4374 6.01733 44.0034 5.80267 43.6207 5.532C43.2381 5.26133 42.9161 4.95333 42.6547 4.608C42.3934 4.26267 42.1927 3.88933 42.0527 3.488C41.9221 3.08667 41.8567 2.67133 41.8567 2.242V1.01H40.3867V2.242C40.3867 2.68067 40.3167 3.11467 40.1767 3.544C40.0461 3.964 39.8454 4.36067 39.5747 4.734C39.3134 5.098 38.9867 5.42467 38.5947 5.714C38.2121 6.00333 37.7734 6.232 37.2787 6.4L37.9927 7.534C38.7487 7.27267 39.3881 6.88533 39.9107 6.372C40.4427 5.85867 40.8534 5.252 41.1427 4.552C41.4227 5.196 41.8194 5.756 42.3327 6.232C42.8554 6.69867 43.4807 7.058 44.2087 7.31ZM39.1407 8.612V9.774H46.2247V13.078H47.6667V8.612H39.1407Z" fill="black"/>
</svg>
