<svg width="41" height="16" viewBox="0 0 41 16" fill="none" xmlns="http://www.w3.org/2000/svg">
<path d="M14.112 5.632V4.544H11.984V0.848H10.672V9.536H11.984V5.632H14.112ZM8.448 8.608L9.136 7.584C7.088 6.896 5.664 5.072 5.664 3.152V1.568H4.352V3.04C4.352 5.2 2.96 7.2 0.784 7.968L1.472 9.008C3.152 8.368 4.432 7.056 5.024 5.376C5.664 6.848 6.896 8.032 8.448 8.608ZM7.424 9.936C4.496 9.936 2.688 10.896 2.688 12.56C2.688 14.224 4.496 15.168 7.424 15.168C10.32 15.168 12.144 14.224 12.144 12.56C12.144 10.896 10.32 9.936 7.424 9.936ZM7.424 14.144C5.296 14.144 4 13.584 4 12.56C4 11.536 5.296 10.96 7.424 10.96C9.552 10.96 10.832 11.536 10.832 12.56C10.832 13.584 9.552 14.144 7.424 14.144ZM15.9827 2.352H18.1427V5.36H16.0307V6.416H26.4468V5.36H24.3348V2.352H26.5108V1.296H15.9827V2.352ZM19.4548 2.352H23.0227V5.36H19.4548V2.352ZM21.9187 10.512V8.832H27.7428V7.776H14.7667V8.832H20.6068V10.512H16.3668V14.992H26.1588V10.512H21.9187ZM17.6467 11.552H24.8788V13.936H17.6467V11.552ZM29.3415 8.288H35.8855V7.056H39.1815V9.328H40.5095V0.848H39.1815V3.168H35.8855V1.92H29.3415V8.288ZM30.6375 2.976H34.6055V7.248H30.6375V2.976ZM35.8855 6V4.224H39.1815V6H35.8855ZM35.7575 9.76C32.8135 9.76 30.9895 10.736 30.9895 12.464C30.9895 14.176 32.8135 15.168 35.7575 15.168C38.7175 15.168 40.5415 14.176 40.5415 12.464C40.5415 10.736 38.7175 9.76 35.7575 9.76ZM35.7575 14.144C33.5655 14.144 32.3015 13.552 32.3015 12.464C32.3015 11.376 33.5655 10.784 35.7575 10.784C37.9495 10.784 39.2455 11.376 39.2455 12.464C39.2455 13.552 37.9495 14.144 35.7575 14.144Z" fill="black"/>
</svg>
