<svg width="74" height="14" viewBox="0 0 74 14" fill="none" xmlns="http://www.w3.org/2000/svg">
<path d="M10.41 13.036V0.478H9.304V5.518H7.526V0.758H6.448V12.406H7.526V6.456H9.304V13.036H10.41ZM1.324 8.99V2.942H4.866V2.004H0.19V9.942H1.016C2.878 9.942 4.18 9.9 5.664 9.564L5.566 8.612C4.208 8.906 2.99 8.99 1.324 8.99ZM12.5229 4.622L12.8589 5.49C14.9869 5.336 16.8209 4.678 17.6049 3.516C18.3889 4.678 20.2229 5.336 22.3229 5.49L22.6729 4.622C20.3349 4.468 18.4309 3.684 18.2489 2.452H22.1129V1.584H18.1789V0.393999H17.0309V1.584H13.0829V2.452H16.9609C16.7789 3.684 14.8329 4.468 12.5229 4.622ZM18.1789 8.094V6.932H23.2609V6.05H11.9349V6.932H17.0169V8.094H13.2789V8.948H20.6849V10.012H13.3209V12.896H22.1969V12.028H14.4409V10.838H21.8189V8.094H18.1789ZM34.4038 13.036V0.478H33.2558V13.036H34.4038ZM30.7218 1.836H24.8418V2.76H29.5598C29.3218 5.742 27.6418 8.15 24.2678 9.76L24.8838 10.698C29.0698 8.64 30.7218 5.462 30.7218 1.836ZM47.8847 5.252V4.3H46.0227V0.492H44.8747V9.662H46.0227V5.252H47.8847ZM42.6627 1.458H36.8107V2.396H41.4307C41.2067 4.608 39.2467 6.386 36.3067 7.31L36.7687 8.22C40.3947 7.1 42.6627 4.706 42.6627 1.458ZM46.5687 11.818H39.3447V8.724H38.1967V12.756H46.5687V11.818ZM57.3285 4.384H60.0725V9.872H61.2345V0.492H60.0725V3.432H57.3285V4.384ZM57.6225 7.786L58.2245 6.904C56.4325 6.232 55.1865 4.58 55.1865 2.83V1.234H54.0385V2.788C54.0385 4.692 52.7785 6.498 50.9025 7.17L51.5045 8.08C52.9745 7.478 54.0805 6.316 54.6265 4.804C55.1725 6.162 56.2225 7.24 57.6225 7.786ZM61.5285 12.756V11.818H54.3045V8.836H53.1565V12.756H61.5285ZM73.6654 8.094V0.492H72.5594V3.754H70.8794V0.715999H69.7874V8.01H70.8794V4.692H72.5594V8.094H73.6654ZM69.0594 7.086L68.9474 6.162C67.6454 6.428 66.5114 6.498 64.7194 6.498V4.79H68.3174V3.908H64.7194V2.326H68.4574V1.402H63.6134V7.436H64.4114C66.4274 7.436 67.6034 7.38 69.0594 7.086ZM73.6654 8.752H65.2234V9.676H72.5174V13.036H73.6654V8.752Z" fill="#111111"/>
</svg>
