<svg width="55" height="16" viewBox="0 0 55 16" fill="none" xmlns="http://www.w3.org/2000/svg">
<path d="M1.136 3.136H9.376V2.144H5.92V0.735999H4.608V2.144H1.136V3.136ZM11.968 6.272H14.08V5.184H11.968V0.848H10.656V10.464H11.968V6.272ZM9.904 9.488L9.808 8.544C8.528 8.736 7.264 8.832 5.92 8.896V7.904C7.584 7.728 8.608 6.96 8.608 5.792C8.608 4.448 7.264 3.664 5.264 3.664C3.216 3.664 1.904 4.448 1.904 5.792C1.904 7.008 2.944 7.728 4.608 7.904V8.944C3.2 8.992 1.936 8.992 0.784 8.992L0.928 10.048C3.44 10.048 6.832 10.048 9.904 9.488ZM3.152 5.792C3.152 5.04 3.968 4.576 5.264 4.576C6.544 4.576 7.36 5.04 7.36 5.792C7.36 6.544 6.544 7.024 5.264 7.024C3.968 7.024 3.152 6.544 3.152 5.792ZM11.968 11.184H2.528V12.224H10.656V15.184H11.968V11.184ZM25.2628 0.848V4.56H22.4307V5.632H25.2628V9.392H26.5908V0.848H25.2628ZM22.5747 8.848L23.2308 7.824C21.1508 7.104 19.7428 5.28 19.7428 3.44V2.944H22.8948V1.888H15.2307V2.944H18.4307V3.44C18.4307 5.488 16.9427 7.456 14.8147 8.224L15.5027 9.264C17.1827 8.624 18.4948 7.28 19.1188 5.616C19.7428 7.088 20.9748 8.272 22.5747 8.848ZM21.8548 9.84C18.9107 9.84 17.0707 10.8 17.0707 12.512C17.0707 14.224 18.9107 15.184 21.8548 15.184C24.7987 15.184 26.6228 14.224 26.6228 12.512C26.6228 10.8 24.7987 9.84 21.8548 9.84ZM21.8548 14.16C19.6628 14.16 18.3828 13.552 18.3828 12.512C18.3828 11.472 19.6628 10.848 21.8548 10.848C24.0468 10.848 25.3268 11.472 25.3268 12.512C25.3268 13.552 24.0468 14.16 21.8548 14.16ZM41.7095 7.936V6.88H39.6455C40.0295 5.072 40.0295 3.792 40.0295 2.656V1.6H30.3335V2.656H38.7335C38.7335 3.792 38.7175 5.088 38.3175 6.88H28.6695V7.936H41.7095ZM40.0775 9.888H30.2855V14.992H40.0775V9.888ZM38.7815 13.936H31.5655V10.944H38.7815V13.936ZM54.3802 15.2V0.815999H53.0682V15.2H54.3802ZM44.7482 10.64V7.296H50.0442V2.16H43.3882V3.232H48.7162V6.224H43.4362V11.728H44.6202C47.1002 11.728 49.2442 11.632 51.8522 11.2L51.7242 10.128C49.2282 10.512 47.1002 10.64 44.7482 10.64Z" fill="black"/>
</svg>
