<svg width="165" height="70" viewBox="0 0 165 70" fill="none" xmlns="http://www.w3.org/2000/svg">
<path d="M21.346 3.498H18.798V12.78H16.016V3.992H13.494V25.832H16.016V14.964H18.798V26.976H21.346V3.498ZM4.732 19.202V8.49H10.79V6.306H2.106V21.412H3.666C4.498 21.412 5.278 21.4033 6.006 21.386C6.734 21.3687 7.436 21.3427 8.112 21.308C8.80533 21.256 9.48133 21.1867 10.14 21.1C10.816 21.0133 11.5093 20.9007 12.22 20.762L11.986 18.552C10.7727 18.7947 9.594 18.9593 8.45 19.046C7.32333 19.1327 6.084 19.1847 4.732 19.202ZM24.932 10.882L25.712 12.884C27.8093 12.7453 29.612 12.39 31.12 11.818C32.6453 11.246 33.7806 10.466 34.526 9.478C35.2713 10.466 36.4066 11.246 37.932 11.818C39.4746 12.39 41.2946 12.7453 43.392 12.884L44.12 10.882C41.7453 10.7433 39.882 10.3793 38.53 9.79C37.178 9.18333 36.372 8.412 36.112 7.476H43.054V5.474H35.878V3.42H33.2V5.474H26.05V7.476H32.966C32.706 8.412 31.9 9.18333 30.548 9.79C29.196 10.3793 27.324 10.7433 24.932 10.882ZM35.878 15.744H45.16V13.742H23.97V15.744H33.2V17.564H26.44V19.54H39.882V21.178H26.492V26.794H43.184V24.792H29.144V23.024H42.508V17.564H35.878V15.744ZM65.9059 20.71V3.55H63.2279V20.71H65.9059ZM59.4059 17.018L60.7839 14.886C59.8826 14.574 59.0766 14.158 58.3659 13.638C57.6726 13.1007 57.0833 12.494 56.5979 11.818C56.1126 11.1247 55.7399 10.388 55.4799 9.608C55.2373 8.81067 55.1159 7.996 55.1159 7.164V4.824H52.3859V7.164C52.3859 8.03067 52.2559 8.88 51.9959 9.712C51.7533 10.5267 51.3893 11.2893 50.9039 12C50.4186 12.7107 49.8119 13.352 49.0839 13.924C48.3733 14.496 47.5586 14.9553 46.6399 15.302L48.0179 17.46C49.4219 16.94 50.6006 16.1773 51.5539 15.172C52.5073 14.1493 53.2526 12.9793 53.7899 11.662C54.2926 12.91 55.0119 13.9933 55.9479 14.912C56.9013 15.8133 58.0539 16.5153 59.4059 17.018ZM66.5819 24.376H53.2699V19.098H50.5659V26.56H66.5819V24.376ZM81.9199 16.836L83.1679 14.782C82.2666 14.522 81.4606 14.1753 80.7499 13.742C80.0566 13.3087 79.4586 12.8147 78.9559 12.26C78.4706 11.7053 78.0979 11.116 77.8379 10.492C77.5779 9.85067 77.4479 9.192 77.4479 8.516V8.308H82.3879V6.176H77.4739V3.394H74.7699V6.176H69.8299V8.308H74.7699V8.516C74.7699 9.244 74.6399 9.96333 74.3799 10.674C74.1372 11.3673 73.7732 12.0173 73.2879 12.624C72.8199 13.2133 72.2306 13.7507 71.5199 14.236C70.8266 14.704 70.0292 15.0767 69.1279 15.354L70.4279 17.434C71.8319 17.0007 73.0106 16.3507 73.9639 15.484C74.9346 14.6173 75.6799 13.586 76.1999 12.39C76.7372 13.43 77.4826 14.34 78.4359 15.12C79.4066 15.8827 80.5679 16.4547 81.9199 16.836ZM85.9499 9.998H81.7119V12.208H85.9499V17.72H88.6279V3.498H85.9499V9.998ZM80.8019 18.24C78.3406 18.24 76.4079 18.6213 75.0039 19.384C73.5999 20.1293 72.8979 21.204 72.8979 22.608C72.8979 23.3013 73.0799 23.9253 73.4439 24.48C73.8079 25.0173 74.3279 25.468 75.0039 25.832C75.6799 26.2133 76.5032 26.4993 77.4739 26.69C78.4619 26.898 79.5712 27.002 80.8019 27.002C82.0326 27.002 83.1332 26.898 84.1039 26.69C85.0919 26.4993 85.9239 26.2133 86.5999 25.832C87.2932 25.468 87.8219 25.0173 88.1859 24.48C88.5499 23.9253 88.7319 23.3013 88.7319 22.608C88.7319 21.9147 88.5499 21.2993 88.1859 20.762C87.8219 20.2247 87.2932 19.774 86.5999 19.41C85.9239 19.0287 85.0919 18.7427 84.1039 18.552C83.1332 18.344 82.0326 18.24 80.8019 18.24ZM80.8019 24.922C79.1206 24.922 77.8292 24.7227 76.9279 24.324C76.0266 23.9253 75.5759 23.3533 75.5759 22.608C75.5759 21.8627 76.0266 21.2993 76.9279 20.918C77.8292 20.5193 79.1206 20.32 80.8019 20.32C82.4832 20.32 83.7746 20.5193 84.6759 20.918C85.5946 21.2993 86.0539 21.8627 86.0539 22.608C86.0539 23.3533 85.5946 23.9253 84.6759 24.324C83.7746 24.7227 82.4832 24.922 80.8019 24.922ZM97.2223 15.224L98.3403 17.356C100.264 16.9747 101.98 16.264 103.488 15.224C104.996 14.184 106.14 12.9013 106.92 11.376C107.7 12.9013 108.844 14.1753 110.352 15.198C111.878 16.2033 113.637 16.8967 115.63 17.278L116.722 15.146C115.561 14.9553 114.469 14.6347 113.446 14.184C112.424 13.716 111.531 13.1527 110.768 12.494C110.023 11.818 109.425 11.0727 108.974 10.258C108.541 9.44333 108.324 8.594 108.324 7.71V7.658H115.786V5.5H98.0543V7.658H105.516V7.71C105.516 8.594 105.3 9.452 104.866 10.284C104.433 11.0987 103.835 11.844 103.072 12.52C102.327 13.196 101.452 13.768 100.446 14.236C99.441 14.704 98.3663 15.0333 97.2223 15.224ZM117.58 21.932H108.298V16.446H105.594V21.932H96.3123V24.116H117.58V21.932ZM135.7 10.57H131.072V12.78H135.7V20.814H138.378V3.524H135.7V10.57ZM131.202 5.318H120.438V7.502H128.316C128.195 8.438 127.892 9.33933 127.406 10.206C126.938 11.0727 126.314 11.8787 125.534 12.624C124.754 13.3693 123.827 14.0453 122.752 14.652C121.695 15.2413 120.516 15.744 119.216 16.16L120.386 18.292C122.05 17.7373 123.55 17.044 124.884 16.212C126.219 15.3627 127.354 14.392 128.29 13.3C129.226 12.208 129.946 10.9947 130.448 9.66C130.951 8.32533 131.202 6.878 131.202 5.318ZM138.976 24.376H126.002V19.072H123.324V26.56H138.976V24.376ZM152.156 11.974C154.86 11.974 156.932 11.6273 158.37 10.934C159.809 10.2407 160.528 9.244 160.528 7.944C160.528 6.62667 159.809 5.62133 158.37 4.928C156.932 4.23467 154.86 3.888 152.156 3.888C149.435 3.888 147.355 4.23467 145.916 4.928C144.495 5.62133 143.784 6.62667 143.784 7.944C143.784 9.244 144.495 10.2407 145.916 10.934C147.355 11.6273 149.435 11.974 152.156 11.974ZM152.156 5.89C153.994 5.89 155.38 6.06333 156.316 6.41C157.27 6.75667 157.746 7.268 157.746 7.944C157.746 8.60267 157.27 9.10533 156.316 9.452C155.38 9.79867 153.994 9.972 152.156 9.972C150.319 9.972 148.924 9.79867 147.97 9.452C147.034 9.10533 146.566 8.60267 146.566 7.944C146.566 7.268 147.034 6.75667 147.97 6.41C148.924 6.06333 150.319 5.89 152.156 5.89ZM162.79 13.352H141.522V15.484H162.79V13.352ZM146.748 24.74V22.79H160.112V17.174H144.044V19.202H157.486V20.892H144.096V26.794H160.788V24.74H146.748Z" fill="black"/>
<path d="M20.254 53.108V40.732H18.876V53.108H20.254ZM7.956 41.928C4.55 41.928 2.132 44.034 2.132 47.154C2.132 50.274 4.55 52.38 7.956 52.38C11.414 52.38 13.832 50.274 13.832 47.154C13.832 44.034 11.414 41.928 7.956 41.928ZM7.956 43.098C10.582 43.098 12.506 44.788 12.506 47.154C12.506 49.52 10.582 51.21 7.956 51.21C5.356 51.21 3.458 49.52 3.458 47.154C3.458 44.788 5.356 43.098 7.956 43.098ZM7.046 57.554V54.33H5.668V63.456H20.254V54.33H18.902V57.554H7.046ZM18.902 62.312H7.046V58.698H18.902V62.312ZM42.898 54.902V40.732H41.52V44.294H36.528V45.464H41.52V48.974H36.528V50.144H41.52V54.902H42.898ZM36.658 53.03L36.502 51.86C33.668 52.354 31.38 52.432 26.726 52.432H26.466V48.22H34.89V42.136H25.036V43.306H33.538V47.102H25.114V53.602H26.726C31.458 53.602 33.746 53.524 36.658 53.03ZM42.898 56.254H27.662V57.424H41.52V63.872H42.898V56.254ZM66.0879 63.82V40.732H64.7359V50.664H61.0699V41.304H59.7179V62.598H61.0699V51.834H64.7359V63.82H66.0879ZM58.3659 44.97H53.1919V41.434H51.8139V44.97H46.6659V46.14H58.3659V44.97ZM52.4899 47.986C49.6819 47.986 47.6019 50.092 47.6019 53.108C47.6019 56.15 49.6819 58.256 52.4899 58.256C55.3499 58.256 57.4039 56.15 57.4039 53.108C57.4039 50.092 55.3499 47.986 52.4899 47.986ZM52.4899 57.06C50.3839 57.06 48.8499 55.344 48.8499 53.108C48.8499 50.924 50.3839 49.156 52.4899 49.156C54.6479 49.156 56.1559 50.924 56.1559 53.108C56.1559 55.344 54.6479 57.06 52.4899 57.06ZM70.6879 50.664L71.2339 51.808C74.4839 51.184 78.3839 49.078 79.7619 46.114C81.0619 49.078 85.0659 51.184 88.2639 51.808L88.8099 50.664C85.3779 50.118 80.4899 47.414 80.4899 43.982V43.462H88.1339V42.292H71.3379V43.462H79.0079V43.982C79.0079 47.388 74.1199 50.118 70.6879 50.664ZM80.4119 55.266H90.1879L90.2139 54.122H69.3099V55.266H79.0339V63.768H80.4119V55.266ZM111.454 63.82V40.732H110.128V63.82H111.454ZM106.722 41.304H105.396V49.312H101.054V50.482H105.396V62.598H106.722V41.304ZM98.4279 47.7V42.994H97.1279V47.726C97.1279 51.678 94.8139 55.838 91.7719 57.58L92.6819 58.62C95.0739 57.164 96.9719 54.382 97.8039 51.054C98.6359 54.096 100.456 56.748 102.744 58.126L103.628 57.06C100.638 55.318 98.4279 51.314 98.4279 47.7ZM135.502 60.7V59.53H130.016V52.874C132.018 51.86 133.24 50.248 133.24 48.168C133.24 44.632 129.834 42.396 124.972 42.396C120.162 42.396 116.73 44.632 116.73 48.168C116.73 50.248 117.926 51.886 120.006 52.9V59.53H114.546V60.7H135.502ZM118.03 48.168C118.03 45.386 120.994 43.514 124.972 43.514C129.002 43.514 131.94 45.386 131.94 48.168C131.94 50.898 129.002 52.796 124.972 52.796C120.994 52.796 118.03 50.898 118.03 48.168ZM128.638 59.53H121.384V53.42C122.45 53.732 123.646 53.914 124.972 53.914C126.324 53.914 127.572 53.732 128.638 53.42V59.53Z" fill="black"/>
</svg>
