<svg width="71" height="16" viewBox="0 0 71 16" fill="none" xmlns="http://www.w3.org/2000/svg">
<path d="M12.7196 0.768H11.0556V15.264H12.7196V0.768ZM1.27963 7.696L2.03163 8.976C2.89563 8.72 3.63163 8.336 4.23962 7.824C4.84763 7.312 5.30629 6.704 5.61563 6C5.93563 6.672 6.39429 7.25333 6.99163 7.744C7.59963 8.224 8.33563 8.58667 9.19963 8.832L9.93563 7.552C8.86896 7.25333 8.02629 6.77867 7.40763 6.128C6.79963 5.47733 6.47429 4.736 6.43163 3.904H9.58363V2.576H6.43163V0.895999H4.78363V2.576H1.64763V3.904H4.76763C4.72496 4.768 4.40496 5.54133 3.80763 6.224C3.22096 6.90667 2.37829 7.39733 1.27963 7.696ZM6.43163 10.912V8.512H4.78363V10.992C4.07963 11.0133 3.39696 11.0293 2.73563 11.04C2.08496 11.04 1.47163 11.04 0.895625 11.04L1.10363 12.4C1.74363 12.4 2.43163 12.3947 3.16763 12.384C3.91429 12.3733 4.68229 12.352 5.47163 12.32C6.26096 12.2773 7.06096 12.2133 7.87163 12.128C8.69296 12.032 9.50363 11.904 10.3036 11.744L10.1756 10.544C9.56763 10.64 8.94896 10.72 8.31963 10.784C7.70096 10.8373 7.07163 10.88 6.43163 10.912ZM27.8704 0.768H26.3024V6.48H24.5904V1.072H23.0384V14.512H24.5904V7.824H26.3024V15.216H27.8704V0.768ZM17.6464 10.432V3.84H21.3744V2.496H16.0304V11.792H16.9904C17.5024 11.792 17.9824 11.7867 18.4304 11.776C18.8784 11.7653 19.3104 11.7493 19.7264 11.728C20.153 11.696 20.569 11.6533 20.9744 11.6C21.3904 11.5467 21.817 11.4773 22.2544 11.392L22.1104 10.032C21.3637 10.1813 20.6384 10.2827 19.9344 10.336C19.241 10.3893 18.4784 10.4213 17.6464 10.432Z" fill="black"/>
<path d="M38.0553 1.84C36.9566 1.84 36.0339 2.13333 35.2873 2.72C34.5513 3.30667 34.0873 4.21333 33.8953 5.44L35.9913 5.792C36.0019 5.632 36.0126 5.488 36.0233 5.36C36.0446 5.232 36.0766 5.10933 36.1193 4.992C36.2473 4.64 36.4659 4.336 36.7753 4.08C37.0846 3.81333 37.4633 3.68 37.9113 3.68C38.4339 3.68 38.8446 3.824 39.1433 4.112C39.4526 4.38933 39.6073 4.80533 39.6073 5.36C39.6073 5.97867 39.4313 6.54933 39.0793 7.072C38.7273 7.59467 38.2473 8.16 37.6393 8.768L33.6233 12.72V14H41.9593V11.984H38.1193C37.9379 11.984 37.7459 11.9947 37.5433 12.016C37.3513 12.0267 37.1486 12.0587 36.9353 12.112L39.4153 9.616C39.7139 9.30667 40.0019 8.98667 40.2793 8.656C40.5673 8.32533 40.8233 7.984 41.0473 7.632C41.2713 7.28 41.4526 6.912 41.5913 6.528C41.7406 6.13333 41.8206 5.728 41.8313 5.312C41.8313 4.8 41.7353 4.33067 41.5433 3.904C41.3619 3.47733 41.1059 3.11467 40.7753 2.816C40.4446 2.50667 40.0446 2.26667 39.5753 2.096C39.1166 1.92533 38.6099 1.84 38.0553 1.84ZM55.5705 9.376V0.639999H53.4585V4.208H51.1225C51.0265 3.792 50.8612 3.41333 50.6265 3.072C50.3918 2.73067 50.1038 2.43733 49.7625 2.192C49.4318 1.94667 49.0585 1.75467 48.6425 1.616C48.2265 1.47733 47.7838 1.408 47.3145 1.408C46.7705 1.408 46.2638 1.49867 45.7945 1.68C45.3252 1.86133 44.9145 2.11733 44.5625 2.448C44.2105 2.768 43.9332 3.152 43.7305 3.6C43.5385 4.03733 43.4425 4.52267 43.4425 5.056C43.4425 5.58933 43.5385 6.08 43.7305 6.528C43.9332 6.976 44.2105 7.36533 44.5625 7.696C44.9145 8.016 45.3252 8.26667 45.7945 8.448C46.2638 8.62933 46.7705 8.72 47.3145 8.72C47.7838 8.72 48.2265 8.656 48.6425 8.528C49.0692 8.38933 49.4478 8.19733 49.7785 7.952C50.1198 7.696 50.4025 7.39733 50.6265 7.056C50.8612 6.704 51.0265 6.32 51.1225 5.904H53.4585V9.376H55.5705ZM47.3145 6.912C46.7705 6.912 46.3225 6.752 45.9705 6.432C45.6292 6.10133 45.4585 5.64267 45.4585 5.056C45.4585 4.46933 45.6292 4.016 45.9705 3.696C46.3225 3.376 46.7705 3.216 47.3145 3.216C47.8585 3.216 48.3065 3.376 48.6585 3.696C49.0212 4.016 49.2025 4.46933 49.2025 5.056C49.2025 5.64267 49.0212 6.10133 48.6585 6.432C48.3065 6.752 47.8585 6.912 47.3145 6.912ZM55.5705 10.032H45.5385V11.696H53.4585V15.392H55.5705V10.032ZM68.2573 0.639999V9.2H65.4893V10.64H68.2573V11.808H70.3693V0.639999H68.2573ZM62.6573 6.4C63.1906 6.4 63.6813 6.336 64.1293 6.208C64.5773 6.08 64.9613 5.904 65.2812 5.68C65.6119 5.44533 65.8679 5.168 66.0493 4.848C66.2306 4.528 66.3212 4.17067 66.3212 3.776C66.3212 3.38133 66.2306 3.024 66.0493 2.704C65.8679 2.37333 65.6119 2.096 65.2812 1.872C64.9613 1.63733 64.5773 1.456 64.1293 1.328C63.6813 1.2 63.1906 1.136 62.6573 1.136C62.1133 1.136 61.6173 1.2 61.1693 1.328C60.7213 1.456 60.3319 1.63733 60.0013 1.872C59.6813 2.096 59.4306 2.37333 59.2493 2.704C59.0679 3.024 58.9773 3.38133 58.9773 3.776C58.9773 4.17067 59.0679 4.528 59.2493 4.848C59.4306 5.168 59.6813 5.44533 60.0013 5.68C60.3319 5.904 60.7213 6.08 61.1693 6.208C61.6173 6.336 62.1133 6.4 62.6573 6.4ZM62.6573 2.672C63.1479 2.672 63.5479 2.768 63.8573 2.96C64.1666 3.14133 64.3213 3.41333 64.3213 3.776C64.3213 4.13867 64.1666 4.41067 63.8573 4.592C63.5479 4.77333 63.1479 4.864 62.6573 4.864C62.1453 4.864 61.7346 4.77333 61.4253 4.592C61.1266 4.41067 60.9773 4.13867 60.9773 3.776C60.9773 3.41333 61.1266 3.14133 61.4253 2.96C61.7346 2.768 62.1453 2.672 62.6573 2.672ZM70.6893 15.12V13.44H61.8733V11.424H63.9053V8.64C64.5133 8.59733 65.1053 8.544 65.6813 8.48C66.2679 8.416 66.8493 8.33067 67.4253 8.224L67.2812 6.72C66.5026 6.816 65.7026 6.896 64.8813 6.96C64.0599 7.01333 63.2439 7.056 62.4333 7.088C61.6226 7.12 60.8333 7.14133 60.0653 7.152C59.2973 7.16267 58.5773 7.168 57.9053 7.168L58.1773 8.848C58.7319 8.848 59.3133 8.84267 59.9213 8.832C60.5293 8.82133 61.1586 8.8 61.8093 8.768V10.736H59.7613V15.12H70.6893Z" fill="#D71921"/>
</svg>
