<svg width="36" height="36" viewBox="0 0 36 36" fill="none" xmlns="http://www.w3.org/2000/svg">
<path d="M11.5 17C12.3284 17 13 17.6716 13 18.5C13 19.3284 12.3284 20 11.5 20C10.6716 20 10 19.3284 10 18.5C10 17.6716 10.6716 17 11.5 17Z" fill="black"/>
<path d="M18.5 17C19.3284 17 20 17.6716 20 18.5C20 19.3284 19.3284 20 18.5 20C17.6716 20 17 19.3284 17 18.5C17 17.6716 17.6716 17 18.5 17Z" fill="black"/>
<path d="M25.5 17C26.3284 17 27 17.6716 27 18.5C27 19.3284 26.3284 20 25.5 20C24.6716 20 24 19.3284 24 18.5C24 17.6716 24.6716 17 25.5 17Z" fill="black"/>
</svg>
