<svg width="234" height="70" viewBox="0 0 234 70" fill="none" xmlns="http://www.w3.org/2000/svg">
<rect width="42" height="17" rx="8.5" fill="#706258"/>
<path d="M8.56 7.76H14.62V4.27H8.56V7.76ZM9.36 4.93H13.81V7.11H9.36V4.93ZM11.98 9.65H15.66V8.98H7.52V9.65H11.16V12.73H11.98V9.65ZM25.0192 6.77V6.09H23.6892V3.78H22.8692V9.21H23.6892V6.77H25.0192ZM21.4792 8.63L21.9092 7.99C20.6292 7.56 19.7392 6.42 19.7392 5.22V4.23H18.9192V5.15C18.9192 6.5 18.0492 7.75 16.6892 8.23L17.1192 8.88C18.1692 8.48 18.9692 7.66 19.3392 6.61C19.7392 7.53 20.5092 8.27 21.4792 8.63ZM20.8392 9.46C19.0092 9.46 17.8792 10.06 17.8792 11.1C17.8792 12.14 19.0092 12.73 20.8392 12.73C22.6492 12.73 23.7892 12.14 23.7892 11.1C23.7892 10.06 22.6492 9.46 20.8392 9.46ZM20.8392 12.09C19.5092 12.09 18.6992 11.74 18.6992 11.1C18.6992 10.46 19.5092 10.1 20.8392 10.1C22.1692 10.1 22.9692 10.46 22.9692 11.1C22.9692 11.74 22.1692 12.09 20.8392 12.09ZM32.8884 6.64H34.2184V5.96H32.8884V3.76H32.0684V8.85H32.8884V6.64ZM31.2084 8.03L31.1184 7.37C29.9484 7.61 28.9284 7.67 27.1584 7.67V5.03H30.2884V4.37H26.3384V8.35H27.0384C28.9284 8.35 29.9784 8.27 31.2084 8.03ZM32.8884 9.33H27.2584V12.61H32.8884V9.33ZM32.0784 11.95H28.0584V9.98H32.0784V11.95Z" fill="white"/>
<rect x="46.5" y="0.5" width="41" height="16" rx="8" fill="white"/>
<path d="M54.56 7.76H60.62V4.27H54.56V7.76ZM55.36 4.93H59.81V7.11H55.36V4.93ZM57.98 9.65H61.66V8.98H53.52V9.65H57.16V12.73H57.98V9.65ZM70.1192 12.75V3.77H69.2992V6.81H67.2192V7.48H69.2992V12.75H70.1192ZM65.8692 6.15V4.54H65.0492V6.15C65.0492 7.8 64.0292 9.55 62.7292 10.19L63.2292 10.84C64.2392 10.31 65.0592 9.17 65.4592 7.84C65.8692 9.09 66.7092 10.17 67.7092 10.68L68.1892 10.03C66.8892 9.42 65.8692 7.77 65.8692 6.15ZM72.8884 4.78H78.2484V5.81H72.9184V8.19H79.2784V7.53H73.7384V6.43H79.0784V4.12H72.8884V4.78ZM77.9384 9.78H80.0584V9.12H71.9184V9.78H74.0384V12.75H74.8584V9.78H77.1184V12.75H77.9384V9.78Z" fill="#706258"/>
<rect x="46.5" y="0.5" width="41" height="16" rx="8" stroke="#706258"/>
<path d="M15.9 41.7V28.5H13.84V41.7H15.9ZM10.9 38.86L11.96 37.22C11.2667 36.98 10.6467 36.66 10.1 36.26C9.56667 35.8467 9.11333 35.38 8.74 34.86C8.36667 34.3267 8.08 33.76 7.88 33.16C7.69333 32.5467 7.6 31.92 7.6 31.28V29.48H5.5V31.28C5.5 31.9467 5.4 32.6 5.2 33.24C5.01333 33.8667 4.73333 34.4533 4.36 35C3.98667 35.5467 3.52 36.04 2.96 36.48C2.41333 36.92 1.78667 37.2733 1.08 37.54L2.14 39.2C3.22 38.8 4.12667 38.2133 4.86 37.44C5.59333 36.6533 6.16667 35.7533 6.58 34.74C6.96667 35.7 7.52 36.5333 8.24 37.24C8.97333 37.9333 9.86 38.4733 10.9 38.86ZM16.42 44.52H6.18V40.46H4.1V46.2H16.42V44.52ZM35.2184 37.42V35.72H32.3984V28.46H30.3384V46.54H32.3984V37.42H35.2184ZM24.6584 34.22V33.18H28.4784V31.52H24.6584V28.84H22.5984V31.52H18.7184V33.18H22.5984V34.22C22.5984 34.9533 22.4918 35.6867 22.2784 36.42C22.0784 37.1533 21.7851 37.8467 21.3984 38.5C21.0251 39.14 20.5651 39.7267 20.0184 40.26C19.4718 40.78 18.8518 41.2067 18.1584 41.54L19.2984 43.12C20.3384 42.64 21.2251 41.9333 21.9584 41C22.6918 40.0667 23.2584 39.0133 23.6584 37.84C24.0318 38.9333 24.5651 39.92 25.2584 40.8C25.9651 41.6667 26.8051 42.3333 27.7784 42.8L28.9184 41.22C28.2518 40.9 27.6518 40.4867 27.1184 39.98C26.5984 39.46 26.1518 38.8933 25.7784 38.28C25.4184 37.6533 25.1384 36.9933 24.9384 36.3C24.7518 35.6067 24.6584 34.9133 24.6584 34.22ZM55.6295 39V37.3H53.1095C53.3362 36.02 53.4695 34.8933 53.5095 33.92C53.5495 32.9333 53.5695 32.0133 53.5695 31.16V29.58H41.2495V31.24H51.5495C51.5495 32.0667 51.5295 32.9733 51.4895 33.96C51.4495 34.9333 51.2962 36.0467 51.0295 37.3H39.2895V39H46.3495V46.54H48.4295V39H55.6295ZM72.108 28.48H70.148V35.52H68.088V28.82H66.148V45.68H68.088V37.2H70.148V46.52H72.108V28.48ZM57.288 30.46V41.84H64.248V30.46H57.288ZM59.208 40.2V32.1H62.328V40.2H59.208Z" fill="black"/>
<path d="M9.324 67.84V57.184H8.688V67.84H9.324ZM4.284 60.664V58.864H6.972V58.312H1.02V58.864H3.66V60.664C3.66 62.536 2.088 64.54 0.72 65.248L1.116 65.764C2.292 65.128 3.504 63.676 3.972 62.068C4.452 63.604 5.7 64.924 6.888 65.5L7.272 64.996C5.832 64.36 4.284 62.512 4.284 60.664ZM20.7831 62.32V61.78H19.1511C19.4751 60.376 19.4631 59.392 19.4631 58.528V57.784H12.3711V58.324H18.8511V58.528C18.8511 59.38 18.8511 60.352 18.5151 61.78H11.1111V62.32H20.7831ZM19.5591 63.964H12.3351V67.672H19.5591V63.964ZM18.9351 67.132H12.9591V64.492H18.9351V67.132ZM31.7223 62.164H33.5943V61.624H31.7223V57.172H31.0863V67.84H31.7223V62.164ZM26.9703 60.292V58.156H26.3583V60.292C26.3583 62.212 24.9183 64.264 23.5143 64.996L23.9103 65.512C25.0863 64.84 26.2023 63.412 26.6823 61.756C27.1623 63.292 28.2783 64.672 29.4423 65.284L29.8383 64.792C28.4343 64.084 26.9703 62.152 26.9703 60.292ZM35.1053 58.888H41.7653V59.428C41.7653 60.712 41.7653 62.176 41.3813 64.156L42.0293 64.252C42.4133 62.164 42.4013 60.712 42.4013 59.428V58.36H35.1053V58.888ZM43.6973 66.208V65.668H38.6333V61.768H38.0093V65.668H34.0613V66.208H43.6973ZM54.5886 63.124H55.2246V57.196H54.5886V63.124ZM52.6326 62.644L52.9446 62.14C51.4446 61.624 50.1246 60.22 50.1246 58.636V57.592H49.5006V58.636C49.5006 60.328 48.1926 61.768 46.6926 62.344L47.0286 62.848C48.2766 62.368 49.3806 61.3 49.8246 59.932C50.3046 61.228 51.3726 62.164 52.6326 62.644ZM55.4166 67.672V67.132H53.7126V64.384H55.2966V63.856H48.2526V64.384H49.8486V67.132H48.1686V67.672H55.4166ZM53.0886 67.132H50.4846V64.384H53.0886V67.132ZM61.8116 61.732C64.0796 61.732 65.4956 60.964 65.4956 59.644C65.4956 58.324 64.0796 57.568 61.8116 57.568C59.5436 57.568 58.1276 58.324 58.1276 59.644C58.1276 60.964 59.5436 61.732 61.8116 61.732ZM61.8116 58.084C63.6356 58.084 64.8476 58.684 64.8476 59.644C64.8476 60.604 63.6356 61.204 61.8116 61.204C59.9876 61.204 58.7756 60.604 58.7756 59.644C58.7756 58.684 59.9876 58.084 61.8116 58.084ZM66.6236 63.424V62.884H56.9876V63.424H66.6236ZM65.5796 67.036H58.9196V64.492H58.2836V67.576H65.5796V67.036ZM78.4748 67.84V57.172H77.8628V61.648H76.0148V57.436H75.4028V67.264H76.0148V62.212H77.8628V67.84H78.4748ZM70.7228 64.408V58.528H70.0868V64.984H70.7228C71.9228 64.984 73.1228 64.912 74.6228 64.612L74.5388 64.048C73.0868 64.348 71.8748 64.408 70.7228 64.408ZM90.0981 62.248H91.9701V61.696H90.0981V57.184H89.4621V67.84H90.0981V62.248ZM85.3701 60.7V59.632H87.8781V59.092H85.3701V57.34H84.7341V59.092H82.2021V59.632H84.7461V60.7C84.7461 62.68 83.4141 64.504 81.9501 65.236L82.3221 65.728C83.5221 65.092 84.6261 63.772 85.0701 62.176C85.4541 63.532 86.4261 64.864 87.6861 65.524L88.0701 65.02C86.6301 64.312 85.3701 62.536 85.3701 60.7ZM93.7571 58.096H93.0371L93.1451 64.984H93.6611L93.7571 58.096ZM93.7451 66.388H93.0491V67.156H93.7451V66.388ZM96.4618 58.096H95.7418L95.8498 64.984H96.3658L96.4618 58.096ZM96.4498 66.388H95.7538V67.156H96.4498V66.388ZM107.722 61.12V60.568H106.042V57.184H105.406V65.08H106.042V61.12H107.722ZM103.198 58.024H98.3265V58.564H102.514C102.358 60.688 100.51 62.344 97.9185 63.208L98.1945 63.736C101.17 62.74 103.198 60.7 103.198 58.024ZM106.582 67.036H100.186V64.264H99.5505V67.576H106.582V67.036ZM114.25 61.804H116.326V65.164H116.962V57.172H116.326V59.284H114.25V59.824H116.326V61.276H114.25V61.804ZM114.718 62.992L114.682 62.5C114.154 62.584 113.602 62.62 113.038 62.656V58.636H114.238V58.096H108.634V58.636H109.81V62.764C109.282 62.776 108.79 62.776 108.322 62.776L108.418 63.34C110.194 63.34 112.606 63.316 114.718 62.992ZM110.434 62.752V58.636H112.414V62.68C111.742 62.728 111.106 62.74 110.434 62.752ZM117.274 67.576V67.036H110.914V64.468H110.278V67.576H117.274ZM126.825 62.236H128.697V61.696H126.825V57.172H126.189V67.828H126.825V62.236ZM124.989 58.948H122.193V57.28H121.557V58.948H118.653V59.488H124.989V58.948ZM121.893 60.544C120.405 60.544 119.361 61.552 119.361 62.944C119.361 64.348 120.405 65.332 121.893 65.332C123.381 65.332 124.425 64.348 124.425 62.944C124.425 61.552 123.381 60.544 121.893 60.544ZM121.893 64.792C120.777 64.792 119.961 63.988 119.961 62.944C119.961 61.888 120.777 61.096 121.893 61.096C123.009 61.096 123.825 61.888 123.825 62.944C123.825 63.988 123.009 64.792 121.893 64.792ZM138.152 67.84V57.184H137.54V67.84H138.152ZM135.932 57.484H135.32V61.696H133.052C133.472 60.7 133.688 59.668 133.688 58.588H129.62V59.128H133.064C132.92 61.444 131.672 63.556 129.236 65.008L129.644 65.488C131.132 64.576 132.128 63.472 132.8 62.224H135.32V67.252H135.932V57.484ZM142.191 62.992H146.943V62.008H149.703V64.984H150.339V57.184H149.703V59.188H146.943V58.144H142.191V62.992ZM142.803 58.672H146.319V62.464H142.803V58.672ZM146.943 61.456V59.728H149.703V61.456H146.943ZM150.603 67.576V67.036H144.255V64.3H143.619V67.576H150.603ZM160.778 67.828V57.172H160.142V61.816H158.174V62.356H160.142V67.828H160.778ZM152.066 59.488H158.414V58.948H155.582V57.28H154.946V58.948H152.066V59.488ZM155.258 60.544C153.854 60.544 152.798 61.552 152.798 62.944C152.798 64.348 153.854 65.332 155.258 65.332C156.686 65.332 157.718 64.348 157.718 62.944C157.718 61.552 156.686 60.544 155.258 60.544ZM155.258 64.78C154.166 64.78 153.386 64 153.386 62.944C153.386 61.9 154.166 61.096 155.258 61.096C156.314 61.096 157.13 61.9 157.13 62.944C157.13 64 156.314 64.78 155.258 64.78ZM163.153 61.036L163.393 61.552C164.965 61.324 166.789 60.52 167.365 59.272C167.941 60.52 169.753 61.324 171.325 61.552L171.565 61.036C169.909 60.808 167.737 59.86 167.737 58.42V58.288H171.301V57.76H163.429V58.288H166.993V58.42C166.993 59.86 164.821 60.808 163.153 61.036ZM172.165 62.884V62.344H162.529V62.884H172.165ZM167.365 64C165.109 64 163.729 64.696 163.729 65.908C163.729 67.144 165.097 67.804 167.365 67.804C169.621 67.804 170.977 67.144 170.977 65.908C170.977 64.696 169.621 64 167.365 64ZM167.365 67.288C165.529 67.288 164.365 66.772 164.365 65.908C164.365 65.044 165.529 64.528 167.365 64.528C169.177 64.528 170.341 65.044 170.341 65.908C170.341 66.772 169.177 67.288 167.365 67.288ZM182.856 61.06V60.52H181.188V57.16H180.552V65.008H181.188V61.06H182.856ZM173.496 62.98H178.284V58.18H173.496V62.98ZM174.12 58.708H177.672V62.452H174.12V58.708ZM181.716 67.036H175.32V64.276H174.684V67.576H181.716V67.036ZM193.507 63.304H194.143V57.184H193.507V63.304ZM188.467 62.728C190.063 62.728 191.179 61.744 191.179 60.292C191.179 58.816 190.063 57.844 188.467 57.844C186.895 57.844 185.779 58.816 185.779 60.292C185.779 61.744 186.895 62.728 188.467 62.728ZM188.467 58.384C189.679 58.384 190.567 59.188 190.567 60.292C190.567 61.384 189.679 62.188 188.467 62.188C187.267 62.188 186.391 61.384 186.391 60.292C186.391 59.188 187.267 58.384 188.467 58.384ZM192.883 64.492V63.784H192.271V64.492C192.271 65.332 191.659 66.508 190.579 67.144C189.487 66.568 188.911 65.5 188.911 64.492V63.784H188.299V64.492C188.299 65.512 187.375 66.688 186.067 67.204L186.391 67.696C187.447 67.276 188.203 66.508 188.587 65.596C188.875 66.52 189.535 67.36 190.591 67.78C191.599 67.312 192.247 66.448 192.571 65.572C192.943 66.496 193.699 67.276 194.803 67.696L195.127 67.204C193.795 66.724 192.883 65.608 192.883 64.492ZM200.718 57.94C198.522 57.94 196.914 59.08 196.914 60.796C196.914 62.524 198.522 63.652 200.718 63.652C202.914 63.652 204.534 62.524 204.534 60.796C204.534 59.08 202.914 57.94 200.718 57.94ZM200.718 58.468C202.554 58.468 203.946 59.44 203.946 60.796C203.946 62.164 202.554 63.136 200.718 63.136C198.894 63.136 197.502 62.164 197.502 60.796C197.502 59.44 198.894 58.468 200.718 58.468ZM205.578 66.352V65.812H195.906V66.352H205.578ZM206.885 62.992H211.637V62.008H214.397V64.984H215.033V57.184H214.397V59.188H211.637V58.144H206.885V62.992ZM207.497 58.672H211.013V62.464H207.497V58.672ZM211.637 61.456V59.728H214.397V61.456H211.637ZM215.297 67.576V67.036H208.949V64.3H208.313V67.576H215.297ZM222.517 67.156C224.653 67.156 226.153 65.392 226.153 62.596C226.153 59.824 224.653 58.096 222.517 58.096C220.405 58.096 218.893 59.824 218.893 62.596C218.893 65.392 220.405 67.156 222.517 67.156ZM222.517 66.508C220.789 66.508 219.649 64.972 219.649 62.596C219.649 60.232 220.789 58.744 222.517 58.744C224.245 58.744 225.409 60.232 225.409 62.596C225.409 64.972 224.245 66.508 222.517 66.508ZM228.272 58.252H227.552V67H228.272V64.048L229.988 62.068L232.82 67H233.648L230.468 61.504L233.252 58.252H232.4L228.296 63.004H228.272V58.252Z" fill="black"/>
</svg>
