<svg width="177" height="70" viewBox="0 0 177 70" fill="none" xmlns="http://www.w3.org/2000/svg">
<rect width="42" height="17" rx="8.5" fill="#706258"/>
<path d="M8.56 7.76H14.62V4.27H8.56V7.76ZM9.36 4.93H13.81V7.11H9.36V4.93ZM11.98 9.65H15.66V8.98H7.52V9.65H11.16V12.73H11.98V9.65ZM25.0192 6.77V6.09H23.6892V3.78H22.8692V9.21H23.6892V6.77H25.0192ZM21.4792 8.63L21.9092 7.99C20.6292 7.56 19.7392 6.42 19.7392 5.22V4.23H18.9192V5.15C18.9192 6.5 18.0492 7.75 16.6892 8.23L17.1192 8.88C18.1692 8.48 18.9692 7.66 19.3392 6.61C19.7392 7.53 20.5092 8.27 21.4792 8.63ZM20.8392 9.46C19.0092 9.46 17.8792 10.06 17.8792 11.1C17.8792 12.14 19.0092 12.73 20.8392 12.73C22.6492 12.73 23.7892 12.14 23.7892 11.1C23.7892 10.06 22.6492 9.46 20.8392 9.46ZM20.8392 12.09C19.5092 12.09 18.6992 11.74 18.6992 11.1C18.6992 10.46 19.5092 10.1 20.8392 10.1C22.1692 10.1 22.9692 10.46 22.9692 11.1C22.9692 11.74 22.1692 12.09 20.8392 12.09ZM32.8884 6.64H34.2184V5.96H32.8884V3.76H32.0684V8.85H32.8884V6.64ZM31.2084 8.03L31.1184 7.37C29.9484 7.61 28.9284 7.67 27.1584 7.67V5.03H30.2884V4.37H26.3384V8.35H27.0384C28.9284 8.35 29.9784 8.27 31.2084 8.03ZM32.8884 9.33H27.2584V12.61H32.8884V9.33ZM32.0784 11.95H28.0584V9.98H32.0784V11.95Z" fill="white"/>
<rect x="46.5" y="0.5" width="41" height="16" rx="8" fill="white"/>
<path d="M54.56 7.76H60.62V4.27H54.56V7.76ZM55.36 4.93H59.81V7.11H55.36V4.93ZM57.98 9.65H61.66V8.98H53.52V9.65H57.16V12.73H57.98V9.65ZM70.1192 12.75V3.77H69.2992V6.81H67.2192V7.48H69.2992V12.75H70.1192ZM65.8692 6.15V4.54H65.0492V6.15C65.0492 7.8 64.0292 9.55 62.7292 10.19L63.2292 10.84C64.2392 10.31 65.0592 9.17 65.4592 7.84C65.8692 9.09 66.7092 10.17 67.7092 10.68L68.1892 10.03C66.8892 9.42 65.8692 7.77 65.8692 6.15ZM72.8884 4.78H78.2484V5.81H72.9184V8.19H79.2784V7.53H73.7384V6.43H79.0784V4.12H72.8884V4.78ZM77.9384 9.78H80.0584V9.12H71.9184V9.78H74.0384V12.75H74.8584V9.78H77.1184V12.75H77.9384V9.78Z" fill="#706258"/>
<rect x="46.5" y="0.5" width="41" height="16" rx="8" stroke="#706258"/>
<path d="M1.94 30.28V45H6.86C7.68667 45 8.44 44.9133 9.12 44.74C9.81333 44.5667 10.4067 44.3 10.9 43.94C11.4067 43.58 11.8 43.1333 12.08 42.6C12.36 42.0533 12.5 41.4133 12.5 40.68C12.5 39.68 12.2267 38.8933 11.68 38.32C11.1333 37.7467 10.44 37.3667 9.6 37.18V37.08C10.2667 36.8533 10.78 36.4467 11.14 35.86C11.5133 35.26 11.7 34.6067 11.7 33.9C11.7 33.2333 11.5667 32.6733 11.3 32.22C11.0467 31.7533 10.6867 31.38 10.22 31.1C9.76667 30.8067 9.22 30.6 8.58 30.48C7.95333 30.3467 7.26 30.28 6.5 30.28H1.94ZM6.24 36.42H4.26V32.08H6.3C7.34 32.08 8.12 32.24 8.64 32.56C9.16 32.88 9.42 33.4267 9.42 34.2C9.42 34.8933 9.16667 35.44 8.66 35.84C8.16667 36.2267 7.36 36.42 6.24 36.42ZM6.6 43.18H4.26V38.18H6.6C7.77333 38.18 8.66667 38.3667 9.28 38.74C9.90667 39.1133 10.22 39.72 10.22 40.56C10.22 41.48 9.90667 42.1467 9.28 42.56C8.66667 42.9733 7.77333 43.18 6.6 43.18ZM14.2798 30.28V45H16.4798V38.06C16.4798 37.26 16.4465 36.4467 16.3798 35.62C16.3132 34.7933 16.2465 34 16.1798 33.24H16.2798L17.8198 36.32L22.6998 45H25.0798V30.28H22.8798V37.14C22.8798 37.94 22.9132 38.7667 22.9798 39.62C23.0465 40.4733 23.1132 41.28 23.1798 42.04H23.0798L21.5398 38.92L16.6598 30.28H14.2798ZM27.9473 30.28V45H30.2673V40.56L32.5273 37.8L36.6873 45H39.2673L33.9473 35.96L38.5073 30.28H35.9273L30.3273 37.24H30.2673V30.28H27.9473ZM59.5817 37.12V35.42H56.7617V28.46H54.7017V46.56H56.7617V37.12H59.5817ZM45.5617 40.4V31.86H51.9017V30.18H43.5017V42.12H44.9817C45.7951 42.12 46.5617 42.1133 47.2817 42.1C48.0151 42.0733 48.7217 42.04 49.4017 42C50.0817 41.96 50.7484 41.9 51.4017 41.82C52.0684 41.74 52.7417 41.64 53.4217 41.52L53.2017 39.82C52.5751 39.9267 51.9617 40.02 51.3617 40.1C50.7617 40.1667 50.1484 40.2267 49.5217 40.28C48.9084 40.32 48.2751 40.3533 47.6217 40.38C46.9684 40.3933 46.2817 40.4 45.5617 40.4ZM75.0402 28.46H72.9602V46.58H75.0402V28.46ZM65.4202 29.8C64.7535 29.8 64.1335 29.9533 63.5602 30.26C63.0002 30.5533 62.5135 30.98 62.1002 31.54C61.6868 32.0867 61.3602 32.7533 61.1202 33.54C60.8935 34.3133 60.7802 35.1867 60.7802 36.16C60.7802 37.1333 60.8935 38.02 61.1202 38.82C61.3602 39.6067 61.6868 40.2733 62.1002 40.82C62.5135 41.3667 63.0002 41.7933 63.5602 42.1C64.1335 42.3933 64.7535 42.54 65.4202 42.54C66.1002 42.54 66.7202 42.3933 67.2802 42.1C67.8535 41.7933 68.3468 41.3667 68.7602 40.82C69.1735 40.2733 69.4935 39.6067 69.7202 38.82C69.9602 38.02 70.0802 37.1333 70.0802 36.16C70.0802 35.1867 69.9602 34.3133 69.7202 33.54C69.4935 32.7533 69.1735 32.0867 68.7602 31.54C68.3468 30.98 67.8535 30.5533 67.2802 30.26C66.7202 29.9533 66.1002 29.8 65.4202 29.8ZM65.4202 31.66C66.2202 31.66 66.8668 32.06 67.3602 32.86C67.8535 33.6467 68.1002 34.7467 68.1002 36.16C68.1002 37.6133 67.8535 38.7333 67.3602 39.52C66.8668 40.3067 66.2202 40.7 65.4202 40.7C64.6202 40.7 63.9735 40.3067 63.4802 39.52C63.0002 38.7333 62.7602 37.6133 62.7602 36.16C62.7602 34.7467 63.0002 33.6467 63.4802 32.86C63.9735 32.06 64.6202 31.66 65.4202 31.66ZM92.8586 28.48H90.8986V39.74H92.8586V28.48ZM87.3386 34.62V39.62H89.2786V28.82H87.3386V32.94H85.3586V34.62H87.3386ZM86.1786 38.5L85.9786 36.86C85.0586 37.0467 84.1519 37.1733 83.2586 37.24C82.3653 37.2933 81.3919 37.32 80.3386 37.32V35.08H84.6986V29.84H78.2986V31.46H82.6986V33.54H78.3386V38.98H79.5586C80.2119 38.98 80.8186 38.9733 81.3786 38.96C81.9519 38.9467 82.4986 38.92 83.0186 38.88C83.5519 38.84 84.0719 38.7933 84.5786 38.74C85.0986 38.6733 85.6319 38.5933 86.1786 38.5ZM80.6986 40.56V42.22H90.7986V46.56H92.8586V40.56H80.6986ZM109.517 39.68V38.02H99.097V35.54H108.977V33.92H99.097V31.6H109.377V29.94H96.997V39.68H109.517ZM111.357 42.64H94.977V44.32H111.357V42.64ZM128.735 38.66H121.575V36.94H127.035V35.36H116.455V33.68H126.675V28.98H114.395V30.56H124.635V32.2H114.435V36.94H119.515V38.66H112.335V40.32H128.735V38.66ZM116.515 44.84V41.4H114.455V46.5H127.075V44.84H116.515Z" fill="black"/>
<path d="M9.324 67.84V57.184H8.688V67.84H9.324ZM4.284 60.664V58.864H6.972V58.312H1.02V58.864H3.66V60.664C3.66 62.536 2.088 64.54 0.72 65.248L1.116 65.764C2.292 65.128 3.504 63.676 3.972 62.068C4.452 63.604 5.7 64.924 6.888 65.5L7.272 64.996C5.832 64.36 4.284 62.512 4.284 60.664ZM20.7831 62.32V61.78H19.1511C19.4751 60.376 19.4631 59.392 19.4631 58.528V57.784H12.3711V58.324H18.8511V58.528C18.8511 59.38 18.8511 60.352 18.5151 61.78H11.1111V62.32H20.7831ZM19.5591 63.964H12.3351V67.672H19.5591V63.964ZM18.9351 67.132H12.9591V64.492H18.9351V67.132ZM31.7223 62.08H33.5943V61.504H31.7223V57.184H31.0863V67.84H31.7223V62.08ZM28.9383 58.108H28.3143V61.06H24.7383V58.108H24.1023V65.224H28.9383V58.108ZM24.7383 61.588H28.3143V64.684H24.7383V61.588ZM43.7333 66.448V65.896H39.1853V63.652H42.7133V63.112H35.9453V61.06H42.4613V58.036H35.2853V58.564H41.8373V60.532H35.3213V63.652H38.5493V65.896H34.0493V66.448H43.7333ZM45.8204 58.096H45.1004L45.2084 64.984H45.7244L45.8204 58.096ZM45.8084 66.388H45.1124V67.156H45.8084V66.388ZM49.3012 59.128H55.6132V58.6H52.7812V57.196H52.1452V58.6H49.3012V59.128ZM59.1412 61.384V60.844H57.4732V57.196H56.8372V65.2H57.4732V61.384H59.1412ZM54.9652 61.792C54.9652 60.604 53.9572 59.836 52.4572 59.836C50.9452 59.836 49.9372 60.604 49.9372 61.792C49.9372 62.98 50.9452 63.736 52.4572 63.736C53.9572 63.736 54.9652 62.98 54.9652 61.792ZM50.5372 61.792C50.5372 60.928 51.3052 60.352 52.4572 60.352C53.6092 60.352 54.3652 60.928 54.3652 61.792C54.3652 62.62 53.5972 63.22 52.4572 63.22C51.3052 63.22 50.5372 62.62 50.5372 61.792ZM58.0012 67.036H51.6052V64.54H50.9692V67.576H58.0012V67.036ZM69.3643 66.412V65.872H64.8283V62.836H68.1883V62.296H61.6243V58.636H68.0803V58.096H60.9883V62.836H64.1923V65.872H59.6923V66.412H69.3643ZM70.6594 62.932L70.9474 63.436C72.3634 63.112 74.3194 61.996 74.9674 60.412C75.6394 61.984 77.5834 63.088 79.0234 63.412L79.2994 62.896C77.7754 62.656 75.2914 61.144 75.2914 59.32V58.792H78.9994V58.252H70.9354V58.792H74.6434V59.32C74.6434 61.156 72.1714 62.644 70.6594 62.932ZM79.8034 66.388V65.848H75.2914V63.124H74.6554V65.848H70.1434V66.388H79.8034ZM80.8944 59.092H87.3864V58.564H84.4584V57.16H83.8224V58.564H80.8944V59.092ZM89.1264 67.828V57.184H88.4904V67.828H89.1264ZM84.4704 65.008V63.712C85.8144 63.604 86.6424 62.884 86.6424 61.78C86.6424 60.58 85.6344 59.824 84.1344 59.824C82.6344 59.824 81.6384 60.58 81.6384 61.78C81.6384 62.896 82.4664 63.616 83.8224 63.712V65.032C82.6704 65.08 81.6024 65.092 80.6424 65.092L80.7504 65.644C82.7544 65.644 85.3944 65.608 87.7944 65.224L87.7464 64.744C86.6904 64.888 85.5744 64.96 84.4704 65.008ZM82.2384 61.78C82.2384 60.916 82.9824 60.34 84.1344 60.34C85.2744 60.34 86.0424 60.916 86.0424 61.78C86.0424 62.644 85.2864 63.22 84.1344 63.22C82.9824 63.22 82.2384 62.644 82.2384 61.78ZM92.2935 62.164H99.3975V57.616H98.7615V59.236H92.9295V57.616H92.2935V62.164ZM92.9295 59.764H98.7615V61.624H92.9295V59.764ZM96.1335 64.144H100.682V63.604H90.9975V64.144H95.4975V67.84H96.1335V64.144ZM110.137 67.852V57.172H109.501V61.348H107.053V61.9H109.501V67.852H110.137ZM102.745 64.648H102.589V61.756H106.357V61.216H102.589V58.744H106.873V58.192H101.953V65.188H102.745C104.917 65.188 106.177 65.116 107.689 64.828L107.629 64.288C106.117 64.576 104.917 64.648 102.745 64.648ZM122.948 67.828V57.184H122.324V61.564H120.488V57.448H119.876V67.252H120.488V62.104H122.324V67.828H122.948ZM115.04 64.516H115.016V59.056H118.364V58.504H114.392V65.068H115.052C116.816 65.068 117.848 65.02 119.096 64.732L119.012 64.18C117.8 64.468 116.78 64.516 115.04 64.516ZM124.987 60.928L125.191 61.432C126.823 61.276 128.599 60.664 129.211 59.5C129.823 60.664 131.599 61.276 133.231 61.432L133.435 60.928C131.695 60.772 129.607 60.076 129.547 58.684H133.015V58.168H129.535V57.076H128.899V58.168H125.431V58.684H128.875C128.815 60.076 126.727 60.772 124.987 60.928ZM129.523 63.736V62.56H134.023V62.044H124.399V62.56H128.887V63.736H125.599V64.228H132.127V65.392H125.623V67.684H133.099V67.168H126.247V65.884H132.751V63.736H129.523ZM142.866 65.032H143.502V57.196H142.866V65.032ZM140.838 63.22L141.174 62.716C139.698 62.14 138.402 60.604 138.402 58.888V57.784H137.778V58.888C137.778 60.676 136.53 62.284 135.03 62.92L135.39 63.436C136.638 62.872 137.67 61.744 138.102 60.292C138.546 61.648 139.59 62.704 140.838 63.22ZM143.862 67.576V67.036H137.442V64.324H136.806V67.576H143.862ZM151.217 63.136L151.517 62.644C150.041 62.164 148.733 60.904 148.733 59.464V59.116H151.241V58.576H148.745V57.112H148.109V58.576H145.577V59.116H148.109V59.464C148.109 61.024 146.849 62.404 145.373 62.92L145.697 63.412C146.945 62.944 148.001 61.972 148.445 60.688C148.913 61.852 149.981 62.716 151.217 63.136ZM153.317 57.184V60.34H150.905V60.88H153.317V63.64H153.953V57.184H153.317ZM150.509 63.976C148.301 63.976 147.017 64.648 147.017 65.896C147.017 67.108 148.301 67.804 150.509 67.804C152.681 67.804 154.001 67.108 154.001 65.896C154.001 64.66 152.681 63.976 150.509 63.976ZM150.509 67.288C148.781 67.288 147.653 66.76 147.653 65.896C147.653 65.032 148.781 64.504 150.509 64.504C152.249 64.504 153.377 65.032 153.377 65.896C153.377 66.76 152.249 67.288 150.509 67.288ZM164.02 62.248H165.736V61.696H164.02V57.172H163.384V67.84H164.02V62.248ZM158.944 58.36H156.04V58.9H158.356C158.26 60.988 157.468 63.28 155.776 64.972L156.304 65.332C158.236 63.304 158.944 60.688 158.944 58.36ZM161.836 58.36H159.28V58.9H161.236C161.176 61.024 160.612 63.76 158.824 65.716L159.376 66.064C161.392 63.724 161.836 60.616 161.836 58.36ZM174.795 67.84V57.184H174.159V67.84H174.795ZM169.755 60.664V58.864H172.443V58.312H166.491V58.864H169.131V60.664C169.131 62.536 167.559 64.54 166.191 65.248L166.587 65.764C167.763 65.128 168.975 63.676 169.443 62.068C169.923 63.604 171.171 64.924 172.359 65.5L172.743 64.996C171.303 64.36 169.755 62.512 169.755 60.664Z" fill="black"/>
</svg>
