<svg width="242" height="70" viewBox="0 0 242 70" fill="none" xmlns="http://www.w3.org/2000/svg">
<path d="M9.36 67.828V57.172H8.724V61.816H6.756V62.356H8.724V67.828H9.36ZM0.648 59.488H6.996V58.948H4.164V57.28H3.528V58.948H0.648V59.488ZM3.84 60.544C2.436 60.544 1.38 61.552 1.38 62.944C1.38 64.348 2.436 65.332 3.84 65.332C5.268 65.332 6.3 64.348 6.3 62.944C6.3 61.552 5.268 60.544 3.84 60.544ZM3.84 64.78C2.748 64.78 1.968 64 1.968 62.944C1.968 61.9 2.748 61.096 3.84 61.096C4.896 61.096 5.712 61.9 5.712 62.944C5.712 64 4.896 64.78 3.84 64.78ZM19.7391 67.852V57.196H19.1031V67.852H19.7391ZM14.6151 62.008C16.1871 62.008 17.2911 61.144 17.2911 59.86C17.2911 58.588 16.1871 57.724 14.6151 57.724C13.0431 57.724 11.9631 58.588 11.9631 59.86C11.9631 61.144 13.0431 62.008 14.6151 62.008ZM14.6151 58.264C15.8151 58.264 16.6791 58.948 16.6791 59.86C16.6791 60.784 15.8151 61.468 14.6151 61.468C13.4151 61.468 12.5751 60.784 12.5751 59.86C12.5751 58.948 13.4151 58.264 14.6151 58.264ZM18.3111 63.172L18.2631 62.668C15.8631 63.016 13.1031 63.064 11.0631 63.064L11.1711 63.628C12.1311 63.628 13.2111 63.616 14.3631 63.568V67.504H14.9991V63.532C16.1031 63.472 17.2071 63.352 18.3111 63.172ZM30.5621 67.84V57.184H29.9501V61.504H28.1741V57.448H27.5621V67.276H28.1741V62.044H29.9501V67.84H30.5621ZM25.9661 58.492H21.9941V64.864H25.9661V58.492ZM25.3661 64.336H22.5941V59.008H25.3661V64.336ZM33.2852 60.736H40.3652V57.556H33.2852V60.736ZM33.8972 58.072H39.7412V60.208H33.8972V58.072ZM37.1252 63.628V62.368H41.6252V61.84H31.9892V62.368H36.4892V63.628H33.2012V64.144H39.7292V65.332H33.2252V67.684H40.7012V67.156H33.8492V65.824H40.3532V63.628H37.1252ZM48.0082 60.364H50.4802V62.824H51.1162V57.184H50.4802V59.812H48.0082C47.8282 58.384 46.6762 57.7 45.3202 57.7C43.7362 57.7 42.6202 58.672 42.6202 60.112C42.6202 61.564 43.7362 62.524 45.3202 62.524C46.8082 62.524 47.8762 61.66 48.0082 60.364ZM45.3202 61.984C44.1082 61.984 43.2322 61.168 43.2322 60.112C43.2322 59.008 44.1082 58.228 45.3202 58.228C46.5322 58.228 47.4082 59.008 47.4082 60.112C47.4082 61.168 46.5322 61.984 45.3202 61.984ZM50.1922 64.324V63.376H49.5682V64.324C49.5682 65.464 48.8242 66.724 47.5402 67.264L47.8882 67.756C48.8962 67.288 49.5562 66.484 49.8802 65.524C50.2042 66.484 50.8642 67.312 51.8722 67.756L52.2202 67.264C50.9362 66.748 50.1922 65.464 50.1922 64.324ZM47.2522 63.436H46.6522V64.948H44.2882V63.436H43.6762V67.672H47.2522V63.436ZM44.2882 65.44H46.6522V67.144H44.2882V65.44ZM61.5193 67.84V57.184H60.8833V67.84H61.5193ZM55.9753 58.048C54.4033 58.048 53.3233 59.488 53.3233 61.708C53.3233 63.952 54.4033 65.368 55.9753 65.368C57.5233 65.368 58.6153 63.952 58.6153 61.708C58.6153 59.488 57.5233 58.048 55.9753 58.048ZM55.9753 58.612C57.1633 58.612 58.0033 59.884 58.0033 61.708C58.0033 63.532 57.1633 64.816 55.9753 64.816C54.7753 64.816 53.9353 63.532 53.9353 61.708C53.9353 59.884 54.7753 58.612 55.9753 58.612ZM75.2545 61.072V60.52H73.5865V57.172H72.9505V65.08H73.5865V61.072H75.2545ZM71.0665 60.544C71.0665 59.008 69.9145 57.964 68.3665 57.964C66.7945 57.964 65.6545 59.008 65.6545 60.544C65.6545 62.044 66.7945 63.124 68.3665 63.124C69.9145 63.124 71.0665 62.044 71.0665 60.544ZM66.2665 60.544C66.2665 59.404 67.1665 58.528 68.3665 58.528C69.5545 58.528 70.4425 59.404 70.4425 60.544C70.4425 61.708 69.5545 62.56 68.3665 62.56C67.1665 62.56 66.2665 61.708 66.2665 60.544ZM74.1145 67.036H67.7185V64.276H67.0825V67.576H74.1145V67.036ZM83.8576 57.184V60.232H81.4456V60.772H83.8576V65.032H84.4936V57.184H83.8576ZM81.6856 63.28L82.0096 62.764C80.5576 62.248 79.3216 60.88 79.3216 59.44V58.672H81.8176V58.132H76.1536V58.672H78.6976V59.452C78.6976 61.048 77.3896 62.5 75.9136 63.04L76.2496 63.556C77.5096 63.04 78.5776 62.02 79.0216 60.664C79.4656 61.852 80.4856 62.812 81.6856 63.28ZM84.8176 67.576V67.036H78.4696V64.312H77.8336V67.576H84.8176ZM94.3567 62.236H96.2287V61.696H94.3567V57.172H93.7207V67.828H94.3567V62.236ZM92.5207 58.948H89.7247V57.28H89.0887V58.948H86.1847V59.488H92.5207V58.948ZM89.4247 60.544C87.9367 60.544 86.8927 61.552 86.8927 62.944C86.8927 64.348 87.9367 65.332 89.4247 65.332C90.9127 65.332 91.9567 64.348 91.9567 62.944C91.9567 61.552 90.9127 60.544 89.4247 60.544ZM89.4247 64.792C88.3087 64.792 87.4927 63.988 87.4927 62.944C87.4927 61.888 88.3087 61.096 89.4247 61.096C90.5407 61.096 91.3567 61.888 91.3567 62.944C91.3567 63.988 90.5407 64.792 89.4247 64.792ZM105.684 67.84V57.184H105.072V67.84H105.684ZM103.464 57.484H102.852V61.696H100.584C101.004 60.7 101.22 59.668 101.22 58.588H97.1517V59.128H100.596C100.452 61.444 99.2037 63.556 96.7677 65.008L97.1757 65.488C98.6637 64.576 99.6597 63.472 100.332 62.224H102.852V67.252H103.464V57.484ZM114.319 63.052H118.819V62.512H117.151C117.451 60.964 117.463 59.836 117.463 58.828V57.916H110.455V58.444H116.839V58.828C116.839 59.824 116.839 60.964 116.491 62.512H109.183V63.052H113.683V67.852H114.319V63.052ZM128.634 67.84V57.184H128.022V61.504H126.246V57.448H125.634V67.276H126.246V62.044H128.022V67.84H128.634ZM124.038 58.492H120.066V64.864H124.038V58.492ZM123.438 64.336H120.666V59.008H123.438V64.336ZM130.109 58.768H136.421V58.252H133.589V57.04H132.953V58.252H130.109V58.768ZM139.949 60.412V59.86H138.281V57.124H137.645V63.088H138.281V60.412H139.949ZM135.773 61.132C135.773 60.028 134.765 59.38 133.265 59.38C131.741 59.38 130.745 60.028 130.745 61.132C130.745 62.236 131.729 62.884 133.265 62.884C134.789 62.884 135.773 62.236 135.773 61.132ZM131.345 61.132C131.345 60.364 132.113 59.872 133.265 59.872C134.417 59.872 135.173 60.364 135.173 61.132C135.173 61.9 134.417 62.392 133.265 62.392C132.113 62.392 131.345 61.9 131.345 61.132ZM138.713 67.168H132.317V65.884H138.281V63.7H131.669V64.216H137.657V65.38H131.693V67.684H138.713V67.168ZM151.368 61.924L151.632 61.396C150.036 61.144 147.72 59.872 147.72 58.252V57.592H147.06V58.252C147.06 59.92 144.768 61.144 143.136 61.396L143.412 61.924C144.9 61.636 146.76 60.7 147.396 59.296C148.044 60.688 149.892 61.636 151.368 61.924ZM147.684 63.844H152.196L152.208 63.304H142.56V63.844H147.048V67.828H147.684V63.844ZM163.099 63.304H163.735V57.184H163.099V63.304ZM158.059 62.728C159.655 62.728 160.771 61.744 160.771 60.292C160.771 58.816 159.655 57.844 158.059 57.844C156.487 57.844 155.371 58.816 155.371 60.292C155.371 61.744 156.487 62.728 158.059 62.728ZM158.059 58.384C159.271 58.384 160.159 59.188 160.159 60.292C160.159 61.384 159.271 62.188 158.059 62.188C156.859 62.188 155.983 61.384 155.983 60.292C155.983 59.188 156.859 58.384 158.059 58.384ZM162.475 64.492V63.784H161.863V64.492C161.863 65.332 161.251 66.508 160.171 67.144C159.079 66.568 158.503 65.5 158.503 64.492V63.784H157.891V64.492C157.891 65.512 156.967 66.688 155.659 67.204L155.983 67.696C157.039 67.276 157.795 66.508 158.179 65.596C158.467 66.52 159.127 67.36 160.183 67.78C161.191 67.312 161.839 66.448 162.163 65.572C162.535 66.496 163.291 67.276 164.395 67.696L164.719 67.204C163.387 66.724 162.475 65.608 162.475 64.492ZM166.867 61.12H174.031V60.58H167.503V57.568H166.867V61.12ZM175.171 63.28V62.74H165.499V63.28H175.171ZM174.091 67.024H167.455V64.48H166.819V67.564H174.091V67.024ZM181.01 58.252H178.598V67H181.19C183.158 67 184.454 66.136 184.454 64.444C184.454 63.244 183.734 62.536 182.582 62.344V62.284C183.458 62.008 183.926 61.288 183.926 60.376C183.926 58.9 182.774 58.252 181.01 58.252ZM180.782 62.068H179.318V58.84H180.854C182.402 58.84 183.206 59.272 183.206 60.46C183.206 61.456 182.51 62.068 180.782 62.068ZM181.022 66.4H179.318V62.644H181.022C182.762 62.644 183.746 63.196 183.746 64.444C183.746 65.8 182.714 66.4 181.022 66.4ZM186.441 58.252H185.697V67H186.381V61.756C186.381 60.88 186.321 60.088 186.285 59.224H186.345L187.329 60.976L190.893 67H191.637V58.252H190.953V63.436C190.953 64.3 191.001 65.164 191.049 66.028H190.989L190.017 64.264L186.441 58.252ZM194.301 58.252H193.581V67H194.301V64.048L196.017 62.068L198.849 67H199.677L196.497 61.504L199.281 58.252H198.429L194.325 63.004H194.301V58.252ZM209.53 66.4V65.86H204.994V63.364C207.058 63.268 208.486 62.248 208.486 60.676C208.486 59.032 206.914 57.976 204.67 57.976C202.45 57.976 200.866 59.032 200.866 60.676C200.866 62.248 202.294 63.268 204.358 63.364V65.86H199.858V66.4H209.53ZM201.466 60.676C201.466 59.392 202.834 58.492 204.67 58.492C206.53 58.492 207.886 59.392 207.886 60.676C207.886 61.96 206.53 62.86 204.67 62.86C202.834 62.86 201.466 61.96 201.466 60.676ZM219.969 66.424V65.884H215.433V63.4H218.817V62.872H212.253V60.964H218.481V60.436H212.253V58.66H218.709V58.12H211.605V63.4H214.797V65.884H210.297V66.424H219.969ZM230.42 66.4V65.86H225.872V63.004H229.172V58.12H221.948V63.004H225.236V65.86H220.736V66.4H230.42ZM228.56 62.488H222.56V58.636H228.56V62.488ZM239.287 62.116H241.159V61.576H239.287V57.184H238.651V67.84H239.287V62.116ZM234.007 58.048C232.471 58.048 231.403 59.488 231.403 61.708C231.403 63.952 232.471 65.368 234.007 65.368C235.543 65.368 236.611 63.952 236.611 61.708C236.611 59.488 235.543 58.048 234.007 58.048ZM234.007 64.816C232.831 64.816 232.003 63.532 232.003 61.708C232.003 59.884 232.831 58.612 234.007 58.612C235.183 58.612 236.011 59.884 236.011 61.708C236.011 63.532 235.183 64.816 234.007 64.816Z" fill="black"/>
<path d="M1.82 34.28L2.56 35.9C4.17333 35.7267 5.55333 35.3333 6.7 34.72C7.86 34.1067 8.68667 33.3333 9.18 32.4C9.42 32.8533 9.75333 33.28 10.18 33.68C10.6067 34.0667 11.1 34.4133 11.66 34.72C12.2333 35.0133 12.8667 35.2667 13.56 35.48C14.2667 35.68 15.0133 35.82 15.8 35.9L16.52 34.28C15.68 34.2 14.9133 34.0533 14.22 33.84C13.5267 33.6267 12.92 33.3733 12.4 33.08C11.88 32.7733 11.46 32.44 11.14 32.08C10.8333 31.7067 10.6467 31.32 10.58 30.92H15.86V29.26H2.52V30.92H7.76C7.69333 31.32 7.5 31.7067 7.18 32.08C6.87333 32.44 6.46 32.7733 5.94 33.08C5.42 33.3733 4.81333 33.6267 4.12 33.84C3.42667 34.0533 2.66 34.2 1.82 34.28ZM10.2 38.46H17.34V36.82H1V38.46H8.14V40.12C6.43333 40.2267 5.13333 40.5533 4.24 41.1C3.36 41.6333 2.92 42.38 2.92 43.34C2.92 44.38 3.45333 45.1733 4.52 45.72C5.6 46.2667 7.14 46.54 9.14 46.54C11.1533 46.54 12.6933 46.2667 13.76 45.72C14.8267 45.1733 15.36 44.38 15.36 43.34C15.36 42.38 14.92 41.6333 14.04 41.1C13.1733 40.5667 11.8933 40.2467 10.2 40.14V38.46ZM13.28 43.34C13.28 43.86 12.92 44.26 12.2 44.54C11.4933 44.82 10.4733 44.96 9.14 44.96C7.80667 44.96 6.78667 44.82 6.08 44.54C5.37333 44.26 5.02 43.86 5.02 43.34C5.02 42.78 5.37333 42.3667 6.08 42.1C6.78667 41.8333 7.80667 41.7 9.14 41.7C10.4733 41.7 11.4933 41.8333 12.2 42.1C12.92 42.3667 13.28 42.78 13.28 43.34ZM30.8984 31.84V31.94C30.8984 33.0067 30.8651 34.2067 30.7984 35.54C30.7451 36.8733 30.5451 38.4267 30.1984 40.2L32.2784 40.42C32.4518 39.4867 32.5851 38.6267 32.6784 37.84C32.7718 37.04 32.8384 36.3 32.8784 35.62C32.9318 34.9267 32.9584 34.28 32.9584 33.68C32.9718 33.08 32.9784 32.5 32.9784 31.94V30.16H20.1184V31.84H30.8984ZM34.7384 42.48H26.5784V36.12H24.4984V42.48H18.4184V44.18H34.7384V42.48ZM52.6169 37.42V35.72H49.7969V28.46H47.7369V46.54H49.7969V37.42H52.6169ZM42.0569 34.22V33.18H45.8769V31.52H42.0569V28.84H39.9969V31.52H36.1169V33.18H39.9969V34.22C39.9969 34.9533 39.8902 35.6867 39.6769 36.42C39.4769 37.1533 39.1835 37.8467 38.7969 38.5C38.4235 39.14 37.9635 39.7267 37.4169 40.26C36.8702 40.78 36.2502 41.2067 35.5569 41.54L36.6969 43.12C37.7369 42.64 38.6235 41.9333 39.3569 41C40.0902 40.0667 40.6569 39.0133 41.0569 37.84C41.4302 38.9333 41.9635 39.92 42.6569 40.8C43.3635 41.6667 44.2035 42.3333 45.1769 42.8L46.3169 41.22C45.6502 40.9 45.0502 40.4867 44.5169 39.98C43.9969 39.46 43.5502 38.8933 43.1769 38.28C42.8169 37.6533 42.5369 36.9933 42.3369 36.3C42.1502 35.6067 42.0569 34.9133 42.0569 34.22ZM73.028 39V37.3H70.508C70.7346 36.02 70.868 34.8933 70.908 33.92C70.948 32.9333 70.968 32.0133 70.968 31.16V29.58H58.648V31.24H68.948C68.948 32.0667 68.928 32.9733 68.888 33.96C68.848 34.9333 68.6946 36.0467 68.428 37.3H56.688V39H63.748V46.54H65.828V39H73.028ZM89.5064 28.48H87.5464V35.52H85.4864V28.82H83.5464V45.68H85.4864V37.2H87.5464V46.52H89.5064V28.48ZM74.6864 30.46V41.84H81.6464V30.46H74.6864ZM76.6064 40.2V32.1H79.7264V40.2H76.6064Z" fill="black"/>
<rect width="42" height="17" rx="8.5" fill="#706258"/>
<path d="M8.56 7.76H14.62V4.27H8.56V7.76ZM9.36 4.93H13.81V7.11H9.36V4.93ZM11.98 9.65H15.66V8.98H7.52V9.65H11.16V12.73H11.98V9.65ZM25.0192 6.77V6.09H23.6892V3.78H22.8692V9.21H23.6892V6.77H25.0192ZM21.4792 8.63L21.9092 7.99C20.6292 7.56 19.7392 6.42 19.7392 5.22V4.23H18.9192V5.15C18.9192 6.5 18.0492 7.75 16.6892 8.23L17.1192 8.88C18.1692 8.48 18.9692 7.66 19.3392 6.61C19.7392 7.53 20.5092 8.27 21.4792 8.63ZM20.8392 9.46C19.0092 9.46 17.8792 10.06 17.8792 11.1C17.8792 12.14 19.0092 12.73 20.8392 12.73C22.6492 12.73 23.7892 12.14 23.7892 11.1C23.7892 10.06 22.6492 9.46 20.8392 9.46ZM20.8392 12.09C19.5092 12.09 18.6992 11.74 18.6992 11.1C18.6992 10.46 19.5092 10.1 20.8392 10.1C22.1692 10.1 22.9692 10.46 22.9692 11.1C22.9692 11.74 22.1692 12.09 20.8392 12.09ZM32.8884 6.64H34.2184V5.96H32.8884V3.76H32.0684V8.85H32.8884V6.64ZM31.2084 8.03L31.1184 7.37C29.9484 7.61 28.9284 7.67 27.1584 7.67V5.03H30.2884V4.37H26.3384V8.35H27.0384C28.9284 8.35 29.9784 8.27 31.2084 8.03ZM32.8884 9.33H27.2584V12.61H32.8884V9.33ZM32.0784 11.95H28.0584V9.98H32.0784V11.95Z" fill="white"/>
<rect x="46.5" y="0.5" width="41" height="16" rx="8" fill="white"/>
<path d="M54.56 7.76H60.62V4.27H54.56V7.76ZM55.36 4.93H59.81V7.11H55.36V4.93ZM57.98 9.65H61.66V8.98H53.52V9.65H57.16V12.73H57.98V9.65ZM70.1192 12.75V3.77H69.2992V6.81H67.2192V7.48H69.2992V12.75H70.1192ZM65.8692 6.15V4.54H65.0492V6.15C65.0492 7.8 64.0292 9.55 62.7292 10.19L63.2292 10.84C64.2392 10.31 65.0592 9.17 65.4592 7.84C65.8692 9.09 66.7092 10.17 67.7092 10.68L68.1892 10.03C66.8892 9.42 65.8692 7.77 65.8692 6.15ZM72.8884 4.78H78.2484V5.81H72.9184V8.19H79.2784V7.53H73.7384V6.43H79.0784V4.12H72.8884V4.78ZM77.9384 9.78H80.0584V9.12H71.9184V9.78H74.0384V12.75H74.8584V9.78H77.1184V12.75H77.9384V9.78Z" fill="#706258"/>
<rect x="46.5" y="0.5" width="41" height="16" rx="8" stroke="#706258"/>
</svg>
