<svg width="108" height="52" viewBox="0 0 108 52" fill="none" xmlns="http://www.w3.org/2000/svg">
<path d="M13.3259 2.768H11.6619V17.264H13.3259V2.768ZM1.88587 9.696L2.63787 10.976C3.50187 10.72 4.23787 10.336 4.84587 9.824C5.45387 9.312 5.91254 8.704 6.22187 8C6.54187 8.672 7.00054 9.25333 7.59787 9.744C8.20587 10.224 8.94187 10.5867 9.80587 10.832L10.5419 9.552C9.47521 9.25333 8.63254 8.77867 8.01387 8.128C7.40587 7.47733 7.08054 6.736 7.03787 5.904H10.1899V4.576H7.03787V2.896H5.38987V4.576H2.25387V5.904H5.37387C5.33121 6.768 5.01121 7.54133 4.41387 8.224C3.82721 8.90667 2.98454 9.39733 1.88587 9.696ZM7.03787 12.912V10.512H5.38987V12.992C4.68587 13.0133 4.00321 13.0293 3.34187 13.04C2.69121 13.04 2.07787 13.04 1.50187 13.04L1.70987 14.4C2.34987 14.4 3.03787 14.3947 3.77387 14.384C4.52054 14.3733 5.28854 14.352 6.07787 14.32C6.86721 14.2773 7.66721 14.2133 8.47787 14.128C9.29921 14.032 10.1099 13.904 10.9099 13.744L10.7819 12.544C10.1739 12.64 9.55521 12.72 8.92587 12.784C8.30721 12.8373 7.67787 12.88 7.03787 12.912ZM27.6766 2.768H26.1086V8.48H24.3966V3.072H22.8446V16.512H24.3966V9.824H26.1086V17.216H27.6766V2.768ZM17.4526 12.432V5.84H21.1806V4.496H15.8366V13.792H16.7966C17.3086 13.792 17.7886 13.7867 18.2366 13.776C18.6846 13.7653 19.1166 13.7493 19.5326 13.728C19.9593 13.696 20.3753 13.6533 20.7806 13.6C21.1966 13.5467 21.6233 13.4773 22.0606 13.392L21.9166 12.032C21.17 12.1813 20.4446 12.2827 19.7406 12.336C19.0473 12.3893 18.2846 12.4213 17.4526 12.432Z" fill="black"/>
<path d="M37.7655 14.224V4.032H35.8775L32.4215 7.008L33.6855 8.448L35.6375 6.672L35.5735 7.712V14.224H33.2375V16H39.8295V14.224H37.7655ZM52.9767 11.376V2.64H50.8647V6.208H48.5287C48.4327 5.792 48.2674 5.41333 48.0327 5.072C47.7981 4.73067 47.5101 4.43733 47.1687 4.192C46.8381 3.94667 46.4647 3.75467 46.0487 3.616C45.6327 3.47733 45.1901 3.408 44.7207 3.408C44.1767 3.408 43.6701 3.49867 43.2007 3.68C42.7314 3.86133 42.3207 4.11733 41.9687 4.448C41.6167 4.768 41.3394 5.152 41.1367 5.6C40.9447 6.03733 40.8487 6.52267 40.8487 7.056C40.8487 7.58933 40.9447 8.08 41.1367 8.528C41.3394 8.976 41.6167 9.36533 41.9687 9.696C42.3207 10.016 42.7314 10.2667 43.2007 10.448C43.6701 10.6293 44.1767 10.72 44.7207 10.72C45.1901 10.72 45.6327 10.656 46.0487 10.528C46.4754 10.3893 46.8541 10.1973 47.1847 9.952C47.5261 9.696 47.8087 9.39733 48.0327 9.056C48.2674 8.704 48.4327 8.32 48.5287 7.904H50.8647V11.376H52.9767ZM44.7207 8.912C44.1767 8.912 43.7287 8.752 43.3767 8.432C43.0354 8.10133 42.8647 7.64267 42.8647 7.056C42.8647 6.46933 43.0354 6.016 43.3767 5.696C43.7287 5.376 44.1767 5.216 44.7207 5.216C45.2647 5.216 45.7127 5.376 46.0647 5.696C46.4274 6.016 46.6087 6.46933 46.6087 7.056C46.6087 7.64267 46.4274 8.10133 46.0647 8.432C45.7127 8.752 45.2647 8.912 44.7207 8.912ZM52.9767 12.032H42.9447V13.696H50.8647V17.392H52.9767V12.032ZM60.6485 6H65.1445V4.032H59.0965C59.0112 4.544 58.8832 5.28533 58.7125 6.256C58.5525 7.216 58.3498 8.46933 58.1045 10.016L59.4485 10.416C59.7365 10.3093 60.0245 10.2293 60.3125 10.176C60.6005 10.112 60.8938 10.0693 61.1925 10.048C61.9285 10.0267 62.4832 10.1973 62.8565 10.56C63.2298 10.9227 63.4165 11.424 63.4165 12.064C63.4165 12.768 63.2245 13.3333 62.8405 13.76C62.4565 14.176 61.8965 14.384 61.1605 14.384C60.6485 14.384 60.1792 14.2667 59.7525 14.032C59.3258 13.7973 58.9258 13.5253 58.5525 13.216L57.4325 14.848C57.8378 15.232 58.3552 15.568 58.9845 15.856C59.6138 16.144 60.2965 16.288 61.0325 16.288C61.6725 16.288 62.2698 16.1867 62.8245 15.984C63.3792 15.7707 63.8592 15.4773 64.2645 15.104C64.6698 14.72 64.9845 14.2613 65.2085 13.728C65.4432 13.1947 65.5605 12.608 65.5605 11.968C65.5605 11.4347 65.4752 10.944 65.3045 10.496C65.1338 10.0373 64.8832 9.64267 64.5525 9.312C64.2218 8.97067 63.8112 8.704 63.3205 8.512C62.8298 8.32 62.2645 8.224 61.6245 8.224C61.4112 8.224 61.1872 8.23467 60.9525 8.256C60.7285 8.26667 60.4938 8.29333 60.2485 8.336L60.6485 6ZM76.3397 2.64V6.944H73.9877V8.64H76.3397V13.552H78.4517V2.64H76.3397ZM73.9717 11.824L74.9797 10.176C74.3824 9.99467 73.8651 9.76 73.4277 9.472C73.0011 9.17333 72.6437 8.848 72.3557 8.496C72.0784 8.13333 71.8704 7.74933 71.7317 7.344C71.6037 6.928 71.5397 6.512 71.5397 6.096V6.032H74.4517V4.384H71.5397V2.752H69.4277V4.384H66.5477V6.032H69.4277V6.096C69.4277 6.544 69.3584 6.98667 69.2197 7.424C69.0917 7.85067 68.8891 8.256 68.6117 8.64C68.3451 9.024 67.9984 9.37067 67.5717 9.68C67.1451 9.97867 66.6331 10.224 66.0357 10.416L67.0597 12.064C67.8917 11.7973 68.5957 11.4133 69.1717 10.912C69.7477 10.4 70.1957 9.792 70.5157 9.088C70.8571 9.728 71.3104 10.2827 71.8757 10.752C72.4411 11.2213 73.1397 11.5787 73.9717 11.824ZM78.7877 17.12V15.44H70.8517V12.64H68.7397V17.12H78.7877ZM93.6025 8.624V6.896H91.6505V2.64H89.5385V13.392H91.6505V8.624H93.6025ZM80.4825 10.96H87.5065V3.856H80.4825V10.96ZM82.5465 5.52H85.4265V9.296H82.5465V5.52ZM92.1785 15.44H84.2585V12.336H82.1465V17.12H92.1785V15.44ZM104.257 2.64V11.2H101.489V12.64H104.257V13.808H106.369V2.64H104.257ZM98.6573 8.4C99.1906 8.4 99.6813 8.336 100.129 8.208C100.577 8.08 100.961 7.904 101.281 7.68C101.612 7.44533 101.868 7.168 102.049 6.848C102.231 6.528 102.321 6.17067 102.321 5.776C102.321 5.38133 102.231 5.024 102.049 4.704C101.868 4.37333 101.612 4.096 101.281 3.872C100.961 3.63733 100.577 3.456 100.129 3.328C99.6813 3.2 99.1906 3.136 98.6573 3.136C98.1133 3.136 97.6173 3.2 97.1693 3.328C96.7213 3.456 96.3319 3.63733 96.0013 3.872C95.6813 4.096 95.4306 4.37333 95.2493 4.704C95.0679 5.024 94.9773 5.38133 94.9773 5.776C94.9773 6.17067 95.0679 6.528 95.2493 6.848C95.4306 7.168 95.6813 7.44533 96.0013 7.68C96.3319 7.904 96.7213 8.08 97.1693 8.208C97.6173 8.336 98.1133 8.4 98.6573 8.4ZM98.6573 4.672C99.1479 4.672 99.5479 4.768 99.8573 4.96C100.167 5.14133 100.321 5.41333 100.321 5.776C100.321 6.13867 100.167 6.41067 99.8573 6.592C99.5479 6.77333 99.1479 6.864 98.6573 6.864C98.1453 6.864 97.7346 6.77333 97.4253 6.592C97.1266 6.41067 96.9773 6.13867 96.9773 5.776C96.9773 5.41333 97.1266 5.14133 97.4253 4.96C97.7346 4.768 98.1453 4.672 98.6573 4.672ZM106.689 17.12V15.44H97.8733V13.424H99.9053V10.64C100.513 10.5973 101.105 10.544 101.681 10.48C102.268 10.416 102.849 10.3307 103.425 10.224L103.281 8.72C102.503 8.816 101.703 8.896 100.881 8.96C100.06 9.01333 99.2439 9.056 98.4333 9.088C97.6226 9.12 96.8333 9.14133 96.0653 9.152C95.2973 9.16267 94.5773 9.168 93.9053 9.168L94.1773 10.848C94.7319 10.848 95.3133 10.8427 95.9213 10.832C96.5293 10.8213 97.1586 10.8 97.8093 10.768V12.736H95.7613V17.12H106.689Z" fill="#D71921"/>
<path d="M63.5078 41.76H66.9798V45.424H68.6278V34.8H66.9798V36.928H63.5078C63.1664 36.544 62.7504 36.24 62.2598 36.016C61.7798 35.792 61.2358 35.68 60.6278 35.68C60.0944 35.68 59.5931 35.7707 59.1238 35.952C58.6651 36.1333 58.2651 36.3893 57.9238 36.72C57.5931 37.04 57.3318 37.424 57.1398 37.872C56.9478 38.32 56.8518 38.8107 56.8518 39.344C56.8518 39.8773 56.9478 40.368 57.1398 40.816C57.3318 41.264 57.5931 41.6533 57.9238 41.984C58.2651 42.304 58.6651 42.5547 59.1238 42.736C59.5931 42.9173 60.0944 43.008 60.6278 43.008C61.2358 43.0187 61.7798 42.912 62.2598 42.688C62.7504 42.464 63.1664 42.1547 63.5078 41.76ZM58.4198 39.344C58.4198 39.0133 58.4731 38.7147 58.5798 38.448C58.6971 38.1707 58.8518 37.936 59.0438 37.744C59.2464 37.552 59.4811 37.4027 59.7478 37.296C60.0144 37.1893 60.3078 37.136 60.6278 37.136C60.9371 37.136 61.2251 37.1893 61.4918 37.296C61.7584 37.4027 61.9878 37.552 62.1798 37.744C62.3718 37.936 62.5211 38.1707 62.6278 38.448C62.7451 38.7147 62.8038 39.0133 62.8038 39.344C62.8038 39.6747 62.7451 39.9787 62.6278 40.256C62.5211 40.5333 62.3718 40.7733 62.1798 40.976C61.9878 41.168 61.7584 41.3173 61.4918 41.424C61.2251 41.5307 60.9371 41.584 60.6278 41.584C60.3078 41.584 60.0144 41.5307 59.7478 41.424C59.4811 41.3173 59.2464 41.168 59.0438 40.976C58.8518 40.7733 58.6971 40.5333 58.5798 40.256C58.4731 39.9787 58.4198 39.6747 58.4198 39.344ZM64.2118 38.272H66.9798V40.416H64.2118C64.3184 40.16 64.3718 39.8027 64.3718 39.344C64.3718 38.8853 64.3184 38.528 64.2118 38.272ZM68.9958 47.616H60.9158V44.352H59.2678V48.96H68.9958V47.616Z" fill="black"/>
<path d="M77.3406 48.304C77.97 48.304 78.546 48.2187 79.0686 48.048C79.5913 47.888 80.0393 47.6587 80.4126 47.36C80.786 47.0507 81.074 46.6773 81.2766 46.24C81.49 45.792 81.5966 45.2907 81.5966 44.736C81.5966 44.0533 81.4366 43.456 81.1166 42.944C80.7966 42.432 80.2846 42.0373 79.5806 41.76C80.1033 41.4933 80.5033 41.1307 80.7806 40.672C81.0686 40.2133 81.2126 39.696 81.2126 39.12C81.2126 38.6293 81.1166 38.1813 80.9246 37.776C80.7326 37.3707 80.466 37.024 80.1246 36.736C79.7833 36.448 79.3726 36.224 78.8926 36.064C78.4233 35.904 77.906 35.824 77.3406 35.824C76.786 35.824 76.274 35.904 75.8046 36.064C75.3353 36.224 74.93 36.448 74.5886 36.736C74.258 37.024 73.9966 37.3707 73.8046 37.776C73.6126 38.1813 73.5166 38.6293 73.5166 39.12C73.5166 39.696 73.6553 40.2133 73.9326 40.672C74.21 41.12 74.6046 41.4827 75.1166 41.76C74.4126 42.0373 73.9006 42.432 73.5806 42.944C73.2606 43.456 73.1006 44.0533 73.1006 44.736C73.1006 45.2907 73.202 45.792 73.4046 46.24C73.618 46.6773 73.9113 47.0507 74.2846 47.36C74.658 47.6587 75.106 47.888 75.6286 48.048C76.1513 48.2187 76.722 48.304 77.3406 48.304ZM77.3406 40.976C77.0313 40.976 76.7646 40.9227 76.5406 40.816C76.3273 40.6987 76.1513 40.5547 76.0126 40.384C75.8846 40.2027 75.7886 40.0053 75.7246 39.792C75.6606 39.568 75.6286 39.3547 75.6286 39.152C75.6286 38.6933 75.7673 38.3093 76.0446 38C76.3326 37.68 76.7646 37.52 77.3406 37.52C77.9166 37.52 78.3486 37.68 78.6366 38C78.9353 38.3093 79.0846 38.6933 79.0846 39.152C79.0846 39.3547 79.0526 39.568 78.9886 39.792C78.9246 40.0053 78.8233 40.2027 78.6846 40.384C78.546 40.5547 78.3646 40.6987 78.1406 40.816C77.9166 40.9227 77.65 40.976 77.3406 40.976ZM77.3406 46.544C76.7006 46.544 76.2046 46.3787 75.8526 46.048C75.5006 45.7067 75.3246 45.2587 75.3246 44.704C75.3246 44.064 75.506 43.5733 75.8686 43.232C76.2313 42.88 76.722 42.704 77.3406 42.704C77.9593 42.704 78.4553 42.88 78.8286 43.232C79.2126 43.5733 79.4046 44.064 79.4046 44.704C79.4046 45.2587 79.218 45.7067 78.8446 46.048C78.482 46.3787 77.9806 46.544 77.3406 46.544ZM82.3119 48.224H84.6479V45.952H82.3119V48.224ZM90.3501 40.56C89.8595 40.56 89.4275 40.624 89.0541 40.752L88.8781 40.832L89.2781 40.448C89.8648 39.7013 90.4461 38.9653 91.0221 38.24C91.5981 37.504 92.1901 36.7627 92.7981 36.016H90.1101L86.8621 40.4C86.4035 41.04 86.0515 41.664 85.8061 42.272C85.5608 42.88 85.4381 43.456 85.4381 44C85.4381 44.64 85.5341 45.2267 85.7261 45.76C85.9288 46.2933 86.2115 46.7467 86.5741 47.12C86.9368 47.4933 87.3741 47.7867 87.8861 48C88.4088 48.2027 88.9955 48.304 89.6461 48.304C90.2861 48.304 90.8728 48.1973 91.4061 47.984C91.9395 47.7707 92.3928 47.4773 92.7661 47.104C93.1395 46.7307 93.4275 46.2987 93.6301 45.808C93.8435 45.3067 93.9501 44.7733 93.9501 44.208C93.9501 43.6 93.8488 43.0667 93.6461 42.608C93.4435 42.1493 93.1768 41.7707 92.8461 41.472C92.5155 41.1627 92.1315 40.9333 91.6941 40.784C91.2675 40.6347 90.8195 40.56 90.3501 40.56ZM87.5501 44.32C87.5501 43.68 87.7368 43.1733 88.1101 42.8C88.4835 42.416 88.9901 42.224 89.6301 42.224C90.2808 42.224 90.8035 42.4 91.1981 42.752C91.6035 43.104 91.8061 43.632 91.8061 44.336C91.8061 44.656 91.7475 44.9493 91.6301 45.216C91.5235 45.4827 91.3688 45.712 91.1661 45.904C90.9635 46.096 90.7288 46.2453 90.4621 46.352C90.2061 46.448 89.9235 46.496 89.6141 46.496C88.9955 46.496 88.4941 46.304 88.1101 45.92C87.7368 45.536 87.5501 45.0027 87.5501 44.32ZM94.2174 38.896V39.04C94.2174 39.4987 94.2867 39.9093 94.4254 40.272C94.564 40.624 94.7614 40.9173 95.0174 41.152C95.2734 41.3867 95.5774 41.568 95.9294 41.696C96.2814 41.8133 96.6654 41.872 97.0814 41.872C97.4974 41.872 97.8814 41.8133 98.2334 41.696C98.596 41.568 98.9054 41.3813 99.1614 41.136C99.428 40.8907 99.636 40.592 99.7854 40.24C99.9347 39.8773 100.009 39.4613 100.009 38.992V38.784C100.009 38.3253 99.9347 37.9253 99.7854 37.584C99.636 37.232 99.428 36.9387 99.1614 36.704C98.9054 36.4693 98.596 36.2933 98.2334 36.176C97.8814 36.0587 97.4974 36 97.0814 36C96.6654 36 96.2814 36.064 95.9294 36.192C95.5774 36.32 95.2734 36.5067 95.0174 36.752C94.7614 36.9973 94.564 37.3013 94.4254 37.664C94.2867 38.016 94.2174 38.4267 94.2174 38.896ZM105.481 36.08H103.593L95.8334 48H97.8014L105.481 36.08ZM98.2334 38.816L98.2174 39.024C98.2174 39.6 98.1267 40.0107 97.9454 40.256C97.7747 40.4907 97.4867 40.608 97.0814 40.608C96.676 40.608 96.3774 40.4907 96.1854 40.256C96.004 40.0107 95.9134 39.6 95.9134 39.024L95.9294 38.752C95.9294 38.208 96.0307 37.8187 96.2334 37.584C96.436 37.3493 96.7347 37.232 97.1294 37.232C97.492 37.232 97.764 37.3547 97.9454 37.6C98.1374 37.8347 98.2334 38.24 98.2334 38.816ZM101.641 44.8V44.944C101.641 45.872 101.903 46.576 102.425 47.056C102.959 47.5253 103.647 47.76 104.489 47.76C104.905 47.76 105.289 47.7013 105.641 47.584C105.993 47.456 106.297 47.2693 106.553 47.024C106.82 46.7787 107.028 46.48 107.177 46.128C107.327 45.7653 107.401 45.3547 107.401 44.896V44.688C107.401 44.2293 107.327 43.8293 107.177 43.488C107.028 43.136 106.82 42.848 106.553 42.624C106.297 42.3893 105.993 42.2133 105.641 42.096C105.289 41.9787 104.905 41.92 104.489 41.92C103.647 41.92 102.959 42.1653 102.425 42.656C101.903 43.1467 101.641 43.8613 101.641 44.8ZM105.641 44.72L105.625 44.928C105.625 45.504 105.535 45.9093 105.353 46.144C105.183 46.3787 104.895 46.496 104.489 46.496C104.084 46.496 103.785 46.3787 103.593 46.144C103.412 45.9093 103.321 45.504 103.321 44.928L103.337 44.656C103.337 44.112 103.439 43.728 103.641 43.504C103.844 43.2693 104.143 43.152 104.537 43.152C104.9 43.152 105.172 43.2693 105.353 43.504C105.545 43.7387 105.641 44.144 105.641 44.72Z" fill="#D71921"/>
</svg>
