<svg width="52" height="15" viewBox="0 0 52 15" fill="none" xmlns="http://www.w3.org/2000/svg">
<path d="M7.50775 7.76H10.9798V11.424H12.6278V0.799999H10.9798V2.928H7.50775C7.16642 2.544 6.75042 2.24 6.25975 2.016C5.77975 1.792 5.23575 1.68 4.62775 1.68C4.09442 1.68 3.59308 1.77067 3.12375 1.952C2.66508 2.13333 2.26508 2.38933 1.92375 2.72C1.59308 3.04 1.33175 3.424 1.13975 3.872C0.94775 4.32 0.85175 4.81067 0.85175 5.344C0.85175 5.87733 0.94775 6.368 1.13975 6.816C1.33175 7.264 1.59308 7.65333 1.92375 7.984C2.26508 8.304 2.66508 8.55467 3.12375 8.736C3.59308 8.91733 4.09442 9.008 4.62775 9.008C5.23575 9.01867 5.77975 8.912 6.25975 8.688C6.75042 8.464 7.16642 8.15467 7.50775 7.76ZM2.41975 5.344C2.41975 5.01333 2.47308 4.71467 2.57975 4.448C2.69708 4.17067 2.85175 3.936 3.04375 3.744C3.24642 3.552 3.48108 3.40267 3.74775 3.296C4.01442 3.18933 4.30775 3.136 4.62775 3.136C4.93708 3.136 5.22508 3.18933 5.49175 3.296C5.75842 3.40267 5.98775 3.552 6.17975 3.744C6.37175 3.936 6.52108 4.17067 6.62775 4.448C6.74508 4.71467 6.80375 5.01333 6.80375 5.344C6.80375 5.67467 6.74508 5.97867 6.62775 6.256C6.52108 6.53333 6.37175 6.77333 6.17975 6.976C5.98775 7.168 5.75842 7.31733 5.49175 7.424C5.22508 7.53067 4.93708 7.584 4.62775 7.584C4.30775 7.584 4.01442 7.53067 3.74775 7.424C3.48108 7.31733 3.24642 7.168 3.04375 6.976C2.85175 6.77333 2.69708 6.53333 2.57975 6.256C2.47308 5.97867 2.41975 5.67467 2.41975 5.344ZM8.21175 4.272H10.9798V6.416H8.21175C8.31842 6.16 8.37175 5.80267 8.37175 5.344C8.37175 4.88533 8.31842 4.528 8.21175 4.272ZM12.9958 13.616H4.91575V10.352H3.26775V14.96H12.9958V13.616Z" fill="black"/>
<path d="M21.3406 14.304C21.97 14.304 22.546 14.2187 23.0686 14.048C23.5913 13.888 24.0393 13.6587 24.4126 13.36C24.786 13.0507 25.074 12.6773 25.2766 12.24C25.49 11.792 25.5966 11.2907 25.5966 10.736C25.5966 10.0533 25.4366 9.456 25.1166 8.944C24.7966 8.432 24.2846 8.03733 23.5806 7.76C24.1033 7.49333 24.5033 7.13067 24.7806 6.672C25.0686 6.21333 25.2126 5.696 25.2126 5.12C25.2126 4.62933 25.1166 4.18133 24.9246 3.776C24.7326 3.37067 24.466 3.024 24.1246 2.736C23.7833 2.448 23.3726 2.224 22.8926 2.064C22.4233 1.904 21.906 1.824 21.3406 1.824C20.786 1.824 20.274 1.904 19.8046 2.064C19.3353 2.224 18.93 2.448 18.5886 2.736C18.258 3.024 17.9966 3.37067 17.8046 3.776C17.6126 4.18133 17.5166 4.62933 17.5166 5.12C17.5166 5.696 17.6553 6.21333 17.9326 6.672C18.21 7.12 18.6046 7.48267 19.1166 7.76C18.4126 8.03733 17.9006 8.432 17.5806 8.944C17.2606 9.456 17.1006 10.0533 17.1006 10.736C17.1006 11.2907 17.202 11.792 17.4046 12.24C17.618 12.6773 17.9113 13.0507 18.2846 13.36C18.658 13.6587 19.106 13.888 19.6286 14.048C20.1513 14.2187 20.722 14.304 21.3406 14.304ZM21.3406 6.976C21.0313 6.976 20.7646 6.92267 20.5406 6.816C20.3273 6.69867 20.1513 6.55467 20.0126 6.384C19.8846 6.20267 19.7886 6.00533 19.7246 5.792C19.6606 5.568 19.6286 5.35467 19.6286 5.152C19.6286 4.69333 19.7673 4.30933 20.0446 4C20.3326 3.68 20.7646 3.52 21.3406 3.52C21.9166 3.52 22.3486 3.68 22.6366 4C22.9353 4.30933 23.0846 4.69333 23.0846 5.152C23.0846 5.35467 23.0526 5.568 22.9886 5.792C22.9246 6.00533 22.8233 6.20267 22.6846 6.384C22.546 6.55467 22.3646 6.69867 22.1406 6.816C21.9166 6.92267 21.65 6.976 21.3406 6.976ZM21.3406 12.544C20.7006 12.544 20.2046 12.3787 19.8526 12.048C19.5006 11.7067 19.3246 11.2587 19.3246 10.704C19.3246 10.064 19.506 9.57333 19.8686 9.232C20.2313 8.88 20.722 8.704 21.3406 8.704C21.9593 8.704 22.4553 8.88 22.8286 9.232C23.2126 9.57333 23.4046 10.064 23.4046 10.704C23.4046 11.2587 23.218 11.7067 22.8446 12.048C22.482 12.3787 21.9806 12.544 21.3406 12.544ZM26.3119 14.224H28.6479V11.952H26.3119V14.224ZM34.3501 6.56C33.8595 6.56 33.4275 6.624 33.0541 6.752L32.8781 6.832L33.2781 6.448C33.8648 5.70133 34.4461 4.96533 35.0221 4.24C35.5981 3.504 36.1901 2.76267 36.7981 2.016H34.1101L30.8621 6.4C30.4035 7.04 30.0515 7.664 29.8061 8.272C29.5608 8.88 29.4381 9.456 29.4381 10C29.4381 10.64 29.5341 11.2267 29.7261 11.76C29.9288 12.2933 30.2115 12.7467 30.5741 13.12C30.9368 13.4933 31.3741 13.7867 31.8861 14C32.4088 14.2027 32.9955 14.304 33.6461 14.304C34.2861 14.304 34.8728 14.1973 35.4061 13.984C35.9395 13.7707 36.3928 13.4773 36.7661 13.104C37.1395 12.7307 37.4275 12.2987 37.6301 11.808C37.8435 11.3067 37.9501 10.7733 37.9501 10.208C37.9501 9.6 37.8488 9.06667 37.6461 8.608C37.4435 8.14933 37.1768 7.77067 36.8461 7.472C36.5155 7.16267 36.1315 6.93333 35.6941 6.784C35.2675 6.63467 34.8195 6.56 34.3501 6.56ZM31.5501 10.32C31.5501 9.68 31.7368 9.17333 32.1101 8.8C32.4835 8.416 32.9901 8.224 33.6301 8.224C34.2808 8.224 34.8035 8.4 35.1981 8.752C35.6035 9.104 35.8061 9.632 35.8061 10.336C35.8061 10.656 35.7475 10.9493 35.6301 11.216C35.5235 11.4827 35.3688 11.712 35.1661 11.904C34.9635 12.096 34.7288 12.2453 34.4621 12.352C34.2061 12.448 33.9235 12.496 33.6141 12.496C32.9955 12.496 32.4941 12.304 32.1101 11.92C31.7368 11.536 31.5501 11.0027 31.5501 10.32ZM38.2174 4.896V5.04C38.2174 5.49867 38.2867 5.90933 38.4254 6.272C38.564 6.624 38.7614 6.91733 39.0174 7.152C39.2734 7.38667 39.5774 7.568 39.9294 7.696C40.2814 7.81333 40.6654 7.872 41.0814 7.872C41.4974 7.872 41.8814 7.81333 42.2334 7.696C42.596 7.568 42.9054 7.38133 43.1614 7.136C43.428 6.89067 43.636 6.592 43.7854 6.24C43.9347 5.87733 44.0094 5.46133 44.0094 4.992V4.784C44.0094 4.32533 43.9347 3.92533 43.7854 3.584C43.636 3.232 43.428 2.93867 43.1614 2.704C42.9054 2.46933 42.596 2.29333 42.2334 2.176C41.8814 2.05867 41.4974 2 41.0814 2C40.6654 2 40.2814 2.064 39.9294 2.192C39.5774 2.32 39.2734 2.50667 39.0174 2.752C38.7614 2.99733 38.564 3.30133 38.4254 3.664C38.2867 4.016 38.2174 4.42667 38.2174 4.896ZM49.4814 2.08H47.5934L39.8334 14H41.8014L49.4814 2.08ZM42.2334 4.816L42.2174 5.024C42.2174 5.6 42.1267 6.01067 41.9454 6.256C41.7747 6.49067 41.4867 6.608 41.0814 6.608C40.676 6.608 40.3774 6.49067 40.1854 6.256C40.004 6.01067 39.9134 5.6 39.9134 5.024L39.9294 4.752C39.9294 4.208 40.0307 3.81867 40.2334 3.584C40.436 3.34933 40.7347 3.232 41.1294 3.232C41.492 3.232 41.764 3.35467 41.9454 3.6C42.1374 3.83467 42.2334 4.24 42.2334 4.816ZM45.6414 10.8V10.944C45.6414 11.872 45.9027 12.576 46.4254 13.056C46.9587 13.5253 47.6467 13.76 48.4894 13.76C48.9054 13.76 49.2894 13.7013 49.6414 13.584C49.9934 13.456 50.2974 13.2693 50.5534 13.024C50.82 12.7787 51.028 12.48 51.1774 12.128C51.3267 11.7653 51.4014 11.3547 51.4014 10.896V10.688C51.4014 10.2293 51.3267 9.82933 51.1774 9.488C51.028 9.136 50.82 8.848 50.5534 8.624C50.2974 8.38933 49.9934 8.21333 49.6414 8.096C49.2894 7.97867 48.9054 7.92 48.4894 7.92C47.6467 7.92 46.9587 8.16533 46.4254 8.656C45.9027 9.14667 45.6414 9.86133 45.6414 10.8ZM49.6414 10.72L49.6254 10.928C49.6254 11.504 49.5347 11.9093 49.3534 12.144C49.1827 12.3787 48.8947 12.496 48.4894 12.496C48.084 12.496 47.7854 12.3787 47.5934 12.144C47.412 11.9093 47.3214 11.504 47.3214 10.928L47.3374 10.656C47.3374 10.112 47.4387 9.728 47.6414 9.504C47.844 9.26933 48.1427 9.152 48.5374 9.152C48.9 9.152 49.172 9.26933 49.3534 9.504C49.5454 9.73867 49.6414 10.144 49.6414 10.72Z" fill="#D71921"/>
</svg>
