<svg width="68" height="52" viewBox="0 0 68 52" fill="none" xmlns="http://www.w3.org/2000/svg">
<path d="M12.7196 2.768H11.0556V17.264H12.7196V2.768ZM1.27963 9.696L2.03163 10.976C2.89563 10.72 3.63163 10.336 4.23962 9.824C4.84763 9.312 5.30629 8.704 5.61563 8C5.93563 8.672 6.39429 9.25333 6.99163 9.744C7.59963 10.224 8.33563 10.5867 9.19963 10.832L9.93563 9.552C8.86896 9.25333 8.02629 8.77867 7.40763 8.128C6.79963 7.47733 6.47429 6.736 6.43163 5.904H9.58363V4.576H6.43163V2.896H4.78363V4.576H1.64763V5.904H4.76763C4.72496 6.768 4.40496 7.54133 3.80763 8.224C3.22096 8.90667 2.37829 9.39733 1.27963 9.696ZM6.43163 12.912V10.512H4.78363V12.992C4.07963 13.0133 3.39696 13.0293 2.73563 13.04C2.08496 13.04 1.47163 13.04 0.895625 13.04L1.10363 14.4C1.74363 14.4 2.43163 14.3947 3.16763 14.384C3.91429 14.3733 4.68229 14.352 5.47163 14.32C6.26096 14.2773 7.06096 14.2133 7.87163 14.128C8.69296 14.032 9.50363 13.904 10.3036 13.744L10.1756 12.544C9.56763 12.64 8.94896 12.72 8.31963 12.784C7.70096 12.8373 7.07163 12.88 6.43163 12.912ZM27.0704 2.768H25.5024V8.48H23.7904V3.072H22.2384V16.512H23.7904V9.824H25.5024V17.216H27.0704V2.768ZM16.8464 12.432V5.84H20.5744V4.496H15.2304V13.792H16.1904C16.7024 13.792 17.1824 13.7867 17.6304 13.776C18.0784 13.7653 18.5104 13.7493 18.9264 13.728C19.353 13.696 19.769 13.6533 20.1744 13.6C20.5904 13.5467 21.017 13.4773 21.4544 13.392L21.3104 12.032C20.5637 12.1813 19.8384 12.2827 19.1344 12.336C18.441 12.3893 17.6784 12.4213 16.8464 12.432Z" fill="black"/>
<path d="M35.6553 3.84C34.5566 3.84 33.6339 4.13333 32.8873 4.72C32.1513 5.30667 31.6873 6.21333 31.4953 7.44L33.5913 7.792C33.6019 7.632 33.6126 7.488 33.6233 7.36C33.6446 7.232 33.6766 7.10933 33.7193 6.992C33.8473 6.64 34.0659 6.336 34.3753 6.08C34.6846 5.81333 35.0633 5.68 35.5113 5.68C36.0339 5.68 36.4446 5.824 36.7433 6.112C37.0526 6.38933 37.2073 6.80533 37.2073 7.36C37.2073 7.97867 37.0313 8.54933 36.6793 9.072C36.3273 9.59467 35.8473 10.16 35.2393 10.768L31.2233 14.72V16H39.5593V13.984H35.7193C35.5379 13.984 35.3459 13.9947 35.1433 14.016C34.9513 14.0267 34.7486 14.0587 34.5353 14.112L37.0153 11.616C37.3139 11.3067 37.6019 10.9867 37.8793 10.656C38.1673 10.3253 38.4233 9.984 38.6473 9.632C38.8713 9.28 39.0526 8.912 39.1913 8.528C39.3406 8.13333 39.4206 7.728 39.4313 7.312C39.4313 6.8 39.3353 6.33067 39.1433 5.904C38.9619 5.47733 38.7059 5.11467 38.3753 4.816C38.0446 4.50667 37.6446 4.26667 37.1753 4.096C36.7166 3.92533 36.2099 3.84 35.6553 3.84ZM52.3705 11.376V2.64H50.2585V6.208H47.9225C47.8265 5.792 47.6612 5.41333 47.4265 5.072C47.1918 4.73067 46.9038 4.43733 46.5625 4.192C46.2318 3.94667 45.8585 3.75467 45.4425 3.616C45.0265 3.47733 44.5838 3.408 44.1145 3.408C43.5705 3.408 43.0638 3.49867 42.5945 3.68C42.1252 3.86133 41.7145 4.11733 41.3625 4.448C41.0105 4.768 40.7332 5.152 40.5305 5.6C40.3385 6.03733 40.2425 6.52267 40.2425 7.056C40.2425 7.58933 40.3385 8.08 40.5305 8.528C40.7332 8.976 41.0105 9.36533 41.3625 9.696C41.7145 10.016 42.1252 10.2667 42.5945 10.448C43.0638 10.6293 43.5705 10.72 44.1145 10.72C44.5838 10.72 45.0265 10.656 45.4425 10.528C45.8692 10.3893 46.2478 10.1973 46.5785 9.952C46.9198 9.696 47.2025 9.39733 47.4265 9.056C47.6612 8.704 47.8265 8.32 47.9225 7.904H50.2585V11.376H52.3705ZM44.1145 8.912C43.5705 8.912 43.1225 8.752 42.7705 8.432C42.4292 8.10133 42.2585 7.64267 42.2585 7.056C42.2585 6.46933 42.4292 6.016 42.7705 5.696C43.1225 5.376 43.5705 5.216 44.1145 5.216C44.6585 5.216 45.1065 5.376 45.4585 5.696C45.8212 6.016 46.0025 6.46933 46.0025 7.056C46.0025 7.64267 45.8212 8.10133 45.4585 8.432C45.1065 8.752 44.6585 8.912 44.1145 8.912ZM52.3705 12.032H42.3385V13.696H50.2585V17.392H52.3705V12.032ZM64.2573 2.64V11.2H61.4893V12.64H64.2573V13.808H66.3693V2.64H64.2573ZM58.6573 8.4C59.1906 8.4 59.6813 8.336 60.1293 8.208C60.5773 8.08 60.9613 7.904 61.2812 7.68C61.6119 7.44533 61.8679 7.168 62.0493 6.848C62.2306 6.528 62.3212 6.17067 62.3212 5.776C62.3212 5.38133 62.2306 5.024 62.0493 4.704C61.8679 4.37333 61.6119 4.096 61.2812 3.872C60.9613 3.63733 60.5773 3.456 60.1293 3.328C59.6813 3.2 59.1906 3.136 58.6573 3.136C58.1133 3.136 57.6173 3.2 57.1693 3.328C56.7213 3.456 56.3319 3.63733 56.0013 3.872C55.6813 4.096 55.4306 4.37333 55.2493 4.704C55.0679 5.024 54.9773 5.38133 54.9773 5.776C54.9773 6.17067 55.0679 6.528 55.2493 6.848C55.4306 7.168 55.6813 7.44533 56.0013 7.68C56.3319 7.904 56.7213 8.08 57.1693 8.208C57.6173 8.336 58.1133 8.4 58.6573 8.4ZM58.6573 4.672C59.1479 4.672 59.5479 4.768 59.8573 4.96C60.1666 5.14133 60.3213 5.41333 60.3213 5.776C60.3213 6.13867 60.1666 6.41067 59.8573 6.592C59.5479 6.77333 59.1479 6.864 58.6573 6.864C58.1453 6.864 57.7346 6.77333 57.4253 6.592C57.1266 6.41067 56.9773 6.13867 56.9773 5.776C56.9773 5.41333 57.1266 5.14133 57.4253 4.96C57.7346 4.768 58.1453 4.672 58.6573 4.672ZM66.6893 17.12V15.44H57.8733V13.424H59.9053V10.64C60.5133 10.5973 61.1053 10.544 61.6813 10.48C62.2679 10.416 62.8493 10.3307 63.4253 10.224L63.2812 8.72C62.5026 8.816 61.7026 8.896 60.8813 8.96C60.0599 9.01333 59.2439 9.056 58.4333 9.088C57.6226 9.12 56.8333 9.14133 56.0653 9.152C55.2973 9.16267 54.5773 9.168 53.9053 9.168L54.1773 10.848C54.7319 10.848 55.3133 10.8427 55.9213 10.832C56.5293 10.8213 57.1586 10.8 57.8093 10.768V12.736H55.7613V17.12H66.6893Z" fill="#D71921"/>
<path d="M23.5078 41.76H26.9798V45.424H28.6278V34.8H26.9798V36.928H23.5078C23.1664 36.544 22.7504 36.24 22.2598 36.016C21.7798 35.792 21.2358 35.68 20.6278 35.68C20.0944 35.68 19.5931 35.7707 19.1238 35.952C18.6651 36.1333 18.2651 36.3893 17.9238 36.72C17.5931 37.04 17.3318 37.424 17.1398 37.872C16.9478 38.32 16.8518 38.8107 16.8518 39.344C16.8518 39.8773 16.9478 40.368 17.1398 40.816C17.3318 41.264 17.5931 41.6533 17.9238 41.984C18.2651 42.304 18.6651 42.5547 19.1238 42.736C19.5931 42.9173 20.0944 43.008 20.6278 43.008C21.2358 43.0187 21.7798 42.912 22.2598 42.688C22.7504 42.464 23.1664 42.1547 23.5078 41.76ZM18.4198 39.344C18.4198 39.0133 18.4731 38.7147 18.5798 38.448C18.6971 38.1707 18.8518 37.936 19.0438 37.744C19.2464 37.552 19.4811 37.4027 19.7478 37.296C20.0144 37.1893 20.3078 37.136 20.6278 37.136C20.9371 37.136 21.2251 37.1893 21.4918 37.296C21.7584 37.4027 21.9878 37.552 22.1798 37.744C22.3718 37.936 22.5211 38.1707 22.6278 38.448C22.7451 38.7147 22.8038 39.0133 22.8038 39.344C22.8038 39.6747 22.7451 39.9787 22.6278 40.256C22.5211 40.5333 22.3718 40.7733 22.1798 40.976C21.9878 41.168 21.7584 41.3173 21.4918 41.424C21.2251 41.5307 20.9371 41.584 20.6278 41.584C20.3078 41.584 20.0144 41.5307 19.7478 41.424C19.4811 41.3173 19.2464 41.168 19.0438 40.976C18.8518 40.7733 18.6971 40.5333 18.5798 40.256C18.4731 39.9787 18.4198 39.6747 18.4198 39.344ZM24.2118 38.272H26.9798V40.416H24.2118C24.3184 40.16 24.3718 39.8027 24.3718 39.344C24.3718 38.8853 24.3184 38.528 24.2118 38.272ZM28.9958 47.616H20.9158V44.352H19.2678V48.96H28.9958V47.616Z" fill="black"/>
<path d="M37.3406 48.304C37.97 48.304 38.546 48.2187 39.0686 48.048C39.5913 47.888 40.0393 47.6587 40.4126 47.36C40.786 47.0507 41.074 46.6773 41.2766 46.24C41.49 45.792 41.5966 45.2907 41.5966 44.736C41.5966 44.0533 41.4366 43.456 41.1166 42.944C40.7966 42.432 40.2846 42.0373 39.5806 41.76C40.1033 41.4933 40.5033 41.1307 40.7806 40.672C41.0686 40.2133 41.2126 39.696 41.2126 39.12C41.2126 38.6293 41.1166 38.1813 40.9246 37.776C40.7326 37.3707 40.466 37.024 40.1246 36.736C39.7833 36.448 39.3726 36.224 38.8926 36.064C38.4233 35.904 37.906 35.824 37.3406 35.824C36.786 35.824 36.274 35.904 35.8046 36.064C35.3353 36.224 34.93 36.448 34.5886 36.736C34.258 37.024 33.9966 37.3707 33.8046 37.776C33.6126 38.1813 33.5166 38.6293 33.5166 39.12C33.5166 39.696 33.6553 40.2133 33.9326 40.672C34.21 41.12 34.6046 41.4827 35.1166 41.76C34.4126 42.0373 33.9006 42.432 33.5806 42.944C33.2606 43.456 33.1006 44.0533 33.1006 44.736C33.1006 45.2907 33.202 45.792 33.4046 46.24C33.618 46.6773 33.9113 47.0507 34.2846 47.36C34.658 47.6587 35.106 47.888 35.6286 48.048C36.1513 48.2187 36.722 48.304 37.3406 48.304ZM37.3406 40.976C37.0313 40.976 36.7646 40.9227 36.5406 40.816C36.3273 40.6987 36.1513 40.5547 36.0126 40.384C35.8846 40.2027 35.7886 40.0053 35.7246 39.792C35.6606 39.568 35.6286 39.3547 35.6286 39.152C35.6286 38.6933 35.7673 38.3093 36.0446 38C36.3326 37.68 36.7646 37.52 37.3406 37.52C37.9166 37.52 38.3486 37.68 38.6366 38C38.9353 38.3093 39.0846 38.6933 39.0846 39.152C39.0846 39.3547 39.0526 39.568 38.9886 39.792C38.9246 40.0053 38.8233 40.2027 38.6846 40.384C38.546 40.5547 38.3646 40.6987 38.1406 40.816C37.9166 40.9227 37.65 40.976 37.3406 40.976ZM37.3406 46.544C36.7006 46.544 36.2046 46.3787 35.8526 46.048C35.5006 45.7067 35.3246 45.2587 35.3246 44.704C35.3246 44.064 35.506 43.5733 35.8686 43.232C36.2313 42.88 36.722 42.704 37.3406 42.704C37.9593 42.704 38.4553 42.88 38.8286 43.232C39.2126 43.5733 39.4046 44.064 39.4046 44.704C39.4046 45.2587 39.218 45.7067 38.8446 46.048C38.482 46.3787 37.9806 46.544 37.3406 46.544ZM42.3119 48.224H44.6479V45.952H42.3119V48.224ZM50.3501 40.56C49.8595 40.56 49.4275 40.624 49.0541 40.752L48.8781 40.832L49.2781 40.448C49.8648 39.7013 50.4461 38.9653 51.0221 38.24C51.5981 37.504 52.1901 36.7627 52.7981 36.016H50.1101L46.8621 40.4C46.4035 41.04 46.0515 41.664 45.8061 42.272C45.5608 42.88 45.4381 43.456 45.4381 44C45.4381 44.64 45.5341 45.2267 45.7261 45.76C45.9288 46.2933 46.2115 46.7467 46.5741 47.12C46.9368 47.4933 47.3741 47.7867 47.8861 48C48.4088 48.2027 48.9955 48.304 49.6461 48.304C50.2861 48.304 50.8728 48.1973 51.4061 47.984C51.9395 47.7707 52.3928 47.4773 52.7661 47.104C53.1395 46.7307 53.4275 46.2987 53.6301 45.808C53.8435 45.3067 53.9501 44.7733 53.9501 44.208C53.9501 43.6 53.8488 43.0667 53.6461 42.608C53.4435 42.1493 53.1768 41.7707 52.8461 41.472C52.5155 41.1627 52.1315 40.9333 51.6941 40.784C51.2675 40.6347 50.8195 40.56 50.3501 40.56ZM47.5501 44.32C47.5501 43.68 47.7368 43.1733 48.1101 42.8C48.4835 42.416 48.9901 42.224 49.6301 42.224C50.2808 42.224 50.8035 42.4 51.1981 42.752C51.6035 43.104 51.8061 43.632 51.8061 44.336C51.8061 44.656 51.7475 44.9493 51.6301 45.216C51.5235 45.4827 51.3688 45.712 51.1661 45.904C50.9635 46.096 50.7288 46.2453 50.4621 46.352C50.2061 46.448 49.9235 46.496 49.6141 46.496C48.9955 46.496 48.4941 46.304 48.1101 45.92C47.7368 45.536 47.5501 45.0027 47.5501 44.32ZM54.2174 38.896V39.04C54.2174 39.4987 54.2867 39.9093 54.4254 40.272C54.564 40.624 54.7614 40.9173 55.0174 41.152C55.2734 41.3867 55.5774 41.568 55.9294 41.696C56.2814 41.8133 56.6654 41.872 57.0814 41.872C57.4974 41.872 57.8814 41.8133 58.2334 41.696C58.596 41.568 58.9054 41.3813 59.1614 41.136C59.428 40.8907 59.636 40.592 59.7854 40.24C59.9347 39.8773 60.0094 39.4613 60.0094 38.992V38.784C60.0094 38.3253 59.9347 37.9253 59.7854 37.584C59.636 37.232 59.428 36.9387 59.1614 36.704C58.9054 36.4693 58.596 36.2933 58.2334 36.176C57.8814 36.0587 57.4974 36 57.0814 36C56.6654 36 56.2814 36.064 55.9294 36.192C55.5774 36.32 55.2734 36.5067 55.0174 36.752C54.7614 36.9973 54.564 37.3013 54.4254 37.664C54.2867 38.016 54.2174 38.4267 54.2174 38.896ZM65.4814 36.08H63.5934L55.8334 48H57.8014L65.4814 36.08ZM58.2334 38.816L58.2174 39.024C58.2174 39.6 58.1267 40.0107 57.9454 40.256C57.7747 40.4907 57.4867 40.608 57.0814 40.608C56.676 40.608 56.3774 40.4907 56.1854 40.256C56.004 40.0107 55.9134 39.6 55.9134 39.024L55.9294 38.752C55.9294 38.208 56.0307 37.8187 56.2334 37.584C56.436 37.3493 56.7347 37.232 57.1294 37.232C57.492 37.232 57.764 37.3547 57.9454 37.6C58.1374 37.8347 58.2334 38.24 58.2334 38.816ZM61.6414 44.8V44.944C61.6414 45.872 61.9027 46.576 62.4254 47.056C62.9587 47.5253 63.6467 47.76 64.4894 47.76C64.9054 47.76 65.2894 47.7013 65.6414 47.584C65.9934 47.456 66.2974 47.2693 66.5534 47.024C66.82 46.7787 67.028 46.48 67.1774 46.128C67.3267 45.7653 67.4014 45.3547 67.4014 44.896V44.688C67.4014 44.2293 67.3267 43.8293 67.1774 43.488C67.028 43.136 66.82 42.848 66.5534 42.624C66.2974 42.3893 65.9934 42.2133 65.6414 42.096C65.2894 41.9787 64.9054 41.92 64.4894 41.92C63.6467 41.92 62.9587 42.1653 62.4254 42.656C61.9027 43.1467 61.6414 43.8613 61.6414 44.8ZM65.6414 44.72L65.6254 44.928C65.6254 45.504 65.5347 45.9093 65.3534 46.144C65.1827 46.3787 64.8947 46.496 64.4894 46.496C64.084 46.496 63.7854 46.3787 63.5934 46.144C63.412 45.9093 63.3214 45.504 63.3214 44.928L63.3374 44.656C63.3374 44.112 63.4387 43.728 63.6414 43.504C63.844 43.2693 64.1427 43.152 64.5374 43.152C64.9 43.152 65.172 43.2693 65.3534 43.504C65.5454 43.7387 65.6414 44.144 65.6414 44.72Z" fill="#D71921"/>
</svg>
