<svg width="86" height="19" viewBox="0 0 86 19" fill="none" xmlns="http://www.w3.org/2000/svg">
<path d="M16.82 9.12V7.42H14V0.46H11.94V18.56H14V9.12H16.82ZM2.8 12.4V3.86H9.14V2.18H0.74V14.12H2.22C3.03333 14.12 3.8 14.1133 4.52 14.1C5.25333 14.0733 5.96 14.04 6.64 14C7.32 13.96 7.98667 13.9 8.64 13.82C9.30667 13.74 9.98 13.64 10.66 13.52L10.44 11.82C9.81333 11.9267 9.2 12.02 8.6 12.1C8 12.1667 7.38667 12.2267 6.76 12.28C6.14667 12.32 5.51333 12.3533 4.86 12.38C4.20667 12.3933 3.52 12.4 2.8 12.4ZM32.2784 0.46H30.1984V18.58H32.2784V0.46ZM22.6584 1.8C21.9918 1.8 21.3718 1.95333 20.7984 2.26C20.2384 2.55333 19.7518 2.98 19.3384 3.54C18.9251 4.08667 18.5984 4.75333 18.3584 5.54C18.1318 6.31333 18.0184 7.18667 18.0184 8.16C18.0184 9.13333 18.1318 10.02 18.3584 10.82C18.5984 11.6067 18.9251 12.2733 19.3384 12.82C19.7518 13.3667 20.2384 13.7933 20.7984 14.1C21.3718 14.3933 21.9918 14.54 22.6584 14.54C23.3384 14.54 23.9584 14.3933 24.5184 14.1C25.0918 13.7933 25.5851 13.3667 25.9984 12.82C26.4118 12.2733 26.7318 11.6067 26.9584 10.82C27.1984 10.02 27.3184 9.13333 27.3184 8.16C27.3184 7.18667 27.1984 6.31333 26.9584 5.54C26.7318 4.75333 26.4118 4.08667 25.9984 3.54C25.5851 2.98 25.0918 2.55333 24.5184 2.26C23.9584 1.95333 23.3384 1.8 22.6584 1.8ZM22.6584 3.66C23.4584 3.66 24.1051 4.06 24.5984 4.86C25.0918 5.64667 25.3384 6.74667 25.3384 8.16C25.3384 9.61333 25.0918 10.7333 24.5984 11.52C24.1051 12.3067 23.4584 12.7 22.6584 12.7C21.8584 12.7 21.2118 12.3067 20.7184 11.52C20.2384 10.7333 19.9984 9.61333 19.9984 8.16C19.9984 6.74667 20.2384 5.64667 20.7184 4.86C21.2118 4.06 21.8584 3.66 22.6584 3.66ZM50.0969 0.479999H48.1369V11.74H50.0969V0.479999ZM44.5769 6.62V11.62H46.5169V0.82H44.5769V4.94H42.5969V6.62H44.5769ZM43.4169 10.5L43.2169 8.86C42.2969 9.04667 41.3902 9.17333 40.4969 9.24C39.6035 9.29333 38.6302 9.32 37.5769 9.32V7.08H41.9369V1.84H35.5369V3.46H39.9369V5.54H35.5769V10.98H36.7969C37.4502 10.98 38.0569 10.9733 38.6169 10.96C39.1902 10.9467 39.7369 10.92 40.2569 10.88C40.7902 10.84 41.3102 10.7933 41.8169 10.74C42.3369 10.6733 42.8702 10.5933 43.4169 10.5ZM37.9369 12.56V14.22H48.0369V18.56H50.0969V12.56H37.9369ZM66.7553 11.68V10.02H56.3353V7.54H66.2153V5.92H56.3353V3.6H66.6153V1.94H54.2353V11.68H66.7553ZM68.5953 14.64H52.2153V16.32H68.5953V14.64ZM85.9738 10.66H78.8138V8.94H84.2738V7.36H73.6938V5.68H83.9138V0.979999H71.6338V2.56H81.8738V4.2H71.6738V8.94H76.7538V10.66H69.5738V12.32H85.9738V10.66ZM73.7538 16.84V13.4H71.6938V18.5H84.3138V16.84H73.7538Z" fill="black"/>
</svg>
