<svg width="56" height="16" viewBox="0 0 56 16" fill="none" xmlns="http://www.w3.org/2000/svg">
<path d="M10.984 5.424H13.112V4.336H10.984V0.815999H9.672V8.96H10.984V5.424ZM8.296 7.648L8.152 6.592C6.28 6.976 4.648 7.072 1.816 7.072V2.848H6.824V1.792H0.504V8.16H1.624C4.648 8.16 6.328 8.032 8.296 7.648ZM10.984 9.728H1.976V14.976H10.984V9.728ZM9.688 13.92H3.256V10.768H9.688V13.92ZM27.0748 13.344V12.272H21.2188V9.184H25.5068V1.856H24.2268V4.416H16.8988V1.856H15.6028V9.184H19.8908V12.272H14.0668V13.344H27.0748ZM24.2268 8.128H16.8988V5.488H24.2268V8.128ZM40.4775 15.184V0.832H39.2135V6.592H37.1815V1.152H35.9495V14.464H37.1815V7.664H39.2135V15.184H40.4775ZM30.0935 10.56V3.648H34.1415V2.576H28.7975V11.648H29.7415C31.8695 11.648 33.3575 11.6 35.0535 11.216L34.9415 10.128C33.3895 10.464 31.9975 10.56 30.0935 10.56ZM43.1923 5.568L43.5763 6.56C46.0083 6.384 48.1043 5.632 49.0003 4.304C49.8963 5.632 51.9923 6.384 54.3923 6.56L54.7923 5.568C52.1203 5.392 49.9443 4.496 49.7362 3.088H54.1523V2.096H49.6562V0.735999H48.3443V2.096H43.8323V3.088H48.2643C48.0563 4.496 45.8323 5.392 43.1923 5.568ZM49.6562 9.536V8.208H55.4643V7.2H42.5203V8.208H48.3283V9.536H44.0563V10.512H52.5203V11.728H44.1043V15.024H54.2483V14.032H45.3843V12.672H53.8163V9.536H49.6562Z" fill="#AAAAAA"/>
</svg>
