<svg width="56" height="16" viewBox="0 0 56 16" fill="none" xmlns="http://www.w3.org/2000/svg">
<path d="M10.812 11.36H12.124V0.832H10.812V11.36ZM8.3 9.024L8.988 7.984C6.876 7.216 5.404 5.248 5.404 3.088V1.632H4.092V3.088C4.092 5.328 2.668 7.424 0.492 8.24L1.18 9.312C2.86 8.608 4.14 7.216 4.764 5.472C5.404 7.136 6.636 8.4 8.3 9.024ZM12.556 14.864V13.792H4.204V10.384H2.892V14.864H12.556ZM27.5428 8.992V7.936H24.3428V5.904C25.4468 5.456 26.0868 4.72 26.0868 3.76C26.0868 2.096 24.1668 1.088 21.0468 1.088C17.9427 1.088 16.0068 2.096 16.0068 3.76C16.0068 4.736 16.5988 5.456 17.7668 5.92V7.936H14.5508V8.992H27.5428ZM17.3508 3.76C17.3508 2.72 18.7268 2.112 21.0468 2.112C23.3668 2.112 24.7428 2.72 24.7428 3.76C24.7428 4.784 23.3668 5.408 21.0468 5.408C18.7268 5.408 17.3508 4.784 17.3508 3.76ZM23.0468 7.936H19.0628V6.256C19.6548 6.368 20.3268 6.416 21.0468 6.416C21.8148 6.416 22.4868 6.368 23.0468 6.256V7.936ZM21.0468 10.064C17.9748 10.064 16.1348 10.976 16.1348 12.624C16.1348 14.272 17.9748 15.168 21.0468 15.168C24.1348 15.168 25.9588 14.272 25.9588 12.624C25.9588 10.976 24.1348 10.064 21.0468 10.064ZM21.0468 14.16C18.7908 14.16 17.4628 13.6 17.4628 12.624C17.4628 11.648 18.7908 11.088 21.0468 11.088C23.3028 11.088 24.6308 11.648 24.6308 12.624C24.6308 13.6 23.3028 14.16 21.0468 14.16ZM40.9775 15.184V0.832H39.7135V6.592H37.6815V1.152H36.4495V14.464H37.6815V7.664H39.7135V15.184H40.9775ZM30.5935 10.56V3.648H34.6415V2.576H29.2975V11.648H30.2415C32.3695 11.648 33.8575 11.6 35.5535 11.216L35.4415 10.128C33.8895 10.464 32.4975 10.56 30.5935 10.56ZM43.6923 5.568L44.0763 6.56C46.5083 6.384 48.6043 5.632 49.5003 4.304C50.3963 5.632 52.4923 6.384 54.8923 6.56L55.2923 5.568C52.6203 5.392 50.4443 4.496 50.2362 3.088H54.6523V2.096H50.1562V0.735999H48.8443V2.096H44.3323V3.088H48.7643C48.5563 4.496 46.3323 5.392 43.6923 5.568ZM50.1562 9.536V8.208H55.9643V7.2H43.0203V8.208H48.8283V9.536H44.5563V10.512H53.0203V11.728H44.6043V15.024H54.7483V14.032H45.8843V12.672H54.3163V9.536H50.1562Z" fill="#AAAAAA"/>
</svg>
