<svg width="74" height="14" viewBox="0 0 74 14" fill="none" xmlns="http://www.w3.org/2000/svg">
<path d="M1.344 5.49L1.862 6.624C2.90733 6.46533 3.83133 6.14333 4.634 5.658C5.43667 5.17267 6.034 4.58 6.426 3.88C6.82733 4.58933 7.42933 5.182 8.232 5.658C9.03467 6.134 9.95867 6.456 11.004 6.624L11.522 5.49C10.9247 5.406 10.3693 5.266 9.856 5.07C9.34267 4.86467 8.89467 4.622 8.512 4.342C8.13867 4.05267 7.84 3.73533 7.616 3.39C7.392 3.04467 7.27067 2.68533 7.252 2.312H11.074V1.15H1.764V2.312H5.614C5.59533 2.68533 5.474 3.04467 5.25 3.39C5.026 3.73533 4.72267 4.05267 4.34 4.342C3.96667 4.622 3.52333 4.86467 3.01 5.07C2.49667 5.266 1.94133 5.406 1.344 5.49ZM12.138 8.71L12.152 7.548H0.714V8.71H5.67V13.092H7.112V8.71H12.138ZM23.3089 9.48V0.449999H21.8669V9.48H23.3089ZM19.5289 7.478V1.486H13.5369V7.478H19.5289ZM18.1289 2.648V6.316H14.9509V2.648H18.1289ZM23.6729 11.566H16.5049V8.654H15.0489V12.728H23.6729V11.566ZM35.1938 5.294V4.132H27.9278V2.032H35.1098V0.87H26.4998V5.294H35.1938ZM36.5098 6.344H25.0858V7.534H36.5098V6.344ZM30.7558 8.472C30.0838 8.472 29.4771 8.52333 28.9358 8.626C28.3945 8.72867 27.9371 8.878 27.5638 9.074C27.1905 9.27 26.9011 9.51267 26.6958 9.802C26.4998 10.082 26.4018 10.404 26.4018 10.768C26.4018 11.132 26.4998 11.4587 26.6958 11.748C26.9011 12.0373 27.1905 12.28 27.5638 12.476C27.9371 12.672 28.3945 12.8213 28.9358 12.924C29.4771 13.0267 30.0838 13.078 30.7558 13.078C32.1558 13.078 33.2291 12.8773 33.9758 12.476C34.7318 12.0747 35.1098 11.5053 35.1098 10.768C35.1098 10.404 35.0071 10.082 34.8018 9.802C34.6058 9.51267 34.3211 9.27 33.9478 9.074C33.5745 8.878 33.1171 8.72867 32.5758 8.626C32.0438 8.52333 31.4371 8.472 30.7558 8.472ZM30.7558 11.958C29.8225 11.958 29.1085 11.86 28.6138 11.664C28.1191 11.4587 27.8718 11.16 27.8718 10.768C27.8718 10.376 28.1191 10.082 28.6138 9.886C29.1085 9.68067 29.8225 9.578 30.7558 9.578C31.6891 9.578 32.4031 9.68067 32.8978 9.886C33.4018 10.082 33.6538 10.376 33.6538 10.768C33.6538 11.16 33.4018 11.4587 32.8978 11.664C32.4031 11.86 31.6891 11.958 30.7558 11.958ZM48.7027 7.31H43.6907V6.162H47.5127V5.056H40.1207V3.936H47.2607V0.729999H38.6787V1.836H45.8327V2.9H38.7067V6.162H42.2487V7.31H37.2367V8.472H48.7027V7.31ZM38.5247 9.326V10.488H45.8887V13.008H47.3307V9.326H38.5247ZM55.8276 7.73V5.084H58.4596V9.802H59.9016V0.436H58.4596V3.908H55.8276V1.276H54.4136V3.362H51.4316V1.276H50.0036V7.73H55.8276ZM54.4136 4.496V6.554H51.4316V4.496H54.4136ZM60.1956 11.664H53.1256V8.878H51.6696V12.84H60.1956V11.664ZM72.4725 3.32V2.158H68.0345V0.604H66.5925V2.158H62.1265V3.32H72.4725ZM73.0605 10.516H68.0345V8.892C69.1359 8.808 69.9899 8.56067 70.5965 8.15C71.2032 7.73 71.5065 7.17 71.5065 6.47C71.5065 6.08733 71.4085 5.74667 71.2125 5.448C71.0165 5.14933 70.7365 4.89733 70.3725 4.692C70.0085 4.47733 69.5652 4.31867 69.0425 4.216C68.5199 4.104 67.9365 4.048 67.2925 4.048C66.6485 4.048 66.0652 4.104 65.5425 4.216C65.0292 4.31867 64.5905 4.47733 64.2265 4.692C63.8625 4.89733 63.5825 5.14933 63.3865 5.448C63.1905 5.74667 63.0925 6.08733 63.0925 6.47C63.0925 7.17 63.4005 7.73 64.0165 8.15C64.6325 8.57 65.4912 8.81733 66.5925 8.892V10.516H61.5945V11.706H73.0605V10.516ZM64.5625 6.47C64.5625 6.05 64.7959 5.728 65.2625 5.504C65.7385 5.28 66.4152 5.168 67.2925 5.168C68.1699 5.168 68.8465 5.28 69.3225 5.504C69.7985 5.728 70.0365 6.05 70.0365 6.47C70.0365 6.89 69.7985 7.21667 69.3225 7.45C68.8465 7.674 68.1699 7.786 67.2925 7.786C66.4152 7.786 65.7385 7.674 65.2625 7.45C64.7959 7.21667 64.5625 6.89 64.5625 6.47Z" fill="black"/>
</svg>
