<svg width="105" height="14" viewBox="0 0 105 14" fill="none" xmlns="http://www.w3.org/2000/svg">
<path d="M5.012 6.582H0.63V7.268H5.012V6.582ZM12.1995 4.258H15.0835V7.128H15.8255V0.548H15.0835V3.614H12.1995C11.9895 1.948 10.6455 1.15 9.06347 1.15C7.21547 1.15 5.91347 2.284 5.91347 3.964C5.91347 5.658 7.21547 6.778 9.06347 6.778C10.7995 6.778 12.0455 5.77 12.1995 4.258ZM9.06347 6.148C7.64947 6.148 6.62747 5.196 6.62747 3.964C6.62747 2.676 7.64947 1.766 9.06347 1.766C10.4775 1.766 11.4995 2.676 11.4995 3.964C11.4995 5.196 10.4775 6.148 9.06347 6.148ZM14.7475 8.878V7.772H14.0195V8.878C14.0195 10.208 13.1515 11.678 11.6535 12.308L12.0595 12.882C13.2355 12.336 14.0055 11.398 14.3835 10.278C14.7615 11.398 15.5315 12.364 16.7075 12.882L17.1135 12.308C15.6155 11.706 14.7475 10.208 14.7475 8.878ZM11.3175 7.842H10.6175V9.606H7.85947V7.842H7.14547V12.784H11.3175V7.842ZM7.85947 10.18H10.6175V12.168H7.85947V10.18ZM27.9624 12.98V0.548H27.2204V12.98H27.9624ZM21.4944 1.556C19.6604 1.556 18.4004 3.236 18.4004 5.826C18.4004 8.444 19.6604 10.096 21.4944 10.096C23.3004 10.096 24.5744 8.444 24.5744 5.826C24.5744 3.236 23.3004 1.556 21.4944 1.556ZM21.4944 2.214C22.8804 2.214 23.8604 3.698 23.8604 5.826C23.8604 7.954 22.8804 9.452 21.4944 9.452C20.0944 9.452 19.1144 7.954 19.1144 5.826C19.1144 3.698 20.0944 2.214 21.4944 2.214ZM42.5728 7.212V0.548H41.8308V7.212H42.5728ZM35.9508 1.192C34.1168 1.192 32.8148 2.326 32.8148 4.006C32.8148 5.686 34.1168 6.82 35.9508 6.82C37.8128 6.82 39.1148 5.686 39.1148 4.006C39.1148 2.326 37.8128 1.192 35.9508 1.192ZM35.9508 1.822C37.3648 1.822 38.4008 2.732 38.4008 4.006C38.4008 5.28 37.3648 6.19 35.9508 6.19C34.5508 6.19 33.5288 5.28 33.5288 4.006C33.5288 2.732 34.5508 1.822 35.9508 1.822ZM35.4608 9.606V7.87H34.7188V12.784H42.5728V7.87H41.8448V9.606H35.4608ZM41.8448 12.168H35.4608V10.222H41.8448V12.168ZM54.7657 8.178V0.548H54.0237V2.466H51.3357V3.096H54.0237V4.986H51.3357V5.616H54.0237V8.178H54.7657ZM51.4057 7.17L51.3217 6.54C49.7957 6.806 48.5637 6.848 46.0577 6.848H45.9177V4.58H50.4537V1.304H45.1477V1.934H49.7257V3.978H45.1897V7.478H46.0577C48.6057 7.478 49.8377 7.436 51.4057 7.17ZM54.7657 8.906H46.5617V9.536H54.0237V13.008H54.7657V8.906ZM67.2526 12.98V0.548H66.5246V5.896H64.5506V0.855999H63.8226V12.322H64.5506V6.526H66.5246V12.98H67.2526ZM63.0946 2.83H60.3086V0.926H59.5666V2.83H56.7946V3.46H63.0946V2.83ZM59.9306 4.454C58.4186 4.454 57.2986 5.588 57.2986 7.212C57.2986 8.85 58.4186 9.984 59.9306 9.984C61.4706 9.984 62.5766 8.85 62.5766 7.212C62.5766 5.588 61.4706 4.454 59.9306 4.454ZM59.9306 9.34C58.7966 9.34 57.9706 8.416 57.9706 7.212C57.9706 6.036 58.7966 5.084 59.9306 5.084C61.0926 5.084 61.9046 6.036 61.9046 7.212C61.9046 8.416 61.0926 9.34 59.9306 9.34ZM69.7295 5.896L70.0235 6.512C71.7735 6.176 73.8735 5.042 74.6155 3.446C75.3155 5.042 77.4715 6.176 79.1935 6.512L79.4875 5.896C77.6395 5.602 75.0075 4.146 75.0075 2.298V2.018H79.1235V1.388H70.0795V2.018H74.2095V2.298C74.2095 4.132 71.5775 5.602 69.7295 5.896ZM74.9655 8.374H80.2295L80.2435 7.758H68.9875V8.374H74.2235V12.952H74.9655V8.374ZM91.6804 12.98V0.548H90.9664V12.98H91.6804ZM89.1324 0.855999H88.4184V5.168H86.0804V5.798H88.4184V12.322H89.1324V0.855999ZM84.6664 4.3V1.766H83.9664V4.314C83.9664 6.442 82.7204 8.682 81.0824 9.62L81.5724 10.18C82.8604 9.396 83.8824 7.898 84.3304 6.106C84.7784 7.744 85.7584 9.172 86.9904 9.914L87.4664 9.34C85.8564 8.402 84.6664 6.246 84.6664 4.3ZM104.629 11.3V10.67H101.675V7.086C102.753 6.54 103.411 5.672 103.411 4.552C103.411 2.648 101.577 1.444 98.9593 1.444C96.3693 1.444 94.5213 2.648 94.5213 4.552C94.5213 5.672 95.1653 6.554 96.2853 7.1V10.67H93.3453V11.3H104.629ZM95.2213 4.552C95.2213 3.054 96.8173 2.046 98.9593 2.046C101.129 2.046 102.711 3.054 102.711 4.552C102.711 6.022 101.129 7.044 98.9593 7.044C96.8173 7.044 95.2213 6.022 95.2213 4.552ZM100.933 10.67H97.0273V7.38C97.6013 7.548 98.2453 7.646 98.9593 7.646C99.6873 7.646 100.359 7.548 100.933 7.38V10.67Z" fill="#999999"/>
</svg>
