<svg width="125" height="14" viewBox="0 0 125 14" fill="none" xmlns="http://www.w3.org/2000/svg">
<path d="M12.096 8.052V7.128H6.986V5.896H10.766V5H3.374V3.768H10.36V2.9H3.374V1.738H10.696V0.841999H2.226V5.896H5.838V7.128H0.728V8.052H12.096ZM6.412 9.004C3.626 9.004 2.114 9.704 2.114 11.006C2.114 12.35 3.626 13.022 6.412 13.022C9.198 13.022 10.71 12.35 10.71 11.006C10.71 9.704 9.198 9.004 6.412 9.004ZM6.412 12.154C4.382 12.154 3.262 11.79 3.262 11.006C3.262 10.264 4.382 9.858 6.412 9.858C8.442 9.858 9.562 10.264 9.562 11.006C9.562 11.79 8.442 12.154 6.412 12.154ZM22.0769 9.69H23.2249V0.478H22.0769V9.69ZM19.8789 7.646L20.4809 6.736C18.6329 6.064 17.3449 4.342 17.3449 2.452V1.178H16.1969V2.452C16.1969 4.412 14.9509 6.246 13.0469 6.96L13.6489 7.898C15.1189 7.282 16.2389 6.064 16.7849 4.538C17.3449 5.994 18.4229 7.1 19.8789 7.646ZM23.6029 12.756V11.818H16.2949V8.836H15.1469V12.756H23.6029ZM34.7598 6.526H36.8318V5.574H34.7598V0.492H33.6118V13.036H34.7598V6.526ZM29.3138 3.824V1.57H28.1798V3.824C28.1798 6.106 26.7518 8.5 24.9458 9.438L25.6318 10.362C27.0458 9.578 28.2078 8.066 28.7538 6.204C29.3138 7.94 30.4478 9.396 31.7918 10.11L32.5058 9.2C30.7558 8.304 29.3138 6.022 29.3138 3.824ZM38.7067 1.654H46.0707V2.676H38.7347V5.364H47.4287V4.538H39.8687V3.46H47.2047V0.841999H38.7067V1.654ZM48.6607 7.184V6.316H37.2787V7.184H48.6607ZM47.6387 12.042H39.7987V10.88H47.2467V8.206H38.6367V9.032H46.1127V10.082H38.6647V12.868H47.6387V12.042ZM58.3285 4.384H61.0725V9.872H62.2345V0.492H61.0725V3.432H58.3285V4.384ZM58.6225 7.786L59.2245 6.904C57.4325 6.232 56.1865 4.58 56.1865 2.83V1.234H55.0385V2.788C55.0385 4.692 53.7785 6.498 51.9025 7.17L52.5045 8.08C53.9745 7.478 55.0805 6.316 55.6265 4.804C56.1725 6.162 57.2225 7.24 58.6225 7.786ZM62.5285 12.756V11.818H55.3045V8.836H54.1565V12.756H62.5285ZM74.6654 8.094V0.492H73.5594V3.754H71.8794V0.715999H70.7874V8.01H71.8794V4.692H73.5594V8.094H74.6654ZM70.0594 7.086L69.9474 6.162C68.6454 6.428 67.5114 6.498 65.7194 6.498V4.79H69.3174V3.908H65.7194V2.326H69.4574V1.402H64.6134V7.436H65.4114C67.4274 7.436 68.6034 7.38 70.0594 7.086ZM74.6654 8.752H66.2234V9.676H73.5174V13.036H74.6654V8.752ZM86.8863 13.022V0.463999H85.7803V5.77H84.1703V0.758H83.0923V12.42H84.1703V6.708H85.7803V13.022H86.8863ZM82.4623 2.62H79.9143V0.841999H78.7803V2.62H76.2323V3.558H82.4623V2.62ZM79.3543 4.398C77.8003 4.398 76.6663 5.574 76.6663 7.254C76.6663 8.962 77.8003 10.124 79.3543 10.124C80.9083 10.124 82.0423 8.962 82.0423 7.254C82.0423 5.574 80.9083 4.398 79.3543 4.398ZM79.3543 9.172C78.3883 9.172 77.6883 8.374 77.6883 7.254C77.6883 6.134 78.3463 5.364 79.3543 5.364C80.3203 5.364 81.0203 6.162 81.0203 7.254C81.0203 8.374 80.3203 9.172 79.3543 9.172ZM89.1112 5.672L89.5452 6.582C91.5052 6.246 93.3252 5.21 94.1092 3.712C94.8512 5.21 96.7272 6.246 98.6732 6.582L99.1212 5.672C96.9092 5.336 94.7392 3.908 94.7392 2.256V2.186H98.6732V1.262H89.5032V2.186H93.4652V2.256C93.4652 3.908 91.2952 5.336 89.1112 5.672ZM94.6552 8.57H99.7932L99.7792 7.632H88.4392V8.57H93.5072V13.036H94.6552V8.57ZM111.272 13.036V0.478H110.18V13.036H111.272ZM108.71 0.758H107.632V4.986H105.56V5.938H107.632V12.42H108.71V0.758ZM104.328 4.02V1.668H103.222V4.062C103.222 6.232 102.186 8.472 100.464 9.48L101.178 10.348C102.424 9.564 103.334 8.178 103.782 6.484C104.23 8.01 105.07 9.34 106.26 10.068L106.918 9.172C105.28 8.164 104.328 6.036 104.328 4.02ZM124.179 11.426V10.474H121.365V7.072C122.429 6.526 123.017 5.63 123.017 4.496C123.017 2.55 121.127 1.276 118.453 1.276C115.793 1.276 113.889 2.55 113.889 4.496C113.889 5.63 114.505 6.54 115.569 7.086V10.474H112.769V11.426H124.179ZM118.453 2.172C120.469 2.172 121.925 3.096 121.925 4.496C121.925 5.896 120.469 6.82 118.453 6.82C116.437 6.82 114.995 5.896 114.995 4.496C114.995 3.096 116.437 2.172 118.453 2.172ZM120.217 10.474H116.717V7.52C117.263 7.646 117.837 7.716 118.453 7.716C119.027 7.716 119.615 7.646 120.217 7.52V10.474Z" fill="#111111"/>
</svg>
