<svg width="62" height="17" viewBox="0 0 62 17" fill="none" xmlns="http://www.w3.org/2000/svg">
<path d="M16.1448 4.146H13.8408V0.114H11.9868V9.888H13.8408V5.676H16.1448V4.146ZM9.62881 9.024L10.6008 7.566C10.0008 7.362 9.46081 7.092 8.98081 6.756C8.51281 6.42 8.11681 6.042 7.79281 5.622C7.46881 5.19 7.22281 4.728 7.05481 4.236C6.88681 3.744 6.80281 3.234 6.80281 2.706V0.959999H4.93081V2.562C4.93081 3.15 4.84681 3.726 4.67881 4.29C4.51081 4.842 4.25881 5.358 3.92281 5.838C3.58681 6.318 3.17281 6.744 2.68081 7.116C2.18881 7.488 1.62481 7.782 0.988813 7.998L1.97881 9.474C2.91481 9.126 3.71281 8.622 4.37281 7.962C5.03281 7.302 5.54281 6.522 5.90281 5.622C6.25081 6.39 6.73681 7.074 7.36081 7.674C7.99681 8.262 8.75281 8.712 9.62881 9.024ZM8.60281 10.284C7.76281 10.284 7.00681 10.356 6.33481 10.5C5.67481 10.632 5.11081 10.83 4.64281 11.094C4.17481 11.346 3.81481 11.664 3.56281 12.048C3.31081 12.42 3.18481 12.846 3.18481 13.326C3.18481 13.806 3.31081 14.238 3.56281 14.622C3.81481 14.994 4.17481 15.312 4.64281 15.576C5.11081 15.84 5.67481 16.038 6.33481 16.17C7.00681 16.314 7.76281 16.386 8.60281 16.386C9.45481 16.386 10.2108 16.314 10.8708 16.17C11.5428 16.038 12.1128 15.84 12.5808 15.576C13.0488 15.312 13.4028 14.994 13.6428 14.622C13.8948 14.238 14.0208 13.806 14.0208 13.326C14.0208 12.366 13.5408 11.622 12.5808 11.094C11.6208 10.554 10.2948 10.284 8.60281 10.284ZM8.60281 14.928C7.43881 14.928 6.55081 14.796 5.93881 14.532C5.32681 14.268 5.02081 13.866 5.02081 13.326C5.02081 12.822 5.32681 12.432 5.93881 12.156C6.55081 11.88 7.43881 11.742 8.60281 11.742C9.76681 11.742 10.6548 11.88 11.2668 12.156C11.8788 12.432 12.1848 12.822 12.1848 13.326C12.1848 13.866 11.8788 14.268 11.2668 14.532C10.6548 14.796 9.76681 14.928 8.60281 14.928ZM31.8034 5.496V3.966H29.4994V0.114H27.6454V9.294H29.4994V5.496H31.8034ZM26.2954 7.998L26.1154 6.504C25.6234 6.612 25.1374 6.702 24.6574 6.774C24.1774 6.834 23.6674 6.888 23.1274 6.936C22.5994 6.972 22.0234 6.996 21.3994 7.008C20.7874 7.02 20.0974 7.026 19.3294 7.026V2.67H24.6754V1.176H17.4754V8.538H18.7894C19.6654 8.538 20.4454 8.532 21.1294 8.52C21.8254 8.496 22.4674 8.466 23.0554 8.43C23.6434 8.394 24.1954 8.34 24.7114 8.268C25.2394 8.196 25.7674 8.106 26.2954 7.998ZM19.1134 10.104V16.188H29.4994V10.104H19.1134ZM20.9494 14.694V11.562H27.6814V14.694H20.9494ZM47.588 8.214V6.666H45.086V0.131999H43.214V16.404H45.086V8.214H47.588ZM38.102 2.634V0.366H36.248V2.634H32.378V4.146H41.9V2.634H38.102ZM37.202 5.298C36.614 5.298 36.074 5.394 35.582 5.586C35.09 5.766 34.664 6.024 34.304 6.36C33.944 6.696 33.662 7.098 33.458 7.566C33.266 8.022 33.17 8.532 33.17 9.096C33.17 9.648 33.266 10.158 33.458 10.626C33.662 11.094 33.944 11.496 34.304 11.832C34.664 12.168 35.09 12.432 35.582 12.624C36.074 12.804 36.614 12.894 37.202 12.894C37.778 12.894 38.312 12.804 38.804 12.624C39.296 12.432 39.722 12.168 40.082 11.832C40.442 11.496 40.724 11.094 40.928 10.626C41.132 10.158 41.234 9.648 41.234 9.096C41.234 8.532 41.132 8.022 40.928 7.566C40.724 7.098 40.442 6.696 40.082 6.36C39.722 6.024 39.296 5.766 38.804 5.586C38.312 5.394 37.778 5.298 37.202 5.298ZM37.202 11.364C36.542 11.364 35.996 11.16 35.564 10.752C35.144 10.332 34.934 9.78 34.934 9.096C34.934 8.412 35.144 7.866 35.564 7.458C35.996 7.038 36.542 6.828 37.202 6.828C37.862 6.828 38.402 7.038 38.822 7.458C39.254 7.866 39.47 8.412 39.47 9.096C39.47 9.78 39.254 10.332 38.822 10.752C38.402 11.16 37.862 11.364 37.202 11.364ZM61.5366 0.131999H59.6826V16.386H61.5366V0.131999ZM56.7486 1.842H49.0446V3.354H54.8406C54.6846 5.226 54.0786 6.882 53.0226 8.322C51.9666 9.75 50.3706 10.98 48.2346 12.012L49.2246 13.488C50.6166 12.816 51.7926 12.06 52.7526 11.22C53.7126 10.368 54.4866 9.45 55.0746 8.466C55.6746 7.482 56.1006 6.438 56.3526 5.334C56.6166 4.218 56.7486 3.054 56.7486 1.842Z" fill="white"/>
</svg>
