<svg width="230" height="61" viewBox="0 0 230 61" fill="none" xmlns="http://www.w3.org/2000/svg">
<path d="M41.2649 0.471998H38.5609V24.028H41.2649V0.471998ZM22.2849 11.522L23.5849 13.576C25.0582 13.16 26.2976 12.5273 27.3029 11.678C28.3082 10.8113 29.0796 9.78 29.6169 8.584C30.1542 9.676 30.9169 10.6207 31.9049 11.418C32.8929 12.2153 34.0889 12.8133 35.4929 13.212L36.7409 11.132C34.9036 10.5947 33.4822 9.77133 32.4769 8.662C31.4889 7.53533 30.9776 6.27 30.9429 4.866H36.0389V2.656H23.1429V4.866H28.2389C28.2389 5.594 28.1002 6.30467 27.8229 6.998C27.5629 7.674 27.1729 8.30667 26.6529 8.896C26.1502 9.468 25.5262 9.97933 24.7809 10.43C24.0529 10.8807 23.2209 11.2447 22.2849 11.522ZM30.9689 16.852V12.51H28.2649V16.982C27.1209 17.0167 26.0289 17.0427 24.9889 17.06C23.9662 17.06 22.9869 17.06 22.0509 17.06L22.3889 19.27C23.4289 19.27 24.5469 19.2613 25.7429 19.244C26.9562 19.2267 28.2042 19.1833 29.4869 19.114C30.7696 19.0447 32.0696 18.9407 33.3869 18.802C34.7216 18.6633 36.0389 18.4727 37.3389 18.23L37.1309 16.254C36.1429 16.41 35.1289 16.54 34.0889 16.644C33.0489 16.7307 32.0089 16.8 30.9689 16.852ZM63.5449 10.066L64.5589 7.96C63.3975 7.804 62.3229 7.53533 61.3349 7.154C60.3469 6.75533 59.4975 6.28733 58.7869 5.75C58.0762 5.19533 57.5215 4.58 57.1229 3.904C56.7242 3.228 56.5249 2.526 56.5249 1.798V0.913999H53.7689V1.798C53.7689 2.526 53.5695 3.228 53.1709 3.904C52.7722 4.58 52.2089 5.19533 51.4809 5.75C50.7702 6.28733 49.9209 6.75533 48.9329 7.154C47.9622 7.53533 46.8962 7.804 45.7349 7.96L46.7229 10.066C48.6642 9.77133 50.3629 9.19933 51.8189 8.35C53.2749 7.50067 54.3755 6.452 55.1209 5.204C55.9009 6.46933 57.0275 7.52667 58.5009 8.376C59.9742 9.208 61.6555 9.77133 63.5449 10.066ZM65.7809 11.964H56.4729V8.766H53.7949V11.964H44.5389V14.122H65.7809V11.964ZM55.1209 15.786C52.5209 15.786 50.5189 16.1413 49.1149 16.852C47.7282 17.5627 47.0349 18.5767 47.0349 19.894C47.0349 21.2113 47.7282 22.2253 49.1149 22.936C50.5189 23.6467 52.5209 24.002 55.1209 24.002C57.7382 24.002 59.7402 23.6467 61.1269 22.936C62.5135 22.2253 63.2069 21.2113 63.2069 19.894C63.2069 18.5767 62.5135 17.5627 61.1269 16.852C59.7402 16.1413 57.7382 15.786 55.1209 15.786ZM55.1209 21.948C53.3875 21.948 52.0615 21.7747 51.1429 21.428C50.2242 21.0813 49.7649 20.57 49.7649 19.894C49.7649 19.218 50.2242 18.7067 51.1429 18.36C52.0615 17.996 53.3875 17.814 55.1209 17.814C56.8542 17.814 58.1802 17.996 59.0989 18.36C60.0349 18.7067 60.5029 19.218 60.5029 19.894C60.5029 20.57 60.0349 21.0813 59.0989 21.428C58.1802 21.7747 56.8542 21.948 55.1209 21.948ZM81.0668 4.918V2.76H75.4768V0.315999H72.7988V2.76H67.2088V4.918H81.0668ZM88.8408 8.584V6.374H85.5128V0.523999H82.8348V14.226H85.5128V8.584H88.8408ZM79.8188 9.91C79.8188 9.286 79.6802 8.72267 79.4028 8.22C79.1255 7.71733 78.7355 7.284 78.2328 6.92C77.7475 6.556 77.1495 6.27867 76.4388 6.088C75.7455 5.88 74.9742 5.776 74.1248 5.776C73.2755 5.776 72.5042 5.88 71.8108 6.088C71.1175 6.27867 70.5195 6.556 70.0168 6.92C69.5142 7.284 69.1242 7.71733 68.8468 8.22C68.5695 8.72267 68.4308 9.286 68.4308 9.91C68.4308 10.534 68.5695 11.106 68.8468 11.626C69.1242 12.1287 69.5142 12.562 70.0168 12.926C70.5195 13.29 71.1175 13.576 71.8108 13.784C72.5042 13.9747 73.2755 14.07 74.1248 14.07C74.9742 14.07 75.7455 13.9747 76.4388 13.784C77.1495 13.576 77.7475 13.29 78.2328 12.926C78.7355 12.562 79.1255 12.1287 79.4028 11.626C79.6802 11.106 79.8188 10.534 79.8188 9.91ZM71.0048 9.91C71.0048 9.25133 71.2908 8.73133 71.8628 8.35C72.4348 7.96867 73.1888 7.778 74.1248 7.778C75.0608 7.778 75.8148 7.96867 76.3868 8.35C76.9762 8.73133 77.2708 9.25133 77.2708 9.91C77.2708 10.586 76.9762 11.1147 76.3868 11.496C75.8148 11.8773 75.0608 12.068 74.1248 12.068C73.1888 12.068 72.4348 11.8773 71.8628 11.496C71.2908 11.1147 71.0048 10.586 71.0048 9.91ZM82.8608 15.188V17.346H73.1628V15.188H70.5108V23.716H85.5128V15.188H82.8608ZM82.8608 19.426V21.584H73.1628V19.426H82.8608ZM109.197 0.523999H106.519V24.002H109.197V0.523999ZM93.8308 15.786V2.812H91.1788V18.074H93.1808C95.0181 18.074 96.8728 17.996 98.7448 17.84C100.634 17.6667 102.601 17.372 104.647 16.956L104.361 14.72C102.471 15.1013 100.66 15.37 98.9268 15.526C97.2108 15.682 95.5121 15.7687 93.8308 15.786ZM134.259 11.756V9.546H130.593V0.497999H127.915V24.028H130.593V11.756H134.259ZM116.033 16.02V4.918H124.275V2.734H113.355V18.256H115.279C116.336 18.256 117.333 18.2473 118.269 18.23C119.222 18.1953 120.141 18.152 121.025 18.1C121.909 18.048 122.775 17.97 123.625 17.866C124.491 17.762 125.367 17.632 126.251 17.476L125.965 15.266C125.15 15.4047 124.353 15.526 123.573 15.63C122.793 15.7167 121.995 15.7947 121.181 15.864C120.383 15.916 119.56 15.9593 118.711 15.994C117.861 16.0113 116.969 16.02 116.033 16.02ZM155.775 4.892V5.022C155.775 6.40867 155.732 7.96867 155.645 9.702C155.576 11.4353 155.316 13.4547 154.865 15.76L157.569 16.046C157.795 14.8327 157.968 13.7147 158.089 12.692C158.211 11.652 158.297 10.69 158.349 9.806C158.419 8.90467 158.453 8.064 158.453 7.284C158.471 6.504 158.479 5.75 158.479 5.022V2.708H141.761V4.892H155.775ZM160.767 18.724H150.159V10.456H147.455V18.724H139.551V20.934H160.767V18.724ZM182.033 0.523999H179.485V6.218H176.885V0.966H174.363V14.2H176.885V8.402H179.485V14.304H182.033V0.523999ZM172.361 2.214H163.157V4.372H169.605C169.38 6.20933 168.66 7.804 167.447 9.156C166.251 10.508 164.474 11.652 162.117 12.588L163.391 14.512C166.476 13.2987 168.738 11.6867 170.177 9.676C171.633 7.66533 172.361 5.178 172.361 2.214ZM166.069 15.37V17.528H179.355V24.028H182.033V15.37H166.069ZM204.131 0.523999H201.427V13.758H204.131V0.523999ZM199.503 11.21L199.191 9.052C197.475 9.39867 195.785 9.65 194.121 9.806C192.474 9.94467 190.724 10.0227 188.869 10.04V1.876H186.191V12.276H188.141C190.204 12.276 192.145 12.198 193.965 12.042C195.785 11.8687 197.631 11.5913 199.503 11.21ZM188.739 14.824V23.716H204.131V14.824H188.739ZM191.391 21.558V16.956H201.505V21.558H191.391ZM19.3489 36.498H16.8009V45.78H14.0189V36.992H11.4969V58.832H14.0189V47.964H16.8009V59.976H19.3489V36.498ZM2.73493 52.202V41.49H8.79293V39.306H0.10893V54.412H1.66893C2.50093 54.412 3.28093 54.4033 4.00893 54.386C4.73693 54.3687 5.43893 54.3427 6.11493 54.308C6.80826 54.256 7.48426 54.1867 8.14293 54.1C8.81893 54.0133 9.51226 53.9007 10.2229 53.762L9.98893 51.552C8.7756 51.7947 7.59693 51.9593 6.45293 52.046C5.32626 52.1327 4.08693 52.1847 2.73493 52.202ZM22.9349 43.882L23.7149 45.884C25.8122 45.7453 27.6149 45.39 29.1229 44.818C30.6482 44.246 31.7836 43.466 32.5289 42.478C33.2742 43.466 34.4096 44.246 35.9349 44.818C37.4776 45.39 39.2976 45.7453 41.3949 45.884L42.1229 43.882C39.7482 43.7433 37.8849 43.3793 36.5329 42.79C35.1809 42.1833 34.3749 41.412 34.1149 40.476H41.0569V38.474H33.8809V36.42H31.2029V38.474H24.0529V40.476H30.9689C30.7089 41.412 29.9029 42.1833 28.5509 42.79C27.1989 43.3793 25.3269 43.7433 22.9349 43.882ZM33.8809 48.744H43.1629V46.742H21.9729V48.744H31.2029V50.564H24.4429V52.54H37.8849V54.178H24.4949V59.794H41.1869V57.792H27.1469V56.024H40.5109V50.564H33.8809V48.744ZM63.9089 53.632V36.55H61.2309V53.632H63.9089ZM57.6949 50.486L59.0469 48.38C58.1455 48.0853 57.3395 47.6953 56.6289 47.21C55.9182 46.7247 55.3115 46.1787 54.8089 45.572C54.3235 44.948 53.9509 44.2807 53.6909 43.57C53.4309 42.842 53.3009 42.1053 53.3009 41.36V40.502H58.3189V38.344H45.4749V40.502H50.5709V41.36C50.5709 42.14 50.4409 42.9113 50.1809 43.674C49.9209 44.4367 49.5395 45.1473 49.0369 45.806C48.5515 46.4647 47.9449 47.054 47.2169 47.574C46.5062 48.094 45.6829 48.51 44.7469 48.822L46.1509 50.902C47.5549 50.434 48.7422 49.7233 49.7129 48.77C50.7009 47.8167 51.4549 46.716 51.9749 45.468C52.4949 46.6293 53.2402 47.6433 54.2109 48.51C55.1815 49.3767 56.3429 50.0353 57.6949 50.486ZM64.5849 57.376H51.2729V52.072H48.5689V59.56H64.5849V57.376ZM82.0548 50.538V44.844H84.4988V51.318H87.0468V36.498H84.4988V42.634H82.0548V36.94H79.5588V50.538H82.0548ZM78.7528 41.256V39.15H74.2288V36.732H71.6028V39.15H67.0528V41.256H78.7528ZM77.9728 46.326C77.9728 45.7193 77.8428 45.1733 77.5828 44.688C77.3402 44.1853 76.9935 43.7607 76.5428 43.414C76.1095 43.05 75.5808 42.7727 74.9568 42.582C74.3502 42.374 73.6742 42.27 72.9288 42.27C72.2008 42.27 71.5248 42.374 70.9008 42.582C70.2942 42.7727 69.7655 43.05 69.3148 43.414C68.8815 43.7607 68.5348 44.1853 68.2748 44.688C68.0322 45.1733 67.9108 45.7193 67.9108 46.326C67.9108 46.9327 68.0322 47.4873 68.2748 47.99C68.5348 48.4927 68.8815 48.926 69.3148 49.29C69.7655 49.6367 70.2942 49.9053 70.9008 50.096C71.5248 50.2867 72.2008 50.382 72.9288 50.382C73.6742 50.382 74.3502 50.2867 74.9568 50.096C75.5808 49.9053 76.1095 49.6367 76.5428 49.29C76.9935 48.926 77.3402 48.4927 77.5828 47.99C77.8428 47.4873 77.9728 46.9327 77.9728 46.326ZM70.3028 46.326C70.3028 45.6847 70.5368 45.1733 71.0048 44.792C71.4902 44.4107 72.1315 44.22 72.9288 44.22C73.7088 44.22 74.3415 44.4107 74.8268 44.792C75.3295 45.1733 75.5808 45.6847 75.5808 46.326C75.5808 46.9673 75.3295 47.4787 74.8268 47.86C74.3415 48.2413 73.7088 48.432 72.9288 48.432C72.1315 48.432 71.4902 48.2413 71.0048 47.86C70.5368 47.4787 70.3028 46.9673 70.3028 46.326ZM79.2468 51.656C76.6815 51.656 74.7142 52.0113 73.3448 52.722C71.9755 53.4327 71.2908 54.464 71.2908 55.816C71.2908 57.168 71.9755 58.1993 73.3448 58.91C74.7142 59.638 76.6815 60.002 79.2468 60.002C81.8122 60.002 83.7708 59.638 85.1228 58.91C86.4922 58.1993 87.1768 57.168 87.1768 55.816C87.1768 54.464 86.4922 53.4327 85.1228 52.722C83.7708 52.0113 81.8122 51.656 79.2468 51.656ZM79.2468 57.974C77.5655 57.974 76.2655 57.8007 75.3468 57.454C74.4282 57.09 73.9688 56.544 73.9688 55.816C73.9688 55.088 74.4282 54.5507 75.3468 54.204C76.2655 53.8573 77.5655 53.684 79.2468 53.684C82.7482 53.684 84.4988 54.3947 84.4988 55.816C84.4988 57.2547 82.7482 57.974 79.2468 57.974ZM109.119 36.498H106.415V60.054H109.119V36.498ZM96.6128 38.24C95.7461 38.24 94.9401 38.4393 94.1948 38.838C93.4668 39.2193 92.8341 39.774 92.2968 40.502C91.7595 41.2127 91.3348 42.0793 91.0228 43.102C90.7281 44.1073 90.5808 45.2427 90.5808 46.508C90.5808 47.7733 90.7281 48.926 91.0228 49.966C91.3348 50.9887 91.7595 51.8553 92.2968 52.566C92.8341 53.2767 93.4668 53.8313 94.1948 54.23C94.9401 54.6113 95.7461 54.802 96.6128 54.802C97.4968 54.802 98.3028 54.6113 99.0308 54.23C99.7761 53.8313 100.417 53.2767 100.955 52.566C101.492 51.8553 101.908 50.9887 102.203 49.966C102.515 48.926 102.671 47.7733 102.671 46.508C102.671 45.2427 102.515 44.1073 102.203 43.102C101.908 42.0793 101.492 41.2127 100.955 40.502C100.417 39.774 99.7761 39.2193 99.0308 38.838C98.3028 38.4393 97.4968 38.24 96.6128 38.24ZM96.6128 40.658C97.6528 40.658 98.4935 41.178 99.1348 42.218C99.7761 43.2407 100.097 44.6707 100.097 46.508C100.097 48.3973 99.7761 49.8533 99.1348 50.876C98.4935 51.8987 97.6528 52.41 96.6128 52.41C95.5728 52.41 94.7321 51.8987 94.0908 50.876C93.4668 49.8533 93.1548 48.3973 93.1548 46.508C93.1548 44.6707 93.4668 43.2407 94.0908 42.218C94.7321 41.178 95.5728 40.658 96.6128 40.658ZM135.419 44.688V36.862H132.767V38.812H122.315V36.862H119.663V44.688H135.419ZM132.767 40.788V42.66H122.315V40.788H132.767ZM128.867 48.432H138.175V46.3H116.881V48.432H126.163V50.356H119.403V52.358H132.871V54.022H119.481V59.794H136.173V57.74H122.133V55.894H135.497V50.356H128.867V48.432ZM161.287 48.016V45.78H157.725V36.498H155.047V59.976H157.725V48.016H161.287ZM151.589 38.994H140.695V41.178H148.911C148.374 46.5513 145.245 50.7113 139.525 53.658L141.007 55.712C142.931 54.7413 144.561 53.6493 145.895 52.436C147.23 51.2053 148.322 49.8793 149.171 48.458C150.021 47.0367 150.636 45.5287 151.017 43.934C151.399 42.3393 151.589 40.6927 151.589 38.994ZM176.053 40.918V38.76H170.463V36.316H167.785V38.76H162.195V40.918H176.053ZM183.827 44.584V42.374H180.499V36.524H177.821V50.226H180.499V44.584H183.827ZM174.805 45.91C174.805 45.286 174.667 44.7227 174.389 44.22C174.112 43.7173 173.722 43.284 173.219 42.92C172.734 42.556 172.136 42.2787 171.425 42.088C170.732 41.88 169.961 41.776 169.111 41.776C168.262 41.776 167.491 41.88 166.797 42.088C166.104 42.2787 165.506 42.556 165.003 42.92C164.501 43.284 164.111 43.7173 163.833 44.22C163.556 44.7227 163.417 45.286 163.417 45.91C163.417 46.534 163.556 47.106 163.833 47.626C164.111 48.1287 164.501 48.562 165.003 48.926C165.506 49.29 166.104 49.576 166.797 49.784C167.491 49.9747 168.262 50.07 169.111 50.07C169.961 50.07 170.732 49.9747 171.425 49.784C172.136 49.576 172.734 49.29 173.219 48.926C173.722 48.562 174.112 48.1287 174.389 47.626C174.667 47.106 174.805 46.534 174.805 45.91ZM165.991 45.91C165.991 45.2513 166.277 44.7313 166.849 44.35C167.421 43.9687 168.175 43.778 169.111 43.778C170.047 43.778 170.801 43.9687 171.373 44.35C171.963 44.7313 172.257 45.2513 172.257 45.91C172.257 46.586 171.963 47.1147 171.373 47.496C170.801 47.8773 170.047 48.068 169.111 48.068C168.175 48.068 167.421 47.8773 166.849 47.496C166.277 47.1147 165.991 46.586 165.991 45.91ZM177.847 51.188V53.346H168.149V51.188H165.497V59.716H180.499V51.188H177.847ZM177.847 55.426V57.584H168.149V55.426H177.847ZM204.183 36.524H201.505V60.002H204.183V36.524ZM188.817 51.786V38.812H186.165V54.074H188.167C190.004 54.074 191.859 53.996 193.731 53.84C195.62 53.6667 197.588 53.372 199.633 52.956L199.347 50.72C197.458 51.1013 195.646 51.37 193.913 51.526C192.197 51.682 190.498 51.7687 188.817 51.786ZM229.245 47.756V45.546H225.579V36.498H222.901V60.028H225.579V47.756H229.245ZM211.019 52.02V40.918H219.261V38.734H208.341V54.256H210.265C211.322 54.256 212.319 54.2473 213.255 54.23C214.208 54.1953 215.127 54.152 216.011 54.1C216.895 54.048 217.762 53.97 218.611 53.866C219.478 53.762 220.353 53.632 221.237 53.476L220.951 51.266C220.136 51.4047 219.339 51.526 218.559 51.63C217.779 51.7167 216.982 51.7947 216.167 51.864C215.37 51.916 214.546 51.9593 213.697 51.994C212.848 52.0113 211.955 52.02 211.019 52.02Z" fill="black"/>
</svg>
