<svg width="22" height="12" viewBox="0 0 22 12" fill="none" xmlns="http://www.w3.org/2000/svg">
<path d="M9.16 11.924V6.152H10.684V4.76H9.16V1.172H7.552V11.924H9.16ZM0.424 1.604V10.04L7.072 9.668V8.324L2.032 8.552V2.948H6.232V1.604H0.424ZM21.776 7.604V6.284H11.216V7.604H21.776ZM20.672 11.852V8.18H12.296V11.852H20.672ZM13.904 9.5H19.064V10.508H13.904V9.5ZM12.848 3.284C12.848 4.784 14.444 5.78 16.496 5.78C18.548 5.78 20.144 4.784 20.144 3.284C20.144 1.784 18.548 0.788 16.496 0.788C14.444 0.788 12.848 1.784 12.848 3.284ZM16.496 2.132C17.612 2.132 18.536 2.612 18.536 3.284C18.536 3.956 17.612 4.436 16.496 4.436C15.38 4.436 14.456 3.956 14.456 3.284C14.456 2.612 15.38 2.132 16.496 2.132Z" fill="white"/>
</svg>
