<svg width="50" height="112" viewBox="0 0 50 112" fill="none" xmlns="http://www.w3.org/2000/svg">
<path d="M8.281 11.65V5.618H10.153V11.962H11.141V0.379H10.153V4.734H8.281V0.508999H7.306V11.65H8.281ZM1.196 0.950999V9.869L6.656 9.557V8.712L2.171 8.907V1.809H5.85V0.950999H1.196ZM23.1314 11.897V11.078H14.9284V10.09H22.8584V7.555H18.9844V6.58H24.1064V5.774H12.7184V6.58H17.9704V7.555H13.9404V8.361H21.8704V9.297H13.9404V11.897H23.1314ZM23.5994 4.253C22.1044 4.175 20.6874 3.902 19.6214 3.356C19.3614 3.226 19.1274 3.07 18.9194 2.901C18.9844 2.784 19.0364 2.68 19.0754 2.563H22.8974V1.757H13.8754V2.563H17.9574C17.8534 2.758 17.7104 2.927 17.5284 3.083C16.5924 3.863 14.9024 4.279 13.1994 4.357L13.6284 5.137C14.9934 5.072 16.8914 4.669 18.0744 3.798L18.3994 3.538C18.6594 3.733 18.9454 3.915 19.2574 4.071C20.4404 4.656 21.8964 4.994 23.1574 5.046L23.5994 4.253ZM20.8564 0.222999H15.9164V1.029H20.8564V0.222999ZM26.2167 7.607V11.897H35.1347V7.607H26.2167ZM24.9947 5.124V5.982H36.3827V5.124H34.7057C34.8227 4.552 34.9267 3.941 35.0047 3.278C35.0957 2.485 35.1737 1.588 35.2127 0.586999H26.0997V1.419H34.1987C34.1597 2.095 34.0947 2.771 34.0167 3.434C33.9517 3.993 33.8607 4.552 33.7307 5.124H24.9947ZM34.1467 8.439V11.039H27.2047V8.439H34.1467ZM40.2741 0.444C38.6101 0.444 37.2841 1.77 37.2841 3.577C37.2841 5.384 38.6101 6.71 40.2741 6.71C41.9381 6.71 43.2641 5.384 43.2641 3.577C43.2641 1.77 41.9381 0.444 40.2741 0.444ZM45.3051 7.282V3.967H46.9691V7.282H47.9571V0.379H46.9691V3.109H45.3051V0.483H44.3301V7.282H45.3051ZM40.2741 5.852C39.0651 5.852 38.2591 4.916 38.2591 3.577C38.2591 2.238 39.0651 1.302 40.2741 1.302C41.4831 1.302 42.2891 2.238 42.2891 3.577C42.2891 4.916 41.4831 5.852 40.2741 5.852ZM47.9311 12.04V7.932H38.8311V8.79H46.9431V12.04H47.9311Z" fill="#666666"/>
<path d="M8.502 39.203C7.215 38.683 6.071 37.838 5.265 36.772C5.096 36.551 4.953 36.317 4.823 36.07L4.953 35.719C5.174 35.043 5.304 34.328 5.317 33.587H4.303C4.16 36.187 2.756 38.501 0.26 39.645L0.884 40.334C2.145 39.71 3.237 38.761 4.017 37.604C4.16 37.396 4.303 37.175 4.42 36.954C4.511 37.11 4.628 37.266 4.745 37.409C5.59 38.514 6.747 39.45 7.904 39.97L8.502 39.203ZM11.349 44.845V43.987H3.419V41.023H2.431V44.845H11.349ZM11.024 41.933V33.379H10.036V41.933H11.024ZM19.5824 39.983C17.3854 39.983 15.8904 41.088 15.8904 42.596C15.8904 44.104 17.3854 45.209 19.5824 45.209C21.7534 45.209 23.2744 44.104 23.2744 42.596C23.2744 41.088 21.7534 39.983 19.5824 39.983ZM19.5824 44.377C17.8534 44.377 16.8784 43.636 16.8784 42.596C16.8784 41.556 17.8534 40.815 19.5824 40.815C21.3114 40.815 22.2864 41.556 22.2864 42.596C22.2864 43.636 21.3114 44.377 19.5824 44.377ZM20.6224 35.719V34.913H13.4204V35.719H16.6834C16.6184 35.966 16.5274 36.213 16.4104 36.434C15.7474 37.747 14.3564 38.735 12.6144 39.203L13.1734 39.944C14.2524 39.632 15.4094 38.995 16.2934 38.15C16.5664 37.89 16.8004 37.617 16.9954 37.331L17.4114 37.76C18.3474 38.592 19.5304 39.19 20.6614 39.398L21.1684 38.566C19.9334 38.384 18.7504 37.851 17.9314 37.11C17.7494 36.941 17.5934 36.772 17.4504 36.59C17.5934 36.317 17.6844 36.018 17.7494 35.719H20.6224ZM23.3004 40.1V33.379H22.3124V36.512H20.0634V37.344H22.3124V40.1H23.3004ZM19.1144 34.016V33.21H14.9284V34.016H19.1144ZM35.4467 39.45V33.379H34.4587V39.45H35.4467ZM35.7067 44.897V44.039H27.8287V42.843H35.4467V40.048H26.8407V40.88H34.4587V42.037H26.8407V44.897H35.7067ZM28.7257 33.288C26.8927 33.288 25.3977 34.523 25.3977 36.252C25.3977 37.981 26.8927 39.216 28.7257 39.216C30.5587 39.216 32.0537 37.981 32.0537 36.252C32.0537 34.523 30.5587 33.288 28.7257 33.288ZM28.7257 38.384C27.3347 38.384 26.3857 37.487 26.3857 36.252C26.3857 35.017 27.3347 34.12 28.7257 34.12C30.1167 34.12 31.0657 35.017 31.0657 36.252C31.0657 37.487 30.1167 38.384 28.7257 38.384ZM45.3181 42.193C44.4601 41.634 43.6801 40.971 42.9911 40.204C42.3151 39.45 41.7821 38.644 41.4051 37.786C41.4571 37.617 41.5091 37.448 41.5481 37.266C41.7561 36.486 41.8861 35.641 41.9381 34.731H44.7721V33.873H37.5831V34.731H40.8981C40.8331 35.55 40.7161 36.317 40.5341 37.032C39.9101 39.541 38.5971 41.413 36.8681 42.622L37.5311 43.311C38.7661 42.388 39.8321 41.218 40.6121 39.723C40.7551 39.45 40.8981 39.164 41.0151 38.865C41.1581 39.138 41.3271 39.398 41.4961 39.658C42.3801 40.958 43.5241 42.154 44.6551 42.96L45.3181 42.193ZM47.1641 44.975V38.683H49.0491V37.799H47.1641V33.379H46.1761V44.975H47.1641Z" fill="#666666"/>
<path d="M6.136 71.813H1.937V67.64H6.136V71.813ZM0.949 66.782V72.671H7.124V66.782H0.949ZM10.478 74.933V70.253H12.077V69.369H10.478V66.379H9.49V74.933H10.478ZM10.855 77.845V76.987H3.055V74.023H2.067V77.845H10.855ZM23.1314 77.975V66.379H22.1434V77.975H23.1314ZM13.6024 67.731H18.5944C18.4514 70.825 16.4624 73.919 13.2384 75.479L13.8884 76.207C17.2554 74.439 19.6994 71.137 19.6604 66.873H13.6024V67.731ZM35.4467 72.45V66.379H34.4587V72.45H35.4467ZM35.7067 77.897V77.039H27.8287V75.843H35.4467V73.048H26.8407V73.88H34.4587V75.037H26.8407V77.897H35.7067ZM28.7257 66.288C26.8927 66.288 25.3977 67.523 25.3977 69.252C25.3977 70.981 26.8927 72.216 28.7257 72.216C30.5587 72.216 32.0537 70.981 32.0537 69.252C32.0537 67.523 30.5587 66.288 28.7257 66.288ZM28.7257 71.384C27.3347 71.384 26.3857 70.487 26.3857 69.252C26.3857 68.017 27.3347 67.12 28.7257 67.12C30.1167 67.12 31.0657 68.017 31.0657 69.252C31.0657 70.487 30.1167 71.384 28.7257 71.384ZM45.3181 75.193C44.4601 74.634 43.6801 73.971 42.9911 73.204C42.3151 72.45 41.7821 71.644 41.4051 70.786C41.4571 70.617 41.5091 70.448 41.5481 70.266C41.7561 69.486 41.8861 68.641 41.9381 67.731H44.7721V66.873H37.5831V67.731H40.8981C40.8331 68.55 40.7161 69.317 40.5341 70.032C39.9101 72.541 38.5971 74.413 36.8681 75.622L37.5311 76.311C38.7661 75.388 39.8321 74.218 40.6121 72.723C40.7551 72.45 40.8981 72.164 41.0151 71.865C41.1581 72.138 41.3271 72.398 41.4961 72.658C42.3801 73.958 43.5241 75.154 44.6551 75.96L45.3181 75.193ZM47.1641 77.975V71.683H49.0491V70.799H47.1641V66.379H46.1761V77.975H47.1641Z" fill="#666666"/>
<path d="M7.072 105.723C4.875 105.723 3.38 106.88 3.38 108.466C3.38 110.052 4.875 111.209 7.072 111.209C9.243 111.209 10.764 110.052 10.764 108.466C10.764 106.88 9.243 105.723 7.072 105.723ZM7.072 110.351C5.356 110.351 4.368 109.558 4.368 108.466C4.368 107.374 5.356 106.581 7.072 106.581C8.788 106.581 9.776 107.374 9.776 108.466C9.776 109.558 8.788 110.351 7.072 110.351ZM8.372 104.241C7.553 103.968 6.786 103.565 6.084 103.045C5.525 102.629 5.057 102.148 4.706 101.602L4.745 101.485C5.005 100.874 5.148 100.25 5.187 99.587H4.173C3.965 101.875 2.444 103.851 0.13 104.787L0.702 105.502C1.846 105.021 2.925 104.189 3.744 103.162C3.939 102.915 4.121 102.655 4.29 102.382C4.407 102.525 4.524 102.681 4.654 102.824C5.499 103.773 6.669 104.618 7.8 105.034L8.372 104.241ZM10.608 105.84V102.798H12.207V101.914H10.608V99.379H9.62V105.84H10.608ZM21.2074 107.036V106.23L17.3334 106.282V105.359C17.5674 105.333 17.7884 105.294 17.9964 105.229C19.0754 104.891 19.7904 104.163 19.7904 103.149C19.7904 102.408 19.3484 101.81 18.7764 101.589H20.6224V100.783H13.0304V101.589H14.8764C14.3044 101.81 13.8624 102.408 13.8624 103.149C13.8624 104.163 14.5904 104.891 15.6434 105.229C15.8644 105.294 16.0854 105.333 16.3194 105.359V106.295L12.6144 106.334V107.166L21.2074 107.036ZM22.8194 108.414V104.033H24.3534V103.149H22.8194V99.379H21.8314V108.414H22.8194ZM16.8264 104.579C15.5394 104.579 14.8244 103.981 14.8244 103.149C14.8244 102.33 15.5264 101.589 16.8264 101.589C18.1264 101.589 18.8284 102.33 18.8284 103.149C18.8284 103.981 18.1134 104.579 16.8264 104.579ZM23.1834 110.754V109.922H15.1364V107.855H14.1484V110.754H23.1834ZM14.7334 99.223V100.029H18.9194V99.223H14.7334ZM31.4947 105.827C29.2977 105.827 27.8027 106.919 27.8027 108.518C27.8027 110.117 29.2977 111.209 31.4947 111.209C33.6657 111.209 35.1867 110.117 35.1867 108.518C35.1867 106.919 33.6657 105.827 31.4947 105.827ZM30.6887 99.652V101.55H26.4897V99.652H25.5017V105.216H31.6767V99.652H30.6887ZM31.4947 110.351C29.7657 110.351 28.7907 109.61 28.7907 108.518C28.7907 107.426 29.7657 106.685 31.4947 106.685C33.2237 106.685 34.1987 107.426 34.1987 108.518C34.1987 109.61 33.2237 110.351 31.4947 110.351ZM26.4897 104.358V102.408H30.6887V104.358H26.4897ZM35.0307 105.944V102.863H36.6297V101.979H35.0307V99.379H34.0427V105.944H35.0307ZM45.3311 104.943C44.0571 104.449 42.9001 103.63 42.1071 102.603C41.9381 102.382 41.7951 102.161 41.6651 101.94C41.7041 101.836 41.7301 101.732 41.7691 101.641C42.0031 100.978 42.1331 100.302 42.1461 99.587H41.1321C41.0281 101.992 39.5851 104.306 37.0891 105.385L37.7131 106.074C38.9481 105.489 40.0401 104.566 40.8331 103.461C40.9761 103.24 41.1191 103.032 41.2361 102.811C41.3401 102.954 41.4441 103.097 41.5611 103.24C42.4061 104.306 43.6021 105.216 44.7331 105.71L45.3311 104.943ZM47.8271 111.027V106.932H38.8571V107.79H46.8391V111.027H47.8271ZM47.8531 106.282V99.379H46.8651V106.282H47.8531Z" fill="#666666"/>
</svg>
