<svg width="91" height="112" viewBox="0 0 91 112" fill="none" xmlns="http://www.w3.org/2000/svg">
<path d="M8.281 11.65V5.618H10.153V11.962H11.141V0.379H10.153V4.734H8.281V0.508999H7.306V11.65H8.281ZM1.196 0.950999V9.869L6.656 9.557V8.712L2.171 8.907V1.809H5.85V0.950999H1.196ZM23.1314 11.897V11.078H14.9284V10.09H22.8584V7.555H18.9844V6.58H24.1064V5.774H12.7184V6.58H17.9704V7.555H13.9404V8.361H21.8704V9.297H13.9404V11.897H23.1314ZM23.5994 4.253C22.1044 4.175 20.6874 3.902 19.6214 3.356C19.3614 3.226 19.1274 3.07 18.9194 2.901C18.9844 2.784 19.0364 2.68 19.0754 2.563H22.8974V1.757H13.8754V2.563H17.9574C17.8534 2.758 17.7104 2.927 17.5284 3.083C16.5924 3.863 14.9024 4.279 13.1994 4.357L13.6284 5.137C14.9934 5.072 16.8914 4.669 18.0744 3.798L18.3994 3.538C18.6594 3.733 18.9454 3.915 19.2574 4.071C20.4404 4.656 21.8964 4.994 23.1574 5.046L23.5994 4.253ZM20.8564 0.222999H15.9164V1.029H20.8564V0.222999ZM26.2167 7.607V11.897H35.1347V7.607H26.2167ZM24.9947 5.124V5.982H36.3827V5.124H34.7057C34.8227 4.552 34.9267 3.941 35.0047 3.278C35.0957 2.485 35.1737 1.588 35.2127 0.586999H26.0997V1.419H34.1987C34.1597 2.095 34.0947 2.771 34.0167 3.434C33.9517 3.993 33.8607 4.552 33.7307 5.124H24.9947ZM34.1467 8.439V11.039H27.2047V8.439H34.1467ZM47.2827 7.269C45.1247 7.269 43.4607 8.27 43.4607 9.869C43.4607 11.468 45.1247 12.469 47.2827 12.469C49.4407 12.469 51.1047 11.468 51.1047 9.869C51.1047 8.27 49.4407 7.269 47.2827 7.269ZM47.2827 11.637C45.6967 11.637 44.4487 10.961 44.4487 9.869C44.4487 8.777 45.6967 8.101 47.2827 8.101C48.8687 8.101 50.1167 8.777 50.1167 9.869C50.1167 10.961 48.8687 11.637 47.2827 11.637ZM41.5367 5.735V6.567H52.9247V5.735H47.7377V4.058H46.7237V5.735H41.5367ZM52.4437 3.85C50.9227 3.616 49.5447 3.148 48.4787 2.498C48.1407 2.277 47.8417 2.043 47.5947 1.783C47.8677 1.354 48.0107 0.885999 48.0497 0.391999H47.0097C46.8667 2.134 44.5007 3.642 42.0177 3.954L42.4727 4.695C43.7077 4.539 45.0727 4.006 46.1257 3.265C46.4897 3.005 46.8147 2.719 47.0877 2.42C47.7507 3.005 48.5177 3.486 49.3627 3.85C50.2207 4.227 51.0917 4.474 51.9757 4.604L52.4437 3.85ZM55.0351 7.607V11.897H63.9531V7.607H55.0351ZM53.8131 5.124V5.982H65.2011V5.124H63.5241C63.6411 4.552 63.7451 3.941 63.8231 3.278C63.9141 2.485 63.9921 1.588 64.0311 0.586999H54.9181V1.419H63.0171C62.9781 2.095 62.9131 2.771 62.8351 3.434C62.7701 3.993 62.6791 4.552 62.5491 5.124H53.8131ZM62.9651 8.439V11.039H56.0231V8.439H62.9651ZM74.4355 9.453C73.5385 8.959 72.7585 8.348 72.0695 7.607C71.4585 6.957 70.9775 6.255 70.6265 5.501C70.8215 4.89 70.9515 4.253 71.0165 3.564H73.8375V2.706H66.7915V3.564H69.9635C69.9115 4.188 69.8075 4.773 69.6385 5.306C68.9885 7.373 67.6495 8.855 65.9985 9.804L66.6225 10.493C67.7145 9.83 68.7935 8.868 69.6125 7.62C69.8335 7.269 70.0415 6.905 70.2235 6.502C70.3535 6.723 70.4965 6.931 70.6395 7.152C71.4975 8.361 72.6025 9.479 73.7855 10.233L74.4355 9.453ZM76.7625 11.975V0.379H75.7745V5.28H73.1745V6.164H75.7745V11.975H76.7625ZM72.3555 1.341V0.483H68.3255V1.341H72.3555Z" fill="#666666"/>
<path d="M10.894 41.933V33.379H9.906V41.933H10.894ZM11.219 44.845V43.987H3.289V41.023H2.301V44.845H11.219ZM4.173 33.34C2.262 33.34 0.793 34.692 0.793 36.564C0.793 38.436 2.262 39.788 4.173 39.788C6.084 39.788 7.553 38.436 7.553 36.564C7.553 34.692 6.084 33.34 4.173 33.34ZM4.173 38.93C2.717 38.93 1.781 37.955 1.781 36.564C1.781 35.173 2.717 34.198 4.173 34.198C5.629 34.198 6.565 35.173 6.565 36.564C6.565 37.955 5.629 38.93 4.173 38.93ZM21.0254 42.193C20.1674 41.634 19.3874 40.971 18.6984 40.204C18.0224 39.45 17.4894 38.644 17.1124 37.786C17.1644 37.617 17.2164 37.448 17.2554 37.266C17.4634 36.486 17.5934 35.641 17.6454 34.731H20.4794V33.873H13.2904V34.731H16.6054C16.5404 35.55 16.4234 36.317 16.2414 37.032C15.6174 39.541 14.3044 41.413 12.5754 42.622L13.2384 43.311C14.4734 42.388 15.5394 41.218 16.3194 39.723C16.4624 39.45 16.6054 39.164 16.7224 38.865C16.8654 39.138 17.0344 39.398 17.2034 39.658C18.0874 40.958 19.2314 42.154 20.3624 42.96L21.0254 42.193ZM23.3914 44.975V33.379H22.4034V44.975H23.3914ZM32.8337 44.65V38.618H34.7057V44.962H35.6937V33.379H34.7057V37.734H32.8337V33.509H31.8587V44.65H32.8337ZM25.7487 33.951V42.869L31.2087 42.557V41.712L26.7237 41.907V34.809H30.4027V33.951H25.7487ZM48.4007 39.983C46.2037 39.983 44.7087 41.088 44.7087 42.596C44.7087 44.104 46.2037 45.209 48.4007 45.209C50.5717 45.209 52.0927 44.104 52.0927 42.596C52.0927 41.088 50.5717 39.983 48.4007 39.983ZM48.4007 44.377C46.6717 44.377 45.6967 43.636 45.6967 42.596C45.6967 41.556 46.6717 40.815 48.4007 40.815C50.1297 40.815 51.1047 41.556 51.1047 42.596C51.1047 43.636 50.1297 44.377 48.4007 44.377ZM49.4407 35.719V34.913H42.2387V35.719H45.5017C45.4367 35.966 45.3457 36.213 45.2287 36.434C44.5657 37.747 43.1747 38.735 41.4327 39.203L41.9917 39.944C43.0707 39.632 44.2277 38.995 45.1117 38.15C45.3847 37.89 45.6187 37.617 45.8137 37.331L46.2297 37.76C47.1657 38.592 48.3487 39.19 49.4797 39.398L49.9867 38.566C48.7517 38.384 47.5687 37.851 46.7497 37.11C46.5677 36.941 46.4117 36.772 46.2687 36.59C46.4117 36.317 46.5027 36.018 46.5677 35.719H49.4407ZM52.1187 40.1V33.379H51.1307V36.512H48.8817V37.344H51.1307V40.1H52.1187ZM47.9327 34.016V33.21H43.7467V34.016H47.9327ZM59.8841 44.975V40.035H65.2011V39.177H63.3811C63.5241 38.449 63.6541 37.682 63.7711 36.863C63.9011 35.927 63.9921 34.887 64.0311 33.743H54.9181V34.601H63.0171C62.9781 35.394 62.8871 36.2 62.7701 37.045C62.6531 37.773 62.5361 38.488 62.3931 39.177H53.8131V40.035H58.8701V44.975H59.8841ZM72.5895 39.827C70.3925 39.827 68.8975 40.919 68.8975 42.518C68.8975 44.117 70.3925 45.209 72.5895 45.209C74.7605 45.209 76.2815 44.117 76.2815 42.518C76.2815 40.919 74.7605 39.827 72.5895 39.827ZM71.7835 33.652V35.55H67.5845V33.652H66.5965V39.216H72.7715V33.652H71.7835ZM72.5895 44.351C70.8605 44.351 69.8855 43.61 69.8855 42.518C69.8855 41.426 70.8605 40.685 72.5895 40.685C74.3185 40.685 75.2935 41.426 75.2935 42.518C75.2935 43.61 74.3185 44.351 72.5895 44.351ZM67.5845 38.358V36.408H71.7835V38.358H67.5845ZM76.1255 39.944V36.863H77.7245V35.979H76.1255V33.379H75.1375V39.944H76.1255ZM84.2678 33.652V35.55H80.0688V33.652H79.0808V39.216H85.2558V36.72H87.8298V39.619H88.8178V33.379H87.8298V35.862H85.2558V33.652H84.2678ZM87.8038 40.217V41.569H81.1998V40.217H80.2118V44.897H88.7918V40.217H87.8038ZM81.1998 44.039V42.401H87.8038V44.039H81.1998ZM80.0688 38.358V36.408H84.2678V38.358H80.0688Z" fill="#666666"/>
<path d="M10.894 74.933V66.379H9.906V74.933H10.894ZM11.219 77.845V76.987H3.289V74.023H2.301V77.845H11.219ZM4.173 66.34C2.262 66.34 0.793 67.692 0.793 69.564C0.793 71.436 2.262 72.788 4.173 72.788C6.084 72.788 7.553 71.436 7.553 69.564C7.553 67.692 6.084 66.34 4.173 66.34ZM4.173 71.93C2.717 71.93 1.781 70.955 1.781 69.564C1.781 68.173 2.717 67.198 4.173 67.198C5.629 67.198 6.565 68.173 6.565 69.564C6.565 70.955 5.629 71.93 4.173 71.93ZM21.0254 75.193C20.1674 74.634 19.3874 73.971 18.6984 73.204C18.0224 72.45 17.4894 71.644 17.1124 70.786C17.1644 70.617 17.2164 70.448 17.2554 70.266C17.4634 69.486 17.5934 68.641 17.6454 67.731H20.4794V66.873H13.2904V67.731H16.6054C16.5404 68.55 16.4234 69.317 16.2414 70.032C15.6174 72.541 14.3044 74.413 12.5754 75.622L13.2384 76.311C14.4734 75.388 15.5394 74.218 16.3194 72.723C16.4624 72.45 16.6054 72.164 16.7224 71.865C16.8654 72.138 17.0344 72.398 17.2034 72.658C18.0874 73.958 19.2314 75.154 20.3624 75.96L21.0254 75.193ZM23.3914 77.975V66.379H22.4034V77.975H23.3914ZM32.8337 77.65V71.618H34.7057V77.962H35.6937V66.379H34.7057V70.734H32.8337V66.509H31.8587V77.65H32.8337ZM25.7487 66.951V75.869L31.2087 75.557V74.712L26.7237 74.907V67.809H30.4027V66.951H25.7487Z" fill="#666666"/>
<path d="M6.188 106.659C4.03 106.659 2.366 107.556 2.366 109.064C2.366 110.572 4.03 111.469 6.188 111.469C8.346 111.469 10.01 110.572 10.01 109.064C10.01 107.556 8.346 106.659 6.188 106.659ZM11.323 103.539C9.815 103.409 8.411 103.084 7.345 102.538C7.059 102.395 6.812 102.226 6.591 102.031C6.682 101.888 6.747 101.732 6.799 101.563H10.621V100.757H1.599V101.563H5.681C5.59 101.771 5.447 101.966 5.265 102.135C4.381 102.993 2.73 103.487 0.923 103.617L1.352 104.397C2.444 104.332 3.757 104.02 4.836 103.487C5.304 103.266 5.707 102.993 6.058 102.668C6.331 102.889 6.643 103.084 6.968 103.253C8.151 103.877 9.594 104.254 10.881 104.332L11.323 103.539ZM6.188 110.663C4.602 110.663 3.354 110.078 3.354 109.064C3.354 108.063 4.602 107.465 6.188 107.465C7.774 107.465 9.022 108.063 9.022 109.064C9.022 110.078 7.774 110.663 6.188 110.663ZM0.442 105.229V106.035H11.83V105.229H6.643V103.89H5.629V105.229H0.442ZM8.58 99.223H3.64V100.029H8.58V99.223ZM22.73 106.269C20.572 106.269 18.908 107.27 18.908 108.869C18.908 110.468 20.572 111.469 22.73 111.469C24.888 111.469 26.552 110.468 26.552 108.869C26.552 107.27 24.888 106.269 22.73 106.269ZM22.73 110.637C21.144 110.637 19.896 109.961 19.896 108.869C19.896 107.777 21.144 107.101 22.73 107.101C24.316 107.101 25.564 107.777 25.564 108.869C25.564 109.961 24.316 110.637 22.73 110.637ZM16.984 104.735V105.567H28.372V104.735H23.185V103.058H22.171V104.735H16.984ZM27.891 102.85C26.37 102.616 24.992 102.148 23.926 101.498C23.588 101.277 23.289 101.043 23.042 100.783C23.315 100.354 23.458 99.886 23.497 99.392H22.457C22.314 101.134 19.948 102.642 17.465 102.954L17.92 103.695C19.155 103.539 20.52 103.006 21.573 102.265C21.937 102.005 22.262 101.719 22.535 101.42C23.198 102.005 23.965 102.486 24.81 102.85C25.668 103.227 26.539 103.474 27.423 103.604L27.891 102.85ZM30.4824 106.607V110.897H39.4004V106.607H30.4824ZM29.2604 104.124V104.982H40.6484V104.124H38.9714C39.0884 103.552 39.1924 102.941 39.2704 102.278C39.3614 101.485 39.4394 100.588 39.4784 99.587H30.3654V100.419H38.4644C38.4254 101.095 38.3604 101.771 38.2824 102.434C38.2174 102.993 38.1264 103.552 37.9964 104.124H29.2604ZM38.4124 107.439V110.039H31.4704V107.439H38.4124ZM42.7587 106.607V110.897H51.6767V106.607H42.7587ZM41.5367 104.124V104.982H52.9247V104.124H51.2477C51.3647 103.552 51.4687 102.941 51.5467 102.278C51.6377 101.485 51.7157 100.588 51.7547 99.587H42.6417V100.419H50.7407C50.7017 101.095 50.6367 101.771 50.5587 102.434C50.4937 102.993 50.4027 103.552 50.2727 104.124H41.5367ZM50.6887 107.439V110.039H43.7467V107.439H50.6887ZM56.8161 99.444C55.1521 99.444 53.8261 100.77 53.8261 102.577C53.8261 104.384 55.1521 105.71 56.8161 105.71C58.4801 105.71 59.8061 104.384 59.8061 102.577C59.8061 100.77 58.4801 99.444 56.8161 99.444ZM61.8471 106.282V102.967H63.5111V106.282H64.4991V99.379H63.5111V102.109H61.8471V99.483H60.8721V106.282H61.8471ZM56.8161 104.852C55.6071 104.852 54.8011 103.916 54.8011 102.577C54.8011 101.238 55.6071 100.302 56.8161 100.302C58.0251 100.302 58.8311 101.238 58.8311 102.577C58.8311 103.916 58.0251 104.852 56.8161 104.852ZM64.4731 111.04V106.932H55.3731V107.79H63.4851V111.04H64.4731Z" fill="#666666"/>
</svg>
