<svg width="172" height="39" viewBox="0 0 172 39" fill="none" xmlns="http://www.w3.org/2000/svg">
<path d="M9.12359 5.887H1.21959V7.213H2.72759C2.29859 7.408 2.05159 7.798 2.05159 8.305C2.05159 9.267 2.85759 9.917 3.96259 10.203C4.07959 10.229 4.20959 10.255 4.32659 10.268V10.775L0.998586 10.814V12.166L9.31859 12.036V10.71L6.09459 10.749V10.255L6.36759 10.203C7.49859 9.917 8.29159 9.267 8.29159 8.305C8.29159 7.798 8.04459 7.408 7.61559 7.213H9.12359V5.887ZM11.5026 16.053V12.673H2.20759V14.077H9.76059V16.053H11.5026ZM11.5286 12.283V9.228H12.8286V7.72H11.5286V4.353H9.78659V12.283H11.5286ZM2.92259 4.093V5.419H7.42059V4.093H2.92259ZM5.17159 7.213C6.05559 7.213 6.54959 7.551 6.54959 8.11C6.54959 8.669 6.05559 9.007 5.17159 9.007C4.28759 9.007 3.79359 8.669 3.79359 8.11C3.79359 7.551 4.28759 7.213 5.17159 7.213ZM20.308 10.593C18.124 10.593 16.551 11.776 16.551 13.466C16.551 15.169 18.124 16.339 20.308 16.339C22.492 16.339 24.065 15.169 24.065 13.466C24.065 11.776 22.492 10.593 20.308 10.593ZM21.608 8.786C20.308 8.552 19.268 8.162 18.501 7.421C18.423 7.343 18.345 7.252 18.28 7.161C18.384 6.94 18.475 6.693 18.553 6.446C18.592 6.342 18.618 6.238 18.644 6.134H21.14V4.73H13.873V6.134H16.824C16.629 6.745 16.317 7.291 15.862 7.772C15.173 8.5 14.263 9.033 13.132 9.358L14.146 10.658C15.186 10.32 16.343 9.618 17.227 8.682L17.461 8.422C17.76 8.747 18.111 9.033 18.488 9.28C19.177 9.722 19.918 10.021 20.711 10.164L21.608 8.786ZM20.516 8.058H22.544V10.71H24.286V4.353H22.544V6.654H20.516V8.058ZM20.308 14.909C19.008 14.909 18.293 14.337 18.293 13.466C18.293 12.595 19.008 12.023 20.308 12.023C21.608 12.023 22.323 12.595 22.323 13.466C22.323 14.337 21.608 14.909 20.308 14.909ZM35.9383 15.923V11.347H26.8643V15.923H35.9383ZM37.1343 10.281V8.825H35.5613C35.6653 8.344 35.7693 7.785 35.8603 7.148C35.9773 6.368 36.0423 5.497 36.0683 4.535H26.7473V5.991H34.2743C34.2483 6.615 34.1443 7.46 33.9623 8.318L33.8453 8.825H25.6943V10.281H37.1343ZM28.6063 12.777H34.1963V14.467H28.6063V12.777ZM46.4077 13.752V12.296L40.4927 12.543V10.034H44.8607V4.73H38.7507V6.212H43.1187V8.565H38.7507V14.155L46.4077 13.752ZM48.6697 16.001V4.353H46.9277V16.001H48.6697ZM54.5517 6.55H59.4787L55.6957 15H57.4767L61.4417 6.095V5.12H54.5517V6.55ZM62.2178 15.936H64.0378V14.116H62.2178V15.936ZM68.1756 4.873C66.0436 4.873 64.6006 6.42 64.6006 8.331C64.6006 10.242 66.0436 11.802 68.1756 11.802C68.3316 11.802 68.4746 11.776 68.6436 11.737L66.8496 14.987H68.6696L71.1266 10.554C71.4386 9.982 71.7506 9.176 71.7506 8.461C71.7506 6.498 70.4766 4.873 68.1756 4.873ZM70.0606 8.331C70.0606 9.527 69.3326 10.372 68.1756 10.372C67.0186 10.372 66.2906 9.488 66.2906 8.331C66.2906 7.187 67.0186 6.303 68.1756 6.303C69.2936 6.303 70.0606 7.239 70.0606 8.331ZM73.7617 15H75.6077L81.4577 5.12H79.6637L73.7617 15ZM77.2977 7.382C77.2977 5.887 76.2577 4.873 74.8407 4.873C73.4237 4.873 72.3837 5.887 72.3837 7.382C72.3837 8.877 73.4237 9.891 74.8407 9.891C76.2577 9.891 77.2977 8.877 77.2977 7.382ZM75.6337 7.382C75.6337 8.071 75.3087 8.461 74.8407 8.461C74.3727 8.461 74.0477 8.071 74.0477 7.382C74.0477 6.693 74.3727 6.303 74.8407 6.303C75.3087 6.303 75.6337 6.693 75.6337 7.382ZM82.9657 12.738C82.9657 11.243 81.9257 10.229 80.5087 10.229C79.0917 10.229 78.0517 11.243 78.0517 12.738C78.0517 14.233 79.0917 15.247 80.5087 15.247C81.9257 15.247 82.9657 14.233 82.9657 12.738ZM81.3017 12.738C81.3017 13.427 80.9767 13.817 80.5087 13.817C80.0407 13.817 79.7157 13.427 79.7157 12.738C79.7157 12.049 80.0407 11.659 80.5087 11.659C80.9767 11.659 81.3017 12.049 81.3017 12.738ZM96.0533 9.514C94.8183 9.15 93.7393 8.617 92.9593 7.811C92.8553 7.694 92.7513 7.564 92.6603 7.434C92.6863 7.369 92.7123 7.291 92.7513 7.226C92.8813 6.901 92.9853 6.55 93.0503 6.199H95.5853V4.743H88.3183V6.199H91.2303C91.0613 6.914 90.7623 7.538 90.3203 8.071C89.6833 8.851 88.7603 9.475 87.5773 9.93L88.6433 11.204C89.7743 10.749 90.8923 9.995 91.7243 8.968L91.8803 8.76L92.0103 8.903C92.8683 9.839 93.9733 10.528 95.1043 10.866L96.0533 9.514ZM98.7053 16.053V11.672H89.3973V13.154H96.9633V16.053H98.7053ZM94.9613 8.357H96.9893V11.152H98.7313V4.353H96.9893V6.901H94.9613V8.357ZM111.58 11.139V9.761H108.941V8.175C109.162 7.993 109.357 7.785 109.5 7.551C109.708 7.226 109.812 6.862 109.812 6.472C109.812 4.899 108.083 3.859 105.86 3.859C104.755 3.859 103.767 4.119 103.052 4.574C101.973 5.198 101.583 6.55 102.207 7.551C102.35 7.785 102.545 7.993 102.779 8.188V9.761H100.14V11.139H111.58ZM105.912 11.529C103.637 11.529 102.025 12.543 102.025 14.064C102.025 15.585 103.637 16.599 105.912 16.599C108.187 16.599 109.799 15.585 109.799 14.064C109.799 12.543 108.187 11.529 105.912 11.529ZM105.86 5.237C107.069 5.237 108.07 5.744 108.07 6.472C108.07 7.2 107.069 7.707 105.86 7.707C104.651 7.707 103.65 7.2 103.65 6.472C103.65 5.744 104.651 5.237 105.86 5.237ZM105.912 15.221C104.508 15.221 103.767 14.753 103.767 14.064C103.767 13.375 104.508 12.907 105.912 12.907C107.316 12.907 108.057 13.375 108.057 14.064C108.057 14.753 107.316 15.221 105.912 15.221ZM105.86 9.085C106.328 9.085 106.77 9.046 107.199 8.955V9.761H104.521V8.955C104.937 9.046 105.379 9.085 105.86 9.085Z" fill="#242D3C"/>
<rect x="118.5" y="0.5" width="53" height="20" rx="10" stroke="#DDDDDD"/>
<path d="M134.2 14.71V11.19H127.22V14.71H134.2ZM135.12 10.37V9.25H133.91C133.99 8.88 134.07 8.45 134.14 7.96C134.23 7.36 134.28 6.69 134.3 5.95H127.13V7.07H132.92C132.9 7.55 132.82 8.2 132.68 8.86L132.59 9.25H126.32V10.37H135.12ZM128.56 12.29H132.86V13.59H128.56V12.29ZM142.253 13.04V11.92L137.703 12.11V10.18H141.063V6.1H136.363V7.24H139.723V9.05H136.363V13.35L142.253 13.04ZM143.993 14.77V5.81H142.653V14.77H143.993ZM148.437 9.66H150.407V14.54H151.707V5.91H150.407V8.5H148.437V9.66ZM145.747 6.13V13.14L149.957 12.9V11.78L147.067 11.9V6.13H145.747ZM153.657 14.76V5.81H152.337V14.76H153.657ZM163.45 14.11V12.97H159.1V9.6H157.74V12.97H154.65V14.11H163.45ZM162.08 12.05C162.45 10.41 162.63 8.4 162.63 6.21H155.46V7.35H161.27C161.27 8.39 161.13 10.44 160.78 12.05H162.08Z" fill="#242D3C"/>
<path d="M79.34 29.01V30.35H74.09V29.01H73.33V33.09H80.1V29.01H79.34ZM77.11 37.75V34.83H81.1V34.17H72.34V34.83H76.33V37.75H77.11ZM74.09 32.43V31.01H79.34V32.43H74.09ZM89.2934 37.75V33H90.7434V32.32H89.2934V28.83H88.5334V37.75H89.2934ZM82.2634 29.87H86.1034C85.9934 32.25 84.4634 34.63 81.9834 35.83L82.4834 36.39C85.0734 35.03 86.9534 32.49 86.9234 29.21H82.2634V29.87ZM97.7567 37.51V28.92H97.0067V31.89H95.3767V32.57H97.0067V37.51H97.7567ZM99.6567 37.74V28.83H98.8967V37.74H99.6567ZM91.6067 36.43C92.4567 35.52 93.1867 34.44 93.6967 33.08C94.2167 34.29 95.0167 35.42 95.9367 36.22L96.4367 35.69C95.3567 34.8 94.4667 33.5 93.9967 32.11C94.2267 31.19 94.3567 30.21 94.3867 29.14H93.6267C93.5767 32.01 92.6067 34.44 91.0467 35.98L91.6067 36.43ZM100.67 33.4V34.06H109.43V33.4H100.67ZM108.78 37.65V36.99H102.41V34.81H101.65V37.65H108.78ZM101.66 28.89V32.13H108.53V31.48H102.42V28.89H101.66ZM121.155 32.77V29.13H114.385V32.77H121.155ZM115.145 29.79H120.395V32.11H115.145V29.79ZM118.165 37.75V34.65H122.155V33.99H113.395V34.65H117.385V37.75H118.165ZM130.948 37.75V28.83H130.188V37.75H130.948ZM125.898 29.25C124.298 29.25 123.068 30.47 123.068 32.27C123.068 34.08 124.298 35.3 125.898 35.3C127.498 35.3 128.728 34.08 128.728 32.27C128.728 30.47 127.498 29.25 125.898 29.25ZM125.898 29.93C127.088 29.93 127.948 30.82 127.948 32.26C127.948 33.67 127.148 34.62 125.898 34.62C124.648 34.62 123.848 33.67 123.848 32.26C123.848 30.82 124.708 29.93 125.898 29.93ZM138.471 35.61C137.811 35.18 137.211 34.67 136.681 34.08C136.161 33.5 135.751 32.88 135.461 32.22C135.501 32.09 135.541 31.96 135.571 31.82C135.731 31.22 135.831 30.57 135.871 29.87H138.051V29.21H132.521V29.87H135.071C135.021 30.5 134.931 31.09 134.791 31.64C134.311 33.57 133.301 35.01 131.971 35.94L132.481 36.47C133.431 35.76 134.251 34.86 134.851 33.71C134.961 33.5 135.071 33.28 135.161 33.05C135.271 33.26 135.401 33.46 135.531 33.66C136.211 34.66 137.091 35.58 137.961 36.2L138.471 35.61ZM139.891 37.75V32.91H141.341V32.23H139.891V28.83H139.131V37.75H139.891ZM149.765 33.55V28.83H149.005V33.55H149.765ZM148.985 34.01V35.09H143.905V34.01H143.145V37.69H149.745V34.01H148.985ZM143.905 37.03V35.73H148.985V37.03H143.905ZM144.595 28.76C143.185 28.76 142.035 29.73 142.035 31.09C142.035 32.45 143.185 33.42 144.595 33.42C146.005 33.42 147.155 32.45 147.155 31.09C147.155 29.73 146.005 28.76 144.595 28.76ZM144.595 32.78C143.525 32.78 142.795 32.08 142.795 31.09C142.795 30.1 143.525 29.4 144.595 29.4C145.665 29.4 146.395 30.1 146.395 31.09C146.395 32.08 145.665 32.78 144.595 32.78ZM159.178 37.75V28.83H158.418V37.75H159.178ZM151.808 29.11V36.08L157.728 35.77V35.11L152.568 35.34V29.11H151.808ZM168.121 37.75V32.71H169.571V32.03H168.121V28.83H167.361V37.75H168.121ZM161.101 29.21V36.13L166.821 35.82V35.16L161.861 35.39V29.87H165.681V29.21H161.101ZM170.225 37.5H171.185V36.54H170.225V37.5Z" fill="#D7191F"/>
</svg>
