<svg width="50" height="79" viewBox="0 0 50 79" fill="none" xmlns="http://www.w3.org/2000/svg">
<path d="M0.442 10.025V10.883H11.83V10.025H6.643V7.087H10.53V0.872999H1.729V7.087H5.629V10.025H0.442ZM2.717 1.731H9.542V6.229H2.717V1.731ZM23.6384 11.897V11.039H15.6304V9.791H23.3784V6.944H14.6424V7.776H22.3904V8.985H14.6424V11.897H23.6384ZM13.3294 0.807999V6.125L18.9974 5.839V5.02L14.3044 5.215V1.64H18.2434V0.807999H13.3294ZM20.8174 6.346V0.483H19.8424V2.862H17.2424V3.694H19.8424V6.346H20.8174ZM23.4044 6.346V0.379H22.4164V6.346H23.4044ZM31.8587 6.723C29.6617 6.723 28.1667 7.88 28.1667 9.466C28.1667 11.052 29.6617 12.209 31.8587 12.209C34.0297 12.209 35.5507 11.052 35.5507 9.466C35.5507 7.88 34.0297 6.723 31.8587 6.723ZM31.8587 11.351C30.1427 11.351 29.1547 10.558 29.1547 9.466C29.1547 8.374 30.1427 7.581 31.8587 7.581C33.5747 7.581 34.5627 8.374 34.5627 9.466C34.5627 10.558 33.5747 11.351 31.8587 11.351ZM32.8207 0.782H25.5537V1.614H28.8817C28.8167 1.939 28.7257 2.238 28.6087 2.537C27.9587 4.071 26.5677 5.293 24.8127 5.917L25.3847 6.658C26.5157 6.229 27.6597 5.449 28.5307 4.461C28.7257 4.24 28.8947 4.019 29.0637 3.772C29.2327 3.967 29.4277 4.162 29.6487 4.344C30.5847 5.15 31.7287 5.774 32.7427 6.112L33.2627 5.293C32.1187 4.981 30.9747 4.383 30.1297 3.668C29.8827 3.46 29.6617 3.239 29.4797 3.018L29.5837 2.823C29.7527 2.433 29.8827 2.03 29.9477 1.614H32.8207V0.782ZM32.0667 3.603H34.5887V6.84H35.5767V0.379H34.5887V2.771H32.0667V3.603ZM37.2711 10.025V10.883H48.6591V10.025H43.4721V7.477H47.3591V0.743H46.3711V3.2H39.5461V0.743H38.5581V7.477H42.4581V10.025H37.2711ZM39.5461 6.619V4.058H46.3711V6.619H39.5461Z" fill="#666666"/>
<path d="M10.205 44.975V38.8H12.09V37.916H10.205V33.379H9.217V44.975H10.205ZM1.066 34.731H6.058C5.915 37.825 3.926 40.919 0.702 42.479L1.352 43.207C4.719 41.439 7.163 38.137 7.124 33.873H1.066V34.731ZM13.6024 34.64H18.4904C18.2434 36.72 16.1114 38.709 12.9914 39.333L13.4594 40.139C16.5924 39.463 19.6344 37.227 19.5824 33.782H13.6024V34.64ZM19.9334 36.057H22.1824V37.682H19.5824V38.527H22.1824V40.282H23.1704V33.379H22.1824V35.212H19.9334V36.057ZM23.1444 45.027V40.932H14.1744V41.79H22.1564V45.027H23.1444Z" fill="#666666"/>
<path d="M8.528 75.453C7.631 74.959 6.851 74.348 6.162 73.607C5.551 72.957 5.07 72.255 4.719 71.501C4.914 70.89 5.044 70.253 5.109 69.564H7.93V68.706H0.884V69.564H4.056C4.004 70.188 3.9 70.773 3.731 71.306C3.081 73.373 1.742 74.855 0.091 75.804L0.715 76.493C1.807 75.83 2.886 74.868 3.705 73.62C3.926 73.269 4.134 72.905 4.316 72.502C4.446 72.723 4.589 72.931 4.732 73.152C5.59 74.361 6.695 75.479 7.878 76.233L8.528 75.453ZM10.335 77.975V71.878H12.22V70.994H10.335V66.379H9.347V77.975H10.335ZM6.448 67.341V66.483H2.418V67.341H6.448ZM19.4004 69.915V66.678H13.2904V67.51H18.4124V69.109H13.2904V72.489L20.9864 72.151V71.332L14.2784 71.579V69.915H19.4004ZM19.2184 72.983C17.0214 72.983 15.5264 74.088 15.5264 75.596C15.5264 77.104 17.0214 78.209 19.2184 78.209C21.3894 78.209 22.9104 77.104 22.9104 75.596C22.9104 74.088 21.3894 72.983 19.2184 72.983ZM19.2184 77.377C17.4894 77.377 16.5144 76.636 16.5144 75.596C16.5144 74.556 17.4894 73.815 19.2184 73.815C20.9474 73.815 21.9224 74.556 21.9224 75.596C21.9224 76.636 20.9474 77.377 19.2184 77.377ZM22.7544 73.1V71.007H24.3534V70.149H22.7544V68.537H24.3534V67.679H22.7544V66.379H21.7664V73.1H22.7544ZM30.8967 66.652V68.875H26.6977V66.652H25.7097V72.866H31.8847V70.123H34.4587V75.037H35.4467V66.379H34.4587V69.239H31.8847V66.652H30.8967ZM35.7717 77.845V76.987H27.8417V74.127H26.8537V77.845H35.7717ZM26.6977 72.008V69.733H30.8967V72.008H26.6977ZM42.9651 69.811C40.8201 69.811 39.1691 70.76 39.1691 72.19C39.1691 73.256 40.1051 74.062 41.4571 74.4C41.7821 74.478 42.1071 74.53 42.4581 74.556V76.025H37.2711V76.883H48.6591V76.025H43.4721V74.556C43.8231 74.53 44.1481 74.478 44.4601 74.4C45.8381 74.075 46.7611 73.256 46.7611 72.19C46.7611 70.76 45.1101 69.811 42.9651 69.811ZM42.9651 73.737C41.3661 73.737 40.1571 73.204 40.1571 72.19C40.1571 71.176 41.3661 70.643 42.9651 70.643C44.5641 70.643 45.7731 71.176 45.7731 72.19C45.7731 73.204 44.5641 73.737 42.9651 73.737ZM47.8791 69.317V68.459H38.0511V69.317H47.8791ZM40.1311 66.613V67.471H45.7991V66.613H40.1311Z" fill="#666666"/>
</svg>
