<svg width="103" height="145" viewBox="0 0 103 145" fill="none" xmlns="http://www.w3.org/2000/svg">
<path d="M59.8755 11.702H61.5655V5.956H62.5795V11.988H64.2955V0.352999H62.5795V4.448H61.5655V0.483H59.8755V11.702ZM54.0125 0.899V9.947L59.3555 9.635V8.179L55.7285 8.335V2.381H58.8745V0.899H54.0125ZM72.4769 6.593C70.2929 6.593 68.7199 7.776 68.7199 9.466C68.7199 11.169 70.2929 12.339 72.4769 12.339C74.6609 12.339 76.2339 11.169 76.2339 9.466C76.2339 7.776 74.6609 6.593 72.4769 6.593ZM73.7509 4.812C72.5289 4.474 71.4369 3.928 70.6569 3.018L70.4229 2.706C70.4359 2.693 70.4359 2.667 70.4489 2.641C70.7219 1.991 70.8649 1.289 70.8779 0.534999H69.1099C68.9929 2.914 67.5759 4.539 65.3009 5.319L66.3669 6.593C67.4459 6.19 68.5639 5.436 69.4089 4.396C69.4999 4.292 69.5779 4.175 69.6689 4.058L69.6819 4.084C70.5399 5.098 71.6709 5.826 72.8019 6.164L73.7509 4.812ZM72.2949 3.486H74.7129V6.71H76.4549V0.352999H74.7129V2.082H72.2949V3.486ZM72.4769 10.909C71.1769 10.909 70.4619 10.337 70.4619 9.466C70.4619 8.595 71.1769 8.023 72.4769 8.023C73.7769 8.023 74.4919 8.595 74.4919 9.466C74.4919 10.337 73.7769 10.909 72.4769 10.909ZM88.3803 11.923V10.61H80.7753V10.103H88.1073V7.113H84.4673V6.385H89.3033V5.007H77.8633V6.385H82.6993V7.113H79.0333V8.413H86.3653V8.907H79.0333V11.923H88.3803ZM88.0553 4.461V0.534999H79.1113V4.461H88.0553ZM80.8533 1.913H86.3133V3.083H80.8533V1.913ZM100.527 6.541V5.072H93.1166V4.266H100.332V0.665H91.3746V2.121H98.6026V2.862H91.3746V6.541H100.527ZM94.5206 11.871V8.803H97.1986V12.001H98.9406V8.803H101.58V7.347H90.1396V8.803H92.7786V11.871H94.5206Z" fill="#242D3C"/>
<path d="M7.72928 36.915C7.72928 35.225 6.36428 33.873 4.19328 33.873C2.63328 33.873 1.38528 34.9 0.696281 36.291L1.95728 37.123C2.47728 36.096 3.30928 35.303 4.19328 35.303C5.31128 35.303 6.03928 36.018 6.03928 36.915C6.03928 37.903 5.36328 38.579 4.70028 39.203L0.735281 42.895V44H7.96328V42.57H3.25728L5.75328 40.308C6.68928 39.476 7.72928 38.423 7.72928 36.915ZM9.37642 36.486L10.2734 37.708L11.7684 36.434V44H13.4584V34.12H12.1324L9.37642 36.486ZM23.0652 36.915C23.0652 35.225 21.7002 33.873 19.5292 33.873C17.9692 33.873 16.7212 34.9 16.0322 36.291L17.2932 37.123C17.8132 36.096 18.6452 35.303 19.5292 35.303C20.6472 35.303 21.3752 36.018 21.3752 36.915C21.3752 37.903 20.6992 38.579 20.0362 39.203L16.0712 42.895V44H23.2992V42.57H18.5932L21.0892 40.308C22.0252 39.476 23.0652 38.423 23.0652 36.915ZM29.4054 38.306H23.8414V39.736H29.4054V38.306ZM34.9008 40.087H32.1708L34.9008 36.85V40.087ZM29.8698 41.517H34.9008V44H36.5908V41.517H38.0208V40.087H36.5908V34.12H35.2258L29.8698 40.425V41.517ZM38.4446 39.06C38.4446 42.284 40.4596 44.247 42.6956 44.247C44.9316 44.247 46.9466 42.284 46.9466 39.06C46.9466 35.836 44.9316 33.873 42.6956 33.873C40.4596 33.873 38.4446 35.836 38.4446 39.06ZM45.2566 39.06C45.2566 41.4 44.0086 42.817 42.6956 42.817C41.3826 42.817 40.1346 41.4 40.1346 39.06C40.1346 36.72 41.3826 35.303 42.6956 35.303C44.0086 35.303 45.2566 36.72 45.2566 39.06ZM53.2091 38.306H47.6451V39.736H53.2091V38.306ZM57.2615 42.817C56.2215 42.817 55.3375 42.102 54.8045 41.023L53.5825 41.92C54.2715 43.272 55.6625 44.247 57.2615 44.247C59.6015 44.247 60.9925 42.791 60.9925 40.958C60.9925 39.411 59.9785 38.007 58.0545 37.799L60.6675 35.251V34.133H54.1415V35.563H58.2235L55.3635 38.436L56.0005 39.58C56.2085 39.424 56.7155 39.151 57.2225 39.151C58.5095 39.151 59.3025 39.931 59.3025 40.958C59.3025 41.998 58.5875 42.817 57.2615 42.817ZM61.6517 39.06C61.6517 42.284 63.6667 44.247 65.9027 44.247C68.1387 44.247 70.1537 42.284 70.1537 39.06C70.1537 35.836 68.1387 33.873 65.9027 33.873C63.6667 33.873 61.6517 35.836 61.6517 39.06ZM68.4637 39.06C68.4637 41.4 67.2157 42.817 65.9027 42.817C64.5897 42.817 63.3417 41.4 63.3417 39.06C63.3417 36.72 64.5897 35.303 65.9027 35.303C67.2157 35.303 68.4637 36.72 68.4637 39.06ZM77.8201 36.915C77.8201 35.225 76.4551 33.873 74.2841 33.873C72.7241 33.873 71.4761 34.9 70.7871 36.291L72.0481 37.123C72.5681 36.096 73.4001 35.303 74.2841 35.303C75.4021 35.303 76.1301 36.018 76.1301 36.915C76.1301 37.903 75.4541 38.579 74.7911 39.203L70.8261 42.895V44H78.0541V42.57H73.3481L75.8441 40.308C76.7801 39.476 77.8201 38.423 77.8201 36.915ZM82.1062 33.873C79.9742 33.873 78.5312 35.42 78.5312 37.331C78.5312 39.242 79.9742 40.802 82.1062 40.802C82.2622 40.802 82.4052 40.776 82.5742 40.737L80.7802 43.987H82.6002L85.0572 39.554C85.3692 38.982 85.6812 38.176 85.6812 37.461C85.6812 35.498 84.4072 33.873 82.1062 33.873ZM83.9912 37.331C83.9912 38.527 83.2632 39.372 82.1062 39.372C80.9492 39.372 80.2212 38.488 80.2212 37.331C80.2212 36.187 80.9492 35.303 82.1062 35.303C83.2242 35.303 83.9912 36.239 83.9912 37.331ZM91.2934 40.087H88.5634L91.2934 36.85V40.087ZM86.2624 41.517H91.2934V44H92.9834V41.517H94.4134V40.087H92.9834V34.12H91.6184L86.2624 40.425V41.517ZM95.5522 36.486L96.4492 37.708L97.9442 36.434V44H99.6342V34.12H98.3082L95.5522 36.486Z" fill="#242D3C"/>
<path d="M93.1628 67.12L96.7508 73.568V77H98.4668V73.555L102.055 67.12H100.261L97.8818 71.592L97.5958 72.164L97.3098 71.592L94.9568 67.12H93.1628Z" fill="#242D3C"/>
<path d="M28.6258 102.915C28.6258 101.225 27.2608 99.873 25.0898 99.873C23.5298 99.873 22.2818 100.9 21.5928 102.291L22.8538 103.123C23.3738 102.096 24.2058 101.303 25.0898 101.303C26.2078 101.303 26.9358 102.018 26.9358 102.915C26.9358 103.903 26.2598 104.579 25.5968 105.203L21.6318 108.895V110H28.8598V108.57H24.1538L26.6498 106.308C27.5858 105.476 28.6258 104.423 28.6258 102.915ZM29.5579 105.06C29.5579 108.284 31.5729 110.247 33.8089 110.247C36.0449 110.247 38.0599 108.284 38.0599 105.06C38.0599 101.836 36.0449 99.873 33.8089 99.873C31.5729 99.873 29.5579 101.836 29.5579 105.06ZM36.3699 105.06C36.3699 107.4 35.1219 108.817 33.8089 108.817C32.4959 108.817 31.2479 107.4 31.2479 105.06C31.2479 102.72 32.4959 101.303 33.8089 101.303C35.1219 101.303 36.3699 102.72 36.3699 105.06ZM45.7264 102.915C45.7264 101.225 44.3614 99.873 42.1904 99.873C40.6304 99.873 39.3824 100.9 38.6934 102.291L39.9544 103.123C40.4744 102.096 41.3064 101.303 42.1904 101.303C43.3084 101.303 44.0364 102.018 44.0364 102.915C44.0364 103.903 43.3604 104.579 42.6974 105.203L38.7324 108.895V110H45.9604V108.57H41.2544L43.7504 106.308C44.6864 105.476 45.7264 104.423 45.7264 102.915ZM46.6585 105.06C46.6585 108.284 48.6735 110.247 50.9095 110.247C53.1455 110.247 55.1605 108.284 55.1605 105.06C55.1605 101.836 53.1455 99.873 50.9095 99.873C48.6735 99.873 46.6585 101.836 46.6585 105.06ZM53.4705 105.06C53.4705 107.4 52.2225 108.817 50.9095 108.817C49.5965 108.817 48.3485 107.4 48.3485 105.06C48.3485 102.72 49.5965 101.303 50.9095 101.303C52.2225 101.303 53.4705 102.72 53.4705 105.06ZM61.4229 104.306H55.8589V105.736H61.4229V104.306ZM62.1214 105.06C62.1214 108.284 64.1364 110.247 66.3724 110.247C68.6084 110.247 70.6234 108.284 70.6234 105.06C70.6234 101.836 68.6084 99.873 66.3724 99.873C64.1364 99.873 62.1214 101.836 62.1214 105.06ZM68.9334 105.06C68.9334 107.4 67.6854 108.817 66.3724 108.817C65.0594 108.817 63.8114 107.4 63.8114 105.06C63.8114 102.72 65.0594 101.303 66.3724 101.303C67.6854 101.303 68.9334 102.72 68.9334 105.06ZM74.8318 108.817C73.7918 108.817 72.9078 108.102 72.3748 107.023L71.1528 107.92C71.8418 109.272 73.2328 110.247 74.8318 110.247C77.1718 110.247 78.5628 108.791 78.5628 106.958C78.5628 105.411 77.5488 104.007 75.6248 103.799L78.2378 101.251V100.133H71.7118V101.563H75.7938L72.9338 104.436L73.5708 105.58C73.7788 105.424 74.2858 105.151 74.7928 105.151C76.0798 105.151 76.8728 105.931 76.8728 106.958C76.8728 107.998 76.1578 108.817 74.8318 108.817ZM84.63 104.306H79.066V105.736H84.63V104.306ZM85.3284 105.06C85.3284 108.284 87.3434 110.247 89.5794 110.247C91.8154 110.247 93.8304 108.284 93.8304 105.06C93.8304 101.836 91.8154 99.873 89.5794 99.873C87.3434 99.873 85.3284 101.836 85.3284 105.06ZM92.1404 105.06C92.1404 107.4 90.8924 108.817 89.5794 108.817C88.2664 108.817 87.0184 107.4 87.0184 105.06C87.0184 102.72 88.2664 101.303 89.5794 101.303C90.8924 101.303 92.1404 102.72 92.1404 105.06ZM98.0389 108.817C96.9989 108.817 96.1149 108.102 95.5819 107.023L94.3599 107.92C95.0489 109.272 96.4399 110.247 98.0389 110.247C100.379 110.247 101.77 108.791 101.77 106.958C101.77 105.411 100.756 104.007 98.8319 103.799L101.445 101.251V100.133H94.9189V101.563H99.0009L96.1409 104.436L96.7779 105.58C96.9859 105.424 97.4929 105.151 97.9999 105.151C99.2869 105.151 100.08 105.931 100.08 106.958C100.08 107.998 99.3649 108.817 98.0389 108.817Z" fill="#242D3C"/>
<path d="M93.1628 133.12L96.7508 139.568V143H98.4668V139.555L102.055 133.12H100.261L97.8818 137.592L97.5958 138.164L97.3098 137.592L94.9568 133.12H93.1628Z" fill="#242D3C"/>
</svg>
