<svg width="91" height="87" viewBox="0 0 91 87" fill="none" xmlns="http://www.w3.org/2000/svg">
<path d="M1.131 0.950999V9.739H5.928V0.950999H1.131ZM8.346 11.65V5.618H10.153V11.962H11.141V0.379H10.153V4.734H8.346V0.508999H7.371V11.65H8.346ZM4.953 8.881H2.106V1.809H4.953V8.881ZM13.4074 0.950999V9.739H18.2044V0.950999H13.4074ZM20.6224 11.65V5.618H22.4294V11.962H23.4174V0.379H22.4294V4.734H20.6224V0.508999H19.6474V11.65H20.6224ZM17.2294 8.881H14.3824V1.809H17.2294V8.881ZM30.1817 7.581H32.1707V11.65H33.1457V0.508999H32.1707V2.901H30.5587V3.772H32.1707V6.71H30.1817V7.581ZM25.5667 1.796H29.2977C29.1937 4.552 27.6207 7.776 25.0597 9.544L25.7747 10.207C28.4137 8.231 30.3767 4.994 30.3377 0.937999H25.5667V1.796ZM35.6937 11.962V0.379H34.7057V11.962H35.6937ZM47.2811 12.027V7.932H38.4411V8.79H46.2931V12.027H47.2811ZM40.7941 0.339999C38.8831 0.339999 37.4141 1.666 37.4141 3.499C37.4141 5.345 38.8831 6.658 40.7941 6.658C42.7051 6.658 44.1741 5.345 44.1741 3.499C44.1741 1.666 42.7051 0.339999 40.7941 0.339999ZM40.7941 5.8C39.2991 5.8 38.4021 4.864 38.4021 3.499C38.4021 2.134 39.2991 1.198 40.7941 1.198C42.2891 1.198 43.1861 2.134 43.1861 3.499C43.1861 4.864 42.2891 5.8 40.7941 5.8ZM47.3071 7.282V5.41H48.9061V4.539H47.3071V2.68H48.9061V1.809H47.3071V0.379H46.3191V7.282H47.3071ZM57.7505 9.154C56.8795 8.595 56.1125 7.906 55.4365 7.1C54.7995 6.333 54.2795 5.54 53.8895 4.708C53.9675 4.435 54.0455 4.149 54.1105 3.863C54.3185 2.914 54.4225 1.874 54.4225 0.743H53.4085C53.3695 4.864 51.8875 7.841 49.3525 9.57L50.0155 10.259C51.3285 9.284 52.4465 8.023 53.2135 6.463C53.3175 6.242 53.4215 6.034 53.5125 5.813C53.6425 6.06 53.7855 6.294 53.9545 6.541C54.7995 7.841 55.9565 9.102 57.0745 9.908L57.7505 9.154ZM60.2205 11.975V0.379H59.2325V4.279H56.2425V5.163H59.2325V11.975H60.2205ZM75.8525 11.975V5.8H77.7375V4.916H75.8525V0.379H74.8645V11.975H75.8525ZM66.7135 1.731H71.7055C71.5625 4.825 69.5735 7.919 66.3495 9.479L66.9995 10.207C70.3665 8.439 72.8105 5.137 72.7715 0.872999H66.7135V1.731ZM79.2498 1.64H84.1378C83.8908 3.72 81.7588 5.709 78.6388 6.333L79.1068 7.139C82.2398 6.463 85.2818 4.227 85.2298 0.782H79.2498V1.64ZM85.5808 3.057H87.8298V4.682H85.2298V5.527H87.8298V7.282H88.8178V0.379H87.8298V2.212H85.5808V3.057ZM88.7918 12.027V7.932H79.8218V8.79H87.8038V12.027H88.7918Z" fill="#666666"/>
<path d="M1.131 37.951V46.739H5.928V37.951H1.131ZM8.346 48.65V42.618H10.153V48.962H11.141V37.379H10.153V41.734H8.346V37.509H7.371V48.65H8.346ZM4.953 45.881H2.106V38.809H4.953V45.881ZM13.4074 37.951V46.739H18.2044V37.951H13.4074ZM20.6224 48.65V42.618H22.4294V48.962H23.4174V37.379H22.4294V41.734H20.6224V37.509H19.6474V48.65H20.6224ZM17.2294 45.881H14.3824V38.809H17.2294V45.881ZM30.1817 44.581H32.1707V48.65H33.1457V37.509H32.1707V39.901H30.5587V40.772H32.1707V43.71H30.1817V44.581ZM25.5667 38.796H29.2977C29.1937 41.552 27.6207 44.776 25.0597 46.544L25.7747 47.207C28.4137 45.231 30.3767 41.994 30.3377 37.938H25.5667V38.796ZM35.6937 48.962V37.379H34.7057V48.962H35.6937ZM47.2811 49.027V44.932H38.4411V45.79H46.2931V49.027H47.2811ZM40.7941 37.34C38.8831 37.34 37.4141 38.666 37.4141 40.499C37.4141 42.345 38.8831 43.658 40.7941 43.658C42.7051 43.658 44.1741 42.345 44.1741 40.499C44.1741 38.666 42.7051 37.34 40.7941 37.34ZM40.7941 42.8C39.2991 42.8 38.4021 41.864 38.4021 40.499C38.4021 39.134 39.2991 38.198 40.7941 38.198C42.2891 38.198 43.1861 39.134 43.1861 40.499C43.1861 41.864 42.2891 42.8 40.7941 42.8ZM47.3071 44.282V42.41H48.9061V41.539H47.3071V39.68H48.9061V38.809H47.3071V37.379H46.3191V44.282H47.3071ZM57.7505 46.154C56.8795 45.595 56.1125 44.906 55.4365 44.1C54.7995 43.333 54.2795 42.54 53.8895 41.708C53.9675 41.435 54.0455 41.149 54.1105 40.863C54.3185 39.914 54.4225 38.874 54.4225 37.743H53.4085C53.3695 41.864 51.8875 44.841 49.3525 46.57L50.0155 47.259C51.3285 46.284 52.4465 45.023 53.2135 43.463C53.3175 43.242 53.4215 43.034 53.5125 42.813C53.6425 43.06 53.7855 43.294 53.9545 43.541C54.7995 44.841 55.9565 46.102 57.0745 46.908L57.7505 46.154ZM60.2205 48.975V37.379H59.2325V41.279H56.2425V42.163H59.2325V48.975H60.2205Z" fill="#666666"/>
<path d="M1.131 74.951V83.739H5.928V74.951H1.131ZM8.346 85.65V79.618H10.153V85.962H11.141V74.379H10.153V78.734H8.346V74.509H7.371V85.65H8.346ZM4.953 82.881H2.106V75.809H4.953V82.881ZM23.1314 85.975V74.379H22.1434V85.975H23.1314ZM13.5504 74.743V83.804L21.2464 83.401V82.543L14.5384 82.842V74.743H13.5504ZM33.3017 83.193C32.4437 82.634 31.6637 81.971 30.9747 81.204C30.2987 80.45 29.7657 79.644 29.3887 78.786C29.4407 78.617 29.4927 78.448 29.5317 78.266C29.7397 77.486 29.8697 76.641 29.9217 75.731H32.7557V74.873H25.5667V75.731H28.8817C28.8167 76.55 28.6997 77.317 28.5177 78.032C27.8937 80.541 26.5807 82.413 24.8517 83.622L25.5147 84.311C26.7497 83.388 27.8157 82.218 28.5957 80.723C28.7387 80.45 28.8817 80.164 28.9987 79.865C29.1417 80.138 29.3107 80.398 29.4797 80.658C30.3637 81.958 31.5077 83.154 32.6387 83.96L33.3017 83.193ZM35.6677 85.975V74.379H34.6797V78.279H31.9107V79.163H34.6797V85.975H35.6677Z" fill="#666666"/>
</svg>
