<svg width="102" height="16" viewBox="0 0 102 16" fill="none" xmlns="http://www.w3.org/2000/svg">
<path d="M7.39041 6.415C7.39041 4.725 6.02541 3.373 3.85441 3.373C2.29441 3.373 1.04641 4.4 0.357414 5.791L1.61841 6.623C2.13841 5.596 2.97041 4.803 3.85441 4.803C4.97241 4.803 5.70041 5.518 5.70041 6.415C5.70041 7.403 5.02441 8.079 4.36141 8.703L0.396414 12.395V13.5H7.62441V12.07H2.91841L5.41441 9.808C6.35041 8.976 7.39041 7.923 7.39041 6.415ZM8.32255 8.56C8.32255 11.784 10.3376 13.747 12.5736 13.747C14.8096 13.747 16.8246 11.784 16.8246 8.56C16.8246 5.336 14.8096 3.373 12.5736 3.373C10.3376 3.373 8.32255 5.336 8.32255 8.56ZM15.1346 8.56C15.1346 10.9 13.8866 12.317 12.5736 12.317C11.2606 12.317 10.0126 10.9 10.0126 8.56C10.0126 6.22 11.2606 4.803 12.5736 4.803C13.8866 4.803 15.1346 6.22 15.1346 8.56ZM24.491 6.415C24.491 4.725 23.126 3.373 20.955 3.373C19.395 3.373 18.147 4.4 17.458 5.791L18.719 6.623C19.239 5.596 20.071 4.803 20.955 4.803C22.073 4.803 22.801 5.518 22.801 6.415C22.801 7.403 22.125 8.079 21.462 8.703L17.497 12.395V13.5H24.725V12.07H20.019L22.515 9.808C23.451 8.976 24.491 7.923 24.491 6.415ZM32.2351 6.415C32.2351 4.725 30.8701 3.373 28.6991 3.373C27.1391 3.373 25.8911 4.4 25.2021 5.791L26.4631 6.623C26.9831 5.596 27.8151 4.803 28.6991 4.803C29.8171 4.803 30.5451 5.518 30.5451 6.415C30.5451 7.403 29.8691 8.079 29.2061 8.703L25.2411 12.395V13.5H32.4691V12.07H27.7631L30.2591 9.808C31.1951 8.976 32.2351 7.923 32.2351 6.415ZM38.5753 7.806H33.0113V9.236H38.5753V7.806ZM39.2737 8.56C39.2737 11.784 41.2887 13.747 43.5247 13.747C45.7607 13.747 47.7757 11.784 47.7757 8.56C47.7757 5.336 45.7607 3.373 43.5247 3.373C41.2887 3.373 39.2737 5.336 39.2737 8.56ZM46.0857 8.56C46.0857 10.9 44.8377 12.317 43.5247 12.317C42.2117 12.317 40.9637 10.9 40.9637 8.56C40.9637 6.22 42.2117 4.803 43.5247 4.803C44.8377 4.803 46.0857 6.22 46.0857 8.56ZM49.8782 3.633L49.0332 8.56L50.1642 9.041C50.4762 8.638 51.1782 8.248 52.1012 8.248C53.4012 8.248 54.0252 9.106 54.0252 10.302C54.0252 11.498 53.2322 12.317 51.9842 12.317C50.9052 12.317 50.1512 11.563 49.5922 10.536L48.3442 11.433C49.0722 12.811 50.4242 13.747 51.9842 13.747C54.3372 13.747 55.7152 12.317 55.7152 10.302C55.7152 8.365 54.4932 6.818 52.1012 6.818C51.6722 6.818 51.2822 6.896 50.9312 7.039L51.2692 5.063H55.3382V3.633H49.8782ZM61.7823 7.806H56.2183V9.236H61.7823V7.806ZM63.1958 5.986L64.0928 7.208L65.5878 5.934V13.5H67.2778V3.62H65.9518L63.1958 5.986ZM70.0726 8.56C70.0726 11.784 72.0876 13.747 74.3236 13.747C76.5596 13.747 78.5746 11.784 78.5746 8.56C78.5746 5.336 76.5596 3.373 74.3236 3.373C72.0876 3.373 70.0726 5.336 70.0726 8.56ZM76.8846 8.56C76.8846 10.9 75.6366 12.317 74.3236 12.317C73.0106 12.317 71.7626 10.9 71.7626 8.56C71.7626 6.22 73.0106 4.803 74.3236 4.803C75.6366 4.803 76.8846 6.22 76.8846 8.56Z" fill="#242D3C"/>
<g clip-path="url(#clip0_182_2243)">
<path fill-rule="evenodd" clip-rule="evenodd" d="M87.8095 1.80942C88.0089 1.60994 88.2791 1.49796 88.5609 1.49796H99.4378C99.7195 1.49796 99.9898 1.60994 100.189 1.80942C100.388 2.00893 100.501 2.27962 100.501 2.56198V3.626H87.498V2.56198C87.498 2.27962 87.6101 2.00893 87.8095 1.80942ZM102.001 2.56198V4.376V13.437C102.001 14.1169 101.731 14.769 101.25 15.2499C100.77 15.7308 100.118 16.0011 99.4378 16.0011H88.5609C87.881 16.0011 87.2291 15.7308 86.7485 15.2499C86.2679 14.769 85.998 14.1169 85.998 13.437V2.56198C85.998 1.88212 86.2679 1.23 86.7485 0.749117C87.2291 0.268214 87.881 -0.00204468 88.5609 -0.00204468H99.4378C100.118 -0.00204468 100.77 0.268214 101.25 0.749117C101.731 1.23 102.001 1.88212 102.001 2.56198ZM87.498 5.126H100.501V13.437C100.501 13.7194 100.388 13.9901 100.189 14.1896C99.9898 14.3891 99.7195 14.5011 99.4378 14.5011H88.5609C88.2791 14.5011 88.0089 14.3891 87.8095 14.1896C87.6101 13.9901 87.498 13.7194 87.498 13.437V5.126ZM93.8226 8.47388V12.0853H94.6351V7.55026H93.8253L92.8223 8.35802V9.24109L93.7747 8.47388H93.8226Z" fill="#242D3C"/>
</g>
<defs>
<clipPath id="clip0_182_2243">
<rect width="16" height="16" fill="white" transform="translate(86)"/>
</clipPath>
</defs>
</svg>
