<svg width="184" height="46" viewBox="0 0 184 46" fill="none" xmlns="http://www.w3.org/2000/svg">
<path d="M166.428 11.702H168.118V5.956H169.132V11.988H170.848V0.352999H169.132V4.448H168.118V0.483H166.428V11.702ZM160.565 0.899V9.947L165.908 9.635V8.179L162.281 8.335V2.381H165.427V0.899H160.565ZM183.58 6.775V5.527H172.14V6.775H176.976V7.373H173.31V8.621H180.642V9.063H173.31V11.923H182.657V10.662H175.052V10.207H182.384V7.373H178.744V6.775H183.58ZM173.232 5.241C174.532 5.189 175.975 4.968 177.145 4.474C177.379 4.37 177.6 4.253 177.808 4.136C178.029 4.279 178.263 4.409 178.523 4.526C179.641 5.007 181.071 5.202 182.423 5.15L183.177 3.876C181.617 3.85 180.278 3.772 179.264 3.356L178.861 3.161C178.874 3.122 178.9 3.096 178.926 3.057H182.423V1.757H173.245V3.057H176.794C176.56 3.226 176.274 3.356 175.936 3.46C175.065 3.733 173.882 3.863 172.53 3.928L173.232 5.241ZM180.382 0.0929994H175.286V1.393H180.382V0.0929994Z" fill="#242D3C"/>
<path d="M4.54109 32.56H1.16109V45.43H4.54109V43.974H2.87709V34.016H4.54109V32.56ZM11.647 44.702H13.337V38.956H14.351V44.988H16.067V33.353H14.351V37.448H13.337V33.483H11.647V44.702ZM5.78402 33.899V42.947L11.127 42.635V41.179L7.50002 41.335V35.381H10.646V33.899H5.78402ZM28.7984 39.775V38.527H17.3584V39.775H22.1944V40.373H18.5284V41.621H25.8604V42.063H18.5284V44.923H27.8754V43.662H20.2704V43.207H27.6024V40.373H23.9624V39.775H28.7984ZM18.4504 38.241C19.7504 38.189 21.1934 37.968 22.3634 37.474C22.5974 37.37 22.8184 37.253 23.0264 37.136C23.2474 37.279 23.4814 37.409 23.7414 37.526C24.8594 38.007 26.2894 38.202 27.6414 38.15L28.3954 36.876C26.8354 36.85 25.4964 36.772 24.4824 36.356L24.0794 36.161C24.0924 36.122 24.1184 36.096 24.1444 36.057H27.6414V34.757H18.4634V36.057H22.0124C21.7784 36.226 21.4924 36.356 21.1544 36.46C20.2834 36.733 19.1004 36.863 17.7484 36.928L18.4504 38.241ZM25.6004 33.093H20.5044V34.393H25.6004V33.093ZM29.3488 34.016H31.0128V43.974H29.3488V45.43H32.7288V32.56H29.3488V34.016ZM40.8357 39.593C38.6517 39.593 37.0787 40.776 37.0787 42.466C37.0787 44.169 38.6517 45.339 40.8357 45.339C43.0197 45.339 44.5927 44.169 44.5927 42.466C44.5927 40.776 43.0197 39.593 40.8357 39.593ZM42.2137 37.812C40.9917 37.474 39.8997 36.928 39.1197 36.018L38.8857 35.706C38.8987 35.693 38.8987 35.667 38.9117 35.641C39.1847 34.991 39.3277 34.289 39.3407 33.535H37.5727C37.4557 35.914 36.0387 37.539 33.7637 38.319L34.8297 39.593C35.9087 39.19 37.0267 38.436 37.8717 37.396C37.9627 37.292 38.0407 37.175 38.1317 37.058L38.1447 37.084C39.0027 38.098 40.1337 38.826 41.2647 39.164L42.2137 37.812ZM44.6317 39.71V37.084H46.0097V35.602H44.6317V33.353H42.8897V39.71H44.6317ZM40.8357 43.909C39.5357 43.909 38.8207 43.337 38.8207 42.466C38.8207 41.595 39.5357 41.023 40.8357 41.023C42.1357 41.023 42.8507 41.595 42.8507 42.466C42.8507 43.337 42.1357 43.909 40.8357 43.909ZM57.896 40.139V38.761H55.257V37.175C55.478 36.993 55.673 36.785 55.816 36.551C56.024 36.226 56.128 35.862 56.128 35.472C56.128 33.899 54.399 32.859 52.176 32.859C51.071 32.859 50.083 33.119 49.368 33.574C48.289 34.198 47.899 35.55 48.523 36.551C48.666 36.785 48.861 36.993 49.095 37.188V38.761H46.456V40.139H57.896ZM52.228 40.529C49.953 40.529 48.341 41.543 48.341 43.064C48.341 44.585 49.953 45.599 52.228 45.599C54.503 45.599 56.115 44.585 56.115 43.064C56.115 41.543 54.503 40.529 52.228 40.529ZM52.176 34.237C53.385 34.237 54.386 34.744 54.386 35.472C54.386 36.2 53.385 36.707 52.176 36.707C50.967 36.707 49.966 36.2 49.966 35.472C49.966 34.744 50.967 34.237 52.176 34.237ZM52.228 44.221C50.824 44.221 50.083 43.753 50.083 43.064C50.083 42.375 50.824 41.907 52.228 41.907C53.632 41.907 54.373 42.375 54.373 43.064C54.373 43.753 53.632 44.221 52.228 44.221ZM52.176 38.085C52.644 38.085 53.086 38.046 53.515 37.955V38.761H50.837V37.955C51.253 38.046 51.695 38.085 52.176 38.085ZM70.1724 39.658V38.228H58.7324V39.658H63.5684V40.334C63.3474 40.373 63.1394 40.412 62.9314 40.464C61.5274 40.828 60.6174 41.738 60.6174 42.934C60.6174 44.546 62.2294 45.599 64.5044 45.599C66.7794 45.599 68.3914 44.546 68.3914 42.934C68.3914 41.738 67.4814 40.828 66.0644 40.464C65.8304 40.399 65.5834 40.36 65.3364 40.321V39.658H70.1724ZM69.8214 36.46C68.2354 36.408 66.8184 36.174 65.7784 35.576C65.6224 35.485 65.4664 35.368 65.3234 35.251L65.4014 35.108L65.4664 34.965H68.9894V33.535H59.9154V34.965H63.5294L63.4774 35.043C62.6714 35.979 61.0204 36.356 59.0704 36.512L59.7984 37.851C61.0464 37.773 62.4764 37.461 63.6334 36.837C63.9324 36.681 64.1924 36.499 64.4394 36.304C64.6344 36.46 64.8294 36.603 65.0504 36.733C66.2074 37.422 67.6374 37.76 69.0414 37.76L69.8214 36.46ZM64.5044 44.195C63.1004 44.195 62.3594 43.701 62.3594 42.934C62.3594 42.167 63.1004 41.673 64.5044 41.673C65.9084 41.673 66.6494 42.167 66.6494 42.934C66.6494 43.701 65.9084 44.195 64.5044 44.195ZM82.4488 44.143V42.661H76.7938V38.28H75.0258V42.661H71.0088V44.143H82.4488ZM80.6678 41.465C81.1488 39.333 81.3828 36.72 81.3828 33.873H72.0618V35.355H79.6148C79.6148 36.707 79.4328 39.372 78.9778 41.465H80.6678ZM83.9611 43.532C85.1961 42.765 86.3141 41.764 87.1071 40.503L87.1331 40.464C87.4061 40.867 87.7051 41.257 88.0431 41.608C88.7191 42.323 89.5121 42.895 90.2921 43.259L91.3191 41.959C90.3961 41.556 89.6291 41.049 88.9921 40.425C88.5631 39.996 88.1861 39.489 87.8871 38.904C87.9521 38.735 88.0041 38.579 88.0431 38.41C88.1601 38.02 88.2511 37.617 88.3031 37.188H90.8511V35.706H83.6751V37.188H86.5221C86.4831 37.461 86.4181 37.734 86.3531 37.981C85.8331 39.892 84.6111 41.283 82.8171 42.297L83.9611 43.532ZM93.4641 45.001V39.268H95.1151V37.76H93.4641V33.353H91.7221V45.001H93.4641ZM89.3821 34.809V33.327H85.2091V34.809H89.3821ZM100.983 38.306H95.4185V39.736H100.983V38.306ZM112.367 45.001V33.353H110.625V45.001H112.367ZM102.5 35.303H107.05C106.803 37.968 104.996 40.646 101.967 42.102L103.085 43.337C106.335 41.595 108.935 38.345 108.896 33.821H102.5V35.303ZM122.394 33.405V34.653H116.934V33.405H115.192V38.553H118.78V39.463H113.944V40.893H125.384V39.463H120.548V38.553H124.136V33.405H122.394ZM115.244 41.413V44.871H124.591V43.389H116.986V41.413H115.244ZM116.934 37.11V36.005H122.394V37.11H116.934ZM128.054 38.995C128.054 36.564 128.964 34.484 130.277 33.275L129.497 32.17C127.599 33.561 126.364 36.135 126.364 38.995C126.364 41.855 127.586 44.429 129.497 45.82L130.277 44.715C128.951 43.532 128.054 41.413 128.054 38.995ZM137.422 39.593C135.238 39.593 133.665 40.776 133.665 42.466C133.665 44.169 135.238 45.339 137.422 45.339C139.606 45.339 141.179 44.169 141.179 42.466C141.179 40.776 139.606 39.593 137.422 39.593ZM138.8 37.812C137.578 37.474 136.486 36.928 135.706 36.018L135.472 35.706C135.485 35.693 135.485 35.667 135.498 35.641C135.771 34.991 135.914 34.289 135.927 33.535H134.159C134.042 35.914 132.625 37.539 130.35 38.319L131.416 39.593C132.495 39.19 133.613 38.436 134.458 37.396C134.549 37.292 134.627 37.175 134.718 37.058L134.731 37.084C135.589 38.098 136.72 38.826 137.851 39.164L138.8 37.812ZM141.218 39.71V37.084H142.596V35.602H141.218V33.353H139.476V39.71H141.218ZM137.422 43.909C136.122 43.909 135.407 43.337 135.407 42.466C135.407 41.595 136.122 41.023 137.422 41.023C138.722 41.023 139.437 41.595 139.437 42.466C139.437 43.337 138.722 43.909 137.422 43.909ZM154.482 40.139V38.761H151.843V37.175C152.064 36.993 152.259 36.785 152.402 36.551C152.61 36.226 152.714 35.862 152.714 35.472C152.714 33.899 150.985 32.859 148.762 32.859C147.657 32.859 146.669 33.119 145.954 33.574C144.875 34.198 144.485 35.55 145.109 36.551C145.252 36.785 145.447 36.993 145.681 37.188V38.761H143.042V40.139H154.482ZM148.814 40.529C146.539 40.529 144.927 41.543 144.927 43.064C144.927 44.585 146.539 45.599 148.814 45.599C151.089 45.599 152.701 44.585 152.701 43.064C152.701 41.543 151.089 40.529 148.814 40.529ZM148.762 34.237C149.971 34.237 150.972 34.744 150.972 35.472C150.972 36.2 149.971 36.707 148.762 36.707C147.553 36.707 146.552 36.2 146.552 35.472C146.552 34.744 147.553 34.237 148.762 34.237ZM148.814 44.221C147.41 44.221 146.669 43.753 146.669 43.064C146.669 42.375 147.41 41.907 148.814 41.907C150.218 41.907 150.959 42.375 150.959 43.064C150.959 43.753 150.218 44.221 148.814 44.221ZM148.762 38.085C149.23 38.085 149.672 38.046 150.101 37.955V38.761H147.423V37.955C147.839 38.046 148.281 38.085 148.762 38.085ZM161.792 45.001V40.347H166.758V38.865H165.068C165.185 38.306 165.302 37.682 165.393 36.967C165.536 35.966 165.614 34.874 165.64 33.691H156.371V35.147H163.846C163.794 36.005 163.677 37.188 163.443 38.358C163.417 38.527 163.378 38.696 163.339 38.865H155.318V40.347H160.024V45.001H161.792ZM173.367 42.817V33.899H168.245V42.817H173.367ZM174.225 44.702H175.915V38.956H176.864V44.988H178.58V33.353H176.864V37.448H175.915V33.483H174.225V44.702ZM169.961 35.381H171.651V41.335H169.961V35.381ZM181.652 38.995C181.652 41.413 180.755 43.532 179.429 44.715L180.209 45.82C182.12 44.429 183.342 41.855 183.342 38.995C183.342 36.135 182.107 33.561 180.209 32.17L179.429 33.275C180.742 34.484 181.652 36.564 181.652 38.995Z" fill="#242D3C"/>
</svg>
