<svg width="111" height="112" viewBox="0 0 111 112" fill="none" xmlns="http://www.w3.org/2000/svg">
<path d="M12.3208 3.486L13.2178 4.708L14.7128 3.434V11H16.4028V1.12H15.0768L12.3208 3.486ZM19.1976 6.06C19.1976 9.284 21.2126 11.247 23.4486 11.247C25.6846 11.247 27.6996 9.284 27.6996 6.06C27.6996 2.836 25.6846 0.872999 23.4486 0.872999C21.2126 0.872999 19.1976 2.836 19.1976 6.06ZM26.0096 6.06C26.0096 8.4 24.7616 9.817 23.4486 9.817C22.1356 9.817 20.8876 8.4 20.8876 6.06C20.8876 3.72 22.1356 2.303 23.4486 2.303C24.7616 2.303 26.0096 3.72 26.0096 6.06ZM28.554 6.06C28.554 9.284 30.569 11.247 32.805 11.247C35.041 11.247 37.056 9.284 37.056 6.06C37.056 2.836 35.041 0.872999 32.805 0.872999C30.569 0.872999 28.554 2.836 28.554 6.06ZM35.366 6.06C35.366 8.4 34.118 9.817 32.805 9.817C31.492 9.817 30.244 8.4 30.244 6.06C30.244 3.72 31.492 2.303 32.805 2.303C34.118 2.303 35.366 3.72 35.366 6.06ZM39.5224 10.025H37.7024V11.845H38.4304C38.3914 12.248 38.2614 12.612 37.8454 12.885L38.4174 13.444C39.0934 12.937 39.5224 12.274 39.5224 11.533V10.025ZM40.4622 6.06C40.4622 9.284 42.4772 11.247 44.7132 11.247C46.9492 11.247 48.9642 9.284 48.9642 6.06C48.9642 2.836 46.9492 0.872999 44.7132 0.872999C42.4772 0.872999 40.4622 2.836 40.4622 6.06ZM47.2742 6.06C47.2742 8.4 46.0262 9.817 44.7132 9.817C43.4002 9.817 42.1522 8.4 42.1522 6.06C42.1522 3.72 43.4002 2.303 44.7132 2.303C46.0262 2.303 47.2742 3.72 47.2742 6.06ZM49.8186 6.06C49.8186 9.284 51.8336 11.247 54.0696 11.247C56.3056 11.247 58.3206 9.284 58.3206 6.06C58.3206 2.836 56.3056 0.872999 54.0696 0.872999C51.8336 0.872999 49.8186 2.836 49.8186 6.06ZM56.6306 6.06C56.6306 8.4 55.3826 9.817 54.0696 9.817C52.7566 9.817 51.5086 8.4 51.5086 6.06C51.5086 3.72 52.7566 2.303 54.0696 2.303C55.3826 2.303 56.6306 3.72 56.6306 6.06ZM59.1751 6.06C59.1751 9.284 61.1901 11.247 63.4261 11.247C65.6621 11.247 67.6771 9.284 67.6771 6.06C67.6771 2.836 65.6621 0.872999 63.4261 0.872999C61.1901 0.872999 59.1751 2.836 59.1751 6.06ZM65.9871 6.06C65.9871 8.4 64.7391 9.817 63.4261 9.817C62.1131 9.817 60.8651 8.4 60.8651 6.06C60.8651 3.72 62.1131 2.303 63.4261 2.303C64.7391 2.303 65.9871 3.72 65.9871 6.06ZM70.1435 10.025H68.3235V11.845H69.0515C69.0125 12.248 68.8825 12.612 68.4665 12.885L69.0385 13.444C69.7145 12.937 70.1435 12.274 70.1435 11.533V10.025ZM71.0833 6.06C71.0833 9.284 73.0983 11.247 75.3343 11.247C77.5703 11.247 79.5853 9.284 79.5853 6.06C79.5853 2.836 77.5703 0.872999 75.3343 0.872999C73.0983 0.872999 71.0833 2.836 71.0833 6.06ZM77.8953 6.06C77.8953 8.4 76.6473 9.817 75.3343 9.817C74.0213 9.817 72.7733 8.4 72.7733 6.06C72.7733 3.72 74.0213 2.303 75.3343 2.303C76.6473 2.303 77.8953 3.72 77.8953 6.06ZM80.4397 6.06C80.4397 9.284 82.4547 11.247 84.6907 11.247C86.9267 11.247 88.9417 9.284 88.9417 6.06C88.9417 2.836 86.9267 0.872999 84.6907 0.872999C82.4547 0.872999 80.4397 2.836 80.4397 6.06ZM87.2517 6.06C87.2517 8.4 86.0037 9.817 84.6907 9.817C83.3777 9.817 82.1297 8.4 82.1297 6.06C82.1297 3.72 83.3777 2.303 84.6907 2.303C86.0037 2.303 87.2517 3.72 87.2517 6.06ZM89.7962 6.06C89.7962 9.284 91.8112 11.247 94.0472 11.247C96.2832 11.247 98.2982 9.284 98.2982 6.06C98.2982 2.836 96.2832 0.872999 94.0472 0.872999C91.8112 0.872999 89.7962 2.836 89.7962 6.06ZM96.6082 6.06C96.6082 8.4 95.3602 9.817 94.0472 9.817C92.7342 9.817 91.4862 8.4 91.4862 6.06C91.4862 3.72 92.7342 2.303 94.0472 2.303C95.3602 2.303 96.6082 3.72 96.6082 6.06ZM103.495 0.0409993C101.571 0.0409993 100.141 1.068 100.141 2.602C100.141 4.136 101.571 5.163 103.495 5.163C105.419 5.163 106.849 4.136 106.849 2.602C106.849 1.068 105.419 0.0409993 103.495 0.0409993ZM105.783 8.725H108.383V9.388H110.125V0.352999H108.383V7.399H105.783V8.725ZM100.986 8.725V11.78H110.359V10.298H102.728V8.725H100.986ZM104.301 8.452V6.957L107.85 6.905V5.527L99.3346 5.631V7.035L102.533 6.983V8.452H104.301ZM103.495 3.759C102.52 3.759 101.883 3.291 101.883 2.602C101.883 1.913 102.52 1.445 103.495 1.445C104.444 1.445 105.107 1.913 105.107 2.602C105.107 3.291 104.444 3.759 103.495 3.759Z" fill="#D7191F"/>
<path d="M46.6521 36.915C46.6521 35.225 45.2871 33.873 43.1161 33.873C41.5561 33.873 40.3081 34.9 39.6191 36.291L40.8801 37.123C41.4001 36.096 42.2321 35.303 43.1161 35.303C44.2341 35.303 44.9621 36.018 44.9621 36.915C44.9621 37.903 44.2861 38.579 43.6231 39.203L39.6581 42.895V44H46.8861V42.57H42.1801L44.6761 40.308C45.6121 39.476 46.6521 38.423 46.6521 36.915ZM47.5843 39.06C47.5843 42.284 49.5993 44.247 51.8353 44.247C54.0713 44.247 56.0863 42.284 56.0863 39.06C56.0863 35.836 54.0713 33.873 51.8353 33.873C49.5993 33.873 47.5843 35.836 47.5843 39.06ZM54.3963 39.06C54.3963 41.4 53.1483 42.817 51.8353 42.817C50.5223 42.817 49.2743 41.4 49.2743 39.06C49.2743 36.72 50.5223 35.303 51.8353 35.303C53.1483 35.303 54.3963 36.72 54.3963 39.06ZM63.7527 36.915C63.7527 35.225 62.3877 33.873 60.2167 33.873C58.6567 33.873 57.4087 34.9 56.7197 36.291L57.9807 37.123C58.5007 36.096 59.3327 35.303 60.2167 35.303C61.3347 35.303 62.0627 36.018 62.0627 36.915C62.0627 37.903 61.3867 38.579 60.7237 39.203L56.7587 42.895V44H63.9867V42.57H59.2807L61.7767 40.308C62.7127 39.476 63.7527 38.423 63.7527 36.915ZM68.0389 42.817C66.9989 42.817 66.1149 42.102 65.5819 41.023L64.3599 41.92C65.0489 43.272 66.4399 44.247 68.0389 44.247C70.3789 44.247 71.7699 42.791 71.7699 40.958C71.7699 39.411 70.7559 38.007 68.8319 37.799L71.4449 35.251V34.133H64.9189V35.563H69.0009L66.1409 38.436L66.7779 39.58C66.9859 39.424 67.4929 39.151 67.9999 39.151C69.2869 39.151 70.0799 39.931 70.0799 40.958C70.0799 41.998 69.3649 42.817 68.0389 42.817ZM72.377 44.936H74.197V43.116H72.377V44.936ZM74.9808 39.06C74.9808 42.284 76.9958 44.247 79.2318 44.247C81.4678 44.247 83.4828 42.284 83.4828 39.06C83.4828 35.836 81.4678 33.873 79.2318 33.873C76.9958 33.873 74.9808 35.836 74.9808 39.06ZM81.7928 39.06C81.7928 41.4 80.5448 42.817 79.2318 42.817C77.9188 42.817 76.6708 41.4 76.6708 39.06C76.6708 36.72 77.9188 35.303 79.2318 35.303C80.5448 35.303 81.7928 36.72 81.7928 39.06ZM85.0522 36.486L85.9492 37.708L87.4442 36.434V44H89.1342V34.12H87.8082L85.0522 36.486ZM91.877 44.936H93.697V43.116H91.877V44.936ZM94.4808 39.06C94.4808 42.284 96.4958 44.247 98.7318 44.247C100.968 44.247 102.983 42.284 102.983 39.06C102.983 35.836 100.968 33.873 98.7318 33.873C96.4958 33.873 94.4808 35.836 94.4808 39.06ZM101.293 39.06C101.293 41.4 100.045 42.817 98.7318 42.817C97.4188 42.817 96.1708 41.4 96.1708 39.06C96.1708 36.72 97.4188 35.303 98.7318 35.303C100.045 35.303 101.293 36.72 101.293 39.06ZM104.552 36.486L105.449 37.708L106.944 36.434V44H108.634V34.12H107.308L104.552 36.486Z" fill="#242D3C"/>
<path d="M46.0555 69.915C46.0555 68.225 44.6905 66.873 42.5195 66.873C40.9595 66.873 39.7115 67.9 39.0225 69.291L40.2835 70.123C40.8035 69.096 41.6355 68.303 42.5195 68.303C43.6375 68.303 44.3655 69.018 44.3655 69.915C44.3655 70.903 43.6895 71.579 43.0265 72.203L39.0615 75.895V77H46.2895V75.57H41.5835L44.0795 73.308C45.0155 72.476 46.0555 71.423 46.0555 69.915ZM46.9876 72.06C46.9876 75.284 49.0026 77.247 51.2386 77.247C53.4746 77.247 55.4896 75.284 55.4896 72.06C55.4896 68.836 53.4746 66.873 51.2386 66.873C49.0026 66.873 46.9876 68.836 46.9876 72.06ZM53.7996 72.06C53.7996 74.4 52.5516 75.817 51.2386 75.817C49.9256 75.817 48.6776 74.4 48.6776 72.06C48.6776 69.72 49.9256 68.303 51.2386 68.303C52.5516 68.303 53.7996 69.72 53.7996 72.06ZM63.156 69.915C63.156 68.225 61.791 66.873 59.62 66.873C58.06 66.873 56.812 67.9 56.123 69.291L57.384 70.123C57.904 69.096 58.736 68.303 59.62 68.303C60.738 68.303 61.466 69.018 61.466 69.915C61.466 70.903 60.79 71.579 60.127 72.203L56.162 75.895V77H63.39V75.57H58.684L61.18 73.308C62.116 72.476 63.156 71.423 63.156 69.915ZM68.8852 73.087H66.1552L68.8852 69.85V73.087ZM63.8542 74.517H68.8852V77H70.5752V74.517H72.0052V73.087H70.5752V67.12H69.2102L63.8542 73.425V74.517ZM72.377 77.936H74.197V76.116H72.377V77.936ZM74.9808 72.06C74.9808 75.284 76.9958 77.247 79.2318 77.247C81.4678 77.247 83.4828 75.284 83.4828 72.06C83.4828 68.836 81.4678 66.873 79.2318 66.873C76.9958 66.873 74.9808 68.836 74.9808 72.06ZM81.7928 72.06C81.7928 74.4 80.5448 75.817 79.2318 75.817C77.9188 75.817 76.6708 74.4 76.6708 72.06C76.6708 69.72 77.9188 68.303 79.2318 68.303C80.5448 68.303 81.7928 69.72 81.7928 72.06ZM85.0522 69.486L85.9492 70.708L87.4442 69.434V77H89.1342V67.12H87.8082L85.0522 69.486ZM91.877 77.936H93.697V76.116H91.877V77.936ZM94.4808 72.06C94.4808 75.284 96.4958 77.247 98.7318 77.247C100.968 77.247 102.983 75.284 102.983 72.06C102.983 68.836 100.968 66.873 98.7318 66.873C96.4958 66.873 94.4808 68.836 94.4808 72.06ZM101.293 72.06C101.293 74.4 100.045 75.817 98.7318 75.817C97.4188 75.817 96.1708 74.4 96.1708 72.06C96.1708 69.72 97.4188 68.303 98.7318 68.303C100.045 68.303 101.293 69.72 101.293 72.06ZM104.552 69.486L105.449 70.708L106.944 69.434V77H108.634V67.12H107.308L104.552 69.486Z" fill="#242D3C"/>
<path d="M5.2837 99.041C3.3597 99.041 1.9297 100.068 1.9297 101.602C1.9297 103.136 3.3597 104.163 5.2837 104.163C7.2077 104.163 8.6377 103.136 8.6377 101.602C8.6377 100.068 7.2077 99.041 5.2837 99.041ZM7.5717 107.725H10.1717V108.388H11.9137V99.353H10.1717V106.399H7.5717V107.725ZM2.7747 107.725V110.78H12.1477V109.298H4.5167V107.725H2.7747ZM6.0897 107.452V105.957L9.6387 105.905V104.527L1.1237 104.631V106.035L4.3217 105.983V107.452H6.0897ZM5.2837 102.759C4.3087 102.759 3.6717 102.291 3.6717 101.602C3.6717 100.913 4.3087 100.445 5.2837 100.445C6.2327 100.445 6.8957 100.913 6.8957 101.602C6.8957 102.291 6.2327 102.759 5.2837 102.759ZM21.6421 108.752V107.296L15.7271 107.543V105.034H20.0951V99.73H13.9851V101.212H18.3531V103.565H13.9851V109.155L21.6421 108.752ZM23.9041 111.001V99.353H22.1621V111.001H23.9041ZM35.7254 110.923V106.347H26.6514V110.923H35.7254ZM36.9214 105.281V103.825H35.3484C35.4524 103.344 35.5564 102.785 35.6474 102.148C35.7644 101.368 35.8294 100.497 35.8554 99.535H26.5344V100.991H34.0614C34.0354 101.615 33.9314 102.46 33.7494 103.318L33.6324 103.825H25.4814V105.281H36.9214ZM28.3934 107.777H33.9834V109.467H28.3934V107.777ZM43.1788 108.375V105.671H44.8168V108.375H46.5588V105.671H49.1978V104.215H47.6508C47.7418 103.695 47.8328 103.097 47.9238 102.408C48.0408 101.511 48.1058 100.562 48.1318 99.535H38.8108V100.991H46.3378C46.3118 101.693 46.2078 102.746 46.0258 103.721L45.9218 104.215H37.7578V105.671H41.4368V108.375H43.1788ZM39.0578 106.971V110.871H48.4048V109.389H40.7998V106.971H39.0578ZM61.4742 105.775V104.345H50.0342V105.775H61.4742ZM55.8062 106.269C53.5312 106.269 51.9192 107.322 51.9192 108.934C51.9192 110.546 53.5312 111.599 55.8062 111.599C58.0812 111.599 59.6932 110.546 59.6932 108.934C59.6932 107.322 58.0812 106.269 55.8062 106.269ZM55.8062 110.195C54.4022 110.195 53.6612 109.701 53.6612 108.934C53.6612 108.167 54.4022 107.673 55.8062 107.673C57.2102 107.673 57.9512 108.167 57.9512 108.934C57.9512 109.701 57.2102 110.195 55.8062 110.195ZM60.3562 102.252H53.0242V100.965H60.2262V99.535H51.2822V103.695H60.3562V102.252ZM70.7605 99.405V100.653H65.3005V99.405H63.5585V104.553H72.5025V99.405H70.7605ZM69.0445 108.661V106.867H73.7505V105.411H62.3105V106.867H67.2765V108.661H69.0445ZM63.6105 107.413V110.871H72.9575V109.389H65.3525V107.413H63.6105ZM65.3005 103.11V102.005H70.7605V103.11H65.3005ZM85.0389 105.866V103.474H86.4169V101.992H85.0389V99.353H83.2969V105.866H85.0389ZM85.2729 110.923V109.636H77.9669V109.155H85.0129V106.256H76.2249V107.53H83.2709V107.985H76.2249V110.923H85.2729ZM80.8789 100.354V99.08H76.3289V100.354H80.8789ZM82.5689 101.94V100.666H74.6389V101.94H82.5689ZM78.7079 102.174C76.6669 102.174 75.4059 102.915 75.4059 104.02C75.4059 105.125 76.6669 105.866 78.7079 105.866C80.7489 105.866 82.0099 105.125 82.0099 104.02C82.0099 102.915 80.7489 102.174 78.7079 102.174ZM78.7079 104.644C77.6289 104.644 77.1219 104.423 77.1219 104.02C77.1219 103.617 77.6289 103.396 78.7079 103.396C79.7869 103.396 80.2939 103.617 80.2939 104.02C80.2939 104.423 79.7869 104.644 78.7079 104.644ZM93.5193 105.593C91.3353 105.593 89.7623 106.776 89.7623 108.466C89.7623 110.169 91.3353 111.339 93.5193 111.339C95.7033 111.339 97.2763 110.169 97.2763 108.466C97.2763 106.776 95.7033 105.593 93.5193 105.593ZM94.8973 103.812C93.6753 103.474 92.5833 102.928 91.8033 102.018L91.5693 101.706C91.5823 101.693 91.5823 101.667 91.5953 101.641C91.8683 100.991 92.0113 100.289 92.0243 99.535H90.2563C90.1393 101.914 88.7223 103.539 86.4473 104.319L87.5133 105.593C88.5923 105.19 89.7103 104.436 90.5553 103.396C90.6463 103.292 90.7243 103.175 90.8153 103.058L90.8283 103.084C91.6863 104.098 92.8173 104.826 93.9483 105.164L94.8973 103.812ZM97.3153 105.71V103.084H98.6933V101.602H97.3153V99.353H95.5733V105.71H97.3153ZM93.5193 109.909C92.2193 109.909 91.5043 109.337 91.5043 108.466C91.5043 107.595 92.2193 107.023 93.5193 107.023C94.8193 107.023 95.5343 107.595 95.5343 108.466C95.5343 109.337 94.8193 109.909 93.5193 109.909ZM107.317 107.205V105.879L104.093 105.918V105.385C104.184 105.372 104.275 105.346 104.366 105.32C105.497 105.034 106.29 104.358 106.29 103.37C106.29 102.863 106.043 102.408 105.614 102.213H107.122V100.887H99.2176V102.213H100.726C100.297 102.408 100.05 102.863 100.05 103.37C100.05 104.371 100.856 105.034 101.961 105.32C102.078 105.359 102.208 105.385 102.325 105.398V105.944L98.9966 105.983V107.335L107.317 107.205ZM109.527 108.414V104.358H110.827V102.85H109.527V99.353H107.785V108.414H109.527ZM100.518 107.725V110.78H109.891V109.298H102.26V107.725H100.518ZM100.921 99.093V100.419H105.419V99.093H100.921ZM103.17 102.213C104.054 102.213 104.548 102.603 104.548 103.175C104.548 103.747 104.054 104.137 103.17 104.137C102.286 104.137 101.792 103.747 101.792 103.175C101.792 102.603 102.286 102.213 103.17 102.213Z" fill="#242D3C"/>
</svg>
