<svg width="50" height="46" viewBox="0 0 50 46" fill="none" xmlns="http://www.w3.org/2000/svg">
<path d="M7.072 6.723C4.875 6.723 3.38 7.88 3.38 9.466C3.38 11.052 4.875 12.209 7.072 12.209C9.243 12.209 10.764 11.052 10.764 9.466C10.764 7.88 9.243 6.723 7.072 6.723ZM7.072 11.351C5.356 11.351 4.368 10.558 4.368 9.466C4.368 8.374 5.356 7.581 7.072 7.581C8.788 7.581 9.776 8.374 9.776 9.466C9.776 10.558 8.788 11.351 7.072 11.351ZM8.372 5.241C7.553 4.968 6.786 4.565 6.084 4.045C5.525 3.629 5.057 3.148 4.706 2.602L4.745 2.485C5.005 1.874 5.148 1.25 5.187 0.586999H4.173C3.965 2.875 2.444 4.851 0.13 5.787L0.702 6.502C1.846 6.021 2.925 5.189 3.744 4.162C3.939 3.915 4.121 3.655 4.29 3.382C4.407 3.525 4.524 3.681 4.654 3.824C5.499 4.773 6.669 5.618 7.8 6.034L8.372 5.241ZM10.608 6.84V3.798H12.207V2.914H10.608V0.379H9.62V6.84H10.608ZM13.9404 8.205V11.897H22.8584V8.205H18.9194V6.957H24.1064V6.099H12.7184V6.957H17.9054V8.205H13.9404ZM13.8494 0.586999V1.419H15.3314L15.4224 4.162H13.4854V5.007H23.3264V4.162H21.3764L21.4674 1.419H22.9624V0.586999H13.8494ZM21.8704 9.037V11.039H14.9284V9.037H21.8704ZM16.3194 1.419H20.4794L20.3884 4.162H16.4104L16.3194 1.419ZM30.7407 7.269C28.5827 7.269 26.9187 8.27 26.9187 9.869C26.9187 11.468 28.5827 12.469 30.7407 12.469C32.8987 12.469 34.5627 11.468 34.5627 9.869C34.5627 8.27 32.8987 7.269 30.7407 7.269ZM35.8237 3.941C34.8357 3.798 33.9257 3.59 33.0937 3.291C32.3137 3.018 31.6377 2.641 31.0787 2.186C31.2347 1.939 31.3517 1.679 31.4167 1.393H35.0827V0.586999H26.2817V1.393H30.3377C30.2207 1.744 30.0387 2.056 29.7787 2.329C28.8817 3.278 27.3087 3.798 25.5277 4.032L25.9307 4.799C27.0747 4.656 28.3617 4.292 29.4017 3.707C29.8567 3.46 30.2467 3.161 30.5717 2.823C30.8967 3.07 31.2347 3.304 31.5987 3.499C32.7817 4.149 34.1467 4.552 35.3947 4.708L35.8237 3.941ZM30.7407 11.637C29.1547 11.637 27.9067 10.961 27.9067 9.869C27.9067 8.777 29.1547 8.101 30.7407 8.101C32.3267 8.101 33.5747 8.777 33.5747 9.869C33.5747 10.961 32.3267 11.637 30.7407 11.637ZM24.9947 5.735V6.567H36.3827V5.735H31.1957V4.123H30.1817V5.735H24.9947ZM47.5541 6.333V5.462H39.5461V3.98H47.3591V0.717H38.5581V1.575H46.3711V3.122H38.5581V6.333H47.5541ZM41.2621 11.845V8.465H44.7071V11.975H45.7081V8.465H48.6591V7.607H37.2711V8.465H40.2611V11.845H41.2621Z" fill="#666666"/>
<path d="M8.281 44.65V38.618H10.153V44.962H11.141V33.379H10.153V37.734H8.281V33.509H7.306V44.65H8.281ZM1.196 33.951V42.869L6.656 42.557V41.712L2.171 41.907V34.809H5.85V33.951H1.196ZM19.3484 39.723C17.1514 39.723 15.6564 40.88 15.6564 42.466C15.6564 44.052 17.1514 45.209 19.3484 45.209C21.5194 45.209 23.0404 44.052 23.0404 42.466C23.0404 40.88 21.5194 39.723 19.3484 39.723ZM19.3484 44.351C17.6324 44.351 16.6444 43.558 16.6444 42.466C16.6444 41.374 17.6324 40.581 19.3484 40.581C21.0644 40.581 22.0524 41.374 22.0524 42.466C22.0524 43.558 21.0644 44.351 19.3484 44.351ZM20.6484 38.241C19.8294 37.968 19.0624 37.565 18.3604 37.045C17.8014 36.629 17.3334 36.148 16.9824 35.602L17.0214 35.485C17.2814 34.874 17.4244 34.25 17.4634 33.587H16.4494C16.2414 35.875 14.7204 37.851 12.4064 38.787L12.9784 39.502C14.1224 39.021 15.2014 38.189 16.0204 37.162C16.2154 36.915 16.3974 36.655 16.5664 36.382C16.6834 36.525 16.8004 36.681 16.9304 36.824C17.7754 37.773 18.9454 38.618 20.0764 39.034L20.6484 38.241ZM22.8844 39.84V36.798H24.4834V35.914H22.8844V33.379H21.8964V39.84H22.8844ZM33.0807 42.453C32.1837 41.959 31.4037 41.348 30.7147 40.607C30.1037 39.957 29.6227 39.255 29.2717 38.501C29.4667 37.89 29.5967 37.253 29.6617 36.564H32.4827V35.706H25.4367V36.564H28.6087C28.5567 37.188 28.4527 37.773 28.2837 38.306C27.6337 40.373 26.2947 41.855 24.6437 42.804L25.2677 43.493C26.3597 42.83 27.4387 41.868 28.2577 40.62C28.4787 40.269 28.6867 39.905 28.8687 39.502C28.9987 39.723 29.1417 39.931 29.2847 40.152C30.1427 41.361 31.2477 42.479 32.4307 43.233L33.0807 42.453ZM34.8877 44.975V38.878H36.7727V37.994H34.8877V33.379H33.8997V44.975H34.8877ZM31.0007 34.341V33.483H26.9707V34.341H31.0007ZM43.0171 40.269C40.8591 40.269 39.1951 41.27 39.1951 42.869C39.1951 44.468 40.8591 45.469 43.0171 45.469C45.1751 45.469 46.8391 44.468 46.8391 42.869C46.8391 41.27 45.1751 40.269 43.0171 40.269ZM48.1001 36.941C47.1121 36.798 46.2021 36.59 45.3701 36.291C44.5901 36.018 43.9141 35.641 43.3551 35.186C43.5111 34.939 43.6281 34.679 43.6931 34.393H47.3591V33.587H38.5581V34.393H42.6141C42.4971 34.744 42.3151 35.056 42.0551 35.329C41.1581 36.278 39.5851 36.798 37.8041 37.032L38.2071 37.799C39.3511 37.656 40.6381 37.292 41.6781 36.707C42.1331 36.46 42.5231 36.161 42.8481 35.823C43.1731 36.07 43.5111 36.304 43.8751 36.499C45.0581 37.149 46.4231 37.552 47.6711 37.708L48.1001 36.941ZM43.0171 44.637C41.4311 44.637 40.1831 43.961 40.1831 42.869C40.1831 41.777 41.4311 41.101 43.0171 41.101C44.6031 41.101 45.8511 41.777 45.8511 42.869C45.8511 43.961 44.6031 44.637 43.0171 44.637ZM37.2711 38.735V39.567H48.6591V38.735H43.4721V37.123H42.4581V38.735H37.2711Z" fill="#666666"/>
</svg>
