<svg width="88" height="113" viewBox="0 0 88 113" fill="none" xmlns="http://www.w3.org/2000/svg">
<path d="M70.8183 11.702H72.5083V6.216H73.3923V11.988H75.1083V0.352999H73.3923V4.708H72.5083V0.483H70.8183V11.702ZM64.7343 10.506C65.2153 10.09 65.6573 9.635 66.0863 9.128C66.5153 8.634 66.8793 8.088 67.2043 7.477C67.3603 7.763 67.5293 8.049 67.7113 8.322C68.2183 9.063 68.8163 9.687 69.5183 10.207L70.5973 9.024C69.8953 8.556 69.2973 7.997 68.8033 7.334C68.4523 6.853 68.1663 6.32 67.9193 5.735L68.0363 5.358C68.1403 4.955 68.2313 4.526 68.2963 4.084H70.4153V2.602H64.1753V4.084H66.5673C66.5283 4.383 66.4763 4.682 66.4113 4.955C65.9433 6.918 64.9163 8.4 63.5383 9.44L64.7343 10.506ZM69.1803 1.861V0.379H65.5403V1.861H69.1803ZM87.1116 11.923V10.506H79.6756V9.908H86.8516V6.606H77.9336V8.01H85.1096V8.582H77.9336V11.923H87.1116ZM76.8676 0.6V6.164L84.2256 5.813V4.383L78.6096 4.578V0.6H76.8676ZM81.6776 3.213H85.1356V6.216H86.8776V0.352999H85.1356V1.757H81.6776V3.213Z" fill="#242D3C"/>
<path d="M19.1789 43.532C20.4139 42.765 21.5319 41.764 22.3249 40.503L22.3509 40.464C22.6239 40.867 22.9229 41.257 23.2609 41.608C23.9369 42.323 24.7299 42.895 25.5099 43.259L26.5369 41.959C25.6139 41.556 24.8469 41.049 24.2099 40.425C23.7809 39.996 23.4039 39.489 23.1049 38.904C23.1699 38.735 23.2219 38.579 23.2609 38.41C23.3779 38.02 23.4689 37.617 23.5209 37.188H26.0689V35.706H18.8929V37.188H21.7399C21.7009 37.461 21.6359 37.734 21.5709 37.981C21.0509 39.892 19.8289 41.283 18.0349 42.297L19.1789 43.532ZM28.6819 45.001V39.268H30.3329V37.76H28.6819V33.353H26.9399V45.001H28.6819ZM24.5999 34.809V33.327H20.4269V34.809H24.5999ZM41.1013 39.762V37.37H42.4793V35.862H41.1013V33.353H39.3593V39.762H41.1013ZM32.2873 40.282V44.923H41.0753V40.282H32.2873ZM34.0293 41.738H39.3333V43.441H34.0293V41.738ZM31.4033 35.186H35.8233C35.4073 36.798 33.4443 38.072 30.6363 38.631L31.4553 39.983C34.5883 39.32 37.7603 37.37 37.7213 33.73H31.4033V35.186ZM53.0413 36.772C50.9223 36.772 49.2973 37.474 49.2973 38.657C49.2973 39.84 50.9223 40.542 53.0413 40.542C55.1603 40.542 56.7853 39.84 56.7853 38.657C56.7853 37.474 55.1603 36.772 53.0413 36.772ZM53.9253 45.001V42.336H58.7613V40.932H47.3213V42.336H52.1573V45.001H53.9253ZM58.0333 36.46V35.056H48.0493V36.46H58.0333ZM50.2333 33.223V34.627H55.8493V33.223H50.2333ZM53.0413 39.268C51.8973 39.268 51.0133 39.073 51.0133 38.657C51.0133 38.241 51.8973 38.046 53.0413 38.046C54.1853 38.046 55.0693 38.241 55.0693 38.657C55.0693 39.073 54.1853 39.268 53.0413 39.268ZM69.6353 40.269C67.3603 40.269 65.7483 41.322 65.7483 42.934C65.7483 44.546 67.3603 45.599 69.6353 45.599C71.9103 45.599 73.5223 44.546 73.5223 42.934C73.5223 41.322 71.9103 40.269 69.6353 40.269ZM75.3033 39.84V38.41H70.4673V37.058H68.6993V38.41H63.8633V39.84H75.3033ZM64.9553 37.747C66.1773 37.617 67.6333 37.175 68.7773 36.46C69.0503 36.291 69.3103 36.096 69.5443 35.901C69.7393 36.07 69.9473 36.213 70.1683 36.356C71.3253 37.11 72.7813 37.552 74.1723 37.656L74.9523 36.356C73.3273 36.174 71.9363 35.849 70.8963 35.173C70.7273 35.056 70.5713 34.939 70.4283 34.809C70.4673 34.744 70.4933 34.666 70.5323 34.588C70.7273 34.211 70.8313 33.795 70.8443 33.34H69.0503C68.9463 35.16 66.7623 36.122 64.2013 36.434L64.9553 37.747ZM69.6353 44.195C68.2313 44.195 67.4903 43.701 67.4903 42.934C67.4903 42.167 68.2313 41.673 69.6353 41.673C71.0393 41.673 71.7803 42.167 71.7803 42.934C71.7803 43.701 71.0393 44.195 69.6353 44.195ZM86.3836 44.923V40.347H77.3096V44.923H86.3836ZM87.5796 39.281V37.825H86.0066C86.1106 37.344 86.2146 36.785 86.3056 36.148C86.4226 35.368 86.4876 34.497 86.5136 33.535H77.1926V34.991H84.7196C84.6936 35.615 84.5896 36.46 84.4076 37.318L84.2906 37.825H76.1396V39.281H87.5796ZM79.0516 41.777H84.6416V43.467H79.0516V41.777Z" fill="#242D3C"/>
<path d="M33.3973 75.817C32.3573 75.817 31.4733 75.102 30.9403 74.023L29.7183 74.92C30.4073 76.272 31.7983 77.247 33.3973 77.247C35.7373 77.247 37.1283 75.791 37.1283 73.958C37.1283 72.411 36.1143 71.007 34.1903 70.799L36.8033 68.251V67.133H30.2773V68.563H34.3593L31.4993 71.436L32.1363 72.58C32.3443 72.424 32.8513 72.151 33.3583 72.151C34.6453 72.151 35.4383 72.931 35.4383 73.958C35.4383 74.998 34.7233 75.817 33.3973 75.817ZM39.0354 67.133L38.1904 72.06L39.3214 72.541C39.6334 72.138 40.3354 71.748 41.2584 71.748C42.5584 71.748 43.1824 72.606 43.1824 73.802C43.1824 74.998 42.3894 75.817 41.1414 75.817C40.0624 75.817 39.3084 75.063 38.7494 74.036L37.5014 74.933C38.2294 76.311 39.5814 77.247 41.1414 77.247C43.4944 77.247 44.8724 75.817 44.8724 73.802C44.8724 71.865 43.6504 70.318 41.2584 70.318C40.8294 70.318 40.4394 70.396 40.0884 70.539L40.4264 68.563H44.4954V67.133H39.0354ZM47.1435 76.025H45.3235V77.845H46.0515C46.0125 78.248 45.8825 78.612 45.4665 78.885L46.0385 79.444C46.7145 78.937 47.1435 78.274 47.1435 77.533V76.025ZM48.0833 72.06C48.0833 75.284 50.0983 77.247 52.3343 77.247C54.5703 77.247 56.5853 75.284 56.5853 72.06C56.5853 68.836 54.5703 66.873 52.3343 66.873C50.0983 66.873 48.0833 68.836 48.0833 72.06ZM54.8953 72.06C54.8953 74.4 53.6473 75.817 52.3343 75.817C51.0213 75.817 49.7733 74.4 49.7733 72.06C49.7733 69.72 51.0213 68.303 52.3343 68.303C53.6473 68.303 54.8953 69.72 54.8953 72.06ZM57.4397 72.06C57.4397 75.284 59.4547 77.247 61.6907 77.247C63.9267 77.247 65.9417 75.284 65.9417 72.06C65.9417 68.836 63.9267 66.873 61.6907 66.873C59.4547 66.873 57.4397 68.836 57.4397 72.06ZM64.2517 72.06C64.2517 74.4 63.0037 75.817 61.6907 75.817C60.3777 75.817 59.1297 74.4 59.1297 72.06C59.1297 69.72 60.3777 68.303 61.6907 68.303C63.0037 68.303 64.2517 69.72 64.2517 72.06ZM66.7962 72.06C66.7962 75.284 68.8112 77.247 71.0472 77.247C73.2832 77.247 75.2982 75.284 75.2982 72.06C75.2982 68.836 73.2832 66.873 71.0472 66.873C68.8112 66.873 66.7962 68.836 66.7962 72.06ZM73.6082 72.06C73.6082 74.4 72.3602 75.817 71.0472 75.817C69.7342 75.817 68.4862 74.4 68.4862 72.06C68.4862 69.72 69.7342 68.303 71.0472 68.303C72.3602 68.303 73.6082 69.72 73.6082 72.06ZM80.4946 66.041C78.5706 66.041 77.1406 67.068 77.1406 68.602C77.1406 70.136 78.5706 71.163 80.4946 71.163C82.4186 71.163 83.8486 70.136 83.8486 68.602C83.8486 67.068 82.4186 66.041 80.4946 66.041ZM82.7826 74.725H85.3826V75.388H87.1246V66.353H85.3826V73.399H82.7826V74.725ZM77.9856 74.725V77.78H87.3586V76.298H79.7276V74.725H77.9856ZM81.3006 74.452V72.957L84.8496 72.905V71.527L76.3346 71.631V73.035L79.5326 72.983V74.452H81.3006ZM80.4946 69.759C79.5196 69.759 78.8826 69.291 78.8826 68.602C78.8826 67.913 79.5196 67.445 80.4946 67.445C81.4436 67.445 82.1066 67.913 82.1066 68.602C82.1066 69.291 81.4436 69.759 80.4946 69.759Z" fill="#242D3C"/>
<path d="M2.28247 100.133L1.43747 105.06L2.56847 105.541C2.88047 105.138 3.58247 104.748 4.50547 104.748C5.80547 104.748 6.42947 105.606 6.42947 106.802C6.42947 107.998 5.63647 108.817 4.38847 108.817C3.30947 108.817 2.55547 108.063 1.99647 107.036L0.748469 107.933C1.47647 109.311 2.82847 110.247 4.38847 110.247C6.74147 110.247 8.11947 108.817 8.11947 106.802C8.11947 104.865 6.89747 103.318 4.50547 103.318C4.07647 103.318 3.68647 103.396 3.33547 103.539L3.67347 101.563H7.74247V100.133H2.28247ZM8.77861 105.06C8.77861 108.284 10.7936 110.247 13.0296 110.247C15.2656 110.247 17.2806 108.284 17.2806 105.06C17.2806 101.836 15.2656 99.873 13.0296 99.873C10.7936 99.873 8.77861 101.836 8.77861 105.06ZM15.5906 105.06C15.5906 107.4 14.3426 108.817 13.0296 108.817C11.7166 108.817 10.4686 107.4 10.4686 105.06C10.4686 102.72 11.7166 101.303 13.0296 101.303C14.3426 101.303 15.5906 102.72 15.5906 105.06ZM19.7471 109.025H17.9271V110.845H18.6551C18.6161 111.248 18.4861 111.612 18.0701 111.885L18.6421 112.444C19.3181 111.937 19.7471 111.274 19.7471 110.533V109.025ZM20.6868 105.06C20.6868 108.284 22.7018 110.247 24.9378 110.247C27.1738 110.247 29.1888 108.284 29.1888 105.06C29.1888 101.836 27.1738 99.873 24.9378 99.873C22.7018 99.873 20.6868 101.836 20.6868 105.06ZM27.4988 105.06C27.4988 107.4 26.2508 108.817 24.9378 108.817C23.6248 108.817 22.3768 107.4 22.3768 105.06C22.3768 102.72 23.6248 101.303 24.9378 101.303C26.2508 101.303 27.4988 102.72 27.4988 105.06ZM33.3973 108.817C32.3573 108.817 31.4733 108.102 30.9403 107.023L29.7183 107.92C30.4073 109.272 31.7983 110.247 33.3973 110.247C35.7373 110.247 37.1283 108.791 37.1283 106.958C37.1283 105.411 36.1143 104.007 34.1903 103.799L36.8033 101.251V100.133H30.2773V101.563H34.3593L31.4993 104.436L32.1363 105.58C32.3443 105.424 32.8513 105.151 33.3583 105.151C34.6453 105.151 35.4383 105.931 35.4383 106.958C35.4383 107.998 34.7233 108.817 33.3973 108.817ZM39.0354 100.133L38.1904 105.06L39.3214 105.541C39.6334 105.138 40.3354 104.748 41.2584 104.748C42.5584 104.748 43.1824 105.606 43.1824 106.802C43.1824 107.998 42.3894 108.817 41.1414 108.817C40.0624 108.817 39.3084 108.063 38.7494 107.036L37.5014 107.933C38.2294 109.311 39.5814 110.247 41.1414 110.247C43.4944 110.247 44.8724 108.817 44.8724 106.802C44.8724 104.865 43.6504 103.318 41.2584 103.318C40.8294 103.318 40.4394 103.396 40.0884 103.539L40.4264 101.563H44.4954V100.133H39.0354ZM47.1435 109.025H45.3235V110.845H46.0515C46.0125 111.248 45.8825 111.612 45.4665 111.885L46.0385 112.444C46.7145 111.937 47.1435 111.274 47.1435 110.533V109.025ZM48.0833 105.06C48.0833 108.284 50.0983 110.247 52.3343 110.247C54.5703 110.247 56.5853 108.284 56.5853 105.06C56.5853 101.836 54.5703 99.873 52.3343 99.873C50.0983 99.873 48.0833 101.836 48.0833 105.06ZM54.8953 105.06C54.8953 107.4 53.6473 108.817 52.3343 108.817C51.0213 108.817 49.7733 107.4 49.7733 105.06C49.7733 102.72 51.0213 101.303 52.3343 101.303C53.6473 101.303 54.8953 102.72 54.8953 105.06ZM57.4397 105.06C57.4397 108.284 59.4547 110.247 61.6907 110.247C63.9267 110.247 65.9417 108.284 65.9417 105.06C65.9417 101.836 63.9267 99.873 61.6907 99.873C59.4547 99.873 57.4397 101.836 57.4397 105.06ZM64.2517 105.06C64.2517 107.4 63.0037 108.817 61.6907 108.817C60.3777 108.817 59.1297 107.4 59.1297 105.06C59.1297 102.72 60.3777 101.303 61.6907 101.303C63.0037 101.303 64.2517 102.72 64.2517 105.06ZM66.7962 105.06C66.7962 108.284 68.8112 110.247 71.0472 110.247C73.2832 110.247 75.2982 108.284 75.2982 105.06C75.2982 101.836 73.2832 99.873 71.0472 99.873C68.8112 99.873 66.7962 101.836 66.7962 105.06ZM73.6082 105.06C73.6082 107.4 72.3602 108.817 71.0472 108.817C69.7342 108.817 68.4862 107.4 68.4862 105.06C68.4862 102.72 69.7342 101.303 71.0472 101.303C72.3602 101.303 73.6082 102.72 73.6082 105.06ZM80.4946 99.041C78.5706 99.041 77.1406 100.068 77.1406 101.602C77.1406 103.136 78.5706 104.163 80.4946 104.163C82.4186 104.163 83.8486 103.136 83.8486 101.602C83.8486 100.068 82.4186 99.041 80.4946 99.041ZM82.7826 107.725H85.3826V108.388H87.1246V99.353H85.3826V106.399H82.7826V107.725ZM77.9856 107.725V110.78H87.3586V109.298H79.7276V107.725H77.9856ZM81.3006 107.452V105.957L84.8496 105.905V104.527L76.3346 104.631V106.035L79.5326 105.983V107.452H81.3006ZM80.4946 102.759C79.5196 102.759 78.8826 102.291 78.8826 101.602C78.8826 100.913 79.5196 100.445 80.4946 100.445C81.4436 100.445 82.1066 100.913 82.1066 101.602C82.1066 102.291 81.4436 102.759 80.4946 102.759Z" fill="#D7191F"/>
</svg>
