<svg width="189" height="79" viewBox="0 0 189 79" fill="none" xmlns="http://www.w3.org/2000/svg">
<path d="M8.22342 3.915C8.22342 2.225 6.85842 0.872999 4.68742 0.872999C3.12742 0.872999 1.87942 1.9 1.19042 3.291L2.45142 4.123C2.97142 3.096 3.80342 2.303 4.68742 2.303C5.80542 2.303 6.53342 3.018 6.53342 3.915C6.53342 4.903 5.85742 5.579 5.19442 6.203L1.22942 9.895V11H8.45742V9.57H3.75142L6.24742 7.308C7.18342 6.476 8.22342 5.423 8.22342 3.915ZM9.15556 6.06C9.15556 9.284 11.1706 11.247 13.4066 11.247C15.6426 11.247 17.6576 9.284 17.6576 6.06C17.6576 2.836 15.6426 0.872999 13.4066 0.872999C11.1706 0.872999 9.15556 2.836 9.15556 6.06ZM15.9676 6.06C15.9676 8.4 14.7196 9.817 13.4066 9.817C12.0936 9.817 10.8456 8.4 10.8456 6.06C10.8456 3.72 12.0936 2.303 13.4066 2.303C14.7196 2.303 15.9676 3.72 15.9676 6.06ZM19.227 3.486L20.124 4.708L21.619 3.434V11H23.309V1.12H21.983L19.227 3.486ZM26.1298 2.55H31.0568L27.2738 11H29.0548L33.0198 2.095V1.12H26.1298V2.55ZM39.6329 2.628H42.8309V3.278H39.6329V4.708H42.8309V8.894H44.5729V0.352999H42.8309V1.198H39.6329V2.628ZM34.5629 0.6V7.1L41.9209 6.749V5.293L36.3049 5.488V0.6H34.5629ZM35.6419 7.893V11.871H44.8979V10.389H37.3839V7.893H35.6419ZM54.2753 5.488C53.0533 4.994 51.9483 4.318 51.1813 3.291C51.0903 3.174 51.0123 3.044 50.9343 2.914L51.0123 2.68C51.2593 2.004 51.3893 1.289 51.4023 0.534999H49.6343C49.5173 2.875 48.3083 4.825 45.8253 5.904L46.9173 7.152C48.1263 6.567 49.2573 5.67 50.0503 4.539L50.1803 4.344C50.4663 4.721 50.7783 5.059 51.1033 5.358C51.7793 5.982 52.5333 6.489 53.3003 6.814L54.2753 5.488ZM56.9533 12.053V7.672H47.6453V9.154H55.2113V12.053H56.9533ZM56.9793 7.152V0.352999H55.2373V7.152H56.9793ZM73.1703 11.923V10.584H65.5653V9.986H72.8973V6.853H63.8233V8.179H71.1553V8.764H63.8233V11.923H73.1703ZM74.0933 6.086V4.708H68.7243V2.693H66.9563V4.708H62.6533V6.086H74.0933ZM72.6113 4.227C72.9103 3.33 73.0273 2.095 73.0273 0.534999H63.7063V1.913H71.2333C71.2333 2.329 71.1423 3.33 70.8953 4.227H72.6113ZM86.3697 11.013V9.531H74.9297V11.013H86.3697ZM85.3817 5.8H77.9197V2.303H85.1217V0.820999H76.1777V7.295H85.3817V5.8ZM91.301 0.626V2.459H89.416V0.626H87.7V7.022H93.017V0.626H91.301ZM93.836 8.816H95.526V4.682H96.462V9.102H98.178V0.352999H96.462V3.174H95.526V0.469999H93.836V8.816ZM89.091 7.997V11.871H98.477V10.389H90.833V7.997H89.091ZM89.416 5.566V3.889H91.301V5.566H89.416ZM110.638 6.645C108.454 6.645 106.881 7.802 106.881 9.492C106.881 11.182 108.454 12.339 110.638 12.339C112.822 12.339 114.395 11.182 114.395 9.492C114.395 7.802 112.822 6.645 110.638 6.645ZM110.183 6.281H111.873V3.941H113.004V6.801H114.72V0.352999H113.004V2.459H111.873V0.469999H110.183V6.281ZM104.307 0.626V6.216L109.728 5.891V4.487L106.023 4.656V0.626H104.307ZM110.638 10.909C109.338 10.909 108.623 10.363 108.623 9.492C108.623 8.621 109.338 8.075 110.638 8.075C111.938 8.075 112.653 8.621 112.653 9.492C112.653 10.363 111.938 10.909 110.638 10.909ZM126.346 3.2H119.014V1.965H126.216V0.534999H117.272V4.643H120.925V5.449H116.024V6.879H127.464V5.449H122.693V4.643H126.346V3.2ZM121.796 7.269C119.521 7.269 117.909 8.322 117.909 9.934C117.909 11.546 119.521 12.599 121.796 12.599C124.071 12.599 125.683 11.546 125.683 9.934C125.683 8.322 124.071 7.269 121.796 7.269ZM121.796 11.195C120.392 11.195 119.651 10.701 119.651 9.934C119.651 9.167 120.392 8.673 121.796 8.673C123.2 8.673 123.941 9.167 123.941 9.934C123.941 10.701 123.2 11.195 121.796 11.195ZM135.217 7.581C132.968 7.581 131.395 8.569 131.395 10.09C131.395 11.611 132.968 12.599 135.217 12.599C137.44 12.599 139.039 11.611 139.039 10.09C139.039 8.569 137.44 7.581 135.217 7.581ZM132.656 0.0409993C130.732 0.0409993 129.302 0.964 129.302 2.342C129.302 3.733 130.732 4.643 132.656 4.643C134.58 4.643 136.01 3.733 136.01 2.342C136.01 0.964 134.58 0.0409993 132.656 0.0409993ZM133.332 7.685V6.359L137.076 6.294V5.02L128.496 5.124V6.424L131.564 6.385V7.685H133.332ZM137.544 0.352999V7.711H139.286V0.352999H137.544ZM135.217 11.247C133.852 11.247 133.137 10.779 133.137 10.09C133.137 9.401 133.852 8.933 135.217 8.933C136.582 8.933 137.297 9.401 137.297 10.09C137.297 10.779 136.582 11.247 135.217 11.247ZM132.656 3.291C131.681 3.291 131.044 2.901 131.044 2.342C131.044 1.783 131.681 1.393 132.656 1.393C133.605 1.393 134.268 1.783 134.268 2.342C134.268 2.901 133.605 3.291 132.656 3.291ZM145.66 0.690999V3.785H142.839V0.690999H141.097V9.869H147.402V0.690999H145.66ZM150.626 12.001V5.878H152.277V4.37H150.626V0.352999H148.884V12.001H150.626ZM142.839 8.387V5.241H145.66V8.387H142.839ZM163.553 12.001V0.352999H161.811V12.001H163.553ZM153.699 0.820999V9.96L161.161 9.557V8.101L155.441 8.348V2.303H159.926V0.820999H153.699ZM170.656 1.133L169.811 6.06L170.942 6.541C171.254 6.138 171.956 5.748 172.879 5.748C174.179 5.748 174.803 6.606 174.803 7.802C174.803 8.998 174.01 9.817 172.762 9.817C171.683 9.817 170.929 9.063 170.37 8.036L169.122 8.933C169.85 10.311 171.202 11.247 172.762 11.247C175.115 11.247 176.493 9.817 176.493 7.802C176.493 5.865 175.271 4.318 172.879 4.318C172.45 4.318 172.06 4.396 171.709 4.539L172.047 2.563H176.116V1.133H170.656ZM187.202 2.563H180.117V1.887H187.332V0.483H178.375V5.995H182.041V6.775H177.14V8.179H188.58V6.775H183.809V5.995H187.527V4.578H180.117V3.889H187.202V2.563ZM178.44 8.673V11.871H187.787V10.389H180.182V8.673H178.44Z" fill="#242D3C"/>
<path d="M133.323 36.915C133.323 35.225 131.958 33.873 129.787 33.873C128.227 33.873 126.979 34.9 126.29 36.291L127.551 37.123C128.071 36.096 128.903 35.303 129.787 35.303C130.905 35.303 131.633 36.018 131.633 36.915C131.633 37.903 130.957 38.579 130.294 39.203L126.329 42.895V44H133.557V42.57H128.851L131.347 40.308C132.283 39.476 133.323 38.423 133.323 36.915ZM135.867 43.025H134.047V44.845H134.775C134.736 45.248 134.606 45.612 134.19 45.885L134.762 46.444C135.438 45.937 135.867 45.274 135.867 44.533V43.025ZM136.807 39.06C136.807 42.284 138.822 44.247 141.058 44.247C143.294 44.247 145.309 42.284 145.309 39.06C145.309 35.836 143.294 33.873 141.058 33.873C138.822 33.873 136.807 35.836 136.807 39.06ZM143.619 39.06C143.619 41.4 142.371 42.817 141.058 42.817C139.745 42.817 138.497 41.4 138.497 39.06C138.497 36.72 139.745 35.303 141.058 35.303C142.371 35.303 143.619 36.72 143.619 39.06ZM146.163 39.06C146.163 42.284 148.178 44.247 150.414 44.247C152.65 44.247 154.665 42.284 154.665 39.06C154.665 35.836 152.65 33.873 150.414 33.873C148.178 33.873 146.163 35.836 146.163 39.06ZM152.975 39.06C152.975 41.4 151.727 42.817 150.414 42.817C149.101 42.817 147.853 41.4 147.853 39.06C147.853 36.72 149.101 35.303 150.414 35.303C151.727 35.303 152.975 36.72 152.975 39.06ZM155.52 39.06C155.52 42.284 157.535 44.247 159.771 44.247C162.007 44.247 164.022 42.284 164.022 39.06C164.022 35.836 162.007 33.873 159.771 33.873C157.535 33.873 155.52 35.836 155.52 39.06ZM162.332 39.06C162.332 41.4 161.084 42.817 159.771 42.817C158.458 42.817 157.21 41.4 157.21 39.06C157.21 36.72 158.458 35.303 159.771 35.303C161.084 35.303 162.332 36.72 162.332 39.06ZM175.185 41.894V37.565H176.563V36.057H175.185V33.353H173.443V41.894H175.185ZM171.831 39.801V33.73H165.318V39.801H171.831ZM167.06 35.186H170.089V38.345H167.06V35.186ZM166.436 40.893V44.871H175.562V43.389H168.178V40.893H166.436ZM181.495 33.041C179.571 33.041 178.141 34.068 178.141 35.602C178.141 37.136 179.571 38.163 181.495 38.163C183.419 38.163 184.849 37.136 184.849 35.602C184.849 34.068 183.419 33.041 181.495 33.041ZM183.783 41.725H186.383V42.388H188.125V33.353H186.383V40.399H183.783V41.725ZM178.986 41.725V44.78H188.359V43.298H180.728V41.725H178.986ZM182.301 41.452V39.957L185.85 39.905V38.527L177.335 38.631V40.035L180.533 39.983V41.452H182.301ZM181.495 36.759C180.52 36.759 179.883 36.291 179.883 35.602C179.883 34.913 180.52 34.445 181.495 34.445C182.444 34.445 183.107 34.913 183.107 35.602C183.107 36.291 182.444 36.759 181.495 36.759Z" fill="#242D3C"/>
<path d="M137.055 69.915C137.055 68.225 135.69 66.873 133.519 66.873C131.959 66.873 130.711 67.9 130.022 69.291L131.283 70.123C131.803 69.096 132.635 68.303 133.519 68.303C134.637 68.303 135.365 69.018 135.365 69.915C135.365 70.903 134.689 71.579 134.026 72.203L130.061 75.895V77H137.289V75.57H132.583L135.079 73.308C136.015 72.476 137.055 71.423 137.055 69.915ZM141.524 77.247C143.656 77.247 145.099 75.7 145.099 73.789C145.099 71.878 143.656 70.318 141.524 70.318C141.368 70.318 141.225 70.344 141.056 70.383L142.85 67.133H141.03L138.573 71.566C138.261 72.138 137.949 72.944 137.949 73.659C137.949 75.622 139.223 77.247 141.524 77.247ZM139.639 73.789C139.639 72.593 140.367 71.748 141.524 71.748C142.681 71.748 143.409 72.632 143.409 73.789C143.409 74.933 142.681 75.817 141.524 75.817C140.406 75.817 139.639 74.881 139.639 73.789ZM153.766 75.752V74.296L148.241 74.543V72.034H152.349V66.73H146.499V68.212H150.607V70.565H146.499V76.155L153.766 75.752ZM153.025 71.865H154.676V78.001H156.418V66.353H154.676V70.357H153.025V71.865ZM161.544 77.247C163.676 77.247 165.119 75.7 165.119 73.789C165.119 71.878 163.676 70.318 161.544 70.318C161.388 70.318 161.245 70.344 161.076 70.383L162.87 67.133H161.05L158.593 71.566C158.281 72.138 157.969 72.944 157.969 73.659C157.969 75.622 159.243 77.247 161.544 77.247ZM159.659 73.789C159.659 72.593 160.387 71.748 161.544 71.748C162.701 71.748 163.429 72.632 163.429 73.789C163.429 74.933 162.701 75.817 161.544 75.817C160.426 75.817 159.659 74.881 159.659 73.789ZM170.549 73.087H167.819L170.549 69.85V73.087ZM165.518 74.517H170.549V77H172.239V74.517H173.669V73.087H172.239V67.12H170.874L165.518 73.425V74.517ZM174.808 69.486L175.705 70.708L177.2 69.434V77H178.89V67.12H177.564L174.808 69.486ZM182.933 67.133L182.088 72.06L183.219 72.541C183.531 72.138 184.233 71.748 185.156 71.748C186.456 71.748 187.08 72.606 187.08 73.802C187.08 74.998 186.287 75.817 185.039 75.817C183.96 75.817 183.206 75.063 182.647 74.036L181.399 74.933C182.127 76.311 183.479 77.247 185.039 77.247C187.392 77.247 188.77 75.817 188.77 73.802C188.77 71.865 187.548 70.318 185.156 70.318C184.727 70.318 184.337 70.396 183.986 70.539L184.324 68.563H188.393V67.133H182.933Z" fill="#242D3C"/>
</svg>
