<svg width="102" height="46" viewBox="0 0 102 46" fill="none" xmlns="http://www.w3.org/2000/svg">
<path d="M0.726852 6.06C0.726852 9.284 2.74185 11.247 4.97785 11.247C7.21385 11.247 9.22885 9.284 9.22885 6.06C9.22885 2.836 7.21385 0.872999 4.97785 0.872999C2.74185 0.872999 0.726852 2.836 0.726852 6.06ZM7.53885 6.06C7.53885 8.4 6.29085 9.817 4.97785 9.817C3.66485 9.817 2.41685 8.4 2.41685 6.06C2.41685 3.72 3.66485 2.303 4.97785 2.303C6.29085 2.303 7.53885 3.72 7.53885 6.06ZM10.7983 3.486L11.6953 4.708L13.1903 3.434V11H14.8803V1.12H13.5543L10.7983 3.486ZM17.6751 6.06C17.6751 9.284 19.6901 11.247 21.9261 11.247C24.1621 11.247 26.1771 9.284 26.1771 6.06C26.1771 2.836 24.1621 0.872999 21.9261 0.872999C19.6901 0.872999 17.6751 2.836 17.6751 6.06ZM24.4871 6.06C24.4871 8.4 23.2391 9.817 21.9261 9.817C20.6131 9.817 19.3651 8.4 19.3651 6.06C19.3651 3.72 20.6131 2.303 21.9261 2.303C23.2391 2.303 24.4871 3.72 24.4871 6.06ZM32.4395 5.306H26.8755V6.736H32.4395V5.306ZM33.853 3.486L34.75 4.708L36.245 3.434V11H37.935V1.12H36.609L33.853 3.486ZM47.5418 3.915C47.5418 2.225 46.1768 0.872999 44.0058 0.872999C42.4458 0.872999 41.1978 1.9 40.5088 3.291L41.7698 4.123C42.2898 3.096 43.1218 2.303 44.0058 2.303C45.1238 2.303 45.8518 3.018 45.8518 3.915C45.8518 4.903 45.1758 5.579 44.5128 6.203L40.5478 9.895V11H47.7758V9.57H43.0698L45.5658 7.308C46.5018 6.476 47.5418 5.423 47.5418 3.915ZM51.8279 9.817C50.7879 9.817 49.9039 9.102 49.3709 8.023L48.1489 8.92C48.8379 10.272 50.2289 11.247 51.8279 11.247C54.1679 11.247 55.5589 9.791 55.5589 7.958C55.5589 6.411 54.5449 5.007 52.6209 4.799L55.2339 2.251V1.133H48.7079V2.563H52.7899L49.9299 5.436L50.5669 6.58C50.7749 6.424 51.2819 6.151 51.7889 6.151C53.0759 6.151 53.8689 6.931 53.8689 7.958C53.8689 8.998 53.1539 9.817 51.8279 9.817ZM61.0151 7.087H58.2851L61.0151 3.85V7.087ZM55.9841 8.517H61.0151V11H62.7051V8.517H64.1351V7.087H62.7051V1.12H61.3401L55.9841 7.425V8.517ZM69.9669 5.306H64.4029V6.736H69.9669V5.306ZM71.9133 1.133L71.0683 6.06L72.1993 6.541C72.5113 6.138 73.2133 5.748 74.1363 5.748C75.4363 5.748 76.0603 6.606 76.0603 7.802C76.0603 8.998 75.2673 9.817 74.0193 9.817C72.9403 9.817 72.1863 9.063 71.6273 8.036L70.3793 8.933C71.1073 10.311 72.4593 11.247 74.0193 11.247C76.3723 11.247 77.7503 9.817 77.7503 7.802C77.7503 5.865 76.5283 4.318 74.1363 4.318C73.7073 4.318 73.3173 4.396 72.9663 4.539L73.3043 2.563H77.3733V1.133H71.9133ZM81.9455 11.247C84.0775 11.247 85.5205 9.7 85.5205 7.789C85.5205 5.878 84.0775 4.318 81.9455 4.318C81.7895 4.318 81.6465 4.344 81.4775 4.383L83.2715 1.133H81.4515L78.9945 5.566C78.6825 6.138 78.3705 6.944 78.3705 7.659C78.3705 9.622 79.6445 11.247 81.9455 11.247ZM80.0605 7.789C80.0605 6.593 80.7885 5.748 81.9455 5.748C83.1025 5.748 83.8305 6.632 83.8305 7.789C83.8305 8.933 83.1025 9.817 81.9455 9.817C80.8275 9.817 80.0605 8.881 80.0605 7.789ZM86.1796 2.55H91.1066L87.3236 11H89.1046L93.0696 2.095V1.12H86.1796V2.55ZM97.7328 11.247C100.06 11.247 101.607 9.921 101.607 8.179C101.607 6.944 100.762 6.086 99.9298 5.67C100.593 5.267 101.022 4.578 101.022 3.642C101.022 2.173 99.8648 0.872999 97.7328 0.872999C95.6008 0.872999 94.4438 2.173 94.4438 3.642C94.4438 4.578 94.8728 5.267 95.5358 5.67C94.7038 6.086 93.8588 6.944 93.8588 8.179C93.8588 9.921 95.4058 11.247 97.7328 11.247ZM97.7328 9.817C96.2768 9.817 95.5488 9.115 95.5488 8.179C95.5488 7.243 96.3808 6.463 97.7328 6.463C99.0848 6.463 99.9168 7.243 99.9168 8.179C99.9168 9.115 99.1888 9.817 97.7328 9.817ZM96.1338 3.642C96.1338 2.849 96.6928 2.303 97.7328 2.303C98.7728 2.303 99.3318 2.849 99.3318 3.642C99.3318 4.37 98.7208 5.046 97.7328 5.046C96.7448 5.046 96.1338 4.37 96.1338 3.642Z" fill="#242D3C"/>
<path d="M47.5992 44.702H49.2892V39.086H50.3032V44.988H52.0192V33.353H50.3032V37.578H49.2892V33.483H47.5992V44.702ZM41.5542 35.368H44.8432C44.7002 37.825 43.2832 40.451 40.8652 42.232L42.1002 43.363C44.6482 41.309 46.6632 38.163 46.6632 33.886H41.5542V35.368ZM57.0935 33.236C55.1565 33.236 53.6095 34.627 53.6095 36.577C53.6095 38.527 55.1565 39.918 57.0935 39.918C59.0305 39.918 60.5775 38.527 60.5775 36.577C60.5775 34.627 59.0305 33.236 57.0935 33.236ZM57.0935 38.436C56.0145 38.436 55.3515 37.682 55.3515 36.577C55.3515 35.472 56.0145 34.718 57.0935 34.718C58.1725 34.718 58.8355 35.472 58.8355 36.577C58.8355 37.682 58.1725 38.436 57.0935 38.436ZM64.0485 41.894V33.353H62.3065V41.894H64.0485ZM55.1175 40.893V44.871H64.3735V43.389H56.8595V40.893H55.1175ZM73.6209 41.829C72.7239 41.218 71.9569 40.542 71.3459 39.801C70.8649 39.216 70.4359 38.553 70.0719 37.825C70.4749 36.538 70.6699 35.16 70.6699 33.691H68.9019C68.9019 37.201 67.7969 40.087 65.0149 42.141L66.1849 43.35C67.5759 42.271 68.6289 41.01 69.3699 39.58C69.6559 40.048 69.9809 40.503 70.3319 40.945C70.9949 41.764 71.7229 42.466 72.5419 43.077L73.6209 41.829ZM75.7659 45.001V39.008H77.4169V37.5H75.7659V33.353H74.0239V45.001H75.7659ZM88.6013 39.385V33.353H86.8593V35.589H84.9483C84.9093 35.407 84.8443 35.225 84.7663 35.056C84.2593 33.912 83.0503 33.184 81.6203 33.184C79.6963 33.184 78.2143 34.484 78.2143 36.304C78.2143 38.124 79.6963 39.424 81.6203 39.424C83.0503 39.424 84.2593 38.683 84.7663 37.565C84.8313 37.409 84.8963 37.24 84.9353 37.071H86.8593V39.385H88.6013ZM88.5753 44.923V39.905H86.8333V41.062H81.3993V39.905H79.6573V44.923H88.5753ZM81.6203 37.994C80.5803 37.994 79.9563 37.305 79.9563 36.304C79.9563 35.303 80.5803 34.614 81.6203 34.614C82.6603 34.614 83.2843 35.303 83.2843 36.304C83.2843 37.305 82.6603 37.994 81.6203 37.994ZM86.8333 43.467H81.3993V42.44H86.8333V43.467ZM90.7376 43.402C91.4396 42.869 92.0636 42.271 92.6226 41.595C93.1036 41.01 93.5326 40.386 93.8836 39.71L93.9616 39.853C94.7936 41.166 95.9506 42.375 97.1206 43.129L98.1736 41.855C96.5486 40.932 95.3526 39.645 94.6116 37.994C94.7286 37.617 94.8326 37.24 94.9236 36.837C95.0406 36.343 95.1186 35.836 95.1706 35.303H97.7966V33.821H90.3476V35.303H93.3896C93.3506 35.706 93.2856 36.109 93.2076 36.499C92.7396 38.904 91.5566 40.893 89.5676 42.193L90.7376 43.402ZM100.319 45.001V39.008H101.97V37.5H100.319V33.353H98.5766V45.001H100.319Z" fill="#242D3C"/>
</svg>
