<svg width="320" height="240" viewBox="0 0 320 240" fill="none" xmlns="http://www.w3.org/2000/svg">
<path d="M103.435 187.357L92 227.973" stroke="#242D3C" stroke-width="1.5"/>
<path d="M153.213 51.7547C153.213 51.7547 166.472 47.8681 165.744 29.1326C165.016 10.3869 129.227 3.76227 113.035 26.0972C113.035 26.0972 98.8728 15.7091 85.88 22.0568C72.077 28.8045 69.7389 37.3365 67.8623 50.1652C65.9857 62.9939 67.5649 68.3367 53.885 76.8277C40.2051 85.3186 45.3941 102.629 61.2377 104.495C61.2377 104.495 64.7038 131.024 83.7265 119.631C83.7265 119.631 94.5453 129.722 111.394 121.21C111.394 121.21 128.786 133.906 142.568 121.938C142.568 121.938 156.074 123.815 167.036 112.145C177.999 100.475 171.21 92.8251 167.036 87.0517C162.852 81.2782 155.51 72.213 153.203 51.7342V51.7547H153.213Z" fill="#242D3C" stroke="#242D3C" stroke-width="1.5" stroke-miterlimit="10"/>
<path d="M142.599 53.2116C142.599 53.2116 135.677 53.2116 121.362 43.6746C121.362 43.6746 115.988 43.3772 111.404 46.2793C106.831 49.1712 98.9551 53.7653 101.262 63.1895C103.57 72.6034 103.754 78.5717 97.6014 66.4505C91.4486 54.3293 79.7273 79.3305 100.206 79.0434C100.206 79.0434 109.425 100.476 125.3 100.476C141.174 100.476 140.19 84.7143 140.005 82.1096C139.81 79.5049 138.651 58.1134 142.61 53.2013V53.2218L142.599 53.2116Z" fill="white" stroke="#242D3C" stroke-width="1.5" stroke-miterlimit="10"/>
<path d="M106.838 57.3333C106.838 57.3333 112.314 51.5598 117.687 53.6723" stroke="#242D3C" stroke-width="1.5" stroke-miterlimit="10" stroke-linecap="round"/>
<path d="M135.573 49.2526C135.573 49.2526 109.003 43.1612 131.492 72.572" stroke="#242D3C" stroke-width="1.5" stroke-miterlimit="10" stroke-linecap="round"/>
<path d="M113.05 66.4598C113.953 66.4598 114.681 65.7317 114.681 64.8292C114.681 63.9268 113.953 63.1987 113.05 63.1987C112.148 63.1987 111.42 63.9268 111.42 64.8292C111.42 65.7317 112.148 66.4598 113.05 66.4598Z" fill="#242D3C"/>
<path d="M128.232 63.178C129.135 63.178 129.863 62.4499 129.863 61.5475C129.863 60.6451 129.135 59.917 128.232 59.917C127.33 59.917 126.602 60.6451 126.602 61.5475C126.602 62.4499 127.33 63.178 128.232 63.178Z" fill="#242D3C"/>
<path d="M120.682 78.7653C120.682 78.7653 125.583 85.7898 130.29 84.0567C134.987 82.3237 132.598 77.4321 132.598 77.4321" stroke="#242D3C" stroke-width="1.5" stroke-miterlimit="10" stroke-linecap="round"/>
<path d="M106.838 18.7041C106.838 18.7041 112.211 20.2423 113.032 26.1081" stroke="#242D3C" stroke-width="1.5" stroke-miterlimit="10" stroke-linecap="round"/>
<path d="M58.1191 64.8299C58.1191 64.8299 63.7695 67.7115 66.323 61.5688" stroke="#242D3C" stroke-width="1.5" stroke-miterlimit="10" stroke-linecap="round"/>
<path d="M142.944 108.393C142.944 108.393 144.749 115.981 136.248 121.242C136.248 121.242 153.835 132.245 142.944 108.393Z" fill="white" stroke="#242D3C" stroke-width="1.5" stroke-linecap="round" stroke-linejoin="round"/>
<path d="M250.958 189.661C250.958 189.661 252.435 190.235 250.958 193.875C250.958 193.875 253.645 199.331 249.748 201.679C245.851 204.017 243.975 207.094 237.75 205.289" stroke="#242D3C" stroke-width="1.5" stroke-miterlimit="10"/>
<path d="M108.561 112.494L112.663 110.956L113.176 109.417C113.176 109.417 128.558 118.985 131.635 119.672L130.609 122.749L124.969 136.08L113.176 146.335L116.765 151.975L119.329 154.539L123.944 150.437V163.768L127.02 175.048L134.198 189.918L124.969 190.943L110.1 188.892L100.87 186.841L102.921 176.586L103.947 169.921L97.7938 175.048L88.5645 179.663L81.8989 181.201L77.797 179.663L76.7715 176.586V170.946L79.3352 162.23L84.309 150.437L88.8333 141.107L92.9051 132.964L97.7938 124.82L103.947 117.621L108.561 112.494Z" fill="#D7191F"/>
<path d="M99.1699 186.37C99.1699 186.37 132.621 199.445 167.969 179.448" stroke="#242D3C" stroke-width="1.5" stroke-miterlimit="10" stroke-linecap="round"/>
<path d="M103.616 169.88C103.616 169.88 102.232 178.586 101.062 182.627" stroke="#242D3C" stroke-width="1.5" stroke-miterlimit="10" stroke-linecap="round"/>
<path d="M192.126 222.508C230.284 222.508 261.223 191.569 261.223 153.411C261.223 115.253 230.284 84.314 192.126 84.314C153.968 84.314 123.029 115.253 123.029 153.411C123.029 191.569 153.968 222.508 192.126 222.508Z" fill="#F7B637" stroke="#242D3C" stroke-width="1.5" stroke-miterlimit="10"/>
<path d="M114.715 150.436L112.664 145.822L115.228 143.771L124.457 136.08L128.046 134.029H132.661L134.712 135.054C136.353 136.695 136.076 143.258 135.737 146.335H130.61L125.483 147.873L121.381 151.462L118.304 155.051L114.715 150.436Z" fill="white"/>
<path d="M88.8837 158.077C95.2315 151.729 112.429 145.853 112.429 145.853C116.264 153.103 118.428 154.416 118.776 154.857C118.776 154.857 97.4978 180.361 81.9105 181.007C68.0563 181.581 81.2542 156.005 92.2473 134.399C104.297 110.71 113.577 111.336 113.577 111.336C113.577 111.336 122.007 118.042 130.846 118.042" stroke="#242D3C" stroke-width="1.5" stroke-miterlimit="10" stroke-linecap="round"/>
<path d="M134.721 135.947C135.213 136.224 135.839 136.049 136.116 135.557C136.393 135.065 136.218 134.439 135.726 134.163L134.721 135.947ZM112.427 145.853C112.837 146.4 113.043 146.673 113.043 146.673C113.043 146.673 113.043 146.673 113.053 146.673C113.053 146.673 113.073 146.653 113.094 146.643C113.135 146.612 113.196 146.571 113.268 146.52C113.422 146.407 113.637 146.243 113.904 146.048C114.437 145.648 115.186 145.094 116.006 144.469C117.637 143.228 119.606 141.7 120.877 140.623L119.554 139.054C118.324 140.09 116.406 141.587 114.765 142.828C113.955 143.443 113.217 143.997 112.684 144.397C112.417 144.602 112.202 144.756 112.048 144.869C111.976 144.92 111.915 144.971 111.874 144.992C111.853 145.002 111.843 145.012 111.833 145.022C111.833 145.022 111.833 145.022 111.822 145.022C111.822 145.022 111.822 145.022 112.438 145.843L112.427 145.853ZM120.877 140.603C122.169 139.505 124.272 137.547 126.815 136.255C129.327 134.973 132.065 134.45 134.721 135.947L135.726 134.163C132.229 132.194 128.712 132.993 125.882 134.429C123.072 135.855 120.754 138.018 119.554 139.034L120.877 140.603Z" fill="#242D3C"/>
<path d="M128.045 137.793C128.045 137.793 132.588 136.255 136.331 137.793" stroke="#242D3C" stroke-width="1.5" stroke-miterlimit="10" stroke-linecap="round"/>
<path d="M128.045 140.869C128.045 140.869 132.588 139.33 136.331 140.869" stroke="#242D3C" stroke-width="1.5" stroke-miterlimit="10" stroke-linecap="round"/>
<path d="M128.045 143.946C128.045 143.946 132.588 142.398 136.331 143.946" stroke="#242D3C" stroke-width="1.5" stroke-miterlimit="10" stroke-linecap="round"/>
<path d="M123.28 149.544L122.593 148.785L122.542 148.836L122.491 148.898L123.28 149.544ZM135.053 147.349C135.606 147.452 136.14 147.073 136.242 146.519C136.345 145.965 135.965 145.432 135.412 145.329L135.063 147.349H135.053ZM118.778 154.856C119.291 155.307 119.547 155.533 119.547 155.533C119.547 155.533 119.558 155.523 119.568 155.502C119.589 155.482 119.619 155.451 119.66 155.399C119.732 155.307 119.845 155.184 119.988 155.02C120.265 154.702 120.655 154.251 121.106 153.728C121.998 152.682 123.137 151.349 124.08 150.2L122.491 148.898C121.557 150.036 120.44 151.349 119.547 152.395C119.107 152.918 118.717 153.359 118.44 153.677C118.307 153.841 118.194 153.964 118.122 154.046C118.081 154.087 118.05 154.118 118.04 154.148C118.04 154.159 118.02 154.169 118.02 154.179L118.789 154.856H118.778ZM123.29 149.554C123.749 150.06 123.978 150.313 123.978 150.313C123.978 150.313 123.998 150.303 124.008 150.282C124.039 150.262 124.09 150.211 124.152 150.159C124.285 150.057 124.48 149.903 124.747 149.718C125.27 149.349 126.049 148.867 127.033 148.416C129.002 147.524 131.771 146.775 135.063 147.349L135.412 145.329C131.617 144.673 128.428 145.534 126.182 146.55C125.065 147.062 124.183 147.606 123.567 148.037C123.26 148.252 123.024 148.436 122.86 148.57C122.778 148.631 122.716 148.693 122.665 148.724C122.644 148.744 122.624 148.754 122.614 148.775C122.614 148.775 122.603 148.785 122.593 148.785C122.593 148.785 122.822 149.038 123.28 149.544L123.29 149.554Z" fill="#242D3C"/>
<path d="M128.546 126.338C126.957 126.83 125.224 127.025 123.44 126.656C116.692 125.24 110.621 105.315 110.621 105.315H110.642C118.015 114.473 126.444 118.462 131.561 120.154H131.572" fill="white"/>
<path d="M128.546 126.338C126.957 126.83 125.224 127.025 123.44 126.656C116.692 125.24 110.621 105.315 110.621 105.315H110.642C118.015 114.473 126.444 118.462 131.561 120.154H131.572" stroke="#242D3C" stroke-width="1.5" stroke-linecap="round" stroke-linejoin="round"/>
<path d="M206.212 62.4204C205.026 64.5597 201.882 68.955 198.798 69.4217C201.863 69.519 209.178 68.2548 213.923 62.4204C225.291 63.7818 248.028 61.6619 248.028 42.2916C248.028 18.0787 182.121 4.51044 176.556 38.791C173.59 57.0613 192.57 66.1156 200.577 62.4204" stroke="#242D3C" stroke-width="1.5" stroke-linecap="round" stroke-linejoin="round"/>
<path d="M197.861 39.6875C198.645 38.9156 204.509 44.6192 206.362 46.1201C211.484 42.2605 224.792 30.5184 226.361 31.5476C228.323 32.8342 207.67 53.019 206.362 53.019C205.054 53.019 196.88 40.6524 197.861 39.6875Z" fill="#242D3C" stroke="#242D3C" stroke-width="1.5" stroke-linecap="round" stroke-linejoin="round"/>
<path d="M154.195 102.755C175.73 87.8856 220.339 78.1433 249.052 126.341" stroke="#242D3C" stroke-width="0.75" stroke-linecap="round" stroke-linejoin="round"/>
<path d="M224.692 208.009C201.638 220.393 156.223 225.117 133.045 174.026" stroke="#242D3C" stroke-width="0.75" stroke-linecap="round" stroke-linejoin="round"/>
<mask id="path-30-inside-1_182_2074" fill="white">
<path fill-rule="evenodd" clip-rule="evenodd" d="M161.308 145.147C153.41 146.253 148.555 147.757 148.555 149.414C148.555 151.165 153.984 152.746 162.697 153.867C165.439 168.616 170.237 183.253 176.354 183.253C183.69 183.253 189.913 169.595 193.566 155.566C193.773 155.566 193.981 155.566 194.189 155.566C194.314 155.566 194.439 155.566 194.564 155.566C196.278 170.251 200 184.853 205.939 184.853C212.011 184.853 218.721 169.213 222.74 154.214C233.155 153.086 239.822 151.355 239.822 149.414C239.822 147.611 234.073 145.989 224.911 144.864C226.671 135.813 227.006 128.486 225.014 127.295C223.533 126.409 220.33 134.929 216.953 144.08C212.299 143.718 207.128 143.464 201.624 143.342C199.594 134.587 197.401 126.369 195.577 125.797C195.529 125.759 195.48 125.724 195.429 125.694C193.901 124.781 190.338 133.872 186.74 143.342C180.873 143.472 175.382 143.753 170.495 144.154C167.071 133.629 163.352 122.87 161.271 123.838C159.694 124.571 159.824 134.005 161.308 145.147ZM182.097 155.348C179.283 155.244 176.578 155.105 174.009 154.934C175.653 159.82 176.989 163.293 177.684 163.293C178.59 163.293 180.197 159.994 182.097 155.348ZM204.348 155.413C205.598 160.875 206.636 164.894 207.269 164.894C208.571 164.894 210.59 160.66 212.827 155.032C210.13 155.195 207.293 155.323 204.348 155.413Z"/>
</mask>
<path fill-rule="evenodd" clip-rule="evenodd" d="M161.308 145.147C153.41 146.253 148.555 147.757 148.555 149.414C148.555 151.165 153.984 152.746 162.697 153.867C165.439 168.616 170.237 183.253 176.354 183.253C183.69 183.253 189.913 169.595 193.566 155.566C193.773 155.566 193.981 155.566 194.189 155.566C194.314 155.566 194.439 155.566 194.564 155.566C196.278 170.251 200 184.853 205.939 184.853C212.011 184.853 218.721 169.213 222.74 154.214C233.155 153.086 239.822 151.355 239.822 149.414C239.822 147.611 234.073 145.989 224.911 144.864C226.671 135.813 227.006 128.486 225.014 127.295C223.533 126.409 220.33 134.929 216.953 144.08C212.299 143.718 207.128 143.464 201.624 143.342C199.594 134.587 197.401 126.369 195.577 125.797C195.529 125.759 195.48 125.724 195.429 125.694C193.901 124.781 190.338 133.872 186.74 143.342C180.873 143.472 175.382 143.753 170.495 144.154C167.071 133.629 163.352 122.87 161.271 123.838C159.694 124.571 159.824 134.005 161.308 145.147ZM182.097 155.348C179.283 155.244 176.578 155.105 174.009 154.934C175.653 159.82 176.989 163.293 177.684 163.293C178.59 163.293 180.197 159.994 182.097 155.348ZM204.348 155.413C205.598 160.875 206.636 164.894 207.269 164.894C208.571 164.894 210.59 160.66 212.827 155.032C210.13 155.195 207.293 155.323 204.348 155.413Z" fill="#F6B637"/>
<path d="M161.308 145.147L161.516 146.633C162.332 146.518 162.903 145.766 162.795 144.949L161.308 145.147ZM162.697 153.867L164.171 153.592C164.052 152.952 163.534 152.462 162.888 152.379L162.697 153.867ZM193.566 155.566L193.568 154.066C192.884 154.065 192.286 154.526 192.114 155.188L193.566 155.566ZM194.564 155.566L196.054 155.392C195.966 154.636 195.325 154.065 194.563 154.066L194.564 155.566ZM222.74 154.214L222.578 152.722C221.962 152.789 221.451 153.227 221.291 153.826L222.74 154.214ZM224.911 144.864L223.439 144.578C223.359 144.986 223.453 145.409 223.697 145.746C223.942 146.082 224.315 146.302 224.728 146.353L224.911 144.864ZM225.014 127.295L225.784 126.007V126.007L225.014 127.295ZM216.953 144.08L216.837 145.575C217.506 145.627 218.128 145.229 218.361 144.599L216.953 144.08ZM201.624 143.342L200.163 143.681C200.318 144.349 200.906 144.827 201.591 144.842L201.624 143.342ZM195.577 125.797L194.646 126.973C194.79 127.087 194.953 127.173 195.128 127.228L195.577 125.797ZM195.429 125.694L194.659 126.982L194.659 126.982L195.429 125.694ZM186.74 143.342L186.773 144.842C187.384 144.828 187.925 144.446 188.142 143.875L186.74 143.342ZM170.495 144.154L169.069 144.618C169.284 145.279 169.925 145.706 170.618 145.649L170.495 144.154ZM161.271 123.838L160.639 122.478L161.271 123.838ZM182.097 155.348L183.486 155.916C183.671 155.463 183.624 154.947 183.358 154.535C183.092 154.123 182.642 153.867 182.153 153.849L182.097 155.348ZM174.009 154.934L174.108 153.437C173.609 153.404 173.126 153.622 172.82 154.018C172.515 154.415 172.427 154.938 172.587 155.412L174.009 154.934ZM207.269 164.894V163.394H207.269L207.269 164.894ZM204.348 155.413L204.302 153.914C203.853 153.928 203.435 154.142 203.161 154.497C202.886 154.852 202.786 155.311 202.886 155.748L204.348 155.413ZM212.827 155.032L214.221 155.586C214.411 155.109 214.343 154.568 214.043 154.152C213.742 153.736 213.249 153.503 212.737 153.534L212.827 155.032ZM150.055 149.414C150.055 149.78 149.802 149.767 150.277 149.446C150.687 149.169 151.389 148.843 152.437 148.499C154.513 147.819 157.599 147.181 161.516 146.633L161.1 143.662C157.119 144.219 153.829 144.886 151.503 145.649C150.35 146.026 149.344 146.456 148.597 146.961C147.914 147.422 147.055 148.219 147.055 149.414H150.055ZM162.888 152.379C158.563 151.823 155.126 151.16 152.8 150.443C151.627 150.082 150.825 149.732 150.347 149.427C149.784 149.067 150.055 149.031 150.055 149.414H147.055C147.055 150.672 148.004 151.49 148.732 151.955C149.544 152.474 150.644 152.918 151.916 153.31C154.484 154.102 158.118 154.79 162.505 155.354L162.888 152.379ZM161.222 154.141C162.602 161.561 164.51 169.026 166.876 174.671C168.057 177.486 169.385 179.934 170.879 181.703C172.357 183.454 174.184 184.753 176.354 184.753V181.753C175.465 181.753 174.399 181.222 173.171 179.768C171.959 178.332 170.77 176.199 169.643 173.511C167.396 168.149 165.534 160.921 164.171 153.592L161.222 154.141ZM176.354 184.753C178.68 184.753 180.786 183.667 182.626 182.016C184.464 180.368 186.138 178.071 187.646 175.41C190.665 170.083 193.174 163.023 195.017 155.944L192.114 155.188C190.305 162.138 187.876 168.921 185.036 173.931C183.615 176.437 182.129 178.432 180.623 179.783C179.119 181.132 177.696 181.753 176.354 181.753V184.753ZM194.189 154.066C193.981 154.066 193.775 154.066 193.568 154.066L193.563 157.066C193.771 157.066 193.98 157.066 194.189 157.066V154.066ZM194.563 154.066C194.438 154.066 194.313 154.066 194.189 154.066V157.066C194.314 157.066 194.44 157.066 194.566 157.066L194.563 154.066ZM193.075 155.74C193.937 163.128 195.311 170.571 197.249 176.204C198.215 179.012 199.352 181.467 200.702 183.248C202.04 185.015 203.776 186.353 205.939 186.353V183.353C205.133 183.353 204.176 182.867 203.093 181.437C202.02 180.021 201.007 177.907 200.086 175.229C198.249 169.89 196.906 162.69 196.054 155.392L193.075 155.74ZM205.939 186.353C208.102 186.353 210.036 184.982 211.671 183.184C213.344 181.343 214.949 178.786 216.447 175.838C219.449 169.927 222.163 162.16 224.188 154.602L221.291 153.826C219.297 161.267 216.647 168.819 213.772 174.479C212.331 177.315 210.868 179.606 209.45 181.166C207.993 182.769 206.812 183.353 205.939 183.353V186.353ZM238.322 149.414C238.322 149.197 238.422 149.102 238.379 149.152C238.327 149.212 238.183 149.344 237.87 149.524C237.245 149.883 236.228 150.277 234.789 150.672C231.934 151.458 227.755 152.162 222.578 152.722L222.901 155.705C228.14 155.138 232.502 154.413 235.584 153.565C237.114 153.144 238.415 152.671 239.365 152.124C239.841 151.851 240.298 151.521 240.652 151.11C241.015 150.689 241.322 150.116 241.322 149.414H238.322ZM224.728 146.353C229.278 146.912 232.909 147.586 235.373 148.322C236.616 148.693 237.474 149.055 237.99 149.375C238.602 149.755 238.322 149.804 238.322 149.414H241.322C241.322 148.121 240.324 147.292 239.571 146.826C238.723 146.3 237.571 145.848 236.232 145.448C233.53 144.641 229.706 143.942 225.094 143.375L224.728 146.353ZM226.383 145.15C227.272 140.583 227.812 136.393 227.869 133.158C227.898 131.548 227.808 130.105 227.55 128.945C227.312 127.872 226.846 126.642 225.784 126.007L224.245 128.582C224.179 128.543 224.418 128.676 224.622 129.595C224.806 130.426 224.896 131.604 224.87 133.106C224.817 136.095 224.31 140.095 223.439 144.578L226.383 145.15ZM225.784 126.007C224.88 125.467 224 125.821 223.518 126.16C223.061 126.481 222.679 126.955 222.368 127.408C221.724 128.345 221.034 129.719 220.324 131.313C218.892 134.531 217.229 138.999 215.546 143.561L218.361 144.599C220.054 140.01 221.681 135.643 223.065 132.533C223.763 130.965 224.362 129.804 224.841 129.106C224.956 128.938 225.053 128.814 225.131 128.727C225.212 128.636 225.25 128.609 225.244 128.613C225.234 128.62 224.778 128.901 224.245 128.582L225.784 126.007ZM201.591 144.842C207.07 144.963 212.214 145.216 216.837 145.575L217.07 142.584C212.385 142.22 207.185 141.965 201.657 141.842L201.591 144.842ZM203.086 143.003C202.07 138.623 201.002 134.328 199.952 131.044C199.429 129.408 198.893 127.968 198.348 126.878C198.076 126.335 197.778 125.828 197.446 125.416C197.137 125.031 196.673 124.569 196.026 124.366L195.128 127.228C194.937 127.168 194.941 127.088 195.108 127.296C195.254 127.477 195.442 127.775 195.664 128.219C196.107 129.105 196.588 130.374 197.095 131.958C198.105 135.115 199.149 139.307 200.163 143.681L203.086 143.003ZM196.509 124.621C196.412 124.544 196.308 124.472 196.199 124.407L194.659 126.982C194.651 126.977 194.647 126.973 194.646 126.973L196.509 124.621ZM196.199 124.407C195.263 123.847 194.36 124.246 193.891 124.583C193.428 124.914 193.032 125.401 192.7 125.879C192.015 126.866 191.269 128.315 190.497 129.999C188.941 133.396 187.133 138.085 185.338 142.81L188.142 143.875C189.945 139.13 191.718 134.538 193.225 131.249C193.984 129.591 194.64 128.346 195.165 127.59C195.292 127.407 195.401 127.268 195.489 127.168C195.533 127.119 195.569 127.083 195.596 127.058C195.609 127.045 195.62 127.036 195.627 127.03C195.631 127.027 195.633 127.025 195.635 127.023C195.637 127.022 195.638 127.021 195.638 127.021C195.638 127.021 195.637 127.022 195.635 127.023C195.632 127.025 195.629 127.027 195.624 127.03C195.615 127.036 195.599 127.044 195.578 127.054C195.537 127.073 195.466 127.1 195.369 127.117C195.144 127.155 194.884 127.116 194.659 126.982L196.199 124.407ZM170.618 145.649C175.472 145.251 180.932 144.971 186.773 144.842L186.707 141.843C180.814 141.973 175.293 142.255 170.372 142.659L170.618 145.649ZM171.921 143.69C170.212 138.434 168.409 133.058 166.764 129.109C165.948 127.149 165.135 125.453 164.355 124.289C163.973 123.719 163.526 123.163 163.003 122.785C162.46 122.393 161.584 122.038 160.639 122.478L161.904 125.198C161.478 125.396 161.174 125.165 161.246 125.217C161.339 125.284 161.55 125.492 161.863 125.959C162.472 126.868 163.193 128.338 163.995 130.263C165.586 134.084 167.354 139.349 169.069 144.618L171.921 143.69ZM160.639 122.478C159.913 122.815 159.555 123.493 159.373 123.934C159.165 124.437 159.024 125.037 158.922 125.672C158.716 126.953 158.631 128.643 158.641 130.597C158.663 134.523 159.074 139.734 159.821 145.345L162.795 144.949C162.058 139.418 161.662 134.341 161.641 130.581C161.631 128.693 161.716 127.191 161.884 126.148C161.968 125.621 162.064 125.277 162.145 125.08C162.252 124.821 162.235 125.044 161.904 125.198L160.639 122.478ZM182.153 153.849C179.352 153.746 176.662 153.607 174.108 153.437L173.909 156.43C176.494 156.603 179.214 156.743 182.042 156.847L182.153 153.849ZM177.684 161.793C177.957 161.793 178.16 161.878 178.27 161.939C178.377 161.998 178.435 162.054 178.446 162.065C178.462 162.081 178.42 162.041 178.323 161.885C178.136 161.582 177.888 161.08 177.583 160.361C176.981 158.939 176.251 156.896 175.43 154.455L172.587 155.412C173.41 157.858 174.17 159.995 174.821 161.531C175.143 162.291 175.462 162.962 175.772 163.463C175.924 163.709 176.113 163.978 176.342 164.204C176.527 164.386 176.991 164.793 177.684 164.793V161.793ZM180.709 154.78C179.762 157.094 178.909 159.021 178.195 160.355C177.834 161.029 177.541 161.49 177.321 161.764C177.209 161.901 177.156 161.941 177.164 161.936C177.172 161.93 177.216 161.898 177.295 161.866C177.377 161.832 177.511 161.793 177.684 161.793V164.793C178.248 164.793 178.684 164.543 178.947 164.349C179.224 164.144 179.46 163.89 179.656 163.646C180.051 163.156 180.448 162.502 180.84 161.771C181.631 160.293 182.532 158.247 183.486 155.916L180.709 154.78ZM207.269 163.394C207.64 163.394 207.9 163.542 208.023 163.631C208.144 163.717 208.202 163.796 208.209 163.804C208.22 163.819 208.177 163.762 208.092 163.57C207.928 163.202 207.722 162.607 207.479 161.779C206.999 160.14 206.435 157.81 205.81 155.079L202.886 155.748C203.511 158.478 204.092 160.888 204.601 162.624C204.853 163.483 205.103 164.234 205.351 164.791C205.472 165.061 205.624 165.361 205.818 165.616C205.937 165.773 206.417 166.394 207.269 166.394L207.269 163.394ZM211.433 154.478C210.319 157.283 209.28 159.681 208.376 161.363C207.921 162.211 207.533 162.811 207.224 163.179C207.069 163.363 206.973 163.442 206.939 163.465C206.901 163.491 207.022 163.394 207.269 163.394V166.394C207.841 166.394 208.31 166.163 208.64 165.936C208.975 165.706 209.268 165.41 209.521 165.109C210.026 164.508 210.527 163.698 211.019 162.784C212.009 160.941 213.099 158.409 214.221 155.586L211.433 154.478ZM212.737 153.534C210.055 153.696 207.233 153.824 204.302 153.914L204.394 156.913C207.353 156.822 210.204 156.693 212.918 156.529L212.737 153.534Z" fill="#242D3C" mask="url(#path-30-inside-1_182_2074)"/>
<path d="M243.678 79.8637L238.737 87.698" stroke="#242D3C" stroke-width="1.5" stroke-linecap="round" stroke-linejoin="round"/>
<path d="M257.4 90.2967L250.675 96.6659" stroke="#242D3C" stroke-width="1.5" stroke-linecap="round" stroke-linejoin="round"/>
<path d="M267.995 104.366L259.738 108.563" stroke="#242D3C" stroke-width="1.5" stroke-linecap="round" stroke-linejoin="round"/>
<path d="M274.245 120.52L265.137 122.204" stroke="#242D3C" stroke-width="1.5" stroke-linecap="round" stroke-linejoin="round"/>
<path d="M177.969 221.186L179 228" stroke="#242D3C" stroke-width="1.5" stroke-linecap="round" stroke-linejoin="round"/>
</svg>
