<svg width="209" height="46" viewBox="0 0 209 46" fill="none" xmlns="http://www.w3.org/2000/svg">
<path d="M76.9489 10.132V1.258H74.5369V10.132H76.9489ZM64.5649 10.852V17.278H76.9129V10.852H64.5649ZM66.9769 12.868H74.5009V15.226H66.9769V12.868ZM63.2329 3.796H69.3529C68.7769 6.028 66.0589 7.792 62.1709 8.566L63.3049 10.438C67.6429 9.52 72.0349 6.82 71.9809 1.78H63.2329V3.796ZM93.3709 5.2H83.2189V3.49H93.1909V1.51H80.8069V7.198H85.8649V8.314H79.0789V10.294H94.9189V8.314H88.3129V7.198H93.3709V5.2ZM87.0709 10.834C83.9209 10.834 81.6889 12.292 81.6889 14.524C81.6889 16.756 83.9209 18.214 87.0709 18.214C90.2209 18.214 92.4529 16.756 92.4529 14.524C92.4529 12.292 90.2209 10.834 87.0709 10.834ZM87.0709 16.27C85.1269 16.27 84.1009 15.586 84.1009 14.524C84.1009 13.462 85.1269 12.778 87.0709 12.778C89.0149 12.778 90.0409 13.462 90.0409 14.524C90.0409 15.586 89.0149 16.27 87.0709 16.27ZM101.801 5.542C99.011 5.542 97.319 6.748 97.319 8.53C97.319 10.312 99.011 11.518 101.801 11.518C104.573 11.518 106.283 10.312 106.283 8.53C106.283 6.748 104.573 5.542 101.801 5.542ZM106.733 7.594H108.893V8.692H106.733V10.672H108.893V13.408H111.305V1.258H108.893V5.614H106.733V7.594ZM98.939 12.382V17.206H111.755V15.154H101.351V12.382H98.939ZM107.129 5.164V3.328H96.329V5.164H107.129ZM104.789 2.716V0.879999H98.669V2.716H104.789ZM101.801 9.754C100.361 9.754 99.695 9.268 99.695 8.53C99.695 7.792 100.361 7.306 101.801 7.306C103.241 7.306 103.907 7.792 103.907 8.53C103.907 9.268 103.241 9.754 101.801 9.754ZM114.083 1.6V9.448L124.811 8.962V6.946L116.495 7.216V1.6H114.083ZM127.943 10.132V1.258H125.531V10.132H127.943ZM115.559 10.852V17.278H127.907V10.852H115.559ZM117.971 12.868H125.495V15.226H117.971V12.868ZM145.175 17.386V1.258H142.763V17.386H145.175ZM142.223 14.938V12.922L130.343 13.066V15.118L142.223 14.938ZM136.157 1.618C133.187 1.618 131.153 3.886 131.153 6.334C131.153 8.782 133.187 11.05 136.157 11.05C139.127 11.05 141.161 8.782 141.161 6.334C141.161 3.886 139.127 1.618 136.157 1.618ZM136.157 8.998C134.573 8.998 133.565 7.702 133.565 6.334C133.565 4.966 134.573 3.67 136.157 3.67C137.741 3.67 138.749 4.966 138.749 6.334C138.749 7.702 137.741 8.998 136.157 8.998ZM8.72459 44.972H11.0646V37.016H12.4686V45.368H14.8446V29.258H12.4686V34.928H11.0646V29.438H8.72459V44.972ZM0.606594 30.014V42.542L8.00459 42.11V40.094L2.98259 40.31V32.066H7.33859V30.014H0.606594ZM32.4726 38.15V36.422H16.6326V38.15H23.3286V38.978H18.2526V40.706H28.4046V41.318H18.2526V45.278H31.1946V43.532H20.6646V42.902H30.8166V38.978H25.7766V38.15H32.4726ZM18.1446 36.026C19.9446 35.954 21.9426 35.648 23.5626 34.964C23.8866 34.82 24.1926 34.658 24.4806 34.496C24.7866 34.694 25.1106 34.874 25.4706 35.036C27.0186 35.702 28.9986 35.972 30.8706 35.9L31.9146 34.136C29.7546 34.1 27.9006 33.992 26.4966 33.416L25.9386 33.146C25.9566 33.092 25.9926 33.056 26.0286 33.002H30.8706V31.202H18.1626V33.002H23.0766C22.7526 33.236 22.3566 33.416 21.8886 33.56C20.6826 33.938 19.0446 34.118 17.1726 34.208L18.1446 36.026ZM28.0446 28.898H20.9886V30.698H28.0446V28.898ZM44.9347 36.728C43.7647 36.278 42.7387 35.666 41.8207 34.91C41.1907 34.388 40.6867 33.758 40.2727 33.02C40.3267 32.894 40.3627 32.75 40.4167 32.606C40.7587 31.616 40.9387 30.59 40.9567 29.51H38.5087C38.3647 32.912 36.6727 35.828 33.2347 37.304L34.7467 39.032C36.4567 38.222 37.9867 36.926 39.0847 35.288L39.2647 35.036C40.4167 36.62 41.9647 37.88 43.5847 38.564L44.9347 36.728ZM36.3127 39.698V45.206H49.1287V43.154H38.7247V39.698H36.3127ZM48.6787 41.084V29.258H46.2667V41.084H48.6787ZM51.7267 38.492C53.2387 38.114 54.8227 37.268 56.0287 36.116L56.3347 35.792L56.4787 35.918C57.7207 37.016 59.4307 37.7 60.9247 37.88L62.1127 35.954C60.4207 35.702 58.8727 35.252 57.7567 34.316L57.5047 34.064C57.6307 33.83 57.7207 33.578 57.8107 33.308H61.0687V35.18H63.2647V38.42H65.6767V29.258H63.2647V33.2H61.5007V31.4H51.4567V33.308H55.2187C54.9667 33.92 54.5887 34.442 54.0847 34.892C53.1667 35.684 51.9427 36.26 50.3767 36.638L51.7267 38.492ZM60.1687 38.258C57.1447 38.258 54.9667 39.806 54.9667 42.056C54.9667 44.306 57.1447 45.854 60.1687 45.854C63.1927 45.854 65.3707 44.306 65.3707 42.056C65.3707 39.806 63.1927 38.258 60.1687 38.258ZM60.1687 43.91C58.3687 43.91 57.3787 43.19 57.3787 42.056C57.3787 40.922 58.3687 40.202 60.1687 40.202C61.9687 40.202 62.9587 40.922 62.9587 42.056C62.9587 43.19 61.9687 43.91 60.1687 43.91ZM59.5927 30.788V28.88H53.5447V30.788H59.5927ZM78.4088 35.486C78.4088 32.246 76.1588 29.978 73.1888 29.978C70.2188 29.978 67.9688 32.246 67.9688 35.486C67.9688 38.726 70.2188 40.994 73.1888 40.994C76.1588 40.994 78.4088 38.726 78.4088 35.486ZM75.9968 35.486C75.9968 37.574 74.8448 38.942 73.1888 38.942C71.5328 38.942 70.3808 37.574 70.3808 35.486C70.3808 33.398 71.5328 32.03 73.1888 32.03C74.8448 32.03 75.9968 33.398 75.9968 35.486ZM82.6208 45.386V29.258H80.2088V45.386H82.6208ZM101.853 39.644V37.664L97.3891 37.718V36.638L98.0011 36.476C99.7111 35.9 100.863 34.604 100.863 32.84C100.863 30.482 98.8291 28.934 96.1111 28.934C93.3931 28.934 91.3591 30.482 91.3591 32.84C91.3591 34.604 92.5111 35.9 94.2211 36.476C94.4551 36.548 94.6891 36.602 94.9411 36.656V37.754L90.3331 37.808V39.824L101.853 39.644ZM104.913 41.624V36.008H106.713V33.92H104.913V29.258H102.501V41.624H104.913ZM92.4391 40.49V45.08H105.417V43.028H94.8511V40.49H92.4391ZM96.1111 34.766C94.6891 34.766 93.7711 33.992 93.7711 32.84C93.7711 31.688 94.6891 30.914 96.1111 30.914C97.4971 30.914 98.4511 31.688 98.4511 32.84C98.4511 33.992 97.4971 34.766 96.1111 34.766ZM123.369 44.198V42.146H119.715V39.644H121.911V37.574H111.651V35.738H121.641V29.87H109.239V31.922H119.247V33.686H109.239V39.644H111.543V42.146H107.529V44.198H123.369ZM113.955 39.644H117.303V42.146H113.955V39.644ZM136.677 42.938V40.922L132.285 40.976V38.15H136.029V36.08H128.289V31.958H135.669V29.906H125.877V38.15H129.837V41.012L124.797 41.066V43.118L136.677 42.938ZM139.629 45.386V29.258H137.217V45.386H139.629ZM156.393 38.312V29.258H153.981V32.462H151.389C151.335 32.228 151.245 31.994 151.137 31.76C150.435 30.14 148.743 29.096 146.727 29.096C144.045 29.096 141.939 30.95 141.939 33.542C141.939 36.134 144.045 37.988 146.727 37.988C148.743 37.988 150.435 36.926 151.137 35.342C151.263 35.09 151.353 34.82 151.407 34.55H153.981V38.312H156.393ZM157.977 43.802C156.555 43.298 155.331 42.614 154.413 41.588L154.197 41.318C154.503 40.616 154.701 39.86 154.755 39.032H152.343C152.289 39.68 152.145 40.274 151.911 40.814C151.695 41.336 151.425 41.822 151.083 42.236C151.065 42.218 151.029 42.218 151.011 42.218C150.309 41.93 149.661 41.534 149.139 41.048L148.869 40.76C149.103 40.22 149.247 39.644 149.301 39.032H146.889C146.583 41.174 145.233 42.884 142.623 43.748L144.063 45.296C145.215 44.846 146.439 44.054 147.429 42.974C147.591 42.794 147.753 42.614 147.897 42.416C148.167 42.686 148.455 42.956 148.761 43.19C148.995 43.37 149.229 43.532 149.481 43.694C149.085 43.946 148.653 44.18 148.185 44.396L149.751 45.8C150.885 45.278 152.073 44.396 153.009 43.262C153.063 43.172 153.135 43.1 153.189 43.028L153.207 43.046C154.179 44.198 155.403 45.098 156.663 45.602L157.977 43.802ZM146.727 35.936C145.233 35.936 144.351 34.982 144.351 33.542C144.351 32.102 145.233 31.148 146.727 31.148C148.221 31.148 149.103 32.102 149.103 33.542C149.103 34.982 148.221 35.936 146.727 35.936ZM172.707 45.278V38.87H170.295V40.31H162.555V38.87H160.143V45.278H172.707ZM160.035 35.414C161.745 35.27 163.725 34.658 165.327 33.668C165.705 33.416 166.065 33.146 166.407 32.84C166.659 33.074 166.947 33.29 167.253 33.488C168.855 34.55 170.871 35.18 172.797 35.288L173.877 33.488C171.627 33.308 169.701 32.786 168.261 31.85C168.027 31.688 167.811 31.508 167.613 31.328C167.667 31.22 167.703 31.112 167.757 31.022C168.027 30.464 168.171 29.87 168.189 29.24H165.705C165.561 31.85 162.537 33.254 158.991 33.596L160.035 35.414ZM174.363 38.15V36.17H158.523V38.15H174.363ZM170.295 43.262H162.555V42.218H170.295V43.262ZM190.335 45.386V29.258H187.923V45.386H190.335ZM176.691 29.726V42.452L187.203 41.894V39.878L179.103 40.22V29.726H176.691ZM206.433 45.386V36.728H208.719V34.64H206.433V29.258H204.021V45.386H206.433ZM193.329 29.906V42.56L203.301 42.002V39.986L195.741 40.328V31.922H202.041V29.906H193.329Z" fill="#242D3C"/>
</svg>
