<svg width="163" height="11" viewBox="0 0 163 11" fill="none" xmlns="http://www.w3.org/2000/svg">
<path d="M6.73 7.61C6.07 7.18 5.47 6.67 4.94 6.08C4.42 5.5 4.01 4.88 3.72 4.22C3.76 4.09 3.8 3.96 3.83 3.82C3.99 3.22 4.09 2.57 4.13 1.87H6.31V1.21H0.78V1.87H3.33C3.28 2.5 3.19 3.09 3.05 3.64C2.57 5.57 1.56 7.01 0.23 7.94L0.74 8.47C1.69 7.76 2.51 6.86 3.11 5.71C3.22 5.5 3.33 5.28 3.42 5.05C3.53 5.26 3.66 5.46 3.79 5.66C4.47 6.66 5.35 7.58 6.22 8.2L6.73 7.61ZM8.55 9.75V0.83H7.79V9.75H8.55ZM17.8234 5.55V0.83H17.0634V5.55H17.8234ZM17.0434 6.01V7.09H11.9634V6.01H11.2034V9.69H17.8034V6.01H17.0434ZM11.9634 9.03V7.73H17.0434V9.03H11.9634ZM12.6534 0.759999C11.2434 0.759999 10.0934 1.73 10.0934 3.09C10.0934 4.45 11.2434 5.42 12.6534 5.42C14.0634 5.42 15.2134 4.45 15.2134 3.09C15.2134 1.73 14.0634 0.759999 12.6534 0.759999ZM12.6534 4.78C11.5834 4.78 10.8534 4.08 10.8534 3.09C10.8534 2.1 11.5834 1.4 12.6534 1.4C13.7234 1.4 14.4534 2.1 14.4534 3.09C14.4534 4.08 13.7234 4.78 12.6534 4.78ZM25.3767 7.58C24.7067 7.15 24.1167 6.62 23.5967 6C23.1067 5.41 22.7067 4.8 22.4067 4.16C22.4667 3.95 22.5267 3.73 22.5767 3.51C22.7367 2.78 22.8167 1.98 22.8167 1.11H22.0367C22.0067 4.28 20.8667 6.57 18.9167 7.9L19.4267 8.43C20.4367 7.68 21.2967 6.71 21.8867 5.51C21.9667 5.34 22.0467 5.18 22.1167 5.01C22.2167 5.2 22.3267 5.38 22.4567 5.57C23.1067 6.57 23.9967 7.54 24.8567 8.16L25.3767 7.58ZM26.8367 9.75V4.91H28.2867V4.23H26.8367V0.83H26.0767V9.75H26.8367ZM28.6701 5.4V6.06H37.4301V5.4H28.6701ZM36.7801 9.65V8.99H30.4101V6.81H29.6501V9.65H36.7801ZM29.6601 0.89V4.13H36.5301V3.48H30.4201V0.89H29.6601ZM45.7747 0.529999C44.1147 0.529999 42.8347 1.4 42.8347 2.69C42.8347 3.66 43.5547 4.38 44.6147 4.7C44.8547 4.77 45.1147 4.81 45.3847 4.84V5.79H41.3947V6.45H50.1547V5.79H46.1647V4.84C46.4347 4.81 46.6847 4.77 46.9347 4.7C47.9947 4.38 48.7147 3.66 48.7147 2.69C48.7147 1.4 47.4347 0.529999 45.7747 0.529999ZM45.7747 4.21C44.5547 4.21 43.5947 3.61 43.5947 2.69C43.5947 1.77 44.5547 1.17 45.7747 1.17C46.9947 1.17 47.9547 1.77 47.9547 2.69C47.9547 3.61 46.9947 4.21 45.7747 4.21ZM49.5047 9.65V8.99H43.1347V7.11H42.3747V9.65H49.5047ZM57.048 7.95V7.3L52.038 7.55V4.93H55.718V1.15H51.278V1.81H54.958V4.27H51.278V8.27L57.048 7.95ZM58.348 9.75V4.91H59.798V4.23H58.348V0.83H57.588V9.75H58.348ZM68.3214 7.41V0.83H67.5614V7.41H68.3214ZM68.5714 9.65V8.99H62.4714V6.71H61.7114V9.65H68.5714ZM63.1514 0.799999C61.6814 0.799999 60.5514 1.84 60.5514 3.28C60.5514 4.72 61.6814 5.76 63.1514 5.76C64.6214 5.76 65.7514 4.72 65.7514 3.28C65.7514 1.84 64.6214 0.799999 63.1514 0.799999ZM63.1514 5.1C62.0314 5.1 61.3114 4.35 61.3114 3.28C61.3114 2.21 62.0314 1.46 63.1514 1.46C64.2714 1.46 64.9914 2.21 64.9914 3.28C64.9914 4.35 64.2714 5.1 63.1514 5.1ZM78.0648 9.69V9.03H72.0048V8.07H77.8648V5.88H71.2448V6.52H77.1048V7.45H71.2448V9.69H78.0648ZM75.9248 4.51C75.2948 4.3 74.7048 3.99 74.1648 3.59C73.7348 3.28 73.3848 2.91 73.1148 2.5L73.1548 2.42C73.3448 1.97 73.4548 1.49 73.4748 0.989999H72.6948C72.5648 2.67 71.3748 4.16 69.5848 4.85L70.0448 5.38C70.9248 5.01 71.7648 4.41 72.3948 3.66C72.5448 3.48 72.6748 3.29 72.7948 3.1L73.0648 3.42C73.7148 4.15 74.6148 4.8 75.4848 5.12L75.9248 4.51ZM74.8648 2.93H77.1048V5.42H77.8648V0.83H77.1048V2.29H74.8648V2.93ZM84.4481 5.71C82.7581 5.71 81.6081 6.6 81.6081 7.82C81.6081 9.04 82.7581 9.93 84.4481 9.93C86.1181 9.93 87.2881 9.04 87.2881 7.82C87.2881 6.6 86.1181 5.71 84.4481 5.71ZM84.4481 9.27C83.1281 9.27 82.3681 8.66 82.3681 7.82C82.3681 6.98 83.1281 6.37 84.4481 6.37C85.7681 6.37 86.5281 6.98 86.5281 7.82C86.5281 8.66 85.7681 9.27 84.4481 9.27ZM85.1881 1.14H79.5981V1.78H82.1581C82.1081 2.03 82.0381 2.26 81.9481 2.49C81.4481 3.67 80.3781 4.61 79.0281 5.09L79.4681 5.66C80.3381 5.33 81.2181 4.73 81.8881 3.97C82.0381 3.8 82.1681 3.63 82.2981 3.44C82.4281 3.59 82.5781 3.74 82.7481 3.88C83.4681 4.5 84.3481 4.98 85.1281 5.24L85.5281 4.61C84.6481 4.37 83.7681 3.91 83.1181 3.36C82.9281 3.2 82.7581 3.03 82.6181 2.86L82.6981 2.71C82.8281 2.41 82.9281 2.1 82.9781 1.78H85.1881V1.14ZM84.6081 3.31H86.5481V5.8H87.3081V0.83H86.5481V2.67H84.6081V3.31ZM96.7215 9.75V0.83H95.9615V9.75H96.7215ZM91.6715 1.25C90.0715 1.25 88.8415 2.47 88.8415 4.27C88.8415 6.08 90.0715 7.3 91.6715 7.3C93.2715 7.3 94.5015 6.08 94.5015 4.27C94.5015 2.47 93.2715 1.25 91.6715 1.25ZM91.6715 1.93C92.8615 1.93 93.7215 2.82 93.7215 4.26C93.7215 5.67 92.9215 6.62 91.6715 6.62C90.4215 6.62 89.6215 5.67 89.6215 4.26C89.6215 2.82 90.4815 1.93 91.6715 1.93ZM109.346 9.69V9.06H103.036V8.25H109.136V6.27H106.106V5.43H110.096V4.79H101.336V5.43H105.326V6.27H102.276V6.89H108.376V7.65H102.276V9.69H109.346ZM108.336 0.89V1.89H103.086V0.89H102.326V4.05H109.096V0.89H108.336ZM103.086 3.43V2.49H108.336V3.43H103.086ZM118.289 9.75V5H119.739V4.32H118.289V0.83H117.529V9.75H118.289ZM111.259 1.87H115.099C114.989 4.25 113.459 6.63 110.979 7.83L111.479 8.39C114.069 7.03 115.949 4.49 115.919 1.21H111.259V1.87ZM120.223 4.71V5.35H128.983V4.71H120.223ZM121.213 0.89V3.73H128.083V3.1H121.973V0.89H121.213ZM124.643 6.03C122.983 6.03 121.703 6.83 121.703 8.08C121.703 9.33 122.983 10.13 124.643 10.13C126.303 10.13 127.583 9.33 127.583 8.08C127.583 6.83 126.303 6.03 124.643 6.03ZM124.643 9.49C123.423 9.49 122.463 8.96 122.463 8.08C122.463 7.2 123.423 6.67 124.643 6.67C125.863 6.67 126.823 7.2 126.823 8.08C126.823 8.96 125.863 9.49 124.643 9.49ZM140.767 5.95V3.76H141.997V3.08H140.767V0.83H140.007V5.95H140.767ZM139.987 6.41V7.3H135.007V6.41H134.247V9.69H140.747V6.41H139.987ZM135.007 9.05V7.92H139.987V9.05H135.007ZM136.077 5.91C137.487 5.91 138.497 5.28 138.497 4.33C138.497 3.38 137.487 2.75 136.077 2.75C134.667 2.75 133.657 3.38 133.657 4.33C133.657 5.28 134.667 5.91 136.077 5.91ZM136.077 5.31C135.077 5.31 134.417 4.97 134.417 4.33C134.417 3.69 135.077 3.35 136.077 3.35C137.077 3.35 137.737 3.69 137.737 4.33C137.737 4.97 137.077 5.31 136.077 5.31ZM137.667 1.32V0.7H134.327V1.32H137.667ZM138.967 2.43V1.81H133.027V2.43H138.967ZM150.401 9.75V0.83H149.641V9.75H150.401ZM143.031 1.11V8.08L148.951 7.77V7.11L143.791 7.34V1.11H143.031ZM159.344 9.75V4.71H160.794V4.03H159.344V0.83H158.584V9.75H159.344ZM152.324 1.21V8.13L158.044 7.82V7.16L153.084 7.39V1.87H156.904V1.21H152.324ZM161.448 9.5H162.407V8.54H161.448V9.5Z" fill="#D7191F"/>
</svg>
