<svg width="163" height="11" viewBox="0 0 163 11" fill="none" xmlns="http://www.w3.org/2000/svg">
<path d="M0.3 8.25V8.91H9.06V8.25H4.53V4.6H3.75V8.25H0.3ZM7.67 6.89C8.06 5.25 8.24 3.24 8.24 1.25H1.19V1.91H7.46C7.46 3.22 7.28 5.29 6.93 6.89H7.67ZM15.8134 6.14V3.74H17.2434V6.14H18.0034V0.83H17.2434V3.08H15.8134V0.91H15.0634V6.14H15.8134ZM10.3034 1.82H13.2434C13.0034 3.3 11.9034 4.85 9.73336 5.47L10.1334 6.05C12.3034 5.41 14.0334 3.62 14.0634 1.16H10.3034V1.82ZM17.9834 9.8V6.64H10.9834V7.3H17.2234V9.8H17.9834ZM28.698 7.61C28.038 7.18 27.438 6.67 26.908 6.08C26.388 5.5 25.978 4.88 25.688 4.22C25.728 4.09 25.768 3.96 25.798 3.82C25.958 3.22 26.058 2.57 26.098 1.87H28.278V1.21H22.748V1.87H25.298C25.248 2.5 25.158 3.09 25.018 3.64C24.538 5.57 23.528 7.01 22.198 7.94L22.708 8.47C23.658 7.76 24.478 6.86 25.078 5.71C25.188 5.5 25.298 5.28 25.388 5.05C25.498 5.26 25.628 5.46 25.758 5.66C26.438 6.66 27.318 7.58 28.188 8.2L28.698 7.61ZM30.118 9.75V4.91H31.568V4.23H30.118V0.83H29.358V9.75H30.118ZM36.3713 6.13C34.7113 6.13 33.4313 6.9 33.4313 8.13C33.4313 9.36 34.7113 10.13 36.3713 10.13C38.0313 10.13 39.3113 9.36 39.3113 8.13C39.3113 6.9 38.0313 6.13 36.3713 6.13ZM39.8113 3.36H33.7013V1.61H39.6913V0.989999H32.9413V3.99H35.9913V4.95H31.9513V5.59H40.7113V4.95H36.7713V3.99H39.8113V3.36ZM36.3713 9.49C35.1513 9.49 34.1913 8.97 34.1913 8.13C34.1913 7.29 35.1513 6.77 36.3713 6.77C37.5913 6.77 38.5513 7.29 38.5513 8.13C38.5513 8.97 37.5913 9.49 36.3713 9.49ZM49.5047 9.75V0.83H48.7447V9.75H49.5047ZM44.4547 1.25C42.8547 1.25 41.6247 2.47 41.6247 4.27C41.6247 6.08 42.8547 7.3 44.4547 7.3C46.0547 7.3 47.2847 6.08 47.2847 4.27C47.2847 2.47 46.0547 1.25 44.4547 1.25ZM44.4547 1.93C45.6447 1.93 46.5047 2.82 46.5047 4.26C46.5047 5.67 45.7047 6.62 44.4547 6.62C43.2047 6.62 42.4047 5.67 42.4047 4.26C42.4047 2.82 43.2647 1.93 44.4547 1.93ZM56.028 7.86C55.478 7.45 55.018 6.97 54.628 6.42C54.298 5.94 54.018 5.42 53.788 4.86C53.808 4.81 53.828 4.76 53.838 4.71C53.978 4.24 54.068 3.73 54.098 3.2H55.858V2.54H51.158V3.2H53.318C53.288 3.66 53.218 4.1 53.098 4.53C52.658 6.09 51.748 7.34 50.678 8.13L51.218 8.61C51.948 8.01 52.658 7.23 53.188 6.28C53.288 6.09 53.378 5.9 53.468 5.71C53.668 6.13 53.898 6.53 54.158 6.9C54.568 7.48 55.028 7.98 55.538 8.4L56.028 7.86ZM57.418 9.5V0.93H56.668V4.61H55.218V5.29H56.668V9.5H57.418ZM59.268 9.74V0.83H58.508V9.74H59.268ZM54.908 1.61V0.949999H52.208V1.61H54.908ZM71.5727 9.69V9.06H65.2627V8.3H71.3627V6.35H68.3827V5.6H72.3227V4.98H63.5627V5.6H67.6027V6.35H64.5027V6.97H70.6027V7.69H64.5027V9.69H71.5727ZM71.9327 3.81C70.7827 3.75 69.6927 3.54 68.8727 3.12C68.6727 3.02 68.4927 2.9 68.3327 2.77C68.3827 2.68 68.4227 2.6 68.4527 2.51H71.3927V1.89H64.4527V2.51H67.5927C67.5127 2.66 67.4027 2.79 67.2627 2.91C66.5427 3.51 65.2427 3.83 63.9327 3.89L64.2627 4.49C65.3127 4.44 66.7727 4.13 67.6827 3.46L67.9327 3.26C68.1327 3.41 68.3527 3.55 68.5927 3.67C69.5027 4.12 70.6227 4.38 71.5927 4.42L71.9327 3.81ZM69.8227 0.709999H66.0227V1.33H69.8227V0.709999ZM73.946 6.39V9.69H80.806V6.39H73.946ZM73.006 4.48V5.14H81.766V4.48H80.476C80.566 4.04 80.646 3.57 80.706 3.06C80.776 2.45 80.836 1.76 80.866 0.989999H73.856V1.63H80.086C80.056 2.15 80.006 2.67 79.946 3.18C79.896 3.61 79.826 4.04 79.726 4.48H73.006ZM80.046 7.03V9.03H74.706V7.03H80.046ZM86.4394 6.37H87.9694V9.5H88.7194V0.93H87.9694V2.77H86.7294V3.44H87.9694V5.7H86.4394V6.37ZM82.8894 1.92H85.7594C85.6794 4.04 84.4694 6.52 82.4994 7.88L83.0494 8.39C85.0794 6.87 86.5894 4.38 86.5594 1.26H82.8894V1.92ZM90.6794 9.74V0.83H89.9194V9.74H90.6794ZM98.0627 5.27C97.1627 4.87 96.3527 4.26 95.7727 3.53C95.6027 3.32 95.4627 3.1 95.3427 2.88C95.4727 2.56 95.5527 2.22 95.6027 1.87H97.7427V1.21H92.3627V1.87H94.7927C94.7427 2.23 94.6527 2.57 94.5127 2.89C93.9927 4.06 92.9927 4.97 91.8627 5.44L92.3127 5.97C93.1127 5.58 93.9127 4.99 94.5127 4.26C94.7027 4.03 94.8727 3.78 95.0227 3.53C95.3127 3.96 95.6527 4.36 96.0627 4.73C96.5527 5.18 97.0727 5.55 97.6227 5.84L98.0627 5.27ZM99.6027 9.75V5.11H100.893V4.43H99.6027V0.83H98.8427V9.75H99.6027ZM98.4427 8.21V7.57L95.4027 7.61V5.35H94.6227V7.62L91.8227 7.65V8.31L98.4427 8.21ZM101.336 8.25V8.91H110.096V8.25H106.156V6.43H109.246V5.76H103.086V4.12H109.096V1.21H102.326V1.87H108.336V3.46H102.326V6.43H105.376V8.25H101.336ZM118.481 6.13C116.821 6.13 115.541 6.9 115.541 8.13C115.541 9.36 116.821 10.13 118.481 10.13C120.141 10.13 121.421 9.36 121.421 8.13C121.421 6.9 120.141 6.13 118.481 6.13ZM118.481 9.49C117.261 9.49 116.301 8.97 116.301 8.13C116.301 7.29 117.261 6.77 118.481 6.77C119.701 6.77 120.661 7.29 120.661 8.13C120.661 8.97 119.701 9.49 118.481 9.49ZM114.061 4.95V5.59H122.821V4.95H118.831V3.66H118.051V4.95H114.061ZM122.451 3.5C121.281 3.32 120.221 2.96 119.401 2.46C119.141 2.29 118.911 2.11 118.721 1.91C118.931 1.58 119.041 1.22 119.071 0.84H118.271C118.161 2.18 116.341 3.34 114.431 3.58L114.781 4.15C115.731 4.03 116.781 3.62 117.591 3.05C117.871 2.85 118.121 2.63 118.331 2.4C118.841 2.85 119.431 3.22 120.081 3.5C120.741 3.79 121.411 3.98 122.091 4.08L122.451 3.5ZM124.444 6.39V9.69H131.304V6.39H124.444ZM123.504 4.48V5.14H132.264V4.48H130.974C131.064 4.04 131.144 3.57 131.204 3.06C131.274 2.45 131.334 1.76 131.364 0.989999H124.354V1.63H130.584C130.554 2.15 130.504 2.67 130.444 3.18C130.394 3.61 130.324 4.04 130.224 4.48H123.504ZM130.544 7.03V9.03H125.204V7.03H130.544ZM140.767 5.95V3.76H141.997V3.08H140.767V0.83H140.007V5.95H140.767ZM139.987 6.41V7.3H135.007V6.41H134.247V9.69H140.747V6.41H139.987ZM135.007 9.05V7.92H139.987V9.05H135.007ZM136.077 5.91C137.487 5.91 138.497 5.28 138.497 4.33C138.497 3.38 137.487 2.75 136.077 2.75C134.667 2.75 133.657 3.38 133.657 4.33C133.657 5.28 134.667 5.91 136.077 5.91ZM136.077 5.31C135.077 5.31 134.417 4.97 134.417 4.33C134.417 3.69 135.077 3.35 136.077 3.35C137.077 3.35 137.737 3.69 137.737 4.33C137.737 4.97 137.077 5.31 136.077 5.31ZM137.667 1.32V0.7H134.327V1.32H137.667ZM138.967 2.43V1.81H133.027V2.43H138.967ZM150.401 9.75V0.83H149.641V9.75H150.401ZM143.031 1.11V8.08L148.951 7.77V7.11L143.791 7.34V1.11H143.031ZM159.344 9.75V4.71H160.794V4.03H159.344V0.83H158.584V9.75H159.344ZM152.324 1.21V8.13L158.044 7.82V7.16L153.084 7.39V1.87H156.904V1.21H152.324ZM161.448 9.5H162.407V8.54H161.448V9.5Z" fill="#D7191F"/>
</svg>
