<svg width="70" height="18" viewBox="0 0 70 18" fill="none" xmlns="http://www.w3.org/2000/svg">
<path d="M30.6449 12.95V13.874H42.9089V12.95H37.3229V9.786H41.5089V3.094H32.0309V9.786H36.2309V12.95H30.6449ZM33.0949 4.018H40.4449V8.862H33.0949V4.018ZM49.8436 2.954V6.594H45.5456V2.954H44.4816V12.698H50.9076V2.954H49.8436ZM45.5456 11.774V7.518H49.8436V11.774H45.5456ZM54.3796 15.05V8.134H56.4096V7.182H54.3796V2.562H53.3156V15.05H54.3796ZM68.3424 9.1V2.562H67.2784V9.1H68.3424ZM68.6224 14.966V14.042H60.1384V12.754H68.3424V9.744H59.0744V10.64H67.2784V11.886H59.0744V14.966H68.6224ZM61.1044 2.464C59.1304 2.464 57.5204 3.794 57.5204 5.656C57.5204 7.518 59.1304 8.848 61.1044 8.848C63.0784 8.848 64.6884 7.518 64.6884 5.656C64.6884 3.794 63.0784 2.464 61.1044 2.464ZM61.1044 7.952C59.6064 7.952 58.5844 6.986 58.5844 5.656C58.5844 4.326 59.6064 3.36 61.1044 3.36C62.6024 3.36 63.6244 4.326 63.6244 5.656C63.6244 6.986 62.6024 7.952 61.1044 7.952Z" fill="#242D3C"/>
<circle cx="9" cy="9" r="8.5" stroke="#DDDDDD"/>
<circle cx="9" cy="9" r="5" fill="#242D3C"/>
</svg>
