<svg width="74" height="18" viewBox="0 0 74 18" fill="none" xmlns="http://www.w3.org/2000/svg">
<path d="M32.3458 8.988H37.3998V8.092H32.3458V4.326H38.3658V3.43H31.3098V13.93H38.5898V13.034H32.3458V8.988ZM44.8654 8.204H39.0134V9.072H44.8654V8.204ZM46.2756 13.93H47.2836V10.626C47.2836 9.632 47.3676 8.96 47.5776 8.47C47.9136 7.672 48.5856 6.888 49.5936 6.888C50.3776 6.888 50.8396 7.336 51.1056 8.008C51.2316 8.344 51.3156 8.988 51.3156 9.94V13.93H52.3236V10.878C52.3236 9.744 52.4216 8.974 52.5896 8.484C52.8976 7.616 53.6256 6.888 54.6336 6.888C55.3756 6.888 55.8796 7.336 56.1456 7.966C56.2716 8.288 56.3416 8.848 56.3416 9.674V13.93H57.3496V9.674C57.3496 8.722 57.2796 7.994 57.0696 7.504C56.7336 6.678 55.8936 6.02 54.8856 6.02C53.3876 6.02 52.5056 6.916 52.0576 7.77C51.7076 6.706 50.9376 6.062 49.8176 6.02C48.7116 6.006 47.7876 6.622 47.2836 7.504V6.23H46.2756V13.93ZM65.6469 10.08C65.6469 11.942 64.3449 13.272 62.7349 13.272C61.1249 13.272 59.8229 11.942 59.8229 10.08C59.8229 8.218 61.1249 6.888 62.7349 6.888C64.3449 6.888 65.6469 8.092 65.6469 10.08ZM65.6609 6.23V7.476C65.0589 6.58 63.9669 6.02 62.7349 6.02C60.5089 6.02 58.8149 7.7 58.8149 10.08C58.8149 12.46 60.5089 14.14 62.7349 14.14C63.8969 14.14 65.0589 13.566 65.6609 12.558V13.93H66.6689V6.23H65.6609ZM69.7878 6.258H68.7798V13.93H69.7878V6.258ZM68.6118 4.746H69.9558V3.402H68.6118V4.746ZM71.8967 3.15V13.93H72.9047V3.15H71.8967Z" fill="#242D3C"/>
<circle cx="9" cy="9" r="8.5" stroke="#EAEAEA"/>
<circle cx="9" cy="9" r="5" fill="#EAEAEA"/>
</svg>
