<svg width="79" height="18" viewBox="0 0 79 18" fill="none" xmlns="http://www.w3.org/2000/svg">
<path d="M38.138 6.804C37.06 6.678 36.08 6.426 35.184 6.048C34.33 5.698 33.63 5.236 33.084 4.648C33.224 4.354 33.322 4.032 33.392 3.682H37.34V2.786H27.862V3.682H32.23C32.118 4.116 31.922 4.508 31.642 4.858C30.662 6.034 28.926 6.692 27.05 6.916L27.498 7.77C28.688 7.602 30.088 7.21 31.222 6.524C31.74 6.216 32.188 5.838 32.566 5.39C32.86 5.684 33.168 5.936 33.518 6.174C34.792 7 36.304 7.532 37.676 7.672L38.138 6.804ZM37.396 15.106V11.046H27.512V11.97H36.332V15.106H37.396ZM26.476 8.722V9.646H38.74V8.722H26.476ZM48.5307 12.012C47.5927 11.41 46.7667 10.668 46.0387 9.8C45.3527 8.974 44.7927 8.12 44.3727 7.224C44.4567 6.93 44.5407 6.622 44.6107 6.314C44.8347 5.292 44.9467 4.172 44.9467 2.954H43.8547C43.8127 7.392 42.2167 10.598 39.4867 12.46L40.2007 13.202C41.6147 12.152 42.8187 10.794 43.6447 9.114C43.7567 8.876 43.8687 8.652 43.9667 8.414C44.1067 8.68 44.2607 8.932 44.4427 9.198C45.3527 10.598 46.5987 11.956 47.8027 12.824L48.5307 12.012ZM51.1907 15.05V2.562H50.1267V15.05H51.1907ZM59.7354 4.018V3.094H53.3934V4.018H56.3334C56.2774 4.816 56.1654 5.572 55.9974 6.314C55.4094 8.918 54.1774 11.172 52.6654 12.628L53.4494 13.258C54.4714 12.152 55.4234 10.822 56.1374 9.212C56.2214 9.03 56.3054 8.834 56.3754 8.638C56.6694 9.296 57.0054 9.926 57.3974 10.556C57.9854 11.494 58.6714 12.292 59.4414 12.964L60.1554 12.222C59.3714 11.578 58.6854 10.808 58.0974 9.898C57.5654 9.086 57.1454 8.246 56.8234 7.364L57.0334 6.608C57.2294 5.796 57.3554 4.928 57.4254 4.018H59.7354ZM62.0594 14.714V2.688H61.0094V6.846H58.8114V7.798H61.0094V14.714H62.0594ZM64.7194 15.036V2.562H63.6554V15.036H64.7194ZM77.3521 14.966V14.084H68.5181V13.02H77.0581V10.29H72.8861V9.24H78.4021V8.372H66.1381V9.24H71.7941V10.29H67.4541V11.158H75.9941V12.166H67.4541V14.966H77.3521ZM77.8561 6.734C76.2461 6.65 74.7201 6.356 73.5721 5.768C73.2921 5.628 73.0401 5.46 72.8161 5.278C72.8861 5.152 72.9421 5.04 72.9841 4.914H77.1001V4.046H67.3841V4.914H71.7801C71.6681 5.124 71.5141 5.306 71.3181 5.474C70.3101 6.314 68.4901 6.762 66.6561 6.846L67.1181 7.686C68.5881 7.616 70.6321 7.182 71.9061 6.244L72.2561 5.964C72.5361 6.174 72.8441 6.37 73.1801 6.538C74.4541 7.168 76.0221 7.532 77.3801 7.588L77.8561 6.734ZM74.9021 2.394H69.5821V3.262H74.9021V2.394Z" fill="#242D3C"/>
<circle cx="9" cy="9" r="8.5" stroke="#DDDDDD"/>
<circle cx="9" cy="9" r="5" fill="#242D3C"/>
</svg>
