<svg width="99" height="16" viewBox="0 0 99 16" fill="none" xmlns="http://www.w3.org/2000/svg">
<path d="M13.3339 14.065V12.43H4.75395V11.74H13.0339V7.93H2.74395V9.55H11.0239V10.21H2.74395V14.065H13.3339ZM9.94395 5.71C8.56395 5.32 7.27395 4.66 6.37395 3.61C6.28395 3.505 6.19395 3.385 6.11895 3.265C6.43395 2.53 6.61395 1.75 6.62895 0.924999H4.58895C4.45395 3.49 2.78895 5.35 0.193945 6.19L1.42395 7.66C2.63895 7.225 3.94395 6.37 4.91895 5.215L5.23395 4.825C5.23395 4.84 5.23395 4.84 5.24895 4.855C6.26895 6.025 7.57395 6.88 8.84895 7.27L9.94395 5.71ZM13.0639 7.48V0.714999H11.0539V7.48H13.0639ZM15.649 2.965H20.899C20.614 6.04 18.529 9.13 15.034 10.81L16.324 12.235C20.074 10.225 23.074 6.475 23.029 1.255H15.649V2.965ZM22.729 7.465H25.024V14.155H27.034V0.714999H25.024V5.725H22.729V7.465ZM41.694 5.515C39.804 5.335 38.139 4.945 36.939 4.015C36.774 3.88 36.609 3.745 36.474 3.58C36.594 3.34 36.684 3.085 36.759 2.815H40.794V1.105H30.114V2.815H34.584C34.509 2.995 34.419 3.16 34.314 3.31C33.354 4.66 31.434 5.245 29.049 5.545L30.084 7.15C31.659 6.955 33.339 6.445 34.644 5.56C34.929 5.365 35.184 5.17 35.409 4.945L35.889 5.365C37.194 6.4 38.949 7.015 40.674 7.105L41.694 5.515ZM36.474 14.155V9.745H42.054V8.035H28.854V9.745H34.434V14.155H36.474ZM44.0091 12.31C44.8191 11.695 45.5391 11.005 46.1841 10.225C46.7391 9.55 47.2341 8.83 47.6391 8.05L47.7291 8.215C48.6891 9.73 50.0241 11.125 51.3741 11.995L52.5891 10.525C50.7141 9.46 49.3341 7.975 48.4791 6.07C48.6141 5.635 48.7341 5.2 48.8391 4.735C48.9741 4.165 49.0641 3.58 49.1241 2.965H52.1541V1.255H43.5591V2.965H47.0691C47.0241 3.43 46.9491 3.895 46.8591 4.345C46.3191 7.12 44.9541 9.415 42.6591 10.915L44.0091 12.31ZM55.6641 14.155V0.714999H53.6541V14.155H55.6641ZM70.056 7.915C67.536 7.915 65.721 9.28 65.721 11.23C65.721 13.195 67.536 14.545 70.056 14.545C72.576 14.545 74.391 13.195 74.391 11.23C74.391 9.28 72.576 7.915 70.056 7.915ZM71.556 5.83C70.056 5.56 68.856 5.11 67.971 4.255C67.881 4.165 67.791 4.06 67.716 3.955C67.836 3.7 67.941 3.415 68.031 3.13C68.076 3.01 68.106 2.89 68.136 2.77H71.016V1.15H62.631V2.77H66.036C65.811 3.475 65.451 4.105 64.926 4.66C64.131 5.5 63.081 6.115 61.776 6.49L62.946 7.99C64.146 7.6 65.481 6.79 66.501 5.71L66.771 5.41C67.116 5.785 67.521 6.115 67.956 6.4C68.751 6.91 69.606 7.255 70.521 7.42L71.556 5.83ZM70.296 4.99H72.636V8.05H74.646V0.714999H72.636V3.37H70.296V4.99ZM70.056 12.895C68.556 12.895 67.731 12.235 67.731 11.23C67.731 10.225 68.556 9.565 70.056 9.565C71.556 9.565 72.381 10.225 72.381 11.23C72.381 12.235 71.556 12.895 70.056 12.895ZM86.021 1.105V3.46H79.721V1.105H77.711V9.175H81.851V11.455H76.271V13.165H89.471V11.455H83.891V9.175H88.031V1.105H86.021ZM79.721 7.45V5.14H86.021V7.45H79.721Z" fill="#242D3C"/>
<path d="M96.589 7.6L98.044 6.67L96.769 5.035L98.554 4.525L98.089 2.935L96.379 3.535L96.454 1.6H94.534L94.624 3.535L92.899 2.935L92.434 4.525L94.219 5.035L92.944 6.67L94.399 7.6L95.494 6.04L96.589 7.6Z" fill="#D7191F"/>
</svg>
