<svg width="80" height="16" viewBox="0 0 80 16" fill="none" xmlns="http://www.w3.org/2000/svg">
<path d="M7.2274 8.695C4.6024 8.695 2.7424 9.91 2.7424 11.77C2.7424 13.63 4.6024 14.845 7.2274 14.845C9.8524 14.845 11.7124 13.63 11.7124 11.77C11.7124 9.91 9.8524 8.695 7.2274 8.695ZM13.7674 8.2V6.55H8.1874V4.99H6.1474V6.55H0.567402V8.2H13.7674ZM1.8274 5.785C3.2374 5.635 4.9174 5.125 6.2374 4.3C6.5524 4.105 6.8524 3.88 7.1224 3.655C7.3474 3.85 7.5874 4.015 7.8424 4.18C9.1774 5.05 10.8574 5.56 12.4624 5.68L13.3624 4.18C11.4874 3.97 9.8824 3.595 8.6824 2.815C8.4874 2.68 8.3074 2.545 8.1424 2.395C8.1874 2.32 8.2174 2.23 8.2624 2.14C8.4874 1.705 8.6074 1.225 8.6224 0.699999H6.5524C6.4324 2.8 3.9124 3.91 0.957402 4.27L1.8274 5.785ZM7.2274 13.225C5.6074 13.225 4.7524 12.655 4.7524 11.77C4.7524 10.885 5.6074 10.315 7.2274 10.315C8.8474 10.315 9.7024 10.885 9.7024 11.77C9.7024 12.655 8.8474 13.225 7.2274 13.225ZM26.5524 14.065V8.785H16.0824V14.065H26.5524ZM27.9324 7.555V5.875H26.1174C26.2374 5.32 26.3574 4.675 26.4624 3.94C26.5974 3.04 26.6724 2.035 26.7024 0.924999H15.9474V2.605H24.6324C24.6024 3.325 24.4824 4.3 24.2724 5.29L24.1374 5.875H14.7324V7.555H27.9324ZM18.0924 10.435H24.5424V12.385H18.0924V10.435ZM38.4675 10.645C37.4025 10.18 36.5175 9.595 35.7825 8.875C35.2875 8.38 34.8525 7.795 34.5075 7.12C34.5825 6.925 34.6425 6.745 34.6875 6.55C34.8225 6.1 34.9275 5.635 34.9875 5.14H37.9275V3.43H29.6475V5.14H32.9325C32.8875 5.455 32.8125 5.77 32.7375 6.055C32.1375 8.26 30.7275 9.865 28.6575 11.035L29.9775 12.46C31.4025 11.575 32.6925 10.42 33.6075 8.965L33.6375 8.92C33.9525 9.385 34.2975 9.835 34.6875 10.24C35.4675 11.065 36.3825 11.725 37.2825 12.145L38.4675 10.645ZM37.0275 7.99H39.5325V14.155H41.5425V0.714999H39.5325V6.28H37.0275V7.99ZM36.2325 2.395V0.684999H31.4175V2.395H36.2325ZM52.4825 6.94C51.5075 6.565 50.6525 6.055 49.8875 5.425C49.3625 4.99 48.9425 4.465 48.5975 3.85C48.6425 3.745 48.6725 3.625 48.7175 3.505C49.0025 2.68 49.1525 1.825 49.1675 0.924999H47.1275C47.0075 3.76 45.5975 6.19 42.7325 7.42L43.9925 8.86C45.4175 8.185 46.6925 7.105 47.6075 5.74L47.7575 5.53C48.7175 6.85 50.0075 7.9 51.3575 8.47L52.4825 6.94ZM50.8025 4.885H53.5925V10.57H55.6025V0.714999H53.5925V3.205H50.8025V4.885ZM45.2975 9.415V14.005H55.9775V12.295H47.3075V9.415H45.2975ZM63.7076 3.895H59.8526V2.77H63.8576V1.09H57.8726V8.56L64.2026 8.185V6.535L59.8526 6.73V5.545H63.7076V3.895ZM64.8026 8.86H66.7526V5.56H67.9076V8.86H69.8876V0.714999H67.9076V3.82H66.7526V0.849999H64.8026V8.86ZM69.8576 14.215V9.46H58.9676V11.17H67.8476V14.215H69.8576Z" fill="#242D3C"/>
<path d="M77.589 7.6L79.044 6.67L77.769 5.035L79.554 4.525L79.089 2.935L77.379 3.535L77.454 1.6H75.534L75.624 3.535L73.899 2.935L73.434 4.525L75.219 5.035L73.944 6.67L75.399 7.6L76.494 6.04L77.589 7.6Z" fill="#D7191F"/>
</svg>
