<svg width="221" height="14" viewBox="0 0 221 14" fill="none" xmlns="http://www.w3.org/2000/svg">
<path d="M9.28263 10.054C8.35863 9.452 7.51863 8.738 6.77663 7.912C6.04863 7.1 5.47463 6.232 5.06863 5.308C5.12463 5.126 5.18063 4.944 5.22263 4.748C5.44663 3.908 5.58663 2.998 5.64263 2.018H8.69463V1.094H0.952625V2.018H4.52263C4.45263 2.9 4.32663 3.726 4.13063 4.496C3.45863 7.198 2.04463 9.214 0.182625 10.516L0.896625 11.258C2.22663 10.264 3.37463 9.004 4.21463 7.394C4.36863 7.1 4.52263 6.792 4.64863 6.47C4.80263 6.764 4.98463 7.044 5.16663 7.324C6.11863 8.724 7.35063 10.012 8.56863 10.88L9.28263 10.054ZM11.2706 13.05V6.274H13.3006V5.322H11.2706V0.562H10.2066V13.05H11.2706ZM20.0253 7.982C17.7013 7.982 15.9093 9.06 15.9093 10.782C15.9093 12.504 17.7013 13.582 20.0253 13.582C22.3493 13.582 24.1413 12.504 24.1413 10.782C24.1413 9.06 22.3493 7.982 20.0253 7.982ZM24.8413 4.104H16.2873V1.654H24.6733V0.785999H15.2233V4.986H19.4933V6.33H13.8373V7.226H26.1013V6.33H20.5853V4.986H24.8413V4.104ZM20.0253 12.686C18.3173 12.686 16.9733 11.958 16.9733 10.782C16.9733 9.606 18.3173 8.878 20.0253 8.878C21.7333 8.878 23.0773 9.606 23.0773 10.782C23.0773 11.958 21.7333 12.686 20.0253 12.686ZM38.412 13.05V0.562H37.348V13.05H38.412ZM31.342 1.15C29.102 1.15 27.38 2.858 27.38 5.378C27.38 7.912 29.102 9.62 31.342 9.62C33.582 9.62 35.304 7.912 35.304 5.378C35.304 2.858 33.582 1.15 31.342 1.15ZM31.342 2.102C33.008 2.102 34.212 3.348 34.212 5.364C34.212 7.338 33.092 8.668 31.342 8.668C29.592 8.668 28.472 7.338 28.472 5.364C28.472 3.348 29.676 2.102 31.342 2.102ZM47.5447 10.404C46.7747 9.83 46.1307 9.158 45.5847 8.388C45.1227 7.716 44.7307 6.988 44.4087 6.204C44.4367 6.134 44.4647 6.064 44.4787 5.994C44.6747 5.336 44.8007 4.622 44.8427 3.88H47.3067V2.956H40.7267V3.88H43.7507C43.7087 4.524 43.6107 5.14 43.4427 5.742C42.8267 7.926 41.5527 9.676 40.0547 10.782L40.8107 11.454C41.8327 10.614 42.8267 9.522 43.5687 8.192C43.7087 7.926 43.8347 7.66 43.9607 7.394C44.2407 7.982 44.5627 8.542 44.9267 9.06C45.5007 9.872 46.1447 10.572 46.8587 11.16L47.5447 10.404ZM49.4907 12.7V0.701999H48.4407V5.854H46.4107V6.806H48.4407V12.7H49.4907ZM52.0807 13.036V0.562H51.0167V13.036H52.0807ZM45.9767 1.654V0.729999H42.1967V1.654H45.9767ZM64.7134 12.966V12.084H55.8794V11.02H64.4194V8.29H60.2474V7.24H65.7634V6.372H53.4994V7.24H59.1554V8.29H54.8154V9.158H63.3554V10.166H54.8154V12.966H64.7134ZM65.2174 4.734C63.6074 4.65 62.0814 4.356 60.9334 3.768C60.6534 3.628 60.4014 3.46 60.1774 3.278C60.2474 3.152 60.3034 3.04 60.3454 2.914H64.4614V2.046H54.7454V2.914H59.1414C59.0294 3.124 58.8754 3.306 58.6794 3.474C57.6714 4.314 55.8514 4.762 54.0174 4.846L54.4794 5.686C55.9494 5.616 57.9934 5.182 59.2674 4.244L59.6174 3.964C59.8974 4.174 60.2054 4.37 60.5414 4.538C61.8154 5.168 63.3834 5.532 64.7414 5.588L65.2174 4.734ZM62.2634 0.393999H56.9434V1.262H62.2634V0.393999ZM68.0361 8.346V12.966H77.6401V8.346H68.0361ZM66.7201 5.672V6.596H78.9841V5.672H77.1781C77.3041 5.056 77.4161 4.398 77.5001 3.684C77.5981 2.83 77.6821 1.864 77.7241 0.785999H67.9101V1.682H76.6321C76.5901 2.41 76.5201 3.138 76.4361 3.852C76.3661 4.454 76.2681 5.056 76.1281 5.672H66.7201ZM76.5761 9.242V12.042H69.1001V9.242H76.5761ZM90.1206 8.318H92.2626V12.7H93.3126V0.701999H92.2626V3.278H90.5266V4.216H92.2626V7.38H90.1206V8.318ZM85.1506 2.088H89.1686C89.0566 5.056 87.3626 8.528 84.6046 10.432L85.3746 11.146C88.2166 9.018 90.3306 5.532 90.2886 1.164H85.1506V2.088ZM96.0566 13.036V0.562H94.9926V13.036H96.0566ZM106.393 6.778C105.133 6.218 103.999 5.364 103.187 4.342C102.949 4.048 102.753 3.74 102.585 3.432C102.767 2.984 102.879 2.508 102.949 2.018H105.945V1.094H98.4133V2.018H101.815C101.745 2.522 101.619 2.998 101.423 3.446C100.695 5.084 99.2953 6.358 97.7133 7.016L98.3433 7.758C99.4633 7.212 100.583 6.386 101.423 5.364C101.689 5.042 101.927 4.692 102.137 4.342C102.543 4.944 103.019 5.504 103.593 6.022C104.279 6.652 105.007 7.17 105.777 7.576L106.393 6.778ZM108.549 13.05V6.554H110.355V5.602H108.549V0.562H107.485V13.05H108.549ZM106.925 10.894V9.998L102.669 10.054V6.89H101.577V10.068L97.6573 10.11V11.034L106.925 10.894ZM117.332 0.855999V3.25H112.81V0.855999H111.746V7.548H118.396V4.594H121.168V9.886H122.232V0.562H121.168V3.642H118.396V0.855999H117.332ZM122.582 12.91V11.986H114.042V8.906H112.978V12.91H122.582ZM112.81 6.624V4.174H117.332V6.624H112.81ZM130.329 4.258C128.019 4.258 126.241 5.28 126.241 6.82C126.241 7.968 127.249 8.836 128.705 9.2C129.055 9.284 129.405 9.34 129.783 9.368V10.95H124.197V11.874H136.461V10.95H130.875V9.368C131.253 9.34 131.603 9.284 131.939 9.2C133.423 8.85 134.417 7.968 134.417 6.82C134.417 5.28 132.639 4.258 130.329 4.258ZM130.329 8.486C128.607 8.486 127.305 7.912 127.305 6.82C127.305 5.728 128.607 5.154 130.329 5.154C132.051 5.154 133.353 5.728 133.353 6.82C133.353 7.912 132.051 8.486 130.329 8.486ZM135.621 3.726V2.802H125.037V3.726H135.621ZM127.277 0.814V1.738H133.381V0.814H127.277ZM137.417 6.4V7.268H149.681V6.4H137.417ZM148.631 12.966V12.084H139.797V11.02H148.337V8.29H138.733V9.158H147.273V10.166H138.733V12.966H148.631ZM148.491 5.434V4.552H139.867V3.446H148.281V0.701999H138.803V1.57H147.217V2.606H138.803V5.434H148.491ZM166.488 7.17V0.562H165.424V7.17H166.488ZM165.396 7.814V9.326H158.284V7.814H157.22V12.966H166.46V7.814H165.396ZM158.284 12.042V10.222H165.396V12.042H158.284ZM159.25 0.463999C157.276 0.463999 155.666 1.822 155.666 3.726C155.666 5.63 157.276 6.988 159.25 6.988C161.224 6.988 162.834 5.63 162.834 3.726C162.834 1.822 161.224 0.463999 159.25 0.463999ZM159.25 6.092C157.752 6.092 156.73 5.112 156.73 3.726C156.73 2.34 157.752 1.36 159.25 1.36C160.748 1.36 161.77 2.34 161.77 3.726C161.77 5.112 160.748 6.092 159.25 6.092ZM175.313 4.79V0.884H169.293V1.78H174.249V3.922H169.293V7.982L177.231 7.618V6.736L170.357 7.002V4.79H175.313ZM179.709 8.416V0.562H178.645V2.116H176.167V3.026H178.645V4.636H176.167V5.546H178.645V8.416H179.709ZM179.681 13.106V9.116H170.021V10.04H178.617V13.106H179.681ZM188.001 1.598V0.674H183.801V1.598H188.001ZM189.821 3.712V2.788H181.925V3.712H189.821ZM185.873 4.608C183.703 4.608 182.387 6.162 182.387 7.996C182.387 9.83 183.703 11.384 185.873 11.384C188.043 11.384 189.359 9.83 189.359 7.996C189.359 6.162 188.043 4.608 185.873 4.608ZM185.873 10.474C184.235 10.474 183.451 9.312 183.451 8.01C183.451 6.666 184.235 5.518 185.873 5.518C187.511 5.518 188.295 6.666 188.295 8.01C188.295 9.312 187.511 10.474 185.873 10.474ZM192.327 13.05V6.834H194.357V5.882H192.327V0.562H191.263V13.05H192.327ZM204.036 12.714V0.688H202.986V4.846H200.704V5.798H202.986V12.714H204.036ZM206.696 13.036V0.562H205.632V13.036H206.696ZM195.426 11.202C196.616 9.928 197.638 8.416 198.352 6.512C199.08 8.206 200.2 9.788 201.488 10.908L202.188 10.166C200.676 8.92 199.43 7.1 198.772 5.154C199.094 3.866 199.276 2.494 199.318 0.996H198.254C198.184 5.014 196.826 8.416 194.642 10.572L195.426 11.202ZM214.233 0.533999C211.503 0.533999 209.669 2.312 209.669 4.328C209.669 6.344 211.503 8.122 214.233 8.122C216.963 8.122 218.797 6.344 218.797 4.328C218.797 2.312 216.963 0.533999 214.233 0.533999ZM214.233 7.198C212.077 7.198 210.733 5.868 210.733 4.328C210.733 2.788 212.077 1.458 214.233 1.458C216.389 1.458 217.733 2.788 217.733 4.328C217.733 5.868 216.389 7.198 214.233 7.198ZM208.115 10.95V11.874H220.379V10.95H217.621V8.304H216.543V10.95H211.993V8.304H210.915V10.95H208.115Z" fill="#CCCCCC"/>
</svg>
