<svg width="39" height="14" viewBox="0 0 39 14" fill="none" xmlns="http://www.w3.org/2000/svg">
<path d="M11.732 7.576V0.562H10.668V7.576H11.732ZM2.464 8.276V12.966H11.704V8.276H2.464ZM3.528 9.172H10.64V12.042H3.528V9.172ZM1.428 1.92H6.692C6.426 4.16 4.13 6.162 0.77 6.834L1.274 7.702C4.648 6.946 7.91 4.72 7.868 0.996H1.428V1.92ZM25.6387 7.1C24.3927 6.68 23.3007 6.106 22.3627 5.392C21.4807 4.72 20.7807 3.964 20.2347 3.11C20.5427 2.424 20.7107 1.682 20.7387 0.884H19.6187C19.4647 3.866 17.0707 6.148 13.9347 7.156L14.5367 7.926C16.0907 7.38 17.6307 6.47 18.7647 5.28C19.1427 4.888 19.4647 4.468 19.7587 4.006C19.9827 4.342 20.2347 4.664 20.5287 4.986C21.7607 6.302 23.3847 7.352 25.0367 7.94L25.6387 7.1ZM13.6967 10.95V11.874H25.9607V10.95H20.3747V7.324H19.2827V10.95H13.6967ZM34.3094 7.394C31.9434 7.394 30.3334 8.64 30.3334 10.348C30.3334 12.056 31.9434 13.302 34.3094 13.302C36.6474 13.302 38.2854 12.056 38.2854 10.348C38.2854 8.64 36.6474 7.394 34.3094 7.394ZM34.3094 12.378C32.4614 12.378 31.3974 11.524 31.3974 10.348C31.3974 9.172 32.4614 8.318 34.3094 8.318C36.1574 8.318 37.2214 9.172 37.2214 10.348C37.2214 11.524 36.1574 12.378 34.3094 12.378ZM35.3454 0.996H27.5194V1.892H31.1034C31.0334 2.242 30.9354 2.564 30.8094 2.886C30.1094 4.538 28.6114 5.854 26.7214 6.526L27.3374 7.324C28.5554 6.862 29.7874 6.022 30.7254 4.958C30.9354 4.72 31.1174 4.482 31.2994 4.216C31.4814 4.426 31.6914 4.636 31.9294 4.832C32.9374 5.7 34.1694 6.372 35.2614 6.736L35.8214 5.854C34.5894 5.518 33.3574 4.874 32.4474 4.104C32.1814 3.88 31.9434 3.642 31.7474 3.404L31.8594 3.194C32.0414 2.774 32.1814 2.34 32.2514 1.892H35.3454V0.996ZM34.5334 4.034H37.2494V7.52H38.3134V0.562H37.2494V3.138H34.5334V4.034Z" fill="#242D3C"/>
</svg>
