<svg width="124" height="14" viewBox="0 0 124 14" fill="none" xmlns="http://www.w3.org/2000/svg">
<path d="M3.98996 1.234C2.11396 1.234 0.531961 2.872 0.531961 5.378C0.531961 7.898 2.11396 9.536 3.98996 9.536C4.92796 9.536 5.79596 9.13 6.41196 8.402C6.53796 8.248 6.66396 8.094 6.77596 7.912H8.93196V12.714H9.98196V0.688H8.93196V2.914H6.80396C6.69196 2.718 6.56596 2.536 6.41196 2.368C5.79596 1.64 4.92796 1.234 3.98996 1.234ZM3.98996 8.598C2.60396 8.598 1.58196 7.38 1.58196 5.378C1.58196 3.376 2.60396 2.158 3.98996 2.158C5.37596 2.158 6.39796 3.376 6.39796 5.378C6.39796 7.38 5.37596 8.598 3.98996 8.598ZM12.348 13.036V0.562H11.284V13.036H12.348ZM7.44796 5.378C7.44796 4.832 7.37796 4.314 7.22396 3.852H8.93196V6.974H7.20996C7.36396 6.498 7.44796 5.966 7.44796 5.378ZM15.2227 8.346V12.966H24.8267V8.346H15.2227ZM13.9067 5.672V6.596H26.1707V5.672H24.3647C24.4907 5.056 24.6027 4.398 24.6867 3.684C24.7847 2.83 24.8687 1.864 24.9107 0.785999H15.0967V1.682H23.8187C23.7767 2.41 23.7067 3.138 23.6227 3.852C23.5527 4.454 23.4547 5.056 23.3147 5.672H13.9067ZM23.7627 9.242V12.042H16.2867V9.242H23.7627ZM38.8874 5.588C37.6974 5.378 36.6614 5.056 35.8074 4.65C34.9814 4.258 34.3094 3.726 33.7634 3.054C33.9734 2.676 34.1134 2.284 34.1694 1.878H38.1034V0.954H28.4014V1.878H33.0074C32.9234 2.298 32.7414 2.69 32.4754 3.068C31.5374 4.37 29.6334 5.336 27.4634 5.616L28.0234 6.47C29.3814 6.288 30.8934 5.7 32.0694 4.86C32.5034 4.538 32.8954 4.202 33.2174 3.824C33.4834 4.118 33.7774 4.384 34.0994 4.65C35.2614 5.56 36.7734 6.204 38.3414 6.456L38.8874 5.588ZM33.8054 13.05V8.626H39.3914V7.702H27.1274V8.626H32.7134V13.05H33.8054ZM40.3481 6.4V7.268H52.6121V6.4H40.3481ZM51.5621 12.966V12.084H42.7281V11.02H51.2681V8.29H41.6641V9.158H50.2041V10.166H41.6641V12.966H51.5621ZM51.4221 5.434V4.552H42.7981V3.446H51.2121V0.701999H41.7341V1.57H50.1481V2.606H41.7341V5.434H51.4221ZM69.4185 7.17V0.562H68.3545V7.17H69.4185ZM68.3265 7.814V9.326H61.2145V7.814H60.1505V12.966H69.3905V7.814H68.3265ZM61.2145 12.042V10.222H68.3265V12.042H61.2145ZM62.1805 0.463999C60.2065 0.463999 58.5965 1.822 58.5965 3.726C58.5965 5.63 60.2065 6.988 62.1805 6.988C64.1545 6.988 65.7645 5.63 65.7645 3.726C65.7645 1.822 64.1545 0.463999 62.1805 0.463999ZM62.1805 6.092C60.6825 6.092 59.6605 5.112 59.6605 3.726C59.6605 2.34 60.6825 1.36 62.1805 1.36C63.6785 1.36 64.7005 2.34 64.7005 3.726C64.7005 5.112 63.6785 6.092 62.1805 6.092ZM78.2432 4.79V0.884H72.2232V1.78H77.1792V3.922H72.2232V7.982L80.1612 7.618V6.736L73.2872 7.002V4.79H78.2432ZM82.6392 8.416V0.562H81.5752V2.116H79.0972V3.026H81.5752V4.636H79.0972V5.546H81.5752V8.416H82.6392ZM82.6112 13.106V9.116H72.9512V10.04H81.5472V13.106H82.6112ZM90.9319 1.598V0.674H86.7319V1.598H90.9319ZM92.7519 3.712V2.788H84.8559V3.712H92.7519ZM88.8039 4.608C86.6339 4.608 85.3179 6.162 85.3179 7.996C85.3179 9.83 86.6339 11.384 88.8039 11.384C90.9739 11.384 92.2899 9.83 92.2899 7.996C92.2899 6.162 90.9739 4.608 88.8039 4.608ZM88.8039 10.474C87.1659 10.474 86.3819 9.312 86.3819 8.01C86.3819 6.666 87.1659 5.518 88.8039 5.518C90.4419 5.518 91.2259 6.666 91.2259 8.01C91.2259 9.312 90.4419 10.474 88.8039 10.474ZM95.2579 13.05V6.834H97.2879V5.882H95.2579V0.562H94.1939V13.05H95.2579ZM106.967 12.714V0.688H105.917V4.846H103.635V5.798H105.917V12.714H106.967ZM109.627 13.036V0.562H108.563V13.036H109.627ZM98.3566 11.202C99.5466 9.928 100.569 8.416 101.283 6.512C102.011 8.206 103.131 9.788 104.419 10.908L105.119 10.166C103.607 8.92 102.361 7.1 101.703 5.154C102.025 3.866 102.207 2.494 102.249 0.996H101.185C101.115 5.014 99.7566 8.416 97.5726 10.572L98.3566 11.202ZM117.163 0.533999C114.433 0.533999 112.599 2.312 112.599 4.328C112.599 6.344 114.433 8.122 117.163 8.122C119.893 8.122 121.727 6.344 121.727 4.328C121.727 2.312 119.893 0.533999 117.163 0.533999ZM117.163 7.198C115.007 7.198 113.663 5.868 113.663 4.328C113.663 2.788 115.007 1.458 117.163 1.458C119.319 1.458 120.663 2.788 120.663 4.328C120.663 5.868 119.319 7.198 117.163 7.198ZM111.045 10.95V11.874H123.309V10.95H120.551V8.304H119.473V10.95H114.923V8.304H113.845V10.95H111.045Z" fill="#CCCCCC"/>
</svg>
