<svg width="124" height="14" viewBox="0 0 124 14" fill="none" xmlns="http://www.w3.org/2000/svg">
<path d="M9.422 10.054C8.498 9.452 7.658 8.738 6.916 7.912C6.188 7.1 5.614 6.232 5.208 5.308C5.264 5.126 5.32 4.944 5.362 4.748C5.586 3.908 5.726 2.998 5.782 2.018H8.834V1.094H1.092V2.018H4.662C4.592 2.9 4.466 3.726 4.27 4.496C3.598 7.198 2.184 9.214 0.322 10.516L1.036 11.258C2.366 10.264 3.514 9.004 4.354 7.394C4.508 7.1 4.662 6.792 4.788 6.47C4.942 6.764 5.124 7.044 5.306 7.324C6.258 8.724 7.49 10.012 8.708 10.88L9.422 10.054ZM11.97 13.05V0.562H10.906V13.05H11.97ZM23.5527 7.646V9.326H16.0907V7.646H15.0267V12.966H24.6167V7.646H23.5527ZM13.6967 5.532V6.428H25.9607V5.532H24.0987C24.2387 4.944 24.3647 4.272 24.4627 3.502C24.5747 2.676 24.6587 1.766 24.7007 0.785999H14.8867V1.654H23.6087C23.5667 2.284 23.4967 2.942 23.3987 3.656C23.3147 4.314 23.2027 4.93 23.0487 5.532H13.6967ZM16.0907 12.07V10.194H23.5527V12.07H16.0907ZM35.9054 10.334C34.9394 9.802 34.0994 9.144 33.3574 8.346C32.6994 7.646 32.1814 6.89 31.8034 6.078C32.0134 5.42 32.1534 4.734 32.2234 3.992H35.2614V3.068H27.6734V3.992H31.0894C31.0334 4.664 30.9214 5.294 30.7394 5.868C30.0394 8.094 28.5974 9.69 26.8194 10.712L27.4914 11.454C28.6674 10.74 29.8294 9.704 30.7114 8.36C30.9494 7.982 31.1734 7.59 31.3694 7.156C31.5094 7.394 31.6634 7.618 31.8174 7.856C32.7414 9.158 33.9314 10.362 35.2054 11.174L35.9054 10.334ZM38.4114 13.05V0.562H37.3474V5.84H34.5474V6.792H37.3474V13.05H38.4114ZM33.6654 1.598V0.674H29.3254V1.598H33.6654ZM40.1381 6.4V7.268H52.4021V6.4H40.1381ZM51.3521 12.966V12.084H42.5181V11.02H51.0581V8.29H41.4541V9.158H49.9941V10.166H41.4541V12.966H51.3521ZM51.2121 5.434V4.552H42.5881V3.446H51.0021V0.701999H41.5241V1.57H49.9381V2.606H41.5241V5.434H51.2121ZM66.6326 6.834C65.2466 6.274 64.0146 5.364 63.1466 4.216C62.9646 3.978 62.8106 3.726 62.6706 3.46L62.8106 3.082C63.0486 2.354 63.1886 1.584 63.2026 0.785999H62.1106C61.9566 3.586 60.4446 6.078 57.7566 7.31L58.4286 8.052C59.7866 7.38 60.9626 6.358 61.8026 5.112C61.9566 4.888 62.1106 4.65 62.2366 4.412C62.3346 4.58 62.4606 4.748 62.5866 4.902C63.4966 6.092 64.7426 7.1 65.9886 7.66L66.6326 6.834ZM65.1486 4.09H68.2846V9.774H69.3486V0.562H68.2846V3.166H65.1486V4.09ZM69.6986 12.91V11.986H61.1586V8.794H60.0946V12.91H69.6986ZM77.1233 3.81H72.8813V1.808H77.2633V0.911999H71.8313V7.73L77.8653 7.422V6.54L72.8813 6.75V4.678H77.1233V3.81ZM79.6153 8.276V4.692H81.6173V8.276H82.6813V0.562H81.6173V3.768H79.6153V0.674H78.5653V8.276H79.6153ZM82.6533 13.12V8.976H72.8533V9.9H81.5893V13.12H82.6533ZM90.722 1.598V0.674H86.522V1.598H90.722ZM92.542 3.712V2.788H84.646V3.712H92.542ZM88.594 4.608C86.424 4.608 85.108 6.162 85.108 7.996C85.108 9.83 86.424 11.384 88.594 11.384C90.764 11.384 92.08 9.83 92.08 7.996C92.08 6.162 90.764 4.608 88.594 4.608ZM88.594 10.474C86.956 10.474 86.172 9.312 86.172 8.01C86.172 6.666 86.956 5.518 88.594 5.518C90.232 5.518 91.016 6.666 91.016 8.01C91.016 9.312 90.232 10.474 88.594 10.474ZM95.048 13.05V6.834H97.078V5.882H95.048V0.562H93.984V13.05H95.048ZM106.757 12.714V0.688H105.707V4.846H103.425V5.798H105.707V12.714H106.757ZM109.417 13.036V0.562H108.353V13.036H109.417ZM98.1467 11.202C99.3367 9.928 100.359 8.416 101.073 6.512C101.801 8.206 102.921 9.788 104.209 10.908L104.909 10.166C103.397 8.92 102.151 7.1 101.493 5.154C101.815 3.866 101.997 2.494 102.039 0.996H100.975C100.905 5.014 99.5467 8.416 97.3627 10.572L98.1467 11.202ZM116.953 0.533999C114.223 0.533999 112.389 2.312 112.389 4.328C112.389 6.344 114.223 8.122 116.953 8.122C119.683 8.122 121.517 6.344 121.517 4.328C121.517 2.312 119.683 0.533999 116.953 0.533999ZM116.953 7.198C114.797 7.198 113.453 5.868 113.453 4.328C113.453 2.788 114.797 1.458 116.953 1.458C119.109 1.458 120.453 2.788 120.453 4.328C120.453 5.868 119.109 7.198 116.953 7.198ZM110.835 10.95V11.874H123.099V10.95H120.341V8.304H119.263V10.95H114.713V8.304H113.635V10.95H110.835Z" fill="#CCCCCC"/>
</svg>
