<svg width="124" height="14" viewBox="0 0 124 14" fill="none" xmlns="http://www.w3.org/2000/svg">
<path d="M6.87396 7.982C4.54996 7.982 2.75796 9.06 2.75796 10.782C2.75796 12.504 4.54996 13.582 6.87396 13.582C9.19796 13.582 10.99 12.504 10.99 10.782C10.99 9.06 9.19796 7.982 6.87396 7.982ZM6.87396 12.686C5.16596 12.686 3.82196 11.958 3.82196 10.782C3.82196 9.606 5.16596 8.878 6.87396 8.878C8.58196 8.878 9.92596 9.606 9.92596 10.782C9.92596 11.958 8.58196 12.686 6.87396 12.686ZM0.685961 6.33V7.226H12.95V6.33H7.36396V4.524H6.27196V6.33H0.685961ZM12.432 4.3C10.794 4.048 9.30996 3.544 8.16196 2.844C7.79796 2.606 7.47596 2.354 7.20996 2.074C7.50396 1.612 7.65796 1.108 7.69996 0.575999H6.57996C6.42596 2.452 3.87796 4.076 1.20396 4.412L1.69396 5.21C3.02396 5.042 4.49396 4.468 5.62796 3.67C6.01996 3.39 6.36996 3.082 6.66396 2.76C7.37796 3.39 8.20396 3.908 9.11396 4.3C10.038 4.706 10.976 4.972 11.928 5.112L12.432 4.3ZM15.2227 8.346V12.966H24.8267V8.346H15.2227ZM13.9067 5.672V6.596H26.1707V5.672H24.3647C24.4907 5.056 24.6027 4.398 24.6867 3.684C24.7847 2.83 24.8687 1.864 24.9107 0.785999H15.0967V1.682H23.8187C23.7767 2.41 23.7067 3.138 23.6227 3.852C23.5527 4.454 23.4547 5.056 23.3147 5.672H13.9067ZM23.7627 9.242V12.042H16.2867V9.242H23.7627ZM36.1154 10.334C35.1494 9.802 34.3094 9.144 33.5674 8.346C32.9094 7.646 32.3914 6.89 32.0134 6.078C32.2234 5.42 32.3634 4.734 32.4334 3.992H35.4714V3.068H27.8834V3.992H31.2994C31.2434 4.664 31.1314 5.294 30.9494 5.868C30.2494 8.094 28.8074 9.69 27.0294 10.712L27.7014 11.454C28.8774 10.74 30.0394 9.704 30.9214 8.36C31.1594 7.982 31.3834 7.59 31.5794 7.156C31.7194 7.394 31.8734 7.618 32.0274 7.856C32.9514 9.158 34.1414 10.362 35.4154 11.174L36.1154 10.334ZM38.6214 13.05V0.562H37.5574V5.84H34.7574V6.792H37.5574V13.05H38.6214ZM33.8754 1.598V0.674H29.5354V1.598H33.8754ZM40.3481 6.4V7.268H52.6121V6.4H40.3481ZM51.5621 12.966V12.084H42.7281V11.02H51.2681V8.29H41.6641V9.158H50.2041V10.166H41.6641V12.966H51.5621ZM51.4221 5.434V4.552H42.7981V3.446H51.2121V0.701999H41.7341V1.57H50.1481V2.606H41.7341V5.434H51.4221ZM66.8425 6.834C65.4565 6.274 64.2245 5.364 63.3565 4.216C63.1745 3.978 63.0205 3.726 62.8805 3.46L63.0205 3.082C63.2585 2.354 63.3985 1.584 63.4125 0.785999H62.3205C62.1665 3.586 60.6545 6.078 57.9665 7.31L58.6385 8.052C59.9965 7.38 61.1725 6.358 62.0125 5.112C62.1665 4.888 62.3205 4.65 62.4465 4.412C62.5445 4.58 62.6705 4.748 62.7965 4.902C63.7065 6.092 64.9525 7.1 66.1985 7.66L66.8425 6.834ZM65.3585 4.09H68.4945V9.774H69.5585V0.562H68.4945V3.166H65.3585V4.09ZM69.9085 12.91V11.986H61.3685V8.794H60.3045V12.91H69.9085ZM77.3332 3.81H73.0912V1.808H77.4732V0.911999H72.0412V7.73L78.0752 7.422V6.54L73.0912 6.75V4.678H77.3332V3.81ZM79.8252 8.276V4.692H81.8272V8.276H82.8912V0.562H81.8272V3.768H79.8252V0.674H78.7752V8.276H79.8252ZM82.8632 13.12V8.976H73.0632V9.9H81.7992V13.12H82.8632ZM90.9319 1.598V0.674H86.7319V1.598H90.9319ZM92.7519 3.712V2.788H84.8559V3.712H92.7519ZM88.8039 4.608C86.6339 4.608 85.3179 6.162 85.3179 7.996C85.3179 9.83 86.6339 11.384 88.8039 11.384C90.9739 11.384 92.2899 9.83 92.2899 7.996C92.2899 6.162 90.9739 4.608 88.8039 4.608ZM88.8039 10.474C87.1659 10.474 86.3819 9.312 86.3819 8.01C86.3819 6.666 87.1659 5.518 88.8039 5.518C90.4419 5.518 91.2259 6.666 91.2259 8.01C91.2259 9.312 90.4419 10.474 88.8039 10.474ZM95.2579 13.05V6.834H97.2879V5.882H95.2579V0.562H94.1939V13.05H95.2579ZM106.967 12.714V0.688H105.917V4.846H103.635V5.798H105.917V12.714H106.967ZM109.627 13.036V0.562H108.563V13.036H109.627ZM98.3566 11.202C99.5466 9.928 100.569 8.416 101.283 6.512C102.011 8.206 103.131 9.788 104.419 10.908L105.119 10.166C103.607 8.92 102.361 7.1 101.703 5.154C102.025 3.866 102.207 2.494 102.249 0.996H101.185C101.115 5.014 99.7566 8.416 97.5726 10.572L98.3566 11.202ZM117.163 0.533999C114.433 0.533999 112.599 2.312 112.599 4.328C112.599 6.344 114.433 8.122 117.163 8.122C119.893 8.122 121.727 6.344 121.727 4.328C121.727 2.312 119.893 0.533999 117.163 0.533999ZM117.163 7.198C115.007 7.198 113.663 5.868 113.663 4.328C113.663 2.788 115.007 1.458 117.163 1.458C119.319 1.458 120.663 2.788 120.663 4.328C120.663 5.868 119.319 7.198 117.163 7.198ZM111.045 10.95V11.874H123.309V10.95H120.551V8.304H119.473V10.95H114.923V8.304H113.845V10.95H111.045Z" fill="#CCCCCC"/>
</svg>
