<svg width="111" height="14" viewBox="0 0 111 14" fill="none" xmlns="http://www.w3.org/2000/svg">
<path d="M0.740313 10.95V11.874H13.0043V10.95H6.66231V5.84H5.57031V10.95H0.740313ZM11.0583 9.046C11.6043 6.75 11.8563 3.936 11.8563 1.15H1.98631V2.074H10.7643C10.7643 3.908 10.5123 6.806 10.0223 9.046H11.0583ZM22.459 7.996V4.636H24.461V7.996H25.525V0.562H24.461V3.712H22.459V0.674H21.409V7.996H22.459ZM14.745 1.948H18.861C18.525 4.02 16.985 6.19 13.947 7.058L14.507 7.87C17.545 6.974 19.967 4.468 20.009 1.024H14.745V1.948ZM25.497 13.12V8.696H15.697V9.62H24.433V13.12H25.497ZM27.2377 6.162V7.058H39.5017V6.162H27.2377ZM33.3697 0.0579994C31.0457 0.0579994 29.2537 1.122 29.2537 2.69C29.2537 4.258 31.0457 5.322 33.3697 5.322C35.6937 5.322 37.4857 4.258 37.4857 2.69C37.4857 1.122 35.6937 0.0579994 33.3697 0.0579994ZM33.3697 4.454C31.6617 4.454 30.3177 3.754 30.3177 2.69C30.3177 1.626 31.6617 0.926 33.3697 0.926C35.0777 0.926 36.4217 1.626 36.4217 2.69C36.4217 3.754 35.0777 4.454 33.3697 4.454ZM38.4517 12.966V12.084H29.6177V10.95H38.1577V8.178H28.5537V9.046H37.0937V10.11H28.5537V12.966H38.4517ZM53.7322 6.834C52.3462 6.274 51.1142 5.364 50.2462 4.216C50.0642 3.978 49.9102 3.726 49.7702 3.46L49.9102 3.082C50.1482 2.354 50.2882 1.584 50.3022 0.785999H49.2102C49.0562 3.586 47.5442 6.078 44.8562 7.31L45.5282 8.052C46.8862 7.38 48.0622 6.358 48.9022 5.112C49.0562 4.888 49.2102 4.65 49.3362 4.412C49.4342 4.58 49.5602 4.748 49.6862 4.902C50.5962 6.092 51.8422 7.1 53.0882 7.66L53.7322 6.834ZM52.2482 4.09H55.3842V9.774H56.4482V0.562H55.3842V3.166H52.2482V4.09ZM56.7982 12.91V11.986H48.2582V8.794H47.1942V12.91H56.7982ZM64.2229 3.81H59.9809V1.808H64.3629V0.911999H58.9309V7.73L64.9649 7.422V6.54L59.9809 6.75V4.678H64.2229V3.81ZM66.7149 8.276V4.692H68.7169V8.276H69.7809V0.562H68.7169V3.768H66.7149V0.674H65.6649V8.276H66.7149ZM69.7529 13.12V8.976H59.9529V9.9H68.6889V13.12H69.7529ZM77.8216 1.598V0.674H73.6216V1.598H77.8216ZM79.6416 3.712V2.788H71.7456V3.712H79.6416ZM75.6936 4.608C73.5236 4.608 72.2076 6.162 72.2076 7.996C72.2076 9.83 73.5236 11.384 75.6936 11.384C77.8636 11.384 79.1796 9.83 79.1796 7.996C79.1796 6.162 77.8636 4.608 75.6936 4.608ZM75.6936 10.474C74.0556 10.474 73.2716 9.312 73.2716 8.01C73.2716 6.666 74.0556 5.518 75.6936 5.518C77.3316 5.518 78.1156 6.666 78.1156 8.01C78.1156 9.312 77.3316 10.474 75.6936 10.474ZM82.1476 13.05V6.834H84.1776V5.882H82.1476V0.562H81.0836V13.05H82.1476ZM93.8563 12.714V0.688H92.8063V4.846H90.5243V5.798H92.8063V12.714H93.8563ZM96.5163 13.036V0.562H95.4523V13.036H96.5163ZM85.2463 11.202C86.4363 9.928 87.4583 8.416 88.1723 6.512C88.9003 8.206 90.0203 9.788 91.3083 10.908L92.0083 10.166C90.4963 8.92 89.2503 7.1 88.5923 5.154C88.9143 3.866 89.0963 2.494 89.1383 0.996H88.0743C88.0043 5.014 86.6463 8.416 84.4623 10.572L85.2463 11.202ZM104.053 0.533999C101.323 0.533999 99.489 2.312 99.489 4.328C99.489 6.344 101.323 8.122 104.053 8.122C106.783 8.122 108.617 6.344 108.617 4.328C108.617 2.312 106.783 0.533999 104.053 0.533999ZM104.053 7.198C101.897 7.198 100.553 5.868 100.553 4.328C100.553 2.788 101.897 1.458 104.053 1.458C106.209 1.458 107.553 2.788 107.553 4.328C107.553 5.868 106.209 7.198 104.053 7.198ZM97.935 10.95V11.874H110.199V10.95H107.441V8.304H106.363V10.95H101.813V8.304H100.735V10.95H97.935Z" fill="#CCCCCC"/>
</svg>
