<svg width="177" height="96" viewBox="0 0 177 96" fill="none" xmlns="http://www.w3.org/2000/svg">
<path d="M61.9489 54.132V45.258H59.5369V54.132H61.9489ZM49.5649 54.852V61.278H61.9129V54.852H49.5649ZM51.9769 56.868H59.5009V59.226H51.9769V56.868ZM48.2329 47.796H54.3529C53.7769 50.028 51.0589 51.792 47.1709 52.566L48.3049 54.438C52.6429 53.52 57.0349 50.82 56.9809 45.78H48.2329V47.796ZM78.3709 49.2H68.2189V47.49H78.1909V45.51H65.8069V51.198H70.8649V52.314H64.0789V54.294H79.9189V52.314H73.3129V51.198H78.3709V49.2ZM72.0709 54.834C68.9209 54.834 66.6889 56.292 66.6889 58.524C66.6889 60.756 68.9209 62.214 72.0709 62.214C75.2209 62.214 77.4529 60.756 77.4529 58.524C77.4529 56.292 75.2209 54.834 72.0709 54.834ZM72.0709 60.27C70.1269 60.27 69.1009 59.586 69.1009 58.524C69.1009 57.462 70.1269 56.778 72.0709 56.778C74.0149 56.778 75.0409 57.462 75.0409 58.524C75.0409 59.586 74.0149 60.27 72.0709 60.27ZM86.801 49.542C84.011 49.542 82.319 50.748 82.319 52.53C82.319 54.312 84.011 55.518 86.801 55.518C89.573 55.518 91.283 54.312 91.283 52.53C91.283 50.748 89.573 49.542 86.801 49.542ZM91.733 51.594H93.893V52.692H91.733V54.672H93.893V57.408H96.305V45.258H93.893V49.614H91.733V51.594ZM83.939 56.382V61.206H96.755V59.154H86.351V56.382H83.939ZM92.129 49.164V47.328H81.329V49.164H92.129ZM89.789 46.716V44.88H83.669V46.716H89.789ZM86.801 53.754C85.361 53.754 84.695 53.268 84.695 52.53C84.695 51.792 85.361 51.306 86.801 51.306C88.241 51.306 88.907 51.792 88.907 52.53C88.907 53.268 88.241 53.754 86.801 53.754ZM99.083 45.6V53.448L109.811 52.962V50.946L101.495 51.216V45.6H99.083ZM112.943 54.132V45.258H110.531V54.132H112.943ZM100.559 54.852V61.278H112.907V54.852H100.559ZM102.971 56.868H110.495V59.226H102.971V56.868ZM130.175 61.386V45.258H127.763V61.386H130.175ZM127.223 58.938V56.922L115.343 57.066V59.118L127.223 58.938ZM121.157 45.618C118.187 45.618 116.153 47.886 116.153 50.334C116.153 52.782 118.187 55.05 121.157 55.05C124.127 55.05 126.161 52.782 126.161 50.334C126.161 47.886 124.127 45.618 121.157 45.618ZM121.157 52.998C119.573 52.998 118.565 51.702 118.565 50.334C118.565 48.966 119.573 47.67 121.157 47.67C122.741 47.67 123.749 48.966 123.749 50.334C123.749 51.702 122.741 52.998 121.157 52.998ZM2.56864 87.352C4.27864 86.29 5.82664 84.904 6.92464 83.158L6.96064 83.104C7.33864 83.662 7.75264 84.202 8.22064 84.688C9.15664 85.678 10.2546 86.47 11.3346 86.974L12.7566 85.174C11.4786 84.616 10.4166 83.914 9.53464 83.05C8.94064 82.456 8.41864 81.754 8.00464 80.944C8.09464 80.71 8.16664 80.494 8.22064 80.26C8.38264 79.72 8.50864 79.162 8.58064 78.568H12.1086V76.516H2.17264V78.568H6.11464C6.06064 78.946 5.97064 79.324 5.88064 79.666C5.16064 82.312 3.46864 84.238 0.984641 85.642L2.56864 87.352ZM15.7266 89.386V81.448H18.0126V79.36H15.7266V73.258H13.3146V89.386H15.7266ZM10.0746 75.274V73.222H4.29664V75.274H10.0746ZM27.6667 82.258C24.6427 82.258 22.4647 83.806 22.4647 86.056C22.4647 88.306 24.6427 89.854 27.6667 89.854C30.6907 89.854 32.8687 88.306 32.8687 86.056C32.8687 83.806 30.6907 82.258 27.6667 82.258ZM29.7907 81.43V79.522L21.7627 79.792V78.568H28.2787V73.672H19.3507V75.616H25.8667V76.696H19.3507V81.916L29.7907 81.43ZM32.9227 73.258H30.5107V82.42H32.9227V80.332H34.8307V78.316H32.9227V76.912H34.8307V74.896H32.9227V73.258ZM27.6667 87.91C25.8667 87.91 24.8767 87.19 24.8767 86.056C24.8767 84.922 25.8667 84.202 27.6667 84.202C29.4667 84.202 30.4567 84.922 30.4567 86.056C30.4567 87.19 29.4667 87.91 27.6667 87.91ZM45.1687 81.898C42.1447 81.898 39.9667 83.536 39.9667 85.876C39.9667 88.234 42.1447 89.854 45.1687 89.854C48.1927 89.854 50.3707 88.234 50.3707 85.876C50.3707 83.536 48.1927 81.898 45.1687 81.898ZM46.9687 79.396C45.1687 79.072 43.7287 78.532 42.6667 77.506C42.5587 77.398 42.4507 77.272 42.3607 77.146C42.5047 76.84 42.6307 76.498 42.7387 76.156C42.7927 76.012 42.8287 75.868 42.8647 75.724H46.3207V73.78H36.2587V75.724H40.3447C40.0747 76.57 39.6427 77.326 39.0127 77.992C38.0587 79 36.7987 79.738 35.2327 80.188L36.6367 81.988C38.0767 81.52 39.6787 80.548 40.9027 79.252L41.2267 78.892C41.6407 79.342 42.1267 79.738 42.6487 80.08C43.6027 80.692 44.6287 81.106 45.7267 81.304L46.9687 79.396ZM45.4567 78.388H48.2647V82.06H50.6767V73.258H48.2647V76.444H45.4567V78.388ZM45.1687 87.874C43.3687 87.874 42.3787 87.082 42.3787 85.876C42.3787 84.67 43.3687 83.878 45.1687 83.878C46.9687 83.878 47.9587 84.67 47.9587 85.876C47.9587 87.082 46.9687 87.874 45.1687 87.874ZM64.3268 73.726V76.552H56.7668V73.726H54.3548V83.41H59.3228V86.146H52.6268V88.198H68.4668V86.146H61.7708V83.41H66.7388V73.726H64.3268ZM56.7668 81.34V78.568H64.3268V81.34H56.7668ZM84.1868 89.278V87.532H73.6568V86.902H83.8088V82.978H71.2448V84.706H81.3968V85.318H71.2448V89.278H84.1868ZM84.0068 79.774V78.028H73.7468V77.38H83.7368V73.438H71.3348V75.166H81.3248V75.796H71.3348V79.774H84.0068ZM85.4648 82.204V80.476H69.6248V82.204H85.4648ZM103.581 75.382H92.6371V77.218H94.7251C94.1311 77.488 93.7891 78.028 93.7891 78.73C93.7891 80.062 94.9051 80.962 96.4351 81.358C96.5971 81.394 96.7771 81.43 96.9391 81.448V82.15L92.3311 82.204V84.076L103.851 83.896V82.06L99.3871 82.114V81.43L99.7651 81.358C101.331 80.962 102.429 80.062 102.429 78.73C102.429 78.028 102.087 77.488 101.493 77.218H103.581V75.382ZM106.875 89.458V84.778H94.0051V86.722H104.463V89.458H106.875ZM106.911 84.238V80.008H108.711V77.92H106.911V73.258H104.499V84.238H106.911ZM94.9951 72.898V74.734H101.223V72.898H94.9951ZM98.1091 77.218C99.3331 77.218 100.017 77.686 100.017 78.46C100.017 79.234 99.3331 79.702 98.1091 79.702C96.8851 79.702 96.2011 79.234 96.2011 78.46C96.2011 77.686 96.8851 77.218 98.1091 77.218ZM114.765 73.096C112.083 73.096 109.941 75.022 109.941 77.722C109.941 80.422 112.083 82.348 114.765 82.348C117.447 82.348 119.589 80.422 119.589 77.722C119.589 75.022 117.447 73.096 114.765 73.096ZM114.765 80.296C113.271 80.296 112.353 79.252 112.353 77.722C112.353 76.192 113.271 75.148 114.765 75.148C116.259 75.148 117.177 76.192 117.177 77.722C117.177 79.252 116.259 80.296 114.765 80.296ZM124.395 85.084V73.258H121.983V85.084H124.395ZM112.029 83.698V89.206H124.845V87.154H114.441V83.698H112.029ZM134.769 75.274V73.222H129.189V75.274H134.769ZM137.109 78.172V76.12H126.777V78.172H137.109ZM131.943 78.622C129.081 78.622 127.371 80.53 127.371 82.924C127.371 85.318 129.081 87.226 131.943 87.226C134.805 87.226 136.515 85.318 136.515 82.924C136.515 80.53 134.805 78.622 131.943 78.622ZM131.943 85.21C130.485 85.21 129.783 84.274 129.783 82.924C129.783 81.574 130.485 80.638 131.943 80.638C133.401 80.638 134.103 81.574 134.103 82.924C134.103 84.274 133.401 85.21 131.943 85.21ZM140.619 89.386V81.808H142.905V79.72H140.619V73.258H138.207V89.386H140.619ZM152.775 85.102C151.785 84.238 150.939 83.266 150.273 82.186C149.751 81.34 149.301 80.404 148.959 79.378C149.391 77.704 149.625 75.868 149.679 73.834H147.267C147.195 79.036 145.719 82.996 142.857 85.714L144.603 87.136C145.989 85.714 147.123 84.04 147.987 82.114C148.221 82.6 148.455 83.05 148.707 83.5C149.391 84.67 150.237 85.732 151.227 86.722L152.775 85.102ZM150.921 80.458H153.423V88.972H155.763V73.438H153.423V78.406H150.921V80.458ZM159.093 89.368V73.258H156.717V89.368H159.093ZM168.405 73.186C164.859 73.186 162.447 75.58 162.447 78.28C162.447 80.98 164.859 83.374 168.405 83.374C172.005 83.374 174.399 80.98 174.399 78.28C174.399 75.58 172.005 73.186 168.405 73.186ZM176.361 88.198V86.146H173.265V83.428H170.853V86.146H166.083V83.428H163.671V86.146H160.521V88.198H176.361ZM168.423 81.322C166.191 81.322 164.859 79.918 164.859 78.28C164.859 76.66 166.191 75.238 168.423 75.238C170.655 75.238 171.987 76.66 171.987 78.28C171.987 79.918 170.655 81.322 168.423 81.322Z" fill="#242D3C"/>
<path d="M61.3074 3.368C60.5664 2.445 59.5004 1.873 58.1614 1.873C56.2634 1.873 55.0414 3.017 55.0414 4.512C55.0414 5.656 55.6264 6.592 57.3034 7.294L58.6034 7.84C59.7994 8.334 59.8904 8.867 59.8904 9.309C59.8904 10.193 59.2274 10.791 58.1744 10.791C57.0824 10.791 56.1204 10.024 55.6134 8.932L54.5214 9.985C55.0414 10.973 56.3934 12.247 58.1744 12.247C60.2284 12.247 61.6064 10.908 61.6064 9.309C61.6064 7.658 60.4494 7.008 59.1104 6.423L57.8364 5.864C57.0044 5.5 56.7574 5.097 56.7574 4.512C56.7574 3.875 57.2124 3.329 58.1614 3.329C58.9024 3.329 59.6564 3.706 60.2414 4.382L61.3074 3.368ZM66.6149 10.713C66.3029 10.778 65.9129 10.791 65.6919 10.791C65.0289 10.791 64.7429 10.336 64.7429 9.595V6.124H66.6149V4.72H64.7429V2.783H63.0789V4.72H61.8179V6.124H63.0789V9.595C63.0789 11.22 63.7809 12.195 65.6139 12.195C65.8609 12.195 66.1989 12.208 66.6149 12.117V10.713ZM72.7787 9.452C72.3627 10.232 71.5827 10.791 70.6987 10.791C69.6977 10.791 68.9567 9.972 68.8137 8.984H74.0917V8.191C74.0917 6.059 72.6227 4.525 70.5817 4.525C68.6317 4.525 67.0717 6.072 67.0717 8.36C67.0717 10.648 68.5407 12.195 70.6987 12.195C72.0507 12.195 73.2597 11.48 73.9877 10.375L72.7787 9.452ZM68.8007 7.606C69.0087 6.566 69.6977 5.929 70.5817 5.929C71.5307 5.929 72.1807 6.631 72.3757 7.606H68.8007ZM75.3963 4.72V14.6H77.0603V11.311C77.5283 11.87 78.3733 12.195 79.1533 12.195C81.3243 12.195 82.8973 10.648 82.8973 8.36C82.8973 6.072 81.3243 4.525 79.1533 4.525C78.3733 4.525 77.5803 4.811 77.0603 5.318V4.72H75.3963ZM77.0733 8.36C77.0733 6.826 77.9573 5.929 79.1533 5.929C80.3493 5.929 81.2333 6.917 81.2333 8.36C81.2333 9.803 80.3493 10.791 79.1533 10.791C77.9573 10.791 77.0733 9.894 77.0733 8.36ZM89.2791 2.133L88.4341 7.06L89.5651 7.541C89.8771 7.138 90.5791 6.748 91.5021 6.748C92.8021 6.748 93.4261 7.606 93.4261 8.802C93.4261 9.998 92.6331 10.817 91.3851 10.817C90.3061 10.817 89.5521 10.063 88.9931 9.036L87.7451 9.933C88.4731 11.311 89.8251 12.247 91.3851 12.247C93.7381 12.247 95.1161 10.817 95.1161 8.802C95.1161 6.865 93.8941 5.318 91.5021 5.318C91.0731 5.318 90.6831 5.396 90.3321 5.539L90.6701 3.563H94.7391V2.133H89.2791ZM103.707 4.525C101.614 4.525 100.067 6.072 100.067 8.36C100.067 10.648 101.614 12.195 103.707 12.195C105.774 12.195 107.347 10.648 107.347 8.36C107.347 6.072 105.774 4.525 103.707 4.525ZM103.707 10.791C102.615 10.791 101.731 9.803 101.731 8.36C101.731 6.917 102.615 5.929 103.707 5.929C104.799 5.929 105.683 6.917 105.683 8.36C105.683 9.803 104.799 10.791 103.707 10.791ZM112.61 1.977C112.285 1.912 111.947 1.873 111.609 1.873C109.672 1.873 109.074 2.926 109.074 4.473V4.72H107.8V6.124H109.074V12H110.738V6.124H112.61V4.72H110.738V4.473C110.738 3.693 110.816 3.264 111.687 3.264C112.116 3.264 112.415 3.303 112.61 3.355V1.977ZM117.332 3.55H122.259L118.476 12H120.257L124.222 3.095V2.12H117.332V3.55Z" fill="#999999"/>
</svg>
