<svg width="235" height="96" viewBox="0 0 235 96" fill="none" xmlns="http://www.w3.org/2000/svg">
<path d="M90.4489 54.132V45.258H88.0369V54.132H90.4489ZM78.0649 54.852V61.278H90.4129V54.852H78.0649ZM80.4769 56.868H88.0009V59.226H80.4769V56.868ZM76.7329 47.796H82.8529C82.2769 50.028 79.5589 51.792 75.6709 52.566L76.8049 54.438C81.1429 53.52 85.5349 50.82 85.4809 45.78H76.7329V47.796ZM106.871 49.2H96.7189V47.49H106.691V45.51H94.3069V51.198H99.3649V52.314H92.5789V54.294H108.419V52.314H101.813V51.198H106.871V49.2ZM100.571 54.834C97.4209 54.834 95.1889 56.292 95.1889 58.524C95.1889 60.756 97.4209 62.214 100.571 62.214C103.721 62.214 105.953 60.756 105.953 58.524C105.953 56.292 103.721 54.834 100.571 54.834ZM100.571 60.27C98.6269 60.27 97.6009 59.586 97.6009 58.524C97.6009 57.462 98.6269 56.778 100.571 56.778C102.515 56.778 103.541 57.462 103.541 58.524C103.541 59.586 102.515 60.27 100.571 60.27ZM115.301 49.542C112.511 49.542 110.819 50.748 110.819 52.53C110.819 54.312 112.511 55.518 115.301 55.518C118.073 55.518 119.783 54.312 119.783 52.53C119.783 50.748 118.073 49.542 115.301 49.542ZM120.233 51.594H122.393V52.692H120.233V54.672H122.393V57.408H124.805V45.258H122.393V49.614H120.233V51.594ZM112.439 56.382V61.206H125.255V59.154H114.851V56.382H112.439ZM120.629 49.164V47.328H109.829V49.164H120.629ZM118.289 46.716V44.88H112.169V46.716H118.289ZM115.301 53.754C113.861 53.754 113.195 53.268 113.195 52.53C113.195 51.792 113.861 51.306 115.301 51.306C116.741 51.306 117.407 51.792 117.407 52.53C117.407 53.268 116.741 53.754 115.301 53.754ZM127.583 45.6V53.448L138.311 52.962V50.946L129.995 51.216V45.6H127.583ZM141.443 54.132V45.258H139.031V54.132H141.443ZM129.059 54.852V61.278H141.407V54.852H129.059ZM131.471 56.868H138.995V59.226H131.471V56.868ZM158.675 61.386V45.258H156.263V61.386H158.675ZM155.723 58.938V56.922L143.843 57.066V59.118L155.723 58.938ZM149.657 45.618C146.687 45.618 144.653 47.886 144.653 50.334C144.653 52.782 146.687 55.05 149.657 55.05C152.627 55.05 154.661 52.782 154.661 50.334C154.661 47.886 152.627 45.618 149.657 45.618ZM149.657 52.998C148.073 52.998 147.065 51.702 147.065 50.334C147.065 48.966 148.073 47.67 149.657 47.67C151.241 47.67 152.249 48.966 152.249 50.334C152.249 51.702 151.241 52.998 149.657 52.998ZM9.89354 88.972H12.2335V81.016H13.6375V89.368H16.0135V73.258H13.6375V78.928H12.2335V73.438H9.89354V88.972ZM1.77554 74.014V86.542L9.17354 86.11V84.094L4.15154 84.31V76.066H8.50754V74.014H1.77554ZM33.6416 82.15V80.422H17.8016V82.15H24.4976V82.978H19.4216V84.706H29.5736V85.318H19.4216V89.278H32.3636V87.532H21.8336V86.902H31.9856V82.978H26.9456V82.15H33.6416ZM19.3136 80.026C21.1136 79.954 23.1116 79.648 24.7316 78.964C25.0556 78.82 25.3616 78.658 25.6496 78.496C25.9556 78.694 26.2796 78.874 26.6396 79.036C28.1876 79.702 30.1676 79.972 32.0396 79.9L33.0836 78.136C30.9236 78.1 29.0696 77.992 27.6656 77.416L27.1076 77.146C27.1256 77.092 27.1616 77.056 27.1976 77.002H32.0396V75.202H19.3316V77.002H24.2456C23.9216 77.236 23.5256 77.416 23.0576 77.56C21.8516 77.938 20.2136 78.118 18.3416 78.208L19.3136 80.026ZM29.2136 72.898H22.1576V74.698H29.2136V72.898ZM33.9536 88.9H36.2936L42.1616 73.42H39.8216L33.9536 88.9ZM53.5877 84.994C52.3457 84.148 51.2837 83.212 50.4377 82.186C49.7717 81.376 49.1777 80.458 48.6737 79.45C49.2317 77.668 49.5017 75.76 49.5017 73.726H47.0537C47.0537 78.586 45.5237 82.582 41.6717 85.426L43.2917 87.1C45.2177 85.606 46.6757 83.86 47.7017 81.88C48.0977 82.528 48.5477 83.158 49.0337 83.77C49.9517 84.904 50.9597 85.876 52.0937 86.722L53.5877 84.994ZM56.5577 89.386V81.088H58.8437V79H56.5577V73.258H54.1457V89.386H56.5577ZM74.3297 81.61V73.258H71.9177V76.354H69.2717C69.2177 76.102 69.1277 75.85 69.0197 75.616C68.3177 74.032 66.6437 73.024 64.6637 73.024C61.9997 73.024 59.9477 74.824 59.9477 77.344C59.9477 79.864 61.9997 81.664 64.6637 81.664C66.6437 81.664 68.3177 80.638 69.0197 79.09C69.1097 78.874 69.1997 78.64 69.2537 78.406H71.9177V81.61H74.3297ZM74.2937 89.278V82.33H71.8817V83.932H64.3577V82.33H61.9457V89.278H74.2937ZM64.6637 79.684C63.2237 79.684 62.3597 78.73 62.3597 77.344C62.3597 75.958 63.2237 75.004 64.6637 75.004C66.1037 75.004 66.9677 75.958 66.9677 77.344C66.9677 78.73 66.1037 79.684 64.6637 79.684ZM71.8817 87.262H64.3577V85.84H71.8817V87.262ZM77.2878 87.172C78.2598 86.434 79.1238 85.606 79.8978 84.67C80.5638 83.86 81.1578 82.996 81.6438 82.06L81.7518 82.258C82.9038 84.076 84.5058 85.75 86.1258 86.794L87.5838 85.03C85.3338 83.752 83.6778 81.97 82.6518 79.684C82.8138 79.162 82.9578 78.64 83.0838 78.082C83.2458 77.398 83.3538 76.696 83.4258 75.958H87.0618V73.906H76.7478V75.958H80.9598C80.9058 76.516 80.8158 77.074 80.7078 77.614C80.0598 80.944 78.4218 83.698 75.6678 85.498L77.2878 87.172ZM90.5538 89.386V81.088H92.8398V79H90.5538V73.258H88.1418V89.386H90.5538ZM102.998 81.898C99.9738 81.898 97.7958 83.536 97.7958 85.876C97.7958 88.234 99.9738 89.854 102.998 89.854C106.022 89.854 108.2 88.234 108.2 85.876C108.2 83.536 106.022 81.898 102.998 81.898ZM104.798 79.396C102.998 79.072 101.558 78.532 100.496 77.506C100.388 77.398 100.28 77.272 100.19 77.146C100.334 76.84 100.46 76.498 100.568 76.156C100.622 76.012 100.658 75.868 100.694 75.724H104.15V73.78H94.0878V75.724H98.1738C97.9038 76.57 97.4718 77.326 96.8418 77.992C95.8878 79 94.6278 79.738 93.0618 80.188L94.4658 81.988C95.9058 81.52 97.5078 80.548 98.7318 79.252L99.0558 78.892C99.4698 79.342 99.9558 79.738 100.478 80.08C101.432 80.692 102.458 81.106 103.556 81.304L104.798 79.396ZM103.286 78.388H106.094V82.06H108.506V73.258H106.094V76.444H103.286V78.388ZM102.998 87.874C101.198 87.874 100.208 87.082 100.208 85.876C100.208 84.67 101.198 83.878 102.998 83.878C104.798 83.878 105.788 84.67 105.788 85.876C105.788 87.082 104.798 87.874 102.998 87.874ZM122.156 73.726V76.552H114.596V73.726H112.184V83.41H117.152V86.146H110.456V88.198H126.296V86.146H119.6V83.41H124.568V73.726H122.156ZM114.596 81.34V78.568H122.156V81.34H114.596ZM142.016 89.278V87.532H131.486V86.902H141.638V82.978H129.074V84.706H139.226V85.318H129.074V89.278H142.016ZM141.836 79.774V78.028H131.576V77.38H141.566V73.438H129.164V75.166H139.154V75.796H129.164V79.774H141.836ZM143.294 82.204V80.476H127.454V82.204H143.294ZM161.41 75.382H150.466V77.218H152.554C151.96 77.488 151.618 78.028 151.618 78.73C151.618 80.062 152.734 80.962 154.264 81.358C154.426 81.394 154.606 81.43 154.768 81.448V82.15L150.16 82.204V84.076L161.68 83.896V82.06L157.216 82.114V81.43L157.594 81.358C159.16 80.962 160.258 80.062 160.258 78.73C160.258 78.028 159.916 77.488 159.322 77.218H161.41V75.382ZM164.704 89.458V84.778H151.834V86.722H162.292V89.458H164.704ZM164.74 84.238V80.008H166.54V77.92H164.74V73.258H162.328V84.238H164.74ZM152.824 72.898V74.734H159.052V72.898H152.824ZM155.938 77.218C157.162 77.218 157.846 77.686 157.846 78.46C157.846 79.234 157.162 79.702 155.938 79.702C154.714 79.702 154.03 79.234 154.03 78.46C154.03 77.686 154.714 77.218 155.938 77.218ZM172.594 73.096C169.912 73.096 167.77 75.022 167.77 77.722C167.77 80.422 169.912 82.348 172.594 82.348C175.276 82.348 177.418 80.422 177.418 77.722C177.418 75.022 175.276 73.096 172.594 73.096ZM172.594 80.296C171.1 80.296 170.182 79.252 170.182 77.722C170.182 76.192 171.1 75.148 172.594 75.148C174.088 75.148 175.006 76.192 175.006 77.722C175.006 79.252 174.088 80.296 172.594 80.296ZM182.224 85.084V73.258H179.812V85.084H182.224ZM169.858 83.698V89.206H182.674V87.154H172.27V83.698H169.858ZM192.598 75.274V73.222H187.018V75.274H192.598ZM194.938 78.172V76.12H184.606V78.172H194.938ZM189.772 78.622C186.91 78.622 185.2 80.53 185.2 82.924C185.2 85.318 186.91 87.226 189.772 87.226C192.634 87.226 194.344 85.318 194.344 82.924C194.344 80.53 192.634 78.622 189.772 78.622ZM189.772 85.21C188.314 85.21 187.612 84.274 187.612 82.924C187.612 81.574 188.314 80.638 189.772 80.638C191.23 80.638 191.932 81.574 191.932 82.924C191.932 84.274 191.23 85.21 189.772 85.21ZM198.448 89.386V81.808H200.734V79.72H198.448V73.258H196.036V89.386H198.448ZM210.604 85.102C209.614 84.238 208.768 83.266 208.102 82.186C207.58 81.34 207.13 80.404 206.788 79.378C207.22 77.704 207.454 75.868 207.508 73.834H205.096C205.024 79.036 203.548 82.996 200.686 85.714L202.432 87.136C203.818 85.714 204.952 84.04 205.816 82.114C206.05 82.6 206.284 83.05 206.536 83.5C207.22 84.67 208.066 85.732 209.056 86.722L210.604 85.102ZM208.75 80.458H211.252V88.972H213.592V73.438H211.252V78.406H208.75V80.458ZM216.922 89.368V73.258H214.546V89.368H216.922ZM226.234 73.186C222.688 73.186 220.276 75.58 220.276 78.28C220.276 80.98 222.688 83.374 226.234 83.374C229.834 83.374 232.228 80.98 232.228 78.28C232.228 75.58 229.834 73.186 226.234 73.186ZM234.19 88.198V86.146H231.094V83.428H228.682V86.146H223.912V83.428H221.5V86.146H218.35V88.198H234.19ZM226.252 81.322C224.02 81.322 222.688 79.918 222.688 78.28C222.688 76.66 224.02 75.238 226.252 75.238C228.484 75.238 229.816 76.66 229.816 78.28C229.816 79.918 228.484 81.322 226.252 81.322Z" fill="#242D3C"/>
<path d="M89.3074 3.368C88.5664 2.445 87.5004 1.873 86.1614 1.873C84.2634 1.873 83.0414 3.017 83.0414 4.512C83.0414 5.656 83.6264 6.592 85.3034 7.294L86.6034 7.84C87.7994 8.334 87.8904 8.867 87.8904 9.309C87.8904 10.193 87.2274 10.791 86.1744 10.791C85.0824 10.791 84.1204 10.024 83.6134 8.932L82.5214 9.985C83.0414 10.973 84.3934 12.247 86.1744 12.247C88.2284 12.247 89.6064 10.908 89.6064 9.309C89.6064 7.658 88.4494 7.008 87.1104 6.423L85.8364 5.864C85.0044 5.5 84.7574 5.097 84.7574 4.512C84.7574 3.875 85.2124 3.329 86.1614 3.329C86.9024 3.329 87.6564 3.706 88.2414 4.382L89.3074 3.368ZM94.6149 10.713C94.3029 10.778 93.9129 10.791 93.6919 10.791C93.0289 10.791 92.7429 10.336 92.7429 9.595V6.124H94.6149V4.72H92.7429V2.783H91.0789V4.72H89.8179V6.124H91.0789V9.595C91.0789 11.22 91.7809 12.195 93.6139 12.195C93.8609 12.195 94.1989 12.208 94.6149 12.117V10.713ZM100.779 9.452C100.363 10.232 99.5827 10.791 98.6987 10.791C97.6977 10.791 96.9567 9.972 96.8137 8.984H102.092V8.191C102.092 6.059 100.623 4.525 98.5817 4.525C96.6317 4.525 95.0717 6.072 95.0717 8.36C95.0717 10.648 96.5407 12.195 98.6987 12.195C100.051 12.195 101.26 11.48 101.988 10.375L100.779 9.452ZM96.8007 7.606C97.0087 6.566 97.6977 5.929 98.5817 5.929C99.5307 5.929 100.181 6.631 100.376 7.606H96.8007ZM103.396 4.72V14.6H105.06V11.311C105.528 11.87 106.373 12.195 107.153 12.195C109.324 12.195 110.897 10.648 110.897 8.36C110.897 6.072 109.324 4.525 107.153 4.525C106.373 4.525 105.58 4.811 105.06 5.318V4.72H103.396ZM105.073 8.36C105.073 6.826 105.957 5.929 107.153 5.929C108.349 5.929 109.233 6.917 109.233 8.36C109.233 9.803 108.349 10.791 107.153 10.791C105.957 10.791 105.073 9.894 105.073 8.36ZM119.567 12.247C121.699 12.247 123.142 10.7 123.142 8.789C123.142 6.878 121.699 5.318 119.567 5.318C119.411 5.318 119.268 5.344 119.099 5.383L120.893 2.133H119.073L116.616 6.566C116.304 7.138 115.992 7.944 115.992 8.659C115.992 10.622 117.266 12.247 119.567 12.247ZM117.682 8.789C117.682 7.593 118.41 6.748 119.567 6.748C120.724 6.748 121.452 7.632 121.452 8.789C121.452 9.933 120.724 10.817 119.567 10.817C118.449 10.817 117.682 9.881 117.682 8.789ZM131.707 4.525C129.614 4.525 128.067 6.072 128.067 8.36C128.067 10.648 129.614 12.195 131.707 12.195C133.774 12.195 135.347 10.648 135.347 8.36C135.347 6.072 133.774 4.525 131.707 4.525ZM131.707 10.791C130.615 10.791 129.731 9.803 129.731 8.36C129.731 6.917 130.615 5.929 131.707 5.929C132.799 5.929 133.683 6.917 133.683 8.36C133.683 9.803 132.799 10.791 131.707 10.791ZM140.61 1.977C140.285 1.912 139.947 1.873 139.609 1.873C137.672 1.873 137.074 2.926 137.074 4.473V4.72H135.8V6.124H137.074V12H138.738V6.124H140.61V4.72H138.738V4.473C138.738 3.693 138.816 3.264 139.687 3.264C140.116 3.264 140.415 3.303 140.61 3.355V1.977ZM145.332 3.55H150.259L146.476 12H148.257L152.222 3.095V2.12H145.332V3.55Z" fill="#999999"/>
</svg>
