<svg width="176" height="96" viewBox="0 0 176 96" fill="none" xmlns="http://www.w3.org/2000/svg">
<path d="M60.9489 54.132V45.258H58.5369V54.132H60.9489ZM48.5649 54.852V61.278H60.9129V54.852H48.5649ZM50.9769 56.868H58.5009V59.226H50.9769V56.868ZM47.2329 47.796H53.3529C52.7769 50.028 50.0589 51.792 46.1709 52.566L47.3049 54.438C51.6429 53.52 56.0349 50.82 55.9809 45.78H47.2329V47.796ZM77.3709 49.2H67.2189V47.49H77.1909V45.51H64.8069V51.198H69.8649V52.314H63.0789V54.294H78.9189V52.314H72.3129V51.198H77.3709V49.2ZM71.0709 54.834C67.9209 54.834 65.6889 56.292 65.6889 58.524C65.6889 60.756 67.9209 62.214 71.0709 62.214C74.2209 62.214 76.4529 60.756 76.4529 58.524C76.4529 56.292 74.2209 54.834 71.0709 54.834ZM71.0709 60.27C69.1269 60.27 68.1009 59.586 68.1009 58.524C68.1009 57.462 69.1269 56.778 71.0709 56.778C73.0149 56.778 74.0409 57.462 74.0409 58.524C74.0409 59.586 73.0149 60.27 71.0709 60.27ZM85.801 49.542C83.011 49.542 81.319 50.748 81.319 52.53C81.319 54.312 83.011 55.518 85.801 55.518C88.573 55.518 90.283 54.312 90.283 52.53C90.283 50.748 88.573 49.542 85.801 49.542ZM90.733 51.594H92.893V52.692H90.733V54.672H92.893V57.408H95.305V45.258H92.893V49.614H90.733V51.594ZM82.939 56.382V61.206H95.755V59.154H85.351V56.382H82.939ZM91.129 49.164V47.328H80.329V49.164H91.129ZM88.789 46.716V44.88H82.669V46.716H88.789ZM85.801 53.754C84.361 53.754 83.695 53.268 83.695 52.53C83.695 51.792 84.361 51.306 85.801 51.306C87.241 51.306 87.907 51.792 87.907 52.53C87.907 53.268 87.241 53.754 85.801 53.754ZM98.083 45.6V53.448L108.811 52.962V50.946L100.495 51.216V45.6H98.083ZM111.943 54.132V45.258H109.531V54.132H111.943ZM99.559 54.852V61.278H111.907V54.852H99.559ZM101.971 56.868H109.495V59.226H101.971V56.868ZM129.175 61.386V45.258H126.763V61.386H129.175ZM126.223 58.938V56.922L114.343 57.066V59.118L126.223 58.938ZM120.157 45.618C117.187 45.618 115.153 47.886 115.153 50.334C115.153 52.782 117.187 55.05 120.157 55.05C123.127 55.05 125.161 52.782 125.161 50.334C125.161 47.886 123.127 45.618 120.157 45.618ZM120.157 52.998C118.573 52.998 117.565 51.702 117.565 50.334C117.565 48.966 118.573 47.67 120.157 47.67C121.741 47.67 122.749 48.966 122.749 50.334C122.749 51.702 121.741 52.998 120.157 52.998ZM8.62464 82.834C5.47464 82.834 3.24264 84.292 3.24264 86.524C3.24264 88.756 5.47464 90.214 8.62464 90.214C11.7746 90.214 14.0066 88.756 14.0066 86.524C14.0066 84.292 11.7746 82.834 8.62464 82.834ZM16.4726 82.24V80.26H9.77664V78.388H7.32864V80.26H0.632641V82.24H16.4726ZM2.14464 79.342C3.83664 79.162 5.85264 78.55 7.43664 77.56C7.81464 77.326 8.17464 77.056 8.49864 76.786C8.76864 77.02 9.05664 77.218 9.36264 77.416C10.9646 78.46 12.9806 79.072 14.9066 79.216L15.9866 77.416C13.7366 77.164 11.8106 76.714 10.3706 75.778C10.1366 75.616 9.92064 75.454 9.72264 75.274C9.77664 75.184 9.81264 75.076 9.86664 74.968C10.1366 74.446 10.2806 73.87 10.2986 73.24H7.81464C7.67064 75.76 4.64664 77.092 1.10064 77.524L2.14464 79.342ZM8.62464 88.27C6.68064 88.27 5.65464 87.586 5.65464 86.524C5.65464 85.462 6.68064 84.778 8.62464 84.778C10.5686 84.778 11.5946 85.462 11.5946 86.524C11.5946 87.586 10.5686 88.27 8.62464 88.27ZM31.8147 89.278V82.942H19.2507V89.278H31.8147ZM33.4707 81.466V79.45H31.2927C31.4367 78.784 31.5807 78.01 31.7067 77.128C31.8687 76.048 31.9587 74.842 31.9947 73.51H19.0887V75.526H29.5107C29.4747 76.39 29.3307 77.56 29.0787 78.748L28.9167 79.45H17.6307V81.466H33.4707ZM21.6627 84.922H29.4027V87.262H21.6627V84.922ZM44.1687 81.898C41.1447 81.898 38.9667 83.536 38.9667 85.876C38.9667 88.234 41.1447 89.854 44.1687 89.854C47.1927 89.854 49.3707 88.234 49.3707 85.876C49.3707 83.536 47.1927 81.898 44.1687 81.898ZM45.9687 79.396C44.1687 79.072 42.7287 78.532 41.6667 77.506C41.5587 77.398 41.4507 77.272 41.3607 77.146C41.5047 76.84 41.6307 76.498 41.7387 76.156C41.7927 76.012 41.8287 75.868 41.8647 75.724H45.3207V73.78H35.2587V75.724H39.3447C39.0747 76.57 38.6427 77.326 38.0127 77.992C37.0587 79 35.7987 79.738 34.2327 80.188L35.6367 81.988C37.0767 81.52 38.6787 80.548 39.9027 79.252L40.2267 78.892C40.6407 79.342 41.1267 79.738 41.6487 80.08C42.6027 80.692 43.6287 81.106 44.7267 81.304L45.9687 79.396ZM44.4567 78.388H47.2647V82.06H49.6767V73.258H47.2647V76.444H44.4567V78.388ZM44.1687 87.874C42.3687 87.874 41.3787 87.082 41.3787 85.876C41.3787 84.67 42.3687 83.878 44.1687 83.878C45.9687 83.878 46.9587 84.67 46.9587 85.876C46.9587 87.082 45.9687 87.874 44.1687 87.874ZM63.3268 73.726V76.552H55.7668V73.726H53.3548V83.41H58.3228V86.146H51.6268V88.198H67.4668V86.146H60.7708V83.41H65.7388V73.726H63.3268ZM55.7668 81.34V78.568H63.3268V81.34H55.7668ZM83.1868 89.278V87.532H72.6568V86.902H82.8088V82.978H70.2448V84.706H80.3968V85.318H70.2448V89.278H83.1868ZM83.0068 79.774V78.028H72.7468V77.38H82.7368V73.438H70.3348V75.166H80.3248V75.796H70.3348V79.774H83.0068ZM84.4648 82.204V80.476H68.6248V82.204H84.4648ZM102.581 75.382H91.6371V77.218H93.7251C93.1311 77.488 92.7891 78.028 92.7891 78.73C92.7891 80.062 93.9051 80.962 95.4351 81.358C95.5971 81.394 95.7771 81.43 95.9391 81.448V82.15L91.3311 82.204V84.076L102.851 83.896V82.06L98.3871 82.114V81.43L98.7651 81.358C100.331 80.962 101.429 80.062 101.429 78.73C101.429 78.028 101.087 77.488 100.493 77.218H102.581V75.382ZM105.875 89.458V84.778H93.0051V86.722H103.463V89.458H105.875ZM105.911 84.238V80.008H107.711V77.92H105.911V73.258H103.499V84.238H105.911ZM93.9951 72.898V74.734H100.223V72.898H93.9951ZM97.1091 77.218C98.3331 77.218 99.0171 77.686 99.0171 78.46C99.0171 79.234 98.3331 79.702 97.1091 79.702C95.8851 79.702 95.2011 79.234 95.2011 78.46C95.2011 77.686 95.8851 77.218 97.1091 77.218ZM113.765 73.096C111.083 73.096 108.941 75.022 108.941 77.722C108.941 80.422 111.083 82.348 113.765 82.348C116.447 82.348 118.589 80.422 118.589 77.722C118.589 75.022 116.447 73.096 113.765 73.096ZM113.765 80.296C112.271 80.296 111.353 79.252 111.353 77.722C111.353 76.192 112.271 75.148 113.765 75.148C115.259 75.148 116.177 76.192 116.177 77.722C116.177 79.252 115.259 80.296 113.765 80.296ZM123.395 85.084V73.258H120.983V85.084H123.395ZM111.029 83.698V89.206H123.845V87.154H113.441V83.698H111.029ZM133.769 75.274V73.222H128.189V75.274H133.769ZM136.109 78.172V76.12H125.777V78.172H136.109ZM130.943 78.622C128.081 78.622 126.371 80.53 126.371 82.924C126.371 85.318 128.081 87.226 130.943 87.226C133.805 87.226 135.515 85.318 135.515 82.924C135.515 80.53 133.805 78.622 130.943 78.622ZM130.943 85.21C129.485 85.21 128.783 84.274 128.783 82.924C128.783 81.574 129.485 80.638 130.943 80.638C132.401 80.638 133.103 81.574 133.103 82.924C133.103 84.274 132.401 85.21 130.943 85.21ZM139.619 89.386V81.808H141.905V79.72H139.619V73.258H137.207V89.386H139.619ZM151.775 85.102C150.785 84.238 149.939 83.266 149.273 82.186C148.751 81.34 148.301 80.404 147.959 79.378C148.391 77.704 148.625 75.868 148.679 73.834H146.267C146.195 79.036 144.719 82.996 141.857 85.714L143.603 87.136C144.989 85.714 146.123 84.04 146.987 82.114C147.221 82.6 147.455 83.05 147.707 83.5C148.391 84.67 149.237 85.732 150.227 86.722L151.775 85.102ZM149.921 80.458H152.423V88.972H154.763V73.438H152.423V78.406H149.921V80.458ZM158.093 89.368V73.258H155.717V89.368H158.093ZM167.405 73.186C163.859 73.186 161.447 75.58 161.447 78.28C161.447 80.98 163.859 83.374 167.405 83.374C171.005 83.374 173.399 80.98 173.399 78.28C173.399 75.58 171.005 73.186 167.405 73.186ZM175.361 88.198V86.146H172.265V83.428H169.853V86.146H165.083V83.428H162.671V86.146H159.521V88.198H175.361ZM167.423 81.322C165.191 81.322 163.859 79.918 163.859 78.28C163.859 76.66 165.191 75.238 167.423 75.238C169.655 75.238 170.987 76.66 170.987 78.28C170.987 79.918 169.655 81.322 167.423 81.322Z" fill="#242D3C"/>
<path d="M60.3074 3.368C59.5664 2.445 58.5004 1.873 57.1614 1.873C55.2634 1.873 54.0414 3.017 54.0414 4.512C54.0414 5.656 54.6264 6.592 56.3034 7.294L57.6034 7.84C58.7994 8.334 58.8904 8.867 58.8904 9.309C58.8904 10.193 58.2274 10.791 57.1744 10.791C56.0824 10.791 55.1204 10.024 54.6134 8.932L53.5214 9.985C54.0414 10.973 55.3934 12.247 57.1744 12.247C59.2284 12.247 60.6064 10.908 60.6064 9.309C60.6064 7.658 59.4494 7.008 58.1104 6.423L56.8364 5.864C56.0044 5.5 55.7574 5.097 55.7574 4.512C55.7574 3.875 56.2124 3.329 57.1614 3.329C57.9024 3.329 58.6564 3.706 59.2414 4.382L60.3074 3.368ZM65.6149 10.713C65.3029 10.778 64.9129 10.791 64.6919 10.791C64.0289 10.791 63.7429 10.336 63.7429 9.595V6.124H65.6149V4.72H63.7429V2.783H62.0789V4.72H60.8179V6.124H62.0789V9.595C62.0789 11.22 62.7809 12.195 64.6139 12.195C64.8609 12.195 65.1989 12.208 65.6149 12.117V10.713ZM71.7787 9.452C71.3627 10.232 70.5827 10.791 69.6987 10.791C68.6977 10.791 67.9567 9.972 67.8137 8.984H73.0917V8.191C73.0917 6.059 71.6227 4.525 69.5817 4.525C67.6317 4.525 66.0717 6.072 66.0717 8.36C66.0717 10.648 67.5407 12.195 69.6987 12.195C71.0507 12.195 72.2597 11.48 72.9877 10.375L71.7787 9.452ZM67.8007 7.606C68.0087 6.566 68.6977 5.929 69.5817 5.929C70.5307 5.929 71.1807 6.631 71.3757 7.606H67.8007ZM74.3963 4.72V14.6H76.0603V11.311C76.5283 11.87 77.3733 12.195 78.1533 12.195C80.3243 12.195 81.8973 10.648 81.8973 8.36C81.8973 6.072 80.3243 4.525 78.1533 4.525C77.3733 4.525 76.5803 4.811 76.0603 5.318V4.72H74.3963ZM76.0733 8.36C76.0733 6.826 76.9573 5.929 78.1533 5.929C79.3493 5.929 80.2333 6.917 80.2333 8.36C80.2333 9.803 79.3493 10.791 78.1533 10.791C76.9573 10.791 76.0733 9.894 76.0733 8.36ZM87.0571 3.55H91.9841L88.2011 12H89.9821L93.9471 3.095V2.12H87.0571V3.55ZM102.707 4.525C100.614 4.525 99.0668 6.072 99.0668 8.36C99.0668 10.648 100.614 12.195 102.707 12.195C104.774 12.195 106.347 10.648 106.347 8.36C106.347 6.072 104.774 4.525 102.707 4.525ZM102.707 10.791C101.615 10.791 100.731 9.803 100.731 8.36C100.731 6.917 101.615 5.929 102.707 5.929C103.799 5.929 104.683 6.917 104.683 8.36C104.683 9.803 103.799 10.791 102.707 10.791ZM111.61 1.977C111.285 1.912 110.947 1.873 110.609 1.873C108.672 1.873 108.074 2.926 108.074 4.473V4.72H106.8V6.124H108.074V12H109.738V6.124H111.61V4.72H109.738V4.473C109.738 3.693 109.816 3.264 110.687 3.264C111.116 3.264 111.415 3.303 111.61 3.355V1.977ZM116.332 3.55H121.259L117.476 12H119.257L123.222 3.095V2.12H116.332V3.55Z" fill="#999999"/>
</svg>
