<svg width="176" height="118" viewBox="0 0 176 118" fill="none" xmlns="http://www.w3.org/2000/svg">
<path d="M20.6598 54.132V45.258H18.2478V54.132H20.6598ZM8.27582 54.852V61.278H20.6238V54.852H8.27582ZM10.6878 56.868H18.2118V59.226H10.6878V56.868ZM6.94382 47.796H13.0638C12.4878 50.028 9.76982 51.792 5.88182 52.566L7.01582 54.438C11.3538 53.52 15.7458 50.82 15.6918 45.78H6.94382V47.796ZM37.0819 49.2H26.9299V47.49H36.9019V45.51H24.5179V51.198H29.5759V52.314H22.7899V54.294H38.6299V52.314H32.0239V51.198H37.0819V49.2ZM30.7819 54.834C27.6319 54.834 25.3999 56.292 25.3999 58.524C25.3999 60.756 27.6319 62.214 30.7819 62.214C33.9319 62.214 36.1639 60.756 36.1639 58.524C36.1639 56.292 33.9319 54.834 30.7819 54.834ZM30.7819 60.27C28.8379 60.27 27.8119 59.586 27.8119 58.524C27.8119 57.462 28.8379 56.778 30.7819 56.778C32.7259 56.778 33.7519 57.462 33.7519 58.524C33.7519 59.586 32.7259 60.27 30.7819 60.27ZM45.5119 49.542C42.7219 49.542 41.0299 50.748 41.0299 52.53C41.0299 54.312 42.7219 55.518 45.5119 55.518C48.2839 55.518 49.9939 54.312 49.9939 52.53C49.9939 50.748 48.2839 49.542 45.5119 49.542ZM50.4439 51.594H52.6039V52.692H50.4439V54.672H52.6039V57.408H55.0159V45.258H52.6039V49.614H50.4439V51.594ZM42.6499 56.382V61.206H55.4659V59.154H45.0619V56.382H42.6499ZM50.8399 49.164V47.328H40.0399V49.164H50.8399ZM48.4999 46.716V44.88H42.3799V46.716H48.4999ZM45.5119 53.754C44.0719 53.754 43.4059 53.268 43.4059 52.53C43.4059 51.792 44.0719 51.306 45.5119 51.306C46.9519 51.306 47.6179 51.792 47.6179 52.53C47.6179 53.268 46.9519 53.754 45.5119 53.754ZM59.324 53.07C59.324 49.704 60.584 46.824 62.402 45.15L61.322 43.62C58.694 45.546 56.984 49.11 56.984 53.07C56.984 57.03 58.676 60.594 61.322 62.52L62.402 60.99C60.566 59.352 59.324 56.418 59.324 53.07ZM72.1689 60.972H74.5089V53.016H75.9129V61.368H78.2889V45.258H75.9129V50.928H74.5089V45.438H72.1689V60.972ZM64.0509 46.014V58.542L71.4489 58.11V56.094L66.4269 56.31V48.066H70.7829V46.014H64.0509ZM89.617 53.898C86.593 53.898 84.415 55.536 84.415 57.876C84.415 60.234 86.593 61.854 89.617 61.854C92.641 61.854 94.819 60.234 94.819 57.876C94.819 55.536 92.641 53.898 89.617 53.898ZM91.381 51.432C89.689 50.964 88.177 50.208 87.097 48.948L86.773 48.516C86.791 48.498 86.791 48.462 86.809 48.426C87.187 47.526 87.385 46.554 87.403 45.51H84.955C84.793 48.804 82.831 51.054 79.681 52.134L81.157 53.898C82.651 53.34 84.199 52.296 85.369 50.856C85.495 50.712 85.603 50.55 85.729 50.388L85.747 50.424C86.935 51.828 88.501 52.836 90.067 53.304L91.381 51.432ZM89.365 49.596H92.713V54.06H95.125V45.258H92.713V47.652H89.365V49.596ZM89.617 59.874C87.817 59.874 86.827 59.082 86.827 57.876C86.827 56.67 87.817 55.878 89.617 55.878C91.417 55.878 92.407 56.67 92.407 57.876C92.407 59.082 91.417 59.874 89.617 59.874ZM111.637 61.278V59.46H101.107V58.758H111.259V54.618H106.219V53.61H112.915V51.702H97.075V53.61H103.771V54.618H98.695V56.418H108.847V57.102H98.695V61.278H111.637ZM111.187 50.946V45.51H98.803V50.946H111.187ZM101.215 47.418H108.775V49.038H101.215V47.418ZM128.455 53.826V51.792H118.195V50.676H128.185V45.69H115.783V47.706H125.791V48.732H115.783V53.826H128.455ZM120.139 61.206V56.958H123.847V61.386H126.259V56.958H129.913V54.942H114.073V56.958H117.727V61.206H120.139ZM133.537 53.07C133.537 56.418 132.295 59.352 130.459 60.99L131.539 62.52C134.185 60.594 135.877 57.03 135.877 53.07C135.877 49.11 134.167 45.546 131.539 43.62L130.459 45.15C132.277 46.824 133.537 49.704 133.537 53.07ZM138.372 45.6V53.448L149.1 52.962V50.946L140.784 51.216V45.6H138.372ZM152.232 54.132V45.258H149.82V54.132H152.232ZM139.848 54.852V61.278H152.196V54.852H139.848ZM142.26 56.868H149.784V59.226H142.26V56.868ZM169.464 61.386V45.258H167.052V61.386H169.464ZM166.512 58.938V56.922L154.632 57.066V59.118L166.512 58.938ZM160.446 45.618C157.476 45.618 155.442 47.886 155.442 50.334C155.442 52.782 157.476 55.05 160.446 55.05C163.416 55.05 165.45 52.782 165.45 50.334C165.45 47.886 163.416 45.618 160.446 45.618ZM160.446 52.998C158.862 52.998 157.854 51.702 157.854 50.334C157.854 48.966 158.862 47.67 160.446 47.67C162.03 47.67 163.038 48.966 163.038 50.334C163.038 51.702 162.03 52.998 160.446 52.998ZM2.10864 81.88C3.90864 81.736 5.96064 81.286 7.56264 80.422C7.90464 80.242 8.22864 80.044 8.49864 79.828C8.73264 80.062 9.00264 80.26 9.30864 80.44C10.8566 81.376 12.8726 81.79 14.8166 81.826L16.0406 79.918C13.8986 79.774 11.9546 79.576 10.5506 78.784C10.3166 78.64 10.0826 78.478 9.88464 78.298L10.0106 78.064L10.0466 77.992H14.9966V75.976H2.10864V77.992H7.27464L7.25664 78.01C6.01464 79.288 3.60264 79.666 0.866641 79.954L2.10864 81.88ZM9.77664 89.386V84.778H16.4726V82.762H0.632641V84.778H7.32864V89.386H9.77664ZM4.88064 73.078V75.094H12.2246V73.078H4.88064ZM31.5447 89.386V81.268H33.8307V79.18H31.5447V73.258H29.1327V89.386H31.5447ZM18.4227 75.958H24.7227C24.3807 79.648 21.8787 83.356 17.6847 85.372L19.2327 87.082C23.7327 84.67 27.3327 80.17 27.2787 73.906H18.4227V75.958ZM44.1687 81.898C41.1447 81.898 38.9667 83.536 38.9667 85.876C38.9667 88.234 41.1447 89.854 44.1687 89.854C47.1927 89.854 49.3707 88.234 49.3707 85.876C49.3707 83.536 47.1927 81.898 44.1687 81.898ZM45.9687 79.396C44.1687 79.072 42.7287 78.532 41.6667 77.506C41.5587 77.398 41.4507 77.272 41.3607 77.146C41.5047 76.84 41.6307 76.498 41.7387 76.156C41.7927 76.012 41.8287 75.868 41.8647 75.724H45.3207V73.78H35.2587V75.724H39.3447C39.0747 76.57 38.6427 77.326 38.0127 77.992C37.0587 79 35.7987 79.738 34.2327 80.188L35.6367 81.988C37.0767 81.52 38.6787 80.548 39.9027 79.252L40.2267 78.892C40.6407 79.342 41.1267 79.738 41.6487 80.08C42.6027 80.692 43.6287 81.106 44.7267 81.304L45.9687 79.396ZM44.4567 78.388H47.2647V82.06H49.6767V73.258H47.2647V76.444H44.4567V78.388ZM44.1687 87.874C42.3687 87.874 41.3787 87.082 41.3787 85.876C41.3787 84.67 42.3687 83.878 44.1687 83.878C45.9687 83.878 46.9587 84.67 46.9587 85.876C46.9587 87.082 45.9687 87.874 44.1687 87.874ZM63.3268 73.726V76.552H55.7668V73.726H53.3548V83.41H58.3228V86.146H51.6268V88.198H67.4668V86.146H60.7708V83.41H65.7388V73.726H63.3268ZM55.7668 81.34V78.568H63.3268V81.34H55.7668ZM83.1868 89.278V87.532H72.6568V86.902H82.8088V82.978H70.2448V84.706H80.3968V85.318H70.2448V89.278H83.1868ZM83.0068 79.774V78.028H72.7468V77.38H82.7368V73.438H70.3348V75.166H80.3248V75.796H70.3348V79.774H83.0068ZM84.4648 82.204V80.476H68.6248V82.204H84.4648ZM96.7671 73.024C94.1031 73.024 92.0151 74.824 92.0151 77.344C92.0151 79.864 94.1031 81.664 96.7671 81.664C99.4311 81.664 101.519 79.864 101.519 77.344C101.519 74.824 99.4311 73.024 96.7671 73.024ZM96.7671 79.684C95.3271 79.684 94.4271 78.73 94.4271 77.344C94.4271 75.958 95.3271 75.004 96.7671 75.004C98.2071 75.004 99.1071 75.958 99.1071 77.344C99.1071 78.73 98.2071 79.684 96.7671 79.684ZM106.397 81.61V73.258H103.985V81.61H106.397ZM103.949 87.262H96.4251V85.84H103.949V87.262ZM106.361 89.278V82.33H103.949V83.932H96.4251V82.33H94.0131V89.278H106.361ZM119.633 82.546V80.566L111.947 80.836V79.18H117.743V73.672H109.535V75.688H115.331V77.2H109.535V83.032L119.633 82.546ZM123.359 89.458V83.752H110.471V85.732H120.947V89.458H123.359ZM118.481 76.876H120.983V77.92H118.481V79.936H120.983V83.032H123.395V73.258H120.983V74.86H118.481V76.876ZM133.769 75.274V73.222H128.189V75.274H133.769ZM136.109 78.172V76.12H125.777V78.172H136.109ZM130.943 78.622C128.081 78.622 126.371 80.53 126.371 82.924C126.371 85.318 128.081 87.226 130.943 87.226C133.805 87.226 135.515 85.318 135.515 82.924C135.515 80.53 133.805 78.622 130.943 78.622ZM130.943 85.21C129.485 85.21 128.783 84.274 128.783 82.924C128.783 81.574 129.485 80.638 130.943 80.638C132.401 80.638 133.103 81.574 133.103 82.924C133.103 84.274 132.401 85.21 130.943 85.21ZM139.619 89.386V81.808H141.905V79.72H139.619V73.258H137.207V89.386H139.619ZM151.775 85.102C150.785 84.238 149.939 83.266 149.273 82.186C148.751 81.34 148.301 80.404 147.959 79.378C148.391 77.704 148.625 75.868 148.679 73.834H146.267C146.195 79.036 144.719 82.996 141.857 85.714L143.603 87.136C144.989 85.714 146.123 84.04 146.987 82.114C147.221 82.6 147.455 83.05 147.707 83.5C148.391 84.67 149.237 85.732 150.227 86.722L151.775 85.102ZM149.921 80.458H152.423V88.972H154.763V73.438H152.423V78.406H149.921V80.458ZM158.093 89.368V73.258H155.717V89.368H158.093ZM167.405 73.186C163.859 73.186 161.447 75.58 161.447 78.28C161.447 80.98 163.859 83.374 167.405 83.374C171.005 83.374 173.399 80.98 173.399 78.28C173.399 75.58 171.005 73.186 167.405 73.186ZM175.361 88.198V86.146H172.265V83.428H169.853V86.146H165.083V83.428H162.671V86.146H159.521V88.198H175.361ZM167.423 81.322C165.191 81.322 163.859 79.918 163.859 78.28C163.859 76.66 165.191 75.238 167.423 75.238C169.655 75.238 170.987 76.66 170.987 78.28C170.987 79.918 169.655 81.322 167.423 81.322Z" fill="#242D3C"/>
<path d="M59.376 112.23L59.976 111.84L59.006 110.54L60.386 110.17L60.186 109.49L58.836 109.95L58.896 108.45H58.096L58.156 109.95L56.806 109.49L56.606 110.17L57.986 110.54L57.016 111.84L57.616 112.23L58.496 110.94L59.376 112.23Z" fill="#D7191F"/>
<path d="M71.4499 107.85H70.9699V112.48H71.4499V107.85ZM71.4299 115.01V113.04H64.9899V113.43H70.9499V114.63H64.9899V116.67H71.6299V116.27H65.4699V115.01H71.4299ZM63.7499 112.14L70.2199 111.89V111.51L68.4699 111.57L68.5999 108.55H69.5699V108.16H64.0199V108.55H65.1099L65.2499 111.68L63.7499 111.73V112.14ZM65.5799 108.55H68.1299L67.9999 111.59L65.7099 111.67L65.5799 108.55ZM77.5733 116.73V113.41H81.7133V113.01H72.9533V113.41H77.0933V116.73H77.5733ZM81.2733 111.49C80.4433 111.3 79.7033 111 79.0433 110.59C78.3933 110.19 77.8833 109.71 77.5133 109.16C77.6933 108.8 77.8033 108.41 77.8533 108H77.3733C77.1033 109.86 75.2333 111.17 73.2633 111.49L73.5133 111.86C74.4833 111.69 75.5333 111.23 76.3433 110.58C76.7233 110.27 77.0433 109.91 77.3133 109.5C77.5033 109.77 77.7233 110.03 77.9633 110.26C78.8033 111.06 79.8833 111.61 81.0233 111.87L81.2733 111.49ZM89.8566 112.53H90.3366V107.85H89.8566V112.53ZM89.8366 113.09V114.23H84.3566V113.09H83.8766V116.67H90.3166V113.09H89.8366ZM84.3566 116.27V114.62H89.8366V116.27H84.3566ZM85.2766 107.78C83.7966 107.78 82.7666 108.83 82.7666 110.07C82.7666 111.31 83.7966 112.36 85.2766 112.36C86.7566 112.36 87.7866 111.31 87.7866 110.07C87.7866 108.83 86.7566 107.78 85.2766 107.78ZM85.2766 111.96C84.0166 111.96 83.2466 111.11 83.2466 110.07C83.2466 109.03 84.0166 108.18 85.2766 108.18C86.5266 108.18 87.3066 109.03 87.3066 110.07C87.3066 111.11 86.5266 111.96 85.2766 111.96ZM92.98 112.63V110.72H96.7V108.08H92.5V108.48H96.22V110.33H92.5V113.07L98.16 112.81V112.42L92.98 112.63ZM99.3 113.42H99.78V107.85H99.3V109.08H97.38V109.48H99.3V110.98H97.38V111.38H99.3V113.42ZM99.76 116.77V114.02H93.02V114.41H99.28V116.77H99.76ZM107.383 114.68C106.283 114 105.413 113.05 104.793 112.05C104.603 111.76 104.443 111.46 104.313 111.16C104.383 110.95 104.433 110.74 104.483 110.52C104.653 109.8 104.753 109.01 104.763 108.15H104.263C104.183 111.36 103.033 113.66 101.043 115.03L101.363 115.37C102.363 114.64 103.193 113.69 103.783 112.5C103.913 112.25 104.023 111.99 104.123 111.72C104.413 112.31 104.773 112.87 105.213 113.4C105.753 114.04 106.373 114.6 107.063 115.08L107.383 114.68ZM108.773 116.73V111.76H110.323V111.36H108.773V107.85H108.293V116.73H108.773ZM115.807 116.91C117.517 116.91 118.567 116.07 118.567 115.05C118.567 114.03 117.517 113.19 115.807 113.19C114.097 113.19 113.047 114.03 113.047 115.05C113.047 116.07 114.097 116.91 115.807 116.91ZM113.867 109.77C112.487 109.77 111.477 110.38 111.477 111.26C111.477 112.14 112.487 112.75 113.867 112.75C115.247 112.75 116.257 112.14 116.257 111.26C116.257 110.38 115.247 109.77 113.867 109.77ZM115.807 116.53C114.367 116.53 113.527 115.85 113.527 115.05C113.527 114.25 114.367 113.57 115.807 113.57C117.247 113.57 118.087 114.25 118.087 115.05C118.087 115.85 117.247 116.53 115.807 116.53ZM113.867 112.37C112.767 112.37 111.947 111.96 111.947 111.26C111.947 110.57 112.767 110.15 113.867 110.15C114.967 110.15 115.787 110.57 115.787 111.26C115.787 111.96 114.967 112.37 113.867 112.37ZM119.757 110.21H118.447V107.85H117.967V113.19H118.447V110.61H119.757V110.21ZM116.727 109.31V108.93H110.847V109.31H116.727ZM115.427 108.2V107.82H112.147V108.2H115.427Z" fill="#242D3C"/>
<path d="M60.3074 3.368C59.5664 2.445 58.5004 1.873 57.1614 1.873C55.2634 1.873 54.0414 3.017 54.0414 4.512C54.0414 5.656 54.6264 6.592 56.3034 7.294L57.6034 7.84C58.7994 8.334 58.8904 8.867 58.8904 9.309C58.8904 10.193 58.2274 10.791 57.1744 10.791C56.0824 10.791 55.1204 10.024 54.6134 8.932L53.5214 9.985C54.0414 10.973 55.3934 12.247 57.1744 12.247C59.2284 12.247 60.6064 10.908 60.6064 9.309C60.6064 7.658 59.4494 7.008 58.1104 6.423L56.8364 5.864C56.0044 5.5 55.7574 5.097 55.7574 4.512C55.7574 3.875 56.2124 3.329 57.1614 3.329C57.9024 3.329 58.6564 3.706 59.2414 4.382L60.3074 3.368ZM65.6149 10.713C65.3029 10.778 64.9129 10.791 64.6919 10.791C64.0289 10.791 63.7429 10.336 63.7429 9.595V6.124H65.6149V4.72H63.7429V2.783H62.0789V4.72H60.8179V6.124H62.0789V9.595C62.0789 11.22 62.7809 12.195 64.6139 12.195C64.8609 12.195 65.1989 12.208 65.6149 12.117V10.713ZM71.7787 9.452C71.3627 10.232 70.5827 10.791 69.6987 10.791C68.6977 10.791 67.9567 9.972 67.8137 8.984H73.0917V8.191C73.0917 6.059 71.6227 4.525 69.5817 4.525C67.6317 4.525 66.0717 6.072 66.0717 8.36C66.0717 10.648 67.5407 12.195 69.6987 12.195C71.0507 12.195 72.2597 11.48 72.9877 10.375L71.7787 9.452ZM67.8007 7.606C68.0087 6.566 68.6977 5.929 69.5817 5.929C70.5307 5.929 71.1807 6.631 71.3757 7.606H67.8007ZM74.3963 4.72V14.6H76.0603V11.311C76.5283 11.87 77.3733 12.195 78.1533 12.195C80.3243 12.195 81.8973 10.648 81.8973 8.36C81.8973 6.072 80.3243 4.525 78.1533 4.525C77.3733 4.525 76.5803 4.811 76.0603 5.318V4.72H74.3963ZM76.0733 8.36C76.0733 6.826 76.9573 5.929 78.1533 5.929C79.3493 5.929 80.2333 6.917 80.2333 8.36C80.2333 9.803 79.3493 10.791 78.1533 10.791C76.9573 10.791 76.0733 9.894 76.0733 8.36ZM90.3851 10.817C89.3451 10.817 88.4611 10.102 87.9281 9.023L86.7061 9.92C87.3951 11.272 88.7861 12.247 90.3851 12.247C92.7251 12.247 94.1161 10.791 94.1161 8.958C94.1161 7.411 93.1021 6.007 91.1781 5.799L93.7911 3.251V2.133H87.2651V3.563H91.3471L88.4871 6.436L89.1241 7.58C89.3321 7.424 89.8391 7.151 90.3461 7.151C91.6331 7.151 92.4261 7.931 92.4261 8.958C92.4261 9.998 91.7111 10.817 90.3851 10.817ZM102.707 4.525C100.614 4.525 99.0668 6.072 99.0668 8.36C99.0668 10.648 100.614 12.195 102.707 12.195C104.774 12.195 106.347 10.648 106.347 8.36C106.347 6.072 104.774 4.525 102.707 4.525ZM102.707 10.791C101.615 10.791 100.731 9.803 100.731 8.36C100.731 6.917 101.615 5.929 102.707 5.929C103.799 5.929 104.683 6.917 104.683 8.36C104.683 9.803 103.799 10.791 102.707 10.791ZM111.61 1.977C111.285 1.912 110.947 1.873 110.609 1.873C108.672 1.873 108.074 2.926 108.074 4.473V4.72H106.8V6.124H108.074V12H109.738V6.124H111.61V4.72H109.738V4.473C109.738 3.693 109.816 3.264 110.687 3.264C111.116 3.264 111.415 3.303 111.61 3.355V1.977ZM116.332 3.55H121.259L117.476 12H119.257L123.222 3.095V2.12H116.332V3.55Z" fill="#999999"/>
</svg>
