<svg width="58" height="15" viewBox="0 0 58 15" fill="none" xmlns="http://www.w3.org/2000/svg">
<path d="M2.26 12.46C3.685 11.575 4.975 10.42 5.89 8.965L5.92 8.92C6.235 9.385 6.58 9.835 6.97 10.24C7.75 11.065 8.665 11.725 9.565 12.145L10.75 10.645C9.685 10.18 8.8 9.595 8.065 8.875C7.57 8.38 7.135 7.795 6.79 7.12C6.865 6.925 6.925 6.745 6.97 6.55C7.105 6.1 7.21 5.635 7.27 5.14H10.21V3.43H1.93V5.14H5.215C5.17 5.455 5.095 5.77 5.02 6.055C4.42 8.26 3.01 9.865 0.94 11.035L2.26 12.46ZM13.225 14.155V7.54H15.13V5.8H13.225V0.714999H11.215V14.155H13.225ZM8.515 2.395V0.684999H3.7V2.395H8.515ZM23.175 8.215C20.655 8.215 18.84 9.505 18.84 11.38C18.84 13.255 20.655 14.545 23.175 14.545C25.695 14.545 27.51 13.255 27.51 11.38C27.51 9.505 25.695 8.215 23.175 8.215ZM24.945 7.525V5.935L18.255 6.16V5.14H23.685V1.06H16.245V2.68H21.675V3.58H16.245V7.93L24.945 7.525ZM27.555 0.714999H25.545V8.35H27.555V6.61H29.145V4.93H27.555V3.76H29.145V2.08H27.555V0.714999ZM23.175 12.925C21.675 12.925 20.85 12.325 20.85 11.38C20.85 10.435 21.675 9.835 23.175 9.835C24.675 9.835 25.5 10.435 25.5 11.38C25.5 12.325 24.675 12.925 23.175 12.925ZM37.7601 7.915C35.2401 7.915 33.4251 9.28 33.4251 11.23C33.4251 13.195 35.2401 14.545 37.7601 14.545C40.2801 14.545 42.0951 13.195 42.0951 11.23C42.0951 9.28 40.2801 7.915 37.7601 7.915ZM39.2601 5.83C37.7601 5.56 36.5601 5.11 35.6751 4.255C35.5851 4.165 35.4951 4.06 35.4201 3.955C35.5401 3.7 35.6451 3.415 35.7351 3.13C35.7801 3.01 35.8101 2.89 35.8401 2.77H38.7201V1.15H30.3351V2.77H33.7401C33.5151 3.475 33.1551 4.105 32.6301 4.66C31.8351 5.5 30.7851 6.115 29.4801 6.49L30.6501 7.99C31.8501 7.6 33.1851 6.79 34.2051 5.71L34.4751 5.41C34.8201 5.785 35.2251 6.115 35.6601 6.4C36.4551 6.91 37.3101 7.255 38.2251 7.42L39.2601 5.83ZM38.0001 4.99H40.3401V8.05H42.3501V0.714999H40.3401V3.37H38.0001V4.99ZM37.7601 12.895C36.2601 12.895 35.4351 12.235 35.4351 11.23C35.4351 10.225 36.2601 9.565 37.7601 9.565C39.2601 9.565 40.0851 10.225 40.0851 11.23C40.0851 12.235 39.2601 12.895 37.7601 12.895ZM53.7251 1.105V3.46H47.4251V1.105H45.4151V9.175H49.5551V11.455H43.9751V13.165H57.1751V11.455H51.5951V9.175H55.7351V1.105H53.7251ZM47.4251 7.45V5.14H53.7251V7.45H47.4251Z" fill="#242D3C"/>
</svg>
