<svg width="56" height="15" viewBox="0 0 56 15" fill="none" xmlns="http://www.w3.org/2000/svg">
<path d="M7.055 13.81H9.005V7.18H10.175V14.14H12.155V0.714999H10.175V5.44H9.005V0.865H7.055V13.81ZM0.29 1.345V11.785L6.455 11.425V9.745L2.27 9.925V3.055H5.9V1.345H0.29ZM26.845 8.125V6.685H13.645V8.125H19.225V8.815H14.995V10.255H23.455V10.765H14.995V14.065H25.78V12.61H17.005V12.085H25.465V8.815H21.265V8.125H26.845ZM14.905 6.355C16.405 6.295 18.07 6.04 19.42 5.47C19.69 5.35 19.945 5.215 20.185 5.08C20.44 5.245 20.71 5.395 21.01 5.53C22.3 6.085 23.95 6.31 25.51 6.25L26.38 4.78C24.58 4.75 23.035 4.66 21.865 4.18L21.4 3.955C21.415 3.91 21.445 3.88 21.475 3.835H25.51V2.335H14.92V3.835H19.015C18.745 4.03 18.415 4.18 18.025 4.3C17.02 4.615 15.655 4.765 14.095 4.84L14.905 6.355ZM23.155 0.414999H17.275V1.915H23.155V0.414999ZM35.7601 7.915C33.2401 7.915 31.4251 9.28 31.4251 11.23C31.4251 13.195 33.2401 14.545 35.7601 14.545C38.2801 14.545 40.0951 13.195 40.0951 11.23C40.0951 9.28 38.2801 7.915 35.7601 7.915ZM37.2601 5.83C35.7601 5.56 34.5601 5.11 33.6751 4.255C33.5851 4.165 33.4951 4.06 33.4201 3.955C33.5401 3.7 33.6451 3.415 33.7351 3.13C33.7801 3.01 33.8101 2.89 33.8401 2.77H36.7201V1.15H28.3351V2.77H31.7401C31.5151 3.475 31.1551 4.105 30.6301 4.66C29.8351 5.5 28.7851 6.115 27.4801 6.49L28.6501 7.99C29.8501 7.6 31.1851 6.79 32.2051 5.71L32.4751 5.41C32.8201 5.785 33.2251 6.115 33.6601 6.4C34.4551 6.91 35.3101 7.255 36.2251 7.42L37.2601 5.83ZM36.0001 4.99H38.3401V8.05H40.3501V0.714999H38.3401V3.37H36.0001V4.99ZM35.7601 12.895C34.2601 12.895 33.4351 12.235 33.4351 11.23C33.4351 10.225 34.2601 9.565 35.7601 9.565C37.2601 9.565 38.0851 10.225 38.0851 11.23C38.0851 12.235 37.2601 12.895 35.7601 12.895ZM51.7251 1.105V3.46H45.4251V1.105H43.4151V9.175H47.5551V11.455H41.9751V13.165H55.1751V11.455H49.5951V9.175H53.7351V1.105H51.7251ZM45.4251 7.45V5.14H51.7251V7.45H45.4251Z" fill="#242D3C"/>
</svg>
