<svg width="57" height="15" viewBox="0 0 57 15" fill="none" xmlns="http://www.w3.org/2000/svg">
<path d="M12.3 14.065V8.785H1.83V14.065H12.3ZM13.68 7.555V5.875H11.865C11.985 5.32 12.105 4.675 12.21 3.94C12.345 3.04 12.42 2.035 12.45 0.924999H1.695V2.605H10.38C10.35 3.325 10.23 4.3 10.02 5.29L9.885 5.875H0.48V7.555H13.68ZM3.84 10.435H10.29V12.385H3.84V10.435ZM24.38 11.56V9.88L17.555 10.165V7.27H22.595V1.15H15.545V2.86H20.585V5.575H15.545V12.025L24.38 11.56ZM26.99 14.155V0.714999H24.98V14.155H26.99ZM36.7601 7.915C34.2401 7.915 32.4251 9.28 32.4251 11.23C32.4251 13.195 34.2401 14.545 36.7601 14.545C39.2801 14.545 41.0951 13.195 41.0951 11.23C41.0951 9.28 39.2801 7.915 36.7601 7.915ZM38.2601 5.83C36.7601 5.56 35.5601 5.11 34.6751 4.255C34.5851 4.165 34.4951 4.06 34.4201 3.955C34.5401 3.7 34.6451 3.415 34.7351 3.13C34.7801 3.01 34.8101 2.89 34.8401 2.77H37.7201V1.15H29.3351V2.77H32.7401C32.5151 3.475 32.1551 4.105 31.6301 4.66C30.8351 5.5 29.7851 6.115 28.4801 6.49L29.6501 7.99C30.8501 7.6 32.1851 6.79 33.2051 5.71L33.4751 5.41C33.8201 5.785 34.2251 6.115 34.6601 6.4C35.4551 6.91 36.3101 7.255 37.2251 7.42L38.2601 5.83ZM37.0001 4.99H39.3401V8.05H41.3501V0.714999H39.3401V3.37H37.0001V4.99ZM36.7601 12.895C35.2601 12.895 34.4351 12.235 34.4351 11.23C34.4351 10.225 35.2601 9.565 36.7601 9.565C38.2601 9.565 39.0851 10.225 39.0851 11.23C39.0851 12.235 38.2601 12.895 36.7601 12.895ZM52.7251 1.105V3.46H46.4251V1.105H44.4151V9.175H48.5551V11.455H42.9751V13.165H56.1751V11.455H50.5951V9.175H54.7351V1.105H52.7251ZM46.4251 7.45V5.14H52.7251V7.45H46.4251Z" fill="#242D3C"/>
</svg>
