<svg width="69" height="15" viewBox="0 0 69 15" fill="none" xmlns="http://www.w3.org/2000/svg">
<path d="M6.14 11.635V1.345H0.23V11.635H6.14ZM7.13 13.81H9.08V7.18H10.175V14.14H12.155V0.714999H10.175V5.44H9.08V0.865H7.13V13.81ZM2.21 3.055H4.16V9.925H2.21V3.055ZM20.305 11.635V1.345H14.395V11.635H20.305ZM21.295 13.81H23.245V7.18H24.34V14.14H26.32V0.714999H24.34V5.44H23.245V0.865H21.295V13.81ZM16.375 3.055H18.325V9.925H16.375V3.055ZM28.4101 3.04H32.2051C32.0401 5.875 30.4051 8.905 27.6151 10.96L29.0401 12.265C30.4951 11.08 31.8301 9.58 32.7751 7.765C33.1801 6.97 33.5251 6.13 33.7801 5.23H35.7151V7.72H33.6301V9.43H35.7151V13.81H37.6651V0.865H35.7151V3.52H34.1551C34.2601 2.815 34.3051 2.095 34.3051 1.33H28.4101V3.04ZM40.4851 14.14V0.714999H38.5051V14.14H40.4851ZM53.8551 14.215V9.16H43.2651V10.87H51.8451V14.215H53.8551ZM53.8851 8.56V6.91H55.4751V5.2H53.8851V3.76H55.4751V2.05H53.8851V0.714999H51.8751V8.56H53.8851ZM46.1001 0.579999C43.8651 0.579999 42.0801 2.14 42.0801 4.36C42.0801 6.58 43.8651 8.14 46.1001 8.14C48.3351 8.14 50.1201 6.58 50.1201 4.36C50.1201 2.14 48.3351 0.579999 46.1001 0.579999ZM46.1001 6.43C44.8551 6.43 44.0901 5.605 44.0901 4.36C44.0901 3.115 44.8551 2.29 46.1001 2.29C47.3451 2.29 48.1101 3.115 48.1101 4.36C48.1101 5.605 47.3451 6.43 46.1001 6.43ZM65.6502 10.495C64.6152 9.79 63.7302 9.01 63.0252 8.155C62.4702 7.48 61.9752 6.715 61.5552 5.875C62.0202 4.39 62.2452 2.8 62.2452 1.105H60.2052C60.2052 5.155 58.9302 8.485 55.7202 10.855L57.0702 12.25C58.6752 11.005 59.8902 9.55 60.7452 7.9C61.0752 8.44 61.4502 8.965 61.8552 9.475C62.6202 10.42 63.4602 11.23 64.4052 11.935L65.6502 10.495ZM63.8052 6.625H66.7752V14.155H68.7852V0.714999H66.7752V4.915H63.8052V6.625Z" fill="#242D3C"/>
</svg>
