<svg width="57" height="15" viewBox="0 0 57 15" fill="none" xmlns="http://www.w3.org/2000/svg">
<path d="M4.845 0.579999C2.61 0.579999 0.825 2.185 0.825 4.435C0.825 6.685 2.61 8.29 4.845 8.29C7.08 8.29 8.865 6.685 8.865 4.435C8.865 2.185 7.08 0.579999 4.845 0.579999ZM4.845 6.58C3.6 6.58 2.835 5.71 2.835 4.435C2.835 3.16 3.6 2.29 4.845 2.29C6.09 2.29 6.855 3.16 6.855 4.435C6.855 5.71 6.09 6.58 4.845 6.58ZM12.87 10.57V0.714999H10.86V10.57H12.87ZM2.565 9.415V14.005H13.245V12.295H4.575V9.415H2.565ZM22.265 14.155V9.745H27.845V8.035H14.645V9.745H20.225V14.155H22.265ZM27.485 5.38C25.565 5.05 23.9 4.465 22.73 3.415C22.565 3.265 22.4 3.1 22.25 2.935C22.535 2.335 22.7 1.66 22.73 0.909999H20.66C20.465 3.625 17.975 4.9 14.84 5.425L15.905 7C17.48 6.745 19.145 6.115 20.45 5.11C20.735 4.885 20.99 4.645 21.23 4.39L21.635 4.78C22.91 5.935 24.695 6.76 26.465 6.97L27.485 5.38ZM33.1751 0.52C30.9551 0.52 29.2151 1.96 29.2151 3.97C29.2151 5.98 30.9551 7.42 33.1751 7.42C35.3951 7.42 37.1351 5.98 37.1351 3.97C37.1351 1.96 35.3951 0.52 33.1751 0.52ZM33.1751 5.77C31.9751 5.77 31.2251 5.05 31.2251 3.97C31.2251 2.89 31.9751 2.17 33.1751 2.17C34.3751 2.17 35.1251 2.89 35.1251 3.97C35.1251 5.05 34.3751 5.77 33.1751 5.77ZM41.2001 7.48V0.714999H39.1901V7.48H41.2001ZM41.4701 14.065V12.43H32.8901V11.74H41.1701V7.93H30.8801V9.55H39.1601V10.21H30.8801V14.065H41.4701ZM43.6651 12.31C44.4751 11.695 45.1951 11.005 45.8401 10.225C46.3951 9.55 46.8901 8.83 47.2951 8.05L47.3851 8.215C48.3451 9.73 49.6801 11.125 51.0301 11.995L52.2451 10.525C50.3701 9.46 48.9901 7.975 48.1351 6.07C48.2701 5.635 48.3901 5.2 48.4951 4.735C48.6301 4.165 48.7201 3.58 48.7801 2.965H51.8101V1.255H43.2151V2.965H46.7251C46.6801 3.43 46.6051 3.895 46.5151 4.345C45.9751 7.12 44.6101 9.415 42.3151 10.915L43.6651 12.31ZM54.7201 14.155V7.24H56.6251V5.5H54.7201V0.714999H52.7101V14.155H54.7201Z" fill="#242D3C"/>
</svg>
