<svg width="85" height="24" viewBox="0 0 85 24" fill="none" xmlns="http://www.w3.org/2000/svg">
<path d="M32.592 18.864H34.672V11.792H35.92V19.216H38.032V4.896H35.92V9.936H34.672V5.056H32.592V18.864ZM25.376 5.568V16.704L31.952 16.32V14.528L27.488 14.72V7.392H31.36V5.568H25.376ZM53.7014 12.8V11.264H39.6214V12.8H45.5734V13.536H41.0614V15.072H50.0854V15.616H41.0614V19.136H52.5654V17.584H43.2054V17.024H52.2294V13.536H47.7494V12.8H53.7014ZM40.9654 10.912C42.5654 10.848 44.3414 10.576 45.7814 9.968C46.0694 9.84 46.3414 9.696 46.5974 9.552C46.8694 9.728 47.1574 9.888 47.4774 10.032C48.8534 10.624 50.6134 10.864 52.2774 10.8L53.2054 9.232C51.2854 9.2 49.6374 9.104 48.3894 8.592L47.8934 8.352C47.9094 8.304 47.9414 8.272 47.9734 8.224H52.2774V6.624H40.9814V8.224H45.3494C45.0614 8.432 44.7094 8.592 44.2934 8.72C43.2214 9.056 41.7654 9.216 40.1014 9.296L40.9654 10.912ZM49.7654 4.576H43.4934V6.176H49.7654V4.576ZM64.7788 11.536C63.7388 11.136 62.8268 10.592 62.0108 9.92C61.4508 9.456 61.0028 8.896 60.6348 8.24C60.6828 8.128 60.7148 8 60.7628 7.872C61.0668 6.992 61.2268 6.08 61.2428 5.12H59.0668C58.9388 8.144 57.4348 10.736 54.3788 12.048L55.7228 13.584C57.2428 12.864 58.6028 11.712 59.5788 10.256L59.7388 10.032C60.7628 11.44 62.1388 12.56 63.5788 13.168L64.7788 11.536ZM57.1148 14.176V19.072H68.5068V17.248H59.2588V14.176H57.1148ZM68.1068 15.408V4.896H65.9628V15.408H68.1068ZM70.8161 13.104C72.1601 12.768 73.5681 12.016 74.6401 10.992L74.9121 10.704L75.0401 10.816C76.1441 11.792 77.6641 12.4 78.9921 12.56L80.0481 10.848C78.5441 10.624 77.1681 10.224 76.1761 9.392L75.9521 9.168C76.0641 8.96 76.1441 8.736 76.2241 8.496H79.1201V10.16H81.0721V13.04H83.2161V4.896H81.0721V8.4H79.5041V6.8H70.5761V8.496H73.9201C73.6961 9.04 73.3601 9.504 72.9121 9.904C72.0961 10.608 71.0081 11.12 69.6161 11.456L70.8161 13.104ZM78.3201 12.896C75.6321 12.896 73.6961 14.272 73.6961 16.272C73.6961 18.272 75.6321 19.648 78.3201 19.648C81.0081 19.648 82.9441 18.272 82.9441 16.272C82.9441 14.272 81.0081 12.896 78.3201 12.896ZM78.3201 17.92C76.7201 17.92 75.8401 17.28 75.8401 16.272C75.8401 15.264 76.7201 14.624 78.3201 14.624C79.9201 14.624 80.8001 15.264 80.8001 16.272C80.8001 17.28 79.9201 17.92 78.3201 17.92ZM77.8081 6.256V4.56H72.4321V6.256H77.8081Z" fill="#242D3C"/>
<path d="M7 18L1 12L7 6" stroke="#242D3C" stroke-width="1.5" stroke-linecap="round" stroke-linejoin="round"/>
</svg>
