<svg width="24" height="24" viewBox="0 0 24 24" fill="none" xmlns="http://www.w3.org/2000/svg">
<path d="M2.75 19.7153V19.7143V9.42857C2.75 9.19533 2.80571 8.97616 2.92392 8.76051C3.04276 8.54372 3.20455 8.36621 3.41844 8.22242L3.41846 8.22245L3.42415 8.21855L10.9194 3.07891C11.0898 2.96618 11.2621 2.88512 11.4374 2.83171C11.614 2.77789 11.8005 2.75 12 2.75C12.1994 2.75 12.386 2.77789 12.5626 2.83171C12.7379 2.88512 12.9102 2.96618 13.0806 3.07891L20.5758 8.21855L20.5758 8.21858L20.5823 8.22294C20.7969 8.36681 20.9588 8.5442 21.0773 8.76051C21.1953 8.97566 21.2505 9.1942 21.25 9.42685V9.42857V19.7143C21.25 20.1193 21.1034 20.4607 20.7589 20.7756C20.4125 21.0923 20.007 21.2506 19.5008 21.25H19.5H15.25V14C15.25 13.5858 14.9142 13.25 14.5 13.25H9.5C9.08579 13.25 8.75 13.5858 8.75 14V21.25H4.5C3.99248 21.25 3.58628 21.0912 3.23983 20.7745C2.89539 20.4596 2.74947 20.1189 2.75 19.7153Z" stroke="#242D3C" stroke-width="1.5" stroke-linejoin="round"/>
</svg>
