<svg width="75" height="16" viewBox="0 0 75 16" fill="none" xmlns="http://www.w3.org/2000/svg">
<path d="M13.334 7.49668V13.7633C13.334 13.8159 13.3236 13.8679 13.3035 13.9164C13.2834 13.965 13.254 14.009 13.2168 14.0462C13.1797 14.0833 13.1356 14.1128 13.0871 14.1329C13.0385 14.153 12.9865 14.1633 12.934 14.1633H3.06732C3.01479 14.1633 2.96277 14.153 2.91424 14.1329C2.86571 14.1128 2.82162 14.0833 2.78447 14.0462C2.74733 14.009 2.71787 13.965 2.69777 13.9164C2.67766 13.8679 2.66732 13.8159 2.66732 13.7633V7.49668M8.00065 14.1633V4.16335M8.00065 4.16335H5.00065C4.55862 4.16335 4.1347 3.98776 3.82214 3.67519C3.50958 3.36263 3.33398 2.93871 3.33398 2.49668C3.33398 2.05466 3.50958 1.63073 3.82214 1.31817C4.1347 1.00561 4.55862 0.830017 5.00065 0.830017C7.33398 0.830017 8.00065 4.16335 8.00065 4.16335ZM8.00065 4.16335H11.0007C11.4427 4.16335 11.8666 3.98776 12.1792 3.67519C12.4917 3.36263 12.6673 2.93871 12.6673 2.49668C12.6673 2.05466 12.4917 1.63073 12.1792 1.31817C11.8666 1.00561 11.4427 0.830017 11.0007 0.830017C8.66732 0.830017 8.00065 4.16335 8.00065 4.16335ZM14.2673 4.16335H1.73398C1.6279 4.16335 1.52616 4.20549 1.45114 4.28051C1.37613 4.35552 1.33398 4.45726 1.33398 4.56335V7.09668C1.33398 7.20277 1.37613 7.30451 1.45114 7.37953C1.52616 7.45454 1.6279 7.49668 1.73398 7.49668H14.2673C14.3734 7.49668 14.4751 7.45454 14.5502 7.37953C14.6252 7.30451 14.6673 7.20277 14.6673 7.09668V4.56335C14.6673 4.45726 14.6252 4.35552 14.5502 4.28051C14.4751 4.20549 14.3734 4.16335 14.2673 4.16335Z" stroke="#666666" stroke-linecap="round" stroke-linejoin="round"/>
<path d="M31.324 7.428C29.98 7.036 28.762 6.42 27.894 5.496C27.768 5.356 27.656 5.202 27.544 5.048L27.67 4.74C27.81 4.362 27.922 3.956 27.992 3.522H30.764V1.954H22.938V3.522H26.046C25.864 4.348 25.556 5.076 25.094 5.692C24.436 6.574 23.442 7.288 22.14 7.82L23.288 9.192C24.52 8.674 25.71 7.82 26.592 6.686L26.732 6.518L26.872 6.686C27.824 7.722 29.07 8.52 30.302 8.884L31.324 7.428ZM24.534 9.654V13.938H34.502V12.342H26.41V9.654H24.534ZM30.092 5.986H32.276V10.732H34.152V1.534H32.276V4.418H30.092V5.986ZM42.9207 10.872C42.1647 10.368 41.5207 9.766 40.9887 9.052C40.6107 8.534 40.3027 7.96 40.0367 7.33L40.1627 6.924C40.2747 6.49 40.3727 6.028 40.4427 5.552H42.7247V3.956H36.0047V5.552H38.5807C38.5387 5.874 38.4827 6.196 38.4127 6.49C37.9087 8.604 36.8027 10.2 35.3187 11.32L36.6067 12.468C37.1247 12.02 37.6007 11.53 38.0627 10.984C38.5247 10.452 38.9167 9.864 39.2667 9.206C39.4347 9.514 39.6167 9.822 39.8127 10.116C40.3587 10.914 41.0027 11.586 41.7587 12.146L42.9207 10.872ZM43.4387 13.756H45.2587V1.674H43.4387V6.644H41.8007V8.268H43.4387V13.756ZM47.7787 14.064V1.534H45.9307V14.064H47.7787ZM41.3947 3.158V1.562H37.4747V3.158H41.3947ZM56.0574 8.254C53.7054 8.254 52.0114 9.528 52.0114 11.348C52.0114 13.182 53.7054 14.442 56.0574 14.442C58.4094 14.442 60.1034 13.182 60.1034 11.348C60.1034 9.528 58.4094 8.254 56.0574 8.254ZM57.5414 6.336C56.2254 5.972 55.0494 5.384 54.2094 4.404L53.9574 4.068C53.9714 4.054 53.9714 4.026 53.9854 3.998C54.2794 3.298 54.4334 2.542 54.4474 1.73H52.5434C52.4174 4.292 50.8914 6.042 48.4414 6.882L49.5894 8.254C50.7514 7.82 51.9554 7.008 52.8654 5.888C52.9634 5.776 53.0474 5.65 53.1454 5.524L53.1594 5.552C54.0834 6.644 55.3014 7.428 56.5194 7.792L57.5414 6.336ZM60.1454 8.38V5.552H61.6294V3.956H60.1454V1.534H58.2694V8.38H60.1454ZM56.0574 12.902C54.6574 12.902 53.8874 12.286 53.8874 11.348C53.8874 10.41 54.6574 9.794 56.0574 9.794C57.4574 9.794 58.2274 10.41 58.2274 11.348C58.2274 12.286 57.4574 12.902 56.0574 12.902ZM73.1421 13.994V9.766H69.2221V8.954H74.4301V7.414H62.1101V8.954H67.3181V9.766H63.3701V13.994H73.1421ZM63.3001 3.27H64.6301L64.7141 5.16H62.8801V6.714H73.6461V5.16H71.7981L71.8821 3.27H73.2261V1.73H63.3001V3.27ZM65.2461 11.306H71.2661V12.426H65.2461V11.306ZM66.5061 3.27H70.0061L69.9221 5.16H66.5901L66.5061 3.27Z" fill="#666666"/>
</svg>
