<svg width="58" height="13" viewBox="0 0 58 13" fill="none" xmlns="http://www.w3.org/2000/svg">
<path d="M1.936 10.448C2.584 9.956 3.16 9.404 3.676 8.78C4.12 8.24 4.516 7.664 4.84 7.04L4.912 7.172C5.68 8.384 6.748 9.5 7.828 10.196L8.8 9.02C7.3 8.168 6.196 6.98 5.512 5.456C5.62 5.108 5.716 4.76 5.8 4.388C5.908 3.932 5.98 3.464 6.028 2.972H8.452V1.604H1.576V2.972H4.384C4.348 3.344 4.288 3.716 4.216 4.076C3.784 6.296 2.692 8.132 0.856 9.332L1.936 10.448ZM10.78 11.924V6.392H12.304V5H10.78V1.172H9.172V11.924H10.78ZM22.244 3.8H15.476V2.66H22.124V1.34H13.868V5.132H17.24V5.876H12.716V7.196H23.276V5.876H18.872V5.132H22.244V3.8ZM18.044 7.556C15.944 7.556 14.456 8.528 14.456 10.016C14.456 11.504 15.944 12.476 18.044 12.476C20.144 12.476 21.632 11.504 21.632 10.016C21.632 8.528 20.144 7.556 18.044 7.556ZM18.044 11.18C16.748 11.18 16.064 10.724 16.064 10.016C16.064 9.308 16.748 8.852 18.044 8.852C19.34 8.852 20.024 9.308 20.024 10.016C20.024 10.724 19.34 11.18 18.044 11.18ZM24.6721 10.568C25.8121 9.86 26.8441 8.936 27.5761 7.772L27.6001 7.736C27.8521 8.108 28.1281 8.468 28.4401 8.792C29.0641 9.452 29.7961 9.98 30.5161 10.316L31.4641 9.116C30.6121 8.744 29.9041 8.276 29.3161 7.7C28.9201 7.304 28.5721 6.836 28.2961 6.296C28.3561 6.14 28.4041 5.996 28.4401 5.84C28.5481 5.48 28.6321 5.108 28.6801 4.712H31.0321V3.344H24.4081V4.712H27.0361C27.0001 4.964 26.9401 5.216 26.8801 5.444C26.4001 7.208 25.2721 8.492 23.6161 9.428L24.6721 10.568ZM33.4441 11.924V6.632H34.9681V5.24H33.4441V1.172H31.8361V11.924H33.4441ZM29.6761 2.516V1.148H25.8241V2.516H29.6761ZM44.8361 11.852V7.628H36.4601V11.852H44.8361ZM45.9401 6.644V5.3H44.4881C44.5841 4.856 44.6801 4.34 44.7641 3.752C44.8721 3.032 44.9321 2.228 44.9561 1.34H36.3521V2.684H43.3001C43.2761 3.26 43.1801 4.04 43.0121 4.832L42.9041 5.3H35.3801V6.644H45.9401ZM38.0681 8.948H43.2281V10.508H38.0681V8.948ZM57.2721 7.208V5.936H46.7121V7.208H49.1481V8.672C48.9681 8.828 48.8241 8.996 48.7161 9.176C48.5361 9.464 48.4521 9.788 48.4521 10.136C48.4521 11.54 49.9401 12.476 52.0401 12.476C54.1401 12.476 55.6281 11.54 55.6281 10.136C55.6281 9.788 55.5441 9.464 55.3641 9.176C55.2321 8.96 55.0521 8.768 54.8361 8.588V7.208H57.2721ZM48.3441 3.152C48.3441 4.628 49.9401 5.588 51.9921 5.588C54.0441 5.588 55.6401 4.628 55.6401 3.152C55.6401 1.676 54.0441 0.715999 51.9921 0.715999C49.9401 0.715999 48.3441 1.676 48.3441 3.152ZM51.9921 1.988C53.1081 1.988 54.0321 2.468 54.0321 3.152C54.0321 3.836 53.1081 4.316 51.9921 4.316C50.8761 4.316 49.9521 3.836 49.9521 3.152C49.9521 2.468 50.8761 1.988 51.9921 1.988ZM52.0401 11.204C50.7441 11.204 50.0601 10.772 50.0601 10.136C50.0601 9.5 50.7441 9.068 52.0401 9.068C53.3361 9.068 54.0201 9.5 54.0201 10.136C54.0201 10.772 53.3361 11.204 52.0401 11.204ZM52.0401 7.796C51.5721 7.796 51.1521 7.844 50.7561 7.928V7.208H53.2281V7.904C52.8561 7.832 52.4601 7.796 52.0401 7.796Z" fill="#242D3C"/>
</svg>
