<svg width="68" height="13" viewBox="0 0 68 13" fill="none" xmlns="http://www.w3.org/2000/svg">
<path d="M8.04 6.224C6.876 5.888 5.868 5.36 5.148 4.568C5.04 4.448 4.932 4.316 4.848 4.184L4.944 3.932C5.076 3.608 5.172 3.248 5.232 2.876H7.632V1.532H0.804V2.876H3.564C3.408 3.608 3.12 4.232 2.7 4.748C2.112 5.504 1.248 6.104 0.12 6.56L1.104 7.736C2.172 7.292 3.216 6.572 3.996 5.6C4.044 5.54 4.092 5.48 4.128 5.42L4.272 5.588C5.064 6.476 6.108 7.16 7.164 7.472L8.04 6.224ZM2.172 8.132V11.804H10.716V10.436H3.78V8.132H2.172ZM10.416 9.056V1.172H8.808V9.056H10.416ZM18.196 7.46C16.18 7.46 14.728 8.444 14.728 9.848C14.728 11.264 16.18 12.236 18.196 12.236C20.212 12.236 21.664 11.264 21.664 9.848C21.664 8.444 20.212 7.46 18.196 7.46ZM18.076 7.124H19.636V5.144H20.38V7.604H21.964V1.172H20.38V3.776H19.636V1.28H18.076V7.124ZM14.788 3.752C13.204 3.752 12.208 4.496 12.208 5.588C12.208 6.68 13.204 7.424 14.788 7.424C16.372 7.424 17.368 6.68 17.368 5.588C17.368 4.496 16.372 3.752 14.788 3.752ZM17.668 3.56V2.384H11.788V3.56H17.668ZM18.196 10.964C16.996 10.964 16.336 10.52 16.336 9.848C16.336 9.176 16.996 8.732 18.196 8.732C19.396 8.732 20.056 9.176 20.056 9.848C20.056 10.52 19.396 10.964 18.196 10.964ZM16.408 2.144V0.968H13.168V2.144H16.408ZM14.788 6.296C14.104 6.296 13.744 6.02 13.744 5.588C13.744 5.156 14.104 4.88 14.788 4.88C15.472 4.88 15.832 5.156 15.832 5.588C15.832 6.02 15.472 6.296 14.788 6.296ZM33.6081 6.992V5.672H23.0481V6.992H27.5121V7.616C27.3081 7.652 27.1161 7.688 26.9241 7.736C25.6281 8.072 24.7881 8.912 24.7881 10.016C24.7881 11.504 26.2761 12.476 28.3761 12.476C30.4761 12.476 31.9641 11.504 31.9641 10.016C31.9641 8.912 31.1241 8.072 29.8161 7.736C29.6001 7.676 29.3721 7.64 29.1441 7.604V6.992H33.6081ZM33.2841 4.04C31.8201 3.992 30.5121 3.776 29.5521 3.224C29.4081 3.14 29.2641 3.032 29.1321 2.924L29.2041 2.792L29.2641 2.66H32.5161V1.34H24.1401V2.66H27.4761L27.4281 2.732C26.6841 3.596 25.1601 3.944 23.3601 4.088L24.0321 5.324C25.1841 5.252 26.5041 4.964 27.5721 4.388C27.8481 4.244 28.0881 4.076 28.3161 3.896C28.4961 4.04 28.6761 4.172 28.8801 4.292C29.9481 4.928 31.2681 5.24 32.5641 5.24L33.2841 4.04ZM28.3761 11.18C27.0801 11.18 26.3961 10.724 26.3961 10.016C26.3961 9.308 27.0801 8.852 28.3761 8.852C29.6721 8.852 30.3561 9.308 30.3561 10.016C30.3561 10.724 29.6721 11.18 28.3761 11.18ZM37.8721 1.064C36.0841 1.064 34.6561 2.348 34.6561 4.148C34.6561 5.948 36.0841 7.232 37.8721 7.232C39.6601 7.232 41.0881 5.948 41.0881 4.148C41.0881 2.348 39.6601 1.064 37.8721 1.064ZM37.8721 5.864C36.8761 5.864 36.2641 5.168 36.2641 4.148C36.2641 3.128 36.8761 2.432 37.8721 2.432C38.8681 2.432 39.4801 3.128 39.4801 4.148C39.4801 5.168 38.8681 5.864 37.8721 5.864ZM44.2921 9.056V1.172H42.6841V9.056H44.2921ZM36.0481 8.132V11.804H44.5921V10.436H37.6561V8.132H36.0481ZM51.8561 6.932C49.8401 6.932 48.3881 8.024 48.3881 9.584C48.3881 11.156 49.8401 12.236 51.8561 12.236C53.8721 12.236 55.3241 11.156 55.3241 9.584C55.3241 8.024 53.8721 6.932 51.8561 6.932ZM53.1281 5.288C52.0001 4.976 50.9921 4.472 50.2721 3.632L50.0561 3.344C50.0681 3.332 50.0681 3.308 50.0801 3.284C50.3321 2.684 50.4641 2.036 50.4761 1.34H48.8441C48.7361 3.536 47.4281 5.036 45.3281 5.756L46.3121 6.932C47.3081 6.56 48.3401 5.864 49.1201 4.904C49.2041 4.808 49.2761 4.7 49.3601 4.592L49.3721 4.616C50.1641 5.552 51.2081 6.224 52.2521 6.536L53.1281 5.288ZM55.3601 7.04V4.616H56.6321V3.248H55.3601V1.172H53.7521V7.04H55.3601ZM51.8561 10.916C50.6561 10.916 49.9961 10.388 49.9961 9.584C49.9961 8.78 50.6561 8.252 51.8561 8.252C53.0561 8.252 53.7161 8.78 53.7161 9.584C53.7161 10.388 53.0561 10.916 51.8561 10.916ZM66.5002 11.852V8.228H63.1402V7.532H67.6042V6.212H57.0442V7.532H61.5082V8.228H58.1242V11.852H66.5002ZM58.0642 2.66H59.2042L59.2762 4.28H57.7042V5.612H66.9322V4.28H65.3482L65.4202 2.66H66.5722V1.34H58.0642V2.66ZM59.7322 9.548H64.8922V10.508H59.7322V9.548ZM60.8122 2.66H63.8122L63.7402 4.28H60.8842L60.8122 2.66Z" fill="#242D3C"/>
</svg>
