<svg width="45" height="13" viewBox="0 0 45 13" fill="none" xmlns="http://www.w3.org/2000/svg">
<path d="M10.26 11.924V1.172H8.652V11.924H10.26ZM1.152 2.972H5.352C5.124 5.432 3.456 7.904 0.66 9.248L1.692 10.388C4.692 8.78 7.092 5.78 7.056 1.604H1.152V2.972ZM21.628 6.74V1.172H20.02V3.236H18.256C18.22 3.068 18.16 2.9 18.088 2.744C17.62 1.688 16.504 1.016 15.184 1.016C13.408 1.016 12.04 2.216 12.04 3.896C12.04 5.576 13.408 6.776 15.184 6.776C16.504 6.776 17.62 6.092 18.088 5.06C18.148 4.916 18.208 4.76 18.244 4.604H20.02V6.74H21.628ZM21.604 11.852V7.22H19.996V8.288H14.98V7.22H13.372V11.852H21.604ZM15.184 5.456C14.224 5.456 13.648 4.82 13.648 3.896C13.648 2.972 14.224 2.336 15.184 2.336C16.144 2.336 16.72 2.972 16.72 3.896C16.72 4.82 16.144 5.456 15.184 5.456ZM19.996 10.508H14.98V9.56H19.996V10.508ZM32.5041 11.852V7.628H24.1281V11.852H32.5041ZM33.6081 6.644V5.3H32.1561C32.2521 4.856 32.3481 4.34 32.4321 3.752C32.5401 3.032 32.6001 2.228 32.6241 1.34H24.0201V2.684H30.9681C30.9441 3.26 30.8481 4.04 30.6801 4.832L30.5721 5.3H23.0481V6.644H33.6081ZM25.7361 8.948H30.8961V10.508H25.7361V8.948ZM44.9401 7.208V5.936H34.3801V7.208H36.8161V8.672C36.6361 8.828 36.4921 8.996 36.3841 9.176C36.2041 9.464 36.1201 9.788 36.1201 10.136C36.1201 11.54 37.6081 12.476 39.7081 12.476C41.8081 12.476 43.2961 11.54 43.2961 10.136C43.2961 9.788 43.2121 9.464 43.0321 9.176C42.9001 8.96 42.7201 8.768 42.5041 8.588V7.208H44.9401ZM36.0121 3.152C36.0121 4.628 37.6081 5.588 39.6601 5.588C41.7121 5.588 43.3081 4.628 43.3081 3.152C43.3081 1.676 41.7121 0.715999 39.6601 0.715999C37.6081 0.715999 36.0121 1.676 36.0121 3.152ZM39.6601 1.988C40.7761 1.988 41.7001 2.468 41.7001 3.152C41.7001 3.836 40.7761 4.316 39.6601 4.316C38.5441 4.316 37.6201 3.836 37.6201 3.152C37.6201 2.468 38.5441 1.988 39.6601 1.988ZM39.7081 11.204C38.4121 11.204 37.7281 10.772 37.7281 10.136C37.7281 9.5 38.4121 9.068 39.7081 9.068C41.0041 9.068 41.6881 9.5 41.6881 10.136C41.6881 10.772 41.0041 11.204 39.7081 11.204ZM39.7081 7.796C39.2401 7.796 38.8201 7.844 38.4241 7.928V7.208H40.8961V7.904C40.5241 7.832 40.1281 7.796 39.7081 7.796Z" fill="#242D3C"/>
</svg>
