<svg width="150" height="90" viewBox="0 0 150 90" fill="none" xmlns="http://www.w3.org/2000/svg">
<path d="M1.302 7.716C2.478 7.422 3.71 6.764 4.648 5.868L4.886 5.616L4.998 5.714C5.964 6.568 7.294 7.1 8.456 7.24L9.38 5.742C8.064 5.546 6.86 5.196 5.992 4.468L5.796 4.272C5.894 4.09 5.964 3.894 6.034 3.684H8.568V5.14H10.276V7.66H12.152V0.533999H10.276V3.6H8.904V2.2H1.092V3.684H4.018C3.822 4.16 3.528 4.566 3.136 4.916C2.422 5.532 1.47 5.98 0.252 6.274L1.302 7.716ZM7.868 7.534C5.516 7.534 3.822 8.738 3.822 10.488C3.822 12.238 5.516 13.442 7.868 13.442C10.22 13.442 11.914 12.238 11.914 10.488C11.914 8.738 10.22 7.534 7.868 7.534ZM7.868 11.93C6.468 11.93 5.698 11.37 5.698 10.488C5.698 9.606 6.468 9.046 7.868 9.046C9.268 9.046 10.038 9.606 10.038 10.488C10.038 11.37 9.268 11.93 7.868 11.93ZM7.42 1.724V0.24H2.716V1.724H7.42ZM20.6407 13.078V8.066H25.9887V6.47H24.1687C24.2947 5.868 24.4207 5.196 24.5187 4.426C24.6727 3.348 24.7567 2.172 24.7847 0.897999H14.8027V2.466H22.8527C22.7967 3.39 22.6707 4.664 22.4187 5.924C22.3907 6.106 22.3487 6.288 22.3067 6.47H13.6687V8.066H18.7367V13.078H20.6407ZM35.7654 9.662C34.7994 9.004 33.9734 8.276 33.3154 7.478C32.7974 6.848 32.3354 6.134 31.9434 5.35C32.3774 3.964 32.5874 2.48 32.5874 0.897999H30.6834C30.6834 4.678 29.4934 7.786 26.4974 9.998L27.7574 11.3C29.2554 10.138 30.3894 8.78 31.1874 7.24C31.4954 7.744 31.8454 8.234 32.2234 8.71C32.9374 9.592 33.7214 10.348 34.6034 11.006L35.7654 9.662ZM34.0434 6.05H36.8154V13.078H38.6914V0.533999H36.8154V4.454H34.0434V6.05ZM52.1921 6.596C50.3021 6.148 48.7761 5.504 47.6561 4.412C47.4461 4.202 47.2641 3.992 47.0821 3.768C47.2641 3.404 47.4181 3.026 47.5161 2.634H51.2541V1.038H41.2861V2.634H45.5281C45.4581 2.872 45.3601 3.096 45.2481 3.306C44.3521 4.986 42.5181 6.05 40.2361 6.666L41.2861 8.08C42.7561 7.632 44.3241 6.862 45.5421 5.756C45.7801 5.546 45.9901 5.322 46.2001 5.084C46.3401 5.252 46.4941 5.42 46.6481 5.574C47.8661 6.792 49.5321 7.66 51.2121 8.052L52.1921 6.596ZM52.4301 12.154V10.558H47.2221V7.464H45.3181V10.558H40.1101V12.154H52.4301ZM58.2448 4.482C56.2708 4.482 54.8008 5.336 54.8008 6.764C54.8008 7.828 55.6268 8.584 56.8728 8.892C57.0128 8.934 57.1528 8.962 57.3068 8.99V9.816L53.5408 9.858V11.454L62.7808 11.314V9.746L59.2108 9.788V8.976C59.3368 8.962 59.4768 8.934 59.6028 8.892C60.8488 8.584 61.6888 7.828 61.6888 6.764C61.6888 5.336 60.1908 4.482 58.2448 4.482ZM65.0768 13.078V0.533999H63.2008V13.078H65.0768ZM62.5288 4.146V2.578H53.9608V4.146H62.5288ZM55.8228 0.589999V2.158H60.6668V0.589999H55.8228ZM58.2448 7.646C57.3348 7.646 56.6488 7.366 56.6488 6.764C56.6488 6.162 57.3348 5.882 58.2448 5.882C59.1548 5.882 59.8408 6.162 59.8408 6.764C59.8408 7.366 59.1548 7.646 58.2448 7.646Z" fill="#242D3C"/>
<path d="M12.404 50.994V49.468H4.396V48.824H12.124V45.268H2.52V46.78H10.248V47.396H2.52V50.994H12.404ZM9.24 43.196C7.952 42.832 6.748 42.216 5.908 41.236C5.824 41.138 5.74 41.026 5.67 40.914C5.964 40.228 6.132 39.5 6.146 38.73H4.242C4.116 41.124 2.562 42.86 0.14 43.644L1.288 45.016C2.422 44.61 3.64 43.812 4.55 42.734L4.844 42.37C4.844 42.384 4.844 42.384 4.858 42.398C5.81 43.49 7.028 44.288 8.218 44.652L9.24 43.196ZM12.152 44.848V38.534H10.276V44.848H12.152ZM21.2287 45.87C18.8767 45.87 17.1827 47.018 17.1827 48.656C17.1827 50.308 18.8767 51.442 21.2287 51.442C23.5807 51.442 25.2747 50.308 25.2747 48.656C25.2747 47.018 23.5807 45.87 21.2287 45.87ZM21.0887 45.478H22.9087V43.168H23.7767V46.038H25.6247V38.534H23.7767V41.572H22.9087V38.66H21.0887V45.478ZM17.2527 41.544C15.4047 41.544 14.2427 42.412 14.2427 43.686C14.2427 44.96 15.4047 45.828 17.2527 45.828C19.1007 45.828 20.2627 44.96 20.2627 43.686C20.2627 42.412 19.1007 41.544 17.2527 41.544ZM20.6127 41.32V39.948H13.7527V41.32H20.6127ZM21.2287 49.958C19.8287 49.958 19.0587 49.44 19.0587 48.656C19.0587 47.872 19.8287 47.354 21.2287 47.354C22.6287 47.354 23.3987 47.872 23.3987 48.656C23.3987 49.44 22.6287 49.958 21.2287 49.958ZM19.1427 39.668V38.296H15.3627V39.668H19.1427ZM17.2527 44.512C16.4547 44.512 16.0347 44.19 16.0347 43.686C16.0347 43.182 16.4547 42.86 17.2527 42.86C18.0507 42.86 18.4707 43.182 18.4707 43.686C18.4707 44.19 18.0507 44.512 17.2527 44.512ZM28.0374 46.304C29.6054 45.758 31.1874 44.834 32.3774 43.588C32.5874 43.35 32.7974 43.112 32.9794 42.874C33.0774 43 33.1894 43.14 33.3154 43.266C34.5614 44.624 36.2694 45.716 38.0194 46.248L39.0274 44.82C37.0814 44.204 35.5134 43.35 34.3374 42.09C34.1554 41.894 33.9874 41.684 33.8194 41.474L33.8334 41.446C34.2114 40.648 34.4074 39.78 34.4354 38.828H32.5034C32.3494 41.88 30.1654 43.91 26.9594 44.918L28.0374 46.304ZM39.2094 50.014V48.418H26.8894V50.014H39.2094ZM40.7541 40.704H44.2401C44.1981 41.362 44.1001 42.034 43.9181 42.692L40.4181 42.818V44.414L43.3161 44.274L43.0921 44.722C42.3781 45.996 41.3421 47.158 39.9281 48.096L41.2581 49.314C44.2261 47.144 46.1721 43.826 46.1721 39.108H40.7541V40.704ZM45.8781 45.016H47.4601V50.756H49.2801V38.674H47.4601V43.392H45.8781V45.016ZM51.9401 51.064V38.534H50.0921V51.064H51.9401ZM64.6568 50.994V49.58H56.4668V49.034H64.3628V45.814H60.4428V45.03H65.6508V43.546H53.3308V45.03H58.5388V45.814H54.5908V47.214H62.4868V47.746H54.5908V50.994H64.6568ZM65.2728 41.74C63.5508 41.684 62.0528 41.432 60.9328 40.816C60.7788 40.718 60.6248 40.62 60.4708 40.508L60.5128 40.41L60.6108 40.214H64.3768V38.73H54.6048V40.214H58.5248L58.4408 40.326C57.5728 41.306 55.7948 41.628 53.6948 41.796L54.4788 43.238C55.8228 43.154 57.3628 42.832 58.6088 42.216C58.9308 42.048 59.2388 41.866 59.5048 41.656C59.7008 41.81 59.9108 41.964 60.1348 42.09C61.3948 42.79 62.9208 43.14 64.4328 43.14L65.2728 41.74ZM78.6335 44.596C76.7435 44.148 75.2175 43.504 74.0975 42.412C73.8875 42.202 73.7055 41.992 73.5235 41.768C73.7055 41.404 73.8595 41.026 73.9575 40.634H77.6955V39.038H67.7275V40.634H71.9695C71.8995 40.872 71.8015 41.096 71.6895 41.306C70.7935 42.986 68.9595 44.05 66.6775 44.666L67.7275 46.08C69.1975 45.632 70.7655 44.862 71.9835 43.756C72.2215 43.546 72.4315 43.322 72.6415 43.084C72.7815 43.252 72.9355 43.42 73.0895 43.574C74.3075 44.792 75.9735 45.66 77.6535 46.052L78.6335 44.596ZM78.8715 50.154V48.558H73.6635V45.464H71.7595V48.558H66.5515V50.154H78.8715ZM84.6862 42.482C82.7122 42.482 81.2422 43.336 81.2422 44.764C81.2422 45.828 82.0682 46.584 83.3142 46.892C83.4542 46.934 83.5942 46.962 83.7482 46.99V47.816L79.9822 47.858V49.454L89.2222 49.314V47.746L85.6522 47.788V46.976C85.7782 46.962 85.9182 46.934 86.0442 46.892C87.2902 46.584 88.1302 45.828 88.1302 44.764C88.1302 43.336 86.6322 42.482 84.6862 42.482ZM91.5182 51.078V38.534H89.6422V51.078H91.5182ZM88.9702 42.146V40.578H80.4022V42.146H88.9702ZM82.2642 38.59V40.158H87.1082V38.59H82.2642ZM84.6862 45.646C83.7762 45.646 83.0902 45.366 83.0902 44.764C83.0902 44.162 83.7762 43.882 84.6862 43.882C85.5962 43.882 86.2822 44.162 86.2822 44.764C86.2822 45.366 85.5962 45.646 84.6862 45.646Z" fill="#242D3C"/>
<path d="M12.012 85.732V76.534H10.136V77.696H7.392C7.322 77.598 7.238 77.514 7.14 77.416C6.188 76.45 4.41 76.128 3.024 76.674C1.694 77.206 0.77 78.424 0.77 80.006C0.77 82.106 2.408 83.604 4.494 83.604C5.544 83.604 6.468 83.226 7.14 82.596L7.308 82.428H10.136V85.732H12.012ZM2.394 84.654V88.938H12.362V87.342H4.27V84.654H2.394ZM4.494 82.008C3.332 82.008 2.646 81.196 2.646 80.006C2.646 78.816 3.332 78.004 4.494 78.004C5.656 78.004 6.342 78.816 6.342 80.006C6.342 81.196 5.656 82.008 4.494 82.008ZM8.218 80.006C8.218 79.768 8.19 79.53 8.148 79.292H10.136V80.832H8.134C8.19 80.566 8.218 80.3 8.218 80.006ZM20.9207 85.872C20.1647 85.368 19.5207 84.766 18.9887 84.052C18.6107 83.534 18.3027 82.96 18.0367 82.33L18.1627 81.924C18.2747 81.49 18.3727 81.028 18.4427 80.552H20.7247V78.956H14.0047V80.552H16.5807C16.5387 80.874 16.4827 81.196 16.4127 81.49C15.9087 83.604 14.8027 85.2 13.3187 86.32L14.6067 87.468C15.1247 87.02 15.6007 86.53 16.0627 85.984C16.5247 85.452 16.9167 84.864 17.2667 84.206C17.4347 84.514 17.6167 84.822 17.8127 85.116C18.3587 85.914 19.0027 86.586 19.7587 87.146L20.9207 85.872ZM21.4387 88.756H23.2587V76.674H21.4387V81.644H19.8007V83.268H21.4387V88.756ZM25.7787 89.064V76.534H23.9307V89.064H25.7787ZM19.3947 78.158V76.562H15.4747V78.158H19.3947ZM33.8194 88.756H35.6394V82.568H36.8714V89.064H38.7194V76.534H36.8714V80.944H35.6394V76.674H33.8194V88.756ZM27.6454 76.982V86.796L33.2594 86.46V84.892L29.4934 85.06V76.982H27.6454ZM44.1281 76.408C42.0281 76.408 40.4321 77.864 40.4321 79.936C40.4321 82.008 42.0281 83.464 44.1281 83.464C45.1781 83.464 46.1301 83.1 46.8021 82.484L46.9281 82.358H49.7981V83.856H51.6741V76.534H49.7981V77.626H47.0401L46.8021 77.402C46.1301 76.772 45.1781 76.408 44.1281 76.408ZM51.6461 89.134V84.416H41.6221V86.012H49.7701V89.134H51.6461ZM44.1281 81.868C42.9661 81.868 42.3081 81.098 42.3081 79.936C42.3081 78.774 42.9661 78.004 44.1281 78.004C45.2901 78.004 46.0321 78.774 46.0321 79.936C46.0321 81.098 45.2901 81.868 44.1281 81.868ZM47.9081 79.936C47.9081 79.698 47.8801 79.46 47.8381 79.222H49.7981V80.762H47.8101C47.8801 80.496 47.9081 80.23 47.9081 79.936ZM65.4128 82.596C63.5228 82.148 61.9968 81.504 60.8768 80.412C60.6668 80.202 60.4848 79.992 60.3028 79.768C60.4848 79.404 60.6388 79.026 60.7368 78.634H64.4748V77.038H54.5068V78.634H58.7488C58.6788 78.872 58.5808 79.096 58.4688 79.306C57.5728 80.986 55.7388 82.05 53.4568 82.666L54.5068 84.08C55.9768 83.632 57.5448 82.862 58.7628 81.756C59.0008 81.546 59.2108 81.322 59.4208 81.084C59.5608 81.252 59.7148 81.42 59.8688 81.574C61.0868 82.792 62.7528 83.66 64.4328 84.052L65.4128 82.596ZM65.6508 88.154V86.558H60.4428V83.464H58.5388V86.558H53.3308V88.154H65.6508ZM71.4655 80.482C69.4915 80.482 68.0215 81.336 68.0215 82.764C68.0215 83.828 68.8475 84.584 70.0935 84.892C70.2335 84.934 70.3735 84.962 70.5275 84.99V85.816L66.7615 85.858V87.454L76.0015 87.314V85.746L72.4315 85.788V84.976C72.5575 84.962 72.6975 84.934 72.8235 84.892C74.0695 84.584 74.9095 83.828 74.9095 82.764C74.9095 81.336 73.4115 80.482 71.4655 80.482ZM78.2975 89.078V76.534H76.4215V89.078H78.2975ZM75.7495 80.146V78.578H67.1815V80.146H75.7495ZM69.0435 76.59V78.158H73.8875V76.59H69.0435ZM71.4655 83.646C70.5555 83.646 69.8695 83.366 69.8695 82.764C69.8695 82.162 70.5555 81.882 71.4655 81.882C72.3755 81.882 73.0615 82.162 73.0615 82.764C73.0615 83.366 72.3755 83.646 71.4655 83.646Z" fill="#242D3C"/>
</svg>
