<svg width="44" height="14" viewBox="0 0 44 14" fill="none" xmlns="http://www.w3.org/2000/svg">
<path d="M1.968 7.002V2.928H4.026C5.314 2.928 6.182 3.852 6.182 4.958C6.182 6.078 5.314 7.002 4.026 7.002H1.968ZM4.026 8.57C6.434 8.57 8.03 6.918 8.03 4.958C8.03 2.998 6.434 1.36 4.026 1.36H0.12V12H1.968V8.57H4.026ZM11.3469 7.548H15.6589V5.994H11.3469V2.928H16.6389V1.36H9.49891V12H11.3469V7.548ZM24.6469 12.756H26.4669V6.568H27.5589V13.064H29.4069V0.533999H27.5589V4.944H26.4669V0.674H24.6469V12.756ZM18.3329 1.122V10.866L24.0869 10.53V8.962L20.1809 9.13V2.718H23.5689V1.122H18.3329ZM43.1176 7.45V6.106H30.7976V7.45H36.0056V8.094H32.0576V9.438H39.9536V9.914H32.0576V12.994H42.1236V11.636H33.9336V11.146H41.8296V8.094H37.9096V7.45H43.1176ZM31.9736 5.798C33.3736 5.742 34.9276 5.504 36.1876 4.972C36.4396 4.86 36.6776 4.734 36.9016 4.608C37.1396 4.762 37.3916 4.902 37.6716 5.028C38.8756 5.546 40.4156 5.756 41.8716 5.7L42.6836 4.328C41.0036 4.3 39.5616 4.216 38.4696 3.768L38.0356 3.558C38.0496 3.516 38.0776 3.488 38.1056 3.446H41.8716V2.046H31.9876V3.446H35.8096C35.5576 3.628 35.2496 3.768 34.8856 3.88C33.9476 4.174 32.6736 4.314 31.2176 4.384L31.9736 5.798ZM39.6736 0.253999H34.1856V1.654H39.6736V0.253999Z" fill="#242D3C"/>
</svg>
