<svg width="107" height="90" viewBox="0 0 107 90" fill="none" xmlns="http://www.w3.org/2000/svg">
<path d="M5.522 0.407999C3.436 0.407999 1.77 1.85 1.77 3.866C1.77 5.882 3.436 7.324 5.522 7.324C7.608 7.324 9.274 5.882 9.274 3.866C9.274 1.85 7.608 0.407999 5.522 0.407999ZM5.522 5.728C4.36 5.728 3.646 4.986 3.646 3.866C3.646 2.746 4.36 2.004 5.522 2.004C6.684 2.004 7.398 2.746 7.398 3.866C7.398 4.986 6.684 5.728 5.522 5.728ZM13.012 7.436V0.533999H11.136V7.436H13.012ZM3.38 7.996V12.994H12.984V7.996H3.38ZM5.256 9.564H11.108V11.398H5.256V9.564ZM15.3967 11.496C16.7267 10.67 17.9307 9.592 18.7847 8.234L18.8127 8.192C19.1067 8.626 19.4287 9.046 19.7927 9.424C20.5207 10.194 21.3747 10.81 22.2147 11.202L23.3207 9.802C22.3267 9.368 21.5007 8.822 20.8147 8.15C20.3527 7.688 19.9467 7.142 19.6247 6.512C19.6947 6.33 19.7507 6.162 19.7927 5.98C19.9187 5.56 20.0167 5.126 20.0727 4.664H22.8167V3.068H15.0887V4.664H18.1547C18.1127 4.958 18.0427 5.252 17.9727 5.518C17.4127 7.576 16.0967 9.074 14.1647 10.166L15.3967 11.496ZM25.6307 13.078V6.904H27.4087V5.28H25.6307V0.533999H23.7547V13.078H25.6307ZM21.2347 2.102V0.505999H16.7407V2.102H21.2347ZM36.9894 0.897999V3.096H31.1094V0.897999H29.2334V8.43H33.0974V10.558H27.8894V12.154H40.2094V10.558H35.0014V8.43H38.8654V0.897999H36.9894ZM31.1094 6.82V4.664H36.9894V6.82H31.1094ZM47.3261 7.982C44.8761 7.982 43.1401 9.116 43.1401 10.852C43.1401 12.588 44.8761 13.722 47.3261 13.722C49.7761 13.722 51.5121 12.588 51.5121 10.852C51.5121 9.116 49.7761 7.982 47.3261 7.982ZM53.0521 3.88C51.3441 3.824 49.8181 3.572 48.6981 2.928C48.5301 2.83 48.3621 2.704 48.2081 2.578L48.2921 2.424L48.3621 2.27H52.1561V0.729999H42.3841V2.27H46.2761L46.2201 2.354C45.3521 3.362 43.5741 3.768 41.4741 3.936L42.2581 5.378C43.6021 5.294 45.1421 4.958 46.3881 4.286C46.7101 4.118 46.9901 3.922 47.2561 3.712C47.4661 3.88 47.6761 4.034 47.9141 4.174C49.1601 4.916 50.7001 5.28 52.2121 5.28L53.0521 3.88ZM53.4301 7.464V5.924H41.1101V7.464H53.4301ZM47.3261 12.21C45.8141 12.21 45.0161 11.678 45.0161 10.852C45.0161 10.026 45.8141 9.494 47.3261 9.494C48.8381 9.494 49.6361 10.026 49.6361 10.852C49.6361 11.678 48.8381 12.21 47.3261 12.21ZM65.3628 12.994V8.066H55.5908V12.994H65.3628ZM66.6508 6.918V5.35H64.9568C65.0688 4.832 65.1808 4.23 65.2788 3.544C65.4048 2.704 65.4748 1.766 65.5028 0.729999H55.4648V2.298H63.5708C63.5428 2.97 63.4308 3.88 63.2348 4.804L63.1088 5.35H54.3308V6.918H66.6508ZM57.4668 9.606H63.4868V11.426H57.4668V9.606ZM74.6215 12.756H76.4415V6.568H77.5335V13.064H79.3815V0.533999H77.5335V4.944H76.4415V0.674H74.6215V12.756ZM68.3075 1.122V10.866L74.0615 10.53V8.962L70.1555 9.13V2.718H73.5435V1.122H68.3075ZM93.0922 7.45V6.106H80.7722V7.45H85.9802V8.094H82.0322V9.438H89.9282V9.914H82.0322V12.994H92.0982V11.636H83.9082V11.146H91.8042V8.094H87.8842V7.45H93.0922ZM81.9482 5.798C83.3482 5.742 84.9022 5.504 86.1622 4.972C86.4142 4.86 86.6522 4.734 86.8762 4.608C87.1142 4.762 87.3662 4.902 87.6462 5.028C88.8502 5.546 90.3902 5.756 91.8462 5.7L92.6582 4.328C90.9782 4.3 89.5362 4.216 88.4442 3.768L88.0102 3.558C88.0242 3.516 88.0522 3.488 88.0802 3.446H91.8462V2.046H81.9622V3.446H85.7842C85.5322 3.628 85.2242 3.768 84.8602 3.88C83.9222 4.174 82.6482 4.314 81.1922 4.384L81.9482 5.798ZM89.6482 0.253999H84.1602V1.654H89.6482V0.253999Z" fill="#242D3C"/>
<path d="M13.53 44.596C11.64 44.148 10.114 43.504 8.994 42.412C8.784 42.202 8.602 41.992 8.42 41.768C8.602 41.404 8.756 41.026 8.854 40.634H12.592V39.038H2.624V40.634H6.866C6.796 40.872 6.698 41.096 6.586 41.306C5.69 42.986 3.856 44.05 1.574 44.666L2.624 46.08C4.094 45.632 5.662 44.862 6.88 43.756C7.118 43.546 7.328 43.322 7.538 43.084C7.678 43.252 7.832 43.42 7.986 43.574C9.204 44.792 10.87 45.66 12.55 46.052L13.53 44.596ZM13.768 50.154V48.558H8.56V45.464H6.656V48.558H1.448V50.154H13.768ZM15.5647 40.508H20.3247C19.9187 42.468 17.8887 44.148 14.7387 44.778L15.6207 46.234C19.1067 45.478 22.4107 43.042 22.3687 38.94H15.5647V40.508ZM16.6147 46.654V50.938H26.5827V49.342H18.4907V46.654H16.6147ZM22.1027 43.672H24.3567V47.732H26.2327V38.534H24.3567V42.076H22.1027V43.672ZM39.4534 47.844V38.534H37.5774V40.13H35.6174V38.8H33.7414V40.774H30.4794V38.8H28.6034V45.688H35.6174V44.386H37.5774V47.844H39.4534ZM29.8914 46.766V50.938H39.8594V49.342H31.7674V46.766H29.8914ZM30.4794 44.12V42.314H33.7414V44.12H30.4794ZM35.6174 41.726H37.5774V42.79H35.6174V41.726ZM48.4041 45.1C46.0521 45.1 44.3581 46.402 44.3581 48.278C44.3581 50.14 46.0521 51.442 48.4041 51.442C50.7561 51.442 52.4501 50.14 52.4501 48.278C52.4501 46.402 50.7561 45.1 48.4041 45.1ZM42.0061 40.508H46.7661C46.3181 42.244 44.2041 43.616 41.1801 44.218L42.0621 45.674C45.4361 44.96 48.8521 42.86 48.8101 38.94H42.0061V40.508ZM48.6561 44.204H50.7981V45.24H52.6741V38.534H50.7981V40.186H49.0621V41.754H50.7981V42.636H48.6561V44.204ZM48.4041 49.902C47.0041 49.902 46.2341 49.244 46.2341 48.278C46.2341 47.312 47.0041 46.654 48.4041 46.654C49.8041 46.654 50.5741 47.312 50.5741 48.278C50.5741 49.244 49.8041 49.902 48.4041 49.902Z" fill="#242D3C"/>
<path d="M10.1 85.662C9.134 85.004 8.308 84.276 7.65 83.478C7.132 82.848 6.67 82.134 6.278 81.35C6.712 79.964 6.922 78.48 6.922 76.898H5.018C5.018 80.678 3.828 83.786 0.832 85.998L2.092 87.3C3.59 86.138 4.724 84.78 5.522 83.24C5.83 83.744 6.18 84.234 6.558 84.71C7.272 85.592 8.056 86.348 8.938 87.006L10.1 85.662ZM12.41 89.078V82.624H14.188V81H12.41V76.534H10.534V89.078H12.41ZM26.2327 83.03V76.534H24.3567V78.942H22.2987C22.2567 78.746 22.1867 78.55 22.1027 78.368C21.5567 77.136 20.2547 76.352 18.7147 76.352C16.6427 76.352 15.0467 77.752 15.0467 79.712C15.0467 81.672 16.6427 83.072 18.7147 83.072C20.2547 83.072 21.5567 82.274 22.1027 81.07C22.1727 80.902 22.2427 80.72 22.2847 80.538H24.3567V83.03H26.2327ZM26.2047 88.994V83.59H24.3287V84.836H18.4767V83.59H16.6007V88.994H26.2047ZM18.7147 81.532C17.5947 81.532 16.9227 80.79 16.9227 79.712C16.9227 78.634 17.5947 77.892 18.7147 77.892C19.8347 77.892 20.5067 78.634 20.5067 79.712C20.5067 80.79 19.8347 81.532 18.7147 81.532ZM24.3287 87.426H18.4767V86.32H24.3287V87.426ZM28.5334 87.356C29.2894 86.782 29.9614 86.138 30.5634 85.41C31.0814 84.78 31.5434 84.108 31.9214 83.38L32.0054 83.534C32.9014 84.948 34.1474 86.25 35.4074 87.062L36.5414 85.69C34.7914 84.696 33.5034 83.31 32.7054 81.532C32.8314 81.126 32.9434 80.72 33.0414 80.286C33.1674 79.754 33.2514 79.208 33.3074 78.634H36.1354V77.038H28.1134V78.634H31.3894C31.3474 79.068 31.2774 79.502 31.1934 79.922C30.6894 82.512 29.4154 84.654 27.2734 86.054L28.5334 87.356ZM38.8514 89.078V82.624H40.6294V81H38.8514V76.534H36.9754V89.078H38.8514ZM52.1421 88.994V84.066H42.3701V88.994H52.1421ZM53.4301 82.918V81.35H51.7361C51.8481 80.832 51.9601 80.23 52.0581 79.544C52.1841 78.704 52.2541 77.766 52.2821 76.73H42.2441V78.298H50.3501C50.3221 78.97 50.2101 79.88 50.0141 80.804L49.8881 81.35H41.1101V82.918H53.4301ZM44.2461 85.606H50.2661V87.426H44.2461V85.606ZM61.4008 88.756H63.2208V82.568H64.3128V89.064H66.1608V76.534H64.3128V80.944H63.2208V76.674H61.4008V88.756ZM55.0868 77.122V86.866L60.8408 86.53V84.962L56.9348 85.13V78.718H60.3228V77.122H55.0868ZM79.8715 83.45V82.106H67.5515V83.45H72.7595V84.094H68.8115V85.438H76.7075V85.914H68.8115V88.994H78.8775V87.636H70.6875V87.146H78.5835V84.094H74.6635V83.45H79.8715ZM68.7275 81.798C70.1275 81.742 71.6815 81.504 72.9415 80.972C73.1935 80.86 73.4315 80.734 73.6555 80.608C73.8935 80.762 74.1455 80.902 74.4255 81.028C75.6295 81.546 77.1695 81.756 78.6255 81.7L79.4375 80.328C77.7575 80.3 76.3155 80.216 75.2235 79.768L74.7895 79.558C74.8035 79.516 74.8315 79.488 74.8595 79.446H78.6255V78.046H68.7415V79.446H72.5635C72.3115 79.628 72.0035 79.768 71.6395 79.88C70.7015 80.174 69.4275 80.314 67.9715 80.384L68.7275 81.798ZM76.4275 76.254H70.9395V77.654H76.4275V76.254ZM89.5642 82.344C88.6542 81.994 87.8562 81.518 87.1422 80.93C86.6522 80.524 86.2602 80.034 85.9382 79.46C85.9802 79.362 86.0082 79.25 86.0502 79.138C86.3162 78.368 86.4562 77.57 86.4702 76.73H84.5662C84.4542 79.376 83.1382 81.644 80.4642 82.792L81.6402 84.136C82.9702 83.506 84.1602 82.498 85.0142 81.224L85.1542 81.028C86.0502 82.26 87.2542 83.24 88.5142 83.772L89.5642 82.344ZM82.8582 84.654V88.938H92.8262V87.342H84.7342V84.654H82.8582ZM92.4762 85.732V76.534H90.6002V85.732H92.4762ZM98.7109 88.938V84.066H101.595V89.078H103.471V84.066H106.313V82.47H104.493C104.647 81.84 104.759 81.154 104.857 80.426C104.997 79.432 105.081 78.256 105.109 76.898H95.1269V78.494H103.177C103.121 79.418 103.023 80.664 102.771 81.924L102.659 82.47H93.9929V84.066H96.8349V88.938H98.7109Z" fill="#242D3C"/>
</svg>
