<svg width="53" height="14" viewBox="0 0 53 14" fill="none" xmlns="http://www.w3.org/2000/svg">
<path d="M11.97 13.078V0.533999H10.094V13.078H11.97ZM1.344 2.634H6.244C5.978 5.504 4.032 8.388 0.77 9.956L1.974 11.286C5.474 9.41 8.274 5.91 8.232 1.038H1.344V2.634ZM25.2327 7.03V0.533999H23.3567V2.942H21.2987C21.2567 2.746 21.1867 2.55 21.1027 2.368C20.5567 1.136 19.2547 0.352 17.7147 0.352C15.6427 0.352 14.0467 1.752 14.0467 3.712C14.0467 5.672 15.6427 7.072 17.7147 7.072C19.2547 7.072 20.5567 6.274 21.1027 5.07C21.1727 4.902 21.2427 4.72 21.2847 4.538H23.3567V7.03H25.2327ZM25.2047 12.994V7.59H23.3287V8.836H17.4767V7.59H15.6007V12.994H25.2047ZM17.7147 5.532C16.5947 5.532 15.9227 4.79 15.9227 3.712C15.9227 2.634 16.5947 1.892 17.7147 1.892C18.8347 1.892 19.5067 2.634 19.5067 3.712C19.5067 4.79 18.8347 5.532 17.7147 5.532ZM23.3287 11.426H17.4767V10.32H23.3287V11.426ZM33.9594 12.756H35.7794V6.568H36.8714V13.064H38.7194V0.533999H36.8714V4.944H35.7794V0.674H33.9594V12.756ZM27.6454 1.122V10.866L33.3994 10.53V8.962L29.4934 9.13V2.718H32.8814V1.122H27.6454ZM52.4301 7.45V6.106H40.1101V7.45H45.3181V8.094H41.3701V9.438H49.2661V9.914H41.3701V12.994H51.4361V11.636H43.2461V11.146H51.1421V8.094H47.2221V7.45H52.4301ZM41.2861 5.798C42.6861 5.742 44.2401 5.504 45.5001 4.972C45.7521 4.86 45.9901 4.734 46.2141 4.608C46.4521 4.762 46.7041 4.902 46.9841 5.028C48.1881 5.546 49.7281 5.756 51.1841 5.7L51.9961 4.328C50.3161 4.3 48.8741 4.216 47.7821 3.768L47.3481 3.558C47.3621 3.516 47.3901 3.488 47.4181 3.446H51.1841V2.046H41.3001V3.446H45.1221C44.8701 3.628 44.5621 3.768 44.1981 3.88C43.2601 4.174 41.9861 4.314 40.5301 4.384L41.2861 5.798ZM48.9861 0.253999H43.4981V1.654H48.9861V0.253999Z" fill="#242D3C"/>
</svg>
