<svg width="106" height="90" viewBox="0 0 106 90" fill="none" xmlns="http://www.w3.org/2000/svg">
<path d="M1.344 2.634H6.244C5.978 5.504 4.032 8.388 0.77 9.956L1.974 11.286C5.474 9.41 8.274 5.91 8.232 1.038H1.344V2.634ZM7.952 6.834H10.094V13.078H11.97V0.533999H10.094V5.21H7.952V6.834ZM20.7387 12.756H22.5587V6.568H23.6507V13.064H25.4987V0.533999H23.6507V4.944H22.5587V0.674H20.7387V12.756ZM20.1787 10.782V9.214L16.2727 9.382V6.68H19.6747V0.967999H14.4107V2.564H17.8267V5.098H14.4247V11.118L20.1787 10.782ZM33.8194 12.756H35.6394V6.568H36.8714V13.064H38.7194V0.533999H36.8714V4.944H35.6394V0.674H33.8194V12.756ZM27.6454 0.981999V10.796L33.2594 10.46V8.892L29.4934 9.06V0.981999H27.6454ZM44.1281 0.407999C42.0281 0.407999 40.4321 1.864 40.4321 3.936C40.4321 6.008 42.0281 7.464 44.1281 7.464C45.1781 7.464 46.1301 7.1 46.8021 6.484L46.9281 6.358H49.7981V7.856H51.6741V0.533999H49.7981V1.626H47.0401L46.8021 1.402C46.1301 0.771999 45.1781 0.407999 44.1281 0.407999ZM51.6461 13.134V8.416H41.6221V10.012H49.7701V13.134H51.6461ZM44.1281 5.868C42.9661 5.868 42.3081 5.098 42.3081 3.936C42.3081 2.774 42.9661 2.004 44.1281 2.004C45.2901 2.004 46.0321 2.774 46.0321 3.936C46.0321 5.098 45.2901 5.868 44.1281 5.868ZM47.9081 3.936C47.9081 3.698 47.8801 3.46 47.8381 3.222H49.7981V4.762H47.8101C47.8801 4.496 47.9081 4.23 47.9081 3.936ZM65.4128 6.596C63.5228 6.148 61.9968 5.504 60.8768 4.412C60.6668 4.202 60.4848 3.992 60.3028 3.768C60.4848 3.404 60.6388 3.026 60.7368 2.634H64.4748V1.038H54.5068V2.634H58.7488C58.6788 2.872 58.5808 3.096 58.4688 3.306C57.5728 4.986 55.7388 6.05 53.4568 6.666L54.5068 8.08C55.9768 7.632 57.5448 6.862 58.7628 5.756C59.0008 5.546 59.2108 5.322 59.4208 5.084C59.5608 5.252 59.7148 5.42 59.8688 5.574C61.0868 6.792 62.7528 7.66 64.4328 8.052L65.4128 6.596ZM65.6508 12.154V10.558H60.4428V7.464H58.5388V10.558H53.3308V12.154H65.6508ZM71.4655 4.482C69.4915 4.482 68.0215 5.336 68.0215 6.764C68.0215 7.828 68.8475 8.584 70.0935 8.892C70.2335 8.934 70.3735 8.962 70.5275 8.99V9.816L66.7615 9.858V11.454L76.0015 11.314V9.746L72.4315 9.788V8.976C72.5575 8.962 72.6975 8.934 72.8235 8.892C74.0695 8.584 74.9095 7.828 74.9095 6.764C74.9095 5.336 73.4115 4.482 71.4655 4.482ZM78.2975 13.078V0.533999H76.4215V13.078H78.2975ZM75.7495 4.146V2.578H67.1815V4.146H75.7495ZM69.0435 0.589999V2.158H73.8875V0.589999H69.0435ZM71.4655 7.646C70.5555 7.646 69.8695 7.366 69.8695 6.764C69.8695 6.162 70.5555 5.882 71.4655 5.882C72.3755 5.882 73.0615 6.162 73.0615 6.764C73.0615 7.366 72.3755 7.646 71.4655 7.646Z" fill="#242D3C"/>
<path d="M1.302 45.716C2.478 45.422 3.71 44.764 4.648 43.868L4.886 43.616L4.998 43.714C5.964 44.568 7.294 45.1 8.456 45.24L9.38 43.742C8.064 43.546 6.86 43.196 5.992 42.468L5.796 42.272C5.894 42.09 5.964 41.894 6.034 41.684H8.568V43.14H10.276V45.66H12.152V38.534H10.276V41.6H8.904V40.2H1.092V41.684H4.018C3.822 42.16 3.528 42.566 3.136 42.916C2.422 43.532 1.47 43.98 0.252 44.274L1.302 45.716ZM7.868 45.534C5.516 45.534 3.822 46.738 3.822 48.488C3.822 50.238 5.516 51.442 7.868 51.442C10.22 51.442 11.914 50.238 11.914 48.488C11.914 46.738 10.22 45.534 7.868 45.534ZM7.868 49.93C6.468 49.93 5.698 49.37 5.698 48.488C5.698 47.606 6.468 47.046 7.868 47.046C9.268 47.046 10.038 47.606 10.038 48.488C10.038 49.37 9.268 49.93 7.868 49.93ZM7.42 39.724V38.24H2.716V39.724H7.42ZM24.7567 51.134V46.416H14.8727V48.012H22.8807V51.134H24.7567ZM24.7847 45.856V44.316H26.2687V42.72H24.7847V41.376H26.2687V39.78H24.7847V38.534H22.9087V45.856H24.7847ZM17.5187 38.408C15.4327 38.408 13.7667 39.864 13.7667 41.936C13.7667 44.008 15.4327 45.464 17.5187 45.464C19.6047 45.464 21.2707 44.008 21.2707 41.936C21.2707 39.864 19.6047 38.408 17.5187 38.408ZM17.5187 43.868C16.3567 43.868 15.6427 43.098 15.6427 41.936C15.6427 40.774 16.3567 40.004 17.5187 40.004C18.6807 40.004 19.3947 40.774 19.3947 41.936C19.3947 43.098 18.6807 43.868 17.5187 43.868ZM38.8454 50.994V49.496H30.8374V48.936H38.5654V45.548H28.9614V47.032H36.6894V47.564H28.9614V50.994H38.8454ZM35.7654 43.602C34.4634 43.434 33.3014 43.126 32.4754 42.384L32.2934 42.216C32.3774 42.048 32.4474 41.866 32.5034 41.684H35.0094V43.042H36.7174V45.128H38.5934V38.534H36.7174V41.53H35.3454V40.2H27.5334V41.684H30.4734C30.4594 41.712 30.4594 41.74 30.4454 41.754C29.8294 42.93 28.4994 43.602 26.6934 43.994L27.7434 45.436C28.9194 45.142 30.1654 44.554 31.1174 43.714L31.3414 43.504L31.4674 43.616C32.4054 44.47 33.6934 44.988 34.8414 45.1L35.7654 43.602ZM33.8614 39.724V38.24H29.1574V39.724H33.8614ZM45.0241 42.482C43.0501 42.482 41.5801 43.336 41.5801 44.764C41.5801 45.828 42.4061 46.584 43.6521 46.892C43.7921 46.934 43.9321 46.962 44.0861 46.99V47.816L40.3201 47.858V49.454L49.5601 49.314V47.746L45.9901 47.788V46.976C46.1161 46.962 46.2561 46.934 46.3821 46.892C47.6281 46.584 48.4681 45.828 48.4681 44.764C48.4681 43.336 46.9701 42.482 45.0241 42.482ZM51.8561 51.078V38.534H49.9801V51.078H51.8561ZM49.3081 42.146V40.578H40.7401V42.146H49.3081ZM42.6021 38.59V40.158H47.4461V38.59H42.6021ZM45.0241 45.646C44.1141 45.646 43.4281 45.366 43.4281 44.764C43.4281 44.162 44.1141 43.882 45.0241 43.882C45.9341 43.882 46.6201 44.162 46.6201 44.764C46.6201 45.366 45.9341 45.646 45.0241 45.646ZM62.1228 44.344C61.2128 43.994 60.4148 43.518 59.7008 42.93C59.2108 42.524 58.8188 42.034 58.4968 41.46C58.5388 41.362 58.5668 41.25 58.6088 41.138C58.8748 40.368 59.0148 39.57 59.0288 38.73H57.1248C57.0128 41.376 55.6968 43.644 53.0228 44.792L54.1988 46.136C55.5288 45.506 56.7188 44.498 57.5728 43.224L57.7128 43.028C58.6088 44.26 59.8128 45.24 61.0728 45.772L62.1228 44.344ZM55.4168 46.654V50.938H65.3848V49.342H57.2928V46.654H55.4168ZM65.0348 47.732V38.534H63.1588V47.732H65.0348ZM67.4055 45.716C68.5815 45.422 69.8135 44.764 70.7515 43.868L70.9895 43.616L71.1015 43.714C72.0675 44.568 73.3975 45.1 74.5595 45.24L75.4835 43.742C74.1675 43.546 72.9635 43.196 72.0955 42.468L71.8995 42.272C71.9975 42.09 72.0675 41.894 72.1375 41.684H74.6715V43.14H76.3795V45.66H78.2555V38.534H76.3795V41.6H75.0075V40.2H67.1955V41.684H70.1215C69.9255 42.16 69.6315 42.566 69.2395 42.916C68.5255 43.532 67.5735 43.98 66.3555 44.274L67.4055 45.716ZM73.9715 45.534C71.6195 45.534 69.9255 46.738 69.9255 48.488C69.9255 50.238 71.6195 51.442 73.9715 51.442C76.3235 51.442 78.0175 50.238 78.0175 48.488C78.0175 46.738 76.3235 45.534 73.9715 45.534ZM73.9715 49.93C72.5715 49.93 71.8015 49.37 71.8015 48.488C71.8015 47.606 72.5715 47.046 73.9715 47.046C75.3715 47.046 76.1415 47.606 76.1415 48.488C76.1415 49.37 75.3715 49.93 73.9715 49.93ZM73.5235 39.724V38.24H68.8195V39.724H73.5235ZM91.4482 50.994V45.59H89.5722V46.836H83.7202V45.59H81.8442V50.994H91.4482ZM88.5922 43.364C87.1922 43.112 86.0722 42.692 85.2462 41.894C85.1482 41.796 85.0502 41.684 84.9662 41.572L85.0502 41.404C85.2042 41.11 85.3162 40.788 85.3862 40.452H88.0882V38.94H80.2622V40.452H83.4262C83.2302 41.082 82.8942 41.656 82.4042 42.146C81.6622 42.902 80.6822 43.462 79.4642 43.812L80.5562 45.212C81.6902 44.862 82.9222 44.12 83.8742 43.112L84.0702 42.902C84.4062 43.28 84.7982 43.602 85.2322 43.896C85.9742 44.372 86.7722 44.694 87.6262 44.848L88.5922 43.364ZM87.4162 42.524H89.6002V45.03H91.4762V38.534H89.6002V41.012H87.4162V42.524ZM89.5722 49.426H83.7202V48.32H89.5722V49.426ZM100.105 51.078V46.962H105.313V45.366H92.9929V46.962H98.2009V51.078H100.105ZM104.977 42.888C103.185 42.58 101.631 42.034 100.539 41.054C100.385 40.914 100.231 40.76 100.091 40.606C100.357 40.046 100.511 39.416 100.539 38.716H98.6069C98.4249 41.25 96.1009 42.44 93.1749 42.93L94.1689 44.4C95.6389 44.162 97.1929 43.574 98.4109 42.636C98.6769 42.426 98.9149 42.202 99.1389 41.964L99.5169 42.328C100.707 43.406 102.373 44.176 104.025 44.372L104.977 42.888Z" fill="#242D3C"/>
<path d="M12.39 80.3C10.64 80.16 9.17 79.81 8.036 79.11C7.868 78.998 7.7 78.872 7.546 78.732L7.644 78.522C7.686 78.452 7.714 78.368 7.742 78.298H11.494V76.73H1.722V78.298H5.712C5.67 78.368 5.628 78.452 5.572 78.522C4.746 79.67 3.024 80.076 0.812 80.356L1.624 81.798C3.038 81.658 4.564 81.266 5.796 80.538C6.104 80.356 6.384 80.16 6.636 79.922C6.818 80.09 7.028 80.244 7.238 80.384C8.442 81.196 9.968 81.588 11.522 81.7L12.39 80.3ZM11.48 89.134V84.906H1.428V86.502H9.604V89.134H11.48ZM12.768 83.996V82.428H0.448V83.996H12.768ZM22.5447 85.662C21.5787 85.004 20.7527 84.276 20.0947 83.478C19.5767 82.848 19.1147 82.134 18.7227 81.35C19.1567 79.964 19.3667 78.48 19.3667 76.898H17.4627C17.4627 80.678 16.2727 83.786 13.2767 85.998L14.5367 87.3C16.0347 86.138 17.1687 84.78 17.9667 83.24C18.2747 83.744 18.6247 84.234 19.0027 84.71C19.7167 85.592 20.5007 86.348 21.3827 87.006L22.5447 85.662ZM25.4707 89.078V76.534H23.5947V89.078H25.4707ZM38.0054 83.03V80.272H39.4894V78.676H38.0054V76.534H36.1294V83.03H38.0054ZM36.1014 87.426H30.3894V86.32H36.1014V87.426ZM37.9774 88.994V83.59H36.1014V84.836H30.3894V83.59H28.5134V88.994H37.9774ZM27.4494 76.8V82.736L35.5694 82.358V80.818L29.3254 81.028V76.8H27.4494ZM49.2101 76.758V78.256H43.3301V76.758H41.4541V82.75H51.0861V76.758H49.2101ZM47.2221 89.078V85.354H52.4301V83.758H40.1101V85.354H45.3181V89.078H47.2221ZM43.3301 81.14V79.824H49.2101V81.14H43.3301Z" fill="#242D3C"/>
</svg>
