<svg width="53" height="14" viewBox="0 0 53 14" fill="none" xmlns="http://www.w3.org/2000/svg">
<path d="M9.324 9.662C8.358 9.004 7.532 8.276 6.874 7.478C6.356 6.848 5.894 6.134 5.502 5.35C5.936 3.964 6.146 2.48 6.146 0.897999H4.242C4.242 4.678 3.052 7.786 0.056 9.998L1.316 11.3C2.814 10.138 3.948 8.78 4.746 7.24C5.054 7.744 5.404 8.234 5.782 8.71C6.496 9.592 7.28 10.348 8.162 11.006L9.324 9.662ZM7.602 6.05H10.374V13.078H12.25V0.533999H10.374V4.454H7.602V6.05ZM24.8547 7.198V5.616H16.8747V4.748H24.6447V0.87H14.9987V2.438H22.7827V3.236H14.9987V7.198H24.8547ZM18.3867 12.938V9.634H21.2707V13.078H23.1467V9.634H25.9887V8.066H13.6687V9.634H16.5107V12.938H18.3867ZM34.0854 9.746C33.3154 9.088 32.6574 8.374 32.1254 7.59C31.7194 6.974 31.3834 6.288 31.1034 5.546C31.1874 5.252 31.2574 4.958 31.3274 4.664C31.4814 4.034 31.5794 3.376 31.6494 2.69H33.7354V1.094H27.2534V2.69H29.7874C29.7454 3.222 29.6614 3.74 29.5634 4.23C29.0594 6.778 27.9254 8.836 26.4274 10.222L27.7854 11.328C28.3034 10.796 28.7934 10.194 29.2554 9.536C29.6614 8.948 30.0394 8.304 30.3614 7.604C30.5294 7.954 30.7114 8.29 30.9214 8.612C31.4674 9.508 32.1254 10.306 32.8814 11.006L34.0854 9.746ZM32.7834 6.274H34.5894V12.756H36.4094V0.674H34.5894V4.678H32.7834V6.274ZM38.9994 13.064V0.533999H37.1514V13.064H38.9994ZM52.4301 7.45V6.106H40.1101V7.45H45.3181V8.094H41.3701V9.438H49.2661V9.914H41.3701V12.994H51.4361V11.636H43.2461V11.146H51.1421V8.094H47.2221V7.45H52.4301ZM41.2861 5.798C42.6861 5.742 44.2401 5.504 45.5001 4.972C45.7521 4.86 45.9901 4.734 46.2141 4.608C46.4521 4.762 46.7041 4.902 46.9841 5.028C48.1881 5.546 49.7281 5.756 51.1841 5.7L51.9961 4.328C50.3161 4.3 48.8741 4.216 47.7821 3.768L47.3481 3.558C47.3621 3.516 47.3901 3.488 47.4181 3.446H51.1841V2.046H41.3001V3.446H45.1221C44.8701 3.628 44.5621 3.768 44.1981 3.88C43.2601 4.174 41.9861 4.314 40.5301 4.384L41.2861 5.798ZM48.9861 0.253999H43.4981V1.654H48.9861V0.253999Z" fill="#242D3C"/>
</svg>
