<svg width="95" height="14" viewBox="0 0 95 14" fill="none" xmlns="http://www.w3.org/2000/svg">
<path d="M0.12 12H4.418C6.7 12 8.17 10.488 8.17 8.752C8.17 7.352 7.33 6.414 6.308 6.078C6.938 5.728 7.33 5.028 7.33 4.202C7.33 2.648 6.112 1.36 4.026 1.36H0.12V12ZM4.418 7.072C5.58 7.072 6.322 7.842 6.322 8.752C6.322 9.662 5.58 10.432 4.418 10.432H1.968V7.072H4.418ZM4.026 2.928C4.978 2.928 5.482 3.488 5.482 4.202C5.482 4.916 4.978 5.504 4.026 5.504H1.968V2.928H4.026ZM16.3416 12H18.0356V1.36H16.1876V8.71L11.3296 1.36H9.63563V12H11.4836V4.706L16.3416 12ZM26.7823 12H29.0223L24.0663 6.386L28.6583 1.36H26.4183L22.1203 6.078V1.36H20.2723V12H22.1203V6.792L26.7823 12ZM39.6645 13.078V6.344H41.4425V4.72H39.6645V0.533999H37.7885V13.078H39.6645ZM29.4725 1.038V10.88L37.2285 10.446V8.878L31.3485 9.144V2.606H36.2485V1.038H29.4725ZM50.4492 5.378C50.4492 2.858 48.6992 1.094 46.3892 1.094C44.0792 1.094 42.3292 2.858 42.3292 5.378C42.3292 7.898 44.0792 9.662 46.3892 9.662C48.6992 9.662 50.4492 7.898 50.4492 5.378ZM48.5732 5.378C48.5732 7.002 47.6772 8.066 46.3892 8.066C45.1012 8.066 44.2052 7.002 44.2052 5.378C44.2052 3.754 45.1012 2.69 46.3892 2.69C47.6772 2.69 48.5732 3.754 48.5732 5.378ZM53.7252 13.078V0.533999H51.8492V13.078H53.7252ZM61.9339 7.506V5.966L57.7339 6.148V5.042H60.9119V0.884H55.8859V2.452H59.0639V3.502H55.8859V7.856L61.9339 7.506ZM67.0719 13.134V8.696H56.9079V10.292H65.1959V13.134H67.0719ZM62.6339 8.136H64.4539V0.659999H62.6339V3.292H61.3179V4.916H62.6339V8.136ZM67.0999 8.136V0.533999H65.2519V8.136H67.0999ZM80.8246 12.014V10.418H68.5046V12.014H80.8246ZM79.7606 8.612V7.002H71.7106V5.574H79.3406V3.978H71.6966V2.606H79.4806V1.01H69.8346V8.612H79.7606ZM94.0453 8.962V7.45H88.9073V6.61H92.9113V5.084H84.9313V4.342H92.7013V0.674H83.0553V2.186H90.8253V2.914H83.0553V6.61H87.0033V7.45H81.7253V8.962H94.0453ZM83.1253 9.494V12.938H93.1913V11.342H85.0013V9.494H83.1253Z" fill="#242D3C"/>
</svg>
