<svg width="66" height="14" viewBox="0 0 66 14" fill="none" xmlns="http://www.w3.org/2000/svg">
<path d="M7.616 7.254C5.264 7.254 3.57 8.528 3.57 10.348C3.57 12.182 5.264 13.442 7.616 13.442C9.968 13.442 11.662 12.182 11.662 10.348C11.662 8.528 9.968 7.254 7.616 7.254ZM9.24 5.308C7.84 5.056 6.678 4.636 5.852 3.838C5.754 3.74 5.67 3.656 5.6 3.558L5.642 3.474C5.796 3.152 5.908 2.802 5.992 2.452H8.764V0.94H0.798V2.452H4.032C3.976 2.62 3.92 2.788 3.85 2.942C3.206 4.384 1.862 5.392 0 5.924L1.092 7.324C2.226 6.974 3.486 6.232 4.452 5.21C4.55 5.112 4.634 5 4.718 4.902L4.844 5.028C5.768 5.924 7.014 6.568 8.274 6.792L9.24 5.308ZM11.704 7.38V4.552H13.188V2.956H11.704V0.533999H9.828V7.38H11.704ZM7.616 11.902C6.216 11.902 5.446 11.286 5.446 10.348C5.446 9.41 6.216 8.794 7.616 8.794C9.016 8.794 9.786 9.41 9.786 10.348C9.786 11.286 9.016 11.902 7.616 11.902ZM25.1907 13.078V0.533999H23.3147V13.078H25.1907ZM14.5647 2.634H19.4647C19.1987 5.504 17.2527 8.388 13.9907 9.956L15.1947 11.286C18.6947 9.41 21.4947 5.91 21.4527 1.038H14.5647V2.634ZM33.5394 7.926V6.386L29.3394 6.568V5.238H32.5174V0.884H27.4914V2.452H30.6694V3.698H27.4914V8.276L33.5394 7.926ZM28.9194 8.906V12.938H39.0274V11.342H30.7954V8.906H28.9194ZM34.2394 9.788H36.0594V0.659999H34.2394V3.418H32.9234V5.042H34.2394V9.788ZM38.7054 10.096V0.533999H36.8574V10.096H38.7054ZM47.1101 5.07H42.8261V2.536H47.7261V0.94H40.9501V11.09L48.7761 10.656V9.088L42.8261 9.354V6.652H47.1101V5.07ZM47.8241 6.47H49.7561V13.078H51.6321V0.533999H49.7561V4.846H47.8241V6.47ZM54.0588 2.634H58.8468C58.8048 3.292 58.6788 3.964 58.4548 4.622L53.8348 4.748V6.344L57.6988 6.218C57.5868 6.4 57.4608 6.568 57.3348 6.75C56.4248 8.038 55.0948 9.186 53.3728 9.984L54.6048 11.286C58.0768 9.494 60.9888 6.008 60.8348 1.038H54.0588V2.634ZM64.1528 13.078V6.764H65.9308V5.14H64.1528V0.533999H62.2768V13.078H64.1528Z" fill="#242D3C"/>
</svg>
