<svg width="144" height="15" viewBox="0 0 144 15" fill="none" xmlns="http://www.w3.org/2000/svg">
<path d="M0.12 13H4.418C6.7 13 8.17 11.488 8.17 9.752C8.17 8.352 7.33 7.414 6.308 7.078C6.938 6.728 7.33 6.028 7.33 5.202C7.33 3.648 6.112 2.36 4.026 2.36H0.12V13ZM4.418 8.072C5.58 8.072 6.322 8.842 6.322 9.752C6.322 10.662 5.58 11.432 4.418 11.432H1.968V8.072H4.418ZM4.026 3.928C4.978 3.928 5.482 4.488 5.482 5.202C5.482 5.916 4.978 6.504 4.026 6.504H1.968V3.928H4.026ZM16.3416 13H18.0356V2.36H16.1876V9.71L11.3296 2.36H9.63563V13H11.4836V5.706L16.3416 13ZM26.7823 13H29.0223L24.0663 7.386L28.6583 2.36H26.4183L22.1203 7.078V2.36H20.2723V13H22.1203V7.792L26.7823 13ZM30.9145 9.136V13.994H40.6585V9.136H30.9145ZM33.1265 8.744C33.6025 8.366 34.0365 7.932 34.4285 7.442C34.7505 7.064 35.0305 6.644 35.2825 6.196C35.7725 7.05 36.3885 7.778 37.1305 8.366L38.3205 7.064C37.4805 6.448 36.7945 5.79 36.3185 4.908C36.2205 4.726 36.1365 4.544 36.0665 4.334L36.1785 3.942C36.3605 3.256 36.4585 2.514 36.4865 1.73H34.6665C34.6105 3.046 34.3445 4.194 33.8685 5.16L33.6865 5.51C33.5045 5.37 33.3225 5.216 33.1405 5.034C32.9445 4.824 32.7625 4.6 32.5945 4.334L32.4265 4.026L32.5105 3.732C32.6785 3.116 32.7765 2.444 32.8045 1.73H30.9845C30.8305 4.04 30.0745 5.608 28.4365 6.854L29.6545 8.044C30.0885 7.68 30.4805 7.288 30.8585 6.854C31.1665 6.504 31.4465 6.112 31.6845 5.692L31.9785 6.098C32.2025 6.392 32.4405 6.644 32.6925 6.854C32.4405 7.12 32.1745 7.358 31.8805 7.582L33.1265 8.744ZM37.2145 5.174H38.8665V8.576H40.6865V1.534H38.8665V3.578H37.2145V5.174ZM32.7905 10.704H38.7825V12.398H32.7905V10.704ZM42.7912 3.634H47.5792C47.5372 4.292 47.4112 4.964 47.1872 5.622L42.5672 5.748V7.344L46.4312 7.218C46.3192 7.4 46.1932 7.568 46.0672 7.75C45.1572 9.038 43.8272 10.186 42.1052 10.984L43.3372 12.286C46.8092 10.494 49.7212 7.008 49.5672 2.038H42.7912V3.634ZM52.8852 14.078V7.764H54.6632V6.14H52.8852V1.534H51.0092V14.078H52.8852ZM67.6039 9.962V8.45H62.4659V7.61H66.4699V6.084H58.4899V5.342H66.2599V1.674H56.6139V3.186H64.3839V3.914H56.6139V7.61H60.5619V8.45H55.2839V9.962H67.6039ZM56.6839 10.494V13.938H66.7499V12.342H58.5599V10.494H56.6839ZM70.4786 7.61C70.4786 4.992 71.4586 2.752 72.8726 1.45L72.0326 0.26C69.9886 1.758 68.6586 4.53 68.6586 7.61C68.6586 10.69 69.9746 13.462 72.0326 14.96L72.8726 13.77C71.4446 12.496 70.4786 10.214 70.4786 7.61ZM85.7192 8.324V6.784H73.3992V8.324H78.6072V9.052C78.3692 9.094 78.1452 9.136 77.9212 9.192C76.4092 9.584 75.4292 10.564 75.4292 11.852C75.4292 13.588 77.1652 14.722 79.6152 14.722C82.0652 14.722 83.8012 13.588 83.8012 11.852C83.8012 10.564 82.8212 9.584 81.2952 9.192C81.0432 9.122 80.7772 9.08 80.5112 9.038V8.324H85.7192ZM85.3412 4.88C83.6332 4.824 82.1072 4.572 80.9872 3.928C80.8192 3.83 80.6512 3.704 80.4972 3.578L80.5812 3.424L80.6512 3.27H84.4452V1.73H74.6732V3.27H78.5652L78.5092 3.354C77.6412 4.362 75.8632 4.768 73.7632 4.936L74.5472 6.378C75.8912 6.294 77.4312 5.958 78.6772 5.286C78.9992 5.118 79.2792 4.922 79.5452 4.712C79.7552 4.88 79.9652 5.034 80.2032 5.174C81.4492 5.916 82.9892 6.28 84.5012 6.28L85.3412 4.88ZM79.6152 13.21C78.1032 13.21 77.3052 12.678 77.3052 11.852C77.3052 11.026 78.1032 10.494 79.6152 10.494C81.1272 10.494 81.9252 11.026 81.9252 11.852C81.9252 12.678 81.1272 13.21 79.6152 13.21ZM98.9399 13.154V11.558H92.8499V6.84H90.9459V11.558H86.6199V13.154H98.9399ZM97.0219 10.27C97.5399 7.974 97.7919 5.16 97.7919 2.094H87.7539V3.69H95.8879C95.8879 5.146 95.6919 8.016 95.2019 10.27H97.0219ZM100.569 12.496C101.899 11.67 103.103 10.592 103.957 9.234L103.985 9.192C104.279 9.626 104.601 10.046 104.965 10.424C105.693 11.194 106.547 11.81 107.387 12.202L108.493 10.802C107.499 10.368 106.673 9.822 105.987 9.15C105.525 8.688 105.119 8.142 104.797 7.512C104.867 7.33 104.923 7.162 104.965 6.98C105.091 6.56 105.189 6.126 105.245 5.664H107.989V4.068H100.261V5.664H103.327C103.285 5.958 103.215 6.252 103.145 6.518C102.585 8.576 101.269 10.074 99.3366 11.166L100.569 12.496ZM110.803 14.078V7.904H112.581V6.28H110.803V1.534H108.927V14.078H110.803ZM106.407 3.102V1.506H101.913V3.102H106.407ZM120.131 13.756H121.951V7.568H123.043V14.064H124.891V1.534H123.043V5.944H121.951V1.674H120.131V13.756ZM113.817 2.122V11.866L119.571 11.53V9.962L115.665 10.13V3.718H119.053V2.122H113.817ZM138.602 8.45V7.106H126.282V8.45H131.49V9.094H127.542V10.438H135.438V10.914H127.542V13.994H137.608V12.636H129.418V12.146H137.314V9.094H133.394V8.45H138.602ZM127.458 6.798C128.858 6.742 130.412 6.504 131.672 5.972C131.924 5.86 132.162 5.734 132.386 5.608C132.624 5.762 132.876 5.902 133.156 6.028C134.36 6.546 135.9 6.756 137.356 6.7L138.168 5.328C136.488 5.3 135.046 5.216 133.954 4.768L133.52 4.558C133.534 4.516 133.562 4.488 133.59 4.446H137.356V3.046H127.472V4.446H131.294C131.042 4.628 130.734 4.768 130.37 4.88C129.432 5.174 128.158 5.314 126.702 5.384L127.458 6.798ZM135.158 1.254H129.67V2.654H135.158V1.254ZM141.421 7.61C141.421 10.214 140.455 12.496 139.027 13.77L139.867 14.96C141.925 13.462 143.241 10.69 143.241 7.61C143.241 4.53 141.911 1.758 139.867 0.26L139.027 1.45C140.441 2.752 141.421 4.992 141.421 7.61Z" fill="#242D3C"/>
</svg>
