<svg width="174" height="14" viewBox="0 0 174 14" fill="none" xmlns="http://www.w3.org/2000/svg">
<path d="M0.12 12H4.418C6.7 12 8.17 10.488 8.17 8.752C8.17 7.352 7.33 6.414 6.308 6.078C6.938 5.728 7.33 5.028 7.33 4.202C7.33 2.648 6.112 1.36 4.026 1.36H0.12V12ZM4.418 7.072C5.58 7.072 6.322 7.842 6.322 8.752C6.322 9.662 5.58 10.432 4.418 10.432H1.968V7.072H4.418ZM4.026 2.928C4.978 2.928 5.482 3.488 5.482 4.202C5.482 4.916 4.978 5.504 4.026 5.504H1.968V2.928H4.026ZM16.3416 12H18.0356V1.36H16.1876V8.71L11.3296 1.36H9.63563V12H11.4836V4.706L16.3416 12ZM26.7823 12H29.0223L24.0663 6.386L28.6583 1.36H26.4183L22.1203 6.078V1.36H20.2723V12H22.1203V6.792L26.7823 12ZM39.6645 13.078V6.344H41.4425V4.72H39.6645V0.533999H37.7885V13.078H39.6645ZM29.4725 1.038V10.88L37.2285 10.446V8.878L31.3485 9.144V2.606H36.2485V1.038H29.4725ZM50.4492 5.378C50.4492 2.858 48.6992 1.094 46.3892 1.094C44.0792 1.094 42.3292 2.858 42.3292 5.378C42.3292 7.898 44.0792 9.662 46.3892 9.662C48.6992 9.662 50.4492 7.898 50.4492 5.378ZM48.5732 5.378C48.5732 7.002 47.6772 8.066 46.3892 8.066C45.1012 8.066 44.2052 7.002 44.2052 5.378C44.2052 3.754 45.1012 2.69 46.3892 2.69C47.6772 2.69 48.5732 3.754 48.5732 5.378ZM53.7252 13.078V0.533999H51.8492V13.078H53.7252ZM61.9339 7.506V5.966L57.7339 6.148V5.042H60.9119V0.884H55.8859V2.452H59.0639V3.502H55.8859V7.856L61.9339 7.506ZM67.0719 13.134V8.696H56.9079V10.292H65.1959V13.134H67.0719ZM62.6339 8.136H64.4539V0.659999H62.6339V3.292H61.3179V4.916H62.6339V8.136ZM67.0999 8.136V0.533999H65.2519V8.136H67.0999ZM80.8246 12.014V10.418H68.5046V12.014H80.8246ZM79.7606 8.612V7.002H71.7106V5.574H79.3406V3.978H71.6966V2.606H79.4806V1.01H69.8346V8.612H79.7606ZM87.8573 0.337999C85.3233 0.337999 83.5173 1.794 83.5173 3.712C83.5173 5.63 85.3233 7.086 87.8573 7.086C90.4333 7.086 92.2253 5.63 92.2253 3.712C92.2253 1.794 90.4333 0.337999 87.8573 0.337999ZM88.8373 13.078V9.326H94.0453V7.73H81.7253V9.326H86.9333V13.078H88.8373ZM87.8573 5.518C86.3313 5.518 85.3933 4.678 85.3933 3.712C85.3933 2.746 86.3313 1.906 87.8573 1.906C89.4253 1.906 90.3493 2.746 90.3493 3.712C90.3493 4.678 89.4253 5.518 87.8573 5.518ZM102.058 13.078V8.962H107.266V7.366H94.946V8.962H100.154V13.078H102.058ZM106.93 4.888C105.138 4.58 103.584 4.034 102.492 3.054C102.338 2.914 102.184 2.76 102.044 2.606C102.31 2.046 102.464 1.416 102.492 0.715999H100.56C100.378 3.25 98.054 4.44 95.128 4.93L96.122 6.4C97.592 6.162 99.146 5.574 100.364 4.636C100.63 4.426 100.868 4.202 101.092 3.964L101.47 4.328C102.66 5.406 104.326 6.176 105.978 6.372L106.93 4.888ZM120.487 12.154V10.558H114.397V5.84H112.493V10.558H108.167V12.154H120.487ZM118.569 9.27C119.087 6.974 119.339 4.16 119.339 1.094H109.301V2.69H117.435C117.435 4.146 117.239 7.016 116.749 9.27H118.569ZM128.457 7.856H130.277V5.056H131.355V7.856H133.203V0.533999H131.355V3.432H130.277V0.659999H128.457V7.856ZM133.175 13.134V8.416H123.011V10.012H131.299V13.134H133.175ZM122.059 2.536H125.671C125.377 4.174 123.879 5.868 121.135 6.624L122.115 7.996C125.125 7.058 127.729 4.664 127.687 0.967999H122.059V2.536ZM135.756 7.24C137.156 7.128 138.752 6.778 139.998 6.106C140.264 5.966 140.516 5.812 140.726 5.644C140.908 5.826 141.118 5.98 141.356 6.12C142.56 6.848 144.128 7.17 145.64 7.198L146.592 5.714C144.926 5.602 143.414 5.448 142.322 4.832C142.14 4.72 141.958 4.594 141.804 4.454L141.902 4.272L141.93 4.216H145.78V2.648H135.756V4.216H139.774L139.76 4.23C138.794 5.224 136.918 5.518 134.79 5.742L135.756 7.24ZM141.72 13.078V9.494H146.928V7.926H134.608V9.494H139.816V13.078H141.72ZM137.912 0.393999V1.962H143.624V0.393999H137.912ZM158.651 13.078V6.764H160.429V5.14H158.651V0.533999H156.775V13.078H158.651ZM148.445 2.634H153.345C153.079 5.504 151.133 8.388 147.871 9.956L149.075 11.286C152.575 9.41 155.375 5.91 155.333 1.038H148.445V2.634ZM173.37 8.962V7.45H168.232V6.61H172.236V5.084H164.256V4.342H172.026V0.674H162.38V2.186H170.15V2.914H162.38V6.61H166.328V7.45H161.05V8.962H173.37ZM162.45 9.494V12.938H172.516V11.342H164.326V9.494H162.45Z" fill="#242D3C"/>
</svg>
