<svg width="91" height="19" viewBox="0 0 91 19" fill="none" xmlns="http://www.w3.org/2000/svg">
<path d="M15.444 10.132V1.258H13.032V10.132H15.444ZM3.06 10.852V17.278H15.408V10.852H3.06ZM5.472 12.868H12.996V15.226H5.472V12.868ZM1.728 3.796H7.848C7.272 6.028 4.554 7.792 0.666 8.566L1.8 10.438C6.138 9.52 10.53 6.82 10.476 1.78H1.728V3.796ZM31.866 5.2H21.714V3.49H31.686V1.51H19.302V7.198H24.36V8.314H17.574V10.294H33.414V8.314H26.808V7.198H31.866V5.2ZM25.566 10.834C22.416 10.834 20.184 12.292 20.184 14.524C20.184 16.756 22.416 18.214 25.566 18.214C28.716 18.214 30.948 16.756 30.948 14.524C30.948 12.292 28.716 10.834 25.566 10.834ZM25.566 16.27C23.622 16.27 22.596 15.586 22.596 14.524C22.596 13.462 23.622 12.778 25.566 12.778C27.51 12.778 28.536 13.462 28.536 14.524C28.536 15.586 27.51 16.27 25.566 16.27ZM40.2961 5.542C37.5061 5.542 35.8141 6.748 35.8141 8.53C35.8141 10.312 37.5061 11.518 40.2961 11.518C43.0681 11.518 44.7781 10.312 44.7781 8.53C44.7781 6.748 43.0681 5.542 40.2961 5.542ZM45.2281 7.594H47.3881V8.692H45.2281V10.672H47.3881V13.408H49.8001V1.258H47.3881V5.614H45.2281V7.594ZM37.4341 12.382V17.206H50.2501V15.154H39.8461V12.382H37.4341ZM45.6241 5.164V3.328H34.8241V5.164H45.6241ZM43.2841 2.716V0.879999H37.1641V2.716H43.2841ZM40.2961 9.754C38.8561 9.754 38.1901 9.268 38.1901 8.53C38.1901 7.792 38.8561 7.306 40.2961 7.306C41.7361 7.306 42.4021 7.792 42.4021 8.53C42.4021 9.268 41.7361 9.754 40.2961 9.754ZM58.4844 1.6V9.448L69.2124 8.962V6.946L60.8964 7.216V1.6H58.4844ZM72.3444 10.132V1.258H69.9324V10.132H72.3444ZM59.9604 10.852V17.278H72.3084V10.852H59.9604ZM62.3724 12.868H69.8964V15.226H62.3724V12.868Z" fill="#242D3C"/>
<path d="M84 4L90 10L84 16" stroke="#242D3C" stroke-width="1.5" stroke-linecap="round" stroke-linejoin="round"/>
</svg>
