<svg width="292" height="35" viewBox="0 0 292 35" fill="none" xmlns="http://www.w3.org/2000/svg">
<path d="M26.1126 6.484C28.7306 6.484 30.5086 5.406 30.5086 3.726C30.5086 2.06 28.7306 0.981999 26.1126 0.981999C23.4946 0.981999 21.7306 2.06 21.7306 3.726C21.7306 5.406 23.4946 6.484 26.1126 6.484ZM26.1126 1.906C28.0306 1.906 29.3326 2.606 29.3326 3.726C29.3326 4.846 28.0306 5.56 26.1126 5.56C24.2086 5.56 22.9066 4.846 22.9066 3.726C22.9066 2.606 24.2086 1.906 26.1126 1.906ZM26.6866 8.626H31.8246V7.674H20.4566V8.626H25.5386V13.05H26.6866V8.626ZM42.9676 6.19L43.4436 5.266C41.1616 4.93 38.9216 3.376 38.9216 1.626V0.926H37.7176V1.626C37.7176 3.432 35.5196 4.93 33.2236 5.266L33.6856 6.19C35.6316 5.854 37.5356 4.776 38.3196 3.25C39.1456 4.776 41.0076 5.854 42.9676 6.19ZM38.8656 8.5H44.0036L43.9896 7.548H32.6496V8.5H37.7176V13.05H38.8656V8.5ZM46.0185 2.676H53.6765V2.984C53.6765 4.482 53.6905 6.274 53.2005 8.668L54.3485 8.794C54.8385 6.26 54.8245 4.552 54.8245 2.984V1.738H46.0185V2.676ZM56.1825 11.272V10.334H50.3865V5.84H49.2385V10.334H44.8285V11.272H56.1825ZM67.5914 7.87V0.492H66.4854V3.642H64.8334V0.715999H63.7414V7.814H64.8334V4.58H66.4854V7.87H67.5914ZM62.4534 1.416H57.5534V2.34H61.2774C61.0674 4.426 59.6814 6.106 57.0634 7.17L57.6234 8.01C60.8434 6.652 62.4534 4.454 62.4534 1.416ZM67.5914 8.472H59.1494V9.41H66.4434V13.036H67.5914V8.472ZM82.2711 13.036V0.478H81.1791V13.036H82.2711ZM79.9471 0.758H78.8551V4.734H77.1191V5.658H78.8551V7.604H77.2731C77.2871 7.59 77.2871 7.534 77.2871 7.464V7.324C77.2871 5.588 76.1811 4.412 74.6691 4.412C73.1431 4.412 72.0371 5.588 72.0371 7.324C72.0371 9.046 73.1431 10.222 74.6691 10.222C75.7891 10.222 76.6991 9.592 77.0771 8.528H78.8551V12.42H79.9471V0.758ZM71.5891 3.558H77.7771V2.634H75.2291V0.8H74.0951V2.634H71.5891V3.558ZM74.6691 9.242C73.7171 9.242 73.0451 8.444 73.0451 7.324C73.0451 6.19 73.7171 5.392 74.6691 5.392C75.6211 5.392 76.2791 6.19 76.2791 7.324C76.2791 8.444 75.6071 9.242 74.6691 9.242ZM94.38 8.094V0.492H93.274V3.754H91.594V0.715999H90.502V8.01H91.594V4.692H93.274V8.094H94.38ZM89.774 7.086L89.662 6.162C88.36 6.428 87.226 6.498 85.434 6.498V4.79H89.032V3.908H85.434V2.326H89.172V1.402H84.328V7.436H85.126C87.142 7.436 88.318 7.38 89.774 7.086ZM94.38 8.752H85.938V9.676H93.232V13.036H94.38V8.752ZM101.631 1.262C99.0269 1.262 97.0669 2.662 97.0669 4.734C97.0669 6.834 99.0269 8.206 101.631 8.206C104.235 8.206 106.195 6.834 106.195 4.734C106.195 2.662 104.235 1.262 101.631 1.262ZM101.631 2.2C103.605 2.2 105.103 3.222 105.103 4.734C105.103 6.26 103.605 7.268 101.631 7.268C99.6569 7.268 98.1589 6.26 98.1589 4.734C98.1589 3.222 99.6569 2.2 101.631 2.2ZM107.357 11.37V10.418H95.9469V11.37H107.357ZM119.536 11.482V10.544H114.398V8.178H118.416V7.254H110.688V5.224H118.122V1.402H109.526V2.34H117.002V4.3H109.554V8.178H113.236V10.544H108.126V11.482H119.536ZM134.356 5.252V4.3H132.494V0.492H131.346V9.662H132.494V5.252H134.356ZM129.134 1.458H123.282V2.396H127.902C127.678 4.608 125.718 6.386 122.778 7.31L123.24 8.22C126.866 7.1 129.134 4.706 129.134 1.458ZM133.04 11.818H125.816V8.724H124.668V12.756H133.04V11.818ZM142.013 6.204H144.113V9.816H145.275V0.492H144.113V2.872H142.013V3.796H144.113V5.266H142.013V6.204ZM142.377 7.506L142.307 6.652C141.789 6.722 141.229 6.764 140.669 6.806V2.424H141.915V1.5H135.307V2.424H136.553V6.96C136.273 6.974 136.007 6.974 135.741 6.974H134.971L135.097 7.926C137.113 7.926 139.983 7.884 142.377 7.506ZM137.659 6.946V2.424H139.549V6.876C138.919 6.918 138.275 6.932 137.659 6.946ZM145.597 12.756V11.818H138.373V9.06H137.225V12.756H145.597ZM156.263 9.662H157.411V0.492H156.263V9.662ZM153.953 4.44C153.953 2.634 152.525 1.36 150.663 1.36C148.801 1.36 147.401 2.634 147.401 4.44C147.401 6.26 148.801 7.548 150.663 7.548C152.525 7.548 153.953 6.26 153.953 4.44ZM148.521 4.44C148.521 3.222 149.431 2.354 150.663 2.354C151.909 2.354 152.833 3.222 152.833 4.44C152.833 5.686 151.909 6.554 150.663 6.554C149.431 6.554 148.521 5.686 148.521 4.44ZM157.789 12.756V11.818H150.481V8.724H149.333V12.756H157.789ZM159.93 4.776L160.336 5.686C162.38 5.42 164.27 4.524 164.97 3.152C165.642 4.538 167.546 5.42 169.604 5.686L170.01 4.776C167.812 4.552 165.754 3.432 165.712 2.046H169.618V1.122H160.336V2.046H164.228C164.158 3.432 162.184 4.552 159.93 4.776ZM170.64 7.38V6.456H159.286V7.38H170.64ZM164.956 8.472C162.268 8.472 160.658 9.284 160.658 10.74C160.658 12.21 162.268 13.022 164.956 13.022C167.63 13.022 169.254 12.21 169.254 10.74C169.254 9.284 167.63 8.472 164.956 8.472ZM164.956 12.112C162.982 12.112 161.82 11.636 161.82 10.74C161.82 9.844 162.982 9.368 164.956 9.368C166.93 9.368 168.092 9.844 168.092 10.74C168.092 11.636 166.93 12.112 164.956 12.112ZM181.741 13.064V0.478H180.593V13.064H181.741ZM175.119 1.444C173.257 1.444 171.927 3.152 171.927 5.826C171.927 8.5 173.257 10.208 175.119 10.208C176.981 10.208 178.311 8.5 178.311 5.826C178.311 3.152 176.981 1.444 175.119 1.444ZM175.119 2.48C176.337 2.48 177.205 3.796 177.205 5.826C177.205 7.87 176.337 9.186 175.119 9.186C173.887 9.186 173.019 7.87 173.019 5.826C173.019 3.796 173.887 2.48 175.119 2.48ZM197.653 5.686V4.734H195.805V0.492H194.657V10.096H195.805V5.686H197.653ZM193.957 7.716L193.873 6.876C192.795 7.044 191.647 7.128 190.471 7.198V5.966C191.983 5.784 192.977 4.874 192.977 3.53C192.977 2.06 191.717 1.066 189.883 1.066C188.049 1.066 186.789 2.06 186.789 3.53C186.789 4.874 187.797 5.798 189.323 5.98V7.24C188.147 7.282 187.027 7.296 186.061 7.296L186.215 8.234C188.357 8.234 191.353 8.206 193.957 7.716ZM187.853 3.53C187.853 2.578 188.651 1.934 189.883 1.934C191.059 1.934 191.899 2.578 191.899 3.53C191.899 4.496 191.059 5.126 189.883 5.126C188.651 5.126 187.853 4.496 187.853 3.53ZM196.253 11.804H189.015V9.284H187.867V12.742H196.253V11.804ZM209.65 11.482V10.544H206.57V8.164H208.53V7.226H200.802V5.21H208.236V1.402H199.64V2.34H207.116V4.286H199.668V8.164H201.432V10.544H198.24V11.482H209.65ZM205.436 10.544H202.566V8.164H205.436V10.544ZM220.667 13.064V0.463999H219.519V13.064H220.667ZM215.151 9.284V6.834H217.853V5.896H212.575V2.606H217.797V1.654H211.441V6.834H214.003V9.326C212.771 9.368 211.595 9.368 210.517 9.368L210.657 10.334C213.051 10.334 216.033 10.264 218.791 9.858L218.693 9.018C217.573 9.172 216.383 9.228 215.151 9.284ZM229.22 4.566H231.796V7.632H232.958V0.492H231.796V3.628H229.206C228.982 2.172 227.708 1.192 226.028 1.192C224.18 1.192 222.822 2.396 222.822 4.118C222.822 5.868 224.18 7.072 226.028 7.072C227.75 7.072 228.996 6.064 229.22 4.566ZM226.028 2.144C227.26 2.144 228.156 2.956 228.156 4.118C228.156 5.294 227.26 6.12 226.028 6.12C224.838 6.12 223.928 5.294 223.928 4.118C223.928 2.956 224.838 2.144 226.028 2.144ZM231.586 8.864V8.122H230.466V8.864C230.466 9.844 229.892 11.118 228.688 11.874C227.512 11.188 226.938 9.984 226.938 8.864V8.122H225.832V8.864C225.832 10.096 224.894 11.426 223.312 12.028L223.886 12.882C225.062 12.42 225.916 11.552 226.364 10.544C226.742 11.608 227.47 12.504 228.702 12.994C229.878 12.49 230.62 11.524 231.012 10.502C231.446 11.566 232.314 12.42 233.546 12.882L234.12 12.028C232.51 11.468 231.586 10.166 231.586 8.864ZM245.081 5.322L245.501 4.398C243.261 4.132 241.063 2.704 241.063 1.178V0.618H239.887V1.178C239.887 2.774 237.689 4.132 235.435 4.398L235.855 5.322C237.829 5.028 239.677 4.034 240.475 2.634C241.273 4.034 243.135 5.028 245.081 5.322ZM246.145 7.128V6.204H234.777V7.128H246.145ZM244.661 7.996H243.527V9.466H237.353V7.996H236.219V12.868H244.661V7.996ZM237.353 10.348H243.527V11.944H237.353V10.348ZM257.26 13.022V0.478H256.112V13.022H257.26ZM248.902 8.808V1.696H247.754V9.788H248.79C250.806 9.788 252.752 9.648 254.95 9.2L254.824 8.22C252.738 8.654 250.82 8.808 248.902 8.808ZM268.808 6.386H270.88V5.434H268.808V0.478H267.66V13.064H268.808V6.386ZM260.828 8.948V2.634H265.518V1.682H259.68V9.928H260.674C263.026 9.928 264.706 9.858 266.61 9.48L266.484 8.528C264.678 8.864 263.068 8.948 260.828 8.948ZM9.41743 27.386H11.4894V26.434H9.41743V21.478H8.26943V34.064H9.41743V27.386ZM1.43743 29.948V23.634H6.12743V22.682H0.289427V30.928H1.28343C3.63543 30.928 5.31543 30.858 7.21943 30.48L7.09343 29.528C5.28743 29.864 3.67743 29.948 1.43743 29.948ZM17.6063 21.758C14.8903 21.758 13.1963 22.64 13.1963 24.138C13.1963 25.636 14.8903 26.504 17.6063 26.504C20.3223 26.504 22.0163 25.636 22.0163 24.138C22.0163 22.64 20.3223 21.758 17.6063 21.758ZM17.6063 22.668C19.6363 22.668 20.8403 23.186 20.8403 24.138C20.8403 25.09 19.6363 25.608 17.6063 25.608C15.5763 25.608 14.3723 25.09 14.3723 24.138C14.3723 23.186 15.5763 22.668 17.6063 22.668ZM23.2903 28.506V27.582H11.9363V28.506H23.2903ZM21.9043 33.868V29.738H13.3363V33.868H21.9043ZM14.4563 32.944V30.648H20.7843V32.944H14.4563ZM36.8921 34.064V21.478H35.7441V26.14H32.8041V22.472H31.6841V25.734H28.1841V22.472H27.0501V30.886H32.8041V27.064H35.7441V34.064H36.8921ZM28.1841 26.644H31.6841V29.948H28.1841V26.644ZM40.209 27.26H48.735V26.364H41.357V25.02H48.329V24.152H41.357V22.836H48.665V21.94H40.209V27.26ZM50.065 29.36V28.436H38.711V29.36H50.065ZM48.889 32.818H41.329V30.27H40.181V33.756H48.889V32.818ZM56.5739 26.042C59.3319 26.042 60.9839 25.286 60.9839 23.872C60.9839 22.458 59.3319 21.688 56.5739 21.688C53.8159 21.688 52.1639 22.458 52.1639 23.872C52.1639 25.286 53.8159 26.042 56.5739 26.042ZM56.5739 22.556C58.6599 22.556 59.8079 23.032 59.8079 23.872C59.8079 24.712 58.6599 25.188 56.5739 25.188C54.4879 25.188 53.3399 24.712 53.3399 23.872C53.3399 23.032 54.4879 22.556 56.5739 22.556ZM62.2579 27.82V26.896H50.8899V27.82H62.2579ZM61.1799 33H53.4239V31.726H60.8019V28.898H52.2619V29.766H59.6679V30.886H52.3039V33.896H61.1799V33ZM75.8597 34.05V21.464H74.7117V26.21H72.1217V27.162H74.7117V34.05H75.8597ZM67.2357 30.088V27.078H71.3517V26.154H67.2357V23.564H71.8977V22.612H66.0877V31.026H67.0537C69.4477 31.026 70.9737 30.97 72.7937 30.634L72.6677 29.696C70.9457 29.99 69.5177 30.088 67.2357 30.088ZM87.9826 34.022V21.464H86.8206V34.022H87.9826ZM82.3126 25.538V24.572H85.1826V23.648H82.3266V21.702H81.1646V23.648H78.2666V24.572H81.1786V25.538C81.1786 27.75 79.7926 29.836 77.9306 30.732L78.5746 31.6C80.0306 30.886 81.2066 29.472 81.7666 27.722C82.3406 29.388 83.5166 30.732 84.9726 31.39L85.6166 30.494C83.7406 29.668 82.3126 27.652 82.3126 25.538ZM100.511 34.022V21.464H99.4055V26.77H97.7955V21.758H96.7175V33.42H97.7955V27.708H99.4055V34.022H100.511ZM96.0875 23.62H93.5395V21.842H92.4055V23.62H89.8575V24.558H96.0875V23.62ZM92.9795 25.398C91.4255 25.398 90.2915 26.574 90.2915 28.254C90.2915 29.962 91.4255 31.124 92.9795 31.124C94.5335 31.124 95.6675 29.962 95.6675 28.254C95.6675 26.574 94.5335 25.398 92.9795 25.398ZM92.9795 30.172C92.0135 30.172 91.3135 29.374 91.3135 28.254C91.3135 27.134 91.9715 26.364 92.9795 26.364C93.9455 26.364 94.6455 27.162 94.6455 28.254C94.6455 29.374 93.9455 30.172 92.9795 30.172ZM110.137 27.484C112.755 27.484 114.533 26.406 114.533 24.726C114.533 23.06 112.755 21.982 110.137 21.982C107.519 21.982 105.755 23.06 105.755 24.726C105.755 26.406 107.519 27.484 110.137 27.484ZM110.137 22.906C112.055 22.906 113.357 23.606 113.357 24.726C113.357 25.846 112.055 26.56 110.137 26.56C108.233 26.56 106.931 25.846 106.931 24.726C106.931 23.606 108.233 22.906 110.137 22.906ZM110.711 29.626H115.849V28.674H104.481V29.626H109.563V34.05H110.711V29.626ZM126.992 27.19L127.468 26.266C125.186 25.93 122.946 24.376 122.946 22.626V21.926H121.742V22.626C121.742 24.432 119.544 25.93 117.248 26.266L117.71 27.19C119.656 26.854 121.56 25.776 122.344 24.25C123.17 25.776 125.032 26.854 126.992 27.19ZM122.89 29.5H128.028L128.014 28.548H116.674V29.5H121.742V34.05H122.89V29.5ZM130.043 23.676H137.701V23.984C137.701 25.482 137.715 27.274 137.225 29.668L138.373 29.794C138.863 27.26 138.849 25.552 138.849 23.984V22.738H130.043V23.676ZM140.207 32.272V31.334H134.411V26.84H133.263V31.334H128.853V32.272H140.207ZM151.616 28.87V21.492H150.51V24.642H148.858V21.716H147.766V28.814H148.858V25.58H150.51V28.87H151.616ZM146.478 22.416H141.578V23.34H145.302C145.092 25.426 143.706 27.106 141.088 28.17L141.648 29.01C144.868 27.652 146.478 25.454 146.478 22.416ZM151.616 29.472H143.174V30.41H150.468V34.036H151.616V29.472ZM166.296 34.036V21.478H165.204V34.036H166.296ZM163.972 21.758H162.88V25.734H161.144V26.658H162.88V28.604H161.298C161.312 28.59 161.312 28.534 161.312 28.464V28.324C161.312 26.588 160.206 25.412 158.694 25.412C157.168 25.412 156.062 26.588 156.062 28.324C156.062 30.046 157.168 31.222 158.694 31.222C159.814 31.222 160.724 30.592 161.102 29.528H162.88V33.42H163.972V21.758ZM155.614 24.558H161.802V23.634H159.254V21.8H158.12V23.634H155.614V24.558ZM158.694 30.242C157.742 30.242 157.07 29.444 157.07 28.324C157.07 27.19 157.742 26.392 158.694 26.392C159.646 26.392 160.304 27.19 160.304 28.324C160.304 29.444 159.632 30.242 158.694 30.242ZM178.405 29.094V21.492H177.299V24.754H175.619V21.716H174.527V29.01H175.619V25.692H177.299V29.094H178.405ZM173.799 28.086L173.687 27.162C172.385 27.428 171.251 27.498 169.459 27.498V25.79H173.057V24.908H169.459V23.326H173.197V22.402H168.353V28.436H169.151C171.167 28.436 172.343 28.38 173.799 28.086ZM178.405 29.752H169.963V30.676H177.257V34.036H178.405V29.752ZM180.238 23.494H187.448V22.626H184.424V21.394H183.276V22.626H180.238V23.494ZM189.716 26.238H191.564V25.286H189.716V21.492H188.568V29.906H189.716V26.238ZM187.91 29.052L187.826 28.226C186.706 28.394 185.6 28.478 184.424 28.534V27.666C185.88 27.512 186.776 26.84 186.776 25.818C186.776 24.642 185.6 23.956 183.85 23.956C182.058 23.956 180.91 24.642 180.91 25.818C180.91 26.882 181.82 27.512 183.276 27.666V28.576C182.044 28.618 180.938 28.618 179.93 28.618L180.056 29.542C182.254 29.542 185.222 29.542 187.91 29.052ZM182.002 25.818C182.002 25.16 182.716 24.754 183.85 24.754C184.97 24.754 185.684 25.16 185.684 25.818C185.684 26.476 184.97 26.896 183.85 26.896C182.716 26.896 182.002 26.476 182.002 25.818ZM189.716 30.536H181.456V31.446H188.568V34.036H189.716V30.536ZM201.32 30.662H202.468V21.492H201.32V30.662ZM199.01 25.44C199.01 23.634 197.582 22.36 195.72 22.36C193.858 22.36 192.458 23.634 192.458 25.44C192.458 27.26 193.858 28.548 195.72 28.548C197.582 28.548 199.01 27.26 199.01 25.44ZM193.578 25.44C193.578 24.222 194.488 23.354 195.72 23.354C196.966 23.354 197.89 24.222 197.89 25.44C197.89 26.686 196.966 27.554 195.72 27.554C194.488 27.554 193.578 26.686 193.578 25.44ZM202.846 33.756V32.818H195.538V29.724H194.39V33.756H202.846ZM210.013 26.042C212.771 26.042 214.423 25.286 214.423 23.872C214.423 22.458 212.771 21.688 210.013 21.688C207.255 21.688 205.603 22.458 205.603 23.872C205.603 25.286 207.255 26.042 210.013 26.042ZM210.013 22.556C212.099 22.556 213.247 23.032 213.247 23.872C213.247 24.712 212.099 25.188 210.013 25.188C207.927 25.188 206.779 24.712 206.779 23.872C206.779 23.032 207.927 22.556 210.013 22.556ZM215.697 27.82V26.896H204.329V27.82H215.697ZM214.619 33H206.863V31.726H214.241V28.898H205.701V29.766H213.107V30.886H205.743V33.896H214.619V33ZM228.109 30.676H229.257V21.492H228.109V30.676ZM226.065 28.884L226.625 27.974C224.777 27.372 223.475 25.818 223.475 24.138V23.452H226.317V22.528H219.429V23.452H222.299V24.138C222.299 25.944 221.025 27.554 219.121 28.226L219.723 29.122C221.235 28.576 222.355 27.484 222.901 26.028C223.475 27.372 224.609 28.38 226.065 28.884ZM229.635 33.756V32.818H222.327V29.808H221.179V33.756H229.635ZM237.936 28.982H239.028V25.832H240.624V29.43H241.73V21.478H240.624V24.894H239.028V21.73H237.936V28.982ZM231.062 23.886H237.446V22.976H234.828V21.576H233.694V22.976H231.062V23.886ZM236.942 26.686C236.942 25.398 235.85 24.544 234.268 24.544C232.686 24.544 231.58 25.398 231.58 26.686C231.58 27.988 232.686 28.842 234.268 28.842C235.85 28.842 236.942 27.988 236.942 26.686ZM232.616 26.686C232.616 25.902 233.26 25.398 234.268 25.398C235.276 25.398 235.92 25.902 235.92 26.686C235.92 27.47 235.276 27.988 234.268 27.988C233.26 27.988 232.616 27.47 232.616 26.686ZM237.6 29.64C234.982 29.64 233.4 30.438 233.4 31.838C233.4 33.238 234.982 34.022 237.6 34.022C240.218 34.022 241.8 33.238 241.8 31.838C241.8 30.438 240.218 29.64 237.6 29.64ZM237.6 33.14C235.682 33.14 234.534 32.678 234.534 31.838C234.534 30.998 235.682 30.522 237.6 30.522C239.518 30.522 240.652 30.998 240.652 31.838C240.652 32.678 239.518 33.14 237.6 33.14ZM253.951 34.022V21.464H252.845V26.77H251.235V21.758H250.157V33.42H251.235V27.708H252.845V34.022H253.951ZM249.527 23.62H246.979V21.842H245.845V23.62H243.297V24.558H249.527V23.62ZM246.419 25.398C244.865 25.398 243.731 26.574 243.731 28.254C243.731 29.962 244.865 31.124 246.419 31.124C247.973 31.124 249.107 29.962 249.107 28.254C249.107 26.574 247.973 25.398 246.419 25.398ZM246.419 30.172C245.453 30.172 244.753 29.374 244.753 28.254C244.753 27.134 245.411 26.364 246.419 26.364C247.385 26.364 248.085 27.162 248.085 28.254C248.085 29.374 247.385 30.172 246.419 30.172ZM256.176 26.672L256.61 27.582C258.57 27.246 260.39 26.21 261.174 24.712C261.916 26.21 263.792 27.246 265.738 27.582L266.186 26.672C263.974 26.336 261.804 24.908 261.804 23.256V23.186H265.738V22.262H256.568V23.186H260.53V23.256C260.53 24.908 258.36 26.336 256.176 26.672ZM261.72 29.57H266.858L266.844 28.632H255.504V29.57H260.572V34.036H261.72V29.57ZM278.337 34.036V21.478H277.245V34.036H278.337ZM275.775 21.758H274.697V25.986H272.625V26.938H274.697V33.42H275.775V21.758ZM271.393 25.02V22.668H270.287V25.062C270.287 27.232 269.251 29.472 267.529 30.48L268.243 31.348C269.489 30.564 270.399 29.178 270.847 27.484C271.295 29.01 272.135 30.34 273.325 31.068L273.983 30.172C272.345 29.164 271.393 27.036 271.393 25.02ZM291.244 32.426V31.474H288.43V28.072C289.494 27.526 290.082 26.63 290.082 25.496C290.082 23.55 288.192 22.276 285.518 22.276C282.858 22.276 280.954 23.55 280.954 25.496C280.954 26.63 281.57 27.54 282.634 28.086V31.474H279.834V32.426H291.244ZM285.518 23.172C287.534 23.172 288.99 24.096 288.99 25.496C288.99 26.896 287.534 27.82 285.518 27.82C283.502 27.82 282.06 26.896 282.06 25.496C282.06 24.096 283.502 23.172 285.518 23.172ZM287.282 31.474H283.782V28.52C284.328 28.646 284.902 28.716 285.518 28.716C286.092 28.716 286.68 28.646 287.282 28.52V31.474Z" fill="#666666"/>
</svg>
