<svg width="196" height="61" viewBox="0 0 196 61" fill="none" xmlns="http://www.w3.org/2000/svg">
<path d="M48.4089 0.497999H45.7309V13.706H48.4089V0.497999ZM41.3629 1.928H30.5209V4.086H38.5029C38.2602 5.87133 37.3675 7.44867 35.8249 8.818C34.2995 10.1873 32.1069 11.236 29.2469 11.964L30.2609 14.07C32.0115 13.6193 33.5715 13.0213 34.9409 12.276C36.3102 11.5307 37.4715 10.6467 38.4249 9.624C39.3782 8.60133 40.1062 7.44867 40.6089 6.166C41.1115 4.866 41.3629 3.45333 41.3629 1.928ZM33.0689 14.772V23.716H48.4089V14.772H33.0689ZM35.7209 21.558V16.904H45.7829V21.558H35.7209ZM70.3248 11.704V1.434H67.6468V4.398H56.9088V1.434H54.2308V11.704H70.3248ZM67.6468 6.556V9.546H56.9088V6.556H67.6468ZM72.9508 16.41V14.252H51.6568V16.41H60.8868V24.028H63.5648V16.41H72.9508ZM95.9588 7.544H92.6308V0.497999H89.9528V17.814H92.6308V9.754H95.9588V7.544ZM86.7808 14.148L88.1328 12.016C87.2488 11.704 86.4601 11.2967 85.7668 10.794C85.0735 10.2913 84.4841 9.71933 83.9988 9.078C83.5308 8.43667 83.1668 7.74333 82.9068 6.998C82.6641 6.25267 82.5428 5.49 82.5428 4.71V1.954H79.8388V4.684C79.8388 5.53333 79.7088 6.36533 79.4488 7.18C79.2061 7.99467 78.8421 8.74867 78.3568 9.442C77.8715 10.1353 77.2648 10.7507 76.5368 11.288C75.8261 11.8253 75.0028 12.25 74.0668 12.562L75.5228 14.642C76.9268 14.1393 78.1055 13.4113 79.0588 12.458C80.0121 11.5047 80.7401 10.378 81.2428 9.078C81.7628 10.222 82.4908 11.2447 83.4268 12.146C84.3628 13.03 85.4808 13.6973 86.7808 14.148ZM80.4888 21.376V16.15H77.8108V23.56H93.5668V21.376H80.4888ZM117.657 4.892V5.022C117.657 6.40867 117.614 7.96867 117.527 9.702C117.458 11.4353 117.198 13.4547 116.747 15.76L119.451 16.046C119.677 14.8327 119.85 13.7147 119.971 12.692C120.093 11.652 120.179 10.69 120.231 9.806C120.301 8.90467 120.335 8.064 120.335 7.284C120.353 6.504 120.361 5.75 120.361 5.022V2.708H103.643V4.892H117.657ZM122.649 18.724H112.041V10.456H109.337V18.724H101.433V20.934H122.649V18.724ZM143.915 0.523999H141.367V6.218H138.767V0.966H136.245V14.2H138.767V8.402H141.367V14.304H143.915V0.523999ZM134.243 2.214H125.039V4.372H131.487C131.262 6.20933 130.543 7.804 129.329 9.156C128.133 10.508 126.357 11.652 123.999 12.588L125.273 14.512C128.359 13.2987 130.621 11.6867 132.059 9.676C133.515 7.66533 134.243 5.178 134.243 2.214ZM127.951 15.37V17.528H141.237V24.028H143.915V15.37H127.951ZM166.013 0.523999H163.309V13.758H166.013V0.523999ZM161.385 11.21L161.073 9.052C159.357 9.39867 157.667 9.65 156.003 9.806C154.357 9.94467 152.606 10.0227 150.751 10.04V1.876H148.073V12.276H150.023C152.086 12.276 154.027 12.198 155.847 12.042C157.667 11.8687 159.513 11.5913 161.385 11.21ZM150.621 14.824V23.716H166.013V14.824H150.621ZM153.273 21.558V16.956H163.387V21.558H153.273ZM19.7276 53.71V36.55H17.0496V53.71H19.7276ZM13.2276 50.018L14.6056 47.886C13.7043 47.574 12.8983 47.158 12.1876 46.638C11.4943 46.1007 10.905 45.494 10.4196 44.818C9.93428 44.1247 9.56162 43.388 9.30162 42.608C9.05895 41.8107 8.93762 40.996 8.93762 40.164V37.824H6.20762V40.164C6.20762 41.0307 6.07762 41.88 5.81762 42.712C5.57495 43.5267 5.21095 44.2893 4.72562 45C4.24028 45.7107 3.63362 46.352 2.90562 46.924C2.19495 47.496 1.38028 47.9553 0.461617 48.302L1.83962 50.46C3.24362 49.94 4.42228 49.1773 5.37562 48.172C6.32895 47.1493 7.07428 45.9793 7.61162 44.662C8.11428 45.91 8.83362 46.9933 9.76962 47.912C10.723 48.8133 11.8756 49.5153 13.2276 50.018ZM20.4036 57.376H7.09162V52.098H4.38762V59.56H20.4036V57.376ZM44.2176 47.938H39.1476V44.844C40.0489 44.4453 40.7423 43.96 41.2276 43.388C41.7303 42.7987 41.9816 42.114 41.9816 41.334C41.9816 40.6407 41.7823 40.0253 41.3836 39.488C41.0023 38.9333 40.4476 38.4653 39.7196 38.084C38.9916 37.7027 38.1076 37.4167 37.0676 37.226C36.0449 37.018 34.8923 36.914 33.6096 36.914C32.3269 36.914 31.1656 37.018 30.1256 37.226C29.1029 37.4167 28.2276 37.7027 27.4996 38.084C26.7716 38.4653 26.2083 38.9333 25.8096 39.488C25.4283 40.0253 25.2376 40.6407 25.2376 41.334C25.2376 42.114 25.4803 42.7987 25.9656 43.388C26.4509 43.96 27.1356 44.4367 28.0196 44.818V47.938H22.9756V50.07H44.2176V47.938ZM33.6096 38.994C35.3949 38.994 36.7729 39.1933 37.7436 39.592C38.7143 39.9733 39.1996 40.554 39.1996 41.334C39.1996 42.114 38.7143 42.7033 37.7436 43.102C36.7729 43.5007 35.3949 43.7 33.6096 43.7C31.8243 43.7 30.4376 43.5007 29.4496 43.102C28.4789 42.7033 27.9936 42.114 27.9936 41.334C27.9936 40.554 28.4789 39.9733 29.4496 39.592C30.4376 39.1933 31.8243 38.994 33.6096 38.994ZM30.6976 47.938V45.546C31.1309 45.6153 31.5903 45.6673 32.0756 45.702C32.5783 45.7367 33.0896 45.754 33.6096 45.754C34.1296 45.754 34.6236 45.7367 35.0916 45.702C35.5769 45.6673 36.0363 45.6153 36.4696 45.546V47.938H30.6976ZM33.5576 51.578C30.9576 51.578 28.9556 51.942 27.5516 52.67C26.1649 53.398 25.4716 54.438 25.4716 55.79C25.4716 56.466 25.6536 57.064 26.0176 57.584C26.3989 58.104 26.9363 58.546 27.6296 58.91C28.3229 59.274 29.1636 59.5427 30.1516 59.716C31.1569 59.9067 32.2923 60.002 33.5576 60.002C36.1749 60.002 38.1769 59.638 39.5636 58.91C40.9503 58.182 41.6436 57.142 41.6436 55.79C41.6436 54.438 40.9503 53.398 39.5636 52.67C38.1769 51.942 36.1749 51.578 33.5576 51.578ZM33.5576 57.948C31.8243 57.948 30.4983 57.7747 29.5796 57.428C28.6609 57.064 28.2016 56.518 28.2016 55.79C28.2016 55.062 28.6609 54.5247 29.5796 54.178C30.4983 53.814 31.8243 53.632 33.5576 53.632C35.2909 53.632 36.6169 53.814 37.5356 54.178C38.4716 54.5247 38.9396 55.062 38.9396 55.79C38.9396 56.518 38.4716 57.064 37.5356 57.428C36.6169 57.7747 35.2909 57.948 33.5576 57.948ZM46.5296 48.224L47.6476 50.356C49.5716 49.9747 51.2876 49.264 52.7956 48.224C54.3036 47.184 55.4476 45.9013 56.2276 44.376C57.0076 45.9013 58.1516 47.1753 59.6596 48.198C61.1849 49.2033 62.9442 49.8967 64.9376 50.278L66.0296 48.146C64.8682 47.9553 63.7762 47.6347 62.7536 47.184C61.7309 46.716 60.8382 46.1527 60.0756 45.494C59.3302 44.818 58.7322 44.0727 58.2816 43.258C57.8482 42.4433 57.6316 41.594 57.6316 40.71V40.658H65.0936V38.5H47.3616V40.658H54.8236V40.71C54.8236 41.594 54.6069 42.452 54.1736 43.284C53.7402 44.0987 53.1422 44.844 52.3796 45.52C51.6342 46.196 50.7589 46.768 49.7536 47.236C48.7482 47.704 47.6736 48.0333 46.5296 48.224ZM66.8876 54.932H57.6056V49.446H54.9016V54.932H45.6196V57.116H66.8876V54.932ZM87.5555 36.498H84.8515V60.002H87.5555V36.498ZM83.0315 41.412V39.254H77.2855V36.55H74.6075V39.254H68.8355V41.412H83.0315ZM77.2855 53.424V51.214C78.6375 51.006 79.7035 50.5293 80.4835 49.784C81.2809 49.0213 81.6795 48.068 81.6795 46.924C81.6795 46.2653 81.5409 45.6673 81.2635 45.13C80.9862 44.5927 80.5962 44.1333 80.0935 43.752C79.5909 43.3707 78.9842 43.076 78.2735 42.868C77.5802 42.66 76.8089 42.556 75.9595 42.556C75.1102 42.556 74.3302 42.66 73.6195 42.868C72.9262 43.076 72.3195 43.3707 71.7995 43.752C71.2969 44.1333 70.9069 44.5927 70.6295 45.13C70.3522 45.6673 70.2135 46.2653 70.2135 46.924C70.2135 48.068 70.6035 49.0213 71.3835 49.784C72.1809 50.5293 73.2555 51.006 74.6075 51.214V53.502C73.4982 53.5367 72.4149 53.5627 71.3575 53.58C70.3002 53.58 69.3035 53.58 68.3675 53.58L68.7055 55.79C69.7802 55.79 70.9155 55.7813 72.1115 55.764C73.3249 55.7467 74.5729 55.7033 75.8555 55.634C77.1555 55.5647 78.4642 55.4693 79.7815 55.348C81.0989 55.2267 82.4075 55.0533 83.7075 54.828L83.5255 52.878C82.5202 53.0167 81.4889 53.1293 80.4315 53.216C79.3915 53.2853 78.3429 53.3547 77.2855 53.424ZM72.7615 46.924C72.7615 46.196 73.0562 45.6327 73.6455 45.234C74.2349 44.818 75.0062 44.61 75.9595 44.61C76.8955 44.61 77.6582 44.818 78.2475 45.234C78.8369 45.6327 79.1315 46.196 79.1315 46.924C79.1315 47.652 78.8369 48.224 78.2475 48.64C77.6582 49.056 76.8955 49.264 75.9595 49.264C75.0062 49.264 74.2349 49.056 73.6455 48.64C73.0562 48.224 72.7615 47.652 72.7615 46.924ZM112.114 41.568H107.98V43.752H112.114V48.562H114.818V36.524H112.114V41.568ZM107.98 48.432L109.228 46.352C108.379 46.0747 107.607 45.7107 106.914 45.26C106.238 44.8093 105.666 44.3067 105.198 43.752C104.73 43.1973 104.366 42.5993 104.106 41.958C103.863 41.3167 103.742 40.6667 103.742 40.008V39.748H108.656V37.59H96.0979V39.748H101.038V39.982C101.038 40.6753 100.908 41.3687 100.648 42.062C100.388 42.7553 100.007 43.414 99.5039 44.038C99.0186 44.6447 98.4206 45.1993 97.7099 45.702C97.0166 46.1873 96.2193 46.5773 95.3179 46.872L96.6179 48.952C98.0219 48.5013 99.2093 47.834 100.18 46.95C101.151 46.0487 101.896 45 102.416 43.804C102.919 44.8613 103.638 45.7973 104.574 46.612C105.527 47.4093 106.663 48.016 107.98 48.432ZM115.598 57.662H102.208V55.582H114.818V49.628H99.5299V51.734H112.166V53.606H99.5559V59.768H115.598V57.662ZM139.828 48.146V45.936H136.162V36.498H133.484V60.002H136.162V48.146H139.828ZM126.1 43.986V42.634H131.066V40.476H126.1V36.992H123.422V40.476H118.378V42.634H123.422V43.986C123.422 44.9393 123.283 45.8927 123.006 46.846C122.746 47.7993 122.365 48.7007 121.862 49.55C121.377 50.382 120.779 51.1447 120.068 51.838C119.357 52.514 118.551 53.0687 117.65 53.502L119.132 55.556C120.484 54.932 121.637 54.0133 122.59 52.8C123.543 51.5867 124.28 50.2173 124.8 48.692C125.285 50.1133 125.979 51.396 126.88 52.54C127.799 53.6667 128.891 54.5333 130.156 55.14L131.638 53.086C130.771 52.67 129.991 52.1327 129.298 51.474C128.622 50.798 128.041 50.0613 127.556 49.264C127.088 48.4493 126.724 47.5913 126.464 46.69C126.221 45.7887 126.1 44.8873 126.1 43.986ZM166.726 44.22H163.502V36.55H160.824V54.49H163.502V46.43H166.726V44.22ZM159.628 50.226L159.446 48.276C158.51 48.4147 157.54 48.5273 156.534 48.614C155.546 48.7007 154.55 48.7787 153.544 48.848V46.82C154.203 46.716 154.801 46.534 155.338 46.274C155.893 45.9967 156.361 45.6587 156.742 45.26C157.141 44.8613 157.444 44.402 157.652 43.882C157.86 43.362 157.964 42.8073 157.964 42.218C157.964 41.5247 157.817 40.892 157.522 40.32C157.245 39.748 156.846 39.254 156.326 38.838C155.824 38.422 155.217 38.1013 154.506 37.876C153.796 37.6507 153.016 37.538 152.166 37.538C151.317 37.538 150.537 37.6507 149.826 37.876C149.116 38.1013 148.5 38.422 147.98 38.838C147.46 39.254 147.053 39.748 146.758 40.32C146.481 40.892 146.342 41.5247 146.342 42.218C146.342 42.8073 146.446 43.362 146.654 43.882C146.88 44.402 147.192 44.8613 147.59 45.26C147.989 45.6587 148.466 45.9967 149.02 46.274C149.575 46.534 150.19 46.716 150.866 46.82V48.952C149.809 48.9867 148.786 49.0127 147.798 49.03C146.828 49.03 145.918 49.03 145.068 49.03L145.406 51.214C146.394 51.214 147.46 51.2053 148.604 51.188C149.748 51.1707 150.936 51.1273 152.166 51.058C153.397 50.9887 154.645 50.8933 155.91 50.772C157.176 50.6333 158.415 50.4513 159.628 50.226ZM148.838 42.218C148.838 41.386 149.142 40.736 149.748 40.268C150.372 39.8 151.178 39.566 152.166 39.566C153.154 39.566 153.952 39.8 154.558 40.268C155.165 40.736 155.468 41.386 155.468 42.218C155.468 43.05 155.165 43.7087 154.558 44.194C153.952 44.662 153.154 44.896 152.166 44.896C151.178 44.896 150.372 44.662 149.748 44.194C149.142 43.7087 148.838 43.05 148.838 42.218ZM150.996 57.376V52.956H148.318V59.534H164.308V57.376H150.996ZM189.006 55.036H183.546V50.98H187.004V48.822H172.938V45.572H186.484V38.162H170.26V40.32H183.832V43.44H170.312V50.98H173.432V55.036H167.738V57.246H189.006V55.036ZM176.084 55.036V50.98H180.894V55.036H176.084ZM194.49 52.644L195.01 38.422H191.994L192.072 41.49L192.488 52.644H194.49ZM191.968 58.338H195.036V55.114H191.968V58.338Z" fill="black"/>
</svg>
