<svg width="26" height="25" viewBox="0 0 26 25" fill="none" xmlns="http://www.w3.org/2000/svg">
<path d="M23.4 20.4948V12.6688C23.4 12.1243 23.2845 11.5855 23.0604 11.0855C22.8363 10.5855 22.5084 10.1347 22.0968 9.76077L14.4289 2.79278C14.0427 2.44171 13.5314 2.24609 13 2.24609C12.4685 2.24609 11.9572 2.44171 11.571 2.79278L3.90309 9.76077C3.49149 10.1347 3.16361 10.5855 2.93953 11.0855C2.71546 11.5855 2.59992 12.1243 2.59998 12.6688V20.4948C2.59998 21.0252 2.81912 21.5339 3.20919 21.909C3.59927 22.284 4.12832 22.4948 4.67997 22.4948H21.32C21.8716 22.4948 22.4007 22.284 22.7907 21.909C23.1808 21.5339 23.4 21.0252 23.4 20.4948Z" stroke="black" stroke-width="2" stroke-linecap="round" stroke-linejoin="round"/>
</svg>
