<svg width="28" height="14" viewBox="0 0 28 14" fill="none" xmlns="http://www.w3.org/2000/svg">
<path opacity="0.5" fill-rule="evenodd" clip-rule="evenodd" d="M0.957773 2.49344C0.5 3.39186 0.5 4.57797 0.5 6.9502C0.5 9.32242 0.5 10.5085 0.957773 11.407C1.36044 12.1972 2.00296 12.8398 2.79324 13.2424C3.69167 13.7002 4.86778 13.7002 7.22 13.7002H18.58C20.9322 13.7002 22.1083 13.7002 23.0068 13.2424C23.797 12.8398 24.4396 12.1972 24.8422 11.407C25.3 10.5085 25.3 9.32242 25.3 6.9502C25.3 4.57797 25.3 3.39186 24.8422 2.49344C24.4396 1.70315 23.797 1.06064 23.0068 0.657968C22.1083 0.200195 20.9322 0.200195 18.58 0.200195H7.22C4.86778 0.200195 3.69167 0.200195 2.79324 0.657968C2.00296 1.06064 1.36044 1.70315 0.957773 2.49344ZM27.662 6.9502C27.662 7.82333 27.1387 8.61142 26.334 8.9502V4.9502C27.1387 5.28897 27.662 6.07706 27.662 6.9502ZM19.8159 6.94043L19.8159 6.95166C19.8159 7.13373 19.81 7.31107 19.7984 7.48346C19.6433 9.83231 18.4636 11.208 16.5984 11.208C14.7584 11.208 13.5854 9.87392 13.4052 7.57483C13.389 7.37391 13.3809 7.16606 13.3809 6.95166V6.94405C13.3809 6.94097 13.3808 6.93789 13.3808 6.93481C13.3808 4.25073 14.605 2.6897 16.5984 2.6897C18.5728 2.6897 19.7993 4.22976 19.8157 6.88621C19.8159 6.90423 19.8159 6.9223 19.8159 6.94043ZM16.5984 9.82666C15.6734 9.82666 15.101 8.85846 15.0991 6.94441V6.94043C15.0991 6.44666 15.1385 6.00811 15.2147 5.63079C15.4268 4.59545 15.9195 4.07666 16.5984 4.07666C17.5249 4.07666 18.0976 5.02563 18.0976 6.93481C18.0976 8.85522 17.5305 9.82666 16.5984 9.82666ZM11.751 2.89746H11.7734V4.29004H8.02808L7.82031 6.46875H7.92139C8.2583 5.95776 8.85352 5.65454 9.6958 5.65454C10.6837 5.65454 11.5314 6.1647 11.9439 7.0444C12.1307 7.41791 12.2339 7.85218 12.2339 8.32739V8.33862C12.2339 9.43138 11.7184 10.3009 10.8702 10.7853C10.3998 11.0576 9.82292 11.208 9.16797 11.208C9.16609 11.208 9.16421 11.208 9.16233 11.208C9.16047 11.208 9.15861 11.208 9.15674 11.208C7.85684 11.208 6.88786 10.6281 6.44341 9.76816C6.27447 9.44633 6.17745 9.08326 6.16382 8.69238H7.73047C7.82031 9.37744 8.39868 9.82104 9.15112 9.82104C10.0046 9.82104 10.5942 9.23145 10.5942 8.33862C10.5942 7.81197 10.3804 7.39222 10.0287 7.14284C9.79212 6.98433 9.49831 6.89551 9.16797 6.89551C8.95344 6.89551 8.75583 6.92781 8.57755 6.9916C8.49772 7.02057 8.42199 7.05541 8.35068 7.09572C8.2761 7.13834 8.20592 7.18768 8.14039 7.24365C8.11318 7.26582 8.08652 7.28889 8.06056 7.31283C7.9559 7.41478 7.86766 7.53293 7.79785 7.66479H7.77915C7.77403 7.67409 7.76903 7.68345 7.76416 7.69287H6.30982L6.31202 7.66479H6.28174L6.50612 5.19076L6.68604 2.89746H6.71411H11.751Z" fill="black"/>
<path fill-rule="evenodd" clip-rule="evenodd" d="M0.957773 2.49344C0.5 3.39186 0.5 4.57797 0.5 6.9502C0.5 9.32242 0.5 10.5085 0.957773 11.407C1.36044 12.1972 2.00296 12.8398 2.79324 13.2424C3.69167 13.7002 4.86778 13.7002 7.22 13.7002H12.9V0.200195H7.22C4.86778 0.200195 3.69167 0.200195 2.79324 0.657968C2.00296 1.06064 1.36044 1.70315 0.957773 2.49344ZM12.2339 8.33862C12.2339 10.0457 10.9761 11.208 9.15674 11.208C7.42164 11.208 6.27613 10.1748 6.18067 8.82153L6.17505 8.74292H7.71363L7.72486 8.78223C7.84278 9.37744 8.39869 9.85474 9.16236 9.85474C10.0327 9.85474 10.6392 9.24268 10.6392 8.37231V8.36108C10.6392 7.49634 10.0271 6.89551 9.16797 6.89551C8.75806 6.89551 8.40992 7.01343 8.14039 7.24365C7.98877 7.36719 7.85401 7.5188 7.76416 7.69287H6.30982L6.68604 2.89746H11.751V4.24512H8.00562L7.80347 6.55298H7.90455C8.23023 6.0083 8.85914 5.67139 9.63404 5.67139C11.1445 5.67139 12.2339 6.7832 12.2339 8.32739V8.33862Z" fill="black"/>
</svg>
