<svg width="29" height="13" viewBox="0 0 29 13" fill="none" xmlns="http://www.w3.org/2000/svg">
<path d="M1.88135 12.1001H4.12256L9.24414 1.90674V0.12207H0.910156V1.87354H7.08594V2.00635L1.88135 12.1001ZM12.2969 4.33887C13.0605 4.33887 13.6167 3.75781 13.6167 3.02734C13.6167 2.28857 13.0605 1.71582 12.2969 1.71582C11.5415 1.71582 10.9771 2.28857 10.9771 3.02734C10.9771 3.75781 11.5415 4.33887 12.2969 4.33887ZM12.2969 10.498C13.0605 10.498 13.6167 9.92529 13.6167 9.18652C13.6167 8.44775 13.0605 7.875 12.2969 7.875C11.5415 7.875 10.9771 8.44775 10.9771 9.18652C10.9771 9.92529 11.5415 10.498 12.2969 10.498ZM18.7778 12.1001H20.9194V0.12207H18.7861L15.6567 2.32178V4.33887L18.6367 2.23047H18.7778V12.1001ZM26.6782 12.1001H28.8198V0.12207H26.6865L23.5571 2.32178V4.33887L26.5371 2.23047H26.6782V12.1001Z" fill="black"/>
</svg>
