<svg width="18" height="13" viewBox="0 0 18 13" fill="none" xmlns="http://www.w3.org/2000/svg">
<path fill-rule="evenodd" clip-rule="evenodd" d="M8.65046 3.3923C11.088 3.39241 13.4323 4.32417 15.1989 5.995C15.3319 6.12399 15.5446 6.12236 15.6756 5.99135L16.9472 4.71462C17.0136 4.64817 17.0505 4.55816 17.05 4.46451C17.0494 4.37086 17.0114 4.28128 16.9443 4.21561C12.3076 -0.205007 4.99262 -0.205007 0.355902 4.21561C0.288736 4.28123 0.250627 4.37078 0.250008 4.46443C0.249388 4.55809 0.28631 4.64813 0.352602 4.71462L1.6246 5.99135C1.75553 6.12256 1.96833 6.12419 2.10128 5.995C3.86808 4.32406 6.21268 3.3923 8.65046 3.3923ZM8.65037 7.54594C9.98964 7.54586 11.2811 8.04108 12.2739 8.93538C12.4081 9.0623 12.6196 9.05955 12.7505 8.92918L14.0207 7.65245C14.0876 7.58549 14.1247 7.49464 14.1237 7.40024C14.1228 7.30583 14.0838 7.21576 14.0156 7.15015C10.9925 4.35262 6.31083 4.35262 3.28774 7.15015C3.21946 7.21575 3.1805 7.30588 3.1796 7.40031C3.1787 7.49474 3.21595 7.58558 3.28298 7.65245L4.55277 8.92918C4.68366 9.05955 4.89518 9.0623 5.02945 8.93538C6.02153 8.04167 7.31198 7.54649 8.65037 7.54594ZM11.1947 10.3407C11.1967 10.4354 11.1593 10.5267 11.0913 10.593L8.89422 12.7988C8.82982 12.8636 8.74201 12.9001 8.65038 12.9001C8.55876 12.9001 8.47095 12.8636 8.40655 12.7988L6.20906 10.593C6.14118 10.5266 6.10383 10.4353 6.10585 10.3407C6.10786 10.246 6.14905 10.1564 6.2197 10.0929C7.62286 8.91223 9.67791 8.91223 11.0811 10.0929C11.1517 10.1564 11.1928 10.2461 11.1947 10.3407Z" fill="black"/>
</svg>
